# Blender 5.0.1
# www.blender.org
mtllib BP_Apple.mtl
o SM_Apple.001
v -0.683399 0.891594 -43.100655
v 15.466548 13.863907 -61.866268
v 10.498797 -4.225902 -45.341129
v 4.284352 18.981403 -59.625793
v 21.874998 -21.875000 -43.750000
v 21.875000 21.875000 -43.750000
v 21.875002 21.875000 -0.000001
v 21.875000 -21.875000 -0.000001
v 21.874998 -21.875000 -43.750000
v -21.875002 21.875000 -43.750000
v 21.875000 21.875000 -43.750000
v -21.875002 -21.875000 -43.750000
v -21.875000 -21.875000 0.000001
v -21.875000 21.875000 0.000001
v -21.875002 21.875000 -43.750000
v -21.875002 -21.875000 -43.750000
v 21.875000 -21.875000 -0.000001
v 21.875002 21.875000 -0.000001
v -21.875000 21.875000 0.000001
v -21.875000 -21.875000 0.000001
v 21.874998 -21.875000 -43.750000
v 21.875000 -21.875000 -0.000001
v -21.875002 -21.875000 -43.750000
v -21.875000 -21.875000 0.000001
v 21.875000 21.875000 -43.750000
v -21.875000 21.875000 0.000001
v 21.875002 21.875000 -0.000001
v -21.875002 21.875000 -43.750000
vn -0.4003 -0.5557 -0.7287
vn 1.0000 -0.0000 -0.0000
vn -0.0000 -0.0000 -1.0000
vn -1.0000 -0.0000 -0.0000
vn -0.0000 -0.0000 1.0000
vn -0.0000 -1.0000 -0.0000
vn -0.0000 1.0000 -0.0000
vt 0.666504 0.666748
vt 0.333252 0.666748
vt 0.333252 0.333496
vt 0.666504 0.333496
vt 0.666504 0.999843
vt 0.333252 0.999843
vt 0.999512 0.333496
vt 0.999512 0.666748
vt 0.666504 0.000000
vt 0.333252 0.000000
vt 0.000031 0.809570
vt 0.095215 0.809570
vt 0.095215 0.999969
vt 0.000031 0.999969
vt 1.000000 0.666748
vt 1.000000 0.999843
vt 0.000031 0.666748
vt 0.000031 0.333496
s 1
usemtl MI_Apple
f 12/1/3 10/2/3 11/3/3 9/4/3
f 16/1/4 13/5/4 14/6/4 15/2/4
f 22/7/6 24/8/6 23/1/6 21/4/6
f 8/9/2 5/4/2 6/3/2 7/10/2
f 4/11/1 2/12/1 3/13/1 1/14/1
f 20/15/5 17/16/5 18/5/5 19/1/5
f 28/2/7 26/17/7 27/18/7 25/3/7
