# Blender 5.0.1
# www.blender.org
mtllib BP_Armchair.mtl
o SM_Armchair.001
v 34.375000 49.999977 -0.057203
v 53.125000 49.999973 49.942799
v 53.125000 49.999977 -0.057203
v 34.375000 49.999973 49.942799
v -34.375000 50.000000 -0.057203
v -53.125000 49.999996 49.942791
v -34.375000 49.999996 49.942799
v -53.125000 50.000000 -0.057203
v 34.375000 -50.000023 -0.057208
v 34.375000 -50.000027 49.942791
v 34.375000 -31.250023 49.942795
v 34.375000 -31.250021 -0.057207
v -15.625000 43.750011 168.442810
v -34.375000 50.000004 168.442795
v -34.375000 43.750004 168.442810
v -15.625000 50.000004 168.442795
v -34.375000 -31.250000 -0.057207
v -53.125000 -31.250002 49.942787
v -34.375000 -31.250002 49.942795
v -53.125000 -31.250000 -0.057207
v -34.375000 -31.250000 -0.057207
v -34.375000 -50.000004 49.942791
v -34.375000 -50.000000 -0.057208
v -34.375000 -31.250002 49.942795
v 34.375000 -31.250021 -0.057207
v 53.125000 -31.250023 49.942795
v 53.125000 -31.250021 -0.057207
v 34.375000 -31.250023 49.942795
v -34.375000 31.250000 -0.057204
v -34.375000 31.249998 49.942795
v -53.125000 31.249998 49.942787
v -53.125000 31.250000 -0.057204
v 34.375000 31.249977 49.942795
v 34.375000 31.249979 -0.057204
v 53.125000 31.249977 49.942795
v 53.125000 31.249979 -0.057204
v 53.125000 -50.000027 49.942791
v 53.125000 -50.000023 -0.057208
v 53.125000 -31.250021 -0.057207
v 53.125000 -31.250023 49.942795
v 34.375000 -50.000027 49.942791
v 34.375000 -50.000023 -0.057208
v 53.125000 -50.000027 49.942791
v 53.125000 -50.000023 -0.057208
v -34.375000 -50.000000 -0.057208
v -34.375000 -50.000004 49.942791
v -53.125000 -50.000004 49.942783
v -53.125000 -50.000000 -0.057208
v -53.125000 -50.000004 49.942783
v -53.125000 -31.250000 -0.057207
v -53.125000 -50.000000 -0.057208
v -53.125000 -31.250002 49.942787
v -15.625000 43.750034 175.442810
v 15.625002 50.000015 175.442795
v -15.625000 50.000027 175.442795
v 15.625002 43.750008 175.442810
v 15.625002 43.749985 168.442810
v 34.375000 49.999985 168.442795
v 15.625002 49.999992 168.442795
v 34.375000 43.749985 168.442810
v -34.375000 43.749992 162.442810
v -34.375000 49.999992 162.442795
v -34.375000 43.750004 168.442810
v 34.375000 43.749985 168.442810
v 34.375000 49.999969 162.442795
v 34.375000 43.749969 162.442810
v -15.625000 43.750034 175.442810
v -15.625000 50.000004 168.442795
v -15.625000 43.750011 168.442810
v -15.625000 50.000027 175.442795
v 15.625002 43.750008 175.442810
v 15.625002 49.999992 168.442795
v 15.625002 50.000015 175.442795
v 15.625002 43.749985 168.442810
v 53.125000 -50.000027 68.692795
v 53.125000 -31.250025 68.692810
v 53.125000 31.249977 49.942795
v 53.125000 31.249975 68.692833
v 53.125000 43.749969 162.442825
v 53.125000 31.249971 162.442841
v 53.125000 43.749973 68.692802
v 53.125000 49.999969 162.442795
v 53.125000 43.749973 49.942799
v 53.125000 49.999973 68.692787
v 53.125000 49.999973 49.942799
v 34.375000 31.249979 -0.057204
v 34.375000 31.249977 49.942795
v 34.375000 43.749973 49.942799
v 34.375000 43.749977 -0.057203
v 34.375000 49.999973 49.942799
v 34.375000 49.999977 -0.057203
v 53.125000 -50.000027 68.692795
v 34.374996 -50.000027 68.692795
v 15.625000 -50.000027 49.942791
v 15.625000 -50.000027 68.692802
v -15.625000 -50.000004 49.942791
v -15.625001 -50.000004 68.692810
v -34.375000 -50.000004 68.692810
v -53.125000 -50.000004 68.692810
v 34.375000 31.249971 162.442841
v 53.125000 31.249975 68.692833
v 53.125000 31.249971 162.442841
v 34.375000 31.249975 68.692818
v 15.625002 31.249971 162.442841
v 15.625002 31.249975 68.692818
v -15.625000 31.249996 68.692825
v -15.625000 31.249992 162.442841
v -34.375000 31.249996 68.692833
v -34.375000 31.249992 162.442841
v -53.125000 31.249992 162.442841
v -53.125000 31.249996 68.692833
v -15.625000 49.999992 162.442795
v -34.375000 49.999992 162.442795
v -15.625000 50.000004 168.442795
v 15.625002 49.999969 162.442795
v 15.625002 49.999992 168.442795
v 34.375000 49.999969 162.442795
v -15.625000 50.000027 175.442795
v 15.625002 50.000015 175.442795
v 34.375000 43.749985 168.442810
v 15.625002 43.749969 162.442810
v 34.375000 43.749969 162.442810
v 15.625002 43.749985 168.442810
v -15.625000 43.749992 162.442810
v -15.625000 43.750011 168.442810
v 15.625002 43.750008 175.442810
v -15.625000 43.750034 175.442810
v -34.375000 43.749992 162.442810
v -34.375000 43.750004 168.442810
v -53.125000 -50.000004 68.692810
v -53.125000 -31.250004 68.692810
v -53.125000 31.249998 49.942787
v -53.125000 31.249996 68.692833
v -53.125000 31.249992 162.442841
v -53.125000 43.749992 162.442825
v -53.125000 43.749996 68.692795
v -53.125000 49.999992 162.442795
v -53.125000 43.749996 49.942791
v -53.125000 49.999996 68.692780
v -53.125000 49.999996 49.942791
v -34.375000 31.249998 49.942795
v -34.375000 31.250000 -0.057204
v -34.375000 43.749996 49.942799
v -34.375000 43.750000 -0.057203
v -34.375000 50.000000 -0.057203
v -34.375000 49.999996 49.942799
v 53.125000 31.249979 -0.057204
v 53.125000 43.749977 -0.057203
v 53.125000 49.999977 -0.057203
v -53.125000 50.000000 -0.057203
v -53.125000 43.750000 -0.057203
v -53.125000 31.250000 -0.057204
v -53.125000 43.749992 162.442825
v -34.375000 49.999992 162.442795
v -53.125000 49.999992 162.442795
v -34.375000 43.749992 162.442810
v -53.125000 31.249992 162.442841
v -34.375000 31.249992 162.442841
v -15.625000 31.249992 162.442841
v -15.625000 43.749992 162.442810
v 15.625002 43.749969 162.442810
v 15.625002 31.249971 162.442841
v 34.375000 43.749969 162.442810
v 34.375000 31.249971 162.442841
v 53.125000 31.249971 162.442841
v 53.125000 43.749969 162.442825
v 53.125000 49.999969 162.442795
v 34.375000 49.999969 162.442795
v -53.125000 -50.000004 68.692810
v -34.375000 -50.000004 68.692810
v -53.125000 -31.250004 68.692810
v -34.375000 -31.250004 68.692810
v -53.125000 31.249996 68.692833
v -15.625001 -50.000004 68.692810
v -34.375000 31.249996 68.692833
v -15.625001 -31.250004 68.692810
v -15.625000 31.249996 68.692825
v 15.625002 31.249975 68.692818
v 15.625002 -31.250025 68.692802
v 15.625000 -50.000027 68.692802
v 34.374996 -50.000027 68.692795
v 34.374996 -31.250025 68.692795
v 53.125000 -50.000027 68.692795
v 34.375000 31.249975 68.692818
v 53.125000 -31.250025 68.692810
v 53.125000 31.249975 68.692833
v 53.125000 49.999973 68.692787
v 53.125000 49.999969 162.442795
v 34.374996 49.999973 68.692780
v 15.625002 49.999973 49.942799
v 15.625002 49.999973 68.692780
v -15.625000 49.999996 49.942799
v -15.625001 49.999996 68.692780
v -34.375000 49.999996 68.692780
v -53.125000 49.999996 68.692780
v -53.125000 49.999992 162.442795
v -53.125000 -31.250002 49.942787
v -53.125000 31.249998 49.942787
v -34.375000 -31.250002 49.942795
v -34.375000 31.249998 49.942795
v -15.625000 31.249998 49.942795
v -34.375000 43.749996 49.942799
v -15.625000 -31.250002 49.942795
v -34.375000 -50.000004 49.942791
v -15.625000 -50.000004 49.942791
v -15.625000 43.749996 49.942799
v -34.375000 49.999996 49.942799
v -15.625000 49.999996 49.942799
v 15.625002 49.999973 49.942799
v 15.625000 43.749973 49.942799
v 34.375000 43.749973 49.942799
v 34.375000 49.999973 49.942799
v 15.625000 31.249977 49.942795
v 34.375000 31.249977 49.942795
v 15.625002 -31.250023 49.942795
v 15.625000 -50.000027 49.942791
v 34.375000 -50.000027 49.942791
v 34.375000 -31.250023 49.942795
v 53.125000 -31.250023 49.942795
v 53.125000 31.249977 49.942795
vn -0.0000 1.0000 -0.0000
vn -1.0000 -0.0000 -0.0000
vn -0.0000 -0.0000 1.0000
vn -0.5774 0.5774 0.5773
vn 1.0000 -0.0000 -0.0000
vn -0.0000 -1.0000 -0.0000
vn 0.5774 0.5774 0.5773
vn -0.0000 -0.0000 -1.0000
vt 0.187500 0.500000
vt 0.187500 0.666748
vt 0.250000 0.666748
vt 0.250000 0.500000
vt 0.312500 0.666748
vt 0.312500 0.500000
vt 0.208252 0.666748
vt 0.208252 0.500000
vt 0.375000 0.291992
vt 0.312500 0.291992
vt 0.312500 0.354492
vt 0.375000 0.354492
vt 0.125000 0.500000
vt 0.125000 0.666748
vt 0.104126 0.500000
vt 0.104126 0.666748
vt 0.645508 0.416992
vt 0.645508 0.479492
vt 0.708008 0.479492
vt 0.708008 0.416992
vt 0.666504 0.354492
vt 0.604004 0.354492
vt 0.604004 0.416992
vt 0.666504 0.416992
vt 0.312500 0.062500
vt 0.000031 0.062500
vt 0.000031 0.125000
vt 0.312500 0.125000
vt 0.062500 0.666748
vt 0.062500 0.500000
vt 0.270752 0.354492
vt 0.333252 0.354492
vt 0.333252 0.416992
vt 0.270752 0.416992
vt 0.479004 0.083496
vt 0.500000 0.083496
vt 0.500000 0.145996
vt 0.479004 0.145996
vt 0.520508 0.104492
vt 0.541504 0.104492
vt 0.541504 0.166992
vt 0.520508 0.166992
vt 0.500000 0.291992
vt 0.500000 0.354492
vt 0.479004 0.354492
vt 0.479004 0.291992
vt 0.125000 0.999969
vt 0.229126 0.999969
vt 0.229126 0.937500
vt 0.125000 0.937500
vt 0.062500 0.416992
vt 0.062500 0.354492
vt 0.541504 0.270996
vt 0.520508 0.270996
vt 0.500000 0.270996
vt 0.479004 0.270996
vt 0.458252 0.333496
vt 0.458252 0.354492
vt 0.437500 0.354492
vt 0.437500 0.333496
vt 0.020828 0.416992
vt 0.062500 0.729248
vt 0.020828 0.729248
vt 0.000031 0.354492
vt 0.000031 0.416992
vt 0.020828 0.354492
vt 0.000031 0.729248
vt 0.166626 0.500000
vt 0.166626 0.666748
vt 0.541504 0.416992
vt 0.541504 0.354492
vt 0.458252 0.416992
vt 0.583008 0.479492
vt 0.583008 0.687500
vt 0.645508 0.687500
vt 0.708008 0.687500
vt 0.437500 0.104492
vt 0.437500 0.083496
vt 0.458252 0.083496
vt 0.458252 0.104492
vt 0.125000 0.687500
vt 0.229126 0.687500
vt 0.229126 0.666748
vt 0.583008 0.416992
vt 0.416504 0.416992
vt 0.416504 0.479492
vt 0.479004 0.479492
vt 0.479004 0.416992
vt 0.062500 0.687500
vt 0.312500 0.229492
vt 0.000031 0.229492
vt 0.000031 0.291992
vt 0.229126 0.729248
vt 0.291504 0.937500
vt 0.291504 0.729248
vt 0.458252 0.270996
vt 0.437500 0.270996
vt 0.291504 0.687500
vt 0.375000 0.062500
vt 0.375000 0.125000
vt 0.416504 0.687500
vt 0.354004 0.687500
vt 0.354004 0.999969
vt 0.416504 0.999969
vt 0.479004 0.999969
vt 0.479004 0.687500
vt 0.645508 0.999969
vt 0.583008 0.999969
vt 0.437500 0.291992
vt 0.416504 0.291992
vt 0.416504 0.354492
vt 0.270752 0.500000
vt 0.270752 0.666748
vt 0.479004 0.166992
vt 0.500000 0.166992
vt 0.458252 0.166992
vt 0.416504 0.000000
vt 0.416504 0.062500
vt 0.437500 0.062500
vt 0.437500 0.000000
vt 0.375000 0.229492
vt 0.375000 0.000000
vt 0.354004 0.416992
vt 0.354004 0.479492
vt 0.312500 0.000000
vt 0.125000 0.729248
vt 0.416504 0.229492
vt 0.395752 0.354492
vt 0.395752 0.416992
vt 0.437500 0.166992
vt 0.062500 0.937500
vt 0.062500 0.999969
vt 0.708008 0.999969
vt 0.291504 0.666748
vt 0.291504 0.999969
vt 0.541504 0.333496
vt 0.520508 0.333496
vt 0.354004 0.937500
vt 0.354004 0.729248
vt 0.000031 0.000000
vt 0.416504 0.145996
vt 0.375000 0.145996
vt 0.000031 0.937500
s 1
usemtl MI_Armchair
f 44/1/6 43/2/6 41/3/6 42/4/6
f 20/4/1 18/3/1 19/5/1 17/6/1
f 85/2/5 83/7/5 148/8/5 149/1/5
f 4/9/1 189/10/1 187/11/1 2/12/1
f 47/2/6 48/1/6 45/13/6 46/14/6
f 91/13/2 89/15/2 88/16/2 90/14/2
f 170/17/3 172/18/3 171/19/3 169/20/3
f 47/21/6 46/22/6 98/23/6 99/24/6
f 194/25/1 113/26/1 112/27/1 193/28/1
f 28/29/1 26/14/1 27/13/1 25/30/1
f 52/31/2 49/32/2 130/33/2 131/34/2
f 60/35/3 58/36/7 59/37/3 57/38/3
f 4/14/1 2/2/1 3/1/1 1/13/1
f 58/39/7 117/40/1 115/41/1 116/42/1
f 16/43/3 14/44/4 15/45/3 13/46/3
f 216/47/8 205/48/8 203/49/8 215/50/8
f 133/51/2 132/52/2 52/31/2 131/34/2
f 116/42/1 115/41/1 112/53/1 114/54/1
f 70/55/2 68/43/2 69/46/2 67/56/2
f 63/57/2 14/58/4 62/59/2 61/60/2
f 8/1/1 6/2/1 7/3/1 5/4/1
f 136/61/2 133/51/2 134/62/2 135/63/2
f 85/64/5 84/65/5 81/61/5 83/66/5
f 139/65/2 136/61/2 135/63/2 137/67/2
f 140/64/2 138/66/2 136/61/2 139/65/2
f 151/68/2 138/69/2 140/2/2 150/1/2
f 152/13/2 132/14/2 138/69/2 151/68/2
f 97/70/6 96/71/6 94/58/6 95/72/6
f 176/73/3 177/74/3 175/75/3 172/18/3
f 31/14/6 32/13/6 29/30/6 30/29/6
f 172/18/3 175/75/3 173/76/3 171/19/3
f 66/77/5 65/78/5 58/79/7 64/80/5
f 210/81/8 206/82/8 208/83/8 209/14/8
f 174/84/3 176/73/3 172/18/3 170/17/3
f 181/85/3 182/86/3 179/87/3 180/88/3
f 211/89/8 210/81/8 209/14/8 212/29/8
f 191/90/1 115/91/1 117/92/1 189/10/1
f 201/93/8 203/49/8 199/94/8 200/95/8
f 83/66/5 81/61/5 78/51/5 77/52/5
f 125/96/6 129/57/6 128/60/6 124/97/6
f 206/82/8 201/93/8 200/95/8 202/98/8
f 7/99/1 194/25/1 193/28/1 192/100/1
f 103/101/6 101/102/6 102/103/6 100/104/6
f 104/105/6 105/106/6 103/101/6 100/104/6
f 179/87/3 178/106/3 177/74/3 176/73/3
f 24/29/5 22/14/5 23/13/5 21/30/5
f 109/107/6 108/75/6 106/74/6 107/108/6
f 84/65/5 82/67/5 79/63/5 81/61/5
f 81/61/5 79/63/5 80/62/5 78/51/5
f 168/109/3 163/110/3 166/111/3 167/59/3
f 52/3/2 50/4/2 51/1/2 49/2/2
f 142/6/5 144/112/5 143/113/5 141/5/5
f 89/15/2 86/30/2 87/29/2 88/16/2
f 107/108/6 106/74/6 105/106/6 104/105/6
f 12/6/2 9/4/2 10/3/2 11/5/2
f 147/4/5 148/8/5 83/7/5 77/3/5
f 138/66/2 132/52/2 133/51/2 136/61/2
f 165/12/3 166/111/3 163/110/3 164/9/3
f 146/3/5 143/113/5 144/112/5 145/4/5
f 56/114/3 54/115/3 55/55/3 53/56/3
f 126/114/6 127/56/6 125/96/6 123/116/6
f 74/38/5 72/37/5 73/115/5 71/114/5
f 153/117/3 156/118/3 154/119/3 155/120/3
f 192/100/1 193/28/1 191/90/1 190/121/1
f 40/14/5 37/2/5 38/1/5 39/13/5
f 98/23/6 46/22/6 96/71/6 97/70/6
f 182/86/3 184/101/3 178/106/3 179/87/3
f 158/99/3 156/118/3 153/117/3 157/122/3
f 183/123/3 185/124/3 182/86/3 181/85/3
f 190/121/1 191/90/1 189/10/1 4/9/1
f 6/122/1 195/125/1 194/25/1 7/99/1
f 213/126/8 215/50/8 203/49/8 201/93/8
f 162/121/3 164/9/3 163/110/3 161/127/3
f 95/72/6 94/58/6 41/128/6 93/129/6
f 189/10/1 117/92/1 188/64/1 187/11/1
f 120/80/6 123/116/6 121/130/6 122/77/6
f 218/131/8 217/132/8 216/47/8 215/50/8
f 111/76/6 108/75/6 109/107/6 110/133/6
f 208/83/8 206/82/8 202/98/8 207/134/8
f 205/48/8 204/135/8 199/94/8 203/49/8
f 36/4/6 35/3/6 33/5/6 34/6/6
f 193/28/1 112/27/1 115/91/1 191/90/1
f 123/116/6 125/96/6 124/97/6 121/130/6
f 119/115/1 116/42/1 114/54/1 118/55/1
f 214/62/8 218/131/8 215/50/8 213/126/8
f 114/54/1 112/53/1 113/136/1 14/137/4
f 200/95/8 199/94/8 197/138/8 198/139/8
f 195/125/1 196/140/1 113/26/1 194/25/1
f 76/34/5 75/33/5 37/32/5 40/31/5
f 162/121/3 161/127/3 160/141/3 159/142/3
f 78/51/5 76/34/5 40/31/5 77/52/5
f 186/102/3 184/101/3 182/86/3 185/124/3
f 210/81/8 213/126/8 201/93/8 206/82/8
f 159/142/3 160/141/3 156/118/3 158/99/3
f 180/88/3 179/87/3 176/73/3 174/84/3
f 93/129/6 41/128/6 43/32/6 92/33/6
f 211/89/8 214/62/8 213/126/8 210/81/8
f 220/67/8 219/143/8 218/131/8 214/62/8
