# Blender 5.0.1
# www.blender.org
mtllib BP_AM_PC_Corner_R.mtl
o SM_AM_Powercable__Corner_R.001
v -56.250000 43.750000 6.249993
v -100.000000 56.250000 6.249991
v -100.000000 43.750000 6.249993
v -43.750000 56.250000 6.249991
v -43.750000 0.000001 6.250000
v -56.250000 0.000001 6.250000
vn -0.0000 -0.0000 1.0000
vt 0.000031 0.437500
vt 0.437256 0.437500
vt 0.000031 0.562500
vt 0.562012 0.562500
vt 0.562500 0.000000
vt 0.437256 0.000000
s 1
usemtl WorldGridMaterial
f 3/1/1 1/2/1 2/3/1
f 4/4/1 2/3/1 1/2/1
f 1/2/1 5/5/1 4/4/1
f 6/6/1 5/5/1 1/2/1
