# Blender 5.0.1
# www.blender.org
mtllib BP_Arrowtarget.mtl
o SM_Arrowtarget.001
v 49.830101 0.365695 168.780441
v -50.169899 0.365686 168.780441
v -50.169899 -11.708388 172.015686
v 49.830101 -11.708380 172.015686
v -50.169895 -37.652756 75.189987
v 49.830105 -37.652748 75.189987
v 49.830101 -11.708380 172.015686
v -50.169899 -11.708388 172.015686
v -50.169895 -25.578686 71.954758
v 49.830105 -25.578676 71.954758
v 49.830105 -37.652748 75.189987
v -50.169895 -37.652756 75.189987
v -50.169899 0.365686 168.780441
v 49.830101 0.365695 168.780441
v 49.830105 -25.578676 71.954758
v -50.169895 -25.578686 71.954758
v -50.169895 -25.578686 71.954758
v -50.169899 -11.708388 172.015686
v -50.169899 0.365686 168.780441
v -50.169895 -37.652756 75.189987
v 49.830101 -11.708380 172.015686
v 49.830105 -37.652748 75.189987
v 49.830105 -25.578676 71.954758
v 49.830101 0.365695 168.780441
v 27.955099 3.191907 178.027435
v 46.705101 9.228946 176.409821
v 27.955099 9.228945 176.409821
v 46.705101 3.191909 178.027435
v 46.705105 -43.643528 3.235217
v 46.705101 3.191909 178.027435
v 27.955103 -43.643528 3.235217
v 27.955099 3.191907 178.027435
v 27.955103 -37.606495 1.617602
v 46.705105 -37.606495 1.617602
v 46.705105 -43.643528 3.235217
v 27.955103 -43.643528 3.235217
v 46.705101 9.228946 176.409821
v 46.705105 -37.606495 1.617602
v 27.955099 9.228945 176.409821
v 27.955103 -37.606495 1.617602
v 27.955103 -37.606495 1.617602
v 27.955099 3.191907 178.027435
v 27.955099 9.228945 176.409821
v 27.955103 -43.643528 3.235217
v 46.705101 3.191909 178.027435
v 46.705105 -43.643528 3.235217
v 46.705105 -37.606495 1.617602
v 46.705101 9.228946 176.409821
v -28.294903 9.228939 176.409821
v -47.044899 9.228938 176.409821
v -47.044899 3.191900 178.027435
v -28.294903 3.191902 178.027435
v -28.294899 -43.643536 3.235217
v -28.294903 3.191902 178.027435
v -47.044895 -43.643536 3.235217
v -47.044899 3.191900 178.027435
v -47.044895 -37.606503 1.617602
v -28.294899 -37.606503 1.617602
v -28.294899 -43.643536 3.235217
v -47.044895 -43.643536 3.235217
v -28.294903 9.228939 176.409821
v -28.294899 -37.606503 1.617602
v -47.044899 9.228938 176.409821
v -47.044895 -37.606503 1.617602
v -47.044895 -37.606503 1.617602
v -47.044899 3.191900 178.027435
v -47.044899 9.228938 176.409821
v -47.044895 -43.643536 3.235217
v -28.294903 3.191902 178.027435
v -28.294899 -43.643536 3.235217
v -28.294899 -37.606503 1.617602
v -28.294903 9.228939 176.409821
v -62.330006 -2.718278 131.679657
v -62.330006 8.171615 148.173141
v -62.330006 3.318755 130.062042
v -62.330006 2.134578 149.790771
v 62.330105 -2.718267 131.679657
v -62.330006 2.134578 149.790771
v -62.330006 -2.718278 131.679657
v 62.330105 2.134589 149.790771
v 62.330105 8.171626 148.173141
v 62.330105 -2.718267 131.679657
v 62.330105 3.318766 130.062042
v 62.330105 2.134589 149.790771
v 62.330105 3.318766 130.062042
v -62.330006 3.318755 130.062042
v 62.330105 8.171626 148.173141
v -62.330006 8.171615 148.173141
v -62.330006 3.318755 130.062042
v 62.330105 3.318766 130.062042
v 62.330105 -2.718267 131.679657
v -62.330006 -2.718278 131.679657
v 62.330105 8.171626 148.173141
v -62.330006 8.171615 148.173141
v -62.330006 2.134578 149.790771
v 62.330105 2.134589 149.790771
v 9.205097 37.606464 -0.000017
v 9.205100 0.104025 139.961014
v -9.544902 37.606464 -0.000017
v -9.544899 0.104023 139.961014
v 9.205099 6.141062 141.578629
v 9.205096 43.643501 1.617598
v -9.544900 6.141060 141.578629
v -9.544903 43.643501 1.617598
v -9.544902 37.606464 -0.000017
v -9.544899 0.104023 139.961014
v -9.544900 6.141060 141.578629
v -9.544903 43.643501 1.617598
v 9.205099 6.141062 141.578629
v 9.205097 37.606464 -0.000017
v 9.205096 43.643501 1.617598
v 9.205100 0.104025 139.961014
vn -0.0000 0.2588 0.9659
vn -0.0000 -0.9659 0.2588
vn -0.0000 -0.2588 -0.9659
vn -0.0000 0.9659 -0.2588
vn -1.0000 -0.0000 -0.0000
vn 1.0000 -0.0000 -0.0000
vn -0.0000 -0.9659 -0.2588
vn -0.0000 0.9659 0.2588
vt 0.781250 0.937500
vt 0.781250 0.031250
vt 0.875000 0.031250
vt 0.875000 0.937500
vt 0.843750 0.968750
vt 0.843750 0.343750
vt 0.937500 0.343750
vt 0.937500 0.968750
vt 0.718750 0.031250
vt 0.718750 0.937500
vt 0.625000 0.937500
vt 0.625000 0.031250
vt 0.062500 0.437500
vt 0.062500 0.375000
vt 0.562500 0.375000
vt 0.562500 0.437500
vt 0.000031 0.937500
vt 0.000031 0.437500
vt 0.062500 0.937500
vt 0.968750 0.999969
vt 0.968750 0.281250
vt 1.000000 0.281250
vt 1.000000 0.999969
vt 0.531250 0.000000
vt 0.531250 0.437500
vt 0.093750 0.437500
vt 0.093750 0.000000
vt 0.562500 0.937500
vt 0.562500 0.999969
vt 0.062500 0.999969
vt 0.875000 0.968750
vt 0.781250 0.968750
vt 0.843750 0.937500
vt 0.750000 0.968750
vt 0.750000 0.937500
vt 0.843750 0.031250
vt 0.750000 0.031250
vt 0.687500 0.343750
vt 0.718750 0.343750
vt 0.718750 0.968750
vt 0.687500 0.968750
vt 0.750000 0.999969
vt 0.750000 0.281250
vt 0.843750 0.281250
vt 0.843750 0.999969
vt 0.750000 0.000000
vt 0.843750 0.000000
vt 0.906250 0.031250
vt 0.906250 0.937500
vt 0.875000 0.281250
vt 0.875000 0.999969
vt 0.843750 0.312500
vt 0.937500 0.312500
vt 0.781250 0.000000
vt 0.875000 0.000000
vt 1.000000 0.031250
vt 1.000000 0.937500
vt 0.812500 0.968750
vt 0.812500 0.343750
vt 0.937500 0.999969
vt 0.625000 0.437500
s 1
usemtl MI_Arrowtarget
f 32/1/2 31/2/2 29/3/2 30/4/2
f 80/5/2 78/6/2 79/7/2 77/8/2
f 64/9/4 63/10/4 61/11/4 62/12/4
f 4/13/1 1/14/1 2/15/1 3/16/1
f 23/17/6 24/18/6 21/13/6 22/19/6
f 107/20/5 108/21/5 105/22/5 106/23/5
f 16/24/4 13/25/4 14/26/4 15/27/4
f 12/28/3 9/29/3 10/30/3 11/19/3
f 28/4/1 26/31/1 27/32/1 25/1/1
f 52/33/1 49/5/1 50/34/1 51/35/1
f 71/3/6 72/4/6 69/33/6 70/36/6
f 44/2/5 42/1/5 43/35/5 41/37/5
f 8/16/2 5/28/2 6/19/2 7/13/2
f 92/38/3 89/39/3 90/40/3 91/41/3
f 100/42/7 99/43/7 97/44/7 98/45/7
f 60/37/3 57/46/3 58/47/3 59/36/3
f 47/48/6 48/49/6 45/4/6 46/3/6
f 112/45/6 110/44/6 111/50/6 109/51/6
f 68/37/5 66/35/5 67/10/5 65/9/5
f 76/6/5 74/52/5 75/53/5 73/7/5
f 36/2/3 33/54/3 34/55/3 35/3/3
f 40/56/4 39/57/4 37/49/4 38/48/4
f 56/35/2 55/37/2 53/36/2 54/33/2
f 96/5/1 93/58/1 94/59/1 95/6/1
f 86/39/4 88/59/4 87/58/4 85/40/4
f 84/5/6 82/8/6 83/60/6 81/45/6
f 20/28/5 18/16/5 19/61/5 17/11/5
f 104/21/8 103/20/8 101/51/8 102/50/8
