# Blender 5.0.1
# www.blender.org
mtllib BP_ArenaEye_Clicky001.mtl
o SK_Lever.001
v 95.983002 6.249377 107.712608
v 48.104923 6.250144 147.886459
v 56.139694 6.250010 157.462082
v 104.017776 6.249243 117.288223
v 48.104923 6.250144 147.886459
v 95.983002 6.249377 107.712608
v 95.982796 -6.250623 107.712601
v 48.104717 -6.249856 147.886459
v 104.017570 -6.250757 117.288216
v 48.104717 -6.249856 147.886459
v 95.982796 -6.250623 107.712601
v 56.139488 -6.249990 157.462067
v 104.017776 6.249243 117.288223
v 56.139694 6.250010 157.462082
v 56.139488 -6.249990 157.462067
v 104.017570 -6.250757 117.288216
v 95.983002 6.249377 107.712608
v 104.017776 6.249243 117.288223
v 95.982796 -6.250623 107.712601
v 104.017570 -6.250757 117.288216
v 48.104923 6.250144 147.886459
v 56.139488 -6.249990 157.462067
v 56.139694 6.250010 157.462082
v 48.104717 -6.249856 147.886459
v 75.000542 18.749718 118.750229
v 125.000542 18.748901 118.750610
v 125.000687 18.748907 100.000610
v 75.000687 18.749723 100.000229
v 75.000542 18.749718 118.750229
v 74.999931 -18.750282 118.750214
v 125.000542 18.748901 118.750610
v 124.999931 -18.751099 118.750595
v 75.000076 -18.750277 100.000214
v 125.000076 -18.751093 100.000595
v 124.999931 -18.751099 118.750595
v 74.999931 -18.750282 118.750214
v 75.000687 18.749723 100.000229
v 125.000687 18.748907 100.000610
v 125.000076 -18.751093 100.000595
v 75.000076 -18.750277 100.000214
v 74.999931 -18.750282 118.750214
v 75.000542 18.749718 118.750229
v 75.000687 18.749723 100.000229
v 75.000076 -18.750277 100.000214
v 125.000542 18.748901 118.750610
v 125.000076 -18.751093 100.000595
v 125.000687 18.748907 100.000610
v 124.999931 -18.751099 118.750595
vn -0.0000 1.0000 -0.0000
vn -0.6428 -0.0000 -0.7660
vn -0.0000 -1.0000 -0.0000
vn 0.6428 -0.0000 0.7660
vn 0.7660 -0.0000 -0.6428
vn -0.7660 -0.0000 0.6428
vn -0.0000 -0.0000 1.0000
vn -0.0000 -0.0000 -1.0000
vn -1.0000 -0.0000 -0.0000
vn 1.0000 -0.0000 -0.0000
vt 0.093750 0.718994
vt 0.093750 0.531494
vt 0.343506 0.531494
vt 0.343506 0.718994
vt 0.624512 0.625244
vt 0.687012 0.625244
vt 0.687012 0.937500
vt 0.624512 0.937500
vt 0.343506 0.812622
vt 0.343506 1.000031
vt 0.093750 0.999969
vt 0.093750 0.812622
vt 0.562012 0.937500
vt 0.562012 0.999969
vt 0.500000 0.999969
vt 0.500000 0.937500
vt 0.343506 0.437988
vt 0.093750 0.437988
vt 0.437256 0.531494
vt 0.437256 0.718994
vt 0.437500 0.937500
vt 0.437500 0.625244
vt 0.500000 0.625244
vt 0.093689 0.812622
vt 0.093689 0.718994
vt 0.500000 0.562744
vt 0.562012 0.562744
vt 0.562012 0.625244
vt 0.562500 0.937500
vt 0.000031 0.718994
vt 0.000031 0.531494
vt 0.093689 0.531494
s 1
usemtl MI_Lever
f 32/1/7 31/2/7 29/3/7 30/4/7
f 16/5/4 13/6/4 14/7/4 15/8/4
f 40/9/8 37/10/8 38/11/8 39/12/8
f 24/13/6 22/14/6 23/15/6 21/16/6
f 36/17/3 33/3/3 34/2/3 35/18/3
f 43/19/9 44/20/9 41/4/9 42/3/9
f 12/16/3 10/21/3 11/22/3 9/23/3
f 28/4/1 25/9/1 26/24/1 27/25/1
f 18/26/5 20/27/5 19/28/5 17/23/5
f 3/29/1 4/28/1 1/5/1 2/8/1
f 8/13/2 5/16/2 6/23/2 7/28/2
f 48/1/10 46/30/10 47/31/10 45/32/10
