# Blender 5.0.1
# www.blender.org
mtllib BP_Anvil.mtl
o SM_Anvil.001
v 128.239792 -257.298096 56.250023
v -71.760170 -257.298126 31.250023
v 128.239792 -257.298126 31.250023
v -71.760170 -257.298096 56.250023
v -71.760170 -107.298119 56.250008
v 128.239792 -107.298126 31.250004
v -71.760170 -107.298126 31.250004
v 128.239792 -107.298119 56.250008
v 128.239792 -107.298119 56.250008
v 128.239792 -257.298126 31.250023
v 128.239792 -107.298126 31.250004
v 128.239792 -257.298096 56.250023
v 128.239792 -257.298126 31.250023
v -71.760170 -107.298126 31.250004
v 128.239792 -107.298126 31.250004
v -71.760170 -257.298126 31.250023
v -71.760170 -257.298096 56.250023
v -71.760170 -107.298126 31.250004
v -71.760170 -257.298126 31.250023
v -71.760170 -107.298119 56.250008
v 128.239792 -107.298119 56.250008
v -71.760170 -257.298096 56.250023
v 128.239792 -257.298096 56.250023
v -71.760170 -107.298119 56.250008
v 128.250000 -232.298111 193.750031
v -71.750000 -232.298096 143.750031
v 128.250000 -232.298096 143.750031
v -71.750000 -232.298111 193.750031
v -71.750000 -132.298096 193.750015
v 128.250000 -132.298111 143.750015
v -71.750000 -132.298111 143.750015
v 128.250000 -132.298096 193.750015
v 128.250000 -132.298096 193.750015
v 128.250000 -232.298096 143.750031
v 128.250000 -132.298111 143.750015
v 128.250000 -232.298111 193.750031
v 128.250000 -232.298096 143.750031
v -71.750000 -132.298111 143.750015
v 128.250000 -132.298111 143.750015
v -71.750000 -232.298096 143.750031
v -71.750000 -232.298111 193.750031
v -71.750000 -132.298111 143.750015
v -71.750000 -232.298096 143.750031
v -71.750000 -132.298096 193.750015
v 128.250000 -132.298096 193.750015
v -71.750000 -232.298111 193.750031
v 128.250000 -232.298111 193.750031
v -71.750000 -132.298096 193.750015
v 106.364799 -244.798111 81.250023
v -49.885170 -244.798111 56.250023
v 106.364799 -244.798111 56.250023
v -49.885170 -244.798111 81.250023
v -49.885170 -119.798119 81.250008
v 106.364799 -119.798126 56.250004
v -49.885170 -119.798126 56.250004
v 106.364799 -119.798119 81.250008
v 106.364799 -119.798119 81.250008
v 106.364799 -244.798111 56.250023
v 106.364799 -119.798126 56.250004
v 106.364799 -244.798111 81.250023
v 106.364799 -244.798111 56.250023
v -49.885170 -119.798126 56.250004
v 106.364799 -119.798126 56.250004
v -49.885170 -244.798111 56.250023
v -49.885170 -244.798111 81.250023
v -49.885170 -119.798126 56.250004
v -49.885170 -244.798111 56.250023
v -49.885170 -119.798119 81.250008
v 106.364799 -119.798119 81.250008
v -49.885170 -244.798111 81.250023
v 106.364799 -244.798111 81.250023
v -49.885170 -119.798119 81.250008
v 78.250000 -222.923096 143.750031
v -21.750000 -222.923111 81.250015
v 78.250000 -222.923111 81.250015
v -21.750000 -222.923096 143.750031
v -21.750000 -141.673111 143.750015
v 78.250000 -141.673111 81.250015
v -21.750000 -141.673111 81.250015
v 78.250000 -141.673111 143.750015
v 78.250000 -141.673111 143.750015
v 78.250000 -222.923111 81.250015
v 78.250000 -141.673111 81.250015
v 78.250000 -222.923096 143.750031
v 78.250000 -222.923111 81.250015
v -21.750000 -141.673111 81.250015
v 78.250000 -141.673111 81.250015
v -21.750000 -222.923111 81.250015
v -21.750000 -222.923096 143.750031
v -21.750000 -141.673111 81.250015
v -21.750000 -222.923111 81.250015
v -21.750000 -141.673111 143.750015
v 78.250000 -141.673111 143.750015
v -21.750000 -222.923096 143.750031
v 78.250000 -222.923096 143.750031
v -21.750000 -141.673111 143.750015
v 218.750000 -213.548111 56.250015
v 168.750000 -213.548126 31.250017
v 218.750000 -213.548126 31.250017
v 168.750000 -213.548111 56.250015
v 168.750000 -113.548126 56.250008
v 218.750000 -113.548119 31.250004
v 168.750000 -113.548119 31.250004
v 218.750000 -113.548126 56.250008
v 218.750000 -113.548126 56.250008
v 218.750000 -213.548126 31.250017
v 218.750000 -113.548119 31.250004
v 218.750000 -213.548111 56.250015
v 218.750000 -213.548126 31.250017
v 168.750000 -113.548119 31.250004
v 218.750000 -113.548119 31.250004
v 168.750000 -213.548126 31.250017
v 168.750000 -213.548111 56.250015
v 168.750000 -113.548119 31.250004
v 168.750000 -213.548126 31.250017
v 168.750000 -113.548126 56.250008
v 218.750000 -113.548126 56.250008
v 168.750000 -213.548111 56.250015
v 218.750000 -213.548111 56.250015
v 168.750000 -113.548126 56.250008
v 256.250000 -213.548111 81.250015
v 206.250000 -213.548111 56.250015
v 256.250000 -213.548111 56.250015
v 206.250000 -213.548111 81.250015
v 206.250000 -113.548119 81.250008
v 256.250000 -113.548126 56.250008
v 206.250000 -113.548126 56.250008
v 256.250000 -113.548119 81.250008
v 256.250000 -113.548119 81.250008
v 256.250000 -213.548111 56.250015
v 256.250000 -113.548126 56.250008
v 256.250000 -213.548111 81.250015
v 256.250000 -213.548111 56.250015
v 206.250000 -113.548126 56.250008
v 256.250000 -113.548126 56.250008
v 206.250000 -213.548111 56.250015
v 206.250000 -213.548111 81.250015
v 206.250000 -113.548126 56.250008
v 206.250000 -213.548111 56.250015
v 206.250000 -113.548119 81.250008
v 256.250000 -113.548119 81.250008
v 206.250000 -213.548111 81.250015
v 256.250000 -213.548111 81.250015
v 206.250000 -113.548119 81.250008
v 281.250000 -213.548111 56.250015
v 231.250000 -213.548126 31.250017
v 281.250000 -213.548126 31.250017
v 231.250000 -213.548111 56.250015
v 231.250000 -113.548126 56.250008
v 281.250000 -113.548119 31.250004
v 231.250000 -113.548119 31.250004
v 281.250000 -113.548126 56.250008
v 281.250000 -113.548126 56.250008
v 281.250000 -213.548126 31.250017
v 281.250000 -113.548119 31.250004
v 281.250000 -213.548111 56.250015
v 281.250000 -213.548126 31.250017
v 231.250000 -113.548119 31.250004
v 281.250000 -113.548119 31.250004
v 231.250000 -213.548126 31.250017
v 231.250000 -213.548111 56.250015
v 231.250000 -113.548119 31.250004
v 231.250000 -213.548126 31.250017
v 231.250000 -113.548126 56.250008
v 281.250000 -113.548126 56.250008
v 231.250000 -213.548111 56.250015
v 281.250000 -213.548111 56.250015
v 231.250000 -113.548126 56.250008
v 70.937416 -219.302002 218.750031
v 27.959341 -193.750397 193.750031
v 70.937416 -219.302002 193.750031
v 27.959341 -193.750397 218.750031
v 79.062584 -107.794220 218.750000
v 122.040703 -133.345856 193.750015
v 79.062584 -107.794220 193.750000
v 122.040703 -133.345840 218.750000
v 122.040703 -133.345840 218.750000
v 70.937416 -219.302002 193.750031
v 122.040703 -133.345856 193.750015
v 70.937416 -219.302002 218.750031
v 70.937416 -219.302002 193.750031
v 79.062584 -107.794220 193.750000
v 122.040703 -133.345856 193.750015
v 27.959341 -193.750397 193.750031
v 27.959341 -193.750397 218.750031
v 79.062584 -107.794220 193.750000
v 27.959341 -193.750397 193.750031
v 79.062584 -107.794220 218.750000
v 122.040703 -133.345840 218.750000
v 27.959341 -193.750397 218.750031
v 70.937416 -219.302002 218.750031
v 79.062584 -107.794220 218.750000
vn -0.0000 -1.0000 -0.0000
vn -0.0000 1.0000 -0.0000
vn 1.0000 -0.0000 -0.0000
vn -0.0000 -0.0000 -1.0000
vn -1.0000 -0.0000 -0.0000
vn -0.0000 -0.0000 1.0000
vn -0.5110 -0.8596 -0.0000
vn 0.5110 0.8596 -0.0000
vn 0.8596 -0.5110 -0.0000
vn -0.8596 0.5110 -0.0000
vt 0.328125 0.710938
vt 0.226562 0.710938
vt 0.226562 0.632812
vt 0.328125 0.632812
vt 0.437500 0.250000
vt 0.187500 0.250000
vt 0.187500 0.218750
vt 0.437500 0.218750
vt 0.578125 0.664062
vt 0.453125 0.664062
vt 0.453125 0.632812
vt 0.578125 0.632812
vt 0.640625 0.789062
vt 0.578125 0.789062
vt 0.640625 0.664062
vt 0.125000 0.875000
vt 0.000031 0.875000
vt 0.000031 0.812500
vt 0.125000 0.812500
vt 0.226562 0.812500
vt 0.101562 0.812500
vt 0.101562 0.710938
vt 0.546875 0.632812
vt 0.351562 0.632812
vt 0.351562 0.476562
vt 0.546875 0.476562
vt 0.703125 0.789062
vt 0.703125 0.664062
vt 0.765625 0.664062
vt 0.640625 0.632812
vt 0.765625 0.632812
vt 0.000031 0.710938
vt 0.000031 0.632812
vt 0.101562 0.632812
vt 0.828125 0.664062
vt 0.828125 0.632812
vt 0.625000 0.999969
vt 0.375000 0.999969
vt 0.375000 0.875000
vt 0.625000 0.875000
vt 0.687500 0.437500
vt 0.437500 0.437500
vt 0.687500 0.250000
vt 0.375000 0.812500
vt 0.875000 0.250000
vt 0.625000 0.250000
vt 0.625000 0.218750
vt 0.875000 0.218750
vt 0.156250 0.476562
vt 0.156250 0.445312
vt 0.351562 0.445312
vt 0.453125 0.710938
vt 0.125000 0.999969
vt 0.507812 0.476562
vt 0.507812 0.445312
vt 0.187500 0.437500
vt 0.703125 0.476562
vt 0.703125 0.445312
vt 0.750000 0.875000
vt 0.500000 0.875000
vt 0.500000 0.812500
vt 0.750000 0.812500
vt 0.000031 0.476562
vt 0.000031 0.445312
vt 0.351562 0.812500
vt 0.351562 0.710938
vt 0.156250 0.632812
vt 0.000031 0.250000
vt 0.000031 0.218750
s 1
usemtl MI_Anvil
f 81/1/3 84/2/3 82/3/3 83/4/3
f 1/5/1 4/6/1 2/7/1 3/8/1
f 185/9/10 188/10/10 186/11/10 187/12/10
f 117/13/6 120/14/6 118/9/6 119/15/6
f 41/16/5 44/17/5 42/18/5 43/19/5
f 93/20/6 96/21/6 94/22/6 95/2/6
f 61/23/4 64/24/4 62/25/4 63/26/4
f 157/27/4 160/13/4 158/15/4 159/28/4
f 129/29/3 132/15/3 130/30/3 131/31/3
f 89/22/5 92/32/5 90/33/5 91/34/5
f 177/29/9 180/15/9 178/30/9 179/31/9
f 101/35/2 104/29/2 102/31/2 103/36/2
f 37/37/4 40/38/4 38/39/4 39/40/4
f 125/35/2 128/29/2 126/31/2 127/36/2
f 153/29/3 156/15/3 154/30/3 155/31/3
f 133/27/4 136/13/4 134/15/4 135/28/4
f 161/9/5 164/10/5 162/11/5 163/12/5
f 145/15/1 148/9/1 146/12/1 147/30/1
f 13/41/4 16/42/4 14/5/4 15/43/4
f 73/2/1 76/22/1 74/34/1 75/3/1
f 25/39/1 28/16/1 26/19/1 27/44/1
f 5/45/2 8/46/2 6/47/2 7/48/2
f 109/27/4 112/13/4 110/15/4 111/28/4
f 49/25/1 52/49/1 50/50/1 51/51/1
f 77/52/2 80/1/2 78/4/2 79/11/2
f 173/35/8 176/29/8 174/31/8 175/36/8
f 9/46/3 12/5/3 10/8/3 11/47/3
f 45/38/6 48/53/6 46/16/6 47/39/6
f 57/54/3 60/25/3 58/51/3 59/55/3
f 21/42/6 24/56/6 22/6/6 23/5/6
f 53/57/2 56/54/2 54/55/2 55/58/2
f 29/59/2 32/60/2 30/61/2 31/62/2
f 65/49/5 68/63/5 66/64/5 67/50/5
f 121/15/1 124/9/1 122/12/1 123/30/1
f 33/60/3 36/39/3 34/44/3 35/61/3
f 85/65/4 88/20/4 86/2/4 87/66/4
f 97/15/1 100/9/1 98/12/1 99/30/1
f 69/24/6 72/67/6 70/49/6 71/25/6
f 105/29/3 108/15/3 106/30/3 107/31/3
f 149/35/2 152/29/2 150/31/2 151/36/2
f 113/9/5 116/10/5 114/11/5 115/12/5
f 141/13/6 144/14/6 142/9/6 143/15/6
f 165/13/6 168/14/6 166/9/6 167/15/6
f 137/9/5 140/10/5 138/11/5 139/12/5
f 189/13/6 192/14/6 190/9/6 191/15/6
f 17/6/5 20/68/5 18/69/5 19/7/5
f 181/27/4 184/13/4 182/15/4 183/28/4
f 169/15/7 172/9/7 170/12/7 171/30/7
