# Blender 5.0.1
# www.blender.org
mtllib BP_AM_DrownedStatue_Large_Interactive.mtl
o SM_RR_Drowned_FacePlate.001
v -149.998245 250.000916 1400.000122
v -49.998260 250.000305 1350.000244
v -149.998260 250.000916 1350.000244
v -49.998241 250.000259 1400.000122
v 50.001736 249.999649 1400.000122
v 150.001740 249.999084 1350.000122
v 50.001724 249.999664 1350.000122
v 150.001785 249.999039 1400.000122
vn -0.0000 1.0000 -0.0000
vt 0.333252 0.666748
vt 0.000094 0.666748
vt 0.000095 0.000488
vt 0.333252 0.000488
vt 0.333252 0.333496
vt 0.999512 0.000488
vt 0.999512 0.333496
s 1
usemtl WorldGridMaterial
f 8/1/1 6/2/1 7/3/1 5/4/1
f 4/5/1 2/4/1 3/6/1 1/7/1
