# Blender 5.0.1
# www.blender.org
mtllib BP_AM_PC_Cross.mtl
o SM_AM_Powercable__Cross.001
v 56.250000 43.750000 6.249993
v 43.750000 0.000001 6.250000
v 56.250000 0.000001 6.250000
v 43.750000 43.750000 6.249993
v 100.000000 56.250000 6.249991
v 100.000000 43.750000 6.249993
v 56.250000 56.250000 6.249991
v 43.750000 56.250000 6.249991
v 0.000000 43.750000 6.249993
v 0.000000 56.250000 6.249991
v 56.250000 100.000000 6.249984
v 43.750000 100.000000 6.249984
vn -0.0000 -0.0000 1.0000
vt 0.562012 0.562500
vt 0.562012 0.437500
vt 1.000000 0.437500
vt 1.000000 0.562500
vt 0.000031 0.562500
vt 0.000031 0.437500
vt 0.437256 0.437500
vt 0.437256 0.562500
vt 0.437256 0.000000
vt 0.562500 0.000000
vt 0.437500 0.999969
vt 0.562500 0.999969
s 1
usemtl WorldGridMaterial
f 7/1/1 1/2/1 6/3/1 5/4/1
f 10/5/1 9/6/1 4/7/1 8/8/1
f 4/7/1 2/9/1 3/10/1 1/2/1
f 8/8/1 4/7/1 1/2/1 7/1/1
f 12/11/1 8/8/1 7/1/1 11/12/1
