# Blender 5.0.1
# www.blender.org
mtllib BP_AMShelf_Coral_01.mtl
o SM_Shelf_Coral_01.001
v -3.590088 18.391312 35.509262
v 96.409912 -81.608688 35.509262
v 96.409912 18.391312 35.509262
v -3.590088 -81.608688 35.509262
v -71.353699 99.427322 28.564947
v 28.646301 -0.572678 28.564947
v 28.646301 99.427322 28.564947
v -71.353699 -0.572678 28.564947
v -92.498413 1.923477 20.427891
v 7.501587 -98.076523 20.427891
v 7.501587 1.923477 20.427891
v -92.498413 -98.076523 20.427891
v 100.000000 0.000000 12.700925
v 0.000000 -99.999985 12.700930
v 100.000000 -99.999985 12.700930
v 0.000000 0.000000 12.700927
v 0.000000 99.999985 12.700924
v 100.000000 99.999985 12.700920
v -100.000000 99.999985 12.700928
v -100.000000 0.000000 12.700929
v -100.000000 -99.999985 12.700930
vn -0.0000 -0.0000 1.0000
vt 0.000031 0.750000
vt 0.125000 0.750000
vt 0.125000 0.999969
vt 0.000031 0.999969
vt 0.125000 0.500000
vt 0.250000 0.500000
vt 0.250000 0.750000
vt 0.250000 0.999969
vt 0.000031 0.500000
s 1
usemtl MI_Coral_02
f 20/1/1 16/2/1 17/3/1 19/4/1
f 12/5/1 10/6/1 11/7/1 9/2/1
f 4/6/1 2/5/1 3/2/1 1/7/1
f 8/2/1 6/7/1 7/8/1 5/3/1
f 13/1/1 16/2/1 14/5/1 15/9/1
f 18/4/1 17/3/1 16/2/1 13/1/1
f 14/5/1 16/2/1 20/1/1 21/9/1
