# Blender 5.0.1
# www.blender.org
mtllib BP_amBosspath01_MF.mtl
o SM_am_bosspath01_meshfade.001
v -400.000000 200.000046 299.999969
v -500.000000 200.000046 299.999969
v -500.000000 100.000038 300.000000
v -400.000000 100.000038 300.000000
v -100.000000 100.000008 99.999992
v -100.000000 0.000008 100.000008
v 0.000000 100.000008 99.999992
v 0.000000 0.000008 100.000008
v -100.000000 100.000023 199.999985
v -100.000000 0.000024 200.000015
v -100.000000 0.000008 100.000008
v -100.000000 100.000008 99.999992
v -100.000000 200.000031 199.999969
v -100.000000 200.000015 99.999977
v -200.000000 100.000038 300.000000
v -200.000000 0.000041 300.000000
v -200.000000 0.000024 200.000015
v -200.000000 100.000023 199.999985
v -700.000000 200.000046 299.999969
v -700.000000 100.000023 199.999985
v -700.000000 100.000038 300.000000
v -700.000000 200.000031 199.999969
v -400.000000 0.000041 300.000000
v -500.000000 0.000041 300.000000
v 0.000000 300.000000 99.999962
v 0.000000 200.000015 99.999977
v 0.000000 300.000000 -0.000041
v 0.000000 199.999985 -0.000024
v -700.000000 300.000031 299.999969
v -700.000000 300.000031 199.999954
v -100.000000 300.000031 199.999954
v -100.000000 300.000000 99.999962
v -200.000000 200.000046 299.999969
v -200.000000 200.000031 199.999969
v -600.000000 200.000046 299.999969
v -700.000000 200.000046 299.999969
v -700.000000 100.000038 300.000000
v -600.000000 100.000038 300.000000
v -200.000000 400.000031 299.999939
v -200.000000 300.000031 299.999969
v -200.000000 400.000031 199.999939
v -200.000000 300.000031 199.999954
v 0.000000 300.000000 99.999962
v -100.000000 300.000000 -0.000041
v -100.000000 300.000000 99.999962
v 0.000000 300.000000 -0.000041
v -100.000000 400.000000 99.999947
v -100.000000 400.000000 -0.000057
v -100.000000 300.000000 -0.000041
v -100.000000 400.000031 199.999939
v -200.000000 400.000031 199.999939
v -200.000000 300.000031 199.999954
v -100.000000 300.000031 199.999954
v -400.000000 400.000031 299.999939
v -500.000000 400.000031 299.999939
v -500.000000 300.000031 299.999969
v -400.000000 300.000031 299.999969
v -200.000000 400.000031 299.999939
v -300.000000 400.000031 299.999939
v -300.000000 300.000031 299.999969
v -200.000000 300.000031 299.999969
v -200.000000 500.000031 299.999939
v -200.000000 500.000031 199.999924
v -300.000000 200.000046 299.999969
v -200.000000 200.000046 299.999969
v -200.000000 200.000031 199.999969
v -100.000000 200.000031 199.999969
v -100.000000 500.000031 199.999924
v -200.000000 500.000031 199.999924
v -100.000000 500.000000 -0.000073
v -100.000000 499.999969 -100.000076
v -100.000000 399.999969 -100.000053
v -200.000000 500.000031 299.999939
v -300.000000 500.000031 299.999939
v -700.000000 400.000031 299.999939
v -700.000000 400.000031 199.999939
v -100.000000 299.999969 -100.000038
v -100.000000 299.999969 -200.000046
v -100.000000 399.999969 -200.000061
v -200.000000 600.000061 299.999908
v -200.000000 600.000000 199.999908
v -100.000000 600.000000 -0.000090
v -100.000000 600.000000 -100.000092
v -400.000000 600.000061 299.999908
v -500.000000 600.000061 299.999908
v -500.000000 500.000031 299.999939
v -400.000000 500.000031 299.999939
v -200.000000 600.000061 299.999908
v -300.000000 600.000061 299.999908
v -100.000000 499.999969 -200.000076
v -700.000000 500.000031 299.999939
v -700.000000 500.000031 199.999924
v -100.000000 500.000000 99.999924
v -100.000000 700.000000 199.999893
v -100.000000 600.000000 199.999908
v -100.000000 700.000000 99.999893
v -100.000000 600.000000 99.999908
v -200.000000 700.000061 299.999908
v -200.000000 700.000000 199.999893
v -100.000000 700.000000 -0.000106
v -100.000000 700.000000 -100.000107
v -400.000000 700.000061 299.999908
v -500.000000 700.000061 299.999908
v -200.000000 700.000061 299.999908
v -300.000000 700.000061 299.999908
v -100.000000 500.000031 199.999924
v -700.000000 600.000061 299.999908
v -700.000000 600.000000 199.999908
v -100.000000 599.999939 -200.000092
v -200.000000 800.000061 299.999878
v -200.000000 800.000000 199.999878
v -100.000000 800.000000 199.999878
v -200.000000 800.000000 199.999878
v -200.000000 700.000000 199.999893
v -100.000000 700.000000 199.999893
v -100.000000 800.000000 -0.000122
v -100.000000 800.000000 -100.000122
v -200.000000 800.000061 299.999878
v -300.000000 800.000061 299.999878
v -700.000000 700.000061 299.999908
v -700.000000 700.000000 199.999893
v -100.000000 699.999939 -200.000107
v -500.000000 900.000061 299.999847
v -600.000000 900.000061 299.999847
v -600.000000 800.000061 299.999878
v -500.000000 800.000061 299.999878
v -200.000000 900.000061 299.999847
v -200.000000 900.000000 199.999863
v -100.000000 900.000000 -0.000138
v -100.000000 900.000000 -100.000137
v -400.000000 900.000061 299.999847
v -400.000000 800.000061 299.999878
v -700.000000 800.000061 299.999878
v -700.000000 800.000000 199.999878
v -100.000000 800.000000 99.999878
v -100.000000 799.999939 -200.000122
v -100.000000 1000.000000 199.999847
v -100.000000 900.000000 199.999863
v -100.000000 1000.000000 99.999847
v -100.000000 900.000000 99.999863
v -200.000000 1000.000061 299.999847
v -200.000000 1000.000000 199.999847
v -100.000000 1000.000000 -0.000155
v -100.000000 1000.000000 -100.000153
v -400.000000 1000.000061 299.999847
v -500.000000 1000.000061 299.999847
v -700.000000 900.000061 299.999847
v -700.000000 900.000000 199.999863
v -300.000000 900.000061 299.999847
v -100.000000 899.999939 -200.000137
v -700.000000 900.000061 299.999847
v -700.000000 800.000061 299.999878
v -200.000000 900.000061 299.999847
v -200.000000 1100.000000 299.999817
v -200.000000 1100.000000 199.999832
v -100.000000 1100.000000 199.999832
v -200.000000 1100.000000 199.999832
v -200.000000 1000.000000 199.999847
v -100.000000 1000.000000 199.999847
v -100.000000 1100.000000 -0.000171
v -100.000000 1100.000000 -100.000168
v -700.000000 1000.000061 299.999847
v -700.000000 1000.000000 199.999847
v -300.000000 1000.000061 299.999847
v -100.000000 999.999939 -200.000153
v -200.000000 1200.000000 299.999817
v -200.000000 1200.000000 199.999817
v -700.000000 1100.000000 299.999817
v -700.000000 1100.000000 199.999832
v -100.000000 1100.000000 99.999832
v -100.000000 1100.000000 -200.000168
v -700.000000 1300.000000 299.999786
v -700.000000 1200.000000 199.999817
v -700.000000 1200.000000 299.999817
v -700.000000 1300.000000 199.999802
v -100.000000 1300.000000 199.999802
v -100.000000 1200.000000 199.999817
v -100.000000 1300.000000 99.999794
v -100.000000 1200.000000 99.999809
v -200.000000 1300.000000 299.999786
v -200.000000 1300.000000 199.999802
v -100.000000 1200.000000 -0.000187
v -300.000000 1200.000000 299.999817
v -400.000000 1200.000000 299.999817
v -400.000000 1100.000000 299.999817
v -300.000000 1100.000000 299.999817
v -100.000000 1200.000000 -100.000191
v -100.000000 1200.000000 -200.000183
v -200.000000 1200.000000 299.999817
v -200.000000 1100.000000 299.999817
v -500.000000 1200.000000 299.999817
v -500.000000 1100.000000 299.999817
v -100.000000 1400.000000 99.999779
v -100.000000 1400.000000 -0.000220
v -100.000000 1300.000000 -0.000204
v -700.000000 1400.000000 299.999786
v -700.000000 1400.000000 199.999786
v -100.000000 1400.000000 199.999786
v -300.000000 1300.000000 299.999786
v -400.000000 1300.000000 299.999786
v -100.000000 1300.000000 -100.000206
v -100.000000 1300.000000 -200.000198
v -200.000000 1300.000000 299.999786
v -500.000000 1300.000000 299.999786
v -300.000000 1500.000000 299.999756
v -400.000000 1500.000000 299.999756
v -400.000000 1400.000000 299.999786
v -300.000000 1400.000000 299.999786
v -100.000000 1500.000000 99.999763
v -100.000000 1500.000000 -0.000236
v -700.000000 1500.000000 299.999756
v -700.000000 1500.000000 199.999771
v -100.000000 1500.000000 199.999771
v -100.000000 1400.000000 -100.000221
v -100.000000 1400.000000 -200.000214
v -200.000000 1400.000000 299.999786
v -100.000000 1400.000000 199.999786
v -200.000000 1400.000000 199.999786
v -200.000000 1300.000000 199.999802
v -100.000000 1300.000000 199.999802
v -200.000000 1400.000000 299.999786
v -200.000000 1400.000000 199.999786
v -300.000000 1600.000000 299.999756
v -400.000000 1600.000000 299.999756
v 0.000000 1600.000000 99.999748
v -100.000000 1600.000000 99.999748
v 0.000000 1500.000000 99.999763
v -100.000000 1500.000000 99.999763
v -700.000000 1600.000000 299.999756
v -700.000000 1600.000000 199.999741
v -100.000000 1600.000000 199.999741
v -100.000000 1600.000000 99.999748
v -200.000000 1500.000000 299.999756
v -500.000000 1500.000000 299.999756
v -500.000000 1400.000000 299.999786
v -100.000000 1500.000000 199.999771
v -200.000000 1500.000000 199.999771
v -200.000000 1500.000000 299.999756
v -200.000000 1500.000000 199.999771
v -600.000000 1700.000000 299.999725
v -700.000000 1700.000000 299.999725
v -700.000000 1600.000000 299.999756
v -600.000000 1600.000000 299.999756
v 0.000000 1700.000000 99.999733
v 0.000000 1600.000000 99.999748
v 0.000000 1700.000000 -0.000269
v 0.000000 1600.000000 -0.000253
v -700.000000 1700.000000 299.999725
v -700.000000 1700.000000 199.999725
v -200.000000 1600.000000 299.999756
v -500.000000 1600.000000 299.999756
v -100.000000 1600.000000 199.999741
v -200.000000 1600.000000 199.999741
v -200.000000 1600.000000 299.999756
v -200.000000 1600.000000 199.999741
v 0.000000 1500.000000 99.999763
v 0.000000 1500.000000 -0.000236
v 0.000000 1500.000000 99.999763
v -100.000000 1500.000000 99.999763
v 0.000000 1500.000000 -0.000236
v -100.000000 1500.000000 -0.000236
v -600.000000 1800.000000 299.999725
v -700.000000 1800.000000 299.999725
v -300.000000 1800.000000 299.999725
v -400.000000 1800.000000 299.999725
v -400.000000 1700.000000 299.999725
v -300.000000 1700.000000 299.999725
v -700.000000 1800.000000 299.999725
v -700.000000 1800.000000 199.999710
v -200.000000 1700.000000 299.999725
v 0.000000 1700.000000 99.999733
v -100.000000 1700.000000 99.999733
v -100.000000 1700.000000 199.999725
v -200.000000 1700.000000 199.999725
v -200.000000 1700.000000 299.999725
v -200.000000 1700.000000 199.999725
v -100.000000 1700.000000 199.999725
v -100.000000 1700.000000 99.999733
v -500.000000 1700.000000 299.999725
v -700.000000 1900.000000 299.999695
v -700.000000 1900.000000 199.999695
v -200.000000 1900.000000 299.999695
v -200.000000 1800.000000 299.999725
v -200.000000 1900.000000 199.999695
v -200.000000 1800.000000 199.999710
v -200.000000 1800.000000 299.999725
v 0.000000 1800.000000 99.999718
v 0.000000 1800.000000 -0.000285
v -500.000000 1800.000000 299.999725
v 0.000000 1800.000000 99.999718
v -100.000000 1800.000000 99.999718
v -100.000000 1800.000000 199.999710
v -200.000000 1800.000000 199.999710
v -100.000000 1800.000000 199.999710
v -100.000000 1800.000000 99.999718
v -300.000000 1900.000000 299.999695
v -400.000000 1900.000000 299.999695
v -200.000000 1900.000000 299.999695
v 0.000000 1900.000000 99.999695
v 0.000000 1900.000000 -0.000301
v -500.000000 1900.000000 299.999695
v 0.000000 1900.000000 99.999695
v -100.000000 1900.000000 99.999695
v 0.000000 1600.000000 -100.000252
v 0.000000 1500.000000 -100.000237
v 0.000000 1500.000000 -100.000237
v -100.000000 1500.000000 -100.000237
v 0.000000 1600.000000 -200.000259
v 0.000000 1500.000000 -200.000229
v 0.000000 1500.000000 -200.000229
v -100.000000 1500.000000 -200.000229
v -100.000000 1500.000000 -100.000237
v -100.000000 1500.000000 -200.000229
v 0.000000 299.999969 -100.000038
v 0.000000 199.999969 -100.000023
v -100.000000 299.999969 -100.000038
v 0.000000 299.999969 -100.000038
v 0.000000 299.999969 -200.000046
v 0.000000 199.999954 -200.000031
v -100.000000 299.999969 -200.000046
v 0.000000 299.999969 -200.000046
v 0.000000 300.000000 99.999962
v -100.000000 300.000000 99.999962
v -100.000000 200.000015 99.999977
v 0.000000 200.000015 99.999977
v -100.000000 400.000031 199.999939
v -200.000000 600.000000 199.999908
v -100.000000 600.000000 199.999908
v -100.000000 800.000000 199.999878
v -200.000000 900.000000 199.999863
v -100.000000 900.000000 199.999863
v -100.000000 1100.000000 199.999832
v -200.000000 1000.000061 299.999847
v -200.000000 1200.000000 199.999817
v -100.000000 1200.000000 199.999817
v 0.000000 100.000008 99.999992
v 0.000000 99.999992 -0.000008
v 0.000000 0.000008 100.000008
v 0.000000 -0.000008 0.000008
v -600.000000 300.000031 299.999969
v -700.000000 300.000031 299.999969
v -600.000000 400.000031 299.999939
v -700.000000 400.000031 299.999939
v -600.000000 500.000031 299.999939
v -700.000000 500.000031 299.999939
v -600.000000 600.000061 299.999908
v -700.000000 600.000061 299.999908
v -600.000000 700.000061 299.999908
v -700.000000 700.000061 299.999908
v -600.000000 1000.000061 299.999847
v -700.000000 1000.000061 299.999847
v -600.000000 1100.000000 299.999817
v -700.000000 1100.000000 299.999817
v -600.000000 1200.000000 299.999817
v -700.000000 1200.000000 299.999817
v -600.000000 1300.000000 299.999786
v -700.000000 1300.000000 299.999786
v -600.000000 1400.000000 299.999786
v -700.000000 1400.000000 299.999786
v -600.000000 1500.000000 299.999756
v -700.000000 1500.000000 299.999756
v -600.000000 1900.000000 299.999695
v -700.000000 1900.000000 299.999695
v -100.000000 0.000024 200.000015
v -200.000000 100.000023 199.999985
v -200.000000 0.000024 200.000015
v -100.000000 100.000023 199.999985
v -200.000000 0.000041 300.000000
v -300.000000 100.000038 300.000000
v -300.000000 0.000041 300.000000
v -200.000000 100.000038 300.000000
vn -0.0000 -0.0000 1.0000
vn 1.0000 -0.0000 -0.0000
vn -1.0000 -0.0000 -0.0000
vn -0.0000 1.0000 -0.0000
vn -0.0000 -1.0000 -0.0000
vt 0.500000 0.999969
vt 0.000031 0.999969
vt 0.000031 0.500000
vt 0.500000 0.500000
vt 0.000031 0.500000
vt 0.000031 0.000000
vt 0.500000 0.000000
vt 0.499756 0.500000
vt 1.000000 0.000000
vt 1.000000 0.500000
vt 0.499756 0.999969
vt 1.000000 0.999969
vt -0.000031 0.500000
vt 0.000031 0.000000
vt 0.500000 0.999969
vt -0.000031 0.500000
vt 0.500000 0.000488
vt 0.500000 0.500244
vt 0.499756 1.000031
vt -0.000031 0.999969
vt 0.000031 0.500000
vt 0.000031 0.500000
vt 0.000031 0.000000
vt 1.000000 0.000488
vt 0.999512 0.500244
s 1
usemtl Mi_AbyssalMeshfades
f 267/1/1 264/2/1 265/3/1 266/4/1
f 250/4/1 270/5/1 267/6/1 223/7/1
f 336/8/2 337/7/2 28/9/2 26/10/2
f 195/11/2 201/4/2 214/10/2 194/12/2
f 26/13/2 28/14/2 27/7/2 25/4/2
f 110/11/2 111/4/2 128/10/2 127/12/2
f 50/10/1 68/4/1 69/7/1 51/9/1
f 32/11/2 49/4/2 48/10/2 47/12/2
f 33/13/2 34/14/2 42/7/2 40/4/2
f 173/14/3 169/7/3 168/4/3 174/5/3
f 47/7/2 326/4/2 31/13/2 32/14/2
f 236/4/1 252/5/1 253/6/1 237/7/1
f 166/13/2 167/14/2 181/7/2 180/4/2
f 156/10/1 335/4/1 334/7/1 157/9/1
f 96/8/2 100/7/2 116/9/2 135/10/2
f 4/4/1 1/5/1 2/6/1 3/7/1
f 55/1/1 86/2/1 344/5/1 342/4/1
f 46/14/4 44/7/4 45/4/4 43/5/4
f 154/11/2 155/4/2 167/10/2 166/12/2
f 84/1/1 102/2/1 103/3/1 85/4/1
f 325/4/1 322/5/1 323/6/1 324/7/1
f 184/1/1 200/2/1 204/3/1 191/4/1
f 208/1/1 205/2/1 206/3/1 207/4/1
f 197/14/3 175/7/3 172/4/3 196/5/3
f 205/1/1 223/2/1 224/3/1 206/4/1
f 269/4/3 249/10/3 248/12/3 268/1/3
f 240/12/1 262/15/1 263/4/1 241/10/1
f 221/13/2 222/14/2 239/7/2 238/4/2
f 8/8/1 7/16/1 5/6/1 6/17/1
f 79/10/2 72/12/2 77/15/2 78/4/2
f 179/9/2 177/10/2 332/4/2 170/7/2
f 101/11/2 122/4/2 136/10/2 117/12/2
f 201/11/2 202/4/2 215/10/2 214/12/2
f 261/5/5 307/6/5 306/7/5 260/4/5
f 68/10/1 328/4/1 327/7/1 69/9/1
f 305/13/2 309/14/2 308/7/2 304/4/2
f 39/13/2 41/14/2 63/7/2 62/4/2
f 170/7/2 332/4/2 137/13/2 139/14/2
f 47/13/2 48/14/2 70/7/2 93/4/2
f 83/11/2 109/4/2 122/10/2 101/12/2
f 143/11/2 144/4/2 161/10/2 160/12/2
f 266/1/1 265/2/1 289/3/1 279/4/1
f 1/1/1 57/2/1 56/3/1 2/4/1
f 160/13/2 161/14/2 187/7/2 182/4/2
f 62/13/2 63/14/2 81/7/2 80/4/2
f 135/8/2 116/7/2 129/9/2 140/10/2
f 185/3/1 192/6/1 146/7/1 145/4/1
f 108/14/3 92/7/3 91/4/3 107/5/3
f 225/4/1 271/5/1 272/6/1 226/7/1
f 106/8/2 93/7/2 97/9/2 95/10/2
f 217/4/1 236/5/1 237/6/1 218/7/1
f 148/4/3 134/10/3 133/12/3 147/1/3
f 194/11/2 214/4/2 312/10/2 210/12/2
f 24/18/1 23/19/1 4/20/1 3/21/1
f 121/14/3 108/7/3 107/4/3 120/5/3
f 348/3/1 349/6/1 347/7/1 346/4/1
f 144/11/2 165/4/2 171/10/2 161/12/2
f 230/14/3 212/7/3 211/4/3 229/5/3
f 270/4/1 286/5/1 264/6/1 267/7/1
f 71/11/2 90/4/2 109/10/2 83/12/2
f 238/13/2 239/14/2 255/7/2 254/4/2
f 130/11/2 150/4/2 165/10/2 144/12/2
f 187/11/2 188/4/2 202/10/2 201/12/2
f 80/11/2 81/4/2 99/10/2 98/12/2
f 277/13/2 278/14/2 295/7/2 294/4/2
f 61/4/1 58/5/1 59/6/1 60/7/1
f 98/13/2 99/14/2 111/7/2 110/4/2
f 9/13/2 12/14/2 14/7/2 13/4/2
f 273/4/1 292/5/1 293/6/1 274/7/1
f 127/8/2 128/7/2 142/9/2 141/10/2
f 340/4/1 342/5/1 343/6/1 341/7/1
f 88/12/1 104/15/1 105/4/1 89/10/1
f 169/14/3 163/7/3 162/4/3 168/5/3
f 339/6/2 337/7/2 336/8/2 338/22/2
f 177/13/2 179/14/2 178/7/2 176/4/2
f 117/11/2 136/4/2 150/10/2 130/12/2
f 97/11/2 82/4/2 100/10/2 96/12/2
f 286/4/1 298/5/1 296/6/1 264/7/1
f 163/14/3 148/7/3 147/4/3 162/5/3
f 315/13/2 319/14/2 318/7/2 314/4/2
f 22/14/3 20/7/3 21/4/3 19/5/3
f 140/9/2 138/10/2 329/4/2 135/7/2
f 134/14/3 121/7/3 120/4/3 133/5/3
f 40/13/2 42/14/2 41/7/2 39/4/2
f 245/13/2 247/14/2 246/7/2 244/4/2
f 212/14/3 197/7/3 196/4/3 211/5/3
f 180/13/2 181/14/2 222/7/2 221/4/2
f 82/11/2 83/4/2 101/10/2 100/12/2
f 7/10/1 325/4/1 324/7/1 5/9/1
f 257/13/2 305/14/2 304/7/2 247/4/2
f 115/4/1 112/5/1 113/6/1 114/7/1
f 265/1/1 297/2/1 301/3/1 289/4/1
f 176/13/2 178/14/2 193/7/2 198/4/2
f 231/13/2 232/14/2 278/7/2 277/4/2
f 275/13/2 276/14/2 285/7/2 283/4/2
f 161/11/2 171/4/2 188/10/2 187/12/2
f 214/11/2 215/4/2 313/10/2 312/12/2
f 290/4/1 302/5/1 303/6/1 291/7/1
f 178/13/2 195/14/2 194/7/2 193/4/2
f 203/4/1 216/5/1 208/6/1 199/7/1
f 259/5/5 261/6/5 260/7/5 258/4/5
f 100/11/2 101/4/2 117/10/2 116/12/2
f 102/4/1 132/5/1 126/6/1 103/7/1
f 182/11/2 187/4/2 201/10/2 195/12/2
f 283/13/2 285/14/2 284/7/2 282/4/2
f 138/13/2 140/14/2 139/7/2 137/4/2
f 179/11/2 182/4/2 195/10/2 178/12/2
f 207/3/1 235/6/1 204/7/1 200/4/1
f 116/11/2 117/4/2 130/10/2 129/12/2
f 243/12/1 240/15/1 241/4/1 242/10/1
f 12/9/2 9/10/2 10/8/2 11/7/2
f 220/4/1 217/5/1 218/6/1 219/7/1
f 89/1/1 105/2/1 102/3/1 84/4/1
f 72/10/2 48/12/2 49/15/2 77/4/2
f 175/14/3 173/7/3 174/4/3 172/5/3
f 207/1/1 206/2/1 234/3/1 235/4/1
f 48/11/2 72/4/2 71/10/2 70/12/2
f 216/4/1 233/5/1 205/6/1 208/7/1
f 249/4/3 230/10/3 229/12/3 248/1/3
f 104/4/1 118/5/1 119/6/1 105/7/1
f 135/7/2 329/4/2 94/13/2 96/14/2
f 141/13/2 142/14/2 155/7/2 154/4/2
f 226/23/1 228/7/1 227/8/1 225/5/1
f 67/12/1 53/15/1 52/4/1 66/10/1
f 192/2/1 352/3/1 350/4/1 146/1/1
f 140/11/2 129/4/2 143/10/2 139/12/2
f 70/11/2 71/4/2 83/10/2 82/12/2
f 38/4/1 35/5/1 36/6/1 37/7/1
f 235/2/1 358/3/1 356/4/1 204/1/1
f 185/1/1 184/2/1 191/3/1 192/4/1
f 30/14/3 22/7/3 19/4/3 29/5/3
f 126/2/1 125/3/1 348/4/1 103/1/1
f 103/2/1 348/3/1 346/4/1 85/1/1
f 58/4/1 73/5/1 74/6/1 59/7/1
f 213/13/2 209/14/2 232/7/2 231/4/2
f 193/11/2 194/4/2 210/10/2 209/12/2
f 132/1/1 131/2/1 123/3/1 126/4/1
f 254/13/2 255/14/2 276/7/2 275/4/2
f 76/14/3 30/7/3 29/4/3 75/5/3
f 149/1/1 164/2/1 145/3/1 131/4/1
f 287/13/2 288/14/2 300/7/2 299/4/2
f 112/10/1 331/4/1 330/7/1 113/9/1
f 125/12/1 124/15/1 151/4/1 152/10/1
f 264/1/1 296/2/1 297/3/1 265/4/1
f 92/14/3 76/7/3 75/4/3 91/5/3
f 93/13/2 70/14/2 82/7/2 97/4/2
f 119/1/1 149/2/1 131/3/1 132/4/1
f 57/1/1 54/2/1 55/3/1 56/4/1
f 279/1/1 289/2/1 262/3/1 240/4/1
f 95/13/2 97/14/2 96/7/2 94/4/2
f 271/4/1 290/5/1 291/6/1 272/7/1
f 208/2/1 207/3/1 200/4/1 199/1/1
f 170/13/2 160/14/2 182/7/2 179/4/2
f 186/1/1 183/2/1 184/3/1 185/4/1
f 281/14/3 269/7/3 268/4/3 280/5/3
f 87/1/1 84/2/1 85/3/1 86/4/1
f 244/13/2 246/14/2 288/7/2 287/4/2
f 198/13/2 193/14/2 209/7/2 213/4/2
f 93/9/2 106/10/2 326/4/2 47/7/2
f 65/4/1 61/5/1 60/6/1 64/7/1
f 28/13/2 315/14/2 314/7/2 27/4/2
f 342/4/1 344/5/1 345/6/1 343/7/1
f 321/14/4 320/7/4 316/4/4 317/5/4
f 317/14/4 316/7/4 44/4/4 46/5/4
f 256/13/2 257/14/2 247/7/2 245/4/2
f 13/11/2 14/4/2 32/10/2 31/12/2
f 307/5/5 311/6/5 310/7/5 306/4/5
f 153/10/1 333/4/1 164/7/1 149/9/1
f 139/11/2 143/4/2 160/10/2 170/12/2
f 18/9/2 15/10/2 16/8/2 17/7/2
f 73/4/1 88/5/1 89/6/1 74/7/1
f 251/1/1 279/2/1 240/3/1 243/4/1
f 129/11/2 130/4/2 144/10/2 143/12/2
f 72/11/2 79/4/2 90/10/2 71/12/2
f 59/1/1 74/2/1 87/5/1 54/4/1
f 333/4/1 190/5/1 186/6/1 164/7/1
f 331/4/1 159/5/1 158/6/1 330/7/1
f 64/1/1 60/2/1 57/3/1 1/4/1
f 15/13/2 18/14/2 34/7/2 33/4/2
f 54/4/1 87/5/1 86/6/1 55/7/1
f 159/4/1 156/5/1 157/6/1 158/7/1
f 56/1/1 55/2/1 342/5/1 340/4/1
f 131/1/1 145/2/1 146/3/1 123/4/1
f 371/8/1 369/7/1 370/24/1 368/25/1
f 340/3/1 341/6/1 36/7/1 35/4/1
f 56/2/1 340/3/1 35/4/1 2/1/1
f 335/4/1 220/5/1 219/6/1 334/7/1
f 328/4/1 115/5/1 114/6/1 327/7/1
f 183/1/1 199/2/1 200/3/1 184/4/1
f 125/3/1 152/6/1 349/7/1 348/4/1
f 53/4/1 50/5/1 51/6/1 52/7/1
f 354/3/1 355/6/1 353/7/1 352/4/1
f 86/1/1 85/2/1 346/5/1 344/4/1
f 206/1/1 224/2/1 251/3/1 234/4/1
f 60/1/1 59/2/1 54/3/1 57/4/1
f 191/2/1 354/3/1 352/4/1 192/1/1
f 126/1/1 123/2/1 124/3/1 125/4/1
f 352/3/1 353/6/1 351/7/1 350/4/1
f 190/12/1 189/15/1 183/4/1 186/10/1
f 367/8/1 365/7/1 366/24/1 364/25/1
f 350/3/1 351/6/1 151/7/1 124/4/1
f 146/2/1 350/3/1 124/4/1 123/1/1
f 105/1/1 119/2/1 132/5/1 102/4/1
f 234/2/1 360/3/1 358/4/1 235/1/1
f 74/1/1 89/2/1 84/3/1 87/4/1
f 358/3/1 359/6/1 357/7/1 356/4/1
f 118/12/1 153/15/1 149/4/1 119/10/1
f 362/3/1 363/6/1 263/7/1 262/4/1
f 356/3/1 357/6/1 355/7/1 354/4/1
f 204/2/1 356/3/1 354/4/1 191/1/1
f 252/4/1 273/5/1 274/6/1 253/7/1
f 301/2/1 362/3/1 262/4/1 289/1/1
f 189/4/1 203/5/1 199/6/1 183/7/1
f 266/3/1 279/6/1 251/7/1 224/4/1
f 344/4/1 346/5/1 347/6/1 345/7/1
f 233/4/1 250/5/1 223/6/1 205/7/1
f 243/3/1 242/6/1 361/7/1 360/4/1
f 251/2/1 243/3/1 360/4/1 234/1/1
f 360/3/1 361/6/1 359/7/1 358/4/1
f 186/2/1 185/3/1 145/4/1 164/1/1
f 67/5/1 66/6/1 365/7/1 367/8/1
f 267/2/1 266/3/1 224/4/1 223/1/1
f 65/5/1 64/6/1 369/7/1 371/8/1
