# Blender 5.0.1
# www.blender.org
mtllib BP_AncientBrazier.mtl
o SM_FireBlock.001
v 40.000000 -40.000000 120.000008
v -40.000000 -40.000000 120.000008
v -40.000000 -40.000000 0.000000
v 40.000000 -40.000000 0.000000
v 40.000000 40.000000 -0.000000
v -40.000000 40.000000 -0.000000
v -40.000000 40.000004 120.000008
v 40.000000 40.000004 120.000008
v 40.000000 -40.000000 120.000008
v 40.000000 -40.000000 0.000000
v 40.000000 40.000004 120.000008
v 40.000000 40.000000 -0.000000
v -40.000000 -40.000000 120.000008
v -40.000000 40.000000 -0.000000
v -40.000000 -40.000000 0.000000
v -40.000000 40.000004 120.000008
vn -0.0000 -1.0000 -0.0000
vn -0.0000 1.0000 -0.0000
vn 1.0000 -0.0000 -0.0000
vn -1.0000 -0.0000 -0.0000
vt 1.000000 0.999969
vt 1.000000 0.000000
vt 0.501465 0.000000
vt 0.501465 0.999969
vt 0.003014 0.999969
vt 0.003014 0.000000
s 1
usemtl M_FireBlock1x1_Mat_Inst
f 8/1/2 5/2/2 6/3/2 7/4/2
f 10/3/3 12/2/3 11/1/3 9/4/3
f 4/3/1 1/4/1 2/5/1 3/6/1
f 16/4/4 14/3/4 15/6/4 13/5/4
