# Blender 5.0.1
# www.blender.org
mtllib BP_AM_Red_Coral_01.mtl
o SM_Red_Coral_01.001
v -49.999996 -101.797501 181.261551
v 50.000004 -101.797493 181.261551
v -49.999996 -59.535656 90.630783
v 50.000004 -59.535675 90.630775
v -49.999996 -17.273827 0.000008
v 50.000004 -17.273842 0.000008
v 49.999981 59.535858 90.630806
v -50.000008 101.797676 181.261597
v 49.999992 101.797691 181.261597
v -50.000019 59.535877 90.630814
v 49.999969 17.274044 0.000023
v -50.000031 17.274059 0.000023
v -52.952049 -51.475842 93.969261
v -87.154083 48.524136 187.938538
v -87.154053 -51.475864 187.938522
v -52.952065 48.524158 93.969276
v -18.750038 -51.475815 0.000000
v -18.750053 48.524185 0.000015
v -0.000010 48.524170 100.000023
v 0.000017 -51.475849 200.000000
v -0.000010 48.524151 200.000031
v 0.000017 -51.475830 100.000008
v 0.000017 -51.475811 0.000008
v -0.000010 48.524189 0.000023
v 52.952003 -51.475819 93.969269
v 87.154007 48.524174 187.938538
v 87.154045 -51.475826 187.938538
v 52.951988 48.524181 93.969284
v 18.749958 48.524193 0.000023
v 18.749973 -51.475807 0.000008
vn -0.0000 0.9063 0.4226
vn -0.0000 0.9063 -0.4226
vn 0.9397 -0.0000 0.3420
vn -1.0000 -0.0000 -0.0000
vn 0.9397 -0.0000 -0.3420
vt 0.500000 0.750000
vt 0.500000 0.999969
vt 0.375000 0.999969
vt 0.375000 0.750000
vt 0.500000 0.500000
vt 0.375000 0.500000
vt 0.250000 0.999969
vt 0.250000 0.750000
vt 0.250000 0.500000
s 1
usemtl MI_Coral_01
f 28/1/5 26/2/5 27/3/5 25/4/5
f 12/5/2 10/1/2 7/4/2 11/6/2
f 2/3/1 4/4/1 3/1/1 1/2/1
f 22/4/4 20/3/4 21/7/4 19/8/4
f 10/1/2 8/2/2 9/3/2 7/4/2
f 4/4/1 6/6/1 5/5/1 3/1/1
f 16/1/3 14/2/3 15/3/3 13/4/3
f 18/5/3 16/1/3 13/4/3 17/6/3
f 19/8/4 24/9/4 23/6/4 22/4/4
f 25/4/5 30/6/5 29/5/5 28/1/5
