# Blender 5.0.1
# www.blender.org
mtllib BP_AncientPortalDecoration.mtl
o SM_AncientPortal.001
v -250.000000 50.000015 99.999992
v -250.000000 -50.000000 0.000008
v -250.000000 -49.999985 100.000008
v -250.000000 50.000000 -0.000008
v -150.000000 50.000015 99.999992
v -250.000000 50.000000 -0.000008
v -250.000000 50.000015 99.999992
v -150.000000 50.000000 -0.000008
v -150.000000 -49.999985 100.000008
v -150.000000 50.000000 -0.000008
v -150.000000 50.000015 99.999992
v -150.000000 -50.000000 0.000008
v -150.000000 -50.000000 0.000008
v -250.000000 -50.000000 0.000008
v -250.000000 50.000000 -0.000008
v -150.000000 50.000000 -0.000008
v -250.000000 50.000034 199.999985
v -250.000000 -49.999966 200.000015
v -150.000000 50.000034 199.999985
v -250.000000 50.000034 199.999985
v -150.000000 -49.999966 200.000015
v -150.000000 50.000034 199.999985
v -250.000000 50.000050 300.000000
v -250.000000 -49.999950 300.000000
v -150.000000 50.000050 300.000000
v -250.000000 50.000050 300.000000
v -150.000000 -49.999950 300.000000
v -150.000000 50.000050 300.000000
v -250.000000 50.000065 400.000000
v -250.000000 -49.999935 400.000000
v -150.000000 50.000065 400.000000
v -250.000000 50.000065 400.000000
v -250.000000 -49.999935 400.000000
v -150.000000 -49.999950 300.000000
v -150.000000 -49.999935 400.000000
v -250.000000 -49.999950 300.000000
v -250.000000 50.000065 400.000000
v -250.000000 -49.999935 400.000000
v -150.000000 50.000065 400.000000
v -150.000000 -49.999935 400.000000
v -50.000000 50.000065 400.000000
v -50.000000 50.000050 300.000000
v -50.000000 -49.999950 300.000000
v -150.000000 -49.999950 300.000000
v -150.000000 50.000050 300.000000
v -50.000000 50.000050 300.000000
v -50.000000 50.000065 400.000000
v -50.000004 -49.999950 400.000000
v 50.000000 50.000065 400.000000
v 50.000000 50.000050 300.000000
v 50.000000 -49.999950 300.000000
v 50.000000 50.000050 300.000000
v 50.000000 -49.999935 400.000000
v 50.000000 50.000065 400.000000
v 150.000000 50.000065 400.000000
v 150.000000 50.000050 300.000000
v 150.000000 -49.999950 300.000000
v 150.000000 50.000050 300.000000
v 150.000000 50.000065 400.000000
v 150.000000 -49.999935 400.000000
v 150.000000 50.000015 99.999992
v 150.000000 -50.000000 0.000008
v 150.000000 -49.999985 100.000008
v 150.000000 50.000000 -0.000008
v 250.000000 50.000015 99.999992
v 150.000000 50.000000 -0.000008
v 150.000000 50.000015 99.999992
v 250.000000 50.000000 -0.000008
v 250.000000 -49.999985 100.000008
v 250.000000 50.000000 -0.000008
v 250.000000 50.000015 99.999992
v 250.000000 -50.000000 0.000008
v 250.000000 -50.000000 0.000008
v 150.000000 -50.000000 0.000008
v 150.000000 50.000000 -0.000008
v 250.000000 50.000000 -0.000008
v 150.000000 50.000034 199.999985
v 150.000000 -49.999966 200.000015
v 250.000000 50.000034 199.999985
v 150.000000 50.000034 199.999985
v 250.000000 -49.999966 200.000015
v 250.000000 50.000034 199.999985
v 150.000000 50.000050 300.000000
v 150.000000 -49.999950 300.000000
v 250.000000 50.000050 300.000000
v 250.000000 -49.999950 300.000000
v 250.000000 50.000050 300.000000
v 250.000000 50.000065 400.000000
v 250.000000 -49.999935 400.000000
v 250.000000 50.000065 400.000000
v 150.000000 -49.999935 400.000000
v 250.000000 -49.999950 300.000000
v 250.000000 -49.999935 400.000000
v 150.000000 -49.999950 300.000000
v 250.000000 50.000065 400.000000
v 250.000000 -49.999935 400.000000
v -150.000000 -49.999935 400.000000
v -150.000000 -149.999954 300.000031
v -150.000000 -149.999954 400.000031
v -150.000000 -49.999950 300.000000
v -150.000000 -149.999954 400.000031
v -50.000000 -149.999969 300.000031
v -50.000000 -149.999954 400.000031
v -150.000000 -149.999954 300.000031
v -150.000000 -149.999954 300.000031
v -50.000000 -149.999969 300.000031
v -150.000000 -149.999954 400.000031
v -50.000000 -149.999954 400.000031
v 50.000000 -149.999969 300.000031
v 150.000000 -149.999954 400.000031
v 150.000000 -49.999950 300.000000
v 150.000000 -49.999935 400.000000
v 150.000000 -149.999969 300.000031
v 50.000000 -149.999954 400.000031
v 150.000000 -149.999969 300.000031
v 150.000000 -149.999954 400.000031
v 50.000000 -149.999969 300.000031
v 150.000000 -149.999969 300.000031
v 50.000000 -149.999954 400.000031
v 150.000000 -149.999954 400.000031
v 50.000000 -199.999969 400.000031
v 50.000000 -149.999969 300.000031
v 50.000000 -149.999954 400.000031
v 50.000000 -199.999985 300.000031
v -50.000000 -199.999969 400.000031
v 50.000000 -199.999985 300.000031
v 50.000000 -199.999969 400.000031
v -50.000000 -199.999985 300.000031
v 50.000000 -199.999985 300.000031
v -50.000000 -199.999985 300.000031
v -50.000000 -199.999969 400.000031
v 50.000000 -199.999969 400.000031
v -50.000000 -149.999954 400.000031
v -50.000000 -199.999985 300.000031
v -50.000000 -199.999969 400.000031
v -50.000000 -149.999969 300.000031
v -250.000000 -150.000000 0.000024
v -250.000000 -149.999985 100.000023
v -150.000000 -149.999985 100.000023
v -150.000000 -150.000000 0.000024
v -150.000000 -150.000000 0.000024
v -250.000000 -150.000000 0.000024
v -250.000000 -149.999969 200.000031
v -150.000000 -149.999969 200.000031
v -250.000000 -149.999954 300.000031
v -150.000000 -149.999954 300.000031
v -250.000000 -149.999954 300.000031
v -150.000000 -149.999969 200.000031
v -250.000000 -149.999969 200.000031
v 150.000000 -150.000000 0.000024
v 150.000000 -149.999985 100.000023
v 250.000000 -149.999985 100.000023
v 250.000000 -150.000000 0.000024
v 250.000000 -150.000000 0.000024
v 150.000000 -150.000000 0.000024
v 150.000000 -149.999969 200.000031
v 250.000000 -149.999969 200.000031
v 150.000000 -149.999969 300.000031
v 250.000000 -149.999954 300.000031
v 250.000000 -149.999969 200.000031
v 250.000000 -149.999954 300.000031
v 150.000000 -149.999969 200.000031
v -250.000000 -49.999947 337.500000
v -250.000000 -149.999939 337.500031
v -150.000000 -49.999947 337.500000
v -150.000000 -149.999939 337.500031
v -250.000000 -49.999947 337.500000
v -250.000000 -149.999939 337.500031
v -150.000000 -49.999947 337.500000
v -250.000000 -49.999950 300.000000
v -250.000000 -49.999947 337.500000
v -150.000000 -49.999950 300.000000
v -150.000000 -149.999939 337.500031
v -150.000000 -49.999947 337.500000
v -250.000000 -149.999939 337.500031
v -150.000000 -149.999939 337.500031
v 150.000000 -49.999947 337.500000
v 150.000000 -149.999939 337.500031
v 250.000000 -49.999947 337.500000
v 250.000000 -149.999939 337.500031
v 150.000000 -149.999939 337.500031
v 150.000000 -49.999947 337.500000
v 250.000000 -49.999947 337.500000
v 150.000000 -49.999950 300.000000
v 150.000000 -49.999947 337.500000
v 250.000000 -49.999950 300.000000
v 250.000000 -149.999939 337.500031
v 250.000000 -49.999947 337.500000
v 150.000000 -149.999939 337.500031
v 250.000000 -149.999939 337.500031
v -250.000000 -250.000000 0.000041
v -250.000000 -249.999985 100.000038
v -150.000000 -249.999985 100.000038
v -150.000000 -250.000000 0.000041
v -250.000000 -249.999985 100.000038
v -150.000000 -250.000000 0.000041
v -150.000000 -249.999985 100.000038
v -250.000000 -250.000000 0.000041
v -150.000000 -250.000000 0.000041
v -250.000000 -250.000000 0.000041
v -250.000000 -249.999969 200.000046
v -150.000000 -249.999969 200.000046
v -250.000000 -249.999969 200.000046
v -150.000000 -249.999969 200.000046
v -250.000000 -149.999969 200.000031
v -250.000000 -249.999969 200.000046
v -150.000000 -149.999969 200.000031
v -150.000000 -249.999969 200.000046
v 150.000000 -250.000000 0.000041
v 150.000000 -249.999985 100.000038
v 250.000000 -249.999985 100.000038
v 250.000000 -250.000000 0.000041
v 150.000000 -249.999985 100.000038
v 250.000000 -250.000000 0.000041
v 250.000000 -249.999985 100.000038
v 150.000000 -250.000000 0.000041
v 250.000000 -250.000000 0.000041
v 150.000000 -250.000000 0.000041
v 150.000000 -249.999969 200.000046
v 250.000000 -249.999969 200.000046
v 150.000000 -249.999969 200.000046
v 250.000000 -249.999969 200.000046
v 150.000000 -149.999969 200.000031
v 150.000000 -249.999969 200.000046
v 250.000000 -149.999969 200.000031
v 250.000000 -249.999969 200.000046
v -50.000004 -49.999943 437.500000
v -50.000000 -149.999939 437.500031
v 50.000000 -49.999943 437.500000
v 50.000000 -149.999939 437.500031
v -50.000004 -49.999943 437.500000
v -50.000000 -149.999939 437.500031
v -50.000004 -49.999950 400.000000
v -50.000000 -149.999939 437.500031
v 50.000000 -149.999939 437.500031
v 50.000000 -49.999943 437.500000
v 50.000000 -49.999935 400.000000
v 50.000000 -149.999939 437.500031
v 50.000000 -49.999943 437.500000
v -50.000004 -49.999950 400.000000
v -50.000004 -49.999943 437.500000
v 50.000000 -49.999935 400.000000
vn -1.0000 -0.0000 -0.0000
vn -0.0000 1.0000 -0.0000
vn 1.0000 -0.0000 -0.0000
vn -0.0000 -0.0000 -1.0000
vn -0.0000 -1.0000 -0.0000
vn -0.0000 -0.0000 1.0000
vt 0.499756 0.875000
vt 0.625000 0.875000
vt 0.625000 0.999969
vt 0.499756 0.999969
vt -0.000031 0.000000
vt 0.125000 0.000000
vt 0.125000 0.125000
vt -0.000031 0.125000
vt -0.000031 0.999969
vt -0.000031 0.875000
vt 0.125000 0.875000
vt 0.125000 0.999969
vt 0.062469 0.000000
vt 0.062469 0.125000
vt -0.000031 0.062500
vt 0.125000 0.062500
vt 0.374756 0.000000
vt 0.500000 0.000000
vt 0.500000 0.046875
vt 0.374756 0.046875
vt 0.124939 0.000000
vt -0.000031 0.125000
vt 0.250000 0.000000
vt 0.250000 0.125000
vt 0.124939 0.125000
vt 0.500000 0.875000
vt 0.500000 0.999969
vt 0.000031 0.875000
vt 0.000031 0.999969
s 1
usemtl MI_AncientGate_Nether
f 65/1/2 67/2/2 80/3/2 79/4/2
f 212/1/3 153/2/3 152/3/3 211/4/3
f 85/5/2 56/6/2 55/7/2 88/8/2
f 76/2/4 73/3/4 74/4/4 75/1/4
f 69/1/3 71/2/3 82/3/3 81/4/3
f 226/9/6 225/10/6 223/11/6 224/12/6
f 139/5/3 9/6/3 21/7/3 144/8/3
f 124/5/3 122/13/3 123/14/3 121/8/3
f 132/8/6 119/15/6 108/16/6 131/7/6
f 77/1/1 78/2/1 84/3/1 83/4/1
f 100/5/1 98/6/1 99/7/1 97/8/1
f 233/17/1 133/18/1 232/19/1 231/20/1
f 149/5/5 148/6/5 104/7/5 147/8/5
f 60/8/6 59/5/6 54/6/6 53/7/6
f 147/17/5 104/18/5 176/19/5 175/20/5
f 194/1/3 140/2/3 139/3/3 193/4/3
f 44/5/4 43/21/4 106/7/4 105/22/4
f 12/1/3 10/2/3 11/3/3 9/4/3
f 154/2/4 217/3/4 218/4/4 155/1/4
f 159/17/3 86/18/3 188/19/3 187/20/3
f 141/2/4 199/3/4 200/4/4 142/1/4
f 180/8/6 179/5/6 177/6/6 178/7/6
f 64/1/1 62/2/1 63/3/1 61/4/1
f 16/2/4 13/3/4 14/4/4 15/1/4
f 40/8/6 39/5/6 37/6/6 38/7/6
f 36/5/5 34/6/5 35/7/5 33/8/5
f 19/1/2 20/2/2 26/3/2 25/4/2
f 9/1/3 11/2/3 22/3/3 21/4/3
f 73/2/4 154/3/4 155/4/4 74/1/4
f 61/1/1 63/2/1 78/3/1 77/4/1
f 23/5/1 24/6/1 30/7/1 29/8/1
f 4/1/1 2/2/1 3/3/1 1/4/1
f 17/1/1 18/2/1 24/3/1 23/4/1
f 94/5/5 92/6/5 93/7/5 91/8/5
f 78/5/1 156/6/1 158/7/1 84/8/1
f 46/21/4 43/7/4 44/22/4 45/5/4
f 50/5/2 42/6/2 41/7/2 49/8/2
f 3/5/1 138/6/1 143/7/1 18/8/1
f 136/13/1 134/6/1 135/7/1 133/14/1
f 48/7/6 53/8/6 54/5/6 47/6/6
f 157/5/3 81/6/3 86/7/3 159/8/3
f 52/21/4 51/7/4 43/22/4 46/5/4
f 86/5/3 87/6/3 90/7/3 89/8/3
f 56/5/2 50/6/2 49/7/2 55/8/2
f 96/8/6 95/5/6 59/6/6 60/7/6
f 68/1/2 66/2/2 67/3/2 65/4/2
f 113/5/3 111/6/3 112/7/3 110/8/3
f 109/16/4 129/7/4 130/22/4 106/15/4
f 62/1/1 150/2/1 151/3/1 63/4/1
f 128/21/5 126/23/5 127/24/5 125/25/5
f 81/1/3 82/2/3 87/3/3 86/4/3
f 120/8/6 60/5/6 53/6/6 119/7/6
f 13/2/4 141/3/4 142/4/4 14/1/4
f 152/1/3 69/2/3 81/3/3 157/4/3
f 63/1/1 151/2/1 156/3/1 78/4/1
f 108/8/6 48/5/6 40/6/6 107/7/6
f 162/5/5 160/6/5 161/7/5 115/8/5
f 18/5/1 143/6/1 145/7/1 24/8/1
f 140/1/3 12/2/3 9/3/3 139/4/3
f 72/1/3 70/2/3 71/3/3 69/4/3
f 2/1/1 137/2/1 138/3/1 3/4/1
f 42/5/2 25/6/2 31/7/2 41/8/2
f 242/17/2 240/18/2 241/19/2 239/20/2
f 1/1/1 3/2/1 18/3/1 17/4/1
f 21/1/3 22/2/3 28/3/3 27/4/3
f 211/10/3 152/11/3 157/12/3 220/9/3
f 104/10/5 102/11/5 103/12/5 101/9/5
f 79/1/2 80/2/2 56/3/2 85/4/2
f 146/17/3 27/18/3 174/19/3 173/20/3
f 5/1/2 7/2/2 20/3/2 19/4/2
f 144/5/3 21/6/3 27/7/3 146/8/3
f 172/17/2 170/18/2 171/19/2 169/20/2
f 166/8/6 165/5/6 163/6/6 164/7/6
f 238/20/3 123/17/3 237/18/3 236/19/3
f 8/1/2 6/2/2 7/3/2 5/4/2
f 193/5/3 139/6/3 144/7/3 202/8/3
f 151/10/1 210/11/1 219/12/1 156/9/1
f 198/26/5 196/2/5 197/3/5 195/27/5
f 58/21/4 57/7/4 51/22/4 52/5/4
f 213/28/5 215/11/5 222/12/5 221/29/5
f 137/1/1 191/2/1 192/3/1 138/4/1
f 182/20/1 84/17/1 158/18/1 181/19/1
f 24/17/1 145/18/1 168/19/1 167/20/1
f 117/10/5 115/11/5 116/12/5 114/9/5
f 51/21/4 109/7/4 106/22/4 43/5/4
f 216/26/5 214/2/5 215/3/5 213/27/5
f 57/21/4 118/7/4 109/22/4 51/5/4
f 25/5/2 26/6/2 32/7/2 31/8/2
f 150/1/1 209/2/1 210/3/1 151/4/1
f 138/5/1 192/6/1 201/7/1 143/8/1
f 48/8/6 47/5/6 39/6/6 40/7/6
f 208/8/6 207/5/6 205/6/6 206/7/6
f 195/5/5 197/6/5 204/7/5 203/8/5
f 186/17/2 184/18/2 185/19/2 183/20/2
f 153/1/3 72/2/3 69/3/3 152/4/3
f 230/8/6 229/5/6 227/6/6 228/7/6
f 115/17/5 161/18/5 190/19/5 189/20/5
f 103/17/5 114/18/5 235/19/5 234/20/5
