# Blender 5.0.1
# www.blender.org
mtllib BP_AM_Brazier.mtl
o SM_AM_Brazier+Vase_SM_Brazier.001
v 50.144199 -50.144199 65.625000
v -50.144203 -50.144199 65.625000
v -50.144203 50.144192 65.625000
v 50.144199 50.144192 65.625000
v -71.875000 -9.375001 12.499996
v -71.875000 9.374999 12.499996
v -71.875000 -9.375000 -0.000003
v -71.875000 9.375000 -0.000003
v -34.375000 -9.375002 37.499996
v -59.375000 9.374999 12.499996
v -59.375000 -9.375001 12.499996
v -34.375000 9.374998 37.499996
v -46.875000 9.375000 -0.000004
v -9.375000 9.374998 37.499996
v -46.875000 -9.375000 -0.000004
v -9.375000 -9.375002 37.499996
v -71.875000 -9.375001 12.499996
v -59.375000 -9.375001 12.499996
v -71.875000 9.374999 12.499996
v -59.375000 9.374999 12.499996
v -71.875000 -9.375000 -0.000003
v -46.875000 9.375000 -0.000004
v -46.875000 -9.375000 -0.000004
v -71.875000 9.375000 -0.000003
v 9.375000 71.875000 0.000000
v -9.375000 71.875000 0.000000
v 9.375000 71.875000 12.499999
v -9.375000 71.875000 12.499999
v -9.375000 34.375000 37.499996
v 9.375000 34.375000 37.499996
v 9.375000 59.375000 12.499999
v -9.375000 59.375000 12.499999
v -9.375000 9.374998 37.499996
v -9.375000 46.875000 -0.000002
v 9.375000 9.374998 37.499996
v 9.375000 46.875000 -0.000002
v 9.375000 59.375000 12.499999
v 9.375000 71.875000 12.499999
v -9.375000 59.375000 12.499999
v -9.375000 71.875000 12.499999
v -9.375000 46.875000 -0.000002
v -9.375000 71.875000 0.000000
v 9.375000 46.875000 -0.000002
v 9.375000 71.875000 0.000000
v -9.375000 -71.875000 12.499993
v 9.375000 -71.875000 -0.000006
v 9.375000 -71.875000 12.499993
v -9.375000 -71.875000 -0.000006
v 9.375000 -59.375000 12.499993
v 9.375000 -34.375000 37.499996
v -9.375000 -59.375000 12.499993
v -9.375000 -34.375000 37.499996
v -9.375000 -46.875000 -0.000006
v -9.375000 -9.375002 37.499996
v 9.375000 -46.875000 -0.000006
v 9.375000 -9.375002 37.499996
v -9.375000 -71.875000 12.499993
v 9.375000 -71.875000 12.499993
v 9.375000 -59.375000 12.499993
v -9.375000 -59.375000 12.499993
v 9.375000 -71.875000 -0.000006
v -9.375000 -71.875000 -0.000006
v -9.375000 -46.875000 -0.000006
v 9.375000 -46.875000 -0.000006
v -37.499992 -37.500004 62.499996
v 37.500004 -37.500000 37.499996
v 37.499996 -37.500004 62.499996
v -37.500008 -37.500000 37.499996
v 50.000008 49.999989 62.500000
v -50.000008 49.999989 62.500000
v -50.000008 50.000000 143.750000
v 50.000008 50.000000 143.750000
v 37.500004 -37.500000 37.499996
v -37.500008 -37.500000 37.499996
v -37.500008 37.500000 37.499996
v 37.500004 37.500000 37.499996
v 37.500004 37.499996 62.499996
v 37.499996 -37.500004 62.499996
v 37.500004 -37.500000 37.499996
v 37.500004 37.500000 37.499996
v -37.499992 -37.500004 62.499996
v -37.500008 37.500000 37.499996
v -37.500008 -37.500000 37.499996
v -37.500008 37.499996 62.499996
v -50.000011 -50.000000 143.750000
v 49.999992 -50.000011 62.500008
v 50.000004 -50.000000 143.750000
v -50.000000 -50.000011 62.500008
v 37.500004 37.500000 37.499996
v -37.500008 37.500000 37.499996
v -37.500008 37.499996 62.499996
v 37.500004 37.499996 62.499996
v 50.000004 -50.000000 143.750000
v 50.000008 49.999989 62.500000
v 50.000008 50.000000 143.750000
v 49.999992 -50.000011 62.500008
v -50.000011 -50.000000 143.750000
v -50.000008 49.999989 62.500000
v -50.000000 -50.000011 62.500008
v -50.000008 50.000000 143.750000
v 71.875000 -9.375001 12.499996
v 71.875000 -9.375000 -0.000003
v 71.875000 9.375000 -0.000003
v 71.875000 9.374999 12.499996
v 34.375000 -9.375002 37.499996
v 59.375000 -9.375001 12.499996
v 34.375000 9.374998 37.499996
v 59.375000 9.374999 12.499996
v 9.375000 -9.375002 37.499996
v 46.875000 9.375000 -0.000004
v 46.875000 -9.375000 -0.000004
v 9.375000 9.374998 37.499996
v 71.875000 -9.375001 12.499996
v 59.375000 9.374999 12.499996
v 59.375000 -9.375001 12.499996
v 71.875000 9.374999 12.499996
v 71.875000 -9.375000 -0.000003
v 46.875000 -9.375000 -0.000004
v 71.875000 9.375000 -0.000003
v 46.875000 9.375000 -0.000004
v -46.875000 9.375000 -0.000004
v -34.375000 9.374998 37.499996
v -9.375000 9.374998 37.499996
v -59.375000 9.374999 12.499996
v -71.875000 9.375000 -0.000003
v -71.875000 9.374999 12.499996
v -34.375000 -9.375002 37.499996
v -46.875000 -9.375000 -0.000004
v -9.375000 -9.375002 37.499996
v -59.375000 -9.375001 12.499996
v -71.875000 -9.375000 -0.000003
v -71.875000 -9.375001 12.499996
v 9.375000 34.375000 37.499996
v 9.375000 46.875000 -0.000002
v 9.375000 59.375000 12.499999
v 9.375000 9.374998 37.499996
v 9.375000 71.875000 0.000000
v 9.375000 71.875000 12.499999
v -9.375000 46.875000 -0.000002
v -9.375000 34.375000 37.499996
v -9.375000 59.375000 12.499999
v -9.375000 9.374998 37.499996
v -9.375000 71.875000 0.000000
v -9.375000 71.875000 12.499999
v -9.375000 -9.375002 37.499996
v -9.375000 -46.875000 -0.000006
v -9.375000 -34.375000 37.499996
v -9.375000 -59.375000 12.499993
v -9.375000 -71.875000 -0.000006
v -9.375000 -71.875000 12.499993
v 9.375000 -34.375000 37.499996
v 9.375000 -46.875000 -0.000006
v 9.375000 -9.375002 37.499996
v 9.375000 -59.375000 12.499993
v 9.375000 -71.875000 -0.000006
v 9.375000 -71.875000 12.499993
v 59.375000 -9.375001 12.499996
v 34.375000 -9.375002 37.499996
v 46.875000 -9.375000 -0.000004
v 9.375000 -9.375002 37.499996
v 71.875000 -9.375001 12.499996
v 71.875000 -9.375000 -0.000003
v 46.875000 9.375000 -0.000004
v 34.375000 9.374998 37.499996
v 59.375000 9.374999 12.499996
v 9.375000 9.374998 37.499996
v 71.875000 9.375000 -0.000003
v 71.875000 9.374999 12.499996
v 49.999992 -50.000011 62.500008
v -50.000000 -50.000011 62.500008
v -37.499992 -37.500004 62.499996
v -50.000008 49.999989 62.500000
v 37.499996 -37.500004 62.499996
v -37.500008 37.499996 62.499996
v 50.000008 49.999989 62.500000
v 37.500004 37.499996 62.499996
vn -0.0000 -0.0000 -1.0000
vn -1.0000 -0.0000 -0.0000
vn -0.7071 -0.0000 0.7071
vn 0.7071 -0.0000 -0.7071
vn -0.0000 -0.0000 1.0000
vn -0.0000 1.0000 -0.0000
vn -0.0000 0.7071 0.7071
vn -0.0000 -0.7071 -0.7071
vn -0.0000 -1.0000 -0.0000
vn -0.0000 -0.7071 0.7071
vn -0.0000 0.7071 -0.7071
vn 1.0000 -0.0000 -0.0000
vn 0.7071 -0.0000 0.7071
vn -0.7071 -0.0000 -0.7071
vt 0.125000 0.999969
vt 0.062500 0.999969
vt 0.062500 0.906250
vt 0.125000 0.906250
vt 0.531250 0.093750
vt 0.593750 0.375000
vt 0.500000 0.375000
vt 0.500000 0.093750
vt 0.593750 0.093750
vt 0.593750 0.218750
vt 0.500000 0.218750
vt 0.437500 0.156250
vt 0.437500 0.531250
vt 0.062500 0.531250
vt 0.062500 0.156250
vt 0.437500 0.999969
vt 0.250000 0.999969
vt 0.250000 0.906250
vt 0.437500 0.906250
vt -0.000031 1.093750
vt -0.000031 0.687500
vt 0.500000 0.687500
vt 0.500000 1.093750
vt 0.593750 0.281250
vt 0.500000 0.281250
vt 0.125000 0.562500
vt 0.125000 0.687500
vt 0.500000 0.562500
vt 0.531250 0.281250
vt 0.562500 0.093750
vt 0.625000 0.156250
vt 0.500000 0.156250
vt 0.562500 0.156250
vt 0.625000 0.093750
vt 0.500000 0.593750
vt 0.000031 0.593750
vt 0.000031 0.093750
s 1
usemtl MI_AM_Brazier+Vase
f 60/1/5 57/2/5 58/3/5 59/4/5
f 116/3/5 114/4/5 115/1/5 113/2/5
f 36/5/8 35/6/8 33/7/8 34/8/8
f 40/3/5 39/4/5 37/1/5 38/2/5
f 24/9/1 22/10/1 23/11/1 21/8/1
f 76/12/1 73/13/1 74/14/1 75/15/1
f 32/16/7 29/17/7 30/18/7 31/19/7
f 4/12/1 1/13/1 2/14/1 3/15/1
f 106/19/13 108/16/13 107/17/13 105/18/13
f 72/20/6 69/21/6 70/22/6 71/23/6
f 8/24/2 7/25/2 5/11/2 6/10/2
f 52/18/10 51/19/10 49/16/10 50/17/10
f 18/4/5 20/1/5 19/2/5 17/3/5
f 112/7/14 110/8/14 111/5/14 109/6/14
f 14/6/4 16/7/4 15/8/4 13/5/4
f 26/25/6 28/11/6 27/10/6 25/24/6
f 84/26/2 82/27/2 83/22/2 81/28/2
f 12/18/3 10/19/3 11/16/3 9/17/3
f 64/11/1 61/8/1 62/9/1 63/10/1
f 68/27/9 66/22/9 67/28/9 65/26/9
f 79/27/12 80/22/12 77/28/12 78/26/12
f 44/9/1 43/10/1 41/11/1 42/8/1
f 88/21/9 86/22/9 87/23/9 85/20/9
f 96/21/12 94/22/12 95/23/12 93/20/12
f 100/20/2 98/21/2 99/22/2 97/23/2
f 92/26/6 89/27/6 90/22/6 91/28/6
f 104/11/12 101/10/12 102/24/12 103/25/12
f 56/7/11 55/8/11 53/5/11 54/6/11
f 48/24/9 46/25/9 47/11/9 45/10/9
f 123/6/6 121/9/6 122/29/6
f 124/5/6 122/29/6 121/9/6
f 124/30/6 121/31/6 125/32/6
f 126/8/6 124/30/6 125/32/6
f 129/6/9 127/29/9 128/9/9
f 130/5/9 128/9/9 127/29/9
f 132/32/9 131/8/9 130/33/9
f 128/34/9 130/33/9 131/8/9
f 135/5/12 133/29/12 134/9/12
f 133/29/12 136/6/12 134/9/12
f 135/30/12 134/31/12 137/32/12
f 138/8/12 135/30/12 137/32/12
f 141/5/2 139/9/2 140/29/2
f 142/6/2 140/29/2 139/9/2
f 144/32/2 143/8/2 141/33/2
f 139/34/2 141/33/2 143/8/2
f 147/29/2 145/6/2 146/9/2
f 147/29/2 146/9/2 148/5/2
f 146/31/2 149/32/2 148/30/2
f 148/30/2 149/32/2 150/8/2
f 153/6/12 151/29/12 152/9/12
f 154/5/12 152/9/12 151/29/12
f 156/32/12 155/8/12 154/33/12
f 152/34/12 154/33/12 155/8/12
f 159/9/9 157/5/9 158/29/9
f 158/29/9 160/6/9 159/9/9
f 162/32/9 161/8/9 157/30/9
f 162/32/9 157/30/9 159/31/9
f 165/5/6 163/9/6 164/29/6
f 166/6/6 164/29/6 163/9/6
f 163/34/6 165/33/6 167/8/6
f 168/32/6 167/8/6 165/33/6
f 171/13/1 169/8/1 170/35/1
f 170/35/1 172/36/1 171/13/1
f 173/12/1 169/8/1 171/13/1
f 174/14/1 171/13/1 172/36/1
f 173/12/1 175/37/1 169/8/1
f 174/14/1 172/36/1 176/15/1
f 176/15/1 175/37/1 173/12/1
f 176/15/1 172/36/1 175/37/1
f 118/10/1 120/11/1 119/8/1 117/9/1
