# Blender 5.0.1
# www.blender.org
mtllib BP_AbyssalStoneDoor.mtl
o SM_AbyssalStoneDoor_Base.001
v 337.500000 -62.500114 12.499959
v -337.500000 -62.500084 12.499898
v -350.499939 -62.500084 -0.000129
v 350.500000 -62.500107 -0.000007
v 337.500000 62.499886 12.500033
v -337.500000 62.499916 12.499969
v -337.500000 -62.500084 12.499898
v 337.500000 -62.500114 12.499959
v 337.500000 62.499886 12.500033
v 350.500000 62.499893 0.000053
v -350.499939 62.499916 -0.000054
v -337.500000 62.499916 12.499969
v -350.500000 62.499672 412.499939
v -350.500061 -62.500328 412.499878
v -337.500122 -62.500320 412.499878
v -337.500061 62.499680 412.499939
v -350.500061 -62.500328 412.499878
v -337.500122 -62.500320 412.499878
v -337.500061 62.499680 412.499939
v -337.500122 -62.500320 412.499878
v -337.500000 -62.500084 12.499898
v -337.500000 62.499916 12.499969
v -350.500000 62.499672 412.499939
v -337.500061 62.499680 412.499939
v 337.499939 62.499649 412.499969
v 337.499939 -62.500351 412.499908
v 350.499939 -62.500351 412.499908
v 350.499939 62.499649 412.499969
v 337.499939 62.499649 412.499969
v 337.500000 62.499886 12.500033
v 337.500000 -62.500114 12.499959
v 337.499939 -62.500351 412.499908
v 350.499939 -62.500351 412.499908
v 337.499939 -62.500351 412.499908
v 350.499939 62.499649 412.499969
v 337.499939 62.499649 412.499969
v 350.500000 -62.500107 -0.000007
v 350.500000 62.499893 0.000053
v 350.499939 62.499649 412.499969
v 350.499939 -62.500351 412.499908
v -350.499939 62.499916 -0.000054
v -350.499939 -62.500084 -0.000129
v -350.500061 -62.500328 412.499878
v -350.500000 62.499672 412.499939
vn -0.0000 -1.0000 -0.0000
vn -0.0000 -0.0000 1.0000
vn -0.0000 1.0000 -0.0000
vn 1.0000 -0.0000 -0.0000
vn -1.0000 -0.0000 -0.0000
vt 0.812500 0.312500
vt 0.382812 0.296875
vt 0.804688 0.296875
vt 0.375000 0.312500
vt 0.812500 0.000000
vt 0.890625 0.000000
vt 0.890625 0.515625
vt 0.812500 0.515625
vt 0.812500 0.296875
vt 0.382812 0.312500
vt 0.375000 0.296875
vt 0.804688 0.312500
vt 0.714844 0.312500
vt 0.464844 0.296875
vt 0.722656 0.296875
vt 0.464844 0.312500
vt 0.632812 0.312500
vt 0.554688 0.312500
vt 0.554688 0.296875
vt 0.632812 0.296875
vt 0.472656 0.312500
vt 0.722656 0.312500
vt 0.968750 0.000000
vt 0.968750 0.820312
vt 0.890625 0.820312
vt 0.628906 0.312500
vt 0.550781 0.312500
vt 0.550781 0.296875
vt 0.628906 0.296875
vt 0.710938 0.296875
vt 0.453125 0.312500
vt 0.460938 0.296875
vt 0.710938 0.312500
s 1
usemtl MI_AbyssalStoneDoor
f 3/1/1 1/2/1 2/3/1
f 1/2/1 3/1/1 4/4/1
f 39/5/4 40/6/4 37/7/4 38/8/4
f 11/9/3 9/10/3 10/11/3
f 9/10/3 11/9/3 12/12/3
f 2/13/1 17/14/1 3/15/1
f 17/14/1 2/13/1 18/16/1
f 15/17/2 16/18/2 13/19/2 14/20/2
f 12/21/3 23/15/3 24/22/3
f 23/15/3 12/21/3 11/14/3
f 7/23/2 8/24/2 5/25/2 6/6/2
f 27/26/2 28/27/2 25/28/2 26/29/2
f 1/30/1 33/31/1 34/32/1
f 33/31/1 1/30/1 4/33/1
f 9/32/3 35/33/3 10/31/3
f 35/33/3 9/32/3 36/30/3
f 43/5/5 44/6/5 41/7/5 42/8/5
f 21/7/4 22/8/4 19/5/4 20/6/4
f 31/8/5 32/5/5 29/6/5 30/7/5
