# Blender 5.0.1
# www.blender.org
mtllib BP_Bat_Single.mtl
o SK_Bat.001
v 15.999191 -4.899640 24.157959
v -15.250809 -4.899592 24.157959
v -15.250809 -4.899592 42.907951
v 15.999191 -4.899640 42.907951
v -15.250813 -8.024592 42.907951
v -15.250813 -8.024592 24.157959
v 15.999187 -8.024639 42.907951
v 15.999187 -8.024639 24.157959
v 15.999187 -8.024639 42.907951
v 15.999187 -8.024639 24.157959
v 15.999191 -4.899640 42.907951
v 15.999191 -4.899640 24.157959
v 15.999191 -4.899640 42.907951
v -15.250809 -4.899592 42.907951
v -15.250813 -8.024592 42.907951
v 15.999187 -8.024639 42.907951
v -15.250809 -4.899592 24.157959
v -15.250813 -8.024592 42.907951
v -15.250809 -4.899592 42.907951
v -15.250813 -8.024592 24.157959
v 15.999187 -8.024639 24.157959
v -15.250809 -4.899592 24.157959
v 15.999191 -4.899640 24.157959
v -15.250813 -8.024592 24.157959
v -9.000793 5.129108 -13.142151
v -9.000794 4.473701 24.352119
v 9.749207 5.129080 -13.142151
v 9.749206 4.473672 24.352119
v -9.000823 -14.273435 24.024414
v -9.000822 -13.618027 -13.469852
v 9.749177 -14.273463 24.024414
v 9.749178 -13.618055 -13.469852
v 9.749177 -14.273463 24.024414
v 9.749178 -13.618055 -13.469852
v 9.749206 4.473672 24.352119
v 9.749207 5.129080 -13.142151
v 9.749206 4.473672 24.352119
v -9.000794 4.473701 24.352119
v -9.000823 -14.273435 24.024414
v 9.749177 -14.273463 24.024414
v -9.000793 5.129108 -13.142151
v -9.000823 -14.273435 24.024414
v -9.000794 4.473701 24.352119
v -9.000822 -13.618027 -13.469852
v 9.749207 5.129080 -13.142151
v 9.749178 -13.618055 -13.469852
v -9.000793 5.129108 -13.142151
v -9.000822 -13.618027 -13.469852
v 8.952736 5.055401 -31.832352
v -9.637378 5.929192 -29.550537
v -7.397878 5.019949 -10.956974
v 11.192237 4.146159 -13.238792
v -8.375029 -13.687599 -11.754097
v -10.614529 -12.778357 -30.347660
v 10.215085 -14.561389 -14.035915
v 7.975584 -13.652147 -32.629475
v 8.952736 5.055401 -31.832352
v 10.215085 -14.561389 -14.035915
v 7.975584 -13.652147 -32.629475
v 11.192237 4.146159 -13.238792
v 11.192237 4.146159 -13.238792
v -7.397878 5.019949 -10.956974
v -8.375029 -13.687599 -11.754097
v 10.215085 -14.561389 -14.035915
v -9.637378 5.929192 -29.550537
v -8.375029 -13.687599 -11.754097
v -7.397878 5.019949 -10.956974
v -10.614529 -12.778357 -30.347660
v 8.952736 5.055401 -31.832352
v 7.975584 -13.652147 -32.629475
v -9.637378 5.929192 -29.550537
v -10.614529 -12.778357 -30.347660
v 10.768479 2.246466 -41.642288
v 1.473422 2.683361 -40.501381
v 2.966423 2.077200 -28.105675
v 12.261479 1.640305 -29.246582
v 2.803564 -1.040725 -28.238529
v 1.310563 -0.434563 -40.634235
v 12.098621 -1.477620 -29.379436
v 10.605620 -0.871458 -41.775143
v 12.098621 -1.477620 -29.379436
v 10.768479 2.246466 -41.642288
v 12.261479 1.640305 -29.246582
v 10.605620 -0.871458 -41.775143
v 12.261479 1.640305 -29.246582
v 2.966423 2.077200 -28.105675
v 2.803564 -1.040725 -28.238529
v 12.098621 -1.477620 -29.379436
v 1.473422 2.683361 -40.501381
v 2.803564 -1.040725 -28.238529
v 2.966423 2.077200 -28.105675
v 1.310563 -0.434563 -40.634235
v 1.473422 2.683361 -40.501381
v 10.768479 2.246466 -41.642288
v 10.605620 -0.871458 -41.775143
v 1.310563 -0.434563 -40.634235
v -4.723282 2.974624 -39.740776
v -14.018339 3.411520 -38.599869
v -12.525339 2.805358 -26.204163
v -3.230282 2.368463 -27.345070
v -12.688197 -0.312566 -26.337017
v -14.181198 0.293595 -38.732723
v -3.393141 -0.749461 -27.477924
v -4.886141 -0.143300 -39.873631
v -3.393141 -0.749461 -27.477924
v -4.723282 2.974624 -39.740776
v -3.230282 2.368463 -27.345070
v -4.886141 -0.143300 -39.873631
v -3.230282 2.368463 -27.345070
v -12.525339 2.805358 -26.204163
v -12.688197 -0.312566 -26.337017
v -3.393141 -0.749461 -27.477924
v -14.018339 3.411520 -38.599869
v -12.688197 -0.312566 -26.337017
v -12.525339 2.805358 -26.204163
v -14.181198 0.293595 -38.732723
v -4.886141 -0.143300 -39.873631
v -14.018339 3.411520 -38.599869
v -4.723282 2.974624 -39.740776
v -14.181198 0.293595 -38.732723
v 1.651450 14.097220 -17.341896
v 26.460493 11.037152 -16.957989
v 25.714756 9.691872 20.510452
v 0.905714 12.751941 20.126549
v 26.095221 12.791347 20.629311
v 26.840956 14.136627 -16.839134
v 1.286178 15.851416 20.245399
v 2.031914 17.196693 -17.223038
v 1.286178 15.851416 20.245399
v 2.031914 17.196693 -17.223038
v 0.905714 12.751941 20.126549
v 1.651450 14.097220 -17.341896
v 0.905714 12.751941 20.126549
v 25.714756 9.691872 20.510452
v 26.095221 12.791347 20.629311
v 1.286178 15.851416 20.245399
v 26.460493 11.037152 -16.957989
v 26.095221 12.791347 20.629311
v 25.714756 9.691872 20.510452
v 26.840956 14.136627 -16.839134
v 1.651450 14.097220 -17.341896
v 26.840956 14.136627 -16.839134
v 26.460493 11.037152 -16.957989
v 2.031914 17.196693 -17.223038
v 26.447317 11.361628 -20.074234
v 6.415064 -12.590134 -21.332909
v 5.420749 -14.383842 28.625015
v 25.453003 9.567920 29.883690
v 8.812739 -14.594176 -21.357143
v 27.850677 7.563878 29.859451
v 7.818425 -16.387884 28.600777
v 28.844992 9.357585 -20.098469
v 27.850677 7.563878 29.859451
v 28.844992 9.357585 -20.098469
v 25.453003 9.567920 29.883690
v 26.447317 11.361628 -20.074234
v 25.453003 9.567920 29.883690
v 5.420749 -14.383842 28.625015
v 7.818425 -16.387884 28.600777
v 27.850677 7.563878 29.859451
v 5.420749 -14.383842 28.625015
v 8.812739 -14.594176 -21.357143
v 7.818425 -16.387884 28.600777
v 6.415064 -12.590134 -21.332909
v 26.447317 11.361628 -20.074234
v 8.812739 -14.594176 -21.357143
v 6.415064 -12.590134 -21.332909
v 28.844992 9.357585 -20.098469
v -24.198622 10.391237 -17.989449
v 0.495528 14.238647 -17.359821
v -0.250208 12.893367 20.108627
v -24.944357 9.045957 19.478989
v 0.012184 17.324385 -17.258648
v -25.427702 12.131692 19.580170
v -0.733552 15.979103 20.209793
v -24.681965 13.476973 -17.888275
v -24.681965 13.476973 -17.888275
v -24.944357 9.045957 19.478989
v -25.427702 12.131692 19.580170
v -24.198622 10.391237 -17.989449
v -25.427702 12.131692 19.580170
v -0.250208 12.893367 20.108627
v -0.733552 15.979103 20.209793
v -24.944357 9.045957 19.478989
v -0.250208 12.893367 20.108627
v 0.495528 14.238647 -17.359821
v -0.733552 15.979103 20.209793
v 0.012184 17.324385 -17.258648
v -24.681965 13.476973 -17.888275
v 0.012184 17.324385 -17.258648
v 0.495528 14.238647 -17.359821
v -24.198622 10.391237 -17.989449
v -3.640652 -11.729928 -21.502167
v -22.823101 12.934670 -20.998390
v -23.817415 11.140964 28.959526
v -4.634967 -13.523636 28.455750
v -26.283606 9.225335 28.841667
v -25.289289 11.019042 -21.116253
v -7.101158 -15.439264 28.337891
v -6.106843 -13.645556 -21.620033
v -6.106843 -13.645556 -21.620033
v -4.634967 -13.523636 28.455750
v -7.101158 -15.439264 28.337891
v -3.640652 -11.729928 -21.502167
v -7.101158 -15.439264 28.337891
v -23.817415 11.140964 28.959526
v -26.283606 9.225335 28.841667
v -4.634967 -13.523636 28.455750
v -23.817415 11.140964 28.959526
v -22.823101 12.934670 -20.998390
v -26.283606 9.225335 28.841667
v -25.289289 11.019042 -21.116253
v -6.106843 -13.645556 -21.620033
v -25.289289 11.019042 -21.116253
v -22.823101 12.934670 -20.998390
v -3.640652 -11.729928 -21.502167
vn -0.0000 1.0000 -0.0000
vn -0.0000 -1.0000 -0.0000
vn 1.0000 -0.0000 -0.0000
vn -0.0000 -0.0000 1.0000
vn -1.0000 -0.0000 -0.0000
vn -0.0000 -0.0000 -1.0000
vn -0.0000 0.9998 0.0175
vn -0.0000 -0.9998 -0.0175
vn -0.0000 -0.0175 0.9998
vn -0.0000 0.0175 -0.9998
vn 0.0521 0.9977 0.0425
vn -0.0521 -0.9977 -0.0425
vn 0.9915 -0.0466 -0.1217
vn 0.1194 -0.0485 0.9917
vn -0.9915 0.0466 0.1217
vn -0.1194 0.0485 -0.9917
vn -0.1217 -0.9918 -0.0380
vn 0.1217 0.9918 0.0380
vn -0.9924 0.1224 -0.0154
vn -0.0199 -0.0359 0.9992
vn 0.9924 -0.1224 0.0154
vn 0.0199 0.0359 -0.9992
vn -0.7673 0.6413 0.0078
vn 0.7673 -0.6413 -0.0078
vn 0.6410 0.7665 0.0403
vn -0.6410 -0.7665 -0.0403
vn 0.1547 -0.9874 -0.0324
vn -0.1547 0.9874 0.0324
vn -0.9878 -0.1539 -0.0252
vn 0.9878 0.1539 0.0252
vn 0.7892 0.6130 0.0377
vn -0.7892 -0.6130 -0.0377
vn 0.6138 -0.7893 -0.0161
vn -0.6138 0.7893 0.0161
vt 0.281250 0.906250
vt 0.281250 0.999969
vt 0.187500 0.999969
vt 0.187500 0.906250
vt 0.484375 0.984375
vt 0.484375 0.999969
vt 0.437500 0.999969
vt 0.437500 0.984375
vt 0.828125 0.734375
vt 0.828125 0.984375
vt 0.671875 0.984375
vt 0.671875 0.734375
vt 0.187500 0.453125
vt 0.171875 0.453125
vt 0.171875 0.359375
vt 0.187500 0.359375
vt 0.437500 0.921875
vt 0.390625 0.984375
vt 0.390625 0.921875
vt 0.015625 0.453125
vt 0.015625 0.359375
vt 0.328125 0.453125
vt 0.328125 0.468750
vt 0.171875 0.468750
vt 0.828125 0.468750
vt 0.828125 0.718750
vt 0.671875 0.718750
vt 0.671875 0.468750
vt 0.515625 0.343750
vt 0.515625 0.531250
vt 0.390625 0.531250
vt 0.390625 0.343750
vt 0.343750 0.359375
vt 0.343750 0.453125
vt 0.453125 0.984375
vt 0.453125 0.921875
vt 0.500000 0.921875
vt 0.500000 0.984375
vt 0.000031 0.453125
vt 0.000031 0.359375
vt 0.187500 0.468750
vt 0.187500 0.656250
vt 0.093750 0.656250
vt 0.093750 0.468750
vt 0.187500 0.812500
vt 0.281250 0.812500
vt 0.843750 0.984375
vt 0.843750 0.734375
vt 1.000000 0.734375
vt 1.000000 0.984375
vt 0.015625 0.468750
vt 0.281250 0.656250
vt 0.281250 0.750000
vt 0.187500 0.750000
vt 0.515625 0.546875
vt 0.515625 0.734375
vt 0.390625 0.734375
vt 0.390625 0.546875
vt 0.531250 0.546875
vt 0.531250 0.734375
vt 0.000031 0.656250
vt 0.000031 0.468750
vt 0.000031 0.906250
vt 0.000031 0.812500
vt 0.093750 0.812500
vt 0.093750 0.906250
vt 0.093750 0.750000
vt 0.375000 0.984375
vt 0.375000 0.921875
vt 0.375000 0.812500
vt 0.375000 0.906250
vt 0.281250 0.468750
vt 0.093750 0.999969
vt 0.390625 0.999969
vt 0.640625 0.750000
vt 0.515625 0.750000
vt 0.640625 0.734375
vt 0.656250 0.984375
vt 0.656250 0.734375
vt 0.390625 0.750000
vt 0.531250 0.531250
vt 0.531250 0.343750
vt 0.984375 0.718750
vt 0.984375 0.734375
vt 0.656250 0.546875
vt 0.656250 0.343750
vt 0.656250 0.531250
vt 0.828125 0.999969
vt 0.671875 0.999969
vt 0.640625 0.531250
vt 0.640625 0.546875
vt 0.656250 0.718750
vt 0.656250 0.468750
vt 0.843750 0.718750
vt 0.843750 0.468750
vt 1.000000 0.468750
vt 1.000000 0.718750
vt 0.375000 0.468750
vt 0.375000 0.656250
vt 0.375000 0.734375
vt 0.375000 0.546875
vt 0.375000 0.531250
vt 0.375000 0.343750
vt 0.984375 0.999969
vt 0.984375 0.984375
s 1
usemtl MI_Bat
f 64/1/14 61/2/14 62/3/14 63/4/14
f 112/5/14 109/6/14 110/7/14 111/8/14
f 196/9/31 193/10/31 194/11/31 195/12/31
f 10/13/3 12/14/3 11/15/3 9/16/3
f 100/17/11 97/8/11 98/18/11 99/19/11
f 4/15/1 1/14/1 2/20/1 3/21/1
f 16/22/4 13/23/4 14/24/4 15/14/4
f 148/25/23 145/26/23 146/27/23 147/28/23
f 124/29/17 121/30/17 122/31/17 123/32/17
f 8/13/2 7/16/2 5/33/2 6/34/2
f 108/35/13 106/8/13 107/17/13 105/36/13
f 80/35/12 79/36/12 77/37/12 78/38/12
f 20/39/5 18/40/5 19/21/5 17/20/5
f 104/35/12 103/36/12 101/37/12 102/38/12
f 28/41/7 27/42/7 25/43/7 26/44/7
f 60/45/13 58/46/13 59/1/13 57/4/13
f 200/47/32 199/48/32 197/49/32 198/50/32
f 24/51/6 22/20/6 23/14/6 21/24/6
f 40/52/9 37/53/9 38/54/9 39/42/9
f 172/55/27 169/56/27 170/57/27 171/58/27
f 180/56/29 178/55/29 179/59/29 177/60/29
f 44/61/5 42/62/5 43/44/5 41/43/5
f 88/5/14 85/6/14 86/7/14 87/8/14
f 68/63/15 66/64/15 67/65/15 65/66/15
f 48/67/10 47/43/10 45/42/10 46/54/10
f 52/45/11 49/4/11 50/66/11 51/65/11
f 116/68/15 114/69/15 115/19/15 113/18/15
f 56/1/12 55/46/12 53/70/12 54/71/12
f 34/52/3 36/42/3 35/41/3 33/72/3
f 72/73/16 71/66/16 69/4/16 70/3/16
f 168/9/22 166/12/22 167/27/22 165/26/22
f 96/74/16 93/18/16 94/8/16 95/7/16
f 184/75/20 182/76/20 183/56/20 181/77/20
f 144/55/22 142/58/22 143/31/22 141/30/22
f 210/11/34 212/78/34 211/79/34 209/12/34
f 92/68/15 90/69/15 91/19/15 89/18/15
f 76/17/11 73/8/11 74/18/11 75/19/11
f 204/10/33 202/9/33 203/48/33 201/47/33
f 192/56/22 189/76/22 190/80/22 191/57/22
f 130/81/19 132/30/19 131/29/19 129/82/19
f 160/83/20 157/84/20 158/9/20 159/26/20
f 176/60/28 174/59/28 175/85/28 173/79/28
f 128/81/18 127/82/18 125/86/18 126/87/18
f 216/10/22 213/88/22 214/89/22 215/11/22
f 136/90/20 133/91/20 134/55/20 135/30/20
f 164/27/26 162/92/26 163/93/26 161/28/26
f 84/35/13 82/8/13 83/17/13 81/36/13
f 152/94/24 150/95/24 151/96/24 149/97/24
f 32/52/8 31/72/8 29/98/8 30/99/8
f 186/57/30 188/100/30 187/101/30 185/58/30
f 120/74/16 118/18/16 119/8/16 117/7/16
f 154/94/25 156/26/25 155/25/25 153/95/25
f 140/102/21 138/103/21 139/32/21 137/31/21
f 208/104/20 206/88/20 207/10/20 205/105/20
