# Blender 5.0.1
# www.blender.org
mtllib BP_BookButton.mtl
o SM_HH_SecretBook.001
v 15.625010 -34.374981 75.000000
v 15.624989 34.375004 -0.000006
v 15.624989 34.375015 74.999992
v 15.625010 -34.374992 0.000006
v -15.624989 -34.374989 75.000000
v 15.625010 -34.374992 0.000006
v 15.625010 -34.374981 75.000000
v -15.624989 -34.375004 0.000006
v -15.625010 34.375004 74.999992
v -15.624989 -34.375004 0.000006
v -15.624989 -34.374989 75.000000
v -15.625010 34.374992 -0.000006
v 15.624989 34.375015 74.999992
v -15.625010 34.374992 -0.000006
v -15.625010 34.375004 74.999992
v 15.624989 34.375004 -0.000006
v -15.624989 -34.375004 0.000006
v 15.624989 34.375004 -0.000006
v 15.625010 -34.374992 0.000006
v -15.625010 34.374992 -0.000006
v 15.624989 34.375015 74.999992
v -15.625010 34.375004 74.999992
v -15.624989 -34.374989 75.000000
v 15.625010 -34.374981 75.000000
vn 1.0000 -0.0000 -0.0000
vn -0.0000 -1.0000 -0.0000
vn -1.0000 -0.0000 -0.0000
vn -0.0000 1.0000 -0.0000
vn -0.0000 -0.0000 -1.0000
vn -0.0000 -0.0000 1.0000
vt 0.500000 0.312500
vt 0.578125 0.312500
vt 0.578125 0.500000
vt 0.500000 0.500000
vt 0.421875 0.234375
vt 0.421875 0.312500
vt 0.250000 0.312500
vt 0.250000 0.234375
vt 0.328125 0.312500
vt 0.331543 0.502686
vt 0.250244 0.502686
vt 0.328125 0.500000
s 1
usemtl MI_HH_Secret
f 16/1/4 14/2/4 15/3/4 13/4/4
f 20/5/5 18/6/5 19/7/5 17/8/5
f 8/7/2 6/9/2 7/10/2 5/11/2
f 12/1/3 10/9/3 11/12/3 9/4/3
f 4/9/1 2/1/1 3/4/1 1/12/1
f 24/8/6 21/5/6 22/6/6 23/7/6
