# Blender 5.0.1
# www.blender.org
mtllib BP_Bridge_4_Long.mtl
o Bridge_4_Long.001
v 200.000000 18.750000 25.000000
v 0.000000 18.750000 25.000000
v 200.000000 18.750000 37.500000
v 0.000000 18.750000 37.500000
v 200.000000 18.750000 37.500000
v 0.000000 18.750000 37.500000
v 200.000000 -18.750000 37.500000
v 0.000000 -18.750000 37.500000
v 200.000000 -18.750000 37.500000
v 0.000000 -18.750000 37.500000
v 200.000000 -18.750000 25.000000
v 0.000000 -18.750000 25.000000
v 200.000000 -18.750000 25.000000
v 0.000000 -18.750000 25.000000
v 200.000000 18.750000 25.000000
v 0.000000 18.750000 25.000000
v -200.000000 18.750000 25.000000
v -200.000000 -18.749998 25.000000
v -200.000000 18.750000 37.500000
v -200.000000 -18.749998 37.500000
v 200.000000 -18.750000 25.000000
v 200.000000 18.750000 25.000000
v 200.000000 -18.750000 37.500000
v 200.000000 18.750000 37.500000
v -193.750000 112.500000 25.000000
v 0.000000 112.500000 25.000000
v -193.750000 112.500000 37.500000
v 0.000000 112.500000 37.500000
v -193.750000 112.500000 37.500000
v 0.000000 112.500000 37.500000
v -193.750000 150.000000 37.500000
v 0.000000 150.000000 37.500000
v -193.750000 150.000000 37.500000
v 0.000000 150.000000 37.500000
v -193.750000 150.000000 25.000000
v 0.000000 150.000000 25.000000
v -193.750000 150.000000 25.000000
v 0.000000 150.000000 25.000000
v -193.750000 112.500000 25.000000
v 0.000000 112.500000 25.000000
v 193.750000 112.500000 25.000000
v 193.750000 150.000000 25.000000
v 193.750000 112.500000 37.500000
v 193.750000 150.000000 37.500000
v -193.750000 150.000000 25.000000
v -193.750000 112.500000 25.000000
v -193.750000 150.000000 37.500000
v -193.750000 112.500000 37.500000
v 200.000000 -68.750000 25.000000
v 0.000000 -68.750000 25.000000
v 200.000000 -68.750000 37.500000
v 0.000000 -68.750000 37.500000
v 200.000000 -68.750000 37.500000
v 0.000000 -68.750000 37.500000
v 200.000000 -106.250000 37.500000
v 0.000000 -106.250000 37.500000
v 200.000000 -106.250000 37.500000
v 0.000000 -106.250000 37.500000
v 200.000000 -106.250000 25.000000
v 0.000000 -106.250000 25.000000
v 200.000000 -106.250000 25.000000
v 0.000000 -106.250000 25.000000
v 200.000000 -68.750000 25.000000
v 0.000000 -68.750000 25.000000
v -200.000000 -68.750000 25.000000
v -200.000000 -106.250000 25.000000
v -200.000000 -68.750000 37.500000
v -200.000000 -106.250000 37.500000
v 200.000000 -106.250000 25.000000
v 200.000000 -68.750000 25.000000
v 200.000000 -106.250000 37.500000
v 200.000000 -68.750000 37.500000
v 206.250000 -25.053663 25.000000
v 0.000000 -25.026833 25.000000
v 206.250000 -25.053663 37.500000
v 0.000000 -25.026833 37.500000
v 206.250000 -25.053663 37.500000
v 0.000000 -25.026833 37.500000
v 206.250000 -62.446335 37.500000
v 0.000000 -62.473167 37.500000
v 206.250000 -62.446335 37.500000
v 0.000000 -62.473167 37.500000
v 206.250000 -62.446335 25.000000
v 0.000000 -62.473167 25.000000
v 206.250000 -62.446335 25.000000
v 0.000000 -62.473167 25.000000
v 206.250000 -25.053663 25.000000
v 0.000000 -25.026833 25.000000
v -206.250000 -25.000002 25.000000
v -206.250000 -62.500000 25.000000
v -206.250000 -25.000002 37.500000
v -206.250000 -62.500000 37.500000
v 206.250000 -62.446335 25.000000
v 206.250000 -25.053663 25.000000
v 206.250000 -62.446335 37.500000
v 206.250000 -25.053663 37.500000
v -225.000000 87.500000 0.000000
v 225.000000 87.500000 0.000000
v -225.000000 87.500000 12.500000
v 225.000000 87.500000 12.500000
v -225.000000 87.500000 12.500000
v 225.000000 87.500000 12.500000
v -225.000000 112.500000 12.500000
v 225.000000 112.500000 12.500000
v -225.000000 112.500000 12.500000
v 225.000000 112.500000 12.500000
v -225.000000 112.500000 0.000000
v 225.000000 112.500000 0.000000
v -225.000000 112.500000 0.000000
v 225.000000 112.500000 0.000000
v -225.000000 87.500000 0.000000
v 225.000000 87.500000 0.000000
v 225.000000 87.500000 0.000000
v 225.000000 112.500000 0.000000
v 225.000000 87.500000 12.500000
v 225.000000 112.500000 12.500000
v -225.000000 112.500000 0.000000
v -225.000000 87.500000 0.000000
v -225.000000 112.500000 12.500000
v -225.000000 87.500000 12.500000
v 200.000000 105.491577 25.000000
v 0.000000 105.491577 25.000000
v 200.000000 105.491577 37.500000
v 0.000000 105.491577 37.500000
v 200.000000 105.491577 37.500000
v 0.000000 105.491577 37.500000
v 200.000000 74.241577 37.500000
v 0.000000 74.241577 37.500000
v 200.000000 74.241577 37.500000
v 0.000000 74.241577 37.500000
v 200.000000 74.241577 25.000000
v 0.000000 74.241577 25.000000
v 200.000000 74.241577 25.000000
v 0.000000 74.241577 25.000000
v 200.000000 105.491577 25.000000
v 0.000000 105.491577 25.000000
v -200.000000 105.491577 25.000000
v -200.000000 74.241577 25.000000
v -200.000000 105.491577 37.500000
v -200.000000 74.241577 37.500000
v 200.000000 74.241577 25.000000
v 200.000000 105.491577 25.000000
v 200.000000 74.241577 37.500000
v 200.000000 105.491577 37.500000
v -187.500000 31.250000 25.000000
v 12.500000 31.250000 25.000000
v -187.500000 31.250000 37.500000
v 12.500000 31.250000 37.500000
v -187.500000 31.250000 37.500000
v 12.500000 31.250000 37.500000
v -187.500000 68.750000 37.500000
v 12.500000 68.750000 37.500000
v -187.500000 68.750000 37.500000
v 12.500000 68.750000 37.500000
v -187.500000 68.750000 25.000000
v 12.500000 68.750000 25.000000
v -187.500000 68.750000 25.000000
v 12.500000 68.750000 25.000000
v -187.500000 31.250000 25.000000
v 12.500000 31.250000 25.000000
v 212.500000 31.250000 25.000000
v 212.500000 68.750000 25.000000
v 212.500000 31.250000 37.500000
v 212.500000 68.750000 37.500000
v -187.500000 68.750000 25.000000
v -187.500000 31.250000 25.000000
v -187.500000 68.750000 37.500000
v -187.500000 31.250000 37.500000
v -87.500000 -150.000000 12.500000
v -87.500000 150.000000 12.500000
v -87.500000 -150.000000 25.000000
v -87.500000 150.000000 25.000000
v -87.500000 -150.000000 25.000000
v -87.500000 150.000000 25.000000
v -112.500000 -150.000000 25.000000
v -112.500000 150.000000 25.000000
v -112.500000 -150.000000 25.000000
v -112.500000 150.000000 25.000000
v -112.500000 -150.000000 12.500000
v -112.500000 150.000000 12.500000
v -112.500000 -150.000000 12.500000
v -112.500000 150.000000 12.500000
v -87.500000 -150.000000 12.500000
v -87.500000 150.000000 12.500000
v -87.500000 150.000000 12.500000
v -112.500000 150.000000 12.500000
v -87.500000 150.000000 25.000000
v -112.500000 150.000000 25.000000
v -112.500000 -150.000000 12.500000
v -87.500000 -150.000000 12.500000
v -112.500000 -150.000000 25.000000
v -87.500000 -150.000000 25.000000
v -200.000000 -150.000000 25.000000
v 0.000000 -150.000000 25.000000
v -200.000000 -150.000000 37.500000
v 0.000000 -150.000000 37.500000
v -200.000000 -150.000000 37.500000
v 0.000000 -150.000000 37.500000
v -200.000000 -112.500000 37.500000
v 0.000000 -112.500000 37.500000
v -200.000000 -112.500000 37.500000
v 0.000000 -112.500000 37.500000
v -200.000000 -112.500000 25.000000
v 0.000000 -112.500000 25.000000
v -200.000000 -112.500000 25.000000
v 0.000000 -112.500000 25.000000
v -200.000000 -150.000000 25.000000
v 0.000000 -150.000000 25.000000
v 200.000000 -150.000000 25.000000
v 200.000000 -112.500000 25.000000
v 200.000000 -150.000000 37.500000
v 200.000000 -112.500000 37.500000
v -200.000000 -112.500000 25.000000
v -200.000000 -150.000000 25.000000
v -200.000000 -112.500000 37.500000
v -200.000000 -150.000000 37.500000
v 112.500000 -150.000000 12.500000
v 112.500000 150.000000 12.500000
v 112.500000 -150.000000 25.000000
v 112.500000 150.000000 25.000000
v 112.500000 -150.000000 25.000000
v 112.500000 150.000000 25.000000
v 87.500000 -150.000000 25.000000
v 87.500000 150.000000 25.000000
v 87.500000 -150.000000 25.000000
v 87.500000 150.000000 25.000000
v 87.500000 -150.000000 12.500000
v 87.500000 150.000000 12.500000
v 87.500000 -150.000000 12.500000
v 87.500000 150.000000 12.500000
v 112.500000 -150.000000 12.500000
v 112.500000 150.000000 12.500000
v 112.500000 150.000000 12.500000
v 87.500000 150.000000 12.500000
v 112.500000 150.000000 25.000000
v 87.500000 150.000000 25.000000
v 87.500000 -150.000000 12.500000
v 112.500000 -150.000000 12.500000
v 87.500000 -150.000000 25.000000
v 112.500000 -150.000000 25.000000
v -225.000000 -12.500001 0.000000
v 225.000000 -12.499999 0.000000
v -225.000000 -12.499999 12.500000
v 225.000000 -12.499999 12.500000
v -225.000000 -12.499999 12.500000
v 225.000000 -12.499999 12.500000
v -225.000000 12.499999 12.500000
v 225.000000 12.499999 12.500000
v -225.000000 12.499999 12.500000
v 225.000000 12.499999 12.500000
v -225.000000 12.500001 0.000000
v 225.000000 12.499999 0.000000
v -225.000000 12.500001 0.000000
v 225.000000 12.499999 0.000000
v -225.000000 -12.500001 0.000000
v 225.000000 -12.499999 0.000000
v 225.000000 -12.499999 0.000000
v 225.000000 12.499999 0.000000
v 225.000000 -12.499999 12.500000
v 225.000000 12.499999 12.500000
v -225.000000 12.500001 0.000000
v -225.000000 -12.500001 0.000000
v -225.000000 12.499999 12.500000
v -225.000000 -12.499999 12.500000
v -225.000000 -112.500000 0.000000
v 225.000000 -112.500000 0.000000
v -225.000000 -112.500000 12.500000
v 225.000000 -112.500000 12.500000
v -225.000000 -112.500000 12.500000
v 225.000000 -112.500000 12.500000
v -225.000000 -87.500000 12.500000
v 225.000000 -87.500000 12.500000
v -225.000000 -87.500000 12.500000
v 225.000000 -87.500000 12.500000
v -225.000000 -87.500000 0.000000
v 225.000000 -87.500000 0.000000
v -225.000000 -87.500000 0.000000
v 225.000000 -87.500000 0.000000
v -225.000000 -112.500000 0.000000
v 225.000000 -112.500000 0.000000
v 225.000000 -112.500000 0.000000
v 225.000000 -87.500000 0.000000
v 225.000000 -112.500000 12.500000
v 225.000000 -87.500000 12.500000
v -225.000000 -87.500000 0.000000
v -225.000000 -112.500000 0.000000
v -225.000000 -87.500000 12.500000
v -225.000000 -112.500000 12.500000
v 193.750000 150.000000 37.500000
v 193.750000 150.000000 25.000000
v 193.750000 112.500000 25.000000
v 193.750000 150.000000 25.000000
v 193.750000 112.500000 37.500000
v 193.750000 112.500000 25.000000
v 193.750000 150.000000 37.500000
v 193.750000 112.500000 37.500000
v -200.000000 105.491577 37.500000
v -200.000000 74.241577 37.500000
v -200.000000 74.241577 25.000000
v -200.000000 74.241577 37.500000
v -200.000000 105.491577 25.000000
v -200.000000 74.241577 25.000000
v -200.000000 105.491577 37.500000
v -200.000000 105.491577 25.000000
v 212.500000 68.750000 37.500000
v 212.500000 68.750000 25.000000
v 212.500000 31.250000 25.000000
v 212.500000 68.750000 25.000000
v 212.500000 31.250000 37.500000
v 212.500000 31.250000 25.000000
v 212.500000 68.750000 37.500000
v 212.500000 31.250000 37.500000
v -200.000000 18.750000 37.500000
v -200.000000 -18.749998 37.500000
v -200.000000 -18.749998 25.000000
v -200.000000 -18.749998 37.500000
v -200.000000 18.750000 25.000000
v -200.000000 -18.749998 25.000000
v -200.000000 18.750000 37.500000
v -200.000000 18.750000 25.000000
v -206.250000 -25.000002 37.500000
v -206.250000 -62.500000 37.500000
v -206.250000 -62.500000 25.000000
v -206.250000 -62.500000 37.500000
v -206.250000 -25.000002 25.000000
v -206.250000 -62.500000 25.000000
v -206.250000 -25.000002 37.500000
v -206.250000 -25.000002 25.000000
v -200.000000 -68.750000 37.500000
v -200.000000 -106.250000 37.500000
v -200.000000 -106.250000 25.000000
v -200.000000 -106.250000 37.500000
v -200.000000 -68.750000 25.000000
v -200.000000 -106.250000 25.000000
v -200.000000 -68.750000 37.500000
v -200.000000 -68.750000 25.000000
v 200.000000 -112.500000 37.500000
v 200.000000 -112.500000 25.000000
v 200.000000 -150.000000 25.000000
v 200.000000 -112.500000 25.000000
v 200.000000 -150.000000 37.500000
v 200.000000 -150.000000 25.000000
v 200.000000 -112.500000 37.500000
v 200.000000 -150.000000 37.500000
vn -0.0000 1.0000 -0.0000
vn -0.0000 -0.0000 1.0000
vn -0.0000 -1.0000 -0.0000
vn -0.0000 -0.0000 -1.0000
vn -1.0000 -0.0000 -0.0000
vn 1.0000 -0.0000 -0.0000
vn 0.0001 1.0000 -0.0000
vn 0.0001 -1.0000 -0.0000
vt 0.680176 0.513916
vt 0.680176 0.472656
vt 0.694336 0.472656
vt 0.694336 0.513916
vt 0.687500 0.416992
vt 0.687500 0.458496
vt 0.465088 0.458496
vt 0.465088 0.416992
vt 0.680176 0.152832
vt 0.347168 0.152832
vt 0.347168 0.139160
vt 0.680176 0.139160
vt 0.513672 0.236328
vt 0.013885 0.236328
vt 0.013885 0.208496
vt 0.513672 0.208496
vt 0.236084 0.736328
vt 0.013885 0.736328
vt 0.013885 0.694580
vt 0.236084 0.694580
vt 0.013885 0.166992
vt 0.013885 0.194824
vt 0.000031 0.194824
vt 0.000031 0.166992
vt 0.236084 0.951416
vt 0.013885 0.951416
vt 0.013885 0.916687
vt 0.236084 0.916687
vt 0.680176 0.527832
vt 0.458252 0.527832
vt 0.458252 0.513916
vt 0.243286 0.250000
vt 0.013885 0.250000
vt 0.243286 0.236328
vt 0.513672 0.194824
vt 0.687500 0.736328
vt 0.687500 0.694580
vt 0.701172 0.694580
vt 0.701172 0.736328
vt 0.000031 0.736328
vt 0.000031 0.694580
vt 0.513672 0.166992
vt 0.013885 0.152832
vt 0.513672 0.152832
vt 0.236084 0.965302
vt 0.013885 0.965302
vt 0.236084 0.583496
vt 0.013885 0.583496
vt 0.013885 0.569580
vt 0.236084 0.569580
vt 0.680176 0.951416
vt 0.458252 0.951416
vt 0.458252 0.916687
vt 0.680176 0.916687
vt 0.680176 0.097656
vt 0.347168 0.097656
vt 0.347168 0.069824
vt 0.680176 0.069824
vt 0.701172 0.305664
vt 0.701172 0.347656
vt 0.472168 0.347656
vt 0.472168 0.305664
vt 0.013885 0.902832
vt 0.236084 0.902832
vt 0.701172 0.291992
vt 0.472168 0.291992
vt 0.472168 0.250000
vt 0.701172 0.250000
vt 0.013885 0.291992
vt 0.000031 0.291992
vt 0.000031 0.250000
vt 0.013885 0.361328
vt 0.013885 0.402832
vt 0.000031 0.402832
vt 0.000031 0.361328
vt 0.236084 0.402832
vt 0.236084 0.361328
vt 0.687500 0.402832
vt 0.687500 0.361328
vt 0.701172 0.361328
vt 0.701172 0.402832
vt 0.680176 0.111328
vt 0.347168 0.111328
vt 0.236084 0.750000
vt 0.013885 0.750000
vt 0.694336 0.111328
vt 0.694336 0.139160
vt 0.229126 0.805664
vt 0.013885 0.805664
vt 0.013885 0.791748
vt 0.229126 0.791748
vt 0.013885 0.347656
vt 0.236084 0.347656
vt 0.236084 0.458496
vt 0.013885 0.458496
vt 0.013885 0.416992
vt 0.236084 0.416992
vt 0.694336 0.916687
vt 0.694336 0.951416
vt 0.236084 0.527832
vt 0.013885 0.527832
vt 0.013885 0.513916
vt 0.236084 0.513916
vt 0.229126 0.902832
vt 0.013885 0.861206
vt 0.229126 0.861206
vt 0.236084 0.638916
vt 0.013885 0.638916
vt 0.013885 0.625000
vt 0.236084 0.625000
vt 0.666504 0.861206
vt 0.666504 0.902832
vt 0.451172 0.902832
vt 0.451172 0.861206
vt 0.680176 0.638916
vt 0.680176 0.680664
vt 0.458252 0.680664
vt 0.458252 0.638916
vt 0.229126 0.847290
vt 0.013885 0.847290
vt 0.680176 0.625000
vt 0.680176 0.583496
vt 0.694336 0.583496
vt 0.694336 0.625000
vt 0.451172 0.847290
vt 0.666504 0.847290
vt 0.333252 0.139160
vt 0.333252 0.111328
vt 0.687500 0.347656
vt 0.465088 0.361328
vt 0.465088 0.347656
vt 0.680176 0.458496
vt 0.458252 0.472656
vt 0.458252 0.458496
vt 0.714844 0.250000
vt 0.714844 0.291992
vt 0.013885 0.680664
vt 0.236084 0.680664
vt 0.687500 0.750000
vt 0.465088 0.750000
vt 0.465088 0.736328
vt 0.013885 0.472656
vt 0.236084 0.472656
vt 0.527344 0.166992
vt 0.527344 0.194824
vt 0.236084 0.791748
vt 0.243286 0.305664
vt 0.013885 0.305664
vt 0.243286 0.291992
vt 0.666504 0.805664
vt 0.451172 0.805664
vt 0.243286 0.347656
vt -0.000031 0.847290
vt -0.000031 0.805664
vt 0.458252 0.625000
vt 0.000031 0.951416
vt 0.000031 0.916687
vt 0.236084 0.999969
vt 0.013885 0.999969
vt 0.666504 0.791748
vt 0.451172 0.791748
vt 0.680176 0.965302
vt 0.458252 0.965302
vt 0.680176 0.902832
vt 0.458252 0.902832
vt 0.680176 0.999969
vt 0.458252 0.999969
vt 0.701172 0.236328
vt 0.472168 0.236328
vt 0.680176 0.569580
vt 0.458252 0.583496
vt 0.458252 0.569580
vt 0.000031 0.625000
vt 0.000031 0.583496
vt 0.465088 0.402832
vt 0.000031 0.513916
vt 0.000031 0.472656
vt 0.687500 0.680664
vt 0.465088 0.694580
vt 0.465088 0.680664
vt 0.687500 0.791748
vt 0.465088 0.791748
vt 0.680176 0.805664
vt 0.680176 0.847290
s 1
usemtl MI_BridgeWide_rotten
f 68/1/5 67/2/5 65/3/5 66/4/5
f 318/5/4 317/6/4 16/7/4 14/8/4
f 180/9/5 179/10/5 177/11/5 178/12/5
f 256/13/4 255/14/4 253/15/4 254/16/4
f 200/17/2 199/18/2 197/19/2 198/20/2
f 120/21/5 119/22/5 117/23/5 118/24/5
f 128/25/2 127/26/2 125/27/2 126/28/2
f 332/1/3 331/29/3 60/30/3 58/31/3
f 76/32/7 75/33/7 73/14/7 74/34/7
f 108/16/1 107/15/1 105/22/1 106/35/1
f 212/36/6 211/37/6 209/38/6 210/39/6
f 216/19/5 215/18/5 213/40/5 214/41/5
f 104/35/2 103/22/2 101/21/2 102/42/2
f 100/42/3 99/21/3 97/43/3 98/44/3
f 276/16/1 275/15/1 273/22/1 274/35/1
f 132/45/3 131/46/3 129/26/3 130/25/3
f 148/47/3 147/48/3 145/49/3 146/50/3
f 298/51/2 128/52/2 126/53/2 297/54/2
f 184/55/4 183/56/4 181/57/4 182/58/4
f 326/59/4 325/60/4 88/61/4 86/62/4
f 124/28/1 123/27/1 121/63/1 122/64/1
f 322/65/2 80/66/2 78/67/2 321/68/2
f 96/33/6 95/69/6 93/70/6 94/71/6
f 24/72/6 23/73/6 21/74/6 22/75/6
f 8/76/2 7/73/2 5/72/2 6/77/2
f 20/78/5 19/79/5 17/80/5 18/81/5
f 268/42/3 267/21/3 265/43/3 266/44/3
f 220/82/6 219/83/6 217/56/6 218/55/6
f 204/84/1 203/85/1 201/18/1 202/17/1
f 188/12/1 187/82/1 185/86/1 186/87/1
f 28/88/3 27/89/3 25/90/3 26/91/3
f 4/77/1 3/72/1 1/92/1 2/93/1
f 16/94/4 15/95/4 13/96/4 14/97/4
f 140/51/5 139/54/5 137/98/5 138/99/5
f 60/100/3 59/101/3 57/102/3 58/103/3
f 248/35/2 247/22/2 245/21/2 246/42/2
f 40/104/4 39/63/4 37/105/4 38/106/4
f 156/107/1 155/108/1 153/109/1 154/110/1
f 12/97/3 11/96/3 9/73/3 10/76/3
f 292/111/4 291/112/4 40/113/4 38/114/4
f 308/115/4 307/116/4 160/117/4 158/118/4
f 172/82/6 171/83/6 169/56/6 170/55/6
f 32/119/2 31/120/2 29/89/2 30/88/2
f 164/121/6 163/122/6 161/123/6 162/124/6
f 36/106/1 35/105/1 33/120/1 34/119/1
f 290/111/1 36/114/1 34/125/1 289/126/1
f 240/83/3 239/11/3 237/127/3 238/128/3
f 320/129/1 319/79/1 4/130/1 2/131/1
f 336/132/1 335/2/1 52/133/1 50/134/1
f 92/65/5 91/68/5 89/135/5 90/136/5
f 196/20/3 195/19/3 193/137/3 194/138/3
f 338/139/1 204/140/1 202/141/1 337/36/1
f 56/103/2 55/102/2 53/142/2 54/143/2
f 52/143/1 51/142/1 49/95/1 50/94/1
f 116/35/6 115/42/6 113/144/6 114/145/6
f 208/146/4 207/90/4 205/85/4 206/84/4
f 112/13/4 111/14/4 109/15/4 110/16/4
f 224/12/2 223/11/2 221/83/2 222/82/2
f 244/42/3 243/21/3 241/43/3 242/44/3
f 192/83/3 191/11/3 189/127/3 190/128/3
f 252/16/1 251/15/1 249/22/1 250/35/1
f 260/35/6 259/42/6 257/144/6 258/145/6
f 264/21/5 263/22/5 261/23/5 262/24/5
f 84/147/8 83/148/8 81/69/8 82/149/8
f 296/150/2 295/126/2 32/125/2 30/151/2
f 88/152/4 87/92/4 85/148/4 86/147/4
f 48/89/5 47/120/5 45/153/5 46/154/5
f 306/115/1 156/118/1 154/155/1 305/121/1
f 64/50/4 63/49/4 61/101/4 62/100/4
f 144/27/6 143/26/6 141/156/6 142/157/6
f 228/9/5 227/10/5 225/11/5 226/12/5
f 280/13/4 279/14/4 277/15/4 278/16/4
f 136/158/4 135/159/4 133/46/4 134/45/4
f 288/21/5 287/22/5 285/23/5 286/24/5
f 330/1/2 56/31/2 54/133/2 329/2/2
f 284/35/6 283/42/6 281/144/6 282/145/6
f 272/35/2 271/22/2 269/21/2 270/42/2
f 160/138/4 159/137/4 157/108/4 158/107/4
f 294/160/3 293/150/3 28/151/3 26/161/3
f 300/51/3 299/162/3 132/163/3 130/52/3
f 152/110/2 151/109/2 149/48/2 150/47/2
f 304/164/1 303/54/1 124/53/1 122/165/1
f 302/162/4 301/166/4 136/167/4 134/163/4
f 328/168/7 327/68/7 76/67/7 74/169/7
f 310/170/3 309/122/3 148/171/3 146/172/3
f 176/12/2 175/11/2 173/83/2 174/82/2
f 168/48/5 167/109/5 165/173/5 166/174/5
f 316/78/3 315/5/3 12/8/3 10/175/3
f 80/149/2 79/69/2 77/33/2 78/32/2
f 314/78/2 8/175/2 6/130/2 313/79/2
f 232/55/4 231/56/4 229/57/4 230/58/4
f 312/122/2 311/121/2 152/155/2 150/171/2
f 72/142/6 71/102/6 69/176/6 70/177/6
f 324/65/8 323/59/8 84/62/8 82/66/8
f 334/29/4 333/170/4 64/172/4 62/30/4
f 342/178/3 341/37/3 196/179/3 194/180/3
f 236/12/1 235/82/1 233/86/1 234/87/1
f 340/139/4 339/181/4 208/182/4 206/140/4
f 44/126/6 43/150/6 41/183/6 42/184/6
f 344/37/2 343/36/2 200/141/2 198/179/2
