# Blender 5.0.1
# www.blender.org
mtllib BP_BannerCloth.mtl
o SM_Banner1_Cloth.001
v 0.000122 150.000000 -0.000031
v -99.999878 150.000000 0.000000
v -99.999878 100.000000 0.000000
v 0.000122 100.000000 -0.000031
v -99.999878 50.000000 0.000000
v 0.000122 50.000000 -0.000031
v 0.000122 -50.000000 -0.000031
v -99.999878 -50.000000 0.000000
v -99.999878 -100.000000 0.000000
v 0.000122 -100.000000 -0.000031
v -99.999878 -150.000000 0.000000
v 0.000122 -150.000000 -0.000031
v 0.000000 150.000000 -100.000031
v 0.000122 150.000000 -0.000031
v 0.000122 100.000000 -0.000031
v 0.000000 100.000000 -100.000031
v 0.000122 50.000000 -0.000031
v 0.000000 50.000000 -100.000031
v 0.000000 -50.000000 -100.000031
v 0.000122 -50.000000 -0.000031
v 0.000122 -100.000000 -0.000031
v 0.000000 -100.000000 -100.000031
v 0.000122 -150.000000 -0.000031
v 0.000000 -150.000000 -100.000031
v -99.999878 -200.000000 -100.000000
v -99.999878 -200.000000 -150.000015
v -99.999878 -250.000000 -100.000000
v -99.999878 -250.000000 -150.000031
v -99.999878 -200.000000 -200.000015
v -99.999878 -250.000000 -200.000015
v -99.999870 -250.000000 -249.999985
v -99.999878 -200.000000 -250.000000
v -99.999878 -250.000000 -300.000000
v -99.999878 -200.000000 -300.000000
v -99.999878 -150.000015 -250.000000
v -99.999878 -150.000015 -300.000000
v -99.999878 -100.000000 -250.000000
v -99.999878 -100.000000 -300.000000
v -99.999878 -50.000000 -250.000000
v -99.999878 -50.000000 -300.000000
v -99.999878 0.000000 -250.000000
v -99.999878 0.000000 -300.000000
v -99.999878 50.000000 -250.000000
v -99.999878 50.000000 -300.000000
v -99.999878 100.000000 -250.000000
v -99.999870 100.000000 -300.000000
v -99.999878 150.000000 -250.000000
v -99.999863 150.000000 -300.000000
v -99.999870 200.000000 -300.000000
v -99.999878 200.000000 -250.000000
v -99.999878 250.000000 -300.000000
v -99.999878 250.000000 -249.999985
v -99.999878 200.000000 -199.999985
v -99.999878 250.000000 -199.999969
v -99.999878 200.000000 -150.000015
v -99.999878 250.000000 -150.000015
v -99.999878 250.000000 -100.000000
v -99.999878 200.000000 -100.000000
v 0.000000 150.000000 -100.000031
v -99.999878 100.000000 -100.000000
v -99.999878 150.000000 -100.000000
v 0.000000 100.000000 -100.000031
v 0.000000 50.000000 -100.000031
v -99.999878 50.000000 -100.000000
v 0.000000 -50.000000 -100.000031
v -99.999878 -100.000000 -100.000000
v -99.999878 -50.000000 -100.000000
v 0.000000 -100.000000 -100.000031
v 0.000000 -150.000000 -100.000031
v -99.999878 -150.000000 -100.000000
v -99.999878 -150.000000 -100.000000
v -99.999878 -150.000000 0.000000
v -99.999878 -100.000000 0.000000
v -99.999878 -100.000000 -100.000000
v -99.999878 -50.000000 0.000000
v -99.999878 -50.000000 -100.000000
v -99.999878 -99.999992 -150.000000
v -99.999878 -150.000000 -150.000015
v -99.999878 -99.999992 -200.000000
v -99.999878 -150.000000 -200.000015
v -99.999878 -50.000000 -150.000015
v -99.999878 -50.000000 -200.000015
v -99.999878 0.000000 -100.000000
v -99.999878 0.000000 -200.000000
v -99.999878 0.000000 -150.000015
v -99.999878 50.000000 -200.000000
v -99.999878 50.000000 -100.000000
v -99.999878 50.000000 -150.000015
v -99.999878 100.000000 -200.000000
v -99.999878 50.000000 0.000000
v -99.999878 100.000000 0.000000
v -99.999878 100.000000 -150.000000
v -99.999878 150.000000 -150.000015
v -99.999878 150.000000 -200.000000
v -99.999878 150.000000 -100.000000
v -99.999878 100.000000 -100.000000
v -99.999878 150.000000 0.000000
vn -0.0000 -0.0000 1.0000
vn 1.0000 -0.0000 -0.0000
vn -1.0000 -0.0000 -0.0000
vn -0.0000 -0.0000 -1.0000
vt 0.156250 0.999969
vt 0.156250 0.937500
vt 0.187500 0.937500
vt 0.187500 0.999969
vt 0.125000 0.999969
vt 0.125000 0.937500
vt 0.093750 0.999969
vt 0.093750 0.937500
vt 0.218750 0.937500
vt 0.218750 0.999969
vt 0.250000 0.937500
vt 0.250000 0.906250
vt 0.281250 0.906250
vt 0.281250 0.937500
vt 0.187500 0.812500
vt 0.218750 0.812500
vt 0.218750 0.843750
vt 0.187500 0.843750
vt 0.187500 0.968750
vt 0.125000 0.968750
vt 0.218750 0.875000
vt 0.187500 0.875000
vt 0.250000 0.875000
vt 0.250000 0.843750
vt 0.281250 0.843750
vt 0.281250 0.875000
vt 0.218750 0.906250
vt 0.031250 0.843750
vt -0.000031 0.843750
vt -0.000031 0.812500
vt 0.031250 0.812500
vt 0.062500 0.999969
vt 0.062500 0.937500
vt 0.093750 0.843750
vt 0.125000 0.843750
vt 0.125000 0.875000
vt 0.093750 0.875000
vt 0.062500 0.843750
vt 0.062500 0.812500
vt 0.093750 0.812500
vt 0.125000 0.812500
vt 0.156250 0.906250
vt 0.156250 0.875000
vt 0.187500 0.906250
vt 0.312500 0.843750
vt 0.312500 0.875000
vt 0.093750 0.906250
vt 0.062500 0.906250
vt 0.062500 0.875000
vt 0.250000 0.812500
vt 0.281250 0.812500
vt 0.156250 0.812500
vt 0.156250 0.843750
vt 0.312500 0.812500
vt 0.031250 0.875000
vt -0.000031 0.875000
vt 0.031250 0.906250
vt 0.031250 0.937500
vt -0.000031 0.937500
vt -0.000031 0.906250
vt 0.125000 0.906250
vt 0.250000 0.999969
vt 0.312500 0.906250
vt 0.312500 0.937500
s 1
usemtl MI_Building_Roof_003_Torn
f 21/1/2 22/2/2 19/3/2 20/4/2
f 17/5/2 18/6/2 16/2/2 15/1/2
f 91/7/3 96/8/3 87/6/3 90/5/3
f 75/4/3 76/3/3 74/9/3 73/10/3
f 40/15/3 38/16/3 37/17/3 39/18/3
f 12/3/1 10/19/1 9/20/1 11/6/1
f 63/6/4 64/3/4 60/19/4 62/20/4
f 77/27/3 79/21/3 80/23/3 78/12/3
f 50/28/3 52/29/3 51/30/3 49/31/3
f 68/20/4 66/19/4 67/4/4 65/5/4
f 4/19/1 1/4/1 2/5/1 3/20/1
f 97/32/3 95/33/3 96/8/3 91/7/3
f 47/38/3 50/28/3 49/31/3 48/39/3
f 46/40/3 44/41/3 43/35/3 45/34/3
f 85/42/3 84/43/3 82/22/3 81/44/3
f 32/25/3 31/45/3 30/46/3 29/26/3
f 82/22/3 79/21/3 77/27/3 81/44/3
f 92/47/3 93/48/3 94/49/3 89/37/3
f 6/3/1 4/19/1 3/20/1 5/6/1
f 38/16/3 36/50/3 35/24/3 37/17/3
f 36/50/3 34/51/3 32/25/3 35/24/3
f 48/39/3 46/40/3 45/34/3 47/38/3
f 23/5/2 24/6/2 22/2/2 21/1/2
f 44/41/3 42/52/3 41/53/3 43/35/3
f 42/52/3 40/15/3 39/18/3 41/53/3
f 34/51/3 33/54/3 31/45/3 32/25/3
f 53/55/3 54/56/3 52/29/3 50/28/3
f 55/57/3 58/58/3 57/59/3 56/60/3
f 87/6/3 88/61/3 85/42/3 83/2/3
f 96/8/3 92/47/3 88/61/3 87/6/3
f 85/42/3 88/61/3 86/36/3 84/43/3
f 55/57/3 56/60/3 54/56/3 53/55/3
f 10/19/1 7/4/1 8/5/1 9/20/1
f 83/2/3 85/42/3 81/44/3 76/3/3
f 73/10/3 74/9/3 71/11/3 72/62/3
f 92/47/3 89/37/3 86/36/3 88/61/3
f 76/3/3 81/44/3 77/27/3 74/9/3
f 78/12/3 71/11/3 74/9/3 77/27/3
f 30/46/3 28/63/3 26/13/3 29/26/3
f 62/20/4 60/19/4 61/4/4 59/5/4
f 69/6/4 70/3/4 66/19/4 68/20/4
f 28/63/3 27/64/3 25/14/3 26/13/3
f 92/47/3 96/8/3 95/33/3 93/48/3
f 15/1/2 16/2/2 13/3/2 14/4/2
usemtl MI_Building_Roof_006
f 71/11/3 78/12/3 26/13/3 25/14/3
f 39/18/3 37/17/3 79/21/3 82/22/3
f 80/23/3 35/24/3 32/25/3 29/26/3
f 29/26/3 26/13/3 78/12/3 80/23/3
f 45/34/3 43/35/3 86/36/3 89/37/3
f 79/21/3 37/17/3 35/24/3 80/23/3
f 93/48/3 55/57/3 53/55/3 94/49/3
f 89/37/3 94/49/3 47/38/3 45/34/3
f 94/49/3 53/55/3 50/28/3 47/38/3
f 84/43/3 41/53/3 39/18/3 82/22/3
f 84/43/3 86/36/3 43/35/3 41/53/3
f 93/48/3 95/33/3 58/58/3 55/57/3
