# Blender 5.0.1
# www.blender.org
mtllib BP_BubbleColumn_Weeds_NoBase.mtl
o SM_Bubble_Column_Weeds_NoBase.001
v -125.000069 137.500092 50.076786
v -125.000053 137.500076 0.076777
v -125.000069 112.500069 50.076809
v -125.000053 112.500069 0.076777
v -75.000038 87.500046 50.076809
v -75.000023 87.500046 0.076777
v -75.000038 62.500065 50.076801
v -75.000023 62.500034 0.076790
v 87.500046 125.000069 50.076832
v 62.500034 125.000076 0.076775
v 87.500046 125.000076 0.076775
v 62.500034 125.000069 50.076832
v 87.500046 125.000122 100.076828
v 62.500034 125.000122 100.076828
v 87.500046 125.000114 150.076920
v 62.500034 125.000114 150.076920
v 112.500061 100.000000 50.076847
v 87.500046 100.000069 0.076790
v 112.500061 100.000069 0.076790
v 87.500046 100.000000 50.076847
v 112.500061 100.000053 100.076836
v 87.500046 100.000053 100.076836
v 112.500061 100.000046 150.076920
v 87.500046 100.000046 150.076920
v 112.500061 100.000038 200.076950
v 87.500046 100.000038 200.076950
v 112.500061 99.999985 250.077011
v 87.500046 99.999985 250.077011
v 137.500076 75.000038 50.076771
v 112.500061 75.000046 0.076775
v 137.500076 75.000046 0.076775
v 112.500061 75.000038 50.076771
v 137.500076 75.000092 100.076828
v 112.500061 75.000092 100.076828
v 137.500076 75.000084 150.076859
v 112.500061 75.000084 150.076859
v 75.000031 87.499985 50.076767
v 75.000023 62.500004 0.076775
v 75.000023 87.500046 0.076729
v 75.000031 62.500034 50.076771
v 75.000038 87.500046 100.076767
v 75.000038 62.500004 100.076828
v 75.000046 87.500046 150.076859
v 75.000046 62.500034 150.076859
v 75.000053 87.499992 200.076889
v 75.000053 62.500004 200.076889
v 125.000061 137.500076 50.076778
v 125.000053 112.500061 0.076782
v 125.000053 137.500076 0.076752
v 125.000061 112.500061 50.076809
v 125.000069 137.500076 100.076805
v 125.000069 112.500122 100.076805
v -87.500046 -74.999969 150.076859
v -87.500046 -74.999954 100.076836
v -62.500034 -74.999985 150.076859
v -62.500034 -74.999969 100.076836
v -87.500031 -75.000000 50.076832
v -62.500019 -75.000015 50.076839
v -62.500034 -75.000015 0.076782
v -87.500046 -75.000000 0.076782
v -87.500046 -100.000008 0.076798
v -112.500061 -100.000069 50.076786
v -112.500061 -100.000008 0.076782
v -87.500046 -100.000069 50.076801
v -112.500061 -100.000008 100.076851
v -87.500046 -100.000023 100.076851
v -87.500046 -100.000038 150.076813
v -112.500061 -100.000038 150.076813
v -112.500061 -100.000023 200.076843
v -87.500046 -100.000023 200.076874
v -112.500061 -100.000092 250.076904
v -87.500046 -100.000092 250.076904
v -112.500061 -74.999992 50.076805
v -137.500076 -74.999992 0.076790
v -112.500061 -74.999992 0.076790
v -137.500076 -74.999992 50.076813
v -112.500061 -74.999947 100.076805
v -137.500076 -74.999947 100.076805
v -75.000038 -112.500023 50.076778
v -75.000038 -137.500015 0.076775
v -75.000038 -112.500015 0.076782
v -75.000038 -137.500046 50.076809
v -75.000038 -112.499977 100.076836
v -75.000038 -137.500061 100.076836
v -75.000023 -137.500031 150.076782
v -75.000023 -112.499977 150.076782
v -112.500061 100.000046 50.076805
v -87.500046 100.000038 0.076775
v -112.500061 100.000038 0.076775
v -87.500046 100.000046 50.076809
v -112.500061 100.000114 100.076805
v -87.500046 100.000114 100.076805
v 87.500046 -100.000053 50.076805
v 112.500061 -100.000084 0.076775
v 87.500046 -100.000084 0.076775
v 112.500061 -100.000053 50.076809
v 87.500046 -99.999992 100.076859
v 112.500061 -99.999992 100.076859
v -125.000076 -112.500122 50.076767
v -125.000084 -137.500076 0.076775
v -125.000084 -112.500061 0.076775
v -125.000076 -137.500076 50.076801
v -125.000069 -112.500061 100.076828
v -125.000069 -137.500076 100.076828
v -125.000061 -112.500061 150.076782
v -125.000061 -137.500198 150.076782
v -125.000053 -112.500114 200.076813
v -125.000053 -137.500076 200.076813
v 50.000027 50.000019 6.249948
v -50.000027 50.000019 6.249948
v -50.000027 -50.000034 6.249949
v 50.000027 -50.000034 6.249948
v 50.000019 -50.000027 50.000027
v -50.000019 -50.000027 50.000027
v -50.000027 -150.000076 50.000027
v 50.000027 -150.000076 50.000027
v 150.000046 50.000027 50.000027
v 50.000019 50.000027 50.000027
v 150.000046 -50.000027 50.000027
v -50.000019 150.000076 50.000027
v 50.000034 150.000076 50.000027
v -50.000011 50.000027 50.000027
v -150.000046 50.000027 50.000027
v -150.000046 -50.000027 50.000027
v 50.000027 -150.000076 50.000027
v -50.000027 -150.000076 50.000027
v -50.000027 -150.000076 12.500015
v 50.000027 -150.000076 12.500014
v 150.000046 50.000027 50.000027
v 150.000046 -50.000027 50.000027
v 150.000046 -50.000027 12.500014
v 150.000046 50.000027 12.500014
v -50.000019 150.000076 50.000027
v 50.000034 150.000076 50.000027
v 50.000031 150.000076 12.500014
v -50.000023 150.000076 12.500014
v -150.000046 50.000027 50.000027
v -150.000046 -50.000027 12.500015
v -150.000046 -50.000027 50.000027
v -150.000046 50.000027 12.500014
v -50.000027 -150.000076 -0.000000
v 50.000027 -150.000076 -0.000000
v 150.000046 50.000027 0.000000
v 150.000046 -50.000027 -0.000000
v -50.000023 150.000076 0.000000
v 50.000031 150.000076 0.000000
v -150.000046 -50.000027 -0.000000
v -150.000046 50.000027 0.000000
v 50.000019 -50.000027 50.000027
v 50.000019 50.000027 50.000027
v 50.000027 50.000019 12.500013
v 50.000027 -50.000034 12.500013
v 50.000027 50.000019 6.249948
v 50.000027 -50.000034 6.249948
v 150.000046 -50.000027 50.000027
v 50.000019 -50.000027 50.000027
v 50.000019 -50.000027 12.500015
v 150.000046 -50.000027 12.500014
v 50.000019 -50.000027 -0.000000
v 150.000046 -50.000027 -0.000000
v 50.000019 50.000027 50.000027
v 150.000046 50.000027 50.000027
v 150.000046 50.000027 12.500014
v 50.000019 50.000027 12.500012
v 150.000046 50.000027 0.000000
v 50.000019 50.000027 0.000000
v -50.000019 -50.000027 50.000027
v -50.000027 50.000019 12.500013
v -50.000011 50.000027 50.000027
v -50.000027 -50.000031 12.500012
v -50.000027 50.000019 6.249948
v -50.000027 -50.000034 6.249949
v 50.000019 -50.000027 -0.000000
v 50.000027 -150.000076 12.500014
v 50.000027 -150.000076 -0.000000
v 50.000019 -50.000027 12.500015
v 50.000027 -150.000076 50.000027
v 50.000019 -50.000027 50.000027
v 50.000031 150.000076 0.000000
v 50.000019 50.000027 12.500012
v 50.000019 50.000027 0.000000
v 50.000031 150.000076 12.500014
v 50.000019 50.000027 50.000027
v 50.000034 150.000076 50.000027
v -50.000011 50.000027 12.500012
v -50.000023 150.000076 0.000000
v -50.000011 50.000027 0.000000
v -50.000023 150.000076 12.500014
v -50.000011 50.000027 50.000027
v -50.000019 150.000076 50.000027
v -150.000046 50.000027 0.000000
v -50.000011 50.000027 12.500012
v -50.000011 50.000027 0.000000
v -150.000046 50.000027 12.500014
v -50.000011 50.000027 50.000027
v -150.000046 50.000027 50.000027
v -50.000019 -50.000027 50.000027
v 50.000019 -50.000027 50.000027
v 50.000027 -50.000034 12.500013
v -50.000027 -50.000031 12.500012
v -50.000027 -50.000034 6.249949
v 50.000027 -50.000034 6.249948
v -50.000011 50.000027 50.000027
v 50.000027 50.000019 12.500013
v 50.000019 50.000027 50.000027
v -50.000027 50.000019 12.500013
v -50.000027 50.000019 6.249948
v 50.000027 50.000019 6.249948
v -50.000027 -150.000076 -0.000000
v -50.000019 -50.000027 12.500015
v -50.000019 -50.000027 -0.000000
v -50.000027 -150.000076 12.500015
v -50.000027 -150.000076 50.000027
v -50.000019 -50.000027 50.000027
v -50.000019 -50.000027 -0.000000
v -150.000046 -50.000027 12.500015
v -150.000046 -50.000027 -0.000000
v -50.000019 -50.000027 12.500015
v -50.000019 -50.000027 50.000027
v -150.000046 -50.000027 50.000027
vn -1.0000 -0.0000 -0.0000
vn -0.0000 -1.0000 -0.0000
vn 1.0000 -0.0000 -0.0000
vn -0.0000 1.0000 -0.0000
vn -0.0000 -0.0000 1.0000
vt 0.099976 0.000000
vt 0.199951 0.000000
vt 0.199951 0.200195
vt 0.099976 0.200195
vt 0.099976 0.400391
vt -0.000031 0.400391
vt -0.000031 0.200195
vt 0.299805 0.800049
vt 0.199951 0.800049
vt 0.199951 0.600098
vt 0.299805 0.600098
vt 0.324951 0.900024
vt 0.299805 0.900024
vt 0.299805 0.700195
vt 0.324951 0.700195
vt 0.612305 0.400391
vt 0.625000 0.400391
vt 0.625000 0.600098
vt 0.612305 0.600098
vt 0.299805 0.300293
vt 0.299805 0.100098
vt 0.324951 0.100098
vt 0.324951 0.300293
vt 0.599609 0.900024
vt 0.599609 0.700195
vt 0.674805 0.700195
vt 0.674805 0.900024
vt 0.599609 0.400391
vt 0.599609 0.600098
vt 0.399902 0.600098
vt 0.399902 0.400391
vt 0.674805 0.300293
vt 0.674805 0.100098
vt 0.699707 0.100098
vt 0.699707 0.300293
vt 0.099976 0.800049
vt -0.000031 0.800049
vt -0.000031 0.600098
vt 0.099976 0.600098
vt 0.000031 0.000000
vt 0.299805 0.999969
vt 0.199951 0.999969
vt 0.599609 0.100098
vt 0.599609 0.300293
vt 0.399902 0.300293
vt 0.399902 0.100098
vt 0.399902 0.625000
vt 0.599609 0.625000
vt 0.399902 0.700195
vt 0.299805 0.400391
vt 0.199951 0.400391
vt 0.299805 0.200195
vt 0.399902 0.200195
vt 0.399902 0.000000
vt 0.299805 0.000000
vt 0.399902 0.975006
vt 0.399902 0.900024
vt 0.599609 0.975006
vt 0.387451 0.400391
vt 0.387451 0.600098
vt 0.375000 0.600098
vt 0.374756 0.400391
vt 0.399902 0.375000
vt 0.599609 0.375000
vt 0.699707 0.700195
vt 0.699707 0.675049
vt 0.899902 0.675049
vt 0.899902 0.700195
vt 0.024994 0.600098
vt 0.024994 0.400391
vt 0.974609 0.600098
vt 0.899902 0.600098
vt 0.899902 0.400391
vt 0.974609 0.400391
vt 0.699707 0.600098
vt 0.699707 0.400391
vt 0.899902 0.300293
vt 0.899902 0.325195
vt 0.699707 0.325195
vt 0.599609 0.387695
vt 0.399902 0.387695
vt 0.599609 0.025391
vt 0.399902 0.025391
vt 0.699707 0.900024
vt 0.599609 0.612549
vt 0.399902 0.612549
vt 0.299805 0.675049
vt 0.099976 0.675049
vt 0.099976 0.700195
vt 0.299805 0.325195
vt 0.099976 0.325195
vt 0.099976 0.300293
s 1
usemtl MI_Bubble_Weed
f 60/1/2 59/2/2 58/3/2 57/4/2
f 103/5/3 104/6/3 102/7/3 99/4/3
f 25/8/2 26/9/2 24/10/2 23/11/2
f 9/3/2 12/4/2 10/1/2 11/2/2
f 29/3/2 32/4/2 30/1/2 31/2/2
f 107/36/3 108/37/3 106/38/3 105/39/3
f 37/4/3 40/7/3 38/40/3 39/1/3
f 41/5/3 42/6/3 40/7/3 37/4/3
f 79/3/3 82/4/3 80/1/3 81/2/3
f 99/4/3 102/7/3 100/40/3 101/1/3
f 72/41/2 71/42/2 69/9/2 70/8/2
f 66/50/2 65/51/2 62/3/2 64/52/2
f 51/31/3 52/50/3 50/52/3 47/53/3
f 70/8/2 69/9/2 68/10/2 67/11/2
f 4/54/1 3/53/1 1/52/1 2/55/1
f 64/52/2 62/3/2 63/2/2 61/55/2
f 8/54/1 7/53/1 5/52/1 6/55/1
f 105/39/3 106/38/3 104/6/3 103/5/3
f 45/36/3 46/37/3 44/38/3 43/39/3
f 87/53/4 90/52/4 88/55/4 89/54/4
f 93/53/4 96/52/4 94/55/4 95/54/4
f 97/31/4 98/50/4 96/52/4 93/53/4
f 43/39/3 44/38/3 42/6/3 41/5/3
f 83/51/3 84/5/3 82/4/3 79/3/3
f 47/53/3 50/52/3 48/55/3 49/54/3
f 35/10/2 36/39/2 34/5/2 33/51/2
f 77/31/2 78/50/2 76/52/2 73/53/2
f 23/11/2 24/10/2 22/51/2 21/50/2
f 73/53/2 76/52/2 74/55/2 75/54/2
f 27/41/2 28/42/2 26/9/2 25/8/2
f 21/50/2 22/51/2 20/3/2 17/52/2
f 33/51/2 34/5/2 32/4/2 29/3/2
f 58/3/2 56/51/2 54/5/2 57/4/2
f 56/51/2 55/10/2 53/39/2 54/5/2
f 15/10/2 16/39/2 14/5/2 13/51/2
f 91/31/4 92/50/4 90/52/4 87/53/4
f 86/10/3 85/39/3 84/5/3 83/51/3
f 17/52/2 20/3/2 18/2/2 19/55/2
f 67/11/2 68/10/2 65/51/2 66/50/2
f 13/51/2 14/5/2 12/4/2 9/3/2
usemtl MI_Bubble_Column
f 188/12/1 186/13/1 187/14/1 185/15/1
f 154/16/1 152/17/1 151/18/1 153/19/1
f 146/20/4 145/21/4 136/22/4 135/23/4
f 184/24/3 183/25/3 180/26/3 182/27/3
f 112/28/5 109/29/5 110/30/5 111/31/5
f 148/20/1 147/21/1 138/22/1 140/23/1
f 144/20/3 143/21/3 132/22/3 131/23/3
f 176/32/3 174/33/3 175/34/3 173/35/3
f 116/43/5 113/44/5 114/45/5 115/46/5
f 206/47/2 204/48/2 205/25/2 203/49/2
f 136/56/4 133/57/4 134/24/4 135/58/4
f 122/49/5 118/25/5 121/24/5 120/57/5
f 172/59/3 171/60/3 168/61/3 170/62/3
f 200/63/4 197/45/4 198/44/4 199/64/4
f 127/23/2 141/20/2 142/21/2 128/22/2
f 166/65/4 164/66/4 163/67/4 165/68/4
f 140/69/1 138/70/1 139/5/1 137/39/1
f 132/71/3 129/72/3 130/73/3 131/74/3
f 119/73/5 117/72/5 118/75/5 113/76/5
f 164/66/4 161/75/4 162/72/4 163/67/4
f 160/77/2 158/78/2 157/79/2 159/35/2
f 158/78/2 155/73/2 156/76/2 157/79/2
f 202/80/4 201/81/4 200/63/4 199/64/4
f 128/82/2 125/43/2 126/46/2 127/83/2
f 212/22/1 210/23/1 211/20/1 209/21/1
f 182/27/3 180/26/3 181/65/3 179/84/3
f 178/44/3 177/43/3 174/33/3 176/32/3
f 208/85/2 204/48/2 206/47/2 207/86/2
f 190/57/1 188/12/1 185/15/1 189/49/1
f 124/5/5 114/50/5 122/11/5 123/39/5
f 152/17/1 149/76/1 150/75/1 151/18/1
f 170/62/3 168/61/3 169/11/3 167/50/3
f 196/39/4 195/11/4 192/87/4 194/88/4
f 194/88/4 192/87/4 193/14/4 191/89/4
f 214/45/1 210/23/1 212/22/1 213/46/1
f 218/90/2 216/91/2 217/92/2 215/20/2
f 219/50/2 220/5/2 216/91/2 218/90/2
