# Blender 5.0.1
# www.blender.org
mtllib BP_BlockingDoor_DT_Runedoor.mtl
o SM_DT_Runedoor1.001
v 0.000069 -100.000000 100.000000
v -99.999931 -100.000069 100.000000
v -99.999931 -100.000069 0.000000
v 0.000069 -100.000000 0.000000
v 0.000069 -100.000000 200.000000
v 0.000000 0.000000 200.000000
v -99.999931 -100.000069 200.000000
v -100.000000 -0.000069 200.000000
v -199.999939 -100.000137 100.000000
v -199.999939 -100.000137 0.000000
v -199.999939 -100.000137 200.000000
v -200.000000 -0.000137 200.000000
v -299.999939 -100.000214 100.000000
v -299.999939 -100.000214 0.000000
v -299.999939 -100.000214 200.000000
v -300.000000 -0.000214 200.000000
v 100.000069 -99.999924 200.000000
v 99.999992 0.000076 200.000000
v 100.000069 -99.999924 100.000000
v 100.000069 -99.999924 0.000000
v 0.000000 0.000000 150.000000
v -0.000076 100.000008 150.000000
v -100.000000 -0.000069 150.000000
v -100.000076 99.999931 150.000000
v -200.000000 -0.000137 150.000000
v -200.000076 99.999855 150.000000
v -200.000076 99.999855 200.000000
v -300.000061 99.999794 200.000000
v 99.999931 100.000069 200.000000
v -0.000076 100.000008 200.000000
v -0.000145 200.000000 150.000000
v -100.000145 199.999939 150.000000
v -200.000153 199.999878 150.000000
v -200.000153 199.999878 200.000000
v -300.000153 199.999786 200.000000
v 99.999855 200.000092 200.000000
v -0.000145 200.000000 200.000000
v -0.000221 300.000000 150.000000
v -100.000221 299.999939 150.000000
v -200.000214 299.999878 150.000000
v -200.000214 299.999878 200.000000
v -300.000214 299.999786 200.000000
v 99.999779 300.000092 200.000000
v -0.000221 300.000000 200.000000
v -0.000290 400.000000 200.000000
v -100.000221 299.999939 200.000000
v -100.000290 399.999939 200.000000
v -200.000290 399.999878 200.000000
v -300.000275 399.999786 200.000000
v 99.999718 400.000092 200.000000
v 0.000069 -100.000000 200.000000
v -99.999931 -100.000069 200.000000
v -199.999939 -100.000137 200.000000
v -299.999939 -100.000214 200.000000
v 100.000069 -99.999924 200.000000
v 0.000000 0.000000 150.000000
v -100.000000 -0.000069 150.000000
v -100.000000 -0.000069 200.000000
v 0.000000 0.000000 200.000000
v -0.000076 100.000008 150.000000
v 0.000000 0.000000 150.000000
v 0.000000 0.000000 200.000000
v -0.000076 100.000008 200.000000
v -200.000000 -0.000137 150.000000
v -200.000000 -0.000137 200.000000
v -200.000000 -0.000137 150.000000
v -200.000076 99.999855 200.000000
v -200.000000 -0.000137 200.000000
v -200.000076 99.999855 150.000000
v -0.000145 200.000000 150.000000
v -0.000145 200.000000 200.000000
v -200.000153 199.999878 200.000000
v -200.000153 199.999878 150.000000
v -0.000221 300.000000 150.000000
v -0.000221 300.000000 200.000000
v -0.000221 300.000000 200.000000
v -100.000221 299.999939 200.000000
v -100.000221 299.999939 150.000000
v -0.000221 300.000000 150.000000
v -200.000214 299.999878 200.000000
v -200.000214 299.999878 150.000000
v -200.000214 299.999878 200.000000
v -200.000214 299.999878 150.000000
vn -0.0000 -1.0000 -0.0000
vn -0.0000 -0.0000 1.0000
vn -0.0000 1.0000 -0.0000
vn -1.0000 -0.0000 -0.0000
vn 1.0000 -0.0000 -0.0000
vt 0.499756 0.000488
vt 0.499756 0.500000
vt -0.000031 0.500000
vt 0.000031 0.000488
vt 0.499756 0.000000
vt 0.000031 0.000000
vt 0.500000 0.250488
vt 0.500000 0.500000
vt -0.000031 0.500000
vt -0.000031 0.250488
vt 0.500000 0.000000
vt 0.000031 0.500000
vt 0.000031 0.000000
vt 0.999512 0.000000
vt 0.999512 0.500000
vt 0.500000 0.500244
vt 1.000000 0.500244
vt 0.999512 0.999969
vt 0.500000 0.999969
vt 1.000000 0.999969
vt 0.500000 0.999969
vt 0.000031 0.500000
vt 0.999512 0.000488
vt 0.999512 0.500244
vt 0.500000 0.000488
vt 0.000031 0.000488
vt 0.499756 0.500244
vt 0.000031 0.500244
vt -0.000031 0.500244
vt 0.000031 0.000000
vt -0.000031 0.500244
vt -0.000031 0.250000
vt 0.499756 0.250000
vt 0.000031 0.500244
vt 0.000031 0.000488
vt -0.000031 0.000000
vt 0.000031 0.250000
vt 0.499756 0.250488
vt 0.000031 0.250488
s 1
usemtl MI_DT_Trap_Crusher
f 9/1/1 53/2/1 54/3/1 13/4/1
f 42/5/2 35/2/2 34/3/2 41/6/2
f 73/7/5 72/8/5 67/9/5 69/10/5
f 48/11/2 41/2/2 46/12/2 47/13/2
f 49/5/2 42/2/2 41/3/2 48/6/2
f 28/1/2 16/2/2 12/3/2 27/6/2
f 26/14/2 25/15/2 23/8/2 24/11/2
f 24/14/2 23/15/2 21/8/2 22/11/2
f 10/16/1 3/17/1 2/18/1 9/19/1
f 4/17/1 1/20/1 2/21/1 3/16/1
f 8/1/2 7/2/2 5/22/2 6/6/2
f 32/23/2 24/24/2 22/16/2 31/25/2
f 14/16/1 10/17/1 9/20/1 13/21/1
f 44/25/2 37/2/2 36/12/2 43/26/2
f 37/25/2 30/27/2 29/28/2 36/26/2
f 7/12/2 8/13/2 12/25/2 11/2/2
f 19/11/1 55/27/1 51/29/1 1/30/1
f 71/27/4 75/31/4 74/32/4 70/33/4
f 1/21/1 4/16/1 20/17/1 19/20/1
f 40/14/2 33/24/2 32/16/2 39/11/2
f 79/33/1 76/2/1 77/9/1 78/32/1
f 18/13/2 6/11/2 5/2/2 17/12/2
f 11/3/2 12/6/2 16/1/2 15/2/2
f 33/23/2 26/24/2 24/16/2 32/25/2
f 47/1/2 46/27/2 44/34/2 45/35/2
f 45/11/2 44/2/2 43/12/2 50/13/2
f 30/11/2 6/2/2 18/12/2 29/13/2
f 2/1/1 52/2/1 53/3/1 9/36/1
f 1/5/1 51/27/1 52/29/1 2/36/1
f 78/33/1 77/2/1 80/12/1 81/37/1
f 39/14/2 32/24/2 31/16/2 38/11/2
f 59/38/3 56/27/3 57/31/3 58/10/3
f 58/38/3 57/27/3 64/28/3 65/39/3
f 63/27/4 71/31/4 70/32/4 60/33/4
f 69/38/5 67/2/5 68/12/5 66/37/5
f 62/2/4 63/12/4 60/37/4 61/33/4
f 35/1/2 28/27/2 27/29/2 34/6/2
f 83/33/5 82/2/5 72/12/5 73/37/5
