# Blender 5.0.1
# www.blender.org
mtllib BP_Bottle.mtl
o SM_Bottle.001
v 15.625001 -15.625000 43.750004
v -15.625001 -15.625000 43.750004
v -15.625001 -15.625000 0.000000
v 15.625001 -15.625000 0.000000
v 9.375000 -9.375000 62.500004
v 9.375000 9.375000 62.500004
v -9.375000 -9.375000 62.500004
v -9.375000 9.375000 62.500004
v 15.625001 15.625001 -0.000000
v -15.625001 15.625001 -0.000000
v -15.625000 15.625001 43.750004
v 15.625000 15.625001 43.750004
v 15.625001 -15.625000 0.000000
v -15.625001 -15.625000 0.000000
v -15.625001 15.625001 -0.000000
v 15.625001 15.625001 -0.000000
v 15.625001 -15.625000 43.750004
v 15.625001 -15.625000 0.000000
v 15.625000 15.625001 43.750004
v 15.625001 15.625001 -0.000000
v -15.625001 -15.625000 43.750004
v -15.625001 15.625001 -0.000000
v -15.625001 -15.625000 0.000000
v -15.625000 15.625001 43.750004
v 9.375000 -9.375000 62.500004
v -9.375000 -9.375000 62.500004
v -9.375000 -9.375000 43.750004
v 9.375000 -9.375000 43.750004
v 9.375000 -9.375000 62.500004
v 9.375000 -9.375000 43.750004
v 9.375000 9.375000 62.500004
v 9.375000 9.375000 43.750004
v -9.375000 9.375000 43.750004
v -9.375000 9.375000 62.500004
v 9.375000 9.375000 43.750004
v 9.375000 9.375000 62.500004
v -9.375000 -9.375000 62.500004
v -9.375000 9.375000 43.750004
v -9.375000 -9.375000 43.750004
v -9.375000 9.375000 62.500004
v -15.625001 -15.625000 43.750004
v 9.375000 -9.375000 43.750004
v -9.375000 -9.375000 43.750004
v -9.375000 9.375000 43.750004
v 15.625001 -15.625000 43.750004
v -15.625000 15.625001 43.750004
v 9.375000 9.375000 43.750004
v 15.625000 15.625001 43.750004
vn -0.0000 -1.0000 -0.0000
vn -0.0000 -0.0000 1.0000
vn -0.0000 1.0000 -0.0000
vn -0.0000 -0.0000 -1.0000
vn 1.0000 -0.0000 -0.0000
vn -1.0000 -0.0000 -0.0000
vt 0.312500 0.562500
vt 0.625000 0.562500
vt 0.625000 0.999969
vt 0.312500 0.999969
vt 0.812500 0.625000
vt 1.000000 0.625000
vt 1.000000 0.812500
vt 0.812500 0.812500
vt 0.000031 0.562500
vt 0.000031 0.250000
vt 0.312500 0.250000
vt 0.000031 0.999969
vt 0.812500 0.999969
vt 0.625000 0.812500
vt 0.625000 0.625000
vt 0.375000 0.312500
vt 0.562500 0.312500
vt 0.375000 0.500000
vt 0.625000 0.250000
vt 0.562500 0.500000
s 1
usemtl MI_Bottle
f 18/1/5 20/2/5 19/3/5 17/4/5
f 30/5/5 32/6/5 31/7/5 29/8/5
f 16/9/4 13/10/4 14/11/4 15/1/4
f 4/1/1 1/4/1 2/12/1 3/9/1
f 8/8/2 7/13/2 5/3/2 6/14/2
f 36/14/3 35/15/3 33/5/3 34/8/3
f 24/4/6 22/1/6 23/2/6 21/3/6
f 28/5/1 25/8/1 26/14/1 27/15/1
f 12/12/3 9/9/3 10/1/3 11/4/3
f 43/16/2 41/11/2 42/17/2
f 43/16/2 44/18/2 41/11/2
f 42/17/2 41/11/2 45/19/2
f 46/1/2 41/11/2 44/18/2
f 42/17/2 45/19/2 47/20/2
f 44/18/2 48/2/2 46/1/2
f 47/20/2 45/19/2 48/2/2
f 47/20/2 48/2/2 44/18/2
f 40/8/6 38/5/6 39/6/6 37/7/6
