# Blender 5.0.1
# www.blender.org
mtllib BP_Broom.mtl
o SM_Broom.001
v 34.375000 -9.664454 50.000000
v -34.375000 -9.664454 50.000000
v -34.374996 -9.664455 0.000002
v 34.375000 -9.664455 0.000002
v -34.375000 -9.664454 50.000000
v 34.375000 -9.664454 50.000000
v 34.375000 9.664450 50.000000
v -34.375000 9.664450 50.000000
v -34.374996 9.664449 0.000002
v 34.375000 9.664450 50.000000
v 34.375000 9.664449 0.000002
v -34.375000 9.664450 50.000000
v 34.375000 -9.664455 0.000002
v -34.374996 -9.664455 0.000002
v -34.374996 9.664449 0.000002
v 34.375000 9.664449 0.000002
v 34.375000 -9.664454 50.000000
v 34.375000 -9.664455 0.000002
v 34.375000 9.664449 0.000002
v 34.375000 9.664450 50.000000
v -34.375000 -9.664454 50.000000
v -34.374996 9.664449 0.000002
v -34.374996 -9.664455 0.000002
v -34.375000 9.664450 50.000000
v -3.125000 -3.193409 200.000015
v -3.125000 -3.193402 49.999989
v 3.125000 -3.193409 200.000015
v 3.125000 -3.193402 49.999989
v 3.125000 -3.193409 200.000015
v 3.125000 3.056591 200.000015
v -3.125000 -3.193409 200.000015
v -3.125000 3.056591 200.000015
v -3.125000 3.056598 49.999989
v -3.125000 3.056591 200.000015
v 3.125000 3.056598 49.999989
v 3.125000 3.056591 200.000015
v 3.125000 3.056598 49.999989
v 3.125000 3.056591 200.000015
v 3.125000 -3.193402 49.999989
v 3.125000 -3.193409 200.000015
v -3.125000 -3.193409 200.000015
v -3.125000 3.056598 49.999989
v -3.125000 -3.193402 49.999989
v -3.125000 3.056591 200.000015
vn -0.0000 -1.0000 -0.0000
vn -0.0000 -0.0000 1.0000
vn -0.0000 1.0000 -0.0000
vn -0.0000 -0.0000 -1.0000
vn 1.0000 -0.0000 -0.0000
vn -1.0000 -0.0000 -0.0000
vt 0.437500 0.250000
vt 0.343750 0.250000
vt 0.343750 0.000000
vt 0.437500 0.000000
vt 0.000031 0.250000
vt 0.093750 0.250000
vt 0.093750 0.593750
vt 0.000031 0.593750
vt 0.343750 0.593750
vt 0.781250 0.750000
vt 0.750000 0.750000
vt 0.750000 0.000000
vt 0.781250 0.000000
vt 0.437500 0.593750
vt 0.687500 0.250000
vt 0.687500 0.593750
vt 0.437500 0.843750
vt 0.343750 0.843750
vt 0.718750 0.750000
vt 0.718750 0.000000
vt 0.812500 0.000000
vt 0.812500 0.750000
vt 0.718750 0.781250
vt 0.750000 0.781250
vt 0.687500 0.750000
vt 0.687500 0.000000
s 1
usemtl MI_Broom
f 20/1/5 17/2/5 18/3/5 19/4/5
f 16/5/4 13/6/4 14/7/4 15/8/4
f 4/6/1 1/2/1 2/9/1 3/7/1
f 38/10/5 40/11/5 39/12/5 37/13/5
f 12/14/3 10/1/3 11/15/3 9/16/3
f 24/14/6 22/17/6 23/18/6 21/9/6
f 8/14/2 5/9/2 6/2/2 7/1/2
f 28/12/1 27/11/1 25/19/1 26/20/1
f 36/10/3 35/13/3 33/21/3 34/22/3
f 32/23/2 31/19/2 29/11/2 30/24/2
f 44/25/6 42/26/6 43/20/6 41/19/6
