# Blender 5.0.1
# www.blender.org
mtllib BP_Bucket.mtl
o SM_Bucket.001
v 25.000000 -25.000000 56.250000
v -25.000000 -25.000000 56.250000
v -25.000000 -25.000000 0.000000
v 25.000000 -25.000000 0.000000
v 18.749998 -18.749998 6.249994
v 18.749998 18.749998 6.249994
v -18.749998 -18.749998 6.249994
v -18.749998 18.749998 6.249994
v 25.000000 25.000000 -0.000000
v -25.000000 25.000000 -0.000000
v -25.000000 25.000000 56.250000
v 25.000000 25.000000 56.250000
v 25.000000 -25.000000 0.000000
v -25.000000 -25.000000 0.000000
v -25.000000 25.000000 -0.000000
v 25.000000 25.000000 -0.000000
v 25.000000 -25.000000 56.250000
v 25.000000 -25.000000 0.000000
v 25.000000 25.000000 56.250000
v 25.000000 25.000000 -0.000000
v -25.000000 -25.000000 56.250000
v -25.000000 25.000000 -0.000000
v -25.000000 -25.000000 0.000000
v -25.000000 25.000000 56.250000
v 18.749998 -18.749998 6.249994
v -18.749998 -18.749998 6.249994
v -18.749998 -18.749998 56.250000
v 18.749998 -18.749998 56.250000
v 18.749998 -18.749998 6.249994
v 18.749998 -18.749998 56.250000
v 18.749998 18.749998 6.249994
v 18.749998 18.749998 56.250000
v -18.749998 18.749998 56.250000
v -18.749998 18.749998 6.249994
v 18.749998 18.749998 56.250000
v 18.749998 18.749998 6.249994
v -18.749998 -18.749998 6.249994
v -18.749998 18.749998 56.250000
v -18.749998 -18.749998 56.250000
v -18.749998 18.749998 6.249994
v -25.000000 -25.000000 56.250000
v 25.000000 -25.000000 56.250000
v 18.749998 -18.749998 56.250000
v -18.749998 -18.749998 56.250000
v 25.000000 25.000000 56.250000
v 18.749998 18.749998 56.250000
v -25.000000 25.000000 56.250000
v -18.749998 18.749998 56.250000
vn -0.0000 -1.0000 -0.0000
vn -0.0000 -0.0000 1.0000
vn -0.0000 1.0000 -0.0000
vn -0.0000 -0.0000 -1.0000
vn 1.0000 -0.0000 -0.0000
vn -1.0000 -0.0000 -0.0000
vt 0.250000 0.000000
vt 0.500000 0.000000
vt 0.500000 0.281250
vt 0.250000 0.281250
vt 0.187500 0.562500
vt 0.000031 0.562500
vt 0.000031 0.312500
vt 0.187500 0.312500
vt 0.750000 0.000000
vt 0.750000 0.250000
vt 0.500000 0.250000
vt 0.000031 0.281250
vt 0.000031 0.000000
vt 0.687500 0.437500
vt 0.500000 0.437500
vt 0.687500 0.250000
vt 0.375000 0.312500
vt 0.375000 0.562500
vt 0.218750 0.312500
vt 0.031250 0.312500
vt 0.468750 0.312500
vt 0.281250 0.312500
s 1
usemtl MI_Buckets
f 18/1/5 20/2/5 19/3/5 17/4/5
f 30/5/6 32/6/6 31/7/6 29/8/6
f 16/9/4 13/10/4 14/11/4 15/2/4
f 4/1/1 1/4/1 2/12/1 3/13/1
f 8/14/2 7/15/2 5/11/2 6/16/2
f 36/17/1 35/18/1 33/5/1 34/8/1
f 24/4/6 22/1/6 23/2/6 21/3/6
f 28/5/3 25/8/3 26/17/3 27/18/3
f 12/12/3 9/13/3 10/1/3 11/4/3
f 43/19/2 41/12/2 42/4/2
f 44/20/2 41/12/2 43/19/2
f 46/21/2 42/4/2 45/3/2
f 43/22/2 42/4/2 46/21/2
f 48/19/2 45/12/2 47/4/2
f 46/20/2 45/12/2 48/19/2
f 44/21/2 47/4/2 41/3/2
f 48/22/2 47/4/2 44/21/2
f 40/8/5 38/5/5 39/6/5 37/7/5
