# Blender 5.0.1
# www.blender.org
mtllib BP_Button_AM_Walkway.mtl
o SM_IceButton_button.001
v 37.500000 -37.499996 25.000011
v -37.500000 -37.499996 25.000011
v -37.500000 37.500004 24.999989
v 37.500000 37.500004 24.999989
v -37.500000 37.500004 24.999989
v -37.500000 -37.499989 37.500015
v -37.500000 37.500011 37.499985
v -37.500000 -37.499996 25.000011
v 37.500000 37.500011 37.499985
v -37.500000 37.500011 37.499985
v -37.500000 -37.499989 37.500015
v 37.500000 -37.499989 37.500015
v -37.500000 -37.499996 25.000011
v 37.500000 -37.499996 25.000011
v -37.500000 -37.499989 37.500015
v 37.500000 -37.499989 37.500015
v 37.500000 -37.499996 25.000011
v 37.500000 37.500004 24.999989
v 37.500000 -37.499989 37.500015
v 37.500000 37.500011 37.499985
v 37.500000 37.500004 24.999989
v -37.500000 37.500004 24.999989
v 37.500000 37.500011 37.499985
v -37.500000 37.500011 37.499985
vn -0.0000 -0.0000 -1.0000
vn -1.0000 -0.0000 -0.0000
vn -0.0000 -0.0000 1.0000
vn -0.0000 -1.0000 -0.0000
vn 1.0000 -0.0000 -0.0000
vn -0.0000 1.0000 -0.0000
vt 0.437500 0.562500
vt 0.437500 0.937500
vt 0.062500 0.937500
vt 0.062500 0.562500
vt 0.875000 0.562500
vt 0.875000 0.625000
vt 0.500000 0.625000
vt 0.500000 0.562500
vt 0.750000 0.999969
vt 0.500000 0.999969
vt 0.750000 0.625000
vt 0.750000 0.562500
vt 0.750000 0.750000
vt 0.500000 0.750000
s 1
usemtl MI_IceButton
f 12/1/3 9/2/3 10/3/3 11/4/3
f 18/5/5 20/6/5 19/7/5 17/8/5
f 14/5/4 16/6/4 15/7/4 13/8/4
f 8/5/2 6/6/2 7/7/2 5/8/2
f 4/9/1 1/10/1 2/7/1 3/11/1
f 22/12/6 24/13/6 23/14/6 21/8/6
