# Blender 5.0.1
# www.blender.org
mtllib BP_BrokenPortal__Nether03.mtl
o SM_BrokenPortal__nether03.001
v -101.538483 100.000061 199.999741
v -200.000000 100.000023 199.999741
v -200.000000 0.000037 199.999756
v -100.000000 0.000037 199.999756
v -0.000009 -299.999969 149.999817
v 0.000102 -399.999969 99.999779
v -0.000007 -300.000031 99.999825
v -0.000009 -299.999969 149.999817
v -0.000007 -399.999969 199.999817
v -0.000007 -299.999969 199.999817
v -200.000000 -300.000000 99.999809
v -300.000000 -300.000000 99.999809
v -300.000000 -399.999969 99.999817
v -200.000000 -399.999969 99.999817
v -100.000000 -300.000000 99.999809
v -99.999954 -400.000000 99.999779
v 99.999992 -300.000031 99.999817
v 0.000102 -399.999969 99.999779
v 100.000000 -399.999969 99.999817
v 200.000000 -300.000031 49.999802
v 99.999992 -300.000031 49.999790
v 100.000000 -400.000000 49.999805
v 200.000000 -400.000000 49.999817
v -300.000000 -200.000000 99.999771
v -200.000000 -199.999985 99.999771
v -100.000000 -199.999939 199.999786
v -200.000000 -199.999954 199.999786
v -200.000000 -299.999969 199.999802
v -100.000000 -300.000000 199.999802
v 200.000000 -200.000000 99.999771
v 99.999992 -199.999985 99.999802
v 99.999992 -300.000031 99.999817
v 200.000000 -300.000000 99.999809
v -200.000000 0.000021 99.999756
v -300.000000 0.000021 99.999756
v -300.000000 -99.999977 99.999771
v -200.000000 -99.999985 99.999771
v -100.000000 -99.999931 199.999771
v -200.000000 -99.999969 199.999771
v -0.000006 -99.999939 199.999786
v -0.000014 0.000070 199.999771
v 99.999992 0.000014 99.999771
v 200.000000 -99.999985 99.999771
v 200.000000 0.000021 99.999756
v 100.000000 -99.999992 99.999786
v 299.999969 -99.999992 49.999767
v 200.000000 -99.999992 49.999763
v 200.000000 -199.999985 49.999786
v 299.999969 -200.000000 49.999786
v -200.000000 100.000008 99.999748
v -300.000000 100.000023 99.999748
v 200.000000 100.000008 99.999748
v 100.000000 100.000023 99.999756
v 200.000000 0.000005 49.999752
v 300.000031 -0.000001 49.999771
v -299.999969 200.000015 99.999733
v -200.000000 200.000137 99.999748
v -200.000000 200.000183 199.999741
v -100.000008 200.000153 199.999741
v 200.000015 199.999985 99.999733
v 100.000000 200.000015 99.999741
v -300.000000 300.000031 99.999710
v -200.000000 300.000031 99.999733
v -100.000000 300.000031 99.999748
v -100.000000 200.000076 99.999763
v 100.000000 300.000031 99.999710
v -0.000002 300.000031 99.999725
v -0.000002 200.000015 99.999763
v 200.000000 300.000000 49.999714
v 100.000000 300.000000 49.999702
v 99.999992 200.000015 49.999710
v 200.000015 199.999985 49.999718
v -200.000000 -399.999969 99.999817
v -300.000000 -399.999969 99.999817
v -300.000000 -400.000000 -0.000183
v -200.000000 -400.000000 -0.000183
v -199.999985 -499.999969 99.999817
v -200.000000 -399.999969 99.999817
v -200.000000 -400.000000 -0.000183
v -199.999985 -500.000000 -0.000181
v -200.000000 300.000031 99.999733
v -100.000000 300.000031 99.999748
v -100.000000 300.000000 -0.000278
v -200.000000 300.000000 -0.000278
v -300.000000 300.000031 99.999710
v -300.000000 300.000000 -0.000278
v -300.000000 300.000031 99.999710
v -299.999969 200.000000 -0.000261
v -299.999969 200.000015 99.999733
v -300.000000 300.000000 -0.000278
v -300.000000 100.000023 99.999748
v -300.000000 100.000008 -0.000264
v -300.000000 0.000021 99.999756
v -300.000000 0.000005 -0.000248
v -300.000000 -99.999977 99.999771
v -300.000000 -100.000000 -0.000232
v -300.000000 -200.000000 99.999771
v -300.000000 -300.000031 -0.000218
v -300.000000 -300.000000 99.999809
v -300.000000 -200.000000 -0.000215
v -300.000000 -400.000000 -0.000183
v -300.000000 -399.999969 99.999817
v -100.000000 -300.000000 199.999802
v -200.000000 -299.999969 199.999802
v -200.000000 -300.000000 99.999809
v -100.000000 -300.000000 99.999809
v -100.000008 200.000153 199.999741
v -200.000000 200.000137 99.999748
v -200.000000 200.000183 199.999741
v -100.000000 200.000076 99.999763
v -200.000000 100.000023 199.999741
v -200.000000 200.000183 199.999741
v -200.000000 200.000137 99.999748
v -200.000000 100.000008 99.999748
v -200.000000 0.000037 199.999756
v -200.000000 0.000021 99.999756
v -200.000000 -99.999969 199.999771
v -200.000000 -99.999985 99.999771
v -200.000000 -299.999969 199.999802
v -200.000000 -199.999954 199.999786
v -200.000000 -199.999985 99.999771
v -200.000000 -300.000000 99.999809
v 100.000000 -400.000000 49.999805
v 200.000000 -400.000000 -0.000183
v 200.000000 -400.000000 49.999817
v 100.000000 -400.000000 -0.000183
v 200.000000 -300.000031 49.999802
v 200.000000 -400.000000 49.999817
v 200.000000 -400.000000 -0.000183
v 200.000000 -300.000031 -0.000218
v 299.999969 -99.999992 49.999767
v 299.999969 -200.000000 49.999786
v 299.999969 -200.000015 -0.000215
v 299.999969 -100.000000 -0.000232
v 299.999969 -0.000029 -0.000248
v 300.000031 -0.000001 49.999771
v 200.000015 199.999985 49.999718
v 200.000000 300.000000 -0.000278
v 200.000000 300.000000 49.999714
v 200.000015 199.999969 -0.000261
v 100.000000 300.000000 49.999702
v 200.000000 300.000000 49.999714
v 200.000000 300.000000 -0.000278
v 100.000000 300.000000 -0.000278
v 0.000102 -399.999969 99.999779
v 100.000000 -399.999969 99.999817
v 0.000095 -400.000000 -0.000195
v 100.000000 300.000031 99.999710
v 0.000000 300.000000 -0.000278
v -0.000002 300.000031 99.999725
v -0.000007 -399.999969 199.999817
v -100.000000 -399.999969 199.999817
v -99.999954 -400.000000 99.999779
v -100.000015 0.000106 299.999756
v -100.000000 100.000099 299.999725
v -100.000000 100.000084 199.999756
v -100.000015 0.000090 199.999771
v -0.000024 0.000111 299.999756
v -100.000015 0.000106 299.999756
v -100.000015 0.000090 199.999771
v -0.000014 0.000070 199.999771
v -0.000024 0.000111 299.999756
v -0.000003 100.000069 199.999756
v -0.000014 100.000099 299.999725
v -0.000014 0.000070 199.999771
v -0.000024 100.000122 399.999725
v -100.000000 100.000099 299.999725
v -100.000015 100.000122 399.999725
v -0.000014 100.000099 299.999725
v -100.000038 0.000130 399.999756
v -100.000015 100.000122 399.999725
v -0.000033 0.000134 399.999756
v -100.000038 0.000130 399.999756
v -0.000033 0.000134 399.999756
v -0.000024 100.000122 399.999725
v -100.000000 -399.999969 199.999817
v -100.000000 -300.000000 99.999809
v -99.999954 -400.000000 99.999779
v -100.000000 -300.000000 199.999802
v 100.000000 -400.000000 49.999805
v 99.999992 -300.000031 99.999817
v 100.000000 -399.999969 99.999817
v 99.999992 -300.000031 49.999790
v 200.000000 -300.000000 99.999809
v 99.999992 -300.000031 99.999817
v 99.999992 -300.000031 49.999790
v 200.000000 -300.000031 49.999802
v 200.000015 199.999985 49.999718
v 100.000000 200.000015 99.999741
v 200.000015 199.999985 99.999733
v 99.999992 200.000015 49.999710
v 100.000000 300.000031 99.999710
v 100.000000 200.000015 99.999741
v 99.999992 200.000015 49.999710
v 100.000000 300.000000 49.999702
v -0.000007 -299.999969 199.999817
v -0.000005 -199.999939 199.999802
v 200.000000 0.000005 49.999752
v 300.000031 -0.000001 49.999771
v 299.999969 -0.000029 -0.000248
v 200.000000 -0.000014 -0.000248
v 299.999969 -200.000000 49.999786
v 200.000000 -199.999985 49.999786
v 200.000000 -200.000015 -0.000215
v 299.999969 -200.000015 -0.000215
v -0.000007 -399.999969 199.999817
v -100.000000 -399.999969 199.999817
v -100.000000 100.000160 499.999725
v -0.000014 100.000160 499.999725
v -100.000015 0.000103 499.999725
v -100.000000 100.000160 499.999725
v -100.000015 0.000103 499.999725
v -0.000024 0.000108 499.999725
v -0.000024 0.000108 499.999725
v -0.000014 100.000160 499.999725
v -99.999985 100.000191 599.999756
v 0.000005 100.000191 599.999756
v -99.999985 0.000191 599.999756
v -99.999985 100.000191 599.999756
v 0.000014 0.000191 599.999756
v 0.000005 100.000191 599.999756
v -99.999985 100.000191 599.999756
v -99.999985 0.000191 599.999756
v 0.000005 100.000191 599.999756
v 0.000014 0.000191 599.999756
v 99.999985 -199.999969 149.999802
v -0.000014 -199.999954 149.999802
v 99.999985 -300.000000 149.999832
v 99.999985 0.000015 149.999786
v -0.000014 0.000029 149.999771
v -0.000016 -99.999977 149.999786
v 99.999985 -100.000000 149.999786
v 99.999992 100.000000 149.999741
v -0.000006 100.000023 149.999741
v 99.999992 -199.999985 99.999802
v 99.999985 -199.999969 149.999802
v 99.999992 100.000000 149.999741
v 99.999985 0.000015 149.999786
v 99.999992 0.000014 99.999771
v 100.000000 100.000023 99.999756
v -0.000014 -199.999954 149.999802
v -0.000005 -199.999939 199.999802
v -0.000006 -99.999939 199.999786
v -0.000014 0.000029 149.999771
v -0.000016 -99.999977 149.999786
v -0.000006 100.000023 149.999741
v -99.999985 -99.999825 599.999756
v -100.000015 -99.999840 499.999725
v -99.999985 -99.999825 599.999756
v -0.000005 -99.999840 499.999725
v 0.000024 -99.999825 599.999756
v -100.000015 -99.999840 499.999725
v 0.000024 -99.999825 599.999756
v -0.000005 -99.999840 499.999725
v -99.999985 -99.999825 599.999756
v 0.000024 -99.999825 599.999756
v -0.000005 200.000031 199.999741
v -0.000003 100.000069 199.999756
v 100.000000 200.000031 199.999741
v 99.999992 100.000031 199.999710
v 100.000000 200.000031 199.999741
v -0.000002 200.000015 99.999763
v -0.000005 200.000031 199.999741
v 99.999992 100.000031 199.999710
v 100.000000 200.000031 199.999741
v -1.538496 100.000092 299.999725
v -101.538483 100.000061 199.999741
v -101.538483 100.000092 299.999725
v -0.000003 100.000069 199.999756
v -100.000015 100.000046 99.999756
v -0.000011 100.000031 99.999763
v -101.538483 100.000061 199.999741
v -100.000000 200.000076 99.999763
v -100.000008 200.000153 199.999741
v -100.000015 100.000046 99.999756
v -0.000005 200.000015 79.999779
v -100.000000 200.000015 79.999779
v -100.000000 100.000015 79.999794
v 0.000000 100.000015 79.999794
v -100.000000 100.000015 79.999794
v 0.000000 100.000015 79.999794
v -0.000011 100.000031 99.999763
v -0.000002 200.000015 99.999763
v -0.000005 200.000015 79.999779
v 0.000000 100.000015 79.999794
v -100.000000 200.000076 99.999763
v -0.000005 200.000015 79.999779
v -0.000002 200.000015 99.999763
v -100.000000 200.000015 79.999779
v -100.000000 200.000015 79.999779
v -100.000000 100.000015 79.999794
v 99.999992 100.000031 199.999710
v -0.000003 100.000069 199.999756
v -0.000006 100.000023 149.999741
v 99.999992 100.000000 149.999741
v 0.000063 -499.999969 99.999756
v -99.999924 -499.999969 99.999756
v -99.999924 -499.999969 99.999756
v 0.000063 -500.000000 -0.000240
v 0.000063 -499.999969 99.999756
v -99.999924 -500.000000 -0.000243
v -199.999985 -499.999969 99.999817
v -199.999985 -499.999969 99.999817
v -199.999985 -500.000000 -0.000181
v 0.000063 -499.999969 99.999756
v 0.000095 -400.000000 -0.000195
v 0.000063 -500.000000 -0.000240
v -100.000015 -99.999840 499.999725
v -0.000024 0.000108 499.999725
v -0.000005 -99.999840 499.999725
v -100.000015 0.000103 499.999725
v 200.000000 0.000021 99.999756
v 200.000000 100.000000 49.999741
v 200.000000 100.000008 99.999748
v 200.000000 0.000005 49.999752
v 200.000000 99.999962 -0.000264
v 200.000000 -0.000014 -0.000248
v 100.000000 -99.999992 99.999786
v 99.999985 -100.000000 149.999786
v 0.000002 150.000015 99.999748
v -0.000005 200.000031 199.999741
v -0.000003 100.000069 199.999756
v 200.000000 -200.000000 99.999771
v 200.000000 -300.000000 99.999809
v 200.000000 -199.999985 49.999786
v 200.000000 -200.000015 -0.000215
v 200.000000 -99.999985 99.999771
v 200.000000 -99.999992 49.999763
v 200.000015 199.999985 99.999733
v 1.676760 -99.999916 602.697998
v 1.676775 -99.999977 402.698181
v 1.676745 0.000106 602.697998
v 1.676760 0.000035 402.698151
v 1.677187 0.000098 602.697510
v -48.322781 -99.999901 602.697510
v 1.677202 -99.999901 602.697510
v -48.322796 0.000098 602.697510
v -100.984192 100.000206 602.506958
v -100.984207 100.000206 402.507080
v -100.984146 0.000182 602.506958
v -100.984161 0.000188 402.507111
v -100.984589 0.000190 602.506470
v -50.984653 100.000206 602.506470
v -100.984634 100.000191 602.506470
v -50.984608 0.000205 602.506470
vn -0.0000 -0.0000 1.0000
vn 0.4461 -0.6329 0.6329
vn 1.0000 -0.0000 -0.0000
vn 0.5774 -0.5773 0.5774
vn 0.5773 -0.5774 0.5774
vn -0.0000 -1.0000 -0.0000
vn -1.0000 -0.0000 -0.0000
vn -0.0000 1.0000 -0.0000
vn 0.5774 -0.5774 0.5774
vn 0.9999 -0.0077 0.0077
vn 1.0000 -0.0038 0.0038
vn -0.0000 -0.0000 -1.0000
vt 0.875000 0.875000
vt 1.000000 0.875000
vt 1.000000 0.999969
vt 0.875000 0.999969
vt 0.500000 0.500000
vt 0.500000 0.562500
vt 0.375000 0.500000
vt 0.375000 0.625000
vt 0.500000 0.625000
vt 0.250000 0.375000
vt 0.250000 0.500000
vt 0.125000 0.500000
vt 0.125000 0.375000
vt 0.875000 0.859375
vt 1.000000 0.859375
vt 0.625000 0.875000
vt 0.750000 0.875000
vt 0.750000 0.999969
vt 0.625000 0.999969
vt 1.000000 0.750000
vt 0.875000 0.750000
vt 0.375000 0.250000
vt 0.375000 0.187500
vt 0.500000 0.187500
vt 0.500000 0.250000
vt 0.250000 0.250000
vt 0.250000 0.125000
vt 0.375000 0.125000
vt 0.625000 0.750000
vt 0.750000 0.750000
vt 0.000031 0.375000
vt 0.000031 0.500000
vt 0.750000 0.375000
vt 0.500000 0.375000
vt 0.750000 0.250000
vt 0.750000 0.625000
vt 0.625000 0.625000
vt -0.000031 0.500000
vt 0.750000 0.812500
vt 0.875000 0.812500
vt 1.000000 0.000000
vt 1.000000 0.500000
vt 0.750000 0.500000
vt 0.750000 0.000000
vt -0.000031 0.375000
vt 0.250000 0.187500
vt 0.875000 0.625000
vt 1.000000 0.625000
vt 0.500000 0.125000
vt 1.000000 0.812500
vt 1.000000 0.687500
vt 0.875000 0.687500
vt 0.375000 0.375000
vt 1.000000 0.125000
vt 1.000000 0.250000
vt 0.875000 0.250000
vt 0.875000 0.125000
vt -0.000031 0.062500
vt 0.125000 0.062500
vt 0.125000 0.125000
vt -0.000031 0.125000
vt -0.000031 0.437500
vt 0.125000 0.437500
vt -0.000031 0.000000
vt 0.125000 0.000000
vt 0.000031 0.437500
vt 0.437500 0.500000
s 1
usemtl MI_PortalsNether
f 2/1/1 1/2/1 59/3/1 58/4/1
f 7/5/4 5/6/2 6/7/3
f 6/7/3 8/6/3 9/8/3
f 10/9/3 9/8/3 8/6/3
f 279/10/1 276/11/1 277/12/1 278/13/1
f 285/14/7 282/1/7 283/2/7 284/15/7
f 51/16/1 50/17/1 57/18/1 56/19/1
f 37/17/1 34/18/1 35/19/1 36/16/1
f 84/20/8 81/2/8 82/1/8 83/21/8
f 319/22/3 318/23/3 239/24/3 238/25/3
f 31/26/1 30/27/1 43/28/1 45/22/1
f 98/29/7 101/30/7 102/17/7 99/16/7
f 38/31/1 40/13/1 41/12/1 4/32/1
f 86/30/8 85/17/8 81/16/8 84/29/8
f 24/36/1 25/30/1 37/29/1 36/37/1
f 311/31/12 309/13/12 310/12/12 308/38/12
f 295/24/6 292/25/6 293/22/6 294/23/6
f 134/39/3 135/40/3 136/1/3 131/17/3
f 269/31/8 267/13/8 268/12/8 266/32/8
f 210/13/7 218/12/7 219/32/7 211/31/7
f 252/45/6 250/13/6 251/12/6 249/38/6
f 197/13/1 40/12/1 38/32/1 26/31/1
f 240/7/3 193/5/3 265/9/3 264/8/3
f 154/13/7 170/12/7 171/32/7 155/31/7
f 323/26/3 325/46/3 328/23/3 327/22/3
f 149/47/8 83/48/8 82/20/8 150/21/8
f 137/24/3 329/25/3 314/22/3 313/23/3
f 96/36/7 100/47/7 97/21/7 95/30/7
f 319/22/3 236/26/3 235/46/3 318/23/3
f 14/17/1 11/18/1 12/19/1 13/16/1
f 100/29/7 98/30/7 99/17/7 97/16/7
f 121/49/7 120/25/7 117/22/7 118/28/7
f 225/32/1 224/45/1 222/13/1 223/12/1
f 191/24/8 189/25/8 190/22/8 188/23/8
f 134/50/3 131/2/3 132/1/3 133/40/3
f 52/49/1 60/25/1 61/22/1 53/28/1
f 61/48/1 66/20/1 67/21/1 68/47/1
f 165/31/3 163/13/3 164/12/3 162/32/3
f 126/47/6 124/48/6 125/51/6 123/52/6
f 256/32/1 225/45/1 223/13/1 255/12/1
f 147/47/6 126/48/6 146/20/6 145/21/6
f 189/7/8 262/5/8 263/9/8 261/8/8
f 145/5/6 151/9/6 152/8/6 153/7/6
f 39/53/1 38/34/1 4/5/1 3/7/1
f 12/16/1 11/17/1 25/18/1 24/19/1
f 29/36/1 26/30/1 27/29/1 28/37/1
f 144/48/8 141/51/8 142/52/8 143/47/8
f 34/17/1 50/18/1 51/19/1 35/16/1
f 281/14/8 280/15/8 270/2/8 271/1/8
f 92/30/7 91/17/7 89/16/7 88/29/7
f 65/2/1 64/3/1 63/4/1 57/1/1
f 228/54/9 226/55/1 227/56/1 5/57/2
f 173/45/6 172/13/6 213/12/6 212/38/6
f 116/36/7 115/30/7 111/29/7 114/37/7
f 229/25/1 233/22/1 234/28/1 230/49/1
f 76/30/6 73/17/6 74/16/6 75/29/6
f 56/16/1 57/17/1 63/18/1 62/19/1
f 297/16/1 296/17/1 18/18/1 16/19/1
f 260/8/1 259/7/1 257/5/1 258/9/1
f 207/7/1 206/5/1 196/9/1 29/8/1
f 114/20/7 111/2/7 112/1/7 113/21/7
f 90/29/7 88/30/7 89/17/7 87/16/7
f 17/58/5 235/59/3 236/60/3 228/61/9
f 168/13/8 208/12/8 209/32/8 166/31/8
f 68/48/1 67/20/1 64/21/1 65/47/1
f 45/28/1 43/49/1 44/25/1 42/22/1
f 29/31/1 196/13/1 197/12/1 26/32/1
f 23/48/1 20/20/1 21/21/1 22/47/1
f 19/48/1 17/20/5 7/21/4 18/47/1
f 27/28/1 26/49/1 38/25/1 39/22/1
f 161/13/6 158/12/6 159/32/6 160/31/6
f 208/13/8 216/12/8 217/32/8 209/31/8
f 174/31/3 175/13/3 215/12/3 214/32/3
f 47/17/1 46/1/1 55/4/1 54/18/1
f 106/36/6 103/30/6 104/29/6 105/37/6
f 226/27/1 232/28/1 231/22/1 227/26/1
f 16/17/1 15/18/1 11/19/1 14/16/1
f 245/62/3 244/63/3 165/12/3 243/38/3
f 122/36/7 119/30/7 120/29/7 121/37/7
f 195/21/3 192/52/3 193/51/3 194/20/3
f 316/28/3 140/49/3 137/24/3 313/23/3
f 205/40/6 202/1/6 203/17/6 204/39/6
f 130/48/3 127/51/3 128/52/3 129/47/3
f 297/17/1 16/18/1 14/19/1 302/16/1
f 140/47/3 138/48/3 139/51/3 137/52/3
f 170/13/7 210/12/7 211/32/7 171/31/7
f 201/40/8 198/1/8 199/17/8 200/39/8
f 307/29/3 306/30/3 6/17/3 305/16/3
f 72/48/1 69/20/1 70/21/1 71/47/1
f 301/30/6 298/17/6 303/16/6 304/29/6
f 80/30/7 77/17/7 78/16/7 79/29/7
f 248/13/7 247/12/7 218/32/7 210/31/7
f 144/47/8 149/48/8 150/20/8 148/21/8
f 254/31/3 214/13/3 220/12/3 253/32/3
f 157/13/7 154/12/7 155/32/7 156/31/7
f 33/49/1 30/25/1 31/22/1 32/28/1
f 325/24/3 323/25/3 324/22/3 127/23/3
f 271/31/8 270/13/8 267/12/8 269/32/8
f 275/21/11 273/20/11 274/2/10 272/1/10
f 162/31/3 164/13/3 175/12/3 174/32/3
f 289/15/6 287/14/6 288/1/6 286/2/6
f 214/31/3 215/13/3 221/12/3 220/32/3
f 291/14/3 290/15/3 273/2/11 275/1/11
f 4/30/1 1/29/1 2/37/1 3/36/1
f 317/64/3 316/65/3 313/59/3 315/58/3
f 118/34/7 117/5/7 115/7/7 116/53/7
f 94/30/7 93/17/7 91/16/7 92/29/7
f 244/66/3 246/63/3 163/12/3 165/32/3
f 240/24/3 237/25/3 238/22/3 239/23/3
f 179/8/7 177/7/7 178/5/7 176/9/7
f 49/1/1 46/4/1 47/18/1 48/17/1
f 232/49/1 229/25/1 230/22/1 231/28/1
f 44/55/1 52/56/1 53/57/1 42/54/1
f 241/62/3 245/63/3 243/12/3 242/38/3
f 8/66/3 241/63/3 242/12/3 10/32/3
f 183/21/3 181/52/3 182/51/3 180/20/3
f 283/7/7 320/67/7 321/8/7
f 322/9/7 321/8/7 320/67/7
f 282/5/7 322/9/7 320/67/7
f 5/61/2 7/58/4 17/59/5 228/60/9
f 187/24/6 184/25/6 185/22/6 186/23/6
f 96/30/7 95/17/7 93/16/7 94/29/7
f 110/21/8 108/20/8 109/2/8 107/1/8
f 328/23/3 315/24/3 312/25/3 327/22/3
f 130/28/3 326/49/3 325/24/3 127/23/3
f 158/13/6 172/12/6 173/32/6 159/31/6
f 315/58/3 313/59/3 314/60/3 312/61/3
f 169/31/8 167/13/8 168/12/8 166/32/8
f 301/29/6 299/30/6 300/17/6 298/16/6
usemtl MI_NetherWartFoilageTwoSide_NoFade
f 337/33/1 335/34/1 336/25/1 334/35/1
f 345/33/1 343/34/1 344/25/1 342/35/1
f 341/41/7 340/42/7 338/43/7 339/44/7
f 333/41/3 332/42/3 330/43/3 331/44/3
