# Blender 5.0.1
# www.blender.org
mtllib BP_Barricade_Pointy.mtl
o SM_Barricade_Pointy.001
v -18.750021 70.310867 14.631756
v -18.750017 52.633198 -3.045914
v -43.750019 52.633198 -3.045916
v -43.750019 70.310867 14.631754
v -43.750011 -71.110504 120.697777
v -18.750013 -71.110504 120.697784
v -43.750015 -53.432838 138.375443
v -18.750015 -53.432835 138.375458
v -18.750013 -71.110504 120.697784
v -18.750021 70.310867 14.631756
v -18.750015 -53.432835 138.375458
v -18.750017 52.633198 -3.045914
v -18.750015 -53.432835 138.375458
v -43.750019 70.310867 14.631754
v -43.750015 -53.432838 138.375443
v -18.750021 70.310867 14.631756
v -43.750015 -53.432838 138.375443
v -43.750019 52.633198 -3.045916
v -43.750011 -71.110504 120.697777
v -43.750019 70.310867 14.631754
v -43.750011 -71.110504 120.697777
v -18.750017 52.633198 -3.045914
v -18.750013 -71.110504 120.697784
v -43.750019 52.633198 -3.045916
v 6.249972 52.633194 138.375458
v -18.750029 70.310867 120.697792
v -18.750029 52.633194 138.375458
v 6.249971 70.310867 120.697792
v -18.750006 -53.432831 -3.045937
v 6.249995 -53.432827 -3.045935
v -18.750004 -71.110504 14.631737
v 6.249996 -71.110504 14.631739
v 6.249971 70.310867 120.697792
v 6.249995 -53.432827 -3.045935
v -18.750006 -53.432831 -3.045937
v -18.750029 70.310867 120.697792
v -18.750004 -71.110504 14.631737
v -18.750029 52.633194 138.375458
v -18.750029 70.310867 120.697792
v -18.750006 -53.432831 -3.045937
v -18.750029 52.633194 138.375458
v -18.750004 -71.110504 14.631737
v 6.249996 -71.110504 14.631739
v 6.249972 52.633194 138.375458
v 6.249996 -71.110504 14.631739
v 6.249971 70.310867 120.697792
v 6.249972 52.633194 138.375458
v 6.249995 -53.432827 -3.045935
v -118.750023 70.310860 14.631748
v -118.750023 52.633186 -3.045922
v -143.750015 52.633186 -3.045924
v -143.750031 70.310852 14.631746
v -143.750015 -71.110519 120.697769
v -118.750015 -71.110519 120.697777
v -143.750015 -53.432850 138.375443
v -118.750023 -53.432846 138.375443
v -118.750015 -71.110519 120.697777
v -118.750023 70.310860 14.631748
v -118.750023 -53.432846 138.375443
v -118.750023 52.633186 -3.045922
v -118.750023 -53.432846 138.375443
v -143.750031 70.310852 14.631746
v -143.750015 -53.432850 138.375443
v -118.750023 70.310860 14.631748
v -143.750015 -53.432850 138.375443
v -143.750015 52.633186 -3.045924
v -143.750015 -71.110519 120.697769
v -143.750031 70.310852 14.631746
v -143.750015 -71.110519 120.697769
v -118.750023 52.633186 -3.045922
v -118.750015 -71.110519 120.697777
v -143.750015 52.633186 -3.045924
v -93.750031 52.633183 138.375458
v -118.750031 70.310852 120.697784
v -118.750031 52.633183 138.375458
v -93.750031 70.310852 120.697784
v -118.750008 -53.432842 -3.045945
v -93.750008 -53.432838 -3.045943
v -118.750008 -71.110519 14.631729
v -93.750008 -71.110512 14.631731
v -93.750031 70.310852 120.697784
v -93.750008 -53.432838 -3.045943
v -118.750008 -53.432842 -3.045945
v -118.750031 70.310852 120.697784
v -118.750008 -71.110519 14.631729
v -118.750031 52.633183 138.375458
v -118.750031 70.310852 120.697784
v -118.750008 -53.432842 -3.045945
v -118.750031 52.633183 138.375458
v -118.750008 -71.110519 14.631729
v -93.750008 -71.110512 14.631731
v -93.750031 52.633183 138.375458
v -93.750008 -71.110512 14.631731
v -93.750031 70.310852 120.697784
v -93.750031 52.633183 138.375458
v -93.750008 -53.432838 -3.045943
v 106.249969 52.633205 138.375473
v 81.249969 70.310875 120.697800
v 81.249969 52.633205 138.375473
v 106.249969 70.310875 120.697800
v 81.249992 -53.432819 -3.045929
v 106.249992 -53.432816 -3.045927
v 81.249992 -71.110497 14.631744
v 106.249992 -71.110489 14.631746
v 106.249969 70.310875 120.697800
v 106.249992 -53.432816 -3.045927
v 81.249992 -53.432819 -3.045929
v 81.249969 70.310875 120.697800
v 81.249992 -71.110497 14.631744
v 81.249969 52.633205 138.375473
v 81.249969 70.310875 120.697800
v 81.249992 -53.432819 -3.045929
v 81.249969 52.633205 138.375473
v 81.249992 -71.110497 14.631744
v 106.249992 -71.110489 14.631746
v 106.249969 52.633205 138.375473
v 106.249992 -71.110489 14.631746
v 106.249969 70.310875 120.697800
v 106.249969 52.633205 138.375473
v 106.249992 -53.432816 -3.045927
v 131.249985 -18.077471 103.020119
v 31.249983 -18.077486 103.020119
v 31.250006 -0.399818 85.342445
v 131.249985 -0.399801 85.342453
v 131.249969 -0.399802 120.697792
v 31.249979 -0.399819 120.697784
v 31.249983 -18.077486 103.020119
v 131.249985 -18.077471 103.020119
v 131.249969 -0.399802 120.697792
v 31.249979 17.277851 103.020119
v 31.249979 -0.399819 120.697784
v 131.249969 17.277868 103.020119
v 131.249969 17.277868 103.020119
v 31.250006 -0.399818 85.342445
v 31.249979 17.277851 103.020119
v 131.249985 -0.399801 85.342453
v -168.750015 -18.077515 103.020103
v -168.750031 -0.399847 120.697777
v -168.750031 17.277824 103.020103
v -168.750015 -0.399846 85.342438
v 131.249969 -0.399802 120.697792
v 131.249985 -18.077471 103.020119
v 131.249985 -0.399801 85.342453
v 131.249969 17.277868 103.020119
v -68.750008 -0.399829 85.342438
v -168.750031 17.277824 103.020103
v -68.750008 17.277840 103.020111
v -168.750015 -0.399846 85.342438
v -68.750008 -0.399830 120.697777
v -168.750031 17.277824 103.020103
v -168.750031 -0.399847 120.697777
v -68.750008 17.277840 103.020111
v -68.750008 -0.399830 120.697777
v -168.750031 -0.399847 120.697777
v -168.750015 -18.077515 103.020103
v -68.750008 -18.077499 103.020111
v -68.750008 -18.077499 103.020111
v -168.750015 -18.077515 103.020103
v -168.750015 -0.399846 85.342438
v -68.750008 -0.399829 85.342438
v 56.249989 -71.110497 120.697784
v 81.249977 52.633213 -3.045906
v 81.249985 -71.110497 120.697792
v 56.249981 52.633209 -3.045908
v 81.249977 -53.432823 138.375458
v 56.249981 70.310875 14.631762
v 56.249985 -53.432827 138.375458
v 81.249977 70.310883 14.631763
v 81.249977 70.310883 14.631763
v 81.249977 52.633213 -3.045906
v 56.249981 52.633209 -3.045908
v 56.249981 70.310875 14.631762
v 81.249985 -71.110497 120.697792
v 56.249985 -53.432827 138.375458
v 56.249989 -71.110497 120.697784
v 81.249977 -53.432823 138.375458
v 56.249985 -53.432827 138.375458
v 56.249981 52.633209 -3.045908
v 56.249989 -71.110497 120.697784
v 56.249981 70.310875 14.631762
v 81.249985 -71.110497 120.697792
v 81.249977 70.310883 14.631763
v 81.249977 -53.432823 138.375458
v 81.249977 52.633213 -3.045906
v 62.499981 -102.046410 160.472549
v 62.499977 -57.852242 133.956039
v 62.499977 -66.691078 125.117210
v 62.499981 -93.207573 169.311386
v 62.499981 -93.207573 169.311386
v 74.999985 -57.852242 133.956039
v 62.499977 -57.852242 133.956039
v 74.999985 -93.207573 169.311386
v 74.999985 -102.046410 160.472549
v 74.999985 -57.852242 133.956039
v 74.999985 -93.207573 169.311386
v 74.999985 -66.691071 125.117210
v 62.499981 -102.046410 160.472549
v 74.999985 -66.691071 125.117210
v 74.999985 -102.046410 160.472549
v 62.499977 -66.691078 125.117210
v 74.999985 -66.691071 125.117210
v 62.499977 -57.852242 133.956039
v 74.999985 -57.852242 133.956039
v 62.499977 -66.691078 125.117210
v 62.499981 -93.207573 169.311386
v 74.999985 -102.046410 160.472549
v 74.999985 -93.207573 169.311386
v 62.499981 -102.046410 160.472549
v -37.500023 -93.207588 169.311371
v -37.500023 -66.691086 125.117203
v -37.500019 -102.046425 160.472549
v -37.500023 -57.852249 133.956039
v -25.000021 -93.207588 169.311371
v -37.500023 -57.852249 133.956039
v -37.500023 -93.207588 169.311371
v -25.000023 -57.852249 133.956039
v -25.000019 -102.046425 160.472549
v -25.000023 -57.852249 133.956039
v -25.000021 -93.207588 169.311371
v -25.000021 -66.691086 125.117203
v -37.500019 -102.046425 160.472549
v -25.000021 -66.691086 125.117203
v -25.000019 -102.046425 160.472549
v -37.500023 -66.691086 125.117203
v -25.000023 -57.852249 133.956039
v -37.500023 -66.691086 125.117203
v -37.500023 -57.852249 133.956039
v -25.000021 -66.691086 125.117203
v -37.500019 -102.046425 160.472549
v -25.000021 -93.207588 169.311371
v -37.500023 -93.207588 169.311371
v -25.000019 -102.046425 160.472549
v -137.500015 -102.046432 160.472534
v -137.500015 -57.852261 133.956024
v -137.500015 -66.691093 125.117195
v -137.500015 -93.207596 169.311371
v -125.000015 -93.207596 169.311371
v -137.500015 -57.852261 133.956024
v -137.500015 -93.207596 169.311371
v -125.000015 -57.852261 133.956024
v -125.000015 -102.046432 160.472534
v -125.000015 -57.852261 133.956024
v -125.000015 -93.207596 169.311371
v -125.000015 -66.691093 125.117195
v -137.500015 -102.046432 160.472534
v -125.000015 -66.691093 125.117195
v -125.000015 -102.046432 160.472534
v -137.500015 -66.691093 125.117195
v -125.000015 -66.691093 125.117195
v -137.500015 -57.852261 133.956024
v -125.000015 -57.852261 133.956024
v -137.500015 -66.691093 125.117195
v -137.500015 -102.046432 160.472534
v -125.000015 -93.207596 169.311371
v -137.500015 -93.207596 169.311371
v -125.000015 -102.046432 160.472534
vn -0.0000 0.7071 -0.7071
vn -0.0000 -0.7071 0.7071
vn 1.0000 -0.0000 -0.0000
vn -0.0000 0.7071 0.7071
vn -1.0000 -0.0000 -0.0000
vn -0.0000 -0.7071 -0.7071
vt 0.250000 0.000000
vt 0.375000 0.000000
vt 0.375000 0.875000
vt 0.250000 0.875000
vt 0.875000 0.999969
vt 0.875000 0.500000
vt 1.000000 0.500000
vt 1.000000 0.999969
vt 0.249878 0.875000
vt 0.249878 0.000000
vt 0.937500 0.250000
vt 1.000000 0.250000
vt 0.937500 0.500000
vt 0.875000 0.250000
vt 0.531250 0.468750
vt 0.531250 0.343750
vt 0.656250 0.343750
vt 0.656250 0.468750
vt 0.125000 0.000488
vt 0.125000 0.875000
vt 0.812500 0.500000
vt 0.812500 0.250000
vt 0.750000 0.999969
vt 0.625000 0.999969
vt 0.625000 0.500000
vt 0.750000 0.500000
vt 0.562500 0.437500
vt 0.562500 0.375000
vt 0.625000 0.375000
vt 0.625000 0.437500
vt 0.750000 0.250000
vt 0.500000 0.000000
vt 0.500000 0.875000
vt 0.999512 0.999969
vt 0.875000 0.999969
vt 0.375000 0.000488
vt 0.499756 0.000488
vt 0.625000 0.999969
vt 0.499756 0.999969
vt 0.500000 0.500000
vt 0.000031 0.875000
vt 0.000031 0.000000
vt 0.124939 0.000000
vt 0.125000 0.000000
vt -0.000031 0.000000
vt 0.750000 1.000031
vt 0.625000 1.000031
vt 0.625000 0.500244
vt 0.750000 0.500244
vt 0.750000 0.999969
vt 0.875000 1.000031
vt 0.875000 0.500244
vt 1.000000 0.500244
vt 1.000000 1.000031
vt 0.500000 0.999969
vt 0.500000 1.000031
vt 0.500000 0.500244
s 1
usemtl MI_Barricade
f 20/1/5 18/2/5 19/3/5 17/4/5
f 152/5/4 150/6/4 151/7/4 149/8/4
f 88/3/5 85/9/5 86/10/5 87/2/5
f 220/11/3 218/12/3 219/7/3 217/13/3
f 240/14/4 238/11/4 239/13/4 237/6/4
f 8/15/2 7/16/2 5/17/2 6/18/2
f 196/11/3 194/12/3 195/7/3 193/13/3
f 36/19/1 33/1/1 34/9/1 35/20/1
f 78/18/6 80/15/6 79/16/6 77/17/6
f 188/21/5 186/22/5 187/14/5 185/6/5
f 108/19/1 105/1/1 106/9/1 107/20/1
f 160/23/6 157/24/6 158/25/6 159/26/6
f 204/27/1 202/28/1 203/29/1 201/30/1
f 200/31/6 198/22/6 199/21/6 197/26/6
f 244/11/3 242/12/3 243/7/3 241/13/3
f 102/18/6 104/15/6 103/16/6 101/17/6
f 168/2/4 166/32/4 167/33/4 165/3/4
f 152/6/4 149/7/4 131/34/4 130/35/4
f 44/36/2 41/37/2 42/33/2 43/3/2
f 156/25/2 127/38/2 126/39/2 153/40/2
f 112/3/5 109/9/5 110/10/5 111/2/5
f 48/41/3 46/42/3 47/43/3 45/20/3
f 40/3/5 37/9/5 38/10/5 39/2/5
f 76/15/4 74/16/4 75/17/4 73/18/4
f 140/15/5 137/16/5 138/17/5 139/18/5
f 4/17/1 1/18/1 2/15/1 3/16/1
f 52/17/1 49/18/1 50/15/1 51/16/1
f 92/36/2 89/37/2 90/33/2 91/3/2
f 232/27/2 230/28/2 231/29/2 229/30/2
f 212/22/5 210/14/5 211/6/5 209/21/5
f 184/42/3 182/44/3 183/20/3 181/41/3
f 24/44/6 22/1/6 23/4/6 21/20/6
f 68/1/5 66/2/5 67/3/5 65/4/5
f 144/15/3 141/16/3 142/17/3 143/18/3
f 72/44/6 70/1/6 71/4/6 69/20/6
f 12/45/3 10/44/3 11/20/3 9/41/3
f 116/36/2 113/37/2 114/33/2 115/3/2
f 124/46/6 121/47/6 122/48/6 123/49/6
f 60/45/3 58/44/3 59/20/3 57/41/3
f 134/50/1 145/26/1 147/6/1 135/35/1
f 216/14/4 214/11/4 215/13/4 213/6/4
f 28/15/4 26/16/4 27/17/4 25/18/4
f 180/1/5 178/2/5 179/3/5 177/4/5
f 132/51/4 130/52/4 131/53/4 129/54/4
f 172/17/1 169/18/1 170/15/1 171/16/1
f 164/44/6 162/1/6 163/4/6 161/20/6
f 56/15/2 55/16/2 53/17/2 54/18/2
f 155/25/2 156/24/2 153/55/2 154/40/2
f 16/2/4 14/32/4 15/33/4 13/3/4
f 176/15/2 174/16/2 175/17/2 173/18/2
f 228/30/1 226/27/1 227/28/1 225/29/1
f 192/6/4 190/14/4 191/11/4 189/13/4
f 127/48/2 128/47/2 125/56/2 126/57/2
f 123/50/6 122/38/6 157/25/6 160/26/6
f 100/15/4 98/16/4 99/17/4 97/18/4
f 136/46/1 134/49/1 135/52/1 133/51/1
f 120/41/3 118/42/3 119/43/3 117/20/3
f 148/26/1 146/6/1 147/5/1 145/23/1
f 208/30/2 206/27/2 207/28/2 205/29/2
f 30/18/6 32/15/6 31/16/6 29/17/6
f 64/2/4 62/32/4 63/33/4 61/3/4
f 96/41/3 94/42/3 95/43/3 93/20/3
f 84/19/1 81/1/1 82/9/1 83/20/1
f 236/21/5 234/22/5 235/14/5 233/6/5
f 224/31/6 222/22/6 223/21/6 221/26/6
f 248/31/6 246/22/6 247/21/6 245/26/6
f 252/27/1 250/28/1 251/29/1 249/30/1
f 256/27/2 254/28/2 255/29/2 253/30/2
