# Blender 5.0.1
# www.blender.org
mtllib BP_BuffetTableInteractable.mtl
o SM_Carrot.001
v 70.119247 -104.830780 82.591026
v 19.880772 -104.830780 82.591042
v 19.880768 -104.830780 69.908730
v 70.119247 -104.830780 69.908714
v 19.880772 -104.830780 82.591042
v 70.119247 -104.830780 82.591026
v 70.119247 -92.148468 82.591026
v 19.880772 -92.148468 82.591042
v 70.119247 -92.148468 69.908714
v 19.880768 -92.148468 69.908730
v 19.880772 -92.148468 82.591042
v 70.119247 -92.148468 82.591026
v 70.119247 -104.830780 69.908714
v 19.880768 -104.830780 69.908730
v 19.880768 -92.148468 69.908730
v 70.119247 -92.148468 69.908714
v 70.119247 -104.830780 82.591026
v 70.119247 -104.830780 69.908714
v 70.119247 -92.148468 82.591026
v 70.119247 -92.148468 69.908714
v 19.880772 -104.830780 82.591042
v 19.880768 -92.148468 69.908730
v 19.880768 -104.830780 69.908730
v 19.880772 -92.148468 82.591042
v 20.000010 -104.739624 76.249886
v 20.000010 -92.239624 76.249886
v 15.023573 -104.739624 71.273453
v 15.023573 -92.239624 71.273453
v 20.000010 -104.739624 76.249886
v 20.000010 -92.239624 76.249886
v 6.741764 -104.739624 89.508141
v 6.741764 -92.239624 89.508148
vn -0.0000 -1.0000 -0.0000
vn -0.0000 -0.0000 1.0000
vn -0.0000 1.0000 -0.0000
vn -0.0000 -0.0000 -1.0000
vn 1.0000 -0.0000 -0.0000
vn -1.0000 -0.0000 -0.0000
vn -0.7071 -0.0000 0.7071
vn 0.7071 -0.0000 0.7071
vt 0.500000 0.250000
vt 0.750000 0.250000
vt 0.750000 0.500000
vt 0.500000 0.500000
vt 0.000031 0.000000
vt 0.250000 0.000000
vt 0.250000 0.999969
vt 0.000031 0.999969
vt 0.500000 0.000000
vt 0.500000 0.999969
vt 0.750000 0.000000
vt 0.500000 0.750000
vt 0.750000 0.750000
vt 0.750000 0.999969
vt 1.000000 0.999969
vt 0.750000 0.625000
vt 1.000000 0.625000
s 1
usemtl MI_Carrot
f 18/1/5 20/2/5 19/3/5 17/4/5
f 12/5/3 9/6/3 10/7/3 11/8/3
f 16/6/4 13/9/4 14/10/4 15/7/4
f 24/1/6 22/9/6 23/11/6 21/2/6
f 8/10/2 5/7/2 6/6/2 7/9/2
f 28/10/7 27/12/7 25/13/7 26/14/7
f 4/5/1 1/6/1 2/7/1 3/8/1
f 32/15/8 31/14/8 29/16/8 30/17/8
