# Blender 5.0.1
# www.blender.org
mtllib BP_Block_Puzzle_Goal.mtl
o SM_Moving_Block_Goal_01.001
v 150.000015 150.000137 49.999916
v 249.999924 250.000076 49.999947
v 149.999924 250.000076 49.999947
v 249.999954 150.000198 49.999916
v -250.000015 150.000046 49.999947
v -150.000137 249.999985 49.999977
v -250.000107 249.999954 49.999977
v -150.000046 150.000107 49.999947
v 150.000107 -249.999924 49.999916
v 250.000076 -249.999924 49.999947
v 250.000015 -149.999924 49.999947
v 149.999985 -149.999924 49.999947
v -249.999954 -249.999954 49.999947
v -150.000046 -150.000076 49.999969
v -249.999985 -150.000015 49.999962
v -149.999985 -249.999954 49.999947
v -249.999954 -150.000076 -0.000023
v -249.999954 -249.999954 49.999947
v -249.999985 -150.000015 49.999962
v -249.999924 -250.000076 -0.000023
v -250.000015 150.000046 49.999947
v -250.000107 249.999924 0.000008
v -249.999985 150.000046 -0.000023
v -250.000107 249.999954 49.999977
v 149.999924 250.000076 49.999947
v 249.999924 250.000076 49.999947
v 249.999893 250.000076 -0.000053
v 149.999924 250.000076 -0.000053
v -150.000137 249.999985 49.999977
v -250.000107 249.999924 0.000008
v -250.000107 249.999954 49.999977
v -150.000137 249.999954 -0.000023
v -0.000125 250.000000 -0.000038
v -0.000125 250.000031 49.999962
v 249.999954 150.000198 49.999916
v 249.999893 250.000076 -0.000053
v 249.999924 250.000076 49.999947
v 250.000015 150.000198 -0.000084
v 150.000031 0.000080 -0.000053
v 150.000046 -149.999924 -0.000044
v 150.000000 0.000080 49.999931
v 149.999985 -149.999924 49.999947
v 250.000107 -249.999924 -0.000023
v 250.000015 -149.999924 49.999947
v 250.000076 -249.999924 49.999947
v 250.000076 -149.999924 -0.000053
v 250.000076 -249.999924 49.999947
v 150.000137 -249.999924 -0.000053
v 250.000107 -249.999924 -0.000023
v 150.000107 -249.999924 49.999916
v -149.999985 -249.999954 49.999947
v -249.999954 -249.999954 49.999947
v -249.999924 -250.000076 -0.000023
v -149.999954 -250.000015 -0.000053
v -249.999985 150.000046 -0.000023
v -150.000046 150.000107 49.999947
v -250.000015 150.000046 49.999947
v -150.000015 150.000046 -0.000038
v -150.000046 -150.000076 49.999969
v -249.999954 -150.000076 -0.000023
v -249.999985 -150.000015 49.999962
v -150.000046 -150.000076 -0.000023
v 150.000046 150.000137 -0.000065
v 150.000015 150.000137 49.999916
v -0.000025 150.000122 49.999931
v -0.000125 250.000031 49.999962
v -0.000044 -150.000000 49.999958
v 0.000071 -249.999939 49.999931
v 249.999969 0.000150 49.999931
v 150.000000 0.000080 49.999931
v 249.999969 0.000150 49.999931
v 250.000031 0.000150 -0.000069
v 0.000071 -249.999939 49.999931
v 0.000102 -249.999939 -0.000053
v -0.000044 -150.000000 49.999958
v -0.000014 -150.000000 -0.000034
v 149.999985 -149.999924 49.999947
v 150.000046 -149.999924 -0.000044
v -0.000025 150.000122 49.999931
v 0.000021 150.000061 -0.000051
v 150.000015 150.000137 49.999916
v 150.000046 150.000137 -0.000065
vn -0.0000 -0.0000 1.0000
vn -1.0000 -0.0000 -0.0000
vn -0.0000 1.0000 -0.0000
vn 1.0000 -0.0000 -0.0000
vn -0.0000 -1.0000 -0.0000
vt 0.000031 0.750000
vt 0.000031 0.500000
vt 0.250000 0.500000
vt 0.250000 0.750000
vt 0.375000 0.375000
vt 0.375000 0.500000
vt -0.000031 0.500000
vt -0.000031 0.375000
vt 0.750000 0.500000
vt 0.750000 0.375000
vt 0.375000 0.750000
vt 0.375000 0.999969
vt 0.000031 0.999969
vt 0.000031 0.375000
vt 1.000000 0.359375
vt 1.000000 0.484375
vt 0.750000 0.484375
vt 0.750000 0.359375
vt 0.750000 0.625000
vt 0.750000 0.750000
vt 1.000000 0.750000
vt 1.000000 0.625000
vt -0.000031 0.750000
vt -0.000031 0.999969
vt 0.250000 0.359375
vt 0.250000 0.484375
vt 0.625000 0.484375
vt 0.625000 0.359375
vt 1.000000 0.375000
vt 1.000000 0.500000
vt 0.750000 0.999969
vt 0.750000 0.609375
vt 1.000000 0.609375
vt 1.000000 0.734375
vt 0.750000 0.734375
vt -0.000031 0.375488
vt 0.000031 0.500244
vt 0.000031 0.359375
vt 0.000031 0.484375
vt 0.375000 0.484375
vt 0.375000 0.359375
vt 0.750000 0.578125
vt 0.750000 0.703125
vt 1.000000 0.703125
vt 1.000000 0.578125
s 1
usemtl MI_Moving_Blocks_Goal
f 8/1/1 6/2/1 7/3/1 5/4/1
f 33/5/3 34/6/3 25/7/3 28/8/3
f 74/5/5 73/6/5 51/9/5 54/10/5
f 66/11/1 65/12/1 1/13/1 3/1/1
f 77/2/3 78/14/3 76/5/3 75/6/3
f 75/6/3 76/5/3 62/10/3 59/9/3
f 38/14/4 35/2/4 71/6/4 72/5/4
f 28/15/3 25/16/3 26/17/3 27/18/3
f 54/19/5 51/20/5 52/21/5 53/22/5
f 4/23/1 2/7/1 3/3/1 1/4/1
f 70/11/1 69/12/1 4/24/1 1/23/1
f 32/19/3 30/22/3 31/21/3 29/20/3
f 82/25/5 81/26/5 79/27/5 80/28/5
f 38/15/4 36/18/4 37/17/4 35/16/4
f 12/3/1 9/4/1 10/1/1 11/2/1
f 46/19/4 44/20/4 45/21/4 43/22/4
f 50/9/5 48/10/5 49/29/5 47/30/5
f 6/20/1 8/31/1 65/12/1 66/11/1
f 80/28/5 79/27/5 56/16/5 58/15/5
f 16/1/1 14/2/1 15/3/1 13/4/1
f 62/32/3 60/33/3 61/34/3 59/35/3
f 48/36/5 50/37/5 73/6/5 74/5/5
f 40/38/2 42/39/2 41/40/2 39/41/2
f 32/15/3 29/16/3 34/27/3 33/28/3
f 72/5/4 71/6/4 44/9/4 46/10/4
f 58/42/5 56/43/5 57/44/5 55/45/5
f 68/12/1 67/11/1 14/20/1 16/31/1
f 12/20/1 11/31/1 69/12/1 70/11/1
f 9/13/1 12/1/1 67/11/1 68/12/1
f 24/17/2 22/18/2 23/15/2 21/16/2
f 20/29/2 18/30/2 19/9/2 17/10/2
f 39/5/2 41/6/2 64/2/2 63/14/2
