# Blender 5.0.1
# www.blender.org
mtllib BP_Bench.mtl
o SM_Bench.001
v 0.000000 -100.000000 0.000004
v 0.000000 -100.000000 50.000000
v -12.500000 -100.000000 0.000004
v -12.500000 -100.000000 50.000000
v 0.000000 -87.500000 50.000000
v 0.000000 -87.500000 0.000004
v -12.500000 -87.500000 50.000000
v -12.500000 -87.500000 0.000004
v 0.000000 -87.500000 0.000004
v 0.000000 -87.500000 50.000000
v 0.000000 -100.000000 0.000004
v 0.000000 -100.000000 50.000000
v -12.500000 -87.500000 50.000000
v -12.500000 -87.500000 0.000004
v -12.500000 -100.000000 50.000000
v -12.500000 -100.000000 0.000004
v -56.250000 -100.000000 0.000004
v -56.250000 -100.000000 50.000000
v -68.750000 -100.000000 0.000004
v -68.750000 -100.000000 50.000000
v -56.250000 -87.500000 50.000000
v -56.250000 -87.500000 0.000004
v -68.750000 -87.500000 50.000000
v -68.750000 -87.500000 0.000004
v -56.250000 -87.500000 0.000004
v -56.250000 -87.500000 50.000000
v -56.250000 -100.000000 0.000004
v -56.250000 -100.000000 50.000000
v -68.750000 -87.500000 50.000000
v -68.750000 -87.500000 0.000004
v -68.750000 -100.000000 50.000000
v -68.750000 -100.000000 0.000004
v 0.000000 -100.000000 75.000000
v -68.750000 -100.000000 75.000000
v 0.000000 -100.000000 75.000000
v -0.000000 100.000000 75.000000
v -68.750000 -100.000000 75.000000
v -68.750000 100.000000 75.000000
v -0.000000 100.000000 50.000000
v -68.750000 100.000000 50.000000
v -68.750000 100.000000 75.000000
v -0.000000 100.000000 75.000000
v -0.000000 100.000000 50.000000
v 0.000000 -100.000000 50.000000
v -68.750000 100.000000 50.000000
v -68.750000 -100.000000 50.000000
v -0.000000 100.000000 50.000000
v -0.000000 100.000000 75.000000
v 0.000000 -100.000000 75.000000
v -68.750000 -100.000000 75.000000
v -68.750000 100.000000 75.000000
v -68.750000 100.000000 50.000000
v -56.250000 87.500000 0.000004
v -56.250000 87.500000 50.000000
v -68.750000 87.500000 0.000004
v -68.750000 87.500000 50.000000
v -56.250000 100.000000 50.000000
v -56.250000 100.000000 0.000004
v -68.750000 100.000000 0.000004
v -56.250000 100.000000 0.000004
v -56.250000 100.000000 50.000000
v -56.250000 87.500000 0.000004
v -56.250000 87.500000 50.000000
v -68.750000 100.000000 0.000004
v -68.750000 87.500000 50.000000
v -68.750000 87.500000 0.000004
v -0.000000 87.500000 0.000004
v -0.000000 87.500000 50.000000
v -12.500000 87.500000 0.000004
v -12.500000 87.500000 50.000000
v -0.000000 100.000000 0.000004
v -12.500000 100.000000 50.000000
v -12.500000 100.000000 0.000004
v -0.000000 100.000000 0.000004
v -0.000000 87.500000 0.000004
v -0.000000 87.500000 50.000000
v -12.500000 100.000000 50.000000
v -12.500000 100.000000 0.000004
v -12.500000 87.500000 50.000000
v -12.500000 87.500000 0.000004
vn -0.0000 -1.0000 -0.0000
vn -0.0000 1.0000 -0.0000
vn 1.0000 -0.0000 -0.0000
vn -1.0000 -0.0000 -0.0000
vn -0.0000 -0.0000 1.0000
vn -0.0000 -0.0000 -1.0000
vt 0.343750 0.999969
vt 0.000031 0.999969
vt 0.000031 0.000000
vt 0.343750 0.000000
vt 1.000000 0.656250
vt 0.937500 0.656250
vt 0.937500 0.343750
vt 1.000000 0.343750
vt 0.937500 0.031250
vt 1.000000 0.031250
vt 0.875000 0.343750
vt 0.875000 0.031250
vt 1.000000 0.999969
vt 0.875000 0.999969
vt 0.875000 0.656250
vt 0.468750 0.000000
vt 0.468750 0.999969
vt 0.812500 0.999969
vt 0.812500 0.000000
s 1
usemtl MI_Bench
f 44/1/6 46/2/6 45/3/6 43/4/6
f 68/5/1 70/6/1 69/7/1 67/8/1
f 54/8/1 56/7/1 55/9/1 53/10/1
f 28/11/3 27/12/3 25/9/3 26/7/3
f 22/9/2 24/10/2 23/8/2 21/7/2
f 6/7/2 8/8/2 7/5/2 5/6/2
f 2/8/1 4/7/1 3/9/1 1/10/1
f 20/5/1 2/13/1 33/14/1 34/15/1
f 12/15/3 11/11/3 9/7/3 10/6/3
f 49/16/3 12/4/3 47/1/3 48/17/3
f 71/9/2 73/10/2 72/8/2 39/7/2
f 18/5/1 20/6/1 19/7/1 17/8/1
f 41/15/2 42/14/2 39/13/2 40/5/2
f 76/11/3 75/12/3 74/9/3 47/7/3
f 16/9/4 15/7/4 13/11/4 14/12/4
f 36/18/5 38/17/5 37/16/5 35/19/5
f 31/4/4 50/16/4 51/17/4 52/1/4
f 58/7/2 59/8/2 40/5/2 57/6/2
f 66/9/4 65/7/4 52/11/4 64/12/4
f 63/15/3 62/11/3 60/7/3 61/6/3
f 32/7/4 31/6/4 29/15/4 30/11/4
f 80/7/4 79/6/4 77/15/4 78/11/4
