# Blender 5.0.1
# www.blender.org
mtllib BP_BubbleColumn_NoBaseAsset.mtl
o SM_Bubble_Column.001
v 50.000000 49.999992 6.249944
v -50.000000 49.999992 6.249944
v -50.000000 -50.000008 6.249946
v 50.000000 -50.000008 6.249944
v 49.999992 -50.000000 50.000000
v -49.999992 -50.000000 50.000000
v -50.000000 -150.000000 50.000000
v 50.000000 -150.000000 50.000000
v 149.999969 50.000000 50.000000
v 49.999992 50.000000 50.000000
v 149.999969 -50.000000 50.000000
v -49.999992 150.000000 50.000000
v 50.000008 150.000000 50.000000
v -49.999985 50.000000 50.000000
v -149.999969 50.000000 50.000000
v -149.999969 -50.000000 50.000000
v 50.000000 -150.000000 50.000000
v -50.000000 -150.000000 50.000000
v -50.000000 -150.000000 12.500009
v 50.000000 -150.000000 12.500008
v 149.999969 50.000000 50.000000
v 149.999969 -50.000000 50.000000
v 149.999969 -50.000000 12.500008
v 149.999969 50.000000 12.500008
v -49.999992 150.000000 50.000000
v 50.000008 150.000000 50.000000
v 50.000004 150.000000 12.500008
v -49.999996 150.000000 12.500008
v -149.999969 50.000000 50.000000
v -149.999969 -50.000000 12.500009
v -149.999969 -50.000000 50.000000
v -149.999969 50.000000 12.500008
v 50.000000 -150.000000 12.500008
v -50.000000 -150.000000 0.000000
v 50.000000 -150.000000 0.000000
v -50.000000 -150.000000 12.500009
v 149.999969 50.000000 0.000000
v 149.999969 50.000000 12.500008
v 149.999969 -50.000000 0.000000
v -49.999996 150.000000 0.000000
v -49.999996 150.000000 12.500008
v 50.000004 150.000000 0.000000
v -149.999969 -50.000000 0.000000
v -149.999969 50.000000 0.000000
v 49.999992 -50.000000 50.000000
v 49.999992 50.000000 50.000000
v 50.000000 49.999992 12.500007
v 50.000000 -50.000008 12.500007
v 50.000000 49.999992 6.249944
v 50.000000 -50.000008 6.249944
v 149.999969 -50.000000 50.000000
v 49.999992 -50.000000 50.000000
v 49.999992 -50.000000 12.500009
v 149.999969 -50.000000 12.500008
v 49.999992 -50.000000 0.000000
v 149.999969 -50.000000 0.000000
v 49.999992 50.000000 50.000000
v 149.999969 50.000000 50.000000
v 49.999992 50.000000 12.500006
v 49.999992 50.000000 0.000000
v -49.999992 -50.000000 50.000000
v -50.000000 49.999992 12.500007
v -49.999985 50.000000 50.000000
v -50.000000 -50.000004 12.500006
v -50.000000 49.999992 6.249944
v -50.000000 -50.000008 6.249946
v 49.999992 -50.000000 0.000000
v 49.999992 -50.000000 12.500009
v 50.000000 -150.000000 50.000000
v 49.999992 -50.000000 50.000000
v 50.000004 150.000000 0.000000
v 49.999992 50.000000 12.500006
v 49.999992 50.000000 0.000000
v 50.000004 150.000000 12.500008
v 49.999992 50.000000 50.000000
v 50.000008 150.000000 50.000000
v -49.999985 50.000000 12.500006
v -49.999985 50.000000 0.000000
v -49.999985 50.000000 50.000000
v -49.999992 150.000000 50.000000
v -149.999969 50.000000 0.000000
v -49.999985 50.000000 12.500006
v -49.999985 50.000000 0.000000
v -149.999969 50.000000 12.500008
v -49.999985 50.000000 50.000000
v -149.999969 50.000000 50.000000
v -49.999992 -50.000000 50.000000
v 49.999992 -50.000000 50.000000
v 50.000000 -50.000008 12.500007
v -50.000000 -50.000004 12.500006
v -50.000000 -50.000008 6.249946
v 50.000000 -50.000008 6.249944
v -49.999985 50.000000 50.000000
v 50.000000 49.999992 12.500007
v 49.999992 50.000000 50.000000
v -50.000000 49.999992 12.500007
v -50.000000 49.999992 6.249944
v 50.000000 49.999992 6.249944
v -49.999992 -50.000000 12.500009
v -49.999992 -50.000000 0.000000
v -50.000000 -150.000000 50.000000
v -49.999992 -50.000000 50.000000
v -49.999992 -50.000000 0.000000
v -149.999969 -50.000000 12.500009
v -149.999969 -50.000000 0.000000
v -49.999992 -50.000000 12.500009
v -49.999992 -50.000000 50.000000
v -149.999969 -50.000000 50.000000
vn -0.0000 -0.0000 1.0000
vn -0.0000 -1.0000 -0.0000
vn 1.0000 -0.0000 -0.0000
vn -0.0000 1.0000 -0.0000
vn -1.0000 -0.0000 -0.0000
vn 0.8944 -0.4472 -0.0000
vn -0.7071 -0.7071 -0.0000
vn 0.7071 -0.7071 -0.0000
vn -0.8944 -0.4472 -0.0000
vn 0.7071 0.7071 -0.0000
vn 0.4472 0.8944 -0.0000
vn -0.7071 0.7071 -0.0000
vn -0.8944 0.4472 -0.0000
vt 0.899902 0.300293
vt 0.899902 0.325195
vt 0.699707 0.325195
vt 0.699707 0.300293
vt 0.024994 0.600098
vt 0.024994 0.400391
vt 0.099976 0.400391
vt 0.099976 0.600098
vt 0.399902 0.300293
vt 0.324951 0.300293
vt 0.324951 0.100098
vt 0.399902 0.100098
vt 0.599609 0.387695
vt 0.399902 0.387695
vt 0.399902 0.375000
vt 0.599609 0.375000
vt 0.324951 0.900024
vt 0.299805 0.900024
vt 0.299805 0.700195
vt 0.324951 0.700195
vt 0.299805 0.300293
vt 0.299805 0.100098
vt 0.599609 0.612549
vt 0.599609 0.625000
vt 0.399902 0.625000
vt 0.399902 0.612549
vt 0.625000 0.400391
vt 0.699707 0.400391
vt 0.699707 0.600098
vt 0.625000 0.600098
vt 0.974609 0.600098
vt 0.899902 0.600098
vt 0.899902 0.400391
vt 0.974609 0.400391
vt 0.674805 0.300293
vt 0.674805 0.100098
vt 0.699707 0.100098
vt 0.599609 0.100098
vt 0.599609 0.300293
vt 0.674805 0.900024
vt 0.674805 0.700195
vt 0.699707 0.700195
vt 0.699707 0.900024
vt 0.299805 0.325195
vt 0.099976 0.325195
vt 0.099976 0.300293
vt 0.099976 0.675049
vt 0.299805 0.675049
vt 0.099976 0.700195
vt 0.399902 0.975006
vt 0.399902 0.900024
vt 0.599609 0.900024
vt 0.599609 0.975006
vt 0.599609 0.400391
vt 0.599609 0.600098
vt 0.399902 0.600098
vt 0.399902 0.400391
vt 0.387451 0.400391
vt 0.387451 0.600098
vt 0.375000 0.600098
vt 0.374756 0.400391
vt 0.399902 0.700195
vt 0.599609 0.700195
vt 0.599609 0.025391
vt 0.399902 0.025391
vt 0.299805 0.400391
vt 0.299805 0.600098
vt 0.699707 0.675049
vt 0.899902 0.675049
vt 0.899902 0.700195
vt 0.612305 0.400391
vt 0.612305 0.600098
s 1
usemtl MI_Bubble_Column
f 56/1/2 54/2/2 53/3/2 55/4/2
f 32/5/5 30/6/5 31/7/5 29/8/5
f 102/9/5 99/10/5 36/11/9 101/12/5
f 92/13/4 91/14/4 90/15/4 89/16/4
f 41/17/13 40/18/12 78/19/5 77/20/5
f 39/21/3 37/22/10 38/11/11 23/10/3
f 98/23/2 94/24/2 96/25/2 97/26/2
f 48/27/5 45/28/5 46/29/5 47/30/5
f 24/31/3 21/32/3 22/33/3 23/34/3
f 68/35/3 33/36/6 35/37/8 67/4/3
f 8/38/1 5/39/1 6/9/1 7/12/1
f 36/11/9 99/10/5 100/21/5 34/22/7
f 74/40/3 72/41/3 73/42/3 71/43/3
f 90/15/4 87/9/4 88/39/4 89/16/4
f 106/44/2 104/45/2 105/46/2 103/21/2
f 11/33/1 9/32/1 10/29/1 5/28/1
f 84/47/4 82/48/4 83/19/4 81/49/4
f 28/50/4 25/51/4 26/52/4 27/53/4
f 4/54/1 1/55/1 2/56/1 3/57/1
f 66/58/3 65/59/3 62/60/3 64/61/3
f 14/62/1 10/63/1 13/52/1 12/51/1
f 42/21/4 40/22/12 41/11/13 27/10/4
f 20/64/2 17/38/2 18/12/2 19/65/2
f 80/51/5 41/17/13 77/20/5 79/62/5
f 16/7/1 6/66/1 14/67/1 15/8/1
f 44/21/5 43/22/5 30/11/5 32/10/5
f 59/68/4 57/29/4 58/32/4 38/69/11
f 76/52/3 75/63/3 72/41/3 74/40/3
f 36/10/9 34/21/7 35/22/8 33/11/6
f 96/25/2 94/24/2 95/63/2 93/62/2
f 64/61/3 62/60/3 63/67/3 61/66/3
f 60/42/4 59/68/4 38/69/11 37/70/10
f 70/39/3 69/38/3 33/36/6 68/35/3
f 86/8/4 85/67/4 82/48/4 84/47/4
f 54/2/2 51/33/2 52/28/2 53/3/2
f 50/71/5 48/27/5 47/30/5 49/72/5
f 107/66/2 108/7/2 104/45/2 106/44/2
