# Blender 5.0.1
# www.blender.org
mtllib BP_BlockingDoor_RM.mtl
o SM_RM_Runedoor.001
v -49.999893 -150.000031 0.000000
v -149.999893 -150.000107 0.000000
v -49.999962 -50.000034 -0.000000
v -149.999969 -50.000103 -0.000000
v 50.000099 -149.999969 300.000000
v 50.000099 -149.999969 200.000000
v 50.000038 -49.999962 300.000000
v 50.000038 -49.999962 200.000000
v -249.999908 -150.000183 300.000000
v -249.999969 -50.000175 200.000000
v -249.999908 -150.000183 200.000000
v -249.999969 -50.000175 300.000000
v -249.999908 -150.000183 0.000000
v -249.999969 -50.000175 -0.000000
v -149.999969 -50.000103 200.000000
v -249.999969 -50.000175 200.000000
v -249.999969 -50.000175 300.000000
v -149.999969 -50.000103 300.000000
v 50.000099 -149.999969 300.000000
v -49.999893 -150.000031 300.000000
v 50.000099 -149.999969 200.000000
v -49.999897 -150.000031 200.000000
v 50.000099 -149.999969 300.000000
v -49.999962 -50.000034 300.000000
v -49.999893 -150.000031 300.000000
v 50.000038 -49.999962 300.000000
v -49.999966 -50.000034 200.000000
v -49.999962 -50.000034 300.000000
v 50.000038 -49.999962 200.000000
v 50.000038 -49.999962 300.000000
v 50.000099 -149.999969 0.000000
v 50.000038 -49.999962 -0.000000
v -149.999893 -150.000107 200.000000
v -249.999908 -150.000183 200.000000
v -249.999908 -150.000183 100.000000
v -149.999893 -150.000107 100.000000
v -149.999893 -150.000107 0.000000
v -49.999897 -150.000031 100.000000
v -49.999893 -150.000031 0.000000
v 50.000099 -149.999969 100.000000
v 50.000099 -149.999969 100.000000
v 50.000038 -49.999962 100.000000
v 50.000038 -49.999962 100.000000
v -49.999966 -50.000034 100.000000
v -149.999969 -50.000103 -0.000000
v -149.999969 -50.000103 100.000000
v -49.999962 -50.000034 -0.000000
v -249.999969 -50.000175 100.000000
v -249.999969 -50.000175 100.000000
v -249.999908 -150.000183 100.000000
v -249.999908 -150.000183 0.000000
v 50.000099 -149.999969 0.000000
v 50.000099 -149.999969 0.000000
v 50.000038 -49.999962 -0.000000
v 50.000038 -49.999962 -0.000000
v -249.999969 -50.000175 -0.000000
v -249.999969 -50.000175 -0.000000
v -249.999908 -150.000183 0.000000
v -149.999969 -50.000103 300.000000
v -149.999893 -150.000107 300.000000
v -249.999908 -150.000183 300.000000
v -249.999969 -50.000175 300.000000
v -149.999893 -150.000107 300.000000
v -249.999908 -150.000183 300.000000
vn -0.0000 -0.0000 -1.0000
vn 1.0000 -0.0000 -0.0000
vn -1.0000 -0.0000 -0.0000
vn -0.0000 1.0000 -0.0000
vn -0.0000 -1.0000 -0.0000
vn -0.0000 -0.0000 1.0000
vt 0.000031 0.999969
vt 0.000031 0.500000
vt 0.499756 0.500000
vt 0.499756 0.999969
vt 0.999512 0.500000
vt 0.999512 0.999969
vt 0.500000 0.500000
vt 0.500000 0.000488
vt 0.999512 0.000488
vt 1.000000 0.500000
vt 0.500000 0.000000
vt 0.499756 1.000031
vt 1.000000 0.000000
vt 1.000000 1.000031
vt 1.000000 0.999969
vt -0.000031 0.999969
vt -0.000031 0.500000
vt 0.000031 0.999969
vt 0.500000 0.999969
vt 0.500000 1.000031
vt 0.499756 0.500244
vt 0.999512 0.500244
vt -0.000031 1.000031
vt 0.000031 1.000031
vt 0.499756 0.000488
vt 1.000000 0.000488
vt 0.499756 0.000000
vt 0.999512 0.000000
vt -0.000031 0.500000
vt -0.000031 1.000031
vt 1.000000 0.999969
vt 0.500000 0.999969
vt 0.500000 0.500244
vt 1.000000 0.500244
s 1
usemtl MI_RM_Runedoor
f 62/1/6 61/2/6 60/3/6 59/4/6
f 52/5/5 40/6/5 38/4/5 39/3/5
f 44/7/4 47/8/4 45/9/4 46/10/4
f 26/5/6 24/7/6 25/11/6 23/9/6
f 49/12/3 57/3/3 58/5/3 50/6/3
f 39/13/5 38/10/5 36/3/5 37/11/5
f 2/14/1 4/12/1 3/3/1 1/5/1
f 1/15/1 3/12/1 32/3/1 31/5/1
f 12/16/3 10/17/3 11/3/3 9/4/3
f 33/7/5 63/4/5 64/16/5 34/17/5
f 6/8/2 8/9/2 7/5/2 5/7/2
f 41/2/2 42/3/2 8/4/2 6/1/2
f 18/18/4 15/2/4 16/7/4 17/19/4
f 53/7/2 54/5/2 42/6/2 41/20/2
f 4/21/1 2/22/1 13/15/1 14/4/1
f 36/3/5 33/4/5 34/23/5 35/17/5
f 22/10/5 20/15/5 63/4/5 33/7/5
f 15/24/4 46/2/4 48/7/4 16/20/4
f 30/3/4 29/25/4 27/26/4 28/10/4
f 37/5/5 36/6/5 35/4/5 51/3/5
f 10/16/3 49/17/3 50/3/3 11/4/3
f 20/3/5 22/27/5 21/28/5 19/5/5
f 43/29/4 44/7/4 27/20/4 29/30/4
f 47/10/4 44/31/4 43/4/4 55/3/4
f 27/7/4 15/5/4 18/15/4 28/19/4
f 60/3/6 25/10/6 24/15/6 59/4/6
f 44/11/4 46/28/4 15/5/4 27/7/4
f 46/32/4 45/33/4 56/34/4 48/31/4
f 40/3/5 21/4/5 22/16/5 38/17/5
f 38/13/5 22/10/5 33/7/5 36/11/5
