# Blender 5.0.1
# www.blender.org
mtllib BP_Button_WP_Call_Lift.mtl
o SM_Button_Call.001
v 37.500156 -37.499844 24.999994
v 37.499844 37.500153 37.500008
v 37.500156 -37.499847 37.499992
v 37.499844 37.500156 25.000006
v -37.499844 -37.500156 24.999994
v 37.500156 -37.499844 24.999994
v -37.499844 -37.500160 37.499992
v 37.500156 -37.499847 37.499992
v -37.500156 37.499844 25.000006
v -37.499844 -37.500156 24.999994
v -37.500156 37.499840 37.500008
v -37.499844 -37.500160 37.499992
v 37.499844 37.500156 25.000006
v -37.500156 37.499844 25.000006
v 37.499844 37.500153 37.500008
v -37.500156 37.499840 37.500008
v 37.500156 -37.499844 24.999994
v -37.500156 37.499844 25.000006
v 37.499844 37.500156 25.000006
v -37.499844 -37.500156 24.999994
v -37.499844 -37.500160 37.499992
v 37.499844 37.500153 37.500008
v -37.500156 37.499840 37.500008
v 37.500156 -37.499847 37.499992
vn 1.0000 -0.0000 -0.0000
vn -0.0000 -1.0000 -0.0000
vn -1.0000 -0.0000 -0.0000
vn -0.0000 1.0000 -0.0000
vn -0.0000 -0.0000 -1.0000
vn -0.0000 -0.0000 1.0000
vt 0.437500 0.437500
vt 0.437500 0.500000
vt 0.062500 0.500000
vt 0.062500 0.437500
vt 0.937500 0.437500
vt 0.562500 0.437500
vt 0.562500 0.062500
vt 0.937500 0.062500
s 1
usemtl MI_WS_Elevator_Button
f 10/1/3 12/2/3 11/3/3 9/4/3
f 20/5/5 18/6/5 19/7/5 17/8/5
f 6/1/2 8/2/2 7/3/2 5/4/2
f 4/1/1 2/2/1 3/3/1 1/4/1
f 14/1/4 16/2/4 15/3/4 13/4/4
f 24/6/6 22/7/6 23/8/6 21/5/6
