# Blender 5.0.1
# www.blender.org
mtllib BP_BrokenPortal_Warped01.mtl
o SM_BrokenPortal2__warped01.001
v -200.000000 -199.999985 99.999939
v -300.000000 -199.999985 99.999939
v -300.000000 -299.999969 99.999954
v -200.000000 -299.999969 99.999954
v -100.000000 -199.999985 99.999939
v -100.000000 -299.999969 99.999954
v 0.000000 -199.999893 699.999939
v -100.000000 -199.999893 699.999939
v -100.000000 -299.999878 700.000000
v 0.000000 -299.999878 700.000000
v 100.000000 -199.999985 99.999939
v 0.000000 -199.999985 99.999939
v 0.000000 -299.999969 99.999954
v 100.000000 -299.999969 99.999954
v 200.000000 -199.999985 49.999939
v 100.000000 -199.999985 49.999928
v 100.000000 -300.000000 49.999943
v 200.000000 -300.000000 49.999954
v -200.000000 -99.999985 99.999924
v -300.000000 -99.999985 99.999924
v -100.000000 -99.999969 199.999924
v -200.000000 -99.999969 199.999924
v -200.000000 -199.999969 199.999939
v -100.000000 -199.999969 199.999939
v 0.000000 -99.999886 699.999939
v -100.000000 -99.999886 699.999939
v 200.000000 -99.999985 99.999924
v 100.000000 -99.999985 99.999924
v 200.000000 -199.999985 99.999939
v 300.000000 -99.999992 49.999920
v 200.000000 -99.999992 49.999912
v 300.000000 -199.999985 49.999939
v -200.000000 0.000016 99.999901
v -300.000000 0.000016 99.999901
v -100.000000 0.000033 199.999908
v -200.000000 0.000033 199.999908
v 0.000000 0.000033 199.999908
v 0.000000 -99.999969 199.999924
v 200.000000 0.000016 99.999901
v 100.000000 0.000016 99.999901
v 300.000000 0.000008 49.999905
v 200.000000 0.000008 49.999893
v -200.000000 100.000015 99.999886
v -300.000000 100.000015 99.999886
v -100.000000 100.000031 199.999893
v -200.000000 100.000031 199.999893
v 0.000000 100.000031 199.999893
v 200.000000 100.000015 99.999886
v 100.000000 100.000015 99.999886
v 300.000000 100.000008 49.999889
v 200.000000 100.000008 49.999878
v -200.000000 200.000015 99.999870
v -300.000000 200.000015 99.999870
v -100.000000 200.000031 199.999878
v -200.000000 200.000031 199.999878
v 0.000000 200.000046 299.999878
v -100.000000 200.000046 299.999878
v -100.000000 100.000046 299.999878
v 0.000000 100.000046 299.999878
v 200.000000 200.000015 99.999870
v 100.000000 200.000015 99.999870
v 300.000000 200.000015 49.999870
v 200.000000 200.000015 49.999870
v -200.000000 300.000031 99.999855
v -300.000000 300.000031 99.999855
v -100.000000 300.000031 199.999863
v -200.000000 300.000031 199.999863
v 0.000000 300.000061 399.999878
v -100.000000 300.000061 399.999878
v -100.000000 200.000061 399.999878
v 0.000000 200.000061 399.999878
v 100.000000 300.000031 99.999855
v 0.000000 300.000031 99.999855
v 0.000000 200.000015 99.999870
v 200.000000 300.000000 49.999855
v 100.000000 300.000000 49.999847
v 100.000000 200.000015 49.999863
v -200.000000 -299.999969 99.999954
v -300.000000 -299.999969 99.999954
v -300.000000 -300.000000 -0.000046
v -200.000000 -300.000000 -0.000046
v -100.000000 -299.999969 99.999954
v -100.000000 -300.000000 -0.000046
v -200.000000 300.000031 99.999855
v -100.000000 300.000031 99.999855
v -100.000000 300.000000 -0.000144
v -200.000000 300.000000 -0.000144
v -300.000000 300.000031 99.999855
v -300.000000 300.000000 -0.000144
v -300.000000 200.000015 99.999870
v -300.000000 300.000031 99.999855
v -300.000000 300.000000 -0.000144
v -300.000000 200.000000 -0.000128
v -300.000000 100.000015 99.999886
v -300.000000 100.000000 -0.000112
v -300.000000 0.000016 99.999901
v -300.000000 -0.000000 -0.000095
v -300.000000 -99.999985 99.999924
v -300.000000 -100.000000 -0.000079
v -300.000000 -199.999985 99.999939
v -300.000000 -200.000000 -0.000063
v -300.000000 -299.999969 99.999954
v -300.000000 -300.000000 -0.000046
v -100.000000 -199.999969 199.999939
v -200.000000 -199.999969 199.999939
v -200.000000 -199.999985 99.999939
v -100.000000 -199.999985 99.999939
v -200.000000 300.000031 199.999863
v -100.000000 300.000031 199.999863
v -200.000000 200.000031 199.999878
v -200.000000 300.000031 199.999863
v -200.000000 300.000031 99.999855
v -200.000000 200.000015 99.999870
v -200.000000 100.000031 199.999893
v -200.000000 100.000015 99.999886
v -200.000000 0.000033 199.999908
v -200.000000 0.000016 99.999901
v -200.000000 -99.999969 199.999924
v -200.000000 -99.999985 99.999924
v -200.000000 -199.999969 199.999939
v -200.000000 -199.999985 99.999939
v 100.000000 -300.000000 49.999943
v 200.000000 -300.000000 -0.000046
v 200.000000 -300.000000 49.999954
v 100.000000 -300.000000 -0.000046
v 200.000000 -199.999985 49.999939
v 200.000000 -300.000000 49.999954
v 200.000000 -300.000000 -0.000046
v 200.000000 -200.000000 -0.000063
v 300.000000 -199.999985 49.999939
v 200.000000 -199.999985 49.999939
v 200.000000 -200.000000 -0.000063
v 300.000000 -200.000000 -0.000063
v 300.000000 -99.999992 49.999920
v 300.000000 -199.999985 49.999939
v 300.000000 -200.000000 -0.000063
v 300.000000 -100.000000 -0.000079
v 300.000000 0.000008 49.999905
v 300.000000 -0.000000 -0.000095
v 300.000000 100.000008 49.999889
v 300.000000 100.000000 -0.000112
v 300.000000 200.000015 49.999870
v 300.000000 200.000000 -0.000128
v 200.000000 200.000015 49.999870
v 300.000000 200.000015 49.999870
v 300.000000 200.000000 -0.000128
v 200.000000 200.000000 -0.000128
v 200.000000 300.000000 49.999855
v 200.000000 200.000015 49.999870
v 200.000000 200.000000 -0.000128
v 200.000000 300.000000 -0.000144
v 100.000000 300.000000 49.999847
v 200.000000 300.000000 49.999855
v 200.000000 300.000000 -0.000144
v 100.000000 300.000000 -0.000144
v 0.000000 -299.999969 99.999954
v 0.000000 -300.000000 -0.000046
v 100.000000 -299.999969 99.999954
v 0.000000 300.000031 99.999855
v 100.000000 300.000031 99.999855
v 0.000000 300.000000 -0.000144
v 100.000000 -99.999977 149.999924
v 100.000000 0.000016 99.999901
v 100.000000 0.000025 149.999908
v 100.000000 -99.999985 99.999924
v 100.000000 100.000015 99.999886
v 100.000000 100.000023 149.999893
v 0.000000 300.000031 199.999863
v 0.000000 -299.999969 199.999954
v -100.000000 -299.999969 199.999954
v -100.000000 -99.999954 299.999908
v 0.000000 -99.999954 299.999908
v 0.000000 -99.999969 199.999924
v -100.000000 -99.999969 199.999924
v -100.000000 -199.999954 299.999939
v -100.000000 -99.999954 299.999908
v -100.000000 -99.999969 199.999924
v -100.000000 -199.999969 199.999939
v -100.000000 -299.999939 299.999939
v -100.000000 -299.999969 199.999954
v 0.000000 -299.999939 299.999939
v -100.000000 -299.999939 299.999939
v 0.000000 -199.999954 299.999939
v 0.000000 -299.999939 299.999939
v 0.000000 -299.999969 199.999954
v 0.000000 -199.999969 199.999939
v 0.000000 100.000046 299.999878
v -100.000000 100.000046 299.999878
v -100.000000 100.000031 199.999893
v 0.000000 100.000031 199.999893
v 0.000000 300.000061 299.999847
v 0.000000 200.000046 299.999878
v 0.000000 200.000031 199.999878
v 0.000000 300.000031 199.999863
v -100.000000 300.000061 299.999847
v 0.000000 300.000061 299.999847
v -100.000000 200.000046 299.999878
v -100.000000 300.000061 299.999847
v -100.000000 300.000031 199.999863
v -100.000000 200.000031 199.999878
v -100.000000 100.000046 299.999878
v -100.000000 100.000031 199.999893
v -100.000000 -99.999931 399.999939
v 0.000000 -99.999931 399.999939
v -100.000000 -199.999939 399.999969
v -100.000000 -99.999931 399.999939
v -100.000000 -299.999939 399.999969
v 0.000000 -299.999939 399.999969
v -100.000000 -299.999939 399.999969
v 0.000000 -199.999939 399.999969
v 0.000000 -299.999939 399.999969
v 0.000000 -99.999931 399.999939
v 0.000000 -99.999954 299.999908
v 0.000000 200.000061 399.999878
v -100.000000 200.000061 399.999878
v -100.000000 200.000046 299.999878
v 0.000000 200.000046 299.999878
v 0.000000 300.000061 399.999878
v 0.000000 200.000061 399.999878
v -100.000000 300.000061 399.999878
v 0.000000 300.000061 399.999878
v -100.000000 200.000061 399.999878
v -100.000000 300.000061 399.999878
v -100.000000 -99.999916 499.999939
v 0.000000 -99.999916 499.999939
v -100.000000 -299.999908 499.999969
v -100.000000 -199.999924 499.999969
v 0.000000 -299.999908 499.999969
v -100.000000 -299.999908 499.999969
v 0.000000 -199.999924 499.999969
v 0.000000 -299.999908 499.999969
v -99.999908 99.999695 599.999878
v 0.000102 99.999695 599.999878
v 0.000000 100.000084 499.999908
v -100.000000 100.000084 499.999908
v -100.000000 -299.999908 600.000000
v -100.000000 -199.999908 599.999939
v 0.000000 -299.999908 600.000000
v -100.000000 -299.999908 600.000000
v 0.000000 -199.999908 599.999939
v 0.000000 -299.999908 600.000000
v -100.000000 -199.999893 699.999939
v -100.000000 -99.999886 699.999939
v -100.000000 -99.999901 599.999939
v -100.000000 -299.999878 700.000000
v 0.000000 -299.999878 700.000000
v -100.000000 -299.999878 700.000000
v 0.000000 -199.999893 699.999939
v 0.000000 -299.999878 700.000000
v 0.000000 -99.999886 699.999939
v 0.000000 -99.999901 599.999939
v -100.000000 -99.999916 499.999939
v -100.000000 0.000081 499.999908
v 0.000000 -99.999916 499.999939
v 0.000000 0.000081 499.999908
v -100.000000 0.000098 599.999939
v -100.000000 -99.999916 499.999939
v -100.000000 0.000081 499.999908
v -100.000000 -49.999878 749.999939
v 0.000000 -99.999878 749.999939
v 0.000000 -49.999878 749.999939
v -100.000000 -99.999878 749.999939
v 0.000000 0.000098 599.999939
v 0.000000 0.000081 499.999908
v 0.000000 -99.999916 499.999939
v -100.000000 100.000084 499.999908
v 0.000000 100.000084 499.999908
v -99.999908 99.999695 599.999878
v -100.000000 100.000084 499.999908
v -100.000000 50.000130 799.999939
v 0.000000 0.000130 799.999939
v 0.000000 50.000130 799.999939
v -100.000000 0.000130 799.999939
v -100.000000 -299.999969 99.999954
v -100.000000 -199.999985 99.999939
v 0.000000 -199.999969 149.999939
v 0.000002 -149.999969 199.999924
v 0.000002 -149.999969 149.999924
v 50.000000 -99.999977 149.999924
v 50.000000 0.000033 199.999908
v 50.000000 -99.999969 199.999924
v 50.000000 0.000025 149.999908
v 50.000000 100.000031 199.999893
v 50.000000 100.000023 149.999893
v 50.000000 150.000031 199.999878
v 50.000000 150.000031 149.999878
v 0.000000 150.000031 199.999878
v 0.000000 150.000031 149.999878
v 0.000000 200.000031 149.999878
v 50.000000 -149.999969 199.999924
v 50.000000 -149.999969 149.999924
v 50.000000 150.000031 199.999878
v 0.000000 150.000031 149.999878
v 0.000000 150.000031 199.999878
v 50.000000 150.000031 149.999878
v 50.000000 150.000031 199.999878
v 0.000000 150.000031 199.999878
v 50.000000 100.000031 199.999893
v 50.000000 0.000033 199.999908
v 50.000000 -99.999969 199.999924
v 0.000002 -149.999969 199.999924
v 50.000000 -149.999969 199.999924
v 50.000000 -149.999969 199.999924
v 0.000002 -149.999969 199.999924
v 50.000000 -149.999969 149.999924
v 0.000002 -149.999969 149.999924
v 100.000000 -99.999977 149.999924
v 100.000000 0.000025 149.999908
v 50.000000 0.000025 149.999908
v 50.000000 -99.999977 149.999924
v 100.000000 100.000023 149.999893
v 50.000000 100.000023 149.999893
v 100.000000 -199.999985 99.999939
v 100.000000 -299.999969 99.999954
v 100.000000 -300.000000 49.999943
v 100.000000 -199.999985 49.999928
v 100.000000 -199.999985 99.999939
v 200.000000 -199.999985 99.999939
v 100.000000 -199.999985 49.999928
v 200.000000 -99.999985 99.999924
v 200.000000 -199.999985 99.999939
v 200.000000 -99.999992 49.999912
v 200.000000 0.000016 99.999901
v 200.000000 0.000008 49.999893
v 200.000000 100.000015 99.999886
v 200.000000 100.000008 49.999878
v 200.000000 200.000015 99.999870
v 100.000000 200.000015 99.999870
v 200.000000 200.000015 99.999870
v 100.000000 200.000015 49.999863
v 100.000000 200.000015 49.999863
v 100.000000 300.000031 99.999855
v 100.000000 200.000015 99.999870
v 100.000000 300.000000 49.999847
v 100.000008 -99.999893 649.999939
v 100.000008 0.000106 649.999939
v 100.000008 -99.999886 699.999939
v 100.000008 0.000114 699.999939
v -0.000019 -99.999886 699.999939
v 100.000008 -99.999893 649.999939
v 100.000008 -99.999886 699.999939
v -0.000019 -99.999893 649.999939
v -0.000019 -99.999893 649.999939
v 100.000008 0.000106 649.999939
v 100.000008 -99.999893 649.999939
v -0.000019 0.000106 649.999939
v 100.000008 0.000106 649.999939
v -0.000019 0.000106 649.999939
v 100.000008 0.000114 699.999939
v -0.000019 0.000114 699.999939
v -0.000019 0.000114 699.999939
v 100.000008 -99.999886 699.999939
v 100.000008 0.000114 699.999939
v -0.000019 -99.999886 699.999939
v 0.000000 -99.999878 749.999939
v -100.000000 -99.999878 749.999939
v -100.000000 -99.999886 699.999939
v 0.000000 -99.999886 699.999939
v 0.000000 -99.999878 749.999939
v 0.000000 -49.999886 699.999939
v 0.000000 -49.999878 749.999939
v 0.000000 0.000122 749.999939
v 0.000000 50.000114 699.999939
v 0.000000 50.000122 749.999939
v 0.000000 0.000114 699.999939
v -100.000000 100.000122 749.999878
v 0.000000 100.000122 749.999878
v 0.000000 99.999809 699.999878
v -100.000000 99.999809 699.999878
v -100.000000 50.000122 749.999939
v -100.000000 99.999809 699.999878
v -100.000000 50.000114 699.999939
v -100.000000 100.000122 749.999878
v -100.000000 0.000122 749.999939
v -100.000000 -49.999886 699.999939
v -100.000000 -49.999878 749.999939
v -100.000000 0.000114 699.999939
v -100.000000 -49.999870 799.999939
v 0.000000 -49.999870 799.999939
v -100.000000 -99.999878 749.999939
v -100.000000 50.000122 749.999939
v 0.000000 100.000122 749.999878
v -100.000000 100.000122 749.999878
v 0.000000 50.000122 749.999939
v 0.000000 99.999809 699.999878
v 0.000000 100.000122 749.999878
v 0.000000 50.000130 799.999939
v 0.000000 0.000130 799.999939
v -100.000000 50.000130 799.999939
v 0.000000 50.000130 799.999939
v 0.000000 50.000122 749.999939
v -100.000000 50.000122 749.999939
v -100.000000 0.000130 799.999939
v -100.000000 50.000130 799.999939
v -100.000000 -49.999870 799.999939
v 0.000000 -49.999870 799.999939
v -100.000000 -49.999870 799.999939
v -100.000000 -49.999878 749.999939
v 0.000000 -49.999878 749.999939
v 0.000000 -49.999870 799.999939
v 0.000153 199.999496 699.999878
v -100.000153 199.999496 699.999878
v -100.000000 99.999809 699.999878
v 0.000000 99.999809 699.999878
v -100.000153 199.999496 699.999878
v -100.000000 199.999481 599.999878
v 0.000203 199.999481 599.999878
v 0.000153 199.999496 699.999878
v 0.000102 99.999695 599.999878
v 0.000153 199.999496 699.999878
v -100.000000 199.999481 599.999878
v -100.000153 199.999496 699.999878
v 0.000203 199.999481 599.999878
v 0.000102 99.999695 599.999878
v -100.000000 199.999481 599.999878
v 0.000203 199.999481 599.999878
v -99.999908 99.999695 599.999878
v 0.000000 300.000031 99.999855
v 0.000000 200.000015 99.999870
v 0.000002 -149.999969 149.999924
v 0.000000 -199.999969 149.999939
v 50.000000 -199.999969 149.999939
v 50.000000 -149.999969 149.999924
v 100.000000 -199.999969 149.999939
v 100.000000 -149.999969 149.999924
v 0.000000 -199.999969 149.999939
v 0.000000 -199.999985 99.999939
v 50.000000 -199.999985 99.999939
v 50.000000 -199.999969 149.999939
v 100.000000 -199.999969 149.999939
v 0.000000 -299.999969 99.999954
v 0.000000 -199.999985 99.999939
v 100.000000 -149.999985 99.999931
v 100.000000 -199.999969 149.999939
v 100.000000 -149.999969 149.999924
v 100.000000 150.000015 99.999878
v 100.000000 150.000031 149.999878
v 100.000000 200.000031 149.999878
v 0.000000 -99.999969 199.999924
v 0.000000 100.000046 299.999878
v 0.000000 100.000031 199.999893
v 50.000000 200.000031 149.999878
v 0.000000 200.000015 99.999870
v 0.000000 200.000031 149.999878
v 50.000000 200.000015 99.999870
v 100.000000 200.000031 149.999878
v 0.000000 100.000084 499.999908
v 100.000000 200.000031 149.999878
v 50.000000 200.000031 149.999878
v 100.000000 150.000031 149.999878
v 50.000000 150.000031 149.999878
v 0.000000 200.000031 149.999878
v 0.000000 150.000031 149.999878
vn -0.0000 -0.0000 1.0000
vn -0.0000 -1.0000 -0.0000
vn -0.0000 1.0000 -0.0000
vn -1.0000 -0.0000 -0.0000
vn 1.0000 -0.0000 -0.0000
vn -0.0000 -0.0000 -1.0000
vt 0.500000 0.500000
vt 0.500000 0.625000
vt 0.375000 0.625000
vt 0.375000 0.500000
vt 0.625000 0.250000
vt 0.625000 0.375000
vt 0.500000 0.375000
vt 0.500000 0.250000
vt 0.250000 0.625000
vt 0.250000 0.750000
vt 0.125000 0.750000
vt 0.125000 0.625000
vt 0.125000 0.375000
vt 0.125000 0.500000
vt 0.000031 0.500000
vt 0.000031 0.375000
vt 0.625000 0.500000
vt 0.375000 0.312500
vt 0.375000 0.375000
vt 0.250000 0.375000
vt 0.250000 0.312500
vt 0.625000 0.437500
vt 0.500000 0.437500
vt 0.375000 0.250000
vt 0.250000 0.250000
vt 0.125000 0.250000
vt 0.000031 0.250000
vt 0.312500 0.437500
vt 0.375000 0.437500
vt 0.312500 0.500000
vt 0.000031 0.750000
vt 0.000031 0.625000
vt 0.312500 0.375000
vt 0.250000 0.500000
vt 0.250000 0.437500
vt 0.250000 0.875000
vt 0.250000 0.999969
vt 0.125000 0.999969
vt 0.125000 0.875000
vt 0.750000 0.625000
vt 0.750000 0.750000
vt 0.625000 0.750000
vt 0.625000 0.625000
vt 0.062500 0.437500
vt 0.062500 0.500000
vt 0.000031 0.437500
vt -0.000031 0.500000
vt 0.250000 0.687500
vt 0.125000 0.687500
vt 0.562500 0.375000
vt 0.562500 0.437500
vt 0.625000 0.312500
vt 0.500000 0.312500
vt -0.000031 0.625000
vt 0.125000 0.437500
vt 0.250000 0.320312
vt 0.062500 0.375000
vt 0.062500 0.625000
vt 0.187500 0.750000
s 1
usemtl MI_PortalsNether
f 84/1/3 108/2/3 109/3/3 85/4/3
f 50/5/1 62/6/1 63/7/1 51/8/1
f 97/9/4 96/10/4 94/11/4 95/12/4
f 190/13/2 187/14/2 188/15/2 189/16/2
f 217/6/2 214/17/2 215/1/2 216/7/2
f 139/18/5 138/19/5 134/20/5 137/21/5
f 348/22/3 350/17/3 349/1/3 347/23/3
f 21/24/1 35/19/1 36/20/1 22/25/1
f 171/26/3 203/13/3 204/16/3 172/27/3
f 95/9/4 94/10/4 90/11/4 93/12/4
f 86/9/3 85/10/3 159/11/3 161/12/3
f 295/28/3 293/29/3 294/4/3 292/30/3
f 147/5/3 144/6/3 145/7/3 146/8/3
f 19/12/1 33/11/1 34/31/1 20/32/1
f 449/29/1 451/28/1 450/33/1 448/19/1
f 169/1/2 181/2/2 182/3/2 170/4/2
f 37/13/1 47/14/1 45/15/1 35/16/1
f 10/12/1 7/11/1 8/31/1 9/32/1
f 121/24/4 120/19/4 118/20/4 119/25/4
f 59/13/1 56/14/1 57/15/1 58/16/1
f 342/23/2 340/22/2 341/17/2 339/1/2
f 24/24/1 21/19/1 22/20/1 23/25/1
f 39/4/1 48/34/1 49/20/1 40/19/1
f 267/15/6 255/16/6 253/13/6 266/14/6
f 228/6/2 238/17/2 239/1/2 229/7/2
f 161/9/3 159/10/3 160/11/3 155/12/3
f 317/29/2 430/4/2 429/30/2 428/28/2
f 304/34/2 306/35/2 305/28/2 303/30/2
f 141/18/5 140/19/5 138/20/5 139/21/5
f 48/24/1 60/19/1 61/20/1 49/25/1
f 330/18/3 328/19/3 329/20/3 144/21/3
f 14/12/1 11/11/1 12/31/1 13/32/1
f 174/13/3 171/14/3 172/15/3 173/16/3
f 83/9/2 82/10/2 78/11/2 81/12/2
f 194/1/5 191/2/5 192/3/5 193/4/5
f 208/36/2 228/37/2 229/38/2 209/39/2
f 81/9/2 78/10/2 79/11/2 80/12/2
f 179/6/4 207/17/4 205/1/4 175/7/4
f 7/12/1 25/11/1 26/31/1 8/32/1
f 437/30/5 167/34/5 166/35/5 436/28/5
f 428/28/2 429/30/2 426/34/2 427/35/2
f 35/40/1 45/41/1 46/42/1 36/43/1
f 103/9/4 102/10/4 100/11/4 101/12/4
f 236/9/4 245/10/4 242/11/4 237/12/4
f 278/44/5 277/45/5 186/15/5 276/46/5
f 319/21/2 131/18/2 318/19/2 317/20/2
f 326/29/5 325/4/5 323/34/5 324/35/5
f 213/26/5 212/13/5 210/16/5 183/27/5
f 251/47/5 265/16/5 264/13/5 263/14/5
f 63/12/1 75/11/1 76/31/1 77/32/1
f 117/40/4 116/41/4 114/42/4 115/43/4
f 6/12/1 5/11/1 1/31/1 4/32/1
f 38/13/1 37/14/1 35/15/1 21/16/1
f 125/12/2 123/9/2 124/48/2 122/49/2
f 18/12/1 15/11/1 16/31/1 17/32/1
f 162/4/5 435/30/5 433/28/5 165/29/5
f 71/6/1 68/17/1 69/1/1 70/7/1
f 38/28/1 301/35/1 302/20/1 300/33/1
f 155/9/3 152/48/3 153/49/3 154/12/3
f 47/29/1 37/35/1 299/20/1 298/19/1
f 273/7/1 271/6/1 272/22/1 270/23/1
f 324/18/5 323/19/5 320/20/5 322/21/5
f 346/1/6 344/7/6 345/6/6 343/17/6
f 45/24/1 54/19/1 55/20/1 46/25/1
f 4/12/1 1/11/1 2/31/1 3/32/1
f 30/24/1 41/19/1 42/20/1 31/25/1
f 93/9/4 90/10/4 91/11/4 92/12/4
f 207/36/4 226/37/4 227/38/4 205/39/4
f 87/24/3 84/19/3 85/20/3 86/25/3
f 375/50/4 243/6/4 380/22/4 376/51/4
f 33/12/1 43/11/1 44/31/1 34/32/1
f 202/13/4 201/14/4 197/15/4 200/16/4
f 32/5/1 30/6/1 31/7/1 15/8/1
f 99/9/4 98/10/4 96/11/4 97/12/4
f 200/1/4 197/2/4 198/3/4 199/4/4
f 54/1/1 66/2/1 67/3/1 55/4/1
f 326/21/5 149/18/5 327/19/5 325/20/5
f 183/6/5 210/17/5 211/1/5 184/7/5
f 399/6/2 396/22/2 397/23/2 398/7/2
f 435/30/5 434/34/5 313/35/5 433/28/5
f 175/26/4 205/13/4 206/16/4 176/27/4
f 41/24/1 50/19/1 51/20/1 42/25/1
f 250/50/5 360/6/5 361/22/5 359/51/5
f 101/9/4 100/10/4 98/11/4 99/12/4
f 372/50/4 377/6/4 374/22/4 370/51/4
f 181/6/2 208/17/2 209/1/2 182/7/2
f 210/36/5 230/37/5 231/38/5 211/39/5
f 354/1/1 352/7/1 353/6/1 351/17/1
f 137/52/5 134/6/5 135/7/5 136/53/5
f 417/47/6 415/14/6 416/12/6 414/54/6
f 235/13/3 232/14/3 233/15/3 234/16/3
f 27/24/1 39/19/1 40/20/1 28/25/1
f 226/6/4 236/17/4 237/1/4 227/7/4
f 365/50/5 363/6/5 364/22/5 362/51/5
f 240/9/5 248/10/5 249/11/5 241/12/5
f 1/12/1 19/11/1 20/31/1 2/32/1
f 334/48/5 332/10/5 333/11/5 331/49/5
f 237/9/4 242/10/4 243/11/4 244/12/4
f 262/7/1 260/6/1 261/22/1 259/23/1
f 251/9/5 250/10/5 248/11/5 240/12/5
f 312/29/1 309/35/1 308/20/1 311/19/1
f 377/50/4 375/6/4 376/22/4 374/51/4
f 255/15/6 254/16/6 252/13/6 253/14/6
f 133/24/2 130/18/2 131/21/2 132/25/2
f 143/52/5 142/6/5 140/7/5 141/53/5
f 115/24/4 114/19/4 110/20/4 113/25/4
f 238/9/2 246/10/2 247/11/2 239/12/2
f 52/12/1 64/11/1 65/31/1 53/32/1
f 230/6/5 240/17/5 241/1/5 231/7/5
f 297/29/1 47/28/1 298/33/1 296/19/1
f 165/35/5 163/29/5 164/4/5 162/34/5
f 61/12/1 72/11/1 73/31/1 74/32/1
f 309/29/1 310/35/1 307/20/1 308/19/1
f 289/55/5 193/14/5 287/45/5 288/44/5
f 284/29/5 283/4/5 280/34/5 282/35/5
f 113/1/4 110/2/4 111/3/4 112/4/4
f 157/24/2 156/19/2 82/20/2 83/25/2
f 125/9/2 158/10/2 156/11/2 157/12/2
f 37/29/1 38/35/1 300/20/1 299/19/1
f 438/4/5 437/30/5 436/28/5 333/29/5
f 178/25/4 275/24/4 274/19/4 180/20/4
f 364/6/5 387/22/5 388/51/5 362/50/5
f 119/24/4 118/19/4 116/20/4 117/25/4
f 282/29/5 280/4/5 281/34/5 279/35/5
f 322/18/5 320/19/5 321/20/5 126/21/5
f 109/1/3 195/2/3 196/3/3 168/4/3
f 316/48/5 313/10/5 314/11/5 315/49/5
f 374/6/4 393/22/4 394/51/4 370/50/4
f 156/24/2 169/19/2 170/20/2 82/25/2
f 379/22/1 271/17/1 273/1/1 378/23/1
f 163/35/5 166/29/5 167/4/5 164/34/5
f 85/24/3 109/19/3 168/20/3 159/25/3
f 43/12/1 52/11/1 53/31/1 44/32/1
f 151/9/5 148/48/5 149/49/5 150/12/5
f 180/1/4 179/2/4 175/3/4 178/4/4
f 89/9/3 88/10/3 84/11/3 87/12/3
f 363/50/5 385/6/5 386/22/5 364/51/5
f 258/15/4 257/16/4 244/13/4 256/14/4
f 369/6/3 366/22/3 367/23/3 368/7/3
f 191/6/5 218/17/5 219/1/5 192/7/5
f 376/6/4 395/22/4 393/51/4 374/50/4
f 358/6/2 355/22/2 356/23/2 357/7/2
f 269/15/4 258/16/4 256/13/4 268/14/4
f 129/9/5 126/48/5 127/49/5 128/12/5
f 212/26/5 265/13/5 230/16/5 210/27/5
f 445/28/3 443/29/3 444/4/3 442/30/3
f 362/6/5 388/22/5 400/51/5 361/50/5
f 265/13/5 251/14/5 240/15/5 230/16/5
f 392/6/3 389/22/3 390/23/3 391/7/3
f 227/13/4 237/14/4 244/15/4 257/16/4
f 263/47/5 264/16/5 447/13/5 409/14/5
f 404/12/1 401/11/1 402/31/1 403/54/1
f 268/9/4 371/10/4 405/11/4 406/12/4
f 409/12/5 407/9/5 408/10/5 385/11/5
f 413/12/3 411/9/3 412/10/3 410/11/3
f 289/56/5 194/19/5 193/20/5
f 194/19/5 289/56/5 418/24/5
f 419/25/5 418/24/5 289/56/5
f 186/1/5 183/2/5 184/3/5 185/4/5
f 360/50/5 365/6/5 362/22/5 361/51/5
f 205/26/4 227/13/4 257/16/4 206/27/4
f 336/22/5 338/17/5 337/1/5 335/23/5
f 203/26/3 224/13/3 225/16/3 204/27/3
f 29/24/1 27/19/1 28/20/1 11/25/1
f 452/4/1 453/30/1 451/28/1 449/29/1
f 195/6/3 220/17/3 221/1/3 196/7/3
f 107/24/2 104/19/2 105/20/2 106/25/2
f 186/19/5 185/20/5 276/18/5
f 431/25/5 276/18/5 185/20/5
f 432/24/5 276/18/5 431/25/5
f 279/29/5 281/4/5 290/30/5 291/28/5
f 197/6/4 222/17/4 223/1/4 198/7/4
f 178/13/4 175/14/4 176/15/4 177/16/4
f 286/28/5 285/30/5 283/34/5 284/35/5
f 186/16/5 277/57/5 183/15/5
f 213/14/5 183/15/5 277/57/5
f 439/13/5 213/14/5 277/57/5
f 441/16/5 287/57/5 440/15/5
f 192/14/5 440/15/5 287/57/5
f 193/13/5 192/14/5 287/57/5
f 243/12/4 375/58/4 244/14/4
f 244/14/4 375/58/4 256/47/4
f 377/54/4 256/47/4 375/58/4
f 365/10/5 360/59/5 263/9/5
f 263/9/5 360/59/5 251/12/5
f 250/11/5 251/12/5 360/59/5
f 377/12/4 372/58/4 256/14/4
f 256/14/4 372/58/4 268/47/4
f 371/54/4 268/47/4 372/58/4
f 424/20/1 425/33/1 423/28/1 422/35/1
f 422/35/1 423/28/1 420/30/1 421/34/1
f 373/51/4 371/50/4 372/6/4 370/22/4
f 409/14/5 363/58/5 263/47/5
f 385/12/5 363/58/5 409/14/5
f 365/54/5 263/47/5 363/58/5
f 328/35/3 445/28/3 442/30/3 446/34/3
f 384/22/1 382/17/1 383/1/1 381/23/1
f 425/33/1 307/19/1 310/29/1 423/28/1
f 451/28/1 312/35/1 311/20/1 450/33/1
