# Blender 5.0.1
# www.blender.org
mtllib BP_Boat.mtl
o SM_Boat_Boat.001
v -31.249996 12.500005 6.249996
v 31.250008 12.500005 6.250008
v 0.000007 43.750011 6.250009
v 0.000000 43.750000 37.500004
v -25.000000 18.750000 37.500000
v 25.000000 18.749996 37.500000
v 43.750000 -100.000000 43.750004
v -43.750000 -100.000000 43.750004
v -43.750000 -100.000000 -0.000006
v 43.750000 -100.000000 -0.000006
v 31.250004 -93.750000 6.249995
v -31.250002 -93.750000 6.249995
v 43.750000 -100.000000 43.750004
v 43.750000 12.500007 -0.000001
v 43.750000 12.500010 43.750008
v 43.750000 -100.000000 -0.000006
v -43.750000 -100.000000 43.750004
v -43.750000 12.500010 43.749996
v -43.750000 -100.000000 -0.000006
v -43.750000 12.500007 -0.000001
v 43.750000 12.500007 -0.000001
v 0.000000 56.250000 0.000000
v 0.000000 56.250004 43.750011
v 43.750000 12.500010 43.750008
v 0.000000 56.250000 0.000000
v -43.750000 12.500007 -0.000001
v -43.750000 12.500010 43.749996
v 0.000000 56.250004 43.750011
v -43.750000 -100.000000 43.750004
v 43.750000 -100.000000 43.750004
v 31.249998 -93.750000 43.749996
v -31.250004 -93.750000 43.749996
v 43.750000 12.500010 43.750008
v 31.250002 12.500001 43.750008
v -43.750000 12.500010 43.749996
v -31.250002 12.500001 43.749996
v 0.000000 43.750004 43.750011
v 0.000000 56.250004 43.750011
v -31.250002 -93.750000 6.249995
v 31.249998 -93.750000 43.749996
v 31.250004 -93.750000 6.249995
v -31.250004 -93.750000 43.749996
v 31.250008 12.500005 6.250008
v 31.250004 -93.750000 6.249995
v 31.249998 -93.750000 43.749996
v 31.250002 12.500001 43.750008
v -31.250002 -93.750000 6.249995
v -31.250002 12.500001 43.749996
v -31.250004 -93.750000 43.749996
v -31.249996 12.500005 6.249996
v 31.250008 12.500005 6.250008
v 0.000000 43.750004 43.750011
v 0.000007 43.750011 6.250009
v 31.250002 12.500001 43.750008
v -31.250002 12.500001 43.749996
v 0.000007 43.750011 6.250009
v 0.000000 43.750004 43.750011
v -31.249996 12.500005 6.249996
v 31.250000 -75.000000 37.499992
v -31.250000 -75.000000 37.499992
v -31.250000 -75.000000 31.249996
v 31.250000 -75.000000 31.249996
v -31.250000 -75.000000 37.499992
v 31.250000 -75.000000 37.499992
v 31.250000 -56.250000 37.499992
v -31.250000 -56.250000 37.499992
v 31.250000 -56.250000 31.249998
v -31.250000 -56.250000 31.249998
v -31.250000 -56.250000 37.499992
v 31.250000 -56.250000 37.499992
v 31.250000 -31.250002 37.499996
v -31.250000 -31.250002 37.499996
v -31.250000 -31.250002 31.249998
v 31.250000 -31.250002 31.249998
v -31.250000 -31.250002 37.499996
v 31.250000 -31.250002 37.499996
v 31.250000 -12.500002 37.499996
v -31.250000 -12.500002 37.499996
v 31.250000 -12.500001 31.250000
v -31.250000 -12.500001 31.250000
v -31.250000 -12.500002 37.499996
v 31.250000 -12.500002 37.499996
v 25.000000 18.749996 37.500000
v -25.000000 18.750000 37.500000
v 25.000000 18.749998 6.250001
v -25.000000 18.750002 6.250001
v 43.750000 -100.000000 -0.000006
v -43.750000 -100.000000 -0.000006
v -43.750000 12.500007 -0.000001
v 43.750000 12.500007 -0.000001
v 0.000000 56.250000 0.000000
vn -0.0000 -0.0000 1.0000
vn -0.0000 -1.0000 -0.0000
vn 1.0000 -0.0000 -0.0000
vn -1.0000 -0.0000 -0.0000
vn 0.7071 0.7071 -0.0000
vn -0.7071 0.7071 -0.0000
vn -0.0000 1.0000 -0.0000
vn -0.7071 -0.7071 -0.0000
vn 0.7071 -0.7071 -0.0000
vn -0.0000 -0.0000 -1.0000
vt 0.468750 0.375000
vt 0.625000 0.218750
vt 0.625000 0.531250
vt 0.937500 0.000000
vt 0.812500 0.125000
vt 0.687500 0.000000
vt 0.937500 0.093750
vt 0.937500 0.187500
vt 0.625000 0.187500
vt 0.625000 0.093750
vt 0.562500 0.750000
vt 0.562500 0.531250
vt 0.875000 0.531250
vt 0.875000 0.750000
vt 0.062500 0.250000
vt 0.375000 0.250000
vt 0.375000 0.437500
vt 0.062500 0.437500
vt 0.000031 0.531250
vt 0.000031 0.750000
vt 0.625000 0.812500
vt 0.843750 0.812500
vt 0.843750 0.999969
vt 0.625000 0.999969
vt 0.312500 0.999969
vt 0.312500 0.812500
vt 0.000031 0.218750
vt 0.437500 0.218750
vt 0.312500 0.750000
vt 0.843750 0.750000
vt 0.875000 0.812500
vt 0.281250 0.781250
vt 0.031250 0.781250
vt 0.468750 0.531250
vt 0.468750 0.218750
vt 1.000000 0.218750
vt 1.000000 0.531250
vt 0.312500 0.531250
vt 0.093750 0.999969
vt 0.093750 0.812500
vt 0.625000 0.062500
vt 0.937500 0.062500
vt 0.437500 0.000000
vt 0.000031 0.000000
vt 0.437500 0.156250
vt 0.687500 0.156250
vt 0.937500 0.218750
vt 0.531250 0.156250
vt 0.531250 0.218750
vt 0.500000 0.187500
vt 0.625000 0.156250
s 1
usemtl MI_Boat
f 3/1/1 1/2/1 2/3/1
f 6/4/1 4/5/1 5/6/1
f 66/7/1 63/8/1 64/9/1 65/10/1
f 24/11/5 21/12/5 22/13/5 23/14/5
f 42/15/7 40/16/7 41/17/7 39/18/7
f 16/19/3 14/12/3 15/11/3 13/20/3
f 54/21/8 52/22/8 53/23/8 51/24/8
f 50/25/3 48/26/3 49/22/3 47/23/3
f 31/16/1 29/27/1 30/28/1
f 32/15/1 29/27/1 31/16/1
f 34/29/1 31/30/1 33/26/1
f 30/31/1 33/26/1 31/30/1
f 29/14/1 32/22/1 35/29/1
f 36/26/1 35/29/1 32/22/1
f 38/29/1 37/32/1 33/20/1
f 34/33/1 33/20/1 37/32/1
f 36/32/1 37/33/1 35/29/1
f 38/20/1 35/29/1 37/33/1
f 2/34/1 1/35/1 12/36/1 11/37/1
f 20/38/4 19/13/4 17/14/4 18/29/4
f 58/25/9 56/39/9 57/40/9 55/26/9
f 28/20/6 25/19/6 26/38/6 27/29/6
f 70/10/7 67/41/7 68/42/7 69/7/7
f 45/40/4 46/21/4 43/24/4 44/39/4
f 10/43/2 7/28/2 8/27/2 9/44/2
f 84/45/2 86/43/2 85/6/2 83/46/2
f 62/2/2 59/9/2 60/8/2 61/47/2
f 78/7/1 75/8/1 76/9/1 77/10/1
f 82/10/7 79/41/7 80/42/7 81/7/7
f 74/2/2 71/9/2 72/8/2 73/47/2
f 90/48/10 89/49/10 91/50/10
f 90/48/10 87/51/10 88/2/10 89/49/10
