# Blender 5.0.1
# www.blender.org
mtllib BP_Button_Straight.mtl
o SM_Button_button.001
v -37.500000 37.500004 37.499992
v -37.500000 -37.500000 25.000006
v -37.500000 -37.499996 37.500008
v -37.500000 37.500000 24.999994
v 37.500000 37.500004 37.499992
v -37.500000 37.500000 24.999994
v -37.500000 37.500004 37.499992
v 37.500000 37.500000 24.999994
v 37.500000 -37.499996 37.500008
v 37.500000 37.500000 24.999994
v 37.500000 37.500004 37.499992
v 37.500000 -37.500000 25.000006
v -37.500000 -37.499996 37.500008
v 37.500000 -37.500000 25.000006
v 37.500000 -37.499996 37.500008
v -37.500000 -37.500000 25.000006
v 37.500000 -37.500000 25.000006
v -37.500000 -37.500000 25.000006
v -37.500000 37.500000 24.999994
v 37.500000 37.500000 24.999994
v -37.500000 37.500004 37.499992
v -37.500000 -37.499996 37.500008
v 37.500000 37.500004 37.499992
v 37.500000 -37.499996 37.500008
vn -1.0000 -0.0000 -0.0000
vn -0.0000 1.0000 -0.0000
vn 1.0000 -0.0000 -0.0000
vn -0.0000 -1.0000 -0.0000
vn -0.0000 -0.0000 -1.0000
vn -0.0000 -0.0000 1.0000
vt 0.500000 0.562500
vt 0.875000 0.562500
vt 0.875000 0.625000
vt 0.500000 0.625000
vt 0.875000 0.999969
vt 0.500000 0.999969
vt 0.437500 0.562500
vt 0.437500 0.937500
vt 0.062500 0.937500
vt 0.062500 0.562500
s 1
usemtl M_BaseButton
f 12/1/3 10/2/3 11/3/3 9/4/3
f 20/5/5 17/6/5 18/4/5 19/3/5
f 8/1/2 6/2/2 7/3/2 5/4/2
f 4/1/1 2/2/1 3/3/1 1/4/1
f 16/1/4 14/2/4 15/3/4 13/4/4
f 24/7/6 23/8/6 21/9/6 22/10/6
