# Blender 5.0.1
# www.blender.org
mtllib BP_Bamboo_Cog.mtl
o SM_BambooCog.001
v 34.375000 -34.375000 -0.000000
v -34.375000 -34.375000 -0.000000
v 34.375000 34.375000 0.000000
v -34.375000 34.375000 0.000000
v 34.375000 34.375000 43.750000
v -34.375000 34.375000 43.750000
v -34.375000 -34.375000 43.750000
v 34.375000 -34.375000 43.750000
v 34.375000 -34.375000 43.750000
v -34.375000 -34.375000 43.750000
v -34.375000 -34.375000 -0.000000
v 34.375000 -34.375000 -0.000000
v 34.375000 34.375000 43.750000
v 34.375000 -34.375000 43.750000
v 34.375000 -34.375000 -0.000000
v 34.375000 34.375000 0.000000
v -34.375000 34.375000 43.750000
v 34.375000 34.375000 43.750000
v 34.375000 34.375000 0.000000
v -34.375000 34.375000 0.000000
v -34.375000 -34.375000 43.750000
v -34.375000 34.375000 43.750000
v -34.375000 34.375000 0.000000
v -34.375000 -34.375000 -0.000000
v 9.375003 34.375000 31.250000
v -9.374999 34.375000 12.500003
v 9.375001 34.375000 12.500001
v -9.374997 34.375000 31.250004
v -9.374997 78.125000 31.250002
v 9.375003 78.125000 31.250000
v 9.375001 78.125000 12.500000
v -9.374999 78.125000 12.500002
v -9.374999 78.125000 12.500002
v 9.375001 34.375000 12.500001
v -9.374999 34.375000 12.500003
v 9.375001 78.125000 12.500000
v -9.374997 78.125000 31.250002
v -9.374999 34.375000 12.500003
v -9.374997 34.375000 31.250004
v -9.374999 78.125000 12.500002
v -9.374997 78.125000 31.250002
v -9.374997 34.375000 31.250004
v 9.375003 78.125000 31.250000
v 9.375003 34.375000 31.250000
v 9.375001 34.375000 12.500001
v 9.375003 78.125000 31.250000
v 9.375003 34.375000 31.250000
v 9.375001 78.125000 12.500000
v -34.375000 -9.374997 31.250004
v -34.375000 -9.374997 12.500004
v -34.375000 9.375003 31.250004
v -34.375000 9.375003 12.500004
v -78.125000 -9.374993 31.250006
v -78.125000 9.375007 31.250006
v -78.125000 -9.374993 12.500006
v -78.125000 9.375007 12.500006
v -34.375000 9.375003 12.500004
v -78.125000 9.375007 12.500006
v -34.375000 9.375003 31.250004
v -78.125000 9.375007 31.250006
v -78.125000 -9.374993 12.500006
v -34.375000 9.375003 12.500004
v -34.375000 -9.374997 12.500004
v -78.125000 9.375007 12.500006
v -34.375000 -9.374997 31.250004
v -78.125000 -9.374993 12.500006
v -34.375000 -9.374997 12.500004
v -78.125000 -9.374993 31.250006
v -34.375000 9.375003 31.250004
v -78.125000 -9.374993 31.250006
v -34.375000 -9.374997 31.250004
v -78.125000 9.375007 31.250006
v -9.375003 -34.375000 31.250002
v 9.374997 -34.375000 31.250002
v 9.374997 -34.375000 12.500002
v -9.375003 -34.375000 12.500002
v -9.375001 -78.125000 31.250002
v 9.374999 -78.125000 12.500002
v 9.374999 -78.125000 31.250002
v -9.375001 -78.125000 12.500002
v 9.374999 -78.125000 31.250002
v 9.374997 -34.375000 12.500002
v 9.374997 -34.375000 31.250002
v 9.374999 -78.125000 12.500002
v -9.375003 -34.375000 31.250002
v -9.375001 -78.125000 31.250002
v 9.374997 -34.375000 31.250002
v 9.374999 -78.125000 31.250002
v -9.375003 -34.375000 12.500002
v -9.375001 -78.125000 12.500002
v -9.375003 -34.375000 31.250002
v -9.375001 -78.125000 31.250002
v -9.375001 -78.125000 12.500002
v 9.374997 -34.375000 12.500002
v 9.374999 -78.125000 12.500002
v -9.375003 -34.375000 12.500002
v 34.375000 9.375000 31.250000
v 34.375000 9.375000 12.500000
v 34.375000 -9.375000 31.250000
v 34.375000 -9.375000 12.500000
v 78.125000 9.375000 31.249998
v 78.125000 -9.375000 31.249998
v 78.125000 9.375000 12.499998
v 78.125000 -9.375000 12.499998
v 34.375000 -9.375000 12.500000
v 78.125000 -9.375000 31.249998
v 34.375000 -9.375000 31.250000
v 78.125000 -9.375000 12.499998
v 34.375000 9.375000 12.500000
v 78.125000 9.375000 12.499998
v 34.375000 -9.375000 12.500000
v 78.125000 -9.375000 12.499998
v 78.125000 9.375000 31.249998
v 34.375000 9.375000 12.500000
v 34.375000 9.375000 31.250000
v 78.125000 9.375000 12.499998
v 34.375000 -9.375000 31.250000
v 78.125000 -9.375000 31.249998
v 34.375000 9.375000 31.250000
v 78.125000 9.375000 31.249998
vn -0.0000 -0.0000 -1.0000
vn -0.0000 -0.0000 1.0000
vn -0.0000 -1.0000 -0.0000
vn 1.0000 -0.0000 -0.0000
vn -0.0000 1.0000 -0.0000
vn -1.0000 -0.0000 -0.0000
vt 0.217529 0.377930
vt 0.217529 0.466797
vt 0.001863 0.466797
vt 0.001863 0.377930
vt 0.220825 0.377441
vt 0.310303 0.377441
vt 0.310303 0.466797
vt 0.220825 0.466797
vt 0.217651 0.377441
vt 0.217651 0.466309
vt 0.002005 0.466309
vt 0.002005 0.377441
vt 0.001821 0.471680
vt 0.217529 0.471680
vt 0.217529 0.560303
vt 0.001821 0.560303
vt 0.001020 0.342773
vt 0.001020 0.000977
vt 0.341797 0.000977
vt 0.341797 0.342773
vt 0.378906 0.002930
vt 0.591797 0.002930
vt 0.591797 0.341309
vt 0.378906 0.341309
vt 0.217773 0.377441
vt 0.217773 0.466309
vt 0.002056 0.466309
vt 0.002056 0.377441
vt 0.344971 0.376465
vt 0.686035 0.376465
vt 0.686035 0.718018
vt 0.344971 0.718018
vt 0.310547 0.560303
vt 0.220825 0.560303
vt 0.220825 0.470703
vt 0.310547 0.470703
vt 0.001986 0.466309
vt 0.001986 0.377441
vt 0.220947 0.467285
vt 0.220947 0.377441
vt 0.310547 0.377441
vt 0.310547 0.467285
vt 0.217407 0.560547
vt 0.001678 0.560547
vt 0.001678 0.471680
vt 0.217407 0.471680
vt 0.217529 0.560059
vt 0.001873 0.560059
vt 0.001873 0.471191
vt 0.217529 0.471191
vt 0.001801 0.560303
vt 0.001801 0.471680
s 1
usemtl MI_BambooBluff_Cog
f 108/1/3 106/2/3 107/3/3 105/4/3
f 76/5/5 73/6/5 74/7/5 75/8/5
f 58/1/5 60/2/5 59/3/5 57/4/5
f 28/6/3 26/7/3 27/8/3 25/5/3
f 90/9/6 92/10/6 91/11/6 89/12/6
f 44/13/2 43/14/2 41/15/2 42/16/2
f 2/17/1 4/18/1 3/19/1 1/20/1
f 36/2/1 34/3/1 35/4/1 33/1/1
f 12/21/3 9/22/3 10/23/3 11/24/3
f 110/25/1 112/26/1 111/27/1 109/28/1
f 8/29/2 5/30/2 6/31/2 7/32/2
f 52/7/4 51/8/4 49/5/4 50/6/4
f 20/23/5 17/24/5 18/21/5 19/22/5
f 80/33/3 78/34/3 79/35/3 77/36/3
f 16/21/4 13/22/4 14/23/4 15/24/4
f 40/26/6 38/27/6 39/28/6 37/25/6
f 116/10/5 114/11/5 115/12/5 113/9/5
f 64/26/1 62/27/1 63/28/1 61/25/1
f 32/35/5 29/36/5 30/33/5 31/34/5
f 72/9/2 70/10/2 71/37/2 69/38/2
f 68/9/3 66/10/3 67/11/3 65/12/3
f 24/23/6 21/24/6 22/21/6 23/22/6
f 54/39/6 56/40/6 55/41/6 53/42/6
f 84/43/4 82/44/4 83/45/4 81/46/4
f 96/37/1 94/38/1 95/9/1 93/10/1
f 102/39/4 104/40/4 103/41/4 101/42/4
f 100/7/6 99/8/6 97/5/6 98/6/6
f 88/47/2 87/48/2 85/49/2 86/50/2
f 48/14/4 46/15/4 47/51/4 45/52/4
f 118/9/2 120/10/2 119/37/2 117/38/2
