# Blender 5.0.1
# www.blender.org
mtllib BP_Button_Jungle.mtl
o SM_DJ_Switch_top.001
v 37.500000 37.500000 50.000000
v -37.500000 37.500000 50.000000
v -37.500000 -37.500000 50.000000
v 37.500000 -37.500000 50.000000
v 37.500000 -37.500000 50.000000
v -37.500000 -37.500000 50.000000
v -37.500000 -37.500000 37.500000
v 37.500000 -37.500000 37.500000
v 37.500000 37.500000 50.000000
v 37.500000 -37.500000 50.000000
v 37.500000 -37.500000 37.500000
v 37.500000 37.500000 37.500000
v -37.500000 37.500000 50.000000
v 37.500000 37.500000 50.000000
v 37.500000 37.500000 37.500000
v -37.500000 37.500000 37.500000
v -37.500000 -37.500000 50.000000
v -37.500000 37.500000 50.000000
v -37.500000 37.500000 37.500000
v -37.500000 -37.500000 37.500000
vn -0.0000 -0.0000 1.0000
vn -0.0000 -1.0000 -0.0000
vn 1.0000 -0.0000 -0.0000
vn -0.0000 1.0000 -0.0000
vn -1.0000 -0.0000 -0.0000
vt 0.904785 0.376465
vt 0.904785 0.437012
vt 0.532227 0.437012
vt 0.532227 0.376465
vt 0.904297 0.001465
vt 0.904297 0.374023
vt 0.531738 0.374023
vt 0.531738 0.001465
vt 0.905273 0.438477
vt 0.905273 0.499512
vt 0.532715 0.499512
vt 0.532715 0.438477
vt 0.904785 0.438477
vt 0.904785 0.499512
vt 0.532227 0.499512
vt 0.532227 0.438477
s 1
usemtl MI_DingyJungle_Switch
f 8/1/2 5/2/2 6/3/2 7/4/2
f 16/1/4 13/2/4 14/3/4 15/4/4
f 4/5/1 1/6/1 2/7/1 3/8/1
f 12/9/3 9/10/3 10/11/3 11/12/3
f 20/13/5 17/14/5 18/15/5 19/16/5
