# Blender 5.0.1
# www.blender.org
mtllib BP_Banner.mtl
o SK_Banner.001
v 11.645656 -63.716240 314.573029
v 18.616854 -64.784912 81.885376
v 18.553514 62.662312 81.298248
v 11.582318 63.730988 313.985809
v 6.393900 6.393900 365.853394
v 6.393900 6.393900 -0.000000
v -6.393900 6.393900 -0.000000
v -6.393900 6.393900 365.853394
v 6.393900 -6.393900 365.853394
v 6.393900 -6.393900 0.000000
v 6.393900 6.393900 -0.000000
v 6.393900 6.393900 365.853394
v -6.393900 -6.393900 365.853394
v 6.393900 -6.393900 0.000000
v 6.393900 -6.393900 365.853394
v -6.393900 -6.393900 0.000000
v 6.393900 -6.393900 0.000000
v -6.393900 -6.393900 0.000000
v -6.393900 6.393900 -0.000000
v 6.393900 6.393900 -0.000000
v -6.393900 -6.393900 365.853394
v 6.393900 -6.393900 365.853394
v 6.393900 6.393900 365.853394
v -6.393900 6.393900 365.853394
v -6.393900 -6.393900 0.000000
v -6.393900 -6.393900 365.853394
v -6.393900 6.393900 365.853394
v -6.393900 6.393900 -0.000000
v 19.010399 -78.125801 322.494995
v 6.222600 78.238098 322.494995
v 6.222600 -78.125801 322.494995
v 19.010399 78.238098 322.494995
v 19.010399 -78.125801 309.707092
v 19.010399 78.238098 322.494995
v 19.010399 -78.125801 322.494995
v 19.010399 78.238098 309.707092
v 6.222600 -78.125801 309.707092
v 19.010399 78.238098 309.707092
v 19.010399 -78.125801 309.707092
v 6.222600 78.238098 309.707092
v 19.010399 78.238098 309.707092
v 6.222600 78.238098 309.707092
v 6.222600 78.238098 322.494995
v 19.010399 78.238098 322.494995
v 6.222600 -78.125801 309.707092
v 19.010399 -78.125801 322.494995
v 6.222600 -78.125801 322.494995
v 19.010399 -78.125801 309.707092
v 6.222600 -78.125801 322.494995
v 6.222600 78.238098 309.707092
v 6.222600 -78.125801 309.707092
v 6.222600 78.238098 322.494995
vn 0.9996 0.0006 0.0299
vn -0.0000 1.0000 -0.0000
vn 1.0000 -0.0000 -0.0000
vn -0.0000 -1.0000 -0.0000
vn -0.0000 -0.0000 -1.0000
vn -0.0000 -0.0000 1.0000
vn -1.0000 -0.0000 -0.0000
vt 0.921875 0.906250
vt 0.921875 0.953125
vt 0.421875 0.953125
vt 0.421875 0.906250
vt 0.000031 0.140625
vt 0.000031 0.093750
vt 1.000000 0.093750
vt 1.000000 0.140625
vt 0.421875 0.859375
vt 0.421875 0.812500
vt 0.921875 0.812500
vt 0.921875 0.859375
vt 0.968750 0.906250
vt 0.968750 0.953125
vt 0.000031 0.000000
vt 1.000000 0.000000
vt 1.000000 0.046875
vt 0.000031 0.046875
vt 0.968750 0.859375
vt 0.000031 0.187500
vt 1.000000 0.187500
vt 0.046875 0.187500
vt 0.046875 0.234375
vt 0.000031 0.234375
vt 0.421875 0.999969
vt 0.000031 0.999969
vt 0.000031 0.281250
vt 0.421875 0.281250
vt 0.093750 0.187500
vt 0.093750 0.234375
vt 0.921875 0.999969
s 1
usemtl M_Banner
f 32/1/6 30/2/6 31/3/6 29/4/6
f 16/5/4 14/6/4 15/7/4 13/8/4
f 40/9/5 38/10/5 39/11/5 37/12/5
f 44/2/2 41/1/2 42/13/2 43/14/2
f 7/15/2 8/16/2 5/17/2 6/18/2
f 48/19/4 46/13/4 47/1/4 45/12/4
f 12/18/3 9/15/3 10/16/3 11/17/3
f 28/20/7 25/5/7 26/8/7 27/21/7
f 20/22/5 17/23/5 18/24/5 19/20/5
f 36/12/3 34/1/3 35/4/3 33/9/3
f 4/25/1 1/26/1 2/27/1 3/28/1
f 24/22/6 21/29/6 22/30/6 23/23/6
f 52/25/7 50/3/7 51/2/7 49/31/7
