# Blender 5.0.1
# www.blender.org
mtllib BP_BlockingDoor_DT_4x4.mtl
o SM_DT_Runedoor2.001
v 0.000107 -150.000000 100.000000
v -99.999893 -150.000061 100.000000
v -99.999893 -150.000061 0.000000
v 0.000107 -150.000000 0.000000
v 0.000107 -150.000000 400.000000
v 0.000031 -49.999996 400.000000
v -99.999893 -150.000061 400.000000
v -99.999969 -50.000069 400.000000
v 0.000031 -49.999996 -0.000000
v -99.999969 -50.000069 -0.000000
v -99.999969 -50.000069 100.000000
v 0.000031 -49.999996 100.000000
v 0.000107 -150.000000 0.000000
v -99.999893 -150.000061 0.000000
v -99.999969 -50.000069 -0.000000
v 0.000031 -49.999996 -0.000000
v 100.000099 -149.999924 100.000000
v 100.000099 -149.999924 0.000000
v 100.000038 -49.999924 100.000000
v 100.000038 -49.999924 -0.000000
v -299.999908 -150.000229 100.000000
v -299.999969 -50.000229 -0.000000
v -299.999908 -150.000229 0.000000
v -299.999969 -50.000229 100.000000
v 100.000099 -149.999924 0.000000
v 100.000038 -49.999924 -0.000000
v 100.000038 -49.999924 -0.000000
v 100.000038 -49.999924 100.000000
v 100.000099 -149.999924 400.000000
v 100.000038 -49.999924 400.000000
v 100.000099 -149.999924 100.000000
v 100.000099 -149.999924 0.000000
v -199.999893 -150.000137 0.000000
v -199.999969 -50.000141 -0.000000
v -199.999893 -150.000137 100.000000
v -199.999893 -150.000137 0.000000
v -199.999893 -150.000137 400.000000
v -199.999969 -50.000141 400.000000
v -199.999969 -50.000141 -0.000000
v -199.999969 -50.000141 100.000000
v -299.999969 -50.000229 -0.000000
v -299.999908 -150.000229 0.000000
v -299.999908 -150.000229 100.000000
v -299.999908 -150.000229 0.000000
v -299.999908 -150.000229 400.000000
v -299.999969 -50.000229 400.000000
v -299.999969 -50.000229 -0.000000
v -299.999969 -50.000229 100.000000
v 0.000107 -150.000000 200.000000
v -99.999893 -149.999878 200.000000
v -99.999969 -50.000069 200.000000
v 0.000031 -49.999996 200.000000
v 100.000099 -149.999924 200.000000
v 100.000099 -149.999924 200.000000
v 100.000038 -49.999924 200.000000
v 100.000038 -49.999924 200.000000
v -199.999969 -50.000141 200.000000
v -199.999893 -149.999954 200.000000
v -299.999969 -50.000229 200.000000
v -299.999908 -150.000229 200.000000
v -299.999969 -50.000229 200.000000
v -299.999908 -150.000229 200.000000
v 0.000107 -150.000000 300.000000
v -99.999893 -149.999878 300.000000
v -99.999969 -50.000069 300.000000
v 0.000031 -49.999996 300.000000
v 100.000099 -149.999924 300.000000
v 100.000099 -149.999924 300.000000
v 100.000038 -49.999924 300.000000
v 100.000038 -49.999924 300.000000
v -199.999969 -50.000141 300.000000
v -199.999893 -149.999954 300.000000
v -299.999969 -50.000229 300.000000
v -299.999908 -150.000229 300.000000
v -299.999969 -50.000229 300.000000
v -299.999908 -150.000229 300.000000
v 0.000107 -150.000000 400.000000
v -99.999893 -150.000061 400.000000
v -99.999969 -50.000069 400.000000
v 0.000031 -49.999996 400.000000
v 100.000099 -149.999924 400.000000
v 100.000099 -149.999924 400.000000
v 100.000038 -49.999924 400.000000
v 100.000038 -49.999924 400.000000
v -199.999969 -50.000141 400.000000
v -199.999893 -150.000137 400.000000
v -299.999969 -50.000229 400.000000
v -299.999908 -150.000229 400.000000
v -299.999969 -50.000229 400.000000
v -299.999908 -150.000229 400.000000
vn -0.0000 -1.0000 -0.0000
vn -0.0000 -0.0000 1.0000
vn -0.0000 1.0000 -0.0000
vn -0.0000 -0.0000 -1.0000
vn 1.0000 -0.0000 -0.0000
vn -1.0000 -0.0000 -0.0000
vt 1.000000 0.500000
vt 0.500000 0.500000
vt 0.500000 0.000000
vt 1.000000 0.000000
vt 0.000031 0.500000
vt 0.000031 0.000488
vt 0.500000 0.000488
vt 0.999512 0.500000
vt 0.499756 0.500000
vt 0.499756 0.000000
vt 0.000031 0.500000
vt 0.000031 0.000000
vt 0.000031 0.000000
vt 0.499756 0.000488
vt 1.000000 0.000488
vt 0.999512 0.000000
vt 0.500000 0.500244
vt 0.000031 0.500244
vt 0.999512 0.000488
vt 0.000031 0.500244
vt -0.000031 0.500000
vt -0.000031 0.000488
vt 0.000031 0.500000
vt 0.000031 0.000000
s 1
usemtl MI_DT_Trap_Crusher
f 13/1/4 16/2/4 26/3/4 25/4/4
f 84/5/3 70/6/3 66/7/3 80/2/3
f 71/2/3 57/3/3 59/4/3 73/8/3
f 17/3/5 19/4/5 55/1/5 54/2/5
f 50/4/1 64/1/1 72/9/1 58/10/1
f 34/2/4 15/3/4 14/4/4 33/1/4
f 57/2/3 40/3/3 48/4/3 59/1/3
f 75/2/6 61/3/6 60/4/6 74/1/6
f 44/3/1 36/4/1 35/1/1 43/2/1
f 16/3/4 13/4/4 14/1/4 15/2/4
f 8/3/2 7/2/2 5/11/2 6/12/2
f 51/2/3 11/3/3 40/4/3 57/1/3
f 79/5/3 65/13/3 71/10/3 85/9/3
f 4/4/1 1/1/1 2/2/1 3/3/1
f 1/4/1 49/1/1 50/9/1 2/10/1
f 12/2/3 9/14/3 10/15/3 11/8/3
f 42/1/4 41/2/4 34/3/4 33/4/4
f 52/9/3 12/10/3 11/16/3 51/8/3
f 63/3/1 77/17/1 78/18/1 64/12/1
f 9/19/3 12/8/3 28/9/3 27/10/3
f 70/2/3 56/3/3 52/4/3 66/8/3
f 40/8/3 11/2/3 10/14/3 39/15/3
f 24/2/6 22/3/6 23/4/6 21/1/6
f 7/11/2 8/12/2 38/3/2 37/2/2
f 49/4/1 63/1/1 64/9/1 50/10/1
f 53/4/1 67/1/1 63/2/1 49/3/1
f 36/10/1 3/4/1 2/1/1 35/9/1
f 72/3/1 86/17/1 90/18/1 76/12/1
f 37/5/2 38/12/2 46/3/2 45/2/2
f 2/4/1 50/1/1 58/9/1 35/10/1
f 18/10/5 20/4/5 19/1/5 17/9/5
f 1/9/1 4/10/1 32/4/1 31/1/1
f 65/2/3 51/3/3 57/4/3 71/8/3
f 64/3/1 78/17/1 86/20/1 72/13/1
f 56/9/3 28/10/3 12/16/3 52/8/3
f 54/3/5 55/4/5 69/1/5 68/2/5
f 30/12/2 6/3/2 5/9/2 29/11/2
f 31/4/1 53/1/1 49/9/1 1/10/1
f 35/4/1 58/1/1 62/2/1 43/3/1
f 61/2/6 24/3/6 21/4/6 60/1/6
f 58/4/1 72/1/1 76/2/1 62/3/1
f 48/8/3 40/9/3 39/10/3 47/19/3
f 67/3/1 81/2/1 77/5/1 63/13/1
f 66/9/3 52/10/3 51/16/3 65/8/3
f 80/5/3 66/13/3 65/10/3 79/9/3
f 68/13/5 69/3/5 83/2/5 82/5/5
f 85/21/3 71/22/3 73/7/3 87/2/3
f 89/23/6 75/24/6 74/3/6 88/2/6
