# Blender 5.0.1
# www.blender.org
mtllib BP_BoneButtonA.mtl
o SM_Bone_Button.001
v 49.999996 50.000004 124.999954
v -50.000004 50.000004 124.999954
v -50.000004 -49.999996 124.999969
v 49.999996 -49.999996 124.999969
v -50.000004 50.000000 99.999992
v -50.000004 -49.999996 125.000008
v -50.000004 50.000004 124.999992
v -50.000004 -50.000000 100.000008
v 49.999996 -49.999996 125.000000
v -50.000004 -49.999996 125.000000
v -50.000004 -50.000000 99.999985
v 49.999996 -50.000000 99.999985
v -50.000004 50.000004 124.999985
v 49.999996 50.000004 124.999985
v 49.999996 50.000000 99.999969
v -50.000004 50.000000 99.999969
v 50.000004 -50.000000 100.000008
v 50.000004 50.000004 124.999992
v 50.000004 -49.999996 125.000008
v 50.000004 50.000000 99.999992
vn -0.0000 -0.0000 1.0000
vn -1.0000 -0.0000 -0.0000
vn -0.0000 -1.0000 -0.0000
vn -0.0000 1.0000 -0.0000
vn 1.0000 -0.0000 -0.0000
vt 0.250000 0.062500
vt 0.250000 0.125000
vt 0.500000 0.125000
vt 0.500000 0.062500
vt 0.500000 0.750000
vt 0.750000 0.750000
vt 0.750000 0.999969
vt 0.500000 0.999969
s 1
usemtl MI_BoneButton
f 8/1/2 6/2/2 7/3/2 5/4/2
f 16/1/4 13/2/4 14/3/4 15/4/4
f 4/5/1 1/6/1 2/7/1 3/8/1
f 12/4/3 9/3/3 10/2/3 11/1/3
f 20/4/5 18/3/5 19/2/5 17/1/5
