# Blender 5.0.1
# www.blender.org
mtllib BP_BuffetTableBlue.mtl
o SM_Table.001
v 128.125336 -93.749565 4.397901
v 128.125275 -93.749878 85.647903
v 109.375282 -93.749947 85.647888
v 109.375336 -93.749634 4.397886
v 109.375336 -93.749634 4.397886
v 109.375221 -74.999954 85.647949
v 109.375275 -74.999634 4.397954
v 109.375282 -93.749947 85.647888
v 128.125275 -74.999565 4.397968
v 109.375221 -74.999954 85.647949
v 128.125214 -74.999878 85.647964
v 109.375275 -74.999634 4.397954
v 128.125275 -93.749878 85.647903
v 128.125336 -93.749565 4.397901
v 128.125214 -74.999878 85.647964
v 128.125275 -74.999565 4.397968
v 128.125336 -93.749565 4.397901
v 109.375336 -93.749634 4.397886
v 128.125275 -74.999565 4.397968
v 109.375275 -74.999634 4.397954
v 134.374573 100.000191 85.648590
v -134.375397 99.999123 104.398376
v 134.374557 100.000053 104.398590
v -134.375488 99.999168 85.648376
v 134.375244 -99.999901 104.397903
v -134.374695 -100.000832 85.647690
v 134.375366 -99.999855 85.647903
v -134.374710 -100.000877 104.397690
v 128.124725 75.000435 4.398505
v 128.124664 75.000122 85.648499
v 109.374672 75.000053 85.648483
v 109.374725 75.000366 4.398490
v 109.374725 75.000366 4.398490
v 109.374611 93.750061 85.648560
v 109.374664 93.750366 4.398557
v 109.374672 75.000053 85.648483
v 128.124664 93.750435 4.398572
v 109.374611 93.750061 85.648560
v 128.124603 93.750122 85.648575
v 109.374664 93.750366 4.398557
v 128.124664 75.000122 85.648499
v 128.124725 75.000435 4.398505
v 128.124603 93.750122 85.648575
v 128.124664 93.750435 4.398572
v 128.124725 75.000435 4.398505
v 109.374725 75.000366 4.398490
v 128.124664 93.750435 4.398572
v 109.374664 93.750366 4.398557
v -109.374664 -93.750427 4.397713
v -109.374718 -93.750740 85.647720
v -128.124725 -93.750809 85.647705
v -128.124664 -93.750496 4.397698
v -128.124664 -93.750496 4.397698
v -128.124786 -75.000816 85.647766
v -128.124725 -75.000496 4.397766
v -128.124725 -93.750809 85.647705
v -109.374725 -75.000427 4.397780
v -128.124786 -75.000816 85.647766
v -109.374786 -75.000740 85.647781
v -128.124725 -75.000496 4.397766
v -109.374718 -93.750740 85.647720
v -109.374664 -93.750427 4.397713
v -109.374786 -75.000740 85.647781
v -109.374725 -75.000427 4.397780
v -109.374664 -93.750427 4.397713
v -128.124664 -93.750496 4.397698
v -109.374725 -75.000427 4.397780
v -128.124725 -75.000496 4.397766
v -109.375275 74.999573 4.398317
v -109.375328 74.999260 85.648315
v -128.125336 74.999191 85.648300
v -128.125275 74.999504 4.398302
v -128.125275 74.999504 4.398302
v -128.125397 93.749199 85.648376
v -128.125336 93.749504 4.398369
v -128.125336 74.999191 85.648300
v -109.375336 93.749573 4.398384
v -128.125397 93.749199 85.648376
v -109.375397 93.749260 85.648392
v -128.125336 93.749504 4.398369
v -109.375328 74.999260 85.648315
v -109.375275 74.999573 4.398317
v -109.375397 93.749260 85.648392
v -109.375336 93.749573 4.398384
v -109.375275 74.999573 4.398317
v -128.125275 74.999504 4.398302
v -109.375336 93.749573 4.398384
v -128.125336 93.749504 4.398369
v 134.374573 100.000191 85.648590
v 134.375366 -99.999855 85.647903
v -134.374695 -100.000832 85.647690
v -134.375488 99.999168 85.648376
v 134.375244 -99.999901 104.397903
v -134.375397 99.999123 104.398376
v -134.374710 -100.000877 104.397690
v 134.374557 100.000053 104.398590
v -134.375488 99.999168 85.648376
v -134.374695 -100.000832 85.647690
v -134.374710 -100.000877 104.397690
v -134.375397 99.999123 104.398376
v 134.374557 100.000053 104.398590
v 134.375366 -99.999855 85.647903
v 134.374573 100.000191 85.648590
v 134.375244 -99.999901 104.397903
vn -0.0000 -1.0000 -0.0000
vn -1.0000 -0.0000 -0.0000
vn -0.0000 1.0000 -0.0000
vn 1.0000 -0.0000 -0.0000
vn -0.0000 -0.0000 -1.0000
vn -0.0000 -0.0000 1.0000
vt 0.000031 0.078125
vt 0.046875 0.078125
vt 0.046875 0.281250
vt 0.000031 0.281250
vt 0.000031 0.046875
vt 0.000031 0.000000
vt 0.671875 0.000000
vt 0.671875 0.046875
vt 0.093750 0.078125
vt 0.093750 0.281250
vt 0.140625 0.078125
vt 0.187500 0.078125
vt 0.187500 0.281250
vt 0.140625 0.281250
vt 0.000031 0.328125
vt 0.500000 0.281250
vt 0.500000 0.328125
vt 0.234375 0.234375
vt 0.234375 0.281250
vt 0.187500 0.234375
vt 0.500000 0.999969
vt 0.000031 0.999969
s 1
usemtl MI_Table
f 32/1/1 29/2/1 30/3/1 31/4/1
f 28/5/1 26/6/1 27/7/1 25/8/1
f 80/9/3 78/10/3 79/3/3 77/2/3
f 56/10/2 54/3/2 55/2/2 53/9/2
f 72/11/1 69/12/1 70/13/1 71/14/1
f 104/15/4 102/4/4 103/16/4 101/17/4
f 100/15/2 97/4/2 98/16/2 99/17/2
f 52/9/1 49/11/1 50/14/1 51/10/1
f 8/3/2 6/4/2 7/1/2 5/2/2
f 12/12/3 10/13/3 11/14/3 9/11/3
f 16/11/4 15/14/4 13/10/4 14/9/4
f 20/18/5 19/19/5 17/13/5 18/20/5
f 96/17/6 94/21/6 95/22/6 93/15/6
f 40/11/3 38/14/3 39/10/3 37/9/3
f 36/13/2 34/14/2 35/11/2 33/12/2
f 84/2/4 83/3/4 81/4/4 82/1/4
f 48/18/5 47/19/5 45/13/5 46/20/5
f 4/2/1 1/9/1 2/10/1 3/3/1
f 92/17/5 89/21/5 90/22/5 91/15/5
f 60/2/3 58/3/3 59/4/3 57/1/3
f 44/9/4 43/10/4 41/3/4 42/2/4
f 68/18/5 67/19/5 65/13/5 66/20/5
f 64/12/4 63/13/4 61/14/4 62/11/4
f 76/14/2 74/10/2 75/9/2 73/11/2
f 24/7/3 22/8/3 23/5/3 21/6/3
f 88/18/5 87/19/5 85/13/5 86/20/5
