# Blender 5.0.1
# www.blender.org
mtllib BP_BlackstoneGate_3.mtl
o SM_Blackstone_gate.001
v -12.500028 12.500030 99.999992
v -12.500001 -12.500000 0.000000
v -12.500028 -12.499970 100.000000
v -12.500001 12.500000 -0.000007
v 12.499974 12.500030 100.000000
v -12.500001 12.500000 -0.000007
v -12.500028 12.500030 99.999992
v 12.500001 12.500000 -0.000000
v 12.499974 -12.499970 100.000008
v 12.500001 12.500000 -0.000000
v 12.499974 12.500030 100.000000
v 12.500001 -12.500000 0.000007
v -12.500028 -12.499970 100.000000
v 12.500001 -12.500000 0.000007
v 12.499974 -12.499970 100.000008
v -12.500001 -12.500000 0.000000
v 12.500001 -12.500000 0.000007
v -12.500001 -12.500000 0.000000
v -12.500001 12.500000 -0.000007
v 12.500001 12.500000 -0.000000
v -12.500054 12.500059 200.000000
v -12.500054 -12.499941 200.000000
v 12.499948 12.500059 200.000000
v -12.500054 12.500059 200.000000
v 12.499948 -12.499941 200.000000
v 12.499948 12.500059 200.000000
v -12.500054 -12.499941 200.000000
v 12.499948 -12.499941 200.000000
v -12.500081 12.500089 300.000000
v -12.500081 -12.499911 300.000000
v 12.499921 12.500089 300.000000
v -12.500081 12.500089 300.000000
v 12.499921 -12.499911 300.000000
v 12.499921 12.500089 300.000000
v -12.500081 -12.499911 300.000000
v 12.499921 -12.499911 300.000000
v -12.500094 12.500104 350.000000
v -12.500094 -12.499896 350.000000
v 12.499907 12.500104 350.000000
v 12.499907 -12.499896 350.000000
v -12.500094 -12.499896 350.000000
v 12.499907 -12.499896 350.000000
v 12.499907 -12.499896 350.000000
v 12.499907 12.500104 350.000000
v 12.499907 12.500104 350.000000
v -12.500094 12.500104 350.000000
v -12.500094 12.500104 350.000000
v -12.500094 -12.499896 350.000000
v -12.500101 0.000111 375.000000
v 12.499907 0.000104 350.000000
v 12.499901 0.000111 375.000000
v -12.500094 0.000104 350.000000
v -0.000099 -12.499889 375.000000
v -0.000094 12.500104 350.000000
v -0.000100 12.500111 375.000000
v -0.000093 -12.499896 350.000000
vn -1.0000 -0.0000 -0.0000
vn -0.0000 1.0000 -0.0000
vn 1.0000 -0.0000 -0.0000
vn -0.0000 -1.0000 -0.0000
vn -0.0000 -0.0000 -1.0000
vn -0.0000 -0.0000 1.0000
vt 0.000031 0.500000
vt 0.031250 0.500000
vt 0.031250 0.625000
vt 0.000031 0.625000
vt 0.164062 0.562500
vt 0.164062 0.593750
vt 0.132812 0.593750
vt 0.132812 0.562500
vt 0.085938 0.179688
vt 0.117188 0.179688
vt 0.117188 0.210938
vt 0.085938 0.210938
vt 0.031250 0.562500
vt 0.000031 0.562500
vt 0.132812 0.625000
vt 0.164062 0.625000
s 1
usemtl MI_BasaltDeltasProps
f 12/1/3 10/2/3 11/3/3 9/4/3
f 9/1/3 11/2/3 26/3/3 25/4/3
f 20/5/5 17/6/5 18/7/5 19/8/5
f 4/1/1 2/2/1 3/3/1 1/4/1
f 8/1/2 6/2/2 7/3/2 5/4/2
f 5/1/2 7/2/2 24/3/2 23/4/2
f 27/1/4 28/2/4 36/3/4 35/4/4
f 13/1/4 15/2/4 28/3/4 27/4/4
f 56/9/3 54/10/3 55/11/3 53/12/3
f 23/1/2 24/2/2 32/3/2 31/4/2
f 33/1/3 34/2/3 44/13/3 43/14/3
f 21/1/1 22/2/1 30/3/1 29/4/1
f 29/1/1 30/2/1 48/13/1 47/14/1
f 16/1/4 14/2/4 15/3/4 13/4/4
f 25/1/3 26/2/3 34/3/3 33/4/3
f 52/9/4 50/10/4 51/11/4 49/12/4
f 35/1/4 36/2/4 42/13/4 41/14/4
f 31/1/2 32/2/2 46/13/2 45/14/2
f 1/1/1 3/2/1 22/3/1 21/4/1
f 40/15/6 39/7/6 37/6/6 38/16/6
