# Blender 5.0.1
# www.blender.org
mtllib BP_Barricade_Blunt_Instanced.mtl
o SM_Barricade_Blunt.001
v -18.750021 14.631753 -70.310867
v -18.750017 -3.045916 -52.633198
v -43.750019 -3.045918 -52.633198
v -43.750019 14.631751 -70.310867
v -43.750011 120.697777 71.110497
v -18.750013 120.697784 71.110497
v -43.750015 138.375443 53.432831
v -18.750015 138.375458 53.432827
v -18.750013 120.697784 71.110497
v -18.750021 14.631753 -70.310867
v -18.750015 138.375458 53.432827
v -18.750017 -3.045916 -52.633198
v -18.750015 138.375458 53.432827
v -43.750019 14.631751 -70.310867
v -43.750015 138.375443 53.432831
v -18.750021 14.631753 -70.310867
v -43.750015 138.375443 53.432831
v -43.750019 -3.045918 -52.633198
v -43.750011 120.697777 71.110497
v -43.750019 14.631751 -70.310867
v -43.750011 120.697777 71.110497
v -18.750017 -3.045916 -52.633198
v -18.750013 120.697784 71.110497
v -43.750019 -3.045918 -52.633198
v 6.249972 138.375458 -52.633202
v -18.750029 120.697792 -70.310875
v -18.750029 138.375458 -52.633202
v 6.249971 120.697792 -70.310875
v -18.750006 -3.045935 53.432831
v 6.249995 -3.045933 53.432827
v -18.750004 14.631740 71.110504
v 6.249996 14.631742 71.110504
v 6.249971 120.697792 -70.310875
v 6.249995 -3.045933 53.432827
v -18.750006 -3.045935 53.432831
v -18.750029 120.697792 -70.310875
v -18.750004 14.631740 71.110504
v -18.750029 138.375458 -52.633202
v -18.750029 120.697792 -70.310875
v -18.750006 -3.045935 53.432831
v -18.750029 138.375458 -52.633202
v -18.750004 14.631740 71.110504
v 6.249996 14.631742 71.110504
v 6.249972 138.375458 -52.633202
v 6.249996 14.631742 71.110504
v 6.249971 120.697792 -70.310875
v 6.249972 138.375458 -52.633202
v 6.249995 -3.045933 53.432827
v -118.750023 14.631745 -70.310860
v -118.750023 -3.045924 -52.633186
v -143.750015 -3.045926 -52.633186
v -143.750031 14.631743 -70.310852
v -143.750015 120.697769 71.110512
v -118.750015 120.697777 71.110512
v -143.750015 138.375443 53.432842
v -118.750023 138.375443 53.432838
v -118.750015 120.697777 71.110512
v -118.750023 14.631745 -70.310860
v -118.750023 138.375443 53.432838
v -118.750023 -3.045924 -52.633186
v -118.750023 138.375443 53.432838
v -143.750031 14.631743 -70.310852
v -143.750015 138.375443 53.432842
v -118.750023 14.631745 -70.310860
v -143.750015 138.375443 53.432842
v -143.750015 -3.045926 -52.633186
v -143.750015 120.697769 71.110512
v -143.750031 14.631743 -70.310852
v -143.750015 120.697769 71.110512
v -118.750023 -3.045924 -52.633186
v -118.750015 120.697777 71.110512
v -143.750015 -3.045926 -52.633186
v -93.750031 138.375458 -52.633190
v -118.750031 120.697784 -70.310860
v -118.750031 138.375458 -52.633190
v -93.750031 120.697784 -70.310860
v -118.750008 -3.045942 53.432842
v -93.750008 -3.045940 53.432838
v -118.750008 14.631732 71.110519
v -93.750008 14.631734 71.110512
v -93.750031 120.697784 -70.310860
v -93.750008 -3.045940 53.432838
v -118.750008 -3.045942 53.432842
v -118.750031 120.697784 -70.310860
v -118.750008 14.631732 71.110519
v -118.750031 138.375458 -52.633190
v -118.750031 120.697784 -70.310860
v -118.750008 -3.045942 53.432842
v -118.750031 138.375458 -52.633190
v -118.750008 14.631732 71.110519
v -93.750008 14.631734 71.110512
v -93.750031 138.375458 -52.633190
v -93.750008 14.631734 71.110512
v -93.750031 120.697784 -70.310860
v -93.750031 138.375458 -52.633190
v -93.750008 -3.045940 53.432838
v 81.249977 14.631761 -70.310883
v 81.249977 -3.045908 -52.633213
v 56.249981 -3.045910 -52.633209
v 56.249981 14.631759 -70.310875
v 81.249985 120.697792 71.110489
v 56.249985 138.375458 53.432819
v 56.249989 120.697784 71.110489
v 81.249977 138.375458 53.432816
v 81.249985 120.697792 71.110489
v 81.249977 14.631761 -70.310883
v 81.249977 138.375458 53.432816
v 81.249977 -3.045908 -52.633213
v 81.249977 138.375458 53.432816
v 56.249981 14.631759 -70.310875
v 56.249985 138.375458 53.432819
v 81.249977 14.631761 -70.310883
v 56.249985 138.375458 53.432819
v 56.249981 -3.045910 -52.633209
v 56.249989 120.697784 71.110489
v 56.249981 14.631759 -70.310875
v 56.249989 120.697784 71.110489
v 81.249977 -3.045908 -52.633213
v 81.249985 120.697792 71.110489
v 56.249981 -3.045910 -52.633209
v 106.249969 138.375473 -52.633213
v 81.249969 120.697800 -70.310883
v 81.249969 138.375473 -52.633213
v 106.249969 120.697800 -70.310883
v 81.249992 -3.045927 53.432819
v 106.249992 -3.045925 53.432816
v 81.249992 14.631747 71.110497
v 106.249992 14.631749 71.110489
v 106.249969 120.697800 -70.310883
v 106.249992 -3.045925 53.432816
v 81.249992 -3.045927 53.432819
v 81.249969 120.697800 -70.310883
v 81.249992 14.631747 71.110497
v 81.249969 138.375473 -52.633213
v 81.249969 120.697800 -70.310883
v 81.249992 -3.045927 53.432819
v 81.249969 138.375473 -52.633213
v 81.249992 14.631747 71.110497
v 106.249992 14.631749 71.110489
v 106.249969 138.375473 -52.633213
v 106.249992 14.631749 71.110489
v 106.249969 120.697800 -70.310883
v 106.249969 138.375473 -52.633213
v 106.249992 -3.045925 53.432816
v 131.249985 103.020119 18.077467
v 31.249983 103.020119 18.077482
v 31.250006 85.342445 0.399814
v 131.249985 85.342453 0.399797
v 131.249969 120.697792 0.399797
v 31.249979 120.697784 0.399814
v 31.249983 103.020119 18.077482
v 131.249985 103.020119 18.077467
v 131.249969 120.697792 0.399797
v 31.249979 103.020119 -17.277855
v 31.249979 120.697784 0.399814
v 131.249969 103.020119 -17.277872
v 131.249969 103.020119 -17.277872
v 31.250006 85.342445 0.399814
v 31.249979 103.020119 -17.277855
v 131.249985 85.342453 0.399797
v -168.750015 103.020103 18.077511
v -168.750031 120.697777 0.399842
v -168.750031 103.020103 -17.277828
v -168.750015 85.342438 0.399842
v 131.249969 120.697792 0.399797
v 131.249985 103.020119 18.077467
v 131.249985 85.342453 0.399797
v 131.249969 103.020119 -17.277872
v -68.750008 85.342438 0.399826
v -168.750031 103.020103 -17.277828
v -68.750008 103.020111 -17.277843
v -168.750015 85.342438 0.399842
v -68.750008 120.697777 0.399825
v -168.750031 103.020103 -17.277828
v -168.750031 120.697777 0.399842
v -68.750008 103.020111 -17.277843
v -68.750008 120.697777 0.399825
v -168.750031 120.697777 0.399842
v -168.750015 103.020103 18.077511
v -68.750008 103.020111 18.077496
v -68.750008 103.020111 18.077496
v -168.750015 103.020103 18.077511
v -168.750015 85.342438 0.399842
v -68.750008 85.342438 0.399826
vn -0.0000 -0.7071 -0.7071
vn -0.0000 0.7071 0.7071
vn 1.0000 -0.0000 -0.0000
vn -0.0000 0.7071 -0.7071
vn -1.0000 -0.0000 -0.0000
vn -0.0000 -0.7071 0.7071
vt 0.250000 0.000000
vt 0.375000 0.000000
vt 0.375000 0.875000
vt 0.250000 0.875000
vt 0.875000 0.999969
vt 0.875000 0.500000
vt 1.000000 0.500000
vt 1.000000 0.999969
vt 0.249878 0.875000
vt 0.249878 0.000000
vt 0.750000 0.500000
vt 0.750000 0.999969
vt 0.000031 0.875000
vt 0.000031 0.000000
vt 0.124939 0.000000
vt 0.125000 0.875000
vt 0.531250 0.468750
vt 0.531250 0.343750
vt 0.656250 0.343750
vt 0.656250 0.468750
vt 0.999512 0.999969
vt 0.875000 0.999969
vt 0.125000 0.000488
vt 0.625000 0.999969
vt 0.625000 0.500000
vt 0.750000 0.999969
vt 0.625000 0.500244
vt 0.625000 1.000031
vt 0.500000 1.000031
vt 0.500000 0.500244
vt 0.500000 0.000000
vt 0.500000 0.875000
vt 0.375000 0.000488
vt 0.499756 0.000488
vt 0.625000 0.999969
vt 0.499756 0.999969
vt 0.500000 0.500000
vt -0.000031 0.000000
vt 0.125000 0.000000
vt 0.500000 0.999969
vt 0.875000 1.000031
vt 0.875000 0.500244
vt 1.000000 0.500244
vt 1.000000 1.000031
vt 0.750000 1.000031
vt 0.750000 0.500244
s 1
usemtl MI_Barricade
f 20/1/5 18/2/5 19/3/5 17/4/5
f 176/5/4 174/6/4 175/7/4 173/8/4
f 136/3/5 133/9/5 134/10/5 135/2/5
f 172/11/1 170/6/1 171/5/1 169/12/1
f 144/13/3 142/14/3 143/15/3 141/16/3
f 8/17/2 7/18/2 5/19/2 6/20/2
f 176/6/4 173/7/4 155/21/4 154/22/4
f 132/23/1 129/1/1 130/9/1 131/16/1
f 78/20/6 80/17/6 79/18/6 77/19/6
f 96/13/3 94/14/3 95/15/3 93/16/3
f 4/19/1 1/20/1 2/17/1 3/18/1
f 184/12/6 181/24/6 182/25/6 183/11/6
f 158/26/1 169/11/1 171/6/1 159/22/1
f 151/27/2 152/28/2 149/29/2 150/30/2
f 40/3/5 37/9/5 38/10/5 39/2/5
f 126/20/6 128/17/6 127/18/6 125/19/6
f 112/2/4 110/31/4 111/32/4 109/3/4
f 28/17/4 26/18/4 27/19/4 25/20/4
f 44/33/2 41/34/2 42/32/2 43/3/2
f 180/25/2 151/35/2 150/36/2 177/37/2
f 12/38/3 10/39/3 11/16/3 9/13/3
f 48/13/3 46/14/3 47/15/3 45/16/3
f 104/17/2 102/18/2 103/19/2 101/20/2
f 120/39/6 118/1/6 119/4/6 117/16/6
f 56/17/2 55/18/2 53/19/2 54/20/2
f 16/2/4 14/31/4 15/32/4 13/3/4
f 100/19/1 97/20/1 98/17/1 99/18/1
f 179/25/2 180/24/2 177/40/2 178/37/2
f 156/41/4 154/42/4 155/43/4 153/44/4
f 76/17/4 74/18/4 75/19/4 73/20/4
f 164/17/5 161/18/5 162/19/5 163/20/5
f 36/23/1 33/1/1 34/9/1 35/16/1
f 52/19/1 49/20/1 50/17/1 51/18/1
f 92/33/2 89/34/2 90/32/2 91/3/2
f 84/23/1 81/1/1 82/9/1 83/16/1
f 160/45/1 158/46/1 159/42/1 157/41/1
f 108/38/3 106/39/3 107/16/3 105/13/3
f 24/39/6 22/1/6 23/4/6 21/16/6
f 68/1/5 66/2/5 67/3/5 65/4/5
f 168/17/3 165/18/3 166/19/3 167/20/3
f 72/39/6 70/1/6 71/4/6 69/16/6
f 88/3/5 85/9/5 86/10/5 87/2/5
f 140/33/2 137/34/2 138/32/2 139/3/2
f 148/45/6 145/28/6 146/27/6 147/46/6
f 60/38/3 58/39/3 59/16/3 57/13/3
f 116/1/5 114/2/5 115/3/5 113/4/5
f 64/2/4 62/31/4 63/32/4 61/3/4
f 30/20/6 32/17/6 31/18/6 29/19/6
f 147/26/6 146/35/6 181/25/6 184/11/6
f 124/17/4 122/18/4 123/19/4 121/20/4
