# Blender 5.0.1
# www.blender.org
mtllib BP_Bunting_small.mtl
o SM_Bunting_small.001
v 0.000000 0.000000 -23.590347
v 575.433228 -0.000000 -149.999939
v 575.433228 -0.000000 -44.785614
v -0.000061 0.000000 86.494003
v 575.516052 0.000000 -44.767975
v 1074.552368 0.000000 -59.136444
v 1074.563965 0.000000 61.526161
v 575.433228 0.000000 -149.999939
v 575.433228 0.000000 -44.791321
vn -0.0000 -1.0000 -0.0000
vt 1.000977 0.575439
vt 0.280762 0.627930
vt 1.000000 0.315430
vt 0.281006 0.900269
vt 0.258545 0.900330
vt 0.882324 0.637451
vt 0.258545 0.601807
vt 0.882324 0.376953
s 1
usemtl MI_Bunting
f 3/1/1 1/2/1 2/3/1
f 1/2/1 3/1/1 4/4/1
f 7/5/1 5/6/1 6/7/1
f 6/7/1 5/6/1 8/8/1
f 9/6/1 8/8/1 5/6/1
