# Blender 5.0.1
# www.blender.org
mtllib BP_Bridge_LongLegs.mtl
o SM_Bridges_Bridge_LongLegs.001
v 0.000000 -100.000000 -0.000004
v -400.000000 -100.000000 -0.000004
v -400.000000 -100.000000 -50.000004
v 0.000000 -100.000000 -50.000004
v -400.000000 -100.000000 -0.000004
v 0.000000 -100.000000 -0.000004
v 0.000000 100.000000 0.000004
v -400.000000 100.000000 0.000004
v 0.000000 100.000000 -49.999996
v -400.000000 100.000000 -49.999996
v -400.000000 100.000000 0.000004
v 0.000000 100.000000 0.000004
v 0.000000 -100.000000 -50.000004
v -400.000000 -100.000000 -50.000004
v -400.000000 100.000000 -49.999996
v 0.000000 100.000000 -49.999996
v 0.000000 -100.000000 -50.000004
v 0.000000 100.000000 0.000004
v 0.000000 -100.000000 -0.000004
v 0.000000 100.000000 -49.999996
v -400.000000 100.000000 -49.999996
v -400.000000 -100.000000 -50.000004
v -400.000000 -100.000000 -0.000004
v -400.000000 100.000000 0.000004
v -37.500000 68.750000 -49.999996
v -37.500000 68.750015 -350.000000
v -12.500000 68.750000 -49.999996
v -12.500000 68.750015 -350.000000
v -37.500000 93.750015 -350.000000
v -37.500000 93.750000 -49.999996
v -12.500000 93.750015 -350.000000
v -12.500000 93.750000 -49.999996
v -37.500000 93.750000 -49.999996
v -37.500000 93.750015 -350.000000
v -37.500000 68.750000 -49.999996
v -37.500000 68.750015 -350.000000
v -12.500000 68.750015 -350.000000
v -12.500000 93.750000 -49.999996
v -12.500000 68.750000 -49.999996
v -12.500000 93.750015 -350.000000
v -37.500000 -93.750000 -50.000004
v -37.500000 -93.749985 -350.000000
v -12.500000 -93.750000 -50.000004
v -12.500000 -93.749985 -350.000000
v -37.500000 -68.749985 -350.000000
v -37.500000 -68.750000 -50.000004
v -12.500000 -68.749985 -350.000000
v -12.500000 -68.750000 -50.000004
v -37.500000 -68.750000 -50.000004
v -37.500000 -68.749985 -350.000000
v -37.500000 -93.750000 -50.000004
v -37.500000 -93.749985 -350.000000
v -12.500000 -93.749985 -350.000000
v -12.500000 -68.750000 -50.000004
v -12.500000 -93.750000 -50.000004
v -12.500000 -68.749985 -350.000000
v -387.500000 68.750000 -49.999996
v -387.500000 68.750015 -350.000000
v -362.500000 68.750000 -49.999996
v -362.500000 68.750015 -350.000000
v -387.500000 93.750015 -350.000000
v -387.500000 93.750000 -49.999996
v -362.500000 93.750015 -350.000000
v -362.500000 93.750000 -49.999996
v -387.500000 93.750000 -49.999996
v -387.500000 93.750015 -350.000000
v -387.500000 68.750000 -49.999996
v -387.500000 68.750015 -350.000000
v -362.500000 68.750015 -350.000000
v -362.500000 93.750000 -49.999996
v -362.500000 68.750000 -49.999996
v -362.500000 93.750015 -350.000000
v -387.500000 -93.750000 -50.000004
v -387.500000 -93.749985 -350.000000
v -362.500000 -93.750000 -50.000004
v -362.500000 -93.749985 -350.000000
v -387.500000 -68.749985 -350.000000
v -387.500000 -68.750000 -50.000004
v -362.500000 -68.749985 -350.000000
v -362.500000 -68.750000 -50.000004
v -387.500000 -68.750000 -50.000004
v -387.500000 -68.749985 -350.000000
v -387.500000 -93.750000 -50.000004
v -387.500000 -93.749985 -350.000000
v -362.500000 -93.749985 -350.000000
v -362.500000 -68.750000 -50.000004
v -362.500000 -93.750000 -50.000004
v -362.500000 -68.749985 -350.000000
v -387.500000 -93.749969 -650.000000
v -362.500000 -93.749969 -650.000000
v -387.500000 -68.749969 -650.000000
v -362.500000 -68.749969 -650.000000
v -387.500000 -68.749969 -650.000000
v -387.500000 -93.749969 -650.000000
v -362.500000 -93.749969 -650.000000
v -362.500000 -68.749969 -650.000000
v -387.500000 68.750031 -650.000000
v -362.500000 68.750031 -650.000000
v -387.500000 93.750031 -650.000000
v -362.500000 93.750031 -650.000000
v -387.500000 93.750031 -650.000000
v -387.500000 68.750031 -650.000000
v -362.500000 68.750031 -650.000000
v -362.500000 93.750031 -650.000000
v -37.500000 68.750031 -650.000000
v -12.500000 68.750031 -650.000000
v -37.500000 93.750031 -650.000000
v -12.500000 93.750031 -650.000000
v -37.500000 93.750031 -650.000000
v -37.500000 68.750031 -650.000000
v -12.500000 68.750031 -650.000000
v -12.500000 93.750031 -650.000000
v -37.500000 -93.749969 -650.000000
v -12.500000 -93.749969 -650.000000
v -37.500000 -68.749969 -650.000000
v -12.500000 -68.749969 -650.000000
v -37.500000 -68.749969 -650.000000
v -37.500000 -93.749969 -650.000000
v -12.500000 -93.749969 -650.000000
v -12.500000 -68.749969 -650.000000
vn -0.0000 -1.0000 -0.0000
vn -0.0000 -0.0000 1.0000
vn -0.0000 1.0000 -0.0000
vn -0.0000 -0.0000 -1.0000
vn 1.0000 -0.0000 -0.0000
vn -1.0000 -0.0000 -0.0000
vt 0.875000 0.937500
vt 0.875000 0.562500
vt 0.906250 0.562500
vt 0.906250 0.937500
vt 0.937500 0.562500
vt 0.937500 0.937500
vt 0.875000 0.062500
vt 0.937500 0.062500
vt 0.625000 0.062500
vt 0.625000 0.562500
vt 0.875000 0.000000
vt 0.625000 0.000000
s 1
usemtl WorldGridMaterial
f 98/1/1 60/2/1 58/3/1 97/4/1
f 76/1/1 75/2/1 73/3/1 74/4/1
f 112/4/5 40/3/5 37/5/5 111/6/5
f 88/4/5 86/3/5 87/5/5 85/6/5
f 90/1/1 76/2/1 74/3/1 89/4/1
f 44/1/1 43/2/1 41/3/1 42/4/1
f 40/4/5 38/3/5 39/5/5 37/6/5
f 34/6/6 36/4/6 35/3/6 33/5/6
f 12/7/3 9/8/3 10/5/3 11/2/3
f 4/5/1 1/2/1 2/7/1 3/8/1
f 8/9/2 5/7/2 6/2/2 7/10/2
f 50/6/6 52/4/6 51/3/6 49/5/6
f 20/11/5 18/7/5 19/9/5 17/12/5
f 80/3/3 79/4/3 77/1/3 78/2/3
f 64/3/3 63/4/3 61/1/3 62/2/3
f 16/2/4 13/10/4 14/9/4 15/7/4
f 63/3/3 100/4/3 99/1/3 61/2/3
f 114/1/1 44/2/1 42/3/1 113/4/1
f 32/3/3 31/4/3 29/1/3 30/2/3
f 72/4/5 70/3/5 71/5/5 69/6/5
f 47/3/3 116/4/3 115/1/3 45/2/3
f 28/1/1 27/2/1 25/3/1 26/4/1
f 23/7/6 24/9/6 21/12/6 22/11/6
f 56/4/5 54/3/5 55/5/5 53/6/5
f 82/6/6 84/4/6 83/3/6 81/5/6
f 79/3/3 92/4/3 91/1/3 77/2/3
f 48/3/3 47/4/3 45/1/3 46/2/3
f 96/4/5 88/3/5 85/5/5 95/6/5
f 93/6/6 94/4/6 84/3/6 82/5/6
f 117/6/6 118/4/6 52/3/6 50/5/6
f 66/6/6 68/4/6 67/3/6 65/5/6
f 101/6/6 102/4/6 68/3/6 66/5/6
f 106/1/1 28/2/1 26/3/1 105/4/1
f 109/6/6 110/4/6 36/3/6 34/5/6
f 31/3/3 108/4/3 107/1/3 29/2/3
f 104/4/5 72/3/5 69/5/5 103/6/5
f 60/1/1 59/2/1 57/3/1 58/4/1
f 120/4/5 56/3/5 53/5/5 119/6/5
