# Blender 5.0.1
# www.blender.org
mtllib BP_Barricade_Blunt.mtl
o SM_Barricade_Blunt.001
v -18.750021 70.310867 14.631756
v -18.750017 52.633198 -3.045914
v -43.750019 52.633198 -3.045916
v -43.750019 70.310867 14.631754
v -43.750011 -71.110504 120.697777
v -18.750013 -71.110504 120.697784
v -43.750015 -53.432838 138.375443
v -18.750015 -53.432835 138.375458
v -18.750013 -71.110504 120.697784
v -18.750021 70.310867 14.631756
v -18.750015 -53.432835 138.375458
v -18.750017 52.633198 -3.045914
v -18.750015 -53.432835 138.375458
v -43.750019 70.310867 14.631754
v -43.750015 -53.432838 138.375443
v -18.750021 70.310867 14.631756
v -43.750015 -53.432838 138.375443
v -43.750019 52.633198 -3.045916
v -43.750011 -71.110504 120.697777
v -43.750019 70.310867 14.631754
v -43.750011 -71.110504 120.697777
v -18.750017 52.633198 -3.045914
v -18.750013 -71.110504 120.697784
v -43.750019 52.633198 -3.045916
v 6.249972 52.633194 138.375458
v -18.750029 70.310867 120.697792
v -18.750029 52.633194 138.375458
v 6.249971 70.310867 120.697792
v -18.750006 -53.432831 -3.045937
v 6.249995 -53.432827 -3.045935
v -18.750004 -71.110504 14.631737
v 6.249996 -71.110504 14.631739
v 6.249971 70.310867 120.697792
v 6.249995 -53.432827 -3.045935
v -18.750006 -53.432831 -3.045937
v -18.750029 70.310867 120.697792
v -18.750004 -71.110504 14.631737
v -18.750029 52.633194 138.375458
v -18.750029 70.310867 120.697792
v -18.750006 -53.432831 -3.045937
v -18.750029 52.633194 138.375458
v -18.750004 -71.110504 14.631737
v 6.249996 -71.110504 14.631739
v 6.249972 52.633194 138.375458
v 6.249996 -71.110504 14.631739
v 6.249971 70.310867 120.697792
v 6.249972 52.633194 138.375458
v 6.249995 -53.432827 -3.045935
v -118.750023 70.310860 14.631748
v -118.750023 52.633186 -3.045922
v -143.750015 52.633186 -3.045924
v -143.750031 70.310852 14.631746
v -143.750015 -71.110519 120.697769
v -118.750015 -71.110519 120.697777
v -143.750015 -53.432850 138.375443
v -118.750023 -53.432846 138.375443
v -118.750015 -71.110519 120.697777
v -118.750023 70.310860 14.631748
v -118.750023 -53.432846 138.375443
v -118.750023 52.633186 -3.045922
v -118.750023 -53.432846 138.375443
v -143.750031 70.310852 14.631746
v -143.750015 -53.432850 138.375443
v -118.750023 70.310860 14.631748
v -143.750015 -53.432850 138.375443
v -143.750015 52.633186 -3.045924
v -143.750015 -71.110519 120.697769
v -143.750031 70.310852 14.631746
v -143.750015 -71.110519 120.697769
v -118.750023 52.633186 -3.045922
v -118.750015 -71.110519 120.697777
v -143.750015 52.633186 -3.045924
v -93.750031 52.633183 138.375458
v -118.750031 70.310852 120.697784
v -118.750031 52.633183 138.375458
v -93.750031 70.310852 120.697784
v -118.750008 -53.432842 -3.045945
v -93.750008 -53.432838 -3.045943
v -118.750008 -71.110519 14.631729
v -93.750008 -71.110512 14.631731
v -93.750031 70.310852 120.697784
v -93.750008 -53.432838 -3.045943
v -118.750008 -53.432842 -3.045945
v -118.750031 70.310852 120.697784
v -118.750008 -71.110519 14.631729
v -118.750031 52.633183 138.375458
v -118.750031 70.310852 120.697784
v -118.750008 -53.432842 -3.045945
v -118.750031 52.633183 138.375458
v -118.750008 -71.110519 14.631729
v -93.750008 -71.110512 14.631731
v -93.750031 52.633183 138.375458
v -93.750008 -71.110512 14.631731
v -93.750031 70.310852 120.697784
v -93.750031 52.633183 138.375458
v -93.750008 -53.432838 -3.045943
v 81.249977 70.310883 14.631763
v 81.249977 52.633213 -3.045906
v 56.249981 52.633209 -3.045908
v 56.249981 70.310875 14.631762
v 81.249985 -71.110497 120.697792
v 56.249985 -53.432827 138.375458
v 56.249989 -71.110497 120.697784
v 81.249977 -53.432823 138.375458
v 81.249985 -71.110497 120.697792
v 81.249977 70.310883 14.631763
v 81.249977 -53.432823 138.375458
v 81.249977 52.633213 -3.045906
v 81.249977 -53.432823 138.375458
v 56.249981 70.310875 14.631762
v 56.249985 -53.432827 138.375458
v 81.249977 70.310883 14.631763
v 56.249985 -53.432827 138.375458
v 56.249981 52.633209 -3.045908
v 56.249989 -71.110497 120.697784
v 56.249981 70.310875 14.631762
v 56.249989 -71.110497 120.697784
v 81.249977 52.633213 -3.045906
v 81.249985 -71.110497 120.697792
v 56.249981 52.633209 -3.045908
v 106.249969 52.633205 138.375473
v 81.249969 70.310875 120.697800
v 81.249969 52.633205 138.375473
v 106.249969 70.310875 120.697800
v 81.249992 -53.432819 -3.045929
v 106.249992 -53.432816 -3.045927
v 81.249992 -71.110497 14.631744
v 106.249992 -71.110489 14.631746
v 106.249969 70.310875 120.697800
v 106.249992 -53.432816 -3.045927
v 81.249992 -53.432819 -3.045929
v 81.249969 70.310875 120.697800
v 81.249992 -71.110497 14.631744
v 81.249969 52.633205 138.375473
v 81.249969 70.310875 120.697800
v 81.249992 -53.432819 -3.045929
v 81.249969 52.633205 138.375473
v 81.249992 -71.110497 14.631744
v 106.249992 -71.110489 14.631746
v 106.249969 52.633205 138.375473
v 106.249992 -71.110489 14.631746
v 106.249969 70.310875 120.697800
v 106.249969 52.633205 138.375473
v 106.249992 -53.432816 -3.045927
v 131.249985 -18.077471 103.020119
v 31.249983 -18.077486 103.020119
v 31.250006 -0.399818 85.342445
v 131.249985 -0.399801 85.342453
v 131.249969 -0.399802 120.697792
v 31.249979 -0.399819 120.697784
v 31.249983 -18.077486 103.020119
v 131.249985 -18.077471 103.020119
v 131.249969 -0.399802 120.697792
v 31.249979 17.277851 103.020119
v 31.249979 -0.399819 120.697784
v 131.249969 17.277868 103.020119
v 131.249969 17.277868 103.020119
v 31.250006 -0.399818 85.342445
v 31.249979 17.277851 103.020119
v 131.249985 -0.399801 85.342453
v -168.750015 -18.077515 103.020103
v -168.750031 -0.399847 120.697777
v -168.750031 17.277824 103.020103
v -168.750015 -0.399846 85.342438
v 131.249969 -0.399802 120.697792
v 131.249985 -18.077471 103.020119
v 131.249985 -0.399801 85.342453
v 131.249969 17.277868 103.020119
v -68.750008 -0.399829 85.342438
v -168.750031 17.277824 103.020103
v -68.750008 17.277840 103.020111
v -168.750015 -0.399846 85.342438
v -68.750008 -0.399830 120.697777
v -168.750031 17.277824 103.020103
v -168.750031 -0.399847 120.697777
v -68.750008 17.277840 103.020111
v -68.750008 -0.399830 120.697777
v -168.750031 -0.399847 120.697777
v -168.750015 -18.077515 103.020103
v -68.750008 -18.077499 103.020111
v -68.750008 -18.077499 103.020111
v -168.750015 -18.077515 103.020103
v -168.750015 -0.399846 85.342438
v -68.750008 -0.399829 85.342438
vn -0.0000 0.7071 -0.7071
vn -0.0000 -0.7071 0.7071
vn 1.0000 -0.0000 -0.0000
vn -0.0000 0.7071 0.7071
vn -1.0000 -0.0000 -0.0000
vn -0.0000 -0.7071 -0.7071
vt 0.250000 0.000000
vt 0.375000 0.000000
vt 0.375000 0.875000
vt 0.250000 0.875000
vt 0.875000 0.999969
vt 0.875000 0.500000
vt 1.000000 0.500000
vt 1.000000 0.999969
vt 0.249878 0.875000
vt 0.249878 0.000000
vt 0.750000 0.500000
vt 0.750000 0.999969
vt 0.000031 0.875000
vt 0.000031 0.000000
vt 0.124939 0.000000
vt 0.125000 0.875000
vt 0.531250 0.468750
vt 0.531250 0.343750
vt 0.656250 0.343750
vt 0.656250 0.468750
vt 0.999512 0.999969
vt 0.875000 0.999969
vt 0.125000 0.000488
vt 0.625000 0.999969
vt 0.625000 0.500000
vt 0.750000 0.999969
vt 0.625000 0.500244
vt 0.625000 1.000031
vt 0.500000 1.000031
vt 0.500000 0.500244
vt 0.500000 0.000000
vt 0.500000 0.875000
vt 0.375000 0.000488
vt 0.499756 0.000488
vt 0.625000 0.999969
vt 0.499756 0.999969
vt 0.500000 0.500000
vt -0.000031 0.000000
vt 0.125000 0.000000
vt 0.500000 0.999969
vt 0.875000 1.000031
vt 0.875000 0.500244
vt 1.000000 0.500244
vt 1.000000 1.000031
vt 0.750000 1.000031
vt 0.750000 0.500244
s 1
usemtl MI_Barricade
f 20/1/5 18/2/5 19/3/5 17/4/5
f 176/5/4 174/6/4 175/7/4 173/8/4
f 136/3/5 133/9/5 134/10/5 135/2/5
f 172/11/1 170/6/1 171/5/1 169/12/1
f 144/13/3 142/14/3 143/15/3 141/16/3
f 8/17/2 7/18/2 5/19/2 6/20/2
f 176/6/4 173/7/4 155/21/4 154/22/4
f 132/23/1 129/1/1 130/9/1 131/16/1
f 78/20/6 80/17/6 79/18/6 77/19/6
f 96/13/3 94/14/3 95/15/3 93/16/3
f 4/19/1 1/20/1 2/17/1 3/18/1
f 184/12/6 181/24/6 182/25/6 183/11/6
f 158/26/1 169/11/1 171/6/1 159/22/1
f 151/27/2 152/28/2 149/29/2 150/30/2
f 40/3/5 37/9/5 38/10/5 39/2/5
f 126/20/6 128/17/6 127/18/6 125/19/6
f 112/2/4 110/31/4 111/32/4 109/3/4
f 28/17/4 26/18/4 27/19/4 25/20/4
f 44/33/2 41/34/2 42/32/2 43/3/2
f 180/25/2 151/35/2 150/36/2 177/37/2
f 12/38/3 10/39/3 11/16/3 9/13/3
f 48/13/3 46/14/3 47/15/3 45/16/3
f 104/17/2 102/18/2 103/19/2 101/20/2
f 120/39/6 118/1/6 119/4/6 117/16/6
f 56/17/2 55/18/2 53/19/2 54/20/2
f 16/2/4 14/31/4 15/32/4 13/3/4
f 100/19/1 97/20/1 98/17/1 99/18/1
f 179/25/2 180/24/2 177/40/2 178/37/2
f 156/41/4 154/42/4 155/43/4 153/44/4
f 76/17/4 74/18/4 75/19/4 73/20/4
f 164/17/5 161/18/5 162/19/5 163/20/5
f 36/23/1 33/1/1 34/9/1 35/16/1
f 52/19/1 49/20/1 50/17/1 51/18/1
f 92/33/2 89/34/2 90/32/2 91/3/2
f 84/23/1 81/1/1 82/9/1 83/16/1
f 160/45/1 158/46/1 159/42/1 157/41/1
f 108/38/3 106/39/3 107/16/3 105/13/3
f 24/39/6 22/1/6 23/4/6 21/16/6
f 68/1/5 66/2/5 67/3/5 65/4/5
f 168/17/3 165/18/3 166/19/3 167/20/3
f 72/39/6 70/1/6 71/4/6 69/16/6
f 88/3/5 85/9/5 86/10/5 87/2/5
f 140/33/2 137/34/2 138/32/2 139/3/2
f 148/45/6 145/28/6 146/27/6 147/46/6
f 60/38/3 58/39/3 59/16/3 57/13/3
f 116/1/5 114/2/5 115/3/5 113/4/5
f 64/2/4 62/31/4 63/32/4 61/3/4
f 30/20/6 32/17/6 31/18/6 29/19/6
f 147/26/6 146/35/6 181/25/6 184/11/6
f 124/17/4 122/18/4 123/19/4 121/20/4
