# Blender 5.0.1
# www.blender.org
mtllib BP_BridgeWide_Long_NoRails.mtl
o SM_BridgeWide_SeparateRails_Long_NoRail1.001
v 300.000000 168.750000 25.000008
v -300.000000 168.750000 25.000008
v -300.000000 168.750000 37.500008
v 300.000000 168.750000 37.500008
v -300.000000 131.250000 37.500008
v 300.000000 131.250000 37.500008
v 300.000000 168.750000 37.500008
v -300.000000 168.750000 37.500008
v 300.000000 131.250000 37.500008
v -300.000000 131.250000 37.500008
v -300.000000 131.250000 25.000006
v 300.000000 131.250000 25.000006
v -300.000000 131.250000 25.000006
v 300.000000 168.750000 25.000008
v 300.000000 131.250000 25.000006
v -300.000000 168.750000 25.000008
v -300.000000 131.250000 37.500008
v -300.000000 168.750000 25.000008
v -300.000000 131.250000 25.000006
v -300.000000 168.750000 37.500008
v 300.000000 168.750000 37.500008
v 300.000000 131.250000 37.500008
v 300.000000 131.250000 25.000006
v 300.000000 168.750000 25.000008
v 293.750000 262.500000 37.500011
v -293.750000 262.500000 37.500011
v -293.750000 262.500000 25.000011
v 293.750000 262.500000 25.000011
v 293.750000 300.000000 37.500011
v -293.750000 262.500000 37.500011
v 293.750000 262.500000 37.500011
v -293.750000 300.000000 37.500011
v 293.750000 300.000000 25.000013
v -293.750000 300.000000 25.000013
v -293.750000 300.000000 37.500011
v 293.750000 300.000000 37.500011
v 293.750000 262.500000 25.000011
v -293.750000 262.500000 25.000011
v -293.750000 300.000000 25.000013
v 293.750000 300.000000 25.000013
v 293.750000 300.000000 37.500011
v 293.750000 262.500000 37.500011
v 293.750000 262.500000 25.000011
v 293.750000 300.000000 25.000013
v -293.750000 262.500000 37.500011
v -293.750000 300.000000 25.000013
v -293.750000 262.500000 25.000011
v -293.750000 300.000000 37.500011
v 300.000000 81.250000 25.000004
v -300.000000 81.250000 25.000004
v -300.000000 81.250000 37.500004
v 300.000000 81.250000 37.500004
v -300.000000 43.750000 37.500004
v 300.000000 43.750000 37.500004
v 300.000000 81.250000 37.500004
v -300.000000 81.250000 37.500004
v 300.000000 43.750000 37.500004
v -300.000000 43.750000 37.500004
v -300.000000 43.750000 25.000002
v 300.000000 43.750000 25.000002
v 300.000000 43.750000 25.000002
v -300.000000 43.750000 25.000002
v -300.000000 81.250000 25.000004
v 300.000000 81.250000 25.000004
v -300.000000 43.750000 37.500004
v -300.000000 81.250000 25.000004
v -300.000000 43.750000 25.000002
v -300.000000 81.250000 37.500004
v 300.000000 81.250000 37.500004
v 300.000000 43.750000 37.500004
v 300.000000 43.750000 25.000002
v 300.000000 81.250000 25.000004
v 306.250000 124.946335 25.000006
v -306.250000 125.000000 25.000006
v -306.250000 125.000000 37.500004
v 306.250000 124.946335 37.500004
v 306.250000 87.553665 37.500004
v -306.250000 125.000000 37.500004
v -306.250000 87.500000 37.500004
v 306.250000 124.946335 37.500004
v 306.250000 87.553665 37.500004
v -306.250000 87.500000 37.500004
v -306.250000 87.500000 25.000004
v 306.250000 87.553665 25.000004
v 306.250000 87.553665 25.000004
v -306.250000 87.500000 25.000004
v -306.250000 125.000000 25.000006
v 306.250000 124.946335 25.000006
v -306.250000 87.500000 37.500004
v -306.250000 125.000000 25.000006
v -306.250000 87.500000 25.000004
v -306.250000 125.000000 37.500004
v 306.250000 124.946335 37.500004
v 306.250000 87.553665 37.500004
v 306.250000 87.553665 25.000004
v 306.250000 124.946335 25.000006
v 325.000000 237.500000 12.500010
v -325.000000 237.500000 12.500010
v -325.000000 237.500000 0.000010
v 325.000000 237.500000 0.000010
v -325.000000 237.500000 12.500010
v 325.000000 237.500000 12.500010
v 325.000000 262.500000 12.500011
v -325.000000 262.500000 12.500011
v 325.000000 262.500000 0.000011
v -325.000000 262.500000 0.000011
v -325.000000 262.500000 12.500011
v 325.000000 262.500000 12.500011
v 325.000000 237.500000 0.000010
v -325.000000 237.500000 0.000010
v -325.000000 262.500000 0.000011
v 325.000000 262.500000 0.000011
v 325.000000 262.500000 12.500011
v 325.000000 237.500000 12.500010
v 325.000000 237.500000 0.000010
v 325.000000 262.500000 0.000011
v -325.000000 237.500000 12.500010
v -325.000000 262.500000 0.000011
v -325.000000 237.500000 0.000010
v -325.000000 262.500000 12.500011
v 300.000000 255.491577 25.000011
v -300.000000 255.491577 25.000011
v -300.000000 255.491577 37.500011
v 300.000000 255.491577 37.500011
v -300.000000 224.241577 37.500011
v 300.000000 224.241577 37.500011
v 300.000000 255.491577 37.500011
v -300.000000 255.491577 37.500011
v 300.000000 224.241577 37.500011
v -300.000000 224.241577 37.500011
v -300.000000 224.241577 25.000010
v 300.000000 224.241577 25.000010
v -300.000000 255.491577 25.000011
v 300.000000 224.241577 25.000010
v -300.000000 224.241577 25.000010
v 300.000000 255.491577 25.000011
v -300.000000 224.241577 37.500011
v -300.000000 255.491577 25.000011
v -300.000000 224.241577 25.000010
v -300.000000 255.491577 37.500011
v 300.000000 255.491577 37.500011
v 300.000000 224.241577 37.500011
v 300.000000 224.241577 25.000010
v 300.000000 255.491577 25.000011
v 312.500000 181.250000 37.500008
v -287.500000 181.250000 37.500008
v -287.500000 181.250000 25.000008
v 312.500000 181.250000 25.000008
v -287.500000 181.250000 37.500008
v 312.500000 181.250000 37.500008
v 312.500000 218.750000 37.500011
v -287.500000 218.750000 37.500011
v 312.500000 218.750000 25.000010
v -287.500000 218.750000 25.000010
v -287.500000 218.750000 37.500011
v 312.500000 218.750000 37.500011
v 312.500000 181.250000 25.000008
v -287.500000 181.250000 25.000008
v -287.500000 218.750000 25.000010
v 312.500000 218.750000 25.000010
v 312.500000 218.750000 37.500011
v 312.500000 181.250000 37.500008
v 312.500000 181.250000 25.000008
v 312.500000 218.750000 25.000010
v -287.500000 181.250000 37.500008
v -287.500000 218.750000 25.000010
v -287.500000 181.250000 25.000008
v -287.500000 218.750000 37.500011
v -187.500000 300.000000 25.000013
v -187.500000 -0.000001 25.000000
v -187.500000 -0.000001 12.500000
v -187.500000 300.000000 12.500013
v -212.500000 300.000000 25.000013
v -212.500000 -0.000001 25.000000
v -187.500000 -0.000001 25.000000
v -187.500000 300.000000 25.000013
v -212.500000 300.000000 12.500013
v -212.500000 -0.000001 12.500000
v -212.500000 -0.000001 25.000000
v -212.500000 300.000000 25.000013
v -187.500000 300.000000 12.500013
v -187.500000 -0.000001 12.500000
v -212.500000 -0.000001 12.500000
v -212.500000 300.000000 12.500013
v -187.500000 300.000000 12.500013
v -212.500000 300.000000 12.500013
v -212.500000 300.000000 25.000013
v -187.500000 300.000000 25.000013
v -187.500000 -0.000001 25.000000
v -212.500000 -0.000001 25.000000
v -212.500000 -0.000001 12.500000
v -187.500000 -0.000001 12.500000
v 300.000000 -0.000002 37.500000
v -300.000000 -0.000002 37.500000
v -300.000000 -0.000001 25.000000
v 300.000000 -0.000001 25.000000
v -300.000000 -0.000002 37.500000
v 300.000000 -0.000002 37.500000
v 300.000000 37.500000 37.500000
v -300.000000 37.500000 37.500000
v 300.000000 37.500000 25.000002
v -300.000000 37.500000 25.000002
v -300.000000 37.500000 37.500000
v 300.000000 37.500000 37.500000
v 300.000000 -0.000001 25.000000
v -300.000000 -0.000001 25.000000
v -300.000000 37.500000 25.000002
v 300.000000 37.500000 25.000002
v 300.000000 37.500000 37.500000
v 300.000000 -0.000002 37.500000
v 300.000000 -0.000001 25.000000
v 300.000000 37.500000 25.000002
v -300.000000 -0.000002 37.500000
v -300.000000 37.500000 25.000002
v -300.000000 -0.000001 25.000000
v -300.000000 37.500000 37.500000
v 212.500000 300.000000 25.000013
v 212.500000 -0.000001 25.000000
v 212.500000 -0.000001 12.500000
v 212.500000 300.000000 12.500013
v 187.500000 300.000000 25.000013
v 187.500000 -0.000001 25.000000
v 212.500000 -0.000001 25.000000
v 212.500000 300.000000 25.000013
v 187.500000 300.000000 12.500013
v 187.500000 -0.000001 12.500000
v 187.500000 -0.000001 25.000000
v 187.500000 300.000000 25.000013
v 212.500000 300.000000 12.500013
v 212.500000 -0.000001 12.500000
v 187.500000 -0.000001 12.500000
v 187.500000 300.000000 12.500013
v 212.500000 300.000000 12.500013
v 187.500000 300.000000 12.500013
v 187.500000 300.000000 25.000013
v 212.500000 300.000000 25.000013
v 212.500000 -0.000001 25.000000
v 187.500000 -0.000001 25.000000
v 187.500000 -0.000001 12.500000
v 212.500000 -0.000001 12.500000
v 325.000000 137.500000 12.500006
v -325.000000 137.500000 12.500006
v -325.000000 137.500000 0.000006
v 325.000000 137.500000 0.000006
v 325.000000 162.500000 12.500007
v -325.000000 137.500000 12.500006
v 325.000000 137.500000 12.500006
v -325.000000 162.500000 12.500007
v 325.000000 162.500000 0.000007
v -325.000000 162.500000 0.000007
v -325.000000 162.500000 12.500007
v 325.000000 162.500000 12.500007
v 325.000000 137.500000 0.000006
v -325.000000 137.500000 0.000006
v -325.000000 162.500000 0.000007
v 325.000000 162.500000 0.000007
v 325.000000 162.500000 12.500007
v 325.000000 137.500000 12.500006
v 325.000000 137.500000 0.000006
v 325.000000 162.500000 0.000007
v -325.000000 137.500000 0.000006
v -325.000000 162.500000 12.500007
v -325.000000 162.500000 0.000007
v -325.000000 137.500000 12.500006
v 325.000000 37.500000 12.500002
v -325.000000 37.500000 12.500002
v -325.000000 37.500000 0.000002
v 325.000000 37.500000 0.000002
v -325.000000 37.500000 12.500002
v 325.000000 37.500000 12.500002
v 325.000000 62.500000 12.500003
v -325.000000 62.500000 12.500003
v 325.000000 62.500000 0.000003
v -325.000000 62.500000 0.000003
v -325.000000 62.500000 12.500003
v 325.000000 62.500000 12.500003
v 325.000000 37.500000 0.000002
v -325.000000 37.500000 0.000002
v -325.000000 62.500000 0.000003
v 325.000000 62.500000 0.000003
v 325.000000 62.500000 12.500003
v 325.000000 37.500000 12.500002
v 325.000000 37.500000 0.000002
v 325.000000 62.500000 0.000003
v -325.000000 37.500000 12.500002
v -325.000000 62.500000 0.000003
v -325.000000 37.500000 0.000002
v -325.000000 62.500000 12.500003
vn -0.0000 1.0000 -0.0000
vn -0.0000 -0.0000 1.0000
vn -0.0000 -1.0000 -0.0000
vn -0.0000 -0.0000 -1.0000
vn -1.0000 -0.0000 -0.0000
vn 1.0000 -0.0000 -0.0000
vn 0.0001 1.0000 -0.0000
vn 0.0001 -1.0000 -0.0000
vt 0.347168 0.069824
vt 0.680176 0.069824
vt 0.680176 0.097656
vt 0.347168 0.097656
vt 0.013885 0.625000
vt 0.000031 0.625000
vt 0.000031 0.583496
vt 0.013885 0.583496
vt 0.666504 0.847290
vt 0.666504 0.861206
vt 0.013885 0.861206
vt 0.013885 0.847290
vt 0.750000 0.166992
vt 0.750000 0.194824
vt 0.735840 0.194824
vt 0.735840 0.166992
vt 0.013885 0.736328
vt 0.013885 0.694580
vt 0.687500 0.694580
vt 0.687500 0.736328
vt 0.013885 0.194824
vt 0.000031 0.194824
vt 0.000031 0.166992
vt 0.013885 0.166992
vt 0.680176 0.569580
vt 0.680176 0.583496
vt 0.013885 0.569580
vt 0.000031 0.513916
vt 0.000031 0.472656
vt 0.013885 0.472656
vt 0.013885 0.513916
vt 0.735840 0.208496
vt 0.735840 0.236328
vt 0.013885 0.236328
vt 0.013885 0.208496
vt 0.680176 0.472656
vt 0.694336 0.472656
vt 0.694336 0.513916
vt 0.680176 0.513916
vt 0.000031 0.736328
vt 0.000031 0.694580
vt 0.687500 0.361328
vt 0.687500 0.402832
vt 0.013885 0.402832
vt 0.013885 0.361328
vt 0.013885 0.527832
vt 0.680176 0.527832
vt 0.013885 0.965302
vt 0.013885 0.951416
vt 0.680176 0.951416
vt 0.680176 0.965302
vt 0.013885 0.347656
vt 0.687500 0.347656
vt 0.680176 0.916687
vt 0.694336 0.916687
vt 0.694336 0.951416
vt 0.013885 0.305664
vt 0.701172 0.305664
vt 0.701172 0.347656
vt 0.013885 0.916687
vt 0.013885 0.902832
vt 0.680176 0.902832
vt 0.000031 0.291992
vt 0.000031 0.250000
vt 0.013885 0.250000
vt 0.013885 0.291992
vt 0.000031 0.402832
vt 0.000031 0.361328
vt 0.680176 0.111328
vt 0.347168 0.111328
vt 0.701172 0.361328
vt 0.701172 0.402832
vt -0.000031 0.847290
vt -0.000031 0.805664
vt 0.013885 0.805664
vt 0.687500 0.750000
vt 0.013885 0.750000
vt 0.680176 0.805664
vt 0.680176 0.847290
vt 0.666504 0.805664
vt 0.666504 0.791748
vt 0.013885 0.791748
vt 0.000031 0.951416
vt 0.000031 0.916687
vt 0.666504 0.902832
vt 0.013885 0.416992
vt 0.687500 0.416992
vt 0.701172 0.236328
vt 0.701172 0.250000
vt 0.735840 0.152832
vt 0.013885 0.152832
vt 0.680176 0.625000
vt 0.680176 0.638916
vt 0.013885 0.638916
vt 0.694336 0.583496
vt 0.694336 0.625000
vt 0.680176 0.680664
vt 0.013885 0.680664
vt 0.333252 0.111328
vt 0.347168 0.139160
vt 0.333252 0.139160
vt 0.680176 0.139160
vt 0.694336 0.111328
vt 0.694336 0.139160
vt 0.714844 0.250000
vt 0.714844 0.291992
vt 0.701172 0.291992
vt 0.687500 0.680664
vt 0.680176 0.152832
vt 0.347168 0.152832
vt 0.013885 0.458496
vt 0.680176 0.458496
vt 0.687500 0.791748
vt 0.701172 0.694580
vt 0.701172 0.736328
vt 0.013885 0.999969
vt 0.680176 0.999969
vt 0.687500 0.458496
s 1
usemtl material_0
f 231/1/4 232/2/4 229/3/4 230/4/4
f 168/5/5 166/6/5 167/7/5 165/8/5
f 36/9/1 33/10/1 34/11/1 35/12/1
f 259/13/6 260/14/6 257/15/6 258/16/6
f 200/17/2 197/18/2 198/19/2 199/20/2
f 120/21/5 118/22/5 119/23/5 117/24/5
f 148/25/3 145/26/3 146/8/3 147/27/3
f 71/28/6 72/29/6 69/30/6 70/31/6
f 280/32/4 277/33/4 278/34/4 279/35/4
f 68/36/5 66/37/5 67/38/5 65/39/5
f 56/36/2 53/39/2 54/31/2 55/30/2
f 216/17/5 214/40/5 215/41/5 213/18/5
f 104/21/2 101/24/2 102/16/2 103/15/2
f 8/42/2 5/43/2 6/44/2 7/45/2
f 64/27/4 61/46/4 62/47/4 63/25/4
f 132/48/3 129/49/3 130/50/3 131/51/3
f 4/45/1 1/52/1 2/53/1 3/42/1
f 283/13/6 284/14/6 281/15/6 282/16/6
f 140/54/5 138/55/5 139/56/5 137/50/5
f 88/52/4 85/57/4 86/58/4 87/59/4
f 124/60/1 121/61/1 122/62/1 123/54/1
f 95/63/6 96/64/6 93/65/6 94/66/6
f 23/67/6 24/68/6 21/45/6 22/44/6
f 171/4/6 172/3/6 169/69/6 170/70/6
f 20/42/5 18/71/5 19/72/5 17/43/5
f 112/32/4 109/33/4 110/34/4 111/35/4
f 48/12/5 46/73/5 47/74/5 45/75/5
f 204/20/1 201/76/1 202/77/1 203/17/1
f 43/78/6 44/79/6 41/9/6 42/80/6
f 28/81/3 25/80/3 26/75/3 27/82/3
f 183/1/4 184/2/4 181/3/4 182/4/4
f 264/24/5 262/21/5 263/22/5 261/23/5
f 60/46/3 57/31/3 58/39/3 59/47/3
f 143/83/6 144/84/6 141/60/6 142/49/6
f 128/54/2 125/50/2 126/49/2 127/60/2
f 40/10/4 37/85/4 38/61/4 39/11/4
f 12/86/3 9/44/3 10/43/3 11/87/3
f 76/65/7 73/34/7 74/88/7 75/89/7
f 268/90/3 265/16/3 266/24/3 267/91/3
f 156/92/1 153/93/1 154/94/1 155/5/1
f 32/12/2 30/75/2 31/80/2 29/9/2
f 163/95/6 164/96/6 161/92/6 162/26/6
f 160/93/4 157/97/4 158/98/4 159/94/4
f 248/21/2 246/24/2 247/16/2 245/15/2
f 240/99/3 237/70/3 238/100/3 239/101/3
f 100/90/3 97/16/3 98/24/3 99/91/3
f 175/70/2 176/69/2 173/102/2 174/100/2
f 188/69/1 185/103/1 186/104/1 187/102/1
f 92/89/5 90/105/5 91/106/5 89/107/5
f 196/108/3 193/19/3 194/18/3 195/98/3
f 192/99/3 189/70/3 190/100/3 191/101/3
f 179/100/5 180/102/5 177/109/5 178/110/5
f 52/30/1 49/111/1 50/112/1 51/36/1
f 115/13/6 116/14/6 113/15/6 114/16/6
f 208/76/4 205/113/4 206/82/4 207/77/4
f 219/4/6 220/3/6 217/69/6 218/70/6
f 108/15/1 105/32/1 106/35/1 107/21/1
f 227/100/5 228/102/5 225/109/5 226/110/5
f 223/70/2 224/69/2 221/102/2 222/100/2
f 211/114/6 212/115/6 209/20/6 210/19/6
f 80/65/2 78/89/2 79/107/2 77/66/2
f 236/69/1 233/103/1 234/104/1 235/102/1
f 272/21/2 269/24/2 270/16/2 271/15/2
f 84/57/8 81/66/8 82/107/8 83/58/8
f 256/32/4 253/33/4 254/34/4 255/35/4
f 276/15/1 273/32/1 274/35/1 275/21/1
f 252/15/1 249/32/1 250/35/1 251/21/1
f 244/90/3 241/16/3 242/24/3 243/91/3
f 136/116/4 134/48/4 135/51/4 133/117/4
f 152/5/2 149/8/2 150/26/2 151/92/2
f 16/118/4 14/111/4 15/86/4 13/87/4
f 288/21/5 286/22/5 287/23/5 285/24/5
