# Blender 5.0.1
# www.blender.org
mtllib BP_Bonfire_No_Audio.mtl
o SM_Bonfire.001
v 46.462021 -9.658348 -0.000000
v 56.978161 -51.814232 8.088079
v 30.837021 -36.721642 -0.000002
v 72.603165 -24.750940 8.088080
v -8.388157 -14.074984 169.037033
v 17.752983 -29.167576 177.125122
v 7.236843 12.988309 169.037033
v 33.377983 -2.104283 177.125122
v 74.238785 27.557777 3.235238
v 16.801903 -5.603433 250.753769
v 6.345457 -11.640464 247.518524
v 63.782333 21.520742 -0.000014
v 74.238785 27.557777 3.235238
v 7.426903 10.634543 250.753769
v 16.801903 -5.603433 250.753769
v 64.863785 43.795753 3.235239
v 64.863785 43.795753 3.235239
v -3.029541 4.597512 247.518524
v 7.426903 10.634543 250.753769
v 54.407330 37.758720 -0.000013
v 63.782333 21.520742 -0.000014
v 6.345457 -11.640464 247.518524
v -3.029541 4.597512 247.518524
v 54.407330 37.758720 -0.000013
v 64.863785 43.795753 3.235239
v 74.238785 27.557777 3.235238
v 63.782333 21.520742 -0.000014
v 54.407330 37.758720 -0.000013
v 16.801903 -5.603433 250.753769
v 7.426903 10.634543 250.753769
v -3.029541 4.597512 247.518524
v 6.345457 -11.640464 247.518524
v -68.385338 -48.425224 3.235243
v -18.056839 1.903264 268.864899
v -9.519182 10.440924 265.629669
v -59.847679 -39.887566 -0.000002
v -50.707668 -66.102890 3.235242
v -0.379169 -15.774405 268.864899
v -18.056839 1.903264 268.864899
v -68.385338 -48.425224 3.235243
v 8.158489 -7.236747 265.629669
v -50.707668 -66.102890 3.235242
v -42.170010 -57.565231 -0.000003
v -0.379169 -15.774405 268.864899
v -9.519182 10.440924 265.629669
v -42.170010 -57.565231 -0.000003
v -59.847679 -39.887566 -0.000002
v 8.158489 -7.236747 265.629669
v -59.847679 -39.887566 -0.000002
v -42.170010 -57.565231 -0.000003
v -50.707668 -66.102890 3.235242
v -68.385338 -48.425224 3.235243
v -18.056839 1.903264 268.864899
v 8.158489 -7.236747 265.629669
v -9.519182 10.440924 265.629669
v -0.379169 -15.774405 268.864899
v -53.229378 44.018852 4.852846
v -9.801504 18.945753 192.000992
v 5.883179 9.890198 187.148132
v -37.544693 34.963299 -0.000013
v -65.729378 22.368217 4.852845
v -22.301504 -2.704882 192.000992
v -9.801504 18.945753 192.000992
v -53.229378 44.018852 4.852846
v -6.616821 -11.760437 187.148132
v -65.729378 22.368217 4.852845
v -50.044693 13.312664 -0.000014
v -22.301504 -2.704882 192.000992
v -50.044693 13.312664 -0.000014
v 5.883179 9.890198 187.148132
v -6.616821 -11.760437 187.148132
v -37.544693 34.963299 -0.000013
v -53.229378 44.018852 4.852846
v -50.044693 13.312664 -0.000014
v -65.729378 22.368217 4.852845
v -37.544693 34.963299 -0.000013
v -9.801504 18.945753 192.000992
v -22.301504 -2.704882 192.000992
v -6.616821 -11.760437 187.148132
v 5.883179 9.890198 187.148132
v 1.076337 55.992912 6.470476
v 15.281078 2.980088 114.703690
v 7.326337 32.667595 0.000001
v 9.031079 26.305405 121.174164
v -21.154102 18.217310 121.174164
v 1.076337 55.992912 6.470476
v -29.108845 47.904819 6.470476
v 9.031079 26.305405 121.174164
v -14.904102 -5.108007 114.703690
v -29.108845 47.904819 6.470476
v -22.858845 24.579498 0.000001
v -21.154102 18.217310 121.174164
v 7.326337 32.667595 0.000001
v 15.281078 2.980088 114.703690
v -14.904102 -5.108007 114.703690
v -22.858845 24.579498 0.000001
v 7.326337 32.667595 0.000001
v -22.858845 24.579498 0.000001
v -29.108845 47.904819 6.470476
v 1.076337 55.992912 6.470476
v 15.281078 2.980088 114.703690
v -21.154102 18.217310 121.174164
v -14.904102 -5.108007 114.703690
v 9.031079 26.305405 121.174164
v 117.225533 100.952522 9.374997
v 37.242584 20.969563 167.792419
v 105.743553 89.470535 -0.000004
v 48.724567 32.451546 177.167419
v 117.225533 100.952522 9.374997
v 31.046898 50.129215 177.167419
v 48.724567 32.451546 177.167419
v 99.547867 118.630188 9.374997
v 99.547867 118.630188 9.374997
v 19.564915 38.647232 167.792419
v 31.046898 50.129215 177.167419
v 88.065880 107.148209 -0.000003
v 105.743553 89.470535 -0.000004
v 37.242584 20.969563 167.792419
v 19.564915 38.647232 167.792419
v 88.065880 107.148209 -0.000003
v 105.743553 89.470535 -0.000004
v 99.547867 118.630188 9.374997
v 117.225533 100.952522 9.374997
v 88.065880 107.148209 -0.000003
v 48.724567 32.451546 177.167419
v 31.046898 50.129215 177.167419
v 19.564915 38.647232 167.792419
v 37.242584 20.969563 167.792419
v -123.461487 -104.717987 6.249995
v -32.863411 -14.119921 228.169052
v -25.208763 -6.465272 221.919037
v -115.806831 -97.063332 -0.000012
v -110.203232 -117.976234 6.249995
v -19.605156 -27.378176 228.169052
v -32.863411 -14.119921 228.169052
v -123.461487 -104.717987 6.249995
v -11.950508 -19.723528 221.919037
v -110.203232 -117.976234 6.249995
v -102.548576 -110.321587 -0.000013
v -19.605156 -27.378176 228.169052
v -25.208763 -6.465272 221.919037
v -102.548576 -110.321587 -0.000013
v -115.806831 -97.063332 -0.000012
v -11.950508 -19.723528 221.919037
v -115.806831 -97.063332 -0.000012
v -102.548576 -110.321587 -0.000013
v -110.203232 -117.976234 6.249995
v -123.461487 -104.717987 6.249995
v -25.208763 -6.465272 221.919037
v -19.605156 -27.378176 228.169052
v -11.950508 -19.723528 221.919037
v -32.863411 -14.119921 228.169052
v -105.070564 121.641319 3.125005
v -5.633682 22.204418 246.694626
v -1.806358 18.377102 243.569611
v -101.243240 117.813995 -0.000003
v -23.311348 4.526753 246.694626
v -105.070564 121.641319 3.125005
v -122.748238 103.963646 3.125005
v -5.633682 22.204418 246.694626
v -19.484032 0.699429 243.569611
v -122.748238 103.963646 3.125005
v -118.920914 100.136322 -0.000004
v -23.311348 4.526753 246.694626
v -101.243240 117.813995 -0.000003
v -1.806358 18.377102 243.569611
v -19.484032 0.699429 243.569611
v -118.920914 100.136322 -0.000004
v -105.070564 121.641319 3.125005
v -118.920914 100.136322 -0.000004
v -122.748238 103.963646 3.125005
v -101.243240 117.813995 -0.000003
v -23.311348 4.526753 246.694626
v -1.806358 18.377102 243.569611
v -5.633682 22.204418 246.694626
v -19.484032 0.699429 243.569611
v 19.575020 -14.113940 238.157028
v 157.075043 -14.113930 -0.000001
v 167.900360 -14.113930 6.250000
v 30.400337 -14.113940 244.407028
v 167.900360 10.886068 6.250000
v 30.400337 -14.113940 244.407028
v 167.900360 -14.113930 6.250000
v 30.400337 10.886058 244.407028
v 167.900360 10.886068 6.250000
v 19.575020 10.886058 238.157028
v 30.400337 10.886058 244.407028
v 157.075043 10.886068 0.000000
v 157.075043 -14.113930 -0.000001
v 19.575020 -14.113940 238.157028
v 19.575020 10.886058 238.157028
v 157.075043 10.886068 0.000000
v 167.900360 10.886068 6.250000
v 167.900360 -14.113930 6.250000
v 157.075043 -14.113930 -0.000001
v 157.075043 10.886068 0.000000
v 30.400337 -14.113940 244.407028
v 19.575020 10.886058 238.157028
v 19.575020 -14.113940 238.157028
v 30.400337 10.886058 244.407028
v 67.207680 -142.884888 12.499993
v 7.832680 -40.044373 218.181030
v -2.992638 -21.294371 205.681030
v 56.382362 -124.134880 -0.000005
v 29.483313 -27.544371 218.181030
v 67.207680 -142.884888 12.499993
v 88.858315 -130.384888 12.499994
v 7.832680 -40.044373 218.181030
v 18.657997 -8.794374 205.681030
v 88.858315 -130.384888 12.499994
v 78.032997 -111.634880 -0.000005
v 29.483313 -27.544371 218.181030
v 56.382362 -124.134880 -0.000005
v 18.657997 -8.794374 205.681030
v 78.032997 -111.634880 -0.000005
v -2.992638 -21.294371 205.681030
v 88.858315 -130.384888 12.499994
v 56.382362 -124.134880 -0.000005
v 78.032997 -111.634880 -0.000005
v 67.207680 -142.884888 12.499993
v 29.483313 -27.544371 218.181030
v 18.657997 -8.794374 205.681030
v 7.832680 -40.044373 218.181030
v -2.992638 -21.294371 205.681030
v -15.531694 -73.582436 115.340515
v -15.531694 -111.306793 -0.000005
v -15.531694 -132.957428 12.499994
v -15.531694 -51.931797 102.840515
v 15.718305 -132.957428 12.499994
v 15.718305 -73.582436 115.340515
v -15.531694 -73.582436 115.340515
v -15.531694 -132.957428 12.499994
v 15.718305 -111.306793 -0.000005
v 15.718305 -51.931797 102.840515
v 15.718305 -73.582436 115.340515
v 15.718305 -132.957428 12.499994
v -15.531694 -111.306793 -0.000005
v 15.718305 -51.931797 102.840515
v 15.718305 -111.306793 -0.000005
v -15.531694 -51.931797 102.840515
v 15.718305 -132.957428 12.499994
v -15.531694 -132.957428 12.499994
v -15.531694 -111.306793 -0.000005
v 15.718305 -111.306793 -0.000005
v -15.531694 -73.582436 115.340515
v 15.718305 -73.582436 115.340515
v 15.718305 -51.931797 102.840515
v -15.531694 -51.931797 102.840515
v -129.628998 -50.125057 15.624990
v -111.575943 -12.935377 -0.000001
v -103.487846 -43.120560 -0.000002
v -137.717087 -19.939875 15.624991
v -18.969334 -20.473898 151.554459
v -27.057426 9.711284 151.554459
v -53.198570 2.706786 167.179443
v -45.110474 -27.478397 167.179443
v 34.689774 78.312866 6.470477
v 12.530289 -4.387457 229.407394
v 28.439774 54.987549 0.000002
v 18.780289 18.937857 235.877869
v 10.541627 84.783340 6.470478
v 18.780289 18.937857 235.877869
v 34.689774 78.312866 6.470477
v -5.367858 25.408335 235.877869
v -11.617858 2.083017 229.407394
v 10.541627 84.783340 6.470478
v 4.291627 61.458027 0.000003
v -5.367858 25.408335 235.877869
v 12.530289 -4.387457 229.407394
v 4.291627 61.458027 0.000003
v 28.439774 54.987549 0.000002
v -11.617858 2.083017 229.407394
v 10.541627 84.783340 6.470478
v 28.439774 54.987549 0.000002
v 4.291627 61.458027 0.000003
v 34.689774 78.312866 6.470477
v 12.530289 -4.387457 229.407394
v -5.367858 25.408335 235.877869
v -11.617858 2.083017 229.407394
v 18.780289 18.937857 235.877869
v -31.682753 -72.969498 1.617619
v -12.842575 -2.657017 273.284241
v -11.280076 3.174308 271.666626
v -30.120253 -67.138168 -0.000018
v -7.534607 -79.439972 1.617619
v 11.305571 -9.127492 273.284241
v -12.842575 -2.657017 273.284241
v -31.682753 -72.969498 1.617619
v 12.868069 -3.296166 271.666626
v -7.534607 -79.439972 1.617619
v -5.972107 -73.608643 -0.000018
v 11.305571 -9.127492 273.284241
v -11.280076 3.174308 271.666626
v -5.972107 -73.608643 -0.000018
v -30.120253 -67.138168 -0.000018
v 12.868069 -3.296166 271.666626
v -7.534607 -79.439972 1.617619
v -31.682753 -72.969498 1.617619
v -30.120253 -67.138168 -0.000018
v -5.972107 -73.608643 -0.000018
v 12.868069 -3.296166 271.666626
v -12.842575 -2.657017 273.284241
v 11.305571 -9.127492 273.284241
v -11.280076 3.174308 271.666626
v -8.388157 -14.074984 169.037033
v 11.224432 -25.398312 84.518517
v 37.365570 -40.490902 92.606598
v 17.752983 -29.167576 177.125122
v 56.978161 -51.814232 8.088079
v 30.837021 -36.721642 -0.000002
v 17.752983 -29.167576 177.125122
v 37.365570 -40.490902 92.606598
v 52.990574 -13.427611 92.606598
v 33.377983 -2.104283 177.125122
v 56.978161 -51.814232 8.088079
v 72.603165 -24.750940 8.088080
v 52.990574 -13.427611 92.606598
v 7.236843 12.988309 169.037033
v 33.377983 -2.104283 177.125122
v 26.849432 1.664981 84.518517
v 72.603165 -24.750940 8.088080
v 46.462021 -9.658348 -0.000000
v -8.388157 -14.074984 169.037033
v 26.849432 1.664981 84.518517
v 11.224432 -25.398312 84.518517
v 7.236843 12.988309 169.037033
v 46.462021 -9.658348 -0.000000
v 30.837021 -36.721642 -0.000002
v -95.457825 -8.616545 91.402222
v -53.198570 2.706786 167.179443
v -27.057426 9.711284 151.554459
v -69.316681 -1.612046 75.777229
v -137.717087 -19.939875 15.624991
v -111.575943 -12.935377 -0.000001
v -45.110474 -27.478397 167.179443
v -95.457825 -8.616545 91.402222
v -87.369736 -38.801727 91.402222
v -53.198570 2.706786 167.179443
v -137.717087 -19.939875 15.624991
v -129.628998 -50.125057 15.624990
v -18.969334 -20.473898 151.554459
v -87.369736 -38.801727 91.402222
v -61.228592 -31.797230 75.777229
v -45.110474 -27.478397 167.179443
v -129.628998 -50.125057 15.624990
v -103.487846 -43.120560 -0.000002
v -18.969334 -20.473898 151.554459
v -61.228592 -31.797230 75.777229
v -69.316681 -1.612046 75.777229
v -27.057426 9.711284 151.554459
v -111.575943 -12.935377 -0.000001
v -103.487846 -43.120560 -0.000002
vn 0.2241 -0.1294 -0.9659
vn -0.2241 0.1294 0.9659
vn 0.5000 -0.8660 -0.0000
vn 0.8365 0.4830 0.2588
vn -0.5000 0.8660 -0.0000
vn -0.8365 -0.4830 -0.2588
vn 0.2241 0.1294 -0.9659
vn -0.2241 -0.1294 0.9659
vn -0.7071 0.7071 -0.0000
vn -0.6830 -0.6830 0.2588
vn 0.7071 -0.7071 -0.0000
vn 0.6830 0.6830 -0.2588
vn -0.1830 -0.1830 -0.9659
vn 0.1830 0.1830 0.9659
vn 0.5000 0.8660 -0.0000
vn -0.8365 0.4830 0.2588
vn -0.5000 -0.8660 -0.0000
vn 0.8365 -0.4830 -0.2588
vn -0.2241 0.1294 -0.9659
vn 0.2241 -0.1294 0.9659
vn 0.9659 0.2588 -0.0000
vn -0.2500 0.9330 0.2588
vn -0.9659 -0.2588 -0.0000
vn 0.2500 -0.9330 -0.2588
vn -0.0670 0.2500 -0.9659
vn 0.0670 -0.2500 0.9659
vn 0.6124 0.6124 0.5000
vn -0.6124 -0.6124 -0.5000
vn 0.3536 0.3536 -0.8660
vn -0.3536 -0.3536 0.8660
vn -0.6124 -0.6124 0.5000
vn 0.6124 0.6124 -0.5000
vn -0.3536 -0.3536 -0.8660
vn 0.3536 0.3536 0.8660
vn 0.7071 0.7071 -0.0000
vn -0.6124 0.6124 0.5000
vn -0.7071 -0.7071 -0.0000
vn 0.6124 -0.6124 -0.5000
vn -0.3536 0.3536 -0.8660
vn 0.3536 -0.3536 0.8660
vn -0.0000 -1.0000 -0.0000
vn 0.8660 -0.0000 0.5000
vn -0.0000 1.0000 -0.0000
vn -0.8660 -0.0000 -0.5000
vn 0.5000 -0.0000 -0.8660
vn -0.5000 -0.0000 0.8660
vn -0.8660 -0.5000 -0.0000
vn 0.4330 -0.7500 0.5000
vn 0.8660 0.5000 -0.0000
vn -0.4330 0.7500 -0.5000
vn 0.2500 -0.4330 -0.8660
vn -0.2500 0.4330 0.8660
vn -1.0000 -0.0000 -0.0000
vn -0.0000 -0.8660 0.5000
vn 1.0000 -0.0000 -0.0000
vn -0.0000 0.8660 -0.5000
vn -0.0000 -0.5000 -0.8660
vn -0.0000 0.5000 0.8660
vn -0.4830 -0.1294 -0.8660
vn 0.4830 0.1294 0.8660
vn 0.9659 -0.2588 -0.0000
vn 0.2500 0.9330 0.2588
vn -0.9659 0.2588 -0.0000
vn -0.2500 -0.9330 -0.2588
vn 0.0670 0.2500 -0.9659
vn -0.0670 -0.2500 0.9659
vn -0.2500 -0.9330 0.2588
vn 0.2500 0.9330 -0.2588
vn -0.0670 -0.2500 -0.9659
vn 0.0670 0.2500 0.9659
vn 0.8365 -0.4830 0.2588
vn -0.8365 0.4830 -0.2588
vn -0.2588 0.9659 -0.0000
vn -0.8365 -0.2241 0.5000
vn 0.2588 -0.9659 -0.0000
vn 0.8365 0.2241 -0.5000
vt 0.062500 0.953125
vt 0.000031 0.953125
vt 0.000031 0.468750
vt 0.062500 0.468750
vt 0.109375 0.953125
vt 0.109375 0.468750
vt 0.171875 0.468750
vt 0.171875 0.953125
vt 0.500000 0.328125
vt 0.531250 0.328125
vt 0.531250 0.968750
vt 0.500000 0.968750
vt 0.859375 0.000000
vt 0.921875 0.000000
vt 0.921875 0.015625
vt 0.859375 0.015625
vt 0.921875 0.718750
vt 0.937500 0.015625
vt 0.937500 0.718750
vt 0.859375 0.734375
vt 0.859375 0.718750
vt 0.921875 0.734375
vt 0.593750 0.203125
vt 0.515625 0.203125
vt 0.515625 0.000000
vt 0.593750 0.000000
vt 0.218750 0.953125
vt 0.218750 0.468750
vt 0.656250 0.718750
vt 0.656250 0.031250
vt 0.687500 0.031250
vt 0.687500 0.718750
vt 0.437500 0.937500
vt 0.437500 0.999969
vt 0.375000 0.999969
vt 0.375000 0.937500
vt 0.437500 0.359375
vt 0.375000 0.359375
vt 0.359375 0.203125
vt 0.281250 0.203125
vt 0.281250 0.000000
vt 0.359375 0.000000
vt 0.062500 0.062500
vt 0.062500 0.000000
vt 0.140625 0.000000
vt 0.140625 0.062500
vt 0.750000 0.031250
vt 0.750000 0.718750
vt 0.281250 0.359375
vt 0.203125 0.359375
vt 0.203125 0.062500
vt 0.281250 0.062500
vt 0.062500 0.359375
vt 0.140625 0.359375
vt 0.312500 0.937500
vt 0.312500 0.359375
vt 0.000031 0.359375
vt 0.000031 0.062500
vt 0.140625 0.421875
vt 0.062500 0.421875
vt 0.375000 0.296875
vt 0.437500 0.296875
vt 0.109375 0.999969
vt 0.171875 0.999969
vt 0.250000 0.937500
vt 0.250000 0.359375
vt 0.750000 0.750000
vt 0.687500 0.750000
vt 0.500000 0.359375
vt 0.500000 0.937500
vt 0.437500 0.203125
vt 0.437500 0.281250
vt 0.359375 0.281250
vt 0.578125 0.968750
vt 0.578125 0.328125
vt 0.609375 0.328125
vt 0.609375 0.968750
vt 0.437500 0.000000
vt 1.000000 0.015625
vt 1.000000 0.718750
vt 0.843750 0.015625
vt 0.843750 0.718750
vt 0.781250 0.031250
vt 0.781250 0.718750
vt 0.109375 0.421875
vt 0.171875 0.421875
vt 0.687500 0.000000
vt 0.750000 0.000000
vt 0.531250 0.999969
vt 0.578125 0.999969
vt 0.843750 0.031250
vt 0.656250 0.328125
vt 0.656250 0.968750
vt 0.515625 0.281250
vt 0.578125 0.296875
vt 0.531250 0.296875
s 1
usemtl MI_Bonfire
f 120/1/28 117/2/28 118/3/28 119/4/28
f 112/5/27 110/6/27 111/7/27 109/8/27
f 132/9/9 129/10/9 130/11/9 131/12/9
f 172/13/39 170/14/39 171/15/39 169/16/39
f 292/17/61 290/15/61 291/18/61 289/19/61
f 299/13/69 300/14/69 297/15/69 298/16/69
f 304/20/70 302/21/70 303/17/70 301/22/70
f 350/23/76 347/24/76 348/25/76 349/26/76
f 176/22/40 174/20/40 175/21/40 173/17/40
f 60/27/15 57/8/15 58/7/15 59/28/15
f 35/29/9 36/30/9 33/31/9 34/32/9
f 220/33/51 218/34/51 219/35/51 217/36/51
f 208/37/48 206/33/48 207/36/48 205/38/48
f 308/39/17 305/40/17 306/41/17 307/42/17
f 100/43/25 97/44/25 98/45/25 99/46/25
f 287/21/67 288/16/67 285/15/67 286/17/67
f 39/32/10 40/31/10 37/47/10 38/48/10
f 326/24/72 324/25/72 325/26/72 323/23/72
f 160/21/36 158/16/36 159/15/36 157/17/36
f 240/49/56 238/50/56 239/51/56 237/52/56
f 88/53/22 86/43/22 87/46/22 85/54/22
f 212/38/49 210/36/49 211/55/49 209/56/49
f 84/53/21 82/57/21 83/58/21 81/43/21
f 104/53/26 102/54/26 103/59/26 101/60/26
f 276/33/65 274/34/65 275/35/65 273/36/65
f 222/61/52 224/62/52 223/37/52 221/38/52
f 124/63/29 122/5/29 123/8/29 121/64/29
f 72/2/18 70/3/18 71/4/18 69/1/18
f 272/56/64 270/55/64 271/65/64 269/66/64
f 56/48/14 54/67/14 55/68/14 53/32/14
f 260/37/61 258/69/61 259/70/61 257/33/61
f 8/71/2 7/72/2 5/73/2 6/39/2
f 140/74/11 138/75/11 139/76/11 137/77/11
f 338/39/74 336/42/74 337/78/74 335/71/74
f 20/76/5 18/77/5 19/74/5 17/75/5
f 244/45/57 241/46/57 242/43/57 243/44/57
f 332/41/73 329/42/73 330/39/73 331/40/73
f 64/8/16 61/5/16 62/6/16 63/7/16
f 167/19/38 168/18/38 165/79/38 166/80/38
f 156/81/35 153/16/35 154/21/35 155/82/35
f 188/83/43 186/84/43 187/48/43 185/47/43
f 127/85/30 128/86/30 125/7/30 126/6/30
f 11/12/3 12/9/3 9/10/3 10/11/3
f 334/23/73 333/24/73 329/25/73 332/26/73
f 80/86/20 77/7/20 78/6/20 79/85/20
f 52/31/13 49/87/13 50/88/13 51/47/13
f 184/48/42 182/32/42 183/31/42 181/47/42
f 200/48/46 198/67/46 199/68/46 197/32/46
f 32/89/8 29/11/8 30/74/8 31/90/8
f 44/48/11 42/47/11 43/83/11 41/84/11
f 48/84/12 46/83/12 47/91/12 45/82/12
f 116/1/9 114/4/9 115/6/9 113/5/9
f 135/11/31 136/10/31 133/75/31 134/74/31
f 228/57/53 226/58/53 227/43/53 225/53/53
f 24/76/6 21/92/6 22/93/6 23/77/6
f 235/54/55 236/46/55 233/51/55 234/50/55
f 195/87/45 196/88/45 193/47/45 194/31/45
f 256/71/60 253/72/60 254/73/60 255/39/60
f 231/53/54 232/43/54 229/46/54 230/54/54
f 192/83/44 189/91/44 190/82/44 191/84/44
f 16/75/4 14/74/4 15/11/4 13/10/4
f 4/71/1 2/24/1 3/94/1 1/72/1
f 314/71/71 311/39/71 312/42/71 313/78/71
f 345/71/75 346/39/75 343/42/75 342/78/75
f 344/71/75 342/78/75 343/25/75 341/24/75
f 68/6/17 66/5/17 67/1/17 65/4/17
f 216/66/50 214/56/50 215/55/50 213/65/50
f 280/37/66 278/38/66 279/61/66 277/62/66
f 95/50/24 96/51/24 93/52/24 94/49/24
f 164/17/37 162/15/37 163/18/37 161/19/37
f 313/78/71 312/25/71 315/24/71 316/71/71
f 283/82/63 284/81/63 281/16/63 282/21/63
f 152/11/34 150/74/34 151/90/34 149/89/34
f 76/64/19 74/63/19 75/5/19 73/8/19
f 352/39/76 351/40/76 349/41/76 348/42/76
f 180/32/41 177/29/41 178/30/41 179/31/41
f 264/38/62 262/37/62 263/33/62 261/36/62
f 92/54/23 90/46/23 91/51/23 89/50/23
f 144/77/32 142/76/32 143/92/32 141/93/32
f 28/95/7 25/75/7 26/10/7 27/96/7
f 320/25/15 318/24/15 319/71/15 317/78/15
f 296/19/68 294/18/68 295/79/68 293/80/68
f 248/60/58 245/53/58 246/54/58 247/59/58
f 203/69/47 204/70/47 201/33/47 202/37/47
f 317/78/15 321/71/15 322/39/15 320/42/15
f 252/24/59 250/94/59 251/72/59 249/71/59
f 327/39/72 328/40/72 325/41/72 324/42/72
f 148/10/33 145/96/33 146/95/33 147/75/33
f 310/23/17 309/24/17 307/25/17 306/26/17
f 268/38/63 266/36/63 267/55/63 265/56/63
f 108/7/11 106/28/11 107/27/11 105/8/11
f 336/25/74 339/24/74 340/71/74 337/78/74
