# Blender 5.0.1
# www.blender.org
mtllib BP_Book_Red.mtl
o SM_Book_SM_Book_Open.001
v -9.375004 -36.665588 0.000000
v 9.374996 -36.665588 0.000000
v -9.375004 -36.665588 6.250000
v 9.374996 -36.665588 6.250000
v 9.374996 36.665588 -0.000000
v 9.374996 -36.665588 0.000000
v -9.375004 -36.665588 0.000000
v -9.375004 36.665588 -0.000000
v -9.375004 36.665588 6.250000
v 9.374996 36.665588 6.250000
v -9.375004 36.665588 -0.000000
v 9.374996 36.665588 -0.000000
v 9.374996 -36.665588 6.250000
v -9.375004 36.665588 6.250000
v -9.375004 -36.665588 6.250000
v 9.374996 36.665588 6.250000
v 9.374996 -36.665588 0.000000
v 9.374996 36.665588 -0.000000
v 9.374996 -36.665588 6.250000
v 9.374996 36.665588 6.250000
v -9.375004 -36.665588 6.250000
v -9.375004 36.665588 6.250000
v -9.375004 -36.665588 0.000000
v -9.375004 36.665588 -0.000000
v -45.824940 -32.634659 9.375000
v -0.824940 -32.634659 6.250000
v -0.824940 -32.634659 9.375000
v -45.824940 -32.634659 6.250000
v -45.824940 -32.634659 9.375000
v -0.824940 -32.634659 9.375000
v -45.824940 32.634644 9.375000
v -0.824940 32.634644 9.375000
v -0.824940 32.634644 6.250000
v -45.824940 32.634644 9.375000
v -0.824940 32.634644 9.375000
v -45.824940 32.634644 6.250000
v -45.824940 -32.634659 9.375000
v -45.824940 32.634644 9.375000
v -45.824940 -32.634659 6.250000
v -45.824940 32.634644 6.250000
v -0.824940 -32.634659 6.250000
v -0.824940 32.634644 6.250000
v -0.824940 -32.634659 9.375000
v -0.824940 32.634644 9.375000
v -53.125004 -36.260712 6.366007
v -3.125004 -36.260712 0.116007
v -3.125004 -36.260712 6.366007
v -53.125004 -36.260712 0.116007
v -53.125004 -36.260712 6.366007
v -3.125004 -36.260712 6.366007
v -53.125004 36.260727 6.366007
v -3.125004 36.260727 6.366007
v -3.125004 36.260727 0.116007
v -53.125004 36.260727 6.366007
v -3.125004 36.260727 6.366007
v -53.125004 36.260727 0.116007
v -53.125004 -36.260712 0.116007
v -3.125004 36.260727 0.116007
v -3.125004 -36.260712 0.116007
v -53.125004 36.260727 0.116007
v -53.125004 -36.260712 6.366007
v -53.125004 36.260727 6.366007
v -53.125004 -36.260712 0.116007
v -53.125004 36.260727 0.116007
v -3.125004 -36.260712 0.116007
v -3.125004 36.260727 0.116007
v -3.125004 -36.260712 6.366007
v -3.125004 36.260727 6.366007
v 0.474605 -32.634659 6.250000
v 45.474606 -32.634659 6.250000
v 0.474605 -32.634659 9.375000
v 45.474606 -32.634659 9.375000
v 0.474605 32.634644 9.375000
v 45.474606 32.634644 9.375000
v 0.474605 32.634644 6.250000
v 45.474606 32.634644 6.250000
v 45.474606 -32.634659 9.375000
v 0.474605 32.634644 9.375000
v 0.474605 -32.634659 9.375000
v 45.474606 32.634644 9.375000
v 45.474606 -32.634659 6.250000
v 45.474606 32.634644 6.250000
v 45.474606 -32.634659 9.375000
v 45.474606 32.634644 9.375000
v 0.474605 -32.634659 9.375000
v 0.474605 32.634644 9.375000
v 0.474605 -32.634659 6.250000
v 0.474605 32.634644 6.250000
v 3.124996 -36.260712 0.116007
v 53.124996 -36.260712 0.116007
v 3.124996 -36.260712 6.366007
v 53.124996 -36.260712 6.366010
v 53.124996 -36.260712 0.116007
v 3.124996 -36.260712 0.116007
v 53.124996 36.260727 0.116007
v 3.124996 36.260727 0.116007
v 3.124996 36.260727 6.366007
v 53.124996 36.260727 0.116007
v 3.124996 36.260727 0.116007
v 53.124996 36.260727 6.366010
v 53.124996 -36.260712 6.366010
v 3.124996 36.260727 6.366007
v 3.124996 -36.260712 6.366007
v 53.124996 36.260727 6.366010
v 53.124996 36.260727 0.116007
v 53.124996 -36.260712 6.366010
v 53.124996 -36.260712 0.116007
v 53.124996 36.260727 6.366010
v 3.124996 -36.260712 6.366007
v 3.124996 36.260727 6.366007
v 3.124996 -36.260712 0.116007
v 3.124996 36.260727 0.116007
vn -0.0000 -1.0000 -0.0000
vn -0.0000 -0.0000 -1.0000
vn -0.0000 1.0000 -0.0000
vn -0.0000 -0.0000 1.0000
vn 1.0000 -0.0000 -0.0000
vn -1.0000 -0.0000 -0.0000
vt 0.875000 0.968765
vt 0.656250 0.968765
vt 0.656250 0.999969
vt 0.875000 0.999969
vt 1.062500 0.999969
vt 1.062500 0.781250
vt 1.031250 0.781250
vt 1.031250 0.999969
vt 0.656250 0.687744
vt 0.875000 0.687744
vt 0.031250 0.968750
vt 0.000031 0.968750
vt 0.000031 0.999969
vt 0.031250 0.999969
vt 0.625000 0.718750
vt 0.625000 0.968750
vt 0.656250 0.968750
vt 0.656250 0.718750
vt 0.937500 0.531250
vt 0.937500 0.562500
vt 1.000000 0.562500
vt 1.000000 0.531250
vt 0.968750 0.750000
vt 1.000000 0.750000
vt 1.000000 0.656494
vt 0.968750 0.656250
vt 0.000031 0.718750
vt 0.281250 0.718750
vt 0.281250 0.468750
vt 0.000031 0.468750
vt 0.968750 0.781250
vt 0.968750 0.999969
vt 1.000000 0.999969
vt 1.000000 0.781250
vt 0.468750 0.593994
vt 0.468506 0.656250
vt 0.750000 0.656006
vt 0.750000 0.593750
vt -0.000031 0.468750
vt 0.093750 0.999969
vt 0.093750 0.718750
vt 0.625000 0.687500
vt 0.656250 0.687500
vt 1.000000 0.593750
vt 0.750000 0.656250
vt 1.000000 0.656250
vt 0.125000 0.718750
vt 0.125000 1.000037
vt 0.625000 0.999969
vt 0.375000 0.968750
vt 0.375000 0.999969
vt 0.375000 0.687500
vt 0.374756 0.999969
vt 0.843750 0.593750
vt 0.843750 0.562500
vt 0.937500 0.999969
vt 0.937500 0.750122
vt 0.906250 0.750122
vt 0.906250 0.999969
s 1
usemtl M_Book_Blank
f 48/1/1 46/2/1 47/3/1 45/4/1
f 68/5/5 67/6/5 65/7/5 66/8/5
f 60/1/2 58/2/2 59/9/2 57/10/2
f 40/11/6 39/12/6 37/13/6 38/14/6
f 56/4/3 54/1/3 55/2/3 53/3/3
f 84/11/5 83/12/5 81/13/5 82/14/5
f 64/15/6 63/16/6 61/17/6 62/18/6
f 36/14/3 34/11/3 35/12/3 33/13/3
f 10/19/3 12/20/3 11/21/3 9/22/3
f 2/23/1 4/24/1 3/25/1 1/26/1
f 74/14/3 76/11/3 75/12/3 73/13/3
f 50/27/4 52/28/4 51/29/4 49/30/4
f 88/13/6 87/14/6 85/11/6 86/12/6
f 24/31/6 23/32/6 21/33/6 22/34/6
f 16/35/4 14/36/4 15/37/4 13/38/4
f 104/39/4 102/27/4 103/28/4 101/29/4
f 30/27/4 32/13/4 31/40/4 29/41/4
f 28/11/1 26/12/1 27/13/1 25/14/1
f 70/14/1 72/11/1 71/12/1 69/13/1
f 108/42/5 106/16/5 107/17/5 105/43/5
f 7/44/2 8/38/2 5/45/2 6/46/2
f 44/13/5 43/14/5 41/11/5 42/12/5
f 80/47/4 78/27/4 79/13/4 77/48/4
f 90/49/1 92/16/1 91/50/1 89/51/1
f 94/52/2 96/50/2 95/16/2 93/42/2
f 100/49/3 98/16/3 99/50/3 97/53/3
f 20/54/5 19/44/5 17/21/5 18/55/5
f 112/56/6 111/57/6 109/58/6 110/59/6
