# Blender 5.0.1
# www.blender.org
mtllib BP_Candelabras_Fivearmed.mtl
o SM_Candelabra_Fivearmed.001
v 18.750000 -18.750000 12.500000
v -18.750000 -18.750000 12.500000
v -18.750000 -18.750000 0.000000
v 18.750000 -18.750000 0.000000
v 18.750000 18.750000 0.000002
v -18.750000 18.750000 0.000002
v -18.750000 18.750000 12.500002
v 18.750000 18.750000 12.500002
v 18.750000 -18.750000 0.000000
v -18.750000 -18.750000 0.000000
v -18.750000 18.750000 0.000002
v 18.750000 18.750000 0.000002
v 18.750000 18.750000 12.500002
v 18.750000 -18.750000 12.500000
v 18.750000 -18.750000 0.000000
v 18.750000 18.750000 0.000002
v -18.750000 -18.750000 12.500000
v -18.750000 18.750000 0.000002
v -18.750000 -18.750000 0.000000
v -18.750000 18.750000 12.500002
v -6.250000 -6.250002 43.750000
v -6.250000 -6.250000 12.500001
v 6.250000 -6.250002 43.750000
v 6.250000 -6.250000 12.500001
v 6.250000 6.250000 12.500001
v 6.250000 6.249998 43.750000
v 6.250000 -6.250000 12.500001
v 6.250000 -6.250002 43.750000
v -6.250000 6.250000 12.500001
v -6.250000 6.249998 43.750000
v 6.250000 6.250000 12.500001
v 6.250000 6.249998 43.750000
v -6.250000 -6.250002 43.750000
v -6.250000 6.250000 12.500001
v -6.250000 -6.250000 12.500001
v -6.250000 6.249998 43.750000
v -6.250000 -6.250004 87.499977
v -6.250000 -6.250002 56.250000
v 6.250000 -6.250004 87.499977
v 6.250000 -6.250002 56.250000
v 6.250000 6.249998 56.250000
v 6.250000 6.249996 87.499977
v 6.250000 -6.250002 56.250000
v 6.250000 -6.250004 87.499977
v -6.250000 6.249998 56.250000
v -6.250000 6.249996 87.499977
v 6.250000 6.249998 56.250000
v 6.250000 6.249996 87.499977
v -6.250000 -6.250004 87.499977
v -6.250000 6.249998 56.250000
v -6.250000 -6.250002 56.250000
v -6.250000 6.249996 87.499977
v 6.250000 -31.250002 56.250000
v 6.250000 -6.250002 56.250000
v -6.250000 -31.250002 56.250000
v -6.250000 -6.250002 56.250000
v 31.250000 -6.250002 56.250000
v 6.250000 6.249998 56.250000
v 31.250000 6.249998 56.250000
v 6.250000 31.249998 56.250000
v -6.250000 6.249998 56.250000
v -6.250000 31.249998 56.250000
v -31.250000 6.249998 56.250000
v -31.250000 -6.250002 56.250000
v 31.249998 -6.250003 81.249977
v 31.250000 6.249998 56.250000
v 31.250000 -6.250002 56.250000
v 31.249998 6.249997 81.249977
v -6.250000 31.249994 81.249977
v -6.250000 31.249998 56.250000
v 6.250000 31.249994 81.249977
v 6.250000 31.249998 56.250000
v -31.250000 6.249998 56.250000
v -31.249998 6.249997 81.249977
v -31.250000 -6.250002 56.250000
v -31.249998 -6.250003 81.249977
v -6.250000 -31.250002 81.249977
v 6.250000 -31.250002 56.250000
v -6.250000 -31.250002 56.250000
v 6.250000 -31.250002 81.249977
v 6.250000 -6.250006 143.750000
v 6.250000 6.249994 143.750000
v -6.250000 -6.250006 143.750000
v -6.250000 6.249994 143.750000
v 6.250000 31.249994 137.500000
v 6.250000 43.749992 137.500000
v -6.250000 31.249994 137.500000
v -6.250000 43.749992 137.500000
v 43.750000 -6.250006 137.500000
v 43.750000 6.249994 137.500000
v 31.250000 -6.250006 137.500000
v 31.250000 6.249994 137.500000
v -6.250000 -43.750008 137.500000
v 6.250000 -43.750008 137.500000
v 6.250000 -31.250006 137.500000
v -6.250000 -31.250006 137.500000
v -43.750000 -6.250006 137.500000
v -31.250000 -6.250006 137.500000
v -31.250000 6.249994 137.500000
v -43.750000 6.249994 137.500000
v 12.500000 -12.500004 93.849968
v -12.500000 -12.500004 93.849968
v -12.500000 -12.500004 87.499977
v 12.500000 -12.500004 87.499977
v 12.500000 12.499996 93.849968
v 12.500000 -12.500004 93.849968
v 12.500000 -12.500004 87.499977
v 12.500000 12.499996 87.499977
v 12.500000 12.499996 87.499977
v -12.500000 12.499996 87.499977
v -12.500000 12.499996 93.849968
v 12.500000 12.499996 93.849968
v -12.500000 -12.500004 93.849968
v -12.500000 12.499996 87.499977
v -12.500000 -12.500004 87.499977
v -12.500000 12.499996 93.849968
v 25.000000 -12.500004 87.399994
v 24.999998 12.499996 81.249977
v 24.999998 -12.500004 81.249977
v 25.000000 12.499996 87.399994
v 25.000000 -12.500004 87.399994
v 50.000000 -12.500004 81.249977
v 50.000000 -12.500004 87.399994
v 24.999998 -12.500004 81.249977
v 50.000000 12.499996 87.399994
v 50.000000 -12.500004 87.399994
v 50.000000 -12.500004 81.249977
v 50.000000 12.499996 81.249977
v 50.000000 12.499996 81.249977
v 24.999998 12.499996 81.249977
v 25.000000 12.499996 87.399994
v 50.000000 12.499996 87.399994
v 12.500000 24.999996 87.399994
v -12.500000 24.999996 87.399994
v -12.500000 24.999994 81.249977
v 12.500000 24.999994 81.249977
v 12.500000 24.999996 87.399994
v 12.500000 49.999996 81.249977
v 12.500000 49.999996 87.399994
v 12.500000 24.999994 81.249977
v 12.500000 49.999996 81.249977
v -12.500000 49.999996 81.249977
v -12.500000 49.999996 87.399994
v 12.500000 49.999996 87.399994
v -12.500000 24.999996 87.399994
v -12.500000 49.999996 81.249977
v -12.500000 24.999994 81.249977
v -12.500000 49.999996 87.399994
v -25.000000 12.499996 87.399994
v -25.000002 -12.500004 87.399994
v -24.999998 -12.500004 81.249977
v -24.999998 12.499996 81.249977
v -50.000000 12.499996 81.249977
v -25.000000 12.499996 87.399994
v -24.999998 12.499996 81.249977
v -50.000000 12.499996 87.399994
v -50.000000 -12.500004 87.399994
v -50.000000 12.499996 81.249977
v -50.000000 -12.500004 81.249977
v -50.000000 12.499996 87.399994
v -25.000002 -12.500004 87.399994
v -50.000000 -12.500004 87.399994
v -50.000000 -12.500004 81.249977
v -24.999998 -12.500004 81.249977
v 12.500000 -25.000004 81.249977
v -12.500000 -25.000004 81.249977
v -12.500000 -25.000006 87.399994
v 12.500000 -25.000006 87.399994
v -12.500000 -50.000004 81.249977
v -12.500000 -25.000006 87.399994
v -12.500000 -25.000004 81.249977
v -12.500000 -50.000004 87.399994
v 12.500000 -50.000004 87.399994
v -12.500000 -50.000004 87.399994
v -12.500000 -50.000004 81.249977
v 12.500000 -50.000004 81.249977
v 12.500000 -25.000006 87.399994
v 12.500000 -50.000004 87.399994
v 12.500000 -50.000004 81.249977
v 12.500000 -25.000004 81.249977
v -6.250000 -6.250006 143.750000
v -6.250000 -6.250004 93.849968
v 6.250000 -6.250006 143.750000
v 6.250000 -6.250004 93.849968
v 6.250000 6.249996 93.849968
v 6.250000 6.249994 143.750000
v 6.250000 -6.250004 93.849968
v 6.250000 -6.250006 143.750000
v -6.250000 6.249996 93.849968
v -6.250000 6.249994 143.750000
v 6.250000 6.249996 93.849968
v 6.250000 6.249994 143.750000
v -6.250000 -6.250006 143.750000
v -6.250000 6.249996 93.849968
v -6.250000 -6.250004 93.849968
v -6.250000 6.249994 143.750000
v -6.250000 31.249994 137.500000
v -6.250000 31.249996 87.399994
v 6.250000 31.249994 137.500000
v 6.250000 31.249996 87.399994
v 6.250000 43.749996 87.399994
v 6.250000 43.749992 137.500000
v 6.250000 31.249996 87.399994
v 6.250000 31.249994 137.500000
v -6.250000 43.749996 87.399994
v -6.250000 43.749992 137.500000
v 6.250000 43.749996 87.399994
v 6.250000 43.749992 137.500000
v -6.250000 31.249994 137.500000
v -6.250000 43.749996 87.399994
v -6.250000 31.249996 87.399994
v -6.250000 43.749992 137.500000
v 31.250000 -6.250006 137.500000
v 31.250000 -6.250004 87.399994
v 43.750000 -6.250006 137.500000
v 43.750000 -6.250004 87.399994
v 43.750000 6.249996 87.399994
v 43.750000 6.249994 137.500000
v 43.750000 -6.250004 87.399994
v 43.750000 -6.250006 137.500000
v 31.250000 6.249996 87.399994
v 31.250000 6.249994 137.500000
v 43.750000 6.249996 87.399994
v 43.750000 6.249994 137.500000
v 31.250000 -6.250006 137.500000
v 31.250000 6.249996 87.399994
v 31.250000 -6.250004 87.399994
v 31.250000 6.249994 137.500000
v -6.250000 -31.250004 87.399994
v -6.250000 -31.250006 137.500000
v 6.250000 -31.250004 87.399994
v 6.250000 -31.250006 137.500000
v -6.250000 -43.750008 137.500000
v -6.250000 -31.250004 87.399994
v -6.250000 -43.750004 87.399994
v -6.250000 -31.250006 137.500000
v -6.250000 -43.750008 137.500000
v -6.250000 -43.750004 87.399994
v 6.250000 -43.750008 137.500000
v 6.250000 -43.750004 87.399994
v 6.250000 -31.250004 87.399994
v 6.250000 -31.250006 137.500000
v 6.250000 -43.750004 87.399994
v 6.250000 -43.750008 137.500000
v -43.750000 6.249996 87.399994
v -43.750000 6.249994 137.500000
v -31.250000 6.249996 87.399994
v -31.250000 6.249994 137.500000
v -43.750000 -6.250006 137.500000
v -43.750000 6.249996 87.399994
v -43.750000 -6.250004 87.399994
v -43.750000 6.249994 137.500000
v -43.750000 -6.250006 137.500000
v -43.750000 -6.250004 87.399994
v -31.250000 -6.250006 137.500000
v -31.250000 -6.250004 87.399994
v -31.250000 6.249996 87.399994
v -31.250000 6.249994 137.500000
v -31.250000 -6.250004 87.399994
v -31.250000 -6.250006 137.500000
v -3.125000 -0.000007 156.250000
v -3.125000 -0.000006 143.750000
v 3.125000 -0.000007 156.250000
v 3.125000 -0.000006 143.750000
v -40.625000 -0.000007 150.000000
v -40.625000 -0.000006 137.500000
v -34.375000 -0.000007 150.000000
v -34.375000 -0.000006 137.500000
v -3.125000 37.499992 150.000000
v -3.125000 37.499992 137.500000
v 3.125000 37.499992 150.000000
v 3.125000 37.499992 137.500000
v 34.375000 -0.000007 150.000000
v 34.375000 -0.000006 137.500000
v 40.625000 -0.000007 150.000000
v 40.625000 -0.000006 137.500000
v -3.125000 -37.500008 150.000000
v -3.125000 -37.500008 137.500000
v 3.125000 -37.500008 150.000000
v 3.125000 -37.500008 137.500000
v 6.250000 -43.750004 56.249996
v -6.250000 -43.750004 56.249996
v -6.250000 -43.750004 43.749996
v 6.250000 -43.750004 43.749996
v -6.250000 -43.750004 81.249977
v 6.250000 -43.750004 81.249977
v 43.750000 -6.250002 56.250000
v 43.750000 -6.250002 43.750000
v 43.750000 6.249998 56.250000
v 43.750000 6.249998 43.750000
v 43.750000 6.249997 81.249977
v 43.750000 -6.250003 81.249977
v -6.250000 43.749996 43.750004
v -6.250000 43.749996 56.250004
v 6.250000 43.749996 43.750004
v 6.250000 43.749996 56.250004
v -6.250000 43.749996 81.249977
v 6.250000 43.749996 81.249977
v -43.750000 -6.250002 56.250000
v -43.750000 6.249998 43.750000
v -43.750000 -6.250002 43.750000
v -43.750000 6.249998 56.250000
v -43.750000 -6.250003 81.249977
v -43.750000 6.249997 81.249977
v 6.250000 -31.250002 56.250000
v 6.250000 -43.750004 81.249977
v 6.250000 -43.750004 56.249996
v 6.250000 -31.250002 81.249977
v -6.250000 -43.750004 81.249977
v -6.250000 -31.250002 56.250000
v -6.250000 -43.750004 56.249996
v -6.250000 -31.250002 81.249977
v 31.250000 6.249998 56.250000
v 43.750000 6.249997 81.249977
v 43.750000 6.249998 56.250000
v 31.249998 6.249997 81.249977
v 31.249998 -6.250003 81.249977
v 31.250000 -6.250002 56.250000
v 43.750000 -6.250003 81.249977
v 43.750000 -6.250002 56.250000
v -6.250000 31.249998 56.250000
v -6.250000 43.749996 81.249977
v -6.250000 43.749996 56.250004
v -6.250000 31.249994 81.249977
v 6.250000 43.749996 56.250004
v 6.250000 43.749996 81.249977
v 6.250000 31.249998 56.250000
v 6.250000 31.249994 81.249977
v -43.750000 -6.250003 81.249977
v -31.250000 -6.250002 56.250000
v -31.249998 -6.250003 81.249977
v -43.750000 -6.250002 56.250000
v -43.750000 6.249998 56.250000
v -43.750000 6.249997 81.249977
v -31.250000 6.249998 56.250000
v -31.249998 6.249997 81.249977
v 6.250000 -43.750004 43.749996
v -6.250000 -43.750004 43.749996
v -6.250000 -31.250002 43.750000
v 6.250000 -31.250002 43.750000
v -6.250000 -6.250002 43.750000
v 6.250000 -6.250002 43.750000
v 6.250000 -43.750004 43.749996
v 6.250000 -31.250002 43.750000
v -6.250000 -43.750004 43.749996
v -6.250000 -31.250002 43.750000
v 6.250000 6.249998 43.750000
v 31.250000 6.249998 43.750000
v 31.250000 -6.250002 43.750000
v 43.750000 6.249998 43.750000
v 43.750000 -6.250002 43.750000
v 31.250000 6.249998 43.750000
v 43.750000 6.249998 43.750000
v 31.250000 -6.250002 43.750000
v 43.750000 -6.250002 43.750000
v -6.250000 6.249998 43.750000
v -6.250000 31.249998 43.750000
v 6.250000 31.249998 43.750000
v -6.250000 43.749996 43.750004
v 6.250000 43.749996 43.750004
v -6.250000 31.249998 43.750000
v -6.250000 43.749996 43.750004
v 6.250000 31.249998 43.750000
v 6.250000 43.749996 43.750004
v -31.250000 -6.250002 43.750000
v -31.250000 6.249998 43.750000
v -43.750000 -6.250002 43.750000
v -43.750000 6.249998 43.750000
v -31.250000 -6.250002 43.750000
v -43.750000 -6.250002 43.750000
v -31.250000 6.249998 43.750000
v -43.750000 6.249998 43.750000
v -31.250000 -6.250004 87.399994
v -25.000000 12.499996 87.399994
v -31.250000 6.249996 87.399994
v -43.750000 6.249996 87.399994
v -25.000002 -12.500004 87.399994
v -50.000000 12.499996 87.399994
v -43.750000 -6.250004 87.399994
v -50.000000 -12.500004 87.399994
v 6.250000 -31.250002 81.249977
v -6.250000 -31.250002 81.249977
v -12.500000 -25.000004 81.249977
v -6.250000 -43.750004 81.249977
v 12.500000 -25.000004 81.249977
v -12.500000 -50.000004 81.249977
v 6.250000 -43.750004 81.249977
v 12.500000 -50.000004 81.249977
v -6.250000 -31.250004 87.399994
v 6.250000 -31.250004 87.399994
v 12.500000 -25.000006 87.399994
v 6.250000 -43.750004 87.399994
v -12.500000 -25.000006 87.399994
v 12.500000 -50.000004 87.399994
v -6.250000 -43.750004 87.399994
v -12.500000 -50.000004 87.399994
v -18.750000 -18.750000 12.500000
v 18.750000 -18.750000 12.500000
v 6.250000 -6.250000 12.500001
v -6.250000 -6.250000 12.500001
v 6.250000 6.250000 12.500001
v -18.750000 18.750000 12.500002
v 18.750000 18.750000 12.500002
v -6.250000 6.250000 12.500001
v 12.500000 -12.500004 87.499977
v -12.500000 -12.500004 87.499977
v -6.250000 -6.250004 87.499977
v 6.250000 -6.250004 87.499977
v -6.250000 6.249996 87.499977
v 12.500000 12.499996 87.499977
v -12.500000 12.499996 87.499977
v 6.250000 6.249996 87.499977
v -12.500000 -12.500004 93.849968
v 12.500000 -12.500004 93.849968
v 6.250000 -6.250004 93.849968
v -6.250000 -6.250004 93.849968
v 6.250000 6.249996 93.849968
v -12.500000 12.499996 93.849968
v 12.500000 12.499996 93.849968
v -6.250000 6.249996 93.849968
v 24.999998 -12.500004 81.249977
v 31.249998 6.249997 81.249977
v 31.249998 -6.250003 81.249977
v 50.000000 -12.500004 81.249977
v 24.999998 12.499996 81.249977
v 43.750000 -6.250003 81.249977
v 43.750000 6.249997 81.249977
v 50.000000 12.499996 81.249977
v 25.000000 12.499996 87.399994
v 25.000000 -12.500004 87.399994
v 31.250000 -6.250004 87.399994
v 31.250000 6.249996 87.399994
v 43.750000 -6.250004 87.399994
v 50.000000 12.499996 87.399994
v 50.000000 -12.500004 87.399994
v 43.750000 6.249996 87.399994
v 12.500000 24.999994 81.249977
v -12.500000 24.999994 81.249977
v -6.250000 31.249994 81.249977
v 6.250000 31.249994 81.249977
v -6.250000 43.749996 81.249977
v 12.500000 49.999996 81.249977
v -12.500000 49.999996 81.249977
v 6.250000 43.749996 81.249977
v -12.500000 24.999996 87.399994
v 12.500000 24.999996 87.399994
v 6.250000 31.249996 87.399994
v -6.250000 31.249996 87.399994
v 6.250000 43.749996 87.399994
v -12.500000 49.999996 87.399994
v 12.500000 49.999996 87.399994
v -6.250000 43.749996 87.399994
v -24.999998 12.499996 81.249977
v -24.999998 -12.500004 81.249977
v -31.249998 -6.250003 81.249977
v -31.249998 6.249997 81.249977
v -43.750000 -6.250003 81.249977
v -50.000000 12.499996 81.249977
v -50.000000 -12.500004 81.249977
v -43.750000 6.249997 81.249977
vn -0.0000 -1.0000 -0.0000
vn -0.0000 1.0000 -0.0000
vn -0.0000 -0.0000 -1.0000
vn 1.0000 -0.0000 -0.0000
vn -1.0000 -0.0000 -0.0000
vn -0.0000 -0.0000 1.0000
vt 0.125000 0.437500
vt 0.250000 0.437500
vt 0.250000 0.468750
vt 0.125000 0.468750
vt 0.562500 0.000000
vt 0.562500 0.125000
vt 0.500000 0.125000
vt 0.500000 0.000000
vt 0.187500 0.406250
vt 0.187500 0.281250
vt 0.250000 0.281250
vt 0.250000 0.406250
vt 0.625000 0.125000
vt 0.625000 0.000000
vt 0.687500 0.000000
vt 0.687500 0.125000
vt 0.625000 0.187500
vt 0.562500 0.187500
vt 0.687500 0.250000
vt 0.750000 0.250000
vt 0.750000 0.437500
vt 0.687500 0.437500
vt 0.125000 0.406250
vt 0.062500 0.406250
vt 0.062500 0.281250
vt 0.125000 0.281250
vt 0.062500 0.031250
vt 0.062500 0.093750
vt 0.031250 0.093750
vt 0.031250 0.031250
vt 0.375000 0.250000
vt 0.375000 0.000000
vt 0.437500 0.000000
vt 0.437500 0.250000
vt 0.500000 0.250000
vt 0.562500 0.250000
vt 0.500000 0.187500
vt 0.062500 0.125000
vt 0.000031 0.281250
vt 0.000031 0.125000
vt 0.000031 0.468750
vt 0.000031 0.437500
vt 0.312500 0.250000
vt 0.312500 0.000000
vt 0.937500 0.250000
vt 1.000000 0.250000
vt 1.000000 0.437500
vt 0.937500 0.437500
vt 0.937500 0.500000
vt 0.750000 0.500000
vt 0.125000 0.125000
vt 0.187500 0.125000
vt 0.250000 0.250000
vt 0.250000 0.000000
vt 0.750000 0.187500
vt 0.687500 0.187500
vt 0.937500 0.000000
vt 0.937500 0.187500
vt 0.750000 0.000000
vt 0.406250 0.343750
vt 0.250000 0.343750
vt 0.406250 0.281250
vt 0.750000 0.125000
vt 0.250000 0.125000
vt 0.000031 0.406250
vt 0.406250 0.406250
vt 0.406250 0.468750
vt 0.406250 0.531250
vt 0.250000 0.531250
vt 0.093750 0.031250
vt 0.125000 0.000000
vt 0.093750 0.093750
vt 0.000031 0.000000
vt 0.218750 0.031250
vt 0.156250 0.031250
vt 0.156250 0.093750
vt 0.218750 0.093750
vt 0.812500 0.312500
vt 0.812500 0.375000
vt 0.875000 0.312500
vt 0.875000 0.375000
s 1
usemtl MI_Candelabras
f 127/1/4 128/2/4 125/3/4 126/4/4
f 342/5/3 340/6/3 339/7/3 341/8/3
f 68/9/5 66/10/5 67/11/5 65/12/5
f 62/13/6 61/14/6 58/15/6 60/16/6
f 366/7/3 356/8/3 341/5/3 365/6/3
f 315/17/2 353/18/2 352/6/2 313/13/2
f 4/19/1 1/20/1 2/21/1 3/22/1
f 74/23/4 76/24/4 75/25/4 73/26/4
f 80/23/2 78/26/2 79/10/2 77/9/2
f 272/27/1 271/28/1 269/29/1 270/30/1
f 208/31/2 207/32/2 205/33/2 206/34/2
f 212/34/5 210/33/5 211/8/5 209/35/5
f 100/18/6 97/36/6 98/35/6 99/37/6
f 96/18/6 93/36/6 94/35/6 95/37/6
f 40/38/1 39/25/1 37/39/1 38/40/1
f 176/1/1 173/4/1 174/41/1 175/42/1
f 258/31/4 260/43/4 259/44/4 257/32/4
f 248/31/2 247/32/2 245/33/2 246/34/2
f 144/41/2 141/42/2 142/1/2 143/4/2
f 298/23/2 296/26/2 294/10/2 297/9/2
f 268/27/1 267/28/1 265/29/1 266/30/1
f 59/13/6 58/14/6 54/15/6 57/16/6
f 360/37/3 358/7/3 357/6/3 359/18/3
f 192/31/2 191/32/2 189/33/2 190/34/2
f 8/45/2 5/46/2 6/47/2 7/48/2
f 20/48/5 18/49/5 19/50/5 17/21/5
f 107/1/4 108/2/4 105/3/4 106/4/4
f 48/26/2 47/51/2 45/52/2 46/10/2
f 368/37/3 366/7/3 365/6/3 367/18/3
f 184/44/1 183/43/1 181/53/1 182/54/1
f 276/27/1 275/28/1 273/29/1 274/30/1
f 151/4/4 152/41/4 149/42/4 150/1/4
f 264/27/1 263/28/1 261/29/1 262/30/1
f 148/4/5 146/1/5 147/2/5 145/3/5
f 288/55/4 290/20/4 289/19/4 287/56/4
f 172/3/5 170/4/5 171/1/5 169/2/5
f 348/6/3 349/7/3 342/8/3 347/5/3
f 140/1/4 138/2/4 139/3/4 137/4/4
f 164/4/1 161/1/1 162/2/1 163/3/1
f 124/42/1 122/1/1 123/4/1 121/41/1
f 316/9/2 314/23/2 315/26/2 313/10/2
f 12/57/3 9/58/3 10/55/3 11/59/3
f 156/1/2 154/2/2 155/3/2 153/4/2
f 256/44/1 255/43/1 253/53/1 254/54/1
f 132/41/2 129/42/2 130/1/2 131/4/2
f 42/26/4 44/25/4 43/38/4 41/51/4
f 305/13/4 307/17/4 343/18/4 344/6/4
f 24/60/1 23/61/1 21/11/1 22/62/1
f 200/44/1 199/43/1 197/53/1 198/54/1
f 88/18/6 87/36/6 85/35/6 86/37/6
f 354/63/1 318/16/1 40/15/1 23/59/1
f 56/15/6 55/16/6 53/13/6 54/14/6
f 52/10/5 50/52/5 51/64/5 49/11/5
f 112/41/2 109/42/2 110/1/2 111/4/2
f 358/7/3 347/8/3 356/5/3 357/6/3
f 216/44/1 215/43/1 213/53/1 214/54/1
f 104/1/1 101/4/1 102/41/1 103/42/1
f 224/31/2 223/32/2 221/33/2 222/34/2
f 218/31/4 220/43/4 219/44/4 217/32/4
f 179/1/4 180/2/4 177/3/4 178/4/4
f 186/31/4 188/43/4 187/44/4 185/32/4
f 281/25/1 286/24/1 285/65/1 282/39/1
f 63/16/6 64/13/6 56/14/6 61/15/6
f 26/12/4 28/61/4 27/60/4 25/66/4
f 228/34/5 226/33/5 227/8/5 225/35/5
f 252/34/5 250/33/5 251/8/5 249/35/5
f 168/41/2 165/42/2 166/1/2 167/4/2
f 15/55/4 16/58/4 13/45/4 14/20/4
f 291/23/4 292/24/4 287/25/4 289/26/4
f 120/4/5 118/1/5 119/2/5 117/3/5
f 296/56/2 295/55/2 293/20/2 294/19/2
f 84/18/6 83/36/6 81/35/6 82/37/6
f 284/20/1 281/19/1 282/56/1 283/55/1
f 33/59/5 346/63/5 310/16/5 51/15/5
f 280/27/1 279/28/1 277/29/1 278/30/1
f 312/9/5 310/10/5 311/11/5 309/12/5
f 136/1/1 133/4/1 134/41/1 135/42/1
f 320/25/1 319/24/1 317/65/1 318/39/1
f 302/56/5 300/55/5 301/20/5 299/19/5
f 36/3/5 34/67/5 35/68/5 33/69/5
f 308/23/4 306/24/4 307/25/4 305/26/4
f 346/63/5 345/55/5 311/56/5 310/16/5
f 304/9/5 302/10/5 299/11/5 303/12/5
f 32/12/2 31/66/2 29/67/2 30/3/2
f 160/1/5 158/4/5 159/41/5 157/42/5
f 324/12/5 322/9/5 323/10/5 321/11/5
f 332/39/1 330/25/1 331/24/1 329/65/1
f 72/25/1 71/24/1 69/65/1 70/39/1
f 340/6/3 337/18/3 338/37/3 339/7/3
f 336/23/2 335/26/2 333/10/2 334/9/2
f 335/16/2 45/15/2 30/59/2 371/63/2
f 232/31/2 231/32/2 229/33/2 230/34/2
f 326/23/4 328/24/4 327/25/4 325/26/4
f 43/14/4 305/13/4 344/6/4 28/5/4
f 242/31/4 244/43/4 243/44/4 241/32/4
f 116/4/5 114/1/5 115/2/5 113/3/5
f 313/13/2 352/6/2 32/5/2 47/14/2
f 350/18/3 351/37/3 349/7/3 348/6/3
f 369/6/1 21/5/1 38/14/1 330/13/1
f 92/18/6 91/36/6 89/35/6 90/37/6
f 202/31/4 204/43/4 203/44/4 201/32/4
f 355/55/1 320/56/1 318/16/1 354/63/1
f 361/6/5 36/5/5 50/14/5 321/13/5
f 196/34/5 194/33/5 195/8/5 193/35/5
f 327/16/4 41/15/4 26/59/4 363/63/4
f 362/18/5 361/6/5 321/13/5 323/17/5
f 240/44/1 239/43/1 237/53/1 238/54/1
f 236/34/5 234/33/5 235/8/5 233/35/5
f 370/18/1 369/6/1 330/13/1 332/17/1
f 325/56/4 327/16/4 363/63/4 364/55/4
f 375/70/6 373/30/6 374/71/6
f 374/71/6 376/72/6 375/70/6
f 377/73/6 374/71/6 373/30/6
f 378/51/6 376/72/6 374/71/6
f 373/30/6 379/29/6 377/73/6
f 376/72/6 378/51/6 379/29/6
f 380/40/6 377/73/6 379/29/6
f 379/29/6 378/51/6 380/40/6
f 383/71/3 381/74/3 382/75/3
f 382/75/3 384/76/3 383/71/3
f 385/54/3 381/74/3 383/71/3
f 386/51/3 383/71/3 384/76/3
f 381/74/3 385/54/3 387/77/3
f 384/76/3 388/64/3 386/51/3
f 387/77/3 385/54/3 388/64/3
f 387/77/3 388/64/3 384/76/3
f 391/71/6 389/72/6 390/70/6
f 390/70/6 392/30/6 391/71/6
f 393/51/6 389/72/6 391/71/6
f 394/73/6 391/71/6 392/30/6
f 389/72/6 393/51/6 395/29/6
f 392/30/6 396/40/6 394/73/6
f 395/29/6 393/51/6 396/40/6
f 395/29/6 396/40/6 392/30/6
f 399/78/6 397/21/6 398/20/6
f 400/79/6 397/21/6 399/78/6
f 401/80/6 399/78/6 398/20/6
f 400/79/6 402/48/6 397/21/6
f 401/80/6 398/20/6 403/45/6
f 404/81/6 402/48/6 400/79/6
f 401/80/6 403/45/6 404/81/6
f 404/81/6 403/45/6 402/48/6
f 407/76/3 405/64/3 406/51/3
f 408/77/3 405/64/3 407/76/3
f 407/76/3 406/51/3 409/75/3
f 408/77/3 410/54/3 405/64/3
f 409/75/3 406/51/3 411/71/3
f 412/74/3 410/54/3 408/77/3
f 411/71/3 412/74/3 409/75/3
f 410/54/3 412/74/3 411/71/3
f 415/30/6 413/40/6 414/73/6
f 416/29/6 413/40/6 415/30/6
f 415/30/6 414/73/6 417/70/6
f 416/29/6 418/51/6 413/40/6
f 417/70/6 414/73/6 419/71/6
f 420/72/6 418/51/6 416/29/6
f 419/71/6 420/72/6 417/70/6
f 418/51/6 420/72/6 419/71/6
f 423/76/3 421/51/3 422/75/3
f 423/76/3 424/64/3 421/51/3
f 422/75/3 421/51/3 425/71/3
f 426/77/3 424/64/3 423/76/3
f 425/71/3 427/74/3 422/75/3
f 426/77/3 428/54/3 424/64/3
f 428/54/3 427/74/3 425/71/3
f 427/74/3 428/54/3 426/77/3
f 431/29/6 429/51/6 430/40/6
f 432/72/6 429/51/6 431/29/6
f 431/29/6 430/40/6 433/30/6
f 429/51/6 432/72/6 434/71/6
f 433/30/6 430/40/6 435/73/6
f 436/70/6 434/71/6 432/72/6
f 433/30/6 435/73/6 436/70/6
f 436/70/6 435/73/6 434/71/6
f 439/77/3 437/54/3 438/64/3
f 440/74/3 437/54/3 439/77/3
f 439/77/3 438/64/3 441/76/3
f 440/74/3 442/71/3 437/54/3
f 441/76/3 438/64/3 443/51/3
f 444/75/3 442/71/3 440/74/3
f 443/51/3 444/75/3 441/76/3
f 442/71/3 444/75/3 443/51/3
f 447/30/6 445/40/6 446/73/6
f 448/29/6 445/40/6 447/30/6
f 447/30/6 446/73/6 449/70/6
f 448/29/6 450/51/6 445/40/6
f 449/70/6 446/73/6 451/71/6
f 452/72/6 450/51/6 448/29/6
f 451/71/6 452/72/6 449/70/6
f 450/51/6 452/72/6 451/71/6
f 455/77/3 453/54/3 454/64/3
f 456/74/3 453/54/3 455/77/3
f 455/77/3 454/64/3 457/76/3
f 453/54/3 456/74/3 458/71/3
f 457/76/3 454/64/3 459/51/3
f 458/71/3 456/74/3 460/75/3
f 457/76/3 459/51/3 460/75/3
f 460/75/3 459/51/3 458/71/3
f 333/56/2 335/16/2 371/63/2 372/55/2
