# Blender 5.0.1
# www.blender.org
mtllib BP_CarpetBorder_Stairs.mtl
o SM_CarpetBorder_Stairs.001
v -50.000000 107.000000 107.000000
v 50.000000 107.000000 107.000000
v 50.000000 114.218742 107.000000
v -50.000000 114.218742 107.000000
v 50.000000 7.000000 7.000000
v -50.000000 7.000000 7.000000
v -50.000000 7.000000 0.125000
v 50.000000 7.000000 0.125000
v -50.000000 7.000000 57.000000
v 50.000000 7.000000 57.000000
v 50.000000 57.000000 57.000000
v -50.000000 57.000000 57.000000
v 50.000000 7.000000 57.000000
v -50.000000 7.000000 57.000000
v -50.000000 57.000000 107.000000
v 50.000000 57.000000 107.000000
v 50.000000 57.000000 107.000000
v -50.000000 57.000000 107.000000
v -50.000000 57.000000 57.000000
v 50.000000 57.000000 57.000000
vn -0.0000 -0.0000 1.0000
vn -0.0000 -1.0000 -0.0000
vt 0.500000 0.500000
vt 0.500000 0.250000
vt 1.000000 0.250000
vt 1.000000 0.500000
vt 0.500000 0.468750
vt 1.000000 0.468750
vt 1.000000 0.000000
vt 0.500000 0.000000
vt 1.000000 0.031250
vt 0.500000 0.031250
s 1
usemtl MI_CarpetBorders
f 1/1/1 15/2/1 16/3/1 2/4/1
f 12/1/1 9/2/1 10/3/1 11/4/1
f 4/1/1 1/5/1 2/6/1 3/4/1
f 5/7/2 13/3/2 14/2/2 6/8/2
f 8/7/2 5/9/2 6/10/2 7/8/2
f 20/7/2 17/3/2 18/2/2 19/8/2
