# Blender 5.0.1
# www.blender.org
mtllib BP_Cloud.mtl
o SM_Clouds_Shape10.001
v -900.000000 -600.000000 0.000031
v -900.000000 -900.000000 0.000084
v -900.000000 -600.000000 100.000038
v -900.000000 -900.000000 100.000084
v -600.000000 200.000000 -0.000099
v -600.000000 700.000000 99.999825
v -600.000000 200.000000 99.999901
v -600.000000 700.000000 -0.000175
v 900.000000 1500.000000 -0.000313
v 900.000000 700.000000 -0.000175
v 900.000000 1500.000000 99.999687
v 900.000000 700.000000 99.999825
v 1200.000000 -500.000000 0.000015
v 1200.000000 -200.000000 99.999977
v 1200.000000 -500.000000 100.000008
v 1200.000000 -200.000000 -0.000031
v -1300.000000 100.000000 -0.000084
v -1500.000000 100.000000 -0.000084
v -1300.000000 100.000000 99.999916
v -1500.000000 100.000000 99.999916
v -1000.000000 1500.000000 -0.000313
v -1300.000000 1500.000000 -0.000313
v -1000.000000 1500.000000 99.999687
v -1300.000000 1500.000000 99.999687
v 1500.000000 500.000000 -0.000145
v 1300.000000 500.000000 -0.000145
v 1500.000000 500.000000 99.999855
v 1300.000000 500.000000 99.999855
v -400.000000 -1500.000000 0.000175
v 400.000000 -1500.000000 0.000175
v -400.000000 -1500.000000 100.000175
v 400.000000 -1500.000000 100.000175
v -1000.000000 700.000000 -0.000175
v -1000.000000 1500.000000 99.999687
v -1000.000000 700.000000 99.999825
v -1000.000000 1500.000000 -0.000313
v 400.000000 -1500.000000 0.000175
v 400.000000 -1100.000000 100.000114
v 400.000000 -1500.000000 100.000175
v 400.000000 -1100.000000 0.000114
v 1200.000000 -200.000000 99.999977
v 1200.000000 -200.000000 -0.000031
v 1300.000000 -200.000000 -0.000031
v 1300.000000 -200.000000 99.999977
v 1500.000000 -200.000000 -0.000031
v 1500.000000 -200.000000 99.999977
v 1300.000000 1500.000000 99.999687
v 1300.000000 1500.000000 -0.000313
v 1200.000000 1500.000000 -0.000313
v 1200.000000 1500.000000 99.999687
v 900.000000 1500.000000 -0.000313
v 900.000000 1500.000000 99.999687
v -1300.000000 1500.000000 99.999687
v -1300.000000 700.000000 99.999825
v -1000.000000 1500.000000 99.999687
v -1000.000000 700.000000 99.999825
v -1300.000000 200.000000 99.999901
v -1000.000000 200.000000 99.999901
v -900.000000 700.000000 99.999825
v -1300.000000 100.000000 99.999916
v -900.000000 200.000000 99.999901
v -600.000000 700.000000 99.999825
v -600.000000 200.000000 99.999901
v -1000.000000 100.000000 99.999916
v -900.000000 100.000000 99.999916
v -1500.000000 100.000000 99.999916
v -1500.000000 -200.000000 99.999977
v -1300.000000 -200.000000 99.999977
v -1500.000000 -500.000000 100.000008
v -1000.000000 -200.000000 99.999977
v -1300.000000 -500.000000 100.000008
v -1500.000000 -600.000000 100.000038
v -1300.000000 -600.000000 100.000038
v -1000.000000 -500.000000 100.000008
v -1000.000000 -600.000000 100.000038
v -900.000000 -200.000000 99.999977
v -900.000000 -500.000000 100.000008
v -900.000000 -600.000000 100.000038
v -600.000000 100.000000 99.999916
v -400.000000 200.000000 99.999901
v -600.000000 -200.000000 99.999977
v -400.000000 100.000000 99.999916
v 400.000000 200.000000 99.999901
v -600.000000 -500.000000 100.000008
v -400.000000 -200.000000 99.999977
v 400.000000 100.000000 99.999916
v 600.000000 200.000000 99.999901
v -600.000000 -600.000000 100.000038
v -900.000000 -900.000000 100.000084
v -600.000000 -900.000000 100.000084
v -400.000000 -500.000000 100.000008
v -400.000000 -600.000000 100.000038
v -400.000000 -900.000000 100.000084
v 400.000000 -200.000000 99.999977
v 400.000000 -500.000000 100.000008
v 400.000000 -600.000000 100.000038
v 600.000000 100.000000 99.999916
v 600.000000 -200.000000 99.999977
v 600.000000 -500.000000 100.000008
v 400.000000 -900.000000 100.000084
v -400.000000 -1100.000000 100.000114
v 600.000000 -600.000000 100.000038
v 400.000000 -1100.000000 100.000114
v -400.000000 -1500.000000 100.000175
v 400.000000 -1500.000000 100.000175
v 600.000000 -900.000000 100.000084
v 600.000000 -1100.000000 100.000114
v 700.000000 -900.000000 100.000084
v 700.000000 -1100.000000 100.000114
v 700.000000 -600.000000 100.000038
v 700.000000 -500.000000 100.000008
v 700.000000 -200.000000 99.999977
v 900.000000 -200.000000 99.999977
v 900.000000 -500.000000 100.000008
v 700.000000 100.000000 99.999916
v 900.000000 100.000000 99.999916
v 1200.000000 -200.000000 99.999977
v 1200.000000 -500.000000 100.000008
v 1200.000000 100.000000 99.999916
v 700.000000 200.000000 99.999901
v 900.000000 200.000000 99.999901
v 700.000000 500.000000 99.999855
v 600.000000 500.000000 99.999855
v 600.000000 700.000000 99.999825
v 700.000000 700.000000 99.999825
v 900.000000 700.000000 99.999825
v 900.000000 500.000000 99.999855
v 900.000000 1500.000000 99.999687
v 1200.000000 1500.000000 99.999687
v 1200.000000 700.000000 99.999825
v 1300.000000 1500.000000 99.999687
v 1300.000000 700.000000 99.999825
v 1200.000000 500.000000 99.999855
v 1300.000000 500.000000 99.999855
v 1200.000000 200.000000 99.999901
v 1300.000000 200.000000 99.999901
v 1500.000000 500.000000 99.999855
v 1500.000000 200.000000 99.999901
v 1300.000000 100.000000 99.999916
v 1500.000000 100.000000 99.999916
v 1300.000000 -200.000000 99.999977
v 1500.000000 -200.000000 99.999977
v -1300.000000 700.000000 -0.000175
v -1300.000000 1500.000000 -0.000313
v -1000.000000 1500.000000 -0.000313
v -1000.000000 700.000000 -0.000175
v -1300.000000 200.000000 -0.000099
v -1000.000000 200.000000 -0.000099
v -900.000000 700.000000 -0.000175
v -1300.000000 100.000000 -0.000084
v -900.000000 200.000000 -0.000099
v -600.000000 700.000000 -0.000175
v -600.000000 200.000000 -0.000099
v -1000.000000 100.000000 -0.000084
v -900.000000 100.000000 -0.000084
v -1500.000000 -200.000000 -0.000031
v -1500.000000 100.000000 -0.000084
v -1300.000000 -200.000000 -0.000031
v -1500.000000 -500.000000 0.000015
v -1000.000000 -200.000000 -0.000031
v -1300.000000 -500.000000 0.000015
v -1500.000000 -600.000000 0.000031
v -1300.000000 -600.000000 0.000031
v -1000.000000 -500.000000 0.000015
v -1000.000000 -600.000000 0.000031
v -900.000000 -200.000000 -0.000031
v -900.000000 -500.000000 0.000015
v -900.000000 -600.000000 0.000031
v -600.000000 100.000000 -0.000084
v -400.000000 200.000000 -0.000099
v -600.000000 -200.000000 -0.000031
v -400.000000 100.000000 -0.000084
v 400.000000 200.000000 -0.000099
v -600.000000 -500.000000 0.000015
v -400.000000 -200.000000 -0.000031
v 400.000000 100.000000 -0.000084
v 600.000000 200.000000 -0.000099
v -600.000000 -600.000000 0.000031
v -900.000000 -900.000000 0.000084
v -600.000000 -900.000000 0.000084
v -400.000000 -500.000000 0.000015
v -400.000000 -600.000000 0.000031
v -400.000000 -900.000000 0.000084
v 400.000000 -200.000000 -0.000031
v 400.000000 -500.000000 0.000015
v 400.000000 -600.000000 0.000031
v 600.000000 100.000000 -0.000084
v 600.000000 -200.000000 -0.000031
v 600.000000 -500.000000 0.000015
v 400.000000 -900.000000 0.000084
v -400.000000 -1100.000000 0.000114
v 600.000000 -600.000000 0.000031
v 400.000000 -1100.000000 0.000114
v -400.000000 -1500.000000 0.000175
v 400.000000 -1500.000000 0.000175
v 600.000000 -900.000000 0.000084
v 600.000000 -1100.000000 0.000114
v 700.000000 -900.000000 0.000084
v 700.000000 -1100.000000 0.000114
v 700.000000 -600.000000 0.000031
v 700.000000 -500.000000 0.000015
v 700.000000 -200.000000 -0.000031
v 900.000000 -200.000000 -0.000031
v 900.000000 -500.000000 0.000015
v 700.000000 100.000000 -0.000084
v 1200.000000 -500.000000 0.000015
v 1200.000000 -200.000000 -0.000031
v 700.000000 200.000000 -0.000099
v 900.000000 100.000000 -0.000084
v 900.000000 200.000000 -0.000099
v 700.000000 500.000000 -0.000145
v 600.000000 500.000000 -0.000145
v 600.000000 700.000000 -0.000175
v 700.000000 700.000000 -0.000175
v 900.000000 700.000000 -0.000175
v 900.000000 500.000000 -0.000145
v 900.000000 1500.000000 -0.000313
v 1200.000000 1500.000000 -0.000313
v 1200.000000 700.000000 -0.000175
v 1300.000000 1500.000000 -0.000313
v 1300.000000 700.000000 -0.000175
v 1200.000000 500.000000 -0.000145
v 1300.000000 500.000000 -0.000145
v 1200.000000 200.000000 -0.000099
v 1300.000000 200.000000 -0.000099
v 1500.000000 500.000000 -0.000145
v 1500.000000 200.000000 -0.000099
v 1200.000000 100.000000 -0.000084
v 1300.000000 100.000000 -0.000084
v 1500.000000 100.000000 -0.000084
v 1300.000000 -200.000000 -0.000031
v 1500.000000 -200.000000 -0.000031
v -1000.000000 700.000000 99.999825
v -900.000000 700.000000 99.999825
v -1000.000000 700.000000 -0.000175
v -900.000000 700.000000 -0.000175
v -600.000000 700.000000 99.999825
v -600.000000 700.000000 -0.000175
v 600.000000 200.000000 -0.000099
v 400.000000 200.000000 -0.000099
v 600.000000 200.000000 99.999901
v 400.000000 200.000000 99.999901
v -400.000000 200.000000 -0.000099
v -400.000000 200.000000 99.999901
v -600.000000 200.000000 -0.000099
v -600.000000 200.000000 99.999901
v 400.000000 -1100.000000 0.000114
v 600.000000 -1100.000000 0.000114
v 400.000000 -1100.000000 100.000114
v 600.000000 -1100.000000 100.000114
v 700.000000 -1100.000000 0.000114
v 700.000000 -1100.000000 100.000114
v 700.000000 -1100.000000 0.000114
v 700.000000 -900.000000 100.000084
v 700.000000 -1100.000000 100.000114
v 700.000000 -900.000000 0.000084
v 700.000000 -600.000000 100.000038
v 700.000000 -600.000000 0.000031
v 700.000000 -500.000000 100.000008
v 700.000000 -500.000000 0.000015
v -900.000000 -900.000000 0.000084
v -600.000000 -900.000000 0.000084
v -900.000000 -900.000000 100.000084
v -600.000000 -900.000000 100.000084
v -400.000000 -900.000000 0.000084
v -400.000000 -900.000000 100.000084
v 600.000000 200.000000 99.999901
v 600.000000 500.000000 99.999855
v 600.000000 200.000000 -0.000099
v 600.000000 500.000000 -0.000145
v 600.000000 700.000000 99.999825
v 600.000000 700.000000 -0.000175
v 600.000000 700.000000 99.999825
v 700.000000 700.000000 99.999825
v 600.000000 700.000000 -0.000175
v 700.000000 700.000000 -0.000175
v 900.000000 700.000000 99.999825
v 900.000000 700.000000 -0.000175
v 700.000000 -500.000000 0.000015
v 900.000000 -500.000000 0.000015
v 700.000000 -500.000000 100.000008
v 900.000000 -500.000000 100.000008
v 1200.000000 -500.000000 0.000015
v 1200.000000 -500.000000 100.000008
v -400.000000 -1500.000000 100.000175
v -400.000000 -1100.000000 100.000114
v -400.000000 -1500.000000 0.000175
v -400.000000 -1100.000000 0.000114
v -400.000000 -900.000000 100.000084
v -400.000000 -900.000000 0.000084
v -1500.000000 -600.000000 100.000038
v -1500.000000 -500.000000 100.000008
v -1500.000000 -600.000000 0.000031
v -1500.000000 -500.000000 0.000015
v -1500.000000 -200.000000 99.999977
v -1500.000000 -200.000000 -0.000031
v -1500.000000 100.000000 99.999916
v -1500.000000 100.000000 -0.000084
v -1500.000000 -600.000000 0.000031
v -1300.000000 -600.000000 0.000031
v -1500.000000 -600.000000 100.000038
v -1300.000000 -600.000000 100.000038
v -1000.000000 -600.000000 0.000031
v -1000.000000 -600.000000 100.000038
v -900.000000 -600.000000 0.000031
v -900.000000 -600.000000 100.000038
v -1300.000000 100.000000 99.999916
v -1300.000000 200.000000 99.999901
v -1300.000000 100.000000 -0.000084
v -1300.000000 200.000000 -0.000099
v -1300.000000 700.000000 99.999825
v -1300.000000 700.000000 -0.000175
v -1300.000000 1500.000000 99.999687
v -1300.000000 1500.000000 -0.000313
v 1300.000000 500.000000 -0.000145
v 1300.000000 700.000000 99.999825
v 1300.000000 500.000000 99.999855
v 1300.000000 700.000000 -0.000175
v 1300.000000 1500.000000 99.999687
v 1300.000000 1500.000000 -0.000313
v 1500.000000 -200.000000 -0.000031
v 1500.000000 100.000000 99.999916
v 1500.000000 -200.000000 99.999977
v 1500.000000 100.000000 -0.000084
v 1500.000000 200.000000 99.999901
v 1500.000000 200.000000 -0.000099
v 1500.000000 500.000000 99.999855
v 1500.000000 500.000000 -0.000145
vn -1.0000 -0.0000 -0.0000
vn 1.0000 -0.0000 -0.0000
vn -0.0000 1.0000 -0.0000
vn -0.0000 -1.0000 -0.0000
vn -0.0000 -0.0000 1.0000
vn -0.0000 -0.0000 -1.0000
vt 0.937500 0.187500
vt 0.906250 0.187500
vt 0.906250 0.125000
vt 0.937500 0.125000
vt 1.000000 0.593750
vt 0.968750 0.593750
vt 0.968750 0.562500
vt 1.000000 0.562500
vt 1.000000 0.999969
vt 0.968750 0.999969
vt 0.968750 0.750000
vt 1.000000 0.750000
vt 0.343750 0.812500
vt 0.343750 0.843750
vt 0.281250 0.843750
vt 0.281250 0.812500
vt 0.281250 0.281250
vt 0.281250 0.187500
vt 0.187500 0.187500
vt 0.187500 0.281250
vt 0.343750 0.531250
vt 0.343750 0.500000
vt 0.281250 0.500000
vt 0.281250 0.531250
vt 0.187500 0.531250
vt 0.187500 0.687500
vt 0.156250 0.687500
vt 0.156250 0.531250
vt 0.187500 0.500000
vt 0.968750 0.093750
vt 1.000000 0.093750
vt 1.000000 0.343750
vt 0.968750 0.343750
vt 0.687500 0.187500
vt 0.656250 0.187500
vt 0.656250 0.125000
vt 0.687500 0.125000
vt 0.656250 0.312500
vt 0.656250 0.281250
vt 0.593750 0.281250
vt 0.593750 0.312500
vt 0.843750 0.406250
vt 0.843750 0.500000
vt 0.750000 0.500000
vt 0.750000 0.406250
vt 0.187500 0.406250
vt 0.156250 0.500000
vt 0.156250 0.406250
vt 0.843750 0.531250
vt 0.843750 0.625000
vt 0.750000 0.625000
vt 0.750000 0.531250
vt 0.937500 0.531250
vt 0.937500 0.625000
vt 0.875000 0.625000
vt 0.875000 0.531250
vt 0.843750 0.687500
vt 0.843750 0.937500
vt 0.750000 0.937500
vt 0.750000 0.687500
vt 0.281250 0.687500
vt 0.343750 0.281250
vt 0.343750 0.312500
vt 0.281250 0.312500
vt 0.687500 0.625000
vt 0.656250 0.625000
vt 0.656250 0.531250
vt 0.687500 0.531250
vt 0.187500 0.312500
vt 0.593750 0.125000
vt 0.593750 0.187500
vt 0.343750 0.187500
vt 0.343750 0.125000
vt 0.843750 0.156250
vt 0.875000 0.156250
vt 0.875000 0.250000
vt 0.843750 0.250000
vt 0.156250 0.312500
vt 0.750000 0.312500
vt 0.687500 0.406250
vt 0.687500 0.312500
vt 0.531250 0.593750
vt 0.531250 0.562500
vt 0.593750 0.562500
vt 0.593750 0.593750
vt 0.656250 0.406250
vt 0.593750 0.406250
vt 0.937500 0.500000
vt 0.875000 0.500000
vt 0.593750 0.500000
vt 0.593750 0.531250
vt 0.343750 0.406250
vt 0.281250 0.406250
vt 1.000000 0.031250
vt 0.968750 0.031250
vt 0.968750 0.000000
vt 1.000000 0.000000
vt 0.156250 0.937500
vt 0.062500 0.687500
vt 0.062500 0.937500
vt 0.656250 0.500000
vt 0.875000 0.406250
vt 0.062500 0.531250
vt 0.062500 0.500000
vt 0.750000 0.125000
vt 0.718750 0.125000
vt 0.718750 0.093750
vt 0.750000 0.093750
vt 0.312500 0.093750
vt 0.281250 0.093750
vt 0.281250 0.000000
vt 0.312500 0.000000
vt 0.593750 0.000000
vt 0.343750 0.000000
vt 0.062500 0.406250
vt 0.218750 0.000000
vt 0.250000 0.000000
vt 0.250000 0.093750
vt 0.218750 0.093750
vt 0.687500 0.281250
vt 0.250000 0.125000
vt 0.218750 0.125000
vt 0.750000 0.187500
vt 0.718750 0.187500
vt 0.687500 0.500000
vt 0.062500 0.281250
vt 0.062500 0.312500
vt 0.000031 0.312500
vt -0.000031 0.281250
vt 0.687500 0.687500
vt 0.000031 0.500000
vt -0.000031 0.406250
vt 0.875000 0.687500
vt 0.875000 0.937500
vt 0.281250 0.718750
vt 0.343750 0.687500
vt 0.343750 0.718750
vt 0.656250 0.687500
vt 0.875000 0.281250
vt 0.843750 0.281250
vt 0.531250 0.812500
vt 0.531250 0.843750
vt 0.468750 0.843750
vt 0.468750 0.812500
vt 0.593750 0.687500
vt 0.593750 0.718750
vt 0.343750 0.750000
vt 0.343750 0.781250
vt 0.281250 0.781250
vt 0.281250 0.750000
vt 0.937500 0.406250
vt 0.000031 0.281250
vt 0.000031 0.406250
vt 0.156250 0.281250
vt 0.843750 0.312500
vt 0.843750 0.000000
vt 0.875000 0.000000
vt 0.937500 0.593750
vt 0.937500 0.343750
vt 0.187500 0.218750
vt 0.156250 0.218750
vt 0.156250 0.187500
vt 0.156250 0.125000
vt 0.187500 0.125000
vt 0.375000 0.625000
vt 0.375000 0.656250
vt 0.312500 0.656250
vt 0.312500 0.625000
vt 0.656250 0.718750
vt 0.062500 0.218750
vt 0.031250 0.218750
vt 0.031250 0.125000
vt 0.062500 0.125000
vt 0.156250 0.000000
vt 0.187500 0.000000
vt 0.343750 0.562500
vt 0.343750 0.593750
vt 0.312500 0.593750
vt 0.312500 0.562500
vt 0.437500 0.593750
vt 0.437500 0.562500
vt 0.031250 0.093750
vt 0.062500 0.093750
vt 0.937500 0.250000
vt 0.906250 0.250000
vt 0.125000 0.156250
vt 0.093750 0.156250
vt 0.093750 0.093750
vt 0.125000 0.093750
vt 0.437500 0.812500
vt 0.437500 0.843750
vt 0.718750 0.000000
vt 0.750000 0.000000
vt 0.031250 0.000000
vt 0.062500 0.000000
vt 0.625000 0.812500
vt 0.625000 0.843750
vt 0.906250 0.343750
vt 0.468750 0.625000
vt 0.468750 0.656250
vt 0.406250 0.750000
vt 0.406250 0.781250
vt 0.812500 0.250000
vt 0.781250 0.250000
vt 0.781250 0.000000
vt 0.812500 0.000000
vt 0.906250 0.000000
vt 0.937500 0.000000
vt 0.593750 0.625000
vt 0.593750 0.656250
vt 0.500000 0.656250
vt 0.500000 0.625000
vt 0.656250 0.750000
vt 0.656250 0.781250
vt 0.093750 0.000000
vt 0.125000 0.000000
s 1
usemtl M_Clouds
f 289/1/1 290/2/1 288/3/1 286/4/1
f 308/5/1 310/6/1 309/7/1 307/8/1
f 313/9/1 314/10/1 312/11/1 311/12/1
f 256/13/2 254/14/2 255/15/2 253/16/2
f 178/17/6 180/18/6 179/19/6 168/20/6
f 170/21/6 172/22/6 169/23/6 153/24/6
f 61/25/5 59/26/5 56/27/5 58/28/5
f 79/23/5 63/24/5 61/25/5 65/29/5
f 10/30/1 12/31/1 11/32/1 9/33/1
f 311/12/1 312/11/1 310/6/1 308/5/1
f 108/34/5 106/35/5 107/36/5 109/37/5
f 189/38/6 192/39/6 186/40/6 185/41/6
f 117/42/5 119/43/5 116/44/5 113/45/5
f 76/46/5 65/29/5 64/47/5 70/48/5
f 135/49/5 133/50/5 127/51/5 121/52/5
f 138/53/5 137/54/5 134/55/5 136/56/5
f 130/57/5 129/58/5 128/59/5 126/60/5
f 152/61/6 153/24/6 151/25/6 149/26/6
f 151/25/6 155/29/6 154/47/6 148/28/6
f 92/62/5 91/63/5 84/64/5 88/17/5
f 90/18/5 88/17/5 78/20/5 89/19/5
f 122/65/5 123/66/5 87/67/5 120/68/5
f 174/64/6 178/17/6 168/20/6 167/69/6
f 103/70/5 100/71/5 93/72/5 101/73/5
f 237/74/3 238/75/3 236/76/3 234/77/3
f 77/69/5 76/46/5 70/48/5 74/78/5
f 196/35/6 197/36/6 193/70/6 190/71/6
f 114/79/5 113/45/5 112/80/5 111/81/5
f 18/82/3 20/83/3 19/84/3 17/85/3
f 99/38/5 98/86/5 94/87/5 95/41/5
f 218/58/6 219/57/6 215/60/6 217/59/6
f 140/88/5 138/53/5 136/56/5 139/89/5
f 88/17/5 84/64/5 77/69/5 78/20/5
f 86/90/5 83/91/5 80/21/5 82/22/5
f 177/67/6 212/66/6 211/65/6 208/68/6
f 121/52/5 127/51/5 122/65/5 120/68/5
f 85/92/5 82/22/5 79/23/5 81/93/5
f 274/94/3 276/95/3 275/96/3 273/97/3
f 145/98/6 146/27/6 143/99/6 144/100/6
f 98/86/5 97/101/5 86/90/5 94/87/5
f 229/89/6 231/102/6 207/42/6 228/43/6
f 95/41/5 94/87/5 85/92/5 91/63/5
f 63/24/5 62/61/5 59/26/5 61/25/5
f 153/24/6 169/23/6 155/29/6 151/25/6
f 64/47/5 58/28/5 57/103/5 60/104/5
f 136/56/5 134/55/5 133/50/5 135/49/5
f 43/105/4 44/106/4 41/107/4 42/108/4
f 155/29/6 166/46/6 160/48/6 154/47/6
f 22/109/3 24/110/3 23/111/3 21/112/3
f 105/113/5 103/70/5 101/73/5 104/114/5
f 70/48/5 64/47/5 60/104/5 68/115/5
f 171/93/6 174/64/6 167/69/6 166/46/6
f 51/116/3 52/117/3 50/118/3 49/119/3
f 111/81/5 99/38/5 102/39/5 110/120/5
f 49/119/3 50/118/3 47/121/3 48/122/3
f 181/63/6 182/62/6 178/17/6 174/64/6
f 45/123/4 46/124/4 44/106/4 43/105/4
f 116/44/5 115/125/5 112/80/5 113/45/5
f 73/126/5 71/127/5 69/128/5 72/129/5
f 190/71/6 193/70/6 191/73/6 183/72/6
f 74/78/5 70/48/5 68/115/5 71/127/5
f 102/39/5 99/38/5 95/41/5 96/40/5
f 82/22/5 80/21/5 63/24/5 79/23/5
f 219/57/6 222/50/6 216/51/6 215/60/6
f 127/51/5 126/60/5 125/130/5 122/65/5
f 68/115/5 60/104/5 66/131/5 67/132/5
f 222/50/6 224/49/6 210/52/6 216/51/6
f 215/60/6 216/51/6 211/65/6 214/130/6
f 132/133/5 131/134/5 129/58/5 130/57/5
f 58/28/5 56/27/5 54/99/5 57/103/5
f 228/43/6 207/42/6 203/45/6 209/44/6
f 245/135/3 246/61/3 244/136/3 243/137/3
f 214/130/6 211/65/6 212/66/6 213/138/6
f 234/77/3 236/76/3 235/139/3 233/140/3
f 56/27/5 55/98/5 53/100/5 54/99/5
f 84/64/5 81/93/5 76/46/5 77/69/5
f 97/101/5 87/67/5 83/91/5 86/90/5
f 280/141/4 282/142/4 281/143/4 279/144/4
f 243/137/3 244/136/3 242/145/3 240/146/3
f 26/147/3 28/148/3 27/149/3 25/150/3
f 94/87/5 86/90/5 82/22/5 85/92/5
f 203/45/6 204/79/6 201/81/6 202/80/6
f 100/71/5 96/40/5 92/62/5 93/72/5
f 142/151/5 140/88/5 139/89/5 141/102/5
f 65/29/5 61/25/5 58/28/5 64/47/5
f 160/48/6 164/78/6 161/127/6 158/115/6
f 96/40/5 95/41/5 91/63/5 92/62/5
f 161/127/6 163/126/6 162/152/6 159/128/6
f 93/72/5 92/62/5 88/17/5 90/18/5
f 154/47/6 160/48/6 158/115/6 150/104/6
f 209/44/6 203/45/6 202/80/6 205/125/6
f 150/104/6 158/115/6 156/153/6 157/131/6
f 141/102/5 139/89/5 119/43/5 117/42/5
f 121/52/5 120/68/5 115/125/5 116/44/5
f 172/22/6 175/92/6 171/93/6 169/23/6
f 120/68/5 87/67/5 97/101/5 115/125/5
f 78/20/5 77/69/5 74/78/5 75/154/5
f 169/23/6 171/93/6 166/46/6 155/29/6
f 184/87/6 185/41/6 181/63/6 175/92/6
f 167/69/6 168/20/6 165/154/6 164/78/6
f 71/127/5 68/115/5 67/132/5 69/128/5
f 107/36/5 106/35/5 100/71/5 103/70/5
f 182/62/6 183/72/6 180/18/6 178/17/6
f 175/92/6 181/63/6 174/64/6 171/93/6
f 106/35/5 102/39/5 96/40/5 100/71/5
f 177/67/6 187/101/6 176/90/6 173/91/6
f 187/101/6 177/67/6 208/68/6 205/125/6
f 176/90/6 184/87/6 175/92/6 172/22/6
f 173/91/6 176/90/6 172/22/6 170/21/6
f 112/80/5 98/86/5 99/38/5 111/81/5
f 192/39/6 196/35/6 190/71/6 186/40/6
f 186/40/6 190/71/6 183/72/6 182/62/6
f 110/120/5 102/39/5 106/35/5 108/34/5
f 188/86/6 189/38/6 185/41/6 184/87/6
f 204/79/6 203/45/6 207/42/6 206/155/6
f 187/101/6 188/86/6 184/87/6 176/90/6
f 75/154/5 74/78/5 71/127/5 73/126/5
f 118/155/5 117/42/5 113/45/5 114/79/5
f 193/70/6 195/113/6 194/114/6 191/73/6
f 197/36/6 196/35/6 198/34/6 199/37/6
f 115/125/5 97/101/5 98/86/5 112/80/5
f 192/39/6 189/38/6 201/81/6 200/120/6
f 196/35/6 192/39/6 200/120/6 198/34/6
f 8/75/2 6/74/2 7/156/2 5/157/2
f 188/86/6 187/101/6 205/125/6 202/80/6
f 185/41/6 186/40/6 182/62/6 181/63/6
f 30/158/4 32/6/4 31/33/4 29/159/4
f 226/54/6 227/53/6 225/56/6 223/55/6
f 91/63/5 85/92/5 81/93/5 84/64/5
f 210/52/6 209/44/6 205/125/6 208/68/6
f 166/46/6 167/69/6 164/78/6 160/48/6
f 224/49/6 228/43/6 209/44/6 210/52/6
f 81/93/5 79/23/5 65/29/5 76/46/5
f 230/88/6 232/151/6 231/102/6 229/89/6
f 223/55/6 225/56/6 224/49/6 222/50/6
f 122/65/5 125/130/5 124/138/5 123/66/5
f 251/160/4 252/161/4 250/162/4 248/19/4
f 221/133/6 223/55/6 222/50/6 219/57/6
f 220/134/6 221/133/6 219/57/6 218/58/6
f 216/51/6 210/52/6 208/68/6 211/65/6
f 189/38/6 188/86/6 202/80/6 201/81/6
f 134/55/5 132/133/5 130/57/5 133/50/5
f 146/27/6 148/28/6 147/103/6 143/99/6
f 133/50/5 130/57/5 126/60/5 127/51/5
f 248/19/4 250/162/4 249/163/4 247/164/4
f 158/115/6 161/127/6 159/128/6 156/153/6
f 227/53/6 230/88/6 229/89/6 225/56/6
f 119/43/5 135/49/5 121/52/5 116/44/5
f 300/165/4 302/166/4 301/167/4 299/168/4
f 139/89/5 136/56/5 135/49/5 119/43/5
f 240/146/3 242/145/3 241/138/3 239/169/3
f 328/170/2 327/171/2 325/172/2 326/173/2
f 40/164/2 38/163/2 39/174/2 37/175/2
f 292/176/1 294/177/1 293/178/1 291/179/1
f 225/56/6 229/89/6 228/43/6 224/49/6
f 164/78/6 165/154/6 163/126/6 161/127/6
f 297/83/1 298/82/1 296/180/1 295/181/1
f 326/173/2 325/172/2 322/182/2 324/183/2
f 148/28/6 154/47/6 150/104/6 147/103/6
f 149/26/6 151/25/6 148/28/6 146/27/6
f 277/31/3 278/30/3 276/95/3 274/94/3
f 265/2/4 266/1/4 264/184/4 262/185/4
f 271/186/1 272/187/1 270/188/1 268/189/1
f 258/190/2 257/191/2 254/14/2 256/13/2
f 16/108/2 14/107/2 15/192/2 13/193/2
f 324/183/2 322/182/2 323/194/2 321/195/2
f 283/196/4 284/197/4 282/142/4 280/141/4
f 262/185/4 264/184/4 263/159/4 261/198/4
f 303/199/4 304/200/4 302/166/4 300/165/4
f 318/201/2 316/202/2 317/148/2 315/147/2
f 36/203/2 34/204/2 35/205/2 33/206/2
f 286/4/1 288/3/1 287/207/1 285/208/1
f 2/209/1 4/210/1 3/211/1 1/212/1
f 295/181/1 296/180/1 294/177/1 292/176/1
f 320/213/2 319/214/2 316/202/2 318/201/2
f 268/189/1 270/188/1 269/215/1 267/216/1
f 260/144/2 259/143/2 257/191/2 258/190/2
f 305/212/4 306/211/4 304/200/4 303/199/4
