# Blender 5.0.1
# www.blender.org
mtllib BP_CandleWall_Unlit.mtl
o SM_CandleWall.001
v 0.000000 -25.000002 24.999998
v 0.000000 -24.999998 -25.000002
v 12.500000 -25.000002 24.999998
v 12.500000 -24.999998 -25.000002
v 12.500000 24.999998 25.000002
v 0.000000 -25.000002 24.999998
v 12.500000 -25.000002 24.999998
v 0.000000 24.999998 25.000002
v 0.000000 25.000002 -24.999998
v 0.000000 24.999998 25.000002
v 12.500000 25.000002 -24.999998
v 12.500000 24.999998 25.000002
v 0.000000 -24.999998 -25.000002
v 0.000000 25.000002 -24.999998
v 12.500000 -24.999998 -25.000002
v 12.500000 25.000002 -24.999998
v 25.000000 12.500001 -12.499999
v 25.000000 -12.499999 -12.500001
v 12.500000 -12.499999 -12.500001
v 12.500000 12.500001 -12.499999
v 25.000000 12.499999 12.500001
v 25.000000 12.500001 -12.499999
v 12.500000 12.500001 -12.499999
v 12.500000 12.499999 12.500001
v 25.000000 -12.500001 12.499999
v 12.500000 12.499999 12.500001
v 12.500000 -12.500001 12.499999
v 25.000000 12.499999 12.500001
v 25.000000 -12.499999 -12.500001
v 25.000000 -12.500001 12.499999
v 12.500000 -12.500001 12.499999
v 12.500000 -12.499999 -12.500001
v 43.750000 -6.250000 6.250000
v 25.000000 6.250000 6.250000
v 25.000000 -6.250000 6.250000
v 43.750000 6.250000 6.250000
v 56.250000 -6.250004 87.500000
v 43.750000 6.249996 87.500000
v 43.750000 -6.250004 87.500000
v 56.250000 6.249996 87.500000
v 43.750000 -6.250001 31.250000
v 43.750000 6.250000 6.250000
v 43.750000 -6.250000 6.250000
v 43.750000 6.249999 31.250000
v 37.500000 -12.500002 37.500000
v 37.500000 12.499999 31.250000
v 37.500000 -12.500001 31.250000
v 37.500000 12.499998 37.500000
v 62.500000 -12.500002 37.500000
v 37.500000 -12.500002 37.500000
v 37.500000 -12.500001 31.250000
v 62.500000 -12.500001 31.250000
v 62.500000 12.499998 37.500000
v 62.500000 -12.500002 37.500000
v 62.500000 -12.500001 31.250000
v 62.500000 12.499999 31.250000
v 62.500000 12.499999 31.250000
v 37.500000 12.499999 31.250000
v 37.500000 12.499998 37.500000
v 62.500000 12.499998 37.500000
v 43.750000 -6.250004 87.500000
v 43.750000 6.249999 37.500000
v 43.750000 -6.250001 37.500000
v 43.750000 6.249996 87.500000
v 43.750000 -6.250004 87.500000
v 43.750000 -6.250001 37.500000
v 56.250000 -6.250004 87.500000
v 56.250000 -6.250001 37.500000
v 56.250000 6.249999 37.500000
v 56.250000 6.249996 87.500000
v 56.250000 -6.250001 37.500000
v 56.250000 -6.250004 87.500000
v 43.750000 6.249999 37.500000
v 43.750000 6.249996 87.500000
v 56.250000 6.249999 37.500000
v 56.250000 6.249996 87.500000
v 50.000000 -3.125004 87.500000
v 50.000000 -3.125004 100.000000
v 50.000000 3.124996 100.000000
v 50.000000 3.124996 87.500000
v 43.750000 6.250000 6.250000
v 43.750000 6.249999 31.250000
v 56.250000 6.250000 6.250000
v 56.250000 6.249999 31.250000
v 43.750000 -6.250001 31.250000
v 43.750000 -6.250000 6.250000
v 56.250000 -6.250001 31.250000
v 56.250000 -6.250000 6.250000
v 37.500000 12.499998 37.500000
v 37.500000 -12.500002 37.500000
v 43.750000 -6.250001 37.500000
v 43.750000 6.249999 37.500000
v 62.500000 -12.500002 37.500000
v 56.250000 -6.250001 37.500000
v 56.250000 6.249999 37.500000
v 62.500000 12.499998 37.500000
v 56.250000 -6.250000 -6.250000
v 56.250000 6.250000 -6.250000
v 56.250000 6.250000 6.250000
v 56.250000 -6.250000 6.250000
v 56.250000 6.249999 31.250000
v 56.250000 -6.250001 31.250000
v 25.000000 -6.250000 -6.250000
v 25.000000 6.250000 -6.250000
v 43.750000 6.250000 -6.250000
v 43.750000 -6.250000 -6.250000
v 56.250000 6.250000 -6.250000
v 56.250000 -6.250000 -6.250000
v 25.000000 6.250000 -6.250000
v 25.000000 6.250000 6.250000
v 43.750000 6.250000 -6.250000
v 56.250000 6.250000 -6.250000
v 25.000000 -6.250000 6.250000
v 25.000000 -6.250000 -6.250000
v 43.750000 -6.250000 -6.250000
v 56.250000 -6.250000 -6.250000
v 12.500000 -24.999998 -25.000002
v 12.500000 25.000002 -24.999998
v 12.500000 12.500001 -12.499999
v 12.500000 -12.499999 -12.500001
v 12.500000 12.499999 12.500001
v 12.500000 -25.000002 24.999998
v 12.500000 24.999998 25.000002
v 12.500000 -12.500001 12.499999
v 25.000000 -12.499999 -12.500001
v 25.000000 12.500001 -12.499999
v 25.000000 6.250000 -6.250000
v 25.000000 -6.250000 -6.250000
v 25.000000 6.250000 6.250000
v 25.000000 -12.500001 12.499999
v 25.000000 12.499999 12.500001
v 25.000000 -6.250000 6.250000
v 37.500000 -12.500001 31.250000
v 43.750000 6.249999 31.250000
v 43.750000 -6.250001 31.250000
v 62.500000 -12.500001 31.250000
v 37.500000 12.499999 31.250000
v 56.250000 -6.250001 31.250000
v 56.250000 6.249999 31.250000
v 62.500000 12.499999 31.250000
vn -0.0000 -1.0000 -0.0000
vn -0.0000 -0.0000 1.0000
vn -0.0000 1.0000 -0.0000
vn -0.0000 -0.0000 -1.0000
vn -1.0000 -0.0000 -0.0000
vn 1.0000 -0.0000 -0.0000
vt 0.875000 0.812500
vt 0.750000 0.812500
vt 0.750000 0.999969
vt 0.875000 0.999969
vt 0.500000 0.999969
vt 0.000031 0.999969
vt 0.000031 0.875000
vt 0.500000 0.875000
vt 0.125000 0.062500
vt 0.125000 0.000000
vt 0.375000 0.000000
vt 0.375000 0.062500
vt 0.750000 0.312500
vt 0.750000 0.437500
vt 1.000000 0.437500
vt 1.000000 0.312500
vt 1.000000 0.687500
vt 0.875000 0.687500
vt 1.000000 0.812500
vt 0.625000 0.437500
vt 0.625000 0.687500
vt 0.750000 0.687500
vt 0.125000 0.250000
vt 0.125000 0.750000
vt 0.000031 0.750000
vt 0.000031 0.250000
vt 1.000000 0.999969
vt 0.125000 0.875000
vt 0.625000 0.875000
vt 0.625000 0.750000
vt 0.625000 0.000000
vt 0.625000 0.125000
vt 0.375000 0.125000
vt 0.062500 0.750000
vt 0.062500 0.875000
vt 0.625000 0.250000
vt 0.125000 0.125000
vt 0.625000 0.999969
vt 0.625000 0.312500
vt 0.625000 0.062500
vt 0.750000 0.062500
vt 0.062500 0.250000
vt 0.062500 0.000000
vt 0.125000 0.187500
vt 0.312500 0.125000
vt 0.187500 0.125000
vt 0.000031 0.000000
vt 0.875000 0.437500
vt 0.625000 0.812500
vt 0.500000 0.375000
vt 0.250000 0.375000
vt 0.500000 0.625000
vt 0.250000 0.625000
vt 0.937500 0.125000
vt 1.000000 0.062500
vt 0.812500 0.125000
vt 0.937500 0.250000
vt 0.812500 0.250000
vt 0.312500 0.562500
vt 0.312500 0.437500
vt 0.437500 0.562500
vt 0.437500 0.437500
s 1
usemtl MI_CandleWall
f 81/1/3 111/2/3 109/3/3 110/4/3
f 76/5/3 75/6/3 73/7/3 74/8/3
f 60/9/3 57/10/3 58/11/3 59/12/3
f 28/13/2 26/14/2 27/15/2 25/16/2
f 99/17/6 100/18/6 97/1/6 98/19/6
f 44/20/5 42/21/5 43/22/5 41/14/5
f 4/23/1 3/24/1 1/25/1 2/26/1
f 36/19/2 34/27/2 35/4/2 33/1/2
f 12/24/3 11/23/3 9/26/3 10/25/3
f 83/18/3 112/22/3 111/2/3 81/1/3
f 8/28/2 6/29/2 7/30/2 5/24/2
f 52/11/1 49/12/1 50/9/1 51/10/1
f 19/11/4 20/31/4 17/32/4 18/33/4
f 80/25/5 77/34/5 78/35/5 79/7/5
f 16/36/4 15/23/4 13/37/4 14/32/4
f 40/8/2 38/29/2 39/38/2 37/5/2
f 115/2/1 86/1/1 113/4/1 114/3/1
f 64/5/5 62/6/5 63/7/5 61/8/5
f 31/39/1 32/40/1 29/41/1 30/13/1
f 70/8/6 72/5/6 71/6/6 69/7/6
f 68/7/1 67/8/1 65/5/1 66/6/1
f 91/9/2 89/42/2 90/43/2
f 92/44/2 89/42/2 91/9/2
f 94/45/2 90/9/2 93/12/2
f 91/46/2 90/9/2 94/45/2
f 94/44/2 93/42/2 95/9/2
f 95/9/2 93/42/2 96/43/2
f 95/46/2 96/9/2 92/45/2
f 89/12/2 92/45/2 96/9/2
f 23/41/3 24/13/3 21/39/3 22/40/3
f 55/26/6 56/47/6 53/43/6 54/42/6
f 84/48/3 83/18/3 81/22/3 82/14/3
f 101/15/6 102/48/6 100/18/6 99/17/6
f 107/21/4 108/22/4 106/2/4 105/49/4
f 105/49/4 106/2/4 103/3/4 104/38/4
f 88/18/1 87/48/1 85/14/1 86/22/1
f 48/42/5 46/26/5 47/47/5 45/43/5
f 119/50/6 117/23/6 118/36/6
f 120/51/6 117/23/6 119/50/6
f 119/50/6 118/36/6 121/52/6
f 120/51/6 122/24/6 117/23/6
f 121/52/6 118/36/6 123/30/6
f 124/53/6 122/24/6 120/51/6
f 121/52/6 123/30/6 124/53/6
f 124/53/6 123/30/6 122/24/6
f 127/54/6 125/41/6 126/55/6
f 128/56/6 125/41/6 127/54/6
f 127/54/6 126/55/6 129/57/6
f 128/56/6 130/13/6 125/41/6
f 129/57/6 126/55/6 131/16/6
f 132/58/6 130/13/6 128/56/6
f 129/57/6 131/16/6 132/58/6
f 132/58/6 131/16/6 130/13/6
f 135/59/4 133/53/4 134/60/4
f 135/59/4 136/52/4 133/53/4
f 134/60/4 133/53/4 137/51/4
f 138/61/4 136/52/4 135/59/4
f 137/51/4 139/62/4 134/60/4
f 138/61/4 140/50/4 136/52/4
f 140/50/4 139/62/4 137/51/4
f 139/62/4 140/50/4 138/61/4
f 116/22/1 88/18/1 86/1/1 115/2/1
