# Blender 5.0.1
# www.blender.org
mtllib BP_CartBroken.mtl
o SM_CartBroken.001
v 101.272491 -5.597091 68.953903
v -129.630188 -9.742045 13.519077
v -125.241623 -10.984494 -4.667716
v 105.661057 -6.839540 50.767113
v 101.272491 -5.597091 68.953903
v -129.657593 8.963881 12.234549
v -129.630188 -9.742045 13.519077
v -129.657593 8.963881 12.234549
v 101.245087 13.108834 67.669380
v -125.269028 7.721434 -5.952241
v 101.245087 13.108834 67.669380
v 105.633652 11.866386 49.482586
v -129.657593 8.963881 12.234549
v 105.661057 -6.839540 50.767113
v -125.241623 -10.984494 -4.667716
v -125.269028 7.721434 -5.952241
v 105.661057 -6.839540 50.767113
v 105.633652 11.866386 49.482586
v 101.272491 -5.597091 68.953903
v 105.661057 -6.839540 50.767113
v 101.245087 13.108834 67.669380
v 105.633652 11.866386 49.482586
v -125.241623 -10.984494 -4.667716
v -129.657593 8.963881 12.234549
v -125.269028 7.721434 -5.952241
v -129.630188 -9.742045 13.519077
v -127.379410 -237.331284 74.715034
v -122.990845 -238.573715 56.528244
v -115.226639 -237.113113 77.632660
v -110.838074 -238.355576 59.445866
v -115.226639 -237.113113 77.632660
v -127.653450 -50.271996 61.869766
v -127.379410 -237.331284 74.715034
v -115.226639 -237.113113 77.632660
v -115.500679 -50.053841 64.787392
v -123.264885 -51.514446 43.682976
v -115.500679 -50.053841 64.787392
v -111.112114 -51.296291 46.600597
v -127.653450 -50.271996 61.869766
v -122.990845 -238.573715 56.528244
v -123.264885 -51.514446 43.682976
v -110.838074 -238.355576 59.445866
v -123.264885 -51.514446 43.682976
v -111.112114 -51.296291 46.600597
v -115.500679 -50.053841 64.787392
v -115.226639 -237.113113 77.632660
v -110.838074 -238.355576 59.445866
v -110.838074 -238.355576 59.445866
v -111.112114 -51.296291 46.600597
v -127.653450 -50.271996 61.869766
v -122.990845 -238.573715 56.528244
v -127.379410 -237.331284 74.715034
v -127.653450 -50.271996 61.869766
v -123.264885 -51.514446 43.682976
v 66.955338 -159.017090 116.258888
v 71.343903 -160.259537 98.072098
v 79.108109 -158.798935 119.176506
v 83.496674 -160.041382 100.989723
v 79.108109 -158.798935 119.176506
v 66.790916 -46.781521 108.551735
v 66.955338 -159.017090 116.258888
v 79.108109 -158.798935 119.176506
v 78.943687 -46.563366 111.469353
v 71.179482 -48.023972 90.364944
v 78.943687 -46.563366 111.469353
v 83.332253 -47.805817 93.282562
v 66.790916 -46.781521 108.551735
v 71.343903 -160.259537 98.072098
v 71.179482 -48.023972 90.364944
v 83.496674 -160.041382 100.989723
v 71.179482 -48.023972 90.364944
v 83.332253 -47.805817 93.282562
v 78.943687 -46.563366 111.469353
v 79.108109 -158.798935 119.176506
v 83.496674 -160.041382 100.989723
v 83.496674 -160.041382 100.989723
v 83.332253 -47.805817 93.282562
v 66.790916 -46.781521 108.551735
v 71.343903 -160.259537 98.072098
v 66.955338 -159.017090 116.258888
v 66.790916 -46.781521 108.551735
v 71.179482 -48.023972 90.364944
v 6.021029 -249.945358 18.750029
v -4.804291 -243.695358 18.750029
v -4.804291 -243.695358 0.000029
v 6.021029 -249.945358 0.000030
v 70.195702 -113.791557 0.000014
v 70.195702 -113.791557 18.750013
v 81.021019 -120.041557 0.000014
v 81.021019 -120.041557 18.750013
v 81.021019 -120.041557 18.750013
v 6.021029 -249.945358 18.750029
v 6.021029 -249.945358 0.000030
v 81.021019 -120.041557 0.000014
v -4.804291 -243.695358 18.750029
v 70.195702 -113.791557 0.000014
v -4.804291 -243.695358 0.000029
v 70.195702 -113.791557 18.750013
v -100.753380 -135.254379 9.731040
v 75.686798 -130.325439 77.744431
v -106.604797 -133.597778 33.980095
v 81.538208 -131.982040 53.495380
v 81.538208 -131.982040 53.495380
v -101.137032 126.628624 -8.252337
v 81.154556 129.900940 35.512005
v -100.753380 -135.254379 9.731040
v -106.988464 128.285217 15.996721
v 75.303139 131.557556 59.761059
v -101.137032 126.628624 -8.252337
v 81.154556 129.900940 35.512005
v 75.686798 -130.325439 77.744431
v -106.988464 128.285217 15.996721
v -106.604797 -133.597778 33.980095
v 75.303139 131.557556 59.761059
v 81.538208 -131.982040 53.495380
v 75.303139 131.557556 59.761059
v 75.686798 -130.325439 77.744431
v 81.538208 -131.982040 53.495380
v 81.154556 129.900940 35.512005
v -106.604797 -133.597778 33.980095
v -106.988464 128.285217 15.996721
v -100.753380 -135.254379 9.731040
v -106.988464 128.285217 15.996721
v -101.137032 126.628624 -8.252337
v 63.168633 118.868797 57.699783
v -94.817421 116.032776 19.770693
v -94.835693 128.503387 18.914345
v 63.168633 118.868797 57.699783
v 63.150360 131.339401 56.843437
v 63.168633 118.868797 57.699783
v 48.521809 135.480896 117.466064
v 48.540077 123.010292 118.322418
v 63.150360 131.339401 56.843437
v 48.540077 123.010292 118.322418
v -109.464233 132.644882 79.536972
v -109.445969 120.174278 80.393318
v -109.464233 132.644882 79.536972
v 48.521809 135.480896 117.466064
v -94.817421 116.032776 19.770693
v 48.540077 123.010292 118.322418
v -109.445969 120.174278 80.393318
v 63.168633 118.868797 57.699783
v -94.835693 128.503387 18.914345
v 48.521809 135.480896 117.466064
v 63.150360 131.339401 56.843437
v -109.464233 132.644882 79.536972
v -94.817421 116.032776 19.770693
v -109.464233 132.644882 79.536972
v -94.835693 128.503387 18.914345
v -109.445969 120.174278 80.393318
v -109.080574 -129.238129 97.520348
v -121.233345 -129.456284 94.602722
v -94.452034 -133.379623 36.897720
v -106.604797 -133.597778 33.980095
v -106.988464 128.285217 15.996721
v -94.452034 -133.379623 36.897720
v -106.988464 128.285217 15.996721
v -121.617012 132.426712 76.619354
v -109.080574 -129.238129 97.520348
v -121.617012 132.426712 76.619354
v -121.233345 -129.456284 94.602722
v -109.080574 -129.238129 97.520348
v -121.617012 132.426712 76.619354
v -121.617012 132.426712 76.619354
v -121.233345 -129.456284 94.602722
v -94.452034 -133.379623 36.897720
v -109.464233 132.644882 79.536972
v -109.080574 -129.238129 97.520348
v -94.452034 -133.379623 36.897720
v -94.835693 128.503387 18.914345
v 61.058250 -126.183945 138.367065
v 63.534019 -130.543594 74.826813
v 48.905472 -126.402100 135.449448
v 75.686798 -130.325439 77.744431
v 75.303139 131.557556 59.761059
v 63.150360 131.339401 56.843437
v 63.534019 -130.543594 74.826813
v 60.674599 135.699036 120.383690
v 61.058250 -126.183945 138.367065
v 48.905472 -126.402100 135.449448
v 61.058250 -126.183945 138.367065
v 60.674599 135.699036 120.383690
v 60.674599 135.699036 120.383690
v 61.058250 -126.183945 138.367065
v 75.686798 -130.325439 77.744431
v 48.905472 -126.402100 135.449448
v 48.521809 135.480896 117.466064
v 63.534019 -130.543594 74.826813
v 48.521809 135.480896 117.466064
v 63.150360 131.339401 56.843437
v 6.021029 -249.945358 18.750029
v 70.195702 -113.791557 18.750013
v -4.804291 -243.695358 18.750029
v 81.021019 -120.041557 18.750013
v 81.021019 -120.041557 0.000014
v 6.021029 -249.945358 0.000030
v 70.195702 -113.791557 0.000014
v -4.804291 -243.695358 0.000029
v 95.140327 -43.684601 15.140162
v 95.862579 43.609734 9.350850
v 107.718170 -43.466442 18.160358
v 108.015350 43.827892 12.268471
v 95.862579 43.609734 9.350850
v 87.110313 49.625977 97.037590
v 108.015350 43.827892 12.268471
v 74.957550 49.407825 94.119965
v 75.085426 -37.886513 100.114426
v 107.718170 -43.466442 18.160358
v 87.238205 -37.668358 103.032051
v 95.140327 -43.684601 15.140162
v -145.505707 -41.947395 12.052641
v -233.047455 -42.238846 -0.148047
v -145.549896 -41.659973 -0.443991
v -233.001801 -42.528671 12.785842
v 95.140327 -43.684601 15.140162
v 75.085426 -37.886513 100.114426
v 95.862579 43.609734 9.350850
v 74.957550 49.407825 94.119965
v -146.121796 45.814987 1.569949
v -233.620880 45.238522 1.428633
v -233.576706 44.951107 13.925255
v -146.077637 45.527573 14.066567
v -233.001801 -42.528671 12.785842
v -233.576706 44.951107 13.925255
v -233.047455 -42.238846 -0.148047
v -233.620880 45.238522 1.428633
v 87.238205 -37.668358 103.032051
v 108.015350 43.827892 12.268471
v 87.110313 49.625977 97.037590
v 107.718170 -43.466442 18.160358
v 87.238205 -37.668358 103.032051
v 74.957550 49.407825 94.119965
v 75.085426 -37.886513 100.114426
v 87.110313 49.625977 97.037590
v -233.001801 -42.528671 12.785842
v -145.505707 -41.947395 12.052641
v -233.576706 44.951107 13.925255
v -146.077637 45.527573 14.066567
v -145.549896 -41.659973 -0.443991
v -233.620880 45.238522 1.428633
v -146.121796 45.814987 1.569949
v -233.047455 -42.238846 -0.148047
v -146.121796 45.814987 1.569949
v -145.505707 -41.947395 12.052641
v -145.549896 -41.659973 -0.443991
v -146.077637 45.527573 14.066567
vn 0.0015 -0.9976 0.0685
vn -0.2341 0.0663 0.9700
vn -0.0015 0.9976 -0.0685
vn 0.2341 -0.0663 -0.9700
vn 0.9722 0.0175 0.2334
vn -0.9722 -0.0175 -0.2334
vn -0.5000 -0.8660 -0.0000
vn 0.5000 0.8660 -0.0000
vn 0.8660 -0.5000 -0.0000
vn -0.8660 0.5000 -0.0000
vn -0.0000 -0.0000 1.0000
vn -0.0000 -0.0000 -1.0000
vn -0.0014 0.9976 -0.0686
vn 0.0012 -0.9977 0.0684
vn 0.0065 -0.9997 -0.0227
vn -0.9722 -0.0125 -0.2337
vn -0.0066 0.9997 0.0230
vn -1.0000 -0.0066 0.0034
vn 0.9716 0.0151 0.2360
vn 0.0035 -0.0180 0.9998
vn -0.0010 0.0205 -0.9998
vn 1.0000 0.0066 -0.0034
vt 0.023438 0.468750
vt 0.320312 0.468750
vt 0.320312 0.492676
vt 0.023438 0.492676
vt 0.023438 0.445801
vt 0.320312 0.445801
vt 0.320312 0.421875
vt 0.320312 0.437500
vt 0.437500 0.437500
vt 0.437500 0.421875
vt 0.320312 0.515625
vt 0.023438 0.515625
vt 0.859375 0.796875
vt 0.875000 0.796875
vt 0.875000 0.984375
vt 0.859375 0.984375
vt 0.835938 0.796875
vt 0.835938 0.781250
vt 0.859375 0.781250
vt 0.757812 0.750000
vt 0.773438 0.750000
vt 0.757812 0.984375
vt 0.773438 0.984375
vt 0.835938 0.984375
vt 0.859375 0.999969
vt 0.835938 0.999969
vt 0.718750 0.750000
vt 0.734375 0.750000
vt 0.734375 0.984375
vt 0.718750 0.984375
vt 0.796875 0.750000
vt 0.796875 0.984375
vt 0.914062 0.999969
vt 0.914062 0.984375
vt 0.937500 0.984375
vt 0.937500 0.999969
vt 0.898438 0.843750
vt 0.914062 0.843750
vt 0.898438 0.984375
vt 0.000031 0.703125
vt 0.000031 0.625000
vt 0.015625 0.625000
vt 0.015625 0.703125
vt 0.937500 0.843750
vt 0.953125 0.843750
vt 0.953125 0.984375
vt 0.875000 0.843750
vt 0.578125 0.656250
vt 0.375000 0.656250
vt 0.375000 0.734375
vt 0.578125 0.734375
vt 0.375000 0.562500
vt 0.375000 0.640625
vt 0.578125 0.640625
vt 0.578125 0.562500
vt 0.023438 0.421875
vt 0.343750 0.445801
vt 0.343750 0.468750
vt 0.757812 0.999969
vt 0.734375 0.999969
vt 0.734375 0.734375
vt 0.757812 0.734375
vt 0.390625 0.968750
vt 0.718750 0.968750
vt 0.718750 0.734375
vt 0.390625 0.734375
vt 0.359375 0.734375
vt 0.359375 0.703125
vt 0.031250 0.734375
vt 0.031250 0.703125
vt 0.359375 0.999969
vt 0.359375 0.968750
vt 0.031250 0.968750
vt 0.031250 0.999969
vt 0.563477 1.572266
vt 0.927734 2.022461
vt 0.921875 1.572266
vt 0.569824 2.022461
vt 0.820312 0.984375
vt 0.820312 0.796875
vt 0.000031 0.468750
vt 0.000031 0.445801
vt 0.359375 0.625000
vt 0.343750 0.625000
vt 0.343750 0.703125
vt 0.001853 1.026947
vt 0.001853 1.568359
vt 0.359863 1.568359
vt 0.359863 1.026947
vt 0.015625 0.531250
vt 0.015625 0.515625
vt 0.343750 0.515625
vt 0.343750 0.531250
vt 0.937500 0.828125
vt 0.914062 0.828125
vt 0.015625 0.609375
vt 0.343750 0.609375
vt 0.724121 1.026962
vt 0.366211 1.026962
vt 0.366211 1.568359
vt 0.724121 1.568359
vt 0.000031 0.734375
vt 0.000031 0.968750
vt 0.796875 0.796875
vt 0.453125 0.437500
vt 0.343750 0.437500
vt 0.343750 0.546875
vt 0.453125 0.546875
vt 0.320312 0.406250
vt 0.437500 0.406250
s 1
usemtl MI_CartBroken
f 13/1/3 11/2/3 12/3/3 10/4/3
f 7/5/2 5/6/2 6/1/2
f 9/2/2 8/1/2 5/6/2
f 234/7/2 232/8/2 233/9/2 231/10/2
f 16/4/4 14/11/4 15/12/4
f 18/3/4 17/11/4 16/4/4
f 196/13/12 198/14/12 197/15/12 195/16/12
f 86/13/7 83/17/7 84/18/7 85/19/7
f 246/8/22 244/9/22 245/10/22 243/7/22
f 33/20/2 31/21/2 32/22/2
f 35/23/2 32/22/2 34/21/2
f 90/24/8 89/16/8 87/25/8 88/26/8
f 42/27/4 40/28/4 41/29/4
f 44/30/4 42/27/4 43/29/4
f 47/31/5 45/23/5 46/21/5
f 45/23/5 48/31/5 49/32/5
f 52/20/6 50/22/6 51/28/6
f 54/29/6 51/28/6 53/22/6
f 67/33/3 65/34/3 66/35/3 64/36/3
f 61/37/2 59/38/2 60/39/2
f 63/34/2 60/39/2 62/38/2
f 153/40/1 151/41/1 152/42/1 101/43/1
f 70/44/4 68/45/4 69/46/4
f 72/35/4 70/44/4 71/46/4
f 75/44/5 73/34/5 74/38/5
f 73/34/5 76/44/5 77/35/5
f 80/37/6 78/39/6 79/47/6
f 82/15/6 79/47/6 81/39/6
f 93/13/9 94/16/9 91/24/9 92/17/9
f 146/48/3 144/49/3 145/50/3 143/51/3
f 142/52/1 140/53/1 141/54/1 139/55/1
f 4/7/1 1/6/1 2/5/1 3/56/1
f 20/57/5 22/58/5 21/2/5 19/6/5
f 39/22/3 37/59/3 38/60/3 36/29/3
f 28/28/1 30/61/1 29/62/1 27/20/1
f 106/63/4 104/64/4 105/65/4 103/66/4
f 117/67/5 115/68/5 116/69/5
f 119/70/5 116/69/5 118/68/5
f 122/71/6 120/72/6 121/73/6
f 122/71/6 123/73/6 124/74/6
f 127/75/4 125/76/4 126/77/4
f 129/78/4 128/76/4 127/75/4
f 194/24/11 192/79/11 193/80/11 191/17/11
f 136/54/2 134/53/2 135/48/2
f 138/49/2 137/48/2 134/53/2
f 102/66/1 100/67/1 101/72/1 99/63/1
f 26/5/6 24/1/6 25/81/6 23/82/6
f 145/68/3 144/83/3 178/84/3 108/85/3
f 133/86/5 131/87/5 132/88/5 130/89/5
f 156/90/4 154/91/4 155/92/4
f 127/93/4 156/90/4 157/92/4
f 56/94/1 58/44/1 57/38/1 55/95/1
f 161/42/2 159/96/2 160/84/2
f 135/97/2 160/84/2 162/96/2
f 123/85/6 120/43/6 163/84/6
f 165/42/6 164/84/6 120/43/6
f 168/96/5 166/90/5 167/97/5
f 170/93/5 167/97/5 169/90/5
f 150/98/6 148/99/6 149/100/6 147/101/6
f 175/92/4 174/91/4 129/93/4
f 177/90/4 176/93/4 174/91/4
f 108/69/3 110/102/3 109/103/3 107/73/3
f 180/96/2 179/42/2 138/97/2
f 182/84/2 138/97/2 181/42/2
f 184/42/5 117/43/5 183/84/5
f 116/85/5 183/84/5 185/43/5
f 188/90/6 186/96/6 187/97/6
f 188/90/6 189/97/6 190/93/6
f 173/41/1 172/40/1 100/43/1 171/42/1
f 98/79/10 96/32/10 97/104/10 95/80/10
f 226/7/18 225/10/18 223/9/18 224/8/18
f 216/105/16 218/106/16 217/107/16 215/108/16
f 214/109/15 212/7/15 213/10/15 211/110/15
f 230/108/19 228/107/19 229/106/19 227/105/19
f 236/105/20 238/106/20 237/107/20 235/108/20
f 206/110/13 204/10/13 205/7/13 203/109/13
f 242/108/21 240/107/21 241/106/21 239/105/21
f 158/84/3 146/83/3 143/68/3 107/85/3
f 202/7/4 201/10/4 199/9/4 200/8/4
f 222/110/17 219/10/17 220/7/17 221/109/17
f 210/109/14 208/7/14 209/10/14 207/110/14
f 114/69/2 112/73/2 113/72/2 111/67/2
