# Blender 5.0.1
# www.blender.org
mtllib BP_Crypt_Skeleton_Spawner.mtl
o SM_Skeleton_Crypt_Pose.001
v -18.734238 73.199883 14.209729
v -20.265537 -1.355170 6.197318
v -6.236875 72.943222 14.209514
v -7.768174 -1.611832 6.197102
v -6.209670 74.278343 1.781049
v -18.707033 74.535004 1.781265
v -18.734238 73.199883 14.209729
v -6.236875 72.943222 14.209514
v -20.238333 -0.020045 -6.231146
v -18.707033 74.535004 1.781265
v -7.740969 -0.276707 -6.231362
v -6.209670 74.278343 1.781049
v -7.740969 -0.276707 -6.231362
v -7.768174 -1.611832 6.197102
v -20.238333 -0.020045 -6.231146
v -20.265537 -1.355170 6.197318
v -6.209670 74.278343 1.781049
v -7.768174 -1.611832 6.197102
v -7.740969 -0.276707 -6.231362
v -6.236875 72.943222 14.209514
v -20.265537 -1.355170 6.197318
v -18.707033 74.535004 1.781265
v -20.238333 -0.020045 -6.231146
v -18.734238 73.199883 14.209729
v 6.226317 74.702026 14.209637
v 19.177961 0.206529 6.214354
v 18.726086 74.777779 14.209538
v 6.678193 0.130775 6.214452
v 6.226317 74.702026 14.209637
v 18.726086 74.777779 14.209538
v 6.218144 76.034538 1.780864
v 18.717913 76.110291 1.780766
v 6.670019 1.463280 -6.214320
v 18.717913 76.110291 1.780766
v 19.169788 1.539035 -6.214418
v 6.218144 76.034538 1.780864
v 6.678193 0.130775 6.214452
v 19.169788 1.539035 -6.214418
v 19.177961 0.206529 6.214354
v 6.670019 1.463280 -6.214320
v 6.218144 76.034538 1.780864
v 6.678193 0.130775 6.214452
v 6.226317 74.702026 14.209637
v 6.670019 1.463280 -6.214320
v 18.726086 74.777779 14.209538
v 19.177961 0.206529 6.214354
v 19.169788 1.539035 -6.214418
v 18.717913 76.110291 1.780766
v 20.022181 148.305496 23.246357
v 51.592937 82.307419 2.539124
v 31.856306 152.056915 21.786766
v 39.758812 78.556007 3.998716
v 20.022181 148.305496 23.246357
v 31.856306 152.056915 21.786766
v 17.702024 150.958466 11.253497
v 29.536150 154.709885 9.793905
v 37.438652 81.208969 -7.994146
v 29.536150 154.709885 9.793905
v 49.272778 84.960381 -9.453738
v 17.702024 150.958466 11.253497
v 39.758812 78.556007 3.998716
v 49.272778 84.960381 -9.453738
v 51.592937 82.307419 2.539124
v 37.438652 81.208969 -7.994146
v 39.758812 78.556007 3.998716
v 20.022181 148.305496 23.246357
v 17.702024 150.958466 11.253497
v 37.438652 81.208969 -7.994146
v 31.856306 152.056915 21.786766
v 51.592937 82.307419 2.539124
v 49.272778 84.960381 -9.453738
v 29.536150 154.709885 9.793905
v -40.888885 148.084534 22.203615
v -53.776611 74.632172 14.225109
v -28.576965 145.924301 22.203890
v -41.464691 72.471931 14.225384
v -28.346888 147.234009 9.774818
v -40.658806 149.394241 9.774544
v -40.888885 148.084534 22.203615
v -28.576965 145.924301 22.203890
v -53.546535 75.941872 1.796038
v -40.658806 149.394241 9.774544
v -41.234615 73.781631 1.796313
v -28.346888 147.234009 9.774818
v -41.234615 73.781631 1.796313
v -41.464691 72.471931 14.225384
v -53.546535 75.941872 1.796038
v -53.776611 74.632172 14.225109
v -28.346888 147.234009 9.774818
v -41.464691 72.471931 14.225384
v -41.234615 73.781631 1.796313
v -28.576965 145.924301 22.203890
v -53.776611 74.632172 14.225109
v -40.888885 148.084534 22.203615
v -53.546535 75.941872 1.796038
v -40.658806 149.394241 9.774544
v -29.546804 187.452698 56.308540
v 19.702585 139.964951 38.436417
v 20.447569 186.725266 56.125912
v -30.291786 140.692383 38.619045
v 20.447569 186.725266 56.125912
v -29.460247 205.142929 9.542649
v -29.546804 187.452698 56.308540
v 20.534124 204.415497 9.360018
v 19.789141 157.655182 -8.329476
v -30.205231 158.382614 -8.146845
v -29.460247 205.142929 9.542649
v 20.534124 204.415497 9.360018
v 19.702585 139.964951 38.436417
v -30.291786 140.692383 38.619045
v -30.205231 158.382614 -8.146845
v 19.789141 157.655182 -8.329476
v 20.447569 186.725266 56.125912
v 19.789141 157.655182 -8.329476
v 20.534124 204.415497 9.360018
v 19.702585 139.964951 38.436417
v -29.546804 187.452698 56.308540
v -30.205231 158.382614 -8.146845
v -30.291786 140.692383 38.619045
v -29.460247 205.142929 9.542649
v 20.059799 149.316742 28.419083
v -29.828905 145.982498 28.419439
v -24.856108 71.575867 20.424242
v 25.032597 74.910103 20.423885
v -29.828905 145.982498 28.419439
v 20.059799 149.316742 28.419083
v 19.881905 151.975876 3.561539
v -30.006802 148.641632 3.561895
v 24.854700 77.569229 -4.433659
v -25.034004 74.234993 -4.433302
v -30.006802 148.641632 3.561895
v 19.881905 151.975876 3.561539
v 25.032597 74.910103 20.423885
v -24.856108 71.575867 20.424242
v -25.034004 74.234993 -4.433302
v 24.854700 77.569229 -4.433659
v 24.854700 77.569229 -4.433659
v 19.881905 151.975876 3.561539
v 25.032597 74.910103 20.423885
v 20.059799 149.316742 28.419083
v -29.828905 145.982498 28.419439
v -25.034004 74.234993 -4.433302
v -24.856108 71.575867 20.424242
v -30.006802 148.641632 3.561895
vn -0.0022 -0.1068 0.9943
vn 0.0204 0.9941 0.1068
vn 0.0022 0.1068 -0.9943
vn -0.0204 -0.9941 -0.1068
vn 0.9998 -0.0205 -0.0000
vn -0.9998 0.0205 -0.0000
vn 0.0007 -0.1066 0.9943
vn -0.0060 0.9943 0.1066
vn -0.0007 0.1066 -0.9943
vn 0.0060 -0.9943 -0.1066
vn -1.0000 -0.0061 -0.0000
vn 1.0000 0.0061 -0.0000
vn 0.1856 -0.2122 0.9594
vn -0.2632 0.9300 0.2566
vn -0.1856 0.2122 -0.9594
vn 0.2632 -0.9300 -0.2566
vn -0.9467 -0.3001 0.1168
vn 0.9467 0.3001 -0.1168
vn -0.0184 -0.1048 0.9943
vn 0.1718 0.9794 0.1064
vn 0.0184 0.1048 -0.9943
vn -0.1718 -0.9794 -0.1064
vn 0.9850 -0.1728 -0.0000
vn -0.9850 0.1728 -0.0000
vn -0.0017 -0.3538 0.9353
vn 0.0149 0.9352 0.3538
vn 0.0017 0.3538 -0.9353
vn -0.0149 -0.9352 -0.3538
vn 0.9999 -0.0145 -0.0037
vn -0.9999 0.0145 0.0037
vn 0.0071 -0.1064 0.9943
vn -0.0663 0.9921 0.1066
vn -0.0071 0.1064 -0.9943
vn 0.0663 -0.9921 -0.1066
vn 0.9978 0.0667 -0.0000
vn -0.9978 -0.0667 -0.0000
vt 0.656250 0.437500
vt 0.656250 0.500000
vt 0.687500 0.500000
vt 0.687500 0.437500
vt 0.500000 0.375000
vt 0.500000 0.000000
vt 0.625000 0.000000
vt 0.625000 0.375000
vt 0.437500 0.000000
vt 0.437500 0.375000
vt 0.312500 0.375000
vt 0.312500 0.000000
vt 0.718750 0.437500
vt 0.750000 0.437500
vt 0.750000 0.062500
vt 0.718750 0.062500
vt 0.687500 0.062500
vt 0.656250 0.062500
vt 0.250000 0.500000
vt 0.375000 0.500000
vt 0.375000 0.750000
vt 0.250000 0.750000
vt 0.093750 0.437500
vt 0.062500 0.437500
vt 0.062500 0.500000
vt 0.093750 0.500000
vt 0.125000 0.437500
vt 0.125000 0.062500
vt 0.093750 0.062500
vt 0.031250 0.437500
vt 0.031250 0.500000
vt 0.625000 0.437500
vt 0.625000 0.062500
vt 0.000031 0.437500
vt 0.031250 0.062500
vt 0.000031 0.062500
vt 0.250000 0.375000
vt 0.250000 0.000000
vt 0.718750 0.500000
vt 0.062500 0.062500
vt 0.000031 0.750000
vt 0.000031 0.500000
vt 0.125000 0.500000
vt 0.125000 0.750000
vt 0.375000 0.999969
vt 0.250000 0.999969
vt 0.125000 0.999969
vt 0.562500 0.375000
vt 0.562500 0.500000
vt 0.437500 0.500000
vt 0.312500 0.500000
vt 0.500000 0.750000
vt 0.500000 0.500000
s 1
usemtl MI_Skeleton
f 30/1/8 32/2/8 31/3/8 29/4/8
f 132/5/33 129/6/33 130/7/33 131/8/33
f 124/9/31 121/10/31 122/11/31 123/12/31
f 36/13/9 34/14/9 35/15/9 33/16/9
f 4/17/1 3/4/1 1/1/1 2/18/1
f 138/5/35 140/10/35 139/9/35 137/6/35
f 116/19/29 114/20/29 115/21/29 113/22/29
f 64/23/16 62/24/16 63/25/16 61/26/16
f 20/4/5 18/17/5 19/16/5 17/13/5
f 44/16/11 42/17/11 43/4/11 41/13/11
f 60/23/15 58/27/15 59/28/15 57/29/15
f 54/30/14 56/31/14 55/25/14 53/24/14
f 48/32/12 45/1/12 46/18/12 47/33/12
f 84/23/21 83/29/21 81/28/21 82/27/21
f 24/1/6 22/32/6 23/33/6 21/18/6
f 88/25/22 87/24/22 85/23/22 86/26/22
f 72/34/18 69/30/18 70/35/18 71/36/18
f 144/37/36 142/38/36 143/12/36 141/11/36
f 16/3/4 15/4/4 13/13/4 14/39/4
f 76/40/19 75/24/19 73/30/19 74/35/19
f 120/41/30 118/42/30 119/43/30 117/44/30
f 94/30/24 96/34/24 95/36/24 93/35/24
f 68/29/17 65/40/17 66/24/17 67/23/17
f 40/13/10 38/4/10 39/3/10 37/39/10
f 112/21/28 109/45/28 110/46/28 111/22/28
f 92/24/23 90/40/23 91/29/23 89/23/23
f 12/13/3 11/16/3 9/15/3 10/14/3
f 104/46/26 102/47/26 103/44/26 101/22/26
f 28/17/7 26/18/7 27/1/7 25/4/7
f 136/48/34 133/49/34 134/50/34 135/10/34
f 80/24/20 77/25/20 78/31/20 79/30/20
f 128/51/32 125/11/32 126/10/32 127/50/32
f 100/43/25 98/19/25 99/22/25 97/44/25
f 52/40/13 50/35/13 51/30/13 49/24/13
f 108/52/27 105/53/27 106/20/27 107/21/27
f 8/4/2 5/3/2 6/2/2 7/1/2
