# Blender 5.0.1
# www.blender.org
mtllib BP_Chandelier_DLC3.mtl
o SM_Chandelier.001
v -90.625008 -87.500008 131.250000
v -90.625008 -87.500008 118.749992
v -84.375008 -87.500008 131.250000
v -84.375000 -87.500008 118.749992
v -90.625008 -0.000006 131.250000
v -90.625008 -0.000005 118.750000
v -84.375008 -0.000006 131.250000
v -84.375000 -0.000005 118.750000
v 84.374992 -87.500008 131.250000
v 84.374992 -87.500008 118.749992
v 90.624992 -87.500008 131.250000
v 90.625000 -87.500008 118.749992
v -3.125008 87.499992 131.250000
v -3.125008 87.499992 118.750008
v 3.124992 87.499992 131.250000
v 3.125000 87.499992 118.750008
v -90.625008 87.499992 131.250000
v -90.625008 87.499992 118.750008
v -84.375008 87.499992 131.250000
v -84.375000 87.499992 118.750008
v 62.500000 -62.500008 131.250015
v -62.500000 -62.500008 131.250015
v -62.500000 -62.500004 118.750000
v 62.500000 -62.500004 118.750000
v 62.500000 62.499996 118.750000
v -62.500000 62.499996 118.750000
v -62.500000 62.499992 131.250015
v 62.500000 62.499992 131.250015
v 62.500000 62.499992 131.250015
v 62.500000 -62.500008 131.250015
v 62.500000 -62.500004 118.750000
v 62.500000 62.499996 118.750000
v -62.500000 -62.500008 131.250015
v -62.500000 62.499996 118.750000
v -62.500000 -62.500004 118.750000
v -62.500000 62.499992 131.250015
v 49.999996 49.999992 118.750008
v 49.999996 -50.000000 118.750008
v 49.999996 -50.000004 131.250015
v 49.999996 49.999989 131.250015
v 49.999996 49.999989 131.250015
v -49.999996 49.999989 131.250015
v -49.999996 49.999992 118.750008
v 49.999996 49.999992 118.750008
v -49.999996 -50.000000 118.750008
v -49.999996 49.999989 131.250015
v -49.999996 -50.000004 131.250015
v -49.999996 49.999992 118.750008
v 49.999996 -50.000000 118.750008
v -49.999996 -50.000000 118.750008
v -49.999996 -50.000004 131.250015
v 49.999996 -50.000004 131.250015
v 25.000000 -25.000002 37.500008
v -25.000000 -25.000002 37.500008
v -25.000000 -25.000000 -0.000009
v 25.000000 -25.000000 -0.000009
v -24.999998 24.999990 200.000000
v 25.000000 24.999990 212.500000
v 25.000000 24.999990 200.000000
v -25.000002 24.999992 212.500000
v 25.000000 -25.000002 37.500008
v 25.000000 25.000000 0.000024
v 25.000000 24.999998 37.500004
v 25.000000 -25.000000 -0.000009
v -25.000000 -25.000002 37.500008
v -25.000000 25.000000 0.000024
v -25.000000 -25.000000 -0.000009
v -25.000000 24.999998 37.500004
v 25.000002 -25.000011 212.500000
v -25.000002 -25.000011 212.500000
v -25.000002 -25.000010 200.000000
v 25.000002 -25.000010 200.000000
v -12.500001 12.499999 37.500004
v 12.499999 12.499993 200.000000
v 12.500001 12.499999 37.500004
v -12.500001 12.499993 200.000000
v 25.000000 24.999990 212.500000
v 25.000002 -25.000011 212.500000
v 25.000002 -25.000010 200.000000
v 25.000000 24.999990 200.000000
v -25.000002 -25.000010 200.000000
v -25.000002 24.999992 212.500000
v -24.999998 24.999990 200.000000
v -25.000002 -25.000011 212.500000
v -25.000002 -25.000011 212.500000
v 25.000002 -25.000011 212.500000
v 25.000000 24.999990 212.500000
v -25.000002 24.999992 212.500000
v -12.500001 -12.500009 200.000000
v 12.499999 -12.500001 37.500004
v 12.500001 -12.500009 200.000000
v -12.499999 -12.500003 37.500004
v 12.500001 12.499999 37.500004
v 12.500001 -12.500009 200.000000
v 12.499999 -12.500001 37.500004
v 12.499999 12.499993 200.000000
v -12.500001 -12.500009 200.000000
v -12.500001 12.499999 37.500004
v -12.499999 -12.500003 37.500004
v -12.500001 12.499993 200.000000
v 25.000000 25.000000 0.000024
v -25.000000 25.000000 0.000024
v -25.000000 24.999998 37.500004
v 25.000000 24.999998 37.500004
v -25.000000 -25.000000 -0.000009
v -25.000000 25.000000 0.000024
v 25.000000 -25.000000 -0.000009
v 25.000000 25.000000 0.000024
v 50.000000 -6.250006 131.250000
v -49.999992 -6.250006 131.250000
v -49.999992 -6.250005 118.750000
v 50.000000 -6.250005 118.750000
v -49.999992 -6.250006 131.250000
v 50.000000 -6.250006 131.250000
v 50.000000 6.249994 131.250000
v -49.999992 6.249994 131.250000
v 50.000000 6.249995 118.750000
v -49.999992 6.249995 118.750000
v -49.999992 6.249994 131.250000
v 50.000000 6.249994 131.250000
v 50.000000 -6.250005 118.750000
v -49.999992 -6.250005 118.750000
v -49.999992 6.249995 118.750000
v 50.000000 6.249995 118.750000
v 6.250000 49.999989 131.250000
v 6.250000 -50.000008 131.250000
v 6.250000 -50.000004 118.750000
v 6.250000 49.999992 118.750000
v -6.250001 -50.000008 131.250000
v 6.250000 49.999989 131.250000
v -6.249999 49.999996 131.250000
v 6.250000 -50.000008 131.250000
v -6.249999 50.000000 118.750000
v -6.250001 -50.000004 118.750000
v -6.250001 -50.000008 131.250000
v -6.249999 49.999996 131.250000
v 6.250000 49.999992 118.750000
v 6.250000 -50.000004 118.750000
v -6.250001 -50.000004 118.750000
v -6.249999 50.000000 118.750000
v 74.999992 -6.250003 81.250000
v -75.000000 -6.250003 81.250000
v -75.000000 -6.250003 68.750000
v 74.999992 -6.250003 68.750000
v -75.000000 -6.250003 81.250000
v 74.999992 -6.250003 81.250000
v 74.999992 6.249997 81.250000
v -75.000000 6.249997 81.250000
v 74.999992 6.249997 68.750000
v -75.000000 6.249997 68.750000
v -75.000000 6.249997 81.250000
v 74.999992 6.249997 81.250000
v 74.999992 -6.250003 68.750000
v -75.000000 -6.250003 68.750000
v -75.000000 6.249997 68.750000
v 74.999992 6.249997 68.750000
v 6.250000 75.000008 81.250000
v 6.250001 -75.000000 81.250000
v 6.250001 -75.000000 68.750000
v 6.250000 75.000008 68.750000
v -6.250001 75.000000 81.250000
v -6.250000 -75.000008 81.250000
v 6.250001 -75.000000 81.250000
v 6.250000 75.000008 81.250000
v -6.250001 75.000000 68.750000
v -6.250000 -75.000008 68.750000
v -6.250000 -75.000008 81.250000
v -6.250001 75.000000 81.250000
v 6.250001 -75.000000 68.750000
v -6.250001 75.000000 68.750000
v 6.250000 75.000008 68.750000
v -6.250000 -75.000008 68.750000
v 100.000000 -100.000008 87.499992
v -100.000000 -100.000008 87.499992
v -100.000000 -100.000000 62.499989
v 100.000000 -100.000000 62.499989
v 100.000000 100.000000 62.499996
v -100.000000 100.000000 62.499996
v -100.000000 99.999992 87.500008
v 100.000000 99.999992 87.500008
v 100.000000 99.999992 87.500008
v 100.000000 -100.000008 87.499992
v 100.000000 -100.000000 62.499989
v 100.000000 100.000000 62.499996
v -100.000000 -100.000008 87.499992
v -100.000000 100.000000 62.499996
v -100.000000 -100.000000 62.499989
v -100.000000 99.999992 87.500008
v 75.000000 75.000000 62.499996
v 75.000000 -75.000000 62.499989
v 75.000000 -75.000008 87.500000
v 75.000000 74.999992 87.500000
v 75.000000 74.999992 87.500000
v -75.000000 74.999992 87.500000
v -75.000000 75.000000 62.499996
v 75.000000 75.000000 62.499996
v -75.000000 -75.000000 62.499989
v -75.000000 74.999992 87.500000
v -75.000000 -75.000008 87.500000
v -75.000000 75.000000 62.499996
v 75.000000 -75.000000 62.499989
v -75.000000 -75.000000 62.499989
v -75.000000 -75.000008 87.500000
v 75.000000 -75.000008 87.500000
v 84.374992 -0.000006 131.250000
v 84.374992 -0.000005 118.750000
v 90.624992 -0.000006 131.250000
v 90.625000 -0.000005 118.750000
v 6.250000 -81.250008 87.500000
v 6.250000 -81.250008 118.707855
v 6.250000 -93.750008 87.499992
v 6.250000 -93.750008 118.792137
v -6.250000 -93.750008 118.792137
v 6.250000 -93.750008 118.792137
v -6.250000 -81.250008 118.707855
v 6.250000 -81.250008 118.707855
v -6.250000 -81.250008 118.707855
v -6.250000 -93.750008 87.499992
v -6.250000 -93.750008 118.792137
v -6.250000 -81.250008 87.500000
v -6.250000 -81.250008 87.500000
v -6.250000 -81.250008 118.707855
v 6.250000 -81.250008 87.500000
v 6.250000 -81.250008 118.707855
v -6.250000 -93.750008 118.792137
v -6.250000 -93.750008 87.499992
v 6.250000 -93.750008 118.792137
v 6.250000 -93.750008 87.499992
v 81.250000 6.249996 87.500000
v 81.250000 6.249995 118.750000
v 93.750000 6.249996 87.500000
v 93.750000 6.249995 118.750000
v 81.250000 -6.250005 118.750000
v 93.750000 -6.250005 118.750000
v 93.750000 6.249995 118.750000
v 81.250000 6.249995 118.750000
v 81.250000 -6.250005 118.750000
v 81.250000 -6.250004 87.500000
v 93.750000 -6.250005 118.750000
v 93.750000 -6.250004 87.500000
v 81.250000 -6.250005 118.750000
v 81.250000 6.249996 87.500000
v 81.250000 -6.250004 87.500000
v 81.250000 6.249995 118.750000
v 93.750000 6.249996 87.500000
v 93.750000 6.249995 118.750000
v 93.750000 -6.250004 87.500000
v 93.750000 -6.250005 118.750000
v -93.750000 -93.750008 118.792137
v -93.750000 -93.750008 87.499992
v -81.250000 -93.750008 118.707848
v -81.250000 -93.750008 87.499992
v -81.250000 -93.750008 118.707848
v -81.250000 -81.250008 118.707855
v -93.750000 -93.750008 118.792137
v -93.750000 -81.250008 118.792145
v -93.750000 -81.250008 87.500000
v -81.250000 -81.250008 118.707855
v -81.250000 -81.250008 87.500000
v -93.750000 -81.250008 118.792145
v -81.250000 -81.250008 87.500000
v -81.250000 -81.250008 118.707855
v -81.250000 -93.750008 87.499992
v -81.250000 -93.750008 118.707848
v -93.750000 -93.750008 118.792137
v -93.750000 -81.250008 87.500000
v -93.750000 -93.750008 87.499992
v -93.750000 -81.250008 118.792145
v 6.250000 93.749992 87.500008
v 6.250000 93.749992 118.707863
v 6.250000 81.249992 87.500000
v 6.250000 81.249992 118.792145
v -6.250000 81.249992 118.792145
v 6.250000 81.249992 118.792145
v -6.250000 93.749992 118.707863
v 6.250000 93.749992 118.707863
v -6.250000 93.749992 118.707863
v -6.250000 81.249992 87.500000
v -6.250000 81.249992 118.792145
v -6.250000 93.749992 87.500008
v -6.250000 93.749992 87.500008
v -6.250000 93.749992 118.707863
v 6.250000 93.749992 87.500008
v 6.250000 93.749992 118.707863
v -6.250000 81.249992 118.792145
v -6.250000 81.249992 87.500000
v 6.250000 81.249992 118.792145
v 6.250000 81.249992 87.500000
v 81.250000 93.749992 87.500008
v 81.250000 93.749992 118.750008
v 93.750000 93.749992 87.500008
v 93.750000 93.749992 118.750008
v 81.250000 81.249992 118.750000
v 93.750000 81.249992 118.750000
v 93.750000 93.749992 118.750008
v 81.250000 93.749992 118.750008
v 81.250000 81.249992 118.750000
v 81.250000 81.249992 87.500000
v 93.750000 81.249992 118.750000
v 93.750000 81.249992 87.500000
v 81.250000 81.249992 118.750000
v 81.250000 93.749992 87.500008
v 81.250000 81.249992 87.500000
v 81.250000 93.749992 118.750008
v 93.750000 93.749992 87.500008
v 93.750000 93.749992 118.750008
v 93.750000 81.249992 87.500000
v 93.750000 81.249992 118.750000
v -93.750000 81.249992 118.792145
v -93.750000 81.249992 87.500000
v -81.250000 81.249992 118.707855
v -81.250000 81.249992 87.500000
v -81.250000 81.249992 118.707855
v -81.250000 93.749992 118.707863
v -93.750000 81.249992 118.792145
v -93.750000 93.749992 118.792152
v -93.750000 93.749992 87.500008
v -81.250000 93.749992 118.707863
v -81.250000 93.749992 87.500008
v -93.750000 93.749992 118.792152
v -81.250000 93.749992 87.500008
v -81.250000 93.749992 118.707863
v -81.250000 81.249992 87.500000
v -81.250000 81.249992 118.707855
v -93.750000 81.249992 118.792145
v -93.750000 93.749992 87.500008
v -93.750000 81.249992 87.500000
v -93.750000 93.749992 118.792152
v -93.750000 -6.250005 118.792145
v -93.750000 -6.250004 87.500000
v -81.250000 -6.250005 118.707855
v -81.250000 -6.250004 87.500000
v -81.250000 -6.250005 118.707855
v -81.250000 6.249995 118.707855
v -93.750000 -6.250005 118.792145
v -93.750000 6.249995 118.792145
v -93.750000 6.249996 87.500000
v -81.250000 6.249995 118.707855
v -81.250000 6.249996 87.500000
v -93.750000 6.249995 118.792145
v -81.250000 6.249996 87.500000
v -81.250000 6.249995 118.707855
v -81.250000 -6.250004 87.500000
v -81.250000 -6.250005 118.707855
v -93.750000 -6.250005 118.792145
v -93.750000 6.249996 87.500000
v -93.750000 -6.250004 87.500000
v -93.750000 6.249995 118.792145
v 81.250000 -81.250008 87.500000
v 81.250000 -81.250008 118.750000
v 93.750000 -81.250008 87.500000
v 93.750000 -81.250008 118.750000
v 81.250000 -93.750008 118.749992
v 93.750000 -93.750008 118.749992
v 93.750000 -81.250008 118.750000
v 81.250000 -81.250008 118.750000
v 81.250000 -93.750008 118.749992
v 81.250000 -93.750008 87.499992
v 93.750000 -93.750008 118.749992
v 93.750000 -93.750008 87.499992
v 81.250000 -93.750008 118.749992
v 81.250000 -81.250008 87.500000
v 81.250000 -93.750008 87.499992
v 81.250000 -81.250008 118.750000
v 93.750000 -81.250008 87.500000
v 93.750000 -81.250008 118.750000
v 93.750000 -93.750008 87.499992
v 93.750000 -93.750008 118.749992
v -3.125008 -87.500008 131.250000
v -3.125008 -87.500008 118.749992
v 3.124992 -87.500008 131.250000
v 3.125000 -87.500008 118.749992
v 84.374992 87.499992 131.250000
v 84.374992 87.499992 118.750008
v 90.624992 87.499992 131.250000
v 90.625000 87.499992 118.750008
v -62.500000 -62.500008 131.250015
v 62.500000 -62.500008 131.250015
v 49.999996 -50.000004 131.250015
v -49.999996 -50.000004 131.250015
v 62.500000 62.499992 131.250015
v 49.999996 49.999989 131.250015
v -62.500000 62.499992 131.250015
v -49.999996 49.999989 131.250015
v -62.500000 62.499996 118.750000
v 62.500000 62.499996 118.750000
v 49.999996 49.999992 118.750008
v -49.999996 49.999992 118.750008
v 62.500000 -62.500004 118.750000
v 49.999996 -50.000000 118.750008
v -62.500000 -62.500004 118.750000
v -49.999996 -50.000000 118.750008
v 12.499999 12.499993 200.000000
v -12.500001 12.499993 200.000000
v -24.999998 24.999990 200.000000
v 25.000000 24.999990 200.000000
v 25.000002 -25.000010 200.000000
v -25.000002 -25.000010 200.000000
v -12.500001 -12.500009 200.000000
v 12.500001 -12.500009 200.000000
v 25.000000 -25.000002 37.500008
v -12.499999 -12.500003 37.500004
v -25.000000 -25.000002 37.500008
v 12.499999 -12.500001 37.500004
v 12.500001 12.499999 37.500004
v 25.000000 24.999998 37.500004
v -12.500001 12.499999 37.500004
v -25.000000 24.999998 37.500004
v 75.000000 -75.000008 87.500000
v -100.000000 -100.000008 87.499992
v 100.000000 -100.000008 87.499992
v -75.000000 -75.000008 87.500000
v 100.000000 99.999992 87.500008
v 75.000000 74.999992 87.500000
v -100.000000 99.999992 87.500008
v -75.000000 74.999992 87.500000
v -100.000000 100.000000 62.499996
v 100.000000 100.000000 62.499996
v 75.000000 75.000000 62.499996
v -75.000000 75.000000 62.499996
v 100.000000 -100.000000 62.499989
v 75.000000 -75.000000 62.499989
v -75.000000 -75.000000 62.499989
v -100.000000 -100.000000 62.499989
vn -0.0000 -1.0000 -0.0000
vn -0.0000 1.0000 -0.0000
vn 1.0000 -0.0000 -0.0000
vn -1.0000 -0.0000 -0.0000
vn -0.0000 -0.0000 1.0000
vn -0.0000 -0.0000 -1.0000
vn -0.0000 0.0067 1.0000
vn 0.0067 -0.0000 1.0000
vt 0.020828 0.958344
vt 0.020828 0.999969
vt 0.000031 0.999969
vt 0.000031 0.958344
vt 0.166626 0.999969
vt 0.166626 0.833374
vt 0.333252 0.833374
vt 0.333252 0.999969
vt 0.333252 0.666748
vt 0.375000 0.666748
vt 0.375000 0.999969
vt 0.500000 0.458496
vt 0.583008 0.458496
vt 0.583008 0.999969
vt 0.500000 0.999969
vt 0.500000 0.500000
vt 0.458252 0.500000
vt 0.458252 0.999969
vt 0.041656 0.958344
vt 0.083313 0.958344
vt 0.083313 0.999969
vt 0.041656 0.999969
vt 0.375000 0.500000
vt 0.333252 0.500000
vt 0.041656 0.854248
vt 0.083313 0.854248
vt 0.000031 0.854248
vt 0.333252 0.458496
vt 0.333252 0.583496
vt 0.166626 0.583496
vt 0.166626 0.458496
vt 0.416504 0.999969
vt 0.416504 0.666748
vt 0.458252 0.666748
vt 0.416504 0.083496
vt 0.416504 0.000000
vt 0.916504 0.000000
vt 0.916504 0.083496
vt 0.666504 0.999969
vt 0.666504 0.458496
vt 0.416504 0.500000
vt 0.166626 0.791748
vt 0.333252 0.791748
vt 0.833008 0.999969
vt 0.750000 0.999969
vt 0.750000 0.333496
vt 0.833008 0.333496
vt 0.041656 0.583496
vt 0.166626 0.750000
vt 0.041656 0.750000
vt 0.125000 0.416992
vt 0.083313 0.416992
vt 0.083313 0.000000
vt 0.125000 0.000000
vt 0.125000 0.999969
vt 0.125000 0.833374
vt 0.500000 0.666748
vt 0.916504 0.916687
vt 0.916504 0.416992
vt 1.000000 0.416992
vt 1.000000 0.916687
vt 0.208252 0.375000
vt 0.166626 0.375000
vt 0.166626 0.041992
vt 0.208252 0.041992
vt 0.250000 0.416992
vt 0.250000 0.000000
vt 0.291504 0.000000
vt 0.291504 0.416992
vt 0.333252 0.750000
vt 1.000000 0.166992
vt 1.000000 0.250000
vt 0.333252 0.250000
vt 0.333252 0.166992
vt 0.041656 0.375000
vt 0.000031 0.375000
vt 0.000031 0.041992
vt 0.041656 0.041992
vt 0.333252 0.041992
vt 0.333252 0.375000
vt 0.208252 0.750000
vt 0.291504 0.750000
vt 0.083313 0.875000
vt 0.208252 0.416992
vt 0.000031 0.625000
vt 0.000031 0.708496
vt 0.916504 0.333496
vt 0.416504 0.333496
vt 0.666504 0.916687
vt 0.666504 0.416992
s 1
usemtl WorldGridMaterial
f 12/1/1 11/2/1 9/3/1 10/4/1
f 4/1/1 3/2/1 1/3/1 2/4/1
f 208/1/1 207/2/1 205/3/1 206/4/1
f 88/5/5 85/6/5 86/7/5 87/8/5
f 139/8/6 140/9/6 137/10/6 138/11/6
f 92/12/1 90/13/1 91/14/1 89/15/1
f 144/16/1 141/17/1 142/18/1 143/15/1
f 336/19/8 335/20/8 333/21/8 334/22/8
f 156/23/6 153/24/6 154/8/6 155/11/6
f 268/19/4 266/25/4 267/26/4 265/20/4
f 352/4/2 351/27/2 349/25/2 350/19/2
f 104/28/2 101/29/2 102/30/2 103/31/2
f 348/19/4 346/25/4 347/26/4 345/20/4
f 246/20/3 248/19/3 247/25/3 245/26/3
f 132/32/5 130/33/5 131/34/5 129/18/5
f 8/1/1 7/2/1 5/3/1 6/4/1
f 376/1/1 375/2/1 373/3/1 374/4/1
f 204/35/2 201/36/2 202/37/2 203/38/2
f 256/19/8 255/20/8 253/21/8 254/22/8
f 96/39/3 94/14/3 95/13/3 93/40/3
f 372/1/1 371/2/1 369/3/1 370/4/1
f 163/32/5 164/41/5 161/17/5 162/18/5
f 240/25/1 239/19/1 237/4/1 238/27/1
f 60/7/2 58/6/2 59/42/2 57/43/2
f 188/44/4 186/45/4 187/46/4 185/47/4
f 316/19/8 315/20/8 313/21/8 314/22/8
f 112/10/1 109/33/1 110/32/1 111/11/1
f 72/43/1 69/7/1 70/6/1 71/42/1
f 214/20/7 216/21/7 215/22/7 213/19/7
f 342/20/3 344/19/3 343/25/3 341/26/3
f 274/20/7 276/21/7 275/22/7 273/19/7
f 284/19/2 283/25/2 281/26/2 282/20/2
f 68/48/4 66/30/4 67/49/4 65/50/4
f 28/51/2 25/52/2 26/53/2 27/54/2
f 84/6/4 82/5/4 83/55/4 81/56/4
f 124/9/6 121/10/6 122/11/6 123/8/6
f 76/14/2 74/15/2 75/12/2 73/13/2
f 322/20/3 324/19/3 323/25/3 321/26/3
f 262/20/3 264/19/3 263/25/3 261/26/3
f 244/19/4 242/25/4 243/26/4 241/20/4
f 172/8/6 170/24/6 171/23/6 169/11/6
f 159/11/3 160/23/3 157/41/3 158/32/3
f 312/25/1 311/19/1 309/4/1 310/27/1
f 120/34/2 117/57/2 118/15/2 119/18/2
f 152/41/2 149/23/2 150/11/2 151/32/2
f 148/32/5 145/18/5 146/17/5 147/41/5
f 196/37/1 193/38/1 194/35/1 195/36/1
f 100/14/4 98/13/4 99/40/4 97/39/4
f 24/53/1 21/54/1 22/51/1 23/52/1
f 191/58/4 192/59/4 189/60/4 190/61/4
f 48/62/3 46/63/3 47/64/3 45/65/3
f 20/1/1 19/2/1 17/3/1 18/4/1
f 332/25/1 331/19/1 329/4/1 330/27/1
f 236/21/5 233/22/5 234/19/5 235/20/5
f 340/19/2 338/4/2 339/27/2 337/25/2
f 116/18/5 113/32/5 114/33/5 115/34/5
f 232/4/2 231/27/2 229/25/2 230/19/2
f 79/55/3 80/56/3 77/6/3 78/5/3
f 228/26/1 227/20/1 225/19/1 226/25/1
f 224/19/2 223/25/2 221/26/2 222/20/2
f 200/61/3 198/58/3 199/59/3 197/60/3
f 300/25/1 299/19/1 297/4/1 298/27/1
f 210/19/3 212/4/3 211/27/3 209/25/3
f 56/30/1 53/31/1 54/28/1 55/29/1
f 320/19/2 318/4/2 319/27/2 317/25/2
f 306/20/3 308/19/3 307/25/3 305/26/3
f 296/21/5 293/22/5 294/19/5 295/20/5
f 220/27/4 218/25/4 219/19/4 217/4/4
f 39/63/4 40/64/4 37/65/4 38/62/4
f 260/19/2 258/4/2 259/27/2 257/25/2
f 135/18/4 136/34/4 133/57/4 134/15/4
f 292/4/2 291/27/2 289/25/2 290/19/2
f 360/25/1 359/19/1 357/4/1 358/27/1
f 288/26/1 287/20/1 285/19/1 286/25/1
f 127/11/3 128/10/3 125/33/3 126/32/3
f 31/66/3 32/67/3 29/68/3 30/69/3
f 183/45/3 184/46/3 181/47/3 182/44/3
f 252/25/1 251/19/1 249/4/1 250/27/1
f 356/21/5 353/22/5 354/19/5 355/20/5
f 108/49/6 107/30/6 105/29/6 106/70/6
f 180/71/2 177/72/2 178/73/2 179/74/2
f 270/19/3 272/4/3 271/27/3 269/25/3
f 36/69/4 34/66/4 35/67/4 33/68/4
f 280/27/4 278/25/4 279/19/4 277/4/4
f 44/75/1 41/76/1 42/77/1 43/78/1
f 176/73/1 173/74/1 174/71/1 175/72/1
f 167/18/4 168/17/4 165/16/4 166/15/4
f 52/77/2 49/78/2 50/75/2 51/76/2
f 328/19/4 326/25/4 327/26/4 325/20/4
f 304/19/4 302/25/4 303/26/4 301/20/4
f 364/19/4 362/25/4 363/26/4 361/20/4
f 16/1/1 15/2/1 13/3/1 14/4/1
f 64/30/3 62/49/3 63/50/3 61/48/3
f 379/64/5 377/51/5 378/54/5
f 380/63/5 377/51/5 379/64/5
f 382/79/5 378/69/5 381/68/5
f 379/80/5 378/69/5 382/79/5
f 384/64/5 381/51/5 383/54/5
f 382/63/5 381/51/5 384/64/5
f 380/79/5 383/69/5 377/68/5
f 384/80/5 383/69/5 380/79/5
f 387/75/6 385/53/6 386/52/6
f 388/78/6 385/53/6 387/75/6
f 390/62/6 386/67/6 389/66/6
f 387/65/6 386/67/6 390/62/6
f 392/75/6 389/53/6 391/52/6
f 390/78/6 389/53/6 392/75/6
f 388/62/6 391/67/6 385/66/6
f 392/65/6 391/67/6 388/62/6
f 395/43/6 393/81/6 394/82/6
f 396/42/6 393/81/6 395/43/6
f 399/81/6 397/43/6 398/42/6
f 400/82/6 397/43/6 399/81/6
f 400/20/6 396/56/6 397/55/6
f 393/83/6 396/56/6 400/20/6
f 399/83/6 398/56/6 394/20/6
f 394/20/6 398/56/6 395/55/6
f 403/28/5 401/31/5 402/69/5
f 404/84/5 402/69/5 401/31/5
f 404/85/5 401/48/5 405/86/5
f 405/86/5 401/48/5 406/50/5
f 408/48/5 403/50/5 407/85/5
f 402/86/5 407/85/5 403/50/5
f 406/28/5 407/84/5 405/69/5
f 408/31/5 407/84/5 406/28/5
f 411/74/5 409/35/5 410/71/5
f 412/38/5 410/71/5 409/35/5
f 414/59/5 411/44/5 413/47/5
f 409/58/5 411/44/5 414/59/5
f 416/35/5 413/71/5 415/74/5
f 414/38/5 413/71/5 416/35/5
f 412/59/5 415/44/5 410/47/5
f 416/58/5 415/44/5 412/59/5
f 419/87/6 417/73/6 418/72/6
f 420/88/6 417/73/6 419/87/6
f 422/89/6 418/46/6 421/45/6
f 419/90/6 418/46/6 422/89/6
f 424/72/6 423/87/6 421/73/6
f 422/88/6 421/73/6 423/87/6
f 420/89/6 424/46/6 417/45/6
f 423/90/6 424/46/6 420/89/6
f 366/20/3 368/19/3 367/25/3 365/26/3
