# Blender 5.0.1
# www.blender.org
mtllib BP_CharcoalBurner.mtl
o SM_FFJ_CharcoalBurner.001
v 50.000000 2.043461 66.662880
v 50.000000 100.000000 -0.000016
v 50.000000 0.000000 0.000000
v 50.000000 102.043457 66.662865
v 150.000000 100.000008 66.662865
v 50.000000 100.000000 -0.000016
v 50.000000 102.043457 66.662865
v 150.000000 100.000000 -0.000016
v 150.000000 0.000011 66.662880
v 150.000000 100.000000 -0.000016
v 150.000000 100.000008 66.662865
v 150.000000 0.000000 0.000000
v 150.000000 0.000000 0.000000
v 50.000000 0.000000 0.000000
v 50.000000 100.000000 -0.000016
v 150.000000 100.000000 -0.000016
v 50.000000 102.043457 66.662865
v 50.000000 2.043461 66.662880
v 150.000000 100.000008 66.662865
v 150.000000 0.000011 66.662880
v 18.750000 100.000023 149.999985
v 18.750000 181.250031 149.999969
v 18.750000 181.250015 99.999969
v 18.750000 100.000015 99.999985
v 181.250000 181.250031 149.999969
v 181.250000 100.000023 149.999985
v 181.250000 100.000015 99.999985
v 181.250000 181.250015 99.999969
v 18.750000 18.750025 150.000000
v 18.750000 18.750017 100.000000
v 181.250000 18.750025 150.000000
v 181.250000 18.750017 100.000000
v 150.000000 100.000031 199.999985
v 150.000000 50.000034 199.999985
v 150.000000 50.000023 149.999985
v 150.000000 100.000023 149.999985
v 50.000000 50.000034 199.999985
v 50.000000 100.000031 199.999985
v 50.000000 100.000023 149.999985
v 50.000000 50.000023 149.999985
v 150.000000 150.000031 199.999969
v 150.000000 150.000031 149.999969
v 50.000000 150.000031 199.999969
v 50.000000 150.000031 149.999969
v 131.250000 -31.249994 31.250000
v 131.250000 -6.249992 12.500001
v 131.250000 -31.249998 12.500002
v 131.250000 -6.249995 31.250002
v 68.750000 -6.249995 31.250002
v 131.250000 -31.249994 31.250000
v 68.750000 -31.249994 31.250000
v 131.250000 -6.249995 31.250002
v 131.250000 -6.249992 12.500001
v 68.750000 -6.249992 12.500001
v 68.750000 -31.249998 12.500002
v 131.250000 -31.249998 12.500002
v 68.750000 -6.249995 31.250002
v 68.750000 -31.249994 31.250000
v 68.750000 -6.249992 12.500001
v 68.750000 -31.249998 12.500002
v 200.000000 100.000000 -0.000016
v 200.000000 200.000000 -0.000033
v 200.000000 100.000008 49.999985
v 200.000000 200.000015 49.999966
v 200.000000 100.000015 99.999985
v 200.000000 200.000015 99.999969
v 50.000000 100.000031 199.999985
v 50.000000 50.000034 199.999985
v 75.000000 100.000031 199.999985
v 75.000000 50.000034 199.999985
v 100.000000 100.000031 199.999985
v 100.000000 50.000034 199.999985
v 150.000000 100.000031 199.999985
v 150.000000 150.000031 199.999969
v 125.000000 150.000031 199.999969
v 125.000000 100.000031 199.999985
v 100.000000 150.000031 199.999969
v 150.000000 50.000034 199.999985
v 125.000000 50.000034 199.999985
v 150.000000 150.000031 199.999969
v 150.000000 150.000031 149.999969
v 125.000000 150.000031 199.999969
v 125.000000 150.000031 149.999969
v 100.000000 150.000031 199.999969
v 100.000000 150.000031 149.999969
v 100.000000 50.000034 199.999985
v 100.000000 50.000023 149.999985
v 125.000000 50.000034 199.999985
v 125.000000 50.000023 149.999985
v 150.000000 50.000034 199.999985
v 150.000000 50.000023 149.999985
v 75.000000 150.000031 199.999969
v 75.000000 150.000031 149.999969
v 50.000000 150.000031 199.999969
v 50.000000 150.000031 149.999969
v 50.000000 50.000034 199.999985
v 50.000000 50.000023 149.999985
v 75.000000 50.000034 199.999985
v 75.000000 50.000023 149.999985
v 50.000000 150.000031 199.999969
v 75.000000 150.000031 199.999969
v 50.000000 39.335899 49.999992
v 50.000000 -31.250004 49.999992
v 68.750000 39.335899 49.999992
v 68.750000 -31.250004 49.999992
v 131.250000 39.335899 49.999992
v 131.250000 -31.250004 49.999992
v 150.000000 39.335899 49.999992
v 150.000000 -31.250004 49.999992
v 50.000000 -31.249989 -0.000007
v 50.000000 39.335911 -0.000006
v 68.750000 -31.249989 -0.000007
v 68.750000 39.335911 -0.000006
v 131.250000 -31.249989 -0.000007
v 131.250000 39.335911 -0.000006
v 150.000000 -31.249989 -0.000007
v 150.000000 39.335911 -0.000006
v 0.000000 100.000015 99.999985
v 0.000000 0.000008 50.000000
v 0.000000 0.000016 100.000000
v 0.000000 100.000008 49.999985
v 0.000000 0.000000 0.000000
v 0.000000 100.000000 -0.000016
v 0.000000 200.000015 99.999969
v 0.000000 200.000015 49.999966
v 0.000000 200.000000 -0.000033
v 200.000000 0.000016 100.000000
v 200.000000 0.000008 50.000000
v 200.000000 0.000000 0.000000
v 59.375000 18.750017 100.000000
v 100.000000 0.000016 100.000000
v 100.000000 18.750017 100.000000
v 50.000000 0.000016 100.000000
v 18.750000 18.750017 100.000000
v 0.000000 0.000016 100.000000
v 0.000000 100.000015 99.999985
v 18.750000 100.000015 99.999985
v 100.000000 181.250031 149.999969
v 140.625000 181.250015 99.999969
v 100.000000 181.250015 99.999969
v 140.625000 181.250031 149.999969
v 181.250000 181.250015 99.999969
v 181.250000 181.250031 149.999969
v 18.750000 181.250031 149.999969
v 59.375000 181.250015 99.999969
v 18.750000 181.250015 99.999969
v 59.375000 181.250031 149.999969
v 140.625000 181.250015 99.999969
v 100.000000 200.000015 99.999969
v 100.000000 181.250015 99.999969
v 150.000000 200.000015 99.999969
v 181.250000 181.250015 99.999969
v 200.000000 200.000015 99.999969
v 200.000000 100.000015 99.999985
v 181.250000 100.000015 99.999985
v 75.000000 50.000023 149.999985
v 100.000000 18.750025 150.000000
v 100.000000 50.000023 149.999985
v 59.375000 18.750025 150.000000
v 50.000000 50.000023 149.999985
v 18.750000 18.750025 150.000000
v 18.750000 100.000023 149.999985
v 50.000000 100.000023 149.999985
v 181.250000 18.750025 150.000000
v 140.625000 18.750017 100.000000
v 181.250000 18.750017 100.000000
v 140.625000 18.750025 150.000000
v 100.000000 18.750017 100.000000
v 100.000000 18.750025 150.000000
v 59.375000 18.750017 100.000000
v 59.375000 18.750025 150.000000
v 18.750000 18.750017 100.000000
v 18.750000 18.750025 150.000000
v 125.000000 150.000031 149.999969
v 100.000000 181.250031 149.999969
v 100.000000 150.000031 149.999969
v 140.625000 181.250031 149.999969
v 150.000000 150.000031 149.999969
v 181.250000 181.250031 149.999969
v 181.250000 100.000023 149.999985
v 150.000000 100.000023 149.999985
v 50.000000 0.000000 0.000000
v 0.000000 0.000008 50.000000
v 0.000000 0.000000 0.000000
v 50.000000 0.000008 50.000000
v 0.000000 0.000016 100.000000
v 50.000000 0.000016 100.000000
v 100.000000 0.000008 50.000000
v 100.000000 0.000016 100.000000
v 125.000000 50.000023 149.999985
v 140.625000 18.750025 150.000000
v 150.000000 50.000023 149.999985
v 181.250000 18.750025 150.000000
v 140.625000 18.750017 100.000000
v 150.000000 0.000016 100.000000
v 181.250000 18.750017 100.000000
v 200.000000 0.000016 100.000000
v 75.000000 150.000031 149.999969
v 59.375000 181.250031 149.999969
v 50.000000 150.000031 149.999969
v 18.750000 181.250031 149.999969
v 59.375000 181.250015 99.999969
v 50.000000 200.000015 99.999969
v 18.750000 181.250015 99.999969
v 0.000000 200.000015 99.999969
v 50.000000 39.335911 -0.000006
v 50.000000 -31.249989 -0.000007
v 50.000000 39.335907 12.500000
v 50.000000 -31.249998 12.499999
v 50.000000 -31.249994 31.250000
v 50.000000 39.335907 31.250000
v 50.000000 39.335899 49.999992
v 50.000000 -31.250004 49.999992
v 150.000000 -31.249994 31.250000
v 150.000000 39.335899 49.999992
v 150.000000 -31.250004 49.999992
v 150.000000 39.335907 31.250000
v 150.000000 39.335907 12.500000
v 150.000000 -31.249998 12.500002
v 150.000000 -31.249989 -0.000007
v 150.000000 39.335911 -0.000006
v 150.000000 200.000000 -0.000033
v 200.000000 200.000015 49.999966
v 200.000000 200.000000 -0.000033
v 150.000000 200.000015 49.999966
v 200.000000 200.000015 99.999969
v 100.000000 200.000000 -0.000033
v 150.000000 200.000015 99.999969
v 100.000000 200.000015 49.999966
v 100.000000 200.000015 99.999969
v 200.000000 0.000016 100.000000
v 150.000000 0.000016 100.000000
v 200.000000 0.000008 50.000000
v 150.000000 0.000008 50.000000
v 200.000000 0.000000 0.000000
v 150.000000 0.000000 0.000000
v 50.000000 200.000000 -0.000033
v 50.000000 200.000015 49.999966
v 0.000000 200.000000 -0.000033
v 50.000000 200.000015 99.999969
v 0.000000 200.000015 49.999966
v 0.000000 200.000015 99.999969
v 150.000000 -31.249998 12.500002
v 131.250000 -31.249989 -0.000007
v 150.000000 -31.249989 -0.000007
v 131.250000 -31.249998 12.500002
v 150.000000 -31.249994 31.250000
v 68.750000 -31.249989 -0.000007
v 131.250000 -31.249994 31.250000
v 150.000000 -31.250004 49.999992
v 68.750000 -31.249998 12.500002
v 131.250000 -31.250004 49.999992
v 68.750000 -31.249994 31.250000
v 68.750000 -31.250004 49.999992
v 50.000000 -31.249998 12.499999
v 50.000000 -31.249989 -0.000007
v 50.000000 -31.249994 31.250000
v 50.000000 -31.250004 49.999992
vn -1.0000 -0.0000 -0.0000
vn 0.0102 0.9998 -0.0153
vn 1.0000 -0.0000 -0.0000
vn -0.0000 -0.0000 -1.0000
vn -0.0000 -0.0000 1.0000
vn -0.0000 1.0000 -0.0000
vn -0.0000 -1.0000 -0.0000
vt 0.406250 0.031250
vt 0.406250 0.343750
vt 0.093750 0.343750
vt 0.093750 0.031250
vt 0.500000 0.750000
vt 0.500000 0.999969
vt 0.375000 0.999969
vt 0.375000 0.750000
vt 0.406250 0.999969
vt 0.203125 0.999969
vt 0.203125 0.750000
vt 0.406250 0.750000
vt 0.375000 0.312500
vt 0.375000 0.125000
vt 0.062500 0.125000
vt 0.062500 0.312500
vt 0.250000 0.999969
vt 0.250000 0.750000
vt 0.500000 0.500000
vt 0.250000 0.500000
vt 0.500000 0.468750
vt 0.406250 0.468750
vt 0.406250 0.375000
vt 0.500000 0.375000
vt 0.000031 0.999969
vt -0.000031 0.750000
vt 0.125000 0.093750
vt 0.187500 0.093750
vt 0.187500 0.437500
vt 0.125000 0.437500
vt 0.281250 0.312500
vt 0.187500 0.312500
vt 0.281250 0.437500
vt 0.093750 0.468750
vt 0.093750 0.375000
vt 0.406250 0.281250
vt 0.093750 0.281250
vt 0.093750 0.218750
vt 0.406250 0.218750
vt -0.000031 0.375000
vt -0.000031 0.281250
vt 0.000031 0.750000
vt 0.406250 0.437500
vt 0.406250 0.312500
vt 0.093750 0.312500
vt 0.093750 0.437500
vt 0.406250 0.093750
vt 0.093750 0.093750
vt 0.125000 0.999969
vt 0.125000 0.750000
vt 0.625000 0.500000
vt 0.625000 0.250000
vt 0.750000 0.250000
vt 0.750000 0.500000
vt 0.000031 0.500000
vt -0.000031 0.999969
vt 1.000000 0.000000
vt 1.000000 0.250000
vt 0.875000 0.250000
vt 0.875000 0.000000
vt 0.500000 0.437500
vt 0.500000 0.093750
vt -0.000031 0.437500
vt -0.000031 0.093750
vt 1.000000 0.500000
vt 0.875000 0.500000
vt 1.000000 0.093750
vt 0.796875 0.093750
vt 0.750000 0.000000
vt 0.593750 0.093750
vt 0.500000 0.000000
vt 0.593750 0.500000
vt 0.500000 0.250000
vt 0.625000 0.000000
vt 0.500000 0.406250
vt 0.703125 0.406250
vt 0.906250 0.406250
vt 0.906250 0.000000
vt 0.703125 0.093750
vt 0.906250 0.093750
vt 0.906250 0.500000
vt 1.000000 0.406250
vt 0.796875 0.406250
vt 0.593750 0.406250
vt 0.593750 0.000000
vt 0.406250 0.125000
vt 0.093750 0.125000
vt 0.281250 0.093750
vt 0.375000 0.093750
vt 0.375000 0.437500
vt 0.500000 0.281250
vt 0.500000 0.218750
vt -0.000031 0.218750
vt -0.000031 0.468750
s 1
usemtl MI_FFJ_TundraRocks_PF
f 20/1/5 19/2/5 17/3/5 18/4/5
f 87/5/7 86/6/7 98/7/7 99/8/7
f 169/9/7 171/10/7 170/11/7 168/12/7
f 4/13/1 2/14/1 3/15/1 1/16/1
f 83/8/6 82/7/6 80/17/6 81/18/6
f 99/8/7 98/7/7 96/17/7 97/18/7
f 225/18/6 223/5/6 224/19/6 222/20/6
f 250/21/7 252/22/7 249/23/7 247/24/7
f 40/18/1 37/17/1 38/25/1 39/26/1
f 39/5/1 38/6/1 43/17/1 44/18/1
f 221/27/3 218/28/3 219/29/3 220/30/3
f 48/31/1 46/32/1 47/29/1 45/33/1
f 42/5/3 41/6/3 33/17/3 36/18/3
f 252/22/7 254/34/7 253/35/7 249/23/7
f 246/36/7 251/37/7 248/38/7 244/39/7
f 36/5/3 33/6/3 34/17/3 35/18/3
f 253/35/7 257/40/7 255/41/7 251/37/7
f 125/5/1 121/42/1 118/25/1 124/6/1
f 56/43/5 53/44/5 54/45/5 55/46/5
f 115/47/4 114/43/4 112/46/4 113/48/4
f 95/18/6 94/17/6 92/49/6 93/50/6
f 76/51/5 79/52/5 78/53/5 73/54/5
f 238/18/6 229/5/6 227/19/6 237/20/6
f 129/55/3 61/19/3 63/5/3 128/42/3
f 242/25/6 240/17/6 238/18/6 241/42/6
f 16/2/4 13/1/4 14/4/4 15/3/4
f 62/19/3 64/5/3 63/42/3 61/55/3
f 141/10/6 143/9/6 142/12/6 139/11/6
f 241/42/6 238/18/6 237/20/6 239/55/6
f 107/43/5 106/47/5 104/48/5 105/46/5
f 229/42/6 225/18/6 222/20/6 227/55/6
f 30/26/1 29/56/1 21/9/1 24/12/1
f 71/57/5 77/58/5 101/59/5 69/60/5
f 128/42/3 63/5/3 65/6/3 127/25/3
f 189/25/7 188/42/7 234/18/7 232/17/7
f 28/12/3 25/9/3 26/56/3 27/26/3
f 121/42/1 119/5/1 120/6/1 118/25/1
f 109/61/5 108/62/5 106/47/5 107/43/5
f 113/48/4 112/46/4 110/63/4 111/64/4
f 187/17/7 186/25/7 183/42/7 185/18/7
f 117/62/4 116/61/4 114/43/4 115/47/4
f 72/58/5 71/65/5 69/66/5 70/59/5
f 58/33/3 60/29/3 59/32/3 57/31/3
f 64/5/3 66/6/3 65/25/3 63/42/3
f 232/17/7 234/18/7 233/5/7 231/6/7
f 164/9/7 167/10/7 165/11/7 166/12/7
f 132/67/5 130/68/5 131/57/5
f 133/69/5 131/57/5 130/68/5
f 130/68/5 134/70/5 133/69/5
f 135/71/5 133/69/5 134/70/5
f 134/70/5 136/19/5 135/71/5
f 136/19/5 134/70/5 137/72/5
f 71/19/5 72/73/5 79/52/5 76/51/5
f 147/10/6 138/9/6 140/12/6 145/11/6
f 77/73/5 71/71/5 76/74/5 75/52/5
f 185/18/7 183/42/7 184/55/7 182/20/7
f 150/75/5 148/76/5 149/19/5
f 151/54/5 149/19/5 148/76/5
f 148/76/5 152/77/5 151/54/5
f 153/65/5 151/54/5 152/77/5
f 152/77/5 154/57/5 153/65/5
f 155/78/5 154/57/5 152/77/5
f 158/58/5 156/59/5 157/67/5
f 159/68/5 157/67/5 156/59/5
f 156/59/5 160/53/5 159/68/5
f 161/70/5 159/68/5 160/53/5
f 160/53/5 162/72/5 161/70/5
f 160/53/5 163/54/5 162/72/5
f 85/5/6 84/6/6 82/7/6 83/8/6
f 138/56/6 141/10/6 139/11/6 140/26/6
f 91/18/7 90/17/7 88/49/7 89/50/7
f 89/50/7 88/49/7 86/25/7 87/26/7
f 176/73/5 174/52/5 175/75/5
f 177/76/5 175/75/5 174/52/5
f 174/52/5 178/53/5 177/76/5
f 179/77/5 177/76/5 178/53/5
f 178/53/5 180/78/5 179/77/5
f 181/69/5 180/78/5 178/53/5
f 171/10/7 173/56/7 172/26/7 170/11/7
f 167/10/7 169/56/7 168/26/7 165/11/7
f 228/17/6 226/6/6 223/5/6 225/18/6
f 157/62/5 190/52/5 158/73/5
f 190/52/5 157/62/5 191/79/5
f 192/53/5 190/52/5 191/79/5
f 192/53/5 191/79/5 193/80/5
f 193/80/5 180/81/5 192/53/5
f 181/54/5 192/53/5 180/81/5
f 131/71/5 194/79/5 132/62/5
f 194/79/5 131/71/5 195/69/5
f 195/69/5 196/80/5 194/79/5
f 196/80/5 195/69/5 197/57/5
f 197/57/5 154/65/5 196/80/5
f 155/81/5 196/80/5 154/65/5
f 176/58/5 175/82/5 198/59/5
f 199/83/5 198/59/5 175/82/5
f 198/59/5 199/83/5 200/53/5
f 199/83/5 201/84/5 200/53/5
f 201/84/5 162/85/5 200/53/5
f 163/69/5 200/53/5 162/85/5
f 150/82/5 149/65/5 202/83/5
f 203/54/5 202/83/5 149/65/5
f 202/83/5 203/54/5 204/84/5
f 203/54/5 205/19/5 204/84/5
f 205/19/5 136/71/5 204/84/5
f 137/85/5 204/84/5 136/71/5
f 8/86/2 6/87/2 7/45/2 5/44/2
f 126/19/1 123/55/1 121/42/1 125/5/1
f 217/88/3 215/89/3 216/90/3 214/33/3
f 207/30/1 209/29/1 208/28/1 206/27/1
f 211/88/1 208/28/1 209/29/1 210/33/1
f 210/33/1 213/90/1 212/89/1 211/88/1
f 75/52/5 76/74/5 73/69/5 74/53/5
f 243/91/7 246/36/7 244/39/7 245/92/7
f 189/6/7 187/17/7 185/18/7 188/5/7
f 240/17/6 230/6/6 229/5/6 238/18/6
f 12/15/3 10/14/3 11/13/3 9/16/3
f 24/26/1 21/56/1 22/9/1 23/12/1
f 105/46/5 104/48/5 102/64/5 103/63/5
f 93/50/6 92/49/6 84/25/6 85/26/6
f 69/60/5 101/59/5 100/53/5 67/69/5
f 27/12/3 26/9/3 31/56/3 32/26/3
f 144/56/6 147/10/6 145/11/6 146/26/6
f 234/18/7 236/20/7 235/19/7 233/5/7
f 230/25/6 228/17/6 225/18/6 229/42/6
f 123/55/1 122/19/1 119/5/1 121/42/1
f 70/59/5 69/66/5 67/54/5 68/53/5
f 247/24/7 249/23/7 246/36/7 243/91/7
f 219/29/3 218/28/3 217/88/3 214/33/3
f 256/93/7 248/38/7 251/37/7 255/41/7
f 52/44/4 50/43/4 51/46/4 49/45/4
f 254/34/7 258/94/7 257/40/7 253/35/7
