# Blender 5.0.1
# www.blender.org
mtllib BP_CarpetBorder_x4_Lonely.mtl
o SM_CarpetBorder_x4.001
v 50.000000 0.000000 7.000000
v 50.000000 100.000000 7.000000
v -50.000000 0.000000 7.000000
v -50.000000 100.000000 7.000000
v 50.000000 200.000000 7.000000
v -50.000000 200.000000 7.000000
v 50.000000 -200.000000 7.000000
v 50.000000 -100.000000 7.000000
v -50.000000 -200.000000 7.000000
v -50.000000 -100.000000 7.000000
vn -0.0000 -0.0000 1.0000
vt 0.500000 0.500000
vt 0.500000 0.000000
vt 1.000000 0.000000
vt 1.000000 0.500000
s 1
usemtl MI_CarpetBorders
f 6/1/1 4/2/1 2/3/1 5/4/1
f 10/1/1 9/2/1 7/3/1 8/4/1
f 4/1/1 3/2/1 1/3/1 2/4/1
f 3/1/1 10/2/1 8/3/1 1/4/1
