# Blender 5.0.1
# www.blender.org
mtllib BP_Creeper_Pillar.mtl
o SM_Creeper_Pillar.001
v 45.645592 -99.694206 -2.071697
v 45.645462 -0.628739 397.089294
v 45.645462 -99.694191 397.089325
v 45.645592 -0.628758 -2.071701
v -53.419983 -99.694191 397.089294
v -53.419853 -99.694206 -2.071732
v 45.645592 -99.694206 -2.071697
v 45.645462 -99.694191 397.089325
v -53.419983 -0.628739 397.089264
v -53.419853 -0.628758 -2.071735
v -53.419853 -99.694206 -2.071732
v -53.419983 -99.694191 397.089294
v 45.645462 -0.628739 397.089294
v 45.645592 -0.628758 -2.071701
v -53.419853 -0.628758 -2.071735
v -53.419983 -0.628739 397.089264
v 45.645462 -0.628739 397.089294
v -53.419983 -0.628739 397.089264
v -53.419983 -99.694191 397.089294
v 45.645462 -99.694191 397.089325
v -53.419853 -99.694206 -2.071732
v -53.419853 -0.628758 -2.071735
v 45.645592 -99.694206 -2.071697
v 45.645592 -0.628758 -2.071701
vn 1.0000 -0.0000 -0.0000
vn -0.0000 -1.0000 -0.0000
vn -1.0000 -0.0000 -0.0000
vn -0.0000 1.0000 -0.0000
vn -0.0000 -0.0000 1.0000
vn -0.0000 -0.0000 -1.0000
vt 0.375000 0.375000
vt 0.375000 0.875000
vt 0.250000 0.875000
vt 0.250000 0.375000
vt 0.125000 0.999969
vt 0.125000 0.875000
vt 0.250000 0.999969
vt 0.499023 0.377441
vt 0.500000 0.875000
vt 0.374023 0.377441
vt 0.125000 0.375000
vt 0.000031 0.875000
vt 0.000031 0.375000
vt 0.124207 0.374512
vt 0.124207 0.249512
vt 0.249146 0.249512
vt 0.249146 0.374512
s 1
usemtl M_Creeper_Pillar
f 11/1/3 12/2/3 9/3/3 10/4/3
f 20/5/5 17/6/5 18/3/5 19/7/5
f 7/8/2 8/9/2 5/2/2 6/10/2
f 4/11/1 2/6/1 3/12/1 1/13/1
f 15/4/4 16/3/4 13/6/4 14/11/4
f 24/14/6 23/15/6 21/16/6 22/17/6
