# Blender 5.0.1
# www.blender.org
mtllib BP_Captured_Llama.mtl
o SK_LlamaVariant1.001
v 6.250000 -18.749998 87.500000
v 6.250000 -18.749998 0.000000
v 6.250000 -43.750000 87.500000
v 6.250000 -43.750000 0.000000
v 6.250000 -43.750000 87.500000
v 31.250000 -43.750000 87.500000
v 6.250000 -18.749998 87.500000
v 31.250000 -18.749998 87.500000
v 31.250000 -18.749998 0.000000
v 31.250000 -18.749998 87.500000
v 31.250000 -43.750000 0.000000
v 31.250000 -43.750000 87.500000
v 6.250000 -43.750000 0.000000
v 6.250000 -18.749998 0.000000
v 31.250000 -18.749998 0.000000
v 31.250000 -43.750000 0.000000
v 31.250000 -43.750000 0.000000
v 31.250000 -43.750000 87.500000
v 6.250000 -43.750000 0.000000
v 6.250000 -43.750000 87.500000
v 6.250000 -18.749998 87.500000
v 31.250000 -18.749998 0.000000
v 6.250000 -18.749998 0.000000
v 31.250000 -18.749998 87.500000
v 6.250000 50.000000 87.500000
v 6.250000 50.000000 -0.000000
v 6.250000 25.000000 87.500000
v 6.250000 25.000000 -0.000000
v 6.250000 25.000000 87.500000
v 31.250000 25.000000 87.500000
v 6.250000 50.000000 87.500000
v 31.250000 50.000000 87.500000
v 31.250000 50.000000 -0.000000
v 31.250000 50.000000 87.500000
v 31.250000 25.000000 -0.000000
v 31.250000 25.000000 87.500000
v 6.250000 25.000000 -0.000000
v 6.250000 50.000000 -0.000000
v 31.250000 50.000000 -0.000000
v 31.250000 25.000000 -0.000000
v 31.250000 25.000000 -0.000000
v 31.250000 25.000000 87.500000
v 6.250000 25.000000 -0.000000
v 6.250000 25.000000 87.500000
v 6.250000 50.000000 87.500000
v 31.250000 50.000000 -0.000000
v 6.250000 50.000000 -0.000000
v 31.250000 50.000000 87.500000
v -31.250000 50.000000 87.500000
v -31.250000 50.000000 -0.000000
v -31.250000 25.000000 87.500000
v -31.250000 25.000000 -0.000000
v -31.250000 25.000000 87.500000
v -6.250000 25.000000 87.500000
v -31.250000 50.000000 87.500000
v -6.250000 50.000000 87.500000
v -6.250000 50.000000 -0.000000
v -6.250000 50.000000 87.500000
v -6.250000 25.000000 -0.000000
v -6.250000 25.000000 87.500000
v -31.250000 25.000000 -0.000000
v -31.250000 50.000000 -0.000000
v -6.250000 50.000000 -0.000000
v -6.250000 25.000000 -0.000000
v -6.250000 25.000000 -0.000000
v -6.250000 25.000000 87.500000
v -31.250000 25.000000 -0.000000
v -31.250000 25.000000 87.500000
v -31.250000 50.000000 87.500000
v -6.250000 50.000000 -0.000000
v -31.250000 50.000000 -0.000000
v -6.250000 50.000000 87.500000
v -31.250000 -18.749998 87.500000
v -31.250000 -18.749998 0.000000
v -31.250000 -43.750000 87.500000
v -31.250000 -43.750000 0.000000
v -31.250000 -43.750000 87.500000
v -6.250000 -43.750000 87.500000
v -31.250000 -18.749998 87.500000
v -6.250000 -18.749998 87.500000
v -6.250000 -18.749998 0.000000
v -6.250000 -18.749998 87.500000
v -6.250000 -43.750000 0.000000
v -6.250000 -43.750000 87.500000
v -31.250000 -43.750000 0.000000
v -31.250000 -18.749998 0.000000
v -6.250000 -18.749998 0.000000
v -6.250000 -43.750000 0.000000
v -6.250000 -43.750000 0.000000
v -6.250000 -43.750000 87.500000
v -31.250000 -43.750000 0.000000
v -31.250000 -43.750000 87.500000
v -31.250000 -18.749998 87.500000
v -6.250000 -18.749998 0.000000
v -31.250000 -18.749998 0.000000
v -6.250000 -18.749998 87.500000
v -12.500000 -100.000000 206.249985
v -12.500000 -75.000000 206.249985
v -12.500000 -75.000000 181.249985
v -12.500000 -100.000000 181.249985
v -12.500000 -100.000000 206.249985
v 12.500000 -100.000000 206.249985
v -12.500000 -75.000000 206.249985
v 12.500000 -75.000000 206.249985
v 12.500000 -100.000000 181.249985
v 12.500000 -75.000000 181.249985
v 12.500000 -75.000000 206.249985
v 12.500000 -100.000000 206.249985
v -12.500000 -100.000000 181.249985
v -12.500000 -75.000000 181.249985
v 12.500000 -75.000000 181.249985
v 12.500000 -100.000000 181.249985
v -12.500000 -100.000000 206.249985
v -12.500000 -100.000000 181.249985
v 12.500000 -100.000000 206.249985
v 12.500000 -100.000000 181.249985
v -12.500000 -75.000000 206.249985
v 12.500000 -75.000000 181.249985
v -12.500000 -75.000000 181.249985
v 12.500000 -75.000000 206.249985
v 6.249999 -62.499996 237.499985
v 6.249999 -49.999996 237.499985
v 6.249999 -49.999996 218.749985
v 6.249999 -62.499996 218.749985
v 6.249999 -62.499996 237.499985
v 24.999998 -62.499996 237.499985
v 6.249999 -49.999996 237.499985
v 24.999998 -49.999996 237.499985
v 24.999998 -62.499996 218.749985
v 24.999998 -49.999996 218.749985
v 24.999998 -49.999996 237.499985
v 24.999998 -62.499996 237.499985
v 6.249999 -62.499996 218.749985
v 6.249999 -49.999996 218.749985
v 24.999998 -49.999996 218.749985
v 24.999998 -62.499996 218.749985
v 6.249999 -62.499996 237.499985
v 6.249999 -62.499996 218.749985
v 24.999998 -62.499996 237.499985
v 24.999998 -62.499996 218.749985
v 6.249999 -49.999996 237.499985
v 24.999998 -49.999996 218.749985
v 6.249999 -49.999996 218.749985
v 24.999998 -49.999996 237.499985
v -25.000000 -62.499996 237.499985
v -25.000000 -49.999996 237.499985
v -25.000000 -49.999996 218.749985
v -25.000000 -62.499996 218.749985
v -25.000000 -62.499996 237.499985
v -6.250000 -62.499996 237.499985
v -25.000000 -49.999996 237.499985
v -6.250000 -49.999996 237.499985
v -6.250000 -62.499996 218.749985
v -6.250000 -49.999996 218.749985
v -6.250000 -49.999996 237.499985
v -6.250000 -62.499996 237.499985
v -25.000000 -62.499996 218.749985
v -25.000000 -49.999996 218.749985
v -6.250000 -49.999996 218.749985
v -6.250000 -62.499996 218.749985
v -25.000000 -62.499996 237.499985
v -25.000000 -62.499996 218.749985
v -6.250000 -62.499996 237.499985
v -6.250000 -62.499996 218.749985
v -25.000000 -49.999996 237.499985
v -6.250000 -49.999996 218.749985
v -25.000000 -49.999996 218.749985
v -6.250000 -49.999996 237.499985
v -25.000000 -37.500000 218.750000
v -25.000000 -37.500000 106.249992
v -25.000000 -75.000000 218.750000
v -25.000000 -75.000000 106.249992
v -25.000000 -75.000000 218.750000
v 25.000000 -75.000000 218.750000
v -25.000000 -37.500000 218.750000
v 25.000000 -37.500000 218.750000
v 25.000000 -37.500000 106.249992
v 25.000000 -37.500000 218.750000
v 25.000000 -75.000000 106.249992
v 25.000000 -75.000000 218.750000
v -25.000000 -75.000000 106.249992
v -25.000000 -37.500000 106.249992
v 25.000000 -37.500000 106.249992
v 25.000000 -75.000000 106.249992
v 25.000000 -75.000000 106.249992
v 25.000000 -75.000000 218.750000
v -25.000000 -75.000000 106.249992
v -25.000000 -75.000000 218.750000
v -25.000000 -37.500000 218.750000
v 25.000000 -37.500000 106.249992
v -25.000000 -37.500000 106.249992
v 25.000000 -37.500000 218.750000
v -37.500000 -50.000000 150.000000
v -37.500000 62.500000 150.000000
v -37.500000 62.500000 87.499992
v -37.500000 -50.000000 87.499992
v -37.500000 -50.000000 150.000000
v 37.500000 -50.000000 150.000000
v -37.500000 62.500000 150.000000
v 37.500000 62.500000 150.000000
v 37.500000 -50.000000 87.499992
v 37.500000 62.500000 87.499992
v 37.500000 62.500000 150.000000
v 37.500000 -50.000000 150.000000
v -37.500000 -50.000000 87.499992
v -37.500000 62.500000 87.499992
v 37.500000 62.500000 87.499992
v 37.500000 -50.000000 87.499992
v -37.500000 -50.000000 150.000000
v -37.500000 -50.000000 87.499992
v 37.500000 -50.000000 150.000000
v 37.500000 -50.000000 87.499992
v -37.500000 62.500000 150.000000
v 37.500000 62.500000 87.499992
v -37.500000 62.500000 87.499992
v 37.500000 62.500000 150.000000
v -27.500000 -35.625000 224.375000
v -27.500000 -35.625000 100.624992
v -27.500000 -76.875000 224.375000
v -27.500000 -76.875000 100.624992
v -27.500000 -76.875000 224.375000
v 27.500000 -76.875000 224.375000
v -27.500000 -35.625000 224.375000
v 27.500000 -35.625000 224.375000
v 27.500000 -35.625000 100.624992
v 27.500000 -35.625000 224.375000
v 27.500000 -76.875000 100.624992
v 27.500000 -76.875000 224.375000
v -27.500000 -76.875000 100.624992
v -27.500000 -35.625000 100.624992
v 27.500000 -35.625000 100.624992
v 27.500000 -76.875000 100.624992
v 27.500000 -76.875000 100.624992
v 27.500000 -76.875000 224.375000
v -27.500000 -76.875000 100.624992
v -27.500000 -76.875000 224.375000
v -27.500000 -35.625000 224.375000
v 27.500000 -35.625000 100.624992
v -27.500000 -35.625000 100.624992
v 27.500000 -35.625000 224.375000
v -41.250000 -55.625000 153.125000
v -41.250000 68.125000 153.125000
v -41.250000 68.125000 84.374992
v -41.250000 -55.625000 84.374992
v -41.250000 -55.625000 153.125000
v 41.250000 -55.625000 153.125000
v -41.250000 68.125000 153.125000
v 41.250000 68.125000 153.125000
v 41.250000 -55.625000 84.374992
v 41.250000 68.125000 84.374992
v 41.250000 68.125000 153.125000
v 41.250000 -55.625000 153.125000
v -41.250000 -55.625000 84.374992
v -41.250000 68.125000 84.374992
v 41.250000 68.125000 84.374992
v 41.250000 -55.625000 84.374992
v -41.250000 -55.625000 153.125000
v -41.250000 -55.625000 84.374992
v 41.250000 -55.625000 153.125000
v 41.250000 -55.625000 84.374992
v -41.250000 68.125000 153.125000
v 41.250000 68.125000 84.374992
v -41.250000 68.125000 84.374992
v 41.250000 68.125000 153.125000
vn -1.0000 -0.0000 -0.0000
vn -0.0000 -0.0000 1.0000
vn 1.0000 -0.0000 -0.0000
vn -0.0000 -0.0000 -1.0000
vn -0.0000 -1.0000 -0.0000
vn -0.0000 1.0000 -0.0000
vt 0.109253 0.687500
vt 0.109375 0.406250
vt 0.156250 0.406250
vt 0.156250 0.687500
vt 0.187500 0.968750
vt 0.187500 0.921875
vt 0.210938 0.921875
vt 0.210938 0.968765
vt 0.171875 0.968750
vt 0.195312 0.968750
vt 0.195312 1.000043
vt 0.171875 1.000043
vt 0.320312 0.484863
vt 0.320312 0.547119
vt 0.288818 0.547119
vt 0.288818 0.484863
vt 0.304688 0.562500
vt 0.398193 0.562500
vt 0.398193 0.843628
vt 0.304688 0.843628
vt 0.132935 0.859497
vt 0.132935 0.796997
vt 0.164062 0.796875
vt 0.164062 0.859497
vt 0.476318 0.843628
vt 0.476318 0.562500
vt 0.148438 0.968750
vt 0.171875 1.000032
vt 0.148438 0.999957
vt 0.320312 0.266113
vt 0.351318 0.266113
vt 0.351318 0.484863
vt 0.289062 0.484863
vt 0.257812 0.484863
vt 0.257812 0.265625
vt 0.289062 0.265625
vt 0.257568 0.547119
vt 0.226562 0.484375
vt 0.226562 0.265625
vt 0.398193 0.999969
vt 0.304688 0.999969
vt 0.148438 0.921875
vt 0.171875 0.921875
vt 0.046875 0.406738
vt 0.046844 0.687500
vt -0.000147 0.687500
vt 0.000147 0.406250
vt 0.101562 0.859497
vt 0.132568 0.859497
vt 0.132690 0.921875
vt 0.101562 0.921875
vt 0.070251 0.859497
vt 0.101562 0.921936
vt 0.070312 0.921875
vt 0.148438 0.921936
vt 0.132812 0.968765
vt 0.132812 0.921936
vt 0.226440 0.843628
vt 0.226440 0.562500
vt 0.304443 0.562500
vt 0.156128 0.687500
vt 0.218750 0.406250
vt 0.218750 0.687500
vt 0.569824 0.562500
vt 0.569824 0.843628
vt 0.109192 0.687500
vt 0.046844 0.406250
vt 0.070312 0.796997
vt 0.070312 0.859497
vt 0.039062 0.859375
vt 0.039062 0.796875
vt 0.109375 0.781250
vt 0.046875 0.781250
vt 0.226562 0.843628
vt 0.070312 0.796875
vt 0.101562 0.796997
vt 0.171875 0.687500
vt 0.171875 0.781250
vt 0.109375 0.781494
vt 0.101501 0.796875
vt 0.132812 0.796875
vt 0.492188 0.843628
vt 0.492188 0.999969
s 1
usemtl MI_Llama
f 168/5/6 166/6/6 167/7/6 165/8/6
f 136/9/4 133/10/4 134/11/4 135/12/4
f 88/13/4 85/14/4 86/15/4 87/16/4
f 120/21/6 118/22/6 119/23/6 117/24/6
f 152/27/2 151/9/2 149/28/2 150/29/2
f 72/13/6 70/30/6 71/31/6 69/32/6
f 66/33/5 68/34/5 67/35/5 65/36/5
f 56/37/2 55/34/2 53/16/2 54/15/2
f 52/35/1 51/34/1 49/38/1 50/39/1
f 8/37/2 7/34/2 5/16/2 6/15/2
f 64/13/4 61/14/4 62/15/4 63/16/4
f 16/13/4 13/14/4 14/15/4 15/16/4
f 4/35/1 3/34/1 1/38/1 2/39/1
f 12/33/3 11/36/3 9/30/3 10/13/3
f 80/37/2 79/34/2 77/16/2 78/15/2
f 32/37/2 31/34/2 29/16/2 30/15/2
f 138/42/5 140/43/5 139/9/5 137/27/5
f 28/35/1 27/34/1 25/38/1 26/39/1
f 96/13/6 94/30/6 95/31/6 93/32/6
f 24/13/6 22/30/6 23/31/6 21/32/6
f 172/44/1 171/45/1 169/46/1 170/47/1
f 204/25/3 201/19/3 202/18/3 203/26/3
f 112/48/4 109/49/4 110/50/4 111/51/4
f 48/13/6 46/30/6 47/31/6 45/32/6
f 104/52/2 103/48/2 101/53/2 102/54/2
f 42/33/5 44/34/5 43/35/5 41/36/5
f 144/5/6 142/6/6 143/7/6 141/8/6
f 148/55/1 145/27/1 146/56/1 147/57/1
f 128/27/2 127/9/2 125/28/2 126/29/2
f 60/33/3 59/36/3 57/30/3 58/13/3
f 132/9/3 129/43/3 130/6/3 131/5/3
f 36/33/3 35/36/3 33/30/3 34/13/3
f 84/33/3 83/36/3 81/30/3 82/13/3
f 124/55/1 121/27/1 122/56/1 123/57/1
f 156/9/3 153/43/3 154/6/3 155/5/3
f 76/35/1 75/34/1 73/38/1 74/39/1
f 162/42/5 164/43/5 163/9/5 161/27/5
f 160/9/4 157/10/4 158/11/4 159/12/4
f 100/68/1 97/69/1 98/70/1 99/71/1
f 176/72/2 175/73/2 173/45/2 174/1/2
f 186/66/5 188/45/5 187/67/5 185/2/5
f 90/33/5 92/34/5 91/35/5 89/36/5
f 196/59/1 193/17/1 194/20/1 195/74/1
f 192/61/6 190/3/6 191/62/6 189/63/6
f 180/1/3 179/2/3 177/3/3 178/4/3
f 208/17/4 205/18/4 206/19/4 207/20/4
f 114/75/5 116/76/5 115/48/5 113/69/5
f 108/48/3 105/80/3 106/81/3 107/21/3
f 216/40/6 214/19/6 215/82/6 213/83/6
f 210/20/5 212/19/5 211/40/5 209/41/5
f 184/1/4 181/77/4 182/78/4 183/79/4
f 200/26/2 199/64/2 197/65/2 198/25/2
f 18/33/5 20/34/5 19/35/5 17/36/5
f 40/13/4 37/14/4 38/15/4 39/16/4
usemtl material_1
f 228/1/3 227/2/3 225/3/3 226/4/3
f 256/17/4 253/18/4 254/19/4 255/20/4
f 252/25/3 249/19/3 250/18/3 251/26/3
f 258/20/5 260/19/5 259/40/5 257/41/5
f 244/20/1 241/58/1 242/59/1 243/60/1
f 240/61/6 238/3/6 239/62/6 237/63/6
f 248/26/2 247/64/2 245/65/2 246/25/2
f 234/66/5 236/45/5 235/67/5 233/2/5
f 232/1/4 229/77/4 230/78/4 231/79/4
f 220/44/1 219/45/1 217/46/1 218/47/1
f 224/72/2 223/73/2 221/45/2 222/1/2
f 264/40/6 262/19/6 263/82/6 261/83/6
