# Blender 5.0.1
# www.blender.org
mtllib BP_Cactus02.mtl
o SM_Cactus02.001
v -18.750000 12.499998 37.500000
v -18.750000 12.500000 0.000001
v -6.250000 12.499998 37.500000
v -6.250000 12.500000 0.000001
v -6.250000 12.499998 37.500000
v -6.250000 24.999998 37.500000
v -18.750000 12.499998 37.500000
v -18.750000 24.999998 37.500000
v -18.750000 25.000000 0.000001
v -18.750000 24.999998 37.500000
v -6.250000 25.000000 0.000001
v -6.250000 24.999998 37.500000
v -6.250000 25.000000 0.000001
v -6.250000 24.999998 37.500000
v -6.250000 12.500000 0.000001
v -6.250000 12.499998 37.500000
v -18.750000 12.499998 37.500000
v -18.750000 25.000000 0.000001
v -18.750000 12.500000 0.000001
v -18.750000 24.999998 37.500000
v 18.750000 12.499999 31.250000
v 0.000000 12.499999 31.250002
v 0.000000 12.500000 0.000001
v 18.750000 12.500000 0.000001
v 18.750000 12.499999 31.250000
v 18.750000 31.249998 31.250002
v 0.000000 12.499999 31.250002
v 0.000000 31.249998 31.250004
v 0.000000 31.250000 0.000001
v 18.750000 31.249998 31.250002
v 18.750000 31.250000 0.000001
v 0.000000 31.249998 31.250004
v 18.750000 12.499999 31.250000
v 18.750000 12.500000 0.000001
v 18.750000 31.249998 31.250002
v 18.750000 31.250000 0.000001
v 0.000000 12.499999 31.250002
v 0.000000 31.250000 0.000001
v 0.000000 12.500000 0.000001
v 0.000000 31.249998 31.250004
v 18.750000 -12.500001 31.250000
v 18.750000 -12.500000 -0.000001
v 31.250000 -12.500001 31.250000
v 31.250000 -12.500000 -0.000001
v 31.250000 -12.500001 31.250000
v 31.250000 -0.000001 31.250000
v 18.750000 -12.500001 31.250000
v 18.750000 -0.000001 31.250000
v 18.750000 0.000000 0.000000
v 18.750000 -0.000001 31.250000
v 31.250000 0.000000 0.000000
v 31.250000 -0.000001 31.250000
v 31.250000 0.000000 0.000000
v 31.250000 -0.000001 31.250000
v 31.250000 -12.500000 -0.000001
v 31.250000 -12.500001 31.250000
v 18.750000 -12.500001 31.250000
v 18.750000 0.000000 0.000000
v 18.750000 -12.500000 -0.000001
v 18.750000 -0.000001 31.250000
v -6.250000 -12.500000 -0.000001
v -6.250000 -12.500001 18.750000
v 12.500000 -12.500000 -0.000001
v 12.500000 -12.500001 18.750000
v -6.250000 -31.250000 18.749998
v 12.500000 -31.250000 18.749998
v 12.500000 -12.500001 18.750000
v -6.250000 -12.500001 18.750000
v -6.250000 -31.250000 18.749998
v -6.250000 -31.250000 -0.000001
v 12.500000 -31.250000 18.749998
v 12.500000 -31.250000 -0.000001
v -6.250000 -31.250000 18.749998
v -6.250000 -12.500000 -0.000001
v -6.250000 -31.250000 -0.000001
v -6.250000 -12.500001 18.750000
v 12.500000 -31.250000 18.749998
v 12.500000 -31.250000 -0.000001
v 12.500000 -12.500001 18.750000
v 12.500000 -12.500000 -0.000001
v -6.250000 6.250000 0.000000
v -6.250000 6.249999 25.000000
v 6.250000 6.250000 0.000000
v 6.250000 6.249999 25.000000
v -6.250000 -6.250001 25.000000
v 6.250000 -6.250001 25.000000
v 6.250000 6.249999 25.000000
v -6.250000 6.249999 25.000000
v -6.250000 -6.250001 25.000000
v -6.250000 -6.250000 -0.000000
v 6.250000 -6.250001 25.000000
v 6.250000 -6.250000 -0.000000
v -6.250000 -6.250001 25.000000
v -6.250000 6.250000 0.000000
v -6.250000 -6.250000 -0.000000
v -6.250000 6.249999 25.000000
v 6.250000 6.250000 0.000000
v 6.250000 6.249999 25.000000
v 6.250000 -6.250000 -0.000000
v 6.250000 -6.250001 25.000000
v -25.000000 -18.750002 31.250000
v -25.000000 -18.750000 -0.000001
v -12.500000 -18.750002 31.250000
v -12.500000 -18.750000 -0.000001
v -12.500000 -18.750002 31.250000
v -12.500000 -6.250001 31.250000
v -25.000000 -18.750002 31.250000
v -25.000000 -6.250001 31.250000
v -25.000000 -6.250000 -0.000000
v -25.000000 -6.250001 31.250000
v -12.500000 -6.250000 -0.000000
v -12.500000 -6.250001 31.250000
v -12.500000 -6.250000 -0.000000
v -12.500000 -6.250001 31.250000
v -12.500000 -18.750000 -0.000001
v -12.500000 -18.750002 31.250000
v -25.000000 -18.750002 31.250000
v -25.000000 -6.250000 -0.000000
v -25.000000 -18.750000 -0.000001
v -25.000000 -6.250001 31.250000
v -9.374997 9.374999 39.758812
v -3.125000 9.374999 39.758812
v -3.125000 15.625000 39.758812
v -9.374997 15.625000 37.687992
v -15.624998 9.374999 39.758812
v -3.125000 21.874996 39.758812
v -15.624998 15.625000 37.687992
v -21.875000 9.374999 39.758812
v -21.875000 15.625000 39.758812
v -9.374997 21.874996 37.687992
v -9.374997 28.124998 39.758812
v -3.125000 28.124998 39.758812
v -15.624998 28.124994 39.758812
v -15.624998 21.874996 37.687992
v -21.875000 21.874996 39.758812
v -21.875000 28.124998 39.758812
v -15.624996 -22.023888 33.554050
v -9.374999 -22.023888 33.554050
v -9.374999 -15.773886 33.554050
v -15.624996 -15.773885 31.421488
v -21.874996 -22.023888 33.554050
v -9.374999 -9.523888 33.554050
v -21.874996 -15.773885 31.421488
v -28.125004 -22.023888 33.554050
v -28.125004 -15.773886 33.554050
v -28.125000 -9.523888 33.554050
v -15.624996 -3.273885 33.554050
v -9.374999 -3.273885 33.554050
v -21.874996 -9.523887 31.421488
v -15.624996 -9.523887 31.421488
v -21.874996 -3.273885 33.554050
v -28.125000 -3.273885 33.554050
v 12.418694 12.530737 33.574646
v 18.668692 12.530737 33.574646
v 18.668692 18.780737 33.574646
v 12.418694 18.780737 31.442083
v 6.168694 12.530737 33.574646
v 18.668692 25.030737 33.574646
v 6.168694 18.780737 31.442083
v -0.081312 12.530737 33.574646
v -0.081312 18.780737 33.574646
v -0.081310 25.030737 33.574646
v 12.418694 31.280737 33.574646
v 18.668692 31.280737 33.574646
v 6.168694 25.030737 31.442085
v -0.081308 31.280737 33.574646
v 6.168694 31.280737 33.574646
v 12.418694 25.030737 31.442085
v 6.243340 -31.249479 21.086678
v 12.493336 -31.249479 21.086678
v 12.493336 -24.999477 21.086678
v 6.243340 -24.999477 19.015858
v -0.006662 -31.249479 21.086678
v 12.493336 -18.749481 21.086679
v -0.006662 -24.999477 19.015858
v -6.256663 -31.249479 21.086678
v -6.256663 -24.999477 21.086678
v 6.243340 -18.749481 19.015860
v 6.243340 -12.499480 21.086679
v 12.493336 -12.499480 21.086679
v -0.006662 -12.499485 21.086679
v -0.006662 -18.749481 19.015860
v -6.256663 -18.749481 21.086679
v -6.256663 -12.499480 21.086679
vn -0.0000 -1.0000 -0.0000
vn -0.0000 -0.0000 1.0000
vn -0.0000 1.0000 -0.0000
vn 1.0000 -0.0000 -0.0000
vn -1.0000 -0.0000 -0.0000
vn -0.0800 0.2377 0.9680
vn -0.2377 0.0800 0.9680
vn -0.1551 0.1551 0.9756
vn -0.0000 0.3145 0.9493
vn -0.2377 -0.0800 0.9680
vn 0.1205 0.1205 0.9854
vn 0.1613 0.1613 0.9736
vn 0.3145 -0.0000 0.9493
vn -0.1551 -0.1551 0.9756
vn -0.0800 -0.2377 0.9680
vn 0.0800 -0.2377 0.9680
vn 0.1551 -0.1551 0.9756
vn 0.2377 -0.0800 0.9680
vn -0.0822 0.2441 0.9663
vn -0.2441 0.0822 0.9663
vn -0.1591 0.1591 0.9743
vn -0.0000 0.3229 0.9464
vn -0.2441 -0.0822 0.9663
vn 0.1238 0.1238 0.9845
vn 0.1658 0.1658 0.9721
vn 0.3229 -0.0000 0.9464
vn 0.2441 -0.0822 0.9663
vn -0.0822 -0.2441 0.9663
vn 0.1591 -0.1591 0.9743
vn -0.1591 -0.1591 0.9743
vn 0.0822 -0.2441 0.9663
vn 0.1238 -0.1238 0.9845
vn 0.1658 -0.1658 0.9721
vn -0.0000 -0.3229 0.9464
vt 0.125000 0.875000
vt 0.125000 0.999969
vt 0.000031 0.999969
vt 0.000031 0.875000
vt 0.125000 0.625000
vt 0.000031 0.625000
vt 0.312500 0.687500
vt 0.312500 0.875000
vt 0.125000 0.687500
vt 0.562500 0.437500
vt 0.562500 0.375000
vt 0.625000 0.375000
vt 0.625000 0.437500
vt 0.375000 0.875000
vt 0.375000 0.999969
vt 0.125000 0.375000
vt 0.312500 0.375000
vt 0.562500 0.312500
vt 0.625000 0.312500
vt 0.375000 0.375000
vt 0.375000 0.312500
vt 0.437500 0.312500
vt 0.437500 0.375000
vt 0.812500 0.625000
vt 0.812500 0.999969
vt 0.687500 0.999969
vt 0.687500 0.625000
vt 0.812500 0.937500
vt 0.687500 0.937500
vt 0.812500 0.500000
vt 0.687500 0.500000
vt 0.437500 0.437500
vt 0.500000 0.375000
vt 0.500000 0.437500
vt 0.625000 0.687500
vt 0.625000 0.875000
vt 0.687500 0.375000
vt 0.687500 0.437500
vt 0.375000 0.625000
vt 0.375000 0.500000
vt 0.375000 0.437500
vt 0.437500 0.500000
vt 0.500000 0.687500
vt 0.500000 0.875000
vt 0.312500 0.625000
vt 0.312500 0.500000
vt 0.125000 0.562500
vt 0.000031 0.562500
vt 0.312500 0.437500
vt 0.437500 0.875000
vt 0.437500 0.999969
vt 0.687500 0.312500
vt 0.500000 0.312500
vt 0.125000 0.500000
vt 0.625000 0.500000
vt 0.562500 0.500000
vt 0.500000 0.500000
vt 0.312500 0.312500
s 1
usemtl MI_Cactus02
f 88/1/2 85/2/2 86/3/2 87/4/2
f 92/5/1 91/1/1 89/4/1 90/6/1
f 68/7/2 65/8/2 66/1/2 67/9/2
f 134/10/17 127/11/11 124/12/8 130/13/14
f 98/2/4 100/1/4 99/14/4 97/15/4
f 32/7/3 30/9/3 31/16/3 29/17/3
f 127/11/11 125/18/9 121/19/6 124/12/8
f 143/20/24 141/21/22 137/22/19 140/23/21
f 12/24/3 11/25/3 9/26/3 10/27/3
f 4/26/1 3/27/1 1/24/1 2/25/1
f 175/11/11 173/18/9 169/19/6 172/12/8
f 52/24/3 51/28/3 49/29/3 50/27/3
f 8/30/2 7/24/2 5/27/2 6/31/2
f 168/32/30 156/23/21 155/33/20 158/34/23
f 40/7/5 38/35/5 39/36/5 37/8/5
f 130/13/14 124/12/8 123/37/7 126/38/10
f 60/27/5 58/39/5 59/40/5 57/31/5
f 165/41/32 168/32/30 163/42/28 167/40/34
f 78/43/4 80/44/4 79/8/4 77/7/4
f 28/1/2 27/9/2 25/7/2 26/8/2
f 159/20/24 156/23/21 168/32/30 165/41/32
f 14/31/4 16/27/4 15/45/4 13/46/4
f 20/27/5 18/45/5 19/46/5 17/31/5
f 178/13/14 172/12/8 171/37/7 174/38/10
f 54/31/4 56/27/4 55/39/4 53/40/4
f 96/1/5 94/14/5 95/15/5 93/2/5
f 48/30/2 47/24/2 45/27/2 46/31/2
f 104/47/1 103/1/1 101/4/1 102/48/1
f 165/41/32 162/49/26 161/17/26 159/20/24
f 114/2/4 116/1/4 115/50/4 113/51/4
f 123/37/7 121/19/6 122/52/2
f 124/12/8 121/19/6 123/37/7
f 34/35/4 36/36/4 35/8/4 33/7/4
f 108/3/2 107/4/2 105/1/2 106/2/2
f 125/18/9 127/11/11 128/53/12
f 129/33/13 128/53/12 127/11/11
f 64/9/3 63/54/3 61/46/3 62/7/3
f 132/31/2 131/55/15 126/38/10
f 130/13/14 126/38/10 131/55/15
f 149/41/29 146/49/27 145/17/26 143/20/24
f 159/20/24 157/21/22 153/22/19 156/23/21
f 134/10/17 133/56/16 135/34/18
f 136/57/2 135/34/18 133/56/16
f 139/33/20 137/22/19 138/53/2
f 140/23/21 137/22/19 139/33/20
f 149/41/29 150/32/30 147/42/28 151/40/31
f 72/46/1 71/7/1 69/9/1 70/54/1
f 141/21/22 143/20/24 144/58/25
f 145/17/26 144/58/25 143/20/24
f 182/10/17 178/13/14 179/55/15 181/56/16
f 148/57/2 147/42/28 142/34/23
f 150/32/30 142/34/23 147/42/28
f 84/4/3 83/6/3 81/5/3 82/1/3
f 134/10/17 130/13/14 131/55/15 133/56/16
f 149/41/29 151/40/31 146/49/27
f 152/46/2 146/49/27 151/40/31
f 155/33/20 153/22/19 154/53/2
f 156/23/21 153/22/19 155/33/20
f 76/7/5 74/43/5 75/44/5 73/8/5
f 149/41/29 143/20/24 140/23/21 150/32/30
f 157/21/22 159/20/24 160/58/25
f 161/17/26 160/58/25 159/20/24
f 24/17/1 21/7/1 22/9/1 23/16/1
f 164/57/2 163/42/28 158/34/23
f 162/49/26 165/41/32 166/46/33
f 167/40/34 166/46/33 165/41/32
f 168/32/30 158/34/23 163/42/28
f 182/10/17 175/11/11 172/12/8 178/13/14
f 150/32/30 140/23/21 139/33/20 142/34/23
f 171/37/7 169/19/6 170/52/2
f 172/12/8 169/19/6 171/37/7
f 135/34/18 129/33/13 127/11/11 134/10/17
f 120/1/5 118/50/5 119/51/5 117/2/5
f 176/53/12 173/18/9 175/11/11
f 177/33/13 176/53/12 175/11/11
f 112/4/3 111/48/3 109/47/3 110/1/3
f 180/31/2 179/55/15 174/38/10
f 178/13/14 174/38/10 179/55/15
f 44/29/1 43/27/1 41/24/1 42/28/1
f 183/34/18 182/10/17 181/56/16
f 184/57/2 183/34/18 181/56/16
f 183/34/18 177/33/13 175/11/11 182/10/17
