# Blender 5.0.1
# www.blender.org
mtllib BP_China_Glass.mtl
o SM_Glass.001
v 9.375000 -9.375001 25.000002
v -9.375000 -9.375001 25.000002
v -9.375000 -9.375000 0.000003
v 9.375000 -9.375000 0.000003
v 6.249999 -6.250003 3.125001
v -6.249999 6.249995 3.125001
v -6.250000 -6.250003 3.125001
v 6.249999 6.249995 3.125001
v 9.375000 9.375000 0.000003
v -9.375000 9.375000 0.000003
v -9.375000 9.374999 25.000002
v 9.375000 9.374999 25.000002
v 9.375000 -9.375000 0.000003
v -9.375000 -9.375000 0.000003
v -9.375000 9.375000 0.000003
v 9.375000 9.375000 0.000003
v 9.375000 -9.375001 25.000002
v 9.375000 -9.375000 0.000003
v 9.375000 9.374999 25.000002
v 9.375000 9.375000 0.000003
v -9.375000 -9.375001 25.000002
v -9.375000 9.375000 0.000003
v -9.375000 -9.375000 0.000003
v -9.375000 9.374999 25.000002
v -6.250000 -6.250003 3.125001
v -6.250000 -6.250000 25.000002
v 6.249999 -6.250003 3.125001
v 6.249999 -6.250000 25.000002
v 6.249999 6.249998 25.000002
v 6.249999 6.249995 3.125001
v 6.249999 -6.250000 25.000002
v 6.249999 -6.250003 3.125001
v -6.249999 6.249998 25.000002
v -6.249999 6.249995 3.125001
v 6.249999 6.249998 25.000002
v 6.249999 6.249995 3.125001
v -6.250000 -6.250000 25.000002
v -6.249999 6.249995 3.125001
v -6.249999 6.249998 25.000002
v -6.250000 -6.250003 3.125001
v -9.375000 -9.375001 25.000002
v 9.375000 -9.375001 25.000002
v 6.249999 -6.250000 25.000002
v -6.250000 -6.250000 25.000002
v 9.375000 9.374999 25.000002
v 6.249999 6.249998 25.000002
v -9.375000 9.374999 25.000002
v -6.249999 6.249998 25.000002
vn -0.0000 -1.0000 -0.0000
vn -0.0000 -0.0000 1.0000
vn -0.0000 1.0000 -0.0000
vn -0.0000 -0.0000 -1.0000
vn 1.0000 -0.0000 -0.0000
vn -1.0000 -0.0000 -0.0000
vt 0.000031 0.000000
vt 0.375000 0.000000
vt 0.375000 0.500000
vt 0.000031 0.500000
vt 0.750000 0.000000
vt 0.750000 0.500000
vt 1.000000 0.562500
vt 0.750000 0.562500
vt 0.750000 0.312500
vt 1.000000 0.312500
vt 0.750000 0.999969
vt 0.500000 0.999969
vt 0.500000 0.562500
vt 0.500000 0.625000
vt 0.125000 0.999969
vt 0.125000 0.625000
vt 1.000000 0.999969
vt 0.687500 0.562500
vt 0.437500 0.562500
vt 0.312500 0.562500
vt 0.062500 0.562500
s 1
usemtl MI_China_Glass
f 18/1/5 20/2/5 19/3/5 17/4/5
f 12/3/3 9/2/3 10/5/3 11/6/3
f 24/4/6 22/1/6 23/2/6 21/3/6
f 4/5/1 1/6/1 2/3/1 3/2/1
f 8/7/2 6/8/2 7/9/2 5/10/2
f 40/11/5 38/12/5 39/13/5 37/8/5
f 16/14/4 13/12/4 14/15/4 15/16/4
f 28/7/3 27/17/3 25/11/3 26/8/3
f 30/8/6 32/7/6 31/17/6 29/11/6
f 43/18/2 41/3/2 42/6/2
f 44/19/2 41/3/2 43/18/2
f 46/20/2 42/4/2 45/3/2
f 43/21/2 42/4/2 46/20/2
f 48/18/2 45/3/2 47/6/2
f 46/19/2 45/3/2 48/18/2
f 44/20/2 47/4/2 41/3/2
f 48/21/2 47/4/2 44/20/2
f 36/8/1 35/11/1 33/12/1 34/13/1
