# Blender 5.0.1
# www.blender.org
mtllib BP_China_TeacupSmall.mtl
o SM_China_TeacupSmall.001
v 0.000000 -31.250002 31.249998
v 0.000000 -31.250000 6.249998
v 0.000000 -18.750000 6.249998
v 0.000000 -18.750002 31.250000
v 18.750000 -18.750000 31.250000
v 18.750000 18.749998 31.250000
v 12.499999 12.499998 31.250000
v 12.499999 -12.500000 31.250000
v -18.749998 -18.750000 31.250000
v -12.499999 12.499998 31.250000
v -18.749998 18.749998 31.250000
v -12.499999 -12.500000 31.250000
v 6.250000 18.749998 31.250000
v 6.250000 12.499998 31.250000
v -6.250000 18.749996 31.250000
v -6.250000 12.499994 31.250000
v -12.499999 12.499998 31.250000
v -12.499999 -12.500000 31.250000
v -12.499999 -12.500000 25.000000
v -12.499999 12.499998 25.000000
v -12.499998 -12.499999 18.750000
v -12.499998 12.499997 18.750000
v -12.499998 -12.499999 12.499999
v -12.499998 12.499997 12.500001
v -12.499999 12.499999 6.250000
v -12.499999 -12.499999 6.250000
v -18.749998 -18.749998 12.499998
v -18.749998 18.750000 0.000002
v -18.749998 -18.749998 0.000000
v -18.749998 18.750000 12.500000
v -18.749998 -18.749998 18.750000
v -18.749998 18.750000 18.750000
v -18.749998 -18.750000 25.000000
v -18.749998 18.749998 25.000000
v -18.749998 -18.750000 31.250000
v -18.749998 18.749998 31.250000
v -6.250000 -18.750000 31.250000
v -6.250000 -12.500002 31.250000
v 6.250000 -18.750000 31.250000
v 6.250000 -12.500000 31.250000
v 12.499999 12.499998 25.000000
v 12.499999 -12.500000 31.250000
v 12.499999 12.499998 31.250000
v 12.499999 -12.500000 25.000000
v 12.499998 12.499997 18.750000
v 12.499998 -12.499999 18.750000
v 12.499998 12.499997 12.500001
v 12.499998 -12.499999 12.499999
v 12.499999 -12.499999 6.250000
v 12.499999 12.499999 6.250000
v 18.750000 18.750000 12.500000
v 18.750000 -18.749998 0.000000
v 18.750000 18.750000 0.000002
v 18.750000 -18.749998 12.499998
v 18.750000 18.750000 18.750000
v 18.750000 -18.749998 18.750000
v 18.750000 18.749998 25.000000
v 18.750000 -18.750000 25.000000
v 18.750000 -18.750000 31.250000
v 18.750000 18.749998 31.250000
v 6.250000 12.499999 6.250000
v 12.499999 -12.499999 6.250000
v 12.499999 12.499999 6.250000
v 6.250000 -12.499999 6.250000
v -6.250000 12.499995 6.250000
v -6.250000 -12.500001 6.250000
v -12.499999 -12.499999 6.250000
v -12.499999 12.499999 6.250000
v -18.749998 -18.749998 0.000000
v -18.749998 18.750000 0.000002
v -6.250000 18.749998 0.000002
v -6.250000 -18.749998 0.000000
v 6.250000 -18.749998 0.000000
v 6.250000 18.750000 0.000002
v 18.750000 18.750000 0.000002
v 18.750000 -18.749998 0.000000
v -6.250000 18.749996 31.250000
v -18.749998 18.749998 25.000000
v -18.749998 18.749998 31.250000
v -6.250000 18.749996 25.000000
v -18.749998 18.750000 18.750000
v 6.250000 18.749998 31.250000
v -6.250000 18.749998 18.750000
v -18.749998 18.750000 12.500000
v 6.250000 18.749998 25.000000
v 18.750000 18.749998 25.000000
v 18.750000 18.749998 31.250000
v 18.750000 18.750000 18.750000
v 6.250000 18.750000 18.750000
v 18.750000 18.750000 12.500000
v -6.250000 18.749998 12.500000
v -18.749998 18.750000 0.000002
v -6.250000 18.749998 0.000002
v 6.250000 18.750000 12.500000
v 18.750000 18.750000 0.000002
v 6.250000 18.750000 0.000002
v -6.250000 -18.749998 0.000000
v -18.749998 -18.749998 12.499998
v -18.749998 -18.749998 0.000000
v -6.250000 -18.749998 12.499998
v -18.749998 -18.749998 18.750000
v 6.250000 -18.749998 0.000000
v 18.750000 -18.749998 12.499998
v 18.750000 -18.749998 0.000000
v 6.250000 -18.749998 12.499998
v 18.750000 -18.749998 18.750000
v -6.250000 -18.749998 18.750000
v -18.749998 -18.750000 25.000000
v 6.250000 -18.749998 18.750000
v 18.750000 -18.750000 25.000000
v -6.250000 -18.750000 25.000000
v -18.749998 -18.750000 31.250000
v -6.250000 -18.750000 31.250000
v 6.250000 -18.750000 31.250000
v 6.250000 -18.750000 25.000000
v 18.750000 -18.750000 31.250000
v 12.499999 12.499998 31.250000
v 6.250000 12.499998 31.250000
v 12.499999 12.499998 25.000000
v 6.250000 12.499997 25.000000
v 12.499998 12.499997 18.750000
v -6.250000 12.499994 31.250000
v 6.250000 12.499997 18.750000
v 12.499998 12.499997 12.500001
v -6.250000 12.499994 25.000000
v -12.499999 12.499998 31.250000
v -12.499999 12.499998 25.000000
v -12.499998 12.499997 18.750000
v -6.250000 12.499994 18.750000
v -12.499998 12.499997 12.500001
v 6.250000 12.499997 12.500001
v -6.250000 12.499994 12.500001
v -6.250000 12.499995 6.250000
v -12.499999 12.499999 6.250000
v 6.250000 12.499999 6.250000
v 12.499999 12.499999 6.250000
v 12.499999 -12.499999 6.250000
v 6.250000 -12.499999 6.250000
v 12.499998 -12.499999 12.499999
v 6.250000 -12.499999 12.499999
v -6.250000 -12.500001 6.250000
v 12.499998 -12.499999 18.750000
v -12.499999 -12.499999 6.250000
v -12.499998 -12.499999 12.499999
v -6.250000 -12.500000 12.499999
v -12.499998 -12.499999 18.750000
v 6.250000 -12.499999 18.750000
v -6.250000 -12.500000 18.750000
v 6.250000 -12.499999 25.000000
v 12.499999 -12.500000 25.000000
v 12.499999 -12.500000 31.250000
v 6.250000 -12.500000 31.250000
v -6.250000 -12.500002 25.000000
v -12.499999 -12.500000 25.000000
v -6.250000 -12.500002 31.250000
v -12.499999 -12.500000 31.250000
vn 1.0000 -0.0000 -0.0000
vn -0.0000 -0.0000 1.0000
vn -1.0000 -0.0000 -0.0000
vn -0.0000 -0.0000 -1.0000
vn -0.0000 1.0000 -0.0000
vn -0.0000 -1.0000 -0.0000
vt 0.625000 0.750000
vt 0.625000 0.625000
vt 1.000000 0.625000
vt 1.000000 0.750000
vt 0.937500 0.999969
vt 0.625000 0.937500
vt 1.000000 0.937500
vt 0.687500 0.999969
vt 0.375000 0.937500
vt 0.312500 0.999969
vt 0.250000 0.937500
vt 0.375000 0.999969
vt 0.000031 0.437500
vt 0.000031 0.312500
vt 0.250000 0.312500
vt 0.250000 0.437500
vt 0.500000 0.999969
vt 0.500000 0.937500
vt 0.562500 0.999969
vt 0.062500 0.187500
vt 0.062500 0.125000
vt 0.187500 0.125000
vt 0.187500 0.187500
vt 0.500000 0.250000
vt 0.250000 0.250000
vt 0.250000 0.187500
vt 0.500000 0.187500
vt 0.500000 0.750000
vt 0.375000 0.750000
vt 0.375000 0.625000
vt 0.500000 0.625000
vt 0.250000 0.125000
vt 0.250000 0.062500
vt 0.500000 0.062500
vt 0.500000 0.125000
vt 0.625000 0.875000
vt 1.000000 0.875000
vt 0.375000 0.812500
vt 0.250000 0.812500
vt 0.250000 0.750000
vt 0.375000 0.875000
vt 0.250000 0.875000
vt 0.750000 0.625000
vt 0.750000 0.375000
vt 0.625000 0.375000
vt 0.000031 0.250000
vt 0.000031 0.187500
vt 0.062500 0.250000
vt 0.375000 0.250000
vt 0.500000 0.812500
vt 0.250000 0.625000
vt 0.625000 0.812500
vt 1.000000 0.812500
vt 0.500000 0.875000
vt 0.250000 0.500000
vt 0.000031 0.500000
vt 0.187500 0.250000
vt 0.187500 0.062500
vt 0.062500 0.062500
vt 0.625000 0.250000
vt 0.250000 0.000000
vt 0.500000 0.000000
vt 0.187500 0.000000
vt 0.000031 0.062500
vt 0.000031 0.125000
vt 0.062500 0.000000
vt 0.000031 0.000000
s 1
usemtl MI_China_TeacupSmall
f 54/1/1 52/2/1 53/3/1 51/4/1
f 7/5/2 5/6/2 6/7/2
f 8/8/2 5/6/2 7/5/2
f 11/6/2 9/7/2 10/8/2
f 12/5/2 10/8/2 9/7/2
f 13/9/2 7/10/2 6/11/2
f 13/9/2 14/12/2 7/10/2
f 66/13/2 64/14/2 61/15/2 65/16/2
f 16/17/2 15/18/2 10/19/2
f 11/6/2 10/19/2 15/18/2
f 145/20/5 148/21/5 147/22/5 140/23/5
f 50/24/3 49/25/3 48/26/3 47/27/3
f 105/28/6 100/29/6 97/30/6 102/31/6
f 46/32/3 44/33/3 41/34/3 45/35/3
f 60/7/1 59/6/1 58/36/1 57/37/1
f 107/38/6 101/39/6 98/40/6 100/29/6
f 88/39/5 89/38/5 85/41/5 86/42/5
f 4/2/1 1/43/1 2/44/1 3/45/1
f 12/10/2 9/11/2 37/9/2
f 38/12/2 12/10/2 37/9/2
f 136/46/6 124/47/6 131/20/6 135/48/6
f 40/17/2 39/18/2 8/19/2
f 5/6/2 8/19/2 39/18/2
f 93/31/5 92/2/5 84/1/5 91/28/5
f 74/24/4 73/31/4 72/30/4 71/49/4
f 94/29/5 91/28/5 83/50/5 89/38/5
f 23/27/1 26/24/1 25/25/1 24/26/1
f 113/9/6 112/11/6 108/42/6 111/41/6
f 95/51/5 96/30/5 94/29/5 90/40/5
f 32/52/3 30/1/3 27/4/3 31/53/3
f 140/23/5 147/22/5 142/32/5 139/26/5
f 115/54/6 114/18/6 113/9/6 111/41/6
f 68/55/2 67/56/2 66/13/2 65/16/2
f 40/17/2 38/12/2 37/9/2 39/18/2
f 132/23/6 130/26/6 134/25/6 133/57/6
f 116/6/6 114/18/6 115/54/6 110/36/6
f 91/28/5 84/1/5 81/52/5 83/50/5
f 125/58/6 129/22/6 123/21/6 120/59/6
f 138/57/5 140/23/5 139/26/5 137/25/5
f 85/41/5 80/54/5 77/18/5 82/9/5
f 75/60/4 76/2/4 73/31/4 74/24/4
f 30/1/3 28/2/3 29/3/3 27/4/3
f 86/42/5 85/41/5 82/9/5 87/11/5
f 36/6/3 34/36/3 33/37/3 35/7/3
f 110/36/6 115/54/6 109/50/6 106/52/6
f 48/26/3 46/32/3 45/35/3 47/27/3
f 94/29/5 89/38/5 88/39/5 90/40/5
f 34/36/3 32/52/3 31/53/3 33/37/3
f 109/50/6 107/38/6 100/29/6 105/28/6
f 100/29/6 98/40/6 99/51/6 97/30/6
f 106/52/6 109/50/6 105/28/6 103/1/6
f 111/41/6 108/42/6 101/39/6 107/38/6
f 58/36/1 56/52/1 55/53/1 57/37/1
f 132/23/6 129/22/6 128/32/6 130/26/6
f 103/1/6 105/28/6 102/31/6 104/2/6
f 23/27/1 24/26/1 22/32/1 21/35/1
f 56/52/1 54/1/1 51/4/1 55/53/1
f 44/33/3 42/61/3 43/62/3 41/34/3
f 125/58/6 122/63/6 126/61/6 127/33/6
f 64/14/2 62/46/2 63/25/2 61/15/2
f 21/35/1 22/32/1 20/33/1 19/34/1
f 150/33/5 142/32/5 147/22/5 149/58/5
f 141/48/5 145/20/5 140/23/5 138/57/5
f 89/38/5 83/50/5 80/54/5 85/41/5
f 80/54/5 78/36/5 79/6/5 77/18/5
f 83/50/5 81/52/5 78/36/5 80/54/5
f 154/64/5 153/59/5 148/21/5 146/65/5
f 123/21/6 131/20/6 124/47/6 121/65/6
f 115/54/6 111/41/6 107/38/6 109/50/6
f 129/22/6 125/58/6 127/33/6 128/32/6
f 149/58/5 152/63/5 151/61/5 150/33/5
f 153/59/5 155/66/5 152/63/5 149/58/5
f 71/49/4 72/30/4 69/51/4 70/25/4
f 131/20/6 132/23/6 133/57/6 135/48/6
f 96/30/5 93/31/5 91/28/5 94/29/5
f 120/59/6 123/21/6 121/65/6 119/64/6
f 129/22/6 132/23/6 131/20/6 123/21/6
f 148/21/5 145/20/5 144/47/5 146/65/5
f 148/21/5 153/59/5 149/58/5 147/22/5
f 15/18/2 16/17/2 14/12/2 13/9/2
f 118/66/6 120/59/6 119/64/6 117/67/6
f 145/20/5 141/48/5 143/46/5 144/47/5
f 122/63/6 125/58/6 120/59/6 118/66/6
f 19/34/1 20/33/1 17/61/1 18/62/1
f 155/66/5 153/59/5 154/64/5 156/67/5
