# Blender 5.0.1
# www.blender.org
mtllib BP_China_PlateServing.mtl
o SM_China_PlateServing.001
v 37.500000 -50.000004 12.499998
v -37.500000 -50.000008 12.499998
v -37.500000 -50.000008 6.249998
v 37.500000 -50.000004 6.249998
v -31.250000 -43.750004 12.499998
v 31.250002 -43.750004 12.499998
v 25.000002 -37.500000 6.264225
v -25.000002 -37.499992 6.264225
v -37.500000 50.000008 12.500002
v 37.500000 50.000004 12.500002
v -37.500000 50.000008 6.250002
v 37.500000 50.000004 6.250002
v -31.250000 43.750004 6.250002
v 31.250002 43.750004 6.250002
v -24.999998 37.500004 0.000002
v 25.000002 37.500008 0.000002
v 37.500000 -50.000004 6.249998
v 37.500000 50.000004 12.500002
v 37.500000 -50.000004 12.499998
v 37.500000 50.000004 6.250002
v -37.500000 50.000008 6.250002
v -37.500000 -50.000008 6.249998
v -37.500000 -50.000008 12.499998
v -37.500000 50.000008 12.500002
v -24.999998 37.500004 0.000002
v 25.000002 -37.500008 -0.000002
v -24.999998 -37.500004 -0.000002
v 25.000002 37.500008 0.000002
v -25.000002 -37.499992 6.264225
v 25.000002 -37.500000 6.264225
v 25.000002 37.500000 6.235775
v -25.000002 37.499992 6.235775
v 25.000002 37.500000 6.235775
v -31.250000 43.750004 12.500002
v -25.000002 37.499992 6.235775
v 31.250002 43.750000 12.500002
v 31.250002 -43.750004 12.499998
v 31.250002 43.750000 12.500002
v 25.000002 -37.500000 6.264225
v 25.000002 37.500000 6.235775
v -25.000002 -37.499992 6.264225
v -31.250000 43.750004 12.500002
v -31.250000 -43.750004 12.499998
v -25.000002 37.499992 6.235775
v -31.250000 -43.750004 6.249998
v -31.250000 43.750004 6.250002
v -24.999998 -37.500004 -0.000002
v -24.999998 37.500004 0.000002
v 31.250002 -43.750004 6.249998
v -31.250000 -43.750004 6.249998
v -24.999998 -37.500004 -0.000002
v 25.000002 -37.500008 -0.000002
v 25.000002 -37.500008 -0.000002
v 31.250002 43.750004 6.250002
v 31.250002 -43.750004 6.249998
v 25.000002 37.500008 0.000002
v -37.500000 -50.000008 12.499998
v 37.500000 -50.000004 12.499998
v 31.250002 -43.750004 12.499998
v -31.250000 -43.750004 12.499998
v -31.250000 43.750004 12.500002
v 31.250002 43.750000 12.500002
v 37.500000 50.000004 12.500002
v -37.500000 50.000008 12.500002
v 37.500000 50.000004 6.250002
v 37.500000 -50.000004 6.249998
v 31.250002 -43.750004 6.249998
v -37.500000 -50.000008 6.249998
v 31.250002 43.750004 6.250002
v -31.250000 -43.750004 6.249998
v -37.500000 50.000008 6.250002
v -31.250000 43.750004 6.250002
vn -0.0000 -1.0000 -0.0000
vn -0.0000 0.7063 0.7079
vn -0.0000 1.0000 -0.0000
vn -0.0000 0.7071 -0.7071
vn 1.0000 -0.0000 -0.0000
vn -1.0000 -0.0000 -0.0000
vn -0.0000 -0.0000 -1.0000
vn -0.0000 0.0004 1.0000
vn -0.0000 -0.7079 0.7063
vn -0.7063 -0.0000 0.7079
vn -0.7078 0.0002 0.7064
vn -0.7064 -0.0000 0.7078
vn -0.7080 0.0003 0.7062
vn 0.7064 -0.0000 0.7078
vn 0.7078 0.0002 0.7064
vn 0.7063 -0.0000 0.7079
vn 0.7080 0.0003 0.7062
vn -0.7071 -0.0000 -0.7071
vn -0.0000 -0.7071 -0.7071
vn 0.7071 -0.0000 -0.7071
vn -0.0000 -0.0000 1.0000
vt 0.000031 0.062500
vt 0.000031 0.000000
vt 0.750000 0.000000
vt 0.750000 0.062500
vt 0.625000 0.187500
vt 0.062500 0.125000
vt 0.687500 0.125000
vt 0.125000 0.187500
vt 0.093750 0.843750
vt 0.093750 0.968750
vt 0.031250 0.968750
vt 0.031250 0.843750
vt 0.000031 0.812500
vt 0.125000 0.812500
vt 0.937500 0.999969
vt 0.875000 0.999969
vt 0.875000 0.000000
vt 0.937500 0.000000
vt 0.125000 0.937500
vt 0.625000 0.937500
vt 0.750000 0.125000
vt 0.812500 0.062500
vt 0.812500 0.937500
vt 0.750000 0.875000
vt 0.000031 0.999969
vt 0.125000 0.999969
s 1
usemtl MI_China_PlateServing
f 10/1/3 12/2/3 11/3/3 9/4/3
f 7/5/2 5/6/2 6/7/2
f 8/8/2 5/6/2 7/5/2
f 28/9/7 26/10/7 27/11/7 25/12/7
f 15/12/4 13/13/4 14/14/4
f 16/9/4 15/12/4 14/14/4
f 4/3/1 1/4/1 2/1/1 3/2/1
f 20/15/5 18/16/5 19/17/5 17/18/5
f 32/19/8 29/8/8 30/5/8 31/20/8
f 35/5/9 33/8/9 34/7/9
f 33/8/9 36/6/9 34/7/9
f 39/21/12 37/22/10 38/23/11
f 40/24/13 39/21/12 38/23/11
f 43/23/16 41/24/14 42/22/15
f 44/21/17 42/22/15 41/24/14
f 47/11/18 45/25/18 46/13/18
f 48/12/18 47/11/18 46/13/18
f 51/11/19 49/26/19 50/25/19
f 52/10/19 49/26/19 51/11/19
f 55/26/20 53/10/20 54/14/20
f 56/9/20 54/14/20 53/10/20
f 59/7/21 57/1/21 58/4/21
f 60/6/21 57/1/21 59/7/21
f 63/1/21 61/7/21 62/6/21
f 64/4/21 61/7/21 63/1/21
f 59/22/21 58/17/21 62/23/21
f 62/23/21 58/17/21 63/16/21
f 60/23/21 64/17/21 57/16/21
f 61/22/21 64/17/21 60/23/21
f 67/26/7 65/14/7 66/26/7
f 66/26/7 68/25/7 67/26/7
f 69/14/7 65/14/7 67/26/7
f 70/25/7 67/26/7 68/25/7
f 65/14/7 69/14/7 71/13/7
f 70/25/7 68/25/7 72/13/7
f 72/13/7 71/13/7 69/14/7
f 72/13/7 68/25/7 71/13/7
f 23/16/6 24/17/6 21/18/6 22/15/6
