# Blender 5.0.1
# www.blender.org
mtllib BP_ChainedRedstoneLanternLight.mtl
o ChainedRedstoneLantern_On.001
v 12.500000 0.000000 0.000000
v -12.500000 0.000000 0.000000
v -12.500000 -0.000000 -31.250000
v 12.500000 -0.000000 -31.250000
v 50.000000 -50.000000 -106.250000
v -50.000000 -50.000000 -106.250000
v -50.000000 -50.000000 -206.250000
v 50.000000 -50.000000 -206.250000
v 50.000000 -50.000000 -106.250000
v 50.000000 50.000000 -106.250000
v -50.000000 -50.000000 -106.250000
v -50.000000 50.000000 -106.250000
v 50.000000 50.000000 -206.250000
v -50.000000 50.000000 -206.250000
v -50.000000 50.000000 -106.250000
v 50.000000 50.000000 -106.250000
v 50.000000 -50.000000 -206.250000
v -50.000000 -50.000000 -206.250000
v -50.000000 50.000000 -206.250000
v 50.000000 50.000000 -206.250000
v 50.000000 -50.000000 -106.250000
v 50.000000 -50.000000 -206.250000
v 50.000000 50.000000 -106.250000
v 50.000000 50.000000 -206.250000
v -50.000000 -50.000000 -106.250000
v -50.000000 50.000000 -206.250000
v -50.000000 -50.000000 -206.250000
v -50.000000 50.000000 -106.250000
v 0.000000 -12.500000 -75.000000
v 0.000000 -12.500000 -106.250000
v 0.000000 12.500000 -75.000000
v 0.000000 12.500000 -106.250000
v 12.500000 -0.000000 -50.000000
v -12.500000 -0.000000 -50.000000
v -12.500000 -0.000000 -81.250000
v 12.500000 -0.000000 -81.250000
v 0.000000 -12.500000 -25.000000
v 0.000000 -12.500000 -56.250000
v 0.000000 12.500000 -25.000000
v 0.000000 12.500000 -56.250000
vn -0.0000 -1.0000 -0.0000
vn -0.0000 -0.0000 1.0000
vn -0.0000 1.0000 -0.0000
vn -0.0000 -0.0000 -1.0000
vn 1.0000 -0.0000 -0.0000
vn -1.0000 -0.0000 -0.0000
vt 0.500000 0.875000
vt 0.375000 0.875000
vt 0.375000 0.750000
vt 0.500000 0.750000
vt 0.968750 0.000000
vt 1.000000 0.000000
vt 1.000000 0.039062
vt 0.968750 0.039062
vt 0.500000 0.999969
vt 0.375000 0.999969
s 1
usemtl MI_BasaltDeltasProps
f 20/1/4 17/2/4 18/3/4 19/4/4
f 30/5/5 32/6/5 31/7/5 29/8/5
f 16/1/3 13/9/3 14/10/3 15/2/3
f 4/6/1 1/7/1 2/8/1 3/5/1
f 8/1/1 5/9/1 6/10/1 7/2/1
f 36/6/1 33/7/1 34/8/1 35/5/1
f 22/3/5 24/4/5 23/1/5 21/2/5
f 28/2/6 26/3/6 27/4/6 25/1/6
f 12/1/2 11/2/2 9/3/2 10/4/2
f 38/5/5 40/6/5 39/7/5 37/8/5
