# Blender 5.0.1
# www.blender.org
mtllib BP_CrystalPile.mtl
o M_Minecart_04.001
v 53.226562 201.380844 44.480003
v -46.773438 263.880859 44.480011
v 53.226562 263.880859 44.480011
v -46.773438 201.380844 44.480003
v -46.773438 201.380844 56.980003
v 53.226562 263.880859 56.980011
v -46.773438 263.880859 56.980011
v 53.226562 201.380844 56.980003
v 53.226562 201.380844 56.980003
v 53.226562 263.880859 44.480011
v 53.226562 263.880859 56.980011
v 53.226562 201.380844 44.480003
v 53.226562 263.880859 44.480011
v -46.773438 263.880859 56.980011
v 53.226562 263.880859 56.980011
v -46.773438 263.880859 44.480011
v -46.773438 201.380844 44.480003
v -46.773438 263.880859 56.980011
v -46.773438 263.880859 44.480011
v -46.773438 201.380844 56.980003
v 53.226562 201.380844 56.980003
v -46.773438 201.380844 44.480003
v 53.226562 201.380844 44.480003
v -46.773438 201.380844 56.980003
v 65.726562 201.380859 -43.019993
v 53.226562 263.880859 -43.019985
v 65.726562 263.880859 -43.019985
v 53.226562 201.380859 -43.019993
v 65.726562 263.880859 56.979996
v 53.226562 263.880859 56.979996
v 65.726562 201.380844 56.980003
v 65.726562 201.380844 56.980003
v 65.726562 263.880859 -43.019985
v 65.726562 263.880859 56.979996
v 65.726562 201.380859 -43.019993
v 65.726562 263.880859 -43.019985
v 53.226562 263.880859 56.979996
v 65.726562 263.880859 56.979996
v 53.226562 263.880859 -43.019985
v 53.226562 201.380859 -43.019993
v 53.226562 263.880859 56.979996
v 53.226562 263.880859 -43.019985
v 53.226562 201.380844 56.980003
v 65.726562 201.380844 56.980003
v 53.226562 201.380859 -43.019993
v 65.726562 201.380859 -43.019993
v -46.773438 201.380859 -43.019993
v -59.273438 263.880859 -43.019985
v -46.773438 263.880859 -43.019985
v -59.273438 201.380859 -43.019993
v -59.273438 201.380844 56.980003
v -46.773438 263.880859 56.979996
v -59.273438 263.880859 56.979996
v -46.773438 201.380844 56.980003
v -46.773438 263.880859 -43.019985
v -46.773438 263.880859 56.979996
v -46.773438 201.380859 -43.019993
v -46.773438 263.880859 -43.019985
v -59.273438 263.880859 56.979996
v -46.773438 263.880859 56.979996
v -59.273438 263.880859 -43.019985
v -59.273438 201.380859 -43.019993
v -59.273438 263.880859 56.979996
v -59.273438 263.880859 -43.019985
v -59.273438 201.380844 56.980003
v -59.273438 201.380859 -43.019993
v -46.773438 201.380859 -43.019993
v -59.273438 201.380844 56.980003
v 53.226562 201.380859 -43.019989
v -46.773438 263.880859 -43.019981
v 53.226562 263.880859 -43.019981
v -46.773438 201.380859 -43.019989
v -46.773438 201.380859 -30.519987
v 53.226562 263.880859 -30.519987
v -46.773438 263.880859 -30.519987
v 53.226562 201.380859 -30.519987
v 53.226562 201.380859 -30.519987
v 53.226562 263.880859 -43.019981
v 53.226562 263.880859 -30.519987
v 53.226562 201.380859 -43.019989
v 53.226562 263.880859 -43.019981
v -46.773438 263.880859 -30.519987
v 53.226562 263.880859 -30.519987
v -46.773438 263.880859 -43.019981
v -46.773438 201.380859 -43.019989
v -46.773438 263.880859 -30.519987
v -46.773438 263.880859 -43.019981
v -46.773438 201.380859 -30.519987
v 53.226562 201.380859 -30.519987
v -46.773438 201.380859 -43.019989
v 53.226562 201.380859 -43.019989
v -46.773438 201.380859 -30.519987
v 53.226562 251.380859 -30.519989
v -46.773438 263.880859 -30.519987
v 53.226562 263.880859 -30.519987
v -46.773438 251.380859 -30.519989
v -46.773438 251.380844 44.480011
v 53.226562 263.880859 44.480011
v -46.773438 263.880859 44.480011
v 53.226562 251.380844 44.480011
v 53.226562 251.380844 44.480011
v 53.226562 251.380859 -30.519989
v -46.773438 251.380859 -30.519989
v -46.773438 251.380844 44.480011
v 53.226562 251.380844 44.480011
v -46.773438 251.380859 -30.519989
v 53.226562 251.380859 -30.519989
v -46.773438 251.380844 44.480011
v 47.791401 185.615753 -8.515591
v 16.541403 185.615768 -39.765587
v 47.791401 185.615768 -39.765587
v 16.541403 185.615753 -8.515591
v 16.541403 216.865768 -8.515583
v 47.791401 216.865768 -39.765579
v 16.541403 216.865768 -39.765579
v 47.791401 216.865768 -8.515583
v 47.791401 216.865768 -8.515583
v 47.791401 185.615768 -39.765587
v 47.791401 216.865768 -39.765579
v 47.791401 185.615753 -8.515591
v 47.791401 185.615768 -39.765587
v 16.541403 216.865768 -39.765579
v 47.791401 216.865768 -39.765579
v 16.541403 185.615768 -39.765587
v 16.541403 185.615753 -8.515591
v 16.541403 216.865768 -39.765579
v 16.541403 185.615768 -39.765587
v 16.541403 216.865768 -8.515583
v 47.791401 216.865768 -8.515583
v 16.541403 185.615753 -8.515591
v 47.791401 185.615753 -8.515591
v 16.541403 216.865768 -8.515583
v 41.541401 223.115753 10.234413
v 10.291406 223.115768 -21.015583
v 41.541401 223.115768 -21.015583
v 10.291406 223.115753 10.234413
v 10.291406 254.365753 10.234417
v 41.541401 254.365768 -21.015579
v 10.291406 254.365768 -21.015579
v 41.541401 254.365753 10.234417
v 41.541401 254.365753 10.234417
v 41.541401 223.115768 -21.015583
v 41.541401 254.365768 -21.015579
v 41.541401 223.115753 10.234413
v 41.541401 223.115768 -21.015583
v 10.291406 254.365768 -21.015579
v 41.541401 254.365768 -21.015579
v 10.291406 223.115768 -21.015583
v 10.291406 223.115753 10.234413
v 10.291406 254.365768 -21.015579
v 10.291406 223.115768 -21.015583
v 10.291406 254.365753 10.234417
v 41.541401 254.365753 10.234417
v 10.291406 223.115753 10.234413
v 41.541401 223.115753 10.234413
v 10.291406 254.365753 10.234417
v -20.958597 179.365753 -8.515591
v -52.208599 179.365768 -39.765587
v -20.958597 179.365768 -39.765587
v -52.208599 179.365753 -8.515591
v -52.208599 210.615768 -8.515587
v -20.958597 210.615768 -39.765583
v -52.208599 210.615768 -39.765583
v -20.958597 210.615768 -8.515587
v -20.958597 210.615768 -8.515587
v -20.958597 179.365768 -39.765587
v -20.958597 210.615768 -39.765583
v -20.958597 179.365753 -8.515591
v -20.958597 179.365768 -39.765587
v -52.208599 210.615768 -39.765583
v -20.958597 210.615768 -39.765583
v -52.208599 179.365768 -39.765587
v -52.208599 179.365753 -8.515591
v -52.208599 210.615768 -39.765583
v -52.208599 179.365768 -39.765587
v -52.208599 210.615768 -8.515587
v -20.958597 210.615768 -8.515587
v -52.208599 179.365753 -8.515591
v -20.958597 179.365753 -8.515591
v -52.208599 210.615768 -8.515587
v 47.791401 110.615784 -8.515602
v 16.541403 110.615784 -39.765598
v 47.791401 110.615784 -39.765598
v 16.541403 110.615784 -8.515602
v 16.541403 141.865784 -8.515598
v 47.791401 141.865784 -39.765594
v 16.541403 141.865784 -39.765594
v 47.791401 141.865784 -8.515598
v 47.791401 141.865784 -8.515598
v 47.791401 110.615784 -39.765598
v 47.791401 141.865784 -39.765594
v 47.791401 110.615784 -8.515602
v 47.791401 110.615784 -39.765598
v 16.541403 141.865784 -39.765594
v 47.791401 141.865784 -39.765594
v 16.541403 110.615784 -39.765598
v 16.541403 110.615784 -8.515602
v 16.541403 141.865784 -39.765594
v 16.541403 110.615784 -39.765598
v 16.541403 141.865784 -8.515598
v 47.791401 141.865784 -8.515598
v 16.541403 110.615784 -8.515602
v 47.791401 110.615784 -8.515602
v 16.541403 141.865784 -8.515598
v 4.041406 148.115784 -8.515594
v -27.208597 148.115784 -39.765591
v 4.041406 148.115784 -39.765591
v -27.208597 148.115784 -8.515594
v -27.208597 179.365753 -8.515591
v 4.041406 179.365768 -39.765587
v -27.208597 179.365768 -39.765587
v 4.041406 179.365753 -8.515591
v 4.041406 179.365753 -8.515591
v 4.041406 148.115784 -39.765591
v 4.041406 179.365768 -39.765587
v 4.041406 148.115784 -8.515594
v 4.041406 148.115784 -39.765591
v -27.208597 179.365768 -39.765587
v 4.041406 179.365768 -39.765587
v -27.208597 148.115784 -39.765591
v -27.208597 148.115784 -8.515594
v -27.208597 179.365768 -39.765587
v -27.208597 148.115784 -39.765591
v -27.208597 179.365753 -8.515591
v 4.041406 179.365753 -8.515591
v -27.208597 148.115784 -8.515594
v 4.041406 148.115784 -8.515594
v -27.208597 179.365753 -8.515591
v -8.458597 204.365753 16.484409
v -39.708599 204.365768 -14.765587
v -8.458597 204.365768 -14.765587
v -39.708599 204.365753 16.484409
v -39.708599 235.615753 16.484413
v -8.458597 235.615768 -14.765581
v -39.708599 235.615768 -14.765581
v -8.458597 235.615753 16.484413
v -8.458597 235.615753 16.484413
v -8.458597 204.365768 -14.765587
v -8.458597 235.615768 -14.765581
v -8.458597 204.365753 16.484409
v -8.458597 204.365768 -14.765587
v -39.708599 235.615768 -14.765581
v -8.458597 235.615768 -14.765581
v -39.708599 204.365768 -14.765587
v -39.708599 204.365753 16.484409
v -39.708599 235.615768 -14.765581
v -39.708599 204.365768 -14.765587
v -39.708599 235.615753 16.484413
v -8.458597 235.615753 16.484413
v -39.708599 204.365753 16.484409
v -8.458597 204.365753 16.484409
v -39.708599 235.615753 16.484413
v 16.541403 166.865753 22.734406
v -14.708597 166.865753 -8.515594
v 16.541403 166.865753 -8.515594
v -14.708597 166.865753 22.734406
v -14.708597 198.115753 22.734413
v 16.541403 198.115768 -8.515587
v -14.708597 198.115768 -8.515587
v 16.541403 198.115753 22.734413
v 16.541403 198.115753 22.734413
v 16.541403 166.865753 -8.515594
v 16.541403 198.115768 -8.515587
v 16.541403 166.865753 22.734406
v 16.541403 166.865753 -8.515594
v -14.708597 198.115768 -8.515587
v 16.541403 198.115768 -8.515587
v -14.708597 166.865753 -8.515594
v -14.708597 166.865753 22.734406
v -14.708597 198.115768 -8.515587
v -14.708597 166.865753 -8.515594
v -14.708597 198.115753 22.734413
v 16.541403 198.115753 22.734413
v -14.708597 166.865753 22.734406
v 16.541403 166.865753 22.734406
v -14.708597 198.115753 22.734413
v 10.291406 85.615784 -8.515606
v -20.958597 85.615791 -39.765602
v 10.291406 85.615791 -39.765602
v -20.958597 85.615784 -8.515606
v -20.958597 116.865784 -8.515602
v 10.291406 116.865784 -39.765598
v -20.958597 116.865784 -39.765598
v 10.291406 116.865784 -8.515602
v 10.291406 116.865784 -8.515602
v 10.291406 85.615791 -39.765602
v 10.291406 116.865784 -39.765598
v 10.291406 85.615784 -8.515606
v 10.291406 85.615791 -39.765602
v -20.958597 116.865784 -39.765598
v 10.291406 116.865784 -39.765598
v -20.958597 85.615791 -39.765602
v -20.958597 85.615784 -8.515606
v -20.958597 116.865784 -39.765598
v -20.958597 85.615791 -39.765602
v -20.958597 116.865784 -8.515602
v 10.291406 116.865784 -8.515602
v -20.958597 85.615784 -8.515606
v 10.291406 85.615784 -8.515606
v -20.958597 116.865784 -8.515602
v 16.541403 191.865753 -8.515591
v -14.708597 191.865768 -39.765583
v 16.541403 191.865768 -39.765583
v -14.708597 191.865753 -8.515591
v -14.708597 223.115768 -8.515583
v 16.541403 223.115768 -39.765579
v -14.708597 223.115768 -39.765579
v 16.541403 223.115768 -8.515583
v 16.541403 223.115768 -8.515583
v 16.541403 191.865768 -39.765583
v 16.541403 223.115768 -39.765579
v 16.541403 191.865753 -8.515591
v 16.541403 191.865768 -39.765583
v -14.708597 223.115768 -39.765579
v 16.541403 223.115768 -39.765579
v -14.708597 191.865768 -39.765583
v -14.708597 191.865753 -8.515591
v -14.708597 223.115768 -39.765579
v -14.708597 191.865768 -39.765583
v -14.708597 223.115768 -8.515583
v 16.541403 223.115768 -8.515583
v -14.708597 191.865753 -8.515591
v 16.541403 191.865753 -8.515591
v -14.708597 223.115768 -8.515583
vn -0.0000 -0.0000 -1.0000
vn -0.0000 -0.0000 1.0000
vn 1.0000 -0.0000 -0.0000
vn -0.0000 1.0000 -0.0000
vn -1.0000 -0.0000 -0.0000
vn -0.0000 -1.0000 -0.0000
vt 0.140625 0.375000
vt 0.101562 0.375000
vt 0.101562 0.296875
vt 0.140625 0.296875
vt 0.101562 0.218750
vt 0.140625 0.218750
vt 0.179688 0.296875
vt 0.179688 0.218750
vt 0.218750 0.296875
vt 0.218750 0.218750
vt 0.281250 0.593750
vt 0.156250 0.593750
vt 0.156250 0.406250
vt 0.281250 0.406250
vt 0.421875 0.968750
vt 0.296875 0.968750
vt 0.296875 0.812500
vt 0.421875 0.812500
vt 0.281250 0.968750
vt 0.281250 0.812500
vt 0.421875 0.656250
vt 0.406250 0.656250
vt 0.406250 0.812500
vt 0.500000 0.406250
vt 0.375000 0.406250
vt 0.375000 0.375000
vt 0.500000 0.375000
vt 0.156250 0.968750
vt 0.156250 0.812500
vt 0.437500 0.968750
vt 0.437500 0.812500
vt 0.421875 0.406250
vt 0.406250 0.406250
vt 0.546875 0.656250
vt 0.546875 0.812500
vt 0.179688 0.375000
vt 0.140625 0.968750
vt 0.140625 0.812500
vt 0.265625 0.656250
vt 0.140625 0.656250
vt 0.265625 0.812500
vt 0.421875 0.999969
vt 0.296875 0.999969
vt 0.125000 0.656250
vt 0.000031 0.656250
vt 0.000031 0.812500
vt 0.125000 0.812500
vt 0.140625 0.999969
vt 0.015625 0.999969
vt 0.015625 0.968750
vt 0.000031 0.968750
vt 0.015625 0.812500
vt 0.406250 0.593750
vt 0.140625 0.406250
vt 0.156250 0.656250
vt 0.062500 0.296875
vt 0.062500 0.218750
vt 0.281250 0.656250
vt 0.265625 0.999969
vt 0.265625 0.968750
vt 0.437500 0.406250
vt 0.437500 0.656250
vt 0.156250 0.375000
vt 0.281250 0.375000
vt 0.546875 0.999969
vt 0.546875 0.968750
vt 0.125000 0.406250
vt 0.062500 0.406250
vt 0.062500 0.375000
vt 0.562500 0.968750
vt 0.562500 0.812500
vt 0.562500 0.656250
s 1
usemtl material_0
f 201/1/2 204/2/2 202/3/2 203/4/2
f 153/1/2 156/2/2 154/3/2 155/4/2
f 277/4/6 280/3/6 278/5/6 279/6/6
f 237/7/3 240/4/3 238/6/3 239/8/3
f 185/9/4 188/7/4 186/8/4 187/10/4
f 105/11/6 108/12/6 106/13/6 107/14/6
f 69/15/1 72/16/1 70/17/1 71/18/1
f 261/7/3 264/4/3 262/6/3 263/8/3
f 85/16/5 88/19/5 86/20/5 87/17/5
f 47/21/1 50/22/1 48/23/1 49/18/1
f 97/24/2 100/25/2 98/26/2 99/27/2
f 5/19/2 8/28/2 6/29/2 7/20/2
f 117/7/3 120/4/3 118/6/3 119/8/3
f 77/30/3 80/15/3 78/18/3 79/31/3
f 24/32/6 68/33/6 66/22/6 67/21/6
f 54/34/3 57/21/3 55/18/3 56/35/3
f 169/36/1 172/1/1 170/4/1 171/7/1
f 9/28/3 12/37/3 10/38/3 11/29/3
f 109/4/6 112/3/6 110/5/6 111/6/6
f 32/39/3 35/40/3 33/38/3 34/41/3
f 89/42/6 92/43/6 90/16/6 91/15/6
f 40/44/5 43/45/5 41/46/5 42/47/5
f 21/48/6 24/49/6 22/50/6 23/37/6
f 157/4/6 160/3/6 158/5/6 159/6/6
f 17/50/5 20/51/5 18/46/5 19/52/5
f 83/53/4 82/11/4 16/14/4 13/33/4
f 1/37/1 4/50/1 2/52/1 3/38/1
f 189/7/3 192/4/3 190/6/3 191/8/3
f 36/13/4 39/54/4 37/40/4 38/55/4
f 257/9/4 260/7/4 258/8/4 259/10/4
f 217/36/1 220/1/1 218/4/1 219/7/1
f 293/3/5 296/56/5 294/57/5 295/5/5
f 125/3/5 128/56/5 126/57/5 127/5/5
f 8/58/2 31/39/2 29/41/2 30/20/2
f 253/4/6 256/3/6 254/5/6 255/6/6
f 13/59/4 16/48/4 14/37/4 15/60/4
f 141/7/3 144/4/3 142/6/3 143/8/3
f 297/1/2 300/2/2 298/3/2 299/4/2
f 281/9/4 284/7/4 282/8/4 283/10/4
f 305/9/4 308/7/4 306/8/4 307/10/4
f 58/61/4 61/32/4 59/21/4 60/62/4
f 149/3/5 152/56/5 150/57/5 151/5/5
f 233/9/4 236/7/4 234/8/4 235/10/4
f 25/40/1 28/44/1 26/47/1 27/38/1
f 137/9/4 140/7/4 138/8/4 139/10/4
f 93/14/1 96/13/1 94/63/1 95/64/1
f 161/9/4 164/7/4 162/8/4 163/10/4
f 173/3/5 176/56/5 174/57/5 175/5/5
f 81/65/4 84/42/4 82/15/4 83/66/4
f 181/4/6 184/3/6 182/5/6 183/6/6
f 177/1/2 180/2/2 178/3/2 179/4/2
f 229/4/6 232/3/6 230/5/6 231/6/6
f 44/54/6 21/67/6 45/44/6 46/40/6
f 103/13/5 104/68/5 19/69/5 86/63/5
f 193/36/1 196/1/1 194/4/1 195/7/1
f 205/4/6 208/3/6 206/5/6 207/6/6
f 101/25/3 102/14/3 79/64/3 10/26/3
f 213/7/3 216/4/3 214/6/3 215/8/3
f 209/9/4 212/7/4 210/8/4 211/10/4
f 62/22/5 65/58/5 63/20/5 64/23/5
f 197/3/5 200/56/5 198/57/5 199/5/5
f 113/9/4 116/7/4 114/8/4 115/10/4
f 249/1/2 252/2/2 250/3/2 251/4/2
f 73/70/2 76/30/2 74/31/2 75/71/2
f 289/36/1 292/1/1 290/4/1 291/7/1
f 241/36/1 244/1/1 242/4/1 243/7/1
f 133/4/6 136/3/6 134/5/6 135/6/6
f 51/72/2 5/34/2 52/35/2 53/71/2
f 129/1/2 132/2/2 130/3/2 131/4/2
f 285/7/3 288/4/3 286/6/3 287/8/3
f 265/36/1 268/1/1 266/4/1 267/7/1
f 121/36/1 124/1/1 122/4/1 123/7/1
f 273/1/2 276/2/2 274/3/2 275/4/2
f 313/36/1 316/1/1 314/4/1 315/7/1
f 221/3/5 224/56/5 222/57/5 223/5/5
f 245/3/5 248/56/5 246/57/5 247/5/5
f 145/36/1 148/1/1 146/4/1 147/7/1
f 269/3/5 272/56/5 270/57/5 271/5/5
f 301/4/6 304/3/6 302/5/6 303/6/6
f 225/1/2 228/2/2 226/3/2 227/4/2
f 309/7/3 312/4/3 310/6/3 311/8/3
f 165/7/3 168/4/3 166/6/3 167/8/3
f 317/3/5 320/56/5 318/57/5 319/5/5
f 321/1/2 324/2/2 322/3/2 323/4/2
