# Blender 5.0.1
# www.blender.org
mtllib BP_Crypt_Pillar_002.mtl
o SM_Crypt_Pillars002.001
v -100.000000 -0.000114 700.000061
v -100.000000 99.999886 700.000061
v -100.000000 -0.000098 600.000061
v -100.000000 99.999901 600.000061
v 0.000000 99.999901 600.000061
v -100.000000 99.999901 600.000061
v 0.000000 99.999886 700.000061
v -100.000000 99.999886 700.000061
v 0.000000 -0.000114 700.000061
v 0.000000 99.999886 700.000061
v -100.000000 -0.000114 700.000061
v -100.000000 99.999886 700.000061
v -100.000000 -100.000114 700.000061
v -100.000000 -100.000099 600.000061
v 0.000000 -100.000114 700.000061
v -100.000000 -100.000114 700.000061
v 0.000000 -100.000114 700.000061
v -100.000000 -100.000114 700.000061
v -100.000000 -100.000099 600.000061
v 0.000000 -100.000099 600.000061
v 100.000000 99.999901 600.000061
v 100.000000 99.999886 700.000061
v 100.000000 -0.000114 700.000061
v 100.000000 99.999886 700.000061
v 100.000000 -100.000114 700.000061
v 100.000000 -100.000114 700.000061
v 100.000000 -100.000099 600.000061
v 200.000000 99.999901 600.000061
v 200.000000 99.999886 700.000061
v 200.000000 -0.000114 700.000061
v 200.000000 -0.000098 600.000061
v 200.000000 99.999886 700.000061
v 200.000000 99.999901 600.000061
v 200.000000 -0.000114 700.000061
v 200.000000 99.999886 700.000061
v 200.000000 -100.000114 700.000061
v 200.000000 -100.000099 600.000061
v 200.000000 -100.000114 700.000061
v 200.000000 -100.000114 700.000061
v 200.000000 -100.000099 600.000061
v -100.000000 -0.000016 100.000046
v -100.000000 99.999985 100.000061
v -100.000000 -0.000000 0.000049
v -100.000000 100.000000 0.000065
v 0.000000 -0.000000 0.000049
v -100.000000 -0.000000 0.000049
v 0.000000 100.000000 0.000065
v -100.000000 100.000000 0.000065
v 0.000000 100.000000 0.000065
v -100.000000 100.000000 0.000065
v 0.000000 99.999985 100.000061
v -100.000000 99.999985 100.000061
v 0.000000 -0.000016 100.000046
v 0.000000 -0.000000 0.000049
v 0.000000 99.999985 100.000061
v 0.000000 100.000000 0.000065
v -100.000000 -0.000033 200.000046
v -100.000000 99.999969 200.000061
v 0.000000 99.999969 200.000061
v -100.000000 99.999969 200.000061
v 0.000000 -0.000033 200.000046
v 0.000000 99.999969 200.000061
v -100.000000 -0.000049 300.000061
v -100.000000 99.999954 300.000061
v 0.000000 99.999954 300.000061
v -100.000000 99.999954 300.000061
v 0.000000 -0.000049 300.000061
v 0.000000 99.999954 300.000061
v -100.000000 -0.000065 400.000061
v -100.000000 99.999931 400.000061
v 0.000000 99.999931 400.000061
v -100.000000 99.999931 400.000061
v 0.000000 -0.000065 400.000061
v 0.000000 99.999931 400.000061
v -100.000000 -0.000081 500.000061
v -100.000000 99.999916 500.000061
v 0.000000 99.999916 500.000061
v -100.000000 99.999916 500.000061
v 0.000000 -0.000081 500.000061
v 0.000000 99.999916 500.000061
v 0.000000 -0.000098 600.000061
v 0.000000 99.999901 600.000061
v -100.000000 -100.000015 100.000031
v -100.000000 -100.000000 0.000033
v 0.000000 -100.000000 0.000033
v -100.000000 -100.000000 0.000033
v 0.000000 -100.000015 100.000031
v -100.000000 -100.000015 100.000031
v -100.000000 -100.000000 0.000033
v 0.000000 -100.000000 0.000033
v -100.000000 -100.000031 200.000031
v 0.000000 -100.000031 200.000031
v -100.000000 -100.000031 200.000031
v -100.000000 -100.000046 300.000031
v 0.000000 -100.000046 300.000031
v -100.000000 -100.000046 300.000031
v -100.000000 -100.000069 400.000031
v 0.000000 -100.000069 400.000031
v -100.000000 -100.000069 400.000031
v -100.000000 -100.000084 500.000031
v 0.000000 -100.000084 500.000031
v -100.000000 -100.000084 500.000031
v 100.000000 -100.000000 0.000033
v 100.000000 -0.000000 0.000049
v 100.000000 -0.000000 0.000049
v 0.000000 -0.000000 0.000049
v 100.000000 -0.000016 100.000046
v 0.000000 -0.000016 100.000046
v 100.000000 -100.000015 100.000031
v 100.000000 -100.000000 0.000033
v 100.000000 -0.000033 200.000046
v 0.000000 -0.000033 200.000046
v 100.000000 -100.000031 200.000031
v 100.000000 -0.000049 300.000061
v 0.000000 -0.000049 300.000061
v 100.000000 -100.000046 300.000031
v 100.000000 -0.000065 400.000061
v 0.000000 -0.000065 400.000061
v 100.000000 -100.000069 400.000031
v 100.000000 -0.000081 500.000061
v 0.000000 -0.000081 500.000061
v 100.000000 -100.000084 500.000031
v 100.000000 -0.000016 100.000046
v 100.000000 99.999985 100.000061
v 100.000000 -0.000000 0.000049
v 100.000000 100.000000 0.000065
v 200.000000 -0.000000 0.000049
v 200.000000 100.000000 0.000065
v 100.000000 100.000000 0.000065
v 200.000000 100.000000 0.000065
v 100.000000 100.000000 0.000065
v 200.000000 99.999985 100.000061
v 100.000000 99.999985 100.000061
v 200.000000 -0.000016 100.000046
v 200.000000 -0.000000 0.000049
v 200.000000 99.999985 100.000061
v 200.000000 100.000000 0.000065
v 100.000000 -0.000033 200.000046
v 100.000000 99.999969 200.000061
v 200.000000 99.999969 200.000061
v 100.000000 99.999969 200.000061
v 200.000000 -0.000033 200.000046
v 200.000000 99.999969 200.000061
v 100.000000 -0.000049 300.000061
v 100.000000 99.999954 300.000061
v 200.000000 99.999954 300.000061
v 100.000000 99.999954 300.000061
v 200.000000 -0.000049 300.000061
v 200.000000 99.999954 300.000061
v 100.000000 -0.000065 400.000061
v 100.000000 99.999931 400.000061
v 200.000000 99.999931 400.000061
v 100.000000 99.999931 400.000061
v 200.000000 -0.000065 400.000061
v 200.000000 99.999931 400.000061
v 100.000000 -0.000081 500.000061
v 100.000000 99.999916 500.000061
v 200.000000 99.999916 500.000061
v 100.000000 99.999916 500.000061
v 200.000000 -0.000081 500.000061
v 200.000000 99.999916 500.000061
v 100.000000 -0.000098 600.000061
v 100.000000 99.999901 600.000061
v 200.000000 -100.000000 0.000033
v 200.000000 -100.000015 100.000031
v 200.000000 -100.000000 0.000033
v 200.000000 -100.000015 100.000031
v 200.000000 -100.000000 0.000033
v 200.000000 -100.000031 200.000031
v 200.000000 -100.000031 200.000031
v 200.000000 -100.000046 300.000031
v 200.000000 -100.000046 300.000031
v 200.000000 -100.000069 400.000031
v 200.000000 -100.000069 400.000031
v 200.000000 -100.000084 500.000031
v 200.000000 -100.000084 500.000031
v -100.000000 99.999893 650.000061
v -100.000000 199.999893 650.000061
v -100.000000 199.999908 600.000061
v 0.000000 99.999901 600.000061
v -100.000000 99.999901 600.000061
v 0.000000 199.999908 600.000061
v -100.000000 199.999908 600.000061
v -100.000000 199.999908 600.000061
v 0.000000 199.999893 650.000061
v 0.000000 199.999908 600.000061
v -100.000000 199.999893 650.000061
v -100.000000 99.999893 650.000061
v 0.000000 99.999893 650.000061
v 0.000000 199.999893 650.000061
v -100.000000 199.999893 650.000061
v 0.000000 99.999893 650.000061
v 0.000000 199.999893 650.000061
v 0.000000 99.999901 600.000061
v 0.000000 199.999908 600.000061
v 100.000000 99.999901 600.000061
v 100.000000 199.999908 600.000061
v 100.000000 199.999893 650.000061
v 100.000000 199.999908 600.000061
v 100.000000 99.999893 650.000061
v 100.000000 199.999893 650.000061
v 100.000000 99.999893 650.000061
v 100.000000 199.999893 650.000061
v 100.000000 199.999908 600.000061
v 200.000000 99.999901 600.000061
v 200.000000 199.999908 600.000061
v 200.000000 199.999893 650.000061
v 200.000000 199.999908 600.000061
v 200.000000 199.999893 650.000061
v 200.000000 99.999893 650.000061
v 200.000000 199.999908 600.000061
v 200.000000 99.999893 650.000061
v 200.000000 199.999893 650.000061
v -100.000000 99.999908 550.000061
v -100.000000 199.999908 550.000061
v 0.000000 99.999908 550.000061
v -100.000000 99.999908 550.000061
v 0.000000 199.999908 550.000061
v -100.000000 199.999908 550.000061
v -100.000000 199.999908 550.000061
v 0.000000 199.999908 550.000061
v 0.000000 99.999908 550.000061
v 0.000000 199.999908 600.000061
v 0.000000 199.999908 550.000061
v -100.000000 149.999908 550.000061
v -100.000000 149.999924 500.000061
v -100.000000 149.999924 500.000061
v 0.000000 149.999924 500.000061
v -100.000000 99.999916 500.000061
v 0.000000 99.999916 500.000061
v -100.000000 149.999924 500.000061
v 0.000000 149.999908 550.000061
v 0.000000 149.999924 500.000061
v -100.000000 149.999908 550.000061
v 0.000000 149.999908 550.000061
v 0.000000 149.999924 500.000061
v 100.000000 -0.000090 550.000061
v 0.000000 -0.000090 550.000061
v 100.000000 99.999908 550.000061
v 0.000000 99.999908 550.000061
v 100.000000 99.999908 550.000061
v 0.000000 49.999920 500.000061
v 100.000000 49.999920 500.000061
v 0.000000 -0.000081 500.000061
v 100.000000 -0.000081 500.000061
v 0.000000 49.999920 500.000061
v 100.000000 49.999912 550.000061
v 100.000000 49.999920 500.000061
v 0.000000 49.999912 550.000061
v 100.000000 99.999908 550.000061
v 100.000000 199.999908 550.000061
v 200.000000 99.999908 550.000061
v 200.000000 199.999908 550.000061
v 100.000000 199.999908 550.000061
v 100.000000 199.999908 550.000061
v 200.000000 199.999908 550.000061
v 200.000000 99.999908 550.000061
v 200.000000 199.999908 550.000061
v 100.000000 149.999908 550.000061
v 100.000000 149.999924 500.000061
v 100.000000 149.999924 500.000061
v 200.000000 149.999924 500.000061
v 100.000000 99.999916 500.000061
v 200.000000 99.999916 500.000061
v 100.000000 149.999924 500.000061
v 200.000000 149.999908 550.000061
v 200.000000 149.999924 500.000061
v 100.000000 149.999908 550.000061
v 200.000000 149.999908 550.000061
v 200.000000 149.999924 500.000061
vn -1.0000 -0.0000 -0.0000
vn -0.0000 1.0000 -0.0000
vn -0.0000 -0.0000 1.0000
vn -0.0000 -1.0000 -0.0000
vn 1.0000 -0.0000 -0.0000
vn -0.0000 -0.0000 -1.0000
vt 0.500000 0.750000
vt 0.750000 0.750000
vt 0.750000 0.999969
vt 0.500000 0.999969
vt -0.000031 0.750000
vt 0.250000 0.750000
vt 0.250000 0.999969
vt -0.000031 0.999969
vt 0.250000 0.875000
vt 0.000031 0.875000
vt 0.750000 0.875000
vt 0.500000 0.875000
vt 0.625000 0.750000
vt 0.625000 0.875000
s 1
usemtl MI_Crypt_MiniAtlas
f 173/1/5 154/2/5 160/3/5 175/4/5
f 86/1/6 46/4/6 45/3/6 85/2/6
f 66/2/2 72/3/2 71/4/2 65/1/2
f 37/5/5 31/6/5 30/7/5 36/8/5
f 126/1/1 125/2/1 123/3/1 124/4/1
f 24/8/3 23/5/3 34/6/3 35/7/3
f 147/2/2 153/3/2 152/4/2 146/1/2
f 181/5/6 183/8/6 182/7/6 180/6/6
f 41/1/1 83/2/1 91/3/1 57/4/1
f 110/2/4 109/3/4 87/4/4 90/1/4
f 60/2/2 66/3/2 65/4/2 59/1/2
f 157/1/1 156/2/1 162/3/1 163/4/1
f 23/8/3 25/5/3 38/6/3 34/7/3
f 145/1/1 144/2/1 150/3/1 151/4/1
f 134/1/5 136/2/5 143/3/5 142/4/5
f 141/2/2 147/3/2 146/4/2 140/1/2
f 90/2/4 87/3/4 88/4/4 89/1/4
f 95/2/4 98/3/4 99/4/4 96/1/4
f 87/2/4 92/3/4 93/4/4 88/1/4
f 92/2/4 95/3/4 96/4/4 93/1/4
f 166/1/5 135/2/5 134/3/5 165/4/5
f 101/2/4 20/3/4 19/4/4 102/1/4
f 153/2/2 159/3/2 158/4/2 152/1/2
f 142/1/5 143/2/5 149/3/5 148/4/5
f 124/1/1 123/2/1 138/3/1 139/4/1
f 57/1/1 91/2/1 94/3/1 63/4/1
f 70/1/1 69/2/1 75/3/1 76/4/1
f 52/2/2 60/3/2 59/4/2 51/1/2
f 148/1/5 149/2/5 155/3/5 154/4/5
f 31/5/5 33/6/5 32/7/5 30/8/5
f 43/1/1 84/2/1 83/3/1 41/4/1
f 69/1/1 97/2/1 100/3/1 75/4/1
f 73/1/5 74/2/5 80/3/5 79/4/5
f 160/1/5 161/2/5 33/3/5 31/4/5
f 10/8/3 9/5/3 23/6/3 24/7/3
f 12/8/3 11/5/3 9/6/3 10/7/3
f 104/1/6 129/4/6 128/3/6 127/2/6
f 46/1/6 48/4/6 47/3/6 45/2/6
f 72/2/2 78/3/2 77/4/2 71/1/2
f 171/1/5 148/2/5 154/3/5 173/4/5
f 174/2/4 176/3/4 122/4/4 119/1/4
f 151/1/1 150/2/1 156/3/1 157/4/1
f 168/2/4 167/3/4 109/4/4 110/1/4
f 3/5/1 14/6/1 13/7/1 1/8/1
f 113/2/4 116/3/4 95/4/4 92/1/4
f 76/1/1 75/2/1 3/3/1 4/4/1
f 40/6/4 39/7/4 26/8/4 27/5/4
f 112/2/2 115/3/2 114/4/2 111/1/2
f 109/2/4 113/3/4 92/4/4 87/1/4
f 135/1/5 137/2/5 136/3/5 134/4/5
f 217/1/6 219/4/6 218/3/6 216/2/6
f 201/8/3 200/5/3 212/6/3 213/7/3
f 185/9/2 198/10/2 199/5/2 186/6/2
f 44/1/1 43/2/1 41/3/1 42/4/1
f 228/11/6 230/2/6 229/1/6 227/12/6
f 198/9/2 207/10/2 208/5/2 199/6/2
f 238/1/6 216/4/6 239/3/6 237/2/6
f 11/8/3 16/5/3 15/6/3 9/7/3
f 139/1/1 138/2/1 144/3/1 145/4/1
f 118/2/2 121/3/2 120/4/2 117/1/2
f 21/6/2 22/7/2 29/8/2 28/5/2
f 85/1/6 45/4/6 104/3/6 103/2/6
f 5/6/2 7/7/2 22/8/2 21/5/2
f 27/6/4 26/7/4 17/8/4 20/5/4
f 98/2/4 101/3/4 102/4/4 99/1/4
f 50/2/2 52/3/2 51/4/2 49/1/2
f 258/11/5 211/3/5 33/4/5 257/12/5
f 20/6/4 17/7/4 18/8/4 19/5/4
f 251/12/1 250/11/1 163/3/1 204/4/1
f 67/1/5 68/2/5 74/3/5 73/4/5
f 6/6/2 8/7/2 7/8/2 5/5/2
f 79/1/5 80/2/5 82/3/5 81/4/5
f 175/1/5 160/2/5 31/3/5 37/4/5
f 133/2/2 141/3/2 140/4/2 132/1/2
f 75/1/1 100/2/1 14/3/1 3/4/1
f 154/1/5 155/2/5 161/3/5 160/4/5
f 204/5/1 163/6/1 202/9/1 203/10/1
f 9/8/3 15/5/3 25/6/3 23/7/3
f 176/2/4 40/3/4 27/4/4 122/1/4
f 42/1/1 41/2/1 57/3/1 58/4/1
f 103/1/6 104/4/6 127/3/6 164/2/6
f 54/1/5 56/2/5 55/3/5 53/4/5
f 226/13/1 76/2/1 214/11/1 225/14/1
f 172/2/4 174/3/4 119/4/4 116/1/4
f 63/1/1 94/2/1 97/3/1 69/4/1
f 262/11/6 264/2/6 263/1/6 261/12/6
f 64/1/1 63/2/1 69/3/1 70/4/1
f 170/2/4 172/3/4 116/4/4 113/1/4
f 4/5/1 3/6/1 1/7/1 2/8/1
f 167/2/4 170/3/4 113/4/4 109/1/4
f 236/13/5 235/14/5 222/12/5 80/1/5
f 165/1/5 134/2/5 142/3/5 169/4/5
f 53/1/5 55/2/5 62/3/5 61/4/5
f 180/5/6 182/8/6 197/7/6 196/6/6
f 179/5/1 4/6/1 177/9/1 178/10/1
f 119/2/4 122/3/4 101/4/4 98/1/4
f 191/8/3 188/5/3 189/6/3 190/7/3
f 131/2/2 133/3/2 132/4/2 130/1/2
f 211/6/5 209/9/5 210/10/5 33/5/5
f 106/2/2 108/3/2 107/4/2 105/1/2
f 108/2/2 112/3/2 111/4/2 107/1/2
f 270/13/5 269/14/5 257/12/5 161/1/5
f 199/3/2 208/4/2 256/12/2 255/11/2
f 224/11/5 223/3/5 82/4/5 222/12/5
f 196/5/6 197/8/6 206/7/6 205/6/6
f 190/8/3 189/5/3 200/6/3 201/7/3
f 61/1/5 62/2/5 68/3/5 67/4/5
f 260/13/1 157/2/1 250/11/1 259/14/1
f 116/2/4 119/3/4 98/4/4 95/1/4
f 5/3/2 21/4/2 241/12/2 240/11/2
f 169/1/5 142/2/5 148/3/5 171/4/5
f 115/2/2 118/3/2 117/4/2 114/1/2
f 239/1/6 254/4/6 253/3/6 252/2/6
f 234/11/2 232/12/2 233/1/2 231/2/2
f 122/2/4 27/3/4 20/4/4 101/1/4
f 215/12/1 214/11/1 4/3/1 179/4/1
f 249/11/2 247/12/2 248/1/2 246/2/2
f 243/11/6 245/2/6 244/1/6 242/12/6
f 58/1/1 57/2/1 63/3/1 64/4/1
f 184/3/2 186/4/2 221/12/2 220/11/2
f 187/9/2 185/10/2 186/5/2 184/6/2
f 195/5/1 194/6/1 192/9/1 193/10/1
f 268/11/2 266/12/2 267/1/2 265/2/2
