# Blender 5.0.1
# www.blender.org
mtllib BP_Campfire_S2Lobby.mtl
o SM_Campfire_Lit.001
v -18.750000 50.000000 -65.750008
v -18.750000 -50.000000 -71.999992
v -18.750000 -50.000000 -65.749992
v -18.750000 50.000000 -72.000008
v 18.750000 50.000000 -65.750008
v -18.750000 50.000000 -72.000008
v -18.750000 50.000000 -65.750008
v 18.750000 50.000000 -72.000008
v 18.750000 -50.000000 -65.749992
v 18.750000 50.000000 -72.000008
v 18.750000 50.000000 -65.750008
v 18.750000 -50.000000 -71.999992
v -18.750000 -50.000000 -65.749992
v 18.750000 -50.000000 -71.999992
v 18.750000 -50.000000 -65.749992
v -18.750000 -50.000000 -71.999992
v 18.750000 -50.000000 -71.999992
v -18.750000 -50.000000 -71.999992
v -18.750000 50.000000 -72.000008
v 18.750000 50.000000 -72.000008
v 50.000004 -43.749989 -28.249992
v 50.000004 -18.749992 -53.249996
v 50.000004 -18.749989 -28.249996
v 50.000004 -43.749992 -53.249992
v -50.000004 -18.749996 -28.249996
v -50.000004 -43.750000 -53.249992
v -50.000004 -43.749996 -28.249992
v -50.000004 -18.750000 -53.249996
v -50.000004 -18.749996 -28.249996
v 50.000004 -43.749989 -28.249992
v 50.000004 -18.749989 -28.249996
v -50.000004 -43.749996 -28.249992
v 50.000004 18.750011 -28.250004
v 50.000004 43.750008 -53.250008
v 50.000004 43.750011 -28.250008
v 50.000004 18.750008 -53.250004
v -50.000004 43.750004 -28.250008
v -50.000004 18.750000 -53.250004
v -50.000004 18.750004 -28.250004
v -50.000004 43.750000 -53.250008
v -50.000004 43.750004 -28.250008
v 50.000004 18.750011 -28.250004
v 50.000004 43.750011 -28.250008
v -50.000004 18.750004 -28.250004
v -43.750000 50.000004 -47.000008
v -43.750000 -50.000000 -71.999992
v -43.750000 -49.999996 -46.999992
v -43.750000 50.000000 -72.000008
v -18.750000 50.000004 -47.000008
v -43.750000 50.000000 -72.000008
v -43.750000 50.000004 -47.000008
v -18.750000 -49.999996 -46.999992
v -18.750000 50.000000 -72.000008
v -18.750000 50.000004 -47.000008
v -18.750000 -50.000000 -71.999992
v -43.750000 -49.999996 -46.999992
v -18.750000 -49.999996 -46.999992
v -43.750000 -50.000000 -71.999992
v -43.750000 -50.000000 -71.999992
v -43.750000 50.000000 -72.000008
v -43.750000 -49.999996 -46.999992
v -18.750000 50.000004 -47.000008
v -43.750000 50.000004 -47.000008
v -18.750000 -49.999996 -46.999992
v 18.750000 50.000004 -47.000008
v 18.750000 -50.000000 -71.999992
v 18.750000 -49.999996 -46.999992
v 18.750000 50.000000 -72.000008
v 43.750000 50.000004 -47.000008
v 18.750000 50.000004 -47.000008
v 43.750000 50.000000 -72.000008
v 43.750000 -49.999996 -46.999992
v 43.750000 50.000000 -72.000008
v 43.750000 50.000004 -47.000008
v 43.750000 -50.000000 -71.999992
v 18.750000 -49.999996 -46.999992
v 43.750000 -50.000000 -71.999992
v 43.750000 -49.999996 -46.999992
v 43.750000 -50.000000 -71.999992
v 43.750000 50.000000 -72.000008
v 18.750000 50.000004 -47.000008
v 18.750000 -49.999996 -46.999992
v 43.750000 50.000004 -47.000008
v 43.750000 -49.999996 -46.999992
v -18.750000 50.000000 -65.750008
v -18.750000 -50.000000 -65.749992
v 18.750000 50.000000 -65.750008
v 18.750000 -50.000000 -65.749992
v 50.000004 -18.749989 -28.249996
v -50.000004 -18.750000 -53.249996
v -50.000004 -18.749996 -28.249996
v 50.000004 -18.749992 -53.249996
v -50.000004 -43.749996 -28.249992
v 50.000004 -43.749992 -53.249992
v 50.000004 -43.749989 -28.249992
v -50.000004 -43.750000 -53.249992
v 50.000004 -43.749992 -53.249992
v -50.000004 -18.750000 -53.249996
v 50.000004 -18.749992 -53.249996
v -50.000004 -43.750000 -53.249992
v 50.000004 43.750011 -28.250008
v -50.000004 43.750000 -53.250008
v -50.000004 43.750004 -28.250008
v 50.000004 43.750008 -53.250008
v -50.000004 18.750004 -28.250004
v 50.000004 18.750008 -53.250004
v 50.000004 18.750011 -28.250004
v -50.000004 18.750000 -53.250004
v 50.000004 18.750008 -53.250004
v -50.000004 43.750000 -53.250008
v 50.000004 43.750008 -53.250008
v -50.000004 18.750000 -53.250004
vn -1.0000 -0.0000 -0.0000
vn -0.0000 1.0000 -0.0000
vn 1.0000 -0.0000 -0.0000
vn -0.0000 -1.0000 -0.0000
vn -0.0000 -0.0000 -1.0000
vn -0.0000 -0.0000 1.0000
vt 0.000031 0.000000
vt 1.000000 0.000000
vt 1.000000 0.062500
vt 0.000031 0.062500
vt 0.000031 0.999969
vt 1.000000 1.000031
vt 1.000000 0.750122
vt 0.000031 0.750000
vt 1.000000 0.937500
vt 1.000000 0.875000
vt 0.000031 0.875000
vt 0.000031 0.937500
vt 0.000031 0.500000
vt 0.250000 0.500000
vt 0.250000 0.750000
vt 0.625000 0.000000
vt 0.625000 0.062500
vt 1.000000 0.999969
vt 1.000000 0.375000
vt 0.000031 0.375000
vt 1.000000 0.750000
vt 0.250000 0.000000
vt 0.250000 0.062500
vt 0.000031 0.781250
vt 1.000000 0.781250
s 1
usemtl M_Camfire_Vanilla
f 12/1/3 10/2/3 11/3/3 9/4/3
f 19/5/5 18/6/5 59/7/5 60/8/5
f 28/13/1 26/14/1 27/15/1 25/8/1
f 64/6/6 62/5/6 63/8/6 61/7/6
f 40/13/1 38/14/1 39/15/1 37/8/1
f 8/16/2 6/2/2 7/3/2 5/17/2
f 4/2/1 2/1/1 3/4/1 1/3/1
f 71/14/2 8/13/2 70/8/2 69/15/2
f 36/14/3 34/13/3 35/8/3 33/15/3
f 32/6/6 30/5/6 31/8/6 29/7/6
f 20/1/5 17/2/5 18/19/5 19/20/5
f 75/8/3 73/21/3 74/18/3 72/5/3
f 14/13/4 77/14/4 78/15/4 76/8/4
f 58/13/4 16/14/4 57/15/4 56/8/4
f 24/14/3 22/13/3 23/8/3 21/15/3
f 48/21/1 46/8/1 47/5/1 45/18/1
f 16/22/4 14/16/4 15/17/4 13/23/4
f 68/21/1 66/8/1 67/5/1 65/18/1
f 6/14/2 50/13/2 51/8/2 49/15/2
f 55/8/3 53/21/3 54/18/3 52/5/3
f 84/6/6 83/5/6 81/8/6 82/7/6
f 44/6/6 42/5/6 43/8/6 41/7/6
f 80/5/5 79/6/5 17/7/5 20/8/5
usemtl MI_Campfire_Vanilla_Lit
f 100/9/5 98/10/5 99/11/5 97/12/5
f 92/9/2 90/12/2 91/5/2 89/18/2
f 104/9/2 102/12/2 103/5/2 101/18/2
f 96/12/4 94/9/4 95/18/4 93/5/4
f 112/9/5 110/10/5 111/11/5 109/12/5
f 88/24/6 87/25/6 85/10/6 86/11/6
f 108/12/4 106/9/4 107/18/4 105/5/4
