# Blender 5.0.1
# www.blender.org
mtllib BP_Cactus03.mtl
o SM_Cactus03.001
v 0.000000 24.999990 200.000000
v 0.000000 25.000000 0.000001
v 0.000000 18.749990 200.000000
v 0.000000 18.750000 0.000001
v 0.000000 -25.000000 -0.000001
v 0.000000 -18.750010 200.000000
v 0.000000 -25.000010 200.000000
v 0.000000 -18.750000 -0.000001
v 18.750000 -0.000009 200.000000
v 18.750000 0.000000 0.000000
v 25.000000 -0.000009 200.000000
v 25.000000 0.000000 0.000000
v -25.000000 0.000000 0.000000
v -25.000000 -0.000009 200.000000
v -18.750000 0.000000 0.000000
v -18.750000 -0.000009 200.000000
v 18.750000 18.749990 200.000000
v 18.750000 18.750000 0.000001
v 23.169418 23.169409 200.000000
v 23.169418 23.169418 0.000001
v 18.750000 -18.750000 -0.000001
v 18.750000 -18.750010 200.000000
v 23.169418 -23.169418 -0.000001
v 23.169418 -23.169428 200.000000
v -23.169418 -23.169418 -0.000001
v -23.169418 -23.169428 200.000000
v -18.750000 -18.750000 -0.000001
v -18.750000 -18.750010 200.000000
v -23.169418 23.169409 200.000000
v -23.169418 23.169418 0.000001
v -18.750000 18.749990 200.000000
v -18.750000 18.750000 0.000001
v -16.919416 -60.669422 187.500000
v -16.919415 -60.669418 143.750000
v -12.500000 -56.250008 187.500000
v -12.500000 -56.250008 143.750000
v -16.919416 -26.830589 187.500000
v -16.919416 -26.830587 143.750000
v -12.500000 -31.250008 187.500000
v -12.500000 -31.250006 143.750000
v 16.919416 -26.830589 187.500000
v 16.919416 -26.830587 143.750015
v 12.500000 -31.250008 187.500000
v 12.500001 -31.250006 143.750015
v 16.919416 -60.669422 187.500000
v 12.500000 -56.250008 143.750000
v 12.500000 -56.250008 187.500000
v 16.919416 -60.669426 143.750000
v -16.919416 33.080582 81.250000
v -12.500000 37.499992 156.250000
v -16.919416 33.080578 156.250000
v -12.500000 37.499996 81.250000
v -16.919416 66.919418 81.249992
v -12.500000 62.499996 156.250000
v -16.919416 66.919411 156.250000
v -12.500000 62.500000 81.249992
v 12.500000 62.500004 81.250000
v 12.500000 62.499996 156.250000
v 16.919416 66.919418 81.250000
v 16.919416 66.919411 156.250000
v 12.500000 37.499996 81.250008
v 12.500000 37.499992 156.250000
v 16.919416 33.080582 81.250008
v 16.919416 33.080578 156.250000
v 18.750000 -18.750010 200.000000
v 18.750000 18.749990 200.000000
v -18.750000 -18.750010 200.000000
v -18.750000 18.749990 200.000000
v -12.500000 -31.250008 168.750000
v 12.500000 -31.250008 168.750000
v 12.500000 -18.750008 168.750000
v -12.500000 -18.750008 168.750000
v 12.500000 18.749996 106.250000
v 12.500000 37.499996 106.250000
v -12.500000 18.749996 106.250000
v -12.500000 37.499996 106.250000
v -12.500000 -56.250004 187.500000
v 12.500000 -56.250004 187.500000
v 12.500000 -31.250008 187.500000
v -12.500000 -31.250008 187.500000
v 12.500000 37.499992 156.250000
v 12.500000 62.499992 156.250000
v -12.500000 37.499992 156.250000
v -12.500000 62.499992 156.250000
v -12.500000 -31.250008 168.750000
v -12.500000 -31.250008 187.500000
v 12.500000 -31.250008 168.750000
v 12.500000 -31.250008 187.500000
v -12.500000 37.499992 156.250000
v -12.500000 37.499996 106.250000
v 12.500000 37.499992 156.250000
v 12.500000 37.499996 106.250000
v 12.500000 -31.250006 143.750000
v -12.500000 -31.250006 143.750000
v -12.500000 -18.750006 143.750000
v 12.500000 -18.750006 143.750000
v 12.500000 -56.250004 143.750000
v -12.500000 -56.250004 143.750000
v 12.500000 -31.250008 168.750000
v 12.500000 -31.250006 143.750000
v 12.500000 -18.750006 143.750000
v 12.500000 -18.750008 168.750000
v -12.500000 -31.250006 143.750000
v -12.500000 -31.250008 168.750000
v -12.500000 -18.750008 168.750000
v -12.500000 -18.750006 143.750000
v 12.500000 18.749996 81.250000
v 12.500000 37.499996 81.250000
v 12.500000 18.749996 106.250000
v 12.500000 37.499996 106.250000
v -12.500000 18.749996 81.250000
v -12.500000 37.499996 81.250000
v 12.500000 18.749996 81.250000
v 12.500000 37.499996 81.250000
v -12.500000 62.499996 81.250000
v 12.500000 62.499996 81.250000
v -12.500000 18.749996 106.250000
v -12.500000 37.499996 106.250000
v -12.500000 18.749996 81.250000
v -12.500000 37.499996 81.250000
v 12.500000 -56.250004 187.500000
v -12.500000 -56.250004 187.500000
v -12.500000 -56.250004 168.750000
v 12.500000 -56.250004 168.750000
v -12.500000 -56.250004 143.750000
v 12.500000 -56.250004 143.750000
v 12.500000 62.499996 81.250000
v -12.500000 62.499996 81.250000
v -12.500000 62.499996 106.250000
v 12.500000 62.499996 106.250000
v -12.500000 62.499992 156.250000
v 12.500000 62.499992 156.250000
v 18.750000 -18.750004 75.000000
v -18.750000 -18.750000 -0.000001
v 18.750000 -18.750000 -0.000001
v -18.750000 -18.750004 75.000000
v 18.750000 -18.750006 112.499985
v -18.750000 -18.750006 112.499985
v 18.750000 -18.750006 137.500000
v -18.750000 -18.750006 137.500000
v 12.500000 -18.750006 143.750000
v -12.500000 -18.750006 143.750000
v 12.500000 -18.750008 168.750000
v -18.750000 -18.750008 175.000000
v 18.750000 -18.750008 175.000000
v -12.500000 -18.750008 168.750000
v 18.750000 -18.750010 200.000000
v -18.750000 -18.750010 200.000000
v 18.750000 18.749992 175.000000
v -18.750000 18.749990 200.000000
v 18.750000 18.749990 200.000000
v -18.750000 18.749992 175.000000
v 18.750000 18.749994 137.500000
v -18.750000 18.749994 137.500000
v 18.750000 18.749994 112.499985
v -18.750000 18.749994 112.499985
v 12.500000 18.749996 106.250000
v -12.500000 18.749996 106.250000
v 12.500000 18.749996 81.250000
v -12.500000 18.749996 81.250000
v 18.750000 18.749996 75.000008
v -18.750000 18.749996 75.000008
v 18.750000 18.750000 0.000001
v -18.750000 18.750000 0.000001
v 18.750000 18.750000 0.000001
v 18.750000 -18.750004 75.000000
v 18.750000 -18.750000 -0.000001
v 18.750000 18.749996 75.000008
v 18.750000 -18.750006 112.499985
v 18.750000 18.749994 112.499985
v 18.750000 18.749994 137.500000
v 18.750000 -18.750006 137.500000
v 18.750000 18.749992 175.000000
v 18.750000 -18.750008 175.000000
v 18.750000 18.749990 200.000000
v 18.750000 -18.750010 200.000000
v -18.750000 -18.750004 75.000000
v -18.750000 18.750000 0.000001
v -18.750000 -18.750000 -0.000001
v -18.750000 18.749996 75.000008
v -18.750000 -18.750006 112.499985
v -18.750000 18.749994 112.499985
v -18.750000 -18.750006 137.500000
v -18.750000 18.749994 137.500000
v -18.750000 -18.750008 175.000000
v -18.750000 18.749992 175.000000
v -18.750000 -18.750010 200.000000
v -18.750000 18.749990 200.000000
v 12.500000 -56.250004 168.750000
v 12.500000 -56.250004 143.750000
v 12.500000 -31.250008 187.500000
v 12.500000 -56.250004 187.500000
v -12.500000 -56.250004 143.750000
v -12.500000 -56.250004 168.750000
v -12.500000 -56.250004 187.500000
v -12.500000 -31.250008 187.500000
v 12.500000 62.499996 81.250000
v 12.500000 62.499996 106.250000
v 12.500000 62.499992 156.250000
v 12.500000 37.499992 156.250000
v -12.500000 62.499996 106.250000
v -12.500000 62.499996 81.250000
v -12.500000 37.499992 156.250000
v -12.500000 62.499992 156.250000
vn -1.0000 -0.0000 -0.0000
vn 1.0000 -0.0000 -0.0000
vn -0.0000 -1.0000 -0.0000
vn -0.0000 1.0000 -0.0000
vn 0.7071 -0.7071 -0.0000
vn 0.7071 0.7071 -0.0000
vn -0.7071 0.7071 -0.0000
vn -0.7071 -0.7071 -0.0000
vn -0.0000 -0.0000 1.0000
vn -0.0000 -0.0000 -1.0000
vt -0.000031 0.979172
vt 0.666504 0.979172
vt 0.666504 0.999969
vt 0.000031 0.999969
vt 0.583008 0.395996
vt 0.583008 0.312500
vt 0.666504 0.312500
vt 0.666504 0.395996
vt 0.500000 0.229492
vt 0.500000 0.166992
vt 0.583008 0.166992
vt 0.583008 0.229492
vt 0.125000 0.666748
vt 0.000031 0.666748
vt 0.000031 0.583496
vt 0.125000 0.583496
vt 0.500000 0.375000
vt 0.375000 0.375000
vt 0.375000 0.250000
vt 0.500000 0.250000
vt 0.833008 0.666748
vt 0.833008 0.625000
vt 0.916504 0.625000
vt 0.916504 0.666748
vt 0.500000 0.458496
vt 0.375000 0.458496
vt 0.625000 0.999969
vt 0.375000 0.999969
vt 0.375000 0.979172
vt 0.625000 0.979172
vt 1.000000 0.625000
vt 1.000000 0.666748
vt 0.250000 0.979172
vt 0.395752 0.979172
vt 0.395752 0.999969
vt 0.250000 0.999969
vt 0.125000 0.458496
vt 0.250000 0.458496
vt 0.250000 0.583496
vt 0.604004 0.999969
vt 0.354004 0.999969
vt 0.354004 0.979172
vt 0.604004 0.979172
vt 0.541504 0.979172
vt 0.541504 0.999969
vt 0.750000 0.625000
vt 0.750000 0.562500
vt 0.833008 0.562500
vt 0.666504 0.229492
vt 0.750000 0.229492
vt 0.750000 0.312500
vt 0.916504 0.562500
vt 0.125000 0.375000
vt 0.250000 0.375000
vt 0.375000 0.000000
vt 0.500000 0.000000
vt 0.666504 0.666748
vt 0.666504 0.625000
vt 0.750000 0.666748
vt 0.208252 0.979172
vt 0.458252 0.979172
vt 0.458252 0.999969
vt 0.208252 0.999969
vt 0.666504 0.166992
vt 0.000031 0.458496
vt 0.000031 0.375000
vt 0.583008 0.562500
vt 0.500000 0.562500
vt 0.500000 0.395996
vt 0.250000 0.666748
vt 0.375000 0.666748
vt 0.375000 0.791748
vt 0.250000 0.791748
vt 0.333252 0.979172
vt 0.583008 0.979172
vt 0.583008 0.999969
vt 0.333252 0.999969
vt 0.500000 0.666748
vt 0.375000 0.583496
vt 0.500000 0.583496
vt 0.750000 0.083496
vt 0.750000 0.166992
vt 0.666504 0.083496
vt 0.479004 0.479492
vt 0.395752 0.479492
vt 0.479004 0.562500
vt 0.395752 0.562500
vt 0.125000 0.000000
vt 0.250000 0.000000
vt 0.250000 0.250000
vt 0.125000 0.250000
vt 0.666504 0.562500
vt 0.666504 0.645996
vt 0.583008 0.645996
vt 0.750000 0.395996
vt 0.145752 0.354492
vt 0.229126 0.354492
vt 0.145752 0.270996
vt 0.229126 0.270996
vt 0.416504 0.999969
vt 0.416504 0.979172
vt 0.562500 0.979172
vt 0.562500 0.999969
vt 0.833008 0.166992
vt 0.833008 0.083496
vt 0.750000 0.000000
vt 0.666504 0.000000
vt 0.833008 0.395996
vt 0.000031 0.250000
vt 0.520508 0.979172
vt 0.520508 0.999969
vt 0.833008 0.229492
vt 0.583008 0.083496
vt 0.000031 0.000000
vt 0.500000 0.312500
vt 1.000000 0.562500
s 1
usemtl MI_Cactus03
f 32/1/8 31/2/8 29/3/8 30/4/8
f 24/3/6 23/4/6 21/1/6 22/2/6
f 130/5/4 127/6/4 128/7/4 129/8/4
f 88/9/4 87/10/4 85/11/4 86/12/4
f 175/13/2 176/14/2 174/15/2 173/16/2
f 137/17/3 138/18/3 136/19/3 133/20/3
f 72/21/9 69/22/9 70/23/9 71/24/9
f 139/25/3 140/26/3 138/18/3 137/17/3
f 60/27/7 59/28/7 57/29/7 58/30/7
f 102/24/2 99/23/2 100/31/2 101/32/2
f 36/33/5 35/34/5 33/35/5 34/36/5
f 153/37/4 154/38/4 152/39/4 149/16/4
f 64/40/6 63/41/6 61/42/6 62/43/6
f 48/35/6 46/34/6 47/44/6 45/45/6
f 120/46/1 119/47/1 117/48/1 118/22/1
f 80/7/9 77/49/9 78/50/9 79/51/9
f 12/3/3 11/4/3 9/1/3 10/2/3
f 2/4/1 4/1/1 3/2/1 1/3/1
f 76/22/9 75/48/9 73/52/9 74/23/9
f 155/53/4 156/54/4 154/38/4 153/37/4
f 133/20/3 136/19/3 134/55/3 135/56/3
f 96/57/10 93/58/10 94/46/10 95/59/10
f 8/1/2 6/2/2 7/3/2 5/4/2
f 52/60/5 50/61/5 51/62/5 49/63/5
f 20/3/5 19/4/5 17/1/5 18/2/5
f 196/12/1 104/11/1 194/64/1 195/49/1
f 171/37/2 172/65/2 169/66/2 170/53/2
f 184/38/1 182/54/1 181/18/1 183/26/1
f 199/67/2 200/68/2 110/69/2 198/5/2
f 16/1/4 15/2/4 13/3/4 14/4/4
f 68/70/9 67/71/9 65/72/9 66/73/9
f 106/59/1 103/46/1 104/22/1 105/21/1
f 56/74/8 54/75/8 55/76/8 53/77/8
f 147/78/3 148/71/3 144/79/3 145/80/3
f 126/81/3 124/82/3 123/64/3 125/83/3
f 124/82/3 121/50/3 122/49/3 123/64/3
f 28/1/7 27/2/7 25/3/7 26/4/7
f 141/84/3 140/26/3 139/25/3
f 142/85/3 140/26/3 141/84/3
f 141/84/3 139/25/3 143/86/3
f 142/85/3 144/79/3 140/26/3
f 143/86/3 139/25/3 145/80/3
f 146/87/3 144/79/3 142/85/3
f 143/86/3 145/80/3 146/87/3
f 146/87/3 145/80/3 144/79/3
f 163/88/4 164/89/4 162/90/4 161/91/4
f 84/92/9 83/93/9 81/94/9 82/67/9
f 132/67/4 130/5/4 129/8/4 131/92/4
f 120/51/1 118/95/1 201/8/1 202/7/1
f 157/96/4 156/54/4 155/53/4
f 158/97/4 156/54/4 157/96/4
f 157/96/4 155/53/4 159/98/4
f 158/97/4 160/99/4 156/54/4
f 159/98/4 155/53/4 161/91/4
f 159/98/4 161/91/4 160/99/4
f 162/90/4 156/54/4 160/99/4
f 160/99/4 161/91/4 162/90/4
f 149/16/4 152/39/4 150/70/4 151/13/4
f 180/90/1 178/89/1 179/55/1 177/19/1
f 42/100/7 44/101/7 43/102/7 41/103/7
f 99/104/2 189/82/2 190/81/2 100/105/2
f 93/106/10 97/81/10 98/83/10 94/107/10
f 92/108/3 91/48/3 89/47/3 90/95/3
f 182/54/1 180/90/1 177/19/1 181/18/1
f 170/53/2 169/66/2 166/109/2 168/91/2
f 173/16/2 174/15/2 172/65/2 171/37/2
f 188/70/1 186/39/1 185/79/1 187/71/1
f 116/6/10 114/12/10 112/49/10 115/7/10
f 38/28/8 40/29/8 39/110/8 37/111/8
f 114/58/10 113/92/10 111/47/10 112/46/10
f 186/39/1 184/38/1 183/26/1 185/79/1
f 191/112/2 192/50/2 189/82/2 99/104/2
f 193/83/1 194/64/1 104/11/1 103/113/1
f 168/91/2 166/109/2 167/114/2 165/88/2
f 198/5/2 110/69/2 108/115/2 197/6/2
f 110/23/2 109/52/2 107/116/2 108/31/2
f 204/92/1 201/8/1 118/95/1 203/47/1
