# Blender 5.0.1
# www.blender.org
mtllib BP_China_PlateSmalls.mtl
o SM_China_PlateSmall.001
v -25.000002 -25.000002 6.193090
v 25.000002 -25.000002 12.443088
v -25.000002 -25.000002 12.443088
v 25.000002 -25.000002 6.193090
v -25.000002 -25.000002 12.443088
v 25.000002 -25.000002 12.443088
v 18.749998 -18.749998 6.249998
v -18.750002 -18.749998 6.249998
v -25.000002 25.000002 12.443089
v 25.000002 25.000002 12.443089
v -25.000002 25.000002 6.193092
v 25.000002 25.000002 6.193092
v -25.000002 25.000002 6.193092
v 25.000002 25.000002 6.193092
v -18.749998 18.750004 0.000002
v 18.750002 18.750002 0.000002
v 25.000002 -25.000002 6.193090
v 25.000002 25.000002 12.443089
v 25.000002 -25.000002 12.443088
v 25.000002 25.000002 6.193092
v -25.000002 25.000002 6.193092
v -25.000002 -25.000002 6.193090
v -25.000002 -25.000002 12.443088
v -25.000002 25.000002 12.443089
v -18.750002 -18.749994 0.000000
v 18.750002 18.750002 0.000002
v 18.749998 -18.750008 0.000000
v -18.749998 18.750004 0.000002
v 18.749998 -18.749998 6.249998
v -18.749998 18.749994 6.250001
v -18.750002 -18.749998 6.249998
v 18.750002 18.750002 6.250001
v -25.000002 25.000002 12.443089
v 18.750002 18.750002 6.250001
v 25.000002 25.000002 12.443089
v -18.749998 18.749994 6.250001
v 25.000002 -25.000002 12.443088
v 18.750002 18.750002 6.250001
v 18.749998 -18.749998 6.249998
v 25.000002 25.000002 12.443089
v -18.750002 -18.749998 6.249998
v -25.000002 25.000002 12.443089
v -25.000002 -25.000002 12.443088
v -18.749998 18.749994 6.250001
v -25.000002 -25.000002 6.193090
v -25.000002 25.000002 6.193092
v -18.750002 -18.749994 0.000000
v -18.749998 18.750004 0.000002
v -25.000002 -25.000002 6.193090
v 18.749998 -18.750008 0.000000
v 25.000002 -25.000002 6.193090
v -18.750002 -18.749994 0.000000
v 18.750002 18.750002 0.000002
v 25.000002 -25.000002 6.193090
v 18.749998 -18.750008 0.000000
v 25.000002 25.000002 6.193092
vn -0.0000 -1.0000 -0.0000
vn -0.0000 0.7039 0.7103
vn -0.0000 1.0000 -0.0000
vn -0.0000 0.7039 -0.7103
vn 1.0000 -0.0000 -0.0000
vn -1.0000 -0.0000 -0.0000
vn -0.0000 -0.0000 -1.0000
vn -0.0000 -0.0000 1.0000
vn -0.0000 -0.7039 0.7103
vn -0.7039 -0.0000 0.7103
vn 0.7039 -0.0000 0.7103
vn -0.7039 -0.0000 -0.7103
vn -0.0000 -0.7039 -0.7103
vn 0.7039 -0.0000 -0.7103
vt 0.625000 0.375000
vt 0.687500 0.375000
vt 0.687500 0.875000
vt 0.625000 0.875000
vt 0.187500 0.437500
vt 0.125000 0.875000
vt 0.125000 0.375000
vt 0.187500 0.812500
vt 0.562500 0.437500
vt 0.562500 0.812500
vt 0.750000 0.812500
vt 0.750000 0.437500
vt 0.062500 0.375000
vt 0.062500 0.875000
vt 0.625000 0.312500
vt 0.125000 0.312500
vt 0.625000 0.937500
vt 0.125000 0.937500
vt 0.187500 0.999969
vt 0.562500 0.999969
vt 0.000031 0.437500
vt 0.000031 0.812500
vt 0.187500 0.250000
vt 0.562500 0.250000
vt 0.625000 0.000000
vt 1.000000 0.000000
vt 1.000000 0.375000
s 1
usemtl MI_China_PlateSmall
f 10/1/3 12/2/3 11/3/3 9/4/3
f 7/5/2 5/6/2 6/7/2
f 8/8/2 5/6/2 7/5/2
f 32/9/8 30/10/8 31/8/8 29/5/8
f 15/11/4 13/3/4 14/2/4
f 16/12/4 15/11/4 14/2/4
f 4/13/1 2/7/1 3/6/1 1/14/1
f 20/15/5 18/1/5 19/7/5 17/16/5
f 23/6/6 24/4/6 21/17/6 22/18/6
f 35/1/9 33/4/9 34/9/9
f 36/10/9 34/9/9 33/4/9
f 39/5/10 37/7/10 38/9/10
f 40/1/10 38/9/10 37/7/10
f 43/6/11 41/8/11 42/4/11
f 44/10/11 42/4/11 41/8/11
f 47/19/12 45/18/12 46/17/12
f 48/20/12 47/19/12 46/17/12
f 51/13/13 49/14/13 50/21/13
f 52/22/13 50/21/13 49/14/13
f 55/23/14 53/24/14 54/16/14
f 53/24/14 56/15/14 54/16/14
f 28/25/7 26/26/7 27/27/7 25/1/7
