# Blender 5.0.1
# www.blender.org
mtllib BP_Coral_meshfade_1.mtl
o SM_Coral_meshfade_1.001
v -200.000000 200.000000 300.000031
v -200.000000 200.000000 200.000031
v -200.000000 100.000000 300.000031
v -200.000000 100.000000 200.000031
v -100.000000 200.000000 300.000031
v -100.000000 200.000000 200.000031
v -200.000000 200.000000 300.000031
v -200.000000 200.000000 200.000031
v -100.000000 100.000000 300.000031
v -100.000000 200.000000 200.000031
v -100.000000 200.000000 300.000031
v -100.000000 100.000000 200.000031
v -200.000000 100.000000 300.000031
v -100.000000 100.000000 200.000031
v -100.000000 100.000000 300.000031
v -200.000000 100.000000 200.000031
v -200.000000 200.000000 400.000031
v -200.000000 100.000000 400.000031
v -100.000000 200.000000 400.000031
v -200.000000 200.000000 400.000031
v -100.000000 100.000000 400.000031
v -100.000000 200.000000 400.000031
v -200.000000 200.000000 400.000031
v -100.000000 100.000000 400.000031
v -100.000000 200.000000 400.000031
v -200.000000 100.000000 400.000031
v -200.000000 100.000000 400.000031
v -100.000000 100.000000 400.000031
v -100.000000 100.000000 200.000031
v -100.000000 200.000000 200.000031
v -100.000000 200.000000 100.000023
v -100.000000 100.000000 100.000023
v 0.000000 200.000000 200.000031
v 0.000000 200.000000 100.000023
v -100.000000 200.000000 100.000023
v 0.000000 100.000000 200.000031
v 0.000000 200.000000 200.000031
v -100.000000 200.000000 200.000031
v -100.000000 100.000000 200.000031
v 0.000000 100.000000 100.000023
v 0.000000 100.000000 200.000031
v -100.000000 100.000000 100.000023
v 0.000000 400.000000 400.000031
v 0.000000 400.000000 300.000031
v 0.000000 300.000000 400.000031
v 0.000000 300.000000 300.000031
v 100.000000 400.000000 400.000031
v 100.000000 400.000000 300.000031
v 0.000000 400.000000 400.000031
v 0.000000 400.000000 300.000031
v 100.000000 300.000000 400.000031
v 100.000000 400.000000 300.000031
v 100.000000 400.000000 400.000031
v 100.000000 300.000000 300.000031
v 0.000000 400.000000 500.000031
v 0.000000 300.000000 500.000031
v 100.000000 400.000000 500.000031
v 0.000000 400.000000 500.000031
v 100.000000 300.000000 500.000031
v 100.000000 400.000000 500.000031
v 0.000000 300.000000 500.000031
v 100.000000 300.000000 400.000031
v 100.000000 300.000000 500.000031
v 0.000000 300.000000 400.000031
v 0.000000 400.000000 600.000000
v 0.000000 300.000000 600.000000
v 100.000000 400.000000 600.000000
v 0.000000 400.000000 600.000000
v 100.000000 300.000000 600.000000
v 100.000000 400.000000 600.000000
v 0.000000 400.000000 600.000000
v 100.000000 300.000000 600.000000
v 100.000000 400.000000 600.000000
v 0.000000 300.000000 600.000000
v 0.000000 300.000000 600.000000
v 100.000000 300.000000 600.000000
v 0.000000 300.000000 200.000031
v 0.000000 200.000000 300.000031
v 0.000000 200.000000 200.000031
v 100.000000 300.000000 300.000031
v 100.000000 300.000000 200.000031
v 0.000000 300.000000 300.000031
v 0.000000 300.000000 200.000031
v 100.000000 200.000000 300.000031
v 100.000000 300.000000 200.000031
v 100.000000 200.000000 200.000031
v 0.000000 200.000000 400.000031
v 100.000000 200.000000 400.000031
v 0.000000 300.000000 400.000031
v 100.000000 200.000000 400.000031
v 100.000000 300.000000 400.000031
v 0.000000 200.000000 400.000031
v 0.000000 200.000000 400.000031
v 100.000000 200.000000 300.000031
v 100.000000 200.000000 400.000031
v 0.000000 200.000000 300.000031
v 100.000000 200.000000 200.000031
v 100.000000 200.000000 100.000023
v 100.000000 100.000000 200.000031
v 100.000000 200.000000 100.000023
v 100.000000 100.000000 100.000023
v 0.000000 100.000000 300.000031
v 0.000000 100.000000 200.000031
v 100.000000 100.000000 300.000031
v 0.000000 200.000000 300.000031
v 100.000000 100.000000 300.000031
v 100.000000 200.000000 300.000031
v 0.000000 100.000000 300.000031
v 0.000000 100.000000 300.000031
v 100.000000 100.000000 200.000031
v 100.000000 100.000000 300.000031
v 0.000000 100.000000 100.000023
v 0.000000 100.000000 0.000024
v 0.000000 0.000000 100.000023
v 0.000000 0.000000 0.000024
v 100.000000 100.000000 100.000023
v 100.000000 100.000000 0.000024
v 0.000000 100.000000 100.000023
v 0.000000 100.000000 0.000024
v 100.000000 0.000000 100.000023
v 100.000000 100.000000 0.000024
v 100.000000 0.000000 0.000024
v 0.000000 0.000000 100.000023
v 100.000000 0.000000 0.000024
v 100.000000 0.000000 100.000023
v 0.000000 0.000000 0.000024
v 0.000000 0.000000 200.000031
v 100.000000 0.000000 200.000031
v 100.000000 100.000000 200.000031
v 0.000000 0.000000 200.000031
v 0.000000 0.000000 200.000031
v 100.000000 0.000000 200.000031
v 200.000000 100.000000 200.000031
v 200.000000 100.000000 100.000023
v 100.000000 100.000000 200.000031
v 200.000000 0.000000 200.000031
v 200.000000 100.000000 100.000023
v 200.000000 100.000000 200.000031
v 200.000000 0.000000 100.000023
v 200.000000 0.000000 200.000031
v 200.000000 100.000000 200.000031
v 200.000000 0.000000 100.000023
v 200.000000 0.000000 200.000031
v 200.000000 0.000000 300.000031
v 200.000000 100.000000 300.000031
v 200.000000 100.000000 200.000031
v 200.000000 0.000000 200.000031
v 300.000000 100.000000 300.000031
v 300.000000 100.000000 200.000031
v 200.000000 100.000000 300.000031
v 300.000000 0.000000 300.000031
v 300.000000 100.000000 200.000031
v 300.000000 100.000000 300.000031
v 300.000000 0.000000 200.000031
v 200.000000 0.000000 300.000031
v 300.000000 0.000000 200.000031
v 300.000000 0.000000 300.000031
v 200.000000 100.000000 400.000031
v 200.000000 0.000000 400.000031
v 300.000000 100.000000 400.000031
v 200.000000 100.000000 400.000031
v 300.000000 0.000000 400.000031
v 300.000000 100.000000 400.000031
v 200.000000 0.000000 400.000031
v 300.000000 0.000000 400.000031
v 200.000000 100.000000 500.000031
v 200.000000 0.000000 500.000031
v 300.000000 100.000000 500.000031
v 200.000000 100.000000 500.000031
v 300.000000 0.000000 500.000031
v 300.000000 100.000000 500.000031
v 200.000000 100.000000 500.000031
v 300.000000 0.000000 500.000031
v 300.000000 100.000000 500.000031
v 200.000000 0.000000 500.000031
v 200.000000 0.000000 500.000031
v 300.000000 0.000000 500.000031
vn -1.0000 -0.0000 -0.0000
vn -0.0000 1.0000 -0.0000
vn 1.0000 -0.0000 -0.0000
vn -0.0000 -1.0000 -0.0000
vn -0.0000 -0.0000 1.0000
vt 0.500000 0.500000
vt 0.500000 0.999969
vt 0.250000 0.999969
vt 0.250000 0.500000
s 1
usemtl MI_coral+ruin_meshfade
f 159/1/1 167/2/1 166/3/1 158/4/1
f 126/4/4 124/1/4 125/2/4 123/3/4
f 101/4/3 100/1/3 86/2/3 99/3/3
f 58/1/2 68/2/2 67/3/2 57/4/2
f 146/4/1 147/1/1 144/2/1 145/3/1
f 84/4/3 54/1/3 51/2/3 88/3/3
f 31/4/1 32/1/1 29/2/1 30/3/1
f 41/4/4 110/1/4 111/2/4 109/3/4
f 49/1/2 58/2/2 57/3/2 47/4/2
f 4/1/1 3/2/1 1/3/1 2/4/1
f 46/1/1 45/2/1 43/3/1 44/4/1
f 144/1/1 159/2/1 158/3/1 145/4/1
f 79/1/1 78/2/1 46/3/1 77/4/1
f 8/1/2 7/2/2 5/3/2 6/4/2
f 54/4/3 52/1/3 53/2/3 51/3/3
f 16/4/4 14/1/4 15/2/4 13/3/4
f 161/1/2 169/2/2 168/3/2 160/4/2
f 12/4/3 10/1/3 11/2/3 9/3/3
f 64/4/4 62/1/4 63/2/4 61/3/4
f 26/4/5 24/1/5 25/2/5 23/3/5
f 103/1/1 102/2/1 78/3/1 79/4/1
f 9/4/3 11/1/3 22/2/3 21/3/3
f 74/4/5 72/1/5 73/2/5 71/3/5
f 7/1/2 20/2/2 19/3/2 5/4/2
f 114/1/1 127/2/1 103/3/1 112/4/1
f 3/1/1 18/2/1 17/3/1 1/4/1
f 86/4/3 85/1/3 54/2/3 84/3/3
f 38/3/5 39/4/5 36/1/5 37/2/5
f 133/1/2 150/2/2 148/3/2 149/4/2
f 35/1/2 6/2/2 33/3/2 34/4/2
f 45/1/1 56/2/1 55/3/1 43/4/1
f 162/4/3 163/1/3 171/2/3 170/3/3
f 92/4/5 90/1/5 91/2/5 89/3/5
f 50/1/2 49/2/2 47/3/2 48/4/2
f 34/1/2 33/2/2 97/3/2 98/4/2
f 96/4/4 94/1/4 95/2/4 93/3/4
f 175/4/5 173/1/5 174/2/5 172/3/5
f 13/4/4 15/1/4 28/2/4 27/3/4
f 56/1/1 66/2/1 65/3/1 55/4/1
f 99/4/3 86/1/3 84/2/3 104/3/3
f 115/1/1 114/2/1 112/3/1 113/4/1
f 51/4/3 53/1/3 60/2/3 59/3/3
f 122/4/3 121/1/3 101/2/3 120/3/3
f 119/1/2 118/2/2 116/3/2 117/4/2
f 108/4/5 106/1/5 107/2/5 105/3/5
f 61/4/4 63/1/4 76/2/4 75/3/4
f 130/4/5 128/1/5 129/2/5 36/3/5
f 139/4/3 137/1/3 138/2/3 136/3/3
f 59/4/3 60/1/3 70/2/3 69/3/3
f 125/4/4 142/1/4 143/2/4 132/3/4
f 128/4/5 140/1/5 141/2/5 129/3/5
f 123/4/4 125/1/4 132/2/4 131/3/4
f 42/4/4 40/1/4 41/2/4 14/3/4
f 78/1/1 87/2/1 45/3/1 46/4/1
f 154/4/3 152/1/3 153/2/3 151/3/3
f 150/1/2 161/2/2 160/3/2 148/4/2
f 155/4/4 157/1/4 165/2/4 164/3/4
f 151/4/3 153/1/3 163/2/3 162/3/3
f 143/4/4 156/1/4 157/2/4 155/3/4
f 116/1/2 135/2/2 133/3/2 134/4/2
f 83/1/2 82/2/2 80/3/2 81/4/2
f 164/4/4 165/1/4 177/2/4 176/3/4
