# Blender 5.0.1
# www.blender.org
mtllib BP_ConduitHolder.mtl
o SM_Conduit_Holder_001.001
v -100.000015 -99.999985 0.000000
v 100.000015 99.999985 0.000000
v 99.999985 -100.000015 0.000000
v -99.999985 100.000015 0.000000
v -100.000008 99.999992 200.000000
v 99.999977 100.000015 200.000000
v -99.999985 100.000015 0.000000
v 100.000015 99.999985 0.000000
v -100.000000 -99.999985 200.000000
v -100.000008 99.999992 200.000000
v -100.000015 -99.999985 0.000000
v -99.999985 100.000015 0.000000
v 100.000000 -99.999992 200.000000
v -100.000000 -99.999985 200.000000
v 99.999985 -100.000015 0.000000
v -100.000015 -99.999985 0.000000
v 99.999977 100.000015 200.000000
v 100.000000 -99.999992 200.000000
v 100.000015 99.999985 0.000000
v 99.999985 -100.000015 0.000000
v -74.999969 75.000008 175.000000
v 75.000031 -74.999977 175.000000
v 75.000023 75.000023 175.000000
v -74.999969 -74.999992 175.000000
v -50.000000 50.000011 200.000000
v 49.999989 -49.999981 200.000000
v 49.999992 50.000023 200.000000
v -50.000000 -49.999981 200.000000
v -50.000000 -49.999981 200.000000
v -50.000000 50.000011 200.000000
v -50.000000 50.000008 175.000000
v -50.000000 -49.999985 175.000000
v 49.999992 50.000019 175.000000
v -50.000000 50.000011 200.000000
v 49.999992 50.000023 200.000000
v -50.000000 50.000008 175.000000
v 49.999989 -49.999981 200.000000
v 49.999992 50.000019 175.000000
v 49.999992 50.000023 200.000000
v 49.999989 -49.999985 175.000000
v 49.999989 -49.999981 200.000000
v -50.000000 -49.999981 200.000000
v -50.000000 -49.999985 175.000000
v 49.999989 -49.999985 175.000000
v 75.000031 -74.999977 200.000000
v 75.000023 75.000023 200.000000
v 75.000023 75.000023 175.000000
v 75.000031 -74.999977 175.000000
v 75.000023 75.000023 200.000000
v -74.999969 75.000008 200.000000
v -74.999969 75.000008 175.000000
v 75.000023 75.000023 175.000000
v -74.999969 75.000008 200.000000
v -74.999969 -74.999992 200.000000
v -74.999969 -74.999992 175.000000
v -74.999969 75.000008 175.000000
v -74.999969 -74.999992 200.000000
v 75.000031 -74.999977 200.000000
v 75.000031 -74.999977 175.000000
v -74.999969 -74.999992 175.000000
v 100.000000 -99.999992 200.000000
v -74.999969 -74.999992 200.000000
v -100.000000 -99.999985 200.000000
v -100.000008 99.999992 200.000000
v 75.000031 -74.999977 200.000000
v -74.999969 75.000008 200.000000
v 99.999977 100.000015 200.000000
v 75.000023 75.000023 200.000000
vn -0.0000 -0.0000 -1.0000
vn -0.0000 1.0000 -0.0000
vn -1.0000 -0.0000 -0.0000
vn -0.0000 -1.0000 -0.0000
vn 1.0000 -0.0000 -0.0000
vn -0.0000 -0.0000 1.0000
vt 0.500000 0.999969
vt 0.500000 0.500000
vt 0.749512 0.500000
vt 0.749512 0.999969
vt 0.999512 0.500000
vt 0.999512 0.999969
vt 0.812500 0.375000
vt 0.812500 0.437500
vt 0.625000 0.437500
vt 0.625000 0.375000
vt 0.250000 0.999969
vt 0.250000 0.500000
vt 0.750000 0.437500
vt 0.750000 0.500000
vt 0.625000 0.500000
vt 0.031250 0.062500
vt 0.218750 0.062500
vt 0.218750 0.437500
vt 0.031250 0.437500
vt 0.000031 0.999969
vt 0.000031 0.500244
vt 0.500000 0.000488
vt 0.750000 0.000488
vt 0.749512 0.500244
vt 0.500000 0.437500
vt 0.375000 0.500000
vt 0.375000 0.437500
vt 1.000000 0.375000
vt 1.000000 0.437500
vt 0.250000 0.437500
vt 0.062500 0.125000
vt 0.187500 0.125000
vt 0.187500 0.375000
vt 0.062500 0.375000
vt 0.437500 0.375000
vt 0.437500 0.437500
vt 0.250000 0.375000
vt 0.000031 0.000000
vt 0.250000 0.000000
vt 0.000031 0.500000
s 1
usemtl MI_Conduit_Holder
f 14/1/4 16/2/4 15/3/4 13/4/4
f 18/4/5 20/3/5 19/5/5 17/6/5
f 56/7/5 53/8/5 54/9/5 55/10/5
f 10/11/3 12/12/3 11/2/3 9/1/3
f 40/9/5 38/13/5 39/14/5 37/15/5
f 24/16/6 22/17/6 23/18/6 21/19/6
f 6/20/2 8/21/2 7/12/2 5/11/2
f 4/22/1 2/23/1 3/24/1 1/2/1
f 32/25/3 29/2/3 30/26/3 31/27/3
f 52/28/4 49/29/4 50/8/4 51/7/4
f 36/27/2 34/26/2 35/12/2 33/30/2
f 28/31/6 26/32/6 27/33/6 25/34/6
f 44/9/4 41/15/4 42/2/4 43/25/4
f 48/35/3 45/36/3 46/30/3 47/37/3
f 63/38/6 61/39/6 62/16/6
f 62/16/6 64/40/6 63/38/6
f 65/17/6 62/16/6 61/39/6
f 66/19/6 64/40/6 62/16/6
f 65/17/6 61/39/6 67/12/6
f 64/40/6 66/19/6 67/12/6
f 68/18/6 65/17/6 67/12/6
f 68/18/6 67/12/6 66/19/6
f 60/10/2 57/9/2 58/36/2 59/35/2
