# Blender 5.0.1
# www.blender.org
mtllib BP_Coral_Vase_Light.mtl
o SM_Coral_Vase_Base.001
v 0.000000 -99.999992 0.000016
v 0.000000 -0.000000 0.000000
v 100.000000 -99.999992 0.000016
v 100.000000 -0.000000 0.000000
v 0.000000 -87.144455 250.000015
v 0.000000 -99.999954 250.000015
v 13.512573 -87.144455 250.000015
v 13.512573 -99.999954 250.000015
v 87.641571 -99.999954 250.000015
v 100.000000 -87.144455 250.000015
v 87.641571 -87.144455 250.000015
v 100.000000 -99.999954 250.000015
v 87.641571 -12.281580 250.000000
v 100.000000 0.000041 250.000000
v 87.641571 0.000041 250.000000
v 100.000000 -12.281582 250.000000
v 0.000000 0.000041 250.000000
v 0.000000 -12.281582 250.000000
v 13.512573 0.000041 250.000000
v 13.512573 -12.281582 250.000000
v 13.512573 -87.144463 200.000015
v 13.512573 -87.144455 250.000015
v 13.512573 -99.999962 200.000015
v 13.512573 -99.999954 250.000015
v 0.000000 -87.144455 250.000015
v 13.512573 -87.144463 200.000015
v 0.000000 -87.144463 200.000015
v 13.512573 -87.144455 250.000015
v 87.641571 -87.144455 250.000015
v 100.000000 -87.144463 200.000015
v 87.641571 -87.144463 200.000015
v 100.000000 -87.144455 250.000015
v 87.641571 -87.144455 250.000015
v 87.641571 -87.144463 200.000015
v 87.641571 -99.999954 250.000015
v 87.641571 -99.999962 200.000015
v 87.641571 0.000041 250.000000
v 87.641571 0.000033 200.000000
v 87.641571 -12.281580 250.000000
v 87.641571 -12.281589 200.000000
v 100.000000 -12.281590 200.000000
v 100.000000 -12.281582 250.000000
v 87.641571 -12.281589 200.000000
v 87.641571 -12.281580 250.000000
v 13.512573 -12.281590 200.000000
v 13.512573 -12.281582 250.000000
v 0.000000 -12.281590 200.000000
v 0.000000 -12.281582 250.000000
v 13.512573 0.000033 200.000000
v 13.512573 0.000041 250.000000
v 13.512573 -12.281590 200.000000
v 13.512573 -12.281582 250.000000
v 87.641571 -99.999962 200.000015
v 100.000000 -99.999954 250.000015
v 87.641571 -99.999954 250.000015
v 100.000000 -99.999992 0.000016
v 13.512573 -99.999962 200.000015
v 0.000000 -99.999992 0.000016
v 0.000000 -99.999954 250.000015
v 13.512573 -99.999954 250.000015
v 100.000000 -12.281590 200.000000
v 100.000000 0.000041 250.000000
v 100.000000 -12.281582 250.000000
v 100.000000 -0.000000 0.000000
v 100.000000 -87.144463 200.000015
v 100.000000 -99.999992 0.000016
v 100.000000 -99.999954 250.000015
v 100.000000 -87.144455 250.000015
v 100.000000 0.000041 250.000000
v 87.641571 0.000033 200.000000
v 87.641571 0.000041 250.000000
v 100.000000 -0.000000 0.000000
v 13.512573 0.000033 200.000000
v 0.000000 -0.000000 0.000000
v 0.000000 0.000041 250.000000
v 13.512573 0.000041 250.000000
v 0.000000 0.000041 250.000000
v 0.000000 -12.281590 200.000000
v 0.000000 -12.281582 250.000000
v 0.000000 -0.000000 0.000000
v 0.000000 -87.144463 200.000015
v 0.000000 -99.999992 0.000016
v 0.000000 -99.999954 250.000015
v 0.000000 -87.144455 250.000015
v 13.512573 0.000033 200.000000
v 87.641571 -12.281589 200.000000
v 87.641571 0.000033 200.000000
v 13.512573 -12.281590 200.000000
v 0.000000 -12.281590 200.000000
v 0.000000 -87.144463 200.000015
v 13.512573 -87.144463 200.000015
v 87.641571 -87.144463 200.000015
v 100.000000 -12.281590 200.000000
v 100.000000 -87.144463 200.000015
v 13.512573 -99.999962 200.000015
v 87.641571 -99.999962 200.000015
vn -0.0000 -0.0000 -1.0000
vn -0.0000 -0.0000 1.0000
vn 1.0000 -0.0000 -0.0000
vn -0.0000 1.0000 -0.0000
vn -1.0000 -0.0000 -0.0000
vn -0.0000 -1.0000 -0.0000
vt 0.226562 0.070312
vt 0.273438 0.070312
vt 0.273438 0.117188
vt 0.226562 0.117188
vt 0.171875 0.164062
vt 0.164062 0.164062
vt 0.164062 0.156250
vt 0.171875 0.156250
vt 0.218750 0.070312
vt 0.218750 0.117188
vt 0.281250 0.070312
vt 0.281250 0.117188
vt 0.156250 0.000000
vt 0.218750 0.000000
vt 0.210938 0.125000
vt 0.164062 0.125000
vt 0.226562 0.125000
vt 0.273438 0.125000
vt 0.203125 0.156250
vt 0.203125 0.125000
vt 0.210938 0.156250
vt 0.171875 0.125000
vt 0.218750 0.156250
vt 0.156250 0.156250
vt 0.281250 0.000000
vt 0.281250 0.062500
vt 0.218750 0.062500
vt 0.273438 0.062500
vt 0.226562 0.062500
s 1
usemtl Mat_Coral_Vase_Diffuse
f 91/1/2 92/2/2 86/3/2 88/4/2
f 16/5/2 14/6/2 15/7/2 13/8/2
f 90/9/2 91/1/2 88/4/2 89/10/2
f 94/11/2 93/12/2 86/3/2 92/2/2
f 6/6/2 8/7/2 7/8/2 5/5/2
f 66/13/3 64/14/3 61/15/3 65/16/3
f 85/17/2 88/4/2 86/3/2 87/18/2
f 12/6/2 10/7/2 11/8/2 9/5/2
f 52/19/3 51/20/3 49/15/3 50/21/3
f 36/15/5 35/21/5 33/19/5 34/20/5
f 18/7/2 20/8/2 19/5/2 17/6/2
f 32/7/4 30/16/4 31/22/4 29/8/4
f 24/7/3 23/16/3 21/22/3 22/8/3
f 55/21/6 53/15/6 54/23/6
f 56/14/6 54/23/6 53/15/6
f 72/13/4 74/14/4 73/15/4 70/16/4
f 58/13/6 57/16/6 59/24/6
f 60/7/6 59/24/6 57/16/6
f 63/21/3 61/15/3 62/23/3
f 64/14/3 62/23/3 61/15/3
f 82/14/5 81/15/5 78/16/5 80/13/5
f 66/13/3 65/16/3 67/24/3
f 68/7/3 67/24/3 65/16/3
f 71/7/4 69/24/4 70/16/4
f 72/13/4 70/16/4 69/24/4
f 74/14/4 75/23/4 73/15/4
f 76/21/4 73/15/4 75/23/4
f 79/7/5 77/24/5 78/16/5
f 80/13/5 78/16/5 77/24/5
f 57/16/6 58/13/6 56/14/6 53/15/6
f 81/15/5 82/14/5 83/23/5
f 84/21/5 81/15/5 83/23/5
f 42/21/6 44/19/6 43/20/6 41/15/6
f 28/19/4 26/20/4 27/15/4 25/21/4
f 46/8/6 48/7/6 47/16/6 45/22/6
f 40/22/5 39/8/5 37/7/5 38/16/5
f 2/14/1 4/25/1 3/26/1 1/27/1
f 96/28/2 92/2/2 91/1/2 95/29/2
