# Blender 5.0.1
# www.blender.org
mtllib BP_Clayset_Teapot.mtl
o SM_Clayset_Teapot.001
v -25.000006 25.000008 6.249996
v -25.000006 -25.000006 6.250004
v 25.000006 25.000008 6.249996
v 25.000006 -25.000006 6.250004
v 25.000006 -25.000006 0.000004
v -25.000006 -25.000006 0.000004
v -25.000006 25.000006 -0.000004
v 25.000006 25.000006 -0.000004
v -25.000006 -25.000006 6.250004
v 25.000006 -25.000006 0.000004
v 25.000006 -25.000006 6.250004
v -25.000006 -25.000006 0.000004
v 25.000006 -25.000006 6.250004
v 25.000006 25.000006 -0.000004
v 25.000006 25.000008 6.249996
v 25.000006 -25.000006 0.000004
v 25.000006 25.000008 6.249996
v -25.000006 25.000006 -0.000004
v -25.000006 25.000008 6.249996
v 25.000006 25.000006 -0.000004
v -25.000006 25.000008 6.249996
v -25.000006 -25.000006 0.000004
v -25.000006 -25.000006 6.250004
v -25.000006 25.000006 -0.000004
v -31.250002 31.250011 56.249996
v -31.250002 -31.249992 56.250004
v 31.250002 31.250011 56.249996
v 31.250002 -31.249992 56.250004
v 31.250002 -31.250000 6.250005
v -31.250002 -31.250000 6.250005
v -31.250002 31.250002 6.249995
v 31.250002 31.250002 6.249995
v -31.250002 -31.249992 56.250004
v 31.250002 -31.250000 6.250005
v 31.250002 -31.249992 56.250004
v -31.250002 -31.250000 6.250005
v 31.250002 -31.249992 56.250004
v 31.250002 31.250002 6.249995
v 31.250002 31.250011 56.249996
v 31.250002 -31.250000 6.250005
v 31.250002 31.250011 56.249996
v -31.250002 31.250002 6.249995
v -31.250002 31.250011 56.249996
v 31.250002 31.250002 6.249995
v -31.250002 31.250011 56.249996
v -31.250002 -31.250000 6.250005
v -31.250002 -31.249992 56.250004
v -31.250002 31.250002 6.249995
v -0.000002 31.250019 106.249992
v -0.000002 -31.249992 56.250004
v -0.000002 -31.249985 106.250008
v -0.000002 31.250011 56.249996
v -0.000002 -68.750000 18.750011
v -0.000002 -68.749992 56.250011
v -0.000002 -31.249998 18.750006
vn -0.0000 -0.0000 1.0000
vn -0.0000 -0.0000 -1.0000
vn -0.0000 -1.0000 -0.0000
vn 1.0000 -0.0000 -0.0000
vn -0.0000 1.0000 -0.0000
vn -1.0000 -0.0000 -0.0000
vt 0.625000 0.375000
vt 0.937500 0.375000
vt 0.937500 0.625000
vt 0.625000 0.625000
vt 0.000031 0.500000
vt 0.312500 0.500000
vt 0.312500 0.750000
vt 0.000031 0.750000
vt 0.625000 0.750000
vt 0.625000 0.999969
vt 0.312500 0.999969
vt 0.093750 0.000000
vt 0.406250 0.000000
vt 0.406250 0.250000
vt 0.093750 0.250000
vt 0.000031 0.999969
vt 0.937500 0.687500
vt 0.625000 0.687500
vt 0.625000 0.500000
vt 0.937500 0.999969
vt 0.625000 0.031250
vt 0.812500 0.031250
vt 0.812500 0.218750
vt 0.625000 0.218750
s 1
usemtl MI_Teapot
f 12/1/3 10/2/3 11/3/3 9/4/3
f 40/5/4 38/6/4 39/7/4 37/8/4
f 36/7/3 34/9/3 35/10/3 33/11/3
f 52/12/6 50/13/6 51/14/6 49/15/6
f 48/8/6 46/7/6 47/11/6 45/16/6
f 32/17/2 29/18/2 30/1/2 31/2/2
f 4/17/1 3/18/1 1/1/1 2/2/1
f 44/6/5 42/19/5 43/9/5 41/7/5
f 28/20/1 27/10/1 25/18/1 26/17/1
f 20/1/5 18/2/5 19/3/5 17/4/5
f 16/1/4 14/2/4 15/3/4 13/4/4
f 24/1/6 22/2/6 23/3/6 21/4/6
f 8/17/2 5/18/2 6/1/2 7/2/2
f 55/21/6 53/22/6 54/23/6 50/24/6
