# Blender 5.0.1
# www.blender.org
mtllib BP_CartBroken_Snow.mtl
o SM_CartBroken_Snow.001
v -114.068832 -132.083389 0.113968
v 73.446335 -132.273438 24.999308
v -114.053558 -132.094437 25.113962
v 73.431046 -132.262390 -0.000684
v 73.431046 -132.262390 -0.000684
v -113.818161 130.416473 0.229810
v 73.681732 130.237457 0.115160
v 73.431046 -132.262390 -0.000684
v -114.068832 -132.083389 0.113968
v -113.802902 130.405411 25.229809
v 73.697006 130.226410 25.115149
v -113.818161 130.416473 0.229810
v 73.681732 130.237457 0.115160
v 73.446335 -132.273438 24.999308
v -113.802902 130.405411 25.229809
v -114.053558 -132.094437 25.113962
v 73.697006 130.226410 25.115149
v 73.431046 -132.262390 -0.000684
v 73.697006 130.226410 25.115149
v 73.446335 -132.273438 24.999308
v 73.681732 130.237457 0.115160
v -114.053558 -132.094437 25.113962
v -113.802902 130.405411 25.229809
v -114.068832 -132.083389 0.113968
v -113.818161 130.416473 0.229810
v 61.223263 117.710770 87.617249
v -101.264709 130.365875 87.722137
v -101.276642 117.865906 87.716621
v 61.235195 130.210739 87.622765
v -101.314835 117.893517 25.216646
v 61.223263 117.710770 87.617249
v -101.276642 117.865906 87.716621
v 61.185070 117.738380 25.117273
v -101.302917 130.393509 25.222164
v 61.235195 130.210739 87.622765
v 61.197002 130.238342 25.122793
v -101.264709 130.365875 87.722137
v -101.515366 -132.133987 87.606293
v -114.015366 -132.122040 87.613930
v -101.553574 -132.106354 25.106325
v -114.053558 -132.094437 25.113962
v -113.802902 130.405411 25.229809
v -101.553574 -132.106354 25.106325
v -113.802902 130.405411 25.229809
v -101.302917 130.393509 25.222164
v -113.764694 130.377808 87.729782
v -101.515366 -132.133987 87.606293
v -113.764694 130.377808 87.729782
v -114.015366 -132.122040 87.613930
v -101.515366 -132.133987 87.606293
v -113.764694 130.377808 87.729782
v -114.015366 -132.122040 87.613930
v -101.553574 -132.106354 25.106325
v -101.264709 130.365875 87.722137
v -101.515366 -132.133987 87.606293
v -101.553574 -132.106354 25.106325
v -101.302917 130.393509 25.222164
v 73.484528 -132.301025 87.499290
v 60.946339 -132.261490 25.006952
v 73.446335 -132.273453 24.999308
v 60.984531 -132.289108 87.506927
v 73.446335 -132.273453 24.999308
v 61.197002 130.238342 25.122793
v 73.697006 130.226410 25.115149
v 61.197002 130.238342 25.122793
v 60.946339 -132.261490 25.006952
v 73.735199 130.198807 87.615120
v 73.484528 -132.301025 87.499290
v 60.984531 -132.289108 87.506927
v 73.484528 -132.301025 87.499290
v 73.735199 130.198807 87.615120
v 73.446335 -132.273453 24.999308
v 73.735199 130.198807 87.615120
v 73.484528 -132.301025 87.499290
v 60.984531 -132.289108 87.506927
v 61.235195 130.210739 87.622765
v 60.946339 -132.261490 25.006952
v 61.197002 130.238342 25.122793
v 73.329926 -51.629173 62.533527
v 73.321609 -132.300598 43.759350
v 73.353470 -132.331009 62.509304
v 73.298111 -51.625759 43.783558
v 85.821655 -132.299057 43.738102
v 85.829895 -51.626980 62.512241
v 85.853470 -132.329483 62.488041
v 85.798035 -51.623562 43.762295
v 85.829895 -51.626980 62.512241
v 73.353470 -132.331009 62.509304
v 85.853470 -132.329483 62.488041
v 73.329926 -51.629173 62.533527
v 85.798035 -51.623562 43.762295
v 85.821655 -132.299057 43.738102
v 73.321609 -132.300598 43.759350
v 73.298111 -51.625759 43.783558
v 85.853470 -132.329483 62.488041
v 73.353470 -132.331009 62.509304
v 85.821655 -132.299057 43.738102
v 73.321609 -132.300598 43.759350
v -113.917648 -239.129181 62.499226
v -126.384659 -51.626976 62.512196
v -126.417633 -239.126984 62.477947
v -113.884674 -51.629181 62.533459
v -126.385788 -239.123520 43.728001
v -126.352814 -51.623554 43.762234
v -113.885788 -239.125763 43.749256
v -113.852829 -51.625755 43.783504
v -113.884674 -51.629181 62.533459
v -113.917648 -239.129181 62.499226
v -113.885788 -239.125763 43.749256
v -113.852829 -51.625755 43.783504
v -126.384659 -51.626976 62.512196
v -126.385788 -239.123520 43.728001
v -126.417633 -239.126984 62.477947
v -126.352814 -51.623554 43.762234
v 73.381134 -170.251083 12.499111
v 73.362915 -170.272308 -0.000889
v 73.347122 -151.501144 12.467360
v 73.328888 -151.522385 -0.032599
v -33.417751 -170.445892 12.648520
v 73.362915 -170.272308 -0.000889
v 73.381134 -170.251083 12.499111
v -33.436695 -170.445847 0.148516
v 73.347122 -151.501144 12.467360
v -33.494370 -151.695969 0.148684
v -33.475460 -151.696014 12.648667
v 73.328888 -151.522385 -0.032599
v -33.436695 -170.445847 0.148516
v 73.328888 -151.522385 -0.032599
v 73.362915 -170.272308 -0.000889
v -33.494370 -151.695969 0.148684
v 73.347122 -151.501144 12.467360
v -33.475460 -151.696014 12.648667
v -33.417751 -170.445892 12.648520
v 73.381134 -170.251083 12.499111
v -33.436695 -170.445847 0.148516
v -33.417751 -170.445892 12.648520
v -33.494370 -151.695969 0.148684
v -33.475460 -151.696014 12.648667
v 85.798035 -51.623562 43.762295
v 73.298111 -51.625759 43.783558
v 73.329926 -51.629173 62.533527
v 85.829895 -51.626980 62.512241
v -126.417633 -239.126984 62.477947
v -126.385788 -239.123520 43.728001
v -113.917648 -239.129181 62.499226
v -113.885788 -239.125763 43.749256
v -126.352814 -51.623554 43.762234
v -113.884674 -51.629181 62.533459
v -113.852829 -51.625755 43.783504
v -126.384659 -51.626976 62.512196
v -38.814896 -56.590969 25.215717
v 61.185116 118.409004 25.216646
v 61.185108 -56.590984 25.215717
v -38.814888 118.409027 25.216646
v 61.185123 118.408936 37.716648
v -38.814896 -56.591030 37.715721
v 61.185116 -56.591045 37.715721
v -38.814888 118.408958 37.716652
v -38.814896 -56.591030 37.715721
v -38.814888 118.408958 37.716652
v -38.814888 118.409027 25.216646
v -38.814896 -56.590969 25.215717
v -38.814896 -56.591030 37.715721
v 61.185108 -56.590984 25.215717
v 61.185116 -56.591045 37.715721
v -38.814896 -56.590969 25.215717
v 61.185116 -56.591045 37.715721
v 61.185116 118.409004 25.216646
v 61.185123 118.408936 37.716648
v 61.185108 -56.590984 25.215717
v -38.814888 118.408958 37.716652
v 61.185123 118.408936 37.716648
v 61.185116 118.409004 25.216646
v -38.814888 118.409027 25.216646
v -1.314810 17.893526 25.216108
v -101.314819 17.893532 25.216105
v -1.314812 117.893524 25.216642
v -101.314819 117.893524 25.216635
v -1.314812 117.893387 50.216637
v -101.314819 117.893387 50.216637
v -101.314804 17.893398 50.216106
v -1.314812 17.893393 50.216106
v -101.314804 17.893398 50.216106
v -1.314810 17.893526 25.216108
v -1.314812 17.893393 50.216106
v -101.314819 17.893532 25.216105
v -1.314812 17.893393 50.216106
v -1.314812 117.893524 25.216642
v -1.314812 117.893387 50.216637
v -1.314810 17.893526 25.216108
v -101.314819 117.893387 50.216637
v -1.314812 117.893387 50.216637
v -1.314812 117.893524 25.216642
v -101.314819 117.893524 25.216635
v -101.314804 17.893398 50.216106
v -101.314819 117.893387 50.216637
v -101.314819 117.893524 25.216635
v -101.314819 17.893532 25.216105
v 73.446335 -40.460556 -25.000193
v 85.946320 -40.461018 62.499790
v 73.446320 -40.461014 62.499775
v 85.946320 -40.460552 -25.000210
v 73.446335 -40.460556 -25.000193
v 73.446320 -40.461014 62.499775
v 73.446335 47.039440 -24.999708
v 73.446365 47.038979 62.500267
v 73.446335 47.039440 -24.999708
v 85.946365 47.038975 62.500271
v 85.946335 47.039440 -24.999723
v 73.446365 47.038979 62.500267
v 73.446365 47.038979 62.500267
v 73.446320 -40.461014 62.499775
v 85.946320 -40.461018 62.499790
v 85.946365 47.038975 62.500271
v 85.946320 -40.461018 62.499790
v 85.946320 -40.460552 -25.000210
v 85.946335 47.039440 -24.999723
v 85.946365 47.038975 62.500271
v 85.946320 -40.460552 -25.000210
v 73.446335 47.039440 -24.999708
v 85.946335 47.039440 -24.999723
v 73.446335 -40.460556 -25.000193
v -204.053650 -40.460682 0.211720
v -116.553680 -40.460682 0.211741
v -204.053665 -40.460751 12.711720
v -116.553665 -40.460743 12.711724
v -116.553680 -40.460682 0.211741
v -204.053650 -40.460682 0.211720
v -116.553711 47.039307 0.212198
v -204.053680 47.039303 0.212224
v -116.553711 47.039307 0.212198
v -204.053680 47.039234 12.712225
v -116.553696 47.039242 12.712198
v -204.053680 47.039303 0.212224
v -204.053680 47.039303 0.212224
v -204.053650 -40.460682 0.211720
v -204.053665 -40.460751 12.711720
v -204.053680 47.039234 12.712225
v -204.053665 -40.460751 12.711720
v -116.553665 -40.460743 12.711724
v -116.553696 47.039242 12.712198
v -204.053680 47.039234 12.712225
v -116.553665 -40.460743 12.711724
v -116.553711 47.039307 0.212198
v -116.553696 47.039242 12.712198
v -116.553680 -40.460682 0.211741
vn -0.0010 -1.0000 -0.0004
vn -0.0006 0.0004 -1.0000
vn 0.0010 1.0000 0.0004
vn 0.0006 -0.0004 1.0000
vn 1.0000 -0.0010 -0.0006
vn -1.0000 0.0010 0.0006
vn -1.0000 -0.0003 0.0017
vn 1.0000 0.0003 -0.0017
vn 0.0017 -0.0003 1.0000
vn -0.0017 0.0003 -1.0000
vn 0.0001 -1.0000 -0.0016
vn -0.0017 -0.0002 1.0000
vn 0.0017 0.0002 -1.0000
vn 1.0000 -0.0002 0.0017
vn -1.0000 0.0002 -0.0017
vn 1.0000 0.0018 -0.0015
vn 0.0017 -1.0000 0.0008
vn -0.0017 1.0000 -0.0008
vn -0.0015 -0.0008 -1.0000
vn 0.0015 0.0008 1.0000
vn -1.0000 -0.0031 0.0015
vn -0.0002 1.0000 0.0002
vn -0.0002 -1.0000 -0.0002
vn 0.0002 1.0000 0.0002
vn -0.0000 -0.0000 -1.0000
vn -0.0000 -0.0000 1.0000
vn -1.0000 -0.0000 -0.0000
vn -0.0000 -1.0000 -0.0000
vn 1.0000 -0.0000 -0.0000
vn -0.0000 1.0000 -0.0000
vt 0.031250 0.703125
vt 0.031250 0.734375
vt 0.359375 0.734375
vt 0.359375 0.703125
vt 0.718750 0.734375
vt 0.390625 0.734375
vt 0.718750 0.968750
vt 0.390625 0.968750
vt 0.796875 0.750000
vt 0.796875 0.984375
vt 0.773438 0.984375
vt 0.773438 0.750000
vt 0.214844 0.000488
vt 0.214844 0.016113
vt 0.000817 0.016113
vt 0.000817 0.000488
vt 0.578125 0.656250
vt 0.375000 0.656250
vt 0.375000 0.734375
vt 0.578125 0.734375
vt 0.343750 0.546875
vt 0.453125 0.546875
vt 0.453125 0.437500
vt 0.343750 0.437500
vt 0.421875 0.421875
vt 0.312500 0.421875
vt 0.312500 0.437500
vt 0.421875 0.437500
vt 0.000609 0.000488
vt 0.122925 0.000488
vt 0.122925 0.015625
vt 0.000609 0.015625
vt 0.343750 0.703125
vt 0.343750 0.625000
vt 0.015625 0.625000
vt 0.015625 0.703125
vt 0.718750 0.984375
vt 0.718750 0.750000
vt 0.734375 0.750000
vt 0.734375 0.984375
vt 0.015625 0.531250
vt 0.015625 0.515625
vt 0.343750 0.515625
vt 0.343750 0.531250
vt 0.015625 0.609375
vt 0.343750 0.609375
vt 0.123108 0.000488
vt 0.123108 0.016113
vt 0.734375 0.734375
vt 0.757812 0.750000
vt 0.757812 0.734375
vt 0.154419 0.126953
vt 0.154419 0.249023
vt 0.123840 0.249023
vt 0.123840 0.126953
vt 0.578125 0.640625
vt 0.375000 0.640625
vt 0.123840 0.126465
vt 0.154419 0.126465
vt 0.757812 0.984375
vt 0.757812 0.883545
vt 0.734375 0.883606
vt 0.773438 0.883545
vt 0.796875 0.883606
vt 0.359375 0.625000
vt 0.718750 0.883606
vt 0.757812 0.999969
vt 0.734375 0.999969
vt 0.000838 0.000977
vt 0.214844 0.000977
vt 0.000838 0.016113
vt 0.002142 0.123535
vt 0.002142 0.000977
vt 0.216187 0.000977
vt 0.216187 0.123535
vt 0.002018 0.001465
vt 0.216064 0.001465
vt 0.216064 0.123535
vt 0.002018 0.123535
vt 0.375000 0.562500
vt 0.578125 0.562500
vt 0.123352 0.248535
vt 0.001036 0.248535
vt 0.001036 0.126465
vt 0.123352 0.126465
vt 0.000981 0.248535
vt 0.000981 0.126465
vt 0.123291 0.126465
vt 0.123291 0.248535
vt 0.031250 0.968750
vt 0.359375 0.968750
vt 0.000031 0.625000
vt 0.000031 0.703125
vt 0.515625 0.429688
vt 0.515625 0.414062
vt 0.406250 0.414062
vt 0.406250 0.429688
vt 0.154175 0.126953
vt 0.154175 0.249023
vt 0.123657 0.249023
vt 0.123657 0.126953
vt 0.031250 0.999969
vt 0.359375 0.999969
vt 0.000031 0.734375
vt 0.000031 0.968750
s 1
usemtl MI_CartBroken_Snow
f 21/1/5 19/2/5 20/3/5 18/4/5
f 7/5/2 5/6/2 6/7/2
f 9/8/2 6/7/2 8/6/2
f 109/9/14 110/10/14 107/11/14 108/12/14
f 162/13/27 159/14/27 160/15/27 161/16/27
f 37/17/3 35/18/3 36/19/3 34/20/3
f 204/21/27 206/22/27 205/23/27 203/24/27
f 213/25/26 214/26/26 211/27/26 212/28/26
f 166/29/28 164/30/28 165/31/28 163/32/28
f 19/33/5 73/34/5 74/35/5 72/36/5
f 106/37/13 105/38/13 103/39/13 104/40/13
f 43/41/2 41/42/2 42/43/2
f 45/44/2 43/41/2 44/43/2
f 224/27/28 226/26/28 225/25/28 223/28/28
f 49/35/4 47/45/4 48/34/4
f 27/46/4 48/34/4 50/45/4
f 174/47/30 171/48/30 172/15/30 173/16/30
f 55/45/5 53/41/5 54/46/5
f 57/44/5 54/46/5 56/41/5
f 138/49/21 137/39/21 135/50/21 136/51/21
f 64/43/2 62/42/2 63/44/2
f 66/41/2 65/44/2 62/42/2
f 190/52/29 188/53/29 189/54/29 187/55/29
f 69/45/4 68/35/4 29/46/4
f 71/34/4 29/46/4 70/35/4
f 29/18/4 27/17/4 28/56/4 26/57/4
f 194/53/30 191/54/30 192/58/30 193/59/30
f 86/40/8 84/60/8 85/61/8 83/62/8
f 122/63/17 120/12/17 121/50/17 119/61/17
f 82/10/7 80/64/7 81/63/7 79/11/7
f 90/11/9 88/63/9 89/61/9 87/60/9
f 118/49/16 117/39/16 115/50/16 116/51/16
f 114/40/15 112/39/15 113/50/15 111/60/15
f 202/26/28 200/25/28 201/28/28 199/27/28
f 237/25/27 238/26/27 235/27/27 236/28/27
f 46/34/3 37/65/3 34/4/3 10/33/3
f 144/39/23 146/49/23 145/51/23 143/50/23
f 126/38/18 124/66/18 125/62/18 123/39/18
f 134/50/20 131/39/20 132/62/20 133/61/20
f 130/64/19 128/9/19 129/12/19 127/63/19
f 150/60/24 148/67/24 149/68/24 147/40/24
f 93/66/10 94/37/10 91/40/10 92/62/10
f 141/67/22 142/60/22 139/40/22 140/68/22
f 98/49/11 97/39/11 95/50/11 96/51/11
f 170/69/29 168/70/29 169/14/29 167/71/29
f 154/72/25 152/73/25 153/74/25 151/75/25
f 158/76/26 156/77/26 157/78/26 155/79/26
f 246/28/29 244/27/29 245/26/29 243/25/29
f 33/80/1 31/57/1 32/56/1 30/81/1
f 222/28/25 220/27/25 221/26/25 219/25/25
f 76/46/6 78/44/6 77/41/6 75/45/6
f 176/82/25 178/83/25 177/84/25 175/85/25
f 242/22/26 239/21/26 240/24/26 241/23/26
f 182/86/26 179/87/26 180/88/26 181/89/26
f 17/2/4 15/90/4 16/91/4 14/3/4
f 4/6/1 2/3/1 3/91/1 1/8/1
f 61/92/1 59/93/1 60/36/1 58/35/1
f 234/94/30 232/95/30 233/96/30 231/97/30
f 102/11/12 100/60/12 101/50/12 99/12/12
f 228/21/25 230/22/25 229/23/25 227/24/25
f 198/53/27 195/54/27 196/55/27 197/52/27
f 186/98/28 184/99/28 185/100/28 183/101/28
f 40/93/1 38/92/1 39/35/1 3/36/1
f 23/90/6 25/102/6 24/103/6 22/91/6
f 11/2/3 13/104/3 12/105/3 10/90/3
f 210/94/30 208/95/30 209/96/30 207/97/30
f 218/22/29 215/21/29 216/24/29 217/23/29
f 52/35/6 51/34/6 23/33/6 22/36/6
f 36/4/3 35/65/3 67/34/3 11/33/3
