# Blender 5.0.1
# www.blender.org
mtllib BP_ChorusTree_blossom.mtl
o SM_CrossLeaf_ChorusPlant.001
v 398.732697 252.483795 540.174316
v 300.000000 287.500000 482.263000
v 300.000000 231.250000 482.263000
v 362.499908 150.000000 482.263000
v 398.732697 252.483795 540.174316
v 418.750000 350.000000 482.263000
v 381.250000 350.000000 482.263000
v 300.000000 287.500000 482.263000
v 398.732697 252.483795 540.174316
v 362.499908 150.000000 482.263000
v 425.000000 150.000000 482.263000
v 500.000000 231.250000 482.263092
v 398.732697 252.483795 540.174316
v 500.000000 231.250000 482.263092
v 500.000000 268.750000 482.263092
v 418.750000 350.000000 482.263000
v 328.831604 321.949493 462.500000
v 328.831604 321.949493 518.750000
v 373.025787 277.755310 600.000000
v 417.220001 233.561203 600.000000
v 470.252991 180.528198 518.750000
v 412.800507 237.980606 400.000000
v 386.283997 264.497101 400.000000
v 470.252991 180.528198 481.250000
v 328.831604 182.737900 462.500000
v 328.831604 182.737900 518.750000
v 373.025787 226.932007 600.000000
v 417.220001 271.126190 600.000000
v 470.252899 324.159210 518.750000
v 412.800598 266.706787 400.000000
v 386.284088 240.190308 400.000000
v 470.252899 324.159210 481.250000
vn -0.4594 -0.2145 0.8619
vn -0.5059 -0.0000 0.8626
vn -0.4753 -0.1530 0.8664
vn -0.4249 -0.3268 0.8442
vn -0.2490 0.4611 0.8517
vn -0.0000 0.5106 0.8598
vn -0.1533 0.4841 0.8615
vn -0.3353 0.4359 0.8352
vn 0.2662 -0.4216 0.8668
vn -0.0000 -0.4920 0.8706
vn 0.1817 -0.4481 0.8753
vn 0.4013 -0.3705 0.8377
vn 0.4329 0.3138 0.8451
vn 0.4964 -0.0000 0.8681
vn 0.4678 0.1733 0.8667
vn 0.4043 0.4043 0.8205
vn 0.7071 0.7071 -0.0000
vn -0.7071 0.7071 -0.0000
vt 1.029297 0.608643
vt 0.505859 0.487793
vt 1.019531 0.305664
vt 0.692871 1.018692
vt 0.608887 -0.027344
vt 0.401123 -0.021484
vt 0.357666 1.026794
vt -0.020187 0.596924
vt -0.025696 0.388184
vt 0.687500 0.999969
vt 1.000000 0.312500
vt 1.000000 0.593750
vt -0.000031 0.593994
vt 0.375000 0.999969
vt 0.406006 0.000000
vt 0.593262 0.000000
vt 0.000031 0.406738
s 1
usemtl MI_ChorusTree_leaves_Outer
f 3/1/3 1/2/1 2/3/2
f 1/2/1 3/1/3 4/4/4
f 7/5/7 5/2/5 6/6/6
f 5/2/5 7/5/7 8/3/8
f 11/7/11 9/2/9 10/4/10
f 9/2/9 11/7/11 12/8/12
f 15/9/15 13/2/13 14/8/14
f 13/2/13 15/9/15 16/6/16
f 19/10/17 17/11/17 18/12/17
f 21/13/17 19/10/17 20/14/17
f 21/13/17 17/11/17 19/10/17
f 22/15/17 17/11/17 21/13/17
f 22/15/17 23/16/17 17/11/17
f 22/15/17 21/13/17 24/17/17
f 27/10/18 25/11/18 26/12/18
f 29/13/18 27/10/18 28/14/18
f 29/13/18 25/11/18 27/10/18
f 30/15/18 25/11/18 29/13/18
f 30/15/18 31/16/18 25/11/18
f 30/15/18 29/13/18 32/17/18
