# Blender 5.0.1
# www.blender.org
mtllib BP_China_PotOpen.mtl
o SM_China_PotOpen.001
v -6.250003 -37.500008 31.249998
v 6.250003 -37.500008 31.249998
v -6.250003 -37.500008 37.500000
v 6.250003 -37.500008 37.500000
v -6.250003 37.500008 37.500000
v 6.250003 37.500008 31.250002
v -6.250003 37.500004 31.250002
v 6.250003 37.500008 37.500000
v -6.250003 -37.500008 37.500000
v -6.250003 -31.250002 31.249998
v -6.250003 -37.500008 31.249998
v -6.250003 -31.249998 37.500000
v -6.250003 -37.500008 31.249998
v 6.250003 -31.250006 31.249998
v 6.250003 -37.500008 31.249998
v -6.250003 -31.250002 31.249998
v 6.250003 -37.500008 37.500000
v 6.250003 -37.500008 31.249998
v 6.250003 -31.250006 31.249998
v 6.250003 -31.250002 37.500000
v -6.250003 -37.500008 37.500000
v 6.250003 -37.500008 37.500000
v 6.250003 -31.250002 37.500000
v -6.250003 -31.249998 37.500000
v 6.250003 31.250002 31.250002
v -6.250003 31.249998 31.250002
v -6.250003 37.500004 31.250002
v 6.250003 37.500008 31.250002
v -6.250003 31.249998 37.500000
v -6.250003 37.500004 31.250002
v -6.250003 31.249998 31.250002
v -6.250003 37.500008 37.500000
v 6.250003 31.250002 37.500000
v -6.250003 37.500008 37.500000
v -6.250003 31.249998 37.500000
v 6.250003 37.500008 37.500000
v 6.250003 37.500008 31.250002
v 6.250003 31.250002 37.500000
v 6.250003 31.250002 31.250002
v 6.250003 37.500008 37.500000
v -6.250003 -31.249998 37.500000
v -30.860014 -31.249998 37.500000
v -30.860014 -31.250002 31.249998
v -6.250003 -31.250002 31.249998
v -30.860014 -31.250000 0.061454
v -6.250003 -31.250004 0.061454
v 6.250003 -31.250006 31.249998
v 6.250003 -31.250004 0.061454
v 30.860014 -31.250002 31.249998
v 30.860014 -31.250000 0.061454
v 6.250003 -31.250002 37.500000
v 30.860014 -31.249998 37.500000
v -25.000002 25.000002 37.500000
v -25.000000 25.000000 6.250001
v -6.250001 25.000002 37.500000
v -6.250000 24.999998 6.250001
v 6.250001 25.000002 37.500000
v 6.250000 24.999996 6.250001
v 25.000000 25.000000 6.250001
v 25.000002 25.000002 37.500000
v -6.250003 6.249999 0.000050
v -30.860018 6.250003 0.000050
v -30.860014 31.249996 0.061456
v -6.250003 31.250000 0.061456
v 6.250003 6.249999 0.000050
v 6.250003 31.250000 0.061456
v 30.860014 31.249996 0.061456
v 30.860018 6.250003 0.000050
v 30.860014 -31.250000 0.061454
v 6.250003 -31.250004 0.061454
v 30.860014 -6.250003 0.000050
v 6.250003 -6.249999 0.000050
v -6.250003 -31.250004 0.061454
v -6.250003 -6.249999 0.000050
v -30.860014 -6.250003 0.000050
v -30.860014 -31.250000 0.061454
v 25.000002 -25.000006 37.500000
v 30.860014 -31.249998 37.500000
v 6.250001 -25.000006 37.500000
v -6.250000 -25.000004 37.500000
v -25.000002 -25.000006 37.500000
v -30.860014 -31.249998 37.500000
v 25.000002 25.000002 37.500000
v 30.860014 31.249998 37.500000
v 6.250001 25.000002 37.500000
v -6.250001 25.000002 37.500000
v -25.000002 25.000002 37.500000
v -30.860014 31.249998 37.500000
v 30.860018 6.250000 37.500000
v 25.000002 6.250000 37.500000
v 30.860014 -6.250002 37.500000
v 25.000002 -6.250001 37.500000
v -30.860018 6.250000 37.500000
v -25.000002 6.250000 37.500000
v -30.860014 -6.250002 37.500000
v -25.000004 -6.250002 37.500000
v 25.000000 -25.000000 6.249999
v 6.250001 -25.000006 37.500000
v 25.000002 -25.000006 37.500000
v 6.250000 -25.000000 6.249999
v -6.250000 -25.000004 37.500000
v -6.250000 -24.999998 6.249999
v -25.000000 -25.000000 6.249999
v -25.000002 -25.000006 37.500000
v 25.000002 6.250000 37.500000
v 25.000002 25.000002 37.500000
v 25.000000 25.000000 6.250001
v 25.000000 6.250000 6.250000
v 25.000002 -6.250001 37.500000
v 25.000000 -6.250000 6.250000
v 25.000000 -25.000000 6.249999
v 25.000002 -25.000006 37.500000
v -25.000000 -25.000000 6.249999
v -25.000004 -6.250002 37.500000
v -25.000002 -25.000006 37.500000
v -25.000002 -6.250000 6.250000
v -25.000002 6.250000 37.500000
v -25.000000 6.250000 6.250000
v -25.000000 25.000000 6.250001
v -25.000002 25.000002 37.500000
v -6.250003 31.249998 31.250002
v -30.860014 31.249998 37.500000
v -6.250003 31.249998 37.500000
v -30.860014 31.249994 31.250002
v -6.250003 31.250000 0.061456
v -30.860014 31.249996 0.061456
v 6.250003 31.250002 31.250002
v 6.250003 31.250000 0.061456
v 30.860014 31.249994 31.250002
v 30.860014 31.249996 0.061456
v 6.250003 31.250002 37.500000
v 30.860014 31.249998 37.500000
v 30.860018 6.250000 37.500000
v 30.860014 31.249994 31.250002
v 30.860014 31.249998 37.500000
v 30.860018 6.250000 31.250000
v 30.860014 31.249996 0.061456
v 30.860018 6.250003 0.000050
v 30.860014 -6.250002 37.500000
v 30.860014 -6.250003 0.000050
v 30.860014 -6.250002 31.250000
v 30.860014 -31.249998 37.500000
v 30.860014 -31.250000 0.061454
v 30.860014 -31.250002 31.249998
v 6.250000 -25.000000 6.249999
v 25.000000 -25.000000 6.249999
v 25.000000 -6.250000 6.250000
v 6.250000 -6.250000 6.250000
v -6.250000 -24.999998 6.249999
v 25.000000 6.250000 6.250000
v -25.000002 -6.250000 6.250000
v -25.000000 -25.000000 6.249999
v -6.250000 -6.250000 6.250000
v -25.000000 6.250000 6.250000
v 6.250000 6.250000 6.250000
v 6.250000 24.999996 6.250001
v 25.000000 25.000000 6.250001
v -6.250000 6.250000 6.250000
v -6.250000 24.999998 6.250001
v -25.000000 25.000000 6.250001
v -30.860014 31.249994 31.250002
v -30.860018 6.250000 37.500000
v -30.860014 31.249998 37.500000
v -30.860018 6.250000 31.250000
v -30.860014 31.249996 0.061456
v -30.860018 6.250003 0.000050
v -30.860014 -6.250002 31.250000
v -30.860014 -6.250002 37.500000
v -30.860014 -6.250003 0.000050
v -30.860014 -31.249998 37.500000
v -30.860014 -31.250000 0.061454
v -30.860014 -31.250002 31.249998
vn -0.0000 -1.0000 -0.0000
vn -0.0000 1.0000 -0.0000
vn -1.0000 -0.0000 -0.0000
vn -0.0000 -0.0000 -1.0000
vn 1.0000 -0.0000 -0.0000
vn -0.0000 -0.0000 1.0000
vn -0.0000 0.0012 -1.0000
vn -0.0000 0.0025 -1.0000
vn -0.0000 -0.0025 -1.0000
vn -0.0000 -0.0012 -1.0000
vt 0.843750 0.906250
vt 0.843750 0.843750
vt 0.906250 0.843750
vt 0.906250 0.906250
vt 0.468750 0.875000
vt 0.468750 0.812500
vt 0.593750 0.812500
vt 0.593750 0.875000
vt 0.531250 0.687500
vt 0.468750 0.687500
vt 0.468750 0.656250
vt 0.531250 0.656250
vt 0.218750 0.687500
vt 0.156250 0.687500
vt 0.156250 0.656250
vt 0.218750 0.656250
vt 0.343750 0.625000
vt 0.343750 0.656250
vt 0.218750 0.625000
vt 0.406250 0.999969
vt 0.281250 0.999969
vt 0.281250 0.875000
vt 0.406250 0.875000
vt 0.031250 0.625000
vt 0.156250 0.625000
vt 0.031250 0.656250
vt 0.468750 0.999969
vt 0.593750 0.999969
vt 0.406250 0.812500
vt 0.906250 0.750000
vt 1.000000 0.750000
vt 1.000000 0.843750
vt 0.750000 0.593750
vt 0.843750 0.593750
vt 0.843750 0.750000
vt 0.750000 0.750000
vt 0.531250 0.625000
vt 0.656250 0.625000
vt 0.656250 0.656250
vt 0.531250 0.468750
vt 0.656250 0.468750
vt 0.687500 0.656250
vt 0.718750 0.656250
vt 0.718750 0.718750
vt 0.687500 0.718750
vt 0.718750 0.750000
vt 0.687500 0.750000
vt 0.343750 0.468750
vt 0.468750 0.468750
vt 0.468750 0.625000
vt 0.656250 0.718750
vt 0.750000 0.656250
vt 0.750000 0.718750
vt 1.000000 0.906250
vt 0.406250 0.687500
vt 0.281250 0.812500
vt 0.281250 0.687500
vt 0.718750 0.625000
vt 0.687500 0.625000
vt 0.625000 0.687500
vt 0.031250 0.468750
vt 0.156250 0.468750
vt 0.375000 0.687500
vt 0.312500 0.687500
vt 0.062500 0.687500
vt 0.906250 0.593750
vt 1.000000 0.593750
vt 0.750000 0.843750
vt 0.750000 0.906250
vt 0.593750 0.906250
vt 0.593750 0.843750
vt 1.000000 0.999969
vt 0.906250 0.999969
vt 0.218750 0.468750
vt 0.593750 0.750000
vt 0.750000 0.999969
vt 0.593750 0.687500
vt 0.843750 0.999969
s 1
usemtl MI_China_Pots
f 158/1/6 153/2/6 148/3/6 155/4/6
f 72/5/10 65/6/7 68/7/7 71/8/10
f 86/9/6 85/10/6 33/11/6 35/12/6
f 90/13/6 92/14/6 91/15/6 89/16/6
f 172/17/3 170/18/3 168/16/3 167/19/3
f 73/20/9 76/21/9 75/22/10 74/23/10
f 144/24/5 141/25/5 139/15/5 142/26/5
f 164/25/3 162/15/3 163/26/3 161/24/3
f 70/27/9 72/5/10 71/8/10 69/28/9
f 72/5/10 74/23/10 61/29/7 65/6/7
f 148/3/6 145/30/6 146/31/6 147/32/6
f 60/33/1 57/34/1 58/35/1 59/36/1
f 121/37/2 124/38/2 122/39/2 123/12/2
f 125/40/2 126/41/2 124/38/2 121/37/2
f 2/42/1 4/43/1 3/44/1 1/45/1
f 40/44/5 38/46/5 39/47/5 37/45/5
f 129/17/2 130/48/2 128/49/2 127/50/2
f 16/51/4 14/39/4 15/42/4 13/45/4
f 96/13/6 94/14/6 93/15/6 95/16/6
f 36/44/6 34/43/6 35/52/6 33/53/6
f 8/44/2 6/45/2 7/42/2 5/43/2
f 24/53/6 21/44/6 22/43/6 23/52/6
f 155/4/6 148/3/6 147/32/6 150/54/6
f 64/55/8 61/29/7 62/56/7 63/57/8
f 80/10/6 24/11/6 23/12/6 79/9/6
f 104/33/2 101/34/2 102/35/2 103/36/2
f 20/58/5 17/43/5 18/42/5 19/59/5
f 78/39/6 77/60/6 23/12/6
f 79/9/6 23/12/6 77/60/6
f 141/25/5 144/24/5 143/61/5 140/62/5
f 80/10/6 81/63/6 24/11/6
f 82/18/6 24/11/6 81/63/6
f 84/18/6 33/11/6 83/63/6
f 85/10/6 83/63/6 33/11/6
f 127/50/2 128/49/2 125/40/2 121/37/2
f 35/12/6 87/60/6 86/9/6
f 87/60/6 35/12/6 88/39/6
f 83/64/6 89/16/6 84/18/6
f 89/16/6 83/64/6 90/13/6
f 66/10/8 65/6/7 61/29/7 64/55/8
f 92/14/6 77/65/6 91/15/6
f 78/26/6 91/15/6 77/65/6
f 88/26/6 93/15/6 87/65/6
f 94/14/6 87/65/6 93/15/6
f 62/56/7 61/29/7 74/23/10 75/22/10
f 96/13/6 95/16/6 81/64/6
f 81/64/6 95/16/6 82/18/6
f 56/30/1 55/66/1 53/67/1 54/31/1
f 108/68/3 110/69/3 109/70/3 105/71/3
f 49/38/1 52/39/1 51/12/1 47/37/1
f 155/4/6 150/54/6 157/72/6 156/73/6
f 166/62/3 169/74/3 167/19/3 164/25/3
f 116/68/5 114/71/5 115/75/5 113/36/5
f 120/28/5 117/70/5 118/69/5 119/76/5
f 97/31/2 100/30/2 98/66/2 99/67/2
f 141/25/5 140/62/5 138/74/5 136/19/5
f 132/18/2 129/17/2 127/50/2 131/11/2
f 73/20/9 74/23/10 72/5/10 70/27/9
f 48/40/1 47/37/1 44/50/1 46/49/1
f 46/49/1 44/50/1 43/17/1 45/48/1
f 68/7/7 65/6/7 66/10/8 67/77/8
f 32/43/3 30/42/3 31/59/3 29/58/3
f 50/41/1 49/38/1 47/37/1 48/40/1
f 153/2/6 149/35/6 145/30/6 148/3/6
f 12/46/3 10/47/3 11/45/3 9/44/3
f 172/17/3 167/19/3 169/74/3 171/48/3
f 100/30/2 102/35/2 101/34/2 98/66/2
f 153/2/6 151/68/6 152/36/6 149/35/6
f 44/50/1 41/11/1 42/18/1 43/17/1
f 158/1/6 154/69/6 151/68/6 153/2/6
f 159/78/6 158/1/6 155/4/6 156/73/6
f 139/15/5 141/25/5 136/19/5 133/16/5
f 112/28/3 109/70/3 110/69/3 111/76/3
f 160/76/6 154/69/6 158/1/6 159/78/6
f 58/35/1 57/34/1 55/66/1 56/30/1
f 28/45/4 25/51/4 26/39/4 27/42/4
f 138/74/5 137/48/5 134/17/5 136/19/5
f 118/69/5 117/70/5 114/71/5 116/68/5
f 107/36/3 108/68/3 105/71/3 106/75/3
f 133/16/5 136/19/5 134/17/5 135/18/5
f 166/62/3 164/25/3 161/24/3 165/61/3
f 167/19/3 168/16/3 162/15/3 164/25/3
