# Blender 5.0.1
# www.blender.org
mtllib BP_Candle_Jungle.mtl
o SM_TikiTorch2.001
v 6.250000 -0.000006 -19.750000
v -6.250000 -0.000006 -19.750000
v -6.250000 -0.000006 -32.250000
v 6.250000 -0.000006 -32.250000
v -6.250000 100.000008 -19.750000
v -6.250000 -0.000006 -19.750000
v 6.250000 100.000008 -19.750000
v 6.250000 -0.000006 -19.750000
v -12.500000 100.000000 -38.500000
v -12.500000 150.000000 -38.500000
v 12.500000 100.000000 -38.500000
v 12.500000 150.000000 -38.500000
v 6.250000 -0.000006 -19.750000
v 6.250000 100.000000 -32.250000
v 6.250000 100.000008 -19.750000
v 6.250000 -0.000006 -32.250000
v -12.500000 100.000000 -13.500000
v -12.500000 150.000000 -13.500000
v -12.500000 150.000000 -38.500000
v -12.500000 100.000000 -38.500000
v -12.500000 150.000000 -13.500000
v -12.500000 100.000000 -13.500000
v 12.500000 150.000000 -13.500000
v 12.500000 100.000000 -13.500000
v -6.250000 -0.000006 -32.250000
v -6.250000 100.000000 -32.250000
v 6.250000 -0.000006 -32.250000
v 6.250000 100.000000 -32.250000
v 12.500000 100.000000 -38.500000
v 12.500000 150.000000 -38.500000
v 12.500000 100.000000 -13.500000
v 12.500000 150.000000 -13.500000
v -6.250000 100.000000 -32.250000
v -6.250000 -0.000006 -19.750000
v -6.250000 100.000008 -19.750000
v -6.250000 -0.000006 -32.250000
v -12.500000 150.000000 -13.500000
v 12.500000 150.000000 -13.500000
v 12.500000 150.000000 -38.500000
v -12.500000 150.000000 -38.500000
v 6.250000 100.000000 -32.250000
v -6.250000 100.000000 -32.250000
v -12.500000 100.000000 -38.500000
v 12.500000 100.000000 -38.500000
v -12.500000 100.000000 -13.500000
v 6.250000 100.000008 -19.750000
v -6.250000 100.000008 -19.750000
v 12.500000 100.000000 -13.500000
vn -0.0000 -1.0000 -0.0000
vn -0.0000 -0.0000 1.0000
vn -0.0000 -0.0000 -1.0000
vn 1.0000 -0.0000 -0.0000
vn -1.0000 -0.0000 -0.0000
vn -0.0000 1.0000 -0.0000
vt 0.750000 0.999969
vt 0.500000 0.999969
vt 0.500000 0.500000
vt 0.750000 0.500000
vt -0.000031 0.999969
vt -0.000031 0.000000
vt 0.125000 0.000000
vt 0.125000 0.999969
vt 0.500000 0.000000
vt 0.750000 0.000000
vt 0.250000 0.000000
vt 0.250000 0.999969
vt 0.250000 0.500000
vt 0.937500 0.812500
vt 0.937500 0.937500
vt 0.812500 0.937500
vt 0.812500 0.812500
vt 0.750000 0.750000
vt 1.000000 0.750000
vt 1.000000 0.999969
vt 1.000000 0.500000
s 1
usemtl MI_TikiTorch2
f 30/1/4 32/2/4 31/3/4 29/4/4
f 28/5/3 27/6/3 25/7/3 26/8/3
f 20/9/5 17/10/5 18/4/5 19/3/5
f 8/8/2 7/7/2 5/11/2 6/12/2
f 36/7/5 34/11/5 35/12/5 33/8/5
f 24/3/2 23/2/2 21/12/2 22/13/2
f 12/13/3 11/11/3 9/9/3 10/3/3
f 16/5/4 14/6/4 15/7/4 13/8/4
f 4/14/1 1/15/1 2/16/1 3/17/1
f 43/18/1 41/14/1 42/17/1
f 44/19/1 41/14/1 43/18/1
f 42/17/1 45/1/1 43/18/1
f 41/14/1 44/19/1 46/15/1
f 47/16/1 45/1/1 42/17/1
f 46/15/1 44/19/1 48/20/1
f 47/16/1 48/20/1 45/1/1
f 46/15/1 48/20/1 47/16/1
f 40/18/6 37/4/6 38/21/6 39/19/6
