# Blender 5.0.1
# www.blender.org
mtllib BP_Chair.mtl
o SM_Chair.001
v -24.189400 24.189400 0.874901
v -24.189400 32.252598 53.022999
v -24.189400 24.189398 53.022999
v -24.189400 32.252602 0.874901
v -32.252602 32.252602 0.874901
v -32.252602 32.252598 53.022999
v -24.189400 32.252602 0.874901
v -24.189400 32.252598 53.022999
v 24.189400 32.252602 0.874901
v 24.189400 32.252598 53.022999
v 32.252602 32.252602 0.874901
v 32.252602 32.252598 53.022999
v -32.252602 24.189394 143.351898
v -32.252602 32.252598 63.245602
v -32.252602 24.189398 63.245602
v -32.252602 32.252594 143.351898
v -24.189400 -32.252602 0.874899
v -24.189400 -24.189402 53.022999
v -24.189400 -32.252605 53.022999
v -24.189400 -24.189400 0.874899
v 32.252602 24.189400 0.874901
v 24.189400 24.189400 0.874901
v 32.252602 32.252602 0.874901
v 24.189400 32.252602 0.874901
v 32.252602 -32.252602 0.874899
v 24.189400 -32.252602 0.874899
v 32.252602 -24.189400 0.874899
v 24.189400 -24.189400 0.874899
v -24.189400 -32.252602 0.874899
v -32.252602 -32.252602 0.874899
v -24.189400 -24.189400 0.874899
v -32.252602 -24.189400 0.874899
v -24.189400 24.189400 0.874901
v -32.252602 24.189400 0.874901
v -24.189400 32.252602 0.874901
v -32.252602 32.252602 0.874901
v 24.189400 -24.189400 0.874899
v 24.189400 -24.189402 53.022999
v 32.252602 -24.189400 0.874899
v 32.252602 -24.189402 53.022999
v 24.189400 -24.189402 53.022999
v 24.189400 -24.189400 0.874899
v 24.189400 -32.252605 53.022999
v 24.189400 -32.252602 0.874899
v -32.252602 -24.189400 0.874899
v -32.252602 -24.189402 53.022999
v -24.189400 -24.189400 0.874899
v -24.189400 -24.189402 53.022999
v 24.189400 24.189400 0.874901
v 32.252602 24.189398 53.022999
v 24.189400 24.189398 53.022999
v 32.252602 24.189400 0.874901
v -32.252602 24.189398 53.022999
v -32.252602 24.189400 0.874901
v -24.189400 24.189398 53.022999
v -24.189400 24.189400 0.874901
v -32.252602 -24.189402 53.022999
v -32.252602 -24.189400 0.874899
v -32.252602 -32.252605 53.022999
v -32.252602 -32.252602 0.874899
v 24.189400 32.252598 53.022999
v 24.189400 32.252602 0.874901
v 24.189400 24.189398 53.022999
v 24.189400 24.189400 0.874901
v -32.252602 -32.252605 53.022999
v -32.252602 -32.252602 0.874899
v -24.189400 -32.252605 53.022999
v -24.189400 -32.252602 0.874899
v 24.189400 -32.252602 0.874899
v 32.252602 -32.252605 53.022999
v 24.189400 -32.252605 53.022999
v 32.252602 -32.252602 0.874899
v 32.252602 -32.252602 0.874899
v 32.252602 -24.189402 53.022999
v 32.252602 -32.252605 53.022999
v 32.252602 -24.189400 0.874899
v -32.252602 32.252598 53.022999
v -32.252602 32.252602 0.874901
v -32.252602 24.189398 53.022999
v -32.252602 24.189400 0.874901
v 32.252602 24.189400 0.874901
v 32.252602 32.252598 53.022999
v 32.252602 24.189398 53.022999
v 32.252602 32.252602 0.874901
v 32.252602 32.252598 63.245602
v 32.252602 32.252594 143.351898
v 32.252602 24.189398 63.245602
v 32.252602 24.189394 143.351898
v -32.252602 32.252598 63.245602
v -24.189400 32.252598 63.245602
v 24.189400 32.252598 63.245602
v 32.252602 32.252598 63.245602
v 32.252602 -32.252605 63.245602
v 32.252602 -24.189402 63.245602
v 32.252602 24.189394 143.351898
v 32.252602 32.252594 143.351898
v 24.189400 24.189394 143.351898
v 24.189400 32.252594 143.351898
v -24.189400 24.189394 143.351898
v -24.189400 32.252594 143.351898
v -32.252602 24.189394 143.351898
v -32.252602 32.252594 143.351898
v -32.252602 24.189394 143.351898
v -32.252602 24.189398 63.245602
v -24.189400 24.189394 143.351898
v -24.189400 24.189398 63.245602
v 24.189400 24.189394 143.351898
v 24.189400 24.189398 63.245602
v 32.252602 24.189394 143.351898
v 32.252602 24.189398 63.245602
v -32.252602 -32.252605 63.245602
v -32.252602 -24.189402 63.245602
v 32.252602 -32.252605 63.245602
v 24.189400 -32.252605 63.245602
v -24.189400 -32.252605 63.245602
v -32.252602 -32.252605 63.245602
v 24.189400 32.252594 143.351898
v 32.252602 32.252594 143.351898
v -24.189400 32.252594 143.351898
v -32.252602 32.252594 143.351898
v 24.189400 -32.252605 53.022999
v -24.189400 -32.252605 53.022999
v -24.189400 -24.189402 53.022999
v 24.189400 -24.189402 53.022999
v 32.252602 24.189398 53.022999
v 32.252602 -24.189402 53.022999
v 24.189400 24.189398 53.022999
v -24.189400 24.189398 53.022999
v -32.252602 -24.189402 53.022999
v -32.252602 24.189398 53.022999
v 24.189400 32.252598 53.022999
v -24.189400 32.252598 53.022999
v 32.252602 -32.252605 63.245602
v 32.252602 -24.189402 63.245602
v 24.189400 -32.252605 63.245602
v 24.189400 -24.189402 63.245602
v 32.252602 24.189398 63.245602
v -24.189400 -32.252605 63.245602
v 24.189400 24.189398 63.245602
v -24.189400 -24.189402 63.245602
v -32.252602 -32.252605 63.245602
v -24.189400 24.189398 63.245602
v -32.252602 -24.189402 63.245602
v -32.252602 24.189398 63.245602
vn 1.0000 -0.0000 -0.0000
vn -0.0000 1.0000 -0.0000
vn -1.0000 -0.0000 -0.0000
vn -0.0000 -0.0000 -1.0000
vn -0.0000 -1.0000 -0.0000
vn -0.0000 -0.0000 1.0000
vt 0.937500 0.218750
vt 0.937500 0.031250
vt 0.984375 0.031250
vt 0.984375 0.218750
vt 0.000031 0.968750
vt -0.000031 0.781250
vt 0.328125 0.781250
vt 0.328125 0.968750
vt 0.687500 0.999969
vt 0.359375 0.999969
vt 0.359375 0.968750
vt 0.687500 0.968750
vt -0.000031 0.718750
vt -0.000031 0.687500
vt 0.328125 0.687500
vt 0.328125 0.718750
vt 0.906250 0.968750
vt 0.906250 0.999969
vt 0.359375 0.781250
vt 0.421875 0.750000
vt 0.421875 0.546875
vt 0.453125 0.546875
vt 0.453125 0.750000
vt 0.984375 0.250000
vt 0.984375 0.281250
vt 0.937500 0.281250
vt 0.937500 0.250000
vt 0.390625 0.546875
vt 0.390625 0.750000
vt 0.359375 0.750000
vt 0.359375 0.546875
vt 0.328125 0.750000
vt -0.000031 0.750000
vt 0.937500 0.000000
vt 0.984375 0.000000
vt 0.421875 0.718750
vt 0.453125 0.718750
vt 0.984375 0.531250
vt 0.937500 0.531250
vt 0.937500 0.500000
vt 0.984375 0.500000
vt 0.984375 0.968750
vt 0.937500 0.968750
vt 0.937500 0.781250
vt 0.984375 0.781250
vt 0.906250 0.781250
vt 0.687500 0.781250
vt 0.328125 0.546875
vt 0.328125 0.999969
vt 0.687500 0.750000
vt 0.906250 0.750000
vt 0.937500 0.750000
vt 0.984375 0.718750
vt 0.937500 0.718750
vt 0.984375 0.468750
vt 0.937500 0.468750
vt 0.000031 0.999969
vt 0.984375 0.750000
vt 0.984375 0.999969
vt 0.937500 0.999969
vt 0.218750 0.468750
vt 0.250000 0.468750
vt 0.250000 0.656250
vt 0.218750 0.656250
vt 0.031250 0.687500
vt 0.031250 0.656250
vt 0.218750 0.687500
vt -0.000031 0.656250
vt -0.000031 0.468750
vt 0.031250 0.468750
vt 0.031250 0.437500
vt 0.218750 0.437500
s 1
usemtl MI_Chair
f 74/1/1 83/2/1 87/3/1 94/4/1
f 91/5/2 90/6/2 119/7/2 117/8/2
f 110/9/5 109/10/5 107/11/5 108/12/5
f 86/13/1 88/14/1 87/15/1 85/16/1
f 139/12/6 136/17/6 134/18/6 137/9/6
f 100/7/6 99/19/6 97/11/6 98/8/6
f 40/20/2 39/21/2 37/22/2 38/23/2
f 113/24/5 114/25/5 71/26/5 70/27/5
f 72/28/5 70/29/5 71/30/5 69/31/5
f 4/21/1 2/20/1 3/29/1 1/28/1
f 56/22/5 55/23/5 53/20/5 54/21/5
f 52/22/5 50/23/5 51/20/5 49/21/5
f 20/21/1 18/20/1 19/29/1 17/28/1
f 8/29/2 7/28/2 5/21/2 6/20/2
f 62/28/3 64/21/3 63/20/3 61/29/3
f 16/13/3 14/16/3 15/32/3 13/33/3
f 83/2/1 82/34/1 85/35/1 87/3/1
f 12/29/2 11/28/2 9/21/2 10/20/2
f 78/28/3 80/21/3 79/20/3 77/29/3
f 30/20/4 32/36/4 31/37/4 29/23/4
f 112/38/3 57/39/3 59/40/3 111/41/3
f 26/20/4 28/36/4 27/37/4 25/23/4
f 91/42/2 10/43/2 8/44/2 90/45/2
f 22/20/4 24/36/4 23/37/4 21/23/4
f 89/33/2 120/32/2 119/7/2 90/6/2
f 140/46/6 138/44/6 135/43/6 136/17/6
f 48/20/2 47/21/2 45/22/2 46/23/2
f 75/27/1 74/1/1 94/4/1 93/24/1
f 142/47/6 140/46/6 136/17/6 139/12/6
f 42/48/3 44/31/3 43/30/3 41/32/3
f 68/28/5 67/29/5 65/30/5 66/31/5
f 98/8/6 97/11/6 95/10/6 96/49/6
f 102/32/6 101/30/6 99/19/6 100/7/6
f 58/48/3 60/31/3 59/30/3 57/32/3
f 108/12/5 107/11/5 105/19/5 106/47/5
f 106/47/5 105/19/5 103/30/5 104/50/5
f 143/51/6 141/52/6 138/44/6 140/46/6
f 34/20/4 36/36/4 35/37/4 33/23/4
f 84/21/1 82/20/1 83/29/1 81/28/1
f 15/53/3 79/54/3 57/39/3 112/38/3
f 114/25/5 115/55/5 67/56/5 71/26/5
f 76/21/1 74/20/1 75/29/1 73/28/1
f 92/57/2 91/5/2 117/8/2 118/49/2
f 115/55/5 116/41/5 65/40/5 67/56/5
f 14/58/3 77/52/3 79/54/3 15/53/3
f 92/59/2 12/60/2 10/43/2 91/42/2
f 124/61/4 121/62/4 122/63/4 123/64/4
f 130/65/4 128/66/4 123/64/4 129/67/4
f 136/17/6 135/43/6 133/60/6 134/18/6
f 132/68/4 131/69/4 127/70/4 128/66/4
f 124/61/4 127/70/4 125/71/4 126/72/4
f 127/70/4 124/61/4 123/64/4 128/66/4
f 90/45/2 8/44/2 6/52/2 89/58/2
f 144/50/6 143/51/6 140/46/6 142/47/6
