# Blender 5.0.1
# www.blender.org
mtllib BP_Couch.mtl
o SM_Couch.001
v 175.000000 -0.000004 0.057206
v 200.000000 -0.000002 50.057205
v 200.000000 -0.000000 0.057206
v 175.000000 -0.000006 50.057205
v -200.000000 -0.000000 0.057206
v -175.000000 -0.000006 50.057205
v -175.000000 -0.000004 0.057206
v -200.000000 -0.000002 50.057205
v 175.000000 -100.000000 0.057201
v 175.000000 -100.000000 50.057201
v 175.000000 -74.999985 50.057201
v 175.000000 -74.999985 0.057202
v -200.000000 -74.999992 0.057202
v -175.000000 -74.999985 50.057201
v -175.000000 -74.999985 0.057202
v -200.000000 -74.999992 50.057201
v -175.000000 -100.000000 50.057201
v -175.000000 -100.000000 0.057201
v -175.000000 -74.999985 0.057202
v -175.000000 -74.999985 50.057201
v 175.000000 -74.999985 0.057202
v 200.000000 -74.999992 50.057201
v 200.000000 -74.999992 0.057202
v 175.000000 -74.999985 50.057201
v 200.000000 -100.000000 50.057201
v 200.000000 -100.000000 0.057201
v 200.000000 -74.999992 0.057202
v 200.000000 -74.999992 50.057201
v 175.000000 -100.000000 50.057201
v 175.000000 -100.000000 0.057201
v 200.000000 -100.000000 50.057201
v 200.000000 -100.000000 0.057201
v -175.000000 -100.000000 0.057201
v -175.000000 -100.000000 50.057201
v -200.000000 -100.000000 50.057201
v -200.000000 -100.000000 0.057201
v -200.000000 -100.000000 50.057201
v -200.000000 -74.999992 0.057202
v -200.000000 -100.000000 0.057201
v -200.000000 -74.999992 50.057201
v -12.500000 -6.249966 175.057205
v 12.500000 0.000015 175.057205
v -12.500000 0.000026 175.057190
v 12.500000 -6.249993 175.057220
v 37.500000 -6.250015 168.807220
v 12.500000 -0.000007 168.807205
v 12.500000 -6.250015 168.807220
v 37.500000 -0.000007 168.807205
v -12.500000 -6.249966 175.057205
v -12.500000 0.000004 168.807205
v -12.500000 -6.249988 168.807220
v -12.500000 0.000026 175.057190
v 12.500000 -6.249993 175.057220
v 12.500000 -0.000007 168.807205
v 12.500000 0.000015 175.057205
v 12.500000 -6.250015 168.807220
v -12.500000 -6.249988 168.807220
v -37.500000 0.000004 168.807205
v -37.500000 -6.249992 168.807220
v -12.500000 0.000004 168.807205
v 175.000000 -25.000002 0.057201
v 200.000000 -25.000000 50.057205
v 175.000000 -25.000004 50.057205
v 200.000000 -24.999998 0.057201
v -199.999969 -24.999998 0.057201
v -175.000000 -25.000002 50.057209
v -200.000000 -25.000000 50.057205
v -174.999969 -25.000000 0.057204
v 200.000000 -100.000000 0.057201
v 175.000000 -100.000000 0.057201
v 200.000000 -74.999992 0.057202
v 175.000000 -74.999985 0.057202
v -175.000000 -100.000000 0.057201
v -200.000000 -74.999992 0.057202
v -175.000000 -74.999985 0.057202
v -200.000000 -100.000000 0.057201
v 37.500000 -6.250030 162.557205
v 37.500000 -0.000030 162.557190
v 37.500000 -6.250015 168.807220
v 37.500000 -0.000007 168.807205
v -37.500000 0.000004 168.807205
v -37.500000 -6.250007 162.557205
v -37.500000 -6.249992 168.807220
v -37.500000 -0.000007 162.557190
v -175.000000 -100.000008 100.057198
v -200.000000 -100.000008 100.057198
v -200.000000 -100.000000 68.807205
v -175.000000 -100.000000 68.807205
v 200.000000 -100.000023 100.057182
v 175.000000 -100.000023 100.057198
v 175.000000 -100.000000 68.807198
v 200.000000 -100.000000 68.807182
v 200.000000 -100.000000 68.807182
v 200.000000 -74.999992 68.807205
v 200.000000 -25.000000 50.057205
v 200.000015 -25.000002 68.807228
v 200.000000 -18.750002 50.057205
v 200.000000 -18.750004 68.807228
v 175.000000 -25.000002 0.057201
v 175.000000 -25.000004 50.057205
v 175.000000 -18.749996 0.057203
v 175.000000 -18.749998 50.057205
v 175.000000 -6.250004 0.057206
v 175.000000 -6.250006 50.057205
v 175.000000 -0.000006 50.057205
v 175.000000 -0.000004 0.057206
v -199.999969 -24.999998 0.057201
v -200.000000 -25.000000 50.057205
v -199.999985 -18.750000 0.057203
v -200.000000 -18.750002 50.057205
v -200.000000 -6.250000 0.057206
v -200.000000 -6.250002 50.057205
v -200.000000 -0.000000 0.057206
v -200.000000 -0.000002 50.057205
v 200.000000 -24.999998 0.057201
v 175.000000 -25.000002 0.057201
v 200.000000 -18.750000 0.057203
v 175.000000 -18.749996 0.057203
v 200.000000 -6.250000 0.057206
v 175.000000 -6.250004 0.057206
v 175.000000 -0.000004 0.057206
v 200.000000 -0.000000 0.057206
v 200.000000 -18.750038 100.057213
v 200.000015 -25.000032 100.057220
v 200.000000 -75.000015 100.057205
v 200.000000 -100.000023 100.057182
v -37.500000 -100.000000 50.057205
v -37.500000 -100.000000 68.807205
v -12.500000 -100.000000 68.807205
v -12.500000 -100.000000 50.057201
v 12.499999 -100.000023 68.807205
v 12.499999 -100.000023 49.999996
v 37.500000 -100.000015 50.057201
v 37.500000 -100.000015 68.807205
v 37.500000 -75.000015 50.057201
v 175.000000 -100.000000 50.057201
v 37.500000 -100.000015 50.057201
v 175.000000 -74.999985 50.057201
v 37.500000 -25.000002 50.057201
v 200.000000 -25.000000 50.057205
v 200.000000 -74.999992 50.057201
v 175.000000 -25.000004 50.057205
v 37.500000 -18.750021 50.057205
v 175.000000 -18.749998 50.057205
v 37.500000 -6.250025 50.057205
v 175.000000 -6.250006 50.057205
v 37.500000 -0.000025 50.057205
v 175.000000 -0.000006 50.057205
v -12.500000 -100.000000 50.057201
v 12.500001 -75.000015 49.999996
v 12.499999 -100.000023 49.999996
v -12.500000 -74.999992 50.057201
v 12.499999 -25.000002 50.000000
v -12.500001 -25.000000 50.057209
v 12.499999 -18.750023 50.000000
v -12.500000 -18.750002 50.057205
v 12.499999 -6.250025 50.000000
v -12.500000 -6.250002 50.057205
v 12.500001 -0.000025 50.000000
v -12.500000 -0.000002 50.057205
v -175.000000 -6.250006 50.057205
v -175.000000 -0.000004 0.057206
v -175.000000 -0.000006 50.057205
v -175.000000 -6.250004 0.057206
v -175.000000 -18.749998 50.057205
v -174.999985 -18.749996 0.057203
v -174.999969 -25.000000 0.057204
v -175.000000 -25.000002 50.057209
v 200.000000 -6.250002 50.057205
v 200.000000 -0.000000 0.057206
v 200.000000 -0.000002 50.057205
v 200.000000 -6.250000 0.057206
v 200.000000 -18.750000 0.057203
v 200.000000 -24.999998 0.057201
v -12.500000 -0.000007 162.557190
v -37.500000 -0.000007 162.557190
v -37.500000 0.000004 168.807205
v -12.500000 0.000004 168.807205
v 12.500000 -0.000030 162.557190
v 37.500000 -0.000007 168.807205
v 37.500000 -0.000030 162.557190
v 12.500000 -0.000007 168.807205
v -12.500000 0.000026 175.057190
v 12.500000 0.000015 175.057205
v 37.500000 -6.250015 168.807220
v 12.500000 -6.250030 162.557205
v 37.500000 -6.250030 162.557205
v 12.500000 -6.250015 168.807220
v -12.500000 -6.250007 162.557205
v -12.500000 -6.249966 175.057205
v 12.500000 -6.249993 175.057220
v -12.500000 -6.249988 168.807220
v -37.500000 -6.249992 168.807220
v -37.500000 -6.250007 162.557205
v -175.000000 -0.000004 0.057206
v -200.000000 -6.250000 0.057206
v -200.000000 -0.000000 0.057206
v -175.000000 -6.250004 0.057206
v -199.999985 -18.750000 0.057203
v -174.999985 -18.749996 0.057203
v -199.999969 -24.999998 0.057201
v -174.999969 -25.000000 0.057204
v 175.000000 -75.000008 100.057205
v 175.000000 -100.000000 68.807198
v 175.000000 -100.000023 100.057198
v 175.000000 -74.999985 68.807205
v 175.000000 -25.000036 100.057213
v 175.000000 -25.000006 68.807220
v 175.000000 -18.750034 100.057213
v 175.000000 -18.750000 68.807228
v -200.000000 -100.000000 68.807205
v -200.000000 -74.999992 68.807213
v -200.000015 -25.000002 68.807236
v -200.000000 -18.750004 68.807236
v -200.000000 -100.000008 100.057198
v -175.000000 -100.000008 100.057198
v -200.000000 -75.000008 100.057205
v -175.000000 -75.000008 100.057205
v -175.000000 -25.000010 100.057220
v -200.000015 -25.000004 100.057220
v -200.000000 -18.750000 100.057213
v -175.000000 -18.749996 100.057213
v 200.000000 -75.000015 100.057205
v 175.000000 -100.000023 100.057198
v 200.000000 -100.000023 100.057182
v 175.000000 -75.000008 100.057205
v 175.000000 -25.000036 100.057213
v 200.000015 -25.000032 100.057220
v 200.000000 -18.750038 100.057213
v 175.000000 -18.750034 100.057213
v -175.000000 -100.000008 100.057198
v -175.000000 -100.000000 68.807205
v -175.000000 -75.000008 100.057205
v -175.000000 -74.999985 68.807213
v -175.000000 -25.000006 68.807236
v -175.000000 -25.000010 100.057220
v -175.000000 -18.749996 100.057213
v -175.000000 -18.750000 68.807236
v -200.000000 -75.000008 100.057205
v -200.000000 -100.000008 100.057198
v -200.000015 -25.000004 100.057220
v -200.000000 -18.750000 100.057213
v 200.000000 -0.000003 68.807182
v 175.000000 -0.000007 68.807190
v 37.500000 -0.000025 50.057205
v 200.000000 -0.000004 100.057205
v 175.000000 -0.000011 162.557190
v 200.000000 -0.000007 162.557190
v 175.000000 -0.000004 100.057205
v 37.500000 -0.000026 68.807190
v 37.500000 -0.000027 100.057205
v 12.500001 -0.000027 100.057205
v 12.500001 -0.000026 68.807190
v 12.500001 -0.000025 50.000000
v -12.500000 -0.000002 50.057205
v -12.500000 -0.000004 100.057205
v -12.500000 -0.000003 68.807182
v -37.500000 -0.000002 50.057205
v -37.500000 -0.000003 68.807182
v -37.500000 -0.000004 100.057205
v -175.000000 -0.000011 162.557190
v -175.000000 -0.000007 68.807182
v -200.000000 -0.000003 68.807182
v -175.000000 -0.000008 100.057205
v -200.000000 -0.000007 162.557175
v -200.000000 -0.000004 100.057205
v 200.000000 -0.000003 68.807182
v 200.000000 -6.250003 68.807198
v 200.000000 -0.000004 100.057205
v 200.000000 -6.250004 100.057205
v 200.000000 -0.000007 162.557190
v 200.000000 -6.250007 162.557220
v 200.000000 -18.750008 162.557236
v -37.500000 -100.000000 50.057205
v -37.500000 -74.999992 50.057201
v -175.000000 -100.000000 50.057201
v -175.000000 -74.999985 50.057201
v -37.500000 -25.000000 50.057209
v -200.000000 -74.999992 50.057201
v -200.000000 -25.000000 50.057205
v -175.000000 -25.000002 50.057209
v -37.500000 -18.750002 50.057209
v -175.000000 -18.749998 50.057205
v -37.500000 -6.250002 50.057209
v -175.000000 -6.250006 50.057205
v -175.000000 -0.000006 50.057205
v -37.500000 -0.000002 50.057205
v -200.000000 -0.000003 68.807182
v -200.000000 -6.250003 68.807198
v -200.000000 -0.000004 100.057205
v -200.000000 -6.250004 100.057205
v -200.000000 -0.000007 162.557175
v -200.000000 -6.250007 162.557205
v -200.000000 -18.750008 162.557220
v 37.500000 -18.750023 68.807228
v 175.000000 -25.000006 68.807220
v 175.000000 -18.750000 68.807228
v 37.500000 -25.000004 68.807228
v 175.000000 -74.999985 68.807205
v 12.500001 -18.750025 68.807228
v 37.500000 -75.000015 68.807213
v 175.000000 -100.000000 68.807198
v 37.500000 -100.000015 68.807205
v 12.500001 -25.000004 68.807228
v 12.500001 -75.000015 68.807213
v 12.499999 -100.000023 68.807205
v -12.500000 -100.000000 68.807205
v -12.500000 -74.999992 68.807213
v -12.500001 -25.000002 68.807228
v -12.500000 -18.750004 68.807228
v -37.500000 -18.750004 68.807228
v -37.500000 -74.999992 68.807213
v -37.500000 -100.000000 68.807205
v -175.000000 -100.000000 68.807205
v -175.000000 -74.999985 68.807213
v -37.500000 -25.000002 68.807228
v -175.000000 -25.000006 68.807236
v -175.000000 -18.750000 68.807236
v 200.000000 -18.750008 162.557236
v 175.000000 -18.750034 100.057213
v 200.000000 -18.750038 100.057213
v 175.000000 -18.750004 162.557236
v 37.500000 -18.750027 162.557236
v 37.500000 -18.750023 100.057205
v 175.000000 -18.750000 68.807228
v 37.500000 -18.750023 68.807228
v 12.500000 -18.750029 162.557236
v 12.500001 -18.750025 68.807228
v 12.500000 -18.750023 100.057205
v -12.500000 -18.750008 162.557236
v -12.500000 -18.750004 68.807228
v -12.500000 -18.750004 100.057205
v -37.500000 -18.750008 162.557236
v -37.500000 -18.750004 68.807228
v -37.500000 -18.750004 100.057205
v -175.000000 -18.750000 68.807236
v -175.000000 -18.749996 100.057213
v -175.000000 -18.750004 162.557236
v -200.000000 -18.750008 162.557220
v -200.000000 -18.750000 100.057213
v 175.000000 -0.000011 162.557190
v 200.000000 -6.250007 162.557220
v 200.000000 -0.000007 162.557190
v 175.000000 -6.250011 162.557205
v 37.500000 -0.000030 162.557190
v 37.500000 -6.250030 162.557205
v 175.000000 -18.750004 162.557236
v 200.000000 -18.750008 162.557236
v 37.500000 -18.750027 162.557236
v 12.500000 -6.250030 162.557205
v 12.500000 -18.750029 162.557236
v -12.500000 -18.750008 162.557236
v -12.500000 -6.250007 162.557205
v -37.500000 -6.250007 162.557205
v -37.500000 -18.750008 162.557236
v -175.000000 -18.750004 162.557236
v -175.000000 -0.000011 162.557190
v -37.500000 -0.000007 162.557190
v -175.000000 -6.250011 162.557205
v -200.000000 -6.250007 162.557205
v -200.000000 -18.750008 162.557220
v -200.000000 -0.000007 162.557175
vn -0.0000 1.0000 -0.0000
vn -1.0000 -0.0000 -0.0000
vn 1.0000 -0.0000 -0.0000
vn -0.0000 -1.0000 -0.0000
vn -0.0000 -0.0000 1.0000
vn -0.0000 -0.0000 -1.0000
vn 0.0011 -0.0000 -1.0000
vn -0.0011 -0.0000 -1.0000
vt 0.699707 0.162598
vt 0.649902 0.162598
vt 0.649902 0.125000
vt 0.699707 0.125000
vt 0.424805 0.537598
vt 0.424805 0.487793
vt 0.549805 0.487793
vt 0.549805 0.537598
vt 0.387451 0.537598
vt 0.262451 0.537598
vt 0.262451 0.487793
vt 0.387451 0.487793
vt 0.187500 0.537598
vt 0.087463 0.537598
vt 0.087463 0.487793
vt 0.187500 0.487793
vt 0.612305 0.637695
vt 0.549805 0.637695
vt 0.549805 0.587646
vt 0.612305 0.587646
vt 0.099976 0.162598
vt 0.049988 0.162598
vt 0.049988 0.062500
vt 0.099976 0.062500
vt 0.149902 0.162598
vt 0.149902 0.062500
vt 0.612305 0.962524
vt 0.549805 0.962524
vt 0.549805 0.912537
vt 0.612305 0.912537
vt 0.037476 0.637695
vt 0.037476 0.912537
vt 0.000031 0.912537
vt 0.000031 0.637695
vt 0.424805 0.587646
vt 0.424805 0.150391
vt 0.424805 0.125000
vt 0.549805 0.125000
vt 0.549805 0.150391
vt 0.412354 0.537598
vt 0.412354 0.487793
vt 0.612305 0.975006
vt 0.549805 0.975006
vt 0.649902 0.999969
vt 0.612305 0.999969
vt 0.649902 0.975006
vt 0.262451 0.637695
vt 0.262451 0.912537
vt 0.199951 0.912537
vt 0.199951 0.637695
vt 0.087463 0.637695
vt 0.037476 0.587646
vt 0.087463 0.587646
vt 0.699707 0.537598
vt 0.799805 0.537598
vt 0.799805 0.587646
vt 0.699707 0.587646
vt 0.037476 0.487793
vt 0.037476 0.212891
vt 0.087463 0.212891
vt 0.649902 0.587646
vt 0.699707 0.637695
vt 0.649902 0.637695
vt 0.849609 0.537598
vt 0.849609 0.587646
vt 0.837402 0.587646
vt 0.837402 0.537598
vt 0.812500 0.212891
vt 0.812500 0.487793
vt 0.799805 0.487793
vt 0.799805 0.212891
vt 0.187500 0.212891
vt 0.187500 0.587646
vt 0.424805 0.962524
vt 0.424805 0.912537
vt 0.112488 0.162598
vt 0.112488 0.062500
vt 0.137451 0.062500
vt 0.137451 0.162598
vt 0.187500 0.912537
vt 0.087463 0.912537
vt 0.187500 0.637695
vt 0.062500 0.062500
vt 0.087463 0.062500
vt 0.087463 0.162598
vt 0.062500 0.162598
vt 0.412354 0.962524
vt 0.412354 0.912537
vt 0.012497 0.062500
vt 0.037476 0.062500
vt 0.037476 0.162598
vt 0.012497 0.162598
vt 0.387451 0.637695
vt 0.262451 0.587646
vt 0.387451 0.587646
vt 0.199951 0.112793
vt 0.212402 0.112793
vt 0.212402 0.162598
vt 0.199951 0.162598
vt 0.250000 0.162598
vt 0.250000 0.112793
vt 0.237427 0.162598
vt 0.237427 0.112793
vt 0.000031 0.162598
vt 0.000031 0.062500
vt 0.000031 0.025391
vt 0.000031 0.012695
vt 0.012497 0.012695
vt 0.012497 0.025391
vt 0.412354 0.212891
vt 0.424805 0.212891
vt 0.162476 0.025391
vt 0.112488 0.025391
vt 0.112488 0.012695
vt 0.162476 0.012695
vt 0.387451 0.912537
vt 0.612305 0.537598
vt 0.649902 0.537598
vt 0.000031 0.537598
vt 0.037476 0.537598
vt 0.000031 0.587646
vt 0.649902 0.912537
vt 0.824707 0.162598
vt 0.824707 0.112793
vt 0.887207 0.112793
vt 0.887207 0.162598
vt 0.937500 0.012695
vt 1.000000 0.012695
vt 1.000000 0.112793
vt 0.937500 0.112793
vt 1.000000 0.162598
vt 0.937500 0.162598
vt 0.812500 0.587646
vt 0.837402 0.637695
vt 0.812500 0.637695
vt 0.812500 0.537598
vt 0.849609 0.912537
vt 0.837402 0.912537
vt 0.849609 0.637695
vt 0.799805 0.125000
vt 0.799805 0.162598
vt 0.424805 0.999969
vt 0.424805 0.975006
vt 0.549805 0.999969
vt 0.199951 0.212891
vt 0.199951 0.487793
vt 0.162476 0.062500
vt 0.162476 0.162598
vt 0.062500 0.025391
vt 0.062500 0.012695
vt 0.199951 0.062500
vt 0.387451 0.162598
vt 0.387451 0.212891
vt 0.262451 0.212891
vt 0.262451 0.162598
vt 0.012497 0.000000
vt 0.062500 0.000000
vt 0.262451 0.962524
vt 0.387451 0.962524
vt 0.699707 0.212891
vt 0.112488 0.000000
vt 0.549805 0.212891
vt 0.424805 0.162598
vt 0.549805 0.162598
vt 0.649902 0.962524
vt 0.612305 0.487793
vt 0.649902 0.487793
vt 0.887207 0.225098
vt 0.937500 0.225098
vt 0.199951 0.587646
vt 0.199951 0.537598
vt 0.062500 0.050293
vt 0.012497 0.050293
vt 0.799805 0.999969
vt 0.699707 0.999969
vt 0.699707 0.962524
vt 0.799805 0.962524
vt 0.812500 0.999969
vt 0.812500 0.962524
vt 0.887207 0.012695
vt 0.824707 0.012695
vt 0.125000 0.025391
vt 0.125000 0.037598
vt 0.112488 0.037598
vt 0.612305 0.125000
vt 0.612305 0.150391
vt 0.612305 0.212891
vt 0.612305 0.162598
vt 0.174927 0.012695
vt 0.174927 0.025391
vt 0.187500 0.062500
vt 0.187500 0.162598
vt 0.649902 0.212891
vt 0.062500 0.037598
vt 0.812500 0.912537
vt 0.000031 0.212891
vt 0.699707 0.487793
vt 0.000031 0.487793
vt 0.424805 0.637695
vt 0.112488 0.050293
vt 0.649902 0.150391
vt 0.049988 0.037598
vt 0.049988 0.025391
vt 1.000000 0.000000
vt 0.937500 0.000000
vt 0.799805 0.637695
vt 0.849609 0.487793
vt 0.837402 0.487793
vt 0.837402 0.212891
vt 0.849609 0.212891
vt 0.412354 0.637695
vt 0.412354 0.587646
vt 0.887207 0.000000
vt 0.824707 0.000000
vt 0.812500 0.162598
vt 0.812500 0.125000
vt 0.799805 0.912537
vt 0.699707 0.912537
vt 0.037476 0.962524
vt 0.000031 0.962524
vt 0.162476 0.000000
vt 0.162476 0.050293
vt 0.412354 0.162598
s 1
usemtl MI_Couch
f 40/1/2 37/2/2 211/3/2 212/4/2
f 179/5/1 181/6/1 251/7/1 252/8/1
f 327/9/4 329/10/4 324/11/4 323/12/4
f 304/13/5 305/14/5 301/15/5 298/16/5
f 259/17/1 260/18/1 256/19/1 257/20/1
f 8/21/1 6/22/1 7/23/1 5/24/1
f 4/25/1 2/21/1 3/24/1 1/26/1
f 263/27/1 266/28/1 264/29/1 262/30/1
f 128/31/4 88/32/4 34/33/4 127/34/4
f 175/35/1 179/5/1 252/8/1 256/19/1
f 272/36/3 273/37/3 123/38/3 270/39/3
f 350/40/5 351/9/5 349/12/5 346/41/5
f 289/42/2 291/43/2 290/28/2 288/27/2
f 110/44/2 214/45/2 289/42/2 112/46/2
f 335/47/4 337/48/4 336/49/4 334/50/4
f 312/51/5 313/31/5 307/52/5 308/53/5
f 152/54/8 154/55/8 153/56/6 150/57/6
f 301/15/5 303/58/5 302/59/5 299/60/5
f 151/61/6 150/57/6 135/62/7 137/63/7
f 160/64/8 159/65/6 157/66/6 158/67/8
f 283/68/6 282/69/6 278/70/6 281/71/6
f 298/16/5 301/15/5 299/60/5 296/72/5
f 309/73/5 308/53/5 305/14/5 304/13/5
f 264/29/1 266/28/1 265/74/1 261/75/1
f 112/76/2 111/77/2 109/78/2 110/79/2
f 108/25/2 110/79/2 109/78/2 107/26/2
f 317/80/5 315/81/5 312/51/5 316/82/5
f 173/83/3 172/84/3 169/85/3 97/86/3
f 28/23/3 25/24/3 26/21/3 27/22/3
f 362/74/5 360/87/5 359/88/5 357/75/5
f 166/89/3 164/90/3 161/91/3 165/92/3
f 333/93/4 335/47/4 332/94/4 330/95/4
f 122/96/6 119/97/6 120/98/6 121/99/6
f 70/100/6 72/99/6 71/96/6 69/101/6
f 118/102/6 120/98/6 119/97/6 117/103/6
f 168/104/3 167/105/3 166/89/3 165/92/3
f 84/106/2 82/107/2 83/108/2 81/109/2
f 346/41/5 344/110/5 341/111/5 345/6/5
f 48/112/5 46/113/5 47/114/5 45/115/5
f 316/82/5 312/51/5 308/53/5 309/73/5
f 338/116/4 337/48/4 335/47/4 333/93/4
f 255/61/1 257/20/1 253/117/1 254/118/1
f 132/119/4 131/120/4 129/52/4 130/121/4
f 6/122/1 262/30/1 259/17/1 258/63/1
f 232/123/3 234/124/3 233/125/3 231/126/3
f 241/127/2 213/128/2 212/129/2 239/130/2
f 212/129/2 211/131/2 240/132/2 239/130/2
f 155/133/6 157/66/6 145/134/7 143/135/7
f 156/136/8 154/55/8 278/70/6 282/69/6
f 148/137/6 146/138/6 145/134/7 147/139/7
f 257/20/1 256/19/1 252/8/1 253/117/1
f 156/136/8 158/67/8 157/66/6 155/133/6
f 226/130/5 224/132/5 225/126/5 223/125/5
f 213/140/2 108/141/2 40/1/2 212/4/2
f 294/142/2 293/143/2 291/43/2 242/144/2
f 298/16/5 296/72/5 297/145/5 295/146/5
f 24/105/1 22/23/1 23/22/1 21/104/1
f 308/53/5 307/52/5 306/120/5 305/14/5
f 214/45/2 242/144/2 291/43/2 289/42/2
f 106/26/2 103/147/2 104/148/2 105/25/2
f 60/149/5 58/109/5 59/108/5 57/150/5
f 116/100/6 118/102/6 117/103/6 115/101/6
f 35/21/4 36/24/4 33/26/4 34/25/4
f 200/103/6 199/102/6 196/98/6 198/97/6
f 12/99/2 9/25/2 10/26/2 11/151/2
f 192/150/4 188/114/4 191/113/4 190/149/4
f 319/152/4 322/153/4 320/154/4 321/155/4
f 193/108/4 194/156/4 189/157/4 192/150/4
f 340/158/4 337/48/4 338/116/4 339/159/4
f 323/12/4 324/11/4 320/154/4 322/153/4
f 305/14/5 306/120/5 303/58/5 301/15/5
f 281/71/6 277/160/6 279/1/6 280/141/6
f 188/114/4 192/150/4 189/157/4 186/161/4
f 249/162/1 247/111/1 248/163/1 246/164/1
f 198/97/6 196/98/6 197/99/6 195/96/6
f 93/123/3 94/124/3 125/125/3 126/126/3
f 289/42/2 288/27/2 114/165/2 112/46/2
f 254/118/1 253/117/1 250/166/1 245/167/1
f 92/168/4 89/126/4 90/132/4 91/169/4
f 206/129/2 204/131/2 205/132/2 203/130/2
f 310/170/5 309/73/5 304/13/5 300/171/5
f 178/172/1 175/83/1 176/89/1 177/173/1
f 96/174/3 94/175/3 28/176/3 95/177/3
f 98/178/3 96/174/3 95/177/3 97/179/3
f 249/162/1 251/7/1 181/6/1 247/111/1
f 236/180/3 233/125/3 234/124/3 235/181/3
f 56/182/3 54/183/3 55/184/3 53/113/3
f 326/146/4 325/145/4 320/154/4 324/11/4
f 208/128/2 206/129/2 203/130/2 207/127/2
f 123/38/3 98/185/3 268/186/3 270/39/3
f 94/175/3 93/44/3 25/165/3 28/176/3
f 244/187/1 249/162/1 246/164/1 243/188/1
f 80/112/3 79/115/3 77/189/3 78/190/3
f 104/148/2 103/147/2 101/191/2 102/192/2
f 4/193/1 244/187/1 243/188/1 2/2/1
f 44/113/5 42/184/5 43/194/5 41/149/5
f 146/138/6 144/195/6 143/135/7 145/134/7
f 262/30/1 264/29/1 260/18/1 259/17/1
f 31/104/4 92/91/4 91/59/4 29/196/4
f 275/197/6 152/54/8 149/118/8 274/167/6
f 245/167/1 250/166/1 244/187/1 4/193/1
f 277/160/6 275/197/6 274/167/6 276/193/6
f 216/126/5 218/125/5 217/130/5 215/132/5
f 164/90/3 162/23/3 163/22/3 161/91/3
f 134/58/4 131/120/4 132/119/4 133/198/4
f 29/196/4 91/59/4 134/58/4 133/198/4
f 100/99/2 102/192/2 101/191/2 99/151/2
f 40/22/2 38/23/2 39/24/2 37/21/2
f 20/99/3 17/25/3 18/26/3 19/151/3
f 88/168/4 85/126/4 86/132/4 87/169/4
f 256/19/1 260/18/1 176/199/1 175/35/1
f 258/63/1 259/17/1 257/20/1 255/61/1
f 260/18/1 264/29/1 261/75/1 176/199/1
f 253/117/1 252/8/1 251/7/1 250/166/1
f 172/84/3 170/24/3 171/21/3 169/85/3
f 184/184/1 182/200/1 178/172/1 183/194/1
f 98/185/3 97/3/3 169/201/3 268/186/3
f 270/39/3 268/186/3 267/188/3 269/164/3
f 52/194/2 50/202/2 51/203/2 49/149/2
f 293/143/2 292/74/2 290/28/2 291/43/2
f 202/101/6 201/100/6 199/102/6 200/103/6
f 210/204/2 208/128/2 207/127/2 209/205/2
f 174/23/3 173/83/3 97/86/3 95/22/3
f 139/206/7 135/62/7 150/57/6 153/56/6
f 32/21/4 31/24/4 29/26/4 30/25/4
f 318/49/5 317/80/5 316/82/5 311/50/5
f 220/127/5 217/130/5 218/125/5 219/180/5
f 228/180/5 227/127/5 226/130/5 223/125/5
f 287/207/6 284/208/6 285/209/6 286/210/6
f 16/22/1 14/104/1 15/105/1 13/23/1
f 354/211/5 355/93/5 352/95/5 353/212/5
f 153/56/6 155/133/6 143/135/7 139/206/7
f 284/208/6 287/207/6 160/64/8 158/67/8
f 268/186/3 169/201/3 171/2/3 267/188/3
f 123/213/3 124/180/3 96/181/3 98/214/3
f 110/215/2 108/141/2 213/140/2 214/216/2
f 230/205/5 227/127/5 228/180/5 229/213/5
f 271/163/3 272/36/3 270/39/3 269/164/3
f 182/200/1 179/77/1 175/83/1 178/172/1
f 156/136/8 155/133/6 153/56/6 154/55/8
f 316/82/5 309/73/5 310/170/5 311/50/5
f 285/209/6 284/208/6 282/69/6 283/68/6
f 157/66/6 159/65/6 147/139/7 145/134/7
f 304/13/5 298/16/5 295/146/5 300/171/5
f 76/99/6 74/96/6 75/101/6 73/100/6
f 360/87/5 361/159/5 356/116/5 359/88/5
f 68/151/4 66/99/4 67/25/4 65/26/4
f 235/181/3 238/214/3 237/213/3 236/180/3
f 130/121/4 129/52/4 128/31/4 127/34/4
f 282/69/6 284/208/6 158/67/8 156/136/8
f 277/160/6 281/71/6 278/70/6 275/197/6
f 275/197/6 278/70/6 154/55/8 152/54/8
f 142/217/6 140/177/6 141/176/6 138/218/6
f 64/23/4 62/22/4 63/104/4 61/105/4
f 88/32/4 87/219/4 35/220/4 34/33/4
f 144/195/6 142/217/6 139/206/7 143/135/7
f 214/204/2 213/128/2 241/127/2 242/205/2
f 185/115/4 188/114/4 186/161/4 187/221/4
f 182/200/1 180/222/1 181/147/1 179/77/1
f 324/11/4 329/10/4 328/171/4 326/146/4
f 114/21/2 113/24/2 111/77/2 112/76/2
f 8/165/1 263/27/1 262/30/1 6/122/1
f 329/10/4 332/94/4 331/170/4 328/171/4
f 250/166/1 251/7/1 249/162/1 244/187/1
f 142/217/6 138/218/6 135/62/7 139/206/7
f 124/180/3 125/125/3 94/124/3 96/181/3
f 222/213/5 221/205/5 220/127/5 219/180/5
f 349/12/5 347/153/5 344/110/5 346/41/5
f 353/212/5 352/95/5 351/9/5 350/40/5
f 138/218/6 136/122/6 137/63/7 135/62/7
f 332/94/4 335/47/4 334/50/4 331/170/4
f 152/54/8 150/57/6 151/61/6 149/118/8
f 330/95/4 332/94/4 329/10/4 327/9/4
f 315/81/5 314/32/5 313/31/5 312/51/5
f 359/88/5 356/116/5 355/93/5 354/211/5
f 348/152/5 342/223/5 344/110/5 347/153/5
f 344/110/5 342/223/5 343/163/5 341/111/5
f 359/88/5 354/211/5 358/199/5 357/75/5
