# Blender 5.0.1
# www.blender.org
mtllib BP_ChorusPlant_medium.mtl
o SM_ChorusPlant_base.001
v -125.000000 -25.000002 400.000000
v -75.000000 -24.999998 400.000000
v -75.000000 25.000002 400.000000
v -125.000000 24.999998 400.000000
v -75.000000 25.000002 300.000000
v -75.000000 25.000002 200.000000
v -125.000000 24.999998 300.000000
v -125.000000 24.999998 200.000000
v -75.000000 25.000002 400.000000
v -125.000000 24.999998 400.000000
v -125.000000 24.999998 300.000000
v -125.000000 24.999998 200.000000
v -125.000000 -25.000002 300.000000
v -125.000000 -25.000002 200.000000
v -125.000000 24.999998 400.000000
v -125.000000 -25.000002 400.000000
v -125.000000 -25.000002 300.000000
v -125.000000 -25.000002 200.000000
v -75.000000 -24.999998 300.000000
v -75.000000 -24.999998 200.000000
v -125.000000 -25.000002 400.000000
v -75.000000 -24.999998 400.000000
v -75.000000 -24.999998 300.000000
v -75.000000 -24.999998 200.000000
v -75.000000 25.000002 300.000000
v -75.000000 25.000002 200.000000
v -75.000000 -24.999998 400.000000
v -75.000000 25.000002 400.000000
v -75.000000 -18.749998 331.250000
v -75.000000 18.750002 331.250000
v -62.500000 18.750004 331.250000
v -62.500000 -18.749996 331.250000
v -62.500000 -18.749996 368.750000
v -62.500000 18.750004 368.750000
v -75.000000 -18.749998 368.750000
v -75.000000 18.750002 368.750000
v -62.500000 18.750004 368.750000
v -62.500000 18.750004 331.250000
v -75.000000 18.750002 368.750000
v -75.000000 18.750002 331.250000
v -75.000000 -18.749998 368.750000
v -75.000000 -18.749998 331.250000
v -62.500000 -18.749996 368.750000
v -62.500000 -18.749996 331.250000
v -62.500000 18.750004 368.750000
v -62.500000 -18.749996 368.750000
v -62.500000 -18.749996 331.250000
v -62.500000 18.750004 331.250000
v -118.750000 37.500000 231.250000
v -81.250000 37.500000 231.250000
v -81.250000 25.000002 231.250000
v -118.750000 24.999998 231.250000
v -81.250000 25.000002 268.750000
v -118.750000 37.500000 268.750000
v -118.750000 24.999998 268.750000
v -81.250000 37.500000 268.750000
v -118.750000 37.500000 268.750000
v -118.750000 37.500000 231.250000
v -118.750000 24.999998 268.750000
v -118.750000 24.999998 231.250000
v -81.250000 25.000002 268.750000
v -81.250000 25.000002 231.250000
v -81.250000 37.500000 268.750000
v -81.250000 37.500000 231.250000
v -118.750000 37.500000 268.750000
v -81.250000 37.500000 268.750000
v -81.250000 37.500000 231.250000
v -118.750000 37.500000 231.250000
v -75.000000 -25.000002 325.000000
v -125.000000 -31.250004 325.000000
v -125.000000 -25.000004 325.000000
v -75.000000 -31.250002 325.000000
v -75.000000 -25.000002 375.000000
v -125.000000 -31.250004 375.000000
v -75.000000 -31.250002 375.000000
v -125.000000 -25.000004 375.000000
v -75.000000 -31.250002 375.000000
v -75.000000 -31.250002 325.000000
v -75.000000 -25.000002 375.000000
v -75.000000 -25.000002 325.000000
v -125.000000 -25.000004 375.000000
v -125.000000 -25.000004 325.000000
v -125.000000 -31.250004 375.000000
v -125.000000 -31.250004 325.000000
v -75.000000 -31.250002 375.000000
v -125.000000 -31.250004 375.000000
v -125.000000 -31.250004 325.000000
v -75.000000 -31.250002 325.000000
v -81.250000 -24.999998 231.250000
v -118.750000 -37.500000 231.250000
v -118.750000 -25.000000 231.250000
v -81.250000 -37.500000 231.250000
v -81.250000 -24.999998 268.750000
v -118.750000 -37.500000 268.750000
v -81.250000 -37.500000 268.750000
v -118.750000 -25.000000 268.750000
v -81.250000 -37.500000 268.750000
v -81.250000 -37.500000 231.250000
v -81.250000 -24.999998 268.750000
v -81.250000 -24.999998 231.250000
v -118.750000 -25.000000 268.750000
v -118.750000 -25.000000 231.250000
v -118.750000 -37.500000 268.750000
v -118.750000 -37.500000 231.250000
v -81.250000 -37.500000 268.750000
v -118.750000 -37.500000 268.750000
v -118.750000 -37.500000 231.250000
v -81.250000 -37.500000 231.250000
v -125.000008 24.999996 225.000000
v -131.250000 -25.000002 225.000000
v -131.250015 24.999996 225.000000
v -125.000000 -25.000002 225.000000
v -125.000000 -25.000002 275.000000
v -125.000008 24.999996 275.000000
v -131.250000 -25.000002 275.000000
v -131.250015 24.999996 275.000000
v -131.250000 -25.000002 275.000000
v -131.250000 -25.000002 225.000000
v -125.000000 -25.000002 275.000000
v -125.000000 -25.000002 225.000000
v -125.000008 24.999996 275.000000
v -125.000008 24.999996 225.000000
v -131.250015 24.999996 275.000000
v -131.250015 24.999996 225.000000
v -131.250000 -25.000002 275.000000
v -131.250015 24.999996 275.000000
v -131.250015 24.999996 225.000000
v -131.250000 -25.000002 225.000000
vn -0.0000 -0.0000 1.0000
vn -0.0000 1.0000 -0.0000
vn -1.0000 -0.0000 -0.0000
vn -0.0000 -1.0000 -0.0000
vn 1.0000 -0.0000 -0.0000
vn -0.0000 -0.0000 -1.0000
vt 0.812500 0.562500
vt 0.625000 0.562500
vt 0.625000 0.625000
vt 0.812500 0.625000
vt 0.343750 0.656250
vt 0.343750 0.843750
vt 0.156250 0.843750
vt 0.156250 0.656250
vt 0.875000 0.687500
vt 0.937500 0.687500
vt 0.937500 0.875000
vt 0.875000 0.875000
vt 0.937500 0.656250
vt 0.937500 0.906250
vt 0.906250 0.906250
vt 0.906250 0.656250
vt 0.000031 0.625000
vt 0.500000 0.625244
vt 0.500000 0.875000
vt 0.000031 0.875000
vt 0.375000 0.500000
vt 0.375000 0.999969
vt 0.125000 0.999969
vt 0.125000 0.500000
vt 0.750000 0.250000
vt 0.750000 0.500000
vt 0.500000 0.500000
vt 0.500000 0.250000
vt 0.375000 0.625000
vt 0.375000 0.875000
vt 0.125000 0.875000
vt 0.125000 0.625000
s 1
usemtl MI_ChorusPlant
f 100/1/5 99/2/5 97/3/5 98/4/5
f 68/5/2 65/6/2 66/7/2 67/8/2
f 52/9/6 49/10/6 50/11/6 51/12/6
f 80/13/5 79/14/5 77/15/5 78/16/5
f 84/13/3 83/14/3 81/15/3 82/16/3
f 36/10/1 35/11/1 33/12/1 34/9/1
f 31/10/6 32/11/6 29/12/6 30/9/6
f 25/17/5 28/18/5 27/19/5 23/20/5
f 7/21/2 10/22/2 9/23/2 5/24/2
f 4/25/1 1/26/1 2/27/1 3/28/1
f 8/17/2 7/18/2 5/19/2 6/20/2
f 44/1/4 43/2/4 41/3/4 42/4/4
f 13/17/3 16/18/3 15/19/3 11/20/3
f 72/13/6 70/14/6 71/15/6 69/16/6
f 14/21/3 13/22/3 11/23/3 12/24/3
f 116/15/1 115/16/1 113/13/1 114/14/1
f 104/1/3 103/2/3 101/3/3 102/4/3
f 56/12/1 54/9/1 55/10/1 53/11/1
f 26/21/5 25/22/5 23/23/5 24/24/5
f 64/1/5 63/2/5 61/3/5 62/4/5
f 120/13/4 119/14/4 117/15/4 118/16/4
f 60/1/3 59/2/3 57/3/3 58/4/3
f 20/17/4 19/18/4 17/19/4 18/20/4
f 48/5/5 45/6/5 46/7/5 47/8/5
f 76/14/1 74/15/1 75/16/1 73/13/1
f 88/29/4 85/30/4 86/31/4 87/32/4
f 40/1/2 39/2/2 37/3/2 38/4/2
f 96/11/1 94/12/1 95/9/1 93/10/1
f 92/10/6 90/11/6 91/12/6 89/9/6
f 124/13/2 123/14/2 121/15/2 122/16/2
f 108/5/4 105/6/4 106/7/4 107/8/4
f 112/16/6 110/13/6 111/14/6 109/15/6
f 19/21/4 22/22/4 21/23/4 17/24/4
f 128/29/3 125/30/3 126/31/3 127/32/3
