# Blender 5.0.1
# www.blender.org
mtllib BP_Coinstack_New.mtl
o SM_Coins_NewPile_Opt.001
v -18.750000 -39.062504 62.500004
v -18.750000 -39.062500 -0.000002
v -0.000001 -39.062504 62.500004
v -0.000001 -39.062500 -0.000002
v -0.000001 -39.062504 62.500004
v -0.000001 -20.312504 62.500004
v -18.750000 -39.062504 62.500004
v -18.750000 -20.312504 62.500004
v -18.750000 -20.312502 -0.000001
v -18.750000 -20.312504 62.500004
v -0.000001 -20.312502 -0.000001
v -0.000001 -20.312504 62.500004
v -0.000001 -39.062500 -0.000002
v -18.750000 -39.062500 -0.000002
v -18.750000 -20.312502 -0.000001
v -0.000001 -20.312502 -0.000001
v -0.000001 -20.312502 -0.000001
v -0.000001 -20.312504 62.500004
v -0.000001 -39.062500 -0.000002
v -0.000001 -39.062504 62.500004
v -18.750000 -39.062504 62.500004
v -18.750000 -20.312502 -0.000001
v -18.750000 -39.062500 -0.000002
v -18.750000 -20.312504 62.500004
v 15.625000 -4.687507 150.000000
v 15.625000 -4.687500 -0.000000
v 34.375000 -4.687507 150.000000
v 34.375000 -4.687500 -0.000000
v 34.375000 14.062492 150.000000
v 15.625000 -4.687507 150.000000
v 34.375000 -4.687507 150.000000
v 15.625000 14.062492 150.000000
v 15.625000 14.062499 0.000001
v 15.625000 14.062492 150.000000
v 34.375000 14.062499 0.000001
v 34.375000 14.062492 150.000000
v 34.375000 -4.687500 -0.000000
v 15.625000 -4.687500 -0.000000
v 15.625000 14.062499 0.000001
v 34.375000 14.062499 0.000001
v 34.375000 14.062499 0.000001
v 34.375000 14.062492 150.000000
v 34.375000 -4.687500 -0.000000
v 34.375000 -4.687507 150.000000
v 15.625000 -4.687507 150.000000
v 15.625000 14.062499 0.000001
v 15.625000 -4.687500 -0.000000
v 15.625000 14.062492 150.000000
v -40.625000 -4.687505 125.000008
v -40.625000 -4.687500 -0.000000
v -21.875002 -4.687505 125.000008
v -21.875002 -4.687500 -0.000000
v -21.875002 14.062493 125.000008
v -40.625000 -4.687505 125.000008
v -21.875002 -4.687505 125.000008
v -40.625000 14.062493 125.000008
v -40.625000 14.062499 0.000001
v -40.625000 14.062493 125.000008
v -21.875002 14.062499 0.000001
v -21.875002 14.062493 125.000008
v -21.875002 -4.687500 -0.000000
v -40.625000 -4.687500 -0.000000
v -40.625000 14.062499 0.000001
v -21.875002 14.062499 0.000001
v -21.875002 14.062499 0.000001
v -21.875002 14.062493 125.000008
v -21.875002 -4.687500 -0.000000
v -21.875002 -4.687505 125.000008
v -40.625000 -4.687505 125.000008
v -40.625000 14.062499 0.000001
v -40.625000 -4.687500 -0.000000
v -40.625000 14.062493 125.000008
v -9.375000 -10.937508 168.750015
v -9.375000 -10.937500 -0.000000
v 9.374999 -10.937508 168.750015
v 9.374999 -10.937500 -0.000000
v 9.374999 -10.937508 168.750015
v 9.374999 7.812492 168.750015
v -9.375000 -10.937508 168.750015
v -9.375000 7.812492 168.750015
v -9.375000 7.812499 0.000000
v -9.375000 7.812492 168.750015
v 9.374999 7.812499 0.000000
v 9.374999 7.812492 168.750015
v 9.374999 -10.937500 -0.000000
v -9.375000 -10.937500 -0.000000
v -9.375000 7.812499 0.000000
v 9.374999 7.812499 0.000000
v 9.374999 7.812499 0.000000
v 9.374999 7.812492 168.750015
v 9.374999 -10.937500 -0.000000
v 9.374999 -10.937508 168.750015
v -9.375000 -10.937508 168.750015
v -9.375000 7.812499 0.000000
v -9.375000 -10.937500 -0.000000
v -9.375000 7.812492 168.750015
v -15.625000 20.312494 112.500008
v -15.625000 20.312500 0.000001
v 3.124999 20.312494 112.500008
v 3.124999 20.312500 0.000001
v 3.124999 20.312494 112.500008
v 3.124999 39.062496 112.500008
v -15.625000 20.312494 112.500008
v -15.625000 39.062496 112.500008
v -15.625000 39.062500 0.000002
v -15.625000 39.062496 112.500008
v 3.124999 39.062500 0.000002
v 3.124999 39.062496 112.500008
v 3.124999 20.312500 0.000001
v -15.625000 20.312500 0.000001
v -15.625000 39.062500 0.000002
v 3.124999 39.062500 0.000002
v 3.124999 39.062500 0.000002
v 3.124999 39.062496 112.500008
v 3.124999 20.312500 0.000001
v 3.124999 20.312494 112.500008
v -15.625000 20.312494 112.500008
v -15.625000 39.062500 0.000002
v -15.625000 20.312500 0.000001
v -15.625000 39.062496 112.500008
v 21.875000 -29.687504 93.750000
v 21.875000 -29.687500 -0.000001
v 40.625000 -29.687504 93.750000
v 40.625000 -29.687500 -0.000001
v 40.625000 -10.937505 93.750000
v 21.875000 -29.687504 93.750000
v 40.625000 -29.687504 93.750000
v 21.875000 -10.937505 93.750000
v 21.875000 -10.937501 -0.000000
v 21.875000 -10.937505 93.750000
v 40.625000 -10.937501 -0.000000
v 40.625000 -10.937505 93.750000
v 40.625000 -29.687500 -0.000001
v 21.875000 -29.687500 -0.000001
v 21.875000 -10.937501 -0.000000
v 40.625000 -10.937501 -0.000000
v 40.625000 -10.937501 -0.000000
v 40.625000 -10.937505 93.750000
v 40.625000 -29.687500 -0.000001
v 40.625000 -29.687504 93.750000
v 21.875000 -29.687504 93.750000
v 21.875000 -10.937501 -0.000000
v 21.875000 -29.687500 -0.000001
v 21.875000 -10.937505 93.750000
vn -0.0000 -1.0000 -0.0000
vn -0.0000 -0.0000 1.0000
vn -0.0000 1.0000 -0.0000
vn -0.0000 -0.0000 -1.0000
vn 1.0000 -0.0000 -0.0000
vn -1.0000 -0.0000 -0.0000
vt -0.000902 1.001060
vt 0.000032 0.436035
vt 0.093750 0.436035
vt 0.093262 1.001273
vt 0.281250 0.156250
vt 0.281250 0.999969
vt 0.187500 0.999969
vt 0.187500 0.156250
vt 0.000031 0.999969
vt 0.000031 0.375000
vt 0.093750 0.375000
vt 0.093750 0.999969
vt 0.468750 0.812500
vt 0.468750 0.906250
vt 0.375000 0.906250
vt 0.375000 0.812500
vt 0.375000 0.999969
vt 0.375000 0.156250
vt 0.281250 0.250000
vt 0.375000 0.250000
vt 0.000031 0.250000
vt 0.093750 0.250000
vt 0.000031 0.687500
vt 0.093750 0.687500
vt 0.281250 0.687500
vt 0.187500 0.687500
vt 0.468750 0.999969
vt 0.281250 0.375000
vt 0.187500 0.375000
vt 0.375000 0.687500
vt 0.281250 0.531250
vt 0.187500 0.531250
vt 0.000031 0.531250
vt 0.093750 0.531250
vt 0.187500 0.250000
vt 0.000031 0.156250
vt 0.093750 0.156250
vt 0.281250 0.436035
vt 0.281494 1.001476
vt 0.187378 1.001414
vt 0.187500 0.436035
vt 0.375000 0.531250
vt 0.375000 0.375000
vt 0.375732 1.001412
vt 0.375000 0.436035
s 1
usemtl MI_Coins_New
f 108/1/3 107/2/3 105/3/3 106/4/3
f 76/5/1 75/6/1 73/7/1 74/8/1
f 60/9/3 59/10/3 57/11/3 58/12/3
f 88/13/4 85/14/4 86/15/4 87/16/4
f 90/17/5 92/6/5 91/5/5 89/18/5
f 42/17/5 44/6/5 43/19/5 41/20/5
f 40/13/4 37/14/4 38/15/4 39/16/4
f 36/9/3 35/21/3 33/22/3 34/12/3
f 12/9/3 11/23/3 9/24/3 10/12/3
f 4/25/1 3/6/1 1/7/1 2/26/1
f 8/17/2 7/15/2 5/14/2 6/27/2
f 52/28/1 51/6/1 49/7/1 50/29/1
f 18/17/5 20/6/5 19/25/5 17/30/5
f 80/17/2 79/15/2 77/14/2 78/27/2
f 64/13/4 61/14/4 62/15/4 63/16/4
f 124/31/1 123/6/1 121/7/1 122/32/1
f 112/13/4 109/14/4 110/15/4 111/16/4
f 132/9/3 131/33/3 129/34/3 130/12/3
f 32/17/2 30/15/2 31/14/2 29/27/2
f 72/12/6 70/11/6 71/29/6 69/7/6
f 136/13/4 133/14/4 134/15/4 135/16/4
f 28/19/1 27/6/1 25/7/1 26/35/1
f 24/12/6 22/24/6 23/26/6 21/7/6
f 56/17/2 54/15/2 55/14/2 53/27/2
f 84/9/3 83/36/3 81/37/3 82/12/3
f 96/12/6 94/37/6 95/8/6 93/7/6
f 48/12/6 46/22/6 47/35/6 45/7/6
f 104/17/2 103/15/2 101/14/2 102/27/2
f 100/38/1 99/39/1 97/40/1 98/41/1
f 138/17/5 140/6/5 139/31/5 137/42/5
f 66/17/5 68/6/5 67/28/5 65/43/5
f 114/44/5 116/39/5 115/38/5 113/45/5
f 128/17/2 126/15/2 127/14/2 125/27/2
f 120/4/6 118/3/6 119/41/6 117/40/6
f 16/13/4 13/14/4 14/15/4 15/16/4
f 144/12/6 142/34/6 143/32/6 141/7/6
