# Blender 5.0.1
# www.blender.org
mtllib BP_Clam_Prop.mtl
o SK_Clam_Prop.001
v -75.000015 -99.999992 -0.000004
v 75.000008 100.000023 -0.000004
v 74.999985 -100.000023 -0.000019
v -74.999985 100.000053 0.000004
v -74.999969 100.000076 106.269501
v -75.000031 -99.999802 43.769550
v -74.999969 -99.999924 106.269470
v -75.000031 100.000198 43.769558
v 74.999939 -99.999847 43.769608
v 75.000031 100.000046 106.269562
v 75.000000 -100.000015 106.269531
v 74.999985 100.000107 43.769608
v -74.999969 -99.999924 106.269470
v 74.999939 -99.999847 43.769608
v 75.000000 -100.000015 106.269531
v -75.000031 -99.999802 43.769550
v -74.999969 100.000076 106.269501
v 75.000031 100.000046 106.269562
v 74.999985 100.000107 43.769608
v -75.000031 100.000198 43.769558
v -74.999969 100.000076 106.269501
v -74.999969 -99.999924 106.269470
v 75.000031 100.000046 106.269562
v 75.000000 -100.000015 106.269531
v -74.999985 100.000053 0.000004
v -75.000015 -99.999992 -0.000004
v -74.999985 99.999931 62.499958
v -74.999985 -100.000130 62.499966
v 74.999985 -100.000023 -0.000019
v 75.000031 99.999908 62.499989
v 75.000015 -100.000153 62.499989
v 75.000008 100.000023 -0.000004
v -74.999985 99.999931 62.499958
v 75.000008 100.000023 -0.000004
v -74.999985 100.000053 0.000004
v 75.000031 99.999908 62.499989
v 75.000038 99.999779 37.519581
v -74.999954 99.999802 37.519550
v 75.000008 -100.000221 37.519596
v -74.999969 -100.000198 37.519566
v -74.999985 -100.000130 62.499966
v 74.999985 -100.000023 -0.000019
v 75.000015 -100.000153 62.499989
v -75.000015 -99.999992 -0.000004
v -50.000008 99.999802 56.269558
v -50.000046 -100.000214 56.269573
v -50.000046 -100.000198 37.519512
v -50.000015 99.999802 37.519505
v -50.000008 99.999802 56.269558
v -74.999969 -100.000191 56.269573
v -50.000046 -100.000214 56.269573
v -74.999954 99.999809 56.269550
v -31.250000 -31.250000 68.769585
v 31.250000 31.250000 68.769585
v 31.250000 -31.250004 68.769585
v -31.250000 31.250000 68.769585
v 74.999969 99.999870 68.769577
v -75.000015 99.999870 68.769577
v 74.999969 -100.000175 68.769592
v -75.000008 -100.000130 68.769592
vn -0.0000 -0.0000 -1.0000
vn -1.0000 -0.0000 -0.0000
vn 1.0000 -0.0000 -0.0000
vn -0.0000 -1.0000 -0.0000
vn -0.0000 1.0000 -0.0000
vn -0.0000 -0.0000 1.0000
vt 0.000031 0.625000
vt 0.500000 0.625000
vt 0.500000 0.999969
vt 0.000031 0.999969
vt 1.000000 0.156250
vt 1.000000 0.312500
vt 0.500000 0.312500
vt 0.500000 0.156250
vt 0.499756 0.156250
vt 0.000031 0.312988
vt -0.000031 0.156250
vt 0.500000 0.000000
vt 1.000000 0.000488
vt 0.000031 0.156250
vt 0.000031 0.000000
vt 0.000031 0.468750
vt 0.000031 0.312500
vt 0.375000 0.312500
vt 0.375000 0.468750
vt 0.750000 0.468750
vt 0.750000 0.312500
vt 0.000031 0.312500
vt 1.000000 0.999969
vt 0.500000 0.625244
vt 1.000000 0.625000
vt 0.000031 0.640625
vt 0.500000 0.640625
vt 0.500000 0.703125
vt 0.000031 0.703125
vt 0.187500 0.468750
vt 0.562500 0.468750
vt 0.562500 0.625000
vt 0.187500 0.625000
vt 0.000031 0.750000
vt 0.500000 0.750000
vt 0.328125 0.890686
vt 0.328125 0.734375
vt 0.171875 0.890686
vt -0.000031 0.999969
vt 0.171875 0.734375
vt -0.000031 0.625000
vt 0.156250 0.468750
vt 0.156250 0.625000
vt -0.000031 0.468750
s 1
usemtl MI_Clam_Prop
f 38/1/6 40/2/6 39/3/6 37/4/6
f 12/5/3 10/6/3 11/7/3 9/8/3
f 32/9/3 30/7/3 31/10/3 29/11/3
f 8/12/2 6/13/2 7/5/2 5/8/2
f 26/12/2 28/8/2 27/14/2 25/15/2
f 36/16/5 34/17/5 35/18/5 33/19/5
f 20/18/5 17/19/5 18/20/5 19/21/5
f 44/18/4 42/22/4 43/16/4 41/19/4
f 24/23/6 23/3/6 21/24/6 22/25/6
f 52/26/6 50/27/6 51/28/6 49/29/6
f 16/30/4 14/31/4 15/32/4 13/33/4
f 48/34/3 45/29/3 46/28/3 47/35/3
f 4/25/1 2/23/1 3/3/1 1/2/1
f 54/36/1 56/37/1 57/3/1
f 54/36/1 57/3/1 55/38/1
f 58/2/1 57/3/1 56/37/1
f 55/38/1 57/3/1 59/39/1
f 56/37/1 53/40/1 58/2/1
f 55/38/1 59/39/1 53/40/1
f 60/41/1 58/2/1 53/40/1
f 60/41/1 53/40/1 59/39/1
f 56/42/1 54/43/1 55/41/1 53/44/1
