# Blender 5.0.1
# www.blender.org
mtllib BP_CoreGap_Dummy.mtl
o SM_CoreLid.001
v -150.000000 150.000015 -50.000023
v -150.000000 -150.000000 -99.999977
v -150.000000 -149.999985 -49.999977
v -150.000000 150.000000 -100.000023
v 150.000000 150.000015 -50.000023
v -150.000000 150.000000 -100.000023
v -150.000000 150.000015 -50.000023
v 150.000000 150.000000 -100.000023
v 150.000000 -149.999985 -49.999977
v 150.000000 150.000000 -100.000023
v 150.000000 150.000015 -50.000023
v 150.000000 -150.000000 -99.999977
v -150.000000 -149.999985 -49.999977
v 150.000000 -150.000000 -99.999977
v 150.000000 -149.999985 -49.999977
v -150.000000 -150.000000 -99.999977
v 100.000000 -99.999985 -49.999985
v 100.000000 100.000008 -50.000015
v 100.000000 -99.999992 -99.999985
v 100.000000 99.999992 -100.000015
v 100.000000 100.000008 -50.000015
v -100.000000 100.000008 -50.000015
v 100.000000 99.999992 -100.000015
v -100.000000 99.999992 -100.000015
v -100.000000 -99.999985 -49.999985
v 100.000000 -99.999985 -49.999985
v -100.000000 -99.999992 -99.999985
v 100.000000 -99.999992 -99.999985
v -100.000000 100.000008 -50.000015
v -100.000000 -99.999985 -49.999985
v -100.000000 99.999992 -100.000015
v -100.000000 -99.999992 -99.999985
v -50.000004 250.000015 -150.000046
v -50.000004 149.999985 -250.000031
v -50.000004 150.000000 -150.000031
v -50.000004 250.000000 -250.000046
v 50.000004 250.000015 -150.000046
v -50.000004 250.000000 -250.000046
v -50.000004 250.000015 -150.000046
v 50.000004 250.000000 -250.000046
v 50.000004 150.000000 -150.000031
v 50.000004 250.000000 -250.000046
v 50.000004 250.000015 -150.000046
v 50.000004 149.999985 -250.000031
v 50.000004 149.999954 -450.000031
v -50.000004 149.999954 -450.000031
v -50.000004 249.999969 -450.000031
v 50.000004 249.999969 -450.000031
v -50.000004 350.000031 -50.000057
v -50.000004 250.000046 -50.000042
v -50.000004 350.000000 -150.000061
v 50.000004 150.000015 -50.000023
v 50.000004 250.000046 -50.000042
v -50.000004 150.000015 -50.000023
v 50.000004 350.000031 -50.000057
v 50.000004 350.000000 -150.000061
v -50.000004 350.000031 -50.000057
v -50.000004 350.000000 -150.000061
v -50.000004 250.000015 -150.000046
v -50.000004 350.000000 -150.000061
v 50.000004 250.000015 -150.000046
v 50.000004 350.000000 -150.000061
v 50.000004 350.000000 -150.000061
v 50.000004 350.000031 -50.000057
v -50.000004 149.999969 -350.000031
v 50.000004 149.999954 -450.000031
v 50.000004 149.999969 -350.000031
v -50.000004 149.999954 -450.000031
v -50.000004 149.999985 -250.000031
v 50.000004 149.999985 -250.000031
v 50.000004 149.999969 -350.000031
v 50.000004 249.999969 -450.000031
v 50.000004 249.999985 -350.000061
v 50.000004 149.999954 -450.000031
v 50.000004 249.999985 -350.000061
v -50.000004 249.999969 -450.000031
v -50.000004 249.999985 -350.000061
v 50.000004 249.999969 -450.000031
v -50.000004 249.999985 -350.000061
v -50.000004 149.999954 -450.000031
v -50.000004 149.999969 -350.000031
v -50.000004 249.999969 -450.000031
v 250.000000 50.000019 -150.000000
v 150.000000 50.000004 -250.000015
v 150.000000 50.000019 -150.000000
v 250.000000 50.000004 -250.000015
v 250.000000 -50.000000 -150.000000
v 250.000000 50.000004 -250.000015
v 250.000000 50.000019 -150.000000
v 250.000000 -50.000015 -249.999985
v 150.000000 -49.999977 -150.000000
v 250.000000 -50.000015 -249.999985
v 250.000000 -50.000000 -150.000000
v 150.000000 -49.999992 -249.999985
v 150.000000 -50.000027 -450.000000
v 250.000000 49.999969 -450.000000
v 250.000000 -50.000050 -450.000000
v 150.000000 49.999969 -450.000000
v 350.000000 50.000046 -50.000008
v 250.000000 50.000034 -50.000008
v 350.000000 50.000031 -150.000000
v 150.000000 -49.999962 -49.999992
v 250.000000 -49.999985 -49.999992
v 150.000000 50.000034 -50.000008
v 350.000000 -49.999962 -49.999992
v 350.000000 -49.999977 -150.000000
v 350.000000 50.000046 -50.000008
v 350.000000 50.000031 -150.000000
v 350.000000 -49.999977 -150.000000
v 250.000000 50.000019 -150.000000
v 350.000000 50.000031 -150.000000
v 250.000000 -50.000000 -150.000000
v 350.000000 -49.999977 -150.000000
v 350.000000 -49.999962 -49.999992
v 150.000000 49.999985 -350.000000
v 150.000000 -50.000027 -450.000000
v 150.000000 -50.000011 -350.000000
v 150.000000 49.999969 -450.000000
v 150.000000 50.000004 -250.000015
v 150.000000 -49.999992 -249.999985
v 150.000000 -50.000011 -350.000000
v 250.000000 -50.000050 -450.000000
v 250.000000 -50.000034 -350.000000
v 150.000000 -50.000027 -450.000000
v 250.000000 -50.000034 -350.000000
v 250.000000 49.999969 -450.000000
v 250.000000 49.999985 -350.000000
v 250.000000 -50.000050 -450.000000
v 250.000000 49.999985 -350.000000
v 150.000000 49.999969 -450.000000
v 150.000000 49.999985 -350.000000
v 250.000000 49.999969 -450.000000
v 50.000031 -250.000000 -149.999954
v 50.000031 -150.000031 -249.999969
v 50.000031 -150.000015 -149.999969
v 50.000031 -250.000015 -249.999954
v -49.999969 -250.000000 -149.999954
v 50.000031 -250.000015 -249.999954
v 50.000031 -250.000000 -149.999954
v -49.999969 -250.000015 -249.999954
v -49.999969 -150.000015 -149.999969
v -49.999969 -250.000015 -249.999954
v -49.999969 -250.000000 -149.999954
v -49.999969 -150.000031 -249.999969
v -49.999969 -150.000061 -449.999969
v 50.000031 -250.000046 -449.999969
v -49.999969 -250.000046 -449.999969
v 50.000031 -150.000061 -449.999969
v 50.000061 -350.000000 -49.999943
v 50.000031 -249.999969 -49.999958
v 50.000061 -350.000031 -149.999939
v -49.999969 -149.999985 -49.999977
v -49.999969 -249.999969 -49.999958
v 50.000031 -149.999985 -49.999977
v -49.999939 -350.000000 -49.999943
v -49.999939 -350.000031 -149.999939
v 50.000061 -350.000000 -49.999943
v 50.000061 -350.000031 -149.999939
v -49.999939 -350.000031 -149.999939
v 50.000031 -250.000000 -149.999954
v 50.000061 -350.000031 -149.999939
v -49.999969 -250.000000 -149.999954
v -49.999939 -350.000031 -149.999939
v -49.999939 -350.000000 -49.999943
v 50.000031 -150.000046 -349.999969
v -49.999969 -150.000061 -449.999969
v -49.999969 -150.000046 -349.999969
v 50.000031 -150.000061 -449.999969
v 50.000031 -150.000031 -249.999969
v -49.999969 -150.000031 -249.999969
v -49.999969 -150.000046 -349.999969
v -49.999969 -250.000046 -449.999969
v -49.999969 -250.000031 -349.999939
v -49.999969 -150.000061 -449.999969
v -49.999969 -250.000031 -349.999939
v 50.000031 -250.000046 -449.999969
v 50.000031 -250.000031 -349.999939
v -49.999969 -250.000046 -449.999969
v 50.000031 -250.000031 -349.999939
v 50.000031 -150.000061 -449.999969
v 50.000031 -150.000046 -349.999969
v 50.000031 -250.000046 -449.999969
v -250.000000 -50.000046 -150.000000
v -150.000000 -50.000061 -249.999985
v -150.000000 -50.000046 -150.000000
v -250.000000 -50.000061 -249.999985
v -250.000000 49.999939 -150.000000
v -250.000000 -50.000061 -249.999985
v -250.000000 -50.000046 -150.000000
v -250.000000 49.999924 -250.000015
v -150.000000 49.999962 -150.000000
v -250.000000 49.999924 -250.000015
v -250.000000 49.999939 -150.000000
v -150.000000 49.999947 -250.000015
v -150.000000 -50.000095 -450.000000
v -250.000000 49.999889 -450.000000
v -150.000000 49.999912 -450.000000
v -250.000000 -50.000095 -450.000000
v -350.000000 -50.000076 -49.999992
v -250.000000 -50.000031 -49.999992
v -350.000000 -50.000092 -150.000000
v -150.000000 49.999977 -50.000008
v -250.000000 49.999954 -50.000008
v -150.000000 -50.000031 -49.999992
v -350.000000 49.999931 -50.000008
v -350.000000 49.999916 -150.000000
v -350.000000 -50.000076 -49.999992
v -350.000000 -50.000092 -150.000000
v -250.000000 -50.000046 -150.000000
v -350.000000 49.999916 -150.000000
v -250.000000 49.999939 -150.000000
v -350.000000 -50.000092 -150.000000
v -350.000000 49.999916 -150.000000
v -350.000000 49.999931 -50.000008
v -150.000000 -50.000080 -350.000000
v -150.000000 49.999912 -450.000000
v -150.000000 49.999928 -350.000000
v -150.000000 -50.000095 -450.000000
v -150.000000 -50.000061 -249.999985
v -150.000000 49.999947 -250.000015
v -150.000000 49.999928 -350.000000
v -250.000000 49.999889 -450.000000
v -250.000000 49.999905 -350.000000
v -150.000000 49.999912 -450.000000
v -250.000000 49.999905 -350.000000
v -250.000000 -50.000095 -450.000000
v -250.000000 -50.000080 -350.000000
v -250.000000 49.999889 -450.000000
v -250.000000 -50.000080 -350.000000
v -150.000000 -50.000095 -450.000000
v -150.000000 -50.000080 -350.000000
v -250.000000 -50.000095 -450.000000
v 50.000004 350.000031 -50.000057
v -50.000004 350.000031 -50.000057
v -50.000004 250.000046 -50.000042
v 50.000004 250.000046 -50.000042
v -50.000004 150.000015 -50.000023
v 50.000004 150.000015 -50.000023
v 50.000031 -149.999985 -49.999977
v -49.999969 -149.999985 -49.999977
v -49.999969 -249.999969 -49.999958
v 50.000031 -249.999969 -49.999958
v -49.999939 -350.000000 -49.999943
v 50.000061 -350.000000 -49.999943
v -150.000000 49.999977 -50.000008
v -250.000000 49.999954 -50.000008
v -150.000000 -50.000031 -49.999992
v -250.000000 -50.000031 -49.999992
v -350.000000 49.999931 -50.000008
v -350.000000 -50.000076 -49.999992
v -50.000004 150.000000 -150.000031
v 50.000004 150.000000 -150.000031
v 50.000004 150.000015 -50.000023
v -50.000004 150.000015 -50.000023
v 150.000000 50.000019 -150.000000
v 150.000000 -49.999977 -150.000000
v 150.000000 -49.999962 -49.999992
v 150.000000 50.000034 -50.000008
v 150.000000 -49.999962 -49.999992
v 250.000000 50.000034 -50.000008
v 150.000000 50.000034 -50.000008
v 250.000000 -49.999985 -49.999992
v 350.000000 -49.999962 -49.999992
v 350.000000 50.000046 -50.000008
v 50.000031 -150.000015 -149.999969
v -49.999969 -150.000015 -149.999969
v -49.999969 -149.999985 -49.999977
v 50.000031 -149.999985 -49.999977
v -150.000000 -50.000046 -150.000000
v -150.000000 49.999962 -150.000000
v -150.000000 49.999977 -50.000008
v -150.000000 -50.000031 -49.999992
v -150.000000 -150.000000 -99.999977
v -100.000000 99.999992 -100.000015
v -100.000000 -99.999992 -99.999985
v 150.000000 -150.000000 -99.999977
v -150.000000 150.000000 -100.000023
v 100.000000 -99.999992 -99.999985
v 100.000000 99.999992 -100.000015
v 150.000000 150.000000 -100.000023
v -150.000000 150.000015 -50.000023
v -150.000000 -149.999985 -49.999977
v -100.000000 -99.999985 -49.999985
v -100.000000 100.000008 -50.000015
v 150.000000 150.000015 -50.000023
v 100.000000 -99.999985 -49.999985
v 150.000000 -149.999985 -49.999977
v 100.000000 100.000008 -50.000015
vn -1.0000 -0.0000 -0.0000
vn -0.0000 1.0000 -0.0000
vn 1.0000 -0.0000 -0.0000
vn -0.0000 -1.0000 -0.0000
vn -0.0000 -0.0000 -1.0000
vn -0.0000 -0.0000 1.0000
vt 0.750000 0.875000
vt 0.625000 0.875000
vt 0.625000 0.750000
vt 0.750000 0.750000
vt 0.750000 0.999969
vt 0.875000 0.875000
vt 0.875000 0.999969
vt 0.875000 0.750000
vt 0.875000 0.625000
vt 0.750000 0.625000
vt 0.000031 0.500000
vt 0.375000 0.500000
vt 0.375000 0.562500
vt 0.000031 0.562500
vt 0.625000 0.999969
vt 0.000031 0.625000
vt 0.250000 0.562500
vt 0.250000 0.625000
vt 0.500000 0.562500
vt 0.500000 0.625000
vt 0.062500 0.937500
vt 0.000031 0.999969
vt 0.062500 0.687500
vt 0.375000 0.999969
vt 0.312500 0.937500
vt 0.312500 0.687500
vt 0.375000 0.625000
s 1
usemtl MI_CoreLid_Dummy
f 270/1/3 269/2/3 219/3/3 220/4/3
f 85/5/2 104/1/2 100/6/2 83/7/2
f 263/6/6 264/1/6 260/4/6 262/8/6
f 238/9/6 236/8/6 235/4/6 237/10/6
f 98/1/5 96/6/5 97/7/5 95/5/5
f 94/1/4 92/6/4 93/7/4 91/5/4
f 186/7/4 184/5/4 185/1/4 183/6/4
f 208/6/1 207/7/1 205/5/1 206/1/1
f 174/1/1 172/6/1 173/7/1 171/5/1
f 242/4/6 239/10/6 240/9/6 241/8/6
f 36/7/1 34/5/1 35/1/1 33/6/1
f 158/6/4 157/7/4 155/5/4 156/1/4
f 12/11/3 10/12/3 11/13/3 9/14/3
f 179/7/3 181/5/3 134/1/3 136/6/3
f 8/11/2 6/12/2 7/13/2 5/14/2
f 68/3/4 66/4/4 67/1/4 65/2/4
f 103/5/4 93/1/4 113/6/4 114/7/4
f 252/1/4 251/2/4 69/3/4 70/4/4
f 71/1/3 73/6/3 42/7/3 44/5/3
f 253/5/4 254/15/4 251/2/4 252/1/4
f 182/7/3 180/5/3 181/1/3 179/6/3
f 26/16/2 28/14/2 27/17/2 25/18/2
f 148/1/5 146/6/5 147/7/5 145/5/5
f 143/6/1 153/7/1 152/5/1 141/1/1
f 190/7/1 188/5/1 189/1/1 187/6/1
f 171/1/1 173/6/1 142/7/1 144/5/1
f 16/13/4 14/14/4 15/11/4 13/12/4
f 82/7/1 80/5/1 81/1/1 79/6/1
f 75/7/2 77/5/2 38/1/2 40/6/2
f 74/1/3 72/6/3 73/7/3 71/5/3
f 193/6/2 203/7/2 202/5/2 191/1/2
f 185/5/4 204/1/4 200/6/4 183/7/4
f 203/5/2 193/1/2 213/6/2 214/7/2
f 262/8/6 260/4/6 261/10/6 259/9/6
f 162/1/5 160/6/5 161/7/5 159/5/5
f 58/6/2 57/7/2 55/5/2 56/1/2
f 228/7/1 226/5/1 227/1/1 225/6/1
f 65/3/4 67/4/4 70/1/4 69/2/4
f 225/7/1 227/5/1 188/1/1 190/6/1
f 129/7/2 131/5/2 84/1/2 86/6/2
f 153/5/1 143/1/1 163/6/1 164/7/1
f 62/5/5 61/1/5 59/6/5 60/7/5
f 86/7/2 84/5/2 85/1/2 83/6/2
f 165/3/2 167/4/2 170/1/2 169/2/2
f 35/5/1 54/1/1 50/6/1 33/7/1
f 224/1/2 222/6/2 223/7/2 221/5/2
f 22/16/4 24/14/4 23/17/4 21/18/4
f 175/7/4 177/5/4 138/1/4 140/6/4
f 128/7/3 126/5/3 127/1/3 125/6/3
f 78/7/2 76/5/2 77/1/2 75/6/2
f 144/1/1 142/6/1 143/7/1 141/5/1
f 178/7/4 176/5/4 177/1/4 175/6/4
f 244/1/6 242/4/6 241/8/6 243/6/6
f 51/7/1 33/5/1 50/1/1 49/6/1
f 48/7/5 45/5/5 46/1/5 47/6/5
f 40/7/2 38/5/2 39/1/2 37/6/2
f 271/5/3 272/15/3 269/2/3 270/1/3
f 44/1/3 42/6/3 43/7/3 41/5/3
f 79/7/1 81/5/1 34/1/1 36/6/1
f 168/3/2 166/4/2 167/1/2 165/2/2
f 90/7/3 88/5/3 89/1/3 87/6/3
f 135/5/3 154/1/3 150/6/3 133/7/3
f 140/7/4 138/5/4 139/1/4 137/6/4
f 198/6/5 196/7/5 197/5/5 195/1/5
f 125/7/3 127/5/3 88/1/3 90/6/3
f 246/8/6 248/4/6 247/10/6 245/9/6
f 136/7/3 134/5/3 135/1/3 133/6/3
f 257/5/1 258/15/1 255/2/1 256/1/1
f 101/7/2 83/5/2 100/1/2 99/6/2
f 215/3/3 217/4/3 220/1/3 219/2/3
f 93/6/4 103/7/4 102/5/4 91/1/4
f 250/1/6 248/4/6 246/8/6 249/6/6
f 218/3/3 216/4/3 217/1/3 215/2/3
f 201/7/4 183/5/4 200/1/4 199/6/4
f 194/1/2 192/6/2 193/7/2 191/5/2
f 4/13/1 2/14/1 3/11/1 1/12/1
f 115/3/1 117/4/1 120/1/1 119/2/1
f 124/1/4 122/6/4 123/7/4 121/5/4
f 232/7/4 230/5/4 231/1/4 229/6/4
f 121/1/4 123/6/4 92/7/4 94/5/4
f 267/5/2 268/15/2 265/2/2 266/1/2
f 132/7/2 130/5/2 131/1/2 129/6/2
f 30/18/3 32/17/3 31/19/3 29/20/3
f 256/1/1 255/2/1 119/3/1 120/4/1
f 212/7/5 210/5/5 211/1/5 209/6/5
f 118/3/1 116/4/1 117/1/1 115/2/1
f 236/8/6 233/6/6 234/1/6 235/4/6
f 53/5/3 43/1/3 63/6/3 64/7/3
f 229/7/4 231/5/4 184/1/4 186/6/4
f 18/18/1 20/17/1 19/19/1 17/20/1
f 112/1/5 110/6/5 111/7/5 109/5/5
f 221/1/2 223/6/2 192/7/2 194/5/2
f 43/6/3 53/7/3 52/5/3 41/1/3
f 151/7/3 133/5/3 150/1/3 149/6/3
f 108/6/3 107/7/3 105/5/3 106/1/3
f 275/21/5 273/22/5 274/23/5
f 275/21/5 276/24/5 273/22/5
f 274/23/5 273/22/5 277/16/5
f 278/25/5 276/24/5 275/21/5
f 277/16/5 279/26/5 274/23/5
f 278/25/5 280/27/5 276/24/5
f 280/27/5 279/26/5 277/16/5
f 279/26/5 280/27/5 278/25/5
f 283/23/6 281/22/6 282/16/6
f 284/21/6 281/22/6 283/23/6
f 284/21/6 285/24/6 281/22/6
f 282/16/6 286/26/6 283/23/6
f 266/1/2 265/2/2 169/3/2 170/4/2
f 287/27/6 286/26/6 282/16/6
f 288/25/6 285/24/6 284/21/6
f 288/25/6 287/27/6 285/24/6
f 286/26/6 287/27/6 288/25/6
f 286/26/6 288/25/6 284/21/6 283/23/6
