# Blender 5.0.1
# www.blender.org
mtllib BP_DoorExit_HBH.mtl
o SM_Highblockhall_EndDoor.001
v -38.917503 86.321167 411.720764
v -49.219242 93.784988 411.720764
v -50.812962 88.925453 411.720795
v -37.323788 91.180702 411.720764
v -50.812962 88.925453 411.720795
v -49.220291 93.783295 -50.712181
v -50.814011 88.923767 -50.712158
v -49.219242 93.784988 411.720764
v -4.717819 78.834267 527.328979
v -25.428078 88.576836 527.328979
v -27.021797 83.717300 527.328979
v -3.124102 83.693802 527.328918
v -27.021929 83.717094 469.524841
v -37.323669 91.180916 469.524841
v -38.917385 86.321381 469.524841
v -25.428209 88.576630 469.524841
v -27.021929 83.717094 469.524841
v -25.428078 88.576836 527.328979
v -25.428209 88.576630 469.524841
v -27.021797 83.717300 527.328979
v -38.917385 86.321381 469.524841
v -37.323788 91.180702 411.720764
v -38.917503 86.321167 411.720764
v -37.323669 91.180916 469.524841
v -38.918552 86.319481 -50.712177
v -50.814011 88.923767 -50.712158
v -49.220291 93.783295 -50.712181
v -37.324837 91.179008 -50.712196
v -27.023106 83.715195 -50.712193
v -25.429386 88.574730 -50.712215
v -4.719129 78.832153 -50.712227
v -3.125411 83.691689 -50.712246
v -49.220291 93.783295 -50.712181
v -49.219242 93.784988 411.720764
v -37.324837 91.179008 -50.712196
v -37.323788 91.180702 411.720764
v -25.428209 88.576630 469.524841
v -37.323669 91.180916 469.524841
v -25.428339 88.576416 411.720734
v -25.429386 88.574730 -50.712215
v -3.124364 83.693375 411.720703
v -3.125411 83.691689 -50.712246
v -3.124232 83.693588 469.524780
v -25.428078 88.576836 527.328979
v -3.124102 83.693802 527.328918
v -27.021797 83.717300 527.328979
v -4.717950 78.834053 469.524841
v -4.717819 78.834267 527.328979
v -27.021929 83.717094 469.524841
v -27.022058 83.716881 411.720764
v -4.718081 78.833847 411.720703
v -4.719129 78.832153 -50.712227
v -27.023106 83.715195 -50.712193
v -38.917503 86.321167 411.720764
v -38.917385 86.321381 469.524841
v -38.918552 86.319481 -50.712177
v -50.814011 88.923767 -50.712158
v -50.812962 88.925453 411.720795
v -4.717819 78.834267 527.328979
v -3.124232 83.693588 469.524780
v -3.124102 83.693802 527.328918
v -4.717950 78.834053 469.524841
v -4.718081 78.833847 411.720703
v -3.124364 83.693375 411.720703
v -3.125411 83.691689 -50.712246
v -4.719129 78.832153 -50.712227
v 49.300453 93.782761 -50.712402
v 49.301502 93.784447 411.720520
v 49.837090 88.770927 -50.712387
v 49.838139 88.772621 411.720551
v 37.570030 87.895943 469.524719
v 24.765171 92.030884 469.524719
v 25.301805 87.019051 469.524719
v 37.033394 92.907768 469.524719
v 49.838139 88.772621 411.720551
v 37.033272 92.907562 411.720581
v 37.569904 87.895729 411.720581
v 49.301502 93.784447 411.720520
v 24.765171 92.030884 469.524719
v 24.765303 92.031090 527.328857
v 25.301805 87.019051 469.524719
v 25.301937 87.019264 527.328857
v 37.033272 92.907562 411.720581
v 37.033394 92.907768 469.524719
v 37.569904 87.895729 411.720581
v 37.570030 87.895943 469.524719
v 25.301937 87.019264 527.328857
v 1.762353 90.386925 527.328918
v 2.298991 85.375099 527.328918
v 24.765303 92.031090 527.328857
v 49.301502 93.784447 411.720520
v 49.300453 93.782761 -50.712402
v 37.032223 92.905869 -50.712372
v 37.033272 92.907562 411.720581
v 24.763994 92.028984 -50.712341
v 24.765041 92.030670 411.720612
v 37.033394 92.907768 469.524719
v 24.765171 92.030884 469.524719
v 1.762092 90.386505 411.720673
v 1.761044 90.384819 -50.712284
v 1.762223 90.386719 469.524780
v 1.762353 90.386925 527.328918
v 24.765303 92.031090 527.328857
v 49.837090 88.770927 -50.712387
v 37.032223 92.905869 -50.712372
v 49.300453 93.782761 -50.712402
v 37.568855 87.894043 -50.712357
v 24.763994 92.028984 -50.712341
v 25.300629 87.017151 -50.712326
v 1.761044 90.384819 -50.712284
v 2.297682 85.372986 -50.712265
v 1.762223 90.386719 469.524780
v 2.298991 85.375099 527.328918
v 1.762353 90.386925 527.328918
v 2.298861 85.374886 469.524780
v 1.762092 90.386505 411.720673
v 2.298730 85.374680 411.720673
v 2.297682 85.372986 -50.712265
v 1.761044 90.384819 -50.712284
v 49.837090 88.770927 -50.712387
v 49.838139 88.772621 411.720551
v 37.569904 87.895729 411.720581
v 37.568855 87.894043 -50.712357
v 25.301676 87.018845 411.720612
v 37.570030 87.895943 469.524719
v 25.300629 87.017151 -50.712326
v 25.301805 87.019051 469.524719
v 2.298730 85.374680 411.720673
v 2.297682 85.372986 -50.712265
v 2.298861 85.374886 469.524780
v 2.298991 85.375099 527.328918
v 25.301937 87.019264 527.328857
v 17.633385 86.469757 129.925583
v 8.699510 83.315720 131.185104
v 17.900686 83.973389 131.185074
v 8.432209 85.812096 129.925613
v 17.970745 83.318016 87.996948
v 8.769568 82.660347 87.996979
v 8.502267 85.156723 86.737488
v 17.703445 85.814384 86.737457
v 17.703445 85.814384 86.737457
v 17.633385 86.469757 129.925583
v 17.970745 83.318016 87.996948
v 17.900686 83.973389 131.185074
v 8.769568 82.660347 87.996979
v 8.432209 85.812096 129.925613
v 8.502267 85.156723 86.737488
v 8.699510 83.315720 131.185104
v 14.589680 86.032082 115.529556
v 14.880334 83.317245 102.393005
v 14.856981 83.535706 116.789032
v 14.613033 85.813622 101.133514
v 11.789922 83.316483 116.789032
v 14.589680 86.032082 115.529556
v 14.856981 83.535706 116.789032
v 11.522621 85.812859 115.529556
v 11.813274 83.098030 102.393005
v 11.522621 85.812859 115.529556
v 11.789922 83.316483 116.789032
v 11.545975 85.594398 101.133514
v 14.613033 85.813622 101.133514
v 11.813274 83.098030 102.393005
v 14.880334 83.317245 102.393005
v 11.545975 85.594398 101.133514
v 8.769568 82.660347 87.996979
v 17.970745 83.318016 87.996948
v 14.880334 83.317245 102.393005
v 17.900686 83.973389 131.185074
v 11.813274 83.098030 102.393005
v 14.856981 83.535706 116.789032
v 11.789922 83.316483 116.789032
v 8.699510 83.315720 131.185104
v 17.633385 86.469757 129.925583
v 11.522621 85.812859 115.529556
v 8.432209 85.812096 129.925613
v 8.502267 85.156723 86.737488
v 14.589680 86.032082 115.529556
v 11.545975 85.594398 101.133514
v 14.613033 85.813622 101.133514
v 17.703445 85.814384 86.737457
v -20.381859 79.667656 131.185181
v -11.460268 77.714439 131.185181
v -10.666446 80.134956 129.925674
v -19.588034 82.088173 129.925690
v -11.668719 77.078979 87.997055
v -20.590307 79.032196 87.997055
v -19.796484 81.452713 86.737564
v -10.874896 79.499496 86.737549
v -10.874896 79.499496 86.737549
v -10.666446 80.134956 129.925674
v -11.668719 77.078979 87.997055
v -11.460268 77.714439 131.185181
v -20.590307 79.032196 87.997055
v -19.588034 82.088173 129.925690
v -19.796484 81.452713 86.737564
v -20.381859 79.667656 131.185181
v -13.709791 80.574211 115.529633
v -14.573098 77.941872 102.393097
v -14.503614 78.153694 116.789124
v -13.779274 80.362389 101.133591
v -17.477478 78.804764 116.789124
v -13.709791 80.574211 115.529633
v -14.503614 78.153694 116.789124
v -16.683655 81.225281 115.529633
v -17.546961 78.592941 102.393097
v -16.683655 81.225281 115.529633
v -17.477478 78.804764 116.789124
v -16.753138 81.013458 101.133591
v -14.573098 77.941872 102.393097
v -16.753138 81.013458 101.133591
v -17.546961 78.592941 102.393097
v -13.779274 80.362389 101.133591
v -11.668719 77.078979 87.997055
v -17.546961 78.592941 102.393097
v -20.590307 79.032196 87.997055
v -20.381859 79.667656 131.185181
v -14.573098 77.941872 102.393097
v -17.477478 78.804764 116.789124
v -14.503614 78.153694 116.789124
v -11.460268 77.714439 131.185181
v -19.588034 82.088173 129.925690
v -10.666446 80.134956 129.925674
v -13.709791 80.574211 115.529633
v -10.874896 79.499496 86.737549
v -16.683655 81.225281 115.529633
v -13.779274 80.362389 101.133591
v -16.753138 81.013458 101.133591
v -19.796484 81.452713 86.737564
vn -0.0000 -0.0000 1.0000
vn -0.9502 0.3116 -0.0000
vn -0.0000 -0.0000 -1.0000
vn 0.2139 0.9769 -0.0000
vn -0.2139 -0.9769 -0.0000
vn 0.9502 -0.3116 -0.0000
vn 0.9943 0.1065 -0.0000
vn -0.0713 0.9975 -0.0000
vn -0.9943 -0.1065 -0.0000
vn 0.0713 -0.9975 -0.0000
vn -0.0320 0.4475 0.8937
vn 0.0320 -0.4475 -0.8937
vn 0.0713 -0.9973 0.0153
vn -0.0713 0.9973 -0.0153
vn 0.0952 0.4348 0.8955
vn -0.0952 -0.4348 -0.8955
vn -0.2138 -0.9767 0.0154
vn 0.2138 0.9767 -0.0154
vt 0.687500 0.041992
vt 0.687500 0.000000
vt 0.770508 0.000000
vt 0.770508 0.041992
vt 0.125000 0.708496
vt 0.041656 0.708496
vt 0.041656 0.041992
vt 0.125000 0.041992
vt 0.020828 0.999969
vt 0.020828 0.979172
vt 0.083313 0.979172
vt 0.083313 0.999969
vt 0.687500 0.833374
vt 0.687500 0.791748
vt 0.770508 0.791748
vt 0.770508 0.833374
vt 0.447754 0.791748
vt 0.447754 0.708496
vt 0.604004 0.708496
vt 0.604004 0.791748
vt 0.406250 0.041992
vt 0.447754 0.041992
vt 0.406250 0.708496
vt 0.208252 0.000000
vt 0.208252 0.041992
vt 0.125000 0.000000
vt 0.125000 0.750000
vt 0.041656 0.750000
vt 0.687500 0.708496
vt 0.604004 0.916687
vt 0.604004 0.875000
vt 0.687500 0.875000
vt 0.687500 0.916687
vt 0.447754 0.916687
vt 0.447754 0.875000
vt 0.770508 0.708496
vt 0.000031 0.875000
vt 0.020828 0.875000
vt 0.020828 0.895874
vt 0.000031 0.895874
vt 0.208252 0.791748
vt 0.364502 0.791748
vt 0.364502 0.708496
vt 0.208252 0.708496
vt 0.364502 0.875000
vt 0.208252 0.875000
vt 0.770508 0.750000
vt 0.687500 0.750000
vt 0.104126 0.979172
vt 0.083313 0.916687
vt 0.104126 0.916687
vt 0.812500 0.708496
vt 0.812500 0.041992
vt 0.406250 0.791748
vt 0.406250 0.875000
vt 0.364502 0.041992
vt 0.041656 0.875000
vt 0.062500 0.875000
vt 0.062500 0.895874
vt 0.041656 0.895874
vt 0.000031 0.708496
vt 0.000031 0.041992
vt 0.447754 0.000000
vt 0.604004 0.000000
vt 0.604004 0.041992
vt 0.125000 0.833374
vt 0.041656 0.833374
vt 0.041656 0.791748
vt 0.125000 0.791748
vt 0.083313 0.875000
vt 0.083313 0.895874
vt 0.208252 0.916687
vt 0.125000 0.916687
vt 0.125000 0.875000
vt 0.364502 0.916687
vt 0.000031 0.979172
vt -0.000031 0.916687
vt 0.020828 0.916687
vt 0.604004 0.833374
vt 0.208252 0.833374
vt 0.062500 0.937500
vt 0.041656 0.937500
vt 0.062500 0.958344
vt 0.041656 0.958344
vt 0.166626 0.916687
vt 0.125000 0.937500
vt 0.145752 0.937500
vt 0.125000 0.958344
vt 0.145752 0.958344
vt 0.166626 0.979172
vt 0.364502 0.000000
vt 0.041656 0.000000
s 1
usemtl MI_Highblockhall_Enddoor
f 54/5/5 58/6/5 57/7/5 56/8/5
f 30/24/3 29/25/3 25/8/3 28/26/3
f 4/27/1 2/28/1 3/6/1 1/5/1
f 36/5/4 35/8/4 33/7/4 34/6/4
f 37/41/4 43/42/4 41/43/4 39/44/4
f 45/45/4 43/42/4 37/41/4 44/46/4
f 54/5/5 56/8/5 53/25/5 50/44/5
f 59/45/6 62/42/6 60/54/6 61/55/6
f 64/23/6 60/54/6 62/42/6 63/43/6
f 63/43/6 66/56/6 65/21/6 64/23/6
f 8/61/2 6/62/2 7/7/2 5/6/2
f 40/25/4 39/44/4 41/43/4 42/56/4
f 24/66/2 22/67/2 23/68/2 21/69/2
f 51/43/5 47/42/5 49/41/5 50/44/5
f 50/44/5 53/25/5 52/56/5 51/43/5
f 39/44/4 36/5/4 38/69/4 37/41/4
f 49/41/5 55/69/5 54/5/5 50/44/5
f 20/46/2 18/72/2 19/73/2 17/74/2
f 12/75/1 10/72/1 11/46/1 9/45/1
f 39/44/4 40/25/4 35/8/4 36/5/4
f 16/80/1 14/66/1 15/69/1 13/41/1
f 49/41/5 47/42/5 48/45/5 46/46/5
f 32/91/3 31/56/3 29/25/3 30/24/3
f 27/92/3 28/26/3 25/8/3 26/7/3
usemtl MI_Highblockhall_Enddoor
f 107/1/3 105/2/3 106/3/3 104/4/3
f 84/13/7 86/14/7 85/15/7 83/16/7
f 130/17/10 128/18/10 124/19/10 127/20/10
f 119/21/9 118/22/9 117/18/9 116/23/9
f 125/14/10 127/20/10 124/19/10 122/29/10
f 80/30/7 82/31/7 81/32/7 79/33/7
f 90/30/1 88/34/1 89/35/1 87/31/1
f 122/29/10 123/1/10 120/4/10 121/36/10
f 101/17/8 98/20/8 96/19/8 99/18/8
f 78/47/1 76/48/1 77/29/1 75/36/1
f 68/52/7 70/36/7 69/4/7 67/53/7
f 117/18/9 115/17/9 112/54/9 116/23/9
f 111/22/3 110/63/3 108/64/3 109/65/3
f 95/65/8 96/19/8 94/29/8 93/1/8
f 109/65/3 108/64/3 105/2/3 107/1/3
f 115/17/9 113/35/9 114/55/9 112/54/9
f 100/22/8 99/18/8 96/19/8 95/65/8
f 93/1/8 94/29/8 91/36/8 92/4/8
f 127/20/10 132/31/10 131/35/10 130/17/10
f 74/13/1 72/79/1 73/20/1 71/14/1
f 128/18/10 129/22/10 126/65/10 124/19/10
f 124/19/10 126/65/10 123/1/10 122/29/10
f 98/20/8 97/14/8 94/29/8 96/19/8
f 103/31/8 98/20/8 101/17/8 102/35/8
usemtl MI_Highblockhall_Enddoor
f 136/9/11 134/10/11 135/11/11 133/12/11
f 142/49/7 144/11/7 143/50/7 141/51/7
f 152/70/9 150/71/9 151/59/9 149/58/9
f 148/10/9 146/76/9 147/77/9 145/78/9
f 156/57/12 154/58/12 155/59/12 153/60/12
f 167/81/13 165/78/13 166/50/13
f 166/50/13 168/11/13 167/81/13
f 169/82/13 165/78/13 167/81/13
f 170/83/13 167/81/13 168/11/13
f 169/82/13 171/84/13 165/78/13
f 170/83/13 168/11/13 171/84/13
f 172/10/13 165/78/13 171/84/13
f 172/10/13 171/84/13 168/11/13
f 175/51/14 173/85/14 174/86/14
f 174/86/14 176/49/14 175/51/14
f 177/87/14 174/86/14 173/85/14
f 174/86/14 178/88/14 176/49/14
f 177/87/14 173/85/14 179/89/14
f 178/88/14 179/89/14 176/49/14
f 179/89/14 173/85/14 180/90/14
f 180/90/14 176/49/14 179/89/14
f 164/38/11 162/39/11 163/40/11 161/37/11
f 140/71/12 137/50/12 138/78/12 139/39/12
f 160/38/7 158/57/7 159/60/7 157/39/7
usemtl MI_Highblockhall_Enddoor
f 212/37/15 210/38/15 211/39/15 209/40/15
f 190/49/6 192/11/6 191/50/6 189/51/6
f 204/57/16 202/58/16 203/59/16 201/60/16
f 208/38/6 206/57/6 207/60/6 205/39/6
f 187/39/16 188/71/16 185/50/16 186/78/16
f 184/9/15 181/10/15 182/11/15 183/12/15
f 196/10/2 194/76/2 195/77/2 193/78/2
f 200/70/2 198/71/2 199/59/2 197/58/2
f 215/78/17 213/50/17 214/82/17
f 214/82/17 216/10/17 215/78/17
f 217/81/17 214/82/17 213/50/17
f 218/84/17 216/10/17 214/82/17
f 217/81/17 213/50/17 219/83/17
f 218/84/17 219/83/17 216/10/17
f 219/83/17 213/50/17 220/11/17
f 220/11/17 216/10/17 219/83/17
f 223/87/18 221/51/18 222/85/18
f 222/85/18 224/90/18 223/87/18
f 225/86/18 221/51/18 223/87/18
f 226/89/18 223/87/18 224/90/18
f 225/86/18 227/88/18 221/51/18
f 226/89/18 224/90/18 227/88/18
f 228/49/18 221/51/18 227/88/18
f 227/88/18 224/90/18 228/49/18
