# Blender 5.0.1
# www.blender.org
mtllib BP_DoorLocked_Silver_LonelyFortress.mtl
o SK_DoorLock_LF_Gallery.001
v -144.999115 127.999611 -0.000196
v -144.999908 127.999611 299.998016
v -45.000038 127.999969 299.998077
v -44.999252 127.999969 -0.000197
v -744.998169 -322.002045 299.997772
v -744.999817 127.997437 299.997772
v -744.997437 -322.002045 -0.000205
v -744.999084 127.997437 -0.000205
v -344.998871 127.998886 -0.000193
v -344.999634 127.998886 299.997925
v -244.999786 127.999245 299.997986
v -244.998993 127.999245 -0.000195
v -32.499821 71.750107 81.249710
v -45.000217 184.249939 81.249710
v -32.500183 184.249985 81.249710
v -44.999851 71.750061 81.249710
v -45.000282 184.249939 231.249512
v -44.999924 71.750061 231.249512
v -32.499893 71.750107 231.249512
v -32.500256 184.249985 231.249512
v -45.000038 127.999969 299.998077
v -44.998409 -321.999512 299.998077
v -44.999252 127.999969 -0.000197
v -44.997623 -321.999512 -0.000197
v -32.499893 71.750107 231.249512
v -44.999851 71.750061 81.249710
v -32.499821 71.750107 81.249710
v -44.999924 71.750061 231.249512
v -444.997894 -322.000946 299.997894
v -444.997131 -322.000946 -0.000192
v -344.998016 -322.000610 299.997925
v -344.997253 -322.000610 -0.000193
v -545.001343 577.997681 299.997864
v -545.000488 127.998192 299.997894
v -445.000244 127.998550 299.997925
v -445.001129 577.998047 299.997894
v -145.000641 127.999641 299.998016
v -144.999878 127.999641 -0.000219
v -45.000801 128.000000 299.998077
v -45.000000 128.000000 -0.000197
v -757.499329 184.247360 231.249390
v -757.499023 71.747482 231.249390
v -744.999023 71.747528 231.249405
v -744.999268 184.247406 231.249405
v -44.998409 -321.999512 299.998077
v -45.000038 127.999969 299.998077
v -144.998291 -321.999878 299.998016
v -144.999908 127.999611 299.998016
v -744.999268 184.247406 231.249405
v -744.999023 71.747528 231.249405
v -744.999390 184.247406 81.249596
v -744.999023 71.747528 81.249596
v -144.998291 -321.999878 299.998016
v -144.997498 -321.999878 -0.000196
v -44.998409 -321.999512 299.998077
v -44.997623 -321.999512 -0.000197
v -244.998138 -322.000244 299.997986
v -244.997360 -322.000244 -0.000195
v -544.998962 127.998161 -0.000198
v -544.999756 127.998161 299.997864
v -444.999512 127.998520 299.997894
v -444.998749 127.998520 -0.000192
v -245.001404 577.998779 299.997986
v -345.000488 577.998413 -0.000193
v -345.001251 577.998413 299.997925
v -245.000641 577.998779 -0.000195
v -644.998291 -322.001678 299.997803
v -644.999939 127.997795 299.997803
v -744.998169 -322.002045 299.997772
v -744.999817 127.997437 299.997772
v -745.000549 127.997467 299.997833
v -745.001465 577.996948 299.997772
v -745.000732 577.996948 -0.000205
v -744.999817 127.997467 -0.000343
v -244.998138 -322.000244 299.997986
v -244.999786 127.999245 299.997986
v -344.998016 -322.000610 299.997925
v -344.999634 127.998886 299.997925
v -445.000244 127.998550 299.997925
v -444.999481 127.998550 -0.000283
v -345.000366 127.998917 299.997955
v -344.999603 127.998917 -0.000262
v -644.999207 127.997795 -0.000204
v -644.999939 127.997795 299.997803
v -545.000488 127.998192 299.997894
v -544.999695 127.998192 -0.000305
v -544.998169 -322.001312 299.997864
v -544.997314 -322.001312 -0.000198
v -445.001129 577.998047 299.997894
v -545.000610 577.997681 -0.000198
v -545.001343 577.997681 299.997864
v -445.000366 577.998047 -0.000192
v -245.000534 127.999275 299.998016
v -244.999741 127.999275 -0.000240
v -744.998169 -322.002045 299.997772
v -744.997437 -322.002045 -0.000205
v -644.998291 -322.001678 299.997803
v -644.997559 -322.001678 -0.000204
v -45.001667 577.999512 299.998077
v -145.000763 577.999146 -0.000196
v -145.001526 577.999146 299.998016
v -45.000881 577.999512 -0.000197
v -745.000549 127.997467 299.997833
v -744.999817 127.997467 -0.000343
v -645.000671 127.997826 299.997864
v -644.999939 127.997826 -0.000327
v -645.001587 577.997314 299.997803
v -645.000671 127.997826 299.997864
v -745.001465 577.996948 299.997772
v -745.000549 127.997467 299.997833
v -757.499023 71.747482 231.249390
v -744.999023 71.747528 81.249596
v -744.999023 71.747528 231.249405
v -757.499084 71.747482 81.249588
v -45.001667 577.999512 299.998077
v -45.000801 128.000000 299.998077
v -45.000000 128.000000 -0.000197
v -45.000881 577.999512 -0.000197
v -32.499893 71.750107 231.249512
v -32.499821 71.750107 81.249710
v -32.500256 184.249985 231.249512
v -32.500183 184.249985 81.249710
v -444.997894 -322.000946 299.997894
v -444.999512 127.998520 299.997894
v -544.998169 -322.001312 299.997864
v -544.999756 127.998161 299.997864
v -44.999924 71.750061 231.249512
v -45.000282 184.249939 231.249512
v -44.999851 71.750061 81.249710
v -45.000217 184.249939 81.249710
v -744.999268 184.247406 231.249405
v -744.999390 184.247406 81.249596
v -757.499329 184.247360 231.249390
v -757.499390 184.247360 81.249588
v -757.499023 71.747482 231.249390
v -757.499329 184.247360 231.249390
v -757.499390 184.247360 81.249588
v -757.499084 71.747482 81.249588
v -744.999023 71.747528 81.249596
v -757.499390 184.247360 81.249588
v -744.999390 184.247406 81.249596
v -757.499084 71.747482 81.249588
v -345.000366 127.998917 299.997955
v -345.001251 577.998413 299.997925
v -32.500256 184.249985 231.249512
v -45.000217 184.249939 81.249710
v -45.000282 184.249939 231.249512
v -32.500183 184.249985 81.249710
v -245.001404 577.998779 299.997986
v -245.000534 127.999275 299.998016
v -145.000641 127.999641 299.998016
v -145.001526 577.999146 299.998016
v -45.000801 128.000000 299.998077
v -45.001667 577.999512 299.998077
v -645.001587 577.997314 299.997803
v -745.000732 577.996948 -0.000205
v -745.001465 577.996948 299.997772
v -645.000854 577.997314 -0.000204
v -744.999084 127.997437 -0.000205
v -744.999817 127.997437 299.997772
v -45.000881 577.999512 -0.000197
v -45.000000 128.000000 -0.000197
v -145.000763 577.999146 -0.000196
v -144.999878 127.999641 -0.000219
v -245.000641 577.998779 -0.000195
v -244.999741 127.999275 -0.000240
v -345.000488 577.998413 -0.000193
v -344.999603 127.998917 -0.000262
v -445.000366 577.998047 -0.000192
v -444.999481 127.998550 -0.000283
v -545.000610 577.997681 -0.000198
v -544.999695 127.998192 -0.000305
v -645.000854 577.997314 -0.000204
v -644.999939 127.997826 -0.000327
v -745.000732 577.996948 -0.000205
v -744.999817 127.997467 -0.000343
v -644.999207 127.997795 -0.000204
v -744.997437 -322.002045 -0.000205
v -744.999084 127.997437 -0.000205
v -644.997559 -322.001678 -0.000204
v -544.998962 127.998161 -0.000198
v -544.997314 -322.001312 -0.000198
v -444.998749 127.998520 -0.000192
v -444.997131 -322.000946 -0.000192
v -344.998871 127.998886 -0.000193
v -344.997253 -322.000610 -0.000193
v -244.998993 127.999245 -0.000195
v -244.997360 -322.000244 -0.000195
v -144.997498 -321.999878 -0.000196
v -144.999115 127.999611 -0.000196
v -44.997623 -321.999512 -0.000197
v -44.999252 127.999969 -0.000197
vn -0.0000 1.0000 -0.0000
vn -1.0000 -0.0000 -0.0000
vn -0.0000 -0.0000 -1.0000
vn -0.0000 -0.0000 1.0000
vn 1.0000 -0.0000 -0.0000
vn -0.0000 -1.0000 -0.0000
vt 0.835938 0.191406
vt 0.898438 0.191406
vt 0.898438 0.382812
vt 0.835938 0.382812
vt 0.062500 0.500244
vt 0.062500 0.687744
vt 0.343750 0.687744
vt 0.343750 0.500000
vt 0.492188 0.750000
vt 0.492188 0.937500
vt 0.554688 0.937500
vt 0.554688 0.750000
vt 0.484375 0.898193
vt 0.414062 0.898193
vt 0.414062 0.890625
vt 0.484375 0.890625
vt 0.835938 0.687500
vt 0.835938 0.500000
vt 0.554688 0.500000
vt 0.554688 0.687500
vt 0.414062 0.796631
vt 0.484375 0.796631
vt 0.414062 0.992188
vt 0.406250 0.992188
vt 0.406250 0.898193
vt 0.835449 0.191406
vt 0.835449 0.378906
vt 0.893555 0.378906
vt 0.893555 0.191406
vt 0.492188 0.898193
vt 0.492188 0.992191
vt 0.484375 0.992191
vt 0.062469 0.750122
vt 0.062469 0.937531
vt 0.343506 0.937531
vt 0.343506 0.750122
vt 0.414062 0.999969
vt 0.484375 0.992188
vt 0.484375 1.000031
vt 0.835449 0.750000
vt 0.835449 0.937531
vt 0.898438 0.937500
vt 0.898438 0.750000
vt 0.554688 0.703369
vt 0.835449 0.703125
vt 0.835449 0.697998
vt 0.554688 0.697998
vt 0.343506 0.697998
vt 0.343506 0.687744
vt 0.062500 0.697998
vt 0.062500 0.378906
vt 0.062500 0.441406
vt 0.343750 0.441406
vt 0.343750 0.378906
vt 0.553223 0.378906
vt 0.553223 0.441406
vt 0.834473 0.441406
vt 0.834473 0.378906
vt 0.554688 0.937531
vt 0.554688 0.999968
vt 0.835449 0.999968
vt 0.835449 0.687744
vt 0.554688 0.687744
vt 0.343506 0.703369
vt 0.062500 0.703369
vt 0.835938 0.937531
vt 0.835938 0.750000
vt 0.062500 0.937531
vt 0.062500 0.999969
vt 0.343750 0.999969
vt 0.343750 0.937531
vt 0.554688 0.729248
vt 0.835449 0.729248
vt 0.835449 0.718750
vt 0.554688 0.718994
vt 0.343506 0.739746
vt 0.062500 0.739746
vt 0.062500 0.750122
vt 0.343506 0.729248
vt 0.343506 0.718994
vt 0.062500 0.718994
vt 0.062500 0.729248
vt 0.343506 0.708496
vt 0.062500 0.708496
vt 0.835449 0.708496
vt 0.554688 0.708496
vt 0.835938 0.999968
vt 0.554688 0.739746
vt 0.835449 0.739746
s 1
usemtl MI_Keydoor_LF_Gallery
f 92/1/1 90/2/1 91/3/1 89/4/1
f 74/5/2 71/6/2 72/7/2 73/8/2
f 40/9/6 39/10/6 37/11/6 38/12/6
f 142/13/3 140/14/3 141/15/3 139/16/3
f 16/15/3 14/16/3 15/13/3 13/14/3
f 6/17/2 8/18/2 7/19/2 5/20/2
f 50/15/5 52/21/5 51/22/5 49/16/5
f 2/11/1 1/12/1 12/9/1 11/10/1
f 134/14/1 133/23/1 131/24/1 132/25/1
f 88/26/6 87/27/6 97/28/6 98/29/6
f 114/13/6 112/30/6 113/31/6 111/32/6
f 118/33/5 115/34/5 116/35/5 117/36/5
f 44/37/4 41/23/4 42/38/4 43/39/4
f 98/40/6 97/41/6 95/42/6 96/43/6
f 100/1/1 66/2/1 63/3/1 101/4/1
f 38/9/6 37/10/6 93/11/6 94/12/6
f 3/11/1 4/12/1 1/9/1 2/10/1
f 60/11/1 59/12/1 83/9/1 84/10/1
f 128/22/2 130/16/2 129/15/2 127/21/2
f 20/38/4 17/39/4 18/37/4 19/23/4
f 181/44/3 182/45/3 180/46/3 177/47/3
f 80/9/6 79/10/6 85/11/6 86/12/6
f 90/1/1 158/2/1 155/3/1 91/4/1
f 11/11/1 12/12/1 9/9/1 10/10/1
f 61/11/1 62/12/1 59/9/1 60/10/1
f 58/26/6 57/27/6 31/28/6 32/29/6
f 56/26/6 55/27/6 53/28/6 54/29/6
f 102/1/1 100/2/1 101/3/1 99/4/1
f 10/11/1 9/12/1 62/9/1 61/10/1
f 106/9/6 105/10/6 103/11/6 104/12/6
f 82/12/6 81/11/6 79/10/6 80/9/6
f 174/48/3 176/49/3 175/6/3 173/50/3
f 144/51/4 36/52/4 35/53/4 143/54/4
f 64/1/1 92/2/1 89/3/1 65/4/1
f 32/26/6 31/27/6 29/28/6 30/29/6
f 54/26/6 53/27/6 57/28/6 58/29/6
f 36/51/4 33/52/4 34/53/4 35/54/4
f 124/55/4 126/56/4 125/57/4 123/58/4
f 48/55/4 76/56/4 75/57/4 47/58/4
f 46/59/4 48/60/4 47/61/4 45/41/4
f 138/13/2 135/38/2 136/23/2 137/14/2
f 122/13/5 121/38/5 119/23/5 120/14/5
f 177/47/3 180/46/3 178/62/3 179/63/3
f 172/64/3 174/48/3 173/50/3 171/65/3
f 22/66/5 24/67/5 23/12/5 21/59/5
f 148/13/1 146/30/1 147/31/1 145/32/1
f 154/68/4 152/69/4 151/70/4 153/71/4
f 187/72/3 188/73/3 186/74/3 185/75/3
f 28/24/6 26/25/6 27/14/6 25/23/6
f 66/1/1 64/2/1 65/3/1 63/4/1
f 162/36/3 164/76/3 163/77/3 161/78/3
f 33/51/4 107/52/4 108/53/4 34/54/4
f 158/1/1 156/2/1 157/3/1 155/4/1
f 84/11/1 83/12/1 159/9/1 160/10/1
f 94/9/6 93/10/6 81/11/6 82/12/6
f 86/9/6 85/10/6 105/11/6 106/12/6
f 30/26/6 29/27/6 87/28/6 88/29/6
f 107/68/4 109/69/4 110/70/4 108/71/4
f 166/79/3 168/80/3 167/81/3 165/82/3
f 149/51/4 144/52/4 143/53/4 150/54/4
f 152/51/4 149/52/4 150/53/4 151/54/4
f 164/76/3 166/79/3 165/82/3 163/77/3
f 170/83/3 172/64/3 171/65/3 169/84/3
f 168/80/3 170/83/3 169/84/3 167/81/3
f 185/75/3 186/74/3 184/85/3 183/86/3
f 126/55/4 68/56/4 67/57/4 125/58/4
f 76/55/4 78/56/4 77/57/4 75/58/4
f 68/59/4 70/60/4 69/87/4 67/66/4
f 183/86/3 184/85/3 182/45/3 181/44/3
f 78/55/4 124/56/4 123/57/4 77/58/4
f 190/88/3 189/89/3 188/73/3 187/72/3
f 192/12/3 191/40/3 189/89/3 190/88/3
