# Blender 5.0.1
# www.blender.org
mtllib BP_DoorExit_SS_Rowboat.mtl
o SM_Boat_paddle.001
v 41.433960 -69.999985 -132.700439
v 29.359886 -69.999985 -129.465210
v 29.359886 -57.499985 -129.465210
v 41.433960 -57.499985 -132.700439
v 61.712250 -57.500008 -8.724480
v 29.359886 -69.999985 -129.465210
v 61.712250 -70.000008 -8.724480
v 29.359886 -57.499985 -129.465210
v 73.786331 -70.000008 -11.959709
v 41.433960 -69.999985 -132.700439
v 73.786331 -57.500008 -11.959709
v 41.433960 -57.499985 -132.700439
v 62.579132 -57.500015 42.807045
v 49.638184 -57.500008 -5.489235
v 62.579132 -70.000015 42.807045
v 49.638184 -70.000008 -5.489243
v 98.801361 -70.000015 33.101334
v 85.860413 -57.500008 -15.194954
v 98.801361 -57.500015 33.101341
v 85.860413 -70.000008 -15.194954
v 98.801361 -57.500015 33.101341
v 62.579132 -57.500015 42.807045
v 62.579132 -70.000015 42.807045
v 98.801361 -70.000015 33.101334
v 49.638184 -70.000008 -5.489243
v 61.712250 -57.500008 -8.724480
v 61.712250 -70.000008 -8.724480
v 49.638184 -57.500008 -5.489235
v 85.860413 -70.000008 -15.194954
v 73.786331 -70.000008 -11.959709
v 85.860413 -57.500008 -15.194954
v 73.786331 -57.500008 -11.959709
v 41.433960 -69.999985 -132.700439
v 61.712250 -70.000008 -8.724480
v 29.359886 -69.999985 -129.465210
v 73.786331 -70.000008 -11.959709
v 62.579132 -70.000015 42.807045
v 49.638184 -70.000008 -5.489243
v 98.801361 -70.000015 33.101334
v 85.860413 -70.000008 -15.194954
v 61.712250 -57.500008 -8.724480
v 41.433960 -57.499985 -132.700439
v 29.359886 -57.499985 -129.465210
v 73.786331 -57.500008 -11.959709
v 98.801361 -57.500015 33.101341
v 85.860413 -57.500008 -15.194954
v 62.579132 -57.500015 42.807045
v 49.638184 -57.500008 -5.489235
vn -0.2588 -0.0000 -0.9659
vn -0.9659 -0.0000 0.2588
vn 0.9659 -0.0000 -0.2588
vn 0.2588 -0.0000 0.9659
vn -0.0000 -1.0000 -0.0000
vn -0.0000 1.0000 -0.0000
vt 0.062500 0.500000
vt 0.062500 0.468750
vt 0.187500 0.468750
vt 0.187500 0.500000
vt 0.125000 0.468750
vt 0.437500 0.468750
vt 0.437500 0.500000
vt 0.125000 0.500000
vt 0.312500 0.468750
vt 0.312500 0.500000
vt 0.093750 0.500000
vt 0.093750 0.468750
vt 0.468750 0.468750
vt 0.468750 0.500000
vt 0.125000 0.437500
vt 0.000031 0.437500
vt 0.000031 0.531250
vt 0.125000 0.531250
vt 0.031250 0.500000
vt 0.031250 0.468750
s 1
usemtl MI_Boat
f 20/1/3 18/2/3 19/3/3 17/4/3
f 12/5/3 11/6/3 9/7/3 10/8/3
f 24/4/4 21/3/4 22/9/4 23/10/4
f 4/5/1 1/8/1 2/11/1 3/12/1
f 8/6/2 6/7/2 7/8/2 5/5/2
f 36/8/5 34/5/5 35/6/5 33/7/5
f 16/7/2 15/10/2 13/9/2 14/6/2
f 28/6/1 26/13/1 27/14/1 25/7/1
f 41/8/6 44/5/6 42/6/6 43/7/6
f 38/15/5 34/5/5 37/16/5
f 34/5/5 36/8/5 37/16/5
f 39/17/5 37/16/5 36/8/5
f 40/18/5 39/17/5 36/8/5
f 44/5/6 45/16/6 46/15/6
f 45/16/6 44/5/6 47/17/6
f 41/8/6 47/17/6 44/5/6
f 48/18/6 47/17/6 41/8/6
f 30/19/1 32/20/1 31/2/1 29/1/1
