# Blender 5.0.1
# www.blender.org
mtllib BP_DJ_Creeper_Trigger.mtl
o SM_Creeper_Pillar.001
v 45.645592 -149.694199 0.467278
v 45.645462 -50.628769 399.628265
v 45.645462 -149.694214 399.628296
v 45.645592 -50.628754 0.467281
v -53.419983 -149.694214 399.628265
v -53.419853 -149.694199 0.467243
v 45.645592 -149.694199 0.467278
v 45.645462 -149.694214 399.628296
v -53.419983 -50.628769 399.628235
v -53.419853 -50.628754 0.467247
v -53.419853 -149.694199 0.467243
v -53.419983 -149.694214 399.628265
v 45.645462 -50.628769 399.628265
v 45.645592 -50.628754 0.467281
v -53.419853 -50.628754 0.467247
v -53.419983 -50.628769 399.628235
v 45.645462 -50.628769 399.628265
v -53.419983 -50.628769 399.628235
v -53.419983 -149.694214 399.628265
v 45.645462 -149.694214 399.628296
v -53.419853 -149.694199 0.467243
v -53.419853 -50.628754 0.467247
v 45.645592 -149.694199 0.467278
v 45.645592 -50.628754 0.467281
vn 1.0000 -0.0000 -0.0000
vn -0.0000 -1.0000 -0.0000
vn -1.0000 -0.0000 -0.0000
vn -0.0000 1.0000 -0.0000
vn -0.0000 -0.0000 1.0000
vn -0.0000 -0.0000 -1.0000
vt 0.375000 0.375000
vt 0.375000 0.875000
vt 0.250000 0.875000
vt 0.250000 0.375000
vt 0.125000 0.999969
vt 0.125000 0.875000
vt 0.250000 0.999969
vt 0.499023 0.377441
vt 0.500000 0.875000
vt 0.374023 0.377441
vt 0.125000 0.375000
vt 0.000031 0.875000
vt 0.000031 0.375000
vt 0.124207 0.374512
vt 0.124207 0.249512
vt 0.249146 0.249512
vt 0.249146 0.374512
s 1
usemtl MI_JungleStatues_creeperTotem
f 11/1/3 12/2/3 9/3/3 10/4/3
f 20/5/5 17/6/5 18/3/5 19/7/5
f 7/8/2 8/9/2 5/2/2 6/10/2
f 4/11/1 2/6/1 3/12/1 1/13/1
f 15/4/4 16/3/4 13/6/4 14/11/4
f 24/14/6 23/15/6 21/16/6 22/17/6
