# Blender 5.0.1
# www.blender.org
mtllib BP_DLC3_AnimatedLantern.mtl
o SM_LampPosts_SM_LampPost_Long.001
v -12.500000 -12.500000 325.000000
v -12.500000 -12.500000 50.000000
v 12.500000 -12.500000 325.000000
v 12.500000 -12.500000 50.000000
v -12.500000 12.500000 50.000000
v -12.500000 12.500000 325.000000
v 12.500000 12.500000 50.000000
v 12.500000 12.500000 325.000000
v 12.500000 12.500000 50.000000
v 12.500000 12.500000 325.000000
v 12.500000 -12.500000 50.000000
v 12.500000 -12.500000 325.000000
v -12.500000 -12.500000 325.000000
v -12.500000 12.500000 50.000000
v -12.500000 -12.500000 50.000000
v -12.500000 12.500000 325.000000
v 18.750000 -18.736290 362.500000
v -18.750000 -18.736290 362.500000
v -18.750000 -18.736290 325.000000
v 18.750000 -18.736290 325.000000
v 18.750000 -18.736290 362.500000
v 18.750000 18.736290 362.500000
v -18.750000 -18.736290 362.500000
v -18.750000 18.736290 362.500000
v 18.750000 18.736290 325.000000
v -18.750000 18.736290 325.000000
v -18.750000 18.736290 362.500000
v 18.750000 18.736290 362.500000
v 18.750000 -18.736290 325.000000
v -18.750000 -18.736290 325.000000
v -18.750000 18.736290 325.000000
v 18.750000 18.736290 325.000000
v 18.750000 -18.736290 362.500000
v 18.750000 -18.736290 325.000000
v 18.750000 18.736290 362.500000
v 18.750000 18.736290 325.000000
v -18.750000 -18.736290 362.500000
v -18.750000 18.736290 325.000000
v -18.750000 -18.736290 325.000000
v -18.750000 18.736290 362.500000
v -6.250000 -118.736290 343.750031
v -6.250000 -18.736290 343.750031
v 6.250000 -118.736290 343.750031
v 6.250000 -18.736290 343.750031
v 6.250000 -118.736290 356.277435
v -6.250000 -118.736290 356.277435
v -6.250000 -118.736290 343.750031
v 6.250000 -118.736290 343.750031
v 6.250000 -118.736290 356.277435
v 6.250000 -18.736290 356.277435
v -6.250000 -118.736290 356.277435
v -6.250000 -18.736290 356.277435
v 6.250000 -118.736290 343.750031
v 6.250000 -18.736290 343.750031
v 6.250000 -118.736290 356.277435
v 6.250000 -18.736290 356.277435
v -6.250000 -118.736290 356.277435
v -6.250000 -18.736290 356.277435
v -6.250000 -118.736290 343.750031
v -6.250000 -18.736290 343.750031
v 25.000000 -25.000000 49.999996
v -24.999998 -25.000000 49.999996
v -24.999998 -25.000000 0.000000
v 25.000000 -25.000000 0.000000
v 25.000000 -25.000000 49.999996
v 25.000000 24.999998 49.999996
v -24.999998 -25.000000 49.999996
v -24.999998 24.999998 49.999996
v 25.000000 24.999998 -0.000000
v -24.999998 24.999998 -0.000000
v -24.999998 24.999998 49.999996
v 25.000000 24.999998 49.999996
v 25.000000 -25.000000 0.000000
v -24.999998 -25.000000 0.000000
v -24.999998 24.999998 -0.000000
v 25.000000 24.999998 -0.000000
v 25.000000 -25.000000 49.999996
v 25.000000 -25.000000 0.000000
v 25.000000 24.999998 49.999996
v 25.000000 24.999998 -0.000000
v -24.999998 -25.000000 49.999996
v -24.999998 24.999998 -0.000000
v -24.999998 -25.000000 0.000000
v -24.999998 24.999998 49.999996
vn -0.0000 -1.0000 -0.0000
vn -0.0000 1.0000 -0.0000
vn 1.0000 -0.0000 -0.0000
vn -1.0000 -0.0000 -0.0000
vn -0.0000 -0.0000 1.0000
vn -0.0000 -0.0000 -1.0000
vt 0.062469 0.531250
vt 0.062500 0.593750
vt 0.000031 0.593750
vt 0.000032 0.531250
vt 0.843750 0.812622
vt 0.843750 0.968750
vt 0.687500 0.968750
vt 0.687500 0.812622
vt 0.187500 0.999969
vt 0.187500 0.593994
vt 0.250000 0.593994
vt 0.249878 0.999969
vt 0.843750 0.656250
vt 0.843750 0.500244
vt 1.000000 0.500244
vt 1.000000 0.656494
vt 0.843750 0.812500
vt 1.000000 0.812500
vt 1.000000 0.968765
vt 0.531250 0.999969
vt 0.530762 0.000488
vt 0.624512 0.000488
vt 0.625000 0.999969
vt 0.437256 0.000488
vt 0.437256 0.999969
vt 0.343750 0.999969
vt 0.343750 0.000000
vt 0.750000 0.500000
vt 0.749512 0.250000
vt 1.000000 0.250000
vt 0.999512 0.500000
vt 0.000031 0.999969
vt 0.000031 0.593994
vt 0.062469 0.593994
vt 0.062500 0.999969
vt 0.249756 0.000000
vt 0.249756 0.250488
vt 0.000031 0.250488
vt 0.000031 0.000000
vt 1.000000 0.812622
vt 0.843750 0.656494
vt 0.125000 0.999969
vt 0.125000 0.593994
vt 0.500000 0.000488
vt 0.750000 0.000000
vt 0.750000 0.250000
vt 0.500000 0.250000
vt 0.250000 0.999969
vt 0.250000 0.000000
vt 0.687500 0.812500
vt 0.687500 0.656250
vt 0.250000 0.250000
vt 0.250244 0.000488
vt 0.749512 0.000488
vt 0.999512 0.000488
vt 0.999512 0.250488
vt 0.687500 0.500244
vt 0.000031 0.500000
vt 0.000426 0.250488
vt 0.250000 0.250488
vt 0.249512 0.500000
s 1
usemtl M_LampPost
f 48/1/1 45/2/1 46/3/1 47/4/1
f 32/5/6 29/6/6 30/7/6 31/8/6
f 60/9/4 59/10/4 57/11/4 58/12/4
f 28/13/2 25/14/2 26/15/2 27/16/2
f 24/6/5 23/17/5 21/18/5 22/19/5
f 8/20/2 7/21/2 5/22/2 6/23/2
f 4/24/1 3/25/1 1/26/1 2/27/1
f 72/28/2 69/29/2 70/30/2 71/31/2
f 10/20/3 12/25/3 11/24/3 9/21/3
f 52/32/5 51/33/5 49/34/5 50/35/5
f 76/36/6 73/37/6 74/38/6 75/39/6
f 20/16/1 17/40/1 18/5/1 19/41/1
f 44/42/6 43/43/6 41/10/6 42/9/6
f 78/44/3 80/45/3 79/46/3 77/47/3
f 16/48/4 14/49/4 15/27/4 13/26/4
f 40/50/4 38/51/4 39/41/4 37/5/4
f 56/35/3 55/34/3 53/43/3 54/42/3
f 64/44/1 61/47/1 62/52/1 63/53/1
f 68/46/5 67/54/5 65/55/5 66/56/5
f 34/57/3 36/14/3 35/13/3 33/51/3
f 84/58/4 82/59/4 83/60/4 81/61/4
