# Blender 5.0.1
# www.blender.org
mtllib BP_DoorExit_CC.mtl
o SK_DoorExit_Vertical.001
v -24.999998 -24.999981 125.000008
v -24.999998 -24.999973 175.000015
v -25.000000 -49.999973 175.000015
v -25.000000 -49.999981 125.000015
v -24.999998 -24.999973 175.000015
v 25.000002 -24.999977 125.000008
v 25.000002 -24.999969 175.000015
v -24.999998 -24.999981 125.000008
v 25.000000 -49.999973 175.000015
v -25.000000 -49.999973 175.000015
v -24.999998 -24.999973 175.000015
v 25.000002 -24.999969 175.000015
v 25.000002 -24.999969 175.000015
v 25.000000 -49.999981 125.000015
v 25.000000 -49.999973 175.000015
v 25.000002 -24.999977 125.000008
v -24.999998 -24.999981 125.000008
v 25.000000 -49.999981 125.000015
v 25.000002 -24.999977 125.000008
v -25.000000 -49.999981 125.000015
v -24.999998 -49.999973 175.000015
v 25.000002 -49.999973 175.000015
v 25.000002 -49.999981 125.000008
v -24.999998 -49.999981 125.000008
v -24.999998 -62.499973 175.000015
v 25.000002 -62.499981 125.000008
v 25.000002 -62.499973 175.000015
v -24.999998 -62.499981 125.000008
v 25.000002 -49.999973 175.000015
v -24.999998 -49.999973 175.000015
v -24.999998 -62.499973 175.000015
v 25.000002 -62.499973 175.000015
v 25.000002 -62.499973 175.000015
v 25.000002 -49.999981 125.000008
v 25.000002 -49.999973 175.000015
v 25.000002 -62.499981 125.000008
v 25.000002 -62.499981 125.000008
v -24.999998 -62.499981 125.000008
v -24.999998 -49.999981 125.000008
v 25.000002 -49.999981 125.000008
v -24.999998 -62.499981 125.000008
v -24.999998 -62.499973 175.000015
v -24.999998 -49.999973 175.000015
v -24.999998 -49.999981 125.000008
v -150.000000 50.000042 300.000000
v -150.000000 -49.999958 300.000000
v -49.999996 -49.999954 300.000000
v -50.000004 50.000046 300.000000
v 50.000004 -49.999947 300.000000
v 49.999996 50.000053 300.000000
v 150.000000 -49.999943 300.000000
v 150.000000 50.000057 300.000000
v -150.000000 50.000042 300.000000
v -150.000000 -49.999973 200.000015
v -150.000000 -49.999958 300.000000
v -150.000000 50.000027 200.000000
v -150.000000 -49.999992 100.000015
v -150.000000 50.000008 99.999992
v -150.000000 -50.000008 0.000012
v -150.000000 49.999992 -0.000004
v 150.000000 -49.999943 300.000000
v 150.000000 50.000042 200.000000
v 150.000000 50.000057 300.000000
v 150.000000 -49.999958 200.000015
v 150.000000 50.000023 99.999992
v 150.000000 -49.999977 100.000015
v 150.000000 50.000008 -0.000004
v 150.000000 -49.999992 0.000012
v 150.000000 -49.999992 0.000012
v 49.999996 50.000004 -0.000004
v 150.000000 50.000008 -0.000004
v 50.000004 -49.999996 0.000012
v -49.999996 -50.000004 0.000012
v -50.000004 49.999996 -0.000004
v -150.000000 49.999992 -0.000004
v -150.000000 -50.000008 0.000012
v 49.999996 50.000004 -0.000004
v 150.000000 50.000023 99.999992
v 150.000000 50.000008 -0.000004
v 49.999996 50.000019 99.999992
v 150.000000 50.000042 200.000000
v -50.000004 49.999996 -0.000004
v 49.999996 50.000038 200.000000
v 150.000000 50.000057 300.000000
v 49.999996 50.000053 300.000000
v -50.000004 50.000011 99.999992
v -150.000000 49.999992 -0.000004
v -150.000000 50.000008 99.999992
v -50.000004 50.000031 200.000000
v -50.000004 50.000046 300.000000
v -150.000000 50.000027 200.000000
v -150.000000 50.000042 300.000000
v -49.999996 -50.000004 0.000012
v -150.000000 -49.999992 100.000015
v -150.000000 -50.000008 0.000012
v -49.999996 -49.999989 100.000015
v -150.000000 -49.999973 200.000015
v 50.000004 -49.999996 0.000012
v -49.999996 -49.999969 200.000015
v -150.000000 -49.999958 300.000000
v -49.999996 -49.999954 300.000000
v 50.000004 -49.999981 100.000015
v 150.000000 -49.999992 0.000012
v 150.000000 -49.999977 100.000015
v 25.000000 -49.999981 125.000015
v -25.000000 -49.999981 125.000015
v 25.000000 -49.999973 175.000015
v -25.000000 -49.999973 175.000015
v 50.000004 -49.999962 200.000015
v 150.000000 -49.999958 200.000015
v 50.000004 -49.999947 300.000000
v 150.000000 -49.999943 300.000000
vn 1.0000 -0.0000 -0.0000
vn -0.0000 -1.0000 -0.0000
vn -0.0000 -0.0000 -1.0000
vn -1.0000 -0.0000 -0.0000
vn -0.0000 -0.0000 1.0000
vn -0.0000 1.0000 -0.0000
vt 0.718750 0.781250
vt 0.734375 0.781250
vt 0.734375 0.843750
vt 0.718750 0.843750
vt 0.125000 0.500244
vt 0.125000 0.375488
vt 0.250000 0.375488
vt 0.250000 0.500244
vt 0.718750 0.656250
vt 0.750000 0.656250
vt 0.750000 0.718750
vt 0.718750 0.718750
vt 0.640625 0.843750
vt 0.640625 0.781250
vt 0.656250 0.781250
vt 0.656250 0.843750
vt 0.718750 0.750000
vt 0.656250 0.750000
vt 0.656250 0.718750
vt 0.718750 0.765625
vt 0.656250 0.765625
vt 0.499756 0.625000
vt 0.624512 0.625000
vt 0.624512 0.750000
vt 0.499756 0.750000
vt 0.499756 0.875000
vt 0.374756 0.875000
vt 0.374756 0.750000
vt 0.624512 0.875000
vt 0.374756 0.625244
vt 0.250000 0.625000
vt 0.374756 0.500244
vt 0.625000 0.718750
vt 0.625000 0.656250
vt 0.656250 0.656250
vt 0.499756 0.625244
vt 0.499756 0.500244
vt 0.000113 0.500244
vt 0.125000 0.625000
vt 0.000113 0.625000
vt 0.656250 0.625000
vt 0.718750 0.625000
vt 0.250000 0.875000
vt 0.250000 0.750000
vt 0.000113 0.750000
vt 0.125000 0.750000
vt 0.125000 0.875000
vt 0.000113 0.875000
vt 0.249878 0.875000
vt 0.249878 0.750000
vt 0.250000 0.625244
vt 0.374756 0.999830
vt 0.249878 0.999830
vt 0.125000 0.625244
vt 0.624512 0.500244
vt 0.374756 0.375488
vt 0.499756 0.999830
vt 0.125000 0.999830
vt 0.718750 0.859375
vt 0.656250 0.859375
vt 0.343506 0.656250
vt 0.281006 0.656250
vt 0.343506 0.718750
vt 0.281006 0.718750
vt 0.499756 0.375488
s 1
usemtl MI_Cacticanyon_VerticalDoor
f 36/1/1 34/2/1 35/3/1 33/4/1
f 76/5/3 75/6/3 74/7/3 73/8/3
f 16/9/4 14/10/4 15/11/4 13/12/4
f 43/13/4 44/14/4 41/15/4 42/16/4
f 12/12/3 9/17/3 10/18/3 11/19/3
f 40/20/3 37/1/3 38/15/3 39/21/3
f 66/22/1 65/23/1 62/24/1 64/25/1
f 92/26/6 90/27/6 89/28/6 91/25/6
f 64/25/1 62/24/1 63/29/1 61/26/1
f 102/30/2 96/31/2 93/8/2 98/32/2
f 3/33/1 4/34/1 1/35/1 2/19/1
f 8/35/2 6/9/2 7/12/2 5/19/2
f 88/36/6 86/30/6 82/32/6 87/37/6
f 91/25/6 89/28/6 86/30/6 88/36/6
f 60/38/4 59/5/4 57/39/4 58/40/4
f 110/25/2 109/28/2 102/30/2 104/22/2
f 20/41/5 18/42/5 19/9/5 17/35/5
f 90/27/6 85/43/6 83/44/6 89/28/6
f 56/45/4 54/46/4 55/47/4 53/48/4
f 28/15/2 26/1/2 27/4/2 25/16/2
f 101/49/2 100/47/2 97/46/2 99/50/2
f 24/16/6 21/15/6 22/1/6 23/4/6
f 86/30/6 89/28/6 83/44/6 80/51/6
f 49/27/5 50/52/5 48/53/5 47/49/5
f 80/51/6 78/54/6 79/5/6 77/8/6
f 96/31/2 94/39/2 95/5/2 93/8/2
f 86/30/6 80/51/6 77/8/6 82/32/6
f 68/37/1 67/55/1 65/23/1 66/22/1
f 83/44/6 81/46/6 78/54/6 80/51/6
f 73/8/3 74/7/3 70/56/3 72/32/3
f 51/26/5 52/57/5 50/52/5 49/27/5
f 47/49/5 48/53/5 45/58/5 46/47/5
f 104/22/2 102/30/2 98/32/2 103/37/2
f 58/40/4 57/39/4 54/46/4 56/45/4
f 85/43/6 84/47/6 81/46/6 83/44/6
f 32/4/5 29/59/5 30/60/5 31/16/5
f 102/30/2 105/61/2 96/31/2
f 96/31/2 105/61/2 106/62/2
f 106/62/2 99/50/2 96/31/2
f 105/61/2 102/30/2 107/63/2
f 108/64/2 99/50/2 106/62/2
f 108/64/2 107/63/2 99/50/2
f 72/32/3 70/56/3 71/65/3 69/37/3
f 107/63/2 102/30/2 109/28/2
f 109/28/2 99/50/2 107/63/2
f 99/50/2 97/46/2 94/39/2 96/31/2
f 111/27/2 101/49/2 99/50/2 109/28/2
f 112/26/2 111/27/2 109/28/2 110/25/2
