# Blender 5.0.1
# www.blender.org
mtllib BP_DoorExit_Underhalls.mtl
o SK_DoorExit.001
v -11.875365 9.669085 -0.000014
v -11.875412 9.669085 312.500000
v -11.876465 -159.080917 312.500000
v -11.876417 -159.080917 -0.000014
v -11.910522 -33.004284 183.929718
v -11.910522 -33.004284 145.370667
v -7.946064 -33.004311 183.929718
v -7.946064 -33.004311 145.370667
v -7.945838 1.684865 145.370667
v -11.910295 1.684891 183.929718
v -7.945838 1.684865 183.929718
v -11.910295 1.684891 145.370667
v -7.946064 -33.004311 145.370667
v -7.945838 1.684865 183.929718
v -7.946064 -33.004311 183.929718
v -7.945838 1.684865 145.370667
v -7.945838 1.684865 183.929718
v -11.910522 -33.004284 183.929718
v -7.946064 -33.004311 183.929718
v -11.910295 1.684891 183.929718
v -7.946064 -33.004311 145.370667
v -11.910295 1.684891 145.370667
v -7.945838 1.684865 145.370667
v -11.910522 -33.004284 145.370667
v -18.126421 -159.080887 -0.000014
v -18.126465 -159.080887 312.500000
v -18.125366 9.669125 -0.000014
v -18.125412 9.669125 312.500000
v -11.876465 -159.080917 312.500000
v -18.126421 -159.080887 -0.000014
v -11.876417 -159.080917 -0.000014
v -18.126465 -159.080887 312.500000
v -11.875412 9.669085 312.500000
v -18.126465 -159.080887 312.500000
v -11.876465 -159.080917 312.500000
v -18.125412 9.669125 312.500000
v -11.875365 9.669085 -0.000014
v -11.876417 -159.080917 -0.000014
v -18.126421 -159.080887 -0.000014
v -18.125366 9.669125 -0.000014
v -11.875412 9.669085 312.500000
v -11.875365 9.669085 -0.000014
v -18.125366 9.669125 -0.000014
v -18.125412 9.669125 312.500000
v -11.875365 9.669085 -0.000014
v -11.874311 171.387833 312.500000
v -11.875412 9.669085 312.500000
v -11.874266 171.387833 -0.000014
v -7.945508 52.342430 183.929718
v -7.945508 52.342430 145.370667
v -11.909966 52.342457 145.370667
v -11.909966 52.342457 183.929718
v -7.945735 17.653252 145.370667
v -7.945735 17.653252 183.929718
v -11.910192 17.653278 183.929718
v -11.910192 17.653278 145.370667
v -7.945508 52.342430 183.929718
v -7.945735 17.653252 183.929718
v -7.945508 52.342430 145.370667
v -7.945735 17.653252 145.370667
v -7.945735 17.653252 183.929718
v -7.945508 52.342430 183.929718
v -11.909966 52.342457 183.929718
v -11.910192 17.653278 183.929718
v -7.945508 52.342430 145.370667
v -7.945735 17.653252 145.370667
v -11.910192 17.653278 145.370667
v -11.909966 52.342457 145.370667
v -18.125366 9.669125 -0.000014
v -18.124311 171.387863 312.500000
v -18.124269 171.387863 -0.000014
v -18.125412 9.669125 312.500000
v -18.124269 171.387863 -0.000014
v -11.874311 171.387833 312.500000
v -11.874266 171.387833 -0.000014
v -18.124311 171.387863 312.500000
v -18.124311 171.387863 312.500000
v -11.875412 9.669085 312.500000
v -11.874311 171.387833 312.500000
v -18.125412 9.669125 312.500000
v -18.125366 9.669125 -0.000014
v -18.124269 171.387863 -0.000014
v -11.875365 9.669085 -0.000014
v -11.874266 171.387833 -0.000014
v -18.125412 9.669125 312.500000
v -18.125366 9.669125 -0.000014
v -11.875412 9.669085 312.500000
v -11.875365 9.669085 -0.000014
vn 1.0000 -0.0000 -0.0000
vn -0.0000 -1.0000 -0.0000
vn -0.0000 1.0000 -0.0000
vn -0.0000 -0.0000 1.0000
vn -0.0000 -0.0000 -1.0000
vn -1.0000 -0.0000 -0.0000
vt 0.015625 0.203125
vt 0.015625 0.109375
vt 0.093750 0.109375
vt 0.093750 0.203125
vt 0.000031 0.109375
vt 0.000031 0.203125
vt 0.109375 0.203125
vt 0.109375 0.109375
vt 0.406494 0.984383
vt 0.406494 0.234863
vt 0.781250 0.234375
vt 0.781250 0.984375
vt 0.015625 0.218750
vt 0.093750 0.218750
vt 0.796875 0.984375
vt 0.796875 0.234863
vt 0.781250 0.999940
vt 0.406494 0.999949
vt 0.015625 0.984375
vt 0.015625 0.999948
vt 0.375000 0.999940
vt 0.375000 0.984375
vt 0.390625 0.234375
vt 0.375000 0.234375
vt 0.390625 0.984375
vt 0.093750 0.093750
vt 0.015625 0.093750
vt -0.000363 0.984375
vt 0.015625 0.234375
vt 0.000031 0.234375
vt 0.390869 0.234863
vt 0.375000 0.218750
vt 0.406494 0.219238
vt 0.781250 0.218750
s 1
usemtl MI_Door
f 58/1/1 60/2/1 59/3/1 57/4/1
f 52/5/3 49/2/3 50/1/3 51/6/3
f 56/7/2 53/4/2 54/3/2 55/8/2
f 3/9/1 4/10/1 1/11/1 2/12/1
f 24/13/5 22/14/5 23/4/5 21/1/5
f 28/11/6 27/12/6 25/9/6 26/10/6
f 6/6/2 8/1/2 7/2/2 5/5/2
f 44/15/3 41/12/3 42/11/3 43/16/3
f 40/12/5 37/17/5 38/18/5 39/9/5
f 82/19/5 84/20/5 83/21/5 81/22/5
f 86/23/2 88/24/2 87/22/2 85/25/2
f 20/26/4 18/27/4 19/2/4 17/3/4
f 76/28/3 74/19/3 75/29/3 73/30/3
f 48/29/1 46/19/1 47/22/1 45/24/1
f 12/7/3 10/8/3 11/3/3 9/4/3
f 16/2/1 14/1/1 15/4/1 13/3/1
f 64/26/4 61/3/4 62/2/4 63/27/4
f 68/13/5 65/1/5 66/4/5 67/14/5
f 32/25/2 30/31/2 31/10/2 29/9/2
f 80/24/4 78/32/4 79/13/4 77/29/4
f 36/11/4 34/10/4 35/33/4 33/34/4
f 72/24/6 70/29/6 71/19/6 69/22/6
