# Blender 5.0.1
# www.blender.org
mtllib BP_DesertPalm.mtl
o SM_DesertPalm_Corrected.001
v 18.792004 18.792051 400.896027
v -18.792004 -18.791954 400.896027
v 18.792004 -18.791954 400.896027
v -18.792004 18.792051 400.896027
v -18.792002 -25.055954 400.896027
v -219.240021 25.056049 400.896027
v -219.240021 -25.055954 400.896027
v -18.792002 25.056049 400.896027
v 25.056002 18.792049 400.896027
v 25.056002 219.240067 400.895996
v -25.056002 18.792049 400.896027
v -25.056002 219.240067 400.895996
v 219.240021 25.056049 400.896027
v 18.792002 25.056049 400.896027
v 219.240021 -25.055954 400.896027
v 18.792002 -25.055954 400.896027
v 25.056002 -18.791952 400.896027
v -25.056002 -219.239960 400.896057
v 25.056002 -219.239960 400.896057
v -25.056002 -18.791952 400.896027
v -25.056002 -18.791960 400.896057
v -25.056002 -160.530090 542.634216
v 25.056002 -18.791960 400.896057
v 25.056002 -160.530090 542.634216
v -18.792009 -25.055954 400.896057
v -160.530151 25.056067 542.634216
v -160.530151 -25.055937 542.634216
v -18.792009 25.056049 400.896057
v -25.056002 160.530212 542.634155
v -25.056002 18.792057 400.896057
v 25.056002 160.530212 542.634155
v 25.056002 18.792057 400.896057
v 160.530151 25.056067 542.634216
v 18.792009 25.056049 400.896057
v 160.530151 -25.055937 542.634216
v 18.792009 -25.055954 400.896057
v -74.493401 -179.138290 501.120056
v 12.303133 -28.802303 400.896027
v -117.891670 -154.082291 501.120056
v -31.095133 -3.746301 400.896027
v -179.138367 74.493462 501.120026
v -28.802351 -12.303084 400.896027
v -154.082352 117.891724 501.120026
v -3.746349 31.095181 400.896027
v 37.808868 115.598953 574.489075
v 31.095133 3.746397 400.896027
v 81.207138 90.542953 574.489075
v -12.303133 28.802399 400.896027
v 3.746349 -31.095083 400.896027
v 154.082352 -117.891609 501.120056
v 28.802351 12.303181 400.896027
v 179.138367 -74.493340 501.120056
v -58.565941 -151.551163 259.157898
v 12.303125 -28.802303 400.895996
v -101.964203 -126.495155 259.157898
v -31.095137 -3.746301 400.895996
v -151.551193 58.565971 259.157867
v -28.802351 -12.303077 400.895996
v -126.495186 101.964233 259.157867
v -3.746349 31.095184 400.895996
v 37.808868 115.598915 227.302933
v 31.095133 3.746397 400.896027
v 81.207138 90.542915 227.302948
v -12.303133 28.802399 400.896027
v 3.746349 -31.095087 400.895996
v 126.495186 -101.964165 259.157898
v 28.802351 12.303173 400.895996
v 151.551193 -58.565910 259.157898
v -12.303129 -28.802303 400.896027
v 13.636749 -73.731468 594.513977
v 31.095135 -3.746301 400.896027
v 57.035011 -48.675472 594.513977
v -3.746349 -31.095085 400.896027
v -73.731544 -13.636679 594.513977
v -48.675541 -57.034943 594.513977
v -28.802351 12.303177 400.896027
v -57.035011 48.675613 594.513916
v -31.095135 3.746397 400.896027
v -13.636749 73.731621 594.513916
v 12.303129 28.802399 400.896027
v 48.675541 57.035084 594.513916
v 3.746349 31.095182 400.896027
v 73.731544 13.636821 594.513977
v 28.802351 -12.303081 400.896027
v -18.792004 -18.791981 200.448029
v -18.792004 -18.792004 0.000002
v 18.792004 -18.791981 200.448029
v 18.792004 -18.792004 0.000002
v -18.792004 -18.791954 400.896027
v 18.792004 -18.791954 400.896027
v -18.792004 18.792027 200.448029
v -18.792004 18.792051 400.896027
v 18.792004 18.792027 200.448029
v 18.792004 18.792051 400.896027
v -18.792004 18.792004 -0.000002
v 18.792004 18.792004 -0.000002
v 18.792004 18.792004 -0.000002
v 18.792004 18.792027 200.448029
v 18.792004 -18.792004 0.000002
v 18.792004 -18.791981 200.448029
v 18.792004 18.792051 400.896027
v 18.792004 -18.791954 400.896027
v -18.792004 -18.791981 200.448029
v -18.792004 18.792004 -0.000002
v -18.792004 -18.792004 0.000002
v -18.792004 18.792027 200.448029
v -18.792004 -18.791954 400.896027
v -18.792004 18.792051 400.896027
vn -0.0000 -0.0000 1.0000
vn -0.0000 0.7071 0.7071
vn 0.7071 -0.0000 0.7071
vn -0.0000 -0.7071 0.7071
vn -0.7071 -0.0000 0.7071
vn 0.2500 0.4330 0.8660
vn 0.4330 -0.2500 0.8660
vn -0.4330 -0.7500 0.5000
vn -0.4330 0.2500 0.8660
vn -0.3536 -0.6124 0.7071
vn -0.6124 0.3536 0.7071
vn 0.4330 0.7500 0.5000
vn 0.6124 -0.3536 0.7071
vn -0.4830 0.8365 0.2588
vn 0.8365 0.4830 0.2588
vn 0.4830 -0.8365 0.2588
vn -0.8365 -0.4830 0.2588
vn -0.0000 -1.0000 -0.0000
vn -0.0000 1.0000 -0.0000
vn 1.0000 -0.0000 -0.0000
vn -1.0000 -0.0000 -0.0000
vt 0.666504 0.000000
vt 0.666504 0.166992
vt 0.000031 0.166992
vt 0.000031 0.000000
vt 0.500000 0.999969
vt 0.500000 0.333496
vt 0.625000 0.333496
vt 0.625000 0.999969
vt 0.000031 0.333496
vt 0.666504 0.333496
vt 0.375000 0.999969
vt 0.250000 0.999969
vt 0.250000 0.333496
vt 0.375000 0.333496
vt 0.875000 0.999969
vt 0.875000 0.333496
vt 1.000000 0.333496
vt 1.000000 0.999969
vt 0.873047 0.333008
vt 0.873047 0.208008
vt 0.998047 0.208008
vt 0.998047 0.333008
vt 0.000031 0.999969
vt 0.125000 0.333496
vt 0.125000 0.999969
vt 0.750000 0.333496
vt 0.750000 0.999969
s 1
usemtl MI_DesertPalm
f 70/1/14 72/2/14 71/3/14 69/4/14
f 108/5/21 106/6/21 103/7/21 107/8/21
f 34/9/5 36/3/5 35/2/5 33/10/5
f 54/3/10 56/4/10 55/1/10 53/2/10
f 98/11/20 100/12/20 99/13/20 97/14/20
f 94/15/19 93/16/19 91/17/19 92/18/19
f 20/3/1 18/2/1 19/10/1 17/9/1
f 38/3/6 40/4/6 39/1/6 37/2/6
f 4/19/1 2/20/1 3/21/1 1/22/1
f 60/3/11 59/2/11 57/10/11 58/9/11
f 68/10/13 67/9/13 65/3/13 66/2/13
f 24/2/2 23/3/2 21/4/2 22/1/2
f 44/3/7 43/2/7 41/10/7 42/9/7
f 106/23/21 104/9/21 105/24/21 103/25/21
f 76/3/15 74/2/15 75/10/15 73/9/15
f 82/9/17 84/3/17 83/2/17 81/10/17
f 64/3/12 62/4/12 63/1/12 61/2/12
f 14/3/1 16/4/1 15/1/1 13/2/1
f 12/10/1 11/9/1 9/3/1 10/2/1
f 8/4/1 6/1/1 7/2/1 5/3/1
f 48/3/8 46/4/8 47/1/8 45/2/8
f 32/4/4 31/1/4 29/2/4 30/3/4
f 87/26/18 90/27/18 89/8/18 85/7/18
f 88/13/18 87/12/18 85/25/18 86/24/18
f 80/4/16 79/1/16 77/2/16 78/3/16
f 28/3/3 26/2/3 27/10/3 25/9/3
f 101/15/20 102/27/20 100/26/20 98/16/20
f 52/10/9 51/9/9 49/3/9 50/2/9
f 93/11/19 96/14/19 95/6/19 91/5/19
