# Blender 5.0.1
# www.blender.org
mtllib BP_D11_Mine_Support_02.mtl
o SM_D11_MineSupport_02.001
v -100.061127 2001.180908 700.413086
v -0.002106 2001.180908 700.413330
v -100.060852 2001.180908 600.354065
v -0.001823 2001.180908 600.354309
v -100.059425 1801.062744 100.058769
v -100.059433 1901.121826 100.058754
v -100.059151 1901.121826 -0.000277
v -100.059143 1801.062744 -0.000265
v -100.061050 200.118179 700.413086
v -100.061058 300.177246 700.413086
v -100.060776 200.118210 600.354004
v -100.060783 300.177216 600.354004
v -100.059433 1901.121826 100.058754
v -0.000405 1901.121826 100.059036
v -0.000122 1901.121826 0.000006
v -100.059151 1901.121826 -0.000277
v -100.060562 1801.062744 500.294952
v -100.060570 1901.121826 500.294952
v -100.060287 1901.121826 400.235901
v -100.060280 1801.062744 400.235870
v -0.000405 1901.121826 100.059036
v -0.000400 1801.062744 100.059052
v -0.000118 1801.062744 0.000018
v -0.000122 1901.121826 0.000006
v -0.000609 100.059120 200.118042
v -0.000604 0.000082 200.118057
v -0.000322 0.000089 100.059029
v -0.000326 100.059151 100.059013
v -100.061081 900.531616 700.413147
v -100.060806 900.531616 600.354065
v -100.061081 800.472534 700.413025
v -100.060806 800.472534 600.354004
v -100.059708 1801.062744 200.117798
v -100.059715 1901.121826 200.117798
v -100.061050 100.059120 700.413086
v -100.060776 100.059120 600.354004
v -100.059715 1901.121826 200.117798
v -0.000687 1901.121826 200.118073
v -100.060486 0.000075 500.294952
v -100.060493 100.059113 500.294952
v -100.060204 0.000072 400.235901
v -100.060211 100.059135 400.235901
v -0.002036 400.236328 700.413330
v -0.002031 300.177246 700.413330
v -0.001753 400.236298 600.354248
v -0.001749 300.177216 600.354248
v -0.001753 400.236298 600.354248
v -0.001749 300.177216 600.354248
v -100.060783 400.236298 600.354004
v -100.060783 300.177216 600.354004
v -100.061058 400.236328 700.413086
v -100.060783 400.236298 600.354004
v -100.061058 400.236328 700.413086
v -100.061058 300.177246 700.413086
v -0.002036 400.236328 700.413330
v -0.002031 300.177246 700.413330
v -0.000687 1901.121826 200.118073
v -0.000683 1801.062744 200.118088
v -0.001174 100.059143 400.236206
v -0.001170 0.000077 400.236206
v -0.000891 100.059135 300.177155
v -0.000887 0.000084 300.177124
v -0.000966 1801.062744 300.177124
v -100.059990 1801.062744 300.176819
v -100.059708 1801.062744 200.117798
v -0.000683 1801.062744 200.118088
v -100.061035 -100.058975 700.413086
v -100.061043 0.000079 700.413086
v -100.060760 -100.058983 600.354065
v -100.060768 0.000077 600.354065
v -100.059998 1901.121826 300.176849
v -0.000970 1901.121826 300.177155
v -0.002023 100.059128 700.413391
v -0.002018 0.000083 700.413330
v -0.001740 100.059128 600.354309
v -0.001735 0.000081 600.354309
v -0.001249 1801.062744 400.236176
v -100.060280 1801.062744 400.235870
v -0.002044 600.354431 700.413330
v -0.002040 500.295410 700.413330
v -0.001762 600.354431 600.354309
v -0.001757 500.295380 600.354248
v -0.001757 500.295380 600.354248
v -100.060791 500.295380 600.354004
v -100.061066 500.295410 700.413086
v -100.060791 500.295380 600.354004
v -100.061066 500.295410 700.413086
v -0.002040 500.295410 700.413330
v -0.002049 700.413452 700.413330
v -0.001766 700.413452 600.354309
v -0.001766 700.413452 600.354309
v -0.001762 600.354431 600.354309
v -100.060799 700.413452 600.354004
v -100.060791 600.354431 600.354004
v -100.061066 600.354431 700.413025
v -100.061073 700.413452 700.413025
v -100.060791 600.354431 600.354004
v -100.060799 700.413452 600.354004
v -100.061073 700.413452 700.413025
v -100.061066 600.354431 700.413025
v -0.002049 700.413452 700.413330
v -0.002044 600.354431 700.413330
v -0.002053 800.472534 700.413269
v -0.001770 800.472534 600.354248
v -0.001770 800.472534 600.354248
v -100.060806 800.472534 600.354004
v -100.061081 800.472534 700.413025
v -0.002053 800.472534 700.413269
v -100.060287 1901.121826 400.235901
v -0.001253 1901.121826 400.236206
v -0.001531 1801.062744 500.295258
v -100.060562 1801.062744 500.294952
v -0.002058 900.531616 700.413391
v -0.001775 900.531616 600.354309
v -0.002062 1000.590698 700.413391
v -0.001779 1000.590698 600.354309
v -0.001779 1000.590698 600.354309
v -0.001775 900.531616 600.354309
v -100.060814 1000.590698 600.354065
v -100.060806 900.531616 600.354065
v -100.061089 1000.590698 700.413147
v -100.060814 1000.590698 600.354065
v -100.061089 1000.590698 700.413147
v -100.061081 900.531616 700.413147
v -0.002062 1000.590698 700.413391
v -0.002058 900.531616 700.413391
v -0.002071 1200.708862 700.413391
v -0.002066 1100.649780 700.413391
v -0.001788 1200.708862 600.354309
v -0.001784 1100.649780 600.354309
v -0.001788 1200.708862 600.354309
v -0.001784 1100.649780 600.354309
v -100.060822 1200.708862 600.354004
v -100.060814 1100.649780 600.354004
v -100.061089 1100.649780 700.413086
v -100.061096 1200.708862 700.413086
v -100.060814 1100.649780 600.354004
v -100.060822 1200.708862 600.354004
v -100.061096 1200.708862 700.413086
v -100.061089 1100.649780 700.413086
v -0.002071 1200.708862 700.413391
v -0.002066 1100.649780 700.413391
v -0.002075 1300.767822 700.413330
v -0.001792 1300.767822 600.354248
v -0.001792 1300.767822 600.354248
v -100.060822 1300.767822 600.354004
v -100.061096 1300.767822 700.413086
v -100.060822 1300.767822 600.354004
v -100.061096 1300.767822 700.413086
v -0.002075 1300.767822 700.413330
v -100.060570 1901.121826 500.294952
v -0.001536 1901.121826 500.295258
v -0.001814 1801.062866 600.354248
v -100.060844 1801.062866 600.354004
v -0.001819 1901.121948 600.354309
v -0.001814 1801.062866 600.354248
v -0.001536 1901.121826 500.295258
v -0.001531 1801.062744 500.295258
v -100.060852 1901.121948 600.354065
v -0.001819 1901.121948 600.354309
v -0.001253 1901.121826 400.236206
v -0.001249 1801.062744 400.236176
v -0.000970 1901.121826 300.177155
v -0.000966 1801.062744 300.177124
v -0.000322 0.000089 100.059029
v -100.059349 0.000085 100.058746
v -100.059067 0.000073 -0.000283
v -0.000039 0.000078 -0.000000
v -100.059998 1901.121826 300.176849
v -100.059990 1801.062744 300.176819
v -0.002088 1600.944946 700.413391
v -0.002084 1500.885986 700.413391
v -0.001805 1600.944946 600.354309
v -0.001801 1500.885986 600.354309
v -0.001805 1600.944946 600.354309
v -0.001801 1500.885986 600.354309
v -100.060837 1600.944946 600.354065
v -100.060837 1500.885986 600.354065
v -100.061111 1500.885986 700.413147
v -100.061111 1600.944946 700.413147
v -100.060837 1500.885986 600.354065
v -100.060837 1600.944946 600.354065
v -100.061111 1600.944946 700.413147
v -100.061111 1500.885986 700.413147
v -0.002088 1600.944946 700.413391
v -0.002084 1500.885986 700.413391
v -0.002093 1701.003906 700.413391
v -0.001810 1701.003906 600.354309
v -0.001810 1701.003906 600.354309
v -100.060844 1701.003906 600.354004
v -100.061119 1701.003906 700.413086
v -100.060844 1701.003906 600.354004
v -100.061119 1701.003906 700.413086
v -0.002093 1701.003906 700.413391
v -0.002097 1801.062866 700.413330
v -0.001814 1801.062866 600.354248
v -100.060844 1801.062866 600.354004
v -100.061119 1801.062866 700.413086
v -100.060844 1801.062866 600.354004
v -100.061119 1801.062866 700.413086
v -0.002097 1801.062866 700.413330
v -100.059349 0.000085 100.058746
v -100.059357 100.059143 100.058739
v -100.059074 100.059128 -0.000295
v -100.059067 0.000073 -0.000283
v -100.061104 1400.826904 700.413147
v -100.060829 1400.826904 600.354004
v -0.002101 1901.121948 700.413330
v -0.002106 2001.180908 700.413330
v -0.001823 2001.180908 600.354309
v -0.001823 2001.180908 600.354309
v -0.001819 1901.121948 600.354309
v -100.060852 2001.180908 600.354065
v -100.060852 1901.121948 600.354065
v -100.061127 1901.121948 700.413086
v -100.061127 2001.180908 700.413086
v -100.060852 1901.121948 600.354065
v -100.060852 2001.180908 600.354065
v -100.061127 2001.180908 700.413086
v -100.061127 1901.121948 700.413086
v -0.002106 2001.180908 700.413330
v -0.002101 1901.121948 700.413330
v -0.000039 0.000078 -0.000000
v -0.000043 100.059135 -0.000012
v -0.002027 200.118179 700.413391
v -0.001744 200.118210 600.354309
v -0.000604 0.000082 200.118057
v -100.059631 0.000078 200.117783
v -0.001453 0.000079 500.295258
v -0.001457 100.059120 500.295258
v -100.059639 100.059113 200.117767
v -0.000609 100.059120 200.118042
v -0.000326 100.059151 100.059013
v -100.059357 100.059143 100.058739
v -100.059631 0.000078 200.117783
v -100.059639 100.059113 200.117767
v -0.000887 0.000084 300.177124
v -100.059914 0.000080 300.176819
v -100.059921 100.059128 300.176849
v -0.000891 100.059135 300.177155
v -0.001170 0.000077 400.236206
v -100.060204 0.000072 400.235901
v -0.000400 1801.062744 100.059052
v -100.059425 1801.062744 100.058769
v -100.059143 1801.062744 -0.000265
v -0.000118 1801.062744 0.000018
v -100.060211 100.059135 400.235901
v -0.001174 100.059143 400.236206
v -0.001453 0.000079 500.295258
v -100.060486 0.000075 500.294952
v -100.060493 100.059113 500.294952
v -0.001457 100.059120 500.295258
v -0.001735 0.000081 600.354309
v -100.060768 0.000077 600.354065
v -100.060776 100.059120 600.354004
v -0.001740 100.059128 600.354309
v -100.059074 100.059128 -0.000295
v -0.000043 100.059135 -0.000012
v -100.061104 1400.826904 700.413147
v -0.002079 1400.826904 700.413391
v -0.001797 1400.826904 600.354248
v -100.060829 1400.826904 600.354004
v -0.002079 1400.826904 700.413391
v -0.001797 1400.826904 600.354248
v -100.059914 0.000080 300.176819
v -100.059921 100.059128 300.176849
v -0.002014 -100.058968 700.413330
v -0.001731 -100.058975 600.354309
v -100.061050 200.118179 700.413086
v -0.002027 200.118179 700.413391
v -0.001744 200.118210 600.354309
v -100.060776 200.118210 600.354004
v -100.061050 100.059120 700.413086
v -0.002023 100.059128 700.413391
v -0.001740 100.059128 600.354309
v -100.060776 100.059120 600.354004
v -100.061043 0.000079 700.413086
v -0.002018 0.000083 700.413330
v -100.061035 -100.058975 700.413086
v -0.002014 -100.058968 700.413330
v -0.001735 0.000081 600.354309
v -0.001731 -100.058975 600.354309
v -100.060768 0.000077 600.354065
v -100.060760 -100.058983 600.354065
v -0.002014 -100.058968 700.413330
v -100.061035 -100.058975 700.413086
v -100.060760 -100.058983 600.354065
v -0.001731 -100.058975 600.354309
vn -0.0000 1.0000 -0.0000
vn -1.0000 -0.0000 -0.0000
vn 1.0000 -0.0000 -0.0000
vn -0.0000 -0.0000 -1.0000
vn -0.0000 -0.0000 1.0000
vn -0.0000 -1.0000 -0.0000
vt 0.500000 0.000000
vt 0.500000 0.500000
vt -0.000031 0.500000
vt -0.000031 0.000000
vt 0.000031 0.000000
vt 0.000031 0.500000
vt 0.500000 0.999969
vt 0.000031 0.999969
s 1
usemtl MI_MineSupprtD11
f 247/1/1 251/2/1 252/3/1 248/4/1
f 140/4/5 142/1/5 141/2/5 139/3/5
f 71/1/1 109/2/1 110/3/1 72/4/1
f 13/1/1 37/2/1 38/3/1 14/4/1
f 111/1/6 153/2/6 154/3/6 112/4/6
f 91/4/4 93/1/4 106/2/4 105/3/4
f 16/1/1 13/2/1 14/3/1 15/4/1
f 53/4/5 55/1/5 88/2/5 87/3/5
f 28/1/3 25/2/3 26/3/3 27/4/3
f 165/1/6 227/2/6 228/3/6 166/4/6
f 9/4/2 11/1/2 36/2/2 35/3/2
f 261/4/4 262/1/4 178/2/4 176/3/4
f 89/4/3 90/1/3 104/2/3 103/3/3
f 277/4/5 278/1/5 274/2/5 273/3/5
f 176/4/4 178/1/4 177/2/4 175/3/4
f 191/4/2 192/1/2 182/2/2 180/3/2
f 76/5/3 74/1/3 267/2/3 268/3/3
f 237/1/6 241/2/6 242/3/6 238/4/6
f 46/2/3 44/3/3 225/5/3 226/1/3
f 230/1/3 75/2/3 76/3/3 229/4/3
f 103/4/3 104/1/3 114/2/3 113/3/3
f 239/1/1 247/2/1 248/3/1 240/4/1
f 86/4/2 85/1/2 95/2/2 97/6/2
f 8/1/2 5/2/2 6/3/2 7/4/2
f 149/4/5 150/1/5 260/2/5 259/3/5
f 123/4/5 125/1/5 142/2/5 140/3/5
f 269/4/5 270/1/5 56/2/5 54/3/5
f 47/4/4 49/1/4 84/2/4 83/3/4
f 258/4/1 257/1/1 234/2/1 233/3/1
f 180/4/2 182/1/2 181/2/2 179/3/2
f 171/4/3 173/1/3 188/2/3 187/3/3
f 115/4/3 116/1/3 130/2/3 128/3/3
f 184/4/5 186/1/5 185/2/5 183/3/5
f 220/4/5 222/1/5 221/2/5 219/3/5
f 31/4/2 32/1/2 98/2/2 96/3/2
f 251/1/1 255/2/1 256/3/1 252/4/1
f 158/1/3 162/2/3 161/3/3 157/4/3
f 32/4/2 31/1/2 29/2/2 30/6/2
f 205/1/2 202/2/2 203/3/2 204/4/2
f 128/4/3 130/1/3 129/2/3 127/3/3
f 212/5/4 214/1/4 213/2/4 211/3/4
f 275/4/4 276/1/4 272/2/4 271/3/4
f 124/4/5 126/1/5 125/2/5 123/3/5
f 121/4/2 122/1/2 30/2/2 29/3/2
f 24/1/3 21/2/3 22/3/3 23/4/3
f 92/4/4 94/1/4 93/2/4 91/3/4
f 43/4/3 45/1/3 82/2/3 80/3/3
f 117/4/4 119/1/4 134/2/4 132/3/4
f 183/4/5 185/1/5 194/2/5 193/3/5
f 246/1/6 243/2/6 244/3/6 245/4/6
f 21/1/3 57/2/3 58/3/3 22/4/3
f 200/4/5 201/1/5 222/2/5 220/3/5
f 131/4/4 133/1/4 146/2/4 145/3/4
f 100/4/5 102/1/5 101/2/5 99/3/5
f 235/1/2 265/2/2 266/3/2 236/4/2
f 70/4/2 68/1/2 35/2/2 36/6/2
f 10/4/2 12/1/2 11/2/2 9/3/2
f 207/4/2 206/1/2 179/2/2 181/6/2
f 20/1/2 17/2/2 18/3/2 19/4/2
f 148/4/2 147/1/2 206/2/2 207/6/2
f 263/4/3 264/1/3 174/2/3 172/3/3
f 143/4/3 144/1/3 264/2/3 263/3/3
f 96/4/2 98/1/2 97/2/2 95/3/2
f 198/4/2 199/1/2 192/2/2 191/3/2
f 54/4/5 56/1/5 55/2/5 53/3/5
f 172/4/3 174/1/3 173/2/3 171/3/3
f 136/4/2 138/1/2 137/2/2 135/3/2
f 189/4/4 190/1/4 197/2/4 196/3/4
f 175/4/4 177/1/4 190/2/4 189/3/4
f 48/4/4 50/1/4 49/2/4 47/3/4
f 224/1/3 28/2/3 27/3/3 223/4/3
f 187/4/3 188/1/3 156/2/3 195/3/3
f 147/4/2 148/1/2 138/2/2 136/3/2
f 85/4/2 86/1/2 52/2/2 51/3/2
f 132/4/4 134/1/4 133/2/4 131/3/4
f 170/1/2 20/2/2 19/3/2 169/4/2
f 162/1/3 164/2/3 163/3/3 161/4/3
f 113/4/3 114/1/3 116/2/3 115/3/3
f 99/4/5 101/1/5 108/2/5 107/3/5
f 208/4/3 155/1/3 210/2/3 209/6/3
f 118/4/4 120/1/4 119/2/4 117/3/4
f 216/4/2 218/1/2 217/2/2 215/3/2
f 33/1/2 170/2/2 169/3/2 34/4/2
f 168/1/6 165/2/6 166/3/6 167/4/6
f 227/1/6 237/2/6 238/3/6 228/5/6
f 87/4/5 88/1/5 102/2/5 100/3/5
f 226/2/3 225/3/3 73/5/3 75/1/3
f 249/1/6 253/2/6 254/3/6 250/5/6
f 40/1/2 42/2/2 41/3/2 39/5/2
f 17/1/2 199/2/2 217/6/2 18/4/2
f 63/1/6 77/2/6 78/3/6 64/4/6
f 37/1/1 71/2/1 72/3/1 38/4/1
f 241/1/6 249/2/6 250/3/6 242/4/6
f 273/4/5 274/1/5 270/2/5 269/3/5
f 59/1/3 230/2/3 229/3/3 60/4/3
f 2/6/1 4/2/1 3/7/1 1/8/1
f 236/1/2 203/2/2 202/3/2 235/5/2
f 68/4/2 70/1/2 69/2/2 67/3/2
f 74/5/3 76/1/3 75/2/3 73/3/3
f 60/1/3 62/2/3 61/6/3 59/4/3
f 156/1/3 158/2/3 157/3/3 155/5/3
f 265/1/2 41/2/2 42/3/2 266/4/2
f 77/1/6 111/2/6 112/3/6 78/4/6
f 139/4/5 141/1/5 150/2/5 149/3/5
f 135/4/2 137/1/2 122/2/2 121/3/2
f 127/4/3 129/1/3 144/2/3 143/3/3
f 80/4/3 82/1/3 81/2/3 79/3/3
f 271/4/4 272/1/4 50/2/4 48/3/4
f 199/4/2 198/1/2 215/2/2 217/6/2
f 44/4/3 46/1/3 45/2/3 43/3/3
f 62/1/3 26/2/3 25/3/3 61/4/3
f 79/4/3 81/1/3 90/2/3 89/3/3
f 288/2/6 285/7/6 286/8/6 287/6/6
f 5/1/2 33/2/2 34/3/2 6/4/2
f 195/4/3 156/1/3 155/2/3 208/3/3
f 83/4/4 84/1/4 94/2/4 92/3/4
f 231/1/1 239/2/1 240/6/1 232/4/1
f 193/4/5 194/1/5 201/2/5 200/3/5
f 109/1/1 151/2/1 152/3/1 110/4/1
f 36/1/2 40/2/2 39/3/2 70/4/2
f 151/1/1 159/2/1 160/3/1 152/4/1
f 105/4/4 106/1/4 120/2/4 118/3/4
f 107/4/5 108/1/5 126/2/5 124/3/5
f 145/4/4 146/1/4 262/2/4 261/3/4
f 259/4/5 260/1/5 186/2/5 184/3/5
f 234/1/1 231/2/1 232/3/1 233/4/1
f 51/4/2 52/1/2 12/2/2 10/3/2
f 243/1/6 66/2/6 65/3/6 244/4/6
f 279/4/5 280/1/5 278/2/5 277/3/5
f 66/1/6 63/2/6 64/3/6 65/4/6
f 164/1/3 58/2/3 57/3/3 163/4/3
f 282/4/4 284/1/4 283/2/4 281/3/4
