# Blender 5.0.1
# www.blender.org
mtllib BP_EndGateway_BC.mtl
o EndPortalFrame_EndRim_Portal_Mesh.001
v -148.264374 -148.264359 336.466858
v -148.264374 -247.107285 336.466919
v -148.264374 -247.107300 100.000099
v -148.264374 -148.264374 100.000061
v -148.264374 148.264389 336.466766
v -247.107300 148.264389 336.466766
v -247.107300 148.264374 99.999939
v -148.264374 148.264374 99.999939
v -148.264374 247.107315 336.466736
v -148.264374 148.264389 336.466766
v -148.264374 148.264374 99.999939
v -148.264374 247.107300 99.999901
v 247.107300 148.264389 336.466766
v 148.264374 148.264389 336.466766
v 148.264374 148.264374 99.999939
v 247.107300 148.264374 99.999939
v 148.264374 148.264389 336.466766
v 148.264374 247.107315 336.466736
v 148.264374 247.107300 99.999901
v 148.264374 148.264374 99.999939
v 148.264374 -247.107285 336.466919
v 148.264374 -148.264359 336.466858
v 148.264374 -148.264374 100.000061
v 148.264374 -247.107300 100.000099
v 148.264374 -148.264359 336.466858
v 247.107300 -148.264359 336.466858
v 247.107300 -148.264374 100.000061
v 148.264374 -148.264374 100.000061
v -247.107300 -148.264359 336.466858
v -148.264374 -148.264359 336.466858
v -148.264374 -148.264374 100.000061
v -247.107300 -148.264374 100.000061
v 247.107300 49.421474 336.466797
v 247.107300 148.264389 336.466766
v 247.107300 148.264374 99.999939
v 247.107300 49.421459 99.999977
v 247.107300 -49.421444 336.466827
v 247.107300 -49.421459 100.000023
v 247.107300 -148.264359 336.466858
v 247.107300 -148.264374 100.000061
v 148.264374 247.107315 336.466736
v 49.421459 247.107300 99.999901
v 148.264374 247.107300 99.999901
v 49.421459 247.107315 336.466736
v -49.421459 247.107300 99.999901
v -49.421459 247.107315 336.466736
v -148.264374 247.107300 99.999901
v -148.264374 247.107315 336.466736
v -247.107300 -49.421444 336.466827
v -247.107300 -148.264359 336.466858
v -247.107300 -148.264374 100.000061
v -247.107300 -49.421459 100.000023
v -247.107300 49.421474 336.466797
v -247.107300 49.421459 99.999977
v -247.107300 148.264389 336.466766
v -247.107300 148.264374 99.999939
v -148.264374 -247.107285 336.466919
v -49.421459 -247.107300 100.000099
v -148.264374 -247.107300 100.000099
v -49.421459 -247.107285 336.466919
v 49.421459 -247.107300 100.000099
v 49.421459 -247.107285 336.466919
v 148.264374 -247.107300 100.000099
v 148.264374 -247.107285 336.466919
vn 1.0000 -0.0000 -0.0000
vn -0.0000 -1.0000 -0.0000
vn -1.0000 -0.0000 -0.0000
vn -0.0000 1.0000 -0.0000
vt 0.598145 0.999947
vt 0.398438 0.999947
vt 0.398438 0.000488
vt 0.598145 0.000488
vt 0.998047 0.000488
vt 0.998047 0.999947
vt 0.798340 0.999947
vt 0.798340 0.000488
vt 0.198486 0.000488
vt 0.198486 0.999947
vt -0.001482 0.999947
vt -0.001482 0.000488
vt -0.001481 0.000488
vt 0.398438 0.999947
vt 0.998047 0.999947
s 1
usemtl Material
f 41/1/2 44/2/2 42/3/2 43/4/2
f 32/5/4 29/6/4 30/7/4 31/8/4
f 52/9/1 49/10/1 50/11/1 51/12/1
f 28/8/4 25/7/4 26/1/4 27/4/4
f 24/5/3 21/6/3 22/7/3 23/8/3
f 8/8/2 5/7/2 6/1/2 7/4/2
f 4/8/1 1/7/1 2/1/1 3/4/1
f 36/9/3 33/10/3 34/11/3 35/13/3
f 54/3/1 53/2/1 49/10/1 52/9/1
f 44/2/2 46/10/2 45/9/2 42/3/2
f 57/1/4 60/14/4 58/3/4 59/4/4
f 20/8/3 17/7/3 18/1/3 19/4/3
f 40/4/3 39/1/3 37/14/3 38/3/3
f 60/14/4 62/10/4 61/9/4 58/3/4
f 16/5/2 13/15/2 14/7/2 15/8/2
f 38/3/3 37/14/3 33/10/3 36/9/3
f 46/10/2 48/11/2 47/12/2 45/9/2
f 56/4/1 55/1/1 53/2/1 54/3/1
f 12/5/1 9/15/1 10/7/1 11/8/1
f 62/10/4 64/11/4 63/13/4 61/9/4
