# Blender 5.0.1
# www.blender.org
mtllib BP_End_ChorusFullWithered.mtl
o SM_End_ChorusFullWithered_Base.001
v -18.750015 25.000000 231.250000
v 18.749985 37.500000 231.250000
v 18.749985 24.999998 231.250000
v -18.750015 37.500000 231.250000
v -18.750015 25.000000 268.750000
v 18.749985 24.999998 268.750000
v 18.749985 37.500000 268.750000
v -18.750015 37.500000 268.750000
v -18.750015 37.500000 268.750000
v -18.750015 37.500000 231.250000
v -18.750015 25.000000 268.750000
v -18.750015 25.000000 231.250000
v 18.749985 24.999998 231.250000
v 18.749985 37.500000 268.750000
v 18.749985 24.999998 268.750000
v 18.749985 37.500000 231.250000
v -18.750015 37.500000 231.250000
v -18.750015 37.500000 268.750000
v 18.749985 37.500000 231.250000
v 18.749985 37.500000 268.750000
v 24.999992 -24.999996 225.000000
v 31.249992 25.000000 225.000000
v 31.249992 -24.999996 225.000000
v 24.999985 25.000000 225.000000
v 31.249992 -24.999996 275.000000
v 31.249992 25.000000 275.000000
v 24.999992 -24.999996 275.000000
v 24.999985 25.000000 275.000000
v 24.999985 25.000000 225.000000
v 24.999985 25.000000 275.000000
v 31.249992 25.000000 225.000000
v 31.249992 25.000000 275.000000
v 24.999992 -24.999996 275.000000
v 24.999992 -24.999996 225.000000
v 31.249992 -24.999996 275.000000
v 31.249992 -24.999996 225.000000
v 31.249992 -24.999996 225.000000
v 31.249992 25.000000 275.000000
v 31.249992 -24.999996 275.000000
v 31.249992 25.000000 225.000000
v 37.499992 -18.750000 68.750000
v 25.000000 18.750000 68.750000
v 25.000000 -18.750000 68.750000
v 37.499992 18.750000 68.750000
v 25.000000 -18.750000 31.250000
v 25.000000 18.750000 31.250000
v 37.499992 -18.750000 31.250000
v 37.499992 18.750000 31.250000
v 25.000000 -18.750000 68.750000
v 25.000000 -18.750000 31.250000
v 37.499992 -18.750000 68.750000
v 37.499992 -18.750000 31.250000
v 25.000000 18.750000 31.250000
v 25.000000 18.750000 68.750000
v 37.499992 18.750000 31.250000
v 37.499992 18.750000 68.750000
v 37.499992 -18.750000 31.250000
v 37.499992 18.750000 68.750000
v 37.499992 -18.750000 68.750000
v 37.499992 18.750000 31.250000
v 18.749985 -37.500004 231.250000
v -18.750015 -37.500004 231.250000
v -18.750015 -25.000000 231.250000
v 18.749985 -25.000000 231.250000
v 18.749985 -25.000000 268.750000
v -18.750015 -25.000000 268.750000
v 18.749985 -37.500004 268.750000
v -18.750015 -37.500004 268.750000
v 18.749985 -37.500004 231.250000
v 18.749985 -25.000000 268.750000
v 18.749985 -37.500004 268.750000
v 18.749985 -25.000000 231.250000
v -18.750015 -25.000000 268.750000
v -18.750015 -25.000000 231.250000
v -18.750015 -37.500004 268.750000
v -18.750015 -37.500004 231.250000
v -18.750015 -37.500004 268.750000
v -18.750015 -37.500004 231.250000
v 18.749985 -37.500004 268.750000
v 18.749985 -37.500004 231.250000
v -25.000000 -25.000000 200.000000
v -25.000000 -25.000000 100.000000
v 25.000000 -25.000000 200.000000
v 25.000000 -25.000000 100.000000
v -25.000000 -25.000000 0.000000
v 25.000000 -25.000000 0.000000
v -25.000000 -25.000000 200.000000
v -25.000000 25.000000 100.000000
v -25.000000 -25.000000 100.000000
v -25.000000 25.000000 200.000000
v -25.000000 -25.000000 0.000000
v -25.000000 25.000000 -0.000000
v -25.000000 25.000000 100.000000
v -25.000000 25.000000 200.000000
v 25.000000 25.000000 100.000000
v 25.000000 25.000000 200.000000
v -25.000000 25.000000 -0.000000
v 25.000000 25.000000 -0.000000
v 25.000000 25.000000 100.000000
v 25.000000 25.000000 200.000000
v 25.000000 -25.000000 100.000000
v 25.000000 -25.000000 200.000000
v 25.000000 25.000000 -0.000000
v 25.000000 -25.000000 0.000000
v -25.000015 -25.000000 300.000000
v -25.000015 -25.000000 200.000000
v 24.999985 -25.000000 300.000000
v 24.999985 -25.000000 200.000000
v 24.999985 -25.000000 200.000000
v 24.999985 25.000000 300.000000
v 24.999985 -25.000000 300.000000
v 24.999985 25.000000 200.000000
v -25.000015 25.000000 200.000000
v -25.000015 25.000000 300.000000
v 24.999985 25.000000 200.000000
v 24.999985 25.000000 300.000000
v -25.000015 25.000000 300.000000
v -25.000015 25.000000 200.000000
v -25.000015 -25.000000 300.000000
v -25.000015 -25.000000 200.000000
v 24.999985 -25.000000 300.000000
v -25.000015 25.000000 300.000000
v -25.000015 -25.000000 300.000000
v 24.999985 25.000000 300.000000
v -18.750000 -37.500004 168.750000
v 18.750000 -37.500004 168.750000
v 18.750000 -25.000000 168.750000
v -18.750000 -25.000000 168.750000
v -18.750000 -25.000000 131.250000
v 18.750000 -25.000000 131.250000
v -18.750000 -37.500004 131.250000
v 18.750000 -37.500004 131.250000
v -18.750000 -37.500004 168.750000
v -18.750000 -25.000000 131.250000
v -18.750000 -37.500004 131.250000
v -18.750000 -25.000000 168.750000
v 18.750000 -25.000000 131.250000
v 18.750000 -25.000000 168.750000
v 18.750000 -37.500004 131.250000
v 18.750000 -37.500004 168.750000
v -18.750000 -37.500004 168.750000
v -18.750000 -37.500004 131.250000
v 18.750000 -37.500004 168.750000
v 18.750000 -37.500004 131.250000
v 24.999992 25.000004 75.000000
v -25.000008 31.250002 75.000000
v -25.000008 25.000002 75.000000
v 24.999992 31.250004 75.000000
v 24.999992 25.000004 25.000000
v -25.000008 25.000002 25.000000
v -25.000008 31.250002 25.000000
v 24.999992 31.250004 25.000000
v 24.999992 31.250004 25.000000
v 24.999992 31.250004 75.000000
v 24.999992 25.000004 25.000000
v 24.999992 25.000004 75.000000
v -25.000008 25.000002 75.000000
v -25.000008 31.250002 25.000000
v -25.000008 25.000002 25.000000
v -25.000008 31.250002 75.000000
v -25.000008 31.250002 25.000000
v -25.000008 31.250002 75.000000
v 24.999992 31.250004 25.000000
v 24.999992 31.250004 75.000000
v -25.000008 -24.999996 175.000000
v -31.250008 25.000000 175.000000
v -31.250008 -24.999996 175.000000
v -25.000008 25.000000 175.000000
v -31.250008 -24.999996 125.000000
v -31.250008 25.000000 125.000000
v -25.000008 -24.999996 125.000000
v -25.000008 25.000000 125.000000
v -31.250008 25.000000 125.000000
v -31.250008 25.000000 175.000000
v -25.000008 25.000000 125.000000
v -25.000008 25.000000 175.000000
v -31.250008 -24.999996 175.000000
v -31.250008 -24.999996 125.000000
v -25.000008 -24.999996 175.000000
v -25.000008 -24.999996 125.000000
v -31.250008 -24.999996 175.000000
v -31.250008 25.000000 125.000000
v -31.250008 -24.999996 125.000000
v -31.250008 25.000000 175.000000
v 18.749992 25.000000 168.750000
v -18.750008 37.500000 168.750000
v -18.750008 24.999998 168.750000
v 18.749992 37.500000 168.750000
v 18.749992 25.000000 131.250000
v -18.750008 24.999998 131.250000
v -18.750008 37.500000 131.250000
v 18.749992 37.500000 131.250000
v 18.749992 37.500000 131.250000
v 18.749992 37.500000 168.750000
v 18.749992 25.000000 131.250000
v 18.749992 25.000000 168.750000
v -18.750008 24.999998 168.750000
v -18.750008 37.500000 131.250000
v -18.750008 24.999998 131.250000
v -18.750008 37.500000 168.750000
v -18.750008 37.500000 131.250000
v -18.750008 37.500000 168.750000
v 18.749992 37.500000 131.250000
v 18.749992 37.500000 168.750000
vn -0.0000 -0.0000 -1.0000
vn -0.0000 -0.0000 1.0000
vn -1.0000 -0.0000 -0.0000
vn 1.0000 -0.0000 -0.0000
vn -0.0000 1.0000 -0.0000
vn -0.0000 -1.0000 -0.0000
vt 0.875000 0.999969
vt 0.750000 0.999969
vt 0.750000 0.750000
vt 0.875000 0.750000
vt 0.890625 0.265625
vt 0.890625 0.515625
vt 0.765625 0.515625
vt 0.765625 0.265625
vt 0.031250 0.312500
vt 0.062500 0.312500
vt 0.062500 0.406250
vt 0.031250 0.406250
vt 0.312500 0.781250
vt 0.312500 0.531250
vt 0.437500 0.531250
vt 0.437500 0.781250
vt 0.890625 0.296875
vt 0.890625 0.421875
vt 0.765625 0.421875
vt 0.765625 0.296875
vt 0.968750 0.297363
vt 0.984375 0.297363
vt 0.984375 0.421875
vt 0.968750 0.421875
vt 0.171875 0.343750
vt 0.171875 0.437500
vt 0.078125 0.437500
vt 0.078125 0.343750
vt 0.765625 0.281250
vt 0.765625 0.375000
vt 0.796875 0.375000
vt 0.796875 0.281250
vt 0.500000 0.015625
vt 0.375000 0.015625
vt 0.375000 0.265625
vt 0.500000 0.265625
vt 0.156250 0.328125
vt 0.156250 0.453125
vt 0.140625 0.453125
vt 0.140625 0.328125
vt 0.781250 0.281250
vt 0.781250 0.375000
vt 0.812500 0.375000
vt 0.812500 0.281250
vt 0.859375 0.281250
vt 0.765625 0.312500
vt 0.859375 0.312500
vt 0.890625 0.312500
vt 0.859375 0.406250
vt 0.890625 0.406250
vt 0.796875 0.500000
vt 0.796875 0.593750
vt 0.703125 0.593750
vt 0.703125 0.500000
vt 0.875000 0.421875
vt 0.875000 0.296875
vt 0.093750 0.421875
vt 0.062500 0.421875
vt 0.062500 0.328125
vt 0.093750 0.328125
vt 0.765625 0.406250
vt 0.921875 0.281250
vt 0.921875 0.250000
vt 0.828125 0.250000
vt 0.828125 0.281250
vt 0.187500 0.312500
vt 0.187500 0.437500
vt 0.062500 0.437500
vt 0.171875 0.328125
vt 0.171875 0.421875
vt 0.078125 0.421875
vt 0.078125 0.328125
vt 0.265625 0.640625
vt 0.140625 0.640625
vt 0.140625 0.515625
vt 0.265625 0.515625
vt 0.640625 0.515625
vt 0.640625 0.265625
vt 1.000000 0.265625
vt 0.875000 0.265625
vt 0.875000 0.015625
vt 1.000000 0.015625
vt 0.828125 0.406250
vt 0.812500 0.406250
vt 0.750000 0.265625
vt 0.750000 0.015625
vt 0.750000 0.500000
vt 0.750000 0.250000
vt 0.875000 0.250000
vt 0.875000 0.500000
vt 0.328125 0.343750
vt 0.296875 0.343750
vt 0.296875 0.437500
vt 0.328125 0.437500
vt 0.890625 0.437500
vt 0.765625 0.437500
s 1
usemtl MI_ChorusFullWithered
f 99/1/4 101/2/4 104/3/4 103/4/4
f 112/5/4 110/6/4 111/7/4 109/8/4
f 128/9/2 125/10/2 126/11/2 127/12/2
f 86/13/6 84/14/6 82/15/6 85/16/6
f 40/17/4 38/18/4 39/19/4 37/20/4
f 24/21/1 22/22/1 23/23/1 21/24/1
f 144/25/6 143/26/6 141/27/6 142/28/6
f 72/29/4 70/30/4 71/31/4 69/32/4
f 138/10/4 140/9/4 139/12/4 137/11/4
f 56/9/5 55/12/5 53/11/5 54/10/5
f 52/10/6 51/11/6 49/12/6 50/9/6
f 118/33/3 120/34/3 119/35/3 117/36/3
f 176/37/5 175/38/5 173/39/5 174/40/5
f 64/32/1 61/29/1 62/30/1 63/31/1
f 16/41/4 14/42/4 15/43/4 13/44/4
f 4/45/1 2/29/1 3/46/1 1/47/1
f 10/48/3 12/47/3 11/49/3 9/50/3
f 80/51/6 79/52/6 77/53/6 78/54/6
f 32/55/5 31/56/5 29/17/5 30/18/5
f 130/57/1 132/58/1 131/59/1 129/60/1
f 20/61/5 19/46/5 17/47/5 18/49/5
f 188/10/2 186/11/2 187/12/2 185/9/2
f 8/62/2 5/63/2 6/64/2 7/65/2
f 164/66/5 163/67/5 161/68/5 162/10/5
f 192/9/1 189/10/1 190/11/1 191/12/1
f 48/12/1 47/9/1 45/10/1 46/11/1
f 95/2/5 98/3/5 97/4/5 93/1/5
f 194/10/4 196/9/4 195/12/4 193/11/4
f 44/11/2 42/12/2 43/9/2 41/10/2
f 136/9/3 134/12/3 135/11/3 133/10/3
f 90/4/3 88/1/3 89/2/3 87/3/3
f 66/30/2 68/31/2 67/32/2 65/29/2
f 60/69/4 58/70/4 59/71/4 57/72/4
f 124/73/2 122/74/2 123/75/2 121/76/2
f 108/8/6 107/7/6 105/77/6 106/78/6
f 100/79/4 102/80/4 101/81/4 99/82/4
f 36/65/6 35/83/6 33/84/6 34/44/6
f 84/81/6 83/80/6 81/85/6 82/86/6
f 116/87/5 115/88/5 113/89/5 114/90/5
f 148/37/2 146/38/2 147/39/2 145/40/2
f 74/91/3 76/92/3 75/93/3 73/94/3
f 154/40/4 156/37/4 155/38/4 153/39/4
f 152/40/1 149/37/1 150/38/1 151/39/1
f 200/9/3 198/12/3 199/11/3 197/10/3
f 160/37/3 158/38/3 159/39/3 157/40/3
f 96/85/5 95/86/5 93/81/5 94/80/5
f 168/40/2 166/37/2 167/38/2 165/39/2
f 180/39/6 179/40/6 177/37/6 178/38/6
f 184/66/3 182/67/3 183/68/3 181/10/3
f 172/37/1 171/38/1 169/39/1 170/40/1
f 28/95/2 27/96/2 25/19/2 26/18/2
f 89/1/3 88/2/3 92/3/3 91/4/3
f 204/71/5 203/72/5 201/69/5 202/70/5
