# Blender 5.0.1
# www.blender.org
mtllib BP_EndRodBlock_S_Tall.mtl
o SM_EndRodBlock_S_Pillar.001
v 0.000000 0.000016 100.000000
v 0.000000 -100.000000 0.000016
v 0.000000 -99.999985 100.000015
v -0.000006 0.000000 0.000000
v 99.999992 0.000006 0.000024
v -0.000006 0.000000 0.000000
v 0.000000 -100.000000 0.000016
v 100.000000 -99.999992 0.000016
v 99.999992 0.000039 200.000031
v -0.000006 0.000027 200.000000
v 0.000000 -99.999969 200.000015
v 100.000000 -99.999969 200.000015
v -0.000006 0.000027 200.000000
v 100.000000 0.000016 100.000000
v 0.000000 0.000016 100.000000
v 99.999992 0.000039 200.000031
v 100.000000 -99.999969 200.000015
v 0.000000 -99.999969 200.000015
v 0.000000 -99.999985 100.000015
v 100.000000 -99.999985 100.000015
v 100.000000 -99.999985 100.000015
v 99.999992 0.000006 0.000024
v 100.000000 0.000016 100.000000
v 100.000000 -99.999992 0.000016
v 100.000000 -99.999969 200.000015
v 99.999992 0.000039 200.000031
v -0.000006 0.000027 200.000000
v 0.000000 -99.999969 200.000015
v 0.000000 -100.000000 0.000016
v 100.000000 -99.999992 0.000016
v 99.999992 0.000006 0.000024
v -0.000006 0.000000 0.000000
vn -1.0000 -0.0000 -0.0000
vn -0.0000 -0.0000 1.0000
vn -0.0000 1.0000 -0.0000
vn -0.0000 -1.0000 -0.0000
vn 1.0000 -0.0000 -0.0000
vt 0.500000 0.000000
vt 0.000031 0.000000
vt 0.000031 0.500000
vt 0.500000 0.500000
vt 0.500000 0.999969
vt 0.000031 0.999969
s 1
usemtl MI_EndRodBlock_S_Pillar
f 24/1/5 22/2/5 23/3/5 21/4/5
f 21/1/5 23/2/5 26/3/5 25/4/5
f 14/3/3 31/2/3 32/1/3 15/4/3
f 4/2/1 2/1/1 3/4/1 1/3/1
f 16/3/3 14/2/3 15/1/3 13/4/3
f 12/5/2 9/6/2 10/3/2 11/4/2
f 20/2/4 17/3/4 18/4/4 19/1/4
f 1/2/1 3/1/1 28/4/1 27/3/1
f 8/5/2 5/6/2 6/3/2 7/4/2
f 30/2/4 20/3/4 19/4/4 29/1/4
