# Blender 5.0.1
# www.blender.org
mtllib BP_EndArtifactStand2.mtl
o SM_Small_ArtifactStand.001
v 37.500000 -37.500000 113.499985
v -37.500000 -37.500000 113.499985
v 37.500000 -37.500000 1.000000
v -37.500000 -37.500000 1.000000
v -37.500000 37.500000 1.000000
v -37.500000 37.500000 113.499985
v 37.500000 37.500000 1.000000
v 37.500000 37.500000 113.499985
v 37.500000 -37.500000 1.000000
v -37.500000 -37.500000 1.000000
v -37.500000 37.500000 1.000000
v 37.500000 37.500000 1.000000
v 37.500000 -37.500000 113.499985
v 37.500000 37.500000 1.000000
v 37.500000 37.500000 113.499985
v 37.500000 -37.500000 1.000000
v -37.500000 -37.500000 113.499985
v -37.500000 37.500000 1.000000
v -37.500000 -37.500000 1.000000
v -37.500000 37.500000 113.499985
v -50.000000 -50.000000 113.499985
v 50.000000 -50.000000 113.499985
v -49.999996 -49.999992 157.249954
v 50.000000 -49.999992 157.249954
v -50.000000 49.999973 113.499985
v -50.000000 -50.000000 113.499985
v -49.999996 49.999969 157.249954
v -49.999996 -49.999992 157.249954
v 50.000000 -50.000000 113.499985
v 50.000000 50.000031 113.499985
v 50.000000 -49.999992 157.249954
v 50.000000 50.000027 157.249954
v 50.000000 50.000031 113.499985
v -50.000000 49.999973 113.499985
v 50.000000 50.000027 157.249954
v -49.999996 49.999969 157.249954
v -49.999996 -49.999992 157.249954
v 50.000000 -49.999992 157.249954
v -49.999996 49.999969 157.249954
v 50.000000 50.000027 157.249954
v -50.000000 -50.000000 113.499985
v -50.000000 49.999973 113.499985
v 50.000000 -50.000000 113.499985
v 50.000000 50.000031 113.499985
v -112.500000 -12.500000 51.000000
v -37.500057 -12.500000 51.000000
v -112.500000 -12.500000 76.000000
v -37.499935 -12.500000 76.000000
v -37.499935 -12.500000 76.000000
v -37.499935 12.500000 76.000000
v -112.500000 -12.500000 76.000000
v -112.500000 12.500000 76.000000
v -37.499935 12.500000 51.000000
v -112.500000 12.500000 51.000000
v -112.500000 12.500000 76.000000
v -37.499935 12.500000 76.000000
v -37.500057 -12.500000 51.000000
v -112.500000 -12.500000 51.000000
v -112.500000 12.500000 51.000000
v -37.499935 12.500000 51.000000
v -37.499935 12.500000 76.000000
v -37.499935 -12.500000 76.000000
v -37.500057 -12.500000 51.000000
v -37.499935 12.500000 51.000000
v -112.500000 -12.500000 76.000000
v -112.500000 12.500000 51.000000
v -112.500000 -12.500000 51.000000
v -112.500000 12.500000 76.000000
v -87.500000 -12.500000 1.000000
v -87.500000 -12.500000 51.000000
v -112.500000 -12.500000 1.000000
v -87.500000 12.500000 51.000000
v -87.500000 12.500000 1.000000
v -112.500000 12.500000 1.000000
v -87.500000 -12.500000 51.000000
v -87.500000 -12.500000 1.000000
v -87.500000 12.500000 1.000000
v -87.500000 12.500000 51.000000
v -112.500000 12.500000 51.000000
v -112.500000 -12.500000 51.000000
v -87.500000 -12.500000 51.000000
v -87.500000 12.500000 51.000000
v -112.500000 -12.500000 1.000000
v -112.500000 12.500000 1.000000
v -87.500000 -25.000000 1.000000
v -75.000000 -25.000000 1.000000
v -75.000000 -12.500000 1.000000
v -87.500000 -12.500000 1.000000
v -112.500000 -25.000000 1.000000
v -87.500000 12.500000 1.000000
v -112.500000 -12.500000 1.000000
v -75.000000 12.500000 1.000000
v -125.000000 -25.000000 1.000000
v -75.000000 25.000000 1.000000
v -125.000000 -12.500000 1.000000
v -87.500000 25.000000 1.000000
v -125.000000 12.500000 1.000000
v -112.500000 12.500000 1.000000
v -112.500000 25.000000 1.000000
v -125.000000 25.000000 1.000000
vn -0.0000 -1.0000 -0.0000
vn -0.0000 1.0000 -0.0000
vn -0.0000 -0.0000 -1.0000
vn 1.0000 -0.0000 -0.0000
vn -1.0000 -0.0000 -0.0000
vn -0.0000 -0.0000 1.0000
vt 0.421631 0.999969
vt 0.421631 0.750000
vt 0.546387 0.750000
vt 0.546875 0.999969
vt 0.187500 0.531250
vt 0.187500 0.812500
vt 0.000031 0.812500
vt 0.000031 0.531250
vt 0.703125 0.937500
vt 0.640625 0.937500
vt 0.640625 0.812622
vt 0.703125 0.812622
vt 0.625000 0.750000
vt 0.625000 0.812500
vt 0.562500 0.812500
vt 0.562500 0.750000
vt 0.187500 0.750000
vt 0.187500 0.999969
vt 0.437500 0.999969
vt 0.437500 0.750000
vt 0.421631 0.750122
vt 0.546387 0.750122
vt 0.546387 0.999969
vt 0.640625 0.812500
vt 0.640625 0.875061
vt 0.703125 0.875061
vt 0.703125 0.812500
vt 0.781250 0.999969
vt 0.718750 0.999969
vt 0.718750 0.812500
vt 0.781250 0.812500
vt 0.625000 0.999969
vt 0.562012 0.999969
vt 0.562012 0.812500
vt 0.218750 0.750000
vt 0.218750 0.718750
vt 0.281250 0.718750
vt 0.281250 0.750000
vt 0.000031 0.999969
vt 0.281250 0.656250
vt 0.281250 0.625000
vt 0.312500 0.625000
vt 0.312500 0.656250
vt 0.562500 0.750122
vt 0.625000 0.750122
vt 0.625000 0.875000
vt 0.562500 0.875000
vt 0.312500 0.718750
vt 0.312500 0.750000
vt 0.640625 0.937531
vt 0.703125 0.937531
vt 0.421875 0.999969
vt 0.421875 0.750000
vt 0.546875 0.750000
vt 0.640137 0.812500
vt 0.703125 1.000031
vt 0.640137 1.000031
vt 0.218750 0.656250
vt 0.187500 0.718750
vt 0.187500 0.656250
vt 0.218750 0.625000
vt 0.187500 0.625000
s 1
usemtl MI_Small_ArtifactStand
f 24/1/1 23/2/1 21/3/1 22/4/1
f 20/5/5 18/6/5 19/7/5 17/8/5
f 2/8/1 4/7/1 3/6/1 1/5/1
f 54/9/2 72/10/2 73/11/2 74/12/2
f 16/6/4 14/7/4 15/8/4 13/5/4
f 81/13/6 82/14/6 79/15/6 80/16/6
f 44/17/3 43/18/3 41/19/3 42/20/3
f 28/1/5 27/21/5 25/22/5 26/23/5
f 68/24/5 66/25/5 67/26/5 65/27/5
f 46/28/1 48/29/1 47/30/1 45/31/1
f 38/20/6 40/19/6 39/18/6 37/17/6
f 60/32/3 57/33/3 58/34/3 59/14/3
f 99/35/6 98/36/6 90/37/6 96/38/6
f 12/7/3 9/6/3 10/18/3 11/39/3
f 63/16/4 64/13/4 61/14/4 62/15/4
f 88/40/6 85/41/6 86/42/6 87/43/6
f 78/44/4 75/45/4 76/46/4 77/47/4
f 56/29/2 53/28/2 54/31/2 55/30/2
f 96/38/6 90/37/6 92/48/6 94/49/6
f 70/50/1 45/51/1 71/27/1 69/24/1
f 36/52/2 35/53/2 33/54/2 34/4/2
f 8/8/2 7/7/2 5/6/2 6/5/2
f 52/55/6 51/27/6 49/56/6 50/57/6
f 91/58/6 98/36/6 97/59/6 95/60/6
f 91/58/6 89/61/6 85/41/6 88/40/6
f 95/60/6 93/62/6 89/61/6 91/58/6
f 32/1/4 31/2/4 29/3/4 30/4/4
f 92/48/6 90/37/6 88/40/6 87/43/6
f 84/24/5 83/27/5 67/51/5 66/50/5
f 100/17/6 97/59/6 98/36/6 99/35/6
