# Blender 5.0.1
# www.blender.org
mtllib BP_EndRodBlock_large.mtl
o SM_EndRodBlock_large.001
v 0.000000 -100.000000 -0.000000
v -100.000000 -100.000000 -0.000000
v 0.000000 0.000000 0.000000
v -100.000000 0.000000 0.000000
v 100.000000 -100.000000 -0.000000
v 100.000000 0.000000 0.000000
v 0.000000 100.000000 0.000000
v -100.000000 100.000000 0.000000
v 100.000000 100.000000 0.000000
v 0.000000 -0.000000 200.000000
v -100.000000 -0.000000 200.000000
v -100.000000 -100.000000 200.000000
v 0.000000 -100.000000 200.000000
v 100.000000 -0.000000 200.000000
v 100.000000 -100.000000 200.000000
v 0.000000 100.000000 200.000000
v -100.000000 100.000000 200.000000
v 100.000000 100.000000 200.000000
v 0.000000 -100.000000 100.000000
v -100.000000 -100.000000 100.000000
v -100.000000 -100.000000 -0.000000
v 0.000000 -100.000000 -0.000000
v 100.000000 -100.000000 100.000000
v 100.000000 -100.000000 -0.000000
v 0.000000 -100.000000 200.000000
v -100.000000 -100.000000 200.000000
v 100.000000 -100.000000 200.000000
v 100.000000 0.000000 100.000000
v 100.000000 -100.000000 100.000000
v 100.000000 -100.000000 -0.000000
v 100.000000 0.000000 0.000000
v 100.000000 100.000000 100.000000
v 100.000000 100.000000 0.000000
v 100.000000 -0.000000 200.000000
v 100.000000 -100.000000 200.000000
v 100.000000 100.000000 200.000000
v 0.000000 100.000000 100.000000
v 100.000000 100.000000 100.000000
v 100.000000 100.000000 0.000000
v 0.000000 100.000000 0.000000
v -100.000000 100.000000 100.000000
v -100.000000 100.000000 0.000000
v 0.000000 100.000000 200.000000
v 100.000000 100.000000 200.000000
v -100.000000 100.000000 200.000000
v -100.000000 0.000000 100.000000
v -100.000000 100.000000 100.000000
v -100.000000 100.000000 0.000000
v -100.000000 0.000000 0.000000
v -100.000000 -100.000000 100.000000
v -100.000000 -100.000000 -0.000000
v -100.000000 -0.000000 200.000000
v -100.000000 100.000000 200.000000
v -100.000000 -100.000000 200.000000
vn -0.0000 -0.0000 -1.0000
vn -0.0000 -0.0000 1.0000
vn -0.0000 -1.0000 -0.0000
vn 1.0000 -0.0000 -0.0000
vn -0.0000 1.0000 -0.0000
vn -1.0000 -0.0000 -0.0000
vt 1.000000 0.500000
vt 1.000000 0.999969
vt 0.500000 0.999969
vt 0.500000 0.500000
vt 1.000000 0.000000
vt 0.500000 0.000000
vt -0.000031 0.999969
vt -0.000031 0.500000
s 1
usemtl MI_EndRodBlock_large
f 23/1/3 27/2/3 25/3/3 19/4/3
f 37/5/5 43/1/5 44/4/5 38/6/5
f 28/5/4 34/1/4 35/4/4 29/6/4
f 10/4/2 16/3/2 17/7/2 11/8/2
f 15/4/2 14/3/2 10/7/2 13/8/2
f 19/5/3 25/1/3 26/4/3 20/6/3
f 2/4/1 4/3/1 3/7/1 1/8/1
f 22/5/3 19/1/3 20/4/3 21/6/3
f 4/4/1 8/3/1 7/7/1 3/8/1
f 31/5/4 28/1/4 29/4/4 30/6/4
f 41/1/5 45/2/5 43/3/5 37/4/5
f 13/4/2 10/3/2 11/7/2 12/8/2
f 33/1/4 32/2/4 28/3/4 31/4/4
f 49/5/6 46/1/6 47/4/6 48/6/6
f 3/4/1 7/3/1 9/7/1 6/8/1
f 24/1/3 23/2/3 19/3/3 22/4/3
f 46/5/6 52/1/6 53/4/6 47/6/6
f 32/1/4 36/2/4 34/3/4 28/4/4
f 14/4/2 18/3/2 16/7/2 10/8/2
f 42/1/5 41/2/5 37/3/5 40/4/5
f 40/5/5 37/1/5 38/4/5 39/6/5
f 51/1/6 50/2/6 46/3/6 49/4/6
f 1/4/1 3/3/1 6/7/1 5/8/1
f 50/1/6 54/2/6 52/3/6 46/4/6
