# Blender 5.0.1
# www.blender.org
mtllib BP_End_ShulkerLift.mtl
o SK_ShulkerLiftCube.001
v 362.500000 -437.500000 225.000000
v 362.500000 -437.500000 150.000000
v 437.500000 -437.500000 225.000000
v 437.500000 -437.500000 150.000000
v 362.500000 -362.500000 225.000000
v 362.500000 -437.500000 225.000000
v 437.500000 -362.500000 225.000000
v 437.500000 -437.500000 225.000000
v 362.500000 -362.500000 225.000000
v 437.500000 -362.500000 225.000000
v 437.500000 -362.500000 150.000000
v 362.500000 -362.500000 150.000000
v 437.500000 -362.500000 225.000000
v 437.500000 -437.500000 225.000000
v 437.500000 -437.500000 150.000000
v 437.500000 -362.500000 150.000000
v 362.500000 -362.500000 225.000000
v 362.500000 -362.500000 150.000000
v 362.500000 -437.500000 225.000000
v 362.500000 -437.500000 150.000000
v 412.500000 -399.999969 -75.000000
v 387.500000 -399.999969 -75.000000
v 387.500000 -399.999969 -37.500000
v 412.500000 -399.999969 -37.500000
v 387.500000 -399.999969 0.000000
v 412.500000 -399.999969 0.000000
v 387.500000 -400.000000 37.500015
v 412.500000 -400.000000 37.500015
v 387.500000 -400.000000 75.000023
v 412.500000 -400.000000 75.000023
v 387.500000 -400.000000 112.500023
v 412.500000 -400.000000 112.500023
v 387.500000 -400.000000 150.000031
v 412.500000 -400.000000 150.000031
v 399.999939 -412.500122 150.000031
v 399.999939 -387.500122 150.000031
v 399.999939 -412.500122 112.500023
v 399.999939 -387.500122 112.500023
v 399.999939 -412.500122 75.000015
v 399.999939 -387.500122 75.000015
v 399.999939 -412.500122 37.500008
v 399.999939 -387.500122 37.500008
v 399.999939 -412.500092 0.000000
v 399.999939 -387.500092 0.000000
v 399.999939 -412.500092 -37.500000
v 399.999939 -387.500092 -37.500000
v 399.999939 -412.500092 -75.000000
v 399.999939 -387.500092 -75.000000
v 437.500000 -437.500000 150.000000
v 400.000000 -400.000000 150.000000
v 437.500000 -362.500000 150.000000
v 362.500000 -437.500000 150.000000
v 362.500000 -362.500000 150.000000
vn -0.0000 -1.0000 -0.0000
vn -0.0000 -0.0000 1.0000
vn -0.0000 1.0000 -0.0000
vn 1.0000 -0.0000 -0.0000
vn -1.0000 -0.0000 -0.0000
vn -0.0000 -0.0000 -1.0000
vt 0.000031 0.882812
vt 0.093750 0.882812
vt 0.093750 0.976562
vt 0.000031 0.976562
vt 0.140625 0.976562
vt 0.187500 0.976562
vt 0.187500 0.999969
vt 0.140625 0.999969
vt 0.093750 0.999969
vt 0.234375 0.976562
vt 0.234375 0.999969
vt 0.281250 0.882812
vt 0.281250 0.976562
vt 0.187500 0.882812
vt 0.281250 0.999969
vt 0.046875 0.976562
vt 0.046875 0.999969
vt 0.046844 0.976562
vt 0.046844 0.999969
vt 0.000031 0.999969
vt 0.093689 0.976562
vt 0.093689 0.999969
vt 0.234375 0.929688
s 1
usemtl MI_ShulkerLift_Chain
f 16/1/4 13/2/4 14/3/4 15/4/4
f 20/3/5 19/4/5 17/1/5 18/2/5
f 28/5/3 26/6/3 25/7/3 27/8/3
f 30/3/3 28/5/3 27/8/3 29/9/3
f 46/10/5 45/11/5 43/7/5 44/6/5
f 8/12/2 7/13/2 5/6/2 6/14/2
f 4/2/1 3/3/1 1/4/1 2/1/1
f 24/10/3 21/13/3 22/15/3 23/11/3
f 12/4/3 9/1/3 10/2/3 11/3/3
f 26/6/3 24/10/3 23/11/3 25/7/3
f 32/16/3 30/3/3 29/9/3 31/17/3
f 44/6/5 43/7/5 41/8/5 42/5/5
f 38/18/5 37/19/5 35/20/5 36/4/5
f 48/13/5 47/15/5 45/11/5 46/10/5
f 40/21/5 39/22/5 37/19/5 38/18/5
f 42/5/5 41/8/5 39/22/5 40/21/5
f 51/12/6 49/13/6 50/23/6
f 50/23/6 49/13/6 52/6/6
f 51/12/6 50/23/6 53/14/6
f 50/23/6 52/6/6 53/14/6
f 34/4/3 32/16/3 31/17/3 33/20/3
