# Blender 5.0.1
# www.blender.org
mtllib BP_End_FortuneFlower_Short.mtl
o SM_End_FortuneFlower_Base_Short.001
v 25.000000 25.000000 38.750000
v -25.000000 25.000000 38.750000
v -25.000000 -25.000000 38.750000
v 25.000000 -25.000000 38.750000
v 25.000000 -25.000000 68.750000
v 25.000000 -25.000000 38.750000
v -25.000000 -25.000000 68.750000
v -25.000000 -25.000000 38.750000
v 25.000000 25.000000 68.750000
v 25.000000 25.000000 38.750000
v 25.000000 -25.000000 68.750000
v 25.000000 -25.000000 38.750000
v -25.000000 25.000000 68.750000
v -25.000000 25.000000 38.750000
v 25.000000 25.000000 68.750000
v 25.000000 25.000000 38.750000
v -25.000000 -25.000000 68.750000
v -25.000000 -25.000000 38.750000
v -25.000000 25.000000 68.750000
v -25.000000 25.000000 38.750000
v -21.673248 -21.813324 50.004593
v -21.673275 21.936676 50.004593
v -21.673275 21.936676 106.250000
v -21.673248 -21.813324 106.250000
v 22.076736 21.936676 50.004593
v 22.076736 -21.813324 50.004593
v 22.076721 -21.813324 106.250000
v 22.076721 21.936676 106.250000
v -21.673264 21.936691 50.004578
v 22.076744 21.936691 50.004593
v 22.076721 21.936676 106.250000
v -21.673286 21.936661 106.250000
v 22.076736 -21.813324 50.004593
v -21.673275 -21.813324 50.004593
v -21.673275 -21.813324 106.250000
v 22.076736 -21.813309 106.250000
v 22.076721 21.936691 62.500000
v -21.673275 21.936691 62.500000
v -21.673275 -21.813309 62.500000
v 22.076721 -21.813309 62.500000
v 43.750000 -43.750000 68.750000
v 25.000000 -43.750000 68.750000
v 43.750000 -43.750000 0.000000
v -25.000000 -43.750000 68.750000
v -43.750000 -43.750000 0.000000
v -43.750000 -43.750000 68.750000
v 43.750000 43.750000 68.750000
v 43.750000 25.000000 68.750000
v 43.750000 43.750000 -0.000000
v 43.750000 -25.000000 68.750000
v 43.750000 -43.750000 0.000000
v 43.750000 -43.750000 68.750000
v -43.750000 43.750000 68.750000
v -25.000000 43.750000 68.750000
v -43.750000 43.750000 -0.000000
v 25.000000 43.750000 68.750000
v 43.750000 43.750000 -0.000000
v 43.750000 43.750000 68.750000
v -43.750000 -43.750000 68.750000
v -43.750000 -25.000000 68.750000
v -43.750000 -43.750000 0.000000
v -43.750000 25.000000 68.750000
v -43.750000 43.750000 -0.000000
v -43.750000 43.750000 68.750000
v 43.750000 -25.000000 68.750000
v 25.000000 -43.750000 68.750000
v 43.750000 -43.750000 68.750000
v 25.000000 -25.000000 68.750000
v 43.750000 25.000000 68.750000
v -25.000000 -43.750000 68.750000
v 25.000000 25.000000 68.750000
v -25.000000 -25.000000 68.750000
v 43.750000 43.750000 68.750000
v -43.750000 -43.750000 68.750000
v 25.000000 43.750000 68.750000
v -43.750000 -25.000000 68.750000
v -25.000000 25.000000 68.750000
v -25.000000 43.750000 68.750000
v -43.750000 25.000000 68.750000
v -43.750000 43.750000 68.750000
vn -0.0000 -0.0000 1.0000
vn -0.0000 1.0000 -0.0000
vn -1.0000 -0.0000 -0.0000
vn -0.0000 -1.0000 -0.0000
vn 1.0000 -0.0000 -0.0000
vt 0.531250 0.656250
vt 0.437500 0.656250
vt 0.437500 0.562500
vt 0.531250 0.562500
vt 0.687500 0.093750
vt 0.687500 0.250000
vt 0.937500 0.250000
vt 0.937500 0.093750
vt 0.937500 0.000000
vt 0.687500 0.000000
vt 0.000031 0.437500
vt 0.000031 0.156250
vt 0.218750 0.156250
vt 0.218750 0.437500
vt 0.875000 0.999969
vt 0.781250 0.999969
vt 0.781250 0.906250
vt 0.875000 0.906250
vt 0.781250 0.656250
vt 0.875000 0.656250
vt 0.437500 0.500000
vt 0.437500 0.812500
vt 0.343750 0.812500
vt 0.093750 0.812500
vt 0.000031 0.500000
vt 0.000031 0.812500
vt 0.781250 0.562500
vt 0.875000 0.562500
vt 0.500000 0.000000
vt 0.500000 0.218750
vt 0.281250 0.218750
vt 0.281250 0.000000
vt 0.531250 0.999969
vt 0.531250 0.906250
vt 0.437500 0.906250
vt 0.437500 0.999969
s 1
usemtl MI_FortuneFlower
f 72/1/1 76/2/1 74/3/1 70/4/1
f 16/5/4 15/6/4 13/7/4 14/8/4
f 4/9/1 1/7/1 2/6/1 3/10/1
f 12/5/3 11/6/3 9/7/3 10/8/3
f 24/11/5 21/12/5 22/13/5 23/14/5
f 8/5/2 7/6/2 5/7/2 6/8/2
f 73/15/1 75/16/1 71/17/1 69/18/1
f 32/11/4 29/12/4 30/13/4 31/14/4
f 69/18/1 71/17/1 68/19/1 65/20/1
f 43/21/4 41/22/4 42/23/4
f 42/23/4 44/24/4 43/21/4
f 45/25/4 43/21/4 44/24/4
f 46/26/4 45/25/4 44/24/4
f 49/21/5 47/22/5 48/23/5
f 48/23/5 50/24/5 49/21/5
f 49/21/5 50/24/5 51/25/5
f 52/26/5 51/25/5 50/24/5
f 55/21/2 53/22/2 54/23/2
f 56/24/2 55/21/2 54/23/2
f 56/24/2 57/25/2 55/21/2
f 58/26/2 57/25/2 56/24/2
f 61/21/3 59/22/3 60/23/3
f 60/23/3 62/24/3 61/21/3
f 63/25/3 61/21/3 62/24/3
f 64/26/3 63/25/3 62/24/3
f 28/11/3 25/12/3 26/13/3 27/14/3
f 20/5/5 19/6/5 17/7/5 18/8/5
f 65/20/1 68/19/1 66/27/1 67/28/1
f 36/11/2 33/12/2 34/13/2 35/14/2
f 68/19/1 72/1/1 70/4/1 66/27/1
f 40/29/1 37/30/1 38/31/1 39/32/1
f 75/16/1 78/33/1 77/34/1 71/17/1
f 77/34/1 79/35/1 76/2/1 72/1/1
f 78/33/1 80/36/1 79/35/1 77/34/1
