# Blender 5.0.1
# www.blender.org
mtllib BP_EndRod_unlit.mtl
o SM_EndRod.001
v -12.500000 -12.500000 -0.000000
v -12.500000 12.500000 0.000000
v 0.000000 -12.500000 -0.000000
v 0.000000 12.500000 0.000000
v -12.500000 12.500000 6.250000
v 0.000000 -12.500000 6.250000
v 0.000000 12.500000 6.250000
v -12.500000 -12.500000 6.250000
v -12.500000 -12.500000 6.250000
v 0.000000 -12.500000 -0.000000
v 0.000000 -12.500000 6.250000
v -12.500000 -12.500000 -0.000000
v 12.500000 12.500000 6.250000
v 12.500000 -12.500000 6.250000
v 12.500000 -12.500000 -0.000000
v 12.500000 12.500000 0.000000
v 12.500000 12.500000 6.250000
v 0.000000 12.500000 0.000000
v 0.000000 12.500000 6.250000
v 12.500000 12.500000 0.000000
v -12.500000 -12.500000 6.250000
v -12.500000 12.500000 6.250000
v -12.500000 12.500000 0.000000
v -12.500000 -12.500000 -0.000000
v 6.250000 6.249999 100.000000
v -6.250000 6.249999 100.000000
v -6.250000 -6.250001 100.000000
v 6.250000 -6.250001 100.000000
v -6.250000 -6.250001 100.000000
v -6.250000 -6.250001 6.250000
v 6.250000 -6.250001 100.000000
v 6.250000 -6.250001 6.250000
v 6.250000 -6.250001 100.000000
v 6.250000 -6.250001 6.250000
v 6.250000 6.249999 100.000000
v 6.250000 6.249999 6.250000
v 6.250000 6.249999 100.000000
v 6.250000 6.249999 6.250000
v -6.250000 6.249999 100.000000
v -6.250000 6.249999 6.250000
v -6.250000 6.249999 100.000000
v -6.250000 6.249999 6.250000
v -6.250000 -6.250001 100.000000
v -6.250000 -6.250001 6.250000
v 12.500000 12.500000 0.000000
v 12.500000 -12.500000 -0.000000
v 12.500000 -12.500000 6.250000
v 12.500000 12.500000 6.250000
v 12.500000 -12.500000 -0.000000
v 12.500000 -12.500000 6.250000
v -12.500000 12.500000 0.000000
v -12.500000 12.500000 6.250000
vn -0.0000 -0.0000 -1.0000
vn -0.0000 -0.0000 1.0000
vn -0.0000 -1.0000 -0.0000
vn 1.0000 -0.0000 -0.0000
vn -0.0000 1.0000 -0.0000
vn -1.0000 -0.0000 -0.0000
vt 0.000031 0.062500
vt 0.062500 0.062500
vt 0.062500 0.312500
vt 0.000031 0.312500
vt 1.000000 0.000000
vt 1.000000 0.937500
vt 0.937500 0.937500
vt 0.937500 0.000000
vt 0.059052 0.962036
vt 0.036102 0.962036
vt 0.036102 0.778442
vt 0.059052 0.778442
vt 0.058838 0.962036
vt 0.035889 0.962036
vt 0.035889 0.778442
vt 0.058838 0.778442
vt -0.000031 0.500000
vt 0.062500 0.500000
vt 0.062500 0.750000
vt -0.000031 0.750000
vt 0.059448 0.845947
vt 0.059448 0.937744
vt 0.036469 0.937744
vt 0.036469 0.845947
vt 0.058258 0.843994
vt 0.058258 0.935852
vt 0.035309 0.935852
vt 0.035309 0.843994
vt 0.062500 0.437500
vt 0.000031 0.437500
vt 0.058655 0.839111
vt 0.058655 0.930969
vt 0.035675 0.930969
vt 0.035675 0.839111
vt 0.058228 0.844238
vt 0.058228 0.936035
vt 0.035278 0.936035
vt 0.035278 0.844238
s 1
usemtl MI_PurpurLamp
f 6/1/2 47/2/2 48/3/2 7/4/2
f 32/5/3 31/6/3 29/7/3 30/8/3
f 16/9/4 13/10/4 14/11/4 15/12/4
f 4/4/1 3/1/1 1/2/1 2/3/1
f 24/13/6 21/14/6 22/15/6 23/16/6
f 8/17/2 6/18/2 7/19/2 5/20/2
f 10/21/3 49/22/3 50/23/3 11/24/3
f 12/25/3 10/26/3 11/27/3 9/28/3
f 28/3/2 25/29/2 26/30/2 27/4/2
f 36/5/4 35/6/4 33/7/4 34/8/4
f 20/31/5 18/32/5 19/33/5 17/34/5
f 44/5/6 43/6/6 41/7/6 42/8/6
f 40/5/5 39/6/5 37/7/5 38/8/5
f 4/19/1 45/20/1 46/17/1 3/18/1
f 18/35/5 51/36/5 52/37/5 19/38/5
