# Blender 5.0.1
# www.blender.org
mtllib BP_End_ArenaGate_5.mtl
o SK_End_ArenaGate_5.001
v -200.625015 -11.774705 129.333817
v -200.625015 13.225308 129.333817
v -200.625015 13.225308 254.333878
v -200.625015 -11.774705 254.333878
v -50.624939 -12.384261 114.410812
v -50.624908 12.615752 114.410812
v -25.624924 12.615737 114.410812
v -25.624939 -12.384275 114.410812
v -50.624939 -12.384261 314.410950
v -25.624939 -12.384275 314.410950
v -25.624924 12.615737 314.410950
v -50.624908 12.615752 314.410950
v -50.624939 -12.384261 114.410812
v -25.624939 -12.384275 114.410812
v -25.624939 -12.384275 314.410950
v -50.624939 -12.384261 314.410950
v -25.624939 -12.384275 114.410812
v -25.624924 12.615737 114.410812
v -25.624924 12.615737 314.410950
v -25.624939 -12.384275 314.410950
v -25.624924 12.615737 114.410812
v -50.624908 12.615752 114.410812
v -50.624908 12.615752 314.410950
v -25.624924 12.615737 314.410950
v -50.624908 12.615752 114.410812
v -50.624939 -12.384261 114.410812
v -50.624939 -12.384261 314.410950
v -50.624908 12.615752 314.410950
v 124.375122 -12.500007 142.332230
v 124.375122 12.500007 142.332230
v 149.375153 12.500007 142.332230
v 149.375153 -12.500007 142.332230
v 124.375122 -12.500007 267.332306
v 149.375153 -12.500007 267.332306
v 149.375153 12.500007 267.332306
v 124.375122 12.500007 267.332306
v 124.375122 -12.500007 142.332230
v 149.375153 -12.500007 142.332230
v 149.375153 -12.500007 267.332306
v 124.375122 -12.500007 267.332306
v 149.375153 -12.500007 142.332230
v 149.375153 12.500007 142.332230
v 149.375153 12.500007 267.332306
v 149.375153 -12.500007 267.332306
v 149.375153 12.500007 142.332230
v 124.375122 12.500007 142.332230
v 124.375122 12.500007 267.332306
v 149.375153 12.500007 267.332306
v 124.375122 12.500007 142.332230
v 124.375122 -12.500007 142.332230
v 124.375122 -12.500007 267.332306
v 124.375122 12.500007 267.332306
v 36.875122 -13.750025 205.987640
v 36.875122 11.249989 205.987640
v 61.875122 11.249991 205.987640
v 61.875122 -13.750022 205.987640
v 36.875122 -13.750025 305.987671
v 61.875122 -13.750022 305.987671
v 61.875122 11.249991 305.987671
v 36.875122 11.249989 305.987671
v 36.875122 -13.750025 205.987640
v 61.875122 -13.750022 205.987640
v 61.875122 -13.750022 305.987671
v 36.875122 -13.750025 305.987671
v 61.875122 -13.750022 205.987640
v 61.875122 11.249991 205.987640
v 61.875122 11.249991 305.987671
v 61.875122 -13.750022 305.987671
v 61.875122 11.249991 205.987640
v 36.875122 11.249989 205.987640
v 36.875122 11.249989 305.987671
v 61.875122 11.249991 305.987671
v 36.875122 11.249989 205.987640
v 36.875122 -13.750025 205.987640
v 36.875122 -13.750025 305.987671
v 36.875122 11.249989 305.987671
v 168.125214 -12.500007 107.622772
v 168.125214 12.500007 107.622772
v 193.125244 12.500007 107.622772
v 193.125244 -12.500007 107.622772
v 168.125214 -12.500007 182.622818
v 193.125244 -12.500007 182.622818
v 193.125244 12.500007 182.622818
v 168.125214 12.500007 182.622818
v 168.125214 -12.500007 107.622772
v 193.125244 -12.500007 107.622772
v 193.125244 -12.500007 182.622818
v 168.125214 -12.500007 182.622818
v 193.125244 -12.500007 107.622772
v 193.125244 12.500007 107.622772
v 193.125244 12.500007 182.622818
v 193.125244 -12.500007 182.622818
v 193.125244 12.500007 107.622772
v 168.125214 12.500007 107.622772
v 168.125214 12.500007 182.622818
v 193.125244 12.500007 182.622818
v 168.125214 12.500007 107.622772
v 168.125214 -12.500007 107.622772
v 168.125214 -12.500007 182.622818
v 168.125214 12.500007 182.622818
v -138.124969 -13.117315 126.998253
v -138.124969 11.882697 126.998253
v -113.124969 11.882690 126.998253
v -113.124969 -13.117322 126.998253
v -138.124969 -13.117315 176.998291
v -113.124969 -13.117322 176.998291
v -113.124969 11.882690 176.998291
v -138.124969 11.882697 176.998291
v -138.124969 -13.117315 126.998253
v -113.124969 -13.117322 126.998253
v -113.124969 -13.117322 176.998291
v -138.124969 -13.117315 176.998291
v -113.124969 -13.117322 126.998253
v -113.124969 11.882690 126.998253
v -113.124969 11.882690 176.998291
v -113.124969 -13.117322 176.998291
v -113.124969 11.882690 126.998253
v -138.124969 11.882697 126.998253
v -138.124969 11.882697 176.998291
v -113.124969 11.882690 176.998291
v -138.124969 11.882697 126.998253
v -138.124969 -13.117315 126.998253
v -138.124969 -13.117315 176.998291
v -138.124969 11.882697 176.998291
v 80.625153 -12.500007 63.255436
v 80.625153 12.500007 63.255436
v 105.625153 12.500007 63.255436
v 105.625153 -12.500007 63.255436
v 80.625153 -12.500007 263.255554
v 105.625153 -12.500007 263.255554
v 105.625153 12.500007 263.255554
v 80.625153 12.500007 263.255554
v 80.625153 -12.500007 63.255436
v 105.625153 -12.500007 63.255436
v 105.625153 -12.500007 263.255554
v 80.625153 -12.500007 263.255554
v 105.625153 -12.500007 63.255436
v 105.625153 12.500007 63.255436
v 105.625153 12.500007 263.255554
v 105.625153 -12.500007 263.255554
v 105.625153 12.500007 63.255436
v 80.625153 12.500007 63.255436
v 80.625153 12.500007 263.255554
v 105.625153 12.500007 263.255554
v 80.625153 12.500007 63.255436
v 80.625153 -12.500007 63.255436
v 80.625153 -12.500007 263.255554
v 80.625153 12.500007 263.255554
v 18.125107 11.666657 23.764431
v 18.125107 -13.333357 23.764431
v -6.874908 -13.333358 23.764431
v -6.874908 11.666656 23.764431
v 18.125107 11.666657 173.764511
v -6.874908 11.666656 173.764511
v -6.874908 -13.333358 173.764511
v 18.125107 -13.333357 173.764511
v 18.125107 11.666657 23.764431
v -6.874908 11.666656 23.764431
v -6.874908 11.666656 173.764511
v 18.125107 11.666657 173.764511
v -6.874908 11.666656 23.764431
v -6.874908 -13.333358 23.764431
v -6.874908 -13.333358 173.764511
v -6.874908 11.666656 173.764511
v -6.874908 -13.333358 23.764431
v 18.125107 -13.333357 23.764431
v 18.125107 -13.333357 173.764511
v -6.874908 -13.333358 173.764511
v 18.125107 -13.333357 23.764431
v 18.125107 11.666657 23.764431
v 18.125107 11.666657 173.764511
v 18.125107 -13.333357 173.764511
v -200.625015 13.225308 129.333817
v -200.625015 -11.774705 129.333817
v -225.625031 -11.774703 129.333817
v -225.625031 13.225311 129.333817
v -200.625015 13.225308 254.333878
v -225.625031 13.225311 254.333878
v -225.625031 -11.774703 254.333878
v -200.625015 -11.774705 254.333878
v -200.625015 13.225308 129.333817
v -225.625031 13.225311 129.333817
v -225.625031 13.225311 254.333878
v -200.625015 13.225308 254.333878
v -225.625031 13.225311 129.333817
v -225.625031 -11.774703 129.333817
v -225.625031 -11.774703 254.333878
v -225.625031 13.225311 254.333878
v -225.625031 -11.774703 129.333817
v -200.625015 -11.774705 129.333817
v -200.625015 -11.774705 254.333878
v -225.625031 -11.774703 254.333878
v 211.875183 -12.500007 53.655766
v 211.875183 12.500007 53.655766
v 236.875183 12.500007 53.655766
v 236.875183 -12.500007 53.655766
v 211.875183 -12.500007 153.655807
v 236.875183 -12.500007 153.655807
v 236.875183 12.500007 153.655807
v 211.875183 12.500007 153.655807
v 211.875183 -12.500007 53.655766
v 236.875183 -12.500007 53.655766
v 236.875183 -12.500007 153.655807
v 211.875183 -12.500007 153.655807
v 236.875183 -12.500007 53.655766
v 236.875183 12.500007 53.655766
v 236.875183 12.500007 153.655807
v 236.875183 -12.500007 153.655807
v 236.875183 12.500007 53.655766
v 211.875183 12.500007 53.655766
v 211.875183 12.500007 153.655807
v 236.875183 12.500007 153.655807
v 211.875183 12.500007 53.655766
v 211.875183 -12.500007 53.655766
v 211.875183 -12.500007 153.655807
v 211.875183 12.500007 153.655807
v -181.875000 -11.867279 69.948326
v -181.875000 13.132733 69.948326
v -156.874985 13.132730 69.948326
v -156.874985 -11.867284 69.948326
v -181.875000 -11.867279 144.948364
v -156.874985 -11.867284 144.948364
v -156.874985 13.132730 144.948364
v -181.875000 13.132733 144.948364
v -181.875000 -11.867279 69.948326
v -156.874985 -11.867284 69.948326
v -156.874985 -11.867284 144.948364
v -181.875000 -11.867279 144.948364
v -156.874985 -11.867284 69.948326
v -156.874985 13.132730 69.948326
v -156.874985 13.132730 144.948364
v -156.874985 -11.867284 144.948364
v -156.874985 13.132730 69.948326
v -181.875000 13.132733 69.948326
v -181.875000 13.132733 144.948364
v -156.874985 13.132730 144.948364
v -181.875000 13.132733 69.948326
v -181.875000 -11.867279 69.948326
v -181.875000 -11.867279 144.948364
v -181.875000 13.132733 144.948364
v -94.374954 -13.981527 147.973373
v -94.374954 11.018486 147.973373
v -69.374939 11.018486 147.973373
v -69.374939 -13.981527 147.973373
v -94.374954 -13.981527 247.973434
v -69.374939 -13.981527 247.973434
v -69.374939 11.018486 247.973434
v -94.374954 11.018486 247.973434
v -94.374954 -13.981527 147.973373
v -69.374939 -13.981527 147.973373
v -69.374939 -13.981527 247.973434
v -94.374954 -13.981527 247.973434
v -69.374939 -13.981527 147.973373
v -69.374939 11.018486 147.973373
v -69.374939 11.018486 247.973434
v -69.374939 -13.981527 247.973434
v -69.374939 11.018486 147.973373
v -94.374954 11.018486 147.973373
v -94.374954 11.018486 247.973434
v -69.374939 11.018486 247.973434
v -94.374954 11.018486 147.973373
v -94.374954 -13.981527 147.973373
v -94.374954 -13.981527 247.973434
v -94.374954 11.018486 247.973434
v -235.000000 -18.750011 2.000000
v -134.999939 -18.750008 2.000000
v -235.000000 18.750008 2.000000
v -134.999939 18.750011 2.000000
v -134.999939 -18.750011 2.000000
v -34.999893 -18.750008 2.000000
v -134.999939 18.750008 2.000000
v -34.999893 18.750011 2.000000
v -34.999893 -18.750011 2.000000
v 65.000153 -18.750008 2.000000
v -34.999893 18.750008 2.000000
v 65.000153 18.750011 2.000000
v 65.000153 -18.750011 2.000000
v 165.000214 -18.750008 2.000000
v 65.000153 18.750008 2.000000
v 165.000214 18.750011 2.000000
v 165.000183 -18.750011 2.000000
v 265.000214 -18.750008 2.000000
v 165.000183 18.750008 2.000000
v 265.000214 18.750011 2.000000
vn 1.0000 -0.0000 -0.0000
vn -0.0000 -0.0000 -1.0000
vn -0.0000 -0.0000 1.0000
vn -0.0000 -1.0000 -0.0000
vn -0.0000 1.0000 -0.0000
vn -1.0000 -0.0000 -0.0000
vt 0.281250 0.999969
vt 0.156250 0.999969
vt 0.156250 0.000000
vt 0.281250 0.000000
vt 0.312500 0.843750
vt 0.437500 0.843750
vt 0.437500 0.968750
vt 0.312500 0.968750
vt 0.125000 0.562500
vt 0.000031 0.562500
vt 0.000031 0.062500
vt 0.125000 0.062500
vt 0.000031 0.343750
vt 0.125000 0.343750
vt 0.125000 0.093750
vt 0.000031 0.093750
vt 0.468750 0.218750
vt 0.468750 0.031250
vt 0.968750 0.031250
vt 0.968750 0.218750
vt 0.000031 0.999969
vt 0.125000 0.999969
vt 0.125000 0.375000
vt 0.000031 0.375000
vt 0.156250 1.593750
vt 0.281250 1.593750
vt 0.281250 0.843750
vt 0.156250 0.843750
vt 0.281250 0.375000
vt 0.156250 0.375000
vt 0.156250 0.593750
vt 0.281250 0.593750
vt 0.281250 0.218750
vt 0.156250 0.218750
vt 0.125000 0.000000
vt 0.000031 0.000000
vt 0.125000 0.593750
vt 0.000031 0.593750
vt 0.000031 0.218750
vt 0.125000 0.218750
vt 0.281250 0.562500
vt 0.156250 0.562500
vt 0.156250 0.062500
vt 0.281250 0.062500
s 1
usemtl MI_End_ArenaGate
f 135/1/4 136/2/4 133/3/4 134/4/4
f 11/5/3 12/6/3 9/7/3 10/8/3
f 223/7/3 224/8/3 221/5/3 222/6/3
f 63/9/4 64/10/4 61/11/4 62/12/4
f 127/8/2 128/5/2 125/6/2 126/7/2
f 123/13/6 124/14/6 121/15/6 122/16/6
f 147/2/6 148/1/6 145/4/6 146/3/6
f 247/7/3 248/8/3 245/5/3 246/6/3
f 71/9/5 72/10/5 69/11/5 70/12/5
f 270/17/3 272/18/3 271/19/3 269/20/3
f 47/21/5 48/22/5 45/23/5 46/24/5
f 259/9/5 260/10/5 257/11/5 258/12/5
f 171/25/1 172/26/1 169/27/1 170/28/1
f 274/17/3 276/18/3 275/19/3 273/20/3
f 55/8/2 56/5/2 53/6/2 54/7/2
f 139/2/1 140/1/1 137/4/1 138/3/1
f 183/2/5 184/1/5 181/29/5 182/30/5
f 3/1/1 4/2/1 1/30/1 2/29/1
f 143/1/5 144/2/5 141/3/5 142/4/5
f 75/10/6 76/9/6 73/12/6 74/11/6
f 235/31/5 236/32/5 233/33/5 234/34/5
f 278/17/3 280/18/3 279/19/3 277/20/3
f 163/25/6 164/26/6 161/27/6 162/28/6
f 199/7/3 200/8/3 197/5/3 198/6/3
f 111/14/4 112/13/4 109/16/4 110/15/4
f 107/6/3 108/7/3 105/8/3 106/5/3
f 7/8/2 8/5/2 5/6/2 6/7/2
f 251/9/4 252/10/4 249/11/4 250/12/4
f 19/21/1 20/22/1 17/35/1 18/36/1
f 43/22/1 44/21/1 41/24/1 42/23/1
f 119/14/5 120/13/5 117/16/5 118/15/5
f 67/10/1 68/9/1 65/12/1 66/11/1
f 151/8/2 152/5/2 149/6/2 150/7/2
f 15/22/4 16/21/4 13/36/4 14/35/4
f 51/22/6 52/21/6 49/24/6 50/23/6
f 131/5/3 132/6/3 129/7/3 130/8/3
f 39/21/4 40/22/4 37/23/4 38/24/4
f 35/5/3 36/6/3 33/7/3 34/8/3
f 167/26/4 168/25/4 165/28/4 166/27/4
f 83/7/3 84/8/3 81/5/3 82/6/3
f 155/8/3 156/5/3 153/6/3 154/7/3
f 31/8/2 32/5/2 29/6/2 30/7/2
f 159/26/5 160/25/5 157/28/5 158/27/5
f 59/7/3 60/8/3 57/5/3 58/6/3
f 175/8/2 176/5/2 173/6/2 174/7/2
f 263/10/6 264/9/6 261/12/6 262/11/6
f 91/37/1 92/38/1 89/39/1 90/40/1
f 203/41/4 204/42/4 201/43/4 202/44/4
f 187/1/6 188/2/6 185/30/6 186/29/6
f 195/8/2 196/5/2 193/6/2 194/7/2
f 239/32/6 240/31/6 237/34/6 238/33/6
f 191/2/4 192/1/4 189/29/4 190/30/4
f 95/38/5 96/37/5 93/40/5 94/39/5
f 179/5/3 180/6/3 177/7/3 178/8/3
f 219/8/2 220/5/2 217/6/2 218/7/2
f 211/41/5 212/42/5 209/43/5 210/44/5
f 99/37/6 100/38/6 97/39/6 98/40/6
f 227/31/4 228/32/4 225/33/4 226/34/4
f 243/8/2 244/5/2 241/6/2 242/7/2
f 215/42/6 216/41/6 213/44/6 214/43/6
f 207/42/1 208/41/1 205/44/1 206/43/1
f 115/13/1 116/14/1 113/15/1 114/16/1
f 87/38/4 88/37/4 85/40/4 86/39/4
f 79/8/2 80/5/2 77/6/2 78/7/2
f 23/22/5 24/21/5 21/36/5 22/35/5
f 231/32/1 232/31/1 229/34/1 230/33/1
f 266/17/3 268/18/3 267/19/3 265/20/3
f 103/8/2 104/5/2 101/6/2 102/7/2
f 27/21/6 28/22/6 25/35/6 26/36/6
f 255/10/1 256/9/1 253/12/1 254/11/1
f 282/17/3 284/18/3 283/19/3 281/20/3
