# Blender 5.0.1
# www.blender.org
mtllib BP_EndLampBlock.mtl
o SM_EndGlass_1x1.001
v 50.000000 -50.000000 -0.000000
v -50.000000 -50.000000 -0.000000
v 50.000000 50.000000 0.000000
v -50.000000 50.000000 0.000000
v 50.000000 50.000000 100.000000
v -50.000000 50.000000 100.000000
v -50.000000 -50.000000 100.000000
v 50.000000 -50.000000 100.000000
v 50.000000 -50.000000 100.000000
v -50.000000 -50.000000 100.000000
v -50.000000 -50.000000 -0.000000
v 50.000000 -50.000000 -0.000000
v 50.000000 50.000000 100.000000
v 50.000000 -50.000000 100.000000
v 50.000000 -50.000000 -0.000000
v 50.000000 50.000000 0.000000
v -50.000000 50.000000 100.000000
v 50.000000 50.000000 100.000000
v 50.000000 50.000000 0.000000
v -50.000000 50.000000 0.000000
v -50.000000 -50.000000 100.000000
v -50.000000 50.000000 100.000000
v -50.000000 50.000000 0.000000
v -50.000000 -50.000000 -0.000000
vn -0.0000 -0.0000 -1.0000
vn -0.0000 -0.0000 1.0000
vn -0.0000 -1.0000 -0.0000
vn 1.0000 -0.0000 -0.0000
vn -0.0000 1.0000 -0.0000
vn -1.0000 -0.0000 -0.0000
vt 1.000000 0.000000
vt 1.000000 0.999969
vt 0.000031 0.999969
vt 0.000031 0.000000
s 1
usemtl M_EndGlass
f 20/1/5 17/2/5 18/3/5 19/4/5
f 12/1/3 9/2/3 10/3/3 11/4/3
f 2/1/1 4/2/1 3/3/1 1/4/1
f 16/1/4 13/2/4 14/3/4 15/4/4
f 8/1/2 5/2/2 6/3/2 7/4/2
f 24/1/6 21/2/6 22/3/6 23/4/6
