# Blender 5.0.1
# www.blender.org
mtllib BP_End_Banner_2xShort.mtl
o SM_WPBannerShort.001
v -1.250000 10.000000 10.615781
v 98.750000 10.000024 -89.692101
v 98.750000 10.000000 10.615781
v -1.250000 10.000024 -89.692108
v -101.250000 10.000000 10.615781
v 98.750000 10.000048 -189.999985
v -101.250000 10.000024 -89.692116
v -1.250000 10.000048 -189.999985
v -101.250000 10.000048 -190.000015
v -1.250000 10.000072 -290.307861
v -101.250000 10.000072 -290.307861
v -101.250000 10.000095 -390.615753
v 98.750000 10.000072 -290.307861
v -1.250000 10.000095 -390.615753
v 98.750000 10.000095 -390.615753
vn -0.0000 -1.0000 -0.0000
vt 0.625000 0.125488
vt 0.625000 0.250977
vt 0.500000 0.250977
vt 0.500000 0.125488
vt 0.625000 0.376465
vt 0.500000 0.376465
vt 0.625000 0.501709
vt 0.500000 0.501709
vt 0.375000 0.125488
vt 0.375000 0.250977
vt 0.375000 0.376465
vt 0.375000 0.501709
vt 0.500000 0.000000
vt 0.375000 0.000000
vt 0.625000 0.000000
s 1
usemtl WorldGridMaterial
f 13/1/1 6/2/1 8/3/1 10/4/1
f 8/3/1 6/2/1 2/5/1 4/6/1
f 4/6/1 2/5/1 3/7/1 1/8/1
f 11/9/1 10/4/1 8/3/1 9/10/1
f 9/10/1 8/3/1 4/6/1 7/11/1
f 7/11/1 4/6/1 1/8/1 5/12/1
f 14/13/1 10/4/1 11/9/1 12/14/1
f 15/15/1 13/1/1 10/4/1 14/13/1
