# Blender 5.0.1
# www.blender.org
mtllib BP_EndGlowPlane_teal.mtl
o SM_RadialDepth.001
v -2771.638184 1148.050293 -0.000037
v -0.000238 0.000000 0.000000
v -2121.320068 2121.320068 -0.000069
v -2999.999756 -0.000131 0.000000
v -1148.050293 2771.638184 -0.000090
v -2771.638184 -1148.050415 0.000037
v 0.000000 2999.999756 -0.000098
v -2121.320068 -2121.320068 0.000069
v 1148.048828 2771.639160 -0.000090
v -1148.050415 -2771.638184 0.000090
v 2121.319336 2121.320801 -0.000069
v -0.000453 -2999.999756 0.000098
v 2771.638184 1148.050659 -0.000037
v 1148.049561 -2771.638428 0.000090
v 2999.999756 0.000036 -0.000000
v 2121.319580 -2121.320801 0.000069
v 2771.638184 -1148.050659 0.000037
vn -0.0000 -0.0000 1.0000
vt 0.157715 0.842285
vt 0.052887 0.685303
vt 0.500000 0.500000
vt 0.016037 0.500000
vt 0.314697 0.947113
vt 0.052887 0.314941
vt 0.500000 0.983963
vt 0.157715 0.158203
vt 0.685059 0.947113
vt 0.314697 0.053223
vt 0.841797 0.842285
vt 0.500000 0.016113
vt 0.946777 0.685303
vt 0.685059 0.053223
vt 0.983887 0.500000
vt 0.841797 0.158203
vt 0.946777 0.314941
s 1
usemtl WorldGridMaterial
f 3/1/1 1/2/1 2/3/1
f 1/2/1 4/4/1 2/3/1
f 5/5/1 3/1/1 2/3/1
f 4/4/1 6/6/1 2/3/1
f 7/7/1 5/5/1 2/3/1
f 6/6/1 8/8/1 2/3/1
f 9/9/1 7/7/1 2/3/1
f 8/8/1 10/10/1 2/3/1
f 11/11/1 9/9/1 2/3/1
f 10/10/1 12/12/1 2/3/1
f 13/13/1 11/11/1 2/3/1
f 12/12/1 14/14/1 2/3/1
f 15/15/1 13/13/1 2/3/1
f 14/14/1 16/16/1 2/3/1
f 17/17/1 15/15/1 2/3/1
f 16/16/1 17/17/1 2/3/1
