# Blender 5.0.1
# www.blender.org
mtllib BP_End_Pillar.mtl
o SM_End_Pillar.001
v -349.904358 150.000000 25.052406
v -349.904358 249.834167 25.052406
v -387.500000 150.000000 25.052406
v -387.500000 249.834167 25.052406
v 349.854919 150.000000 25.052406
v 349.854919 50.000000 25.052406
v 387.500000 50.000000 25.052406
v 387.500000 150.000000 25.052406
v 387.500000 -249.759628 25.052406
v 387.500000 -150.000000 25.052406
v 349.854919 -249.759628 25.052406
v 349.854919 -150.000000 25.052406
v -387.500000 -150.000000 25.052406
v -387.500000 -249.875992 25.052406
v -349.904358 -249.875992 25.052406
v -349.904358 -150.000000 25.052406
v 349.854919 -249.759628 25.052406
v 349.854919 -150.000000 0.000000
v 349.854919 -249.759628 0.000000
v 349.854919 -150.000000 25.052406
v 150.000000 -349.919891 0.000000
v 50.000000 -349.919891 0.000000
v 50.000000 -349.919891 25.052406
v 150.000000 -349.919891 25.052406
v -150.000000 -349.919891 0.000000
v -249.851364 -349.919891 0.000000
v -249.851364 -349.919891 25.052406
v -150.000000 -349.919891 25.052406
v -349.904358 -249.875992 25.052406
v -349.904358 -150.000000 0.000000
v -349.904358 -150.000000 25.052406
v -349.904358 -249.875992 0.000000
v -349.904358 150.000000 -0.000000
v -349.904358 249.834167 25.052406
v -349.904358 150.000000 25.052406
v -349.904358 249.834167 -0.000000
v -49.999992 349.801147 -0.000000
v 50.000000 349.801147 25.052406
v -49.999992 349.801147 25.052406
v 50.000000 349.801147 -0.000000
v 150.000000 349.801147 25.052406
v 249.733353 349.801147 -0.000000
v 249.733353 349.801147 25.052406
v 150.000000 349.801147 -0.000000
v 349.854919 50.000000 25.052406
v 349.854919 150.000000 25.052406
v 349.854919 50.000000 0.000000
v 349.854919 150.000000 -0.000000
v 150.000000 -349.919891 25.052406
v 50.000000 -349.919891 25.052406
v 149.999985 -387.500000 25.052406
v 50.000000 -387.500000 25.052406
v -249.851334 -387.500000 25.052404
v -149.999985 -387.500000 25.052404
v -150.000000 -349.919891 25.052406
v -249.851364 -349.919891 25.052406
v 349.854919 249.725510 25.052406
v 387.500000 249.725510 25.052406
v 349.854919 249.725510 25.052406
v 349.854919 249.725510 -0.000000
v 387.500000 -50.000000 25.052406
v 349.854919 -50.000000 25.052406
v 349.854919 -50.000000 25.052406
v 349.854919 -50.000000 0.000000
v -149.999985 349.801147 25.052406
v -249.783173 349.801147 -0.000000
v -149.999985 349.801147 -0.000000
v -249.783173 349.801147 25.052406
v -50.000000 -387.500000 25.052406
v -50.000015 -349.919891 25.052406
v -50.000015 -349.919891 25.052406
v -50.000015 -349.919891 0.000000
v -349.904358 -50.000015 0.000000
v -349.904358 50.000000 25.052406
v -349.904358 -50.000015 25.052406
v -349.904358 50.000000 0.000000
v -349.904358 -50.000015 25.052406
v -349.904358 50.000000 25.052406
v -387.500000 -50.000015 25.052406
v -387.500000 50.000000 25.052406
v 249.715393 -349.919891 25.052406
v 249.715363 -387.500000 25.052404
v 249.715393 -349.919891 25.052406
v 249.715393 -349.919891 0.000000
v -149.999985 349.801147 25.052406
v -249.783142 387.500000 25.052404
v -249.783173 349.801147 25.052406
v -149.999969 387.500000 25.052406
v -49.999992 349.801147 25.052406
v -49.999981 387.500000 25.052406
v 50.000000 349.801147 25.052406
v 50.000000 387.500000 25.052406
v 149.999985 387.500000 25.052404
v 150.000000 349.801147 25.052406
v 249.733353 349.801147 25.052406
v 249.733322 387.500000 25.052404
v 387.500000 -287.500000 25.052406
v 349.854919 -287.500031 25.052406
v 287.500000 -249.759628 25.052406
v 287.500000 -287.500031 25.052406
v -249.851364 -287.500031 25.052406
v -249.851364 -249.875992 25.052406
v -287.500000 -287.500031 25.052406
v -287.500000 -249.875992 25.052406
v -349.904358 -287.500031 25.052406
v -387.500000 -287.500000 25.052406
v 387.500000 287.500000 25.052406
v 349.854919 287.500031 25.052406
v 287.500000 249.725510 25.052406
v 287.500000 287.500031 25.052406
v 249.733353 249.725510 25.052406
v 249.733353 287.500031 25.052406
v -287.500000 -387.500000 25.052402
v -287.500000 -349.919891 25.052406
v -287.500000 249.834167 25.052406
v -287.500000 287.500031 25.052406
v -349.904358 287.500031 25.052406
v -387.500000 287.500000 25.052406
v -249.783173 249.834167 25.052406
v -249.783173 287.500031 25.052406
v -287.500000 349.801147 25.052406
v -287.500000 387.500000 25.052402
v 287.500000 349.801147 25.052406
v 287.500000 387.500000 25.052402
v 349.854919 -249.759628 0.000000
v 287.500000 -249.759628 25.052406
v 349.854919 -249.759628 25.052406
v 287.500000 -249.759628 0.000000
v 249.715393 -249.759628 25.052406
v 249.715393 -249.759628 0.000000
v 249.733353 249.725510 -0.000000
v 287.500000 249.725510 25.052406
v 249.733353 249.725510 25.052406
v 287.500000 249.725510 -0.000000
v 349.854919 249.725510 25.052406
v 349.854919 249.725510 -0.000000
v 249.715393 -287.500031 0.000000
v 249.715393 -249.759628 25.052406
v 249.715393 -249.759628 0.000000
v 249.715393 -287.500031 25.052406
v 249.715393 -349.919891 25.052406
v 249.715393 -349.919891 0.000000
v -249.851364 -249.875992 25.052406
v -249.851364 -287.500031 0.000000
v -249.851364 -249.875992 0.000000
v -249.851364 -287.500031 25.052406
v -249.851364 -349.919891 25.052406
v -249.851364 -349.919891 0.000000
v -287.500000 -249.875992 0.000000
v -249.851364 -249.875992 25.052406
v -249.851364 -249.875992 0.000000
v -287.500000 -249.875992 25.052406
v -349.904358 -249.875992 25.052406
v -349.904358 -249.875992 0.000000
v -287.500000 249.834167 25.052406
v -349.904358 249.834167 25.052406
v -349.904358 249.834167 -0.000000
v -287.500000 249.834167 -0.000000
v -249.783173 249.834167 -0.000000
v -249.783173 249.834167 25.052406
v -249.783173 287.500031 25.052406
v -249.783173 349.801147 -0.000000
v -249.783173 349.801147 25.052406
v -249.783173 287.500031 -0.000000
v -249.783173 249.834167 -0.000000
v -249.783173 249.834167 25.052406
v 249.733353 249.725510 25.052406
v 249.733353 287.500031 25.052406
v 249.733353 249.725510 -0.000000
v 249.733353 287.500031 -0.000000
v 249.733353 349.801147 -0.000000
v 249.733353 349.801147 25.052406
v 249.715393 -249.759628 25.052406
v 249.715393 -287.500031 25.052406
v 287.500000 -349.919891 25.052406
v 287.500000 -387.500000 25.052402
v 350.000000 -450.000061 24.999996
v 350.000000 -350.000092 24.999998
v 250.000000 -350.000122 25.000000
v 250.000000 -250.000000 25.000000
v -350.000000 -350.000092 24.999998
v -250.000000 -350.000122 25.000000
v -250.000000 -250.000000 25.000000
v -350.000000 -450.000061 24.999996
v -350.000000 450.000061 24.999996
v -350.000000 350.000092 24.999998
v -250.000000 350.000122 25.000000
v -250.000000 250.000000 25.000000
v 350.000000 350.000092 24.999998
v 250.000000 350.000122 25.000000
v 250.000000 250.000000 25.000000
v 350.000000 450.000061 24.999996
v 350.000000 -250.000000 25.000000
v 450.000000 -350.000000 25.000000
v 350.000000 -350.000092 24.999998
v 350.000000 -450.000061 24.999996
v 350.000000 -450.000061 0.000000
v 350.000000 -350.000000 0.000000
v 350.000000 -350.000000 0.000000
v 450.000000 -350.000000 0.000000
v 350.000000 -350.000092 24.999998
v 450.000000 -350.000000 25.000000
v -350.000000 -250.000000 25.000000
v -450.000000 -350.000000 25.000000
v -350.000000 -350.000000 0.000000
v -350.000000 -450.000061 0.000000
v -350.000000 -350.000092 24.999998
v -350.000000 -450.000061 24.999996
v -350.000000 -350.000092 24.999998
v -450.000000 -350.000000 25.000000
v -450.000000 -350.000000 0.000000
v -350.000000 -350.000000 0.000000
v -350.000000 250.000000 25.000000
v -450.000000 350.000000 25.000000
v -350.000000 350.000092 24.999998
v -350.000000 450.000061 24.999996
v -350.000000 450.000061 -0.000000
v -350.000000 350.000000 -0.000000
v -350.000000 350.000092 24.999998
v -450.000000 350.000000 -0.000000
v -450.000000 350.000000 25.000000
v -350.000000 350.000000 -0.000000
v 350.000000 250.000000 25.000000
v 450.000000 350.000000 25.000000
v 350.000000 350.000092 24.999998
v 350.000000 450.000061 -0.000000
v 350.000000 450.000061 24.999996
v 350.000000 350.000000 -0.000000
v 350.000000 350.000092 24.999998
v 450.000000 350.000000 25.000000
v 450.000000 350.000000 -0.000000
v 350.000000 350.000000 -0.000000
v 350.000000 0.000000 25.000000
v 350.000000 -250.000000 0.000000
v 350.000000 -250.000000 25.000000
v 350.000000 0.000000 0.000000
v 250.000000 -250.000000 25.000000
v 350.000000 -250.000000 25.000000
v 350.000000 -250.000000 0.000000
v 250.000000 -250.000000 0.000000
v 250.000000 -250.000000 25.000000
v 250.000000 -350.000122 0.000000
v 250.000000 -350.000122 25.000000
v 250.000000 -250.000000 0.000000
v 0.000000 -350.000122 25.000000
v 250.000000 -350.000122 25.000000
v 250.000000 -350.000122 0.000000
v 0.000000 -350.000122 0.000000
v -250.000000 -350.000122 25.000000
v -250.000000 -350.000122 0.000000
v -250.000000 -250.000000 25.000000
v -250.000000 -350.000122 25.000000
v -250.000000 -350.000122 0.000000
v -250.000000 -250.000000 0.000000
v -350.000000 -250.000000 25.000000
v -250.000000 -250.000000 25.000000
v -250.000000 -250.000000 0.000000
v -350.000000 -250.000000 0.000000
v -350.000000 0.000000 25.000000
v -350.000000 -250.000000 25.000000
v -350.000000 -250.000000 0.000000
v -350.000000 0.000000 0.000000
v -350.000000 250.000000 25.000000
v -350.000000 250.000000 -0.000000
v -250.000000 250.000000 25.000000
v -350.000000 250.000000 25.000000
v -350.000000 250.000000 -0.000000
v -250.000000 250.000000 -0.000000
v -250.000000 350.000122 25.000000
v -250.000000 250.000000 25.000000
v -250.000000 250.000000 -0.000000
v -250.000000 350.000122 -0.000000
v 0.000000 350.000122 25.000000
v -250.000000 350.000122 25.000000
v -250.000000 350.000122 -0.000000
v 0.000000 350.000122 -0.000000
v 250.000000 350.000122 25.000000
v 250.000000 350.000122 -0.000000
v 250.000000 350.000122 25.000000
v 250.000000 250.000000 -0.000000
v 250.000000 250.000000 25.000000
v 250.000000 350.000122 -0.000000
v 350.000000 250.000000 25.000000
v 250.000000 250.000000 25.000000
v 250.000000 250.000000 -0.000000
v 350.000000 250.000000 -0.000000
v 350.000000 250.000000 25.000000
v 350.000000 250.000000 -0.000000
v -24.999908 24.999998 350.000000
v 25.000097 24.999998 350.000000
v 25.000097 50.000000 350.000000
v -24.999908 50.000000 350.000000
v -24.999908 -25.000000 325.000000
v 25.000097 -25.000000 325.000000
v 25.000097 24.999998 325.000000
v -24.999908 24.999998 325.000000
v -24.999908 -50.000000 350.000000
v 25.000097 -50.000000 350.000000
v 25.000097 -25.000000 350.000000
v -24.999908 -25.000000 350.000000
v 25.000097 -25.000000 350.000000
v 25.000097 24.999998 350.000000
v 25.000097 -25.000000 325.000000
v 25.000097 24.999998 325.000000
v -24.999908 -25.000000 325.000000
v 25.000097 -25.000000 350.000000
v 25.000097 -25.000000 325.000000
v -24.999908 -25.000000 350.000000
v -24.999908 -25.000000 325.000000
v -24.999908 24.999998 325.000000
v -24.999908 -25.000000 350.000000
v -24.999908 24.999998 350.000000
v -24.999908 24.999998 325.000000
v 25.000097 24.999998 325.000000
v -24.999908 24.999998 350.000000
v 25.000097 24.999998 350.000000
v 249.999939 -450.000061 24.999996
v 0.000000 -350.000122 25.000000
v 0.000000 -450.000061 25.000000
v -249.999939 450.000061 24.999996
v 0.000000 350.000122 25.000000
v 0.000000 450.000061 25.000000
v -49.999908 -50.000000 350.000000
v -49.999908 -25.000000 350.000000
v -49.999908 24.999998 350.000000
v -49.999908 50.000000 350.000000
v 50.000095 -50.000000 350.000000
v 50.000095 -25.000000 350.000000
v 50.000095 24.999998 350.000000
v 50.000095 50.000000 350.000000
v 450.000000 -250.000000 25.000000
v 450.000000 0.000000 25.000000
v 350.000000 0.000000 25.000000
v -450.000000 250.000000 25.000000
v -450.000000 0.000000 25.000000
v -350.000000 0.000000 25.000000
v 450.000000 250.000000 25.000000
v -450.000000 -250.000000 25.000000
v -249.999939 -450.000061 24.999996
v 249.999939 450.000061 24.999996
v 450.000000 -350.000000 0.000000
v 450.000000 -250.000000 25.000000
v 450.000000 -350.000000 25.000000
v 450.000000 -250.000000 0.000000
v 450.000000 0.000000 25.000000
v 450.000000 0.000000 0.000000
v 249.999939 -450.000061 24.999996
v 0.000000 -450.000061 25.000000
v 0.000000 -450.000061 0.000000
v 249.999939 -450.000061 0.000000
v 350.000000 -450.000061 24.999996
v 350.000000 -450.000061 0.000000
v -450.000000 -350.000000 25.000000
v -450.000000 -250.000000 25.000000
v -450.000000 -350.000000 0.000000
v -450.000000 -250.000000 0.000000
v -450.000000 0.000000 25.000000
v -450.000000 0.000000 0.000000
v -249.999939 -450.000061 24.999996
v -249.999939 -450.000061 0.000000
v -350.000000 -450.000061 24.999996
v -350.000000 -450.000061 0.000000
v -450.000000 250.000000 -0.000000
v -450.000000 350.000000 25.000000
v -450.000000 350.000000 -0.000000
v -450.000000 250.000000 25.000000
v -249.999939 450.000061 24.999996
v 0.000000 450.000061 25.000000
v 0.000000 450.000061 -0.000000
v -249.999939 450.000061 -0.000000
v -350.000000 450.000061 24.999996
v -350.000000 450.000061 -0.000000
v 450.000000 350.000000 25.000000
v 450.000000 250.000000 -0.000000
v 450.000000 350.000000 -0.000000
v 450.000000 250.000000 25.000000
v 249.999939 450.000061 24.999996
v 249.999939 450.000061 -0.000000
v 350.000000 450.000061 24.999996
v 350.000000 450.000061 -0.000000
v -49.999908 -50.000000 100.000000
v -49.999908 -25.000000 0.000000
v -49.999908 -50.000000 0.000000
v -49.999908 -25.000000 100.000000
v -49.999908 -50.000000 350.000000
v -49.999908 24.999998 0.000000
v -49.999908 -25.000000 350.000000
v -49.999908 24.999998 100.000000
v -49.999908 50.000000 -0.000000
v -49.999908 24.999998 350.000000
v -49.999908 50.000000 100.000000
v -49.999908 50.000000 350.000000
v 50.000095 50.000000 -0.000000
v 50.000095 50.000000 100.000000
v 50.000095 24.999998 0.000000
v 50.000095 24.999998 100.000000
v 50.000095 50.000000 350.000000
v 50.000095 -25.000000 0.000000
v 50.000095 24.999998 350.000000
v 50.000095 -25.000000 100.000000
v 50.000095 -50.000000 0.000000
v 50.000095 -25.000000 350.000000
v 50.000095 -50.000000 100.000000
v 50.000095 -50.000000 350.000000
v 50.000095 -50.000000 100.000000
v 25.000097 -50.000000 0.000000
v 50.000095 -50.000000 0.000000
v 25.000097 -50.000000 100.000000
v 50.000095 -50.000000 350.000000
v -24.999908 -50.000000 0.000000
v 25.000097 -50.000000 350.000000
v -49.999908 -50.000000 100.000000
v -49.999908 -50.000000 0.000000
v -24.999908 -50.000000 100.000000
v -24.999908 -50.000000 350.000000
v -49.999908 -50.000000 350.000000
v -24.999908 50.000000 350.000000
v -49.999908 50.000000 100.000000
v -49.999908 50.000000 350.000000
v -24.999908 50.000000 -0.000000
v -49.999908 50.000000 -0.000000
v -24.999908 50.000000 100.000000
v 25.000097 50.000000 350.000000
v 25.000097 50.000000 -0.000000
v 25.000097 50.000000 100.000000
v 50.000095 50.000000 350.000000
v 50.000095 50.000000 -0.000000
v 50.000095 50.000000 100.000000
vn -0.0000 -0.0000 1.0000
vn -1.0000 -0.0000 -0.0000
vn -0.0000 1.0000 -0.0000
vn 1.0000 -0.0000 -0.0000
vn -0.0000 -1.0000 -0.0000
vt -0.000843 0.000000
vt -0.000843 0.999969
vt 0.375000 0.999969
vt 0.375000 0.000000
vt 0.500000 0.375000
vt 0.500000 0.125000
vt 0.471680 0.125000
vt 0.471680 0.375000
vt 0.312500 0.812500
vt 0.687500 0.812622
vt 0.687500 1.187500
vt 0.312256 1.187378
vt 0.625000 0.000000
vt 0.625000 0.999969
vt 0.414062 0.000000
vt 0.414062 0.125000
vt 0.476562 0.125000
vt 0.476562 0.000000
vt 0.312256 0.375000
vt 0.687500 0.375000
vt 0.687500 0.999969
vt 0.312256 0.999969
vt 0.992188 0.250000
vt 0.960938 0.250000
vt 0.960938 0.000000
vt 0.992188 0.000000
vt 0.992188 0.875000
vt 0.960938 0.875000
vt 0.250000 0.046875
vt 0.281250 0.046875
vt 0.281250 0.109375
vt 0.250000 0.109375
vt 0.375000 0.625000
vt 0.625000 0.625000
vt 0.835938 0.250000
vt 0.804688 0.250000
vt 0.804688 0.875000
vt 0.835938 0.875000
vt 0.999512 0.000000
vt 0.999512 0.999969
vt 0.750000 0.999969
vt 0.750000 0.000000
vt 0.312256 0.187500
vt 0.687012 0.187988
vt 0.687012 0.812622
vt 0.312256 0.812500
vt 0.125000 0.375000
vt 0.093750 0.375000
vt 0.093750 0.999969
vt 0.125000 0.999969
vt 0.031250 0.375000
vt 0.000031 0.375000
vt 0.000031 0.999969
vt 0.031250 0.999969
vt 0.405518 0.375000
vt 0.405518 0.125000
vt 0.375000 0.125000
vt 0.375000 0.375000
vt 0.312500 0.625244
vt 0.312500 0.000000
vt 0.687500 0.000000
vt 0.687500 0.625244
vt 0.687500 -0.187500
vt 0.687500 0.187988
vt 0.312500 0.187988
vt 0.312500 -0.187500
vt 0.343750 0.046875
vt 0.343750 0.109375
vt 0.960938 0.250488
vt 0.835938 0.500000
vt 0.687012 1.187500
vt 0.250000 0.375000
vt 0.281250 0.375000
vt 0.281250 0.125000
vt 0.250000 0.125000
vt 0.312256 0.625244
vt 0.687012 0.625244
vt 0.687500 1.187378
vt 0.312500 1.187378
vt 0.312500 0.812622
vt 0.804688 0.500000
vt 0.687500 -0.186523
vt 0.312500 0.187500
vt 0.312256 0.625000
vt 0.687012 0.999969
vt 0.500000 0.999969
vt 0.471680 0.999969
vt 0.375000 0.046875
vt 0.375000 0.109375
vt 0.312256 0.000000
vt 0.687012 0.000000
vt 0.218750 0.109375
vt 0.218750 0.046875
vt 0.156250 0.046875
vt 0.156250 0.109375
vt 0.414062 0.062500
vt 0.476562 0.062500
vt 0.414062 0.062988
vt 0.476562 0.062988
vt 0.156250 0.375000
vt 0.156250 0.125000
vt 0.125000 0.125000
vt 0.218750 0.375000
vt 0.218750 0.125000
vt 0.405518 0.999969
vt 0.093750 0.125000
vt 0.031250 0.125000
vt 0.218750 0.999969
vt 0.250000 0.999969
vt 0.000031 0.125000
vt 0.343750 0.375000
vt 0.343750 0.999969
vt 0.156250 0.999969
vt 0.343750 0.125000
vt 0.281250 0.999969
s 1
usemtl M_EndVoidSpread_2
f 3/1/1 80/2/1 78/3/1 1/4/1
f 104/9/1 103/10/1 101/11/1 102/12/1
f 60/13/2 48/14/2 46/3/2 59/4/2
f 117/19/1 2/20/1 115/21/1 116/22/1
f 83/14/3 84/3/3 21/4/3 24/13/3
f 136/14/5 135/3/5 132/33/5 134/34/5
f 70/13/1 69/39/1 52/40/1 50/14/1
f 93/41/1 94/3/1 95/4/1 96/42/1
f 110/43/1 109/44/1 57/45/1 108/46/1
f 158/34/5 155/33/5 156/4/5 157/13/5
f 32/13/4 30/14/4 31/3/4 29/4/4
f 79/13/1 13/14/1 16/40/1 77/39/1
f 95/59/1 112/60/1 110/61/1 123/62/1
f 166/4/4 165/13/4 164/34/4 161/33/4
f 119/63/1 120/64/1 116/65/1 115/66/1
f 8/4/1 58/3/1 57/2/1 5/1/1
f 172/4/2 171/13/2 170/34/2 168/33/2
f 4/4/1 3/3/1 1/41/1 2/42/1
f 56/1/1 53/4/1 54/3/1 55/2/1
f 88/4/1 86/3/1 87/2/1 85/1/1
f 108/46/1 57/45/1 58/71/1 107/12/1
f 62/3/1 12/4/1 10/42/1 61/41/1
f 170/34/2 169/14/2 167/3/2 168/33/2
f 114/76/1 113/22/1 53/21/1 56/77/1
f 86/78/1 122/79/1 121/80/1 87/10/1
f 48/13/2 47/14/2 45/3/2 46/4/2
f 81/80/1 82/12/1 176/78/1 175/10/1
f 44/13/5 42/14/5 43/3/5 41/4/5
f 49/4/1 51/42/1 82/41/1 81/3/1
f 80/4/1 79/3/1 77/41/1 78/42/1
f 14/66/1 106/82/1 105/64/1 15/83/1
f 128/34/3 130/14/3 129/3/3 126/33/3
f 76/14/4 74/3/4 75/4/4 73/13/4
f 20/4/2 18/13/2 19/14/2 17/3/2
f 24/4/3 21/13/3 22/14/3 23/3/3
f 40/3/5 44/4/5 41/13/5 38/14/5
f 152/33/3 150/4/3 151/13/3 149/34/3
f 28/4/3 25/13/3 26/14/3 27/3/3
f 146/33/4 144/34/4 145/14/4 143/3/4
f 164/34/4 162/14/4 163/3/4 161/33/4
f 15/83/1 105/64/1 103/10/1 104/9/1
f 15/3/1 16/4/1 13/1/1 14/2/1
f 142/14/2 141/3/2 140/33/2 137/34/2
f 50/1/1 52/4/1 51/3/1 49/2/1
f 92/39/1 90/40/1 89/14/1 91/13/1
f 92/3/1 91/2/1 94/1/1 93/4/1
f 96/22/1 95/59/1 123/62/1 124/21/1
f 11/84/1 98/77/1 97/85/1 9/22/1
f 4/61/1 2/20/1 117/19/1 118/60/1
f 23/14/3 22/3/3 72/4/3 71/13/3
f 81/80/1 175/10/1 100/64/1 174/65/1
f 137/34/2 140/33/2 138/4/2 139/13/2
f 103/90/1 114/76/1 56/77/1 101/91/1
f 120/64/1 87/10/1 121/80/1 116/65/1
f 73/14/4 75/3/4 31/4/4 30/13/4
f 134/34/5 132/33/5 133/4/5 131/13/5
f 125/13/3 128/34/3 126/33/3 127/4/3
f 55/4/1 54/42/1 69/41/1 70/3/1
f 33/14/4 35/3/4 74/4/4 76/13/4
f 174/65/1 100/64/1 99/63/1 173/66/1
f 68/14/5 66/3/5 67/4/5 65/13/5
f 90/42/1 88/41/1 85/3/1 89/4/1
f 149/34/3 154/14/3 153/3/3 152/33/3
f 147/4/4 148/13/4 144/34/4 146/33/4
f 160/3/5 155/33/5 158/34/5 159/14/5
f 112/66/1 111/82/1 109/44/1 110/43/1
f 71/14/3 72/3/3 25/4/3 28/13/3
f 40/14/5 38/3/5 39/4/5 37/13/5
f 7/42/1 8/41/1 5/3/1 6/4/1
f 6/4/1 62/3/1 61/2/1 7/1/1
f 67/3/5 37/4/5 39/13/5 65/14/5
f 36/14/4 34/3/4 35/4/4 33/13/4
f 12/2/1 11/1/1 9/4/1 10/3/1
f 64/13/2 18/14/2 20/3/2 63/4/2
f 100/91/1 98/77/1 11/84/1 99/90/1
f 47/13/2 64/14/2 63/3/2 45/4/2
usemtl MI_Pillar_2
f 391/5/2 389/6/2 386/7/2 388/8/2
f 296/15/1 293/16/1 294/17/1 295/18/1
f 344/23/4 342/24/4 343/25/4 341/26/4
f 359/24/5 360/23/5 349/27/5 348/28/5
f 291/29/1 290/30/1 329/31/1 330/32/1
f 250/35/3 249/36/3 245/37/3 248/38/3
f 357/28/2 358/27/2 356/23/2 354/24/2
f 428/47/3 425/48/3 423/49/3 426/50/3
f 422/51/3 418/52/3 419/53/3 417/54/3
f 333/38/1 332/28/1 337/24/1 223/35/1
f 384/55/2 382/56/2 383/57/2 381/58/2
f 340/24/1 322/28/1 321/38/1 190/35/1
f 320/24/1 185/25/1 186/24/1 187/35/1
f 357/28/2 366/24/2 363/23/2 358/27/2
f 370/23/3 367/24/3 368/28/3 369/27/3
f 290/30/1 299/67/1 328/68/1 329/31/1
f 198/23/4 195/24/4 196/25/4 197/26/4
f 318/38/1 319/28/1 317/24/1 179/35/1
f 178/69/1 193/35/1 180/70/1 179/35/1
f 183/70/1 203/35/1 181/24/1 182/35/1
f 405/72/5 408/73/5 406/74/5 407/75/5
f 379/25/3 380/26/3 378/23/3 377/24/3
f 334/24/1 213/35/1 186/69/1 214/25/1
f 254/70/4 251/81/4 252/36/4 253/35/4
f 244/70/2 242/35/2 243/36/2 241/81/2
f 268/70/5 265/81/5 266/36/5 267/35/5
f 376/24/4 374/23/4 375/26/4 373/25/4
f 336/38/1 335/28/1 338/24/1 203/35/1
f 332/28/1 333/38/1 193/35/1 331/24/1
f 361/25/5 362/26/5 360/23/5 359/24/5
f 388/8/2 386/7/2 382/56/2 384/55/2
f 240/70/3 237/81/3 238/36/3 239/35/3
f 331/24/1 193/35/1 178/69/1 194/25/1
f 192/25/1 340/24/1 190/35/1 189/24/1
f 317/24/1 177/25/1 178/24/1 179/35/1
f 184/25/1 339/24/1 182/35/1 181/24/1
f 191/70/1 223/35/1 189/24/1 190/35/1
f 218/23/2 215/24/2 216/25/2 217/26/2
f 222/23/3 220/26/3 221/25/3 219/69/3
f 223/35/1 337/24/1 224/25/1 189/69/1
f 228/23/4 226/26/4 227/25/4 225/24/4
f 200/26/5 202/25/5 201/69/5 199/23/5
f 203/35/1 338/24/1 204/25/1 181/69/1
f 206/26/2 208/25/2 207/24/2 205/23/2
f 232/23/3 229/69/3 230/25/3 231/26/3
f 212/23/5 209/69/5 210/25/5 211/26/5
f 276/38/5 273/37/5 274/36/5 275/35/5
f 392/86/2 391/5/2 388/8/2 390/87/2
f 272/35/4 269/36/4 270/81/4 271/70/4
f 324/31/1 323/32/1 297/29/1 300/30/1
f 299/67/1 298/88/1 327/89/1 328/68/1
f 372/26/3 371/25/3 367/24/3 370/23/3
f 262/38/4 259/37/4 260/36/4 261/35/4
f 258/35/3 255/36/3 256/81/3 257/70/3
f 248/38/3 245/37/3 246/36/3 247/35/3
f 300/92/1 297/93/1 298/94/1 299/95/1
f 282/35/2 280/70/2 281/81/2 279/36/2
f 288/35/2 236/38/2 233/37/2 287/36/2
f 326/89/1 325/68/1 289/67/1 292/88/1
f 286/35/5 283/36/5 284/81/5 285/70/5
f 325/68/1 324/31/1 300/30/1 289/67/1
f 322/28/1 320/24/1 187/35/1 321/38/1
f 312/96/4 311/97/4 309/18/4 310/15/4
f 186/69/1 213/35/1 188/70/1 187/35/1
f 308/97/3 306/96/3 307/15/3 305/18/3
f 304/98/2 303/99/2 301/18/2 302/15/2
f 278/35/5 277/36/5 273/37/5 276/38/5
f 377/24/3 378/23/3 369/27/3 368/28/3
f 354/24/2 356/23/2 355/26/2 353/25/2
f 319/28/1 318/38/1 182/35/1 339/24/1
f 352/26/5 351/25/5 347/24/5 350/23/5
f 394/47/4 396/100/4 395/101/4 393/102/4
f 346/27/4 345/28/4 342/24/4 344/23/4
f 350/23/5 347/24/5 348/28/5 349/27/5
f 400/103/4 403/72/4 401/75/4 398/104/4
f 292/94/1 289/95/1 290/92/1 291/93/1
f 314/98/5 316/15/5 315/18/5 313/99/5
f 264/35/4 263/36/4 259/37/4 262/38/4
f 366/24/2 364/25/2 365/26/2 363/23/2
f 236/38/2 234/35/2 235/36/2 233/37/2
f 390/87/2 388/8/2 384/55/2 387/105/2
f 425/48/3 424/106/3 420/107/3 422/51/3
f 387/105/2 384/55/2 381/58/2 385/3/2
f 345/28/4 346/27/4 374/23/4 376/24/4
f 403/72/4 400/103/4 402/108/4 404/109/4
f 336/38/1 213/35/1 334/24/1 335/28/1
f 422/51/3 420/107/3 421/110/3 418/52/3
f 414/111/5 415/112/5 416/3/5 412/58/5
f 396/100/4 400/103/4 398/104/4 395/101/4
f 397/50/4 399/113/4 396/100/4 394/47/4
f 399/113/4 402/108/4 400/103/4 396/100/4
f 410/114/5 414/111/5 412/58/5 413/57/5
f 411/115/5 415/112/5 414/111/5 408/73/5
f 409/109/5 411/115/5 408/73/5 405/72/5
f 425/48/3 422/51/3 417/54/3 423/49/3
f 408/73/5 414/111/5 410/114/5 406/74/5
f 428/47/3 427/102/3 424/106/3 425/48/3
