# Blender 5.0.1
# www.blender.org
mtllib BP_EvilCandles_02.mtl
o SM_EvilCandles_02.001
v -35.128872 45.567348 50.000000
v -35.128872 45.567348 37.500000
v -35.128872 51.817348 37.500000
v -35.128872 51.817348 50.000000
v 14.001263 33.608494 68.750000
v 14.001263 33.608494 56.250000
v 14.001263 39.858494 56.250000
v 14.001263 39.858494 68.750000
v 21.875000 -75.437729 50.000000
v 21.875000 -75.437729 37.500000
v 21.875000 -69.187729 37.500000
v 21.875000 -69.187729 50.000000
v 43.750000 -22.312725 62.500000
v 43.750000 -22.312725 50.000000
v 43.750000 -16.062725 50.000000
v 43.750000 -16.062725 62.500000
v -31.250000 -34.812725 81.250000
v -31.250000 -34.812725 68.750000
v -31.250000 -28.562725 68.750000
v -31.250000 -28.562725 81.250000
v -44.503872 39.317348 37.500000
v -44.503872 39.317348 -0.000000
v -25.753872 39.317348 37.500000
v -25.753872 39.317348 -0.000000
v -44.503872 58.067348 -0.000000
v -44.503872 58.067348 37.500000
v -25.753872 58.067348 -0.000000
v -25.753872 58.067348 37.500000
v -35.128872 45.567348 50.000000
v -35.128872 51.817348 37.500000
v -35.128872 45.567348 37.500000
v -35.128872 51.817348 50.000000
v 4.626263 27.358494 56.250000
v 4.626263 27.358494 -0.000000
v 23.376263 27.358494 56.250000
v 23.376263 27.358494 -0.000000
v 4.626263 46.108494 -0.000000
v 4.626263 46.108494 56.250000
v 23.376263 46.108494 -0.000000
v 23.376263 46.108494 56.250000
v 14.001263 33.608494 68.750000
v 14.001263 39.858494 56.250000
v 14.001263 33.608494 56.250000
v 14.001263 39.858494 68.750000
v 12.500000 -81.687729 37.500000
v 12.500000 -81.687729 0.000000
v 31.250000 -81.687729 37.500000
v 31.250000 -81.687729 0.000000
v 12.500000 -62.937725 0.000000
v 12.500000 -62.937725 37.500000
v 31.250000 -62.937725 0.000000
v 31.250000 -62.937725 37.500000
v 21.875000 -75.437729 50.000000
v 21.875000 -69.187729 37.500000
v 21.875000 -75.437729 37.500000
v 21.875000 -69.187729 50.000000
v 31.250000 -31.687725 50.000000
v 31.250000 -31.687725 0.000000
v 56.250000 -31.687725 50.000000
v 56.250000 -31.687725 0.000000
v 31.250000 -6.687726 -0.000000
v 31.250000 -6.687726 50.000000
v 56.250000 -6.687726 -0.000000
v 56.250000 -6.687726 50.000000
v 43.750000 -22.312725 62.500000
v 43.750000 -16.062725 50.000000
v 43.750000 -22.312725 50.000000
v 43.750000 -16.062725 62.500000
v -43.750000 -44.187725 68.750000
v -43.750000 -44.187725 0.000000
v -18.750000 -44.187725 68.750000
v -18.750000 -44.187725 0.000000
v -43.750000 -19.187725 -0.000000
v -43.750000 -19.187725 68.750000
v -18.750000 -19.187725 -0.000000
v -18.750000 -19.187725 68.750000
v -31.250000 -34.812725 81.250000
v -31.250000 -28.562725 68.750000
v -31.250000 -34.812725 68.750000
v -31.250000 -28.562725 81.250000
v -25.753872 58.067348 -0.000000
v -25.753872 58.067348 37.500000
v -25.753872 51.817348 37.500000
v -25.753872 39.317348 -0.000000
v -25.753872 45.567348 37.500000
v -25.753872 39.317348 37.500000
v 31.250000 -62.937725 0.000000
v 31.250000 -62.937725 37.500000
v 31.250000 -69.187729 37.500000
v 31.250000 -81.687729 0.000000
v 31.250000 -75.437729 37.500000
v 31.250000 -81.687729 37.500000
v 56.250000 -6.687726 -0.000000
v 56.250000 -6.687726 50.000000
v 56.250000 -16.062725 50.000000
v 56.250000 -31.687725 0.000000
v 56.250000 -22.312725 50.000000
v 56.250000 -31.687725 50.000000
v -18.750000 -19.187725 -0.000000
v -18.750000 -19.187725 68.750000
v -18.750000 -28.562725 68.750000
v -18.750000 -44.187725 0.000000
v -18.750000 -34.812725 68.750000
v -18.750000 -44.187725 68.750000
v -44.503872 58.067348 -0.000000
v -44.503872 51.817348 37.500000
v -44.503872 58.067348 37.500000
v -44.503872 45.567348 37.500000
v -44.503872 39.317348 -0.000000
v -44.503872 39.317348 37.500000
v 23.376263 27.358494 -0.000000
v 23.376263 33.608494 56.250000
v 23.376263 27.358494 56.250000
v 23.376263 39.858494 56.250000
v 23.376263 46.108494 -0.000000
v 23.376263 46.108494 56.250000
v 4.626263 46.108494 -0.000000
v 4.626263 39.858494 56.250000
v 4.626263 46.108494 56.250000
v 4.626263 33.608494 56.250000
v 4.626263 27.358494 -0.000000
v 4.626263 27.358494 56.250000
v 12.500000 -62.937725 0.000000
v 12.500000 -69.187729 37.500000
v 12.500000 -62.937725 37.500000
v 12.500000 -75.437729 37.500000
v 12.500000 -81.687729 0.000000
v 12.500000 -81.687729 37.500000
v 31.250000 -6.687726 -0.000000
v 31.250000 -16.062725 50.000000
v 31.250000 -6.687726 50.000000
v 31.250000 -22.312725 50.000000
v 31.250000 -31.687725 0.000000
v 31.250000 -31.687725 50.000000
v -43.750000 -19.187725 -0.000000
v -43.750000 -28.562725 68.750000
v -43.750000 -19.187725 68.750000
v -43.750000 -34.812725 68.750000
v -43.750000 -44.187725 0.000000
v -43.750000 -44.187725 68.750000
v -44.503872 39.317348 37.500000
v -25.753872 39.317348 37.500000
v -35.128872 45.567348 37.500000
v -25.753872 45.567348 37.500000
v -44.503872 45.567348 37.500000
v -25.753872 51.817348 37.500000
v -35.128872 51.817348 37.500000
v -44.503872 51.817348 37.500000
v -25.753872 58.067348 37.500000
v -44.503872 58.067348 37.500000
v 4.626263 27.358494 56.250000
v 23.376263 27.358494 56.250000
v 14.001263 33.608494 56.250000
v 23.376263 33.608494 56.250000
v 4.626263 33.608494 56.250000
v 23.376263 39.858494 56.250000
v 14.001263 39.858494 56.250000
v 4.626263 39.858494 56.250000
v 23.376263 46.108494 56.250000
v 4.626263 46.108494 56.250000
v 12.500000 -81.687729 37.500000
v 31.250000 -81.687729 37.500000
v 21.875000 -75.437729 37.500000
v 31.250000 -75.437729 37.500000
v 12.500000 -75.437729 37.500000
v 31.250000 -69.187729 37.500000
v 21.875000 -69.187729 37.500000
v 12.500000 -69.187729 37.500000
v 31.250000 -62.937725 37.500000
v 12.500000 -62.937725 37.500000
v 31.250000 -31.687725 50.000000
v 56.250000 -31.687725 50.000000
v 43.750000 -22.312725 50.000000
v 56.250000 -22.312725 50.000000
v 31.250000 -22.312725 50.000000
v 56.250000 -16.062725 50.000000
v 43.750000 -16.062725 50.000000
v 31.250000 -16.062725 50.000000
v 56.250000 -6.687726 50.000000
v 31.250000 -6.687726 50.000000
v -43.750000 -44.187725 68.750000
v -18.750000 -44.187725 68.750000
v -31.250000 -34.812725 68.750000
v -18.750000 -34.812725 68.750000
v -43.750000 -34.812725 68.750000
v -18.750000 -28.562725 68.750000
v -31.250000 -28.562725 68.750000
v -43.750000 -28.562725 68.750000
v -18.750000 -19.187725 68.750000
v -43.750000 -19.187725 68.750000
vn 1.0000 -0.0000 -0.0000
vn -0.0000 -1.0000 -0.0000
vn -0.0000 1.0000 -0.0000
vn -1.0000 -0.0000 -0.0000
vn -0.0000 -0.0000 1.0000
vt 0.437500 0.937500
vt 0.437500 0.906250
vt 0.468750 0.906250
vt 0.468750 0.937500
vt 0.500000 0.999969
vt 0.500000 0.312500
vt 0.750000 0.312500
vt 0.750000 0.999969
vt 0.250000 0.500000
vt 0.250000 0.999969
vt 0.000031 0.999969
vt 0.000031 0.500000
vt 0.375000 0.999969
vt 0.375000 0.625000
vt 0.562500 0.625000
vt 0.562500 0.999969
vt 0.500000 0.906250
vt 0.500000 0.937500
vt 0.937500 0.062500
vt 0.937500 0.000000
vt 1.000000 0.000000
vt 1.000000 0.062500
vt 0.187500 0.437500
vt 0.187500 0.999969
vt 0.000031 0.437500
vt 0.375000 0.937500
vt 0.375000 0.906250
vt 0.375000 0.437500
vt 0.562500 0.437500
vt 0.500000 0.500000
vt 0.750000 0.500000
vt 0.250000 0.312500
vt 0.000031 0.312500
vt 0.312500 0.999969
vt 0.187500 0.625000
vt 0.406250 0.999969
vt 0.343750 0.999969
vt 0.625000 0.999969
vt 0.687500 0.999969
vt 0.750000 0.625000
vt 0.750000 0.437500
vt 0.843750 0.999969
vt 0.906250 0.999969
vt 1.000000 0.500000
vt 1.000000 0.999969
vt 1.000000 0.312500
vt 0.406250 0.875000
vt 0.500000 0.875000
vt 0.406250 0.906250
vt 0.500000 0.968750
vt 0.406250 0.937500
vt 0.406250 0.968750
vt 0.000031 0.625000
vt 0.375000 0.875000
vt 0.468750 0.875000
vt 0.468750 0.968750
vt 0.375000 0.968750
s 1
usemtl M_EvilCandle
f 177/1/5 173/2/5 174/3/5 176/4/5
f 76/5/3 75/6/3 73/7/3 74/8/3
f 60/9/2 59/10/2 57/11/2 58/12/2
f 28/13/3 27/14/3 25/15/3 26/16/3
f 157/4/5 153/3/5 154/17/5 156/18/5
f 44/19/4 42/20/4 43/21/4 41/22/4
f 4/19/1 1/22/1 2/21/1 3/20/1
f 36/23/2 35/24/2 33/11/2 34/25/2
f 12/19/1 9/22/1 10/21/1 11/20/1
f 178/26/5 175/27/5 173/2/5 177/1/5
f 8/19/1 5/22/1 6/21/1 7/20/1
f 52/13/3 51/14/3 49/15/3 50/16/3
f 20/19/1 17/22/1 18/21/1 19/20/1
f 80/19/4 78/20/4 79/21/4 77/22/4
f 16/19/1 13/22/1 14/21/1 15/20/1
f 40/13/3 39/28/3 37/29/3 38/16/3
f 187/1/5 183/2/5 184/3/5 186/4/5
f 64/5/3 63/30/3 61/31/3 62/8/3
f 32/19/4 30/20/4 31/21/4 29/22/4
f 72/32/2 71/10/2 69/11/2 70/33/2
f 83/34/1 81/14/1 82/13/1
f 81/14/1 83/34/1 84/35/1
f 85/10/1 84/35/1 83/34/1
f 85/10/1 86/24/1 84/35/1
f 89/34/1 87/14/1 88/13/1
f 87/14/1 89/34/1 90/35/1
f 91/10/1 90/35/1 89/34/1
f 91/10/1 92/24/1 90/35/1
f 95/36/1 93/30/1 94/5/1
f 93/30/1 95/36/1 96/9/1
f 97/37/1 96/9/1 95/36/1
f 97/37/1 98/10/1 96/9/1
f 101/36/1 99/6/1 100/5/1
f 99/6/1 101/36/1 102/32/1
f 103/37/1 102/32/1 101/36/1
f 103/37/1 104/10/1 102/32/1
f 107/16/4 105/15/4 106/38/4
f 108/39/4 106/38/4 105/15/4
f 109/40/4 108/39/4 105/15/4
f 110/8/4 108/39/4 109/40/4
f 113/24/1 111/23/1 112/10/1
f 114/34/1 112/10/1 111/23/1
f 115/28/1 114/34/1 111/23/1
f 116/13/1 114/34/1 115/28/1
f 119/16/4 117/29/4 118/38/4
f 120/39/4 118/38/4 117/29/4
f 121/41/4 120/39/4 117/29/4
f 122/8/4 120/39/4 121/41/4
f 125/16/4 123/15/4 124/38/4
f 126/39/4 124/38/4 123/15/4
f 127/40/4 126/39/4 123/15/4
f 128/8/4 126/39/4 127/40/4
f 131/8/4 129/31/4 130/42/4
f 132/43/4 130/42/4 129/31/4
f 133/44/4 132/43/4 129/31/4
f 134/45/4 132/43/4 133/44/4
f 137/8/4 135/7/4 136/42/4
f 138/43/4 136/42/4 135/7/4
f 139/46/4 138/43/4 135/7/4
f 140/45/4 138/43/4 139/46/4
f 143/3/5 141/47/5 142/48/5
f 144/17/5 143/3/5 142/48/5
f 145/49/5 141/47/5 143/3/5
f 68/19/4 66/20/4 67/21/4 65/22/4
f 146/18/5 149/50/5 147/4/5
f 148/51/5 147/4/5 150/52/5
f 150/52/5 147/4/5 149/50/5
f 153/3/5 151/47/5 152/48/5
f 154/17/5 153/3/5 152/48/5
f 155/49/5 151/47/5 153/3/5
f 24/35/2 23/24/2 21/11/2 22/53/2
f 56/19/4 54/20/4 55/21/4 53/22/4
f 156/18/5 159/50/5 157/4/5
f 158/51/5 157/4/5 160/52/5
f 160/52/5 157/4/5 159/50/5
f 163/3/5 161/47/5 162/48/5
f 164/17/5 163/3/5 162/48/5
f 165/49/5 161/47/5 163/3/5
f 147/4/5 143/3/5 144/17/5 146/18/5
f 158/51/5 155/49/5 153/3/5 157/4/5
f 166/18/5 169/50/5 167/4/5
f 168/51/5 167/4/5 170/52/5
f 170/52/5 167/4/5 169/50/5
f 173/2/5 171/54/5 172/55/5
f 174/3/5 173/2/5 172/55/5
f 175/27/5 171/54/5 173/2/5
f 168/51/5 165/49/5 163/3/5 167/4/5
f 167/4/5 163/3/5 164/17/5 166/18/5
f 176/4/5 179/56/5 177/1/5
f 178/26/5 177/1/5 180/57/5
f 180/57/5 177/1/5 179/56/5
f 183/2/5 181/54/5 182/55/5
f 184/3/5 183/2/5 182/55/5
f 185/27/5 181/54/5 183/2/5
f 148/51/5 145/49/5 143/3/5 147/4/5
f 48/35/2 47/24/2 45/11/2 46/53/2
f 186/4/5 189/56/5 187/1/5
f 188/26/5 187/1/5 190/57/5
f 190/57/5 187/1/5 189/56/5
f 188/26/5 185/27/5 183/2/5 187/1/5
