# Blender 5.0.1
# www.blender.org
mtllib BP_End_ArenaGate_3.mtl
o SK_End_ArenaGate_3.001
v 84.293526 -12.384254 112.410744
v 84.293556 12.615747 112.410744
v 109.293541 12.615729 112.410744
v 109.293510 -12.384271 112.410744
v 84.293526 -12.384254 312.410767
v 109.293510 -12.384271 312.410767
v 109.293541 12.615729 312.410767
v 84.293556 12.615747 312.410767
v 84.293526 -12.384254 112.410744
v 109.293510 -12.384271 112.410744
v 109.293510 -12.384271 312.410767
v 84.293526 -12.384254 312.410767
v 109.293510 -12.384271 112.410744
v 109.293541 12.615729 112.410744
v 109.293541 12.615729 312.410767
v 109.293510 -12.384271 312.410767
v 109.293541 12.615729 112.410744
v 84.293556 12.615747 112.410744
v 84.293556 12.615747 312.410767
v 109.293541 12.615729 312.410767
v 84.293556 12.615747 112.410744
v 84.293526 -12.384254 112.410744
v 84.293526 -12.384254 312.410767
v 84.293556 12.615747 312.410767
v 259.293518 -12.500000 140.332153
v 259.293518 12.500000 140.332153
v 284.293549 12.500000 140.332153
v 284.293549 -12.500000 140.332153
v 259.293518 -12.500000 265.332123
v 284.293549 -12.500000 265.332123
v 284.293549 12.500000 265.332123
v 259.293518 12.500000 265.332123
v 259.293518 -12.500000 140.332153
v 284.293549 -12.500000 140.332153
v 284.293549 -12.500000 265.332123
v 259.293518 -12.500000 265.332123
v 284.293549 -12.500000 140.332153
v 284.293549 12.500000 140.332153
v 284.293549 12.500000 265.332123
v 284.293549 -12.500000 265.332123
v 284.293549 12.500000 140.332153
v 259.293518 12.500000 140.332153
v 259.293518 12.500000 265.332123
v 284.293549 12.500000 265.332123
v 259.293518 12.500000 140.332153
v 259.293518 -12.500000 140.332153
v 259.293518 -12.500000 265.332123
v 259.293518 12.500000 265.332123
v 171.793518 -13.750018 203.987564
v 171.793518 11.249983 203.987564
v 196.793549 11.249987 203.987564
v 196.793549 -13.750013 203.987564
v 171.793518 -13.750018 303.987549
v 196.793549 -13.750013 303.987549
v 196.793549 11.249987 303.987549
v 171.793518 11.249983 303.987549
v 171.793518 -13.750018 203.987564
v 196.793549 -13.750013 203.987564
v 196.793549 -13.750013 303.987549
v 171.793518 -13.750018 303.987549
v 196.793549 -13.750013 203.987564
v 196.793549 11.249987 203.987564
v 196.793549 11.249987 303.987549
v 196.793549 -13.750013 303.987549
v 196.793549 11.249987 203.987564
v 171.793518 11.249983 203.987564
v 171.793518 11.249983 303.987549
v 196.793549 11.249987 303.987549
v 171.793518 11.249983 203.987564
v 171.793518 -13.750018 203.987564
v 171.793518 -13.750018 303.987549
v 171.793518 11.249983 303.987549
v 215.543549 -12.500000 61.255398
v 215.543549 12.500000 61.255398
v 240.543533 12.500000 61.255398
v 240.543533 -12.500000 61.255398
v 215.543549 -12.500000 261.255402
v 240.543533 -12.500000 261.255402
v 240.543533 12.500000 261.255402
v 215.543549 12.500000 261.255402
v 215.543549 -12.500000 61.255398
v 240.543533 -12.500000 61.255398
v 240.543533 -12.500000 261.255402
v 215.543549 -12.500000 261.255402
v 240.543533 -12.500000 61.255398
v 240.543533 12.500000 61.255398
v 240.543533 12.500000 261.255402
v 240.543533 -12.500000 261.255402
v 240.543533 12.500000 61.255398
v 215.543549 12.500000 61.255398
v 215.543549 12.500000 261.255402
v 240.543533 12.500000 261.255402
v 215.543549 12.500000 61.255398
v 215.543549 -12.500000 61.255398
v 215.543549 -12.500000 261.255402
v 215.543549 12.500000 261.255402
v 153.043533 11.666651 21.764420
v 153.043533 -13.333350 21.764420
v 128.043549 -13.333350 21.764420
v 128.043549 11.666651 21.764420
v 153.043533 11.666651 171.764435
v 128.043549 11.666651 171.764435
v 128.043549 -13.333350 171.764435
v 153.043533 -13.333350 171.764435
v 153.043533 11.666651 21.764420
v 128.043549 11.666651 21.764420
v 128.043549 11.666651 171.764435
v 153.043533 11.666651 171.764435
v 128.043549 11.666651 21.764420
v 128.043549 -13.333350 21.764420
v 128.043549 -13.333350 171.764435
v 128.043549 11.666651 171.764435
v 128.043549 -13.333350 21.764420
v 153.043533 -13.333350 21.764420
v 153.043533 -13.333350 171.764435
v 128.043549 -13.333350 171.764435
v 153.043533 -13.333350 21.764420
v 153.043533 11.666651 21.764420
v 153.043533 11.666651 171.764435
v 153.043533 -13.333350 171.764435
v 40.543533 -13.981522 145.973297
v 40.543533 11.018479 145.973297
v 65.543533 11.018479 145.973297
v 65.543533 -13.981522 145.973297
v 40.543533 -13.981522 245.973312
v 65.543533 -13.981522 245.973312
v 65.543533 11.018479 245.973312
v 40.543533 11.018479 245.973312
v 40.543533 -13.981522 145.973297
v 65.543533 -13.981522 145.973297
v 65.543533 -13.981522 245.973312
v 40.543533 -13.981522 245.973312
v 65.543533 -13.981522 145.973297
v 65.543533 11.018479 145.973297
v 65.543533 11.018479 245.973312
v 65.543533 -13.981522 245.973312
v 65.543533 11.018479 145.973297
v 40.543533 11.018479 145.973297
v 40.543533 11.018479 245.973312
v 65.543533 11.018479 245.973312
v 40.543533 11.018479 145.973297
v 40.543533 -13.981522 145.973297
v 40.543533 -13.981522 245.973312
v 40.543533 11.018479 245.973312
v -0.081436 -18.750002 -0.000000
v 99.918564 -18.749998 -0.000000
v -0.081436 18.750002 0.000000
v 99.918564 18.750006 0.000000
v 99.918564 -18.750002 -0.000000
v 199.918579 -18.749998 -0.000000
v 99.918564 18.750002 0.000000
v 199.918579 18.750006 0.000000
v 199.918579 -18.750002 -0.000000
v 299.918610 -18.749998 -0.000000
v 199.918579 18.750002 0.000000
v 299.918610 18.750006 0.000000
vn -0.0000 -0.0000 -1.0000
vn -0.0000 -0.0000 1.0000
vn -0.0000 -1.0000 -0.0000
vn 1.0000 -0.0000 -0.0000
vn -0.0000 1.0000 -0.0000
vn -1.0000 -0.0000 -0.0000
vt 0.312500 0.968750
vt 0.312500 0.843750
vt 0.437500 0.843750
vt 0.437500 0.968750
vt 0.125000 0.562500
vt 0.000031 0.562500
vt 0.000031 0.062500
vt 0.125000 0.062500
vt 0.156250 0.999969
vt 0.281250 0.999969
vt 0.281250 0.000000
vt 0.156250 0.000000
vt 0.000031 0.999969
vt 0.125000 0.999969
vt 0.125000 0.375000
vt 0.000031 0.375000
vt 0.000031 0.000000
vt 0.125000 0.000000
vt 0.468750 0.218750
vt 0.468750 0.031250
vt 0.968750 0.031250
vt 0.968750 0.218750
vt 0.156250 1.593750
vt 0.281250 1.593750
vt 0.281250 0.843750
vt 0.156250 0.843750
s 1
usemtl MI_End_ArenaGate
f 3/1/1 4/2/1 1/3/1 2/4/1
f 139/5/5 140/6/5 137/7/5 138/8/5
f 87/9/4 88/10/4 85/11/4 86/12/4
f 43/13/5 44/14/5 41/15/5 42/16/5
f 67/5/5 68/6/5 65/7/5 66/8/5
f 39/14/4 40/13/4 37/16/4 38/15/4
f 35/13/3 36/14/3 33/15/3 34/16/3
f 11/14/3 12/13/3 9/17/3 10/18/3
f 150/19/2 152/20/2 151/21/2 149/22/2
f 146/19/2 148/20/2 147/21/2 145/22/2
f 79/2/2 80/3/2 77/4/2 78/1/2
f 7/2/2 8/3/2 5/4/2 6/1/2
f 51/1/1 52/2/1 49/3/1 50/4/1
f 63/6/4 64/5/4 61/8/4 62/7/4
f 15/13/4 16/14/4 13/18/4 14/17/4
f 75/1/1 76/2/1 73/3/1 74/4/1
f 119/23/4 120/24/4 117/25/4 118/26/4
f 31/2/2 32/3/2 29/4/2 30/1/2
f 83/10/3 84/9/3 81/12/3 82/11/3
f 71/6/6 72/5/6 69/8/6 70/7/6
f 27/1/1 28/2/1 25/3/1 26/4/1
f 127/4/2 128/1/2 125/2/2 126/3/2
f 47/14/6 48/13/6 45/16/6 46/15/6
f 55/4/2 56/1/2 53/2/2 54/3/2
f 95/9/6 96/10/6 93/11/6 94/12/6
f 19/14/5 20/13/5 17/17/5 18/18/5
f 103/1/2 104/2/2 101/3/2 102/4/2
f 99/1/1 100/2/1 97/3/1 98/4/1
f 115/24/3 116/23/3 113/26/3 114/25/3
f 143/6/6 144/5/6 141/8/6 142/7/6
f 23/13/6 24/14/6 21/18/6 22/17/6
f 111/23/6 112/24/6 109/25/6 110/26/6
f 59/5/3 60/6/3 57/7/3 58/8/3
f 123/1/1 124/2/1 121/3/1 122/4/1
f 131/5/3 132/6/3 129/7/3 130/8/3
f 91/10/5 92/9/5 89/12/5 90/11/5
f 107/24/5 108/23/5 105/26/5 106/25/5
f 135/6/4 136/5/4 133/8/4 134/7/4
f 154/19/2 156/20/2 155/21/2 153/22/2
