# Blender 5.0.1
# www.blender.org
mtllib BP_EndRockStack_small.mtl
o SM_EndRockStack_small.001
v 0.000000 99.999855 300.000000
v 0.000000 99.999855 200.000000
v 0.000000 -0.000143 300.000000
v 0.000000 -0.000143 200.000000
v 100.000000 99.999855 300.000000
v 100.000000 99.999855 200.000000
v 0.000000 99.999855 300.000000
v 0.000000 99.999855 200.000000
v 200.000000 99.999855 300.000000
v 200.000000 99.999855 200.000000
v 300.000000 -200.000137 300.000000
v 300.000000 -100.000145 200.000000
v 300.000000 -100.000145 300.000000
v 300.000000 -200.000137 200.000000
v 200.000000 -200.000137 300.000000
v 300.000000 -200.000137 200.000000
v 300.000000 -200.000137 300.000000
v 200.000000 -200.000137 200.000000
v -100.000000 -0.000143 100.000000
v -100.000000 -0.000143 -0.000000
v -100.000000 -100.000145 100.000000
v -100.000000 -100.000145 -0.000000
v 0.000000 -0.000143 100.000000
v 0.000000 -0.000143 -0.000000
v -100.000000 -0.000143 100.000000
v -100.000000 -0.000143 -0.000000
v -100.000000 -200.000137 100.000000
v -100.000000 -200.000137 -0.000000
v -100.000000 -200.000137 100.000000
v 0.000000 -200.000137 -0.000000
v 0.000000 -200.000137 100.000000
v -100.000000 -200.000137 -0.000000
v 0.000000 99.999855 100.000000
v 0.000000 99.999855 0.000000
v 0.000000 -0.000143 100.000000
v 0.000000 -0.000143 -0.000000
v 100.000000 99.999855 100.000000
v 100.000000 99.999855 0.000000
v 0.000000 99.999855 100.000000
v 0.000000 99.999855 0.000000
v 0.000000 -0.000143 400.000000
v 0.000000 -100.000145 400.000000
v 0.000000 -100.000145 300.000000
v 0.000000 -200.000137 400.000000
v 0.000000 -200.000137 300.000000
v 0.000000 -200.000137 400.000000
v 100.000000 -200.000137 300.000000
v 100.000000 -200.000137 400.000000
v 0.000000 -200.000137 300.000000
v 0.000000 -200.000137 100.000000
v 0.000000 -200.000137 -0.000000
v 0.000000 -300.000153 100.000000
v 0.000000 -300.000153 -0.000000
v 0.000000 -300.000153 100.000000
v 100.000000 -300.000153 -0.000000
v 100.000000 -300.000153 100.000000
v 0.000000 -300.000153 -0.000000
v 200.000000 99.999855 100.000000
v 200.000000 99.999855 0.000000
v 200.000000 -300.000153 100.000000
v 200.000000 -200.000137 -0.000000
v 200.000000 -200.000137 100.000000
v 200.000000 -300.000153 -0.000000
v 200.000000 -300.000153 -0.000000
v 200.000000 -300.000153 100.000000
v 300.000000 99.999855 100.000000
v 300.000000 99.999855 0.000000
v 300.000000 -0.000143 100.000000
v 300.000000 99.999855 0.000000
v 300.000000 99.999855 100.000000
v 300.000000 -0.000143 -0.000000
v 300.000000 -100.000145 100.000000
v 300.000000 -100.000145 -0.000000
v 300.000000 -0.000143 400.000000
v 300.000000 -0.000143 300.000000
v 200.000000 -0.000143 400.000000
v 200.000000 -0.000143 300.000000
v 300.000000 -100.000145 400.000000
v 300.000000 -0.000143 300.000000
v 300.000000 -0.000143 400.000000
v 200.000000 -0.000143 400.000000
v 300.000000 -100.000145 400.000000
v 300.000000 -0.000143 400.000000
v 200.000000 -100.000145 400.000000
v 300.000000 -200.000137 100.000000
v 300.000000 -200.000137 -0.000000
v 200.000000 -200.000137 100.000000
v 300.000000 -200.000137 -0.000000
v 300.000000 -200.000137 100.000000
v 200.000000 -200.000137 -0.000000
v -100.000000 -0.000143 300.000000
v -100.000000 -0.000143 200.000000
v -100.000000 -100.000145 300.000000
v -100.000000 -100.000145 200.000000
v 0.000000 -0.000143 300.000000
v 0.000000 -0.000143 200.000000
v -100.000000 -0.000143 300.000000
v -100.000000 -0.000143 200.000000
v -100.000000 -200.000137 300.000000
v -100.000000 -200.000137 200.000000
v -100.000000 -100.000145 300.000000
v 0.000000 -200.000137 300.000000
v 0.000000 -100.000145 300.000000
v -100.000000 -200.000137 300.000000
v -100.000000 -200.000137 300.000000
v 0.000000 -200.000137 200.000000
v -100.000000 -200.000137 200.000000
v 0.000000 99.999855 400.000000
v 100.000000 99.999855 400.000000
v 0.000000 99.999855 400.000000
v 0.000000 99.999855 400.000000
v 100.000000 -0.000143 400.000000
v 100.000000 99.999855 400.000000
v 0.000000 -0.000143 400.000000
v 0.000000 -200.000137 200.000000
v 0.000000 -300.000153 300.000000
v 0.000000 -300.000153 200.000000
v 0.000000 -300.000153 300.000000
v 100.000000 -300.000153 200.000000
v 100.000000 -300.000153 300.000000
v 0.000000 -300.000153 200.000000
v 200.000000 99.999855 400.000000
v 200.000000 -0.000143 400.000000
v 200.000000 99.999855 300.000000
v 200.000000 99.999855 400.000000
v 200.000000 -0.000143 300.000000
v 200.000000 99.999855 400.000000
v 200.000000 -300.000153 300.000000
v 200.000000 -200.000137 200.000000
v 200.000000 -200.000137 300.000000
v 200.000000 -300.000153 200.000000
v 200.000000 -300.000153 200.000000
v 200.000000 -300.000153 300.000000
v 100.000000 -200.000137 400.000000
v 100.000000 -200.000137 300.000000
v 100.000000 -300.000153 400.000000
v 100.000000 -300.000153 300.000000
v 200.000000 -300.000153 400.000000
v 200.000000 -200.000137 400.000000
v 100.000000 -200.000137 400.000000
v 200.000000 -300.000153 400.000000
v 200.000000 -200.000137 400.000000
v 100.000000 -300.000153 400.000000
v 100.000000 -300.000153 400.000000
v 200.000000 -300.000153 400.000000
v 300.000000 -0.000143 200.000000
v 200.000000 -0.000143 200.000000
v 300.000000 -0.000143 200.000000
v 300.000000 -200.000137 400.000000
v 300.000000 -200.000137 400.000000
v 200.000000 -200.000137 400.000000
v 300.000000 -200.000137 400.000000
v -100.000000 -100.000145 350.000000
v -100.000000 -0.000143 350.000000
v -100.000000 -0.000143 350.000000
v 0.000000 -0.000143 350.000000
v 0.000000 -0.000143 350.000000
v -100.000000 -0.000143 350.000000
v 0.000000 -100.000145 350.000000
v -100.000000 -100.000145 350.000000
v -100.000000 -100.000145 300.000000
v 0.000000 -100.000145 300.000000
v -100.000000 -100.000145 350.000000
v 0.000000 -100.000145 350.000000
v 0.000000 -100.000145 450.000000
v 0.000000 -0.000143 450.000000
v 0.000000 -0.000143 450.000000
v 100.000000 -0.000143 450.000000
v 100.000000 -0.000143 400.000000
v 0.000000 -0.000143 400.000000
v 100.000000 -0.000143 450.000000
v 0.000000 -0.000143 450.000000
v 100.000000 -100.000145 450.000000
v 0.000000 -100.000145 450.000000
v 0.000000 -200.000137 450.000000
v 0.000000 -100.000145 450.000000
v 100.000000 -100.000145 450.000000
v 100.000000 -100.000145 400.000000
v 0.000000 -100.000145 400.000000
v 100.000000 -200.000137 450.000000
v 0.000000 -200.000137 450.000000
v 0.000000 -200.000137 450.000000
v 100.000000 -200.000137 450.000000
v 0.000000 -300.000153 350.000000
v 0.000000 -200.000137 350.000000
v 100.000000 -200.000137 350.000000
v 0.000000 -200.000137 350.000000
v 100.000000 -300.000153 350.000000
v 0.000000 -300.000153 350.000000
v 0.000000 -300.000153 350.000000
v 100.000000 -300.000153 350.000000
v 100.000000 -100.000145 450.000000
v 100.000000 -0.000143 450.000000
v 100.000000 -0.000143 400.000000
v 100.000000 -100.000145 400.000000
v 200.000000 -0.000143 450.000000
v 200.000000 -100.000145 400.000000
v 200.000000 -100.000145 450.000000
v 200.000000 -0.000143 450.000000
v 200.000000 -0.000143 450.000000
v 200.000000 -100.000145 450.000000
v 100.000000 -200.000137 450.000000
v 200.000000 -100.000145 450.000000
v 200.000000 -100.000145 400.000000
v 200.000000 -200.000137 450.000000
v 200.000000 -200.000137 450.000000
v 200.000000 -200.000137 450.000000
v 200.000000 99.999855 350.000000
v 300.000000 99.999855 350.000000
v 300.000000 99.999855 300.000000
v 300.000000 99.999855 300.000000
v 300.000000 -0.000143 350.000000
v 300.000000 99.999855 350.000000
v 300.000000 99.999855 350.000000
v 200.000000 99.999855 350.000000
v 300.000000 -0.000143 350.000000
v 200.000000 -0.000143 350.000000
v 200.000000 99.999855 150.000000
v 300.000000 99.999855 150.000000
v 300.000000 -0.000143 150.000000
v 300.000000 99.999855 150.000000
v 300.000000 99.999855 150.000000
v 200.000000 99.999855 150.000000
v 300.000000 -0.000143 150.000000
v 200.000000 -0.000143 150.000000
v 250.000000 99.999855 200.000000
v 250.000000 99.999855 150.000000
v 250.000000 -0.000143 150.000000
v 250.000000 99.999855 150.000000
v 250.000000 -0.000143 200.000000
v 250.000000 99.999855 200.000000
v 250.000000 -0.000143 200.000000
v 250.000000 99.999855 200.000000
v 200.000000 99.999855 200.000000
v 200.000000 -0.000143 200.000000
v 300.000000 99.999855 250.000000
v 200.000000 99.999855 250.000000
v 300.000000 -0.000143 250.000000
v 300.000000 99.999855 250.000000
v 250.000000 99.999855 250.000000
v 250.000000 -0.000143 250.000000
v 250.000000 99.999855 250.000000
v 300.000000 -0.000143 100.000000
v 200.000000 -0.000143 100.000000
vn -1.0000 -0.0000 -0.0000
vn -0.0000 1.0000 -0.0000
vn 1.0000 -0.0000 -0.0000
vn -0.0000 -1.0000 -0.0000
vn -0.0000 -0.0000 1.0000
vt 0.250000 0.500000
vt 0.250000 0.625000
vt -0.000031 0.625000
vt -0.000031 0.500000
vt 0.499756 0.500244
vt 0.499756 0.750122
vt 0.249878 0.750122
vt 0.249878 0.500244
vt 0.750000 0.750000
vt 0.750000 0.500000
vt 1.000000 0.500000
vt 1.000000 0.750000
vt 0.500000 0.500000
vt 0.500000 0.750000
vt 0.249878 0.750000
vt 0.000031 0.500000
vt 0.000031 0.250000
vt 0.250000 0.250000
vt 0.250000 0.750000
vt -0.000031 0.750000
vt 0.750000 0.999969
vt 0.500000 0.999969
vt 0.750000 0.625000
vt 0.500000 0.625000
vt 0.375000 0.750000
vt 0.375000 0.625000
vt 0.625000 0.625000
vt 0.625000 0.500000
vt 0.875000 0.500000
vt 0.875000 0.750000
vt 0.499756 0.750000
s 1
usemtl MI_EndMeshfades1
f 170/1/2 167/2/2 168/3/2 169/4/2
f 21/5/1 94/6/1 92/7/1 19/8/1
f 197/1/3 198/2/3 205/3/3 139/4/3
f 187/9/5 189/10/5 188/11/5 186/12/5
f 11/13/3 13/10/3 78/9/3 149/14/3
f 60/1/3 62/13/3 129/14/3 131/15/3
f 121/13/4 119/10/4 120/9/4 118/14/4
f 223/16/5 225/17/5 224/18/5 222/1/5
f 128/13/3 130/10/3 139/9/3 138/14/3
f 38/1/2 37/19/2 58/20/2 59/4/2
f 93/1/1 153/2/1 154/3/1 91/4/1
f 97/1/2 155/2/2 156/3/2 95/4/2
f 86/4/3 73/1/3 72/19/3 85/20/3
f 84/10/5 82/11/5 83/12/5 81/9/5
f 123/1/3 199/2/3 198/3/3 197/4/3
f 3/10/1 41/9/1 108/14/1 1/13/1
f 4/9/1 3/21/1 1/22/1 2/14/1
f 71/4/3 69/1/3 70/19/3 68/20/3
f 237/23/2 9/9/2 210/14/2 236/24/2
f 131/14/3 129/9/3 130/21/3 128/22/3
f 6/9/2 5/21/2 9/22/2 10/14/2
f 104/10/5 102/11/5 103/12/5 101/9/5
f 13/4/3 79/1/3 80/19/3 78/20/3
f 22/1/1 21/19/1 19/20/1 20/4/1
f 8/9/2 7/21/2 5/22/2 6/14/2
f 18/14/4 16/9/4 17/21/4 15/22/4
f 94/10/1 93/9/1 91/14/1 92/13/1
f 43/1/1 42/19/1 41/20/1 3/4/1
f 142/10/5 150/11/5 82/12/5 84/9/5
f 120/13/4 133/10/4 145/9/4 144/14/4
f 26/1/2 25/19/2 23/20/2 24/4/2
f 172/9/5 174/10/5 173/11/5 171/12/5
f 14/14/3 12/9/3 13/21/3 11/22/3
f 114/10/5 112/11/5 113/12/5 111/9/5
f 53/1/1 52/19/1 50/20/1 51/4/1
f 120/1/4 191/2/4 190/3/4 118/4/4
f 36/1/1 35/19/1 33/20/1 34/4/1
f 126/13/3 124/10/3 125/9/3 123/14/3
f 32/4/4 30/1/4 31/19/4 29/20/4
f 173/9/5 180/10/5 206/11/5 201/12/5
f 28/1/1 27/19/1 21/20/1 22/4/1
f 54/1/4 56/13/4 119/14/4 121/19/4
f 55/4/4 64/1/4 65/19/4 56/20/4
f 218/24/2 10/14/2 226/25/2 227/26/2
f 63/4/3 61/1/3 62/19/3 60/20/3
f 107/13/4 106/10/4 49/9/4 105/14/4
f 40/1/2 39/19/2 37/20/2 38/4/2
f 25/13/2 98/14/2 96/19/2 23/1/2
f 56/1/4 65/13/4 132/14/4 119/19/4
f 77/1/2 76/19/2 74/20/2 75/4/2
f 12/13/3 148/10/3 79/9/3 13/14/3
f 244/13/2 147/14/2 146/19/2 243/1/2
f 49/4/4 47/1/4 48/19/4 46/20/4
f 45/1/1 44/19/1 42/20/1 43/4/1
f 98/10/2 97/9/2 95/14/2 96/13/2
f 15/13/4 17/10/4 152/9/4 151/14/4
f 158/9/5 160/10/5 159/11/5 157/12/5
f 90/4/4 88/1/4 89/19/4 87/20/4
f 42/1/1 165/2/1 166/3/1 41/4/1
f 162/1/4 164/2/4 163/3/4 161/4/4
f 72/1/3 68/13/3 148/14/3 12/15/3
f 147/10/2 77/9/2 75/14/2 146/13/2
f 44/1/1 175/2/1 165/3/1 42/4/1
f 143/10/5 141/11/5 142/12/5 140/9/5
f 73/4/3 71/1/3 68/19/3 72/20/3
f 116/1/1 184/2/1 185/3/1 45/4/1
f 48/1/4 183/2/4 182/3/4 46/4/4
f 179/1/2 176/2/2 177/3/2 178/4/2
f 57/4/4 55/1/4 56/19/4 54/20/4
f 117/10/1 116/9/1 45/14/1 115/13/1
f 195/1/1 192/2/1 193/3/1 194/4/1
f 171/9/5 173/10/5 201/11/5 200/12/5
f 7/10/2 110/9/2 109/14/2 5/13/2
f 178/1/2 177/2/2 203/3/2 204/4/2
f 134/1/1 202/2/1 192/3/1 195/4/1
f 169/1/2 168/2/2 196/3/2 76/4/2
f 85/1/3 72/13/3 12/14/3 14/15/3
f 112/10/5 81/11/5 127/12/5 113/9/5
f 151/1/4 207/2/4 183/3/4 48/4/4
f 215/9/5 217/10/5 216/11/5 214/12/5
f 5/10/2 109/9/2 122/14/2 9/13/2
f 70/13/3 221/24/3 220/2/3 68/1/3
f 58/13/2 218/24/2 219/2/2 66/1/2
f 9/1/2 208/2/2 209/3/2 210/4/2
f 59/1/2 58/19/2 66/20/2 67/4/2
f 137/10/1 136/9/1 134/14/1 135/13/1
f 229/24/3 231/14/3 230/19/3 228/2/3
f 239/23/3 211/9/3 79/14/3 238/24/3
f 119/14/4 132/9/4 133/21/4 120/22/4
f 231/10/3 242/23/3 241/24/3 230/13/3
f 10/10/2 237/23/2 240/27/2 226/28/2
f 234/9/5 235/10/5 232/29/5 233/30/5
f 211/1/3 213/2/3 212/3/3 79/4/3
f 27/5/1 100/6/1 94/7/1 21/8/1
f 174/9/5 181/10/5 180/11/5 173/12/5
f 37/13/2 6/14/2 10/19/2 58/1/2
f 52/5/1 117/6/1 115/7/1 50/8/1
f 29/1/4 31/13/4 106/31/4 107/15/4
f 35/5/1 4/6/1 2/7/1 33/8/1
f 39/13/2 8/14/2 6/19/2 37/1/2
f 100/10/1 99/9/1 93/14/1 94/13/1
f 87/1/4 89/13/4 16/14/4 18/19/4
