# Blender 5.0.1
# www.blender.org
mtllib BP_End_Lantern_WallTorch2.mtl
o SM_EndWallTorch04_Object002.001
v 24.975424 -28.123751 0.000003
v 0.044985 -28.124994 -56.339951
v 24.975431 -28.125000 -56.339951
v 0.017990 -28.124578 0.000002
v 0.040838 28.125004 -56.339943
v 0.017999 28.125000 0.000008
v 24.975439 28.124998 0.000010
v 24.975439 28.125004 -56.339943
v 18.688662 21.880003 -56.339943
v 0.000000 21.878351 -56.339943
v 0.040838 28.125004 -56.339943
v 24.975439 28.125004 -56.339943
v 18.687120 -21.873735 -56.339951
v 24.975431 -28.125000 -56.339951
v 24.975420 15.629998 0.000005
v 12.445450 -15.625000 0.000002
v 24.975420 -15.627500 0.000002
v 12.445454 15.630009 0.000005
v 0.044985 -28.124994 -56.339951
v 0.000000 -21.876228 -56.339951
v 12.445454 15.630009 0.000005
v 12.445454 15.625031 -43.749989
v 12.445450 -15.625000 0.000002
v 12.445450 -15.624990 -43.749989
v 12.445450 -15.625000 0.000002
v 0.026990 -15.624986 -43.749989
v -0.000002 -15.625001 0.000002
v 12.445450 -15.624990 -43.749989
v 12.445454 15.630009 0.000005
v 0.026992 15.625036 -43.749989
v 12.445454 15.625031 -43.749989
v -0.000001 15.626685 0.000006
v 0.017992 -15.625838 0.000002
v 0.017990 -28.124578 0.000002
v 24.975424 -28.123751 0.000003
v 0.026992 15.625036 -43.749989
v 0.026990 -15.624986 -43.749989
v 12.445454 15.625031 -43.749989
v 12.445450 -15.624990 -43.749989
v 0.017999 28.125000 0.000008
v 24.975439 28.124998 0.000010
v 0.017992 15.626682 0.000005
v -24.975424 -28.123751 0.000003
v -0.044985 -28.124994 -56.339951
v -0.017990 -28.124578 0.000002
v -24.975431 -28.125000 -56.339951
v -0.040838 28.125004 -56.339943
v -24.975439 28.124998 0.000010
v -0.017999 28.125000 0.000008
v -24.975439 28.125004 -56.339943
v -24.975439 28.125004 -56.339943
v -0.040838 28.125004 -56.339943
v -18.688662 21.880003 -56.339943
v -18.687120 -21.873735 -56.339951
v -24.975431 -28.125000 -56.339951
v -24.975420 15.629998 0.000005
v -12.445450 -15.625000 0.000002
v -12.445454 15.630009 0.000005
v -24.975420 -15.627500 0.000002
v -0.044985 -28.124994 -56.339951
v -12.445454 15.630009 0.000005
v -12.445450 -15.625000 0.000002
v -12.445454 15.625031 -43.749989
v -12.445450 -15.624990 -43.749989
v -12.445450 -15.625000 0.000002
v -0.026990 -15.624986 -43.749989
v -12.445450 -15.624990 -43.749989
v -0.008995 -15.625420 0.000002
v -12.445454 15.630009 0.000005
v -0.026992 15.625036 -43.749989
v -0.008995 15.626684 0.000005
v -12.445454 15.625031 -43.749989
v -0.017990 -28.124578 0.000002
v -0.008995 -15.625420 0.000002
v -24.975424 -28.123751 0.000003
v -12.445454 15.625031 -43.749989
v -0.026990 -15.624986 -43.749989
v -0.026992 15.625036 -43.749989
v -12.445450 -15.624990 -43.749989
v -0.017999 28.125000 0.000008
v -0.008995 15.626684 0.000005
v -24.975439 28.124998 0.000010
v 24.975424 -28.123751 0.000003
v 24.975431 -28.125000 -56.339951
v 24.975420 -15.627500 0.000002
v 24.975439 28.125004 -56.339943
v 24.975420 15.629998 0.000005
v 24.975439 28.124998 0.000010
v -24.975439 28.124998 0.000010
v -24.975439 28.125004 -56.339943
v -24.975420 15.629998 0.000005
v -24.975420 -15.627500 0.000002
v -24.975431 -28.125000 -56.339951
v -24.975424 -28.123751 0.000003
v 0.000002 -28.126242 21.875000
v 0.000002 -28.125622 0.000000
v 18.687122 -28.123749 21.875000
v 18.687840 -28.124376 0.000000
v -18.687119 -28.123749 21.875000
v -18.687836 -28.124376 0.000000
v -24.974661 -21.873735 21.875000
v -24.976202 21.880003 21.875008
v -24.976149 21.875013 0.000000
v -24.975378 -21.874363 0.000000
v 18.688610 28.125002 0.000000
v 0.000002 28.128340 21.875008
v 18.688663 28.129992 21.875008
v 0.000002 28.125006 0.000000
v -18.688660 28.129992 21.875008
v -18.688606 28.125002 0.000000
v 24.975374 -21.874363 0.000000
v 24.976145 21.875013 0.000000
v 24.974657 -21.873735 21.875000
v 24.976198 21.880003 21.875008
v 0.000003 -28.125622 -56.339951
v -18.687836 -28.124376 -56.339951
v -18.687117 -28.123749 -78.214951
v 0.000005 -28.126242 -78.214951
v 18.687124 -28.123749 -78.214951
v 18.687841 -28.124376 -56.339951
v 24.976152 21.875013 -56.339951
v 24.975382 -21.874363 -56.339951
v 24.974669 -21.873735 -78.214951
v 24.976210 21.880003 -78.214958
v -18.688606 28.125002 -56.339951
v 0.000003 28.125006 -56.339951
v 0.000005 28.128340 -78.214958
v -18.688658 28.129992 -78.214966
v 18.688612 28.125002 -56.339951
v 18.688665 28.129992 -78.214958
v -24.976141 21.875013 -56.339951
v -24.974649 -21.873735 -78.214951
v -24.975370 -21.874363 -56.339951
v -24.976191 21.880003 -78.214966
vn -0.0000 -1.0000 -0.0000
vn -0.0000 1.0000 -0.0000
vn -0.0000 -0.0000 -1.0000
vn -0.0000 -0.0000 1.0000
vn -1.0000 -0.0000 -0.0000
vn 0.0001 -1.0000 0.0001
vn 1.0000 -0.0000 -0.0000
vn -0.0001 -1.0000 0.0001
vn 0.0001 -1.0000 -0.0000
vn -0.0001 -1.0000 -0.0000
vn -0.0000 1.0000 -0.0002
vn -0.0000 1.0000 0.0002
vt 0.718750 0.148438
vt 0.749512 0.148438
vt 0.749512 0.218750
vt 0.718750 0.218750
vt 0.903320 0.218750
vt 0.903320 0.164062
vt 0.882812 0.164062
vt 0.882812 0.218750
vt 0.866699 0.148438
vt 0.843750 0.140625
vt 0.869629 0.140625
vt 0.835938 0.148438
vt 0.828125 0.140625
vt 0.773438 0.140625
vt 0.765625 0.148438
vt 0.843750 0.113281
vt 0.789062 0.113281
vt 0.789062 0.140625
vt 0.757812 0.140625
vt 0.734375 0.148438
vt 0.731445 0.140625
vt 0.869629 0.113281
vt 0.953125 0.164062
vt 0.973633 0.164062
vt 0.973633 0.218750
vt 0.953125 0.218750
vt 0.914062 0.218750
vt 0.914062 0.164062
vt 0.789062 0.218750
vt 0.789062 0.234375
vt 0.819824 0.234375
vt 0.819824 0.218750
vt 0.914062 0.148438
vt 0.953125 0.148438
vt 0.835938 0.218750
vt 0.866699 0.218750
vt 0.914062 0.250000
vt 0.953125 0.250000
vt 0.953125 0.229492
vt 0.914062 0.229492
vt 0.781250 0.218750
vt 0.765625 0.218750
vt 0.820312 0.218750
vt 0.750000 0.140625
vt 0.750000 0.113281
vt 0.775879 0.113281
vt 0.775879 0.140625
s 1
usemtl MI_GaleSanctum_Props
f 46/1/1 44/2/1 45/3/1 43/4/1
f 68/5/2 66/6/2 67/7/2 65/8/2
f 11/9/3 9/10/3 10/11/3
f 12/12/3 9/10/3 11/9/3
f 9/13/3 12/12/3 13/14/3
f 14/15/3 13/14/3 12/12/3
f 13/19/3 14/15/3 19/20/3
f 20/21/3 13/19/3 19/20/3
f 72/23/8 70/24/8 71/25/8 69/26/8
f 62/27/7 64/28/7 63/23/7 61/26/7
f 35/29/4 17/30/4 33/31/4 34/32/4
f 59/33/4 57/28/4 58/23/4 56/34/4
f 28/7/2 26/6/2 27/5/2 25/8/2
f 7/35/2 8/12/2 5/9/2 6/36/2
f 53/10/3 51/12/3 52/9/3
f 52/9/3 10/11/3 53/10/3
f 53/13/3 54/14/3 51/12/3
f 55/15/3 51/12/3 54/14/3
f 18/23/4 16/28/4 17/33/4 15/34/4
f 54/19/3 60/20/3 55/15/3
f 20/21/3 60/20/3 54/19/3
f 24/28/5 23/27/5 21/26/5 22/23/5
f 4/3/1 2/2/1 3/1/1 1/4/1
f 75/29/4 73/32/4 74/31/4 59/30/4
f 82/29/4 56/30/4 81/31/4 80/32/4
f 39/37/4 38/38/4 36/39/4 37/40/4
f 32/25/6 30/24/6 31/23/6 29/26/6
f 85/41/7 83/42/7 84/15/7
f 84/15/7 86/12/7 85/41/7
f 87/43/7 85/41/7 86/12/7
f 87/43/7 86/12/7 88/35/7
f 91/43/5 89/35/5 90/12/5
f 92/41/5 91/43/5 90/12/5
f 90/12/5 93/15/5 92/41/5
f 94/42/5 92/41/5 93/15/5
f 42/31/4 15/30/4 41/29/4 40/32/4
f 50/12/2 48/35/2 49/36/2 47/9/2
f 79/37/4 77/40/4 78/39/4 76/38/4
usemtl MI_GaleSanctum_Props
f 124/10/7 121/16/7 122/17/7 123/18/7
f 106/11/11 108/22/11 110/16/11 109/10/11
f 99/44/10 100/45/10 96/46/1 95/47/1
f 118/47/1 115/46/1 116/45/10 117/44/10
f 112/16/7 114/10/7 113/18/7 111/17/7
f 130/10/12 127/11/12 126/22/12 129/16/12
f 108/22/11 106/11/11 107/10/11 105/16/11
f 134/10/5 132/18/5 133/17/5 131/16/5
f 118/47/1 119/44/9 120/45/9 115/46/1
f 104/17/5 101/18/5 102/10/5 103/16/5
f 98/45/9 97/44/9 95/47/1 96/46/1
f 128/10/12 125/16/12 126/22/12 127/11/12
