# Blender 5.0.1
# www.blender.org
mtllib BP_End_Banner_2x.mtl
o SM_GS_Banner2x.001
v 98.750000 10.000167 -690.000000
v -1.250000 10.000191 -790.000000
v 98.750000 10.000191 -790.000000
v -1.250000 10.000167 -690.000000
v -101.250000 10.000191 -790.000000
v 98.750000 10.000143 -590.000000
v -101.250000 10.000167 -690.000000
v -1.250000 10.000143 -590.000000
v 98.750000 10.000119 -489.999969
v -101.250000 10.000143 -590.000000
v -1.250000 10.000119 -489.999969
v 98.750000 10.000095 -389.999969
v -101.250000 10.000119 -489.999969
v -1.250000 10.000095 -389.999969
v 98.750000 10.000072 -289.999969
v -101.250000 10.000095 -389.999969
v -1.250000 10.000072 -289.999969
v 98.750000 10.000048 -189.999985
v -101.250000 10.000072 -289.999969
v -1.250000 10.000048 -189.999985
v 98.750000 10.000024 -89.999985
v -101.250000 10.000048 -189.999985
v -1.250000 10.000024 -89.999985
v 98.750000 10.000000 10.000017
v -101.250000 10.000024 -89.999985
v -1.250000 10.000000 10.000017
v -101.250000 10.000000 10.000017
vn -0.0000 -1.0000 -0.0000
vt 0.500000 0.750000
vt 0.375000 0.750000
vt 0.375000 0.625000
vt 0.500000 0.625000
vt 0.500000 0.500000
vt 0.375000 0.500000
vt 0.375000 0.375000
vt 0.500000 0.375000
vt 0.500000 0.250000
vt 0.375000 0.250000
vt 0.375000 0.125000
vt 0.500000 0.125000
vt 0.625000 0.500000
vt 0.625000 0.375000
vt 0.375000 0.000000
vt 0.500000 0.000000
vt 0.625000 0.875000
vt 0.500000 0.875000
vt 0.625000 0.750000
vt 0.625000 0.250000
vt 0.625000 0.125000
vt 0.375000 0.875000
vt 0.625000 0.625000
vt 0.625000 0.999969
vt 0.500000 0.999969
vt 0.625000 0.000000
vt 0.375000 0.999969
s 1
usemtl Mi_GS_Banners
f 20/1/1 22/2/1 19/3/1 17/4/1
f 14/5/1 16/6/1 13/7/1 11/8/1
f 8/9/1 10/10/1 7/11/1 4/12/1
f 12/13/1 14/5/1 11/8/1 9/14/1
f 11/8/1 13/7/1 10/10/1 8/9/1
f 4/12/1 7/11/1 5/15/1 2/16/1
f 21/17/1 23/18/1 20/1/1 18/19/1
f 6/20/1 8/9/1 4/12/1 1/21/1
f 17/4/1 19/3/1 16/6/1 14/5/1
f 23/18/1 25/22/1 22/2/1 20/1/1
f 15/23/1 17/4/1 14/5/1 12/13/1
f 9/14/1 11/8/1 8/9/1 6/20/1
f 18/19/1 20/1/1 17/4/1 15/23/1
f 24/24/1 26/25/1 23/18/1 21/17/1
f 1/21/1 4/12/1 2/16/1 3/26/1
f 26/25/1 27/27/1 25/22/1 23/18/1
