# Blender 5.0.1
# www.blender.org
mtllib BP_FallingBlockAvalanche_Irregular_4.mtl
o SM__FB_Irregular_4.001
v -50.000000 -149.999985 50.000023
v 50.000000 -150.000015 -49.999981
v 50.000000 -149.999985 50.000023
v -50.000000 -150.000015 -49.999981
v 50.000000 -149.999985 50.000023
v 50.000000 -50.000008 -49.999996
v 50.000000 -49.999992 50.000004
v 50.000000 -150.000015 -49.999981
v 50.000000 50.000008 49.999989
v 50.000000 49.999992 -50.000015
v -50.000000 150.000015 49.999973
v -50.000000 49.999992 -50.000015
v -50.000000 50.000008 49.999989
v -50.000000 149.999985 -50.000031
v -50.000000 -49.999992 50.000004
v -50.000000 -150.000015 -49.999981
v -50.000000 -149.999985 50.000023
v -50.000000 -50.000008 -49.999996
v 50.000000 150.000015 49.999973
v 50.000000 149.999985 -50.000031
v 50.000000 150.000015 49.999973
v -50.000000 149.999985 -50.000031
v -50.000000 150.000015 49.999973
v 50.000000 149.999985 -50.000031
v -50.000000 -49.999992 50.000004
v -50.000000 -149.999985 50.000023
v 50.000000 -49.999992 50.000004
v 50.000000 -149.999985 50.000023
v 50.000000 150.000015 49.999973
v -50.000000 150.000015 49.999973
v -50.000000 50.000008 49.999989
v 50.000000 50.000008 49.999989
vn -0.0000 -1.0000 -0.0000
vn 1.0000 -0.0000 -0.0000
vn -1.0000 -0.0000 -0.0000
vn -0.0000 1.0000 -0.0000
vn -0.0000 -0.0000 1.0000
vt 0.000031 0.999969
vt -0.000031 0.000000
vt 1.000000 0.000000
vt 1.000000 0.999969
vt 0.000031 0.000000
vt -0.000031 0.999969
s 1
usemtl TestBlock16x
f 7/1/2 6/2/2 10/3/2 9/4/2
f 9/1/2 10/2/2 20/3/2 19/4/2
f 18/2/3 16/3/3 17/4/3 15/1/3
f 8/5/2 6/3/2 7/4/2 5/6/2
f 14/2/3 12/3/3 13/4/3 11/1/3
f 28/3/5 27/4/5 25/1/5 26/2/5
f 32/3/5 29/4/5 30/1/5 31/5/5
f 4/5/1 2/3/1 3/4/1 1/6/1
f 12/2/3 18/3/3 15/4/3 13/1/3
f 24/2/4 22/3/4 23/4/4 21/1/4
f 27/3/5 32/4/5 31/1/5 25/5/5
