# Blender 5.0.1
# www.blender.org
mtllib BP_FF_OutdoorEntrance_New.mtl
o SM_FF_OutdoorEntrance_Back.001
v 0.000000 -150.000549 700.000122
v 100.000000 -150.000565 800.000122
v 0.000000 -150.000565 800.000122
v 100.000000 -150.000549 700.000122
v 200.000000 -150.000534 600.000122
v 200.000000 -150.000549 700.000122
v -100.000000 -150.000534 600.000122
v -100.000000 -150.000549 700.000122
v 200.000000 -150.000504 500.000092
v 300.000000 -150.000504 500.000092
v 300.000000 -150.000488 400.000092
v 300.000000 -150.000473 300.000122
v -200.000000 -150.000534 600.000122
v -200.000000 -150.000504 500.000092
v 200.000000 -150.000443 100.000122
v 300.000000 -150.000458 200.000122
v 300.000000 -150.000443 100.000122
v -300.000000 -150.000488 400.000092
v -300.000000 -150.000504 500.000092
v -300.000000 -150.000473 300.000122
v 100.000000 -150.000427 0.000114
v 200.000000 -150.000427 0.000114
v 0.000000 -150.000427 0.000114
v -200.000000 -150.000443 100.000122
v -300.000000 -150.000458 200.000122
v -300.000000 -150.000443 100.000122
v -100.000000 -150.000427 0.000114
v -200.000000 -150.000427 0.000114
vn -0.0000 -1.0000 -0.0000
vt 0.737305 0.856323
vt 0.618652 0.856323
vt 0.737305 0.737549
vt 0.500000 0.856323
vt 0.381104 0.737549
vt 0.381104 0.856323
vt 0.737305 0.618896
vt 0.855957 0.500244
vt 0.855957 0.618896
vt 0.855957 0.381348
vt 0.262451 0.737549
vt 0.262451 0.618896
vt 0.737305 0.144043
vt 0.618652 0.974960
vt 0.500000 0.974960
vt 0.855957 0.262695
vt 0.855957 0.144043
vt 0.143677 0.618896
vt 0.143677 0.500244
vt 0.143677 0.381348
vt 0.618652 0.025391
vt 0.737305 0.025391
vt 0.500000 0.025391
vt 0.262451 0.144043
vt 0.143677 0.262695
vt 0.143677 0.144043
vt 0.381104 0.025391
vt 0.262451 0.025391
s 1
usemtl MI_FF_OutdoorEntrance_BL
f 6/1/1 4/2/1 5/3/1
f 1/4/1 5/3/1 4/2/1
f 7/5/1 5/3/1 1/4/1
f 1/4/1 8/6/1 7/5/1
f 9/7/1 5/3/1 7/5/1
f 11/8/1 10/9/1 9/7/1
f 11/8/1 9/7/1 12/10/1
f 7/5/1 13/11/1 14/12/1
f 7/5/1 14/12/1 9/7/1
f 12/10/1 9/7/1 15/13/1
f 4/2/1 2/14/1 3/15/1 1/4/1
f 16/16/1 12/10/1 15/13/1
f 17/17/1 16/16/1 15/13/1
f 19/18/1 18/19/1 14/12/1
f 18/19/1 20/20/1 14/12/1
f 15/13/1 21/21/1 22/22/1
f 21/21/1 15/13/1 23/23/1
f 24/24/1 14/12/1 20/20/1
f 23/23/1 15/13/1 24/24/1
f 25/25/1 24/24/1 20/20/1
f 26/26/1 24/24/1 25/25/1
f 23/23/1 24/24/1 27/27/1
f 27/27/1 24/24/1 28/28/1
f 24/24/1 15/13/1 9/7/1 14/12/1
