# Blender 5.0.1
# www.blender.org
mtllib BP_FallingBlockAvalanche_4x4.mtl
o SM__FB_4x4.001
v -200.000000 200.000015 49.999966
v -200.000000 99.999992 -50.000023
v -200.000000 100.000008 49.999981
v -200.000000 199.999985 -50.000038
v 0.000000 -199.999985 50.000031
v -100.000000 -199.999985 50.000031
v 0.000000 -200.000015 -49.999973
v -100.000000 -200.000015 -49.999973
v -100.000000 200.000015 49.999966
v -200.000000 199.999985 -50.000038
v -200.000000 200.000015 49.999966
v -100.000000 199.999985 -50.000038
v -200.000000 -0.000008 -50.000008
v -200.000000 0.000008 49.999996
v 100.000000 200.000015 49.999966
v 0.000000 199.999985 -50.000038
v 0.000000 200.000015 49.999966
v 100.000000 199.999985 -50.000038
v 100.000000 -199.999985 50.000031
v 100.000000 -200.000015 -49.999973
v 200.000000 -199.999985 50.000031
v 200.000000 -100.000008 -49.999989
v 200.000000 -99.999992 50.000011
v 200.000000 -200.000015 -49.999973
v -200.000000 -100.000008 -49.999989
v -200.000000 -99.999992 50.000011
v -200.000000 -200.000015 -49.999973
v -200.000000 -199.999985 50.000031
v 200.000000 100.000008 49.999981
v 200.000000 0.000008 49.999996
v 200.000000 99.999992 -50.000023
v 200.000000 -0.000008 -50.000008
v 200.000000 200.000015 49.999966
v 200.000000 199.999985 -50.000038
v 200.000000 200.000015 49.999966
v 200.000000 199.999985 -50.000038
v -200.000000 -199.999985 50.000031
v -200.000000 -200.000015 -49.999973
v 0.000000 -99.999992 50.000011
v -100.000000 -99.999992 50.000011
v 0.000000 -199.999985 50.000031
v -100.000000 -199.999985 50.000031
v 0.000000 0.000008 49.999996
v -100.000000 0.000008 49.999996
v 100.000000 200.000015 49.999966
v 0.000000 200.000015 49.999966
v 100.000000 100.000008 49.999981
v 0.000000 100.000008 49.999981
v 100.000000 -99.999992 50.000011
v 100.000000 -199.999985 50.000031
v 100.000000 0.000008 49.999996
v -100.000000 200.000015 49.999966
v -200.000000 200.000015 49.999966
v -200.000000 100.000008 49.999981
v -100.000000 100.000008 49.999981
v -200.000000 0.000008 49.999996
v -200.000000 -99.999992 50.000011
v -200.000000 -199.999985 50.000031
v 200.000000 200.000015 49.999966
v 200.000000 100.000008 49.999981
v 200.000000 -99.999992 50.000011
v 200.000000 -199.999985 50.000031
v 200.000000 0.000008 49.999996
v 200.000000 -199.999985 50.000031
v 200.000000 -200.000015 -49.999973
vn -1.0000 -0.0000 -0.0000
vn -0.0000 -1.0000 -0.0000
vn -0.0000 1.0000 -0.0000
vn 1.0000 -0.0000 -0.0000
vn -0.0000 -0.0000 1.0000
vt 0.000031 0.999969
vt -0.000031 0.000000
vt 1.000000 0.000000
vt 1.000000 0.999969
vt 0.000031 0.000000
vt -0.000031 0.999969
s 1
usemtl TestBlock16x
f 39/1/5 41/2/5 50/3/5 49/4/5
f 23/1/4 22/2/4 32/3/4 30/4/4
f 40/1/5 42/2/5 41/3/5 39/4/5
f 6/1/2 8/2/2 7/3/2 5/4/2
f 13/5/1 25/3/1 26/4/1 14/6/1
f 29/1/4 31/2/4 36/3/4 35/4/4
f 12/5/3 10/3/3 11/4/3 9/6/3
f 24/5/4 22/3/4 23/4/4 21/6/4
f 2/5/1 13/3/1 14/4/1 3/6/1
f 34/5/3 18/3/3 15/4/3 33/6/3
f 55/3/5 52/4/5 53/6/5 54/5/5
f 4/5/1 2/3/1 3/4/1 1/6/1
f 48/1/5 43/2/5 51/3/5 47/4/5
f 16/5/3 12/3/3 9/4/3 17/6/3
f 49/1/5 50/2/5 62/3/5 61/4/5
f 18/5/3 16/3/3 17/4/3 15/6/3
f 51/1/5 49/2/5 61/3/5 63/4/5
f 5/1/2 7/2/2 20/3/2 19/4/2
f 43/1/5 39/2/5 49/3/5 51/4/5
f 46/6/5 48/2/5 47/3/5 45/4/5
f 44/3/5 55/4/5 54/6/5 56/5/5
f 44/1/5 40/2/5 39/3/5 43/4/5
f 38/2/2 8/3/2 6/4/2 37/1/2
f 25/5/1 27/3/1 28/4/1 26/6/1
f 40/3/5 44/4/5 56/6/5 57/5/5
f 30/1/4 32/2/4 31/3/4 29/4/4
f 52/6/5 55/2/5 48/3/5 46/4/5
f 42/3/5 40/4/5 57/6/5 58/5/5
f 47/1/5 51/2/5 63/3/5 60/4/5
f 45/6/5 47/2/5 60/3/5 59/4/5
f 55/1/5 44/2/5 43/3/5 48/4/5
f 19/1/2 20/2/2 65/3/2 64/4/2
