# Blender 5.0.1
# www.blender.org
mtllib BP_FancyUrn_High_02.mtl
o SM_FancyUrn_High.001
v -24.999994 -24.999983 62.500000
v 24.999994 -24.999981 -0.000001
v 25.000000 -24.999983 62.500000
v -24.999994 -24.999981 -0.000001
v -24.999994 25.000002 0.000001
v -24.999994 24.999996 62.500000
v 24.999992 25.000002 0.000001
v 24.999998 25.000000 62.500000
v 24.999994 -24.999981 -0.000001
v 24.999992 25.000002 0.000001
v 25.000000 -24.999983 62.500000
v 24.999998 25.000000 62.500000
v -24.999994 -24.999981 -0.000001
v -24.999994 24.999996 62.500000
v -24.999994 25.000002 0.000001
v -24.999994 -24.999983 62.500000
v -12.499990 12.500011 100.000000
v 12.499998 12.500013 62.500000
v -12.499999 12.499996 62.500000
v 12.499998 12.500011 100.000000
v -12.499998 -12.499990 100.000000
v -12.499999 12.499996 62.500000
v -12.499998 -12.499989 62.500000
v -12.499990 12.500011 100.000000
v 12.499998 -12.499990 100.000000
v -12.499998 -12.499990 100.000000
v -12.499998 -12.499989 62.500000
v 12.499998 -12.499989 62.500000
v 12.499998 -12.499990 100.000000
v 12.499998 -12.499989 62.500000
v 12.499998 12.500011 100.000000
v 12.499998 12.500013 62.500000
v -24.999994 -24.999981 -0.000001
v 24.999992 25.000002 0.000001
v 24.999994 -24.999981 -0.000001
v -24.999994 25.000002 0.000001
v 18.749998 18.749979 100.000000
v -18.750000 18.749996 100.000000
v -18.750000 18.749994 112.500000
v 18.750000 18.749994 112.500000
v -18.750000 -18.750004 100.000000
v -18.750000 18.749994 112.500000
v -18.750000 18.749996 100.000000
v -18.750002 -18.750021 112.500000
v 18.750000 -18.750006 112.500000
v -18.750002 -18.750021 112.500000
v -18.750000 -18.750004 100.000000
v 18.750000 -18.750004 100.000000
v 18.750000 -18.750006 112.500000
v 18.749998 18.749979 100.000000
v 18.750000 18.749994 112.500000
v 18.750000 -18.750004 100.000000
v 18.750000 -18.750006 112.500000
v -18.750000 18.749994 112.500000
v -18.750002 -18.750021 112.500000
v 18.750000 18.749994 112.500000
v -12.499999 12.499996 62.500000
v -24.999994 -24.999983 62.500000
v -12.499998 -12.499989 62.500000
v -24.999994 24.999996 62.500000
v 24.999998 25.000000 62.500000
v 12.499998 -12.499989 62.500000
v 25.000000 -24.999983 62.500000
v 12.499998 12.500013 62.500000
v -18.750000 18.749996 100.000000
v 12.499998 12.500011 100.000000
v -12.499990 12.500011 100.000000
v 18.749998 18.749979 100.000000
v -12.499998 -12.499990 100.000000
v -18.750000 -18.750004 100.000000
v 18.750000 -18.750004 100.000000
v 12.499998 -12.499990 100.000000
vn -0.0000 -1.0000 -0.0000
vn -0.0000 1.0000 -0.0000
vn 1.0000 -0.0000 -0.0000
vn -1.0000 -0.0000 -0.0000
vn -0.0000 -0.0000 -1.0000
vn -0.0000 -0.0000 1.0000
vt 0.375000 0.958344
vt 0.375000 0.750000
vt 0.541504 0.750000
vt 0.541504 0.958344
vt 0.833008 0.875000
vt 0.833008 0.999969
vt 0.708008 0.999969
vt 0.708008 0.875000
vt 0.708008 0.958344
vt 0.708008 0.750000
vt 0.708008 0.833374
vt 0.833008 0.833374
vt 0.541504 0.625000
vt 0.625000 0.625000
vt 0.625000 0.750000
vt 0.708008 0.625000
vt 0.875000 0.999969
vt 0.875000 0.875000
vt 0.666504 0.999969
vt 0.583008 0.999969
vt 0.416504 0.999969
vt 0.500000 0.999969
vt 0.895508 0.979172
vt 0.895508 0.895874
vt 0.729004 0.812500
vt 0.812500 0.812500
vt 0.375000 0.583496
vt 0.541504 0.583496
s 1
usemtl WorldGridMaterial
f 8/1/2 7/2/2 5/3/2 6/4/2
f 56/5/6 54/6/6 55/7/6 53/8/6
f 16/9/4 14/4/4 15/3/4 13/10/4
f 4/2/1 2/3/1 3/4/1 1/1/1
f 44/5/4 42/8/4 43/11/4 41/12/4
f 20/3/2 18/13/2 19/14/2 17/15/2
f 12/9/3 11/4/3 9/3/3 10/10/3
f 28/14/1 25/15/1 26/3/1 27/13/1
f 30/14/3 32/16/3 31/10/3 29/15/3
f 48/17/1 45/6/1 46/5/1 47/18/1
f 52/11/3 50/12/3 51/5/3 49/8/3
f 40/5/2 37/18/2 38/17/2 39/6/2
f 24/15/4 22/14/4 23/16/4 21/10/4
f 59/19/6 57/20/6 58/9/6
f 57/20/6 60/4/6 58/9/6
f 63/4/6 61/9/6 62/20/6
f 64/19/6 62/20/6 61/9/6
f 61/1/6 60/4/6 64/21/6
f 57/22/6 64/21/6 60/4/6
f 59/21/6 58/1/6 62/22/6
f 63/4/6 62/22/6 58/1/6
f 67/23/5 65/17/5 66/24/5
f 68/18/5 66/24/5 65/17/5
f 67/25/5 69/26/5 65/11/5
f 70/12/5 65/11/5 69/26/5
f 69/24/5 71/17/5 70/18/5
f 72/23/5 71/17/5 69/24/5
f 72/25/5 68/12/5 71/11/5
f 66/26/5 68/12/5 72/25/5
f 36/3/5 34/2/5 35/27/5 33/28/5
