# Blender 5.0.1
# www.blender.org
mtllib BP_FancyUrn_Lil_02.mtl
o SM_FancyUrn_Lil.001
v 28.124998 -28.125002 12.499999
v -28.125002 -28.125002 12.499999
v -28.125002 -28.125002 -0.000001
v 28.124998 -28.125002 -0.000001
v -9.375000 9.374999 31.249998
v -28.125002 -28.125002 12.499999
v -9.375000 -9.375001 31.249998
v -28.125002 28.125002 12.500001
v 28.125002 28.125002 0.000001
v -28.125002 28.125004 0.000001
v -28.125002 28.125002 12.500001
v 28.125002 28.125002 12.500001
v 28.124998 -28.125002 -0.000001
v 28.125002 28.125002 0.000001
v 28.124998 -28.125002 12.499999
v 28.125002 28.125002 12.500001
v -28.125002 -28.125002 -0.000001
v -28.125002 28.125002 12.500001
v -28.125002 28.125004 0.000001
v -28.125002 -28.125002 12.499999
v -9.375000 -9.375001 68.750000
v 9.375000 -9.375003 68.750000
v 9.375000 9.374997 68.750000
v -9.375001 9.374997 68.750000
v -9.375000 9.374999 31.249998
v 9.375000 9.374997 68.750000
v 9.375000 9.374999 31.249998
v -9.375001 9.374997 68.750000
v -9.375000 -9.375001 68.750000
v -9.375000 9.374999 31.249998
v -9.375000 -9.375001 31.249998
v -9.375001 9.374997 68.750000
v -9.375000 -9.375001 68.750000
v 9.374999 -9.375001 31.249998
v 9.375000 -9.375003 68.750000
v -9.375000 -9.375001 31.249998
v 9.375000 9.374999 31.249998
v 9.375000 9.374997 68.750000
v 9.374999 -9.375001 31.249998
v 9.375000 -9.375003 68.750000
v 9.374999 -9.375001 31.249998
v 28.124998 -28.125002 12.499999
v 9.375000 9.374999 31.249998
v 28.125002 28.125002 12.500001
v 28.125002 28.125002 12.500001
v -28.125002 28.125002 12.500001
v -9.375000 9.374999 31.249998
v 9.375000 9.374999 31.249998
v -28.125002 -28.125002 12.499999
v 28.124998 -28.125002 12.499999
v -9.375000 -9.375001 31.249998
v 9.374999 -9.375001 31.249998
v -28.125002 -28.125002 -0.000001
v -28.125002 28.125004 0.000001
v 28.124998 -28.125002 -0.000001
v 28.125002 28.125002 0.000001
vn -0.0000 -1.0000 -0.0000
vn -0.7071 -0.0000 0.7071
vn -0.0000 1.0000 -0.0000
vn 1.0000 -0.0000 -0.0000
vn -1.0000 -0.0000 -0.0000
vn -0.0000 -0.0000 1.0000
vn 0.7071 -0.0000 0.7071
vn -0.0000 0.7071 0.7071
vn -0.0000 -0.7071 0.7071
vn -0.0000 -0.0000 -1.0000
vt 0.000031 0.687500
vt 0.000031 0.520996
vt 0.187500 0.520996
vt 0.187500 0.687500
vt 0.312500 0.791748
vt 0.250000 0.791748
vt 0.375000 0.729248
vt 0.187500 0.729248
vt 0.000031 0.729248
vt 0.125000 0.937500
vt 0.125000 0.999969
vt 0.062500 0.999969
vt 0.062500 0.937500
vt 0.375000 0.687500
vt 0.062500 0.791748
vt 0.125000 0.791748
vt 0.250000 0.937500
vt 0.312500 0.937500
s 1
usemtl MI_FancyUrn_02
f 56/1/10 55/2/10 53/3/10 54/4/10
f 7/5/2 5/6/2 6/7/2
f 5/6/2 8/8/2 6/7/2
f 4/4/1 1/8/1 2/9/1 3/1/1
f 24/10/6 21/11/6 22/12/6 23/13/6
f 12/9/3 9/1/3 10/4/3 11/8/3
f 16/7/4 15/8/4 13/4/4 14/14/4
f 28/10/3 26/13/3 27/15/3 25/16/3
f 32/17/5 30/6/5 31/5/5 29/18/5
f 36/15/1 34/16/1 35/10/1 33/13/1
f 43/5/7 41/6/7 42/8/7
f 43/5/7 42/8/7 44/7/7
f 47/16/8 45/9/8 46/8/8
f 48/15/8 45/9/8 47/16/8
f 51/15/9 49/9/9 50/8/9
f 52/16/9 51/15/9 50/8/9
f 20/7/5 18/8/5 19/4/5 17/14/5
f 38/18/4 40/17/4 39/6/4 37/5/4
