# Blender 5.0.1
# www.blender.org
mtllib BP_FancyUrn_Fat_01.mtl
o SM_FancyUrn_Fat.001
v -37.500000 -37.500004 50.000000
v -37.500000 -37.500000 -0.000002
v 37.500000 -37.500004 50.000000
v 37.500000 -37.500000 -0.000002
v -37.500000 37.500004 0.000002
v -37.500000 37.500000 50.000000
v 37.500004 37.500000 0.000002
v 37.500004 37.499996 50.000000
v 37.500004 37.500000 0.000002
v 37.500000 -37.500004 50.000000
v 37.500000 -37.500000 -0.000002
v 37.500004 37.499996 50.000000
v -37.500000 -37.500000 -0.000002
v -37.500000 -37.500004 50.000000
v -37.500000 37.500004 0.000002
v -37.500000 37.500000 50.000000
v -24.999998 -25.000002 87.500000
v 25.000000 -25.000004 87.500000
v 25.000000 24.999996 87.500000
v -25.000002 24.999996 87.500000
v -25.000002 24.999996 87.500000
v 25.000000 24.999998 50.000000
v -25.000002 24.999998 50.000000
v 25.000000 24.999996 87.500000
v -24.999998 -25.000002 87.500000
v -25.000002 24.999998 50.000000
v -25.000000 -25.000000 50.000000
v -25.000002 24.999996 87.500000
v -24.999998 -25.000002 87.500000
v 25.000000 -25.000002 50.000000
v 25.000000 -25.000004 87.500000
v -25.000000 -25.000000 50.000000
v 25.000000 -25.000004 87.500000
v 25.000000 -25.000002 50.000000
v 25.000000 24.999996 87.500000
v 25.000000 24.999998 50.000000
v -37.500000 -37.500000 -0.000002
v -37.500000 37.500004 0.000002
v 37.500000 -37.500000 -0.000002
v 37.500004 37.500000 0.000002
v -25.000002 24.999998 50.000000
v -37.500000 -37.500004 50.000000
v -25.000000 -25.000000 50.000000
v -37.500000 37.500000 50.000000
v 37.500004 37.499996 50.000000
v 25.000000 -25.000002 50.000000
v 37.500000 -37.500004 50.000000
v 25.000000 24.999998 50.000000
vn -0.0000 -1.0000 -0.0000
vn -0.0000 1.0000 -0.0000
vn 1.0000 -0.0000 -0.0000
vn -1.0000 -0.0000 -0.0000
vn -0.0000 -0.0000 1.0000
vn -0.0000 -0.0000 -1.0000
vt 0.250000 0.125000
vt 0.250000 0.000000
vt 0.416504 0.000000
vt 0.416504 0.125000
vt 0.583008 0.000000
vt 0.583008 0.125000
vt 0.250000 0.458496
vt 0.250000 0.291992
vt 0.500000 0.291992
vt 0.500000 0.458496
vt 0.416504 0.291992
vt 0.000031 0.458496
vt 0.000031 0.291992
vt 0.208252 0.500000
vt 0.041656 0.500000
vt 0.291504 0.500000
vt 0.458252 0.500000
vt 0.250000 0.041992
vt 0.000031 0.041992
s 1
usemtl WorldGridMaterial
f 24/1/2 22/2/2 23/3/2 21/4/2
f 32/2/1 30/3/1 31/4/1 29/1/1
f 28/4/4 26/3/4 27/5/4 25/6/4
f 8/7/2 7/8/2 5/9/2 6/10/2
f 20/4/5 17/11/5 18/8/5 19/1/5
f 14/7/4 16/12/4 15/13/4 13/8/4
f 4/9/1 3/10/1 1/7/1 2/8/1
f 12/7/3 10/12/3 11/13/3 9/8/3
f 34/3/3 36/5/3 35/6/3 33/4/3
f 43/14/5 41/15/5 42/7/5
f 41/15/5 44/12/5 42/7/5
f 47/12/5 45/7/5 46/15/5
f 48/14/5 46/15/5 45/7/5
f 45/7/5 44/10/5 48/16/5
f 41/17/5 48/16/5 44/10/5
f 43/16/5 42/7/5 46/17/5
f 47/10/5 46/17/5 42/7/5
f 40/18/6 39/8/6 37/13/6 38/19/6
