# Blender 5.0.1
# www.blender.org
mtllib BP_FallingBridgeBlock_9x03.mtl
o SM_RopeBridge_9x2_D_03.001
v 99.999756 -100.000038 -49.999844
v -100.000282 -100.000023 0.000125
v 99.999771 -100.000046 0.000155
v -100.000320 -100.000015 -49.999874
v -100.000328 -300.000031 0.000134
v 99.999634 -300.000031 -49.999836
v 99.999664 -300.000061 0.000164
v -100.000359 -300.000000 -49.999866
v 99.999710 -200.000031 -49.999840
v -100.000320 -100.000015 -49.999874
v 99.999756 -100.000038 -49.999844
v -100.000313 -200.000031 -49.999870
v -100.000290 -200.000031 0.000130
v 99.999664 -300.000061 0.000164
v 99.999771 -200.000046 0.000160
v -100.000328 -300.000031 0.000134
v 99.999771 -100.000046 0.000155
v -100.000282 -100.000023 0.000125
v 99.999634 -300.000031 -49.999836
v -100.000359 -300.000000 -49.999866
v -100.000282 -100.000023 0.000125
v -100.000313 -200.000031 -49.999870
v -100.000290 -200.000031 0.000130
v -100.000320 -100.000015 -49.999874
v -100.000359 -300.000000 -49.999866
v -100.000328 -300.000031 0.000134
v 99.999710 -200.000031 -49.999840
v 99.999771 -100.000046 0.000155
v 99.999771 -200.000046 0.000160
v 99.999756 -100.000038 -49.999844
v 99.999634 -300.000031 -49.999836
v 99.999664 -300.000061 0.000164
vn -0.0000 1.0000 -0.0000
vn -0.0000 -1.0000 -0.0000
vn -0.0000 -0.0000 -1.0000
vn -0.0000 -0.0000 1.0000
vn -1.0000 -0.0000 -0.0000
vn 1.0000 -0.0000 -0.0000
vt 0.187500 0.625000
vt 0.187500 0.875000
vt 0.125000 0.875000
vt 0.125000 0.625000
vt 0.062500 0.999969
vt 0.062500 0.875000
vt 0.000031 0.875000
vt 0.000031 0.999969
vt 0.312500 0.625244
vt 0.187500 0.625244
vt 0.187500 0.375488
vt 0.312500 0.375488
vt 0.312500 0.875000
vt 0.312500 0.625000
vt 0.187500 0.148926
vt 0.312500 0.148926
vt 0.312500 0.398926
vt 0.187500 0.398926
s 1
usemtl MI_Windswept_Lift
f 8/1/2 6/2/2 7/3/2 5/4/2
f 22/5/5 25/6/5 26/7/5 23/8/5
f 30/5/6 28/8/6 29/7/6 27/6/6
f 24/5/5 22/6/5 23/7/5 21/8/5
f 27/5/6 29/8/6 32/7/6 31/6/6
f 12/9/3 10/10/3 11/11/3 9/12/3
f 9/13/3 19/2/3 20/1/3 12/14/3
f 4/4/1 2/1/1 3/2/1 1/3/1
f 16/14/4 14/13/4 15/2/4 13/1/4
f 15/15/4 17/16/4 18/17/4 13/18/4
