# Blender 5.0.1
# www.blender.org
mtllib BP_FFJ_AnimLanternHang.mtl
o SK_Lantern.001
v 12.365684 -18.750000 -46.341984
v -24.640644 -18.750000 -40.277168
v -33.737865 -18.750000 -95.786652
v 3.268462 -18.750000 -101.851471
v 12.365684 18.749998 -46.341984
v -24.640644 -18.750000 -40.277168
v 12.365684 -18.750000 -46.341984
v -24.640644 18.749998 -40.277168
v 3.268462 18.749998 -101.851471
v -33.737865 18.749998 -95.786652
v -24.640644 18.749998 -40.277168
v 12.365684 18.749998 -46.341984
v 3.268462 -18.750000 -101.851471
v -33.737865 -18.750000 -95.786652
v -33.737865 18.749998 -95.786652
v 3.268462 18.749998 -101.851471
v 12.365684 -18.750000 -46.341984
v 3.268462 -18.750000 -101.851471
v 12.365684 18.749998 -46.341984
v 3.268462 18.749998 -101.851471
v -24.640644 -18.750000 -40.277168
v -33.737865 18.749998 -95.786652
v -33.737865 -18.750000 -95.786652
v -24.640644 18.749998 -40.277168
v -2.328805 3.125000 -18.604816
v -1.552537 9.375000 -12.403211
v -2.328805 9.375000 -18.604816
v -1.552537 3.125000 -12.403211
v -2.328805 -3.125000 -18.604816
v -0.776268 9.375000 -6.201605
v -1.552537 -3.125000 -12.403211
v -0.776268 3.125000 -6.201605
v -2.328805 -9.375000 -18.604816
v 0.000000 9.375000 0.000000
v -1.552537 -9.375000 -12.403211
v 0.000000 3.125000 0.000000
v -0.776268 -3.125000 -6.201605
v 0.776268 9.375000 6.201605
v -0.776268 -9.375000 -6.201605
v 0.776268 3.125000 6.201605
v 0.000000 -3.125000 0.000000
v 0.000000 -9.375000 0.000000
v 0.776268 -3.125000 6.201605
v 0.776268 -9.375000 6.201605
v -6.137479 3.125000 -43.309582
v -5.126677 9.375000 -37.141861
v -6.137479 9.375000 -43.309582
v -5.126677 3.125000 -37.141861
v -6.137479 -3.125000 -43.309582
v -4.115875 9.375000 -30.974142
v -5.126677 -3.125000 -37.141861
v -4.115875 3.125000 -30.974142
v -6.137479 -9.375000 -43.309582
v -3.105072 9.375000 -24.806421
v -5.126677 -9.375000 -37.141861
v -3.105072 3.125000 -24.806421
v -4.115875 -3.125000 -30.974142
v -2.094270 9.375000 -18.638700
v -4.115875 -9.375000 -30.974142
v -2.094270 3.125000 -18.638700
v -3.105072 -3.125000 -24.806421
v -3.105072 -9.375000 -24.806421
v -2.094270 -3.125000 -18.638700
v -2.094270 -9.375000 -18.638700
v -0.780539 -0.000000 -31.396152
v 6.197334 -0.000000 -25.970816
v 5.421066 -0.000000 -32.172421
v -0.004271 -0.000000 -25.194548
v -6.982144 -0.000000 -30.619884
v 6.973603 -0.000000 -19.769211
v -6.205876 -0.000000 -24.418280
v 0.771998 -0.000000 -18.992943
v -13.183749 -0.000000 -29.843616
v 7.749871 -0.000000 -13.567605
v -12.407481 -0.000000 -23.642012
v 1.548266 -0.000000 -12.791337
v -5.429607 -0.000000 -18.216675
v 8.526139 -0.000000 -7.366000
v -11.631213 -0.000000 -17.440405
v 2.324534 -0.000000 -6.589732
v -4.653339 -0.000000 -12.015069
v -10.854944 -0.000000 -11.238800
v -3.877071 -0.000000 -5.813463
v -10.078676 -0.000000 -5.037195
vn -0.0000 -1.0000 -0.0000
vn 0.1617 -0.0000 0.9868
vn -0.0000 1.0000 -0.0000
vn -0.1617 -0.0000 -0.9868
vn 0.9868 -0.0000 -0.1617
vn -0.9868 -0.0000 0.1617
vn -0.9923 -0.0000 0.1242
vt 0.031250 0.593750
vt 0.031235 0.562500
vt 0.062469 0.562500
vt 0.062500 0.593750
vt 0.000031 0.562500
vt 0.000031 0.531250
vt 0.031250 0.531250
vt 0.062500 0.656250
vt 0.062500 0.625000
vt 0.093750 0.625000
vt 0.093750 0.656250
vt 0.000031 0.593750
vt 0.093750 0.593750
vt 0.062500 0.500000
vt 0.062500 0.468750
vt 0.093750 0.468750
vt 0.093750 0.500000
vt 0.093750 0.687500
vt 0.312500 0.468750
vt 0.312500 0.687500
vt 0.000031 0.656250
vt 0.000031 0.625000
vt 0.031250 0.625000
vt 0.031250 0.656250
vt 0.531250 0.469238
vt 0.531250 0.687500
vt 0.312500 0.469238
vt 0.062469 0.687500
vt 0.062500 0.531250
vt 0.093750 0.531250
vt 0.093750 0.562500
vt 0.375000 0.687500
vt 0.562500 0.687500
vt 0.562500 0.999969
vt 0.375000 0.999969
vt 0.000031 0.687500
vt 0.031235 0.687500
vt 0.000031 0.999969
vt 0.000031 0.687500
vt 0.187378 0.687500
vt 0.187500 0.999969
vt 0.000031 0.500000
vt 0.031250 0.500000
vt 0.187378 0.999969
vt 0.000031 0.468750
vt 0.000031 0.437500
vt 0.031235 0.437500
vt 0.031250 0.468750
vt 0.749512 0.687500
vt 0.750000 0.999969
vt 0.062469 0.437500
vt 0.093750 0.437500
s 1
usemtl M_Lantern_RedFire
f 41/1/7 43/2/7 40/3/7 36/4/7
f 73/5/3 75/6/3 71/7/3 69/2/3
f 48/8/6 52/9/6 50/10/6 46/11/6
f 42/12/7 44/5/7 43/2/7 41/1/7
f 32/9/7 36/4/7 34/13/7 30/10/7
f 72/14/3 76/15/3 74/16/3 70/17/3
f 28/8/7 32/9/7 30/10/7 26/11/7
f 8/18/2 6/16/2 7/19/2 5/20/2
f 35/21/7 39/22/7 37/23/7 31/24/7
f 16/25/4 13/26/4 14/20/4 15/27/4
f 45/28/6 48/8/6 46/11/6 47/18/6
f 59/22/6 62/12/6 61/1/6 57/23/6
f 68/29/3 72/14/3 70/17/3 66/30/3
f 52/9/6 56/4/6 54/13/6 50/10/6
f 56/4/6 60/3/6 58/31/6 54/13/6
f 18/32/5 20/33/5 19/34/5 17/35/5
f 53/36/6 55/21/6 51/24/6 49/37/6
f 29/37/7 31/24/7 28/8/7 25/28/7
f 62/12/6 64/5/6 63/2/6 61/1/6
f 49/37/6 51/24/6 48/8/6 45/28/6
f 33/36/7 35/21/7 31/24/7 29/37/7
f 24/38/6 22/39/6 23/40/6 21/41/6
f 39/22/7 42/12/7 41/1/7 37/23/7
f 65/3/3 68/29/3 66/30/3 67/31/3
f 36/4/7 40/3/7 38/31/7 34/13/7
f 75/6/3 79/42/3 77/43/3 71/7/3
f 4/32/1 1/35/1 2/44/1 3/40/1
f 61/1/6 63/2/6 60/3/6 56/4/6
f 69/2/3 71/7/3 68/29/3 65/3/3
f 55/21/6 59/22/6 57/23/6 51/24/6
f 82/45/3 84/46/3 83/47/3 81/48/3
f 25/28/7 28/8/7 26/11/7 27/18/7
f 12/34/3 9/33/3 10/49/3 11/50/3
f 76/15/3 80/51/3 78/52/3 74/16/3
f 79/42/3 82/45/3 81/48/3 77/43/3
f 81/48/3 83/47/3 80/51/3 76/15/3
