# Blender 5.0.1
# www.blender.org
mtllib BP_FF_IndoorEntrance_New.mtl
o SM_FF_IndoorEntrance_Back.001
v -300.000000 -149.999527 99.999809
v -300.000000 -149.999557 -0.000191
v -200.000000 -149.999588 -0.000191
v -300.000000 -149.999496 199.999802
v -100.000000 -149.999619 -0.000191
v -300.000000 -149.999466 299.999817
v 0.000000 -149.999664 -0.000191
v -200.000000 -149.999435 499.999817
v -300.000000 -149.999435 399.999817
v -300.000000 -149.999390 499.999817
v -200.000000 -149.999390 599.999817
v -100.000000 -149.999435 599.999817
v 0.000000 -149.999466 599.999817
v 300.000000 -149.999664 299.999817
v 100.000000 -149.999496 599.999817
v 300.000000 -149.999695 199.999802
v 100.000000 -149.999695 -0.000191
v 300.000000 -149.999725 99.999809
v 200.000000 -149.999725 -0.000191
v 300.000000 -149.999756 -0.000191
v 400.000000 -149.999664 399.999817
v 400.000000 -149.999695 299.999817
v 300.000000 -149.999588 499.999817
v 400.000000 -149.999619 499.999817
v 200.000000 -149.999527 599.999817
v 300.000000 -149.999557 599.999817
vn -0.0000 -1.0000 -0.0000
vt 0.000031 0.000000
s 1
usemtl MI_FF_OutdoorEntrance_BL
f 3/1/1 1/1/1 2/1/1
f 1/1/1 3/1/1 4/1/1
f 3/1/1 5/1/1 4/1/1
f 4/1/1 5/1/1 6/1/1
f 5/1/1 7/1/1 6/1/1
f 8/1/1 6/1/1 7/1/1
f 9/1/1 6/1/1 8/1/1
f 9/1/1 8/1/1 10/1/1
f 12/1/1 11/1/1 8/1/1
f 12/1/1 8/1/1 13/1/1
f 13/1/1 8/1/1 14/1/1
f 8/1/1 7/1/1 14/1/1
f 15/1/1 13/1/1 14/1/1
f 16/1/1 14/1/1 7/1/1
f 17/1/1 16/1/1 7/1/1
f 18/1/1 16/1/1 17/1/1
f 19/1/1 18/1/1 17/1/1
f 18/1/1 19/1/1 20/1/1
f 22/1/1 21/1/1 14/1/1
f 21/1/1 23/1/1 14/1/1
f 14/1/1 23/1/1 15/1/1
f 23/1/1 21/1/1 24/1/1
f 25/1/1 15/1/1 23/1/1
f 25/1/1 23/1/1 26/1/1
