# Blender 5.0.1
# www.blender.org
mtllib BP_Furnace.mtl
o SM_Furnace.001
v -121.472870 361.561768 -12.638062
v 141.027145 361.562012 -62.638031
v -121.472855 361.561768 -62.638062
v 141.027130 361.561981 -12.638031
v 141.027481 -38.438019 -12.638290
v -121.472504 -38.438217 -62.638321
v 141.027496 -38.437988 -62.638290
v -121.472519 -38.438248 -12.638321
v -121.472519 -38.438248 -12.638321
v -121.472855 361.561768 -62.638062
v -121.472504 -38.438217 -62.638321
v -121.472870 361.561768 -12.638062
v -121.472855 361.561768 -62.638062
v 141.027496 -38.437988 -62.638290
v -121.472504 -38.438217 -62.638321
v 141.027145 361.562012 -62.638031
v 141.027130 361.561981 -12.638031
v 141.027496 -38.437988 -62.638290
v 141.027145 361.562012 -62.638031
v 141.027481 -38.438019 -12.638290
v -121.472519 -38.438248 -12.638321
v 141.027130 361.561981 -12.638031
v -121.472870 361.561768 -12.638062
v 141.027481 -38.438019 -12.638290
v -40.222610 32.272331 262.361725
v 59.777458 -38.438232 191.651001
v -40.222542 -38.438309 191.651001
v 59.777390 32.272415 262.361725
v 59.777439 -38.438324 333.072388
v -40.222488 -109.149048 262.361633
v 59.777512 -109.148956 262.361633
v -40.222561 -38.438416 333.072388
v -40.222561 -38.438416 333.072388
v -40.222542 -38.438309 191.651001
v -40.222488 -109.149048 262.361633
v -40.222610 32.272331 262.361725
v -40.222542 -38.438309 191.651001
v 59.777512 -109.148956 262.361633
v -40.222488 -109.149048 262.361633
v 59.777458 -38.438232 191.651001
v 59.777390 32.272415 262.361725
v 59.777512 -109.148956 262.361633
v 59.777458 -38.438232 191.651001
v 59.777439 -38.438324 333.072388
v -40.222561 -38.438416 333.072388
v 59.777390 32.272415 262.361725
v -40.222610 32.272331 262.361725
v 59.777439 -38.438324 333.072388
v -96.472855 336.561707 102.986938
v -77.722839 336.561798 -15.763077
v -96.472839 336.561768 -15.763077
v -77.722855 336.561707 102.986938
v -77.722534 -38.438293 102.986694
v -96.472519 -38.438232 -15.763321
v -77.722519 -38.438202 -15.763321
v -96.472534 -38.438309 102.986694
v -96.472534 -38.438309 102.986694
v -96.472839 336.561768 -15.763077
v -96.472519 -38.438232 -15.763321
v -96.472855 336.561707 102.986938
v -96.472839 336.561768 -15.763077
v -77.722519 -38.438202 -15.763321
v -96.472519 -38.438232 -15.763321
v -77.722839 336.561798 -15.763077
v -77.722855 336.561707 102.986938
v -77.722519 -38.438202 -15.763321
v -77.722839 336.561798 -15.763077
v -77.722534 -38.438293 102.986694
v -96.472534 -38.438309 102.986694
v -77.722855 336.561707 102.986938
v -96.472855 336.561707 102.986938
v -77.722534 -38.438293 102.986694
v 97.277145 336.561859 109.236938
v 116.027161 336.561951 -9.513046
v 97.277161 336.561951 -9.513046
v 116.027145 336.561890 109.236938
v 116.027466 -38.438126 109.236694
v 97.277481 -38.438065 -9.513290
v 116.027481 -38.438049 -9.513290
v 97.277466 -38.438141 109.236694
v 97.277466 -38.438141 109.236694
v 97.277161 336.561951 -9.513046
v 97.277481 -38.438065 -9.513290
v 97.277145 336.561859 109.236938
v 97.277161 336.561951 -9.513046
v 116.027481 -38.438049 -9.513290
v 97.277481 -38.438065 -9.513290
v 116.027161 336.561951 -9.513046
v 116.027145 336.561890 109.236938
v 116.027481 -38.438049 -9.513290
v 116.027161 336.561951 -9.513046
v 116.027466 -38.438126 109.236694
v 97.277466 -38.438141 109.236694
v 116.027145 336.561890 109.236938
v 97.277145 336.561859 109.236938
v 116.027466 -38.438126 109.236694
v -96.472862 336.561646 152.986938
v 116.027145 336.561890 102.986938
v 116.027138 336.561829 152.986938
v 116.027458 -38.438156 152.986694
v 116.027466 -38.438126 102.986694
v -96.472542 -38.438339 152.986694
v -96.472542 -38.438339 152.986694
v -96.472862 336.561646 152.986938
v -96.472855 336.561707 102.986938
v 116.027466 -38.438126 102.986694
v -96.472534 -38.438309 102.986694
v 116.027145 336.561890 102.986938
v 116.027138 336.561829 152.986938
v 116.027466 -38.438126 102.986694
v 116.027145 336.561890 102.986938
v 116.027458 -38.438156 152.986694
v -96.472542 -38.438339 152.986694
v 116.027138 336.561829 152.986938
v -96.472862 336.561646 152.986938
v 116.027458 -38.438156 152.986694
v -96.472748 186.561584 265.486847
v 116.027267 186.561844 152.986847
v -96.472733 186.561661 152.986847
v 116.027252 186.561768 265.486847
v 116.027443 -38.438232 265.486694
v -96.472557 -38.438416 265.486694
v -96.472557 -38.438416 265.486694
v -96.472733 186.561661 152.986847
v -96.472748 186.561584 265.486847
v -96.472733 186.561661 152.986847
v 116.027458 -38.438156 152.986694
v -96.472542 -38.438339 152.986694
v 116.027267 186.561844 152.986847
v 116.027252 186.561768 265.486847
v 116.027267 186.561844 152.986847
v 116.027443 -38.438232 265.486694
v -96.472557 -38.438416 265.486694
v 116.027252 186.561768 265.486847
v -96.472748 186.561584 265.486847
v 116.027443 -38.438232 265.486694
vn -0.0000 1.0000 -0.0000
vn -0.0000 -1.0000 -0.0000
vn -1.0000 -0.0000 -0.0000
vn -0.0000 -0.0000 -1.0000
vn 1.0000 -0.0000 -0.0000
vn -0.0000 -0.0000 1.0000
vn -0.0000 0.7071 -0.7071
vn -0.0000 -0.7071 0.7071
vn -0.0000 -0.7071 -0.7071
vn -0.0000 0.7071 0.7071
vt 0.250000 0.703125
vt 0.183594 0.703125
vt 0.183594 0.585938
vt 0.250000 0.585938
vt 0.537109 0.882812
vt 0.531250 0.882812
vt 0.531250 0.845703
vt 0.537109 0.845703
vt 0.240234 0.740234
vt 0.123047 0.740234
vt 0.123047 0.703125
vt 0.240234 0.703125
vt 0.125000 0.968750
vt 0.093750 0.968750
vt 0.093750 0.937500
vt 0.125000 0.937500
vt 0.414062 0.882812
vt 0.414062 0.845703
vt 0.093750 0.999969
vt 0.062500 0.999969
vt 0.062500 0.968750
vt 0.332031 0.875000
vt 0.207031 0.875000
vt 0.207031 0.859375
vt 0.332031 0.859375
vt 0.335938 0.845703
vt 0.269531 0.845703
vt 0.269531 0.775391
vt 0.335938 0.775391
vt 0.031250 0.968750
vt 0.000031 0.968750
vt 0.000031 0.937500
vt 0.031250 0.937500
vt 0.414062 0.875000
vt 0.414062 0.859375
vt 0.117188 0.740234
vt 0.117188 0.703125
vt 0.125000 0.875000
vt 0.000031 0.875000
vt 0.000031 0.859375
vt 0.125000 0.859375
vt 0.660156 0.882812
vt 0.654297 0.882812
vt 0.654297 0.845703
vt 0.660156 0.845703
vt 0.128906 0.857422
vt 0.123047 0.857422
vt 0.128906 0.740234
vt 0.000031 0.740234
vt 0.000031 0.703125
vt 0.203125 0.775391
vt 0.203125 0.740234
vt 0.269531 0.740234
vt 0.406250 0.775391
vt 0.339844 0.775391
vt 0.339844 0.740234
vt 0.406250 0.740234
vt 0.117188 0.857422
vt 0.117188 0.585938
vt 0.289062 0.999969
vt 0.207031 0.999969
vt 0.289062 0.875000
vt 0.125000 0.999969
vt 0.246094 0.740234
vt 0.246094 0.703125
vt 0.537109 0.999969
vt 0.531250 0.999969
vt 0.031250 0.999969
vt 0.367188 0.585938
vt 0.300781 0.585938
vt 0.300781 0.570312
vt 0.367188 0.570312
vt 0.117188 0.570312
vt 0.183594 0.570312
vt 0.062500 0.937500
vt 0.000031 0.585938
vt 0.000031 0.570312
vt 0.542969 0.999969
vt 0.542969 0.882812
vt 0.132812 0.775391
vt 0.132812 0.740234
vt 0.203125 0.845703
s 1
usemtl material_0
f 105/1/4 108/2/4 106/3/4 107/4/4
f 73/5/1 76/6/1 74/7/1 75/8/1
f 57/9/3 60/10/3 58/11/3 59/12/3
f 29/13/8 32/14/8 30/15/8 31/16/8
f 89/6/5 92/17/5 90/18/5 91/7/5
f 37/19/9 40/20/9 38/21/9 39/14/9
f 9/22/3 12/23/3 10/24/3 11/25/3
f 126/26/4 129/27/4 127/28/4 128/29/4
f 41/30/5 44/31/5 42/32/5 43/33/5
f 5/34/2 8/22/2 6/25/2 7/35/2
f 49/10/1 52/36/1 50/37/1 51/11/1
f 17/38/5 20/39/5 18/40/5 19/41/5
f 77/42/2 80/43/2 78/44/2 79/45/2
f 61/46/4 64/47/4 62/10/4 63/48/4
f 65/36/5 68/49/5 66/50/5 67/37/5
f 1/23/1 4/38/1 2/41/1 3/24/1
f 117/28/1 120/51/1 118/52/1 119/53/1
f 121/54/2 122/55/2 102/56/2 100/57/2
f 69/47/6 72/58/6 70/36/6 71/10/6
f 113/2/6 116/37/6 114/59/6 115/3/6
f 13/60/4 16/61/4 14/23/4 15/62/4
f 21/61/6 24/63/6 22/38/6 23/23/6
f 53/64/2 56/9/2 54/12/2 55/65/2
f 81/43/3 84/5/3 82/8/3 83/44/3
f 93/66/6 96/67/6 94/6/6 95/5/6
f 45/20/10 48/68/10 46/30/10 47/21/10
f 100/69/2 102/70/2 56/71/2 101/72/2
f 97/3/1 99/59/1 98/73/1 49/74/1
f 33/14/3 36/21/3 34/75/3 35/15/3
f 123/55/3 125/28/3 124/53/3 103/56/3
f 25/21/7 28/30/7 26/33/7 27/75/7
f 109/59/5 112/76/5 110/77/5 111/73/5
f 103/70/3 104/3/3 60/74/3 57/71/3
f 85/78/4 88/66/4 86/5/4 87/79/4
f 130/51/5 132/80/5 112/81/5 131/52/5
f 133/27/6 136/82/6 134/51/6 135/28/6
