# Blender 5.0.1
# www.blender.org
mtllib BP_Flowerpatch_03.mtl
o SM_Flowerpatch_03.001
v 12.500000 -53.912209 31.162434
v 28.125000 -37.863434 36.226025
v 12.500000 -37.863434 36.226025
v 28.125000 -53.444649 37.394920
v -3.125000 -37.863434 36.226025
v 28.125000 -69.025864 38.563816
v -3.125000 -53.444649 37.394920
v 12.500000 -69.025871 38.563816
v -3.125000 -69.025864 38.563816
v 25.000000 -114.026688 29.806824
v 9.375000 -110.085991 46.167572
v 9.375000 -119.124779 33.422337
v 25.000000 -110.085991 46.167572
v 9.375000 -128.163574 20.677113
v 40.625000 -110.085991 46.167572
v 25.000000 -128.163574 20.677113
v 40.625000 -119.124779 33.422340
v 40.625000 -128.163574 20.677113
v -71.087791 -37.500000 31.162434
v -87.136566 -21.875000 36.226025
v -87.136566 -37.500000 36.226025
v -71.555351 -21.875000 37.394920
v -87.136566 -53.125000 36.226025
v -55.974133 -21.875000 38.563816
v -71.555351 -53.125000 37.394920
v -55.974133 -37.500000 38.563816
v -55.974133 -53.125000 38.563816
v -81.247269 -98.177132 23.768345
v -65.632988 -114.853165 21.434280
v -65.621674 -101.287575 29.187677
v -81.257980 -114.844086 21.441183
v -65.610367 -87.721977 36.941082
v -96.882980 -114.835007 21.448088
v -81.235367 -87.712898 36.947983
v -96.871674 -101.269409 29.201485
v -96.860359 -87.703819 36.954887
v -110.901688 -62.500000 29.806824
v -106.960991 -46.875000 46.167572
v -115.999779 -46.875000 33.422337
v -106.960991 -62.500000 46.167572
v -125.038567 -46.875000 20.677113
v -106.960991 -78.125000 46.167572
v -125.038567 -62.500000 20.677113
v -115.999779 -78.125000 33.422340
v -125.038567 -78.125000 20.677113
v -81.250000 71.087791 31.162434
v -65.625000 87.136566 36.226025
v -81.250000 87.136566 36.226025
v -65.625000 71.555351 37.394920
v -96.875000 87.136566 36.226025
v -65.625000 55.974133 38.563816
v -96.875000 71.555351 37.394920
v -81.250000 55.974133 38.563816
v -96.875000 55.974133 38.563816
v 75.111298 42.020164 23.726072
v 59.485664 58.686928 21.401772
v 59.511875 45.151810 29.208218
v 75.110512 58.677876 21.333612
v 59.538086 31.616692 37.014664
v 90.735359 58.668823 21.265455
v 75.162941 31.607639 36.946507
v 90.761574 45.133709 29.071901
v 90.787788 31.598591 36.878349
v -35.677132 24.997269 23.768345
v -52.353165 9.382987 21.434280
v -38.787575 9.371677 29.187677
v -52.344086 25.007982 21.441183
v -25.221979 9.360368 36.941082
v -52.335007 40.632980 21.448088
v -25.212896 24.985363 36.947983
v -38.769413 40.621670 29.201485
v -25.203817 40.610359 36.954887
v 17.151684 25.000000 29.806824
v 13.210993 9.375000 46.167572
v 22.249779 9.375000 33.422337
v 13.210993 25.000000 46.167572
v 31.288567 9.375000 20.677113
v 13.210993 40.625000 46.167572
v 31.288567 25.000000 20.677113
v 22.249777 40.625000 33.422340
v 31.288567 40.625000 20.677113
v 49.981651 -82.759071 23.674290
v 65.598068 -99.414169 21.208717
v 65.602432 -85.916733 29.080168
v 49.973068 -99.405090 21.201815
v 65.606796 -72.419289 36.951618
v 34.348072 -99.396011 21.194910
v 49.981804 -72.410210 36.944717
v 34.352440 -85.898575 29.066360
v 34.356804 -72.401131 36.937813
v -25.000000 -17.151684 29.806824
v -40.625000 -13.210993 46.167572
v -40.625000 -22.249779 33.422337
v -25.000000 -13.210993 46.167572
v -40.625000 -31.288567 20.677113
v -9.375000 -13.210993 46.167572
v -25.000000 -31.288567 20.677113
v -9.375000 -22.249777 33.422340
v -9.375000 -31.288567 20.677113
v -42.151684 -75.000000 29.806824
v -38.210991 -59.375000 46.167572
v -47.249779 -59.375000 33.422337
v -38.210991 -75.000000 46.167572
v -56.288567 -59.375000 20.677113
v -38.210991 -90.625000 46.167572
v -56.288567 -75.000000 20.677113
v -47.249779 -90.625000 33.422340
v -56.288567 -90.625000 20.677113
v 60.884071 -18.768349 23.674290
v 77.539169 -3.151935 21.208717
v 64.041733 -3.147568 29.080168
v 77.530090 -18.776930 21.201815
v 50.544292 -3.143202 36.951618
v 77.521011 -34.401928 21.194910
v 50.535210 -18.768198 36.944717
v 64.023575 -34.397560 29.066360
v 50.526131 -34.393196 36.937813
v -18.750000 66.412209 31.162434
v -34.375000 50.363434 36.226025
v -18.750000 50.363434 36.226025
v -34.375000 65.944649 37.394920
v -3.125000 50.363434 36.226025
v -34.375000 81.525864 38.563816
v -3.125000 65.944649 37.394920
v -18.750000 81.525871 38.563816
v -3.125000 81.525864 38.563816
v -112.444901 56.250000 29.806824
v -108.504211 71.875000 46.167572
v -117.542999 71.875000 33.422337
v -108.504211 56.250000 46.167572
v -126.581787 71.875000 20.677113
v -108.504211 40.625000 46.167572
v -126.581787 56.250000 20.677113
v -117.542999 40.625000 33.422340
v -126.581787 40.625000 20.677113
v 9.375000 -53.912209 31.162434
v 9.375000 -56.250000 0.000000
v 15.625000 -53.912209 31.162434
v 15.625000 -56.250000 0.000000
v -15.625000 66.412209 31.162434
v -15.625000 68.750000 -0.000000
v -21.875000 66.412209 31.162434
v -21.875000 68.750000 -0.000000
v -71.087791 -40.625000 31.162434
v -68.750000 -40.625000 0.000000
v -71.087791 -34.375000 31.162434
v -68.750000 -34.375000 0.000000
v -84.375000 71.087791 31.162434
v -84.375000 68.750000 -0.000000
v -78.125000 71.087791 31.162434
v -78.125000 68.750000 -0.000000
v 75.104988 43.644722 21.934582
v 75.115295 40.504738 25.044508
v 75.087456 40.534775 18.794643
v 75.098358 37.394794 21.904572
v 75.059998 34.314888 12.514735
v 75.056259 28.064959 12.484711
v 75.027039 28.094997 6.234850
v 75.030777 34.344925 6.264875
v 74.998184 28.125000 -0.001381
v 75.001816 34.375000 0.001381
v 59.375000 -18.767178 25.000000
v 59.375000 -18.763823 18.750000
v 62.500000 -18.769058 21.875002
v 56.250000 -18.762541 21.875002
v 53.125000 -18.760969 12.500000
v 46.875000 -18.757349 12.499999
v 53.125000 -18.756233 6.250000
v 46.875000 -18.752613 6.250000
v 46.875031 -18.748190 0.013632
v 53.124969 -18.751810 -0.013632
v 49.982822 -81.250000 25.000000
v 49.986176 -81.250000 18.750000
v 49.980942 -84.375000 21.875002
v 49.987457 -78.125000 21.875002
v 49.989029 -75.000000 12.500000
v 49.992649 -68.750000 12.499999
v 49.993767 -75.000000 6.250000
v 49.997387 -68.750000 6.250000
v 50.001812 -68.750031 0.013632
v 49.998192 -74.999969 -0.013632
v -81.244926 -96.656555 25.080837
v -81.247124 -96.711075 18.831074
v -81.249573 -99.808693 21.983221
v -81.243080 -93.558929 21.928694
v -81.249847 -90.515839 12.526791
v -81.246254 -84.266075 12.472264
v -81.250671 -90.570358 6.277027
v -81.247070 -84.320595 6.222500
v -81.248192 -84.375031 -0.013632
v -81.251808 -90.624969 0.013632
v -34.375000 -75.000000 18.750000
v -40.625000 -75.000000 31.250000
v -43.750000 -75.000000 28.125000
v -28.125000 -75.000000 18.750000
v -28.125000 -75.000000 0.000000
v -34.375000 -75.000000 0.000000
v -25.000000 -9.375000 18.750000
v -25.000000 -15.625000 31.250000
v -25.000000 -18.750000 28.125000
v -25.000000 -3.125000 18.750000
v -25.000000 -3.125000 0.000000
v -25.000000 -9.375000 0.000000
v -103.125000 -62.500000 18.750000
v -109.375000 -62.500000 31.250000
v -112.500000 -62.500000 28.125000
v -96.875000 -62.500000 18.750000
v -96.875000 -62.500000 0.000000
v -103.125000 -62.500000 0.000000
v 25.000000 -106.250000 18.750000
v 25.000000 -112.500000 31.250000
v 25.000000 -115.625000 28.125000
v 25.000000 -100.000000 18.750000
v 25.000000 -100.000000 0.000000
v 25.000000 -106.250000 0.000000
v 9.375000 25.000000 18.750000
v 15.625000 25.000000 31.250000
v 18.750000 25.000000 28.125000
v 3.125000 25.000000 18.750000
v 3.125000 25.000000 -0.000000
v 9.375000 25.000000 -0.000000
v -28.070358 25.000668 6.277027
v -21.875031 24.998190 -0.013632
v -28.124969 25.001810 0.013632
v -21.820597 24.997072 6.222500
v -21.766073 24.996254 12.472264
v -28.015837 24.999849 12.526791
v -31.058933 24.993078 21.928694
v -34.211075 24.997124 18.831074
v -37.308693 24.999569 21.983221
v -34.156555 24.994925 25.080837
v -104.668213 56.250000 18.750000
v -110.918213 56.250000 31.250000
v -114.043213 56.250000 28.125000
v -98.418213 56.250000 18.750000
v -98.418213 56.250000 -0.000000
v -104.668213 56.250000 -0.000000
vn -0.0000 0.0748 0.9972
vn -0.1925 -0.1199 0.9740
vn -0.0000 -0.3009 0.9537
vn -0.3714 0.0695 0.9259
vn 0.1925 -0.1199 0.9740
vn -0.1925 0.2639 0.9452
vn 0.3714 0.0695 0.9259
vn -0.0000 0.4398 0.8981
vn 0.1925 0.2639 0.9452
vn -0.0000 -0.8157 0.5785
vn 0.1924 -0.8962 0.3997
vn 0.3714 -0.7574 0.5371
vn -0.0000 -0.9722 0.2342
vn 0.1924 -0.6736 0.7136
vn -0.1925 -0.8962 0.3997
vn -0.0000 -0.5425 0.8400
vn -0.3714 -0.7574 0.5371
vn -0.1924 -0.6736 0.7136
vn -0.0748 -0.0000 0.9972
vn 0.1199 -0.1925 0.9740
vn 0.3009 -0.0000 0.9537
vn -0.0695 -0.3714 0.9259
vn 0.1199 0.1925 0.9740
vn -0.2639 -0.1925 0.9452
vn -0.0695 0.3714 0.9259
vn -0.4398 -0.0000 0.8981
vn -0.2639 0.1924 0.9452
vn 0.0001 -0.4962 0.8682
vn -0.1922 -0.3103 0.9310
vn -0.3713 -0.4605 0.8063
vn 0.0004 -0.1383 0.9904
vn -0.1925 -0.6445 0.7400
vn 0.1927 -0.3105 0.9308
vn -0.0002 -0.7832 0.6218
vn 0.3715 -0.4609 0.8059
vn 0.1924 -0.6447 0.7398
vn -0.8157 -0.0000 0.5785
vn -0.8962 -0.1925 0.3997
vn -0.7574 -0.3714 0.5371
vn -0.9722 -0.0000 0.2342
vn -0.6736 -0.1925 0.7136
vn -0.8962 0.1925 0.3997
vn -0.5425 -0.0000 0.8400
vn -0.7574 0.3714 0.5371
vn -0.6736 0.1925 0.7136
vn 0.0041 0.4996 0.8662
vn 0.1967 0.3139 0.9288
vn 0.3752 0.4637 0.8027
vn 0.0044 0.1422 0.9898
vn 0.1960 0.6474 0.7365
vn -0.1882 0.3142 0.9305
vn 0.0032 0.7856 0.6187
vn -0.3676 0.4641 0.8059
vn -0.1889 0.6476 0.7382
vn -0.4962 -0.0001 0.8682
vn -0.3103 0.1922 0.9310
vn -0.4605 0.3713 0.8063
vn -0.1383 -0.0004 0.9904
vn -0.6445 0.1925 0.7400
vn -0.3105 -0.1927 0.9308
vn -0.7832 0.0002 0.6218
vn -0.4609 -0.3715 0.8059
vn -0.6447 -0.1924 0.7398
vn 0.8157 -0.0000 0.5785
vn 0.8962 0.1925 0.3997
vn 0.7574 0.3714 0.5371
vn 0.9722 -0.0000 0.2342
vn 0.6736 0.1925 0.7136
vn 0.8962 -0.1925 0.3997
vn 0.5425 -0.0000 0.8400
vn 0.7574 -0.3714 0.5371
vn 0.6736 -0.1925 0.7136
vn -0.0007 -0.5038 0.8638
vn -0.1930 -0.3184 0.9281
vn -0.3720 -0.4675 0.8019
vn -0.0005 -0.1469 0.9891
vn -0.1932 -0.6509 0.7342
vn 0.1919 -0.3186 0.9283
vn -0.0007 -0.7886 0.6150
vn 0.3708 -0.4680 0.8022
vn 0.1917 -0.6511 0.7344
vn 0.1925 -0.6736 0.7136
vn -0.1925 -0.6736 0.7136
vn 0.5038 -0.0007 0.8638
vn 0.3184 -0.1930 0.9281
vn 0.4675 -0.3720 0.8019
vn 0.1469 -0.0005 0.9891
vn 0.6509 -0.1932 0.7342
vn 0.3186 0.1919 0.9283
vn 0.7886 -0.0007 0.6150
vn 0.4680 0.3708 0.8022
vn 0.6511 0.1917 0.7344
vn -0.0000 -0.0748 0.9972
vn 0.1925 0.1199 0.9740
vn -0.0000 0.3009 0.9537
vn 0.3714 -0.0695 0.9259
vn -0.1925 0.1199 0.9740
vn 0.1925 -0.2639 0.9452
vn -0.3714 -0.0695 0.9259
vn -0.0000 -0.4398 0.8981
vn -0.1925 -0.2639 0.9452
vn -0.0000 -0.9972 0.0748
vn -0.0000 0.9972 0.0748
vn 0.9972 -0.0000 0.0748
vn 1.0000 -0.0010 -0.0045
vn 1.0000 -0.0007 -0.0042
vn 1.0000 -0.0008 -0.0042
vn 1.0000 -0.0006 -0.0042
vn 1.0000 -0.0006 -0.0044
vn 1.0000 -0.0006 -0.0047
vn 1.0000 -0.0006 -0.0046
vn -0.0010 -1.0000 -0.0005
vn -0.0007 -1.0000 -0.0003
vn -0.0008 -1.0000 -0.0003
vn -0.0006 -1.0000 -0.0003
vn -0.0006 -1.0000 -0.0005
vn -0.0006 -1.0000 -0.0007
vn -1.0000 0.0010 -0.0005
vn -1.0000 0.0007 -0.0003
vn -1.0000 0.0008 -0.0003
vn -1.0000 0.0006 -0.0003
vn -1.0000 0.0006 -0.0005
vn -1.0000 0.0006 -0.0007
vn -1.0000 0.0010 0.0003
vn -1.0000 0.0007 0.0006
vn -1.0000 0.0008 0.0006
vn -1.0000 0.0006 0.0006
vn -1.0000 0.0006 0.0004
vn -1.0000 0.0006 0.0002
vn -0.0000 -1.0000 -0.0000
vn 1.0000 -0.0000 -0.0000
vn -0.0000 1.0000 -0.0000
vn 0.0006 1.0000 0.0002
vn 0.0006 1.0000 0.0004
vn 0.0006 1.0000 0.0006
vn 0.0008 1.0000 0.0006
vn 0.0007 1.0000 0.0006
vn 0.0010 1.0000 0.0003
vt 0.158691 0.999969
vt 0.158691 0.843750
vt 0.312500 0.999969
vt 0.312500 0.843750
vt 0.000031 0.999969
vt 0.312500 0.687500
vt 0.000031 0.843750
vt 0.158691 0.687500
vt 0.000031 0.687500
vt 1.000000 0.000000
vt 1.000000 0.999031
vt 0.000031 0.999031
vt 0.000031 0.000000
vt 0.000031 0.250000
vt 1.000000 0.250000
vt 1.000000 0.500000
vt 0.000031 0.500000
vt 1.000000 0.624512
vt 0.000031 0.624512
vt 0.000031 0.749512
vt 1.000000 0.749512
s 1
usemtl M_Flower_Nicolos
f 3/1/3 1/2/1 2/3/2
f 2/3/2 1/2/1 4/4/4
f 3/1/3 5/5/5 1/2/1
f 4/4/4 1/2/1 6/6/6
f 5/5/5 7/7/7 1/2/1
f 1/2/1 8/8/8 6/6/6
f 7/7/7 9/9/9 1/2/1
f 1/2/1 9/9/9 8/8/8
f 12/1/12 10/2/10 11/3/11
f 11/3/11 10/2/10 13/4/13
f 12/1/12 14/5/14 10/2/10
f 13/4/13 10/2/10 15/6/15
f 14/5/14 16/7/16 10/2/10
f 10/2/10 17/8/17 15/6/15
f 16/7/16 18/9/18 10/2/10
f 10/2/10 18/9/18 17/8/17
f 21/1/21 19/2/19 20/3/20
f 20/3/20 19/2/19 22/4/22
f 21/1/21 23/5/23 19/2/19
f 22/4/22 19/2/19 24/6/24
f 23/5/23 25/7/25 19/2/19
f 19/2/19 26/8/26 24/6/24
f 25/7/25 27/9/27 19/2/19
f 19/2/19 27/9/27 26/8/26
f 30/1/30 28/2/28 29/3/29
f 29/3/29 28/2/28 31/4/31
f 30/1/30 32/5/32 28/2/28
f 31/4/31 28/2/28 33/6/33
f 32/5/32 34/7/34 28/2/28
f 28/2/28 35/8/35 33/6/33
f 34/7/34 36/9/36 28/2/28
f 28/2/28 36/9/36 35/8/35
f 39/1/39 37/2/37 38/3/38
f 38/3/38 37/2/37 40/4/40
f 39/1/39 41/5/41 37/2/37
f 40/4/40 37/2/37 42/6/42
f 41/5/41 43/7/43 37/2/37
f 37/2/37 44/8/44 42/6/42
f 43/7/43 45/9/45 37/2/37
f 37/2/37 45/9/45 44/8/44
f 48/1/3 46/2/1 47/3/2
f 47/3/2 46/2/1 49/4/4
f 48/1/3 50/5/5 46/2/1
f 49/4/4 46/2/1 51/6/6
f 50/5/5 52/7/7 46/2/1
f 46/2/1 53/8/8 51/6/6
f 52/7/7 54/9/9 46/2/1
f 46/2/1 54/9/9 53/8/8
f 57/1/48 55/2/46 56/3/47
f 56/3/47 55/2/46 58/4/49
f 57/1/48 59/5/50 55/2/46
f 58/4/49 55/2/46 60/6/51
f 59/5/50 61/7/52 55/2/46
f 55/2/46 62/8/53 60/6/51
f 61/7/52 63/9/54 55/2/46
f 55/2/46 63/9/54 62/8/53
f 66/1/57 64/2/55 65/3/56
f 65/3/56 64/2/55 67/4/58
f 66/1/57 68/5/59 64/2/55
f 67/4/58 64/2/55 69/6/60
f 68/5/59 70/7/61 64/2/55
f 64/2/55 71/8/62 69/6/60
f 70/7/61 72/9/63 64/2/55
f 64/2/55 72/9/63 71/8/62
f 75/1/66 73/2/64 74/3/65
f 74/3/65 73/2/64 76/4/67
f 75/1/66 77/5/68 73/2/64
f 76/4/67 73/2/64 78/6/69
f 77/5/68 79/7/70 73/2/64
f 73/2/64 80/8/71 78/6/69
f 79/7/70 81/9/72 73/2/64
f 73/2/64 81/9/72 80/8/71
f 84/1/75 82/2/73 83/3/74
f 83/3/74 82/2/73 85/4/76
f 84/1/75 86/5/77 82/2/73
f 85/4/76 82/2/73 87/6/78
f 86/5/77 88/7/79 82/2/73
f 82/2/73 89/8/80 87/6/78
f 88/7/79 90/9/81 82/2/73
f 82/2/73 90/9/81 89/8/80
f 93/1/12 91/2/10 92/3/11
f 92/3/11 91/2/10 94/4/13
f 93/1/12 95/5/82 91/2/10
f 94/4/13 91/2/10 96/6/15
f 95/5/82 97/7/16 91/2/10
f 91/2/10 98/8/17 96/6/15
f 97/7/16 99/9/83 91/2/10
f 91/2/10 99/9/83 98/8/17
f 102/1/39 100/2/37 101/3/38
f 101/3/38 100/2/37 103/4/40
f 102/1/39 104/5/41 100/2/37
f 103/4/40 100/2/37 105/6/42
f 104/5/41 106/7/43 100/2/37
f 100/2/37 107/8/44 105/6/42
f 106/7/43 108/9/45 100/2/37
f 100/2/37 108/9/45 107/8/44
f 111/1/86 109/2/84 110/3/85
f 110/3/85 109/2/84 112/4/87
f 111/1/86 113/5/88 109/2/84
f 112/4/87 109/2/84 114/6/89
f 113/5/88 115/7/90 109/2/84
f 109/2/84 116/8/91 114/6/89
f 115/7/90 117/9/92 109/2/84
f 109/2/84 117/9/92 116/8/91
f 120/1/95 118/2/93 119/3/94
f 119/3/94 118/2/93 121/4/96
f 120/1/95 122/5/97 118/2/93
f 121/4/96 118/2/93 123/6/98
f 122/5/97 124/7/99 118/2/93
f 118/2/93 125/8/100 123/6/98
f 124/7/99 126/9/101 118/2/93
f 118/2/93 126/9/101 125/8/100
f 129/1/39 127/2/37 128/3/38
f 128/3/38 127/2/37 130/4/40
f 129/1/39 131/5/41 127/2/37
f 130/4/40 127/2/37 132/6/42
f 131/5/41 133/7/43 127/2/37
f 127/2/37 134/8/44 132/6/42
f 133/7/43 135/9/45 127/2/37
f 127/2/37 135/9/45 134/8/44
usemtl M_FlowerRoot
f 151/10/102 150/11/102 148/12/102 149/13/102
f 169/14/117 168/15/117 166/16/115 167/17/116
f 209/13/130 208/10/130 207/18/130 204/19/130
f 147/10/104 146/11/104 144/12/104 145/13/104
f 231/12/138 228/20/136 229/21/137 230/11/138
f 154/21/106 155/20/107 156/16/108
f 156/16/108 155/20/107 157/17/109
f 222/15/133 227/16/135 226/17/134 225/14/133
f 171/10/117 168/15/117 169/14/117 170/13/117
f 185/20/126 183/21/125 184/11/124 182/12/124
f 165/20/114 166/16/115 163/21/113
f 167/17/116 166/16/115 165/20/114
f 179/14/123 178/15/123 176/16/121 177/17/122
f 181/10/123 178/15/123 179/14/123 180/13/123
f 165/20/114 163/21/113 164/11/112 162/12/112
f 175/20/120 176/16/121 173/21/119
f 176/16/121 175/20/120 177/17/122
f 159/15/110 156/16/108 157/17/109 158/14/110
f 225/14/133 223/13/133 224/10/133 222/15/133
f 191/10/129 188/15/129 189/14/129 190/13/129
f 185/20/126 186/16/127 183/21/125
f 186/16/127 185/20/126 187/17/128
f 153/12/105 155/20/107 154/21/106 152/11/105
f 161/10/111 159/15/110 158/14/110 160/13/111
f 194/12/130 192/19/130 193/11/130
f 195/18/130 193/11/130 192/19/130
f 139/10/102 138/11/102 136/12/102 137/13/102
f 200/12/131 198/19/131 199/11/131
f 201/18/131 199/11/131 198/19/131
f 216/19/132 221/13/132 220/10/132 219/18/132
f 206/12/130 204/19/130 205/11/130
f 207/18/130 205/11/130 204/19/130
f 198/19/131 203/13/131 202/10/131 201/18/131
f 212/12/131 210/19/131 211/11/131
f 213/18/131 211/11/131 210/19/131
f 197/13/130 196/10/130 195/18/130 192/19/130
f 218/12/132 216/19/132 217/11/132
f 219/18/132 217/11/132 216/19/132
f 143/10/103 142/11/103 140/12/103 141/13/103
f 189/14/129 188/15/129 186/16/127 187/17/128
f 227/16/135 228/20/136 226/17/134
f 229/21/137 228/20/136 227/16/135
f 175/20/120 173/21/119 174/11/118 172/12/118
f 234/12/130 232/19/130 233/11/130
f 235/18/130 233/11/130 232/19/130
f 210/19/131 215/13/131 214/10/131 213/18/131
f 237/13/130 236/10/130 235/18/130 232/19/130
