# Blender 5.0.1
# www.blender.org
mtllib BP_Flowerpatch_04.mtl
o SM_Flowerpatch_04.001
v 12.500000 -53.912209 31.162434
v 28.125000 -37.863434 36.226025
v 12.500000 -37.863434 36.226025
v 28.125000 -53.444649 37.394920
v -3.125000 -37.863434 36.226025
v 28.125000 -69.025864 38.563816
v -3.125000 -53.444649 37.394920
v 12.500000 -69.025871 38.563816
v -3.125000 -69.025864 38.563816
v 75.111298 42.020164 23.726072
v 59.485664 58.686928 21.401772
v 59.511875 45.151810 29.208218
v 75.110512 58.677876 21.333612
v 59.538086 31.616692 37.014664
v 90.735359 58.668823 21.265455
v 75.162941 31.607639 36.946507
v 90.761574 45.133709 29.071901
v 90.787788 31.598591 36.878349
v -35.677132 24.997269 23.768345
v -52.353165 9.382987 21.434280
v -38.787575 9.371677 29.187677
v -52.344086 25.007982 21.441183
v -25.221979 9.360368 36.941082
v -52.335007 40.632980 21.448088
v -25.212896 24.985363 36.947983
v -38.769413 40.621670 29.201485
v -25.203817 40.610359 36.954887
v 10.937494 31.749260 29.512701
v 26.562496 27.808571 45.873451
v 26.562489 36.847351 33.128216
v 10.937492 27.808569 45.873451
v 26.562506 45.886147 20.382990
v -4.687506 27.808569 45.873451
v 10.937496 45.886139 20.382990
v -4.687506 36.847359 33.128220
v -4.687496 45.886143 20.382992
v -25.000000 -17.151684 29.806824
v -40.625000 -13.210993 46.167572
v -40.625000 -22.249779 33.422337
v -25.000000 -13.210993 46.167572
v -40.625000 -31.288567 20.677113
v -9.375000 -13.210993 46.167572
v -25.000000 -31.288567 20.677113
v -9.375000 -22.249777 33.422340
v -9.375000 -31.288567 20.677113
v 60.884071 -18.768349 23.674290
v 77.539169 -3.151935 21.208717
v 64.041733 -3.147568 29.080168
v 77.530090 -18.776930 21.201815
v 50.544292 -3.143202 36.951618
v 77.521011 -34.401928 21.194910
v 50.535210 -18.768198 36.944717
v 64.023575 -34.397560 29.066360
v 50.526131 -34.393196 36.937813
v 10.937500 17.187500 -0.000000
v 10.937500 23.437500 18.750000
v 10.937500 23.437500 -0.000000
v 10.937500 17.187500 18.750000
v 10.937500 29.687500 31.250000
v 10.937500 32.812500 28.125000
v 9.375000 -53.912209 31.162434
v 9.375000 -56.250000 0.000000
v 15.625000 -53.912209 31.162434
v 15.625000 -56.250000 0.000000
v 75.104988 43.644722 21.934582
v 75.115295 40.504738 25.044508
v 75.087456 40.534775 18.794643
v 75.098358 37.394794 21.904572
v 75.059998 34.314888 12.514735
v 75.056259 28.064959 12.484711
v 75.027039 28.094997 6.234850
v 75.030777 34.344925 6.264875
v 74.998184 28.125000 -0.001381
v 75.001816 34.375000 0.001381
v 59.375000 -18.767178 25.000000
v 59.375000 -18.763823 18.750000
v 62.500000 -18.769058 21.875002
v 56.250000 -18.762541 21.875002
v 53.125000 -18.760969 12.500000
v 46.875000 -18.757349 12.499999
v 53.125000 -18.756233 6.250000
v 46.875000 -18.752613 6.250000
v 46.875031 -18.748190 0.013632
v 53.124969 -18.751810 -0.013632
v -25.000000 -9.375000 18.750000
v -25.000000 -15.625000 31.250000
v -25.000000 -18.750000 28.125000
v -25.000000 -3.125000 18.750000
v -25.000000 -3.125000 0.000000
v -25.000000 -9.375000 0.000000
v -28.070358 25.000668 6.277027
v -21.875031 24.998190 -0.013632
v -28.124969 25.001810 0.013632
v -21.820597 24.997072 6.222500
v -21.766073 24.996254 12.472264
v -28.015837 24.999849 12.526791
v -31.058933 24.993078 21.928694
v -34.211075 24.997124 18.831074
v -37.308693 24.999569 21.983221
v -34.156555 24.994925 25.080837
vn -0.0000 0.0748 0.9972
vn -0.1925 -0.1199 0.9740
vn -0.0000 -0.3009 0.9537
vn -0.3714 0.0695 0.9259
vn 0.1925 -0.1199 0.9740
vn -0.1925 0.2639 0.9452
vn 0.3714 0.0695 0.9259
vn -0.0000 0.4398 0.8981
vn 0.1925 0.2639 0.9452
vn 0.0041 0.4996 0.8662
vn 0.1967 0.3139 0.9288
vn 0.3752 0.4637 0.8027
vn 0.0044 0.1422 0.9898
vn 0.1960 0.6474 0.7365
vn -0.1882 0.3142 0.9305
vn 0.0032 0.7856 0.6187
vn -0.3676 0.4641 0.8059
vn -0.1889 0.6476 0.7382
vn -0.4962 -0.0001 0.8682
vn -0.3103 0.1922 0.9310
vn -0.4605 0.3713 0.8063
vn -0.1383 -0.0004 0.9904
vn -0.6445 0.1925 0.7400
vn -0.3105 -0.1927 0.9308
vn -0.7832 0.0002 0.6218
vn -0.4609 -0.3715 0.8059
vn -0.6447 -0.1924 0.7398
vn -0.0000 0.8157 0.5785
vn -0.1925 0.8962 0.3997
vn -0.3714 0.7574 0.5371
vn -0.0000 0.9722 0.2342
vn -0.1925 0.6736 0.7136
vn 0.1925 0.8962 0.3997
vn -0.0000 0.5425 0.8400
vn 0.3714 0.7574 0.5371
vn 0.1925 0.6736 0.7136
vn -0.0000 -0.8157 0.5785
vn 0.1924 -0.8962 0.3997
vn 0.3714 -0.7574 0.5371
vn -0.0000 -0.9722 0.2342
vn 0.1925 -0.6736 0.7136
vn -0.1925 -0.8962 0.3997
vn -0.0000 -0.5425 0.8400
vn -0.3714 -0.7574 0.5371
vn -0.1925 -0.6736 0.7136
vn 0.5038 -0.0007 0.8638
vn 0.3184 -0.1930 0.9281
vn 0.4675 -0.3720 0.8019
vn 0.1469 -0.0005 0.9891
vn 0.6509 -0.1932 0.7342
vn 0.3186 0.1919 0.9283
vn 0.7886 -0.0007 0.6150
vn 0.4680 0.3708 0.8022
vn 0.6511 0.1917 0.7344
vn -1.0000 -0.0000 -0.0000
vn -0.0000 -0.9972 0.0748
vn 1.0000 -0.0010 -0.0045
vn 1.0000 -0.0007 -0.0042
vn 1.0000 -0.0008 -0.0042
vn 1.0000 -0.0006 -0.0042
vn 1.0000 -0.0006 -0.0044
vn 1.0000 -0.0006 -0.0047
vn 1.0000 -0.0006 -0.0046
vn -0.0010 -1.0000 -0.0005
vn -0.0007 -1.0000 -0.0003
vn -0.0008 -1.0000 -0.0003
vn -0.0006 -1.0000 -0.0003
vn -0.0006 -1.0000 -0.0005
vn -0.0006 -1.0000 -0.0007
vn 1.0000 -0.0000 -0.0000
vn 0.0006 1.0000 0.0002
vn 0.0006 1.0000 0.0004
vn 0.0006 1.0000 0.0006
vn 0.0008 1.0000 0.0006
vn 0.0007 1.0000 0.0006
vn 0.0010 1.0000 0.0003
vt 0.158691 0.999969
vt 0.158691 0.843750
vt 0.312500 0.999969
vt 0.312500 0.843750
vt 0.000031 0.999969
vt 0.312500 0.687500
vt 0.000031 0.843750
vt 0.158691 0.687500
vt 0.000031 0.687500
vt 0.000031 0.250000
vt 1.000000 0.250000
vt 1.000000 0.500000
vt 0.000031 0.500000
vt 1.000000 0.624512
vt 1.000000 0.999031
vt 0.000031 0.624512
vt 0.000031 0.999031
vt 1.000000 0.000000
vt 0.000031 0.000000
vt 0.000031 0.749512
vt 1.000000 0.749512
s 1
usemtl M_Flower_Nicolos
f 3/1/3 1/2/1 2/3/2
f 2/3/2 1/2/1 4/4/4
f 3/1/3 5/5/5 1/2/1
f 4/4/4 1/2/1 6/6/6
f 5/5/5 7/7/7 1/2/1
f 1/2/1 8/8/8 6/6/6
f 7/7/7 9/9/9 1/2/1
f 1/2/1 9/9/9 8/8/8
f 12/1/12 10/2/10 11/3/11
f 11/3/11 10/2/10 13/4/13
f 12/1/12 14/5/14 10/2/10
f 13/4/13 10/2/10 15/6/15
f 14/5/14 16/7/16 10/2/10
f 10/2/10 17/8/17 15/6/15
f 16/7/16 18/9/18 10/2/10
f 10/2/10 18/9/18 17/8/17
f 21/1/21 19/2/19 20/3/20
f 20/3/20 19/2/19 22/4/22
f 21/1/21 23/5/23 19/2/19
f 22/4/22 19/2/19 24/6/24
f 23/5/23 25/7/25 19/2/19
f 19/2/19 26/8/26 24/6/24
f 25/7/25 27/9/27 19/2/19
f 19/2/19 27/9/27 26/8/26
f 30/1/30 28/2/28 29/3/29
f 29/3/29 28/2/28 31/4/31
f 30/1/30 32/5/32 28/2/28
f 31/4/31 28/2/28 33/6/33
f 32/5/32 34/7/34 28/2/28
f 28/2/28 35/8/35 33/6/33
f 34/7/34 36/9/36 28/2/28
f 28/2/28 36/9/36 35/8/35
f 39/1/39 37/2/37 38/3/38
f 38/3/38 37/2/37 40/4/40
f 39/1/39 41/5/41 37/2/37
f 40/4/40 37/2/37 42/6/42
f 41/5/41 43/7/43 37/2/37
f 37/2/37 44/8/44 42/6/42
f 43/7/43 45/9/45 37/2/37
f 37/2/37 45/9/45 44/8/44
f 48/1/48 46/2/46 47/3/47
f 47/3/47 46/2/46 49/4/49
f 48/1/48 50/5/50 46/2/46
f 49/4/49 46/2/46 51/6/51
f 50/5/50 52/7/52 46/2/46
f 46/2/46 53/8/53 51/6/51
f 52/7/52 54/9/54 46/2/46
f 46/2/46 54/9/54 53/8/53
usemtl M_FlowerRoot
f 82/10/69 81/11/69 79/12/67 80/13/68
f 58/14/55 59/15/55 56/16/55
f 60/17/55 56/16/55 59/15/55
f 55/18/55 58/14/55 56/16/55 57/19/55
f 100/17/76 97/20/74 98/21/75 99/15/76
f 67/21/58 68/20/59 69/12/60
f 69/12/60 68/20/59 70/13/61
f 91/11/71 96/12/73 95/13/72 94/10/71
f 84/18/69 81/11/69 82/10/69 83/19/69
f 74/18/63 72/11/62 71/10/62 73/19/63
f 78/20/66 79/12/67 76/21/65
f 80/13/68 79/12/67 78/20/66
f 72/11/62 69/12/60 70/13/61 71/10/62
f 94/10/71 92/19/71 93/18/71 91/11/71
f 87/17/70 85/16/70 86/15/70
f 88/14/70 86/15/70 85/16/70
f 64/18/56 63/15/56 61/17/56 62/19/56
f 66/17/57 68/20/59 67/21/58 65/15/57
f 96/12/73 97/20/74 95/13/72
f 98/21/75 97/20/74 96/12/73
f 78/20/66 76/21/65 77/15/64 75/17/64
f 85/16/70 90/19/70 89/18/70 88/14/70
