# Blender 5.0.1
# www.blender.org
mtllib BP_FeelerFlower.mtl
o SM_FeelerFlower.001
v 43.750000 12.500016 75.000000
v 43.750000 37.500015 74.999992
v 37.500000 12.500010 56.249996
v 37.500000 37.500008 56.249992
v 37.500000 12.500010 56.249996
v 12.500000 12.500010 56.249996
v 12.500000 12.500009 50.000000
v 37.500000 12.500009 50.000000
v 37.500000 12.500010 56.249996
v 37.500000 37.500008 56.249992
v 12.500000 12.500010 56.249996
v 12.500000 37.500008 56.249992
v 37.500000 37.500008 49.999989
v 12.500000 37.500008 49.999989
v 12.500000 37.500008 56.249992
v 37.500000 37.500008 56.249992
v 37.500000 12.500009 50.000000
v 12.500000 12.500009 50.000000
v 12.500000 37.500008 49.999989
v 37.500000 37.500008 49.999989
v 37.500000 37.500008 56.249992
v 37.500000 12.500010 56.249996
v 37.500000 12.500009 50.000000
v 37.500000 37.500008 49.999989
v 12.500000 12.500010 56.249996
v 12.500000 37.500008 49.999989
v 12.500000 12.500009 50.000000
v 12.500000 37.500008 56.249992
v 12.500000 37.500008 56.249992
v 6.250000 12.500016 75.000000
v 12.500000 12.500010 56.249996
v 6.250000 37.500015 74.999992
v 37.500000 12.500010 56.249996
v 12.500000 12.500010 56.249996
v 37.500000 6.250016 75.000000
v 12.500000 6.250016 75.000000
v 37.500000 43.750015 74.999992
v 12.500000 43.750015 74.999992
v 37.500000 37.500008 56.249992
v 12.500000 37.500008 56.249992
v 43.750000 -37.499992 25.000008
v 43.750000 -12.499992 25.000000
v 37.500000 -37.500000 6.250006
v 37.500000 -12.499999 6.250002
v 37.500000 -37.500000 6.250006
v 12.500000 -37.500000 6.250006
v 12.500000 -37.500000 0.000010
v 37.500000 -37.500000 0.000010
v 37.500000 -37.500000 6.250006
v 37.500000 -12.499999 6.250002
v 12.500000 -37.500000 6.250006
v 12.500000 -12.499999 6.250002
v 37.500000 -12.500000 -0.000002
v 12.500000 -12.500000 -0.000002
v 12.500000 -12.499999 6.250002
v 37.500000 -12.499999 6.250002
v 37.500000 -37.500000 0.000010
v 12.500000 -37.500000 0.000010
v 12.500000 -12.500000 -0.000002
v 37.500000 -12.500000 -0.000002
v 37.500000 -12.499999 6.250002
v 37.500000 -37.500000 6.250006
v 37.500000 -37.500000 0.000010
v 37.500000 -12.500000 -0.000002
v 12.500000 -37.500000 6.250006
v 12.500000 -12.500000 -0.000002
v 12.500000 -37.500000 0.000010
v 12.500000 -12.499999 6.250002
v 12.500000 -12.499999 6.250002
v 6.250000 -37.499992 25.000008
v 12.500000 -37.500000 6.250006
v 6.250000 -12.499992 25.000000
v 37.500000 -37.500000 6.250006
v 12.500000 -37.500000 6.250006
v 37.500000 -43.749996 25.000011
v 12.500000 -43.749996 25.000011
v 37.500000 -6.249992 24.999998
v 12.500000 -6.249992 24.999998
v 37.500000 -12.499999 6.250002
v 12.500000 -12.499999 6.250002
v 18.750000 18.750008 49.999996
v 18.750000 18.750000 -0.000003
v 31.250000 18.750008 49.999996
v 31.250000 18.750000 -0.000003
v 18.750000 31.250000 -0.000005
v 18.750000 31.250008 49.999996
v 31.250000 31.250000 -0.000005
v 31.250000 31.250008 49.999996
v 31.250000 18.750000 -0.000003
v 18.750000 18.750000 -0.000003
v 18.750000 31.250000 -0.000005
v 31.250000 31.250000 -0.000005
v 31.250000 31.250000 -0.000005
v 31.250000 31.250008 49.999996
v 31.250000 18.750000 -0.000003
v 31.250000 18.750008 49.999996
v 18.750000 18.750008 49.999996
v 18.750000 31.250000 -0.000005
v 18.750000 18.750000 -0.000003
v 18.750000 31.250008 49.999996
v -31.250000 -31.249992 50.000004
v -31.250000 -31.250000 0.000005
v -18.750000 -31.249992 50.000004
v -18.750000 -31.250000 0.000005
v -31.250000 -18.750000 0.000003
v -31.250000 -18.749992 50.000004
v -18.750000 -18.750000 0.000003
v -18.750000 -18.749992 50.000004
v -18.750000 -31.250000 0.000005
v -31.250000 -31.250000 0.000005
v -31.250000 -18.750000 0.000003
v -18.750000 -18.750000 0.000003
v -18.750000 -18.750000 0.000003
v -18.750000 -18.749992 50.000004
v -18.750000 -31.250000 0.000005
v -18.750000 -31.249992 50.000004
v -31.250000 -31.249992 50.000004
v -31.250000 -18.750000 0.000003
v -31.250000 -31.250000 0.000005
v -31.250000 -18.749992 50.000004
v -31.250000 18.750017 100.000000
v -31.250000 18.750008 49.999996
v -18.750000 18.750017 100.000000
v -18.750000 18.750008 49.999996
v -31.250000 31.250008 49.999996
v -31.250000 31.250017 99.999992
v -18.750000 31.250008 49.999996
v -18.750000 31.250017 99.999992
v -18.750000 18.750008 49.999996
v -31.250000 18.750008 49.999996
v -31.250000 31.250008 49.999996
v -18.750000 31.250008 49.999996
v -18.750000 31.250008 49.999996
v -18.750000 31.250017 99.999992
v -18.750000 18.750008 49.999996
v -18.750000 18.750017 100.000000
v -31.250000 18.750017 100.000000
v -31.250000 31.250008 49.999996
v -31.250000 18.750008 49.999996
v -31.250000 31.250017 99.999992
v -31.250000 18.750000 -0.000003
v -18.750000 18.750000 -0.000003
v -31.250000 31.250000 -0.000005
v -18.750000 31.250000 -0.000005
v -18.750000 18.750000 -0.000003
v -31.250000 18.750000 -0.000003
v -31.250000 31.250000 -0.000005
v -18.750000 31.250000 -0.000005
v -18.750000 31.250000 -0.000005
v -18.750000 18.750000 -0.000003
v -31.250000 31.250000 -0.000005
v -31.250000 18.750000 -0.000003
v -6.250000 12.500024 125.000000
v -6.250000 37.500023 124.999992
v -12.500000 12.500018 106.250000
v -12.500000 37.500019 106.249992
v -12.500000 12.500018 106.250000
v -37.500000 12.500018 106.250000
v -37.500000 12.500016 100.000000
v -12.500000 12.500016 100.000000
v -12.500000 12.500018 106.250000
v -12.500000 37.500019 106.249992
v -37.500000 12.500018 106.250000
v -37.500000 37.500019 106.249992
v -12.500000 37.500015 99.999992
v -37.500000 37.500015 99.999992
v -37.500000 37.500019 106.249992
v -12.500000 37.500019 106.249992
v -12.500000 12.500016 100.000000
v -37.500000 12.500016 100.000000
v -37.500000 37.500015 99.999992
v -12.500000 37.500015 99.999992
v -12.500000 37.500019 106.249992
v -12.500000 12.500018 106.250000
v -12.500000 12.500016 100.000000
v -12.500000 37.500015 99.999992
v -37.500000 12.500018 106.250000
v -37.500000 37.500015 99.999992
v -37.500000 12.500016 100.000000
v -37.500000 37.500019 106.249992
v -37.500000 37.500019 106.249992
v -43.750000 12.500024 125.000000
v -37.500000 12.500018 106.250000
v -43.750000 37.500023 124.999992
v -12.500000 12.500018 106.250000
v -37.500000 12.500018 106.250000
v -12.500000 6.250024 125.000000
v -37.500000 6.250024 125.000000
v -12.500000 43.750023 124.999992
v -37.500000 43.750023 124.999992
v -12.500000 37.500019 106.249992
v -37.500000 37.500019 106.249992
v -31.250000 -31.249983 100.000008
v -31.250000 -18.749983 100.000000
v -18.750000 -31.249983 100.000008
v -18.750000 -18.749983 100.000000
v -18.750000 -31.249992 50.000004
v -31.250000 -18.749992 50.000004
v -18.750000 -18.749992 50.000004
v -31.250000 -31.249992 50.000004
v -31.250000 -18.749983 100.000000
v -18.750000 -18.749983 100.000000
v -18.750000 -31.249983 100.000008
v -31.250000 -31.249983 100.000008
v -31.250000 -31.249975 150.000000
v -18.750000 -31.249975 150.000000
v -31.250000 -18.749975 150.000000
v -18.750000 -18.749975 150.000000
v -18.750000 -31.249983 100.000008
v -31.250000 -31.249983 100.000008
v -31.250000 -18.749983 100.000000
v -18.750000 -18.749983 100.000000
v -18.750000 -18.749975 150.000000
v -18.750000 -31.249975 150.000000
v -31.250000 -31.249975 150.000000
v -31.250000 -18.749975 150.000000
v -6.250000 -37.499969 175.000000
v -6.250000 -12.499968 175.000000
v -12.500000 -37.499973 156.250000
v -12.500000 -12.499974 156.250000
v -12.500000 -37.499973 156.250000
v -37.500000 -37.499973 156.250000
v -37.500000 -37.499977 150.000000
v -12.500000 -37.499977 150.000000
v -12.500000 -37.499973 156.250000
v -12.500000 -12.499974 156.250000
v -37.500000 -37.499973 156.250000
v -37.500000 -12.499974 156.250000
v -12.500000 -12.499975 150.000000
v -37.500000 -12.499975 150.000000
v -37.500000 -12.499974 156.250000
v -12.500000 -12.499974 156.250000
v -12.500000 -37.499977 150.000000
v -37.500000 -37.499977 150.000000
v -37.500000 -12.499975 150.000000
v -12.500000 -12.499975 150.000000
v -12.500000 -12.499974 156.250000
v -12.500000 -37.499973 156.250000
v -12.500000 -37.499977 150.000000
v -12.500000 -12.499975 150.000000
v -37.500000 -37.499973 156.250000
v -37.500000 -12.499975 150.000000
v -37.500000 -37.499977 150.000000
v -37.500000 -12.499974 156.250000
v -37.500000 -12.499974 156.250000
v -43.750000 -37.499969 175.000000
v -37.500000 -37.499973 156.250000
v -43.750000 -12.499968 175.000000
v -12.500000 -37.499973 156.250000
v -37.500000 -37.499973 156.250000
v -12.500000 -43.749973 175.000000
v -37.500000 -43.749973 175.000000
v -12.500000 -6.249968 175.000000
v -37.500000 -6.249968 175.000000
v -12.500000 -12.499974 156.250000
v -37.500000 -12.499974 156.250000
vn -0.9487 -0.0000 0.3162
vn -0.0000 -1.0000 -0.0000
vn -0.0000 -0.0000 1.0000
vn -0.0000 1.0000 -0.0000
vn -0.0000 -0.0000 -1.0000
vn 1.0000 -0.0000 -0.0000
vn -1.0000 -0.0000 -0.0000
vn 0.9487 -0.0000 0.3162
vn -0.0000 0.9487 0.3162
vn -0.0000 -0.9487 0.3162
vt 0.250000 0.937500
vt 0.250000 0.999969
vt 0.203125 0.999969
vt 0.203125 0.937500
vt 0.140625 0.937500
vt 0.140625 0.999969
vt 0.031235 0.875061
vt 0.031235 0.999969
vt 0.000031 0.999969
vt -0.000031 0.875061
vt 0.062500 0.937500
vt 0.062500 0.921875
vt 0.125000 0.921875
vt 0.125000 0.937500
vt 0.125000 0.999969
vt 0.062469 0.999969
vt 0.062469 0.875061
vt 0.062469 0.906311
vt 0.031235 0.906311
vt 0.062500 0.999969
vt 0.062500 0.937836
vt 0.124634 0.937836
vt 0.124634 0.999969
s 1
usemtl MI_NetherFoilage_NoDeform_NoEmissive
f 32/1/8 30/2/8 31/3/8 29/4/8
f 60/3/5 57/4/5 58/5/5 59/6/5
f 84/7/2 83/8/2 81/9/2 82/10/2
f 168/11/4 165/12/4 166/13/4 167/14/4
f 8/13/2 5/14/2 6/11/2 7/12/2
f 63/15/6 64/14/6 61/5/6 62/6/6
f 133/16/6 135/8/6 150/7/6 149/17/6
f 38/1/10 40/4/10 39/3/10 37/2/10
f 220/3/1 219/4/1 217/1/1 218/2/1
f 254/1/10 256/4/10 255/3/10 253/2/10
f 132/18/5 129/17/5 130/7/5 131/19/5
f 148/18/5 145/17/5 146/7/5 147/19/5
f 186/3/9 188/2/9 187/1/9 185/4/9
f 127/8/4 144/7/4 143/10/4 125/9/4
f 68/15/7 66/6/7 67/5/7 65/14/7
f 248/1/8 246/2/8 247/3/8 245/4/8
f 44/3/1 43/4/1 41/1/1 42/2/1
f 224/13/2 221/14/2 222/11/2 223/12/2
f 74/3/9 76/2/9 75/1/9 73/4/9
f 160/13/2 157/14/2 158/11/2 159/12/2
f 16/11/4 13/12/4 14/13/4 15/14/4
f 112/18/5 109/17/5 110/7/5 111/19/5
f 4/3/1 3/4/1 1/1/1 2/2/1
f 175/15/6 176/14/6 173/5/6 174/6/6
f 48/13/2 45/14/2 46/11/2 47/12/2
f 108/7/4 106/10/4 201/9/4 202/8/4
f 190/1/10 192/4/10 191/3/10 189/2/10
f 180/15/7 178/6/7 179/5/7 177/14/7
f 72/1/8 70/2/8 71/3/8 69/4/8
f 128/8/4 127/7/4 125/10/4 126/9/4
f 164/20/3 163/21/3 161/22/3 162/23/3
f 124/7/2 123/8/2 121/9/2 122/10/2
f 140/16/7 138/17/7 139/7/7 137/8/7
f 116/7/6 114/17/6 196/16/6 195/8/6
f 88/8/4 87/7/4 85/10/4 86/9/4
f 12/20/3 11/21/3 9/22/3 10/23/3
f 184/1/8 182/2/8 183/3/8 181/4/8
f 138/16/7 151/17/7 152/7/7 139/8/7
f 114/16/6 116/8/6 115/7/6 113/17/6
f 78/1/10 80/4/10 79/3/10 77/2/10
f 156/3/1 155/4/1 153/1/1 154/2/1
f 52/20/3 51/21/3 49/22/3 50/23/3
f 104/7/2 103/8/2 101/9/2 102/10/2
f 92/18/5 89/17/5 90/7/5 91/19/5
f 120/16/7 118/17/7 119/7/7 117/8/7
f 100/16/7 98/17/7 99/7/7 97/8/7
f 20/3/5 17/4/5 18/5/5 19/6/5
f 212/18/5 209/17/5 210/7/5 211/19/5
f 56/11/4 53/12/4 54/13/4 55/14/4
f 23/15/6 24/14/6 21/5/6 22/6/6
f 117/7/7 193/8/7 194/16/7 120/17/7
f 172/3/5 169/4/5 170/5/5 171/6/5
f 208/8/4 202/7/4 201/10/4 207/9/4
f 108/8/4 107/7/4 105/10/4 106/9/4
f 94/16/6 96/8/6 95/7/6 93/17/6
f 203/7/2 206/8/2 205/9/2 204/10/2
f 203/8/2 204/9/2 101/10/2 103/7/2
f 239/15/6 240/14/6 237/5/6 238/6/6
f 213/16/6 214/8/6 195/7/6 196/17/6
f 134/16/6 136/8/6 135/7/6 133/17/6
f 197/17/5 200/7/5 198/19/5 199/18/5
f 142/7/2 124/8/2 122/9/2 141/10/2
f 228/20/3 227/21/3 225/22/3 226/23/3
f 232/11/4 229/12/4 230/13/4 231/14/4
f 244/15/7 242/6/7 243/5/7 241/14/7
f 28/15/7 26/6/7 27/5/7 25/14/7
f 216/16/7 194/17/7 193/7/7 215/8/7
f 236/3/5 233/4/5 234/5/5 235/6/5
f 34/3/9 36/2/9 35/1/9 33/4/9
f 250/3/9 252/2/9 251/1/9 249/4/9
