# Blender 5.0.1
# www.blender.org
mtllib BP_Flag_B_Ripped.mtl
o SK_Flag_B_001.001
v 12.500002 13.125025 450.000336
v -12.499998 13.125029 450.000336
v 12.499998 -11.874979 450.000336
v -12.500002 -11.874979 450.000336
v -12.500002 -11.874975 350.000336
v -12.500002 -11.874979 450.000336
v -12.499998 13.125029 450.000336
v -12.499998 13.125029 350.000336
v 12.499998 -11.874979 450.000336
v 12.499998 -11.874979 350.000336
v 12.500002 13.125025 450.000336
v 12.500002 13.125025 350.000336
v 12.500002 13.125025 350.000336
v -12.499998 13.125029 450.000336
v 12.500002 13.125025 450.000336
v -12.499998 13.125029 350.000336
v -12.500002 -11.874975 350.000336
v 12.499998 -11.874979 450.000336
v -12.500002 -11.874979 450.000336
v 12.499998 -11.874979 350.000336
v 12.500000 -11.874979 300.000000
v 12.500000 -11.874968 200.000000
v 12.500000 13.125025 300.000000
v 12.500000 13.125036 200.000000
v -12.500000 13.125025 300.000000
v -12.500000 -11.874968 200.000000
v -12.500000 -11.874979 300.000000
v -12.500000 13.125036 200.000000
v 12.500000 13.125025 300.000000
v 12.500000 13.125036 200.000000
v -12.500000 13.125025 300.000000
v -12.500000 13.125036 200.000000
v -12.500000 -11.874979 300.000000
v -12.500000 -11.874968 200.000000
v 12.500000 -11.874979 300.000000
v 12.500000 -11.874968 200.000000
v 112.499969 -11.874960 450.000336
v 112.499969 -11.874952 425.000336
v 112.499969 13.125054 450.000336
v 112.499969 13.125059 425.000336
v 112.499969 -11.874952 425.000336
v 62.500092 -11.874952 425.000336
v 62.500092 13.125059 425.000336
v 112.499969 13.125059 425.000336
v 62.500092 13.125056 450.000336
v 112.499969 -11.874960 450.000336
v 112.499969 13.125054 450.000336
v 62.500092 -11.874964 450.000336
v 12.499969 -11.874952 425.000336
v 62.500092 -11.874952 425.000336
v 12.499969 -11.874968 450.000336
v 62.500092 -11.874964 450.000336
v 62.500092 13.125056 450.000336
v 12.499969 13.125055 425.000336
v 12.499969 13.125051 450.000336
v 62.500092 13.125059 425.000336
v 12.499969 13.125055 425.000336
v 12.499969 -11.874952 425.000336
v 12.499969 13.125051 450.000336
v 12.499969 -11.874968 450.000336
v 112.499969 -11.874952 425.000336
v 112.499969 -11.874960 450.000336
v 112.499969 13.125054 450.000336
v 112.499969 13.125059 425.000336
v 12.500000 -11.874979 200.000000
v 12.500000 -11.874968 100.000000
v 12.500000 13.125025 200.000000
v 12.500000 13.125036 100.000000
v -12.500000 13.125025 200.000000
v -12.500000 -11.874968 100.000000
v -12.500000 -11.874979 200.000000
v -12.500000 13.125036 100.000000
v 12.500000 13.125025 200.000000
v 12.500000 13.125036 100.000000
v -12.500000 13.125025 200.000000
v -12.500000 13.125036 100.000000
v -12.500000 -11.874979 200.000000
v -12.500000 -11.874968 100.000000
v 12.500000 -11.874979 200.000000
v 12.500000 -11.874968 100.000000
v 12.500000 -11.874975 100.000000
v 12.500000 -11.874964 0.000000
v 12.500000 13.125029 100.000000
v 12.500000 13.125040 0.000000
v -12.500000 13.125029 100.000000
v -12.500000 -11.874964 -0.000000
v -12.500000 -11.874975 100.000000
v -12.500000 13.125040 -0.000000
v 12.500000 13.125029 100.000000
v 12.500000 13.125040 0.000000
v -12.500000 13.125029 100.000000
v -12.500000 13.125040 -0.000000
v -12.500000 -11.874975 100.000000
v -12.500000 -11.874964 -0.000000
v 12.500000 -11.874975 100.000000
v 12.500000 -11.874964 0.000000
v 12.500000 -11.874973 350.000336
v 12.500000 -11.874968 300.000031
v 12.500000 13.125031 350.000336
v 12.500000 13.125036 300.000031
v -12.500000 13.125031 350.000336
v -12.500000 -11.874968 300.000031
v -12.500000 -11.874973 350.000336
v -12.500000 13.125036 300.000031
v 12.500000 13.125031 350.000336
v 12.500000 13.125036 300.000031
v -12.500000 13.125031 350.000336
v -12.500000 13.125036 300.000031
v -12.500000 -11.874973 350.000336
v -12.500000 -11.874968 300.000031
v 12.500000 -11.874973 350.000336
v 12.500000 -11.874968 300.000031
v 74.999969 14.826506 454.518799
v 49.999969 14.826502 426.142120
v 49.999969 14.826506 454.518799
v 74.999969 14.826502 426.142120
v 74.999969 14.826506 454.518799
v 49.999969 14.826506 454.518799
v 49.999969 -13.420286 454.518799
v 74.999969 -13.420286 454.518799
v 112.499969 14.826506 454.518799
v 93.749969 14.826502 426.142120
v 93.749969 14.826506 454.518799
v 112.499969 14.826502 426.142120
v 12.499969 14.826506 454.518799
v 31.249969 14.826506 454.518799
v 12.499969 14.826502 426.142120
v 31.249969 14.826502 426.142120
v 112.499969 14.826506 454.518799
v 93.749969 14.826506 454.518799
v 112.499969 -13.420286 454.518799
v 93.749969 -13.420286 454.518799
v 12.499969 14.826506 454.518799
v 31.249969 -13.420286 454.518799
v 31.249969 14.826506 454.518799
v 12.499969 -13.420286 454.518799
v 31.249969 -13.420286 454.518799
v 12.499969 -13.420286 454.518799
v 12.499969 -13.420286 427.595337
v 31.249969 -13.420286 427.595337
v 12.499967 -13.420270 127.595322
v 62.499973 -13.420270 127.595322
v 49.999969 -13.420286 427.595337
v 74.999969 -13.420286 427.595337
v 49.999969 -13.420286 454.518799
v 74.999969 -13.420286 454.518799
v 93.749969 -13.420286 427.595337
v 112.499977 -13.420270 127.595322
v 112.499969 -13.420286 427.595337
v 112.499969 -13.420286 454.518799
v 93.749969 -13.420286 454.518799
vn -0.0000 -0.0000 1.0000
vn -1.0000 -0.0000 -0.0000
vn 1.0000 -0.0000 -0.0000
vn -0.0000 1.0000 -0.0000
vn -0.0000 -1.0000 -0.0000
vn -0.0000 -0.0000 -1.0000
vt 1.000000 0.523438
vt 0.976562 0.906250
vt 0.953125 0.906250
vt 0.937500 0.523438
vt 0.210938 0.812500
vt 0.210938 0.937500
vt 0.242188 0.937500
vt 0.242188 0.812500
vt 0.953125 0.999969
vt 0.921875 0.999969
vt 0.921875 0.968750
vt 0.953125 0.968750
vt 0.218750 0.937500
vt 0.218750 0.812500
vt 0.250000 0.812500
vt 0.250000 0.937500
vt 0.187500 0.875000
vt 0.218750 0.875000
vt 0.218750 0.937531
vt 0.187500 0.937531
vt 0.242188 0.906250
vt 0.242188 0.843872
vt 0.273438 0.843872
vt 0.273438 0.906250
vt 0.218750 0.999969
vt 0.187500 0.999969
vt 0.187500 0.937500
vt 0.375000 0.812500
vt 0.375000 0.843750
vt 0.343750 0.843750
vt 0.343750 0.812500
vt 0.273438 0.812500
vt 0.273438 0.937500
vt 0.210938 0.937531
vt 0.242188 0.937531
vt 0.242188 0.999969
vt 0.210938 0.999969
vt 0.273438 0.867188
vt 0.273438 0.929688
vt 0.242188 0.929688
vt 0.242188 0.867188
vt 0.281250 0.812500
vt 0.281250 0.937500
vt 0.218750 0.906250
vt 0.218750 0.968765
vt 0.187500 0.968765
vt 0.187500 0.906250
vt 0.976562 0.968750
vt 0.976562 0.937500
vt 1.000000 0.937500
vt 1.000000 0.968750
vt 0.898438 0.968750
vt 0.898438 0.999969
vt 0.875000 0.999969
vt 0.875000 0.968750
vt 0.187500 0.929688
vt 0.218750 0.929688
vt 0.218750 0.992188
vt 0.187500 0.992188
vt 0.898438 0.906250
vt 0.898438 0.937500
vt 0.875000 0.937500
vt 0.875000 0.906250
vt 1.000000 0.999969
vt 0.976562 0.999969
vt 0.953125 0.937500
vt 0.921875 0.937500
vt 0.265625 0.937531
vt 0.265625 0.999969
vt 0.234375 0.999969
vt 0.234375 0.937531
vt 0.875000 0.523438
vt 0.921875 0.906250
vt 1.000000 0.906250
s 1
usemtl MI_Windswept_Props
f 96/5/5 95/6/5 93/7/5 94/8/5
f 12/13/3 11/14/3 9/15/3 10/16/3
f 50/17/5 52/18/5 51/19/5 49/20/5
f 48/21/1 46/22/1 47/23/1 45/24/1
f 104/25/2 102/26/2 103/27/2 101/13/2
f 16/13/4 14/14/4 15/15/4 13/16/4
f 108/26/4 107/27/4 105/13/4 106/25/4
f 2/28/1 4/29/1 3/30/1 1/31/1
f 88/8/2 86/32/2 87/33/2 85/7/2
f 28/25/2 26/26/2 27/17/2 25/18/2
f 61/34/5 62/35/5 52/36/5 50/37/5
f 112/25/5 111/13/5 109/27/5 110/26/5
f 60/38/1 48/39/1 45/40/1 59/41/1
f 20/16/5 18/15/5 19/42/5 17/43/5
f 84/42/3 83/43/3 81/16/3 82/15/3
f 56/44/4 54/45/4 55/46/4 53/47/4
f 100/26/3 99/27/3 97/13/3 98/25/3
f 44/20/6 41/19/6 42/25/6 43/26/6
f 36/25/5 35/18/5 33/17/5 34/26/5
f 24/26/3 23/17/3 21/18/3 22/25/3
f 40/29/3 39/30/3 37/31/3 38/28/3
f 58/56/6 57/57/6 43/58/6 42/59/6
f 72/25/2 70/26/2 71/17/2 69/18/2
f 68/26/3 67/17/3 65/18/3 66/25/3
f 7/15/2 8/16/2 5/13/2 6/14/2
f 80/25/5 79/18/5 77/17/5 78/26/5
f 76/26/4 75/17/4 73/18/4 74/25/4
f 32/26/4 31/17/4 29/18/4 30/25/4
f 92/32/4 91/33/4 89/7/4 90/8/4
f 64/68/4 56/69/4 53/70/4 63/71/4
usemtl MI_Flags_Blue
f 148/1/5 147/2/5 144/3/5 142/4/5
f 116/9/4 114/10/4 115/11/4 113/12/4
f 130/48/1 132/49/1 131/50/1 129/51/1
f 126/52/4 128/53/4 127/54/4 125/55/4
f 140/60/5 137/61/5 138/62/5 139/63/5
f 124/64/4 122/65/4 123/48/4 121/51/4
f 120/66/1 117/12/1 118/11/1 119/67/1
f 141/72/5 140/60/5 139/63/5
f 142/4/5 144/3/5 143/73/5
f 136/62/1 134/61/1 135/52/1 133/55/1
f 143/73/5 140/60/5 141/72/5 142/4/5
f 147/2/5 148/1/5 149/74/5
f 144/3/5 146/66/5 145/67/5 143/73/5
f 150/50/5 151/49/5 147/2/5 149/74/5
