# Blender 5.0.1
# www.blender.org
mtllib BP_FFJ_SqueezeShroom_3.mtl
o SM_FFJ_Shroom_L.001
v 9.375000 9.374998 31.249998
v -9.374998 9.374998 -0.000000
v -9.374998 9.374998 31.249998
v 9.375003 9.375001 -0.000000
v -9.374995 -9.375001 -0.000000
v 9.375003 -9.375002 -0.000000
v -9.374995 -9.375001 31.249996
v 9.375003 -9.375001 31.249996
v -9.374998 9.374998 -0.000000
v -9.374995 -9.375001 31.249996
v -9.374998 9.374998 31.249998
v -9.374995 -9.375001 -0.000000
v 9.375000 9.374998 31.249998
v 9.375003 -9.375001 31.249996
v 9.375003 9.375001 -0.000000
v 9.375003 -9.375002 -0.000000
v -21.875000 21.874998 51.250000
v 21.875002 -21.874992 51.249996
v 21.875000 21.875002 51.250000
v -21.874994 -21.875008 51.249996
v 21.874998 21.874998 32.499996
v 21.875002 -21.874992 51.249996
v 21.875002 -21.875002 32.499992
v 21.875000 21.875002 51.250000
v -21.875000 21.874998 51.250000
v 21.875000 21.875002 51.250000
v 21.874998 21.874998 32.499996
v -21.875000 21.874994 32.499996
v 21.875002 -21.875002 32.499992
v -21.874994 -21.875008 51.249996
v -21.875000 -21.875006 32.499992
v 21.875002 -21.874992 51.249996
v -21.874994 -21.875008 51.249996
v -21.875000 21.874998 51.250000
v -21.875000 21.874994 32.499996
v -21.875000 -21.875006 32.499992
vn -0.0000 1.0000 -0.0000
vn -0.0000 -1.0000 -0.0000
vn -1.0000 -0.0000 -0.0000
vn 1.0000 -0.0000 -0.0000
vn -0.0000 -0.0000 1.0000
vt 0.343506 0.468750
vt 0.562012 0.468750
vt 0.562500 0.687500
vt 0.343750 0.687500
vt 0.562012 0.718750
vt 0.562012 0.812500
vt 0.343750 0.812500
vt 0.343750 0.718750
vt 0.406006 0.281250
vt 0.500000 0.281250
vt 0.500000 0.437500
vt 0.406006 0.437500
vt 0.343506 0.812500
s 1
usemtl MI_CW_Glowshrooms
f 20/1/5 18/2/5 19/3/5 17/4/5
f 28/5/1 25/6/1 26/7/1 27/8/1
f 16/9/4 15/10/4 13/11/4 14/12/4
f 4/9/1 2/10/1 3/11/1 1/12/1
f 35/8/3 36/5/3 33/6/3 34/7/3
f 32/6/2 30/7/2 31/8/2 29/5/2
f 12/10/3 10/11/3 11/12/3 9/9/3
f 24/6/4 22/13/4 23/8/4 21/5/4
f 6/10/2 8/11/2 7/12/2 5/9/2
