# Blender 5.0.1
# www.blender.org
mtllib BP_FluorescentFig.mtl
o SM_FluorescentFig.001
v -37.500004 -12.500006 56.250000
v -12.500003 -12.499996 56.250000
v -12.500003 -12.499994 37.500004
v -37.500004 -12.500004 37.500004
v -37.500004 -12.500006 56.250000
v -37.499992 -37.500008 56.250004
v -12.500003 -12.499996 56.250000
v -12.499993 -37.499996 56.250004
v -37.499992 -37.500004 37.500000
v -12.499993 -37.499996 37.500000
v -12.499993 -37.499996 56.250004
v -37.499992 -37.500008 56.250004
v -37.500004 -12.500004 37.500004
v -12.500003 -12.499994 37.500004
v -12.499993 -37.499996 37.500000
v -37.499992 -37.500004 37.500000
v -37.500004 -12.500006 56.250000
v -37.500004 -12.500004 37.500004
v -37.499992 -37.500008 56.250004
v -37.499992 -37.500004 37.500000
v -12.500003 -12.499996 56.250000
v -12.499993 -37.499996 37.500000
v -12.500003 -12.499994 37.500004
v -12.499993 -37.499996 56.250004
v 37.500004 -37.499992 18.750004
v 12.500003 -37.499992 18.750004
v 12.500003 -37.500000 0.000007
v 37.500004 -37.499996 0.000007
v 37.500004 -37.499992 18.750004
v 37.500000 -12.499992 18.749998
v 12.500003 -37.499992 18.750004
v 12.500001 -12.499994 18.749998
v 37.500000 -12.499997 -0.000003
v 12.500001 -12.499999 -0.000003
v 12.500001 -12.499994 18.749998
v 37.500000 -12.499992 18.749998
v 37.500004 -37.499996 0.000007
v 12.500003 -37.500000 0.000007
v 12.500001 -12.499999 -0.000003
v 37.500000 -12.499997 -0.000003
v 37.500004 -37.499992 18.750004
v 37.500004 -37.499996 0.000007
v 37.500000 -12.499992 18.749998
v 37.500000 -12.499997 -0.000003
v 12.500003 -37.499992 18.750004
v 12.500001 -12.499999 -0.000003
v 12.500003 -37.500000 0.000007
v 12.500001 -12.499994 18.749998
v 31.250000 18.750006 12.499999
v 18.750000 18.750000 12.499999
v 18.750000 18.750000 -0.000001
v 31.250000 18.750004 -0.000001
v 31.249996 31.250004 -0.000002
v 18.749996 31.250000 -0.000002
v 18.749996 31.250000 12.499998
v 31.249996 31.250006 12.499998
v 31.250000 18.750004 -0.000001
v 18.750000 18.750000 -0.000001
v 18.749996 31.250000 -0.000002
v 31.249996 31.250004 -0.000002
v 31.250000 18.750006 12.499999
v 31.250000 18.750004 -0.000001
v 31.249996 31.250006 12.499998
v 31.249996 31.250004 -0.000002
v 18.750000 18.750000 12.499999
v 18.749996 31.250000 -0.000002
v 18.750000 18.750000 -0.000001
v 18.749996 31.250000 12.499998
v 12.499993 37.499996 31.250000
v 37.499992 37.500004 31.250000
v 37.499992 37.500008 12.499999
v 12.499993 37.500000 12.499999
v 12.499993 37.499996 31.250000
v 12.500003 12.499996 31.249998
v 37.499992 37.500004 31.250000
v 37.500004 12.500006 31.249998
v 12.500003 12.499998 12.499997
v 37.500004 12.500008 12.499997
v 37.500004 12.500006 31.249998
v 12.500003 12.499996 31.249998
v 12.499993 37.500000 12.499999
v 37.499992 37.500008 12.499999
v 37.500004 12.500008 12.499997
v 12.500003 12.499998 12.499997
v 12.499993 37.499996 31.250000
v 12.499993 37.500000 12.499999
v 12.500003 12.499996 31.249998
v 12.500003 12.499998 12.499997
v 37.499992 37.500004 31.250000
v 37.500004 12.500008 12.499997
v 37.499992 37.500008 12.499999
v 37.500004 12.500006 31.249998
v -18.749998 -31.250000 12.500002
v -31.249998 -31.250002 12.500002
v -31.249998 -31.250002 0.000002
v -18.749998 -31.250002 0.000002
v -18.749998 -18.750002 0.000001
v -31.249998 -18.750002 0.000001
v -31.249998 -18.750002 12.500001
v -18.749998 -18.750000 12.500001
v -18.749998 -31.250002 0.000002
v -31.249998 -31.250002 0.000002
v -31.249998 -18.750002 0.000001
v -18.749998 -18.750002 0.000001
v -18.749998 -31.250000 12.500002
v -18.749998 -31.250002 0.000002
v -18.749998 -18.750000 12.500001
v -18.749998 -18.750002 0.000001
v -31.249998 -31.250002 12.500002
v -31.249998 -18.750002 0.000001
v -31.249998 -31.250002 0.000002
v -31.249998 -18.750002 12.500001
v -18.750002 18.750002 24.999998
v -31.250002 18.749998 24.999998
v -31.250002 18.749996 12.499999
v -18.750002 18.750002 12.499999
v -18.750002 31.250002 12.499998
v -31.250002 31.249996 12.499998
v -31.250002 31.249998 24.999998
v -18.750002 31.250002 24.999998
v -18.750002 18.750002 12.499999
v -31.250002 18.749996 12.499999
v -31.250002 31.249996 12.499998
v -18.750002 31.250002 12.499998
v -18.750002 18.750002 24.999998
v -18.750002 18.750002 12.499999
v -18.750002 31.250002 24.999998
v -18.750002 31.250002 12.499998
v -31.250002 18.749998 24.999998
v -31.250002 31.249996 12.499998
v -31.250002 18.749996 12.499999
v -31.250002 31.249998 24.999998
v -12.500006 37.500004 43.749996
v -12.500004 12.500002 43.750000
v -12.500001 12.500001 25.000002
v -12.500003 37.500000 25.000000
v -12.500006 37.500004 43.749996
v -37.500008 37.500000 43.749996
v -12.500004 12.500002 43.750000
v -37.500004 12.500000 43.750000
v -37.500004 37.500000 24.999996
v -37.500000 12.499999 24.999998
v -37.500004 12.500000 43.750000
v -37.500008 37.500000 43.749996
v -12.500003 37.500000 25.000000
v -12.500001 12.500001 25.000002
v -37.500000 12.499999 24.999998
v -37.500004 37.500000 24.999996
v -12.500006 37.500004 43.749996
v -12.500003 37.500000 25.000000
v -37.500008 37.500000 43.749996
v -37.500004 37.500000 24.999996
v -12.500004 12.500002 43.750000
v -37.500000 12.499999 24.999998
v -12.500001 12.500001 25.000002
v -37.500004 12.500000 43.750000
v -31.250002 18.749996 -0.000001
v -18.750002 18.750000 -0.000001
v -18.750002 31.250000 -0.000002
v -31.250002 31.249996 -0.000002
v -18.750002 18.750000 -0.000001
v -31.250002 18.749996 -0.000001
v -31.250002 31.249996 -0.000002
v -18.750002 31.250000 -0.000002
v -18.750002 18.750000 -0.000001
v -18.750002 31.250000 -0.000002
v -31.250002 31.249996 -0.000002
v -31.250002 18.749996 -0.000001
v -18.749998 -31.250000 25.000002
v -31.249998 -31.250000 25.000002
v -31.249998 -18.750000 25.000002
v -18.749998 -18.750000 25.000002
v -18.749998 -31.250000 12.500002
v -31.249998 -31.250002 12.500002
v -31.249998 -18.750002 12.500001
v -18.749998 -18.750000 12.500001
v -18.749998 -31.250000 25.000002
v -18.749998 -18.750000 25.000002
v -31.249998 -31.250000 25.000002
v -31.249998 -18.750000 25.000002
v -18.749998 -31.249998 37.500004
v -31.249998 -31.250000 37.500004
v -31.249998 -18.750000 37.500000
v -18.749998 -18.749998 37.500000
v -18.749998 -31.250000 25.000002
v -31.249998 -31.250000 25.000002
v -31.249998 -18.750000 25.000002
v -18.749998 -18.750000 25.000002
v -18.749998 -31.249998 37.500004
v -18.749998 -18.749998 37.500000
v -31.249998 -31.250000 37.500004
v -31.249998 -18.750000 37.500000
vn -0.0000 1.0000 -0.0000
vn -0.0000 -0.0000 1.0000
vn -0.0000 -1.0000 -0.0000
vn -0.0000 -0.0000 -1.0000
vn -1.0000 -0.0000 -0.0000
vn 1.0000 -0.0000 -0.0000
vt 0.046875 0.671875
vt 0.046875 0.640625
vt 0.015625 0.640625
vt 0.015625 0.671875
vt 0.234375 0.640625
vt 0.234375 0.578125
vt 0.171875 0.578125
vt 0.171875 0.640625
vt 0.109375 0.640625
vt 0.109314 0.687500
vt 0.046875 0.687500
vt 0.109375 0.687500
vt 0.171753 0.687500
vt 0.171875 0.703125
vt 0.171875 0.640869
vt 0.234253 0.640869
vt 0.234253 0.703125
vt 0.046875 0.703125
vt 0.015625 0.703125
s 1
usemtl MI_NetherFoilage_NoDeform_Emissive
f 112/1/5 110/2/5 111/3/5 109/4/5
f 84/5/4 81/6/4 82/7/4 83/8/4
f 28/9/3 25/10/3 26/11/3 27/2/3
f 180/1/5 112/2/5 109/3/5 179/4/5
f 12/11/3 9/2/3 10/9/3 11/10/3
f 48/12/5 46/9/5 47/8/5 45/13/5
f 24/12/6 22/9/6 23/8/6 21/13/6
f 148/5/4 145/6/4 146/7/4 147/8/4
f 60/1/4 57/2/4 58/3/4 59/4/4
f 104/1/4 101/2/4 102/3/4 103/4/4
f 8/14/2 7/15/2 5/16/2 6/17/2
f 150/9/1 152/8/1 151/13/1 149/12/1
f 169/1/3 181/18/3 182/19/3 170/4/3
f 117/18/1 159/1/1 160/4/1 118/19/1
f 126/3/6 128/2/6 127/1/6 125/4/6
f 36/11/1 33/2/1 34/9/1 35/10/1
f 130/1/5 167/2/5 168/3/5 131/4/5
f 4/9/1 1/10/1 2/11/1 3/2/1
f 144/11/5 141/2/5 142/9/5 143/10/5
f 62/3/6 64/2/6 63/1/6 61/4/6
f 16/5/4 13/6/4 14/7/4 15/8/4
f 164/1/4 161/2/4 162/3/4 163/4/4
f 40/5/4 37/6/4 38/7/4 39/8/4
f 93/1/3 169/18/3 170/19/3 94/4/3
f 158/1/3 116/18/3 115/19/3 157/4/3
f 140/14/2 139/15/2 137/16/2 138/17/2
f 92/12/6 90/9/6 91/8/6 89/13/6
f 68/1/5 66/2/5 67/3/5 65/4/5
f 120/18/1 117/1/1 118/4/1 119/19/1
f 192/1/5 180/2/5 179/3/5 191/4/5
f 72/9/1 69/10/1 70/11/1 71/2/1
f 136/9/6 133/10/6 134/11/6 135/2/6
f 76/14/2 75/15/2 73/16/2 74/17/2
f 32/14/2 31/15/2 29/16/2 30/17/2
f 156/12/3 154/9/3 155/8/3 153/13/3
f 105/3/6 107/2/6 178/1/6 177/4/6
f 86/9/5 88/8/5 87/13/5 85/12/5
f 42/9/6 44/8/6 43/13/6 41/12/6
f 116/1/3 113/18/3 114/19/3 115/4/3
f 96/1/3 93/18/3 94/19/3 95/4/3
f 124/1/4 121/2/4 122/3/4 123/4/4
f 80/11/3 77/2/3 78/9/3 79/10/3
f 106/3/6 108/2/6 107/1/6 105/4/6
f 184/18/1 172/1/1 171/4/1 183/19/1
f 56/18/1 53/1/1 54/4/1 55/19/1
f 18/9/5 20/8/5 19/13/5 17/12/5
f 132/1/5 130/2/5 131/3/5 129/4/5
f 52/1/3 49/18/3 50/19/3 51/4/3
f 172/18/1 100/1/1 99/4/1 171/19/1
f 100/18/1 97/1/1 98/4/1 99/19/1
f 165/3/6 166/2/6 128/1/6 126/4/6
f 176/1/4 173/2/4 174/3/4 175/4/4
f 177/3/6 178/2/6 190/1/6 189/4/6
f 188/1/4 185/2/4 186/3/4 187/4/4
