# Blender 5.0.1
# www.blender.org
mtllib BP_FancyUrn_Regular_01.mtl
o SM_FancyUrn_Regular.001
v -31.249998 -31.250002 75.000000
v -31.249998 -31.249998 -0.000001
v 31.249998 -31.250002 75.000000
v 31.249998 -31.249998 -0.000001
v -31.249998 31.249998 0.000001
v -31.249998 31.249994 75.000000
v 31.249998 31.249998 0.000001
v 31.249998 31.249994 75.000000
v 31.249998 -31.249998 -0.000001
v 31.249998 31.249998 0.000001
v 31.249998 -31.250002 75.000000
v 31.249998 31.249994 75.000000
v -31.249998 -31.249998 -0.000001
v -31.249998 -31.250002 75.000000
v -31.249998 31.249998 0.000001
v -31.249998 31.249994 75.000000
v -18.750000 -18.750004 100.000000
v 18.750000 -18.750004 100.000000
v 18.750000 18.749996 100.000000
v -18.750000 18.749996 100.000000
v -18.750000 18.749996 75.000000
v -18.750000 18.749996 100.000000
v 18.750000 18.749996 75.000000
v 18.750000 18.749996 100.000000
v -18.750000 -18.750004 100.000000
v -18.750000 18.749996 75.000000
v -18.750000 -18.750006 75.000000
v -18.750000 18.749996 100.000000
v 18.750000 -18.750004 100.000000
v -18.750000 -18.750004 100.000000
v -18.750000 -18.750006 75.000000
v 18.750000 -18.750004 75.000000
v 18.750000 -18.750004 100.000000
v 18.750000 -18.750004 75.000000
v 18.750000 18.749996 100.000000
v 18.750000 18.749996 75.000000
v -31.249998 -31.249998 -0.000001
v -31.249998 31.249998 0.000001
v 31.249998 -31.249998 -0.000001
v 31.249998 31.249998 0.000001
v -31.249998 31.249994 75.000000
v -31.249998 -31.250002 75.000000
v -18.750000 18.749996 75.000000
v 31.249998 31.249994 75.000000
v -18.750000 -18.750006 75.000000
v 18.750000 18.749996 75.000000
v 31.249998 -31.250002 75.000000
v 18.750000 -18.750004 75.000000
vn -0.0000 -1.0000 -0.0000
vn -0.0000 1.0000 -0.0000
vn 1.0000 -0.0000 -0.0000
vn -1.0000 -0.0000 -0.0000
vn -0.0000 -0.0000 1.0000
vn -0.0000 -0.0000 -1.0000
vt 0.708008 0.208496
vt 0.583008 0.208496
vt 0.583008 0.083496
vt 0.708008 0.083496
vt 0.791504 0.208496
vt 0.791504 0.083496
vt 0.791504 0.416992
vt 0.791504 0.625000
vt 0.541504 0.625000
vt 0.541504 0.416992
vt 1.000000 0.166992
vt 1.000000 0.416992
vt 0.791504 0.166992
vt 0.583008 0.000000
vt 0.708008 0.000000
vt 0.958008 0.458496
vt 1.000000 0.625000
vt 0.958008 0.583496
vt 0.833008 0.458496
vt 0.833008 0.583496
vt 0.583008 0.416992
s 1
usemtl WorldGridMaterial
f 20/1/5 17/2/5 18/3/5 19/4/5
f 32/5/1 29/1/1 30/4/1 31/6/1
f 14/7/4 16/8/4 15/9/4 13/10/4
f 4/11/1 3/12/1 1/7/1 2/13/1
f 8/7/2 7/13/2 5/11/2 6/12/2
f 34/14/3 36/15/3 35/4/3 33/3/3
f 24/4/2 23/6/2 21/5/2 22/1/2
f 28/3/4 26/14/4 27/15/4 25/4/4
f 12/7/3 11/8/3 9/9/3 10/10/3
f 43/16/5 41/12/5 42/17/5
f 43/16/5 44/7/5 41/12/5
f 45/18/5 43/16/5 42/17/5
f 46/19/5 44/7/5 43/16/5
f 45/18/5 42/17/5 47/8/5
f 46/19/5 47/8/5 44/7/5
f 48/20/5 45/18/5 47/8/5
f 48/20/5 47/8/5 46/19/5
f 40/5/6 39/7/6 37/21/6 38/2/6
