# Blender 5.0.1
# www.blender.org
mtllib BP_FallingBlockAvalanche_Irregular_2.mtl
o SM__FB_Irregular_2.001
v -100.000000 0.000008 49.999996
v 0.000000 -0.000008 -50.000008
v 0.000000 0.000008 49.999996
v -100.000000 -0.000008 -50.000008
v 0.000000 0.000008 49.999996
v 0.000000 -100.000008 -49.999989
v 0.000000 -99.999992 50.000011
v 0.000000 -0.000008 -50.000008
v 100.000000 100.000008 49.999981
v 0.000000 99.999992 -50.000023
v 0.000000 100.000008 49.999981
v 100.000000 99.999992 -50.000023
v -100.000000 100.000008 49.999981
v -100.000000 99.999992 -50.000023
v -100.000000 100.000008 49.999981
v -100.000000 -0.000008 -50.000008
v -100.000000 0.000008 49.999996
v -100.000000 99.999992 -50.000023
v 100.000000 0.000008 49.999996
v 100.000000 -99.999992 50.000011
v 100.000000 -0.000008 -50.000008
v 100.000000 -100.000008 -49.999989
v 100.000000 100.000008 49.999981
v 100.000000 99.999992 -50.000023
v 100.000000 -99.999992 50.000011
v 0.000000 -99.999992 50.000011
v 0.000000 -100.000008 -49.999989
v 100.000000 -100.000008 -49.999989
v 100.000000 100.000008 49.999981
v 0.000000 100.000008 49.999981
v 0.000000 0.000008 49.999996
v 100.000000 0.000008 49.999996
v -100.000000 100.000008 49.999981
v -100.000000 0.000008 49.999996
v 0.000000 -99.999992 50.000011
v 100.000000 -99.999992 50.000011
vn -0.0000 -1.0000 -0.0000
vn -1.0000 -0.0000 -0.0000
vn -0.0000 1.0000 -0.0000
vn 1.0000 -0.0000 -0.0000
vn -0.0000 -0.0000 1.0000
vt -0.000031 0.000000
vt 1.000000 0.000000
vt 1.000000 0.999969
vt 0.000031 0.999969
vt 0.000031 0.000000
s 1
usemtl TestBlock16x
f 18/1/2 16/2/2 17/3/2 15/4/2
f 32/2/5 29/3/5 30/4/5 31/5/5
f 11/4/3 10/1/3 14/2/3 13/3/3
f 4/1/1 2/2/1 3/3/1 1/4/1
f 8/1/2 6/2/2 7/3/2 5/4/2
f 34/5/5 31/2/5 30/3/5 33/4/5
f 20/4/4 22/1/4 21/2/4 19/3/4
f 12/1/3 10/2/3 11/3/3 9/4/3
f 19/4/4 21/1/4 24/2/4 23/3/4
f 28/2/1 25/3/1 26/4/1 27/1/1
f 36/2/5 32/3/5 31/4/5 35/5/5
