# Blender 5.0.1
# www.blender.org
mtllib BP_FF_HiddenPillar001.mtl
o SM_FF_BlockingPillar01.001
v 100.000008 -100.000000 100.000000
v 0.000007 -100.000000 100.000000
v 100.000008 -100.000000 0.000000
v 0.000007 -100.000000 0.000000
v 100.000008 0.000000 500.000000
v 0.000007 100.000000 500.000000
v 0.000007 0.000000 500.000000
v 100.000008 100.000000 500.000000
v 100.000008 100.000000 -0.000000
v 0.000007 100.000000 -0.000000
v 100.000008 100.000000 100.000000
v 0.000007 100.000000 100.000000
v 100.000008 0.000000 0.000000
v 100.000008 100.000000 -0.000000
v 100.000008 0.000000 100.000000
v 100.000008 100.000000 100.000000
v -100.000000 0.000000 100.000000
v -100.000000 100.000000 -0.000000
v -100.000000 0.000000 0.000000
v -100.000000 100.000000 100.000000
v 100.000008 -100.000000 200.000000
v 0.000007 -100.000000 200.000000
v 100.000008 0.000000 200.000000
v 100.000008 100.000000 200.000000
v 0.000007 100.000000 200.000000
v 100.000008 100.000000 200.000000
v -100.000000 0.000000 200.000000
v -100.000000 100.000000 200.000000
v 100.000008 -100.000000 300.000000
v 0.000007 -100.000000 300.000000
v 100.000008 0.000000 300.000000
v 100.000008 100.000000 300.000000
v 0.000007 100.000000 300.000000
v 100.000008 100.000000 300.000000
v -100.000000 0.000000 300.000000
v -100.000000 100.000000 300.000000
v 100.000008 -100.000000 400.000000
v 0.000007 -100.000000 400.000000
v 100.000008 0.000000 400.000000
v 100.000008 100.000000 400.000000
v 0.000007 100.000000 400.000000
v 100.000008 100.000000 400.000000
v -100.000000 0.000000 400.000000
v -100.000000 100.000000 400.000000
v 0.000007 -200.000000 449.999969
v 100.000008 -200.000000 449.999969
v 0.000007 -200.000000 500.000000
v 100.000008 -200.000000 500.000000
v 200.000015 0.000000 449.999969
v 200.000015 100.000000 449.999969
v 200.000015 0.000000 500.000000
v 200.000015 100.000000 500.000000
v 0.000007 200.000000 500.000000
v 100.000008 200.000000 449.999969
v 0.000007 200.000000 449.999969
v 100.000008 200.000000 500.000000
v -200.000000 0.000000 500.000000
v -200.000000 100.000000 449.999969
v -200.000000 0.000000 449.999969
v -200.000000 100.000000 500.000000
v 0.000007 -100.000000 400.000000
v 100.000008 -100.000000 400.000000
v 0.000007 -150.000000 400.000000
v 100.000008 -150.000000 400.000000
v 100.000008 0.000000 400.000000
v 100.000008 100.000000 400.000000
v 150.000015 0.000000 400.000000
v 150.000015 100.000000 400.000000
v 0.000007 150.000000 400.000000
v 0.000007 100.000000 400.000000
v 100.000008 150.000000 400.000000
v -150.000000 0.000000 400.000000
v -100.000000 100.000000 400.000000
v -100.000000 0.000000 400.000000
v -150.000000 100.000000 400.000000
v 0.000007 -150.000000 400.000000
v 100.000008 -150.000000 400.000000
v 0.000007 -150.000000 449.999969
v 100.000008 -150.000000 450.000122
v 150.000015 0.000000 400.000000
v 150.000015 100.000000 400.000000
v 150.000015 0.000000 449.999969
v 150.000015 100.000000 450.000122
v 100.000008 150.000000 400.000000
v 0.000007 150.000000 400.000000
v 0.000007 150.000000 449.999969
v 100.000008 150.000000 450.000122
v -150.000000 0.000000 449.999969
v -150.000000 100.000000 400.000000
v -150.000000 0.000000 400.000000
v -150.000000 100.000000 450.000122
v 0.000007 -150.000000 449.999969
v 100.000008 -150.000000 450.000122
v 0.000007 -200.000000 449.999969
v 100.000008 -200.000000 449.999969
v 150.000015 0.000000 449.999969
v 150.000015 100.000000 450.000122
v 200.000015 0.000000 449.999969
v 200.000015 100.000000 449.999969
v 0.000007 200.000000 449.999969
v 100.000008 150.000000 450.000122
v 0.000007 150.000000 449.999969
v 100.000008 200.000000 449.999969
v -200.000000 0.000000 449.999969
v -150.000000 100.000000 450.000122
v -150.000000 0.000000 449.999969
v -200.000000 100.000000 449.999969
v -100.000000 100.000000 -0.000000
v -100.000000 100.000000 100.000000
v -100.000000 100.000000 200.000000
v -100.000000 100.000000 300.000000
v -100.000000 100.000000 400.000000
v -100.000000 150.000000 400.000000
v -100.000000 150.000000 400.000000
v -100.000000 150.000000 450.000122
v -100.000000 150.000000 450.000122
v -100.000000 200.000000 449.999969
v -100.000000 200.000000 449.999969
v -100.000000 200.000000 500.000000
v -100.000000 0.000000 500.000000
v -100.000000 100.000000 500.000000
v -100.000000 -200.000000 500.000000
v -100.000000 -200.000000 449.999969
v -100.000000 -200.000000 449.999969
v -100.000000 -150.000000 450.000122
v -100.000000 -150.000000 450.000122
v -100.000000 -150.000000 400.000000
v -100.000000 -150.000000 400.000000
v -100.000000 -100.000000 400.000000
v -100.000000 -100.000000 400.000000
v -100.000000 -100.000000 300.000000
v -100.000000 -100.000000 200.000000
v -100.000000 -100.000000 100.000000
v -100.000000 -100.000000 0.000000
v -100.000000 -100.000000 100.000000
v -100.000000 -100.000000 200.000000
v -100.000000 -100.000000 300.000000
v -100.000000 -100.000000 400.000000
v -150.000000 -100.000000 400.000000
v -150.000000 -100.000000 450.000122
v -150.000000 -100.000000 400.000000
v -200.000000 -100.000000 449.999969
v -150.000000 -100.000000 450.000122
v -200.000000 -100.000000 500.000000
v -200.000000 -100.000000 449.999969
v 0.000007 -100.000000 500.000000
v -100.000000 -100.000000 500.000000
v 100.000008 -100.000000 500.000000
v 200.000015 -100.000000 500.000000
v 200.000015 -100.000000 449.999969
v 200.000015 -100.000000 449.999969
v 150.000015 -100.000000 450.000122
v 150.000015 -100.000000 450.000122
v 150.000015 -100.000000 400.000000
v 150.000015 -100.000000 400.000000
v 100.000008 -100.000000 400.000000
v 100.000008 -100.000000 300.000000
v 100.000008 -100.000000 200.000000
v 100.000008 -100.000000 100.000000
v 100.000008 -100.000000 0.000000
v -100.000000 -100.000000 0.000000
v -150.000000 0.000000 500.000000
v -150.000000 100.000000 500.000000
v -200.000000 0.000000 500.000000
v -200.000000 100.000000 500.000000
v 0.000007 -200.000000 500.000000
v 100.000008 -200.000000 500.000000
v 100.000008 -150.000000 500.000000
v 0.000007 -150.000000 500.000000
v -100.000000 -150.000000 500.000000
v -100.000000 -200.000000 500.000000
v -200.000000 -100.000000 500.000000
v -150.000000 -100.000000 500.000000
v 200.000015 -100.000000 500.000000
v 200.000015 0.000000 500.000000
v 150.000015 -100.000000 500.000000
v 150.000015 0.000000 500.000000
v 150.000015 100.000000 500.000000
v 200.000015 100.000000 500.000000
v 0.000007 150.000000 500.000000
v 100.000008 150.000000 500.000000
v 0.000007 200.000000 500.000000
v 100.000008 200.000000 500.000000
v -100.000000 150.000000 500.000000
v -100.000000 200.000000 500.000000
v -100.000000 -150.000000 400.000000
v -100.000000 -150.000000 450.000122
v -100.000000 -100.000000 450.000122
v -100.000000 -100.000000 500.000000
v -100.000000 -150.000000 500.000000
v -100.000000 -200.000000 500.000000
v -100.000000 -200.000000 449.999969
v 100.000008 -150.000000 450.000122
v 100.000008 -150.000000 400.000000
v 100.000008 -100.000000 450.000122
v 100.000008 -100.000000 500.000000
v 100.000008 -150.000000 500.000000
v 100.000008 -200.000000 500.000000
v 100.000008 -200.000000 449.999969
v 150.000015 -100.000000 450.000122
v 150.000015 -100.000000 400.000000
v 100.000008 -100.000000 450.000122
v 100.000008 -100.000000 500.000000
v 150.000015 -100.000000 500.000000
v 200.000015 -100.000000 500.000000
v 200.000015 -100.000000 449.999969
v 150.000015 100.000000 400.000000
v 150.000015 100.000000 450.000122
v 100.000008 100.000000 450.000122
v 100.000008 100.000000 500.000000
v 150.000015 100.000000 500.000000
v 200.000015 100.000000 500.000000
v 200.000015 100.000000 449.999969
v 100.000008 150.000000 450.000122
v 100.000008 150.000000 400.000000
v 100.000008 100.000000 450.000122
v 100.000008 100.000000 500.000000
v 100.000008 150.000000 500.000000
v 100.000008 200.000000 500.000000
v 100.000008 200.000000 449.999969
v -100.000000 150.000000 450.000122
v -100.000000 150.000000 400.000000
v -100.000000 100.000000 450.000122
v -100.000000 100.000000 500.000000
v -100.000000 150.000000 500.000000
v -100.000000 200.000000 500.000000
v -100.000000 200.000000 449.999969
v -150.000000 100.000000 400.000000
v -150.000000 100.000000 450.000122
v -100.000000 100.000000 450.000122
v -100.000000 100.000000 500.000000
v -150.000000 100.000000 500.000000
v -200.000000 100.000000 500.000000
v -200.000000 100.000000 449.999969
v -150.000000 -100.000000 450.000122
v -150.000000 -100.000000 400.000000
v -100.000000 -100.000000 450.000122
v -100.000000 -100.000000 500.000000
v -150.000000 -100.000000 500.000000
v -200.000000 -100.000000 500.000000
v -200.000000 -100.000000 449.999969
vn -0.0000 -1.0000 -0.0000
vn -0.0000 -0.0000 1.0000
vn -0.0000 1.0000 -0.0000
vn 1.0000 -0.0000 -0.0000
vn -1.0000 -0.0000 -0.0000
vn -0.0000 -0.0000 -1.0000
vt 0.625000 0.875000
vt 0.625000 1.000031
vt 0.499756 1.000031
vt 0.499756 0.875000
vt 0.500000 0.999969
vt 0.500000 0.750000
vt 0.750000 0.750000
vt 0.750000 0.999969
vt 0.750000 0.875000
vt 0.750000 0.999969
vt 0.500000 0.875000
vt -0.000031 0.500000
vt 0.249878 0.500000
vt 0.249878 0.750122
vt -0.000031 0.750122
vt 0.624512 0.999969
vt 0.624512 0.750122
vt 0.749512 0.750122
vt 0.749512 0.999969
vt 0.750000 1.000031
vt 0.749512 0.875000
vt 0.749512 0.750000
vt 0.749512 1.000031
vt 0.500000 1.000031
vt 0.000031 0.750000
vt 0.250000 0.750000
vt 0.250000 0.999969
vt 0.000031 0.999969
vt 0.000031 0.999969
vt 0.000031 0.750000
vt 0.000031 0.750122
vt 0.249878 0.999969
vt 0.500000 0.750122
vt 0.750000 0.750122
vt 0.625000 0.999969
vt 0.625000 0.750000
vt 0.500000 0.875061
vt 0.750000 0.875061
vt 0.250000 0.500000
vt 0.250000 0.750122
vt 0.749512 0.999969
vt 0.250000 0.999969
vt 0.000031 0.999969
vt -0.000031 0.750122
vt -0.000031 0.500000
vt 0.624512 0.875000
vt 0.249878 0.750000
vt 0.499756 0.750000
vt 0.750000 1.000031
vt 0.000031 0.999969
vt 0.249878 0.999969
vt 0.499756 0.750122
vt 0.749512 0.875061
vt 0.499756 0.875061
vt 0.000031 0.999969
vt 0.000031 0.750000
vt 0.624512 0.999969
vt 0.624512 0.875061
vt 0.749512 0.999969
vt 0.750000 1.000031
vt 0.625000 0.750122
vt 0.749512 1.000031
vt 0.500000 1.000031
vt 0.624512 0.750000
vt 0.750000 0.999969
vt 0.500000 1.000031
vt 0.499756 0.999969
vt 0.750000 0.999969
vt 0.624512 0.999969
vt 0.625000 0.999969
vt 0.750000 1.000031
vt 0.624512 1.000031
vt 0.749512 1.000031
vt 0.499756 0.999969
vt 0.500000 0.999969
vt 0.500000 1.000031
s 1
usemtl MI_HH_Miniatlas
f 187/1/5 190/2/5 189/3/5 188/4/5
f 2/5/1 4/6/1 3/7/1 1/8/1
f 46/9/1 48/10/1 47/5/1 45/11/1
f 30/5/1 22/6/1 21/7/1 29/8/1
f 35/12/5 137/13/5 138/14/5 43/15/5
f 177/16/2 176/17/2 174/18/2 175/19/2
f 60/5/5 58/11/5 59/9/5 57/20/5
f 157/12/4 31/13/4 39/14/4 156/15/4
f 45/21/1 47/19/1 122/5/1 123/11/1
f 158/6/4 23/22/4 31/23/4 157/24/4
f 62/25/6 64/26/6 63/27/6 61/28/6
f 74/26/6 129/27/6 139/29/6 72/30/6
f 113/29/6 69/31/6 70/14/6 73/32/6
f 8/8/2 6/5/2 7/33/2 5/34/2
f 163/35/2 162/36/2 120/7/2 121/8/2
f 75/30/6 73/26/6 74/27/6 72/29/6
f 147/5/2 170/37/2 169/38/2 146/8/2
f 44/15/5 36/12/5 35/39/5 43/40/5
f 111/41/3 33/5/3 25/6/3 110/22/3
f 61/25/6 63/26/6 128/42/6 129/43/6
f 112/14/3 41/44/3 33/45/3 111/13/3
f 38/15/1 30/12/1 29/39/1 37/40/1
f 195/38/4 193/46/4 194/17/4 156/34/4
f 62/29/6 65/30/6 67/47/6 155/32/6
f 16/23/4 15/24/4 13/6/4 14/22/4
f 90/48/5 141/22/5 140/21/5 88/4/5
f 76/22/1 78/21/1 126/4/1 127/48/1
f 91/4/5 89/48/5 90/22/5 88/21/5
f 206/9/1 205/49/1 204/2/1 200/1/1
f 99/47/6 98/32/6 96/29/6 97/30/6
f 93/30/6 95/47/6 94/32/6 92/29/6
f 152/50/6 96/30/6 98/47/6 151/51/6
f 40/14/4 39/44/4 31/45/4 32/13/4
f 165/5/2 164/6/2 162/36/2 163/35/2
f 160/6/4 13/22/4 15/23/4 159/24/4
f 28/5/5 20/6/5 17/7/5 27/8/5
f 5/5/2 148/33/2 176/17/2 177/16/2
f 77/7/1 79/9/1 78/4/1 76/48/1
f 92/30/6 94/47/6 124/32/6 125/29/6
f 200/1/1 202/11/1 37/6/1 201/36/1
f 6/7/2 180/9/2 184/11/2 121/6/2
f 10/7/3 12/8/3 11/5/3 9/6/3
f 103/30/6 101/47/6 102/32/6 100/29/6
f 154/52/4 80/18/4 82/53/4 153/54/4
f 52/19/4 51/5/4 49/37/4 50/53/4
f 32/23/4 31/24/4 23/6/4 24/22/4
f 68/47/6 67/32/6 65/55/6 66/56/6
f 211/57/3 208/58/3 209/53/3 210/59/3
f 7/5/2 146/33/2 148/34/2 5/8/2
f 22/24/1 2/33/1 1/34/1 21/60/1
f 216/4/4 40/52/4 215/61/4 214/1/4
f 120/5/2 147/33/2 146/34/2 7/8/2
f 20/24/5 18/6/5 19/7/5 17/60/5
f 83/53/4 82/37/4 80/33/4 81/18/4
f 117/29/6 100/31/6 102/14/6 116/32/6
f 34/5/3 26/6/3 25/7/3 33/8/3
f 115/38/3 86/54/3 85/33/3 114/34/3
f 59/11/5 145/21/5 144/19/5 57/5/5
f 22/22/1 30/19/1 131/5/1 132/6/1
f 106/26/6 143/27/6 142/28/6 104/25/6
f 87/54/3 84/52/3 85/34/3 86/38/3
f 30/13/1 38/14/1 130/44/1 131/45/1
f 24/19/4 23/5/4 15/6/4 16/22/4
f 147/34/2 120/8/2 162/35/2 173/61/2
f 12/5/3 10/6/3 108/22/3 109/19/3
f 26/24/3 11/33/3 12/34/3 25/60/3
f 71/30/6 66/47/6 70/32/6 69/29/6
f 42/44/3 34/45/3 33/39/3 41/40/3
f 173/61/2 162/35/2 164/5/2 172/33/2
f 110/62/3 25/24/3 12/33/3 109/18/3
f 170/37/2 171/6/2 166/7/2 169/38/2
f 159/6/4 15/22/4 23/19/4 158/5/4
f 200/1/1 204/2/1 203/63/1 202/11/1
f 146/5/2 169/37/2 168/38/2 148/8/2
f 169/37/2 166/6/2 167/7/2 168/38/2
f 19/6/5 161/22/5 135/23/5 17/24/5
f 183/8/2 182/5/2 180/11/2 181/9/2
f 36/24/5 28/6/5 27/7/5 35/60/5
f 181/9/2 180/11/2 6/6/2 8/7/2
f 44/22/5 223/21/5 221/46/5 222/64/5
f 179/19/2 178/16/2 177/64/2 175/22/2
f 178/16/2 8/5/2 5/6/2 177/64/2
f 196/65/4 197/57/4 193/46/4 195/38/4
f 121/5/2 120/33/2 7/34/2 6/8/2
f 56/66/3 54/37/3 55/38/3 53/20/3
f 198/67/4 199/4/4 193/46/4 197/57/4
f 119/20/3 53/5/3 55/37/3 118/38/3
f 237/38/1 235/1/1 236/36/1 130/7/1
f 220/9/4 219/68/4 218/69/4 214/1/4
f 187/1/5 188/4/5 138/48/5 186/36/5
f 180/9/2 182/8/2 185/5/2 184/11/2
f 234/21/3 233/59/3 232/70/3 229/1/3
f 17/6/5 135/22/5 136/19/5 27/5/5
f 150/54/4 49/53/4 51/19/4 149/5/4
f 241/11/1 235/1/1 239/35/1 240/5/1
f 230/11/3 112/33/3 228/61/3 229/1/3
f 27/6/5 136/22/5 137/23/5 35/24/5
f 107/25/6 105/26/6 106/27/6 104/28/6
f 2/18/1 22/23/1 132/24/1 133/33/1
f 4/22/1 2/19/1 133/5/1 134/6/1
f 192/9/5 191/71/5 190/2/5 187/1/5
f 225/72/5 221/46/5 223/21/5 224/73/5
f 218/69/4 217/74/4 216/4/4 214/1/4
f 212/75/3 213/37/3 208/58/3 211/57/3
f 232/70/3 231/75/3 230/11/3 229/1/3
f 42/18/3 209/53/3 208/58/3 207/17/3
f 227/11/5 221/46/5 225/72/5 226/76/5
f 238/8/1 239/35/1 235/1/1 237/38/1
