# Blender 5.0.1
# www.blender.org
mtllib BP_Fish02.mtl
o SM_Fish02.001
v -28.125000 0.000000 9.375000
v -18.750000 0.000000 0.000000
v -18.750000 0.000000 9.375000
v -28.125000 0.000000 0.000000
v -3.125000 0.000000 15.625000
v -15.625000 0.000000 15.625000
v -15.625000 0.000000 9.375000
v -3.125000 0.000000 9.375000
v 0.000001 -3.125000 9.375000
v -18.750000 -3.125000 9.375000
v -18.750000 -3.125000 0.000000
v 0.000001 -3.125000 0.000000
v -18.750000 -3.125000 9.375000
v 0.000001 -3.125000 9.375000
v 0.000001 3.125000 9.375000
v -18.750000 3.125000 9.375000
v 0.000001 3.125000 -0.000000
v -18.750000 3.125000 -0.000000
v -18.750000 3.125000 9.375000
v 0.000001 3.125000 9.375000
v 0.000001 -3.125000 0.000000
v -18.750000 -3.125000 0.000000
v -18.750000 3.125000 -0.000000
v 0.000001 3.125000 -0.000000
v 0.000001 -3.125000 9.375000
v 0.000001 -3.125000 0.000000
v 0.000001 3.125000 9.375000
v 0.000001 3.125000 -0.000000
v -18.750000 -3.125000 9.375000
v -18.750000 3.125000 -0.000000
v -18.750000 -3.125000 0.000000
v -18.750000 3.125000 9.375000
vn -0.0000 -1.0000 -0.0000
vn -0.0000 -0.0000 1.0000
vn -0.0000 1.0000 -0.0000
vn -0.0000 -0.0000 -1.0000
vn 1.0000 -0.0000 -0.0000
vn -1.0000 -0.0000 -0.0000
vt 0.562500 0.687500
vt 0.562500 0.875000
vt 0.187500 0.875000
vt 0.187500 0.687500
vt 0.187500 0.999969
vt 0.562500 0.999969
vt 0.562500 0.562500
vt 0.187500 0.562500
vt 0.250000 0.437500
vt 0.250000 0.562500
vt 0.000031 0.562500
vt 0.000031 0.437500
vt 0.750000 0.875000
vt 0.750000 0.999969
vt 0.187500 0.750000
vt -0.000031 0.750000
vt 0.000031 0.999969
vt 0.000031 0.875000
s 1
usemtl MI_Fish02
f 20/1/3 17/2/3 18/3/3 19/4/3
f 12/1/1 9/2/1 10/3/1 11/4/1
f 16/5/2 13/3/2 14/2/2 15/6/2
f 24/7/4 21/1/4 22/4/4 23/8/4
f 8/9/1 5/10/1 6/11/1 7/12/1
f 26/13/5 28/14/5 27/6/5 25/2/5
f 4/11/1 2/8/1 3/15/1 1/16/1
f 32/5/6 30/17/6 31/18/6 29/3/6
