# Blender 5.0.1
# www.blender.org
mtllib BP_FFJ_SqueezeShroom_1.mtl
o SM_FFJ_Shroom_S.001
v -3.125000 3.125000 31.250000
v -3.125000 -3.125000 -0.000000
v -3.125000 -3.125001 31.250000
v -3.125000 3.125000 -0.000000
v -3.125000 -3.125001 31.250000
v -3.125000 -3.125000 -0.000000
v 3.125000 -3.125000 0.000000
v 3.125000 -3.125000 31.250000
v -3.125000 3.125000 31.250000
v 3.125000 3.125000 0.000000
v -3.125000 3.125000 -0.000000
v 3.125001 3.125000 31.250000
v 3.125000 -3.125000 0.000000
v 3.125001 3.125000 31.250000
v 3.125000 -3.125000 31.250000
v 3.125000 3.125000 0.000000
v -9.374998 9.375000 33.749996
v -9.375000 -9.374997 33.749996
v 9.374999 -9.374998 33.749996
v 9.375002 9.375000 33.749996
v 9.375002 9.375000 33.749996
v 9.374999 -9.374998 27.499998
v 9.375000 9.375002 27.499998
v 9.374999 -9.374998 33.749996
v -9.374998 9.375000 33.749996
v 9.375000 9.375002 27.499998
v -9.375001 9.374998 27.500000
v 9.375002 9.375000 33.749996
v -9.375000 -9.375000 27.500000
v 9.374999 -9.374998 33.749996
v -9.375000 -9.374997 33.749996
v 9.374999 -9.374998 27.499998
v -9.375000 -9.374997 33.749996
v -9.375001 9.374998 27.500000
v -9.375000 -9.375000 27.500000
v -9.374998 9.375000 33.749996
vn -1.0000 -0.0000 -0.0000
vn -0.0000 -1.0000 -0.0000
vn -0.0000 1.0000 -0.0000
vn 1.0000 -0.0000 -0.0000
vn -0.0000 -0.0000 1.0000
vt 0.843750 0.687500
vt 0.812012 0.687500
vt 0.812012 0.531250
vt 0.843750 0.531250
vt 0.874512 0.812500
vt 0.781250 0.812500
vt 0.781250 0.718750
vt 0.874512 0.718750
vt 0.781250 0.875000
vt 0.781250 0.843750
vt 0.874512 0.843750
vt 0.875000 0.875000
vt 0.874512 0.875000
s 1
usemtl MI_CW_Glowshrooms
f 8/1/2 5/2/2 6/3/2 7/4/2
f 16/4/4 14/1/4 15/2/4 13/3/4
f 4/3/1 2/4/1 3/1/1 1/2/1
f 20/5/5 17/6/5 18/7/5 19/8/5
f 24/9/4 22/10/4 23/11/4 21/12/4
f 32/11/2 30/12/2 31/9/2 29/10/2
f 36/9/1 34/10/1 35/11/1 33/13/1
f 28/9/3 26/10/3 27/11/3 25/12/3
f 12/2/3 10/3/3 11/4/3 9/1/3
