# Blender 5.0.1
# www.blender.org
mtllib BP_GlowingMushroomsBlue1x3.mtl
o SM_FFJ_WallMushrooms1x3.001
v 12.500000 56.250000 43.750000
v 62.500000 12.500000 43.749996
v 62.500000 56.250000 43.750000
v 12.500000 12.500000 43.749996
v 12.500000 31.250000 43.749996
v 56.250000 31.250000 43.749996
v 12.500000 31.249996 -6.250003
v 56.250000 31.249996 -6.250003
v 275.000000 43.750004 93.749992
v 243.750000 43.750004 93.749992
v 243.750000 12.500004 93.750000
v 275.000000 12.500004 93.750000
v 275.000000 25.000004 93.750000
v 275.000000 24.999996 6.249998
v 243.750000 25.000004 93.750000
v 243.750000 24.999996 6.249998
v 206.250000 37.500000 31.249996
v 287.500000 37.500000 31.249996
v 206.250000 37.499992 -56.250004
v 287.500000 37.499992 -56.250004
v 200.000000 56.249981 31.249998
v 300.000000 12.499998 31.249996
v 300.000000 56.250000 31.249998
v 200.000000 12.499984 31.249996
v -6.250000 25.000002 68.750000
v 75.000000 25.000002 68.750000
v -6.250000 24.999994 -18.750002
v 75.000000 24.999994 -18.750002
v -12.500000 12.500002 68.750000
v 87.500000 12.500016 68.750000
v -12.500006 62.500000 68.750000
v 87.499992 62.500015 68.750000
v 168.750000 50.000000 81.250000
v 106.250000 50.000000 81.250000
v 168.750000 12.500003 81.250000
v 106.250000 12.500003 81.250000
v 162.500000 25.000002 68.750000
v 106.250000 25.000002 68.750000
v 162.500000 25.000002 81.250000
v 106.250000 25.000002 81.250000
v 118.750000 12.499998 18.750000
v 168.750000 49.999996 18.749996
v 118.750000 49.999996 18.749996
v 168.750000 12.499998 18.750000
v 118.750000 24.999992 -68.750000
v 118.750000 24.999998 18.749998
v 168.750000 24.999998 18.749998
v 168.750000 24.999992 -68.750000
v 175.000000 56.250004 56.250000
v 225.000000 12.500000 56.250000
v 225.000000 56.250004 56.250000
v 175.000000 12.500000 56.250000
v 175.000000 31.250000 56.249996
v 218.750000 31.250000 56.249996
v 175.000000 31.249996 6.249997
v 218.750000 31.249996 6.249997
vn -0.0000 -0.0000 1.0000
vn -0.0000 1.0000 -0.0000
vt 0.000031 0.500000
vt 0.250000 0.500000
vt 0.250000 0.718750
vt 0.000031 0.718750
vt 0.937012 0.468750
vt 0.937500 0.031250
vt 0.531250 0.031250
vt 0.531250 0.468750
vt 0.687012 0.468750
vt 0.687500 0.031250
vt 0.593750 0.406250
vt 0.593750 0.468750
vt 0.874512 0.468750
vt 0.875000 0.406250
vt 0.781250 0.468750
vt 0.781250 0.031250
vt 1.000000 0.500000
vt 1.000000 0.656250
vt 0.843750 0.656250
vt 0.843750 0.500000
vt 0.000031 0.999969
vt 0.000031 0.750000
vt 0.500000 0.750000
vt 0.500000 0.999969
vt 0.000031 0.187500
vt 0.000031 0.000000
vt 0.312500 0.000000
vt 0.312500 0.187500
vt 0.500000 0.500000
vt 0.500000 0.687500
vt 0.250000 0.687500
vt 1.000000 0.999969
vt 0.500000 0.781250
vt 1.000000 0.781250
vt 0.750000 0.468750
vt 0.750000 0.218750
vt 0.531250 0.218750
s 1
usemtl MI_CW_WallShrooms
f 52/1/1 50/2/1 51/3/1 49/4/1
f 18/5/2 20/6/2 19/7/2 17/8/2
f 16/7/2 15/8/2 13/9/2 14/10/2
f 26/5/2 28/6/2 27/7/2 25/8/2
f 38/11/2 40/12/2 39/13/2 37/14/2
f 47/15/2 48/16/2 45/7/2 46/8/2
f 12/17/1 9/18/1 10/19/1 11/20/1
f 4/1/1 2/2/1 3/3/1 1/4/1
f 30/21/1 32/22/1 31/23/1 29/24/1
f 34/25/1 36/26/1 35/27/1 33/28/1
f 44/29/1 42/30/1 43/31/1 41/2/1
f 24/32/1 22/24/1 23/33/1 21/34/1
f 6/35/2 8/36/2 7/37/2 5/8/2
f 54/35/2 56/36/2 55/37/2 53/8/2
