# Blender 5.0.1
# www.blender.org
mtllib BP_GoldChest_Small.mtl
o SM_Chest_Piglin_Small.001
v 63.245163 -43.749992 0.000007
v -61.754852 -43.749992 0.000007
v 63.245163 43.749992 -0.000007
v -61.754852 43.749992 -0.000007
v -61.754852 -43.749981 62.500015
v 63.245163 -43.749992 0.000007
v 63.245163 -43.749981 62.500015
v -61.754852 -43.749992 0.000007
v 63.245163 43.750004 62.499992
v 63.245163 -43.749992 0.000007
v 63.245163 43.749992 -0.000007
v 63.245163 -43.749981 62.500015
v 63.245163 43.750004 62.499992
v -61.754852 43.749992 -0.000007
v -61.754852 43.750004 62.499992
v 63.245163 43.749992 -0.000007
v -61.754852 43.750004 62.499992
v -61.754852 -43.749992 0.000007
v -61.754852 -43.749981 62.500015
v -61.754852 43.749992 -0.000007
v 50.745163 31.249998 62.499996
v 50.745163 -31.250006 12.500012
v 50.745163 -31.249998 62.500015
v 50.745163 31.249990 12.499991
v -49.254852 -31.249996 62.500015
v -49.254852 -31.250004 12.500012
v -49.254852 31.250000 62.499996
v -49.254852 31.249992 12.499991
v -49.254852 -31.249996 62.500015
v 50.745163 -31.249998 62.500015
v 50.745163 -31.250006 12.500012
v -49.254852 -31.250004 12.500012
v 50.745163 31.249998 62.499996
v -49.254852 31.250000 62.499996
v -49.254852 31.249992 12.499991
v 50.745163 31.249990 12.499991
v 50.745163 31.249990 12.499991
v -49.254852 -31.250004 12.500012
v 50.745163 -31.250006 12.500012
v -49.254852 31.249992 12.499991
v 63.245163 43.748581 87.500008
v -61.754852 43.748581 87.500008
v -61.754852 -43.751400 87.495018
v 63.245163 -43.751400 87.495018
v -61.754852 -43.749973 62.495014
v 63.245163 -43.751400 87.495018
v -61.754852 -43.751400 87.495018
v 63.245163 -43.749973 62.495014
v 63.245163 -43.749973 62.495014
v 63.245163 43.748581 87.500008
v 63.245163 -43.751400 87.495018
v 63.245163 43.750008 62.499996
v 63.245163 43.750008 62.499996
v -61.754852 43.748581 87.500008
v 63.245163 43.748581 87.500008
v -61.754852 43.750008 62.499996
v -61.754852 43.748581 87.500008
v -61.754852 -43.749973 62.495014
v -61.754852 -43.751400 87.495018
v -61.754852 43.750008 62.499996
v 63.245163 -43.749973 62.495014
v -61.754852 -43.749973 62.495014
v 63.245163 43.750008 62.499996
v -61.754852 43.750008 62.499996
v 75.745102 9.451555 68.769272
v 63.245121 -9.451521 68.769272
v 75.745110 -9.451525 68.769272
v 63.245117 9.451555 68.769272
v 75.745110 -9.451525 68.769272
v 63.245125 -9.451523 46.751804
v 75.745117 -9.451525 46.751808
v 63.245121 -9.451521 68.769272
v 63.245117 9.451555 68.769272
v 75.745110 9.451548 46.751808
v 63.245121 9.451551 46.751801
v 75.745102 9.451555 68.769272
v 75.745117 -9.451537 6.167207
v 75.745117 -9.451531 28.184660
v 63.245125 -9.451526 28.184658
v 63.245129 -9.451537 6.167198
v 75.745117 -9.451537 6.167207
v 63.245129 9.451540 6.167187
v 75.745117 9.451541 6.167195
v 63.245129 -9.451537 6.167198
v 63.245121 9.451547 28.184650
v 75.745117 9.451541 6.167195
v 63.245129 9.451540 6.167187
v 75.745110 9.451544 28.184656
v 75.745117 -31.301064 46.751816
v 63.245129 -31.301060 28.184669
v 75.745117 -31.301067 28.184666
v 63.245129 -31.301056 46.751816
v 63.245129 -31.301060 28.184669
v 75.745117 -9.451531 28.184660
v 75.745117 -31.301067 28.184666
v 63.245125 -9.451526 28.184658
v 75.745117 -9.451525 46.751808
v 63.245129 -31.301056 46.751816
v 75.745117 -31.301064 46.751816
v 63.245125 -9.451523 46.751804
v 75.745110 31.301065 28.184649
v 75.745110 9.451544 28.184656
v 63.245121 9.451547 28.184650
v 63.245117 31.301067 28.184649
v 75.745102 31.301067 46.751801
v 63.245117 31.301067 28.184649
v 63.245117 31.301071 46.751801
v 75.745110 31.301065 28.184649
v 75.745102 31.301067 46.751801
v 63.245121 9.451551 46.751801
v 75.745110 9.451548 46.751808
v 63.245117 31.301071 46.751801
v -0.000002 -52.727966 87.495010
v -0.000002 -52.725853 50.450592
v 18.522211 -52.727966 87.495010
v 18.522211 -52.725853 50.450592
v 18.522211 -43.466862 87.495560
v -0.000005 -43.464756 50.451126
v -0.000005 -43.466869 87.495560
v 18.522211 -43.464752 50.451126
v -0.000005 -43.464756 50.451126
v 18.522211 -43.464752 50.451126
v -0.000002 -52.725853 50.450592
v 18.522211 -52.725853 50.450592
v 18.522211 -52.727966 87.495010
v 18.522211 -43.464752 50.451126
v 18.522211 -43.466862 87.495560
v 18.522211 -52.725853 50.450592
v -0.000005 -43.466869 87.495560
v 18.522211 -52.727966 87.495010
v 18.522211 -43.466862 87.495560
v -0.000002 -52.727966 87.495010
v -0.000005 -43.466869 87.495560
v -0.000005 -43.464756 50.451126
v -0.000002 -52.727966 87.495010
v -0.000002 -52.725853 50.450592
v -18.522215 -52.785961 77.694939
v -18.522215 -52.783836 40.650509
v -0.000002 -52.785961 77.694939
v -0.000002 -52.783836 40.650509
v -0.000005 -43.524857 77.695473
v -18.522217 -43.522739 40.651047
v -18.522217 -43.524857 77.695473
v -0.000005 -43.522739 40.651047
v -18.522217 -43.522739 40.651047
v -0.000005 -43.522739 40.651047
v -18.522215 -52.783836 40.650509
v -0.000002 -52.783836 40.650509
v -0.000002 -52.785961 77.694939
v -0.000005 -43.522739 40.651047
v -0.000005 -43.524857 77.695473
v -0.000002 -52.783836 40.650509
v -0.000005 -43.524857 77.695473
v -18.522215 -52.785961 77.694939
v -0.000002 -52.785961 77.694939
v -18.522217 -43.524857 77.695473
v -18.522217 -43.524857 77.695473
v -18.522217 -43.522739 40.651047
v -18.522215 -52.785961 77.694939
v -18.522215 -52.783836 40.650509
v -62.500015 9.451555 68.769272
v -75.000000 -9.451521 68.769272
v -62.500011 -9.451525 68.769272
v -75.000000 9.451555 68.769272
v -62.500011 -9.451525 68.769272
v -74.999992 -9.451523 46.751804
v -62.500004 -9.451525 46.751808
v -75.000000 -9.451521 68.769272
v -75.000000 9.451555 68.769272
v -62.500008 9.451548 46.751808
v -75.000000 9.451551 46.751801
v -62.500015 9.451555 68.769272
v -62.500000 -9.451537 6.167207
v -62.500004 -9.451531 28.184660
v -74.999992 -9.451526 28.184658
v -74.999992 -9.451537 6.167198
v -62.500000 -9.451537 6.167207
v -74.999985 9.451540 6.167187
v -62.500000 9.451541 6.167195
v -74.999992 -9.451537 6.167198
v -74.999992 9.451547 28.184650
v -62.500000 9.451541 6.167195
v -74.999985 9.451540 6.167187
v -62.500008 9.451544 28.184656
v -62.500004 -31.301064 46.751816
v -74.999985 -31.301060 28.184669
v -62.500000 -31.301067 28.184666
v -74.999992 -31.301056 46.751816
v -74.999985 -31.301060 28.184669
v -62.500004 -9.451531 28.184660
v -62.500000 -31.301067 28.184666
v -74.999992 -9.451526 28.184658
v -62.500004 -9.451525 46.751808
v -74.999992 -31.301056 46.751816
v -62.500004 -31.301064 46.751816
v -74.999992 -9.451523 46.751804
v -62.500008 31.301065 28.184649
v -62.500008 9.451544 28.184656
v -74.999992 9.451547 28.184650
v -75.000000 31.301067 28.184649
v -62.500011 31.301067 46.751801
v -75.000000 31.301067 28.184649
v -75.000000 31.301071 46.751801
v -62.500008 31.301065 28.184649
v -62.500011 31.301067 46.751801
v -75.000000 9.451551 46.751801
v -62.500008 9.451548 46.751808
v -75.000000 31.301071 46.751801
v 63.245121 9.451547 28.184650
v 63.245129 9.451540 6.167187
v 63.245129 -9.451537 6.167198
v 63.245125 -9.451526 28.184658
v 63.245121 0.000010 37.468227
v 63.245121 9.451551 46.751801
v 63.245117 31.301067 28.184649
v 63.245117 31.301071 46.751801
v 63.245125 -9.451523 46.751804
v 63.245129 -31.301060 28.184669
v 63.245129 -31.301056 46.751816
v 63.245117 9.451555 68.769272
v 63.245121 -9.451521 68.769272
v 75.745117 -31.301064 46.751816
v 75.745117 -31.301067 28.184666
v 75.745117 -9.451525 46.751808
v 75.745117 -9.451531 28.184660
v 75.745110 0.000008 37.468235
v 75.745110 9.451548 46.751808
v 75.745110 -9.451525 68.769272
v 75.745102 9.451555 68.769272
v 75.745110 9.451544 28.184656
v 75.745117 -9.451537 6.167207
v 75.745117 9.451541 6.167195
v 75.745102 31.301067 46.751801
v 75.745110 31.301065 28.184649
v -74.999992 9.451547 28.184650
v -74.999985 9.451540 6.167187
v -74.999992 -9.451537 6.167198
v -74.999992 -9.451526 28.184658
v -74.999992 0.000010 37.468227
v -75.000000 9.451551 46.751801
v -75.000000 31.301067 28.184649
v -75.000000 31.301071 46.751801
v -74.999992 -9.451523 46.751804
v -74.999985 -31.301060 28.184669
v -74.999992 -31.301056 46.751816
v -75.000000 9.451555 68.769272
v -75.000000 -9.451521 68.769272
v -62.500004 -31.301064 46.751816
v -62.500000 -31.301067 28.184666
v -62.500004 -9.451525 46.751808
v -62.500004 -9.451531 28.184660
v -62.500008 0.000008 37.468235
v -62.500008 9.451548 46.751808
v -62.500011 -9.451525 68.769272
v -62.500015 9.451555 68.769272
v -62.500008 9.451544 28.184656
v -62.500000 -9.451537 6.167207
v -62.500000 9.451541 6.167195
v -62.500011 31.301067 46.751801
v -62.500008 31.301065 28.184649
v -61.754852 -43.749981 62.500015
v 50.745163 -31.249998 62.500015
v -49.254852 -31.249996 62.500015
v -49.254852 31.250000 62.499996
v 63.245163 -43.749981 62.500015
v -61.754852 43.750004 62.499992
v 50.745163 31.249998 62.499996
v 63.245163 43.750004 62.499992
vn -0.0000 -0.0000 -1.0000
vn -0.0000 -1.0000 -0.0000
vn 1.0000 -0.0000 -0.0000
vn -0.0000 1.0000 -0.0000
vn -1.0000 -0.0000 -0.0000
vn -0.0000 -0.0000 1.0000
vn -0.0000 -0.0001 1.0000
vn -0.0000 -1.0000 -0.0001
vn -0.0000 1.0000 0.0001
vn -0.0000 0.0001 -1.0000
vt 0.062500 0.343750
vt 0.375000 0.343750
vt 0.375000 0.500000
vt 0.062500 0.500000
vt 0.656250 0.718750
vt 0.656250 0.781250
vt 0.437500 0.781250
vt 0.437500 0.718750
vt 0.937500 0.843750
vt 0.937500 0.999969
vt 0.687500 0.999969
vt 0.687500 0.843750
vt 0.375000 0.562500
vt 0.062500 0.562500
vt 0.093750 0.312500
vt 0.093750 0.156250
vt 0.343750 0.156250
vt 0.343750 0.312500
vt 0.765625 0.843750
vt 0.765625 0.999969
vt 0.609375 0.999969
vt 0.609375 0.843750
vt 0.437500 0.500000
vt 0.656250 0.500000
vt 0.656250 0.562500
vt 0.437500 0.562500
vt 0.501465 0.343750
vt 0.501465 0.125000
vt 0.813965 0.125000
vt 0.813965 0.343750
vt 0.375000 0.781250
vt 0.062500 0.781250
vt 0.437500 0.835938
vt 0.437500 0.999969
vt 0.500000 0.999969
vt 0.500000 0.835938
vt 0.375000 0.718750
vt 0.062500 0.718750
vt 0.546875 0.937500
vt 0.546875 0.890625
vt 0.609375 0.890625
vt 0.609375 0.937500
vt 0.375000 0.999969
vt 0.062500 0.999969
vt 0.546875 0.999969
vt 0.500000 0.937500
vt 0.593750 0.999969
vt 0.546875 0.968750
vt 0.593750 0.968750
vt 0.500000 0.968750
vt 0.437500 0.968750
vt 0.437500 0.937500
vt 0.500000 0.828125
vt 0.546875 0.828125
vt 0.500000 0.890625
vt 0.468750 0.890625
vt 0.468750 0.968750
vt 0.437500 0.890625
vt 0.437500 0.343750
vt 0.656250 0.343750
vt 0.437500 0.796875
vt 0.484375 0.890625
vt 0.484375 0.796875
vt 0.523438 0.914062
vt 0.062500 0.125000
vt 0.375000 0.125000
s 1
usemtl MI_GoldChest_Small
f 16/1/4 14/2/4 15/3/4 13/4/4
f 52/5/3 50/6/3 51/7/3 49/8/3
f 32/9/4 29/10/4 30/11/4 31/12/4
f 56/3/9 54/13/9 55/14/9 53/4/9
f 40/15/6 38/16/6 39/17/6 37/18/6
f 28/19/3 27/20/3 25/21/3 26/22/3
f 60/23/5 58/24/5 59/25/5 57/26/5
f 62/27/10 64/28/10 63/29/10 61/30/10
f 2/13/1 4/31/1 3/32/1 1/14/1
f 120/33/9 118/34/9 119/35/9 117/36/9
f 8/14/2 6/13/2 7/37/2 5/38/2
f 225/39/3 224/40/3 222/41/3 223/42/3
f 48/37/8 46/31/8 47/32/8 45/38/8
f 12/8/3 10/26/3 11/25/3 9/5/3
f 251/39/3 250/40/3 248/41/3 249/42/3
f 44/31/7 41/43/7 42/44/7 43/32/7
f 237/45/5 238/39/5 235/46/5 236/35/5
f 164/47/6 162/45/6 163/48/6 161/49/6
f 232/35/3 230/46/3 225/39/3 231/45/3
f 175/50/2 176/51/2 173/52/2 174/46/2
f 204/45/4 202/48/4 203/49/4 201/47/4
f 258/35/3 256/46/3 251/39/3 257/45/3
f 229/53/3 228/54/3 224/40/3 227/55/3
f 112/51/6 110/50/6 111/46/6 109/52/6
f 160/56/5 159/57/5 157/50/5 158/55/5
f 172/52/4 170/46/4 171/50/4 169/51/4
f 234/52/3 233/58/3 227/55/3 230/46/3
f 208/51/6 206/50/6 207/46/6 205/52/6
f 36/9/2 33/10/2 34/11/2 35/12/2
f 255/53/3 254/54/3 250/40/3 253/55/3
f 20/59/5 18/60/5 19/24/5 17/23/5
f 92/47/2 90/45/2 91/48/2 89/49/2
f 128/57/3 126/50/3 127/55/3 125/56/3
f 116/61/8 115/58/8 113/62/8 114/63/8
f 140/61/8 139/58/8 137/62/8 138/63/8
f 156/48/7 154/45/7 155/47/7 153/49/7
f 79/50/2 80/51/2 77/52/2 78/46/2
f 24/22/5 22/19/5 23/20/5 21/21/5
f 152/57/3 150/50/3 151/55/3 149/56/3
f 219/41/5 217/40/5 212/39/5 218/42/5
f 72/51/2 70/50/2 71/46/2 69/52/2
f 76/52/4 74/46/4 75/50/4 73/51/4
f 199/50/1 200/51/1 197/52/1 198/46/1
f 68/47/6 66/45/6 67/48/6 65/49/6
f 188/47/2 186/45/2 187/48/2 185/49/2
f 240/55/5 242/58/5 241/52/5 235/46/5
f 136/56/5 135/57/5 133/50/5 134/55/5
f 245/41/5 243/40/5 238/39/5 244/42/5
f 96/50/1 94/46/1 95/52/1 93/51/1
f 146/48/10 148/45/10 147/47/10 145/49/10
f 192/50/1 190/46/1 191/52/1 189/51/1
f 88/46/4 86/52/4 87/51/4 85/50/4
f 209/46/5 212/39/5 213/64/5
f 214/55/5 209/46/5 213/64/5
f 122/48/10 124/45/10 123/47/10 121/49/10
f 212/39/5 217/40/5 213/64/5
f 217/40/5 214/55/5 213/64/5
f 260/52/3 259/58/3 253/55/3 256/46/3
f 214/55/5 216/58/5 215/52/5 209/46/5
f 221/54/5 220/53/5 214/55/5 217/40/5
f 224/40/3 225/39/3 226/64/3
f 227/55/3 224/40/3 226/64/3
f 84/48/1 82/49/1 83/47/1 81/45/1
f 225/39/3 230/46/3 226/64/3
f 230/46/3 227/55/3 226/64/3
f 196/50/6 194/51/6 195/52/6 193/46/6
f 180/48/1 178/49/1 179/47/1 177/45/1
f 103/50/1 104/51/1 101/52/1 102/46/1
f 235/46/5 238/39/5 239/64/5
f 240/55/5 235/46/5 239/64/5
f 108/45/4 106/48/4 107/49/4 105/47/4
f 238/39/5 243/40/5 239/64/5
f 243/40/5 240/55/5 239/64/5
f 100/50/6 98/51/6 99/52/6 97/46/6
f 184/46/4 182/52/4 183/51/4 181/50/4
f 168/51/2 166/50/2 167/46/2 165/52/2
f 250/40/3 251/39/3 252/64/3
f 253/55/3 250/40/3 252/64/3
f 132/45/7 130/47/7 131/49/7 129/48/7
f 251/39/3 256/46/3 252/64/3
f 256/46/3 253/55/3 252/64/3
f 247/54/5 246/53/5 240/55/5 243/40/5
f 211/45/5 212/39/5 209/46/5 210/35/5
f 263/16/6 261/65/6 262/17/6
f 263/16/6 264/15/6 261/65/6
f 262/17/6 261/65/6 265/66/6
f 266/1/6 261/65/6 264/15/6
f 262/17/6 265/66/6 267/18/6
f 264/15/6 268/2/6 266/1/6
f 267/18/6 265/66/6 268/2/6
f 267/18/6 268/2/6 264/15/6
f 144/33/9 142/34/9 143/35/9 141/36/9
