# Blender 5.0.1
# www.blender.org
mtllib BP_GS_Cog_S.mtl
o SM_GS_Cog_S.001
v 18.749966 -249.999939 199.999939
v -18.750031 -199.999985 199.999954
v 18.749969 -199.999985 199.999954
v -18.750034 -249.999939 199.999939
v -18.750004 -250.000015 -199.999954
v -18.750000 -200.000015 -199.999954
v 18.749996 -250.000015 -199.999954
v 18.750000 -199.999954 -200.000015
v 18.749996 199.999985 249.999924
v -18.750000 199.999969 199.999924
v -18.750004 199.999985 249.999939
v 18.750000 199.999969 199.999924
v -18.750034 -199.999954 249.999985
v -18.750031 -199.999985 199.999954
v 18.749966 -199.999954 249.999939
v 18.749969 -199.999985 199.999954
v -18.749969 199.999924 -199.999985
v -18.749966 249.999924 -199.999985
v 18.750031 199.999924 -199.999985
v 18.750034 249.999924 -199.999985
v -18.749996 249.999985 199.999908
v 18.750000 199.999969 199.999924
v 18.750004 249.999985 199.999908
v -18.750000 199.999969 199.999924
v -18.750000 -200.000015 -199.999954
v -18.749996 -199.999969 -249.999939
v 18.750000 -199.999954 -200.000015
v 18.750004 -199.999969 -249.999939
v 18.750031 199.999924 -199.999985
v -18.749966 199.999908 -249.999985
v -18.749969 199.999924 -199.999985
v 18.750034 199.999908 -249.999985
v -18.749966 199.999908 -249.999985
v -18.749969 199.999924 -199.999985
v -18.749962 249.999908 -249.999939
v 18.750038 249.999908 -249.999939
v 18.750031 199.999924 -199.999985
v 18.750034 199.999908 -249.999985
v -18.749966 249.999924 -199.999985
v 18.750034 249.999924 -199.999985
v -18.750004 -250.000015 -199.999954
v -18.750000 -200.000015 -199.999954
v -18.750000 -249.999939 -249.999908
v 18.750000 -249.999939 -249.999908
v 18.750000 -199.999954 -200.000015
v 18.749996 -250.000015 -199.999954
v -18.749996 -199.999969 -249.999939
v 18.750004 -199.999969 -249.999939
v -18.750034 -199.999954 249.999985
v -18.750031 -199.999985 199.999954
v -18.750038 -249.999939 249.999893
v 18.749962 -249.999939 249.999893
v 18.749969 -199.999985 199.999954
v 18.749966 -199.999954 249.999939
v -18.750034 -249.999939 199.999939
v 18.749966 -249.999939 199.999939
v -18.749996 249.999985 199.999908
v -18.750000 199.999969 199.999924
v -18.750000 249.999939 249.999908
v 18.750000 249.999939 249.999908
v 18.750000 199.999969 199.999924
v 18.750004 249.999985 199.999908
v -18.750004 199.999985 249.999939
v 18.749996 199.999985 249.999924
v -25.000010 -49.999985 50.000004
v 25.000000 -50.000008 -49.999985
v 24.999992 -49.999992 50.000008
v -25.000000 -50.000004 -49.999992
v -25.000000 50.000008 49.999985
v -25.000010 -49.999985 50.000004
v 25.000000 50.000004 49.999992
v 24.999992 -49.999992 50.000008
v 25.000000 50.000004 49.999992
v 25.000010 49.999985 -50.000004
v -25.000000 50.000008 49.999985
v -24.999992 49.999992 -50.000008
v -25.000000 -50.000004 -49.999992
v 25.000010 49.999985 -50.000004
v 25.000000 -50.000008 -49.999985
v -24.999992 49.999992 -50.000008
v -25.000000 50.000008 49.999985
v -24.999992 49.999992 -50.000008
v -25.000010 -49.999985 50.000004
v -25.000000 -50.000004 -49.999992
v 24.999992 -49.999992 50.000008
v 25.000000 -50.000008 -49.999985
v 25.000000 50.000004 49.999992
v 25.000010 49.999985 -50.000004
v 10.000002 -18.750008 -50.000004
v -9.999987 -18.750031 -199.999985
v 10.000013 -18.750032 -199.999985
v -9.999998 -18.750006 -50.000004
v 10.000006 18.749989 -50.000008
v -9.999984 18.749968 -199.999985
v -9.999995 18.749992 -50.000008
v 10.000016 18.749964 -199.999985
v -10.156237 -18.750031 -199.999985
v -10.156248 -18.750006 -50.000004
v -10.156245 18.749992 -50.000008
v -10.156234 18.749968 -199.999985
v 10.000013 -18.750032 -199.999985
v 10.000006 18.749989 -50.000008
v 10.000002 -18.750008 -50.000004
v 10.000016 18.749964 -199.999985
v 9.999987 18.750010 199.999985
v -10.000002 18.750010 49.999992
v -10.000013 18.750013 199.999985
v 9.999998 18.750006 49.999992
v -10.000016 -18.749985 199.999985
v -10.000006 -18.749987 50.000000
v 9.999984 -18.749989 199.999985
v 9.999995 -18.749990 50.000000
v -10.156263 18.750013 199.999985
v -10.156255 -18.749987 50.000000
v -10.156266 -18.749985 199.999985
v -10.156252 18.750010 49.999992
v 9.999984 -18.749989 199.999985
v 9.999995 -18.749990 50.000000
v 9.999987 18.750010 199.999985
v 9.999998 18.750006 49.999992
v 10.000006 49.999992 -20.833347
v -9.999984 199.999985 -20.833374
v 10.000016 199.999985 -20.833372
v -9.999995 49.999992 -20.833349
v -9.999986 199.999985 16.666624
v 10.000002 50.000000 16.666651
v 10.000014 199.999985 16.666628
v -9.999998 50.000000 16.666649
v -10.156248 50.000000 16.666649
v -10.156236 199.999985 16.666624
v -10.156234 199.999985 -20.833374
v -10.156245 49.999992 -20.833349
v 10.000006 49.999992 -20.833347
v 10.000016 199.999985 -20.833372
v 10.000002 50.000000 16.666651
v 10.000014 199.999985 16.666628
v 9.999984 -199.999985 16.666677
v 9.999995 -50.000004 16.666668
v -10.000006 -50.000004 16.666664
v -10.000016 -199.999985 16.666674
v -10.000013 -199.999985 -20.833326
v -10.000002 -50.000000 -20.833334
v 9.999987 -199.999985 -20.833324
v 9.999998 -50.000000 -20.833330
v -10.156255 -50.000004 16.666664
v -10.156263 -199.999985 -20.833326
v -10.156266 -199.999985 16.666674
v -10.156252 -50.000000 -20.833334
v 9.999995 -50.000004 16.666668
v 9.999987 -199.999985 -20.833324
v 9.999998 -50.000000 -20.833330
v 9.999984 -199.999985 16.666677
v 18.749969 -199.999985 199.999954
v -18.750000 -200.000015 -199.999954
v -18.750031 -199.999985 199.999954
v 18.750000 -199.999954 -200.000015
v -18.750034 -249.999939 199.999939
v -18.750004 -250.000015 -199.999954
v 18.749966 -249.999939 199.999939
v 18.749996 -250.000015 -199.999954
v -18.750000 199.999969 199.999924
v 18.750000 199.999969 199.999924
v -18.750034 -199.999954 249.999985
v 18.749996 199.999985 249.999924
v -18.750004 199.999985 249.999939
v 18.749966 -199.999954 249.999939
v -18.750000 199.999969 199.999924
v -18.749969 199.999924 -199.999985
v 18.750000 199.999969 199.999924
v 18.750031 199.999924 -199.999985
v 18.750004 249.999985 199.999908
v -18.749966 249.999924 -199.999985
v -18.749996 249.999985 199.999908
v 18.750034 249.999924 -199.999985
v -18.749969 199.999924 -199.999985
v 18.750000 -199.999954 -200.000015
v 18.750031 199.999924 -199.999985
v -18.750000 -200.000015 -199.999954
v -18.749996 -199.999969 -249.999939
v -18.749966 199.999908 -249.999985
v 18.750004 -199.999969 -249.999939
v 18.750034 199.999908 -249.999985
v -18.749962 249.999908 -249.999939
v 18.750038 249.999908 -249.999939
v -18.749962 249.999908 -249.999939
v 18.750038 249.999908 -249.999939
v -18.750000 -249.999939 -249.999908
v 18.750000 -249.999939 -249.999908
v 18.750000 -249.999939 -249.999908
v -18.750000 -249.999939 -249.999908
v -18.750038 -249.999939 249.999893
v 18.749962 -249.999939 249.999893
v 18.749962 -249.999939 249.999893
v -18.750038 -249.999939 249.999893
v 18.750000 249.999939 249.999908
v -18.750000 249.999939 249.999908
v -18.750000 249.999939 249.999908
v 18.750000 249.999939 249.999908
v 0.000004 249.999939 199.999893
v 0.000038 299.999908 -199.999969
v 0.000008 299.999939 199.999893
v 0.000034 249.999924 -199.999985
v 0.000034 199.999908 -249.999954
v 0.000008 -199.999954 -299.999969
v 0.000038 199.999908 -299.999939
v 0.000004 -199.999969 -249.999969
v -0.000038 -299.999939 199.999924
v -0.000004 -249.999893 -199.999939
v -0.000034 -249.999939 199.999954
v -0.000008 -299.999878 -199.999939
v -0.000034 -199.999893 249.999985
v -0.000008 199.999969 299.999939
v -0.000038 -199.999893 299.999969
v -0.000004 199.999985 249.999969
vn -0.0000 -0.0000 -1.0000
vn -0.0000 1.0000 -0.0000
vn -0.0000 -1.0000 -0.0000
vn -0.0000 -0.0000 1.0000
vn -1.0000 -0.0000 -0.0000
vn 1.0000 -0.0000 -0.0000
vt 0.062500 0.999969
vt 0.125000 0.999969
vt 0.125000 0.507812
vt 0.062500 0.507812
vt 0.093750 0.937500
vt 0.046875 0.937500
vt 0.046875 0.999969
vt 0.093750 0.999969
vt 0.125000 0.938477
vt 0.062500 0.938477
vt 0.046875 0.500000
vt 0.093750 0.500000
vt 0.023438 0.000000
vt 0.023438 0.187500
vt 0.000031 0.187500
vt 0.000031 0.000000
vt 1.000000 0.898438
vt 0.875000 0.898438
vt 0.875000 0.835938
vt 1.000000 0.835938
vt 0.250000 0.999969
vt 0.250000 0.875000
vt 0.375000 0.875000
vt 0.375000 0.999969
vt 0.117188 0.507812
vt 0.179688 0.507812
vt 0.179688 0.999969
vt 0.117188 0.999969
vt 0.070312 0.000000
vt 0.070312 0.187500
s 1
usemtl Mi_Cog
f 24/1/4 22/1/4 23/2/4 21/2/4
f 28/3/3 27/4/3 25/4/3 26/3/3
f 165/5/4 164/6/4 198/7/4 197/8/4
f 60/2/6 64/9/6 61/10/6 62/9/6
f 170/11/3 169/7/3 167/8/3 168/12/3
f 144/13/1 143/14/1 141/15/1 142/16/1
f 124/16/1 122/15/1 123/14/1 121/13/1
f 192/7/4 166/6/4 163/5/4 191/8/4
f 34/10/5 39/9/5 35/2/5 33/9/5
f 178/12/4 176/11/4 177/7/4 175/8/4
f 42/10/5 47/9/5 43/2/5 41/9/5
f 44/2/6 48/9/6 45/10/6 46/9/6
f 50/10/5 55/9/5 51/2/5 49/9/5
f 36/2/6 40/9/6 37/10/6 38/9/6
f 45/1/6 53/4/6 56/3/6 46/2/6
f 194/8/3 157/5/3 159/6/3 193/7/3
f 12/4/2 10/4/2 11/3/2 9/3/2
f 72/17/4 71/18/4 69/19/4 70/20/4
f 68/20/3 66/17/3 67/18/3 65/19/3
f 32/2/2 30/2/2 31/1/2 29/1/2
f 4/3/1 2/4/1 3/4/1 1/3/1
f 84/21/5 83/22/5 81/23/5 82/24/5
f 214/25/6 212/26/6 213/27/6 211/28/6
f 104/29/6 102/30/6 103/14/6 101/13/6
f 120/14/6 119/13/6 117/29/6 118/30/6
f 182/7/1 181/11/1 179/12/1 180/8/1
f 20/3/1 19/4/1 17/4/1 18/3/1
f 99/30/5 100/29/5 97/13/5 98/14/5
f 206/25/6 204/26/6 205/27/6 203/28/6
f 80/20/1 78/17/1 79/18/1 77/19/1
f 139/16/4 140/15/4 137/14/4 138/13/4
f 48/3/6 38/2/6 37/1/6 45/4/6
f 148/30/5 146/29/5 147/13/5 145/14/5
f 96/14/2 94/15/2 95/16/2 93/13/2
f 92/16/3 90/15/3 91/14/3 89/13/3
f 152/13/6 150/29/6 151/30/6 149/14/6
f 116/14/5 114/30/5 115/29/5 113/13/5
f 58/10/5 63/9/5 59/2/5 57/9/5
f 166/7/4 164/11/4 165/12/4 163/8/4
f 8/1/1 7/2/1 5/2/1 6/1/1
f 88/21/6 87/22/6 85/23/6 86/24/6
f 50/4/5 42/1/5 41/2/5 55/3/5
f 37/4/6 40/3/6 62/2/6 61/1/6
f 190/8/1 179/5/1 181/6/1 189/7/1
f 33/2/5 47/3/5 42/4/5 34/1/5
f 57/2/5 39/3/5 34/4/5 58/1/5
f 61/4/6 64/3/6 54/2/6 53/1/6
f 162/11/1 3/7/1 2/8/1 161/12/1
f 112/13/3 111/14/3 109/15/3 110/16/3
f 76/19/2 75/20/2 73/17/2 74/18/2
f 16/1/3 15/2/3 13/2/3 14/1/3
f 156/7/2 154/8/2 155/12/2 153/11/2
f 188/7/3 160/6/3 158/5/3 187/8/3
f 108/13/2 106/16/2 107/15/2 105/14/2
f 134/13/6 136/29/6 135/30/6 133/14/6
f 174/6/2 186/7/2 185/8/2 172/5/2
f 184/7/1 182/6/1 180/5/1 183/8/1
f 52/2/6 56/9/6 53/10/6 54/9/6
f 174/11/2 172/12/2 173/8/2 171/7/2
f 160/7/3 159/11/3 157/12/3 158/8/3
f 210/27/6 208/28/6 209/25/6 207/26/6
f 132/14/5 129/30/5 130/29/5 131/13/5
f 128/16/4 126/13/4 127/14/4 125/15/4
f 50/1/5 49/2/5 63/3/5 58/4/5
f 202/25/6 200/26/6 201/27/6 199/28/6
f 171/6/2 173/5/2 196/8/2 195/7/2
