# Blender 5.0.1
# www.blender.org
mtllib BP_Glassware_SquareBottle.mtl
o SM_Glassware_SquareBottle.001
v 12.500000 -12.500001 31.250000
v -12.500000 -12.500001 31.250000
v -12.500000 -12.500000 -0.000079
v 12.500000 -12.500000 -0.000079
v 6.250000 -6.250002 43.750000
v 6.250000 6.249998 43.750000
v -6.250000 -6.250002 43.750000
v -6.250000 6.249998 43.750000
v 12.500000 12.500000 -0.000077
v -12.500000 12.500000 -0.000077
v -12.500000 12.499999 31.250000
v 12.500000 12.499999 31.250000
v 12.500000 -12.500000 -0.000079
v -12.500000 -12.500000 -0.000079
v -12.500000 12.500000 -0.000077
v 12.500000 12.500000 -0.000077
v 12.500000 -12.500001 31.250000
v 12.500000 -12.500000 -0.000079
v 12.500000 12.499999 31.250000
v 12.500000 12.500000 -0.000077
v -12.500000 -12.500001 31.250000
v -12.500000 12.500000 -0.000077
v -12.500000 -12.500000 -0.000079
v -12.500000 12.499999 31.250000
v 6.250000 -6.250002 43.750000
v -6.250000 -6.250002 43.750000
v -6.250000 -6.250001 31.250000
v 6.250000 -6.250001 31.250000
v 6.250000 -6.250002 43.750000
v 6.250000 -6.250001 31.250000
v 6.250000 6.249998 43.750000
v 6.250000 6.249999 31.250000
v -6.250000 6.249999 31.250000
v -6.250000 6.249998 43.750000
v 6.250000 6.249999 31.250000
v 6.250000 6.249998 43.750000
v -6.250000 -6.250002 43.750000
v -6.250000 6.249999 31.250000
v -6.250000 -6.250001 31.250000
v -6.250000 6.249998 43.750000
v -12.500000 -12.500001 31.250000
v 12.500000 -12.500001 31.250000
v 6.250000 -6.250001 31.250000
v -6.250000 -6.250001 31.250000
v 6.250000 6.249999 31.250000
v -12.500000 12.499999 31.250000
v 12.500000 12.499999 31.250000
v -6.250000 6.249999 31.250000
vn -0.0000 -1.0000 -0.0000
vn -0.0000 -0.0000 1.0000
vn -0.0000 1.0000 -0.0000
vn -0.0000 -0.0000 -1.0000
vn 1.0000 -0.0000 -0.0000
vn -1.0000 -0.0000 -0.0000
vt 0.375000 0.718750
vt 0.500000 0.718750
vt 0.500000 0.875000
vt 0.375000 0.875000
vt 0.062500 0.875000
vt 0.125000 0.875000
vt 0.125000 0.937500
vt 0.062500 0.937500
vt 0.250000 0.875000
vt 0.250000 0.999969
vt 0.125000 0.999969
vt 0.250000 0.718750
vt 0.000031 0.999969
vt 0.000031 0.937500
vt 0.062500 0.999969
vt 0.000031 0.875000
vt 0.125000 0.718750
vt 0.000031 0.718750
vt 0.343750 0.906250
vt 0.281250 0.906250
vt 0.343750 0.968750
vt 0.375000 0.999969
vt 0.281250 0.968750
s 1
usemtl MI_Glassware
f 18/1/5 20/2/5 19/3/5 17/4/5
f 30/5/5 32/6/5 31/7/5 29/8/5
f 16/9/4 13/10/4 14/11/4 15/6/4
f 4/1/1 1/4/1 2/9/1 3/12/1
f 8/13/2 7/14/2 5/8/2 6/15/2
f 36/14/3 35/16/3 33/5/3 34/8/3
f 24/6/6 22/17/6 23/12/6 21/9/6
f 28/5/1 25/8/1 26/14/1 27/16/1
f 12/16/3 9/18/3 10/17/3 11/6/3
f 43/19/2 41/9/2 42/4/2
f 44/20/2 41/9/2 43/19/2
f 43/19/2 42/4/2 45/21/2
f 44/20/2 46/10/2 41/9/2
f 45/21/2 42/4/2 47/22/2
f 48/23/2 46/10/2 44/20/2
f 45/21/2 47/22/2 48/23/2
f 48/23/2 47/22/2 46/10/2
f 40/8/6 38/5/6 39/6/6 37/7/6
