# Blender 5.0.1
# www.blender.org
mtllib BP_Glassware_FlorenceFlask.mtl
o SM_Glassware_FlorenceFlask.001
v 25.000000 -6.250001 31.250000
v 25.000000 6.249999 31.250000
v 21.875000 -6.250001 34.375000
v 21.875000 6.249999 34.375000
v 18.750000 6.249999 37.500000
v 18.750000 -6.250001 37.500000
v 25.000000 -6.250001 31.250000
v 12.500000 6.249999 18.750000
v 25.000000 6.249999 31.250000
v 12.500000 -6.250002 18.750000
v 18.750000 -6.250001 37.500000
v 6.250000 6.249999 25.000000
v 6.250000 -6.250001 25.000000
v 18.750000 6.249999 37.500000
v 12.500000 -6.250002 25.000002
v 6.250000 -12.500001 24.999996
v 12.500000 -12.500001 24.999998
v 6.250000 -6.250001 25.000000
v -12.500000 -12.500001 25.000000
v -12.500000 -6.250001 25.000000
v 6.250000 6.249999 25.000000
v -12.500000 6.249999 24.999996
v -12.500000 12.499997 25.000000
v 6.250000 12.499999 24.999996
v 12.500000 6.249999 25.000002
v 12.500000 12.499999 24.999998
v 12.500000 -6.250002 18.750000
v 25.000000 -6.250001 31.250000
v 12.500000 -6.250002 25.000002
v 21.875000 -6.250001 34.375000
v 18.750000 -6.250001 37.500000
v 6.250000 -6.250001 25.000000
v 12.500000 6.249999 25.000002
v 25.000000 6.249999 31.250000
v 12.500000 6.249999 18.750000
v 21.875000 6.249999 34.375000
v 18.750000 6.249999 37.500000
v 6.250000 6.249999 25.000000
v 12.500000 -12.500000 -0.000079
v 6.250000 -12.500000 -0.000079
v 12.500000 -6.250000 -0.000078
v 6.250000 -6.250000 -0.000078
v -12.500000 -12.500000 -0.000079
v 12.500000 6.249999 -0.000078
v -12.500000 -6.249999 -0.000078
v 6.250000 6.250000 -0.000078
v 12.500000 12.500001 -0.000077
v -12.500000 6.250000 -0.000078
v 6.250000 12.500001 -0.000077
v -12.500000 12.499998 -0.000077
v -12.500000 -12.500001 18.750000
v -12.500000 -12.500001 25.000000
v -12.500000 -6.250001 25.000000
v -12.500000 -6.250001 18.750000
v -12.500000 -12.500000 -0.000079
v -12.500000 6.249999 24.999996
v -12.500000 -6.249999 -0.000078
v -12.500000 12.499997 18.750000
v -12.500000 12.499997 25.000000
v -12.500000 6.249999 18.750000
v -12.500000 6.250000 -0.000078
v -12.500000 12.499998 -0.000077
v 12.500000 -12.500001 24.999998
v 12.500000 -6.250002 18.750000
v 12.500000 -6.250002 25.000002
v 12.500000 -12.500001 18.750000
v 12.500000 -12.500000 -0.000079
v 12.500000 -6.250000 -0.000078
v 12.500000 6.249999 18.750000
v 12.500000 6.249999 -0.000078
v 12.500000 12.500001 -0.000077
v 12.500000 12.499999 18.750000
v 12.500000 12.499999 24.999998
v 12.500000 6.249999 25.000002
v 6.250000 -12.500001 24.999996
v -12.500000 -12.500001 25.000000
v -12.500000 -12.500001 18.750000
v 12.500000 -12.500001 24.999998
v 12.500000 -12.500001 18.750000
v 6.250000 -12.500001 18.750000
v -12.500000 -12.500000 -0.000079
v 12.500000 -12.500000 -0.000079
v 6.250000 -12.500000 -0.000079
v 6.250000 12.499999 24.999996
v -12.500000 12.499997 18.750000
v -12.500000 12.499997 25.000000
v 12.500000 12.499999 18.750000
v 12.500000 12.499999 24.999998
v 6.250000 12.499999 18.750000
v 6.250000 12.500001 -0.000077
v -12.500000 12.499998 -0.000077
v 12.500000 12.500001 -0.000077
vn 0.7071 -0.0000 0.7071
vn 0.7071 -0.0000 -0.7071
vn -0.7071 -0.0000 0.7071
vn -0.0000 -0.0000 1.0000
vn -0.0000 -1.0000 -0.0000
vn -0.0000 1.0000 -0.0000
vn -0.0000 -0.0000 -1.0000
vn -1.0000 -0.0000 -0.0000
vn 1.0000 -0.0000 -0.0000
vt 0.156250 0.468750
vt 0.218750 0.468750
vt 0.218750 0.562500
vt 0.156250 0.562500
vt 0.500000 0.562500
vt 0.468750 0.562500
vt 0.468750 0.468750
vt 0.500000 0.468750
vt 0.031250 0.468750
vt 0.125000 0.468750
vt 0.125000 0.562500
vt 0.031250 0.562500
vt 0.343750 0.468750
vt 0.343750 0.562500
vt 0.250000 0.562500
vt 0.250000 0.468750
vt 0.406250 0.562500
vt 0.406250 0.468750
vt 0.343750 0.718750
vt 0.250000 0.718750
vt 0.250000 0.687500
vt 0.343750 0.687500
vt 0.468750 0.593750
vt 0.500000 0.593750
vt 0.093750 0.687988
vt 0.062500 0.719238
vt 0.062500 0.625000
vt 0.093750 0.625000
vt 0.125000 0.625000
vt 0.125000 0.719238
vt 0.250000 0.719238
vt 0.218750 0.687988
vt 0.250000 0.625488
vt 0.218750 0.625488
vt 0.187500 0.625488
vt 0.187500 0.719238
vt 0.375000 0.625000
vt 0.468750 0.625000
vt 0.468750 0.687500
vt 0.375000 0.687500
vt 0.062500 0.593750
vt 0.000031 0.625000
vt 0.000031 0.593750
vt 0.343750 0.625000
vt 0.343750 0.593750
vt 0.375000 0.593750
vt 0.125000 0.593750
vt 0.500000 0.625000
vt 0.500000 0.687500
vt 0.375000 0.562500
vt 0.375000 0.718750
vt 0.250000 0.625000
vt 0.406250 0.593750
vt 0.250000 0.593750
vt 0.218750 0.593750
vt 0.468750 0.718750
vt 0.500000 0.718750
vt 0.031250 0.593750
vt 0.375000 0.468750
vt 0.156250 0.593750
vt 0.000031 0.562500
vt 0.000031 0.719238
vt 0.000031 0.468750
s 1
usemtl MI_Glassware
f 61/1/8 57/2/8 54/3/8 60/4/8
f 72/5/9 69/6/9 70/7/9 71/8/9
f 90/9/6 91/10/6 85/11/6 89/12/6
f 83/13/5 80/14/5 77/15/5 81/16/5
f 70/7/9 69/6/9 64/17/9 68/18/9
f 24/19/4 23/20/4 22/21/4 21/22/4
f 74/23/9 69/6/9 72/5/9 73/24/9
f 57/2/8 55/16/8 51/15/8 54/3/8
f 29/25/5 27/26/5 28/27/5
f 30/28/5 29/25/5 28/27/5
f 30/28/5 31/29/5 29/25/5
f 32/30/5 29/25/5 31/29/5
f 35/31/6 33/32/6 34/33/6
f 36/34/6 34/33/6 33/32/6
f 36/34/6 33/32/6 37/35/6
f 33/32/6 38/36/6 37/35/6
f 48/37/7 46/38/7 42/39/7 45/40/7
f 4/41/1 5/27/1 6/42/1 3/43/1
f 18/44/4 16/45/4 17/46/4 15/37/4
f 4/29/1 3/27/1 1/41/1 2/47/1
f 42/39/7 46/38/7 44/48/7 41/49/7
f 75/45/5 80/14/5 79/50/5 78/46/5
f 26/51/4 24/19/4 21/22/4 25/40/4
f 14/35/3 12/36/3 13/30/3 11/29/3
f 22/21/4 20/52/4 18/44/4 21/22/4
f 66/50/9 64/17/9 65/53/9 63/46/9
f 54/3/8 51/15/8 52/54/8 53/55/8
f 40/56/7 42/39/7 41/49/7 39/57/7
f 20/52/4 19/54/4 16/45/4 18/44/4
f 89/12/6 85/11/6 86/47/6 84/58/6
f 80/14/5 75/45/5 76/54/5 77/15/5
f 67/59/9 68/18/9 64/17/9 66/50/9
f 60/4/8 56/60/8 59/47/8 58/11/8
f 49/23/7 46/38/7 48/37/7 50/46/7
f 89/12/6 84/58/6 88/43/6 87/61/6
f 45/40/7 42/39/7 40/56/7 43/51/7
f 61/1/8 60/4/8 58/11/8 62/10/8
f 46/38/7 49/23/7 47/24/7 44/48/7
f 60/4/8 54/3/8 53/55/8 56/60/8
f 80/14/5 83/13/5 82/59/5 79/50/5
f 10/26/2 8/62/2 9/42/2 7/27/2
f 87/61/6 92/63/6 90/9/6 89/12/6
