# Blender 5.0.1
# www.blender.org
mtllib BP_GSTorch_Wall_DLC3.mtl
o SM_Torch_Wall.001
v 6.249977 12.508715 -8.830139
v 6.249876 56.694233 35.355267
v 6.249973 12.517491 8.856289
v 6.249893 47.855408 44.194115
v -18.750151 65.533081 79.549431
v -18.750200 92.049545 53.032887
v -18.750160 74.371849 35.355240
v -18.750111 47.855385 61.871780
v -6.250025 12.508688 -8.830141
v -6.250125 56.694210 35.355267
v 6.249977 12.508715 -8.830139
v 6.249876 56.694233 35.355267
v 6.249893 47.855408 44.194115
v -6.250029 12.517465 8.856287
v 6.249973 12.517491 8.856289
v -6.250109 47.855385 44.194115
v 12.499849 69.952499 39.774662
v 12.499903 43.436012 48.613541
v 12.499869 61.113663 30.935839
v 12.499883 52.274857 57.452358
v -6.250125 56.694210 35.355267
v -6.250029 12.517465 8.856287
v -6.250109 47.855385 44.194115
v -6.250025 12.508688 -8.830141
v -12.500154 69.952454 39.774654
v 12.499849 69.952499 39.774662
v 12.499869 61.113663 30.935839
v -12.500134 61.113609 30.935835
v 12.499883 52.274857 57.452358
v -12.500101 43.435959 48.613533
v 12.499903 43.436012 48.613541
v -12.500121 52.274803 57.452351
v -12.500154 69.952454 39.774654
v -12.500101 43.435959 48.613533
v -12.500121 52.274803 57.452351
v -12.500134 61.113609 30.935835
v 18.749840 74.371925 35.355247
v 18.749849 65.533157 79.549431
v 18.749889 47.855461 61.871788
v 18.749800 92.049622 53.032894
v -18.750200 92.049545 53.032887
v 18.749800 92.049622 53.032894
v 18.749840 74.371925 35.355247
v -18.750160 74.371849 35.355240
v 18.749849 65.533157 79.549431
v -18.750111 47.855385 61.871780
v 18.749889 47.855461 61.871788
v -18.750151 65.533081 79.549431
v 37.499992 0.000135 43.750008
v 37.500008 0.000020 -43.749992
v 37.499966 12.500135 43.749992
v 37.499981 12.500021 -43.750008
v 37.499966 12.500135 43.749992
v -37.500034 12.499981 43.749977
v 37.499992 0.000135 43.750008
v -37.500008 -0.000020 43.749992
v -37.499992 -0.000135 -43.750008
v -37.500008 -0.000020 43.749992
v -37.500019 12.499866 -43.750023
v -37.500034 12.499981 43.749977
v 37.500008 0.000020 -43.749992
v -37.499992 -0.000135 -43.750008
v 37.499981 12.500021 -43.750008
v -37.500019 12.499866 -43.750023
v 37.499966 12.500135 43.749992
v 37.499981 12.500021 -43.750008
v -37.500034 12.499981 43.749977
v -37.500019 12.499866 -43.750023
v -12.500121 52.274803 57.452351
v -18.750160 74.371849 35.355240
v -12.500154 69.952454 39.774654
v -18.750111 47.855385 61.871780
v 18.749840 74.371925 35.355247
v 18.749889 47.855461 61.871788
v 12.499883 52.274857 57.452358
v 12.499849 69.952499 39.774662
v -12.500134 61.113609 30.935835
v 12.499869 61.113663 30.935839
v 6.249876 56.694233 35.355267
v 12.499903 43.436012 48.613541
v -6.250125 56.694210 35.355267
v 6.249893 47.855408 44.194115
v -12.500101 43.435959 48.613533
v -6.250109 47.855385 44.194115
v 18.749887 48.113380 62.129707
v 18.749838 74.629845 35.613171
v -18.750162 74.629768 35.613163
v -18.750113 48.113304 62.129700
vn 1.0000 -0.0000 -0.0000
vn -1.0000 -0.0000 -0.0000
vn -0.0000 0.7071 -0.7071
vn -0.0000 -0.7071 0.7071
vn -0.0000 -0.0000 1.0000
vn -0.0000 -0.0000 -1.0000
vn -0.0000 1.0000 -0.0000
vn -0.0000 -0.7071 -0.7071
vn -0.0000 0.7071 0.7071
vt 0.812500 0.750000
vt 0.875000 0.687500
vt 0.875000 0.999969
vt 0.812500 0.999969
vt 0.656250 0.375000
vt 0.656250 0.562500
vt 0.531250 0.562500
vt 0.531250 0.375000
vt 0.562500 0.999969
vt 0.562500 0.937500
vt 0.687500 0.937500
vt 0.687500 0.999969
vt 0.656250 0.250000
vt 0.843750 0.250000
vt 0.843750 0.375000
vt 0.562500 0.812500
vt 0.500000 0.937500
vt 0.500000 0.812500
vt 1.000000 0.999969
vt 0.937500 0.999969
vt 1.000000 0.750000
vt 0.937500 0.687500
vt 0.750000 0.999969
vt 0.750000 0.750000
vt 0.750000 0.937500
vt 0.687500 0.812500
vt 0.750000 0.812500
vt 0.437500 0.500000
vt 0.062500 0.500000
vt 0.062500 0.437500
vt 0.437500 0.437500
vt 0.562500 0.750000
vt 0.687500 0.750000
vt 0.968750 0.562500
vt 0.843750 0.562500
vt 0.968750 0.375000
vt 0.843750 0.687500
vt 0.656250 0.687500
vt 0.062500 0.937500
vt 0.000031 0.937500
vt 0.000031 0.500000
vt 0.437500 0.937500
vt 0.500000 0.500000
vt 0.437500 0.999969
vt 0.062500 0.999969
vt 1.000000 0.406250
vt 1.000000 0.531250
vt 0.500000 0.531250
vt 0.500000 0.406250
vt 0.687500 0.218750
vt 0.812500 0.218750
vt 0.687500 0.718750
vt 0.812500 0.718750
vt 0.656250 0.843750
vt 0.593750 0.843750
vt 0.656250 0.906250
vt 0.593750 0.906250
s 1
usemtl MI_Torch_Wall
f 3/1/1 1/2/1 2/3/1
f 4/4/1 3/1/1 2/3/1
f 40/5/1 38/6/1 39/7/1 37/8/1
f 32/9/4 30/10/4 31/11/4 29/12/4
f 43/13/3 44/14/3 41/15/3 42/5/3
f 36/16/2 34/10/2 35/17/2 33/18/2
f 23/19/2 21/20/2 22/21/2
f 24/22/2 22/21/2 21/20/2
f 10/20/3 12/3/3 11/2/3 9/22/3
f 16/23/4 14/24/4 15/1/4 13/4/4
f 20/25/1 18/11/1 19/26/1 17/27/1
f 64/28/6 63/29/6 61/30/6 62/31/6
f 27/26/3 28/16/3 25/32/3 26/33/3
f 8/34/2 5/35/2 6/15/2 7/36/2
f 48/35/4 46/37/4 47/38/4 45/6/4
f 52/29/1 51/39/1 49/40/1 50/41/1
f 60/42/2 59/28/2 57/43/2 58/17/2
f 56/44/5 55/45/5 53/39/5 54/42/5
f 71/46/8 69/47/8 70/36/8
f 72/34/8 70/36/8 69/47/8
f 75/48/8 73/8/8 74/7/8
f 76/49/8 73/8/8 75/48/8
f 76/50/8 70/14/8 73/13/8
f 71/51/8 70/14/8 76/50/8
f 75/52/8 74/38/8 69/53/8
f 69/53/8 74/38/8 72/37/8
f 79/54/8 77/16/8 78/26/8
f 78/26/8 80/11/8 79/54/8
f 81/55/8 77/16/8 79/54/8
f 82/56/8 79/54/8 80/11/8
f 77/16/8 81/55/8 83/10/8
f 82/56/8 80/11/8 84/57/8
f 83/10/8 81/55/8 84/57/8
f 84/57/8 80/11/8 83/10/8
f 66/29/7 68/28/7 67/42/7 65/39/7
usemtl MI_Torch_Wall
f 88/35/9 85/6/9 86/5/9 87/15/9
