# Blender 5.0.1
# www.blender.org
mtllib BP_GS_SpotLightShaft.mtl
o SM_GS_SpotlightShafts.001
v 7.956767 -9.074041 3200.000000
v 61.006397 -61.809372 -800.000000
v 7.956767 -12.920216 3200.000000
v 11.802948 -9.074041 3200.000000
v 61.006397 -88.426460 -800.000000
v 87.623489 -61.809372 -800.000000
v 7.956767 -16.766396 3200.000000
v 15.649122 -9.074041 3200.000000
v 61.006397 -115.043556 -800.000000
v 114.240585 -61.809372 -800.000000
v 7.956767 -20.612572 3200.000000
v 19.495296 -9.074041 3200.000000
v 61.006397 -141.660660 -800.000000
v 140.857681 -61.809372 -800.000000
v 7.956767 -24.458746 3200.000000
v 23.341476 -9.074041 3200.000000
v 61.006397 -168.277771 -800.000000
v 167.474777 -61.809372 -800.000000
v 11.802948 -24.458746 3200.000000
v 23.341476 -12.920216 3200.000000
v 87.623489 -168.277771 -800.000000
v 167.474777 -88.426460 -800.000000
v 15.649122 -24.458746 3200.000000
v 23.341476 -16.766396 3200.000000
v 114.240585 -168.277771 -800.000000
v 167.474777 -115.043556 -800.000000
v 19.495296 -24.458746 3200.000000
v 23.341476 -20.612572 3200.000000
v 140.857681 -168.277771 -800.000000
v 167.474777 -141.660660 -800.000000
v 23.341476 -24.458746 3200.000000
v 167.474777 -168.277771 -800.000000
v -1.085941 3.452967 3200.000000
v -1.572798 24.882576 -800.000000
v 2.299292 3.452967 3200.000000
v -4.471177 3.452967 3200.000000
v 21.854385 24.882576 -800.000000
v -24.999994 24.882576 -800.000000
v 2.299292 6.756818 3200.000000
v -7.856411 3.452967 3200.000000
v 21.854385 47.746567 -800.000000
v -48.427189 24.882576 -800.000000
v 2.299292 10.060671 3200.000000
v -11.241645 3.452967 3200.000000
v 21.854385 70.610558 -800.000000
v -71.854370 24.882576 -800.000000
v 2.299292 13.364520 3200.000000
v -11.241645 6.756818 3200.000000
v 21.854385 93.474556 -800.000000
v -71.854370 47.746567 -800.000000
v 2.299292 16.668377 3200.000000
v -11.241645 10.060671 3200.000000
v 21.854385 116.338539 -800.000000
v -71.854370 70.610558 -800.000000
v -1.572798 116.338539 -800.000000
v -11.241645 13.364520 3200.000000
v -1.085941 16.668377 3200.000000
v -71.854370 93.474556 -800.000000
v -4.471177 16.668377 3200.000000
v -11.241645 16.668377 3200.000000
v -24.999994 116.338539 -800.000000
v -71.854370 116.338539 -800.000000
v -7.856411 16.668377 3200.000000
v -48.427189 116.338539 -800.000000
v -17.821009 1.167845 3200.000000
v -117.386208 9.068612 -800.000000
v -17.821009 4.471697 3200.000000
v -17.821009 -2.136008 3200.000000
v -117.386208 31.932606 -800.000000
v -117.386208 -13.795381 -800.000000
v -17.821009 7.775551 3200.000000
v -21.206242 -2.136008 3200.000000
v -117.386208 54.796597 -800.000000
v -140.813400 -13.795381 -800.000000
v -17.821009 11.079404 3200.000000
v -24.591482 -2.136008 3200.000000
v -117.386208 77.660576 -800.000000
v -164.240585 -13.795381 -800.000000
v -21.206242 11.079404 3200.000000
v -27.976715 -2.136008 3200.000000
v -140.813400 77.660576 -800.000000
v -187.667786 -13.795381 -800.000000
v -24.591482 11.079404 3200.000000
v -31.361950 -2.136008 3200.000000
v -164.240585 77.660576 -800.000000
v -211.094971 -13.795381 -800.000000
v -27.976715 11.079404 3200.000000
v -211.094971 9.068612 -800.000000
v -187.667786 77.660576 -800.000000
v -31.361950 1.167845 3200.000000
v -31.361950 11.079404 3200.000000
v -31.361950 4.471697 3200.000000
v -211.094971 77.660576 -800.000000
v -211.094971 31.932606 -800.000000
v -211.094971 54.796597 -800.000000
v -31.361950 7.775551 3200.000000
vn -0.7070 0.7070 -0.0187
vn -0.9999 -0.0000 -0.0133
vn -0.0000 0.9999 -0.0132
vn -0.7181 -0.6958 0.0155
vn 0.6958 0.7181 0.0156
vn -0.6960 -0.7179 0.0166
vn 0.7179 0.6960 0.0167
vn -0.0000 -0.9994 0.0359
vn 0.9994 -0.0000 0.0360
vn 0.7062 -0.7062 0.0508
vn -0.0000 -1.0000 -0.0054
vn 0.7048 -0.7094 -0.0004
vn 0.7094 -0.7048 -0.0003
vn 1.0000 -0.0000 0.0049
vn -0.7024 -0.7117 0.0068
vn -0.7117 -0.7025 0.0070
vn -0.9999 -0.0000 0.0152
vn 0.7115 0.7024 0.0210
vn 0.7025 0.7114 0.0212
vn -0.0000 0.9997 0.0249
vn -0.7091 0.7046 0.0283
vn -0.7047 0.7090 0.0283
vn 0.9997 -0.0000 -0.0249
vn 0.7132 -0.7008 -0.0157
vn 0.7007 -0.7133 -0.0154
vn -0.0000 -1.0000 0.0029
vn 0.7163 0.6977 -0.0062
vn 0.6976 0.7164 -0.0054
vn -0.0000 0.9999 0.0166
vn -0.6970 -0.7163 0.0334
vn -0.7159 -0.6974 0.0342
vn -0.9990 -0.0000 0.0449
vn -0.6999 0.7130 0.0433
vn -0.7126 0.7002 0.0437
vt 0.000031 0.750000
vt 0.000031 0.999969
vt 0.249878 0.999969
vt 0.500000 0.000000
vt 0.250000 0.000000
vt 0.000031 0.000000
vt 0.000031 0.500000
vt 0.750000 0.000000
vt 1.000000 0.250000
vt 1.000000 0.000000
vt 1.000000 0.500000
vt 0.499756 0.999969
vt 0.750000 0.999969
vt 1.000000 0.999969
vt 0.000031 0.250000
vt 1.000000 0.750000
s 1
usemtl M_GS_Lightshaft
f 3/1/2 1/2/1 2/2/1
f 1/2/1 4/3/3 2/2/1
f 23/4/8 19/5/8 17/6/6 21/5/8
f 56/1/17 60/2/21 58/1/17 54/7/17
f 27/8/8 23/4/8 21/5/8 25/4/8
f 28/9/9 31/10/10 30/9/9 26/11/9
f 31/10/10 27/8/8 25/4/8 29/8/8
f 83/12/29 79/13/29 77/14/28 81/13/29
f 13/15/2 17/6/6 15/6/4
f 18/14/7 14/13/3 16/14/5
f 19/5/8 15/6/4 17/6/6
f 16/14/5 20/16/9 18/14/7
f 4/3/3 8/12/3 6/3/3 2/2/1
f 7/7/2 3/1/2 2/2/1 5/1/2
f 8/12/3 12/13/3 10/12/3 6/3/3
f 11/15/2 7/7/2 5/1/2 9/7/2
f 12/13/3 16/14/5 14/13/3 10/12/3
f 15/6/4 11/15/2 9/7/2 13/15/2
f 29/8/8 32/10/10 31/10/10
f 32/10/10 30/9/9 31/10/10
f 36/4/11 40/5/11 38/4/11 34/8/11
f 33/8/11 36/4/11 34/8/11
f 92/7/32 96/1/32 94/7/32 88/15/32
f 39/9/14 35/10/12 37/10/13
f 95/1/32 94/7/32 96/1/32 91/2/33
f 48/15/17 52/7/17 50/15/17 46/6/16
f 20/16/9 24/11/9 22/16/9 18/14/7
f 46/6/16 42/5/11 44/6/15
f 44/6/15 48/15/17 46/6/16
f 24/11/9 28/9/9 26/11/9 22/16/9
f 43/11/14 39/9/14 37/10/13 41/9/14
f 49/16/14 53/14/19 51/14/18
f 47/16/14 43/11/14 41/9/14 45/11/14
f 63/3/20 59/12/20 55/13/20 61/12/20
f 51/14/18 47/16/14 45/11/14 49/16/14
f 59/12/20 57/13/20 55/13/20
f 34/8/11 37/10/13 35/10/12 33/8/11
f 62/2/22 58/1/17 60/2/21
f 64/3/20 62/2/22 60/2/21
f 40/5/11 44/6/15 42/5/11 38/4/11
f 67/11/23 65/9/23 66/9/23
f 57/13/20 51/14/18 53/14/19 55/13/20
f 60/2/21 63/3/20 61/12/20 64/3/20
f 68/10/24 72/8/26 70/10/25
f 52/7/17 56/1/17 54/7/17 50/15/17
f 87/3/29 83/12/29 81/13/29 85/12/29
f 73/16/23 77/14/28 75/14/27
f 91/2/33 87/3/29 85/12/29 89/3/29
f 79/13/29 75/14/27 77/14/28
f 72/8/26 76/4/26 74/8/26 70/10/25
f 76/4/26 80/5/26 78/4/26 74/8/26
f 86/6/31 82/5/26 84/6/30
f 70/10/25 66/9/23 65/9/23 68/10/24
f 80/5/26 84/6/30 82/5/26 78/4/26
f 90/15/32 92/7/32 88/15/32
f 89/3/29 93/2/34 91/2/33
f 71/16/23 67/11/23 66/9/23 69/11/23
f 93/2/34 95/1/32 91/2/33
f 75/14/27 71/16/23 69/11/23 73/16/23
f 84/6/30 90/15/32 88/15/32 86/6/31
