# Blender 5.0.1
# www.blender.org
mtllib BP_GloomstallFruit.mtl
o SM_GloomstallFruitCore.001
v -0.019888 0.077147 -16.217798
v -15.304180 0.033808 -5.357275
v 7.659781 13.292068 -5.357274
v -7.624512 13.248730 5.503252
v 15.339336 -0.009302 5.397282
v 0.055044 -0.052641 16.257807
v -7.624625 -13.267563 5.397281
v 7.659668 -13.224224 -5.463244
v 7.659668 -13.224224 -5.463244
v -7.624625 -13.267563 5.397281
v -15.304180 0.033808 -5.357275
v -0.019888 0.077147 -16.217798
v 15.339336 -0.009302 5.397282
v 7.659668 -13.224224 -5.463244
v -0.019888 0.077147 -16.217798
v 7.659781 13.292068 -5.357274
v 0.055044 -0.052641 16.257807
v 15.339336 -0.009302 5.397282
v 7.659781 13.292068 -5.357274
v -7.624512 13.248730 5.503252
v -7.624625 -13.267563 5.397281
v 0.055044 -0.052641 16.257807
v -7.624512 13.248730 5.503252
v -15.304180 0.033808 -5.357275
vn -0.4096 0.7094 -0.5736
vn 0.4096 -0.7094 0.5736
vn -0.4096 -0.7048 -0.5792
vn 0.8152 0.0023 -0.5792
vn 0.4096 0.7048 0.5792
vn -0.8152 -0.0023 0.5792
vt 0.625000 0.250000
vt 0.625000 0.375000
vt 0.500000 0.375000
vt 0.500000 0.250000
s 1
usemtl M_Gloomstall
f 12/1/3 9/2/3 10/3/3 11/4/3
f 16/1/4 13/2/4 14/3/4 15/4/4
f 20/1/5 17/2/5 18/3/5 19/4/5
f 8/1/2 5/2/2 6/3/2 7/4/2
f 2/1/1 4/2/1 3/3/1 1/4/1
f 24/1/6 21/2/6 22/3/6 23/4/6
