# Blender 5.0.1
# www.blender.org
mtllib BP_GlowingMushroomsBlue2x1.mtl
o SM_FFJ_WallMushrooms2x1.001
v 125.000000 43.750000 12.499999
v 175.000000 -0.000000 12.499999
v 175.000000 43.750000 12.499999
v 125.000000 -0.000000 12.499999
v 125.000000 18.750000 12.500000
v 168.750000 18.750000 12.500000
v 125.000000 18.749996 -37.500004
v 168.750000 18.749996 -37.500004
v -6.250000 43.750004 56.250000
v 43.750000 0.000002 56.250000
v 43.750000 43.750004 56.250000
v -6.250000 0.000002 56.250000
v -6.250000 18.750004 56.249996
v 37.500000 18.750004 56.249996
v -6.250000 18.750000 6.249999
v 37.500000 18.750000 6.249999
v 62.500000 43.750004 81.249992
v 112.500000 0.000005 81.250000
v 112.500000 43.750004 81.249992
v 62.500000 0.000005 81.250000
v 62.500000 18.750004 81.250000
v 106.250000 18.750004 81.250000
v 62.500000 18.750002 31.249996
v 106.250000 18.750002 31.249996
v 118.750000 43.750004 62.499992
v 168.750000 0.000003 62.500000
v 168.750000 43.750004 62.499992
v 118.750000 0.000003 62.500000
v 118.750000 18.750004 62.499996
v 162.500000 18.750004 62.499996
v 118.750000 18.750000 12.499998
v 162.500000 18.750000 12.499998
v 12.500000 0.000001 18.750000
v 62.500000 37.500000 18.750000
v 12.500000 37.500000 18.750000
v 62.500000 0.000001 18.750000
v 12.500000 12.499993 -68.750000
v 12.500000 12.500000 18.750000
v 62.500000 12.500000 18.750000
v 62.500000 12.499993 -68.750000
v 100.000000 12.500006 87.500000
v 181.250000 12.500006 87.500000
v 100.000000 12.499998 -0.000001
v 181.250000 12.499998 -0.000001
v 93.749985 43.749989 87.499992
v 193.750000 0.000006 87.500000
v 193.750000 43.750004 87.499992
v 93.750000 -0.000009 87.500000
v 43.750000 25.000002 37.499996
v 125.000000 25.000002 37.499996
v 43.750000 24.999994 -50.000004
v 125.000000 24.999994 -50.000004
v 37.500000 0.000002 37.500000
v 137.500000 0.000017 37.500000
v 37.499992 50.000000 37.499996
v 137.500000 50.000019 37.499996
vn -0.0000 -0.0000 1.0000
vn -0.0000 1.0000 -0.0000
vt 0.750000 0.468750
vt 0.750000 0.218750
vt 0.531250 0.218750
vt 0.531250 0.468750
vt 0.000031 0.500000
vt 0.250000 0.500000
vt 0.250000 0.718750
vt 0.000031 0.718750
vt 0.500000 0.500000
vt 0.500000 0.687500
vt 0.250000 0.687500
vt 0.937012 0.468750
vt 0.937500 0.031250
vt 0.531250 0.031250
vt 0.000031 0.999969
vt 0.000031 0.750000
vt 0.500000 0.750000
vt 0.500000 0.999969
vt 0.781250 0.468750
vt 0.781250 0.031250
vt 1.000000 0.999969
vt 0.500000 0.781250
vt 1.000000 0.781250
s 1
usemtl MI_CW_WallShrooms
f 14/1/2 16/2/2 15/3/2 13/4/2
f 28/5/1 26/6/1 27/7/1 25/8/1
f 4/5/1 2/6/1 3/7/1 1/8/1
f 20/5/1 18/6/1 19/7/1 17/8/1
f 22/1/2 24/2/2 23/3/2 21/4/2
f 36/9/1 34/10/1 35/11/1 33/6/1
f 30/1/2 32/2/2 31/3/2 29/4/2
f 12/5/1 10/6/1 11/7/1 9/8/1
f 42/12/2 44/13/2 43/14/2 41/4/2
f 6/1/2 8/2/2 7/3/2 5/4/2
f 54/15/1 56/16/1 55/17/1 53/18/1
f 39/19/2 40/20/2 37/14/2 38/4/2
f 48/21/1 46/18/1 47/22/1 45/23/1
f 50/12/2 52/13/2 51/14/2 49/4/2
