# Blender 5.0.1
# www.blender.org
mtllib BP_GS_Bridge.mtl
o SM_GS_Bridge_Body.001
v 24.984949 14037.499023 -41312.500000
v 24.985483 13362.499023 -41312.500000
v 24.985472 13362.499023 -41387.500000
v 24.984938 14037.499023 -41387.500000
v -675.014526 13362.498047 -41312.500000
v -675.015076 14037.498047 -41312.500000
v -675.015076 14037.498047 -41387.500000
v -675.014526 13362.498047 -41387.500000
v 24.984938 14037.499023 -41387.500000
v -675.015076 14037.498047 -41312.500000
v 24.984949 14037.499023 -41312.500000
v -675.015076 14037.498047 -41387.500000
v 24.985483 13362.499023 -41312.500000
v 24.984949 14037.499023 -41312.500000
v -675.015076 14037.498047 -41312.500000
v -675.014526 13362.498047 -41312.500000
v 24.985483 13362.499023 -41312.500000
v -675.014526 13362.498047 -41312.500000
v -675.014526 13362.498047 -41387.500000
v 24.985472 13362.499023 -41387.500000
vn 1.0000 -0.0000 -0.0000
vn -1.0000 -0.0000 -0.0000
vn -0.0000 1.0000 -0.0000
vn -0.0000 -0.0000 1.0000
vn -0.0000 -1.0000 -0.0000
vt 0.867188 0.875000
vt 0.968750 0.875000
vt 0.968750 0.000000
vt 0.867188 0.000000
vt 0.015625 0.875000
vt 0.015625 0.984375
vt 0.859375 0.984375
vt 0.859375 0.875000
vt 0.859375 0.000000
vt 0.015625 0.000000
s 1
usemtl Mi_NewWindPlat
f 12/1/3 10/2/3 11/3/3 9/4/3
f 4/5/1 1/6/1 2/7/1 3/8/1
f 20/4/5 17/3/5 18/2/5 19/1/5
f 8/8/2 5/7/2 6/6/2 7/5/2
f 16/9/4 13/8/4 14/5/4 15/10/4
