# Blender 5.0.1
# www.blender.org
mtllib BP_GS_SewerPillarFade.mtl
o SM_GS_SewerPillar.001
v -100.000000 0.000008 100.000008
v -100.000000 -100.000008 0.000024
v -100.000000 -99.999992 100.000023
v -100.000000 -0.000008 0.000008
v 100.000000 -99.999977 200.000031
v 0.000000 -99.999977 200.000031
v 0.000000 -99.999992 100.000023
v 100.000000 -99.999992 100.000023
v -100.000000 -99.999992 100.000023
v 0.000000 -100.000008 0.000024
v -100.000000 -100.000008 0.000024
v -100.000023 100.000015 199.999985
v -100.000000 -0.000005 200.000015
v -100.000000 100.000008 99.999992
v 0.000000 100.000008 99.999992
v -100.000000 99.999992 -0.000008
v -100.000000 100.000008 99.999992
v 0.000000 99.999992 -0.000008
v 0.000000 100.000023 199.999985
v 100.000000 100.000038 199.999985
v 100.000000 100.000008 99.999992
v -100.000000 99.999992 -0.000008
v 100.000000 100.000008 99.999992
v 100.000000 0.000008 100.000008
v 100.000000 99.999992 -0.000008
v 100.000000 -0.000008 0.000008
v 100.000000 -99.999992 100.000023
v 100.000000 -100.000008 0.000024
v -100.000023 100.000015 199.999985
v 100.000000 99.999992 -0.000008
v 100.000000 -100.000008 0.000024
v 100.000000 100.000038 199.999985
v 0.000000 100.000023 199.999985
v 0.000000 150.000031 199.999985
v 100.000000 150.000031 199.999985
v 100.000000 0.000024 200.000015
v 100.000000 100.000038 199.999985
v -100.000000 -99.999985 200.000031
v 100.000000 -99.999977 200.000031
v -100.000000 -99.999985 200.000031
v 100.000000 150.000031 249.999985
v 0.000000 150.000031 249.999985
v 0.000000 200.000031 249.999969
v 100.000000 200.000031 249.999969
v 0.000000 150.000031 249.999985
v 100.000000 150.000031 249.999985
v 100.000000 150.000031 199.999985
v 0.000000 150.000031 199.999985
v -100.000000 150.000031 249.999985
v -100.000000 200.000031 249.999969
v 0.000000 200.000046 299.999969
v 100.000000 200.000046 299.999969
v 100.000000 200.000031 249.999969
v 0.000000 200.000031 249.999969
v 100.000000 200.000046 299.999969
v 0.000000 200.000046 299.999969
v 0.000000 100.000038 300.000000
v 100.000000 100.000038 300.000000
v -100.000000 200.000046 299.999969
v -100.000000 200.000031 249.999969
v -100.000023 100.000015 199.999985
v -100.000000 150.000031 199.999985
v -100.000000 150.000031 249.999985
v -100.000000 150.000031 199.999985
v 150.000000 -99.999977 200.000031
v 100.000000 0.000024 200.000015
v 150.000000 0.000036 200.000015
v 100.000000 -99.999977 200.000031
v 200.000000 -99.999947 250.000031
v 150.000000 0.000045 250.000015
v 200.000000 0.000045 250.000015
v 150.000000 -99.999969 250.000031
v 150.000000 0.000045 250.000015
v 150.000000 -99.999969 250.000031
v 150.000000 -99.999977 200.000031
v 150.000000 0.000036 200.000015
v 200.000000 100.000046 249.999985
v 150.000000 100.000046 249.999985
v 200.000000 0.000053 300.000000
v 200.000000 -99.999939 300.000031
v 200.000000 -99.999947 250.000031
v 200.000000 0.000045 250.000015
v 200.000000 100.000053 300.000000
v 200.000000 100.000046 249.999985
v 150.000000 100.000038 199.999985
v 150.000000 100.000046 249.999985
v 150.000000 100.000038 199.999985
v -100.000000 -149.999969 200.000031
v 0.000000 -99.999977 200.000031
v 0.000024 -149.999969 200.000031
v -100.000000 -99.999985 200.000031
v -99.999954 -199.999969 250.000046
v 0.000024 -149.999969 250.000031
v 0.000024 -199.999969 250.000046
v -100.000000 -149.999969 250.000031
v 0.000024 -149.999969 250.000031
v -100.000000 -149.999969 250.000031
v -100.000000 -149.999969 200.000031
v 0.000024 -149.999969 200.000031
v 100.000023 -199.999969 250.000046
v 100.000023 -149.999954 250.000031
v 0.000024 -199.999954 300.000031
v -99.999954 -199.999954 300.000031
v -99.999954 -199.999969 250.000046
v 0.000024 -199.999969 250.000046
v 0.000000 -99.999962 300.000031
v 0.000024 -199.999954 300.000031
v 100.000000 -99.999962 300.000031
v 100.000023 -199.999954 300.000031
v 100.000023 -199.999954 300.000031
v 100.000023 -199.999969 250.000046
v 100.000023 -149.999969 200.000031
v 100.000023 -149.999954 250.000031
v 100.000023 -149.999969 200.000031
v -150.000000 -0.000011 200.000015
v -100.000000 -0.000005 200.000015
v -150.000015 100.000023 199.999985
v -150.000000 -0.000003 250.000015
v -200.000000 99.999962 249.999985
v -150.000015 100.000031 249.999985
v -200.000000 -0.000015 250.000015
v -150.000000 -0.000003 250.000015
v -150.000015 100.000031 249.999985
v -150.000015 100.000023 199.999985
v -150.000000 -0.000011 200.000015
v -199.999969 -100.000000 250.000031
v -149.999969 -100.000000 250.000031
v -200.000000 -0.000007 300.000000
v -200.000000 99.999969 300.000000
v -200.000000 99.999962 249.999985
v -200.000000 -0.000015 250.000015
v -200.000000 99.999969 300.000000
v -100.000000 0.000011 300.000000
v -100.000023 100.000031 300.000000
v -200.000000 -0.000007 300.000000
v -100.000000 -99.999969 300.000031
v -199.999969 -99.999992 300.000031
v -199.999969 -99.999992 300.000031
v -199.999969 -100.000000 250.000031
v -149.999969 -100.000008 200.000031
v -149.999969 -100.000000 250.000031
v -149.999969 -100.000008 200.000031
v 0.000000 0.000041 300.000000
v 100.000000 0.000041 300.000000
v 200.000000 -99.999939 300.000031
v 200.000000 0.000053 300.000000
v 200.000000 100.000053 300.000000
v -100.000000 200.000046 299.999969
v 100.000000 100.000046 249.999985
v 100.000000 150.000031 199.999985
v 100.000000 150.000031 249.999985
v 100.000000 100.000038 300.000000
v 100.000000 200.000046 299.999969
v 100.000000 200.000031 249.999969
v -100.000023 100.000023 249.999985
v -100.000000 150.000031 199.999985
v -100.000000 150.000031 249.999985
v -100.000023 100.000031 300.000000
v -100.000000 200.000046 299.999969
v -100.000000 200.000031 249.999969
v 100.000023 -99.999954 250.000031
v 150.000000 -99.999977 200.000031
v 150.000000 -99.999969 250.000031
v 100.000000 -99.999962 300.000031
v 200.000000 -99.999939 300.000031
v 200.000000 -99.999947 250.000031
v 100.000000 100.000046 249.999985
v 150.000000 100.000038 199.999985
v 150.000000 100.000046 249.999985
v 100.000000 100.000038 300.000000
v 200.000000 100.000053 300.000000
v 200.000000 100.000046 249.999985
v -100.000000 -99.999977 250.000031
v -100.000000 -149.999969 200.000031
v -100.000000 -149.999969 250.000031
v -100.000000 -99.999969 300.000031
v -99.999954 -199.999954 300.000031
v -99.999954 -199.999969 250.000046
v -100.000023 100.000023 249.999985
v -150.000015 100.000023 199.999985
v -150.000015 100.000031 249.999985
v -100.000023 100.000031 300.000000
v -200.000000 99.999969 300.000000
v -200.000000 99.999962 249.999985
v -100.000000 -99.999977 250.000031
v -149.999969 -100.000008 200.000031
v -149.999969 -100.000000 250.000031
v -100.000000 -99.999969 300.000031
v -199.999969 -99.999992 300.000031
v -199.999969 -100.000000 250.000031
v -99.999954 -199.999954 300.000031
v 100.000023 -149.999954 250.000031
v 100.000023 -149.999969 200.000031
v 100.000023 -99.999954 250.000031
v 100.000000 -99.999962 300.000031
v 100.000023 -199.999954 300.000031
v 100.000023 -199.999969 250.000046
vn -1.0000 -0.0000 -0.0000
vn -0.0000 -1.0000 -0.0000
vn -0.0000 1.0000 -0.0000
vn 1.0000 -0.0000 -0.0000
vn -0.0000 -0.0000 -1.0000
vn -0.0000 -0.0000 1.0000
vt 0.500000 0.500000
vt 0.500000 0.750000
vt 0.000031 0.750000
vt 0.000031 0.500000
vt 1.000000 0.500000
vt 1.000000 0.999969
vt 0.500000 0.999969
vt -0.000031 0.750000
vt 0.250000 0.750000
vt 0.250000 0.500000
vt -0.000031 0.500000
vt 0.000031 0.999969
vt 0.000031 0.000000
vt 0.500000 0.000000
vt -0.000031 0.999969
s 1
usemtl Mi_SewrPillarFade
f 48/1/3 45/2/3 46/3/3 47/4/3
f 64/1/3 63/2/3 45/3/3 48/4/3
f 7/5/2 6/6/2 40/7/2 9/1/2
f 194/8/4 192/9/4 193/10/4 39/11/4
f 111/2/2 110/7/2 102/12/2 105/3/2
f 109/12/6 108/4/6 106/1/6 107/7/6
f 58/1/6 55/7/6 56/12/6 57/4/6
f 43/7/5 42/1/5 49/5/5 50/6/5
f 99/1/2 96/2/2 97/3/2 98/4/2
f 137/12/6 136/4/6 133/1/6 135/7/6
f 76/1/4 73/2/4 74/3/4 75/4/4
f 11/7/2 10/1/2 7/5/2 9/6/2
f 101/5/5 100/6/5 94/7/5 93/1/5
f 1/1/1 3/5/1 38/6/1 13/7/1
f 91/1/5 89/5/5 90/6/5 88/7/5
f 35/7/5 32/1/5 33/5/5 34/6/5
f 28/7/4 26/1/4 24/5/4 27/6/4
f 24/1/4 26/5/4 25/6/4 23/7/4
f 144/1/6 58/4/6 57/13/6 143/14/6
f 4/7/1 2/1/1 3/5/1 1/6/1
f 44/7/5 41/1/5 42/5/5 43/6/5
f 7/1/2 10/5/2 31/6/2 8/7/2
f 8/5/2 5/6/2 6/7/2 7/1/2
f 139/2/1 138/7/1 128/12/1 131/3/1
f 24/5/4 36/6/4 39/7/4 27/1/4
f 150/10/4 151/9/4 149/8/4 37/11/4
f 34/7/5 33/1/5 61/5/5 62/6/5
f 108/1/6 144/4/6 143/13/6 106/14/6
f 22/7/1 4/1/1 1/5/1 14/6/1
f 174/10/1 175/9/1 173/8/1 38/11/1
f 56/7/6 148/12/6 134/4/6 57/1/6
f 24/1/4 23/5/4 37/6/4 36/7/4
f 136/1/6 106/4/6 143/13/6 133/14/6
f 135/12/6 133/4/6 134/1/6 132/7/6
f 162/10/2 163/9/2 161/8/2 5/11/2
f 54/2/3 51/7/3 52/12/3 53/3/3
f 155/8/1 157/9/1 156/10/1 12/11/1
f 70/1/5 78/5/5 77/6/5 71/7/5
f 87/1/4 86/2/4 73/3/4 76/4/4
f 30/7/3 18/1/3 15/5/3 21/6/3
f 14/1/1 1/5/1 13/6/1 12/7/1
f 140/6/5 115/7/5 116/1/5 91/5/5
f 114/1/2 113/2/2 96/3/2 99/4/2
f 145/7/6 146/12/6 144/4/6 108/1/6
f 117/7/5 61/1/5 116/5/5 115/6/5
f 121/7/5 118/1/5 127/5/5 126/6/5
f 95/1/5 93/5/5 94/6/5 92/7/5
f 82/2/4 79/7/4 80/12/4 81/3/4
f 66/1/5 32/5/5 85/6/5 67/7/5
f 107/12/6 106/4/6 136/1/6 191/7/6
f 18/7/3 16/1/3 17/5/3 15/6/3
f 60/2/3 59/7/3 51/12/3 54/3/3
f 131/2/1 128/7/1 129/12/1 130/3/1
f 142/1/1 141/2/1 122/3/1 125/4/1
f 84/2/4 83/7/4 79/12/4 82/3/4
f 15/5/3 19/6/3 20/7/3 21/1/3
f 125/1/1 122/2/1 123/3/1 124/4/1
f 15/1/3 17/5/3 29/6/3 19/7/3
f 151/9/4 152/15/4 149/8/4
f 152/15/4 151/9/4 153/7/4
f 154/2/4 153/7/4 151/9/4
f 68/1/5 66/5/5 67/6/5 65/7/5
f 155/8/1 158/15/1 157/9/1
f 158/15/1 159/7/1 157/9/1
f 160/2/1 157/9/1 159/7/1
f 89/1/5 68/5/5 112/6/5 90/7/5
f 163/9/2 164/15/2 161/8/2
f 164/15/2 163/9/2 165/7/2
f 166/2/2 165/7/2 163/9/2
f 105/2/2 102/7/2 103/12/2 104/3/2
f 167/8/3 170/15/3 169/9/3
f 170/15/3 171/7/3 169/9/3
f 172/2/3 169/9/3 171/7/3
f 57/1/6 134/4/6 133/13/6 143/14/6
f 175/9/1 176/15/1 173/8/1
f 176/15/1 175/9/1 177/7/1
f 178/2/1 177/7/1 175/9/1
f 167/8/3 169/9/3 168/10/3 20/11/3
f 181/9/3 182/15/3 179/8/3
f 182/15/3 181/9/3 183/7/3
f 184/2/3 183/7/3 181/9/3
f 180/10/3 181/9/3 179/8/3 29/11/3
f 185/8/2 188/15/2 187/9/2
f 188/15/2 189/7/2 187/9/2
f 190/2/2 187/9/2 189/7/2
f 146/7/6 147/12/6 58/4/6 144/1/6
f 72/1/5 70/5/5 71/6/5 69/7/5
f 121/6/5 119/7/5 120/1/5 118/5/5
f 194/8/4 195/15/4 192/9/4
f 195/15/4 196/7/4 192/9/4
f 197/2/4 192/9/4 196/7/4
f 185/8/2 187/9/2 186/10/2 40/11/2
