# Blender 5.0.1
# www.blender.org
mtllib BP_Gate_BB_Bamboo_x5.mtl
o SK_BambooGate_5x.001
v 257.495422 0.907886 0.000000
v 244.995407 0.907886 0.000000
v 257.495422 13.407886 0.000000
v 244.995407 13.407886 0.000000
v 257.495422 13.407886 312.499969
v 244.995407 13.407886 312.499969
v 244.995407 0.907886 312.499969
v 257.495422 0.907886 312.499969
v 244.995407 0.907886 312.499969
v 244.995407 0.907886 0.000000
v 257.495422 0.907886 312.499969
v 257.495422 0.907886 0.000000
v 257.495422 0.907886 312.499969
v 257.495422 0.907886 0.000000
v 257.495422 13.407886 312.499969
v 257.495422 13.407886 0.000000
v 257.495422 13.407886 312.499969
v 257.495422 13.407886 0.000000
v 244.995407 13.407886 312.499969
v 244.995407 13.407886 0.000000
v 244.995407 13.407886 312.499969
v 244.995407 13.407886 0.000000
v 244.995407 0.907886 312.499969
v 244.995407 0.907886 0.000000
v 232.383987 -8.467116 0.000000
v 213.633987 -8.467116 0.000000
v 232.383987 10.282882 0.000000
v 213.633987 10.282882 0.000000
v 232.383987 10.282882 299.999969
v 213.633987 10.282882 299.999969
v 213.633987 -8.467116 299.999969
v 232.383987 -8.467116 299.999969
v 213.633987 -8.467116 299.999969
v 213.633987 -8.467116 0.000000
v 232.383987 -8.467116 299.999969
v 232.383987 -8.467116 0.000000
v 232.383987 -8.467116 299.999969
v 232.383987 -8.467116 0.000000
v 232.383987 10.282882 299.999969
v 232.383987 10.282882 0.000000
v 232.383987 10.282882 299.999969
v 232.383987 10.282882 0.000000
v 213.633987 10.282882 299.999969
v 213.633987 10.282882 0.000000
v 213.633987 10.282882 299.999969
v 213.633987 10.282882 0.000000
v 213.633987 -8.467116 299.999969
v 213.633987 -8.467116 0.000000
v 195.000046 -2.217106 0.000000
v 176.250046 -2.217106 0.000000
v 195.000046 16.532892 0.000000
v 176.250046 16.532892 0.000000
v 195.000046 16.532892 324.999969
v 176.250046 16.532892 324.999969
v 176.250046 -2.217106 324.999969
v 195.000046 -2.217106 324.999969
v 176.250046 -2.217106 324.999969
v 176.250046 -2.217106 0.000000
v 195.000046 -2.217106 324.999969
v 195.000046 -2.217106 0.000000
v 195.000046 -2.217106 324.999969
v 195.000046 -2.217106 0.000000
v 195.000046 16.532892 324.999969
v 195.000046 16.532892 0.000000
v 195.000046 16.532892 324.999969
v 195.000046 16.532892 0.000000
v 176.250046 16.532892 324.999969
v 176.250046 16.532892 0.000000
v 176.250046 16.532892 324.999969
v 176.250046 16.532892 0.000000
v 176.250046 -2.217106 324.999969
v 176.250046 -2.217106 0.000000
v 157.614792 0.907894 0.000000
v 145.114792 0.907894 0.000000
v 157.614792 13.407893 0.000000
v 145.114792 13.407893 0.000000
v 157.614792 13.407893 312.499969
v 145.114792 13.407893 312.499969
v 145.114792 0.907894 312.499969
v 157.614792 0.907894 312.499969
v 145.114792 0.907894 312.499969
v 145.114792 0.907894 0.000000
v 157.614792 0.907894 312.499969
v 157.614792 0.907894 0.000000
v 157.614792 0.907894 312.499969
v 157.614792 0.907894 0.000000
v 157.614792 13.407893 312.499969
v 157.614792 13.407893 0.000000
v 157.614792 13.407893 312.499969
v 157.614792 13.407893 0.000000
v 145.114792 13.407893 312.499969
v 145.114792 13.407893 0.000000
v 145.114792 13.407893 312.499969
v 145.114792 13.407893 0.000000
v 145.114792 0.907894 312.499969
v 145.114792 0.907894 0.000000
v 132.504593 -8.467113 0.000000
v 113.754593 -8.467113 0.000000
v 132.504593 10.282886 0.000000
v 113.754593 10.282886 0.000000
v 132.504593 10.282886 324.999969
v 113.754593 10.282886 324.999969
v 113.754593 -8.467113 324.999969
v 132.504593 -8.467113 324.999969
v 113.754593 -8.467113 324.999969
v 113.754593 -8.467113 0.000000
v 132.504593 -8.467113 324.999969
v 132.504593 -8.467113 0.000000
v 132.504593 -8.467113 324.999969
v 132.504593 -8.467113 0.000000
v 132.504593 10.282886 324.999969
v 132.504593 10.282886 0.000000
v 132.504593 10.282886 324.999969
v 132.504593 10.282886 0.000000
v 113.754593 10.282886 324.999969
v 113.754593 10.282886 0.000000
v 113.754593 10.282886 324.999969
v 113.754593 10.282886 0.000000
v 113.754593 -8.467113 324.999969
v 113.754593 -8.467113 0.000000
v 95.000015 -8.467109 0.000000
v 76.250015 -8.467109 0.000000
v 95.000015 10.282889 0.000000
v 76.250015 10.282889 0.000000
v 95.000015 10.282886 324.999969
v 76.250015 10.282886 324.999969
v 76.250015 -8.467113 324.999969
v 95.000015 -8.467113 324.999969
v 76.250015 -8.467113 324.999969
v 76.250015 -8.467109 0.000000
v 95.000015 -8.467113 324.999969
v 95.000015 -8.467109 0.000000
v 95.000015 -8.467113 324.999969
v 95.000015 -8.467109 0.000000
v 95.000015 10.282886 324.999969
v 95.000015 10.282889 0.000000
v 95.000015 10.282886 324.999969
v 95.000015 10.282889 0.000000
v 76.250015 10.282886 324.999969
v 76.250015 10.282889 0.000000
v 76.250015 10.282886 324.999969
v 76.250015 10.282889 0.000000
v 76.250015 -8.467113 324.999969
v 76.250015 -8.467109 0.000000
v 63.750015 -2.217106 0.000000
v 45.000015 -2.217106 0.000000
v 63.750015 16.532892 0.000000
v 45.000015 16.532892 0.000000
v 63.750015 16.532892 324.999969
v 45.000015 16.532892 324.999969
v 45.000015 -2.217106 324.999969
v 63.750015 -2.217106 324.999969
v 45.000015 -2.217106 324.999969
v 45.000015 -2.217106 0.000000
v 63.750015 -2.217106 324.999969
v 63.750015 -2.217106 0.000000
v 63.750015 -2.217106 324.999969
v 63.750015 -2.217106 0.000000
v 63.750015 16.532892 324.999969
v 63.750015 16.532892 0.000000
v 63.750015 16.532892 324.999969
v 63.750015 16.532892 0.000000
v 45.000015 16.532892 324.999969
v 45.000015 16.532892 0.000000
v 45.000015 16.532892 324.999969
v 45.000015 16.532892 0.000000
v 45.000015 -2.217106 324.999969
v 45.000015 -2.217106 0.000000
v 26.057327 -2.217113 0.000000
v 7.307343 -2.217113 0.000000
v 26.057327 16.532885 0.000000
v 7.307343 16.532885 0.000000
v 26.057327 16.532885 299.999969
v 7.307343 16.532885 299.999969
v 7.307343 -2.217113 299.999969
v 26.057327 -2.217113 299.999969
v 7.307343 -2.217113 299.999969
v 7.307343 -2.217113 0.000000
v 26.057327 -2.217113 299.999969
v 26.057327 -2.217113 0.000000
v 26.057327 -2.217113 299.999969
v 26.057327 -2.217113 0.000000
v 26.057327 16.532885 299.999969
v 26.057327 16.532885 0.000000
v 26.057327 16.532885 299.999969
v 26.057327 16.532885 0.000000
v 7.307343 16.532885 299.999969
v 7.307343 16.532885 0.000000
v 7.307343 16.532885 299.999969
v 7.307343 16.532885 0.000000
v 7.307343 -2.217113 299.999969
v 7.307343 -2.217113 0.000000
v -11.025406 0.907894 0.000000
v -23.525406 0.907894 0.000000
v -11.025406 13.407893 0.000000
v -23.525406 13.407893 0.000000
v -11.025406 13.407893 312.499969
v -23.525406 13.407893 312.499969
v -23.525406 0.907894 312.499969
v -11.025406 0.907894 312.499969
v -23.525406 0.907894 312.499969
v -23.525406 0.907894 0.000000
v -11.025406 0.907894 312.499969
v -11.025406 0.907894 0.000000
v -11.025406 0.907894 312.499969
v -11.025406 0.907894 0.000000
v -11.025406 13.407893 312.499969
v -11.025406 13.407893 0.000000
v -11.025406 13.407893 312.499969
v -11.025406 13.407893 0.000000
v -23.525406 13.407893 312.499969
v -23.525406 13.407893 0.000000
v -23.525406 13.407893 312.499969
v -23.525406 13.407893 0.000000
v -23.525406 0.907894 312.499969
v -23.525406 0.907894 0.000000
v -36.354874 0.907886 0.000000
v -48.854874 0.907886 0.000000
v -36.354874 13.407886 0.000000
v -48.854874 13.407886 0.000000
v -36.354874 13.407886 312.499969
v -48.854874 13.407886 312.499969
v -48.854874 0.907886 312.499969
v -36.354874 0.907886 312.499969
v -48.854874 0.907886 312.499969
v -48.854874 0.907886 0.000000
v -36.354874 0.907886 312.499969
v -36.354874 0.907886 0.000000
v -36.354874 0.907886 312.499969
v -36.354874 0.907886 0.000000
v -36.354874 13.407886 312.499969
v -36.354874 13.407886 0.000000
v -36.354874 13.407886 312.499969
v -36.354874 13.407886 0.000000
v -48.854874 13.407886 312.499969
v -48.854874 13.407886 0.000000
v -48.854874 13.407886 312.499969
v -48.854874 13.407886 0.000000
v -48.854874 0.907886 312.499969
v -48.854874 0.907886 0.000000
v -73.834946 -2.217121 0.000000
v -92.584946 -2.217121 0.000000
v -73.834946 16.532877 0.000000
v -92.584946 16.532877 0.000000
v -73.834946 16.532877 324.999969
v -92.584946 16.532877 324.999969
v -92.584946 -2.217121 324.999969
v -73.834946 -2.217121 324.999969
v -92.584946 -2.217121 324.999969
v -92.584946 -2.217121 0.000000
v -73.834946 -2.217121 324.999969
v -73.834946 -2.217121 0.000000
v -73.834946 -2.217121 324.999969
v -73.834946 -2.217121 0.000000
v -73.834946 16.532877 324.999969
v -73.834946 16.532877 0.000000
v -73.834946 16.532877 324.999969
v -73.834946 16.532877 0.000000
v -92.584946 16.532877 324.999969
v -92.584946 16.532877 0.000000
v -92.584946 16.532877 324.999969
v -92.584946 16.532877 0.000000
v -92.584946 -2.217121 324.999969
v -92.584946 -2.217121 0.000000
v -104.880508 0.907894 0.000000
v -117.380508 0.907894 0.000000
v -104.880508 13.407893 0.000000
v -117.380508 13.407893 0.000000
v -104.880508 13.407893 312.499969
v -117.380508 13.407893 312.499969
v -117.380508 0.907894 312.499969
v -104.880508 0.907894 312.499969
v -117.380508 0.907894 312.499969
v -117.380508 0.907894 0.000000
v -104.880508 0.907894 312.499969
v -104.880508 0.907894 0.000000
v -104.880508 0.907894 312.499969
v -104.880508 0.907894 0.000000
v -104.880508 13.407893 312.499969
v -104.880508 13.407893 0.000000
v -104.880508 13.407893 312.499969
v -104.880508 13.407893 0.000000
v -117.380508 13.407893 312.499969
v -117.380508 13.407893 0.000000
v -117.380508 13.407893 312.499969
v -117.380508 13.407893 0.000000
v -117.380508 0.907894 312.499969
v -117.380508 0.907894 0.000000
v -142.500015 -2.217106 0.000000
v -161.250015 -2.217106 0.000000
v -142.500015 16.532892 0.000000
v -161.250015 16.532892 0.000000
v -142.500015 16.532892 299.999969
v -161.250015 16.532892 299.999969
v -161.250015 -2.217106 299.999969
v -142.500015 -2.217106 299.999969
v -161.250015 -2.217106 299.999969
v -161.250015 -2.217106 0.000000
v -142.500015 -2.217106 299.999969
v -142.500015 -2.217106 0.000000
v -142.500015 -2.217106 299.999969
v -142.500015 -2.217106 0.000000
v -142.500015 16.532892 299.999969
v -142.500015 16.532892 0.000000
v -142.500015 16.532892 299.999969
v -142.500015 16.532892 0.000000
v -161.250015 16.532892 299.999969
v -161.250015 16.532892 0.000000
v -161.250015 16.532892 299.999969
v -161.250015 16.532892 0.000000
v -161.250015 -2.217106 299.999969
v -161.250015 -2.217106 0.000000
v -198.822556 -8.467116 0.000000
v -180.072556 10.282882 0.000000
v -180.072556 -8.467116 0.000000
v -198.822556 10.282882 0.000000
v -180.072556 10.282878 324.999969
v -198.822556 -8.467116 324.999969
v -180.072556 -8.467120 324.999969
v -198.822556 10.282882 324.999969
v -198.822556 10.282882 324.999969
v -198.822556 10.282882 0.000000
v -198.822556 -8.467116 324.999969
v -198.822556 -8.467116 0.000000
v -198.822556 -8.467116 324.999969
v -198.822556 -8.467116 0.000000
v -180.072556 -8.467120 324.999969
v -180.072556 -8.467116 0.000000
v -180.072556 -8.467120 324.999969
v -180.072556 -8.467116 0.000000
v -180.072556 10.282878 324.999969
v -180.072556 10.282882 0.000000
v -180.072556 10.282878 324.999969
v -180.072556 10.282882 0.000000
v -198.822556 10.282882 324.999969
v -198.822556 10.282882 0.000000
v -211.250046 -2.217113 0.000000
v -230.000046 -2.217113 0.000000
v -211.250046 16.532885 0.000000
v -230.000046 16.532885 0.000000
v -211.250046 16.532885 324.999969
v -230.000046 16.532885 324.999969
v -230.000046 -2.217113 324.999969
v -211.250046 -2.217113 324.999969
v -230.000046 -2.217113 324.999969
v -230.000046 -2.217113 0.000000
v -211.250046 -2.217113 324.999969
v -211.250046 -2.217113 0.000000
v -211.250046 -2.217113 324.999969
v -211.250046 -2.217113 0.000000
v -211.250046 16.532885 324.999969
v -211.250046 16.532885 0.000000
v -211.250046 16.532885 324.999969
v -211.250046 16.532885 0.000000
v -230.000046 16.532885 324.999969
v -230.000046 16.532885 0.000000
v -230.000046 16.532885 324.999969
v -230.000046 16.532885 0.000000
v -230.000046 -2.217113 324.999969
v -230.000046 -2.217113 0.000000
v -236.250015 4.354362 162.395660
v -236.250015 4.354362 143.645660
v -236.250015 -14.395637 162.395660
v -236.250015 -14.395637 143.645660
v 63.749985 4.354362 162.395676
v 63.749985 -14.395637 162.395676
v 63.749985 4.354362 143.645676
v 63.749985 -14.395637 143.645676
v -236.250015 -14.395637 143.645660
v 63.749985 -14.395637 143.645676
v -236.250015 -14.395637 162.395660
v 63.749985 -14.395637 162.395676
v -236.250015 4.354362 143.645660
v 63.749985 4.354362 143.645676
v -236.250015 -14.395637 143.645660
v 63.749985 -14.395637 143.645676
v -236.250015 4.354362 162.395660
v 63.749985 4.354362 143.645676
v -236.250015 4.354362 143.645660
v 63.749985 4.354362 162.395676
v -236.250015 -14.395637 162.395660
v 63.749985 -14.395637 162.395676
v -236.250015 4.354362 162.395660
v 63.749985 4.354362 162.395676
v 63.750015 4.354362 162.395660
v 63.750015 4.354362 143.645660
v 63.750015 -14.395637 162.395660
v 63.750015 -14.395637 143.645660
v 266.250000 4.354362 162.395676
v 266.250000 -14.395637 162.395676
v 266.250000 4.354362 143.645676
v 266.250000 -14.395637 143.645676
v 63.750015 -14.395637 162.395660
v 266.250000 -14.395637 143.645676
v 266.250000 -14.395637 162.395676
v 63.750015 -14.395637 143.645660
v 266.250000 -14.395637 143.645676
v 63.750015 -14.395637 143.645660
v 63.750015 4.354362 143.645660
v 266.250000 4.354362 143.645676
v 63.750015 4.354362 162.395660
v 266.250000 4.354362 162.395676
v 266.250000 4.354362 143.645676
v 63.750015 4.354362 143.645660
v 266.250000 4.354362 162.395676
v 63.750015 4.354362 162.395660
v 63.750015 -14.395637 162.395660
v 266.250000 -14.395637 162.395676
v 119.239822 -9.398940 92.377831
v 145.110672 -18.773939 77.566673
v 135.416000 -0.023941 90.962593
v 128.934494 -28.148939 78.981911
v 121.976517 -10.518996 208.803619
v 102.827042 -15.294509 197.926880
v 112.766861 -22.871626 198.119186
v 112.036697 -2.941879 208.611313
v 188.574814 0.353779 234.769424
v 162.703964 -9.021224 219.958267
v 178.880142 -18.396219 221.373505
v 172.398636 9.728774 233.354187
v 204.987625 -5.541797 201.813019
v 185.838089 -0.766289 212.689758
v 195.047775 -13.118915 202.005325
v 195.777939 6.810833 212.497452
v 18.317764 -4.671943 132.175018
v -8.712906 -11.387317 118.004349
v 5.927841 -22.868443 120.326958
v 3.677017 6.809185 129.852402
v -167.323776 -16.403673 18.651812
v -160.608383 10.627017 32.822487
v -178.804886 -1.762924 20.974428
v -149.127274 -4.013732 30.499872
v -166.129105 -17.739645 216.608643
v -193.159805 -11.024268 230.779327
v -180.769852 -29.220774 218.931259
v -178.519058 0.456860 228.456711
v 2.598419 19.845778 259.491394
v -23.272446 10.470778 274.302551
v -7.096252 1.095779 272.887329
v -13.577759 29.220778 260.906616
v -177.882370 2.710319 208.611313
v -168.672684 15.062949 197.926880
v -187.822220 10.287436 208.803619
v -178.612534 22.640066 198.119186
v -210.956345 18.542379 77.566673
v -185.085495 9.167380 92.377831
v -194.780167 27.917379 78.981911
v -201.261673 -0.207619 90.962593
v -2.986343 21.415281 66.941940
v 6.223328 9.062652 77.626366
v 16.163162 16.639769 77.818680
v 6.953491 28.992399 67.134254
vn -0.0000 -0.0000 -1.0000
vn -0.0000 -0.0000 1.0000
vn -0.0000 -1.0000 -0.0000
vn 1.0000 -0.0000 -0.0000
vn -0.0000 1.0000 -0.0000
vn -1.0000 -0.0000 -0.0000
vn 0.3245 -0.4330 0.8409
vn -0.3556 -0.4456 0.8216
vn -0.3245 -0.4330 0.8409
vn 0.3556 -0.4456 0.8216
vn -0.3804 -0.3087 0.8718
vn -0.3087 -0.3804 0.8718
vn 0.3804 -0.3087 0.8718
vn 0.3245 0.4330 0.8409
vn 0.3556 0.4456 0.8216
vn -0.3245 0.4330 0.8409
vn -0.3556 0.4456 0.8216
vt 0.091003 -0.506836
vt 0.091003 0.997166
vt 0.004238 0.997166
vt 0.004238 -0.506836
vt 0.503418 0.001953
vt 0.591797 0.001953
vt 0.591797 0.090820
vt 0.503418 0.090820
vt 0.504395 0.097656
vt 0.591309 0.097656
vt 0.591309 0.184570
vt 0.504395 0.184570
vt 0.561523 0.002441
vt 0.561523 0.061035
vt 0.502930 0.061035
vt 0.502930 0.002441
vt 0.372314 -0.537109
vt 0.372314 0.997601
vt 0.283691 0.997601
vt 0.283691 -0.537109
vt 0.372314 0.997595
vt 0.283691 0.997595
vt 0.187256 -0.368164
vt 0.187256 1.155884
vt 0.128906 1.155884
vt 0.128906 -0.368164
vt 0.187134 -0.368164
vt 0.187134 1.155762
vt 0.128784 1.155762
vt 0.128784 -0.368164
vt 0.590820 0.098145
vt 0.590820 0.184570
vt 0.503906 0.184570
vt 0.503906 0.098145
vt 0.247925 -0.527344
vt 0.247925 0.997318
vt 0.189575 0.997318
vt 0.189575 -0.527344
vt 0.091003 0.997110
vt 0.004223 0.997110
vt 0.004223 -0.506836
vt 0.090881 -0.506836
vt 0.090881 0.997049
vt 0.004089 0.997049
vt 0.004089 -0.506836
vt 0.091003 -0.442383
vt 0.091003 1.061493
vt 0.004238 1.061493
vt 0.004238 -0.442383
vt 0.372559 -0.537109
vt 0.372559 0.997662
vt 0.283936 0.997662
vt 0.283936 -0.537109
vt 0.247803 0.000977
vt 0.247803 1.525391
vt 0.189453 1.525391
vt 0.189453 0.000977
vt 0.248047 -0.527344
vt 0.248047 0.997356
vt 0.189575 0.997356
vt 0.090881 -0.755859
vt 0.090881 0.748535
vt 0.004089 0.748535
vt 0.004089 -0.755859
vt 0.372559 0.997719
vt 0.283936 0.997719
vt 0.090759 -0.506836
vt 0.090759 0.997046
vt 0.003994 0.997046
vt 0.003994 -0.506836
vt 0.247925 0.997278
vt 0.189453 0.997278
vt 0.189453 -0.527344
vt 0.090759 -0.755859
vt 0.090759 0.748535
vt 0.003994 0.748535
vt 0.003994 -0.755859
vt 0.090881 -0.442383
vt 0.090881 1.061401
vt 0.004089 1.061401
vt 0.004089 -0.442383
vt 0.247925 0.000977
vt 0.247925 1.525391
vt 0.189575 1.525391
vt 0.189575 0.000977
vt 0.591797 0.002441
vt 0.502930 0.090820
vt 0.091003 -0.692383
vt 0.091003 0.811279
vt 0.004223 0.811279
vt 0.004223 -0.692383
vt 0.247803 -0.527344
vt 0.247803 0.997274
vt 0.189453 0.997274
vt 0.248047 0.000977
vt 0.248047 1.525391
vt 0.187256 1.155762
vt 0.091003 -0.754883
vt 0.091003 0.748779
vt 0.004238 0.748779
vt 0.004238 -0.754883
vt 0.187134 -0.527344
vt 0.187134 0.997274
vt 0.128784 0.997274
vt 0.128784 -0.527344
vt 0.004223 0.748779
vt 0.004223 -0.754883
vt 0.187256 -0.527344
vt 0.187256 0.997318
vt 0.128906 0.997318
vt 0.128906 -0.527344
vt 0.090881 -0.692383
vt 0.090881 0.811279
vt 0.004089 0.811279
vt 0.004089 -0.692383
vt 0.187256 0.997278
vt 0.128784 0.997278
vt 0.839844 0.997662
vt 0.750977 0.997662
vt 0.750977 -0.537109
vt 0.839844 -0.537109
vt 0.091003 1.061462
vt 0.004223 1.061462
vt 0.004223 -0.442383
vt 0.655762 0.313965
vt 0.594727 0.313965
vt 0.594727 0.405273
vt 0.655762 0.405273
vt 0.090759 -0.692383
vt 0.090759 0.811279
vt 0.003994 0.811279
vt 0.003994 -0.692383
vt 0.500977 0.314941
vt 0.592285 0.314941
vt 0.592285 0.437012
vt 0.500977 0.437012
vt 0.090759 -0.442383
vt 0.090759 1.061371
vt 0.003994 1.061371
vt 0.003994 -0.442383
vt 0.750977 0.498535
vt 0.839355 0.498535
vt 0.839355 -0.537109
vt 0.187256 0.997356
vt 0.128906 0.997356
vt 0.091003 0.811401
vt 0.004238 0.811401
vt 0.004238 -0.692383
vt 0.750977 0.997595
vt 0.839355 0.997595
vt 0.839844 0.997719
vt 0.750977 0.997719
vt 0.839844 0.499023
vt 0.750977 0.499023
vt 0.839355 0.997601
vt 0.750977 0.997601
s 1
usemtl MI_BambooGate
f 68/1/5 67/2/5 65/3/5 66/4/5
f 356/1/5 355/2/5 353/3/5 354/4/5
f 26/5/1 28/6/1 27/7/1 25/8/1
f 122/9/1 124/10/1 123/11/1 121/12/1
f 200/13/2 197/14/2 198/15/2 199/16/2
f 40/17/4 39/18/4 37/19/4 38/20/4
f 290/5/1 292/6/1 291/7/1 289/8/1
f 312/17/6 311/21/6 309/22/6 310/20/6
f 266/16/1 268/13/1 267/14/1 265/15/1
f 146/9/1 148/10/1 147/11/1 145/12/1
f 212/23/5 211/24/5 209/25/5 210/26/5
f 216/27/6 215/28/6 213/29/6 214/30/6
f 104/31/2 101/32/2 102/33/2 103/34/2
f 98/9/1 100/10/1 99/11/1 97/12/1
f 276/35/3 275/36/3 273/37/3 274/38/3
f 132/1/3 131/39/3 129/40/3 130/41/3
f 184/17/4 183/18/4 181/19/4 182/20/4
f 256/42/4 255/43/4 253/44/4 254/45/4
f 338/9/1 340/10/1 339/11/1 337/12/1
f 164/46/5 163/47/5 161/48/5 162/49/5
f 300/50/3 299/51/3 297/52/3 298/53/3
f 260/1/5 259/2/5 257/3/5 258/4/5
f 96/54/6 95/55/6 93/56/6 94/57/6
f 194/16/1 196/13/1 195/14/1 193/15/1
f 8/13/2 5/14/2 6/15/2 7/16/2
f 20/58/5 19/59/5 17/60/5 18/38/5
f 112/61/4 111/62/4 109/63/4 110/64/4
f 48/17/6 47/21/6 45/22/6 46/20/6
f 204/23/3 203/24/3 201/25/3 202/26/3
f 188/50/5 187/65/5 185/66/5 186/53/5
f 264/67/6 263/68/6 261/69/6 262/70/6
f 2/16/1 4/13/1 3/14/1 1/15/1
f 16/35/4 15/71/4 13/72/4 14/73/4
f 140/1/5 139/2/5 137/3/5 138/4/5
f 60/1/3 59/39/3 57/40/3 58/41/3
f 280/35/4 279/71/4 277/72/4 278/73/4
f 120/74/6 119/75/6 117/76/6 118/77/6
f 36/50/3 35/51/3 33/52/3 34/53/3
f 160/78/4 159/79/4 157/80/4 158/81/4
f 84/82/3 83/83/3 81/84/3 82/85/3
f 32/86/2 29/7/2 30/87/2 31/16/2
f 170/5/1 172/6/1 171/7/1 169/8/1
f 74/16/1 76/13/1 75/14/1 73/15/1
f 316/9/1 314/10/1 315/11/1 313/12/1
f 324/88/6 323/89/6 321/90/6 322/91/6
f 24/92/6 23/93/6 21/94/6 22/73/6
f 44/50/5 43/65/5 41/66/5 42/53/5
f 360/67/6 359/68/6 357/69/6 358/70/6
f 388/8/6 387/5/6 385/6/6 386/7/6
f 92/95/5 91/96/5 89/84/5 90/85/5
f 208/23/4 207/97/4 205/29/4 206/30/4
f 390/16/4 392/86/4 391/7/4 389/87/4
f 56/31/2 53/32/2 54/33/2 55/34/2
f 50/9/1 52/10/1 51/11/1 49/12/1
f 116/98/5 115/99/5 113/100/5 114/101/5
f 240/102/6 239/103/6 237/104/6 238/105/6
f 218/16/1 220/13/1 219/14/1 217/15/1
f 108/98/3 107/99/3 105/106/3 106/107/3
f 228/108/3 227/109/3 225/110/3 226/111/3
f 328/112/3 327/113/3 325/114/3 326/115/3
f 224/13/2 221/14/2 222/15/2 223/16/2
f 192/17/6 191/21/6 189/22/6 190/20/6
f 128/31/2 125/32/2 126/33/2 127/34/2
f 12/35/3 11/36/3 9/37/3 10/38/3
f 304/17/4 303/18/4 301/19/4 302/20/4
f 88/82/4 87/83/4 85/56/4 86/57/4
f 72/67/6 71/68/6 69/69/6 70/70/6
f 252/1/3 251/39/3 249/40/3 250/41/3
f 64/42/4 63/43/4 61/44/4 62/45/4
f 232/108/4 231/116/4 229/117/4 230/105/4
f 144/67/6 143/68/6 141/69/6 142/70/6
f 296/86/2 293/7/2 294/87/2 295/16/2
f 136/42/4 135/43/4 133/44/4 134/45/4
f 370/118/3 372/119/3 371/120/3 369/121/3
f 288/92/6 287/93/6 285/94/6 286/73/6
f 284/58/5 283/59/5 281/60/5 282/38/5
f 272/13/2 269/14/2 270/15/2 271/16/2
f 152/31/2 149/32/2 150/33/2 151/34/2
f 156/46/3 155/122/3 153/123/3 154/124/3
f 452/125/17 449/126/17 450/127/17 451/128/17
f 366/16/4 368/86/4 367/7/4 365/87/4
f 336/129/5 335/130/5 333/131/5 334/132/5
f 180/50/3 179/51/3 177/52/3 178/53/3
f 412/133/7 410/134/7 411/135/7 409/136/7
f 80/13/2 77/14/2 78/15/2 79/16/2
f 176/86/2 173/7/2 174/87/2 175/16/2
f 364/8/6 363/5/6 361/6/6 362/7/6
f 344/31/2 341/32/2 342/33/2 343/34/2
f 168/137/6 167/138/6 165/139/6 166/140/6
f 352/42/4 351/43/4 349/44/4 350/45/4
f 408/141/2 405/142/2 406/143/2 407/120/2
f 236/108/5 235/144/5 233/145/5 234/111/5
f 332/88/4 331/146/4 329/147/4 330/148/4
f 308/50/5 307/65/5 305/66/5 306/53/5
f 348/1/3 347/39/3 345/40/3 346/41/3
f 248/31/2 245/32/2 246/33/2 247/34/2
f 382/149/2 384/150/2 383/143/2 381/120/2
f 380/151/5 378/152/5 379/120/5 377/121/5
f 400/142/1 397/141/1 398/120/1 399/143/1
f 242/9/1 244/10/1 243/11/1 241/12/1
f 396/121/3 394/153/3 395/154/3 393/120/3
f 404/120/5 401/121/5 402/153/5 403/154/5
f 320/34/2 318/31/2 319/32/2 317/33/2
f 374/155/1 376/156/1 375/120/1 373/143/1
f 432/133/12 430/134/12 431/135/12 429/136/12
f 440/133/14 438/136/14 439/135/14 437/134/14
f 442/126/15 444/125/15 443/128/15 441/127/15
f 424/127/10 422/128/10 423/125/10 421/126/10
f 436/133/13 434/134/13 435/135/13 433/136/13
f 416/127/8 414/126/8 415/125/8 413/128/8
f 428/133/11 426/136/11 427/135/11 425/134/11
f 448/135/16 446/136/16 447/133/16 445/134/16
f 420/135/9 418/134/9 419/133/9 417/136/9
