# Blender 5.0.1
# www.blender.org
mtllib BP_GS_Cog_M.mtl
o SM_GS_Cog_M.001
v -18.749935 399.999939 -449.999969
v -18.749939 399.999969 -399.999969
v -18.749931 449.999939 -449.999969
v 18.750069 449.999939 -449.999969
v 18.750061 399.999969 -399.999969
v 18.750065 399.999939 -449.999969
v -18.749935 449.999939 -399.999969
v 18.750065 449.999939 -399.999969
v -18.750004 -450.000061 -399.999908
v -18.750000 -400.000031 -399.999908
v -18.750000 -449.999969 -449.999817
v 18.750000 -449.999969 -449.999817
v 18.750000 -400.000031 -399.999908
v 18.749996 -450.000061 -399.999908
v -18.749996 -400.000061 -449.999878
v 18.750004 -400.000061 -449.999878
v -18.750065 -399.999969 449.999969
v -18.750061 -399.999969 399.999969
v -18.750069 -449.999969 449.999939
v 18.749931 -449.999969 449.999939
v 18.749939 -399.999969 399.999969
v 18.749935 -399.999969 449.999969
v -18.750065 -449.999969 399.999939
v 18.749935 -449.999969 399.999939
v -18.749996 450.000061 399.999878
v -18.750000 400.000031 399.999878
v -18.750000 450.000031 449.999817
v 18.750000 450.000031 449.999817
v 18.750000 400.000031 399.999878
v 18.750004 450.000061 399.999878
v -18.750004 400.000061 449.999847
v 18.749996 400.000061 449.999847
v -21.874996 450.000061 399.999817
v 15.625000 400.000031 399.999847
v 15.625005 450.000061 399.999817
v -21.875000 400.000031 399.999847
v -21.874939 399.999908 -400.000031
v -21.874935 449.999969 -399.999969
v 15.625061 399.999908 -400.000031
v 15.625064 449.999969 -399.999969
v -21.874966 450.000000 -0.000120
v 15.625030 399.999969 -0.000109
v 15.625034 450.000000 -0.000117
v -21.874969 399.999969 -0.000112
v 15.624966 -0.000047 450.000000
v -21.875031 -0.000023 400.000000
v -21.875034 -0.000044 450.000000
v 15.624970 -0.000025 400.000000
v -21.875065 -399.999908 450.000031
v -21.875061 -399.999969 400.000031
v 15.624936 -399.999908 450.000031
v 15.624939 -399.999908 400.000031
v 15.624995 400.000061 449.999878
v -21.875000 400.000031 399.999847
v -21.875004 400.000061 449.999878
v 15.625000 400.000031 399.999847
v -21.875031 -400.000061 0.000078
v 15.624966 -450.000000 0.000074
v 15.624970 -400.000061 0.000081
v -21.875034 -450.000000 0.000072
v -21.875004 -450.000061 -399.999786
v -21.875000 -400.000122 -399.999786
v 15.624995 -450.000061 -399.999786
v 15.625000 -400.000031 -399.999878
v -21.875061 -399.999969 400.000031
v 15.624936 -449.999939 400.000061
v 15.624939 -399.999908 400.000031
v -21.875065 -449.999939 400.000061
v 15.625061 399.999908 -400.000031
v -21.874935 399.999908 -450.000031
v -21.874939 399.999908 -400.000031
v 15.625064 399.999908 -450.000031
v -21.875000 -400.000122 -399.999786
v -21.874996 -400.000061 -449.999847
v 15.625000 -400.000031 -399.999878
v 15.625005 -400.000061 -449.999847
v 15.625030 -0.000171 -399.999878
v -21.874966 -0.000176 -449.999847
v 15.625034 -0.000179 -449.999847
v -21.874969 -0.000168 -399.999878
v -25.000010 -49.999985 50.000004
v 25.000000 -50.000008 -49.999985
v 24.999992 -49.999992 50.000008
v -25.000000 -50.000004 -49.999992
v -25.000000 50.000008 49.999985
v -25.000010 -49.999985 50.000004
v 25.000000 50.000004 49.999992
v 24.999992 -49.999992 50.000008
v 25.000000 50.000004 49.999992
v 25.000010 49.999985 -50.000004
v -25.000000 50.000008 49.999985
v -24.999992 49.999992 -50.000008
v -25.000000 -50.000004 -49.999992
v 25.000010 49.999985 -50.000004
v 25.000000 -50.000008 -49.999985
v -24.999992 49.999992 -50.000008
v -25.000000 50.000008 49.999985
v -24.999992 49.999992 -50.000008
v -25.000010 -49.999985 50.000004
v -25.000000 -50.000004 -49.999992
v 24.999992 -49.999992 50.000008
v 25.000000 -50.000008 -49.999985
v 25.000000 50.000004 49.999992
v 25.000010 49.999985 -50.000004
v 9.999984 -16.666605 199.999954
v 9.999998 20.833349 49.999992
v 9.999987 20.833389 199.999969
v 9.999995 -16.666645 49.999996
v 9.999967 -16.666553 425.000000
v 9.999972 -16.666565 349.999969
v 9.999969 20.833441 425.000000
v 9.999975 20.833429 349.999939
v -10.000033 -16.666550 425.000000
v -10.000028 -16.666563 349.999969
v 9.999967 -16.666553 425.000000
v 9.999972 -16.666565 349.999969
v -10.000016 -16.666601 199.999985
v -10.000006 -16.666641 49.999996
v 9.999984 -16.666605 199.999954
v 9.999995 -16.666645 49.999996
v 9.999969 20.833441 425.000000
v -10.000025 20.833431 349.999939
v -10.000031 20.833445 425.000000
v 9.999975 20.833429 349.999939
v 10.000006 49.999992 -20.833347
v -9.999984 199.999985 -20.833374
v 10.000016 199.999985 -20.833372
v -9.999995 49.999992 -20.833349
v -9.999986 199.999985 16.666624
v 10.000002 50.000000 16.666651
v 10.000014 200.000000 16.666628
v -9.999998 50.000000 16.666649
v -10.156248 50.000000 16.666649
v -10.156236 199.999985 16.666624
v -10.156234 199.999985 -20.833374
v -10.156245 49.999992 -20.833349
v 10.000006 49.999992 -20.833347
v 10.000016 199.999985 -20.833372
v 10.000002 50.000000 16.666651
v 10.000014 200.000000 16.666628
v -10.000013 20.833393 199.999985
v 9.999987 20.833389 199.999969
v -10.000002 20.833351 49.999992
v 9.999998 20.833349 49.999992
v 10.000029 350.000000 -20.833395
v 10.000026 350.000000 16.666603
v -9.999975 350.000000 16.666599
v 10.000026 350.000000 16.666603
v -9.999971 350.000000 -20.833399
v 10.000029 350.000000 -20.833395
v -9.999967 425.000000 -20.833410
v 10.000033 425.000000 -20.833408
v -9.999969 425.000000 16.666588
v 10.000031 425.000000 16.666590
v 10.000033 425.000000 -20.833408
v 10.000031 425.000000 16.666590
v 9.999995 -49.999985 20.833353
v 9.999986 -199.999985 -16.666588
v 9.999998 -49.999992 -16.666637
v 9.999984 -199.999969 20.833406
v 9.999967 -424.999939 20.833473
v 9.999975 -349.999939 -16.666533
v 9.999971 -349.999939 20.833462
v 9.999969 -424.999969 -16.666521
v -10.000031 -424.999969 -16.666523
v -10.000026 -349.999939 -16.666536
v 9.999969 -424.999969 -16.666521
v 9.999975 -349.999939 -16.666533
v -10.000014 -199.999985 -16.666590
v -10.000002 -49.999992 -16.666641
v 9.999986 -199.999985 -16.666588
v 9.999998 -49.999992 -16.666637
v 9.999967 -424.999939 20.833473
v 9.999971 -349.999939 20.833462
v -10.000029 -349.999939 20.833458
v -10.000033 -424.999939 20.833471
v 9.999984 -199.999969 20.833406
v -10.000016 -199.999954 20.833405
v 9.999995 -49.999985 20.833353
v -10.000006 -49.999985 20.833349
v 10.000002 -20.833355 -49.999977
v 10.000016 16.666573 -199.999954
v 10.000006 16.666634 -49.999989
v 10.000013 -20.833422 -199.999954
v 10.000025 -20.833490 -349.999908
v 10.000031 -20.833504 -424.999908
v 10.000028 16.666502 -349.999908
v 10.000033 16.666491 -424.999908
v 10.000028 16.666502 -349.999908
v -9.999967 16.666494 -424.999908
v -9.999972 16.666506 -349.999908
v 10.000033 16.666491 -424.999908
v 10.000006 16.666634 -49.999989
v -9.999984 16.666574 -199.999954
v -9.999995 16.666637 -49.999989
v 10.000016 16.666573 -199.999954
v 10.000025 -20.833490 -349.999908
v -9.999969 -20.833500 -424.999908
v 10.000031 -20.833504 -424.999908
v -9.999975 -20.833488 -349.999908
v 10.000013 -20.833422 -199.999954
v -9.999987 -20.833420 -199.999954
v 10.000002 -20.833355 -49.999977
v -9.999998 -20.833351 -49.999977
v -18.749935 399.999939 -449.999969
v -18.749931 449.999939 -449.999969
v 18.750065 399.999939 -449.999969
v 18.750069 449.999939 -449.999969
v -18.749935 449.999939 -399.999969
v 18.750065 449.999939 -399.999969
v -18.749931 449.999939 -449.999969
v 18.750069 449.999939 -449.999969
v -18.750004 -450.000061 -399.999908
v -18.750000 -449.999969 -449.999817
v 18.749996 -450.000061 -399.999908
v 18.750000 -449.999969 -449.999817
v 18.750000 -449.999969 -449.999817
v -18.749996 -400.000061 -449.999878
v 18.750004 -400.000061 -449.999878
v -18.750000 -449.999969 -449.999817
v -18.750065 -399.999969 449.999969
v 18.749931 -449.999969 449.999939
v 18.749935 -399.999969 449.999969
v -18.750069 -449.999969 449.999939
v 18.749931 -449.999969 449.999939
v -18.750065 -449.999969 399.999939
v 18.749935 -449.999969 399.999939
v -18.750069 -449.999969 449.999939
v 18.750000 450.000031 449.999817
v -18.749996 450.000061 399.999878
v -18.750000 450.000031 449.999817
v 18.750004 450.000061 399.999878
v -18.750000 450.000031 449.999817
v 18.749996 400.000061 449.999847
v 18.750000 450.000031 449.999817
v -18.750004 400.000061 449.999847
v -3.124998 449.999969 399.999817
v -3.124968 449.999908 -0.000118
v -3.124994 500.000031 399.999817
v -3.124964 499.999939 -0.000126
v 15.625000 400.000031 399.999847
v 15.625030 399.999969 -0.000109
v 15.625005 450.000061 399.999817
v 15.625034 450.000000 -0.000117
v -21.874969 399.999969 -0.000112
v -21.875000 400.000031 399.999847
v -21.874996 450.000061 399.999817
v -21.874966 450.000000 -0.000120
v -21.875000 400.000031 399.999847
v -21.874969 399.999969 -0.000112
v 15.625000 400.000031 399.999847
v 15.625030 399.999969 -0.000109
v 15.625005 450.000061 399.999817
v -21.874966 450.000000 -0.000120
v -21.874996 450.000061 399.999817
v 15.625034 450.000000 -0.000117
v -3.124937 449.999939 -399.999969
v -3.124933 499.999939 -400.000000
v 15.625064 449.999969 -399.999969
v 15.625061 399.999908 -400.000031
v -21.874935 449.999969 -399.999969
v -21.874939 399.999908 -400.000031
v -21.874939 399.999908 -400.000031
v 15.625061 399.999908 -400.000031
v -21.874935 449.999969 -399.999969
v 15.625064 449.999969 -399.999969
v -3.125066 -399.999908 450.000031
v -3.125039 -0.000038 499.999939
v -3.125069 -399.999908 500.000031
v -3.125035 -0.000016 450.000000
v 15.624939 -399.999908 400.000031
v 15.624966 -0.000047 450.000000
v 15.624936 -399.999908 450.000031
v 15.624970 -0.000025 400.000000
v -21.875065 -399.999908 450.000031
v -21.875034 -0.000044 450.000000
v -21.875031 -0.000023 400.000000
v -21.875061 -399.999969 400.000031
v -21.875061 -399.999969 400.000031
v -21.875031 -0.000023 400.000000
v 15.624939 -399.999908 400.000031
v 15.624970 -0.000025 400.000000
v -21.875034 -0.000044 450.000000
v 15.624936 -399.999908 450.000031
v 15.624966 -0.000047 450.000000
v -21.875065 -399.999908 450.000031
v -3.125009 400.000061 499.999878
v -3.125005 400.000061 449.999939
v 15.624995 400.000061 449.999878
v -21.875004 400.000061 449.999878
v -21.875000 400.000031 399.999847
v 15.625000 400.000031 399.999847
v -21.875004 400.000061 449.999878
v 15.624995 400.000061 449.999878
v -3.125039 -499.999939 0.000081
v -3.125005 -450.000061 -399.999786
v -3.125035 -450.000000 0.000088
v -3.125009 -500.000031 -399.999786
v 15.624966 -450.000000 0.000074
v 15.624995 -450.000061 -399.999786
v 15.624970 -400.000061 0.000081
v 15.625000 -400.000031 -399.999878
v -21.875034 -450.000000 0.000072
v -21.875000 -400.000122 -399.999786
v -21.875004 -450.000061 -399.999786
v -21.875031 -400.000061 0.000078
v 15.624970 -400.000061 0.000081
v -21.875000 -400.000122 -399.999786
v -21.875031 -400.000061 0.000078
v 15.625000 -400.000031 -399.999878
v -21.875004 -450.000061 -399.999786
v 15.624966 -450.000000 0.000074
v -21.875034 -450.000000 0.000072
v 15.624995 -450.000061 -399.999786
v -3.125069 -499.999878 400.000061
v -3.125066 -449.999939 400.000061
v 15.624936 -449.999939 400.000061
v -21.875065 -449.999939 400.000061
v 15.624939 -399.999908 400.000031
v -21.875061 -399.999969 400.000031
v -21.875065 -449.999939 400.000061
v 15.624936 -449.999939 400.000061
v -3.124937 399.999908 -450.000061
v -3.124964 -0.000186 -499.999908
v -3.124933 399.999908 -500.000031
v -3.124968 -0.000177 -449.999847
v 15.625034 -0.000179 -449.999847
v 15.625064 399.999908 -450.000031
v 15.625030 -0.000171 -399.999878
v -21.874966 -0.000176 -449.999847
v -21.874969 -0.000168 -399.999878
v -21.874935 399.999908 -450.000031
v -21.874939 399.999908 -400.000031
v 15.625030 -0.000171 -399.999878
v 15.625061 399.999908 -400.000031
v -21.874969 -0.000168 -399.999878
v -21.874935 399.999908 -450.000031
v 15.625034 -0.000179 -449.999847
v -21.874966 -0.000176 -449.999847
v 15.625064 399.999908 -450.000031
v -3.124998 -400.000061 -449.999847
v -3.124994 -400.000061 -499.999878
v 15.625005 -400.000061 -449.999847
v -21.874996 -400.000061 -449.999847
v 15.625000 -400.000031 -399.999878
v -21.875000 -400.000122 -399.999786
v -21.874996 -400.000061 -449.999847
v 15.625005 -400.000061 -449.999847
v -10.156236 -20.833420 -199.999954
v -10.156221 16.666506 -349.999908
v -10.156224 -20.833488 -349.999908
v -10.156233 16.666574 -199.999954
v -10.156219 -20.833500 -424.999908
v -10.156216 16.666494 -424.999908
v -10.156247 -20.833351 -49.999977
v -10.156244 16.666637 -49.999989
v -10.156265 -199.999969 20.833405
v -10.156275 -349.999939 -16.666536
v -10.156278 -349.999939 20.833458
v -10.156263 -199.999985 -16.666590
v -10.156282 -424.999939 20.833471
v -10.156280 -424.999969 -16.666523
v -10.156224 350.000000 16.666599
v -10.156219 425.000000 16.666588
v -10.156216 425.000000 -20.833410
v -10.156221 350.000000 -20.833399
v -10.156255 -49.999985 20.833349
v -10.156252 -49.999992 -16.666641
v -10.156280 20.833445 425.000000
v -10.156277 -16.666563 349.999969
v -10.156282 -16.666550 425.000000
v -10.156274 20.833431 349.999939
v -10.156265 -16.666601 199.999954
v -10.156252 20.833351 49.999992
v -10.156255 -16.666641 49.999996
v -10.156262 20.833393 199.999969
vn -1.0000 -0.0000 -0.0000
vn 1.0000 -0.0000 -0.0000
vn -0.0000 -0.0000 1.0000
vn -0.0000 -0.0000 -1.0000
vn -0.0000 1.0000 -0.0000
vn -0.0000 -1.0000 -0.0000
vt 0.125000 0.999969
vt 0.125000 0.507812
vt 0.062500 0.507812
vt 0.062500 0.999969
vt 0.125000 0.938477
vt 0.062500 0.938477
vt 0.093750 0.500000
vt 0.046875 0.500000
vt 0.046875 0.999969
vt 0.093750 0.999969
vt 0.070312 0.187500
vt 0.070312 0.000000
vt 0.023438 0.000000
vt 0.023438 0.187500
vt 0.179688 0.507812
vt 0.179688 0.999969
vt 0.117188 0.999969
vt 0.117188 0.507812
vt 0.046875 0.937500
vt 0.093750 0.937500
vt 0.000031 0.187500
vt 0.000031 0.000000
vt 1.000000 0.898438
vt 0.875000 0.898438
vt 0.875000 0.835938
vt 1.000000 0.835938
vt 0.000031 0.093750
vt 0.023438 0.093750
vt 0.070312 0.093750
vt 0.250000 0.999969
vt 0.250000 0.875000
vt 0.375000 0.875000
vt 0.375000 0.999969
s 1
usemtl Mi_Cog
f 247/1/1 248/2/1 245/3/1 246/4/1
f 244/2/2 243/1/2 241/4/2 242/3/2
f 12/1/2 16/5/2 13/6/2 14/5/2
f 346/7/3 345/8/3 334/9/3 336/10/3
f 352/11/1 350/12/1 351/13/1 349/14/1
f 185/13/2 187/12/2 182/11/2 184/14/2
f 307/9/5 309/10/5 320/7/5 319/8/5
f 372/13/1 376/14/1 373/11/1 370/12/1
f 145/13/2 146/12/2 140/11/2 138/14/2
f 256/8/5 254/7/5 255/10/5 253/9/5
f 56/3/5 54/3/5 55/2/5 53/2/5
f 240/15/2 239/16/2 237/17/2 238/18/2
f 10/6/1 15/5/1 11/1/1 9/5/1
f 36/4/3 34/4/3 35/1/3 33/1/3
f 2/6/1 7/5/1 3/1/1 1/5/1
f 282/8/4 281/9/4 279/10/4 280/7/4
f 216/9/6 215/19/6 213/20/6 214/10/6
f 64/4/4 63/1/4 61/1/4 62/4/4
f 160/13/2 158/12/2 159/11/2 157/14/2
f 189/14/5 191/21/5 194/22/5 196/13/5
f 356/11/1 352/12/1 349/13/1 355/14/1
f 88/23/3 87/24/3 85/25/3 86/26/3
f 149/22/4 151/27/4 152/28/4 150/13/4
f 192/28/5 190/27/5 191/22/5 189/13/5
f 200/22/6 198/27/6 199/28/6 197/13/6
f 164/29/2 162/11/2 163/14/2 161/28/2
f 362/29/1 361/28/1 359/14/1 358/11/1
f 283/10/3 285/9/3 294/8/3 293/7/3
f 119/13/6 116/14/6 114/21/6 117/22/6
f 40/2/4 39/3/4 37/3/4 38/2/4
f 124/13/5 122/22/5 123/27/5 121/28/5
f 129/22/3 131/13/3 148/14/3 147/21/3
f 44/4/3 42/4/3 43/1/3 41/1/3
f 155/28/2 156/29/2 146/11/2 145/14/2
f 105/11/2 107/14/2 112/13/2 110/12/2
f 278/4/1 275/1/1 276/2/1 277/3/1
f 142/13/5 141/22/5 122/21/5 124/14/5
f 246/3/1 277/4/1 276/1/1 290/2/1
f 298/16/2 296/17/2 297/18/2 295/15/2
f 372/14/1 370/11/1 371/29/1 369/28/1
f 72/1/5 70/1/5 71/4/5 69/4/5
f 116/13/6 115/28/6 113/27/6 114/22/6
f 336/7/3 334/8/3 335/9/3 333/10/3
f 360/11/1 358/12/1 359/13/1 357/14/1
f 314/9/6 312/8/6 313/7/6 311/10/6
f 295/16/2 297/17/2 316/18/2 315/15/2
f 84/26/6 82/23/6 83/24/6 81/25/6
f 96/26/4 94/23/4 95/24/4 93/25/4
f 104/30/2 103/31/2 101/32/2 102/33/2
f 270/18/2 268/15/2 269/16/2 267/17/2
f 100/30/1 99/31/1 97/32/1 98/33/1
f 178/22/3 175/21/3 174/14/3 177/13/3
f 184/13/2 182/12/2 183/11/2 181/14/2
f 366/14/1 363/11/1 364/29/1 365/28/1
f 350/11/1 354/29/1 353/28/1 351/14/1
f 342/15/2 324/16/2 326/17/2 341/18/2
f 138/13/2 140/12/2 139/11/2 137/14/2
f 171/13/4 168/14/4 166/21/4 169/22/4
f 175/22/3 176/27/3 173/28/3 174/13/3
f 202/22/6 200/21/6 197/14/6 201/13/6
f 126/22/4 149/21/4 150/14/4 127/13/4
f 144/13/5 143/22/5 141/21/5 142/14/5
f 210/19/5 212/9/5 211/10/5 209/20/5
f 228/10/6 226/20/6 227/19/6 225/9/6
f 208/9/4 207/19/4 205/20/4 206/10/4
f 204/22/6 202/21/6 201/14/6 203/13/6
f 264/8/6 252/9/6 250/10/6 263/7/6
f 224/10/3 222/9/3 223/19/3 221/20/3
f 135/14/1 134/11/1 363/12/1 366/13/1
f 220/10/4 218/20/4 219/19/4 217/9/4
f 147/22/3 148/13/3 154/28/3 153/27/3
f 274/3/2 272/2/2 273/1/2 271/4/2
f 4/1/2 8/5/2 5/6/2 6/5/2
f 340/9/4 338/8/4 339/7/4 337/10/4
f 252/8/6 251/9/6 249/10/6 250/7/6
f 241/3/2 289/2/2 272/1/2 274/4/2
f 248/1/1 261/2/1 262/3/1 245/4/1
f 120/13/6 119/14/6 117/21/6 118/22/6
f 128/22/4 126/21/4 127/14/4 125/13/4
f 80/4/6 78/1/6 79/1/6 77/4/6
f 278/3/1 306/4/1 303/1/1 318/2/1
f 326/18/2 324/15/2 325/16/2 323/17/2
f 26/6/1 31/5/1 27/1/1 25/5/1
f 330/1/1 344/2/1 304/3/1 331/4/1
f 266/8/5 265/7/5 254/10/5 256/9/5
f 108/11/2 106/14/2 107/13/2 105/12/2
f 288/18/2 287/15/2 268/16/2 270/17/2
f 28/1/2 32/5/2 29/6/2 30/5/2
f 236/20/3 234/19/3 235/9/3 233/10/3
f 168/13/4 167/28/4 165/27/4 166/22/4
f 92/25/5 91/26/5 89/23/5 90/24/5
f 52/4/6 51/1/6 49/1/6 50/4/6
f 232/19/5 230/20/5 231/10/5 229/9/5
f 76/2/6 75/3/6 73/3/6 74/2/6
f 48/3/5 46/3/5 47/2/5 45/2/5
f 132/22/3 130/13/3 131/14/3 129/21/3
f 112/14/2 111/28/2 109/29/2 110/11/2
f 343/2/2 327/1/2 329/4/2 302/3/2
f 68/2/3 66/2/3 67/3/3 65/3/3
f 172/13/4 171/14/4 169/21/4 170/22/4
f 329/3/2 327/2/2 328/1/2 260/4/2
f 180/22/3 178/21/3 177/14/3 179/13/3
f 18/6/1 23/5/1 19/1/1 17/5/1
f 196/14/5 194/21/5 195/22/5 193/13/5
f 312/9/6 322/8/6 321/7/6 313/10/6
f 286/10/3 284/9/3 285/8/3 283/7/3
f 299/1/2 301/4/2 271/3/2 317/2/2
f 302/4/2 301/3/2 299/2/2 300/1/2
f 310/9/5 308/10/5 309/7/5 307/8/5
f 292/8/4 282/9/4 280/10/4 291/7/4
f 20/1/2 24/5/2 21/6/2 22/5/2
f 368/11/1 360/12/1 357/13/1 367/14/1
f 306/3/1 304/4/1 305/1/1 303/2/1
f 188/29/2 187/11/2 185/14/2 186/28/2
f 258/15/2 240/16/2 238/17/2 257/18/2
f 60/2/3 58/2/3 59/3/3 57/3/3
f 163/13/2 162/12/2 158/11/2 160/14/2
f 136/14/1 133/11/1 134/12/1 135/13/1
f 376/13/1 374/14/1 375/11/1 373/12/1
f 332/1/1 330/2/1 331/3/1 262/4/1
f 260/3/2 259/2/2 244/1/2 242/4/2
f 338/9/4 348/8/4 347/7/4 339/10/4
