# Blender 5.0.1
# www.blender.org
mtllib BP_GlowShrooms_003.mtl
o SK_Glowshrooms_03.001
v -12.500001 0.000024 149.999939
v 0.000008 -0.000009 137.499985
v -12.500006 -0.000003 137.499985
v -0.000010 -0.000005 149.999969
v 12.500021 0.000000 137.499954
v 0.000005 -0.000004 124.999992
v 0.000005 0.000000 137.500000
v 12.499989 -0.000004 124.999977
v 0.000017 -12.500007 74.999962
v 0.000010 -37.500019 87.499908
v 0.000017 -12.500007 87.499916
v 0.000010 -37.500019 74.999954
v 24.999968 -0.000004 124.999954
v 12.499977 -0.000005 112.499977
v 24.999964 -0.000005 112.499985
v 24.999987 0.000000 149.999939
v 12.500031 0.000000 149.999939
v 24.999990 0.000000 137.499939
v 0.000058 0.000000 149.999939
v 94.915260 -68.535690 309.002808
v 82.415276 -72.876907 333.622955
v 94.915260 -72.876907 333.622955
v 82.415276 -68.535690 309.002808
v 69.915276 -115.962372 326.025787
v 69.915276 -111.621048 301.405609
v 94.915276 -115.962341 326.025757
v 94.915276 -111.621048 301.405609
v 94.915276 -111.621048 301.405609
v 94.915260 -72.876907 333.622955
v 94.915276 -115.962341 326.025757
v 94.915260 -68.535690 309.002808
v -30.084740 -140.582458 321.684570
v -30.084700 -123.931091 299.235077
v -30.084700 -128.272308 323.855255
v -30.084740 -136.241150 297.064453
v -67.584740 -136.241089 297.064484
v -30.084740 -140.582458 321.684570
v -67.584740 -140.582428 321.684540
v -30.084740 -136.241150 297.064453
v -67.584740 -103.652054 328.196350
v -67.584740 -136.241089 297.064484
v -67.584740 -140.582428 321.684540
v -67.584740 -99.310730 303.576263
v -80.084740 -99.310730 303.576263
v -67.584740 -103.652054 328.196350
v -80.084740 -103.652054 328.196350
v -67.584740 -99.310730 303.576263
v 44.915260 -43.915485 313.344025
v 44.915276 -23.636477 342.305389
v 44.915249 -48.256695 337.964233
v 44.915276 -19.295284 317.685242
v -80.084770 -48.256680 337.964172
v -80.084740 -99.310730 303.576263
v -80.084740 -103.652054 328.196350
v -80.084770 -43.915462 313.343964
v -55.084736 -48.256680 337.964172
v -55.084736 -43.915462 313.343964
v -80.084770 -48.256680 337.964172
v -80.084770 -43.915462 313.343964
v 82.415276 -48.256702 337.964233
v 44.915260 -43.915485 313.344025
v 44.915249 -48.256695 337.964233
v 82.415276 -43.915493 313.344025
v 82.415276 -72.876907 333.622955
v 82.415276 -43.915493 313.344025
v 82.415276 -48.256702 337.964233
v 82.415276 -68.535690 309.002808
v -17.584730 -23.636477 342.305389
v -17.584734 -31.605396 315.514648
v -17.584734 -35.946613 340.134827
v -17.584730 -19.295284 317.685242
v -55.084660 -35.946606 340.134766
v -55.084660 -31.605389 315.514648
v -55.084736 -48.256680 337.964172
v -55.084736 -43.915462 313.343964
v -17.584734 -35.946613 340.134827
v -17.584734 -31.605396 315.514648
v -55.084660 -35.946606 340.134766
v -55.084660 -31.605389 315.514648
v -30.084700 -128.272308 323.855255
v -30.084700 -123.931091 299.235077
v -5.084705 -128.272308 323.855255
v -5.084705 -123.931091 299.235077
v -17.584730 -23.636477 342.305389
v 44.915276 -23.636477 342.305389
v 44.915276 -19.295284 317.685242
v -17.584730 -19.295284 317.685242
v 69.915276 -165.202652 317.343323
v -5.084747 -165.202713 317.343384
v -5.084747 -160.861343 292.723267
v 69.915276 -160.861343 292.723236
v 69.915276 -160.861343 292.723236
v 69.915276 -115.962372 326.025787
v 69.915276 -165.202652 317.343323
v 69.915276 -111.621048 301.405609
v -5.084705 -128.272308 323.855255
v -5.084747 -160.861343 292.723267
v -5.084747 -165.202713 317.343384
v -5.084705 -123.931091 299.235077
v -49.022858 10.476902 330.687622
v -24.022858 12.647495 342.997681
v -49.022858 12.647495 342.997681
v -24.022858 10.476902 330.687622
v -24.022858 37.267673 338.656494
v -24.022858 12.647495 342.997681
v -24.022858 10.476902 330.687622
v -24.022858 35.097080 326.346375
v -49.022858 35.097080 326.346375
v -49.022858 12.647495 342.997681
v -49.022858 37.267704 338.656494
v -49.022858 10.476902 330.687622
v -49.022858 61.887878 334.315308
v -74.022827 59.717258 322.005188
v -74.022858 61.887852 334.315308
v -49.022858 59.717289 322.005219
v -74.022827 59.717258 322.005188
v -74.022858 37.267704 338.656494
v -74.022858 61.887852 334.315308
v -74.022858 35.097080 326.346375
v -49.022858 37.267704 338.656494
v -74.022858 37.267704 338.656494
v -74.022858 35.097080 326.346375
v -49.022858 35.097080 326.346375
v -49.022858 86.508057 329.974060
v -49.022858 59.717289 322.005219
v -49.022858 61.887878 334.315308
v -49.022858 84.337463 317.663971
v 0.977142 37.267673 338.656494
v -24.022858 37.267673 338.656494
v -24.022858 35.097080 326.346375
v 0.977142 35.097050 326.346375
v -24.022858 84.337463 317.663971
v -49.022858 86.508057 329.974060
v -24.022858 86.508057 329.974060
v -49.022858 84.337463 317.663971
v 50.977112 84.337463 317.663971
v 25.977112 86.508057 329.974060
v 50.977112 86.508057 329.974060
v 25.977112 84.337463 317.663971
v 0.977142 37.267673 338.656494
v 0.977112 10.476902 330.687622
v 0.977112 12.647495 342.997681
v 0.977142 35.097050 326.346375
v -24.022858 108.957626 313.322754
v -24.022858 86.508057 329.974060
v -24.022858 111.128250 325.632874
v -24.022858 84.337463 317.663971
v 25.977112 111.128250 325.632874
v 25.977112 86.508057 329.974060
v 25.977112 84.337463 317.663971
v 25.977112 108.957657 313.322754
v 0.000010 -50.000023 87.499908
v 0.000010 -50.000023 74.999954
v 0.000017 -50.000011 0.000003
v 0.000017 -37.500008 0.000003
v 0.000023 -25.000000 218.749908
v 0.000023 -25.000000 206.249847
v 0.000023 -37.500000 206.249847
v 0.000023 -37.500000 218.749908
v 0.000023 -50.000000 206.249847
v 0.000023 -50.000004 218.749893
v 0.000023 -50.000004 312.499878
v 0.000023 -37.500004 312.499878
v -0.000018 12.499994 162.500000
v -0.000019 24.999962 150.000031
v -0.000018 12.499994 149.999969
v -0.000019 24.999962 162.500031
v -0.000026 12.499962 174.999969
v -0.000019 24.999962 175.000031
v -12.499989 -0.000004 125.000053
v -12.499985 -0.000005 112.500046
v -0.000006 -0.000005 112.499985
v -12.499985 -0.000005 99.999901
v -0.000013 -0.000005 99.999901
v 12.499981 -0.000005 99.999931
v 12.499981 -0.000005 87.499954
v -0.000025 -0.000005 87.499947
v -24.999998 -0.000007 137.500000
v -24.999998 -0.000007 149.999939
v -12.500012 -0.000006 162.500000
v -25.000004 -0.000007 162.500061
v -12.500006 -0.000006 175.000031
v -25.000023 -0.000007 175.000061
v 0.000017 24.999998 87.499992
v 0.000017 12.499997 75.000023
v 0.000017 12.499997 87.499992
v 0.000017 24.999998 75.000023
v 0.000017 37.500000 87.499992
v 0.000017 37.500000 75.000023
v 0.000017 37.500000 62.500031
v 0.000017 24.999998 62.500000
v 0.000017 37.500000 0.000003
v 0.000017 24.999998 0.000003
v -37.711086 -0.000005 62.499969
v -25.211084 -0.000005 0.000034
v -37.711086 -0.000005 -0.000027
v -25.211084 -0.000036 62.499969
v -37.711086 -0.000005 74.999908
v -25.211084 -0.000005 74.999969
v -12.500047 -0.000005 74.999954
v -12.500047 -0.000005 62.499954
v -37.711052 -0.000011 237.500031
v -50.211025 -0.000012 175.000031
v -50.211056 -0.000011 237.500031
v -37.711025 0.000005 175.000031
v -50.211033 -0.000009 162.500031
v -37.711018 -0.000009 162.500031
v 0.000023 24.999992 256.249939
v 0.000023 37.499989 243.749985
v 0.000023 24.999992 243.749969
v 0.000023 37.499992 256.249939
v 0.000023 24.999992 281.249817
v 0.000023 37.499992 281.249817
v 0.000023 -0.000005 243.749969
v 0.000023 -0.000000 218.750000
v 0.000023 -12.500001 243.749939
v 0.000023 -12.500000 218.749969
v 0.000023 -0.000000 206.249878
v 0.000023 -12.500000 206.249847
v 0.000038 -0.000000 193.749817
v 0.000038 -12.500000 193.749786
v 0.000015 -0.000000 175.000061
v 0.000023 -12.500000 175.000000
v 0.000003 -0.000004 162.499969
v 0.000008 -12.500003 162.499939
v -0.000018 -0.000006 149.999969
v -0.000017 -12.500007 149.999969
v 0.000001 12.499983 137.500015
v -0.000002 -12.500004 137.499969
v 0.000017 -0.000005 87.499924
v 0.000017 -0.000005 74.999962
v 0.000017 12.499997 25.000084
v 0.000017 -0.000005 25.000023
v 0.000017 -12.500007 25.000023
v 37.499969 0.000000 149.999939
v 37.499977 0.000000 137.499939
v 37.499939 0.000000 174.999817
v 24.999941 0.000000 174.999817
v 0.977112 10.476902 330.687622
v 25.977112 12.647495 342.997681
v 0.977112 12.647495 342.997681
v 25.977112 10.476902 330.687622
v 50.977112 12.647464 342.997681
v 50.977112 10.476841 330.687592
v 50.977112 35.097050 326.346375
v 50.977112 12.647464 342.997681
v 50.977112 10.476841 330.687592
v 50.977112 37.267673 338.656494
v 50.977112 59.717258 322.005188
v 50.977112 61.887878 334.315308
v 50.977112 86.508057 329.974060
v 50.977112 84.337463 317.663971
v -0.000029 -0.000005 74.999954
v -0.000029 -0.000005 62.499954
v -12.500047 -0.000005 87.499947
v 0.000038 -25.000000 193.749786
v 0.000023 -0.000005 256.249939
v 0.000023 -12.500003 256.249939
v 0.000023 24.999992 293.749817
v 0.000023 37.499992 293.749817
v 0.000023 49.999996 293.749817
v 0.000023 49.999996 281.249817
v 0.000023 62.499996 293.749817
v 0.000023 62.499996 281.249817
v 0.000023 50.000004 331.249878
v 0.000023 62.500004 331.249878
v 37.499943 -0.000005 112.499985
v 37.499947 -0.000004 124.999962
v 37.499943 -0.000005 100.000023
v 24.999964 -0.000005 100.000015
v 49.999947 -0.000005 112.499985
v 49.999947 -0.000005 100.000023
v 49.999947 -0.000005 0.000003
v 37.499943 -0.000005 0.000003
v 94.915276 -115.962341 326.025757
v 94.915260 -72.876907 333.622955
v 82.415276 -72.876907 333.622955
v 69.915276 -115.962372 326.025787
v 44.915249 -48.256695 337.964233
v 82.415276 -48.256702 337.964233
v -5.084705 -128.272308 323.855255
v 69.915276 -165.202652 317.343323
v -5.084747 -165.202713 317.343384
v -17.584734 -35.946613 340.134827
v 44.915276 -23.636477 342.305389
v -17.584730 -23.636477 342.305389
v -30.084700 -128.272308 323.855255
v -55.084660 -35.946606 340.134766
v -55.084736 -48.256680 337.964172
v -67.584740 -140.582428 321.684540
v -30.084740 -140.582458 321.684570
v -67.584740 -103.652054 328.196350
v -80.084770 -48.256680 337.964172
v -80.084740 -103.652054 328.196350
v -74.022858 61.887852 334.315308
v -74.022858 37.267704 338.656494
v -49.022858 37.267704 338.656494
v -49.022858 61.887878 334.315308
v -24.022858 37.267673 338.656494
v -49.022858 12.647495 342.997681
v -24.022858 12.647495 342.997681
v -24.022827 61.887878 334.315308
v 0.977142 37.267673 338.656494
v -24.022858 86.508057 329.974060
v -49.022858 86.508057 329.974060
v -24.022858 111.128250 325.632874
v 0.977112 111.128250 325.632874
v 0.977112 86.508057 329.974060
v 25.977112 111.128250 325.632874
v 25.977112 86.508057 329.974060
v 0.977112 61.887878 334.315308
v 25.977112 61.887867 334.315308
v 50.977112 61.887878 334.315308
v 50.977112 86.508057 329.974060
v 25.977112 37.267704 338.656494
v 50.977112 37.267673 338.656494
v 25.977112 12.647495 342.997681
v 0.977112 12.647495 342.997681
v 50.977112 12.647464 342.997681
v -24.022858 111.128250 325.632874
v 0.977112 108.957626 313.322784
v -24.022858 108.957626 313.322754
v 0.977112 111.128250 325.632874
v 25.977112 111.128250 325.632874
v 25.977112 108.957657 313.322754
vn -0.0000 1.0000 -0.0000
vn -0.8944 0.4472 -0.0000
vn -1.0000 -0.0000 -0.0000
vn -0.0000 0.9848 0.1736
vn -0.0000 -0.9848 -0.1737
vn 1.0000 -0.0000 -0.0000
vn -0.0000 -0.9848 -0.1736
vn -0.0000 -0.9848 0.1736
vn -0.0000 0.9848 -0.1736
vn -0.0000 -0.1736 0.9848
vn -0.0000 -0.1737 0.9848
vn -0.0000 0.1736 0.9848
vn -0.0000 0.9848 -0.1737
vt 0.062500 0.625000
vt 0.062500 0.593750
vt 0.031250 0.593750
vt 0.031250 0.625000
vt 0.062500 0.390625
vt 0.062500 0.421875
vt 0.031250 0.421875
vt 0.031250 0.390625
vt 0.031250 0.656250
vt 0.031250 0.718750
vt 0.000031 0.718750
vt 0.000031 0.656250
vt 0.562500 0.999969
vt 0.500000 0.999969
vt 0.500000 0.937500
vt 0.562500 0.937500
vt 0.906250 0.125000
vt 0.906250 0.156250
vt 0.843750 0.156250
vt 0.843750 0.125000
vt 0.781250 0.156250
vt 0.781250 0.125000
vt 0.437500 0.937500
vt 0.437500 0.999969
vt 0.375000 0.999969
vt 0.375000 0.937500
vt 0.484375 0.062500
vt 0.484375 0.125000
vt 0.390625 0.125000
vt 0.390625 0.062500
vt 0.000031 0.421875
vt 0.000031 0.390625
vt 0.281250 0.062500
vt 0.421875 0.062500
vt 0.421875 0.125000
vt 0.281250 0.125000
vt 0.718750 0.125000
vt 0.718750 0.156250
vt 0.031250 0.812500
vt 0.000031 0.812500
vt 0.000031 0.750000
vt 0.031250 0.750000
vt 0.062500 0.078125
vt 0.062500 0.203125
vt 0.031250 0.203125
vt 0.031250 0.078125
vt 0.062500 0.265625
vt 0.031250 0.265625
vt 0.656250 0.156250
vt 0.656250 0.125000
vt 0.031250 0.406250
vt 0.062500 0.406250
vt 0.062500 0.437500
vt 0.031250 0.437500
vt 0.000031 0.593750
vt 0.000031 0.625000
vt 0.031250 0.375000
vt 0.000031 0.406250
vt 0.000031 0.375000
vt 0.062500 0.468750
vt 0.031250 0.468750
vt 0.031250 0.234375
vt 0.031250 0.359375
vt 0.000031 0.359375
vt 0.000031 0.234375
vt 0.546875 0.062500
vt 0.546875 0.125000
vt 0.562500 0.875000
vt 0.500000 0.875000
vt 0.000031 0.437500
vt 0.875000 0.062500
vt 0.937500 0.062500
vt 0.937500 0.125000
vt 0.875000 0.125000
vt 0.062500 0.453125
vt 0.031250 0.453125
vt 0.453125 0.062500
vt 0.453125 0.125000
vt 0.000031 0.453125
vt 0.031250 0.531250
vt 0.062500 0.531250
vt 0.859375 0.062500
vt 0.859375 0.125000
vt 0.796875 0.125000
vt 0.796875 0.062500
vt 0.015625 0.593750
vt 0.015625 0.625000
vt 0.500000 0.812500
vt 0.437500 0.812500
vt 0.437500 0.750000
vt 0.500000 0.750000
vt 0.359375 0.125000
vt 0.359375 0.062500
vt 0.031250 0.296875
vt 0.000031 0.296875
vt 0.000031 0.265625
vt 0.703125 0.062500
vt 0.703125 0.125000
vt 0.062500 0.234375
vt 0.578125 0.062500
vt 0.578125 0.125000
vt 0.031250 0.546875
vt 0.062500 0.546875
vt 0.062500 0.515625
vt 0.031250 0.515625
vt 0.046875 0.562500
vt 0.046875 0.593750
vt 0.015625 0.562500
vt 0.031250 0.500000
vt 0.062500 0.500000
vt 0.218750 0.062500
vt 0.250000 0.062500
vt 0.250000 0.125000
vt 0.218750 0.125000
vt 0.000031 0.203125
vt 0.000031 0.078125
vt 0.062500 0.484375
vt 0.031250 0.484375
vt 0.031250 0.843750
vt 0.000031 0.843750
vt 0.765625 0.062500
vt 0.765625 0.125000
vt 0.640625 0.125000
vt 0.640625 0.062500
vt 0.734375 0.062500
vt 0.734375 0.125000
vt 0.593750 0.156250
vt 0.593750 0.125000
vt 0.375000 0.875000
vt 0.312500 0.875000
vt 0.312500 0.812500
vt 0.375000 0.812500
vt 0.062500 0.562500
vt 0.031250 0.562500
vt 0.062500 0.359375
vt 0.515625 0.062500
vt 0.515625 0.125000
vt 0.062500 0.296875
vt 0.000031 0.781250
vt 0.031250 0.781250
vt 0.046875 0.625000
vt 0.031250 0.999969
vt 0.000031 0.999969
vt 0.000031 0.906250
vt 0.031250 0.906250
vt 0.000031 0.531250
vt 0.000031 0.500000
vt 0.000031 0.328125
vt 0.031250 0.328125
vt 0.062500 0.328125
vt 0.015625 0.531250
vt 0.046875 0.531250
vt 0.046875 0.859375
vt 0.015625 0.859375
vt 0.437500 0.687500
vt 0.500000 0.687500
vt 0.000031 0.875000
vt 0.031250 0.875000
vt 0.593750 0.765625
vt 0.562500 0.765625
vt 0.625000 0.875000
vt 0.593750 0.703125
vt 0.687500 0.703125
vt 0.812500 0.906250
vt 0.625000 0.999969
vt 0.812500 0.999969
vt 0.843750 0.671875
vt 0.687500 0.640625
vt 0.843750 0.640625
vt 0.875000 0.906250
vt 0.937500 0.703125
vt 0.937500 0.671875
vt 0.875000 0.937500
vt 0.968750 0.937500
vt 0.968750 0.843750
vt 1.000000 0.703125
vt 1.000000 0.843750
vt 0.437500 0.875000
vt 0.562500 0.812500
vt 0.562500 0.750000
vt 1.000000 0.062500
vt 1.000000 0.125000
vt 0.000031 0.468750
vt 0.375000 0.750000
vt 0.968750 0.125000
vt 0.968750 0.156250
vt 0.312500 0.937500
s 1
usemtl MI_Glowshrooms_001
f 183/1/1 181/2/1 207/3/1 205/4/1
f 227/5/3 225/6/3 224/7/3 226/8/3
f 257/9/3 208/10/3 210/11/3 214/12/3
f 319/13/12 316/14/12 315/15/12 317/16/12
f 151/17/6 148/18/6 149/19/6 150/20/6
f 119/20/3 117/19/3 118/21/3 116/22/3
f 312/23/12 313/24/12 314/25/12 310/26/12
f 39/27/5 37/28/5 38/29/5 36/30/5
f 226/8/3 224/7/3 164/31/3 166/32/3
f 55/33/3 53/34/3 54/35/3 52/36/3
f 325/37/9 321/22/9 323/21/9 324/38/9
f 212/39/3 213/40/3 211/41/3 208/42/3
f 143/20/3 141/17/3 142/18/3 140/19/3
f 127/37/3 125/22/3 126/21/3 124/38/3
f 234/43/3 9/44/3 231/45/3 233/46/3
f 155/46/3 154/43/3 153/47/3 12/48/3
f 107/37/6 104/38/6 105/49/6 106/50/6
f 174/51/1 173/52/1 171/53/1 172/54/1
f 167/31/3 165/32/3 166/8/3 164/7/3
f 207/3/1 206/55/1 203/56/1 205/4/1
f 242/20/8 240/19/8 241/21/8 239/22/8
f 211/41/3 209/11/3 210/10/3 208/42/3
f 177/57/1 174/51/1 175/58/1 176/59/1
f 172/54/1 171/53/1 170/60/1 6/61/1
f 230/62/3 2/63/2 228/64/3 186/65/3
f 83/66/7 82/67/7 80/28/7 81/27/7
f 318/68/12 317/16/12 315/15/12 303/69/12
f 174/51/1 172/54/1 14/70/1 175/58/1
f 67/71/6 65/72/6 66/73/6 64/74/6
f 4/75/1 2/6/2 3/7/1 1/76/1
f 63/77/4 61/66/4 62/67/4 60/78/4
f 169/79/3 167/31/3 164/7/3 168/76/3
f 238/2/1 237/3/1 235/80/1 16/81/1
f 59/82/4 58/83/4 56/84/4 57/85/4
f 158/86/3 159/87/3 156/56/3 157/55/3
f 111/17/3 109/18/3 110/19/3 108/20/3
f 320/19/13 323/21/9 321/22/9 322/20/13
f 299/88/12 302/89/12 298/90/12 297/91/12
f 47/30/5 45/29/5 46/92/5 44/93/5
f 255/94/1 177/95/1 253/96/1 200/48/1
f 135/17/9 133/18/9 134/19/9 132/20/9
f 103/37/8 101/38/8 102/49/8 100/50/8
f 87/97/4 84/98/4 85/67/4 86/66/4
f 197/62/1 195/46/1 196/43/1 194/99/1
f 201/65/1 197/62/1 199/48/1 200/96/1
f 99/27/3 97/100/3 98/101/3 96/28/3
f 183/102/1 182/103/1 180/104/1 181/105/1
f 157/106/3 156/107/3 217/86/3 219/108/3
f 18/109/1 5/110/1 17/81/1 16/80/1
f 131/22/8 128/21/8 129/38/8 130/37/8
f 250/21/6 248/38/6 245/37/6 249/22/6
f 71/111/3 69/112/3 70/113/3 68/114/3
f 233/46/3 231/45/3 185/115/3 232/116/3
f 181/105/1 180/104/1 1/117/1 179/118/1
f 259/39/3 260/119/3 213/120/3 212/40/3
f 139/37/9 137/38/9 138/49/9 136/50/9
f 193/46/3 191/62/3 190/65/3 192/116/3
f 79/85/4 78/84/4 76/98/4 77/97/4
f 223/75/3 221/110/3 220/109/3 222/76/3
f 95/121/6 93/122/6 94/123/6 92/124/6
f 6/61/1 170/60/1 3/110/1 7/109/1
f 191/62/3 187/48/3 189/96/3 190/65/3
f 15/54/1 14/53/1 8/60/1 13/61/1
f 35/97/6 33/125/6 34/126/6 32/98/6
f 123/50/8 120/49/8 121/127/8 122/128/8
f 308/129/12 307/130/12 306/131/12 304/132/12
f 2/63/2 226/8/3 166/32/3 228/64/3
f 91/125/5 88/126/5 89/67/5 90/66/5
f 248/38/6 246/49/6 247/50/6 245/37/6
f 225/6/3 223/75/3 222/76/3 224/7/3
f 199/48/1 197/62/1 194/99/1 198/47/1
f 8/61/1 6/60/1 7/110/1 5/109/1
f 217/133/3 216/1/3 214/4/3 215/134/3
f 244/17/8 243/18/8 240/19/8 242/20/8
f 179/118/1 1/117/1 3/75/1 178/76/1
f 75/33/3 74/36/3 72/113/3 73/112/3
f 229/135/3 227/5/3 226/8/3 2/63/2
f 43/34/3 41/136/3 42/137/3 40/35/3
f 12/44/3 10/99/3 11/65/3 9/115/3
f 231/45/3 230/62/3 186/65/3 185/115/3
f 10/94/3 12/48/3 153/47/3 152/138/3
f 15/135/1 13/5/1 268/8/1 267/63/1
f 27/85/5 26/84/5 24/126/5 25/125/5
f 189/96/3 187/48/3 184/94/3 188/95/3
f 219/81/3 217/133/3 215/134/3 218/80/3
f 31/71/6 29/74/6 30/122/6 28/121/6
f 11/99/3 229/135/3 2/63/2 230/62/3
f 205/4/1 203/56/1 204/139/1 202/140/1
f 160/107/3 161/141/3 159/87/3 158/86/3
f 265/142/3 266/143/3 263/144/3 261/145/3
f 17/146/1 5/147/1 2/109/2 19/80/1
f 272/148/1 269/149/1 267/63/1 271/64/1
f 270/150/1 15/135/1 267/63/1 269/149/1
f 147/37/3 145/38/3 146/49/3 144/50/3
f 219/108/3 221/151/3 256/152/3 157/106/3
f 187/48/3 185/47/3 186/138/3 184/94/3
f 162/153/3 163/154/3 159/87/3 161/141/3
f 23/77/4 21/78/4 22/35/4 20/34/4
f 297/91/12 298/90/12 295/155/12 296/156/12
f 16/81/1 235/80/1 236/109/1 18/110/1
f 261/145/3 263/144/3 264/157/3 262/158/3
f 262/157/3 213/120/3 260/119/3 261/158/3
f 277/159/10 275/68/10 276/160/10
f 275/68/10 277/159/10 278/161/10
f 280/162/11 279/163/10 277/159/10
f 277/159/10 279/163/10 278/161/10
f 281/164/10 278/161/10 279/163/10
f 278/161/10 281/164/10 282/165/10
f 283/166/10 282/165/10 281/164/10
f 281/164/10 279/163/10 284/167/10
f 279/163/10 285/168/10 284/167/10
f 286/169/10 284/167/10 285/168/10
f 287/170/10 281/164/10 284/167/10
f 289/171/10 284/167/10 288/172/10
f 284/167/10 289/171/10 287/170/10
f 291/173/11 287/170/10 290/174/10
f 292/175/10 290/174/10 287/170/10
f 292/175/10 287/170/10 289/171/10
f 289/171/10 293/176/11 292/175/10
f 294/177/11 292/175/10 293/176/11
f 311/178/12 308/129/12 304/132/12 302/89/12
f 301/179/12 299/88/12 297/91/12 300/180/12
f 216/56/3 258/4/3 257/9/3 214/12/3
f 51/181/6 49/182/6 50/73/6 48/72/6
f 8/183/1 14/70/1 172/54/1 6/61/1
f 274/46/1 269/149/1 272/148/1 273/116/1
f 302/89/12 304/132/12 305/184/12 298/90/12
f 200/48/1 253/96/1 254/65/1 201/62/1
f 9/44/3 11/99/3 230/62/3 231/45/3
f 316/14/12 313/24/12 312/23/12 315/15/12
f 312/23/12 310/26/12 308/129/12 311/178/12
f 252/20/6 251/19/6 250/21/6 249/22/6
f 311/178/12 302/89/12 299/88/12 303/69/12
f 115/17/9 113/185/9 114/186/9 112/18/9
f 315/15/12 312/23/12 311/178/12 303/69/12
f 221/110/3 219/81/3 218/80/3 220/109/3
f 310/26/12 309/187/12 307/130/12 308/129/12
