# Blender 5.0.1
# www.blender.org
mtllib BP_Gate_Ice_x5.mtl
o SK_Gate_Ice_x5.001
v -127.500000 12.661158 0.420853
v -108.750000 12.661204 327.746277
v -108.750000 12.661158 0.420853
v -127.500000 12.661158 0.420837
v -127.500000 12.661204 327.746246
v -165.000000 12.499952 0.420853
v -146.250000 12.499999 327.746277
v -146.250000 12.499952 0.420853
v -165.000000 12.499952 0.420837
v -165.000000 12.499999 327.746246
v 6.875000 -0.320532 327.746246
v 25.625000 -0.320532 327.746216
v 25.625000 12.340676 327.746246
v 6.875000 12.340676 327.746216
v 6.875000 12.340630 0.420837
v 25.625000 12.340630 0.420837
v 25.625000 -0.320579 0.420853
v 6.875000 -0.320532 327.746216
v 6.875000 -0.320579 0.420853
v -165.000000 -0.076056 327.746277
v -146.250000 -0.076056 327.746246
v -165.000000 -0.076056 327.746277
v -127.500000 -0.320532 327.746277
v -108.750000 -0.320532 327.746246
v -199.375000 -0.000054 0.420853
v -199.375000 -0.000000 327.746246
v -199.375000 12.820528 327.746246
v -199.375000 12.820475 0.420837
v -233.750000 -0.000000 327.746246
v -215.000000 -0.000000 327.746246
v -215.000000 12.820528 327.746246
v -233.750000 12.820528 327.746246
v 41.250015 -0.320531 327.746246
v 60.000000 -0.320531 327.746246
v 60.000000 12.500000 327.746246
v 41.250015 12.500000 327.746246
v 106.875000 -0.320531 327.746246
v 125.625000 -0.320531 327.746246
v 125.625000 12.820528 327.746246
v 106.875000 12.820528 327.746246
v 206.875000 -0.000000 327.746246
v 225.625000 -0.000000 327.746246
v 225.625000 12.500000 327.746246
v 206.875000 12.500000 327.746246
v 91.250000 12.499995 327.746216
v 72.500000 12.499995 327.746216
v 72.500000 -0.320532 327.746216
v 91.250000 -0.320532 327.746216
v 91.250000 12.499997 327.746216
v 91.250000 12.499960 0.420853
v 72.500000 12.499997 327.746216
v 72.500000 12.499960 0.420853
v 91.250000 -0.320569 0.420853
v 160.000000 12.499999 327.746216
v 141.250000 12.499999 327.746216
v 141.250000 -0.320534 327.746216
v 160.000000 -0.320534 327.746216
v 160.000000 12.499997 327.746216
v 160.000000 12.499960 0.420853
v 141.250000 12.499997 327.746216
v 141.250000 12.499960 0.420853
v 160.000000 -0.320571 0.420853
v 191.250000 12.499999 327.746216
v 172.500000 12.499999 327.746216
v 172.500000 0.346441 327.746216
v 191.250000 0.346441 327.746216
v 191.250000 12.499997 327.746216
v 191.250000 12.499962 0.420853
v 172.500000 12.499997 327.746216
v 172.500000 12.499962 0.420853
v 191.250000 0.346442 327.746216
v 191.250000 0.346405 0.420853
v -127.500000 12.661158 0.420853
v -127.500000 -0.320580 0.420853
v -127.500000 -0.320533 327.746246
v -127.500000 12.661204 327.746277
v -165.000000 12.499952 0.420853
v -165.000000 -0.076103 0.420853
v -165.000000 -0.076056 327.746246
v -165.000000 12.499999 327.746277
v 25.625000 12.340630 0.420853
v 25.625000 -0.320533 327.746216
v 6.875000 12.340630 0.420853
v 6.875000 -0.320533 327.746216
v 6.875000 12.340676 327.746246
v -199.375000 -0.000000 327.746246
v -180.625000 -0.000000 327.746246
v -180.625000 12.820528 327.746246
v -199.375000 12.820528 327.746246
v -146.250000 -0.076056 327.746246
v -146.250000 -0.076103 0.420853
v -146.250000 -0.076103 0.420853
v -165.000000 -0.076056 327.746246
v -165.000000 -0.076103 0.420853
v -108.750000 -0.320533 327.746246
v -108.750000 -0.320580 0.420853
v -93.125000 12.589645 327.746246
v -93.125000 -0.230919 0.420853
v -93.125000 -0.230883 327.746246
v -93.125000 12.589609 0.420853
v -74.375000 12.589645 327.746246
v -93.125000 -0.230883 327.746246
v -74.375000 -0.230883 327.746246
v -74.375000 12.589643 327.746246
v -74.375000 12.589609 0.420853
v -93.125000 12.589643 327.746246
v -74.375000 -0.230883 327.746246
v -74.375000 -0.230919 0.420853
v -93.125000 -0.230919 0.420853
v -58.750000 -0.000000 327.746246
v -40.000000 -0.000000 327.746246
v -40.000000 12.500000 327.746246
v -58.750000 12.500000 327.746246
v -27.500000 -0.000000 327.746246
v -8.750000 -0.000000 327.746246
v -8.750000 12.500000 327.746246
v -27.500000 12.500000 327.746246
v 125.625000 -0.320584 0.420853
v 125.625000 -0.320531 327.746246
v 106.875000 -0.320531 327.746246
v 106.875000 -0.320584 0.420853
v 106.875000 -0.320584 0.420853
v 106.875000 -0.320531 327.746246
v 106.875000 12.820528 327.746246
v 106.875000 12.820475 0.420837
v 125.625000 -0.320532 327.746246
v 125.625000 12.820475 0.420837
v 125.625000 12.820528 327.746246
v 125.625000 12.820475 0.420837
v -180.625000 -0.000054 0.420853
v -180.625000 -0.000000 327.746246
v -199.375000 -0.000000 327.746246
v -199.375000 -0.000054 0.420853
v -180.625000 -0.000001 327.746246
v -180.625000 12.820475 0.420837
v -180.625000 12.820528 327.746246
v -180.625000 12.820475 0.420837
v -233.750000 -0.000054 0.420853
v -233.750000 12.820475 0.420837
v -233.750000 -0.000000 327.746246
v -233.750000 -0.000054 0.420853
v -215.000000 -0.000054 0.420853
v -215.000000 -0.000000 327.746246
v -215.000000 -0.000054 0.420853
v -215.000000 12.820475 0.420837
v -233.750000 12.820475 0.420837
v -215.000000 12.820528 327.746246
v -215.000000 12.820475 0.420837
v -233.750000 12.820528 327.746246
v 41.249985 -0.320584 0.420853
v 41.249985 12.500000 327.746246
v 41.249985 12.499947 0.420837
v 41.249985 -0.320531 327.746246
v 41.249985 -0.320531 327.746246
v 41.249985 -0.320584 0.420853
v 59.999969 -0.320584 0.420853
v 59.999969 -0.320531 327.746246
v 59.999969 -0.320531 327.746246
v 59.999969 -0.320584 0.420853
v 59.999969 12.499947 0.420837
v 59.999969 12.500000 327.746246
v 41.249985 12.499947 0.420837
v 59.999969 12.500000 327.746246
v 59.999969 12.499947 0.420837
v 41.249985 12.500000 327.746246
v 206.875000 -0.000054 0.420853
v 206.875000 12.499947 0.420837
v 206.875000 -0.000000 327.746246
v 206.875000 -0.000054 0.420853
v 225.625000 -0.000054 0.420853
v 225.625000 -0.000000 327.746246
v 225.625000 -0.000054 0.420853
v 225.625000 12.499947 0.420837
v 206.875000 12.499947 0.420837
v 225.625000 12.500000 327.746246
v 225.625000 12.499947 0.420837
v 206.875000 12.500000 327.746246
v -58.750000 -0.000054 0.420853
v -58.750000 12.499947 0.420837
v -58.750000 -0.000000 327.746246
v -58.750000 -0.000054 0.420853
v -40.000000 -0.000054 0.420853
v -40.000000 -0.000000 327.746246
v -40.000000 -0.000054 0.420853
v -40.000000 12.499947 0.420837
v -58.750000 12.499947 0.420837
v -40.000000 12.500000 327.746246
v -40.000000 12.499947 0.420837
v -58.750000 12.500000 327.746246
v -27.500000 -0.000054 0.420853
v -27.500000 12.499947 0.420837
v -27.500000 -0.000000 327.746246
v -27.500000 -0.000054 0.420853
v -8.750000 -0.000054 0.420853
v -8.750000 -0.000000 327.746246
v -8.750000 -0.000054 0.420853
v -8.750000 12.499947 0.420837
v -27.500000 12.499947 0.420837
v -8.750000 12.500000 327.746246
v -8.750000 12.499947 0.420837
v -27.500000 12.500000 327.746246
v 72.500000 -0.320569 0.420853
v 72.500000 -0.320532 327.746216
v 72.500000 -0.320569 0.420853
v 91.250000 -0.320532 327.746216
v 91.250000 -0.320569 0.420853
v 141.250000 -0.320571 0.420853
v 141.250000 -0.320535 327.746216
v 141.250000 -0.320535 327.746216
v 141.250000 -0.320571 0.420853
v 160.000000 -0.320534 327.746216
v 160.000000 -0.320571 0.420853
v 172.500000 0.346405 0.420853
v 172.500000 0.346441 327.746216
v 172.500000 0.346405 0.420853
v 191.250000 0.346441 327.746216
v 191.250000 0.346405 0.420853
v 241.250000 -0.000000 327.746246
v 260.000000 -0.000000 327.746246
v 260.000000 12.820528 327.746246
v 241.250000 12.820528 327.746246
v 241.250000 -0.000053 0.420853
v 241.250000 12.820475 0.420837
v 241.250000 -0.000000 327.746246
v 241.250000 -0.000053 0.420853
v 260.000000 -0.000053 0.420853
v 260.000000 -0.000000 327.746246
v 260.000000 -0.000053 0.420853
v 260.000000 12.820475 0.420837
v 241.250000 12.820475 0.420837
v 260.000000 12.820528 327.746246
v 260.000000 12.820475 0.420837
v 241.250000 12.820528 327.746246
vn -0.0000 1.0000 -0.0000
vn 0.5773 0.5774 0.5773
vn 0.7071 0.7071 -0.0000
vn -0.0000 0.7071 0.7071
vn 0.5773 0.5774 0.5774
vn -0.0000 -0.0000 1.0000
vn -0.0000 -0.7071 0.7071
vn 0.7071 -0.7071 -0.0000
vn -0.0000 -1.0000 -0.0000
vn -0.7071 -0.7071 -0.0000
vn -1.0000 -0.0000 -0.0000
vn -0.7071 0.7071 -0.0000
vn -0.7071 -0.0000 0.7071
vn 0.7071 -0.0000 0.7071
vn 1.0000 -0.0000 -0.0000
vt 0.187500 0.999969
vt 0.093750 0.999969
vt 0.182983 0.003906
vt 0.093689 0.003906
vt 0.178589 0.003906
vt 0.591309 0.093750
vt 0.500000 0.093750
vt 0.500000 0.000000
vt 0.591309 0.000000
vt 0.590820 0.000000
vt 0.995117 0.094238
vt 0.907715 0.094238
vt 0.907715 0.004883
vt 0.995117 0.004883
vt 0.910645 0.003418
vt 0.993652 0.003418
vt 0.999023 0.999029
vt 0.906250 0.999205
vt 0.996094 0.096680
vt 0.909180 0.096680
vt 0.909180 0.002930
vt 0.996094 0.002930
vt 0.915527 0.002930
vt 0.814453 0.998383
vt 0.822754 0.002930
vt 0.218628 0.000488
vt 0.312256 0.000488
vt 0.312500 0.999969
vt 0.218750 0.999969
vt 0.370605 1.000797
vt 0.370605 0.002441
vt 0.437256 0.001465
vt 0.437500 0.999969
vt 0.312256 0.001465
vt 0.218628 0.999969
vt 0.218750 0.003906
vt 0.495361 0.001465
vt 0.495605 0.999969
vt 0.156128 0.999969
vt 0.156250 0.000488
vt 0.249878 0.000488
vt 0.250000 0.999969
vt 0.814453 0.996517
vt 0.816895 0.005371
vt 0.908203 0.006348
vt 0.902832 0.996521
vt 0.900391 0.996521
vt 0.819824 0.996517
vt 0.818848 0.005371
vt 0.911621 0.005371
vt 0.370850 0.001465
vt 0.993164 0.003418
vt 0.031235 0.000488
vt 0.124939 0.000488
vt 0.125000 0.999969
vt 0.031250 0.999969
vt 0.499512 0.000000
vt 0.437256 0.000488
vt 0.218628 0.001465
vt 0.281006 0.001465
vt 0.281006 0.999969
vt 0.370605 0.000977
vt 0.370850 1.000797
vt 0.281006 0.000000
vt 0.281250 0.999969
vt 0.942383 0.005371
vt 0.967773 0.998955
vt 0.495361 0.000000
vt 0.946289 0.002930
vt 0.813965 0.003418
vt 0.902344 0.003418
vt 0.902344 0.094238
vt 0.814453 0.093750
vt 0.187378 0.000488
vt 0.218750 0.000488
vt 0.093689 0.000488
vt 0.815918 0.996517
vt 0.904297 0.996521
vt 0.902344 0.999205
vt 0.826660 0.999202
vt 0.992676 0.004395
vt 0.910156 0.004395
s 1
usemtl MI_Gate_Ice
f 3/1/3 1/2/1 2/3/2
f 5/4/4 2/5/2 4/2/1
f 8/1/3 6/2/1 7/3/5
f 10/4/4 7/5/5 9/2/1
f 7/4/5 90/5/15 91/1/15 8/2/3
f 117/6/13 114/7/13 115/8/14 116/9/14
f 7/10/5 20/7/6 21/8/7
f 10/6/4 22/7/6 7/9/5
f 14/11/4 11/12/6 12/13/7 13/14/5
f 14/15/4 13/16/5 16/17/1 15/18/1
f 89/19/6 86/20/6 87/21/6 88/22/14
f 120/23/9 121/18/9 118/24/8 119/25/9
f 201/26/1 199/27/1 200/28/1 198/29/1
f 132/23/9 133/18/9 130/24/8 131/25/9
f 206/30/9 205/31/9 203/32/9 204/33/9
f 75/34/10 74/28/10 96/35/8 95/36/8
f 65/32/13 64/37/13 70/38/12 213/33/11
f 156/39/9 157/40/9 154/41/9 155/42/9
f 108/43/8 107/44/8 99/45/10 109/46/9
f 100/47/12 98/48/11 99/44/10 97/45/13
f 27/49/12 136/50/1 137/18/1 28/24/12
f 212/30/9 211/31/9 209/32/9 210/33/9
f 220/27/14 219/51/14 228/30/15 229/28/15
f 79/5/11 80/4/11 77/2/11 78/1/11
f 5/6/4 23/7/6 24/8/6 2/9/2
f 2/4/2 95/5/8 96/1/8 3/2/3
f 13/15/5 82/52/15 17/17/8 81/18/15
f 165/53/1 163/54/1 164/55/1 162/56/1
f 84/52/11 85/15/11 83/18/11 19/17/10
f 182/39/9 183/40/9 180/41/9 181/42/9
f 75/5/10 76/4/11 73/2/11 74/1/10
f 189/53/1 187/54/1 188/55/1 186/56/1
f 48/31/14 53/30/15 50/28/3 49/34/3
f 32/6/13 29/7/13 30/8/14 31/9/14
f 149/26/1 147/27/1 148/28/1 146/29/1
f 57/31/14 62/30/15 59/28/3 58/34/3
f 48/57/14 45/10/6 46/6/13 47/7/13
f 142/30/9 143/51/9 140/58/9 141/33/9
f 113/6/13 110/7/13 111/8/14 112/9/14
f 61/29/12 60/59/12 58/60/3 59/61/3
f 166/28/11 41/27/13 44/62/13 167/63/11
f 178/42/11 110/41/13 113/64/13 179/65/11
f 66/57/6 63/10/14 64/6/13 65/7/13
f 40/19/6 37/20/6 38/21/6 39/22/14
f 31/27/14 30/51/14 144/30/15 145/28/15
f 44/6/13 41/7/13 42/8/14 43/9/14
f 39/50/14 126/66/15 118/67/8 127/18/15
f 124/49/12 128/50/1 129/18/1 125/24/12
f 138/33/11 29/58/13 32/68/13 139/38/11
f 217/30/9 216/31/9 214/32/9 215/33/9
f 28/67/12 25/18/11 26/23/11 27/69/12
f 194/30/9 195/51/9 192/58/9 193/33/9
f 150/42/11 153/41/11 151/64/11 152/65/11
f 57/57/14 54/10/6 55/6/6 56/7/6
f 88/50/14 134/66/15 130/67/8 135/18/15
f 103/70/6 101/71/14 97/72/13 102/73/6
f 116/27/14 115/51/14 196/30/15 197/28/15
f 52/29/12 51/59/1 49/60/3 50/61/3
f 161/54/15 158/40/15 159/39/15 160/55/15
f 47/32/13 46/37/13 52/38/12 202/33/11
f 125/67/12 122/18/11 123/23/11 124/69/12
f 93/34/9 94/28/9 92/35/9 21/36/7
f 43/74/14 42/75/14 172/35/15 173/1/15
f 177/76/1 175/74/1 176/1/1 174/2/1
f 112/54/14 111/40/14 184/39/15 185/55/15
f 170/35/9 171/75/9 168/27/9 169/28/9
f 208/32/11 60/37/12 61/38/12 207/33/11
f 100/77/12 106/44/1 104/45/1 105/78/3
f 107/45/8 108/79/8 105/80/3 101/44/14
f 36/6/6 33/7/6 34/8/6 35/9/6
f 71/31/15 72/30/15 68/28/3 63/34/14
f 18/81/9 19/17/10 17/18/8 12/82/7
f 70/29/12 69/59/1 67/60/1 68/61/3
f 190/33/11 114/58/13 117/68/13 191/38/11
f 221/6/13 218/7/13 219/8/14 220/9/14
f 222/33/11 218/58/13 221/68/13 223/38/11
f 226/30/9 227/51/9 224/58/9 225/33/9
f 233/26/1 231/27/1 232/28/1 230/29/1
