# Blender 5.0.1
# www.blender.org
mtllib BP_GS_Larntern_Cube_S2.mtl
o SM_GS_Larntern_Cube.001
v -50.000000 -50.000000 100.000000
v -50.000000 -50.000000 0.000000
v 50.000000 -50.000000 100.000000
v 50.000000 -50.000000 0.000000
v -50.000000 50.000000 100.000000
v -50.000000 -50.000000 100.000000
v 50.000000 50.000000 100.000000
v 50.000000 -50.000000 100.000000
v -50.000000 50.000000 100.000000
v 50.000000 50.000000 100.000000
v 50.000000 50.000000 0.000000
v -50.000000 50.000000 0.000000
v -50.000000 -50.000000 0.000000
v -50.000000 50.000000 0.000000
v 50.000000 -50.000000 0.000000
v 50.000000 50.000000 0.000000
v 50.000000 50.000000 100.000000
v 50.000000 -50.000000 100.000000
v 50.000000 -50.000000 0.000000
v 50.000000 50.000000 0.000000
v -50.000000 50.000000 100.000000
v -50.000000 -50.000000 0.000000
v -50.000000 -50.000000 100.000000
v -50.000000 50.000000 0.000000
vn -0.0000 -1.0000 -0.0000
vn -0.0000 -0.0000 1.0000
vn -0.0000 1.0000 -0.0000
vn -0.0000 -0.0000 -1.0000
vn 1.0000 -0.0000 -0.0000
vn -1.0000 -0.0000 -0.0000
vt 0.125000 0.000000
vt 0.125000 0.125000
vt 0.000031 0.125000
vt 0.000031 0.000000
vt 0.250000 0.000000
vt 0.250000 0.125000
s 1
usemtl MI_GaleSanctum_Props
f 20/1/5 17/2/5 18/3/5 19/4/5
f 12/1/3 9/2/3 10/3/3 11/4/3
f 4/1/1 3/2/1 1/3/1 2/4/1
f 16/5/4 15/6/4 13/2/4 14/1/4
f 8/5/2 7/6/2 5/2/2 6/1/2
f 24/4/6 22/1/6 23/2/6 21/3/6
