# Blender 5.0.1
# www.blender.org
mtllib BP_GrandPiano.mtl
o SM_GrandPiano.001
v 87.500000 31.475367 100.000000
v 87.500000 31.475370 -0.000365
v 112.500000 31.475367 100.000000
v 112.500000 31.475370 -0.000365
v 87.500000 56.475368 -0.000364
v 87.500000 56.475365 100.000000
v 112.500000 56.475368 -0.000364
v 112.500000 56.475365 100.000000
v 112.500000 31.475370 -0.000365
v 87.500000 31.475370 -0.000365
v 87.500000 56.475368 -0.000364
v 112.500000 56.475368 -0.000364
v 112.500000 56.475368 -0.000364
v 112.500000 56.475365 100.000000
v 112.500000 31.475370 -0.000365
v 112.500000 31.475367 100.000000
v 87.500000 31.475367 100.000000
v 87.500000 56.475368 -0.000364
v 87.500000 31.475370 -0.000365
v 87.500000 56.475365 100.000000
v -100.000000 106.475365 100.000008
v -100.000000 106.475372 -0.000361
v -75.000000 106.475365 100.000008
v -75.000000 106.475372 -0.000361
v -100.000000 131.475372 -0.000360
v -100.000000 131.475372 100.000008
v -75.000000 131.475372 -0.000360
v -75.000000 131.475372 100.000008
v -75.000000 106.475372 -0.000361
v -100.000000 106.475372 -0.000361
v -100.000000 131.475372 -0.000360
v -75.000000 131.475372 -0.000360
v -75.000000 131.475372 -0.000360
v -75.000000 131.475372 100.000008
v -75.000000 106.475372 -0.000361
v -75.000000 106.475365 100.000008
v -100.000000 106.475365 100.000008
v -100.000000 131.475372 -0.000360
v -100.000000 106.475372 -0.000361
v -100.000000 131.475372 100.000008
v -100.000000 -118.524635 99.999992
v -100.000000 -118.524628 -0.000371
v -75.000000 -118.524635 99.999992
v -75.000000 -118.524628 -0.000371
v -100.000000 -93.524628 -0.000370
v -100.000000 -93.524635 99.999992
v -75.000000 -93.524628 -0.000370
v -75.000000 -93.524635 99.999992
v -75.000000 -118.524628 -0.000371
v -100.000000 -118.524628 -0.000371
v -100.000000 -93.524628 -0.000370
v -75.000000 -93.524628 -0.000370
v -75.000000 -93.524628 -0.000370
v -75.000000 -93.524635 99.999992
v -75.000000 -118.524628 -0.000371
v -75.000000 -118.524635 99.999992
v -100.000000 -118.524635 99.999992
v -100.000000 -93.524628 -0.000370
v -100.000000 -118.524628 -0.000371
v -100.000000 -93.524635 99.999992
v 150.000000 -68.524635 100.000000
v 150.000000 156.475372 100.000008
v 150.000000 -68.524635 150.000000
v 150.000000 156.475372 150.000000
v 150.000000 -68.524635 200.000000
v 150.000000 156.475357 200.000000
v 150.000000 -68.524635 200.000000
v -0.000004 -68.524635 200.000000
v -0.000004 -68.524635 150.000000
v 150.000000 -68.524635 150.000000
v -0.000004 -68.524635 100.000000
v 150.000000 -68.524635 100.000000
v -100.000000 -143.524628 150.000000
v -100.000000 -143.524643 200.000000
v -100.000000 -68.524635 200.000000
v -100.000000 -68.524628 150.000000
v -100.000000 156.475357 200.000000
v -100.000000 156.475372 150.000000
v -0.000004 156.475357 200.000000
v 150.000000 -68.524635 200.000000
v 150.000000 156.475357 200.000000
v -0.000004 -68.524635 200.000000
v -100.000000 156.475357 200.000000
v -100.000000 -68.524635 200.000000
v -100.000000 -143.524643 200.000000
v -0.000004 -143.524643 200.000000
v 150.000000 -68.524635 100.000000
v -0.000004 156.475372 100.000008
v 150.000000 156.475372 100.000008
v -0.000004 -68.524635 100.000000
v -100.000000 156.475372 100.000008
v -100.000000 -68.524635 100.000000
v -150.000000 156.475372 100.000008
v -150.000000 -68.524635 100.000000
v -100.000000 -143.524628 99.999992
v -0.000004 -143.524628 99.999992
v -150.000000 -143.524628 99.999992
v -100.000000 -143.524628 150.000000
v -150.000000 -68.524635 150.000000
v -150.000000 -143.524628 150.000000
v -100.000000 -68.524628 150.000000
v -150.000000 156.475372 150.000000
v -100.000000 156.475372 150.000000
v -0.000006 -143.524628 150.000000
v -0.000004 -68.524635 200.000000
v -0.000004 -143.524643 200.000000
v -0.000004 -68.524635 150.000000
v -0.000004 -143.524628 99.999992
v -0.000004 -68.524635 100.000000
v -100.000000 -143.524628 150.000000
v -150.000000 -143.524628 150.000000
v -150.000000 -143.524628 99.999992
v -100.000000 -143.524628 99.999992
v -0.000006 -143.524628 150.000000
v -0.000004 -143.524628 99.999992
v -100.000000 -143.524643 200.000000
v -0.000004 -143.524643 200.000000
v -150.000000 156.475372 100.000008
v -150.000000 -68.524635 150.000000
v -150.000000 156.475372 150.000000
v -150.000000 -68.524635 100.000000
v -150.000000 -143.524628 99.999992
v -150.000000 -143.524628 150.000000
v -100.000000 156.475372 100.000008
v -150.000000 156.475372 100.000008
v -150.000000 156.475372 150.000000
v -100.000000 156.475372 150.000000
v -0.000008 156.475372 150.000000
v -100.000000 156.475357 200.000000
v -0.000004 156.475372 100.000008
v -0.000004 156.475357 200.000000
v 150.000000 156.475372 150.000000
v 150.000000 156.475372 100.000008
v 150.000000 156.475357 200.000000
vn -0.0000 -1.0000 -0.0000
vn -0.0000 1.0000 -0.0000
vn -0.0000 -0.0000 -1.0000
vn 1.0000 -0.0000 -0.0000
vn -1.0000 -0.0000 -0.0000
vn -0.0000 -0.0000 1.0000
vt 0.799805 0.100098
vt 1.000000 0.100098
vt 1.000000 0.150391
vt 0.799805 0.150391
vt 0.799805 0.050293
vt 0.799805 0.000000
vt 1.000000 0.000000
vt 1.000000 0.050293
vt 1.000000 0.650146
vt 0.899902 0.650146
vt 0.899902 0.200195
vt 1.000000 0.200195
vt 0.500000 0.650146
vt 0.199951 0.650146
vt 0.199951 0.200195
vt 0.500000 0.200195
vt 0.699707 0.650146
vt 0.699707 0.200195
vt 0.349854 0.900024
vt 0.349854 0.800049
vt 0.500000 0.800049
vt 0.500000 0.900024
vt 0.699707 0.100098
vt 0.699707 0.000000
vt 0.799805 0.200195
vt 0.750000 0.200195
vt 0.750000 0.150391
vt 0.750000 0.100098
vt 0.049988 0.900024
vt 0.049988 0.800049
vt 0.099976 0.200195
vt 0.099976 0.650146
vt 0.000031 0.650146
vt 0.000031 0.200195
vt 0.500000 0.100098
vt 0.500000 0.999969
vt 0.699707 0.900024
vt 0.699707 0.999969
vt 0.799805 0.650146
vt 0.799805 0.800049
vt 0.699707 0.800049
vt 0.899902 0.800049
vt 0.349854 0.999969
vt 0.799805 0.900024
vt 0.799805 0.999969
vt 0.199951 0.100098
vt 0.199951 0.000000
vt 0.500000 0.000000
vt 0.049988 0.999969
vt 1.000000 0.800049
s 1
usemtl WorldGridMaterial
f 40/1/5 38/2/5 39/3/5 37/4/5
f 34/5/4 36/6/4 35/7/4 33/8/4
f 121/9/5 119/10/5 120/11/5 118/12/5
f 82/13/6 80/14/6 81/15/6 79/16/6
f 84/17/6 82/13/6 79/16/6 83/18/6
f 44/3/1 43/4/1 41/1/1 42/2/1
f 107/19/4 105/20/4 106/21/4 104/22/4
f 127/23/2 124/24/2 125/6/2 126/1/2
f 32/4/3 29/25/3 30/26/3 31/27/3
f 52/1/3 49/4/3 50/27/3 51/28/3
f 8/5/2 7/8/2 5/2/2 6/1/2
f 90/13/3 92/17/3 91/18/3 88/16/3
f 20/1/5 18/2/5 19/3/5 17/4/5
f 70/29/1 67/30/1 68/20/1 69/19/1
f 64/31/4 63/32/4 61/33/4 62/34/4
f 14/5/4 16/6/4 15/7/4 13/8/4
f 4/12/1 3/25/1 1/4/1 2/3/1
f 131/16/2 128/35/2 127/23/2 129/18/2
f 115/36/1 114/22/1 110/37/1 113/38/1
f 78/25/5 76/39/5 75/17/5 77/18/5
f 103/25/6 102/11/6 99/10/6 101/39/6
f 28/5/2 27/8/2 25/2/2 26/1/2
f 24/12/1 23/25/1 21/4/1 22/3/1
f 54/25/4 56/4/4 55/3/4 53/12/4
f 76/39/5 73/40/5 74/41/5 75/17/5
f 85/41/6 86/21/6 82/13/6 84/17/6
f 90/13/3 88/16/3 89/15/3 87/14/3
f 92/17/3 94/39/3 93/25/3 91/18/3
f 114/22/1 117/21/1 116/41/1 110/37/1
f 101/39/6 99/10/6 100/42/6 98/40/6
f 66/15/4 65/14/4 63/32/4 64/31/4
f 48/6/2 47/7/2 45/8/2 46/5/2
f 60/5/5 58/8/5 59/2/5 57/1/5
f 95/41/3 97/40/3 94/39/3 92/17/3
f 109/43/4 107/19/4 104/22/4 108/36/4
f 113/38/1 110/37/1 111/44/1 112/45/1
f 132/46/2 133/47/2 130/48/2 128/35/2
f 72/49/1 70/29/1 69/19/1 71/43/1
f 90/13/3 96/21/3 95/41/3 92/17/3
f 128/35/2 130/48/2 124/24/2 127/23/2
f 12/4/3 9/25/3 10/26/3 11/27/3
f 122/50/5 123/42/5 119/10/5 121/9/5
f 134/15/2 132/46/2 128/35/2 131/16/2
