# Blender 5.0.1
# www.blender.org
mtllib BP_GoldChest_Rare.mtl
o SM_Chest_Piglin_Rare.001
v -87.500000 43.749992 -0.000007
v 87.500000 43.749992 -0.000007
v -87.500000 -43.749992 0.000007
v 87.500000 -43.749992 0.000007
v -87.500000 -43.749981 62.500015
v 87.500000 -43.749992 0.000007
v 87.500000 -43.749981 62.500015
v -87.500000 -43.749992 0.000007
v 87.500000 43.750004 62.499992
v 87.500000 -43.749992 0.000007
v 87.500000 43.749992 -0.000007
v 87.500000 -43.749981 62.500015
v 87.500000 43.750004 62.499992
v -87.500000 43.749992 -0.000007
v -87.500000 43.750004 62.499992
v 87.500000 43.749992 -0.000007
v -87.500000 43.750004 62.499992
v -87.500000 -43.749992 0.000007
v -87.500000 -43.749981 62.500015
v -87.500000 43.749992 -0.000007
v 75.000000 31.249998 62.499996
v 75.000000 -31.250006 12.500012
v 75.000000 -31.249998 62.500015
v 75.000000 31.249990 12.499991
v -75.000000 -31.249996 62.500015
v -75.000000 -31.250004 12.500012
v -75.000000 31.250000 62.499996
v -75.000000 31.249992 12.499991
v 75.000000 -31.250006 12.500012
v -75.000000 -31.249996 62.500015
v 75.000000 -31.249998 62.500015
v -75.000000 -31.250004 12.500012
v -75.000000 31.249992 12.499991
v 75.000000 31.249998 62.499996
v -75.000000 31.250000 62.499996
v 75.000000 31.249990 12.499991
v -75.000000 -31.250004 12.500012
v 75.000000 31.249990 12.499991
v -75.000000 31.249992 12.499991
v 75.000000 -31.250006 12.500012
v 99.999954 -9.451540 4.525844
v 87.499969 9.451532 4.525843
v 99.999954 9.451540 4.525836
v 87.499969 -9.451543 4.525848
v 87.499969 9.451532 4.525843
v 87.499969 9.451534 28.184649
v 99.999962 9.451544 28.184645
v 99.999954 9.451540 4.525836
v 99.999962 -9.451532 28.184650
v 87.499969 -9.451543 4.525848
v 99.999954 -9.451540 4.525844
v 87.499969 -9.451540 28.184656
v 99.999962 9.451554 70.428177
v 87.499969 9.451535 46.751801
v 87.499969 9.451547 70.428192
v 99.999962 9.451549 46.751797
v 99.999962 9.451554 70.428177
v 87.499969 9.451547 70.428192
v 99.999969 -9.451526 70.428185
v 87.499977 -9.451529 70.428192
v 99.999969 -9.451526 70.428185
v 87.499977 -9.451535 46.751801
v 99.999962 -9.451529 46.751797
v 87.499977 -9.451529 70.428192
v 87.499969 32.998657 46.751789
v 99.999954 32.998661 28.184639
v 87.499969 32.998653 28.184637
v 99.999954 32.998665 46.751793
v 87.499969 32.998657 46.751789
v 99.999962 9.451549 46.751797
v 99.999954 32.998665 46.751793
v 87.499969 9.451535 46.751801
v 99.999962 9.451544 28.184645
v 87.499969 32.998653 28.184637
v 99.999954 32.998661 28.184639
v 87.499969 9.451534 28.184649
v 99.999969 -32.753838 46.751804
v 99.999962 -9.451529 46.751797
v 87.499977 -9.451535 46.751801
v 87.499977 -32.753845 46.751804
v 99.999969 -32.753838 46.751804
v 87.499977 -32.753845 46.751804
v 99.999962 -32.753841 28.184656
v 87.499977 -32.753849 28.184656
v 99.999962 -32.753841 28.184656
v 87.499969 -9.451540 28.184656
v 99.999962 -9.451532 28.184650
v 87.499977 -32.753849 28.184656
v -0.000002 -52.766563 87.304153
v -0.000002 -52.753101 50.259724
v 18.522211 -52.766563 87.304153
v 18.522211 -52.753101 50.259724
v 18.522211 -43.505459 87.307526
v -0.000005 -43.492004 50.263096
v -0.000005 -43.505463 87.307526
v 18.522211 -43.492004 50.263096
v -0.000005 -43.492004 50.263096
v 18.522211 -43.492004 50.263096
v -0.000002 -52.753101 50.259724
v 18.522211 -52.753101 50.259724
v 18.522211 -52.766563 87.304153
v 18.522211 -43.492004 50.263096
v 18.522211 -43.505459 87.307526
v 18.522211 -52.753101 50.259724
v 18.522211 -43.505459 87.307526
v -0.000002 -52.766563 87.304153
v 18.522211 -52.766563 87.304153
v -0.000005 -43.505463 87.307526
v -0.000005 -43.505463 87.307526
v -0.000005 -43.492004 50.263096
v -0.000002 -52.766563 87.304153
v -0.000002 -52.753101 50.259724
v -18.522215 -52.763203 78.043045
v -18.522215 -52.749741 40.998619
v -0.000002 -52.763203 78.043045
v -0.000002 -52.749741 40.998619
v -0.000005 -43.502098 78.046417
v -18.522217 -43.488644 41.001991
v -18.522217 -43.502098 78.046417
v -0.000005 -43.488644 41.001991
v -18.522217 -43.488644 41.001991
v -0.000005 -43.488644 41.001991
v -18.522215 -52.749741 40.998619
v -0.000002 -52.749741 40.998619
v -0.000002 -52.763203 78.043045
v -0.000005 -43.488644 41.001991
v -0.000005 -43.502098 78.046417
v -0.000002 -52.749741 40.998619
v -0.000005 -43.502098 78.046417
v -18.522215 -52.763203 78.043045
v -0.000002 -52.763203 78.043045
v -18.522217 -43.502098 78.046417
v -18.522217 -43.502098 78.046417
v -18.522217 -43.488644 41.001991
v -18.522215 -52.763203 78.043045
v -18.522215 -52.749741 40.998619
v -87.500046 -9.451540 4.539516
v -100.000031 9.451532 4.539515
v -87.500046 9.451540 4.539507
v -100.000031 -9.451543 4.539520
v -100.000031 9.451532 4.539515
v -100.000031 9.451534 28.184649
v -87.500038 9.451544 28.184645
v -87.500046 9.451540 4.539507
v -87.500038 -9.451532 28.184650
v -100.000031 -9.451543 4.539520
v -87.500046 -9.451540 4.539516
v -100.000031 -9.451540 28.184656
v -87.500038 9.451554 70.396011
v -100.000031 9.451535 46.751801
v -100.000031 9.451547 70.396027
v -87.500038 9.451549 46.751797
v -87.500038 9.451554 70.396011
v -100.000031 9.451547 70.396027
v -87.500031 -9.451526 70.396019
v -100.000023 -9.451529 70.396027
v -87.500031 -9.451526 70.396019
v -100.000023 -9.451535 46.751801
v -87.500038 -9.451529 46.751797
v -100.000023 -9.451529 70.396027
v -100.000031 32.903259 46.751789
v -87.500046 32.903263 28.184639
v -100.000031 32.903255 28.184637
v -87.500046 32.903267 46.751793
v -100.000031 32.903259 46.751789
v -87.500038 9.451549 46.751797
v -87.500046 32.903267 46.751793
v -100.000031 9.451535 46.751801
v -87.500038 9.451544 28.184645
v -100.000031 32.903255 28.184637
v -87.500046 32.903263 28.184639
v -100.000031 9.451534 28.184649
v -87.500031 -32.695305 46.751804
v -87.500038 -9.451529 46.751797
v -100.000023 -9.451535 46.751801
v -100.000023 -32.695312 46.751804
v -87.500031 -32.695305 46.751804
v -100.000023 -32.695312 46.751804
v -87.500038 -32.695309 28.184656
v -100.000023 -32.695316 28.184656
v -87.500038 -32.695309 28.184656
v -100.000031 -9.451540 28.184656
v -87.500038 -9.451532 28.184650
v -100.000023 -32.695316 28.184656
v 87.500000 43.740932 87.500008
v -87.500000 43.740932 87.500008
v -87.500000 -43.759045 87.468224
v 87.500000 -43.759045 87.468224
v -87.500000 -43.749966 62.468224
v 87.500000 -43.759045 87.468224
v -87.500000 -43.759045 87.468224
v 87.500000 -43.749966 62.468224
v 87.500000 -43.759045 87.468224
v 87.500000 43.750011 62.500000
v 87.500000 43.740932 87.500008
v 87.500000 -43.749966 62.468224
v -87.500000 43.740932 87.500008
v 87.500000 43.740932 87.500008
v 87.500000 43.750011 62.500000
v -87.500000 43.750011 62.500000
v -87.500000 -43.759045 87.468224
v -87.500000 43.740932 87.500008
v -87.500000 43.750011 62.500000
v -87.500000 -43.749966 62.468224
v -87.500000 43.750011 62.500000
v 87.500000 43.750011 62.500000
v -87.500000 -43.749966 62.468224
v 87.500000 -43.749966 62.468224
v 99.999962 9.451544 28.184645
v 99.999954 -9.451540 4.525844
v 99.999954 9.451540 4.525836
v 99.999962 -9.451532 28.184650
v 99.999962 0.000008 37.468220
v 99.999962 9.451549 46.751797
v 99.999954 32.998661 28.184639
v 99.999954 32.998665 46.751793
v 99.999962 -9.451529 46.751797
v 99.999962 -32.753841 28.184656
v 99.999969 -32.753838 46.751804
v 99.999962 9.451554 70.428177
v 99.999969 -9.451526 70.428185
v 87.499969 9.451535 46.751801
v 87.499977 -9.451529 70.428192
v 87.499969 9.451547 70.428192
v 87.499977 -9.451535 46.751801
v 87.499969 0.000002 37.468227
v 87.499969 -9.451540 28.184656
v 87.499977 -32.753845 46.751804
v 87.499977 -32.753849 28.184656
v 87.499969 9.451534 28.184649
v 87.499969 32.998657 46.751789
v 87.499969 32.998653 28.184637
v 87.499969 -9.451543 4.525848
v 87.499969 9.451532 4.525843
v -87.500038 9.451544 28.184645
v -87.500046 -9.451540 4.539516
v -87.500046 9.451540 4.539507
v -87.500038 -9.451532 28.184650
v -87.500038 0.000008 37.468220
v -87.500038 9.451549 46.751797
v -87.500046 32.903263 28.184639
v -87.500046 32.903267 46.751793
v -87.500038 -9.451529 46.751797
v -87.500038 -32.695309 28.184656
v -87.500031 -32.695305 46.751804
v -87.500038 9.451554 70.396011
v -87.500031 -9.451526 70.396019
v -100.000031 9.451535 46.751801
v -100.000023 -9.451529 70.396027
v -100.000031 9.451547 70.396027
v -100.000023 -9.451535 46.751801
v -100.000031 0.000002 37.468227
v -100.000031 -9.451540 28.184656
v -100.000023 -32.695312 46.751804
v -100.000023 -32.695316 28.184656
v -100.000031 9.451534 28.184649
v -100.000031 32.903259 46.751789
v -100.000031 32.903255 28.184637
v -100.000031 -9.451543 4.539520
v -100.000031 9.451532 4.539515
v -87.500000 -43.749981 62.500015
v 75.000000 -31.249998 62.500015
v -75.000000 -31.249996 62.500015
v -75.000000 31.250000 62.499996
v 87.500000 -43.749981 62.500015
v -87.500000 43.750004 62.499992
v 75.000000 31.249998 62.499996
v 87.500000 43.750004 62.499992
vn -0.0000 -0.0000 -1.0000
vn -0.0000 -1.0000 -0.0000
vn 1.0000 -0.0000 -0.0000
vn -0.0000 1.0000 -0.0000
vn -1.0000 -0.0000 -0.0000
vn -0.0000 -0.0000 1.0000
vn -0.0000 -1.0000 -0.0004
vn -0.0000 1.0000 0.0004
vn -0.0000 0.0004 -1.0000
vn -0.0000 -0.0004 1.0000
vt 0.437500 0.718750
vt 0.437500 0.562500
vt 0.656250 0.562500
vt 0.656250 0.718750
vt 0.609375 0.937500
vt 0.546875 0.937500
vt 0.546875 0.890625
vt 0.609375 0.890625
vt 0.406250 0.156250
vt 0.406250 0.312500
vt 0.031250 0.312500
vt 0.031250 0.156250
vt 0.000031 0.781250
vt 0.000031 0.562500
vt 0.437500 0.781250
vt 0.437500 0.835938
vt 0.437500 0.999969
vt 0.500000 0.999969
vt 0.500000 0.835938
vt 0.781250 0.843750
vt 0.781250 0.999969
vt 0.625000 0.999969
vt 0.625000 0.843750
vt 0.546875 0.828125
vt 0.500000 0.828125
vt 0.500000 0.890625
vt 0.437500 0.500000
vt 0.000031 0.500000
vt 1.000000 0.843750
vt 1.000000 0.999969
vt 0.593750 0.999969
vt 0.546875 0.999969
vt 0.546875 0.968750
vt 0.593750 0.968750
vt 0.500000 0.968750
vt 0.437500 0.968750
vt 0.437500 0.937500
vt 0.500000 0.937500
vt 0.437500 0.890625
vt 0.000031 0.718750
vt 0.437500 0.343750
vt 0.656250 0.343750
vt 0.656250 0.500000
vt 0.437500 0.875000
vt 0.468750 0.875000
vt 0.468750 0.796875
vt 0.437500 0.796875
vt 0.000031 0.999969
vt 0.000031 0.343750
vt 0.656250 0.781250
vt 0.484375 0.890625
vt 0.484375 0.796875
vt 0.523438 0.914062
vt 0.000031 0.125000
vt 0.437500 0.125000
vt 0.875000 0.125000
vt 0.875000 0.343750
s 1
usemtl MI_GoldChest_Rare
f 12/1/3 10/2/3 11/3/3 9/4/3
f 216/5/3 214/6/3 209/7/3 215/8/3
f 40/9/6 38/10/6 39/11/6 37/12/6
f 2/13/1 4/14/1 3/2/1 1/15/1
f 96/16/8 94/17/8 95/18/8 93/19/8
f 28/20/3 27/21/3 25/22/3 26/23/3
f 230/7/5 234/24/5 233/25/5 227/26/5
f 200/27/8 197/2/8 198/14/8 199/28/8
f 32/29/4 30/30/4 31/22/4 29/23/4
f 36/29/2 34/30/2 35/22/2 33/23/2
f 140/31/1 138/32/1 139/33/1 137/34/1
f 143/35/4 144/36/4 141/37/4 142/38/4
f 148/38/2 146/37/2 147/36/2 145/35/2
f 152/35/4 150/38/4 151/37/4 149/36/4
f 221/18/3 217/38/3 214/6/3 220/32/3
f 229/39/5 228/37/5 225/38/5 227/26/5
f 164/33/4 162/34/4 163/31/4 161/32/4
f 168/38/6 166/35/6 167/36/6 165/37/6
f 172/38/1 170/37/1 171/36/1 169/35/1
f 175/38/6 176/37/6 173/36/6 174/35/6
f 178/33/2 180/34/2 179/31/2 177/32/2
f 184/37/1 182/38/1 183/35/1 181/36/1
f 8/14/2 6/2/2 7/1/2 5/40/2
f 132/33/10 130/32/10 131/31/10 129/34/10
f 20/41/5 18/42/5 19/43/5 17/27/5
f 258/8/5 256/7/5 248/6/5 257/5/5
f 104/44/3 102/45/3 103/46/3 101/47/3
f 188/15/10 185/17/10 186/48/10 187/13/10
f 16/49/4 14/41/4 15/27/4 13/28/4
f 196/1/3 194/4/3 195/50/3 193/15/3
f 72/35/6 70/38/6 71/37/6 69/36/6
f 122/33/9 124/32/9 123/31/9 121/34/9
f 128/44/3 126/45/3 127/46/3 125/47/3
f 76/35/1 74/36/1 75/37/1 73/38/1
f 251/38/5 249/18/5 250/32/5 248/6/5
f 154/33/6 156/34/6 155/31/6 153/32/6
f 112/47/5 111/44/5 109/45/5 110/46/5
f 58/33/6 60/34/6 59/31/6 57/32/6
f 247/18/3 243/38/3 240/6/3 246/32/3
f 82/33/2 84/34/2 83/31/2 81/32/2
f 56/38/4 54/35/4 55/36/4 53/37/4
f 88/36/1 86/35/1 87/38/1 85/37/1
f 44/31/1 42/32/1 43/33/1 41/34/1
f 24/23/5 22/20/5 23/21/5 21/22/5
f 136/47/5 135/44/5 133/45/5 134/46/5
f 92/47/7 91/39/7 89/51/7 90/52/7
f 116/47/7 115/39/7 113/51/7 114/52/7
f 212/26/3 210/25/3 211/24/3 209/7/3
f 192/1/7 190/15/7 191/13/7 189/40/7
f 47/38/4 48/37/4 45/36/4 46/35/4
f 120/16/8 118/17/8 119/18/8 117/19/8
f 256/7/5 260/24/5 259/25/5 253/26/5
f 212/26/3 209/7/3 213/53/3
f 209/7/3 214/6/3 213/53/3
f 242/5/3 240/6/3 235/7/3 241/8/3
f 217/38/3 212/26/3 213/53/3
f 214/6/3 217/38/3 213/53/3
f 243/38/3 245/37/3 244/39/3 238/26/3
f 79/35/6 80/36/6 77/37/6 78/38/6
f 217/38/3 219/37/3 218/39/3 212/26/3
f 225/38/5 222/6/5 226/53/5
f 227/26/5 225/38/5 226/53/5
f 255/39/5 254/37/5 251/38/5 253/26/5
f 222/6/5 230/7/5 226/53/5
f 230/7/5 227/26/5 226/53/5
f 204/43/5 201/3/5 202/2/5 203/27/5
f 238/26/3 236/25/3 237/24/3 235/7/3
f 108/33/10 106/32/10 107/31/10 105/34/10
f 238/26/3 235/7/3 239/53/3
f 235/7/3 240/6/3 239/53/3
f 98/33/9 100/32/9 99/31/9 97/34/9
f 243/38/3 238/26/3 239/53/3
f 240/6/3 243/38/3 239/53/3
f 160/37/2 158/38/2 159/35/2 157/36/2
f 64/36/2 62/35/2 63/38/2 61/37/2
f 225/38/5 223/18/5 224/32/5 222/6/5
f 251/38/5 248/6/5 252/53/5
f 253/26/5 251/38/5 252/53/5
f 52/35/2 50/36/2 51/37/2 49/38/2
f 248/6/5 256/7/5 252/53/5
f 256/7/5 253/26/5 252/53/5
f 232/8/5 230/7/5 222/6/5 231/5/5
f 68/33/4 66/34/4 67/31/4 65/32/4
f 263/12/6 261/54/6 262/9/6
f 263/12/6 264/11/6 261/54/6
f 262/9/6 261/54/6 265/55/6
f 266/49/6 261/54/6 264/11/6
f 262/9/6 265/55/6 267/10/6
f 266/49/6 264/11/6 268/41/6
f 267/10/6 265/55/6 268/41/6
f 267/10/6 268/41/6 264/11/6
f 206/56/9 208/57/9 207/41/9 205/55/9
