# Blender 5.0.1
# www.blender.org
mtllib BP_GS_Lantern_S2.mtl
o SM_Lantern_001.001
v 25.000002 -24.999998 200.000000
v 25.000002 -24.999998 0.000000
v 24.999998 25.000002 200.000000
v 24.999998 25.000002 0.000000
v 24.999998 25.000002 200.000000
v 24.999998 25.000002 0.000000
v -25.000002 24.999998 200.000000
v -25.000002 24.999998 0.000000
v -25.000002 24.999998 200.000000
v -25.000002 24.999998 0.000000
v -24.999998 -25.000002 200.000000
v -24.999998 -25.000002 0.000000
v -24.999998 -25.000002 200.000000
v -24.999998 -25.000002 0.000000
v 25.000002 -24.999998 200.000000
v 25.000002 -24.999998 0.000000
v -49.999996 -50.000004 200.000000
v -50.000004 49.999996 200.000000
v 50.000004 -49.999996 200.000000
v 49.999996 50.000004 200.000000
v -50.000004 49.999996 225.000000
v 50.000004 -49.999996 225.000000
v 49.999996 50.000004 225.000000
v -49.999996 -50.000004 225.000000
v 49.999996 50.000004 225.000000
v 50.000004 -49.999996 225.000000
v 50.000004 -49.999996 200.000000
v 49.999996 50.000004 200.000000
v -50.000004 49.999996 225.000000
v 49.999996 50.000004 225.000000
v 49.999996 50.000004 200.000000
v -50.000004 49.999996 200.000000
v -49.999996 -50.000004 225.000000
v -50.000004 49.999996 225.000000
v -50.000004 49.999996 200.000000
v -49.999996 -50.000004 200.000000
v 50.000004 -49.999996 225.000000
v -49.999996 -50.000004 225.000000
v -49.999996 -50.000004 200.000000
v 50.000004 -49.999996 200.000000
v -12.499999 12.499999 400.000000
v 12.500003 -12.499999 400.000000
v 12.500001 12.500001 400.000000
v -12.499997 -12.500001 400.000000
v 12.500003 -12.499999 400.000000
v 12.500003 -12.499999 350.000000
v 12.500001 12.500001 400.000000
v 12.500001 12.500001 350.000000
v 12.500001 12.500001 400.000000
v 12.500001 12.500001 350.000000
v -12.499999 12.499999 400.000000
v -12.499999 12.499999 350.000000
v -12.499999 12.499999 400.000000
v -12.499999 12.499999 350.000000
v -12.499997 -12.500001 400.000000
v -12.499997 -12.500001 350.000000
v -12.499997 -12.500001 400.000000
v -12.499997 -12.500001 350.000000
v 12.500003 -12.499999 400.000000
v 12.500003 -12.499999 350.000000
v -49.999992 -50.000004 325.000000
v -50.000000 49.999996 325.000000
v 50.000008 -49.999996 325.000000
v 50.000000 50.000004 325.000000
v -50.000000 49.999996 350.000000
v 50.000008 -49.999996 350.000000
v 50.000000 50.000004 350.000000
v -49.999992 -50.000004 350.000000
v 50.000000 50.000004 350.000000
v 50.000008 -49.999996 350.000000
v 50.000008 -49.999996 325.000000
v 50.000000 50.000004 325.000000
v -50.000000 49.999996 350.000000
v 50.000000 50.000004 350.000000
v 50.000000 50.000004 325.000000
v -50.000000 49.999996 325.000000
v -49.999992 -50.000004 350.000000
v -50.000000 49.999996 350.000000
v -50.000000 49.999996 325.000000
v -49.999992 -50.000004 325.000000
v 50.000008 -49.999996 350.000000
v -49.999992 -50.000004 350.000000
v -49.999992 -50.000004 325.000000
v 50.000008 -49.999996 325.000000
v -37.500000 37.500000 325.000000
v -37.500000 -37.500000 225.000000
v -37.500000 -37.500000 325.000000
v -37.500000 37.500000 225.000000
v 37.500000 37.500000 325.000000
v 37.500000 -37.500000 325.000000
v 37.500000 -37.500000 225.000000
v 37.500000 37.500000 225.000000
v 37.500000 37.500000 325.000000
v -37.500000 37.500000 225.000000
v -37.500000 37.500000 325.000000
v 37.500000 37.500000 225.000000
v 37.500000 -37.500000 325.000000
v -37.500000 -37.500000 325.000000
v -37.500000 -37.500000 225.000000
v 37.500000 -37.500000 225.000000
vn 1.0000 -0.0000 -0.0000
vn -0.0000 1.0000 -0.0000
vn -1.0000 -0.0000 -0.0000
vn -0.0000 -1.0000 -0.0000
vn -0.0000 -0.0000 -1.0000
vn -0.0000 -0.0000 1.0000
vt 0.312500 0.906250
vt 0.312500 0.968750
vt 0.281250 0.968750
vt 0.281250 0.906250
vt 0.500000 0.531250
vt 0.500000 0.500000
vt 0.625000 0.500000
vt 0.625000 0.531250
vt 0.625000 0.625000
vt 0.750000 0.500000
vt 0.750000 0.625000
vt 0.562500 0.500000
vt 0.562500 0.750000
vt 0.500000 0.750000
vt 0.625000 0.750000
vt 0.875000 0.625000
vt 0.875000 0.750000
vt 0.750000 0.750000
vt 0.734375 0.625000
vt 0.734375 0.750000
vt 0.640625 0.750000
vt 0.640625 0.625000
vt 0.343750 0.843750
vt 0.343750 0.812500
vt 0.375000 0.812500
vt 0.375000 0.843750
s 1
usemtl MI_GaleSanctum_BigLantern
f 48/1/1 47/2/1 45/3/1 46/4/1
f 76/5/2 73/6/2 74/7/2 75/8/2
f 60/1/4 59/2/4 57/3/4 58/4/4
f 28/5/1 25/6/1 26/7/1 27/8/1
f 24/9/6 22/7/6 23/10/6 21/11/6
f 56/1/3 55/2/3 53/3/3 54/4/3
f 4/12/1 3/13/1 1/14/1 2/6/1
f 36/5/3 33/6/3 34/7/3 35/8/3
f 12/12/3 11/13/3 9/14/3 10/6/3
f 52/1/2 51/2/2 49/3/2 50/4/2
f 8/7/2 7/15/2 5/13/2 6/12/2
f 20/11/5 19/16/5 17/17/5 18/18/5
f 92/19/1 89/20/1 90/21/1 91/22/1
f 80/5/3 77/6/3 78/7/3 79/8/3
f 16/7/4 15/15/4 13/13/4 14/12/4
f 40/5/4 37/6/4 38/7/4 39/8/4
f 96/22/2 94/19/2 95/20/2 93/21/2
f 64/11/5 63/16/5 61/17/5 62/18/5
f 32/5/2 29/6/2 30/7/2 31/8/2
f 72/5/1 69/6/1 70/7/1 71/8/1
f 68/9/6 66/7/6 67/10/6 65/11/6
f 84/5/4 81/6/4 82/7/4 83/8/4
f 88/22/3 86/19/3 87/20/3 85/21/3
f 44/23/6 42/24/6 43/25/6 41/26/6
f 100/19/4 97/20/4 98/21/4 99/22/4
