# Blender 5.0.1
# www.blender.org
mtllib BP_GI_CoralCluster.mtl
o SM_AM_Orange_Coral_01.001
v -44.444359 -197.715805 -961.111328
v 155.555603 -284.318420 -911.111328
v -44.444389 -284.318359 -911.111389
v 155.555634 -197.715866 -961.111328
v -44.444328 -111.113251 -1011.111328
v 155.555664 -111.113312 -1011.111328
v 142.158188 -211.113327 -961.111328
v 228.760742 -11.113342 -911.111328
v 228.760742 -211.113342 -911.111328
v 142.158234 -11.113327 -961.111328
v 55.555641 -211.113312 -1011.111267
v 55.555672 -11.113312 -1011.111328
v 155.555649 -111.113373 -811.111328
v -44.444351 -111.113304 -811.111389
v 155.555664 -111.113373 -911.111328
v -44.444344 -111.113312 -911.111389
v -44.444328 -111.113312 -1011.111389
v 155.555664 -111.113373 -1011.111328
v 155.555695 -24.510803 -961.111328
v -44.444298 62.091751 -911.111389
v 155.555695 62.091751 -911.111328
v -44.444313 -24.510773 -961.111389
v -44.444313 -111.113319 -1011.111328
v 155.555695 -111.113350 -1011.111328
v 55.555634 -211.113342 -811.111328
v 55.555645 -11.113342 -811.111328
v 55.555653 -211.113342 -911.111389
v 55.555664 -11.113327 -911.111389
v 55.555683 -11.113342 -1011.111389
v 55.555676 -211.113342 -1011.111389
v -117.649429 -11.113388 -911.111328
v -117.649429 -211.113403 -911.111328
v -31.046852 -11.113403 -961.111328
v -31.046890 -211.113403 -961.111328
v 55.555656 -211.113419 -1011.111328
v 55.555687 -11.113419 -1011.111328
vn -0.0000 -0.5000 -0.8660
vn 0.5000 -0.0000 -0.8660
vn -0.0000 -1.0000 -0.0000
vn -0.0000 0.5000 -0.8660
vn -1.0000 -0.0000 -0.0000
vn 0.5000 -0.0000 0.8660
vt 0.000031 0.500244
vt 0.250000 0.500000
vt 0.250000 0.750000
vt 0.000031 0.750122
vt 0.250000 0.000000
vt 0.250000 0.250000
vt 0.000031 0.250488
vt 0.000031 0.000488
vt -0.000031 0.500244
vt 0.250000 0.999969
vt 0.000031 0.999969
vt 0.000031 0.999969
vt 0.000031 0.500000
s 1
usemtl MI_YCoral_01
f 24/1/4 23/2/4 22/3/4 19/4/4
f 18/5/3 15/6/3 16/7/3 17/8/3
f 30/2/5 27/3/5 28/4/5 29/9/5
f 34/4/6 33/3/6 31/10/6 32/11/6
f 4/3/1 2/10/1 3/12/1 1/4/1
f 14/13/3 16/7/3 15/6/3 13/2/3
f 12/5/2 10/6/2 7/7/2 11/8/2
f 26/11/5 28/4/5 27/3/5 25/10/5
f 10/6/2 8/2/2 9/13/2 7/7/2
f 22/3/4 20/10/4 21/12/4 19/4/4
f 6/2/1 4/3/1 1/4/1 5/1/1
f 36/2/6 33/3/6 34/4/6 35/9/6
