# Blender 5.0.1
# www.blender.org
mtllib BP_GlowMushroom_Lobby.mtl
o SM_LargePot.001
v -75.000000 75.000023 149.999985
v -75.000000 -74.999977 150.000015
v 75.000000 75.000023 149.999985
v 75.000000 -74.999977 150.000015
v 75.000000 -75.000000 0.000012
v -75.000000 -75.000000 0.000012
v -75.000000 75.000000 -0.000012
v 75.000000 75.000000 -0.000012
v -75.000000 -74.999977 150.000015
v 75.000000 -75.000000 0.000012
v 75.000000 -74.999977 150.000015
v -75.000000 -75.000000 0.000012
v 75.000000 -74.999977 150.000015
v 75.000000 75.000000 -0.000012
v 75.000000 75.000023 149.999985
v 75.000000 -75.000000 0.000012
v 75.000000 75.000023 149.999985
v -75.000000 75.000000 -0.000012
v -75.000000 75.000023 149.999985
v 75.000000 75.000000 -0.000012
v -75.000000 75.000023 149.999985
v -75.000000 -75.000000 0.000012
v -75.000000 -74.999977 150.000015
v -75.000000 75.000000 -0.000012
v -62.500031 62.500057 162.500000
v -62.500031 -62.500004 162.500015
v 62.500031 62.500057 162.500000
v 62.500031 -62.500004 162.500015
v 62.500031 -62.500008 150.000015
v -62.500031 -62.500008 150.000015
v -62.500031 62.500053 149.999985
v 62.500031 62.500053 149.999985
v -62.500031 -62.500004 162.500015
v 62.500031 -62.500008 150.000015
v 62.500031 -62.500004 162.500015
v -62.500031 -62.500008 150.000015
v 62.500031 -62.500004 162.500015
v 62.500031 62.500053 149.999985
v 62.500031 62.500057 162.500000
v 62.500031 -62.500008 150.000015
v 62.500031 62.500057 162.500000
v -62.500031 62.500053 149.999985
v -62.500031 62.500057 162.500000
v 62.500031 62.500053 149.999985
v -62.500031 62.500057 162.500000
v -62.500031 -62.500008 150.000015
v -62.500031 -62.500004 162.500015
v -62.500031 62.500053 149.999985
vn -0.0000 -0.0000 1.0000
vn -0.0000 -0.0000 -1.0000
vn -0.0000 -1.0000 -0.0000
vn 1.0000 -0.0000 -0.0000
vn -0.0000 1.0000 -0.0000
vn -1.0000 -0.0000 -0.0000
vt 0.500000 0.500000
vt 1.000000 0.500000
vt 1.000000 0.999969
vt 0.500000 0.999969
vt -0.000031 0.041992
vt 0.416504 0.041992
vt 0.416504 0.083496
vt 0.000031 0.083496
vt 0.000031 0.999969
vt 0.000031 0.500000
vt 0.574707 0.575195
vt 0.549805 0.575195
vt 0.549805 0.550049
vt 0.574707 0.550049
vt 0.416504 0.500000
s 1
usemtl MI_LargePot
f 24/1/6 22/2/6 23/3/6 21/4/6
f 48/5/6 46/6/6 47/7/6 45/8/6
f 16/1/4 14/2/4 15/3/4 13/4/4
f 4/4/1 3/9/1 1/10/1 2/1/1
f 8/11/2 5/12/2 6/13/2 7/14/2
f 20/1/5 18/2/5 19/3/5 17/4/5
f 32/11/2 29/12/2 30/13/2 31/14/2
f 12/1/3 10/2/3 11/3/3 9/4/3
f 28/15/1 27/10/1 25/8/1 26/7/1
f 36/5/3 34/6/3 35/7/3 33/8/3
f 40/5/4 38/6/4 39/7/4 37/8/4
f 44/5/5 42/6/5 43/7/5 41/8/5
