# Blender 5.0.1
# www.blender.org
mtllib BP_Gate_Ice_x9.mtl
o SK_Gate_Ice_x9.001
v -297.647491 -7.920099 0.420853
v -278.897491 -7.920053 327.746277
v -278.897491 -7.920099 0.420853
v -297.647491 -7.920099 0.420837
v -297.647491 -7.920053 327.746246
v -335.147491 -8.081305 0.420853
v -316.397491 -8.081258 327.746277
v -316.397491 -8.081305 0.420853
v -335.147491 -8.081305 0.420837
v -335.147491 -8.081258 327.746246
v -163.272491 -20.901789 327.746246
v -144.522491 -20.901789 327.746216
v -144.522491 -8.240581 327.746246
v -163.272491 -8.240581 327.746216
v -163.272491 -8.240627 0.420837
v -144.522491 -8.240627 0.420837
v -144.522491 -20.901836 0.420853
v -163.272491 -20.901789 327.746216
v -163.272491 -20.901836 0.420853
v -335.147491 -20.657312 327.746277
v -316.397491 -20.657312 327.746246
v -335.147491 -20.657314 327.746277
v -297.647491 -20.901789 327.746277
v -278.897491 -20.901789 327.746246
v 209.697174 -7.920099 0.420853
v 228.447174 -7.920053 327.746277
v 228.447174 -7.920099 0.420853
v 209.697174 -7.920099 0.420837
v 209.697174 -7.920053 327.746246
v 172.197174 -8.081305 0.420853
v 190.947174 -8.081258 327.746277
v 190.947174 -8.081305 0.420853
v 172.197174 -8.081305 0.420837
v 172.197174 -8.081258 327.746246
v 344.072174 -20.901789 327.746246
v 362.822174 -20.901789 327.746216
v 362.822174 -8.240581 327.746246
v 344.072174 -8.240581 327.746216
v 344.072174 -8.240627 0.420837
v 362.822174 -8.240627 0.420837
v 362.822174 -20.901836 0.420853
v 344.072174 -20.901789 327.746216
v 344.072174 -20.901836 0.420853
v 172.197174 -20.657312 327.746277
v 190.947174 -20.657312 327.746246
v 172.197174 -20.657314 327.746277
v 209.697174 -20.901789 327.746277
v 228.447174 -20.901789 327.746246
v 103.447113 -8.081305 0.420853
v 122.197113 -8.081258 327.746277
v 122.197113 -8.081305 0.420853
v 103.447113 -8.081305 0.420837
v 103.447113 -8.081258 327.746246
v 103.447113 -20.657312 327.746277
v 122.197113 -20.657312 327.746246
v 103.447113 -20.657314 327.746277
v -369.522491 -20.581310 0.420853
v -369.522491 -20.581257 327.746246
v -369.522491 -7.760729 327.746246
v -369.522491 -7.760782 0.420837
v 137.822174 -20.581310 0.420853
v 137.822174 -20.581257 327.746246
v 137.822174 -7.760729 327.746246
v 137.822174 -7.760782 0.420837
v -403.897491 -20.581257 327.746246
v -385.147491 -20.581257 327.746246
v -385.147491 -7.760729 327.746246
v -403.897491 -7.760729 327.746246
v -128.897476 -20.901787 327.746246
v -110.147491 -20.901787 327.746246
v -110.147491 -8.081257 327.746246
v -128.897476 -8.081257 327.746246
v -63.272491 -20.901787 327.746246
v -44.522491 -20.901787 327.746246
v -44.522491 -7.760729 327.746246
v -63.272491 -7.760729 327.746246
v 36.727509 -20.581257 327.746246
v 55.477509 -20.581257 327.746246
v 55.477509 -8.081257 327.746246
v 36.727509 -8.081257 327.746246
v -78.897491 -8.081262 327.746216
v -97.647491 -8.081262 327.746216
v -97.647491 -20.901789 327.746216
v -78.897491 -20.901789 327.746216
v -78.897491 -8.081260 327.746216
v -78.897491 -8.081297 0.420853
v -97.647491 -8.081260 327.746216
v -97.647491 -8.081297 0.420853
v -78.897491 -20.901825 0.420853
v -10.147491 -8.081258 327.746216
v -28.897491 -8.081258 327.746216
v -28.897491 -20.901791 327.746216
v -10.147491 -20.901791 327.746216
v -10.147491 -8.081260 327.746216
v -10.147491 -8.081297 0.420853
v -28.897491 -8.081260 327.746216
v -28.897491 -8.081297 0.420853
v -10.147491 -20.901829 0.420853
v 21.102509 -8.081258 327.746216
v 2.352509 -8.081258 327.746216
v 2.352509 -20.234816 327.746216
v 21.102509 -20.234816 327.746216
v 21.102509 -8.081260 327.746216
v 21.102509 -8.081295 0.420853
v 2.352509 -8.081260 327.746216
v 2.352509 -8.081295 0.420853
v 21.102509 -20.234814 327.746216
v 21.102509 -20.234852 0.420853
v -297.647491 -7.920099 0.420853
v -297.647491 -20.901836 0.420853
v -297.647491 -20.901791 327.746246
v -297.647491 -7.920053 327.746277
v -335.147491 -8.081305 0.420853
v -335.147491 -20.657360 0.420853
v -335.147491 -20.657314 327.746246
v -335.147491 -8.081258 327.746277
v -144.522491 -8.240627 0.420853
v -144.522491 -20.901791 327.746216
v -163.272491 -8.240627 0.420853
v -163.272491 -20.901791 327.746216
v -163.272491 -8.240581 327.746246
v -369.522491 -20.581257 327.746246
v -350.772491 -20.581257 327.746246
v -350.772491 -7.760729 327.746246
v -369.522491 -7.760729 327.746246
v -316.397491 -20.657314 327.746246
v -316.397491 -20.657360 0.420853
v -335.147491 -20.657312 327.746246
v -278.897491 -20.901791 327.746246
v -278.897491 -20.901836 0.420853
v -263.272491 -7.991611 327.746246
v -263.272491 -20.812176 0.420853
v -263.272491 -20.812140 327.746246
v -263.272491 -7.991648 0.420853
v -244.522491 -7.991611 327.746246
v -263.272491 -20.812141 327.746246
v -244.522491 -20.812141 327.746246
v -244.522491 -7.991613 327.746246
v -244.522491 -7.991648 0.420853
v -263.272491 -7.991613 327.746246
v -244.522491 -20.812140 327.746246
v -244.522491 -20.812176 0.420853
v -228.897491 -20.581257 327.746246
v -210.147491 -20.581257 327.746246
v -210.147491 -8.081257 327.746246
v -228.897491 -8.081257 327.746246
v -197.647491 -20.581257 327.746246
v -178.897491 -20.581257 327.746246
v -178.897491 -8.081257 327.746246
v -197.647491 -8.081257 327.746246
v -44.522491 -20.901840 0.420853
v -63.272491 -20.901840 0.420853
v -63.272491 -20.901840 0.420853
v -63.272491 -20.901787 327.746246
v -63.272491 -7.760729 327.746246
v -63.272491 -7.760782 0.420837
v -44.522491 -20.901789 327.746246
v -44.522491 -7.760782 0.420837
v -44.522491 -7.760729 327.746246
v -44.522491 -7.760782 0.420837
v -350.772491 -20.581310 0.420853
v -369.522491 -20.581310 0.420853
v -350.772491 -20.581257 327.746246
v -350.772491 -7.760782 0.420837
v -350.772491 -7.760729 327.746246
v -350.772491 -7.760782 0.420837
v -403.897491 -20.581310 0.420853
v -403.897491 -7.760782 0.420837
v -403.897491 -20.581257 327.746246
v -403.897491 -20.581310 0.420853
v -385.147491 -20.581310 0.420853
v -385.147491 -20.581257 327.746246
v -385.147491 -20.581310 0.420853
v -385.147491 -7.760782 0.420837
v -403.897491 -7.760782 0.420837
v -385.147491 -7.760729 327.746246
v -385.147491 -7.760782 0.420837
v -403.897491 -7.760729 327.746246
v -128.897507 -20.901840 0.420853
v -128.897507 -8.081257 327.746246
v -128.897507 -8.081310 0.420837
v -128.897507 -20.901787 327.746246
v -128.897507 -20.901787 327.746246
v -128.897507 -20.901840 0.420853
v -110.147522 -20.901840 0.420853
v -110.147522 -20.901787 327.746246
v -110.147522 -20.901787 327.746246
v -110.147522 -20.901840 0.420853
v -110.147522 -8.081310 0.420837
v -110.147522 -8.081257 327.746246
v -128.897507 -8.081310 0.420837
v -110.147522 -8.081257 327.746246
v -110.147522 -8.081310 0.420837
v -128.897507 -8.081257 327.746246
v 36.727509 -20.581310 0.420853
v 36.727509 -8.081310 0.420837
v 36.727509 -20.581257 327.746246
v 36.727509 -20.581310 0.420853
v 55.477509 -20.581310 0.420853
v 55.477509 -20.581257 327.746246
v 55.477509 -20.581310 0.420853
v 55.477509 -8.081310 0.420837
v 36.727509 -8.081310 0.420837
v 55.477509 -8.081257 327.746246
v 55.477509 -8.081310 0.420837
v 36.727509 -8.081257 327.746246
v -228.897491 -20.581310 0.420853
v -228.897491 -8.081310 0.420837
v -228.897491 -20.581257 327.746246
v -228.897491 -20.581310 0.420853
v -210.147491 -20.581310 0.420853
v -210.147491 -20.581257 327.746246
v -210.147491 -20.581310 0.420853
v -210.147491 -8.081310 0.420837
v -228.897491 -8.081310 0.420837
v -210.147491 -8.081257 327.746246
v -210.147491 -8.081310 0.420837
v -228.897491 -8.081257 327.746246
v -197.647491 -20.581310 0.420853
v -197.647491 -8.081310 0.420837
v -197.647491 -20.581257 327.746246
v -197.647491 -20.581310 0.420853
v -178.897491 -20.581310 0.420853
v -178.897491 -20.581257 327.746246
v -178.897491 -20.581310 0.420853
v -178.897491 -8.081310 0.420837
v -197.647491 -8.081310 0.420837
v -178.897491 -8.081257 327.746246
v -178.897491 -8.081310 0.420837
v -197.647491 -8.081257 327.746246
v -97.647491 -20.901825 0.420853
v -97.647491 -20.901789 327.746216
v -97.647491 -20.901825 0.420853
v -78.897491 -20.901789 327.746216
v -78.897491 -20.901825 0.420853
v -28.897491 -20.901829 0.420853
v -28.897491 -20.901791 327.746216
v -28.897491 -20.901791 327.746216
v -28.897491 -20.901829 0.420853
v -10.147491 -20.901791 327.746216
v -10.147491 -20.901829 0.420853
v 2.352509 -20.234852 0.420853
v 2.352509 -20.234816 327.746216
v 2.352509 -20.234852 0.420853
v 21.102509 -20.234816 327.746216
v 21.102509 -20.234852 0.420853
v 71.102509 -20.581257 327.746246
v 89.852509 -20.581257 327.746246
v 89.852509 -7.760729 327.746246
v 71.102509 -7.760729 327.746246
v 71.102509 -20.581310 0.420853
v 71.102509 -7.760782 0.420837
v 71.102509 -20.581257 327.746246
v 71.102509 -20.581310 0.420853
v 89.852509 -20.581310 0.420853
v 89.852509 -20.581257 327.746246
v 89.852509 -20.581310 0.420853
v 89.852509 -7.760782 0.420837
v 71.102509 -7.760782 0.420837
v 89.852509 -7.760729 327.746246
v 89.852509 -7.760782 0.420837
v 71.102509 -7.760729 327.746246
v 378.447174 -20.901787 327.746246
v 397.197174 -20.901787 327.746246
v 397.197174 -8.081257 327.746246
v 378.447174 -8.081257 327.746246
v 428.447174 -8.081262 327.746216
v 409.697174 -8.081262 327.746216
v 409.697174 -20.901789 327.746216
v 428.447174 -20.901789 327.746216
v 428.447174 -8.081260 327.746216
v 428.447174 -8.081297 0.420853
v 409.697174 -8.081260 327.746216
v 409.697174 -8.081297 0.420853
v 428.447174 -20.901825 0.420853
v 209.697174 -7.920099 0.420853
v 209.697174 -20.901836 0.420853
v 209.697174 -20.901791 327.746246
v 209.697174 -7.920053 327.746277
v 172.197174 -8.081305 0.420853
v 172.197174 -20.657360 0.420853
v 172.197174 -20.657314 327.746246
v 172.197174 -8.081258 327.746277
v 362.822174 -8.240627 0.420853
v 362.822174 -20.901791 327.746216
v 344.072174 -8.240627 0.420853
v 344.072174 -20.901791 327.746216
v 344.072174 -8.240581 327.746246
v 137.822174 -20.581257 327.746246
v 156.572174 -20.581257 327.746246
v 156.572174 -7.760729 327.746246
v 137.822174 -7.760729 327.746246
v 190.947174 -20.657314 327.746246
v 190.947174 -20.657360 0.420853
v 172.197174 -20.657312 327.746246
v 228.447174 -20.901791 327.746246
v 228.447174 -20.901836 0.420853
v 244.072174 -7.991611 327.746246
v 244.072174 -20.812176 0.420853
v 244.072174 -20.812140 327.746246
v 244.072174 -7.991648 0.420853
v 262.822174 -7.991611 327.746246
v 244.072174 -20.812141 327.746246
v 262.822174 -20.812141 327.746246
v 262.822174 -7.991613 327.746246
v 262.822174 -7.991648 0.420853
v 244.072174 -7.991613 327.746246
v 262.822174 -20.812140 327.746246
v 262.822174 -20.812176 0.420853
v 278.447174 -20.581257 327.746246
v 297.197174 -20.581257 327.746246
v 297.197174 -8.081257 327.746246
v 278.447174 -8.081257 327.746246
v 309.697174 -20.581257 327.746246
v 328.447174 -20.581257 327.746246
v 328.447174 -8.081257 327.746246
v 309.697174 -8.081257 327.746246
v 156.572174 -20.581310 0.420853
v 137.822174 -20.581310 0.420853
v 156.572174 -20.581257 327.746246
v 156.572174 -7.760782 0.420837
v 156.572174 -7.760729 327.746246
v 156.572174 -7.760782 0.420837
v 378.447174 -20.901840 0.420853
v 378.447174 -8.081310 0.420837
v 378.447174 -20.901787 327.746246
v 378.447174 -20.901840 0.420853
v 397.197113 -20.901840 0.420853
v 397.197113 -20.901787 327.746246
v 397.197113 -20.901787 327.746246
v 397.197113 -20.901840 0.420853
v 397.197113 -8.081310 0.420837
v 397.197113 -8.081257 327.746246
v 378.447174 -8.081310 0.420837
v 397.197113 -8.081257 327.746246
v 397.197113 -8.081310 0.420837
v 378.447174 -8.081257 327.746246
v 278.447174 -20.581310 0.420853
v 278.447174 -8.081310 0.420837
v 278.447174 -20.581257 327.746246
v 278.447174 -20.581310 0.420853
v 297.197174 -20.581310 0.420853
v 297.197174 -20.581257 327.746246
v 297.197174 -20.581310 0.420853
v 297.197174 -8.081310 0.420837
v 278.447174 -8.081310 0.420837
v 297.197174 -8.081257 327.746246
v 297.197174 -8.081310 0.420837
v 278.447174 -8.081257 327.746246
v 309.697174 -20.581310 0.420853
v 309.697174 -8.081310 0.420837
v 309.697174 -20.581257 327.746246
v 309.697174 -20.581310 0.420853
v 328.447174 -20.581310 0.420853
v 328.447174 -20.581257 327.746246
v 328.447174 -20.581310 0.420853
v 328.447174 -8.081310 0.420837
v 309.697174 -8.081310 0.420837
v 328.447174 -8.081257 327.746246
v 328.447174 -8.081310 0.420837
v 309.697174 -8.081257 327.746246
v 409.697174 -20.901825 0.420853
v 409.697174 -20.901789 327.746216
v 409.697174 -20.901825 0.420853
v 428.447174 -20.901789 327.746216
v 428.447174 -20.901825 0.420853
v 103.447113 -8.081305 0.420853
v 103.447113 -20.657360 0.420853
v 103.447113 -20.657314 327.746246
v 103.447113 -8.081258 327.746277
v 122.197113 -20.657314 327.746246
v 122.197113 -20.657360 0.420853
v 103.447113 -20.657312 327.746246
vn -0.0000 1.0000 -0.0000
vn 0.5773 0.5774 0.5773
vn 0.7071 0.7071 -0.0000
vn -0.0000 0.7071 0.7071
vn 0.5773 0.5774 0.5774
vn -0.0000 -0.0000 1.0000
vn -0.0000 -0.7071 0.7071
vn 0.5773 0.5773 0.5774
vn 0.7071 -0.7071 -0.0000
vn -0.0000 -1.0000 -0.0000
vn -0.7071 -0.7071 -0.0000
vn -1.0000 -0.0000 -0.0000
vn -0.7071 0.7071 -0.0000
vn -0.7071 -0.0000 0.7071
vn 0.7071 -0.0000 0.7071
vn 1.0000 -0.0000 -0.0000
vt 0.187500 0.999969
vt 0.093750 0.999969
vt 0.182983 0.003906
vt 0.093689 0.003906
vt 0.178589 0.003906
vt 0.993164 0.003418
vt 0.910645 0.003418
vt 0.906250 0.999205
vt 0.999023 0.999029
vt 0.370605 1.000797
vt 0.370850 0.001465
vt 0.437256 0.000488
vt 0.437500 0.999969
vt 0.590820 0.000000
vt 0.500000 0.093750
vt 0.500000 0.000000
vt 0.591309 0.093750
vt 0.591309 0.000000
vt 0.995117 0.094238
vt 0.907715 0.094238
vt 0.907715 0.004883
vt 0.995117 0.004883
vt 0.993652 0.003418
vt 0.370605 0.002441
vt 0.437256 0.001465
vt 0.911621 0.005371
vt 0.942383 0.005371
vt 0.967773 0.998955
vt 0.495361 0.000000
vt 0.495605 0.999969
vt 0.814453 0.996517
vt 0.816895 0.005371
vt 0.908203 0.006348
vt 0.902832 0.996521
vt 0.031235 0.000488
vt 0.124939 0.000488
vt 0.125000 0.999969
vt 0.031250 0.999969
vt 0.156128 0.999969
vt 0.156250 0.000488
vt 0.249878 0.000488
vt 0.250000 0.999969
vt 0.218628 0.000488
vt 0.312256 0.000488
vt 0.312500 0.999969
vt 0.218750 0.999969
vt 0.495361 0.001465
vt 0.915527 0.002930
vt 0.814453 0.998383
vt 0.822754 0.002930
vt 0.312256 0.001465
vt 0.218628 0.999969
vt 0.218750 0.003906
vt 0.900391 0.996521
vt 0.819824 0.996517
vt 0.218750 0.000488
vt 0.992676 0.004395
vt 0.910156 0.004395
vt 0.499512 0.000000
vt 0.902344 0.999205
vt 0.826660 0.999202
vt 0.818848 0.005371
vt 0.218628 0.001465
vt 0.281006 0.001465
vt 0.281006 0.999969
vt 0.946289 0.002930
vt 0.996094 0.096680
vt 0.909180 0.096680
vt 0.909180 0.002930
vt 0.996094 0.002930
vt 0.815918 0.996517
vt 0.904297 0.996521
vt 0.813965 0.003418
vt 0.902344 0.003418
vt 0.902344 0.094238
vt 0.814453 0.093750
vt 0.281006 0.000000
vt 0.281250 0.999969
vt 0.187378 0.000488
vt 0.370605 0.000977
vt 0.370850 1.000797
vt 0.093689 0.000488
s 1
usemtl MI_Gate_Ice
f 3/1/3 1/2/1 2/3/2
f 5/4/4 2/5/2 4/2/1
f 8/1/3 6/2/1 7/3/5
f 10/4/4 7/5/5 9/2/1
f 287/6/12 288/7/12 286/8/12 43/9/11
f 171/10/10 172/11/10 169/12/10 170/13/10
f 7/14/5 20/15/6 21/16/7
f 10/17/4 22/15/6 7/18/5
f 38/19/4 35/20/6 36/21/7 37/22/5
f 27/1/3 25/2/1 26/3/2
f 29/4/4 26/5/2 28/2/1
f 32/1/3 30/2/1 31/3/5
f 34/4/4 31/5/5 33/2/1
f 14/19/4 11/20/6 12/21/7 13/22/8
f 14/7/4 13/23/8 16/9/1 15/8/1
f 246/10/10 245/24/10 243/25/10 244/13/10
f 31/14/5 44/15/6 45/16/7
f 34/17/4 46/15/6 31/18/5
f 5/17/4 23/15/6 24/16/6 2/18/2
f 51/1/3 49/2/1 50/3/5
f 53/4/4 50/5/5 52/2/1
f 50/14/5 54/15/6 55/16/7
f 53/17/4 56/15/6 50/18/5
f 124/26/15 163/27/16 161/28/9 164/8/16
f 167/13/12 65/12/14 68/29/14 168/30/12
f 309/31/9 308/32/9 300/33/11 299/34/11
f 194/35/1 192/36/1 193/37/1 191/38/1
f 185/39/10 186/40/10 183/41/10 184/42/10
f 72/17/6 69/15/6 70/16/6 71/18/6
f 230/43/1 228/44/1 229/45/1 227/46/1
f 255/10/10 256/11/10 253/12/10 254/13/10
f 83/25/14 82/47/14 88/30/13 231/13/12
f 73/48/7 152/8/10 151/49/9 74/50/7
f 278/51/11 277/45/11 297/52/9 296/53/9
f 301/54/13 299/55/11 300/32/11 298/33/14
f 122/48/7 162/8/10 161/49/9 123/50/7
f 199/52/10 200/56/10 197/44/10 198/45/10
f 101/25/14 100/47/14 106/30/13 242/13/12
f 278/5/11 279/4/12 276/2/12 277/1/11
f 282/5/12 283/4/12 280/2/12 281/1/11
f 50/4/5 371/5/16 372/1/9 51/2/3
f 13/7/8 118/6/16 17/9/9 117/8/16
f 178/43/1 176/44/1 177/45/1 175/46/1
f 26/4/2 296/5/9 297/1/9 27/2/3
f 218/35/1 216/36/1 217/37/1 215/38/1
f 111/5/11 112/4/12 109/2/12 110/1/11
f 241/10/10 240/24/10 238/25/10 239/13/10
f 84/24/15 89/10/16 86/45/3 85/51/3
f 42/57/10 43/9/11 41/8/9 36/58/7
f 84/59/15 81/14/6 82/17/14 83/15/14
f 308/33/9 309/60/9 306/61/3 302/32/15
f 128/51/10 114/45/11 127/52/9 21/53/7
f 155/62/13 159/26/1 160/8/1 156/49/13
f 97/46/13 96/63/13 94/64/3 95/65/3
f 295/51/10 281/45/11 294/52/9 45/53/7
f 64/28/13 61/8/12 62/48/12 63/66/13
f 156/28/13 153/8/12 154/48/12 155/66/13
f 150/17/14 147/15/14 148/16/15 149/18/15
f 88/46/13 87/63/1 85/64/3 86/65/3
f 333/36/16 330/40/16 331/39/16 332/37/16
f 63/62/13 322/26/1 323/8/1 64/49/13
f 145/36/15 144/40/15 213/39/16 214/37/16
f 328/39/10 329/40/10 326/41/10 327/42/10
f 291/26/15 320/27/16 318/28/9 321/8/16
f 313/17/14 310/15/14 311/16/15 312/18/15
f 75/26/15 157/27/16 151/28/9 158/8/16
f 349/35/1 347/36/1 348/37/1 346/38/1
f 251/13/12 247/12/14 250/29/14 252/30/12
f 134/54/13 132/55/11 133/32/11 131/33/14
f 312/36/15 311/40/15 344/39/16 345/37/16
f 80/17/14 77/15/14 78/16/15 79/18/15
f 190/36/16 187/40/16 188/39/16 189/37/16
f 76/67/6 73/68/7 74/69/7 75/70/15
f 219/13/12 147/12/14 150/29/14 220/30/12
f 125/67/6 122/68/7 123/69/7 124/70/15
f 60/28/13 57/8/12 58/48/12 59/66/13
f 102/59/6 99/14/15 100/17/14 101/15/14
f 38/7/4 37/23/5 40/9/1 39/8/1
f 142/31/9 141/32/9 133/33/11 132/34/11
f 67/44/15 66/11/15 173/10/16 174/45/16
f 250/17/14 247/15/14 248/16/15 249/18/15
f 237/25/12 96/47/13 97/30/13 236/13/12
f 134/71/13 140/32/1 138/33/1 139/72/3
f 269/25/14 268/47/14 274/30/13 362/13/12
f 304/73/6 302/74/15 298/75/14 303/76/6
f 249/44/15 248/11/15 257/10/16 258/45/16
f 111/51/11 110/45/11 130/52/9 129/53/9
f 137/73/6 135/74/15 131/75/14 136/76/6
f 316/44/15 315/11/15 356/10/16 357/45/16
f 235/10/10 234/24/10 232/25/10 233/13/10
f 149/44/15 148/11/15 225/10/16 226/45/16
f 223/10/10 224/11/10 221/12/10 222/13/10
f 146/17/14 143/15/14 144/16/15 145/18/15
f 93/59/15 90/14/6 91/17/6 92/15/6
f 292/67/6 289/68/7 290/69/7 291/70/15
f 93/24/15 98/10/16 95/45/3 94/51/3
f 115/5/12 116/4/12 113/2/12 114/1/11
f 369/5/12 370/4/12 367/2/12 368/1/11
f 120/6/12 121/7/12 119/8/12 19/9/11
f 31/4/5 293/5/16 294/1/9 32/2/3
f 366/10/10 365/24/10 363/25/10 364/13/10
f 37/7/5 285/6/16 41/9/9 284/8/16
f 274/46/13 273/63/1 271/64/3 272/65/3
f 2/4/2 129/5/9 130/1/9 3/2/3
f 270/59/15 267/14/6 268/17/14 269/15/14
f 107/24/16 108/10/16 104/45/3 99/51/15
f 266/17/14 263/15/14 264/16/6 265/18/6
f 262/43/1 260/44/1 261/45/1 259/46/1
f 270/24/15 275/10/16 272/45/3 271/51/3
f 337/35/1 335/36/1 336/37/1 334/38/1
f 68/17/14 65/15/14 66/16/15 67/18/15
f 211/39/10 212/40/10 209/41/10 210/42/10
f 18/57/10 19/9/11 17/8/9 12/58/7
f 350/13/12 314/12/14 317/29/14 351/30/12
f 361/43/1 359/44/1 360/45/1 358/46/1
f 338/42/12 310/41/14 313/77/14 339/78/12
f 59/62/13 165/26/1 166/8/1 60/49/13
f 79/79/15 78/56/15 201/52/16 202/1/16
f 289/48/7 319/8/10 318/49/9 290/50/7
f 179/42/12 182/41/12 180/77/12 181/78/12
f 317/17/14 314/15/14 315/16/15 316/18/15
f 324/42/12 263/41/14 266/77/14 325/78/12
f 106/46/13 105/63/1 103/64/1 104/65/3
f 195/45/12 77/44/14 80/80/14 196/81/12
f 206/82/1 204/79/1 205/1/1 203/2/1
f 207/42/12 143/41/14 146/77/14 208/78/12
f 354/10/10 355/11/10 352/12/10 353/13/10
f 141/33/9 142/60/9 139/61/3 135/32/15
f 342/39/10 343/40/10 340/41/10 341/42/10
f 29/17/4 47/15/6 48/16/6 26/18/2
f 7/4/5 126/5/16 127/1/9 8/2/3
f 301/71/13 307/32/1 305/33/1 306/72/3
f 373/51/10 368/45/11 372/52/9 55/53/7
