# Blender 5.0.1
# www.blender.org
mtllib BP_Gate_7.mtl
o SK_Door_7.001
v 335.000000 -0.011650 0.419600
v 335.000000 -0.011650 327.745087
v 335.000000 12.488350 327.745087
v 335.000000 12.488350 0.419600
v 353.750000 -0.011650 0.419600
v 353.750000 -0.011650 327.745087
v 335.000000 -0.011650 327.745087
v 335.000000 -0.011650 0.419600
v 353.750000 -0.011650 327.745087
v 353.750000 -0.011650 0.419600
v 353.750000 12.488350 0.419600
v 353.750000 12.488350 327.745087
v 335.000000 12.488350 0.419600
v 353.750000 12.488350 327.745087
v 353.750000 12.488350 0.419600
v 335.000000 12.488350 327.745087
v 335.000000 -0.011650 327.745087
v 353.750000 -0.011650 327.745087
v 353.750000 12.488350 327.745087
v 335.000000 12.488350 327.745087
v 300.625000 -0.011650 0.419600
v 300.625000 -0.011650 327.745087
v 300.625000 12.488350 327.745087
v 300.625000 12.488350 0.419600
v 319.375000 -0.011650 0.419600
v 319.375000 -0.011650 327.745087
v 300.625000 -0.011650 327.745087
v 300.625000 -0.011650 0.419600
v 319.375000 -0.011650 327.745087
v 319.375000 -0.011650 0.419600
v 319.375000 12.488350 0.419600
v 319.375000 12.488350 327.745087
v 300.625000 12.488350 0.419600
v 319.375000 12.488350 327.745087
v 319.375000 12.488350 0.419600
v 300.625000 12.488350 327.745087
v 300.625000 -0.011650 327.745087
v 319.375000 -0.011650 327.745087
v 319.375000 12.488350 327.745087
v 300.625000 12.488350 327.745087
v 266.250000 -0.011650 0.419600
v 266.250000 -0.011650 327.745087
v 266.250000 12.488350 327.745087
v 266.250000 12.488350 0.419600
v 285.000000 -0.011650 0.419600
v 285.000000 -0.011650 327.745087
v 266.250000 -0.011650 327.745087
v 266.250000 -0.011650 0.419600
v 285.000000 -0.011650 327.745087
v 285.000000 -0.011650 0.419600
v 285.000000 12.488350 0.419600
v 285.000000 12.488350 327.745087
v 266.250000 12.488350 0.419600
v 285.000000 12.488350 327.745087
v 285.000000 12.488350 0.419600
v 266.250000 12.488350 327.745087
v 266.250000 -0.011650 327.745087
v 285.000000 -0.011650 327.745087
v 285.000000 12.488350 327.745087
v 266.250000 12.488350 327.745087
v 441.250000 -0.011650 0.419600
v 441.250000 -0.011650 327.745087
v 441.250000 12.488350 327.745087
v 441.250000 12.488350 0.419600
v 460.000000 -0.011650 0.419600
v 460.000000 -0.011650 327.745087
v 441.250000 -0.011650 327.745087
v 441.250000 -0.011650 0.419600
v 460.000000 -0.011650 327.745087
v 460.000000 -0.011650 0.419600
v 460.000000 12.488350 0.419600
v 460.000000 12.488350 327.745087
v 441.250000 12.488350 0.419600
v 460.000000 12.488350 327.745087
v 460.000000 12.488350 0.419600
v 441.250000 12.488350 327.745087
v 441.250000 -0.011650 327.745087
v 460.000000 -0.011650 327.745087
v 460.000000 12.488350 327.745087
v 441.250000 12.488350 327.745087
v 406.875000 -0.011650 0.419600
v 406.875000 -0.011650 327.745087
v 406.875000 12.488350 327.745087
v 406.875000 12.488350 0.419600
v 425.625000 -0.011650 0.419600
v 425.625000 -0.011650 327.745087
v 406.875000 -0.011650 327.745087
v 406.875000 -0.011650 0.419600
v 425.625000 -0.011650 327.745087
v 425.625000 -0.011650 0.419600
v 425.625000 12.488350 0.419600
v 425.625000 12.488350 327.745087
v 406.875000 12.488350 0.419600
v 425.625000 12.488350 327.745087
v 425.625000 12.488350 0.419600
v 406.875000 12.488350 327.745087
v 406.875000 -0.011650 327.745087
v 425.625000 -0.011650 327.745087
v 425.625000 12.488350 327.745087
v 406.875000 12.488350 327.745087
v 372.500000 -0.011650 0.419600
v 372.500000 -0.011650 327.745087
v 372.500000 12.488350 327.745087
v 372.500000 12.488350 0.419600
v 391.250000 -0.011650 0.419600
v 391.250000 -0.011650 327.745087
v 372.500000 -0.011650 327.745087
v 372.500000 -0.011650 0.419600
v 391.250000 -0.011650 327.745087
v 391.250000 -0.011650 0.419600
v 391.250000 12.488350 0.419600
v 391.250000 12.488350 327.745087
v 372.500000 12.488350 0.419600
v 391.250000 12.488350 327.745087
v 391.250000 12.488350 0.419600
v 372.500000 12.488350 327.745087
v 372.500000 -0.011650 327.745087
v 391.250000 -0.011650 327.745087
v 391.250000 12.488350 327.745087
v 372.500000 12.488350 327.745087
v 541.250000 -0.011650 0.419600
v 541.250000 -0.011650 327.745087
v 541.250000 12.488350 327.745087
v 541.250000 12.488350 0.419600
v 560.000000 -0.011650 0.419600
v 560.000000 -0.011650 327.745087
v 541.250000 -0.011650 327.745087
v 541.250000 -0.011650 0.419600
v 560.000000 -0.011650 327.745087
v 560.000000 -0.011650 0.419600
v 560.000000 12.488350 0.419600
v 560.000000 12.488350 327.745087
v 541.250000 12.488350 0.419600
v 560.000000 12.488350 327.745087
v 560.000000 12.488350 0.419600
v 541.250000 12.488350 327.745087
v 541.250000 -0.011650 327.745087
v 560.000000 -0.011650 327.745087
v 560.000000 12.488350 327.745087
v 541.250000 12.488350 327.745087
v 506.875000 -0.011650 0.419600
v 506.875000 -0.011650 327.745087
v 506.875000 12.488350 327.745087
v 506.875000 12.488350 0.419600
v 525.625000 -0.011650 0.419600
v 525.625000 -0.011650 327.745087
v 506.875000 -0.011650 327.745087
v 506.875000 -0.011650 0.419600
v 525.625000 -0.011650 327.745087
v 525.625000 -0.011650 0.419600
v 525.625000 12.488350 0.419600
v 525.625000 12.488350 327.745087
v 506.875000 12.488350 0.419600
v 525.625000 12.488350 327.745087
v 525.625000 12.488350 0.419600
v 506.875000 12.488350 327.745087
v 506.875000 -0.011650 327.745087
v 525.625000 -0.011650 327.745087
v 525.625000 12.488350 327.745087
v 506.875000 12.488350 327.745087
v 472.500000 -0.011650 0.419600
v 472.500000 -0.011650 327.745087
v 472.500000 12.488350 327.745087
v 472.500000 12.488350 0.419600
v 491.250000 -0.011650 0.419600
v 491.250000 -0.011650 327.745087
v 472.500000 -0.011650 327.745087
v 472.500000 -0.011650 0.419600
v 491.250000 -0.011650 327.745087
v 491.250000 -0.011650 0.419600
v 491.250000 12.488350 0.419600
v 491.250000 12.488350 327.745087
v 472.500000 12.488350 0.419600
v 491.250000 12.488350 327.745087
v 491.250000 12.488350 0.419600
v 472.500000 12.488350 327.745087
v 472.500000 -0.011650 327.745087
v 491.250000 -0.011650 327.745087
v 491.250000 12.488350 327.745087
v 472.500000 12.488350 327.745087
v 641.250000 -0.011650 0.419600
v 641.250000 -0.011650 327.745087
v 641.250000 12.488350 327.745087
v 641.250000 12.488350 0.419600
v 660.000000 -0.011650 0.419600
v 660.000000 -0.011650 327.745087
v 641.250000 -0.011650 327.745087
v 641.250000 -0.011650 0.419600
v 660.000000 -0.011650 327.745087
v 660.000000 -0.011650 0.419600
v 660.000000 12.488350 0.419600
v 660.000000 12.488350 327.745087
v 641.250000 12.488350 0.419600
v 660.000000 12.488350 327.745087
v 660.000000 12.488350 0.419600
v 641.250000 12.488350 327.745087
v 641.250000 -0.011650 327.745087
v 660.000000 -0.011650 327.745087
v 660.000000 12.488350 327.745087
v 641.250000 12.488350 327.745087
v 606.875000 -0.011650 0.419600
v 606.875000 -0.011650 327.745087
v 606.875000 12.488350 327.745087
v 606.875000 12.488350 0.419600
v 625.625000 -0.011650 0.419600
v 625.625000 -0.011650 327.745087
v 606.875000 -0.011650 327.745087
v 606.875000 -0.011650 0.419600
v 625.625000 -0.011650 327.745087
v 625.625000 -0.011650 0.419600
v 625.625000 12.488350 0.419600
v 625.625000 12.488350 327.745087
v 606.875000 12.488350 0.419600
v 625.625000 12.488350 327.745087
v 625.625000 12.488350 0.419600
v 606.875000 12.488350 327.745087
v 606.875000 -0.011650 327.745087
v 625.625000 -0.011650 327.745087
v 625.625000 12.488350 327.745087
v 606.875000 12.488350 327.745087
v 572.500000 -0.011650 0.419600
v 572.500000 -0.011650 327.745087
v 572.500000 12.488350 327.745087
v 572.500000 12.488350 0.419600
v 591.250000 -0.011650 0.419600
v 591.250000 -0.011650 327.745087
v 572.500000 -0.011650 327.745087
v 572.500000 -0.011650 0.419600
v 591.250000 -0.011650 327.745087
v 591.250000 -0.011650 0.419600
v 591.250000 12.488350 0.419600
v 591.250000 12.488350 327.745087
v 572.500000 12.488350 0.419600
v 591.250000 12.488350 327.745087
v 591.250000 12.488350 0.419600
v 572.500000 12.488350 327.745087
v 572.500000 -0.011650 327.745087
v 591.250000 -0.011650 327.745087
v 591.250000 12.488350 327.745087
v 572.500000 12.488350 327.745087
v 741.250000 -0.011650 0.419600
v 741.250000 -0.011650 327.745087
v 741.250000 12.488350 327.745087
v 741.250000 12.488350 0.419600
v 760.000000 -0.011650 0.419600
v 760.000000 -0.011650 327.745087
v 741.250000 -0.011650 327.745087
v 741.250000 -0.011650 0.419600
v 760.000000 -0.011650 327.745087
v 760.000000 -0.011650 0.419600
v 760.000000 12.488350 0.419600
v 760.000000 12.488350 327.745087
v 741.250000 12.488350 0.419600
v 760.000000 12.488350 327.745087
v 760.000000 12.488350 0.419600
v 741.250000 12.488350 327.745087
v 741.250000 -0.011650 327.745087
v 760.000000 -0.011650 327.745087
v 760.000000 12.488350 327.745087
v 741.250000 12.488350 327.745087
v 706.875000 -0.011650 0.419600
v 706.875000 -0.011650 327.745087
v 706.875000 12.488350 327.745087
v 706.875000 12.488350 0.419600
v 725.625000 -0.011650 0.419600
v 725.625000 -0.011650 327.745087
v 706.875000 -0.011650 327.745087
v 706.875000 -0.011650 0.419600
v 725.625000 -0.011650 327.745087
v 725.625000 -0.011650 0.419600
v 725.625000 12.488350 0.419600
v 725.625000 12.488350 327.745087
v 706.875000 12.488350 0.419600
v 725.625000 12.488350 327.745087
v 725.625000 12.488350 0.419600
v 706.875000 12.488350 327.745087
v 706.875000 -0.011650 327.745087
v 725.625000 -0.011650 327.745087
v 725.625000 12.488350 327.745087
v 706.875000 12.488350 327.745087
v 672.500000 -0.011650 0.419600
v 672.500000 -0.011650 327.745087
v 672.500000 12.488350 327.745087
v 672.500000 12.488350 0.419600
v 691.250000 -0.011650 0.419600
v 691.250000 -0.011650 327.745087
v 672.500000 -0.011650 327.745087
v 672.500000 -0.011650 0.419600
v 691.250000 -0.011650 327.745087
v 691.250000 -0.011650 0.419600
v 691.250000 12.488350 0.419600
v 691.250000 12.488350 327.745087
v 672.500000 12.488350 0.419600
v 691.250000 12.488350 327.745087
v 691.250000 12.488350 0.419600
v 672.500000 12.488350 327.745087
v 672.500000 -0.011650 327.745087
v 691.250000 -0.011650 327.745087
v 691.250000 12.488350 327.745087
v 672.500000 12.488350 327.745087
v 835.000000 -0.011650 0.419600
v 835.000000 -0.011650 327.745087
v 835.000000 12.488350 327.745087
v 835.000000 12.488350 0.419600
v 853.750000 -0.011650 0.419600
v 853.750000 -0.011650 327.745087
v 835.000000 -0.011650 327.745087
v 835.000000 -0.011650 0.419600
v 853.750000 -0.011650 327.745087
v 853.750000 -0.011650 0.419600
v 853.750000 12.488350 0.419600
v 853.750000 12.488350 327.745087
v 835.000000 12.488350 0.419600
v 853.750000 12.488350 327.745087
v 853.750000 12.488350 0.419600
v 835.000000 12.488350 327.745087
v 835.000000 -0.011650 327.745087
v 853.750000 -0.011650 327.745087
v 853.750000 12.488350 327.745087
v 835.000000 12.488350 327.745087
v 800.625000 -0.011650 0.419600
v 800.625000 -0.011650 327.745087
v 800.625000 12.488350 327.745087
v 800.625000 12.488350 0.419600
v 819.375000 -0.011650 0.419600
v 819.375000 -0.011650 327.745087
v 800.625000 -0.011650 327.745087
v 800.625000 -0.011650 0.419600
v 819.375000 -0.011650 327.745087
v 819.375000 -0.011650 0.419600
v 819.375000 12.488350 0.419600
v 819.375000 12.488350 327.745087
v 800.625000 12.488350 0.419600
v 819.375000 12.488350 327.745087
v 819.375000 12.488350 0.419600
v 800.625000 12.488350 327.745087
v 800.625000 -0.011650 327.745087
v 819.375000 -0.011650 327.745087
v 819.375000 12.488350 327.745087
v 800.625000 12.488350 327.745087
v 766.250000 -0.011650 0.419600
v 766.250000 -0.011650 327.745087
v 766.250000 12.488350 327.745087
v 766.250000 12.488350 0.419600
v 785.000000 -0.011650 0.419600
v 785.000000 -0.011650 327.745087
v 766.250000 -0.011650 327.745087
v 766.250000 -0.011650 0.419600
v 785.000000 -0.011650 327.745087
v 785.000000 -0.011650 0.419600
v 785.000000 12.488350 0.419600
v 785.000000 12.488350 327.745087
v 766.250000 12.488350 0.419600
v 785.000000 12.488350 327.745087
v 785.000000 12.488350 0.419600
v 766.250000 12.488350 327.745087
v 766.250000 -0.011650 327.745087
v 785.000000 -0.011650 327.745087
v 785.000000 12.488350 327.745087
v 766.250000 12.488350 327.745087
v 941.250000 -0.011650 0.419600
v 941.250000 -0.011650 327.745087
v 941.250000 12.488350 327.745087
v 941.250000 12.488350 0.419600
v 960.000000 -0.011650 0.419600
v 960.000000 -0.011650 327.745087
v 941.250000 -0.011650 327.745087
v 941.250000 -0.011650 0.419600
v 960.000000 -0.011650 327.745087
v 960.000000 -0.011650 0.419600
v 960.000000 12.488350 0.419600
v 960.000000 12.488350 327.745087
v 941.250000 12.488350 0.419600
v 960.000000 12.488350 327.745087
v 960.000000 12.488350 0.419600
v 941.250000 12.488350 327.745087
v 941.250000 -0.011650 327.745087
v 960.000000 -0.011650 327.745087
v 960.000000 12.488350 327.745087
v 941.250000 12.488350 327.745087
v 906.875000 -0.011650 0.419600
v 906.875000 -0.011650 327.745087
v 906.875000 12.488350 327.745087
v 906.875000 12.488350 0.419600
v 925.625000 -0.011650 0.419600
v 925.625000 -0.011650 327.745087
v 906.875000 -0.011650 327.745087
v 906.875000 -0.011650 0.419600
v 925.625000 -0.011650 327.745087
v 925.625000 -0.011650 0.419600
v 925.625000 12.488350 0.419600
v 925.625000 12.488350 327.745087
v 906.875000 12.488350 0.419600
v 925.625000 12.488350 327.745087
v 925.625000 12.488350 0.419600
v 906.875000 12.488350 327.745087
v 906.875000 -0.011650 327.745087
v 925.625000 -0.011650 327.745087
v 925.625000 12.488350 327.745087
v 906.875000 12.488350 327.745087
v 872.500000 -0.011650 0.419600
v 872.500000 -0.011650 327.745087
v 872.500000 12.488350 327.745087
v 872.500000 12.488350 0.419600
v 891.250000 -0.011650 0.419600
v 891.250000 -0.011650 327.745087
v 872.500000 -0.011650 327.745087
v 872.500000 -0.011650 0.419600
v 891.250000 -0.011650 327.745087
v 891.250000 -0.011650 0.419600
v 891.250000 12.488350 0.419600
v 891.250000 12.488350 327.745087
v 872.500000 12.488350 0.419600
v 891.250000 12.488350 327.745087
v 891.250000 12.488350 0.419600
v 872.500000 12.488350 327.745087
v 872.500000 -0.011650 327.745087
v 891.250000 -0.011650 327.745087
v 891.250000 12.488350 327.745087
v 872.500000 12.488350 327.745087
v 260.000000 -12.511650 -0.001247
v 360.000000 -12.511650 -0.001247
v 260.000000 -12.511650 6.248753
v 360.000000 -12.511650 6.248753
v 360.000000 -12.511650 -0.001247
v 360.000000 24.988350 -0.001247
v 360.000000 -12.511650 6.248753
v 360.000000 24.988350 6.248753
v 260.000000 24.988350 -0.001247
v 360.000000 24.988350 6.248753
v 360.000000 24.988350 -0.001247
v 260.000000 24.988350 6.248753
v 260.000000 -12.511650 6.248753
v 260.000000 24.988350 6.248753
v 260.000000 -12.511650 -0.001247
v 260.000000 24.988350 -0.001247
v 360.000000 -12.511650 6.248753
v 260.000000 24.988350 6.248753
v 260.000000 -12.511650 6.248753
v 360.000000 24.988350 6.248753
v 460.000000 -12.511650 -0.001247
v 460.000000 -12.511650 6.248753
v 460.000000 -12.511650 -0.001247
v 460.000000 24.988350 -0.001247
v 460.000000 -12.511650 6.248753
v 460.000000 24.988350 6.248753
v 460.000000 24.988350 6.248753
v 460.000000 24.988350 -0.001247
v 360.000000 -12.511650 6.248753
v 360.000000 24.988350 6.248753
v 360.000000 -12.511650 -0.001247
v 360.000000 24.988350 -0.001247
v 460.000000 -12.511650 6.248753
v 460.000000 24.988350 6.248753
v 560.000000 -12.511650 -0.001247
v 660.000000 -12.511650 -0.001247
v 560.000000 -12.511650 6.248753
v 660.000000 -12.511650 6.248753
v 660.000000 -12.511650 -0.001247
v 660.000000 24.988350 -0.001247
v 660.000000 -12.511650 6.248753
v 660.000000 24.988350 6.248753
v 560.000000 24.988350 -0.001247
v 660.000000 24.988350 6.248753
v 660.000000 24.988350 -0.001247
v 560.000000 24.988350 6.248753
v 560.000000 -12.511650 6.248753
v 560.000000 24.988350 6.248753
v 560.000000 -12.511650 -0.001247
v 560.000000 24.988350 -0.001247
v 660.000000 -12.511650 6.248753
v 560.000000 24.988350 6.248753
v 560.000000 -12.511650 6.248753
v 660.000000 24.988350 6.248753
v 560.000000 -12.511650 -0.001247
v 560.000000 24.988350 -0.001247
v 560.000000 -12.511650 6.248753
v 560.000000 24.988350 6.248753
v 460.000000 -12.511650 6.248753
v 460.000000 24.988350 6.248753
v 460.000000 -12.511650 -0.001247
v 460.000000 24.988350 -0.001247
v 760.000000 -12.511650 -0.001247
v 760.000000 -12.511650 6.248753
v 760.000000 -12.511650 -0.001247
v 760.000000 24.988350 -0.001247
v 760.000000 -12.511650 6.248753
v 760.000000 24.988350 6.248753
v 760.000000 24.988350 6.248753
v 760.000000 24.988350 -0.001247
v 660.000000 -12.511650 6.248753
v 660.000000 24.988350 6.248753
v 660.000000 -12.511650 -0.001247
v 660.000000 24.988350 -0.001247
v 760.000000 -12.511650 6.248753
v 760.000000 24.988350 6.248753
v 860.000000 -12.511650 -0.001247
v 860.000000 -12.511650 6.248753
v 860.000000 -12.511650 -0.001247
v 860.000000 24.988350 -0.001247
v 860.000000 -12.511650 6.248753
v 860.000000 24.988350 6.248753
v 860.000000 24.988350 6.248753
v 860.000000 24.988350 -0.001247
v 760.000000 -12.511650 6.248753
v 760.000000 24.988350 6.248753
v 760.000000 -12.511650 -0.001247
v 760.000000 24.988350 -0.001247
v 860.000000 -12.511650 6.248753
v 860.000000 24.988350 6.248753
v 960.000000 -12.511650 -0.001247
v 960.000000 -12.511650 6.248753
v 960.000000 -12.511650 -0.001247
v 960.000000 24.988350 -0.001247
v 960.000000 -12.511650 6.248753
v 960.000000 24.988350 6.248753
v 960.000000 24.988350 6.248753
v 960.000000 24.988350 -0.001247
v 860.000000 -12.511650 6.248753
v 860.000000 24.988350 6.248753
v 860.000000 -12.511650 -0.001247
v 860.000000 24.988350 -0.001247
v 960.000000 -12.511650 6.248753
v 960.000000 24.988350 6.248753
v 960.000000 -12.511650 6.248753
v 960.000000 24.988350 6.248753
v 960.000000 -12.511650 -0.001247
v 960.000000 24.988350 -0.001247
vn -1.0000 -0.0000 -0.0000
vn -0.0000 -1.0000 -0.0000
vn 1.0000 -0.0000 -0.0000
vn -0.0000 1.0000 -0.0000
vn -0.0000 -0.0000 1.0000
vt 0.718262 0.469238
vt 0.749512 0.469238
vt 0.750000 0.968765
vt 0.718750 0.968765
vt 0.218628 0.000488
vt 0.312256 0.000488
vt 0.312500 0.999969
vt 0.218750 0.999969
vt 0.343750 0.000488
vt 0.343506 0.999969
vt 0.562500 0.093750
vt 0.500000 0.093750
vt 0.500000 0.000000
vt 0.562500 0.000000
vt 0.218628 0.999969
vt 0.218750 0.000488
vt 0.530762 0.468750
vt 0.531250 0.968750
vt 0.499756 0.968765
vt 0.499756 0.469238
vt 0.343750 0.999969
vt 0.343506 0.000000
vt 0.187378 0.000488
vt 0.187500 0.999969
vt 0.281250 0.999969
vt 0.250000 0.999969
vt 0.249878 0.000488
vt 0.281006 0.000000
vt 0.093689 0.000488
vt 0.093750 0.999969
vt 0.124939 0.000488
vt 0.156250 0.000488
vt 0.156128 0.999969
vt 0.125000 0.999969
vt 0.468750 0.999969
vt 0.437500 0.999969
vt 0.437256 0.000488
vt 0.468506 0.000000
vt 0.718262 0.468750
vt 0.530762 0.437988
vt 0.718262 0.437988
vt 0.031235 0.000488
vt 0.031250 0.999969
vt 0.718262 0.999969
vt 0.531250 0.999969
vt 0.718262 0.968765
vt 0.718262 0.968750
vt 0.531250 0.468750
s 1
usemtl material_0
f 455/1/2 457/2/2 442/3/2 441/4/2
f 356/5/4 354/6/4 355/7/4 353/8/4
f 292/6/3 289/9/3 290/10/3 291/7/3
f 260/11/5 257/12/5 258/13/5 259/14/5
f 420/11/5 417/12/5 418/13/5 419/14/5
f 387/6/2 388/7/2 385/15/2 386/16/2
f 464/17/4 489/18/4 490/19/4 465/20/4
f 324/21/1 321/7/1 322/6/1 323/22/1
f 180/11/5 177/12/5 178/13/5 179/14/5
f 272/23/3 269/16/3 270/15/3 271/24/3
f 212/23/3 209/16/3 210/15/3 211/24/3
f 430/17/4 447/18/4 448/19/4 431/20/4
f 244/25/1 241/26/1 242/27/1 243/28/1
f 100/11/5 97/12/5 98/13/5 99/14/5
f 276/29/4 274/23/4 275/24/4 273/30/4
f 132/31/3 129/32/3 130/33/3 131/34/3
f 127/27/2 128/26/2 125/33/2 126/32/2
f 84/21/1 81/7/1 82/6/1 83/22/1
f 340/11/5 337/12/5 338/13/5 339/14/5
f 164/35/1 161/36/1 162/37/1 163/38/1
f 12/31/3 9/32/3 10/33/3 11/34/3
f 502/39/3 501/17/3 499/40/3 500/41/3
f 404/35/1 401/36/1 402/37/1 403/38/1
f 196/42/4 194/31/4 195/34/4 193/43/4
f 7/27/2 8/26/2 5/33/2 6/32/2
f 116/5/4 114/6/4 115/7/4 113/8/4
f 462/39/3 461/17/3 459/40/3 460/41/3
f 227/37/2 228/36/2 225/10/2 226/9/2
f 20/11/5 17/12/5 18/13/5 19/14/5
f 187/27/2 188/26/2 185/33/2 186/32/2
f 256/42/4 254/31/4 255/34/4 253/43/4
f 4/25/1 1/26/1 2/27/1 3/28/1
f 16/42/4 14/31/4 15/34/4 13/43/4
f 140/11/5 137/12/5 138/13/5 139/14/5
f 60/11/5 57/12/5 58/13/5 59/14/5
f 511/1/2 512/2/2 498/3/2 497/4/2
f 184/25/1 181/26/1 182/27/1 183/28/1
f 156/29/4 154/23/4 155/24/4 153/30/4
f 36/29/4 34/23/4 35/24/4 33/30/4
f 296/5/4 294/6/4 295/7/4 293/8/4
f 32/23/3 29/16/3 30/15/3 31/24/3
f 172/6/3 169/9/3 170/10/3 171/7/3
f 76/42/4 74/31/4 75/34/4 73/43/4
f 327/6/2 328/7/2 325/15/2 326/16/2
f 72/31/3 69/32/3 70/33/3 71/34/3
f 40/11/5 37/12/5 38/13/5 39/14/5
f 44/35/1 41/36/1 42/37/1 43/38/1
f 360/11/5 357/12/5 358/13/5 359/14/5
f 24/21/1 21/7/1 22/6/1 23/22/1
f 204/21/1 201/7/1 202/6/1 203/22/1
f 92/23/3 89/16/3 90/15/3 91/24/3
f 392/23/3 389/16/3 390/15/3 391/24/3
f 56/5/4 54/6/4 55/7/4 53/8/4
f 220/11/5 217/12/5 218/13/5 219/14/5
f 52/6/3 49/9/3 50/10/3 51/7/3
f 422/1/2 424/2/2 423/3/2 421/4/2
f 47/37/2 48/36/2 45/10/2 46/9/2
f 236/5/4 234/6/4 235/7/4 233/8/4
f 107/37/2 108/36/2 105/10/2 106/9/2
f 452/44/1 451/45/1 449/18/1 450/46/1
f 104/35/1 101/36/1 102/37/1 103/38/1
f 192/31/3 189/32/3 190/33/3 191/34/3
f 478/39/3 477/17/3 475/40/3 476/41/3
f 27/6/2 28/7/2 25/15/2 26/16/2
f 510/39/5 496/47/5 495/18/5 509/48/5
f 87/6/2 88/7/2 85/15/2 86/16/2
f 494/44/1 493/45/1 491/18/1 492/46/1
f 67/27/2 68/26/2 65/33/2 66/32/2
f 64/25/1 61/26/1 62/27/1 63/28/1
f 144/21/1 141/7/1 142/6/1 143/22/1
f 516/39/3 515/17/3 513/40/3 514/41/3
f 280/11/5 277/12/5 278/13/5 279/14/5
f 136/42/4 134/31/4 135/34/4 133/43/4
f 287/37/2 288/36/2 285/10/2 286/9/2
f 284/35/1 281/36/1 282/37/1 283/38/1
f 503/17/4 517/18/4 518/19/4 504/20/4
f 252/31/3 249/32/3 250/33/3 251/34/3
f 160/11/5 157/12/5 158/13/5 159/14/5
f 300/11/5 297/12/5 298/13/5 299/14/5
f 312/31/3 309/32/3 310/33/3 311/34/3
f 152/23/3 149/16/3 150/15/3 151/24/3
f 320/11/5 317/12/5 318/13/5 319/14/5
f 316/42/4 314/31/4 315/34/4 313/43/4
f 304/25/1 301/26/1 302/27/1 303/28/1
f 80/11/5 77/12/5 78/13/5 79/14/5
f 176/5/4 174/6/4 175/7/4 173/8/4
f 332/23/3 329/16/3 330/15/3 331/24/3
f 344/35/1 341/36/1 342/37/1 343/38/1
f 167/37/2 168/36/2 165/10/2 166/9/2
f 352/6/3 349/9/3 350/10/3 351/7/3
f 347/37/2 348/36/2 345/10/2 346/9/2
f 336/29/4 334/23/4 335/24/4 333/30/4
f 522/44/1 521/45/1 519/18/1 520/46/1
f 447/17/4 466/18/4 463/19/4 448/20/4
f 364/25/1 361/26/1 362/27/1 363/28/1
f 247/27/2 248/26/2 245/33/2 246/32/2
f 120/11/5 117/12/5 118/13/5 119/14/5
f 384/21/1 381/7/1 382/6/1 383/22/1
f 380/11/5 377/12/5 378/13/5 379/14/5
f 367/27/2 368/26/2 365/33/2 366/32/2
f 96/29/4 94/23/4 95/24/4 93/30/4
f 207/6/2 208/7/2 205/15/2 206/16/2
f 396/29/4 394/23/4 395/24/4 393/30/4
f 407/37/2 408/36/2 405/10/2 406/9/2
f 200/11/5 197/12/5 198/13/5 199/14/5
f 416/5/4 414/6/4 415/7/4 413/8/4
f 412/6/3 409/9/3 410/10/3 411/7/3
f 400/11/5 397/12/5 398/13/5 399/14/5
f 372/31/3 369/32/3 370/33/3 371/34/3
f 224/35/1 221/36/1 222/37/1 223/38/1
f 428/39/3 427/17/3 425/40/3 426/41/3
f 440/39/5 438/47/5 439/18/5 437/48/5
f 216/29/4 214/23/4 215/24/4 213/30/4
f 446/39/3 445/17/3 443/40/3 444/41/3
f 441/1/2 442/2/2 424/3/2 422/4/2
f 432/17/4 430/18/4 431/19/4 429/20/4
f 112/6/3 109/9/3 110/10/3 111/7/3
f 240/11/5 237/12/5 238/13/5 239/14/5
f 454/39/5 440/47/5 437/18/5 453/48/5
f 466/17/4 464/18/4 465/19/4 463/20/4
f 232/6/3 229/9/3 230/10/3 231/7/3
f 474/39/5 472/47/5 473/18/5 471/48/5
f 470/44/1 469/45/1 467/18/1 468/46/1
f 456/1/2 458/2/2 457/3/2 455/4/2
f 436/44/1 435/45/1 433/18/1 434/46/1
f 524/39/5 510/47/5 509/18/5 523/48/5
f 307/27/2 308/26/2 305/33/2 306/32/2
f 147/6/2 148/7/2 145/15/2 146/16/2
f 488/39/3 487/17/3 485/40/3 486/41/3
f 376/42/4 374/31/4 375/34/4 373/43/4
f 482/44/1 481/45/1 479/18/1 480/46/1
f 124/25/1 121/26/1 122/27/1 123/28/1
f 267/6/2 268/7/2 265/15/2 266/16/2
f 496/39/5 474/47/5 471/18/5 495/48/5
f 489/17/4 503/18/4 504/19/4 490/20/4
f 508/44/1 507/45/1 505/18/1 506/46/1
f 497/1/2 498/2/2 484/3/2 483/4/2
f 472/39/5 454/47/5 453/18/5 473/48/5
f 483/1/2 484/2/2 458/3/2 456/4/2
f 264/21/1 261/7/1 262/6/1 263/22/1
f 528/44/1 527/45/1 525/18/1 526/46/1
