# Blender 5.0.1
# www.blender.org
mtllib BP_GS_Lantern_Wall_03.mtl
o SM_GS_Lantern_Wall_03.001
v 91.241669 -21.873739 8.660053
v 91.243103 -21.874996 -35.089951
v 91.243103 21.870014 -35.089951
v 91.243210 21.879999 8.660053
v 91.241669 -21.873739 8.660053
v 60.041840 -21.877489 8.660053
v 60.014999 -21.874998 -35.089951
v 91.243103 -21.874996 -35.089951
v 60.014999 21.872515 -35.089951
v 60.048096 21.877514 8.660053
v 91.243210 21.879999 8.660053
v 91.243103 21.870014 -35.089951
v 60.000000 28.125000 65.000000
v 60.000000 15.625011 65.000000
v 97.529968 15.630001 65.000000
v 97.529984 28.125002 65.000008
v 97.529984 -28.125002 8.660053
v 97.529968 -28.122492 65.000000
v 60.000000 -28.124990 65.000000
v 60.040588 -28.124998 8.660053
v 97.529984 28.125002 65.000008
v 97.529984 28.125002 8.660053
v 60.034348 28.124998 8.660053
v 60.000000 28.125000 65.000000
v 91.243210 21.879999 8.660053
v 60.048096 21.877514 8.660053
v 60.034348 28.124998 8.660053
v 97.529984 28.125002 8.660053
v 97.529984 -28.125002 8.660053
v 91.241669 -21.873739 8.660053
v 97.529968 -15.624991 65.000000
v 85.000000 15.630011 65.000000
v 85.000000 -15.624998 65.000000
v 60.040588 -28.124998 8.660053
v 60.041840 -21.877489 8.660053
v 85.000000 -15.624998 65.000000
v 85.000000 15.630011 65.000000
v 85.000000 15.625030 21.250011
v 85.000000 -15.624992 21.250011
v 85.000000 -15.624992 21.250011
v 60.040588 -15.624988 21.250011
v 60.000000 -15.624991 65.000000
v 85.000000 -15.624998 65.000000
v 85.000000 15.625030 21.250011
v 85.000000 15.630011 65.000000
v 60.000000 15.625011 65.000000
v 60.040588 15.625035 21.250011
v 91.243103 21.870014 -35.089951
v 91.243103 -21.874996 -35.089951
v 60.014999 -21.874998 -35.089951
v 60.014999 21.872515 -35.089951
v 60.040588 -15.624988 21.250011
v 85.000000 -15.624992 21.250011
v 85.000000 15.625030 21.250011
v 60.040588 15.625035 21.250011
v 60.000000 -15.624991 65.000000
v 60.000000 -28.124990 65.000000
v 97.529968 -28.122492 65.000000
v 97.529968 -15.624991 65.000000
v 97.529968 -28.122492 65.000000
v 97.529984 -28.125002 8.660053
v 97.529968 15.630001 65.000000
v 97.529984 28.125002 8.660053
v 97.529984 28.125002 65.000008
vn 1.0000 -0.0000 -0.0000
vn 0.0001 -1.0000 -0.0000
vn -0.0000 1.0000 -0.0002
vn -0.0000 -0.0000 1.0000
vn -0.0000 -1.0000 -0.0000
vn -0.0000 1.0000 -0.0000
vn -0.0000 -0.0000 -1.0000
vn -1.0000 -0.0000 -0.0000
vn 0.0001 -1.0000 0.0001
vt 0.882812 0.148438
vt 0.882812 0.218750
vt 0.835938 0.218750
vt 0.835938 0.148438
vt 0.765625 0.218750
vt 0.765625 0.148438
vt 0.718750 0.148438
vt 0.718750 0.218750
vt 0.984375 0.218750
vt 0.984375 0.164062
vt 0.953125 0.164062
vt 0.953125 0.218750
vt 0.843750 0.085938
vt 0.843750 0.140625
vt 0.789062 0.140625
vt 0.789062 0.085938
vt 0.914062 0.218750
vt 0.882812 0.164062
vt 0.914062 0.164062
vt 0.750000 0.085938
vt 0.750000 0.140625
vt 0.882812 0.140625
vt 0.828125 0.140625
vt 0.773438 0.140625
vt 0.835938 0.234375
vt 0.882812 0.234375
vt 0.757812 0.140625
vt 0.718750 0.140625
vt 0.789062 0.234375
vt 0.789062 0.218750
vt 0.882812 0.085938
vt 0.914062 0.148438
vt 0.953125 0.148438
vt 0.843750 0.062500
vt 0.789062 0.062500
vt 0.781250 0.218750
vt 0.820312 0.218750
vt 0.953125 0.250000
vt 0.914062 0.250000
s 1
usemtl MI_GaleSanctum_Props
f 23/1/6 24/2/6 21/3/6 22/4/6
f 19/5/5 20/6/5 17/7/5 18/8/5
f 46/9/9 47/10/9 44/11/9 45/12/9
f 3/13/1 4/14/1 1/15/1 2/16/1
f 42/17/6 43/2/6 40/18/6 41/19/6
f 7/16/2 8/20/2 5/21/2 6/15/2
f 27/1/7 25/14/7 26/22/7
f 25/14/7 27/1/7 28/4/7
f 29/6/7 25/23/7 28/4/7
f 25/23/7 29/6/7 30/24/7
f 58/25/4 31/3/4 56/2/4 57/26/4
f 34/7/7 30/27/7 29/6/7
f 30/27/7 34/7/7 35/28/7
f 15/29/4 16/30/4 13/3/4 14/25/4
f 11/14/3 12/13/3 9/31/3 10/22/3
f 38/11/8 39/19/8 36/17/8 37/12/8
f 32/11/4 33/19/4 31/32/4 15/33/4
f 50/16/7 51/13/7 48/34/7 49/35/7
f 61/6/1 59/36/1 60/5/1
f 61/6/1 62/37/1 59/36/1
f 63/4/1 62/37/1 61/6/1
f 64/3/1 62/37/1 63/4/1
f 54/38/4 55/12/4 52/17/4 53/39/4
