# Blender 5.0.1
# www.blender.org
mtllib BP_HH_Well_Door.mtl
o SM_WellBig.001
v 200.000000 -50.000175 99.999741
v -0.000008 -50.000175 99.999741
v -0.000008 -50.000008 -0.000261
v 200.000000 -50.000008 -0.000261
v 175.000000 124.999969 12.500039
v 25.000008 -25.000015 12.499782
v 175.000000 -25.000015 12.499782
v 25.000008 124.999969 12.500039
v 200.000000 150.000000 0.000082
v -0.000008 150.000000 0.000082
v -0.000008 149.999847 100.000076
v 200.000000 149.999847 100.000076
v 200.000000 149.999847 100.000076
v 200.000000 -50.000175 99.999741
v 200.000000 -50.000008 -0.000261
v 200.000000 150.000000 0.000082
v -0.000008 -50.000175 99.999741
v -0.000008 150.000000 0.000082
v -0.000008 -50.000008 -0.000261
v -0.000008 149.999847 100.000076
v 175.000000 -25.000015 12.499782
v 25.000008 -25.000015 12.499782
v 25.000008 -25.000160 99.999779
v 175.000000 -25.000160 99.999779
v 175.000000 -25.000015 12.499782
v 175.000000 -25.000160 99.999779
v 175.000000 124.999969 12.500039
v 175.000000 124.999825 100.000038
v 25.000008 124.999825 100.000038
v 25.000008 124.999969 12.500039
v 175.000000 124.999825 100.000038
v 175.000000 124.999969 12.500039
v 25.000008 -25.000015 12.499782
v 25.000008 124.999825 100.000038
v 25.000008 -25.000160 99.999779
v 25.000008 124.999969 12.500039
v 237.500000 -75.000389 224.999695
v -37.500000 -75.000389 224.999695
v -37.500000 -56.250389 224.999725
v 237.500000 -56.250389 224.999725
v 237.500000 31.249430 331.249878
v -37.500000 31.249430 331.249878
v -37.500000 -75.000389 224.999695
v 237.500000 -75.000389 224.999695
v 237.500000 -56.250389 224.999725
v -37.500000 -56.250389 224.999725
v -37.500000 31.249464 312.499878
v 237.500000 31.249464 312.499878
v 237.500000 31.249430 331.249878
v 237.500000 -56.250389 224.999725
v 237.500000 31.249464 312.499878
v 237.500000 -75.000389 224.999695
v -37.500000 31.249430 331.249878
v -37.500000 -56.250389 224.999725
v -37.500000 -75.000389 224.999695
v -37.500000 31.249464 312.499878
v 225.000000 68.749557 256.249939
v 225.000000 124.999565 256.250031
v 200.000000 68.749557 256.249939
v 200.000000 124.999565 256.250031
v 200.000000 143.749603 237.500076
v 225.000000 68.749580 237.499939
v 200.000000 68.749580 237.499939
v 225.000000 143.749603 237.500076
v 200.000000 124.999565 256.250031
v 200.000000 68.749580 237.499939
v 200.000000 68.749557 256.249939
v 200.000000 143.749603 237.500076
v 225.000000 68.749580 237.499939
v 225.000000 124.999565 256.250031
v 225.000000 68.749557 256.249939
v 225.000000 143.749603 237.500076
v 200.000000 31.249464 312.499878
v 200.000000 31.250000 -0.000122
v 225.000000 31.249464 312.499878
v 225.000000 31.250000 -0.000122
v 200.000000 68.750000 -0.000057
v 200.000000 68.749466 312.499939
v 225.000000 68.750000 -0.000057
v 225.000000 68.749466 312.499939
v 225.000000 68.750000 -0.000057
v 225.000000 68.749466 312.499939
v 225.000000 31.250000 -0.000122
v 225.000000 31.249464 312.499878
v 200.000000 31.249464 312.499878
v 200.000000 68.750000 -0.000057
v 200.000000 31.250000 -0.000122
v 200.000000 68.749466 312.499939
v 218.750000 68.749657 181.249939
v 218.750000 124.999565 237.500015
v 206.250000 68.749657 181.249939
v 206.250000 124.999565 237.500015
v 206.250000 68.749695 162.499939
v 206.250000 143.749603 237.500107
v 218.750000 68.749695 162.499939
v 218.750000 143.749603 237.500107
v 218.750000 124.999565 237.500015
v 218.750000 68.749695 162.499939
v 218.750000 143.749603 237.500107
v 218.750000 68.749657 181.249939
v 206.250000 124.999565 237.500015
v 206.250000 68.749695 162.499939
v 206.250000 68.749657 181.249939
v 206.250000 143.749603 237.500107
v 225.000000 -25.000450 256.249786
v 225.000000 31.249565 256.249878
v 200.000000 -25.000450 256.249786
v 200.000000 31.249565 256.249878
v 200.000000 -43.750404 237.499741
v 200.000000 31.249609 237.499878
v 225.000000 -43.750404 237.499741
v 225.000000 31.249609 237.499878
v 225.000000 -43.750404 237.499741
v 225.000000 31.249609 237.499878
v 225.000000 -25.000450 256.249786
v 225.000000 31.249565 256.249878
v 200.000000 31.249609 237.499878
v 200.000000 -25.000450 256.249786
v 200.000000 31.249565 256.249878
v 200.000000 -43.750404 237.499741
v 218.750000 -25.000374 237.499771
v 218.750000 31.249720 181.249878
v 206.250000 -25.000374 237.499771
v 206.250000 31.249720 181.249878
v 206.250000 -43.750420 237.499771
v 206.250000 31.249752 162.499878
v 218.750000 -43.750420 237.499771
v 218.750000 31.249752 162.499878
v 206.250000 31.249752 162.499878
v 206.250000 -25.000374 237.499771
v 206.250000 31.249720 181.249878
v 206.250000 -43.750420 237.499771
v 218.750000 -25.000374 237.499771
v 218.750000 31.249752 162.499878
v 218.750000 31.249720 181.249878
v 218.750000 -43.750420 237.499771
v -50.000015 31.249401 349.999878
v 250.000015 31.249464 312.499969
v 250.000015 31.249401 349.999878
v -50.000015 31.249464 312.499969
v -50.000015 68.749405 349.999939
v 250.000015 68.749405 349.999939
v -50.000015 68.749466 312.500031
v 250.000015 68.749466 312.500031
v 250.000015 68.749405 349.999939
v -50.000015 68.749405 349.999939
v 250.000015 31.249401 349.999878
v -50.000015 31.249401 349.999878
v -50.000015 31.249464 312.499969
v 250.000015 68.749466 312.500031
v 250.000015 31.249464 312.499969
v -50.000015 68.749466 312.500031
v 250.000015 31.249401 349.999878
v 250.000015 31.249464 312.499969
v 250.000015 68.749405 349.999939
v 250.000015 68.749466 312.500031
v -50.000015 31.249401 349.999878
v -50.000015 68.749466 312.500031
v -50.000015 31.249464 312.499969
v -50.000015 68.749405 349.999939
v 237.500000 156.249603 225.000092
v -37.500000 156.249603 225.000092
v -37.500000 174.999603 225.000122
v 237.500000 174.999603 225.000122
v 237.500000 174.999603 225.000122
v -37.500000 174.999603 225.000122
v -37.500000 68.749435 331.249939
v 237.500000 68.749435 331.249939
v -37.500000 156.249603 225.000092
v 237.500000 68.749466 312.499939
v -37.500000 68.749466 312.499939
v 237.500000 156.249603 225.000092
v -37.500000 68.749435 331.249939
v -37.500000 174.999603 225.000122
v -37.500000 156.249603 225.000092
v -37.500000 68.749466 312.499939
v 237.500000 68.749435 331.249939
v 237.500000 156.249603 225.000092
v 237.500000 174.999603 225.000122
v 237.500000 68.749466 312.499939
v 0.000000 -25.000450 256.249786
v 0.000000 31.249565 256.249878
v -25.000000 -25.000450 256.249786
v -25.000000 31.249565 256.249878
v -25.000000 -43.750404 237.499741
v -25.000000 31.249609 237.499878
v 0.000000 -43.750404 237.499741
v 0.000000 31.249609 237.499878
v 0.000000 -43.750404 237.499741
v 0.000000 31.249609 237.499878
v 0.000000 -25.000450 256.249786
v 0.000000 31.249565 256.249878
v -25.000000 31.249609 237.499878
v -25.000000 -25.000450 256.249786
v -25.000000 31.249565 256.249878
v -25.000000 -43.750404 237.499741
v -25.000000 68.750000 -0.000057
v -25.000000 68.749466 312.499939
v 0.000000 68.750000 -0.000057
v 0.000000 68.749466 312.499939
v -25.000000 31.249464 312.499878
v -25.000000 31.250000 -0.000122
v 0.000000 31.249464 312.499878
v 0.000000 31.250000 -0.000122
v -25.000000 31.249464 312.499878
v -25.000000 68.750000 -0.000057
v -25.000000 31.250000 -0.000122
v -25.000000 68.749466 312.499939
v 0.000000 68.750000 -0.000057
v 0.000000 68.749466 312.499939
v 0.000000 31.250000 -0.000122
v 0.000000 31.249464 312.499878
v -6.250000 -25.000374 237.499771
v -6.250000 31.249720 181.249878
v -18.750000 -25.000374 237.499771
v -18.750000 31.249720 181.249878
v -18.750000 -43.750420 237.499771
v -18.750000 31.249752 162.499878
v -6.250000 -43.750420 237.499771
v -6.250000 31.249752 162.499878
v -18.750000 31.249752 162.499878
v -18.750000 -25.000374 237.499771
v -18.750000 31.249720 181.249878
v -18.750000 -43.750420 237.499771
v -6.250000 -25.000374 237.499771
v -6.250000 31.249752 162.499878
v -6.250000 31.249720 181.249878
v -6.250000 -43.750420 237.499771
v 0.000000 68.749557 256.249939
v 0.000000 124.999565 256.250031
v -25.000000 68.749557 256.249939
v -25.000000 124.999565 256.250031
v -25.000000 143.749603 237.500076
v 0.000000 68.749580 237.499939
v -25.000000 68.749580 237.499939
v 0.000000 143.749603 237.500076
v -25.000000 124.999565 256.250031
v -25.000000 68.749580 237.499939
v -25.000000 68.749557 256.249939
v -25.000000 143.749603 237.500076
v 0.000000 68.749580 237.499939
v 0.000000 124.999565 256.250031
v 0.000000 68.749557 256.249939
v 0.000000 143.749603 237.500076
v -6.250000 124.999565 237.500015
v -18.750000 68.749657 181.249939
v -6.250000 68.749657 181.249939
v -18.750000 124.999565 237.500015
v -18.750000 68.749695 162.499939
v -18.750000 143.749603 237.500107
v -6.250000 68.749695 162.499939
v -6.250000 143.749603 237.500107
v -6.250000 124.999565 237.500015
v -6.250000 68.749695 162.499939
v -6.250000 143.749603 237.500107
v -6.250000 68.749657 181.249939
v -18.750000 124.999565 237.500015
v -18.750000 68.749695 162.499939
v -18.750000 68.749657 181.249939
v -18.750000 143.749603 237.500107
v -0.000008 -50.000175 99.999741
v 200.000000 -50.000175 99.999741
v 175.000000 -25.000160 99.999779
v 25.000008 -25.000160 99.999779
v 200.000000 149.999847 100.000076
v 175.000000 124.999825 100.000038
v -0.000008 149.999847 100.000076
v 25.000008 124.999825 100.000038
vn -0.0000 -1.0000 -0.0000
vn -0.0000 -0.0000 1.0000
vn -0.0000 1.0000 -0.0000
vn 1.0000 -0.0000 -0.0000
vn -1.0000 -0.0000 -0.0000
vn -0.0000 -0.0000 -1.0000
vn -0.0000 -0.7071 0.7071
vn -0.0000 0.7071 -0.7071
vn -0.0000 0.7071 0.7071
vn -0.0000 -0.7071 -0.7071
vt 0.674805 0.850098
vt 0.674805 0.925049
vt 0.074951 0.925049
vt 0.074951 0.850098
vt 0.849609 0.775024
vt 0.699707 0.775024
vt 0.699707 0.750000
vt 0.849609 0.750000
vt 0.787109 0.999969
vt 0.787109 0.887512
vt 0.837402 0.887512
vt 0.837402 0.999969
vt 0.875000 0.999969
vt 0.875000 0.850098
vt 0.924805 0.850098
vt 0.924805 0.999969
vt 0.574707 0.475098
vt 0.574707 0.775024
vt 0.024994 0.775024
vt 0.024994 0.475098
vt 0.574707 0.437500
vt 0.024994 0.437500
vt 0.000031 0.312500
vt 0.625000 0.312500
vt 0.625000 0.387695
vt 0.000031 0.387695
vt 0.799805 0.000000
vt 0.799805 0.200195
vt 0.400146 0.199707
vt 0.399902 0.000000
vt 0.924805 0.550049
vt 0.625000 0.550049
vt 0.625000 0.250000
vt 0.924805 0.250000
vt 0.599609 0.750000
vt 0.599609 0.500000
vt 0.000031 0.500000
vt 0.000031 0.750000
vt 0.001655 0.199707
vt 0.001961 0.000000
vt 0.750000 0.999969
vt 0.750000 0.850098
vt 0.625000 0.437500
vt 0.000031 0.437500
vt 0.674805 0.800049
vt 0.875000 0.800049
vt 0.875000 0.825073
vt 0.674805 0.825073
vt 0.924805 0.725098
vt 0.625000 0.725098
vt 0.875000 0.725098
vt 0.674805 0.725098
vt 0.024994 0.750000
vt 0.024994 0.500000
vt 0.574707 0.500000
vt 0.574707 0.750000
vt 0.074951 0.775024
vt 0.674805 0.775024
vt 0.674805 0.999969
vt 0.074951 0.999969
vt 0.000031 0.925049
vt 0.000031 0.850098
vt 0.000031 0.262695
vt 0.625000 0.262695
vt 0.750000 0.925049
vt 0.750000 0.250000
vt 0.449951 0.250000
vt 0.350342 0.249512
vt 0.051453 0.249512
s 1
usemtl MI_WellBig
f 146/1/2 148/2/2 147/3/2 145/4/2
f 92/5/7 91/6/7 89/7/7 90/8/7
f 184/9/2 183/10/2 181/11/2 182/12/2
f 112/13/6 111/14/6 109/15/6 110/16/6
f 124/7/9 123/8/9 121/5/9 122/6/9
f 44/17/7 41/18/7 42/19/7 43/20/7
f 40/21/6 37/17/6 38/20/6 39/22/6
f 208/23/5 206/24/5 207/25/5 205/26/5
f 88/23/5 86/24/5 87/25/5 85/26/5
f 4/27/1 1/28/1 2/29/1 3/30/1
f 8/31/2 6/32/2 7/33/2 5/34/2
f 60/11/2 59/12/2 57/9/2 58/10/2
f 51/35/4 49/18/4 50/36/4
f 50/36/4 49/18/4 52/17/4
f 55/20/5 53/19/5 54/37/5
f 56/38/5 54/37/5 53/19/5
f 20/39/5 18/40/5 19/30/5 17/29/5
f 232/11/2 231/12/2 229/9/2 230/10/2
f 67/12/5 65/11/5 66/13/5
f 65/11/5 68/14/5 66/13/5
f 71/9/4 69/41/4 70/10/4
f 72/42/4 70/10/4 69/41/4
f 80/26/3 79/25/3 77/43/3 78/44/3
f 15/40/4 16/30/4 13/29/4 14/39/4
f 152/4/6 150/1/6 151/2/6 149/3/6
f 12/29/3 9/30/3 10/27/3 11/28/3
f 220/45/10 219/46/10 217/47/10 218/48/10
f 32/31/1 31/49/1 29/50/1 30/32/1
f 99/51/4 97/8/4 98/52/4
f 100/7/4 98/52/4 97/8/4
f 103/6/5 101/5/5 102/45/5
f 101/5/5 104/46/5 102/45/5
f 188/13/6 187/14/6 185/15/6 186/16/6
f 26/49/5 28/50/5 27/32/5 25/31/5
f 115/11/4 113/14/4 114/13/4
f 116/12/4 115/11/4 114/13/4
f 119/9/5 117/41/5 118/10/5
f 120/42/5 118/10/5 117/41/5
f 24/50/3 21/32/3 22/31/3 23/49/3
f 64/15/6 62/16/6 63/13/6 61/14/6
f 131/7/5 129/52/5 130/8/5
f 132/51/5 130/8/5 129/52/5
f 135/6/4 133/5/4 134/45/4
f 133/5/4 136/46/4 134/45/4
f 236/15/6 234/16/6 235/13/6 233/14/6
f 128/45/10 127/46/10 125/47/10 126/48/10
f 48/53/8 45/54/8 46/55/8 47/56/8
f 142/4/3 144/57/3 143/58/3 141/1/3
f 140/59/1 138/60/1 139/3/1 137/2/1
f 248/5/7 246/6/7 247/7/7 245/8/7
f 82/26/4 84/23/4 83/24/4 81/25/4
f 154/61/4 156/62/4 155/4/4 153/3/4
f 164/20/6 161/22/6 162/21/6 163/17/6
f 175/36/5 173/18/5 174/17/5
f 176/35/5 173/18/5 175/36/5
f 179/20/4 177/19/4 178/37/4
f 180/38/4 178/37/4 177/19/4
f 76/24/1 75/23/1 73/63/1 74/64/1
f 172/53/10 170/54/10 171/55/10 169/56/10
f 191/11/4 189/14/4 190/13/4
f 192/12/4 191/11/4 190/13/4
f 195/9/5 193/41/5 194/10/5
f 196/42/5 194/10/5 193/41/5
f 168/19/9 165/20/9 166/17/9 167/18/9
f 160/1/5 158/42/5 159/65/5 157/2/5
f 36/31/4 34/49/4 35/50/4 33/32/4
f 108/9/2 107/10/2 105/11/2 106/12/2
f 200/63/3 199/64/3 197/24/3 198/23/3
f 210/26/4 212/23/4 211/24/4 209/25/4
f 223/7/5 221/52/5 222/8/5
f 224/51/5 222/8/5 221/52/5
f 227/6/4 225/5/4 226/45/4
f 225/5/4 228/46/4 226/45/4
f 216/7/9 215/8/9 213/5/9 214/6/9
f 204/43/1 203/44/1 201/26/1 202/25/1
f 239/12/5 237/11/5 238/13/5
f 237/11/5 240/14/5 238/13/5
f 243/9/4 241/41/4 242/10/4
f 244/42/4 242/10/4 241/41/4
f 96/47/8 95/48/8 93/45/8 94/46/8
f 255/51/4 253/8/4 254/52/4
f 256/7/4 254/52/4 253/8/4
f 259/6/5 257/5/5 258/45/5
f 257/5/5 260/46/5 258/45/5
f 263/66/2 261/29/2 262/28/2
f 264/67/2 261/29/2 263/66/2
f 266/68/2 262/39/2 265/29/2
f 263/69/2 262/39/2 266/68/2
f 268/66/2 265/29/2 267/28/2
f 266/67/2 265/29/2 268/66/2
f 264/68/2 267/39/2 261/29/2
f 268/69/2 267/39/2 264/68/2
f 252/47/8 251/48/8 249/45/8 250/46/8
