# Blender 5.0.1
# www.blender.org
mtllib BP_HangingChest.mtl
o SK_HangingChest.001
v 9.594330 -50.000187 562.476624
v -15.405615 -50.000210 562.529480
v -15.458446 -50.000210 537.529541
v 9.541499 -50.000187 537.476685
v -15.405615 -50.000210 562.529480
v 9.594330 -50.000187 562.476624
v 9.594323 -43.750187 562.476624
v -15.405621 -43.750214 562.529480
v 9.541492 -43.750191 537.476685
v -15.458452 -43.750214 537.529541
v -15.405621 -43.750214 562.529480
v 9.594323 -43.750187 562.476624
v 9.541499 -50.000187 537.476685
v -15.458446 -50.000210 537.529541
v -15.458452 -43.750214 537.529541
v 9.541492 -43.750191 537.476685
v 9.541492 -43.750191 537.476685
v 9.594323 -43.750187 562.476624
v 9.541499 -50.000187 537.476685
v 9.594330 -50.000187 562.476624
v -15.405615 -50.000210 562.529480
v -15.458452 -43.750214 537.529541
v -15.458446 -50.000210 537.529541
v -15.405621 -43.750214 562.529480
v 59.634365 -43.750145 581.372009
v -65.365356 -43.750271 581.636169
v -65.431396 -43.750275 550.386230
v 59.568325 -43.750149 550.122070
v -64.620300 43.749710 581.634583
v 60.379436 43.749836 581.370422
v -64.686333 43.749706 550.384644
v 60.313396 43.749832 550.120483
v -65.365356 -43.750271 581.636169
v -64.686333 43.749706 550.384644
v -65.431396 -43.750275 550.386230
v -64.620300 43.749710 581.634583
v 59.634365 -43.750145 581.372009
v -64.620300 43.749710 581.634583
v -65.365356 -43.750271 581.636169
v 60.379436 43.749836 581.370422
v 53.371166 -37.500156 575.135254
v -59.128582 -37.500267 575.372986
v 53.371090 37.499828 575.135254
v -59.128658 37.499718 575.372986
v -59.128658 37.499718 575.372986
v -59.128582 -37.500267 575.372986
v -59.181416 -37.500271 550.373047
v -59.181488 37.499714 550.373047
v 53.371090 37.499828 575.135254
v -59.128658 37.499718 575.372986
v -59.181488 37.499714 550.373047
v 53.318260 37.499828 550.135315
v 53.318260 37.499828 550.135315
v 53.371166 -37.500156 575.135254
v 53.371090 37.499828 575.135254
v 53.318336 -37.500160 550.135315
v 53.318336 -37.500160 550.135315
v -59.181416 -37.500271 550.373047
v -59.128582 -37.500267 575.372986
v 53.371166 -37.500156 575.135254
v 60.379436 43.749836 581.370422
v 59.634365 -43.750145 581.372009
v 59.568325 -43.750149 550.122070
v 60.313396 43.749832 550.120483
v -65.431923 -43.750267 550.135132
v -65.564087 43.749710 487.635315
v -65.564003 -43.750271 487.635315
v -65.432014 43.749714 550.135132
v 59.435719 -43.750149 487.371155
v 59.435631 43.749836 487.371155
v 59.567795 -43.750145 549.871033
v 59.567711 43.749840 549.871033
v 59.567795 -43.750145 549.871033
v -65.431923 -43.750267 550.135132
v -65.564003 -43.750271 487.635315
v 59.435719 -43.750149 487.371155
v 59.435719 -43.750149 487.371155
v -65.564003 -43.750271 487.635315
v -65.564087 43.749710 487.635315
v 59.435631 43.749836 487.371155
v 59.435631 43.749836 487.371155
v -65.564087 43.749710 487.635315
v -65.432014 43.749714 550.135132
v 59.567711 43.749840 549.871033
v 53.198936 -37.500153 493.634369
v -59.300888 37.499718 493.872101
v -59.300816 -37.500263 493.872101
v 53.198860 37.499828 493.634338
v -59.300816 -37.500263 493.872101
v -59.182018 37.499722 550.121948
v -59.181946 -37.500263 550.121948
v -59.300888 37.499718 493.872101
v 53.198936 -37.500153 493.634369
v -59.300816 -37.500263 493.872101
v -59.181946 -37.500263 550.121948
v 53.317802 -37.500149 549.884216
v 53.198936 -37.500153 493.634369
v 53.317802 -37.500149 549.884216
v 53.198860 37.499828 493.634338
v 53.317730 37.499832 549.884216
v -59.300888 37.499718 493.872101
v 53.317730 37.499832 549.884216
v -59.182018 37.499722 550.121948
v 53.198860 37.499828 493.634338
v 60.313396 43.749832 550.120483
v 59.568325 -43.750149 550.122070
v 53.318336 -37.500160 550.135315
v -65.431396 -43.750275 550.386230
v 53.318260 37.499828 550.135315
v -59.181416 -37.500271 550.373047
v -64.686333 43.749706 550.384644
v -59.181488 37.499714 550.373047
v -65.431923 -43.750267 550.135132
v 53.317802 -37.500149 549.884216
v -59.181946 -37.500263 550.121948
v -59.182018 37.499722 550.121948
v 59.567795 -43.750145 549.871033
v -65.432014 43.749714 550.135132
v 53.317730 37.499832 549.884216
v 59.567711 43.749840 549.871033
v 22.213121 -0.000181 618.700134
v -27.786768 -0.000231 618.805786
v -27.866013 -0.000220 581.305847
v 22.133875 -0.000171 581.200195
v 3.457718 -6.250193 616.160400
v -9.042253 -6.250204 616.186829
v 3.457730 -18.750195 616.160400
v -9.042243 -18.750204 616.186829
v -9.042253 -6.250204 616.186829
v 3.457718 -6.250193 616.160400
v 3.431303 -6.250195 603.660461
v -9.068669 -6.250206 603.686890
v -9.068681 6.249793 603.686890
v 3.431303 -6.250195 603.660461
v 3.431291 6.249805 603.660461
v -9.068669 -6.250206 603.686890
v -8.989447 18.749798 641.186768
v 3.510537 6.249811 641.160400
v 3.510526 18.749809 641.160400
v -8.989434 6.249799 641.186768
v 3.510537 6.249811 641.160400
v -8.989434 6.249799 641.186768
v -9.015850 6.249797 628.686829
v 3.484122 6.249809 628.660400
v -9.042265 6.249795 616.186829
v 3.457706 6.249807 616.160400
v -9.068681 6.249793 603.686890
v 3.431291 6.249805 603.660461
v -8.989434 6.249799 641.186768
v -8.989447 18.749798 641.186768
v -9.015862 18.749798 628.686829
v -9.015850 6.249797 628.686829
v -9.042277 18.749796 616.186829
v -9.042265 6.249795 616.186829
v -9.068692 18.749792 603.686890
v -9.068681 6.249793 603.686890
v -9.095096 6.249791 591.186890
v -9.095108 18.749792 591.186890
v -9.068669 -6.250206 603.686890
v -9.095084 -6.250208 591.186890
v -9.095074 -18.750208 591.186890
v -9.068658 -18.750206 603.686890
v -9.042243 -18.750204 616.186829
v -9.042253 -6.250204 616.186829
v -8.989447 18.749798 641.186768
v 3.510526 18.749809 641.160400
v 3.484110 18.749809 628.660400
v -9.015862 18.749798 628.686829
v 3.457695 18.749807 616.160400
v -9.042277 18.749796 616.186829
v 3.431279 18.749804 603.660461
v -9.068692 18.749792 603.686890
v -9.095108 18.749792 591.186890
v 3.404864 18.749805 591.160461
v -9.095084 -6.250208 591.186890
v 3.404899 -18.750196 591.160461
v -9.095074 -18.750208 591.186890
v 3.404887 -6.250196 591.160461
v -9.095096 6.249791 591.186890
v 3.404876 6.249804 591.160461
v -9.095108 18.749792 591.186890
v 3.404864 18.749805 591.160461
v 3.510537 6.249811 641.160400
v 3.484110 18.749809 628.660400
v 3.510526 18.749809 641.160400
v 3.484122 6.249809 628.660400
v 3.457695 18.749807 616.160400
v 3.457706 6.249807 616.160400
v 3.431279 18.749804 603.660461
v 3.431291 6.249805 603.660461
v 3.404876 6.249804 591.160461
v 3.404864 18.749805 591.160461
v 3.431303 -6.250195 603.660461
v 3.404887 -6.250196 591.160461
v 3.404899 -18.750196 591.160461
v 3.431314 -18.750196 603.660461
v 3.457730 -18.750195 616.160400
v 3.457718 -6.250193 616.160400
v 3.404899 -18.750196 591.160461
v -9.068658 -18.750206 603.686890
v -9.095074 -18.750208 591.186890
v 3.431314 -18.750196 603.660461
v 3.457730 -18.750195 616.160400
v -9.042243 -18.750204 616.186829
v 6.846021 12.499832 740.762939
v -12.115260 12.499797 640.802734
v 6.634698 12.499816 640.763123
v -11.903937 12.499814 740.802490
v 7.057344 12.499846 840.762695
v -11.692614 12.499827 840.802368
v 7.268667 12.499863 940.762451
v -11.481291 12.499844 940.802124
v 7.479990 12.499876 1040.762207
v -11.269968 12.499857 1040.801880
v 7.691314 12.499892 1140.761963
v -11.058644 12.499874 1140.801636
v 7.902637 12.499907 1240.761719
v -10.847322 12.499888 1240.801514
v 8.113959 12.499924 1340.761597
v -10.635999 12.499906 1340.801270
v 8.325283 12.499938 1440.761353
v -10.424675 12.499919 1440.801025
v 8.536606 12.499954 1540.761108
v -10.213352 12.499935 1540.800781
v 8.747929 12.499968 1640.760864
v -10.002029 12.499949 1640.800537
v 8.959252 12.499984 1740.760742
v -9.790706 12.499966 1740.800293
v 9.170575 12.499998 1840.760498
v -9.579383 12.499979 1840.800049
v 9.381898 12.500011 1940.760254
v -9.368060 12.499992 1940.799927
v 0.006915 21.874998 1940.780029
v -0.204391 3.124984 1840.780273
v 0.006932 3.124999 1940.780029
v -0.204408 21.874985 1840.780273
v -0.415714 3.124969 1740.780518
v -0.415731 21.874971 1740.780518
v -0.627054 21.874956 1640.780762
v -0.627037 3.124954 1640.780762
v -0.838360 3.124940 1540.781006
v -0.838377 21.874943 1540.781006
v -1.049700 21.874926 1440.781250
v -1.049683 3.124925 1440.781250
v -1.261006 3.124910 1340.781372
v -1.261023 21.874912 1340.781372
v -1.472346 21.874895 1240.781616
v -1.472329 3.124895 1240.781616
v -1.683669 21.874880 1140.781860
v -1.683652 3.124880 1140.781860
v -1.894993 21.874865 1040.781982
v -1.894975 3.124864 1040.781982
v -2.106298 3.124851 940.782288
v -2.106316 21.874849 940.782288
v -2.317639 21.874834 840.782471
v -2.317621 3.124836 840.782471
v -2.528944 3.124821 740.782715
v -2.528962 21.874821 740.782715
v -2.740285 21.874804 640.782959
v -2.740268 3.124805 640.782959
vn -0.0000 -1.0000 -0.0000
vn 0.0021 -0.0000 1.0000
vn -0.0000 1.0000 -0.0000
vn -0.0021 -0.0000 -1.0000
vn 1.0000 -0.0000 -0.0021
vn -1.0000 -0.0000 0.0021
vn -1.0000 0.0085 0.0021
vn 1.0000 -0.0085 -0.0021
vt 0.000320 2.998047
vt 0.000328 1.999023
vt 0.187622 1.999023
vt 0.187622 2.998047
vt 0.000031 0.984375
vt 0.000031 0.921875
vt 0.015617 0.921875
vt 0.015617 0.984375
vt 0.125000 0.125000
vt 0.000031 0.125000
vt 0.000031 0.250000
vt 0.125000 0.250000
vt 0.593750 0.172363
vt 0.437500 0.172363
vt 0.437500 0.062500
vt 0.593750 0.062500
vt 0.000031 0.375000
vt 0.125000 0.375000
vt 0.437500 0.000000
vt 0.562500 0.000000
vt 0.562500 0.125000
vt 0.437500 0.125000
vt 0.749512 0.484375
vt 0.531250 0.484375
vt 0.531250 0.328125
vt 0.749512 0.328125
vt 0.000031 0.500000
vt 0.125000 0.500000
vt 0.156250 0.171875
vt 0.156250 0.062500
vt 0.437256 0.062500
vt 0.437500 0.171875
vt 0.530762 0.703125
vt 0.530762 0.781250
vt 0.218750 0.781250
vt 0.218750 0.703125
vt 0.124939 0.999969
vt 0.124939 0.984375
vt 0.062469 0.984375
vt 0.062469 0.999969
vt 0.250000 0.250000
vt 0.375000 0.250000
vt 0.375000 0.125000
vt 0.250000 0.125000
vt 0.546875 0.796875
vt 0.546875 0.984375
vt 0.828125 0.984375
vt 0.828125 0.796875
vt 0.906250 0.171875
vt 0.906250 0.328125
vt 0.734375 0.328125
vt 0.734375 0.171875
vt 0.530762 0.328125
vt 0.530762 0.484375
vt 0.218750 0.484375
vt 0.218628 0.328125
vt 0.296875 0.687744
vt 0.015617 0.687500
vt 0.015625 0.500000
vt 0.296875 0.500000
vt 0.453125 0.328125
vt 0.281006 0.328125
vt 0.281250 0.171875
vt 0.453125 0.171875
vt 0.921875 0.999969
vt 0.843750 0.999969
vt 0.843750 0.687500
vt 0.921875 0.687500
vt 0.625000 0.703125
vt 0.625000 0.484375
vt 0.312500 0.484375
vt 0.312500 0.703125
vt 1.000000 0.687500
vt 1.000000 0.999969
vt 0.500000 0.999969
vt 0.500000 0.687500
vt 0.250000 0.000000
vt 0.375000 0.000000
vt 0.625000 0.640625
vt 0.624512 0.484375
vt 0.937500 0.484375
vt 0.937500 0.640625
vt 0.531250 0.703125
vt 0.750000 0.703125
vt 0.750000 0.781250
vt 0.828125 0.796997
vt 0.843750 1.000031
vt 0.843750 0.781250
vt 0.531250 0.781250
vt 0.828125 0.984383
vt 0.531250 0.999969
vt 0.015625 0.500244
vt 0.000031 0.484863
vt 0.000031 0.703125
vt 0.312500 0.703369
vt 0.000031 0.781250
vt 0.218628 0.781250
vt 0.000031 0.171875
vt 0.000031 0.062500
vt 0.000037 5.996094
vt 0.187378 5.996094
vt 0.187378 6.996094
vt 0.000037 6.996094
vt 0.500000 0.750000
vt 0.375000 0.750000
vt 0.375000 0.625000
vt 0.500000 0.625000
vt 0.000031 0.562500
vt 0.125000 0.562500
vt 0.125000 0.687500
vt 0.000031 0.687500
vt 0.140625 0.984375
vt 0.140625 0.921875
vt 0.156250 0.921875
vt 0.156250 0.984375
vt 0.000031 0.000000
vt 0.125000 0.000000
vt 0.187622 5.996094
vt 0.000312 5.996094
vt 0.000313 4.996094
vt 0.187622 4.996094
vt 0.562500 0.250000
vt 0.437500 0.250000
vt 0.140625 0.859375
vt 0.015625 0.984375
vt 0.015625 0.859375
vt 0.187622 11.992188
vt 0.000336 11.992188
vt 0.000329 10.992188
vt 0.187622 10.992188
vt 0.875000 0.625000
vt 0.750000 0.625000
vt 0.750000 0.500000
vt 0.875000 0.500000
vt 0.562500 0.375000
vt 0.562500 0.500000
vt 0.437500 0.500000
vt 0.437500 0.375000
vt 0.000037 9.992188
vt 0.187378 9.992188
vt 0.187378 10.992188
vt 0.000037 10.992188
vt 0.000031 0.484375
vt 0.000031 0.328125
vt 0.218628 0.484375
vt 1.000000 0.625000
vt 1.000000 0.500000
vt 0.187622 0.999734
vt 0.000337 0.999732
vt 0.000350 0.000488
vt 0.187622 0.000488
vt 0.000037 11.992188
vt 0.187378 11.992188
vt 0.187378 12.992188
vt 0.000037 12.992188
vt 0.375000 0.562500
vt 0.375000 0.687500
vt 0.250000 0.687500
vt 0.250000 0.562500
vt 0.000343 12.992188
vt 0.187622 12.992188
vt 0.187622 3.996094
vt 0.000315 3.996094
vt 0.250000 0.312500
vt 0.375000 0.312500
vt 0.375000 0.437500
vt 0.250000 0.437500
vt 0.000037 7.992188
vt 0.187378 7.992188
vt 0.187378 8.992188
vt 0.000037 8.992188
vt 0.625000 0.625000
vt 0.625000 0.500000
vt 0.000039 2.998047
vt 0.187378 2.998047
vt 0.187378 3.996094
vt 0.000038 3.996094
vt 0.187378 4.996094
vt 0.000038 4.996094
vt 0.000039 1.999023
vt 0.187378 1.999023
vt 0.000040 0.000488
vt 0.187378 0.000488
vt 0.187378 0.999738
vt 0.000040 0.999738
vt 0.531250 0.999969
vt 0.218750 0.999969
vt 0.218628 0.781372
vt 0.531250 0.781372
vt 0.000313 6.996094
vt 0.187622 6.996094
vt 0.000319 8.992188
vt 0.000316 7.992188
vt 0.187622 7.992188
vt 0.187622 8.992188
vt 0.000324 9.992188
vt 0.187622 9.992188
vt 0.875000 0.062500
vt 0.875000 0.171875
vt 0.593750 0.171875
vt 0.000031 0.999969
vt 0.062469 0.999969
vt -0.000031 0.328125
vt 0.000031 0.171875
s 1
usemtl MI_FancyChest
f 24/5/6 22/6/6 23/7/6 21/8/6
f 47/13/5 48/14/5 45/15/5 46/16/5
f 72/23/5 71/24/5 69/25/5 70/26/5
f 52/29/1 49/30/1 50/31/1 51/32/1
f 28/33/1 25/34/1 26/35/1 27/36/1
f 16/37/4 13/38/4 14/39/4 15/40/4
f 42/45/4 44/46/4 43/47/4 41/48/4
f 92/49/5 90/50/5 91/51/5 89/52/5
f 76/53/1 73/54/1 74/55/1 75/56/1
f 88/57/2 86/58/2 87/59/2 85/60/2
f 98/61/6 100/62/6 99/63/6 97/64/6
f 30/65/3 32/66/3 31/67/3 29/68/3
f 80/69/4 77/70/4 78/71/4 79/72/4
f 84/79/3 81/80/3 82/81/3 83/82/3
f 63/83/8 64/84/8 61/85/8 62/34/8
f 107/86/4 105/87/4 106/88/4
f 107/86/4 106/88/4 108/89/4
f 109/90/4 105/87/4 107/86/4
f 110/45/4 107/86/4 108/89/4
f 105/87/4 109/90/4 111/91/4
f 110/45/4 108/89/4 112/46/4
f 112/46/4 111/91/4 109/90/4
f 111/91/4 112/46/4 108/89/4
f 115/92/2 113/93/2 114/60/2
f 115/92/2 116/58/2 113/93/2
f 114/60/2 113/93/2 117/71/2
f 116/58/2 118/94/2 113/93/2
f 114/60/2 117/71/2 119/57/2
f 118/94/2 116/58/2 120/95/2
f 119/57/2 117/71/2 120/95/2
f 119/57/2 120/95/2 116/58/2
f 96/61/3 93/64/3 94/52/3 95/51/3
f 36/96/7 34/94/7 35/36/7 33/97/7
f 56/98/6 54/99/6 55/30/6 53/29/6
f 12/112/3 9/113/3 10/114/3 11/115/3
f 4/124/1 1/112/1 2/125/1 3/126/1
f 68/143/6 66/144/6 67/56/6 65/145/6
f 40/186/2 38/187/2 39/188/2 37/189/2
f 18/8/5 20/5/5 19/6/5 17/7/5
f 60/198/3 57/199/3 58/200/3 59/16/3
f 8/201/2 5/5/2 6/39/2 7/202/2
f 104/63/1 102/62/1 103/203/1 101/204/1
usemtl Mi_ChestHook
f 190/9/5 189/10/5 187/11/5 188/12/5
f 188/12/5 187/11/5 184/17/5 186/18/5
f 174/19/3 173/20/3 172/21/3 171/22/3
f 186/18/5 184/17/5 185/27/5 183/28/5
f 144/11/1 141/10/1 142/9/1 143/12/1
f 146/17/1 144/11/1 143/12/1 145/18/1
f 198/41/5 197/42/5 196/43/5 193/44/5
f 124/73/1 121/74/1 122/75/1 123/76/1
f 162/43/6 159/44/6 160/77/6 161/78/6
f 152/18/6 149/28/6 150/27/6 151/17/6
f 148/27/1 146/17/1 145/18/1 147/28/1
f 156/9/6 154/12/6 153/11/6 155/10/6
f 132/104/3 129/105/3 130/106/3 131/107/3
f 140/108/2 138/109/2 139/110/2 137/111/2
f 158/116/6 157/117/6 156/9/6 155/10/6
f 172/21/3 170/122/3 169/123/3 171/22/3
f 160/77/6 159/44/6 156/9/6 157/117/6
f 192/116/5 189/10/5 190/9/5 191/117/5
f 203/19/1 204/20/1 200/21/1 202/22/1
f 180/131/4 178/132/4 175/133/4 179/134/4
f 168/135/3 165/136/3 166/137/3 167/138/3
f 182/146/4 180/131/4 179/134/4 181/147/4
f 202/22/1 200/21/1 201/122/1 199/123/1
f 170/122/3 168/135/3 167/138/3 169/123/3
f 154/12/6 152/18/6 151/17/6 153/11/6
f 136/156/2 134/157/2 135/158/2 133/159/2
f 196/43/5 195/78/5 194/77/5 193/44/5
f 126/164/2 128/165/2 127/166/2 125/167/2
f 178/132/4 176/172/4 177/173/4 175/133/4
f 163/42/6 164/41/6 159/44/6 162/43/6
f 193/44/5 194/77/5 191/117/5 190/9/5
usemtl MI_ChainSmall
f 240/1/6 237/2/6 238/3/6 239/4/6
f 219/100/1 220/101/1 218/102/1 217/103/1
f 246/118/6 245/119/6 244/120/6 243/121/6
f 258/127/6 257/128/6 256/129/6 255/130/6
f 211/139/1 212/140/1 210/141/1 209/142/1
f 236/148/6 234/149/6 235/150/6 233/151/6
f 205/152/1 208/153/1 206/154/1 207/155/1
f 260/160/6 257/128/6 258/127/6 259/161/6
f 242/162/6 241/163/6 240/1/6 239/4/6
f 209/142/1 210/141/1 208/153/1 205/152/1
f 215/168/1 216/169/1 214/170/1 213/171/1
f 225/174/1 226/175/1 224/176/1 223/177/1
f 223/177/1 224/176/1 222/178/1 221/179/1
f 213/171/1 214/170/1 212/140/1 211/139/1
f 217/103/1 218/102/1 216/169/1 215/168/1
f 227/180/1 228/181/1 226/175/1 225/174/1
f 231/182/1 232/183/1 230/184/1 229/185/1
f 229/185/1 230/184/1 228/181/1 227/180/1
f 244/120/6 241/163/6 242/162/6 243/121/6
f 248/190/6 245/119/6 246/118/6 247/191/6
f 238/3/6 237/2/6 234/149/6 236/148/6
f 252/192/6 250/193/6 249/194/6 251/195/6
f 250/193/6 248/190/6 247/191/6 249/194/6
f 256/129/6 253/196/6 254/197/6 255/130/6
f 254/197/6 253/196/6 252/192/6 251/195/6
f 221/179/1 222/178/1 220/101/1 219/100/1
