# Blender 5.0.1
# www.blender.org
mtllib BP_HH_TinyDoor.mtl
o SM_TinyDoor.001
v -33.333336 50.000000 350.000000
v -33.333336 -50.000000 350.000000
v -33.333336 -50.000000 300.000000
v -33.333336 50.000000 300.000000
v -33.333336 -100.000000 300.000000
v -33.333336 -100.000000 0.000000
v -33.333336 -49.999996 0.000000
v -33.333336 50.000000 0.000000
v -33.333336 100.000000 0.000000
v -33.333336 100.000000 300.000000
vn 1.0000 -0.0000 -0.0000
vt 0.625000 0.000000
vt 0.684570 0.000000
vt 0.684570 0.250000
vt 0.625000 0.250000
vt 0.811035 0.000000
vt 0.811035 0.250000
vt 0.000031 0.000000
vt 1.000000 0.000000
vt 1.000000 0.999969
vt 0.000031 0.999969
vt 0.875000 0.250000
vt 0.875000 0.000000
s 1
usemtl MI_FF_OutdoorEntrance_BL
f 6/1/1 7/2/1 3/3/1 5/4/1
f 8/5/1 4/6/1 3/3/1 7/2/1
f 3/7/1 4/8/1 1/9/1 2/10/1
f 10/11/1 4/6/1 8/5/1 9/12/1
