# Blender 5.0.1
# www.blender.org
mtllib BP_HayHorse.mtl
o SM_HayHorse.001
v 149.968384 -300.000031 500.000000
v -150.000000 -300.000031 500.000000
v -150.000000 -300.000000 199.999985
v 150.000000 -300.000000 199.999985
v 149.968384 -300.000031 500.000000
v -150.000000 299.999969 500.000000
v -150.000000 -300.000031 500.000000
v 150.031616 299.999969 500.000000
v 150.000000 300.000000 200.000015
v -150.000000 300.000000 200.000015
v -150.000000 299.999969 500.000000
v 150.031616 299.999969 500.000000
v -150.000000 -300.000000 199.999985
v -150.000000 300.000000 200.000015
v 150.000000 -300.000000 199.999985
v 150.000000 300.000000 200.000015
v 150.031616 299.999969 500.000000
v 149.968384 -300.000031 500.000000
v 150.000000 -300.000000 199.999985
v 150.000000 300.000000 200.000015
v -150.000000 -300.000031 500.000000
v -150.000000 300.000000 200.000015
v -150.000000 -300.000000 199.999985
v -150.000000 299.999969 500.000000
v -150.000000 -187.500000 -0.000008
v -150.000000 -187.500015 199.999985
v -50.000000 -187.500000 -0.000008
v -50.000000 -187.500015 199.999985
v -150.000000 -287.500000 199.999985
v -150.000000 -187.500000 -0.000008
v -150.000000 -287.500000 -0.000013
v -150.000000 -187.500015 199.999985
v 50.000000 -187.500000 -0.000008
v 50.000000 -187.500015 199.999985
v 150.000000 -187.500000 -0.000008
v 150.000000 -187.500015 199.999985
v 50.000000 -287.500000 199.999985
v 50.000000 -187.500000 -0.000008
v 50.000000 -287.500000 -0.000013
v 50.000000 -187.500015 199.999985
v 50.000000 287.500000 0.000013
v 50.000000 287.500000 200.000015
v 149.936752 287.500000 0.000013
v 149.936752 287.500000 200.000015
v 50.000000 187.499985 200.000015
v 50.000000 287.500000 0.000013
v 50.000000 187.500000 0.000008
v 50.000000 287.500000 200.000015
v -150.000000 287.500000 0.000013
v -150.000000 287.500000 200.000015
v -50.000000 287.500000 0.000013
v -50.000000 287.500000 200.000015
v -150.000000 187.499985 200.000015
v -150.000000 287.500000 0.000013
v -150.000000 187.500000 0.000008
v -150.000000 287.500000 200.000015
v -150.000000 -287.500000 199.999985
v -50.000000 -287.500000 -0.000013
v -50.000000 -287.500000 199.999985
v -150.000000 -287.500000 -0.000013
v -50.000000 -287.500000 199.999985
v -50.000000 -287.500000 -0.000013
v -50.000000 -187.500000 -0.000008
v -50.000000 -187.500015 199.999985
v 50.000000 -287.500000 199.999985
v 150.000000 -287.500000 -0.000013
v 150.000000 -287.500000 199.999985
v 50.000000 -287.500000 -0.000013
v 150.000000 -287.500000 199.999985
v 150.000000 -287.500000 -0.000013
v 150.000000 -187.500000 -0.000008
v 150.000000 -187.500015 199.999985
v 50.000000 187.499985 200.000015
v 150.000000 187.500000 0.000008
v 150.000000 187.499985 200.000015
v 50.000000 187.500000 0.000008
v 150.000000 187.499985 200.000015
v 150.000000 187.500000 0.000008
v 149.936752 287.500000 0.000013
v 149.936752 287.500000 200.000015
v -150.000000 187.499985 200.000015
v -50.000000 187.500000 0.000008
v -50.000000 187.499985 200.000015
v -150.000000 187.500000 0.000008
v -50.000000 187.499985 200.000015
v -50.000000 187.500000 0.000008
v -50.000000 287.500000 0.000013
v -50.000000 287.500000 200.000015
v 100.000000 -175.000046 912.500000
v 25.000000 -175.000046 912.500000
v 25.000000 -175.000031 800.000000
v 100.000000 -175.000031 800.000000
v 100.000000 -175.000046 912.500000
v 100.000000 -100.000038 912.500000
v 25.000000 -175.000046 912.500000
v 25.000000 -100.000038 912.500000
v 100.000000 -100.000038 800.000000
v 25.000000 -100.000038 800.000000
v 25.000000 -100.000038 912.500000
v 100.000000 -100.000038 912.500000
v 100.000000 -175.000046 912.500000
v 100.000000 -175.000031 800.000000
v 100.000000 -100.000038 912.500000
v 100.000000 -100.000038 800.000000
v 25.000000 -175.000046 912.500000
v 25.000000 -100.000038 800.000000
v 25.000000 -175.000031 800.000000
v 25.000000 -100.000038 912.500000
v 100.000000 -287.500031 650.000000
v -100.000000 -287.500031 650.000000
v -100.000000 -287.500031 500.000000
v 100.000000 -287.500031 500.000000
v 100.000000 -425.000031 800.000000
v -100.000000 -425.000031 800.000000
v -100.000000 -425.000031 650.000000
v 100.000000 -425.000031 650.000000
v 100.000000 -425.000031 650.000000
v -100.000000 -425.000031 650.000000
v -100.000000 -287.500031 650.000000
v 100.000000 -287.500031 650.000000
v 49.999992 299.999969 475.000000
v -49.999981 412.499969 475.000031
v -50.000008 299.999969 475.000000
v 50.000019 412.499969 475.000031
v 50.000019 412.499969 375.000031
v -49.999981 412.499969 375.000031
v -49.999981 412.499969 475.000031
v 50.000019 412.499969 475.000031
v 49.999992 299.999969 375.000000
v -50.000000 299.999969 375.000000
v -49.999981 412.499969 375.000031
v 50.000019 412.499969 375.000031
v 49.999992 299.999969 375.000000
v 50.000019 412.499969 375.000031
v 49.999992 299.999969 475.000000
v 50.000019 412.499969 475.000031
v -50.000008 299.999969 475.000000
v -49.999981 412.499969 475.000031
v -50.000000 299.999969 375.000000
v -49.999981 412.499969 375.000031
v -25.000000 -175.000046 912.500000
v -100.000000 -175.000046 912.500000
v -100.000000 -175.000031 800.000000
v -25.000000 -175.000031 800.000000
v -25.000000 -175.000046 912.500000
v -25.000000 -100.000038 912.500000
v -100.000000 -175.000046 912.500000
v -100.000000 -100.000038 912.500000
v -25.000000 -100.000038 800.000000
v -100.000000 -100.000038 800.000000
v -100.000000 -100.000038 912.500000
v -25.000000 -100.000038 912.500000
v -25.000000 -175.000046 912.500000
v -25.000000 -175.000031 800.000000
v -25.000000 -100.000038 912.500000
v -25.000000 -100.000038 800.000000
v -100.000000 -175.000046 912.500000
v -100.000000 -100.000038 800.000000
v -100.000000 -175.000031 800.000000
v -100.000000 -100.000038 912.500000
v -100.000000 -425.000031 800.000000
v 100.000000 -425.000031 800.000000
v 100.000000 -287.500031 800.000000
v -100.000000 -287.500031 800.000000
v 100.000000 -87.500038 800.000000
v -100.000000 -87.500038 800.000000
v 100.000000 -87.500023 500.000000
v -100.000000 -87.500023 500.000000
v -100.000000 -87.500031 650.000000
v 100.000000 -87.500031 650.000000
v -100.000000 -87.500038 800.000000
v 100.000000 -87.500038 800.000000
v 100.000000 -287.500031 500.000000
v 100.000000 -87.500023 500.000000
v 100.000000 -87.500031 650.000000
v 100.000000 -287.500031 650.000000
v 100.000000 -87.500038 800.000000
v 100.000000 -287.500031 800.000000
v 100.000000 -425.000031 800.000000
v 100.000000 -425.000031 650.000000
v -100.000000 -287.500031 650.000000
v -100.000000 -87.500023 500.000000
v -100.000000 -287.500031 500.000000
v -100.000000 -87.500031 650.000000
v -100.000000 -287.500031 800.000000
v -100.000000 -87.500038 800.000000
v -100.000000 -425.000031 650.000000
v -100.000000 -425.000031 800.000000
vn -0.0000 -1.0000 -0.0000
vn -0.0000 -0.0000 1.0000
vn -0.0000 1.0000 -0.0000
vn -0.0000 -0.0000 -1.0000
vn 1.0000 -0.0001 -0.0000
vn -1.0000 -0.0000 -0.0000
vn 1.0000 -0.0000 -0.0000
vn 1.0000 0.0006 -0.0000
vt 0.642578 0.214355
vt 0.642578 0.643066
vt 0.428467 0.643066
vt 0.428467 0.214355
vt 0.428467 0.857178
vt 0.214233 0.857178
vt 0.214233 0.643066
vt 0.428467 0.000000
vt 0.214233 0.214355
vt 0.214233 0.000000
vt 0.258789 0.866089
vt 0.258789 0.946442
vt 0.205322 0.946442
vt 0.205322 0.866089
vt 0.642578 0.991074
vt 0.642578 0.883972
vt 0.785645 0.883972
vt 0.785645 0.991074
vt 0.642578 0.000000
vt 0.713867 0.000000
vt 0.713867 0.143066
vt 0.642578 0.143066
vt 0.365967 0.946442
vt 0.365967 0.866089
vt 0.312500 0.866089
vt 0.312500 0.946442
vt 0.785645 0.143066
vt 0.785645 0.000000
vt 0.571289 0.143066
vt 0.571289 0.000000
vt 0.856934 0.214355
vt 0.856934 0.643066
vt 0.642578 0.785767
vt 0.535645 0.785767
vt 0.535645 0.643066
vt 0.856934 0.143066
vt 0.856934 0.000000
vt 1.000000 0.107422
vt 1.000000 0.205566
vt 0.856934 0.205566
vt 0.856934 0.107422
vt 0.258789 0.999969
vt 0.205322 0.999969
vt 0.071411 0.928589
vt 0.071411 0.999969
vt 0.000031 0.999969
vt 0.000031 0.928589
vt 0.000031 0.643066
vt 0.000031 0.214355
vt 0.535645 0.883972
vt 0.000031 0.107422
vt 0.000031 0.000000
vt 0.142822 0.000000
vt 0.142822 0.107422
vt 0.000031 0.848267
vt 0.071411 0.848267
vt 0.142822 0.848267
vt 0.142822 0.928589
vt 0.428467 0.785767
vt 0.151733 0.946442
vt 0.151733 0.866089
vt 0.785645 0.785767
vt 0.785645 0.643066
vt 0.892578 0.643066
vt 0.892578 0.785767
vt 0.142822 0.214355
vt 1.000000 0.000000
vt 1.000000 0.643066
vt 1.000000 0.785767
vt 0.892578 0.883972
s 1
usemtl MI_HayHorse
f 19/1/5 20/2/5 17/3/5 18/4/5
f 12/3/3 9/5/3 10/6/3 11/7/3
f 4/8/1 1/4/1 2/9/1 3/10/1
f 92/11/1 89/12/1 90/13/1 91/14/1
f 116/15/1 113/16/1 114/17/1 115/18/1
f 68/19/1 66/20/1 67/21/1 65/22/1
f 152/23/3 149/24/3 150/25/3 151/26/3
f 72/27/7 69/21/7 70/20/7 71/28/7
f 88/22/7 85/29/7 86/30/7 87/19/7
f 56/21/6 54/20/6 55/28/6 53/27/6
f 52/22/3 51/19/3 49/20/3 50/21/3
f 16/2/4 15/1/4 13/31/4 14/32/4
f 177/2/7 178/33/7 176/34/7 175/35/7
f 64/36/7 61/27/7 62/28/7 63/37/7
f 120/38/4 117/39/4 118/40/4 119/41/4
f 144/14/1 141/13/1 142/12/1 143/11/1
f 148/42/2 147/12/2 145/13/2 146/43/2
f 80/21/8 77/22/8 78/19/8 79/20/8
f 32/22/6 30/19/6 31/20/6 29/21/6
f 128/44/3 125/45/3 126/46/3 127/47/3
f 28/29/3 27/30/3 25/19/3 26/22/3
f 24/7/6 22/48/6 23/49/6 21/9/6
f 179/16/7 180/50/7 176/34/7 178/33/7
f 170/51/3 167/52/3 168/53/3 169/54/3
f 96/43/2 95/13/2 93/12/2 94/42/2
f 102/11/7 104/25/7 103/26/7 101/12/7
f 132/47/4 129/55/4 130/56/4 131/44/4
f 100/26/3 97/25/3 98/24/3 99/23/3
f 40/29/6 38/30/6 39/19/6 37/22/6
f 8/3/2 6/7/2 7/9/2 5/4/2
f 140/44/6 139/56/6 137/57/6 138/58/6
f 124/44/2 122/47/2 123/55/2 121/56/2
f 60/20/1 58/28/1 59/27/1 57/21/1
f 175/35/7 176/34/7 173/59/7 174/3/7
f 48/27/6 46/28/6 47/37/6 45/36/6
f 136/44/7 135/56/7 133/57/7 134/58/7
f 36/27/3 35/28/3 33/37/3 34/36/3
f 84/28/1 82/37/1 83/36/1 81/27/1
f 108/60/6 106/61/6 107/14/6 105/13/6
f 154/14/7 156/61/7 155/60/7 153/13/7
f 76/30/1 74/19/1 75/22/1 73/29/1
f 164/62/2 161/17/2 162/16/2 163/33/2
f 186/63/6 184/64/6 181/65/6 185/62/6
f 160/26/6 158/25/6 159/11/6 157/12/6
f 166/63/2 164/62/2 163/33/2 165/2/2
f 172/49/3 170/51/3 169/54/3 171/66/3
f 112/67/1 109/38/1 110/41/1 111/37/1
f 184/64/6 182/68/6 183/69/6 181/65/6
f 44/21/3 43/20/3 41/28/3 42/27/3
f 187/70/6 188/17/6 185/62/6 181/65/6
