# Blender 5.0.1
# www.blender.org
mtllib BP_HH_SecretDoor.mtl
o SM_HH_SecretDoor.001
v 50.000015 200.000046 200.000015
v 49.999985 300.000031 99.999992
v 49.999985 300.000061 199.999985
v 50.000015 200.000031 100.000008
v -50.000015 300.000031 199.999985
v -49.999985 200.000000 100.000008
v -49.999985 200.000015 200.000015
v -50.000015 300.000000 99.999992
v 49.999985 300.000061 199.999985
v -50.000015 300.000000 99.999992
v -50.000015 300.000031 199.999985
v 49.999985 300.000031 99.999992
v -49.999985 200.000000 100.000008
v -50.000015 300.000000 99.999992
v 50.000015 200.000031 100.000008
v 49.999985 300.000031 99.999992
v 49.999985 300.000061 199.999985
v -50.000015 300.000031 199.999985
v -49.999985 200.000015 200.000015
v 50.000015 200.000046 200.000015
v 150.000015 200.000092 200.000015
v 149.999985 300.000061 99.999992
v 149.999985 300.000092 199.999985
v 150.000015 200.000061 100.000008
v 49.999985 300.000061 199.999985
v 50.000015 200.000031 100.000008
v 50.000015 200.000046 200.000015
v 49.999985 300.000031 99.999992
v 149.999985 300.000092 199.999985
v 149.999985 300.000061 99.999992
v 150.000015 200.000061 100.000008
v 149.999985 300.000061 99.999992
v 150.000015 200.000092 200.000015
v 149.999985 300.000092 199.999985
v -49.999985 200.000015 200.000015
v -50.000015 300.000000 99.999992
v -50.000015 300.000031 199.999985
v -49.999985 200.000000 100.000008
v -150.000015 300.000000 199.999985
v -149.999985 199.999969 100.000008
v -149.999985 199.999985 200.000015
v -150.000015 299.999969 99.999992
v -150.000015 299.999969 99.999992
v -150.000015 300.000000 199.999985
v -149.999985 199.999969 100.000008
v -150.000015 299.999969 99.999992
v -150.000015 300.000000 199.999985
v -149.999985 199.999985 200.000015
v 150.000015 200.000092 250.000015
v 149.999985 300.000092 249.999985
v 50.000015 200.000061 250.000015
v 150.000015 200.000092 200.000015
v 150.000015 200.000092 250.000015
v 50.000015 200.000046 200.000015
v 49.999985 300.000061 249.999985
v 50.000015 200.000061 250.000015
v 149.999985 300.000092 249.999985
v 49.999985 300.000061 249.999985
v 50.000015 200.000046 200.000015
v 49.999985 300.000061 199.999985
v 150.000015 200.000092 200.000015
v 149.999985 300.000092 199.999985
v 49.999985 300.000061 249.999985
v 150.000015 200.000092 250.000015
v 149.999985 300.000092 249.999985
v 50.000015 200.000061 250.000015
v 149.999954 400.000061 -0.000024
v 149.999954 400.000061 99.999977
v 149.999985 300.000061 -0.000008
v 49.999985 300.000031 99.999992
v 149.999985 300.000061 -0.000008
v 149.999985 300.000061 99.999992
v 49.999985 300.000000 -0.000008
v 149.999954 400.000061 99.999977
v 49.999950 400.000000 -0.000024
v 49.999950 400.000031 99.999977
v 149.999954 400.000061 -0.000024
v 49.999985 300.000000 -0.000008
v 149.999954 400.000061 -0.000024
v 149.999985 300.000061 -0.000008
v 49.999950 400.000000 -0.000024
v 149.999954 400.000061 99.999977
v 49.999950 400.000031 99.999977
v 49.999985 300.000031 99.999992
v 149.999985 300.000061 99.999992
v 149.999954 400.000061 199.999969
v 49.999985 300.000061 199.999985
v 149.999985 300.000092 199.999985
v 149.999954 400.000061 199.999969
v 49.999950 400.000061 199.999969
v 149.999954 400.000061 99.999977
v 49.999950 400.000031 99.999977
v 149.999954 400.000061 199.999969
v 49.999950 400.000061 199.999969
v 149.999924 500.000061 -0.000041
v 149.999924 500.000061 99.999962
v 49.999950 400.000031 99.999977
v 149.999954 400.000061 -0.000024
v 149.999954 400.000061 99.999977
v 49.999950 400.000000 -0.000024
v 149.999924 500.000061 99.999962
v 49.999920 500.000000 -0.000041
v 49.999920 500.000031 99.999962
v 149.999924 500.000061 -0.000041
v 149.999924 500.000061 -0.000041
v 49.999920 500.000000 -0.000041
v 149.999924 500.000061 99.999962
v 49.999920 500.000031 99.999962
v 149.999924 500.000061 199.999954
v 49.999950 400.000061 199.999969
v 149.999954 400.000061 199.999969
v 149.999924 500.000061 199.999954
v 49.999920 500.000061 199.999954
v 149.999924 500.000061 99.999962
v 49.999920 500.000031 99.999962
v 149.999924 500.000061 199.999954
v 49.999920 500.000061 199.999954
v 149.999954 400.000092 299.999969
v 149.999924 500.000092 299.999969
v 49.999950 400.000061 299.999969
v 149.999954 400.000092 299.999969
v 49.999920 500.000061 299.999969
v 49.999950 400.000061 199.999969
v 49.999950 400.000061 299.999969
v 49.999920 500.000061 199.999954
v 149.999924 500.000092 299.999969
v 49.999920 500.000061 299.999969
v 49.999950 400.000061 199.999969
v 149.999924 500.000061 199.999954
v 149.999954 400.000061 199.999969
v 49.999920 500.000061 199.999954
v 149.999924 500.000092 299.999969
v 49.999920 500.000061 299.999969
v 49.999950 400.000061 299.999969
v 149.999954 400.000092 299.999969
v 50.000015 200.000061 250.000015
v 49.999985 300.000061 249.999985
v -49.999985 200.000031 250.000015
v -49.999985 200.000015 200.000015
v -50.000015 300.000031 249.999985
v -49.999985 200.000031 250.000015
v -50.000015 300.000031 249.999985
v -49.999985 200.000015 200.000015
v -50.000015 300.000031 199.999985
v -50.000015 300.000031 249.999985
v -49.999985 200.000031 250.000015
v 49.999950 400.000000 -0.000024
v 49.999950 400.000031 99.999977
v 49.999985 300.000000 -0.000008
v -50.000015 300.000000 99.999992
v -50.000015 300.000000 -0.000008
v -50.000050 400.000000 -0.000024
v -50.000050 400.000000 99.999977
v -50.000015 300.000000 -0.000008
v -50.000050 400.000000 -0.000024
v -50.000050 400.000000 99.999977
v -50.000015 300.000000 99.999992
v 49.999950 400.000061 199.999969
v -50.000015 300.000031 199.999985
v -50.000050 400.000000 199.999969
v -50.000050 400.000000 99.999977
v -50.000050 400.000000 199.999969
v 49.999920 500.000000 -0.000041
v 49.999920 500.000031 99.999962
v -50.000050 400.000000 99.999977
v -50.000050 400.000000 -0.000024
v -50.000080 500.000000 -0.000041
v -50.000080 500.000000 99.999962
v -50.000080 500.000000 -0.000041
v -50.000080 500.000000 99.999962
v 49.999920 500.000061 199.999954
v -50.000050 400.000000 199.999969
v -50.000080 500.000000 199.999954
v -50.000080 500.000000 99.999962
v -50.000080 500.000000 199.999954
v 49.999950 400.000061 299.999969
v 49.999920 500.000061 299.999969
v -50.000050 400.000031 299.999969
v -50.000080 500.000031 299.999969
v -50.000050 400.000000 199.999969
v -50.000080 500.000000 199.999954
v -50.000080 500.000031 299.999969
v -50.000050 400.000031 299.999969
v -49.999985 200.000031 250.000015
v -50.000015 300.000031 249.999985
v -149.999985 200.000000 250.000015
v -149.999985 199.999985 200.000015
v -150.000015 300.000000 249.999985
v -149.999985 200.000000 250.000015
v -150.000015 300.000000 249.999985
v -149.999985 199.999985 200.000015
v -150.000015 300.000000 199.999985
v -150.000015 300.000000 249.999985
v -149.999985 200.000000 250.000015
v -50.000050 400.000000 -0.000024
v -50.000050 400.000000 99.999977
v -50.000015 300.000000 -0.000008
v -150.000015 299.999969 99.999992
v -150.000015 299.999939 -0.000008
v -150.000046 399.999939 -0.000024
v -150.000046 399.999969 99.999977
v -150.000015 299.999939 -0.000008
v -150.000046 399.999939 -0.000024
v -150.000046 399.999969 99.999977
v -150.000015 299.999969 99.999992
v -50.000050 400.000000 199.999969
v -150.000015 300.000000 199.999985
v -150.000046 400.000000 199.999969
v -150.000046 399.999969 99.999977
v -150.000046 400.000000 199.999969
v -50.000080 500.000000 -0.000041
v -50.000080 500.000000 99.999962
v -150.000046 399.999969 99.999977
v -150.000046 399.999939 -0.000024
v -150.000076 499.999939 -0.000041
v -150.000076 499.999969 99.999962
v -150.000076 499.999939 -0.000041
v -150.000076 499.999969 99.999962
v -50.000080 500.000000 199.999954
v -150.000046 400.000000 199.999969
v -150.000076 500.000000 199.999954
v -150.000076 499.999969 99.999962
v -150.000076 500.000000 199.999954
v -50.000050 400.000031 299.999969
v -50.000080 500.000031 299.999969
v -150.000046 400.000000 299.999969
v -150.000076 500.000000 299.999969
v -150.000046 400.000000 199.999969
v -150.000046 400.000000 299.999969
v -150.000076 500.000000 199.999954
v -150.000076 500.000000 299.999969
v -150.000046 400.000000 199.999969
v -150.000076 500.000000 199.999954
v -150.000076 500.000000 299.999969
v -150.000046 400.000000 299.999969
v 49.999985 300.000061 300.000000
v -50.000015 300.000031 300.000000
v 49.999985 300.000061 300.000000
v 49.999950 400.000061 299.999969
v -50.000050 400.000031 299.999969
v -50.000015 300.000031 300.000000
v 49.999985 300.000061 300.000000
v 149.999954 400.000122 399.999969
v 149.999924 500.000122 399.999969
v 49.999950 400.000061 399.999969
v 149.999954 400.000122 399.999969
v 49.999920 500.000061 399.999969
v 49.999950 400.000061 399.999969
v 149.999924 500.000122 399.999969
v 49.999920 500.000061 399.999969
v 49.999950 400.000061 299.999969
v 149.999924 500.000092 299.999969
v 149.999954 400.000092 299.999969
v 49.999920 500.000061 299.999969
v 149.999924 500.000122 399.999969
v 49.999920 500.000061 399.999969
v 49.999950 400.000061 399.999969
v 149.999954 400.000122 399.999969
v 49.999950 400.000061 399.999969
v 49.999920 500.000061 399.999969
v -50.000050 400.000061 399.999969
v -50.000080 500.000061 399.999969
v -50.000050 400.000031 299.999969
v -50.000080 500.000031 299.999969
v -50.000080 500.000061 399.999969
v -50.000050 400.000061 399.999969
v -50.000050 400.000061 399.999969
v -50.000080 500.000061 399.999969
v -150.000046 400.000000 399.999969
v -150.000076 500.000000 399.999969
v -150.000046 400.000000 399.999969
v -150.000076 500.000000 399.999969
v -150.000046 400.000000 299.999969
v -150.000076 500.000000 299.999969
v -150.000076 500.000000 399.999969
v -150.000046 400.000000 399.999969
v 49.999985 300.000092 400.000000
v -50.000015 300.000061 400.000000
v 49.999985 300.000092 400.000000
v 49.999950 400.000061 399.999969
v -50.000050 400.000061 399.999969
v -50.000015 300.000031 300.000000
v 49.999985 300.000061 300.000000
v -50.000015 300.000061 400.000000
v 49.999985 300.000092 400.000000
v 150.000015 200.000061 100.000008
v 50.000015 200.000031 100.000008
v -49.999985 200.000000 100.000008
v -149.999985 199.999969 100.000008
v 49.999950 400.000031 99.999977
v 49.999985 300.000000 -0.000008
v 49.999950 400.000000 -0.000024
v 49.999920 500.000031 99.999962
v 49.999920 500.000000 -0.000041
v -50.000050 400.000000 99.999977
v -50.000015 300.000000 -0.000008
v -50.000050 400.000000 -0.000024
v -50.000080 500.000000 99.999962
v -50.000080 500.000000 -0.000041
v -50.000050 400.000000 199.999969
v -50.000080 500.000000 199.999954
v -50.000080 500.000031 299.999969
v -50.000050 400.000031 299.999969
v -50.000015 300.000031 300.000000
v -150.000046 399.999969 99.999977
v -150.000015 299.999939 -0.000008
v -150.000046 399.999939 -0.000024
v -150.000076 499.999969 99.999962
v -150.000076 499.999939 -0.000041
v -50.000080 500.000061 399.999969
v -50.000050 400.000061 399.999969
v -50.000015 300.000061 400.000000
vn 1.0000 -0.0000 -0.0000
vn -1.0000 -0.0000 -0.0000
vn -0.0000 1.0000 -0.0000
vn -0.0000 -0.0000 -1.0000
vn -0.0000 -0.0000 1.0000
vn -0.0000 -1.0000 -0.0000
vt 0.500000 0.750000
vt 0.750000 0.750000
vt 0.750000 0.999969
vt 0.500000 0.999969
vt 0.000031 0.750000
vt 0.250000 0.750000
vt 0.250000 0.999969
vt 0.000031 0.999969
vt 0.500000 0.500000
vt 0.750000 0.500000
vt 0.500000 0.500244
vt 1.000000 0.500000
vt 1.000000 0.750000
vt 0.250000 0.500000
vt 0.500000 0.625000
vt 0.250000 0.625000
vt 0.750000 0.500244
vt 0.249878 0.500000
vt 0.250000 0.500244
s 1
usemtl MI_HH_Secret
f 28/1/2 26/2/2 27/3/2 25/4/2
f 42/5/2 40/6/2 41/7/2 39/8/2
f 112/9/3 113/10/3 127/2/3 126/1/3
f 289/5/6 288/6/6 139/7/6 187/8/6
f 257/1/5 256/9/5 265/10/5 266/2/5
f 38/5/1 36/6/1 37/7/1 35/8/1
f 24/1/1 22/2/1 23/3/1 21/4/1
f 97/9/6 99/10/6 111/2/6 110/1/6
f 106/11/4 105/10/4 79/2/4 81/1/4
f 287/1/6 286/2/6 52/3/6 54/4/6
f 8/6/2 6/1/2 7/4/2 5/7/2
f 303/2/2 302/1/2 301/9/2 300/10/2
f 285/2/5 257/10/5 266/12/5 284/13/5
f 295/10/2 8/12/2 5/13/2 300/2/2
f 34/2/5 93/10/5 94/12/5 17/13/5
f 5/14/2 7/9/2 141/15/2 140/16/2
f 161/12/4 14/13/4 46/2/4 209/17/4
f 68/9/1 96/10/1 109/2/1 86/1/1
f 94/1/5 117/9/5 175/10/5 162/2/5
f 115/10/4 92/2/4 161/1/4 174/11/4
f 12/6/3 10/1/3 11/4/3 9/7/3
f 264/10/4 263/2/4 273/1/4 274/11/4
f 294/9/2 292/10/2 290/2/2 293/1/2
f 165/9/6 97/10/6 110/2/6 172/1/6
f 204/2/5 156/1/5 170/9/5 218/10/5
f 74/10/3 76/12/3 90/13/3 89/2/3
f 70/10/6 72/12/6 88/13/6 87/2/6
f 276/2/5 266/1/5 265/9/5 275/10/5
f 307/10/2 306/12/2 42/13/2 305/2/2
f 161/17/4 92/12/4 16/13/4 14/2/4
f 17/2/5 94/10/5 162/12/5 18/13/5
f 172/9/6 110/10/6 120/2/6 178/1/6
f 101/9/3 103/10/3 113/2/3 112/1/3
f 103/9/3 168/10/3 173/2/3 113/1/3
f 106/10/4 81/2/4 155/1/4 169/11/4
f 47/13/5 18/2/5 162/10/5 210/12/5
f 148/9/1 164/10/1 171/2/1 158/1/1
f 100/9/6 98/10/6 99/2/6 97/1/6
f 54/14/6 52/9/6 53/15/6 51/16/6
f 93/1/5 116/9/5 117/10/5 94/2/5
f 29/14/3 9/9/3 58/15/3 57/16/3
f 3/10/1 158/12/1 176/13/1 236/2/1
f 197/10/1 195/12/1 196/13/1 36/2/1
f 304/13/2 303/2/2 300/10/2 5/12/2
f 144/9/4 143/1/4 191/6/4 192/18/4
f 20/6/5 17/14/5 18/9/5 19/1/5
f 167/9/3 215/10/3 216/2/3 168/1/3
f 176/9/1 177/10/1 260/2/1 259/1/1
f 9/14/3 11/9/3 142/15/3 58/16/3
f 227/9/2 229/10/2 271/2/2 270/1/2
f 73/10/6 71/12/6 72/13/6 70/2/6
f 135/1/5 132/9/5 133/10/5 134/2/5
f 298/9/2 295/10/2 300/2/2 301/1/2
f 181/10/4 180/2/4 232/1/4 233/11/4
f 174/10/4 161/2/4 209/1/4 222/11/4
f 20/1/5 33/6/5 34/14/5 17/9/5
f 84/2/5 83/10/5 156/12/5 157/13/5
f 22/10/1 68/12/1 86/13/1 23/2/1
f 125/9/2 123/10/2 124/2/2 122/1/2
f 159/10/6 87/12/6 238/13/6 237/2/6
f 85/2/5 82/10/5 83/12/5 84/13/5
f 169/10/4 155/2/4 203/1/4 217/11/4
f 226/9/6 178/10/6 261/2/6 269/1/6
f 166/9/6 100/10/6 97/2/6 165/1/6
f 69/10/1 67/12/1 68/13/1 22/2/1
f 155/17/4 81/12/4 78/13/4 154/2/4
f 263/17/4 251/12/4 283/13/4 282/2/4
f 290/10/2 28/12/2 25/13/2 123/2/2
f 196/9/1 212/10/1 219/2/1 206/1/1
f 292/10/2 291/12/2 28/13/2 290/2/2
f 16/9/4 15/1/4 13/6/4 14/19/4
f 187/14/6 139/9/6 138/15/6 186/16/6
f 299/9/2 297/10/2 295/2/2 298/1/2
f 206/9/1 219/10/1 225/2/1 224/1/1
f 32/9/4 31/1/4 15/6/4 16/19/4
f 67/9/1 95/10/1 96/2/1 68/1/1
f 66/1/5 64/6/5 65/14/5 63/9/5
f 11/14/3 44/9/3 190/15/3 142/16/3
f 39/14/2 41/9/2 189/15/2 188/16/2
f 30/1/3 12/2/3 9/3/3 29/4/3
f 224/9/1 225/10/1 268/2/1 267/1/1
f 153/10/3 201/12/3 208/13/3 160/2/3
f 134/1/5 133/9/5 182/10/5 183/2/5
f 131/10/4 128/2/4 180/1/4 181/11/4
f 198/10/6 150/12/6 159/13/6 207/2/6
f 110/9/6 111/10/6 121/2/6 120/1/6
f 205/13/5 157/2/5 156/10/5 204/12/5
f 115/11/4 114/10/4 91/2/4 92/1/4
f 254/10/4 251/2/4 263/1/4 264/11/4
f 2/10/1 148/12/1 158/13/1 3/2/1
f 152/10/3 200/12/3 201/13/3 153/2/3
f 199/10/6 151/12/6 150/13/6 198/2/6
f 194/1/5 146/6/5 145/14/5 193/9/5
f 288/6/6 287/1/6 54/4/6 139/7/6
f 92/17/4 91/12/4 32/13/4 16/2/4
f 293/9/2 290/10/2 123/2/2 125/1/2
f 81/17/4 79/12/4 80/13/4 78/2/4
f 220/9/6 172/10/6 178/2/6 226/1/6
f 195/9/1 211/10/1 212/2/1 196/1/1
f 36/10/1 196/12/1 206/13/1 37/2/1
f 210/2/5 162/1/5 175/9/5 223/10/5
f 60/9/4 59/1/4 143/6/4 144/18/4
f 168/9/3 216/10/3 221/2/3 173/1/3
f 127/9/3 179/10/3 262/2/3 250/1/3
f 86/9/1 109/10/1 119/2/1 118/1/1
f 213/9/6 165/10/6 172/2/6 220/1/6
f 254/11/4 252/10/4 253/2/4 251/1/4
f 151/10/6 73/12/6 70/13/6 150/2/6
f 90/10/3 160/12/3 240/13/3 239/2/3
f 118/9/1 119/10/1 244/2/1 243/1/1
f 149/10/1 147/12/1 148/13/1 2/2/1
f 178/9/6 120/10/6 245/2/6 261/1/6
f 235/2/5 183/1/5 182/9/5 234/10/5
f 150/10/6 70/12/6 87/13/6 159/2/6
f 312/13/2 311/2/2 303/10/2 304/12/2
f 258/1/5 255/9/5 256/10/5 257/2/5
f 25/14/2 27/9/2 56/15/2 55/16/2
f 242/2/5 134/10/5 183/12/5 241/13/5
f 126/9/3 127/10/3 250/2/3 249/1/3
f 4/6/1 2/1/1 3/4/1 1/7/1
f 236/10/1 176/12/1 259/13/1 277/2/1
f 120/9/6 121/10/6 246/2/6 245/1/6
f 180/17/4 128/12/4 60/13/4 144/2/4
f 173/9/3 221/10/3 231/2/3 179/1/3
f 82/1/5 107/9/5 108/10/5 83/2/5
f 21/14/1 23/9/1 50/15/1 49/16/1
f 131/11/4 129/10/4 130/2/4 128/1/4
f 122/9/2 124/10/2 248/2/2 247/1/2
f 113/9/3 173/10/3 179/2/3 127/1/3
f 48/1/5 19/6/5 18/14/5 47/9/5
f 75/10/3 152/12/3 153/13/3 76/2/3
f 311/2/2 310/1/2 302/9/2 303/10/2
f 102/9/3 167/10/3 168/2/3 103/1/3
f 10/5/3 43/6/3 44/7/3 11/8/3
f 147/9/1 163/10/1 164/2/1 148/1/1
f 76/10/3 153/12/3 160/13/3 90/2/3
f 239/10/3 240/12/3 281/13/3 280/2/3
f 237/10/6 238/12/6 279/13/6 278/2/6
f 179/9/3 231/10/3 272/2/3 262/1/3
f 214/9/6 166/10/6 165/2/6 213/1/6
f 77/10/3 75/12/3 76/13/3 74/2/3
f 66/6/5 63/14/5 145/9/5 146/1/5
f 83/1/5 108/9/5 170/10/5 156/2/5
f 139/14/6 54/9/6 51/15/6 138/16/6
f 62/9/4 61/1/4 59/6/4 60/18/4
f 155/12/4 154/13/4 202/2/4 203/17/4
f 14/9/4 13/1/4 45/6/4 46/19/4
f 158/9/1 171/10/1 177/2/1 176/1/1
f 230/9/2 228/10/2 229/2/2 227/1/2
f 297/10/2 296/12/2 8/13/2 295/2/2
f 104/9/3 102/10/3 103/2/3 101/1/3
f 309/9/2 307/10/2 305/2/2 308/1/2
f 305/10/2 42/12/2 39/13/2 228/2/2
f 35/14/1 37/9/1 185/15/1 184/16/1
f 1/14/1 3/9/1 137/15/1 136/16/1
f 308/9/2 305/10/2 228/2/2 230/1/2
