# Blender 5.0.1
# www.blender.org
mtllib BP_HiddenPillar004.mtl
o HH_HiddenPillar004.001
v 0.000000 -100.000000 100.000000
v -100.000000 -100.000000 100.000000
v 0.000000 -100.000000 0.000000
v -100.000000 -100.000000 0.000000
v 0.000000 0.000000 300.000000
v 0.000000 100.000000 300.000000
v -100.000000 0.000000 300.000000
v -100.000000 100.000000 300.000000
v 0.000000 100.000000 100.000000
v -100.000000 100.000000 100.000000
v 0.000000 100.000000 200.000000
v -100.000000 100.000000 200.000000
v 100.000000 -100.000000 0.000000
v 100.000000 0.000000 0.000000
v 100.000000 -100.000000 100.000000
v 100.000000 0.000000 100.000000
v -100.000000 0.000000 0.000000
v -100.000000 0.000000 100.000000
v -100.000000 100.000000 100.000000
v -100.000000 100.000000 -0.000000
v 100.000000 -100.000000 100.000000
v 100.000000 -100.000000 0.000000
v 0.000000 -100.000000 200.000000
v 100.000000 -100.000000 200.000000
v -100.000000 -100.000000 200.000000
v 100.000000 100.000000 100.000000
v 100.000000 100.000000 200.000000
v 0.000000 100.000000 -0.000000
v 100.000000 100.000000 -0.000000
v -100.000000 100.000000 -0.000000
v 100.000000 100.000000 100.000000
v 100.000000 100.000000 -0.000000
v 100.000000 0.000000 200.000000
v 100.000000 100.000000 200.000000
v 100.000000 -100.000000 200.000000
v -100.000000 -100.000000 100.000000
v -100.000000 -100.000000 0.000000
v 0.000000 -100.000000 300.000000
v -100.000000 -100.000000 300.000000
v 100.000000 -100.000000 300.000000
v 0.000000 100.000000 300.000000
v 100.000000 100.000000 300.000000
v -100.000000 100.000000 300.000000
v -100.000000 0.000000 300.000000
v -100.000000 100.000000 200.000000
v -100.000000 0.000000 200.000000
v -100.000000 100.000000 300.000000
v -100.000000 -100.000000 300.000000
v -100.000000 -100.000000 200.000000
v 100.000000 0.000000 300.000000
v 100.000000 100.000000 300.000000
v 0.000000 -100.000000 300.000000
v -100.000000 -100.000000 300.000000
v 100.000000 -100.000000 300.000000
v 100.000000 -100.000000 300.000000
v 100.000000 0.000000 300.000000
v 100.000000 100.000000 300.000000
vn -0.0000 -1.0000 -0.0000
vn -0.0000 -0.0000 1.0000
vn -0.0000 1.0000 -0.0000
vn 1.0000 -0.0000 -0.0000
vn -1.0000 -0.0000 -0.0000
vt 0.499756 0.750122
vt 0.749512 0.750122
vt 0.749512 1.000031
vt 0.499756 1.000031
vt 0.500000 1.000031
vt 0.500000 0.750000
vt 0.750000 0.750000
vt 0.750000 1.000031
vt 0.500000 0.999969
vt 0.750000 0.750122
vt 0.750000 0.999969
vt 0.499756 0.750000
vt 0.749512 0.750000
vt 0.499756 0.999969
vt 0.750000 0.999969
vt 0.500000 0.999969
vt 0.250000 0.999969
vt 0.250000 0.750000
vt 0.500000 0.750122
vt 0.249878 0.750000
vt 0.499756 0.999969
vt 0.749512 0.999969
vt 0.500000 0.999969
vt 0.750000 1.000031
vt 0.249878 0.750122
vt 0.250000 1.000031
s 1
usemtl MI_HH_Miniatlas
f 14/1/4 32/2/4 31/3/4 16/4/4
f 41/5/3 11/6/3 12/7/3 43/8/3
f 18/4/5 17/1/5 37/2/5 36/3/5
f 1/6/1 21/7/1 24/8/1 23/5/1
f 7/9/2 53/1/2 52/10/2 5/11/2
f 9/4/3 28/12/3 30/13/3 10/3/3
f 2/5/1 4/6/1 3/7/1 1/8/1
f 27/14/3 26/12/3 9/7/3 11/15/3
f 10/6/3 12/16/3 11/17/3 9/18/3
f 33/19/4 34/10/4 57/15/4 56/16/4
f 8/5/2 7/12/2 5/7/2 6/8/2
f 34/3/4 33/4/4 16/12/4 31/13/4
f 5/17/2 52/20/2 54/12/2 50/21/2
f 47/14/5 45/12/5 46/13/5 44/22/5
f 16/8/4 15/5/4 13/19/4 14/10/4
f 9/15/3 26/14/3 29/12/3 28/7/3
f 18/6/5 36/7/5 49/8/5 46/5/5
f 23/7/1 38/15/1 39/23/1 25/6/1
f 1/7/1 23/8/1 25/5/1 2/6/1
f 42/5/3 27/19/3 11/10/3 41/24/3
f 24/12/1 40/21/1 38/17/1 23/20/1
f 22/7/1 21/8/1 1/5/1 3/6/1
f 16/7/4 33/8/4 35/5/4 15/6/4
f 44/23/5 46/6/5 49/7/5 48/15/5
f 35/25/4 33/19/4 56/16/4 55/17/4
f 51/3/2 6/5/2 5/12/2 50/13/2
f 20/19/5 17/10/5 18/8/5 19/5/5
f 46/5/5 45/26/5 19/20/5 18/6/5
