# Blender 5.0.1
# www.blender.org
mtllib BP_Head_Door_ReplaceSecret.mtl
o SM_FF_Head_Door.001
v -50.000000 -50.000069 99.999992
v -150.000000 -50.000069 99.999992
v -150.000000 -50.000053 -0.000010
v -50.000000 -50.000053 -0.000010
v -50.000000 -50.000088 199.999985
v -150.000000 -50.000088 199.999985
v -50.000000 -50.000103 300.000031
v -150.000000 -50.000103 300.000031
v 50.000000 -50.000069 99.999992
v 50.000000 -50.000053 -0.000010
v 50.000000 -50.000088 199.999985
v 50.000000 -50.000103 300.000031
v 150.000000 -50.000069 99.999992
v 150.000000 -50.000053 -0.000010
v 150.000000 -50.000088 199.999985
v 150.000000 -50.000103 300.000031
v -150.000000 49.999966 199.999969
v -150.000000 49.999989 300.000031
v -50.000000 49.999981 199.999969
v -50.000000 50.000000 300.000031
v -50.000000 49.999958 99.999992
v -150.000000 49.999958 99.999992
v -150.000000 49.999950 0.000007
v -50.000000 49.999954 -0.000005
v 50.000000 49.999992 199.999969
v 50.000000 49.999905 300.000031
v 50.000000 49.999985 99.999992
v 50.000000 49.999950 0.000007
v 150.000000 49.999992 199.999969
v 150.000000 50.000011 300.000031
v 150.000000 49.999935 100.000008
v 150.000000 49.999977 -0.000005
v 150.000000 -50.000088 199.999985
v 150.000000 49.999935 100.000008
v 150.000000 49.999992 199.999969
v 150.000000 -50.000069 99.999992
v 50.000000 -50.000053 -0.000010
v -50.000000 -50.000053 -0.000010
v 50.000000 49.999950 0.000007
v -50.000000 49.999954 -0.000005
v 50.000000 -50.000103 300.000031
v 150.000000 -50.000103 300.000031
v 50.000000 49.999905 300.000031
v 150.000000 50.000011 300.000031
v 150.000000 -50.000053 -0.000010
v 150.000000 49.999977 -0.000005
v -150.000000 -50.000088 199.999985
v -150.000000 -50.000103 300.000031
v -150.000000 49.999966 199.999969
v -150.000000 49.999989 300.000031
v -150.000000 -50.000053 -0.000010
v -150.000000 -50.000069 99.999992
v -150.000000 49.999950 0.000007
v -150.000000 49.999958 99.999992
v -50.000000 -50.000103 300.000031
v -50.000000 50.000000 300.000031
v 150.000000 -50.000103 300.000031
v 150.000000 50.000011 300.000031
v -150.000000 -50.000053 -0.000010
v -150.000000 49.999950 0.000007
v 150.000000 -50.000053 -0.000010
v 150.000000 49.999977 -0.000005
v -150.000000 -50.000103 300.000031
v -150.000000 49.999989 300.000031
vn -0.0000 -1.0000 -0.0000
vn -0.0000 1.0000 -0.0000
vn 1.0000 -0.0000 -0.0000
vn -0.0000 -0.0000 -1.0000
vn -0.0000 -0.0000 1.0000
vn -1.0000 -0.0000 -0.0000
vt 0.500000 0.500000
vt 0.500000 0.999969
vt 0.000031 0.999969
vt 0.000031 0.500000
s 1
usemtl MI_FF_Head
f 10/1/1 9/2/1 1/3/1 4/4/1
f 9/1/1 11/2/1 5/3/1 1/4/1
f 11/1/1 12/2/1 7/3/1 5/4/1
f 13/1/1 15/2/1 11/3/1 9/4/1
f 22/2/2 21/3/2 24/4/2 23/1/2
f 1/1/1 5/2/1 6/3/1 2/4/1
f 4/1/1 1/2/1 2/3/1 3/4/1
f 5/1/1 7/2/1 8/3/1 6/4/1
f 14/1/1 13/2/1 9/3/1 10/4/1
f 15/1/1 16/2/1 12/3/1 11/4/1
f 33/4/3 35/1/3 58/2/3 57/3/3
f 55/1/5 56/2/5 64/3/5 63/4/5
f 19/3/2 21/4/2 22/1/2 17/2/2
f 36/4/3 34/1/3 35/2/3 33/3/3
f 26/3/2 25/4/2 19/1/2 20/2/2
f 41/1/5 43/2/5 56/3/5 55/4/5
f 30/3/2 29/4/2 25/1/2 26/2/2
f 29/3/2 31/4/2 27/1/2 25/2/2
f 59/4/4 60/3/4 40/2/4 38/1/4
f 31/3/2 32/4/2 28/1/2 27/2/2
f 48/3/6 50/2/6 49/1/6 47/4/6
f 52/3/6 54/2/6 53/1/6 51/4/6
f 27/3/2 28/4/2 24/1/2 21/2/2
f 42/1/5 44/2/5 43/3/5 41/4/5
f 45/4/3 46/1/3 34/2/3 36/3/3
f 47/3/6 49/2/6 54/1/6 52/4/6
f 25/3/2 27/4/2 21/1/2 19/2/2
f 37/4/4 39/3/4 62/2/4 61/1/4
f 38/4/4 40/3/4 39/2/4 37/1/4
f 20/3/2 19/4/2 17/1/2 18/2/2
