# Blender 5.0.1
# www.blender.org
mtllib BP_Icicle_A.mtl
o SM_Icicle_A.001
v 25.000000 25.000000 -0.000000
v -25.000000 25.000000 -0.000000
v 25.000000 -25.000000 0.000000
v -25.000000 -25.000000 0.000000
v 25.000000 -25.000000 -50.000000
v -25.000000 -25.000000 -50.000000
v -25.000000 25.000000 -50.000000
v 25.000000 25.000000 -50.000000
v 25.000000 25.000000 -50.000000
v -25.000000 25.000000 -50.000000
v -25.000000 25.000000 -0.000000
v 25.000000 25.000000 -0.000000
v 25.000000 -25.000000 -50.000000
v 25.000000 25.000000 -50.000000
v 25.000000 25.000000 -0.000000
v 25.000000 -25.000000 0.000000
v -25.000000 -25.000000 -50.000000
v 25.000000 -25.000000 -50.000000
v 25.000000 -25.000000 0.000000
v -25.000000 -25.000000 0.000000
v -25.000000 25.000000 -50.000000
v -25.000000 -25.000000 -50.000000
v -25.000000 -25.000000 0.000000
v -25.000000 25.000000 -0.000000
v 15.000000 -15.000000 -100.000000
v -15.000000 -15.000000 -100.000000
v -15.000000 15.000000 -100.000000
v 15.000000 15.000000 -100.000000
v 15.000000 15.000000 -100.000000
v -15.000000 15.000000 -100.000000
v -15.000000 15.000000 -50.000000
v 15.000000 15.000000 -50.000000
v 15.000000 -15.000000 -100.000000
v 15.000000 15.000000 -100.000000
v 15.000000 15.000000 -50.000000
v 15.000000 -15.000000 -50.000000
v -15.000000 -15.000000 -100.000000
v 15.000000 -15.000000 -100.000000
v 15.000000 -15.000000 -50.000000
v -15.000000 -15.000000 -50.000000
v -15.000000 15.000000 -100.000000
v -15.000000 -15.000000 -100.000000
v -15.000000 -15.000000 -50.000000
v -15.000000 15.000000 -50.000000
v 5.000000 -5.000000 -150.000000
v -5.000000 -5.000000 -150.000000
v -5.000000 5.000000 -150.000000
v 5.000000 5.000000 -150.000000
v -5.000000 5.000000 -150.000000
v -5.000000 5.000000 -99.999992
v 5.000000 5.000000 -150.000000
v 5.000000 5.000000 -99.999992
v 5.000000 5.000000 -150.000000
v 5.000000 5.000000 -99.999992
v 5.000000 -5.000000 -150.000000
v 5.000000 -5.000000 -99.999992
v 5.000000 -5.000000 -150.000000
v 5.000000 -5.000000 -99.999992
v -5.000000 -5.000000 -150.000000
v -5.000000 -5.000000 -99.999992
v -5.000000 -5.000000 -150.000000
v -5.000000 -5.000000 -99.999992
v -5.000000 5.000000 -150.000000
v -5.000000 5.000000 -99.999992
vn -0.0000 -0.0000 1.0000
vn -0.0000 -0.0000 -1.0000
vn -0.0000 1.0000 -0.0000
vn 1.0000 -0.0000 -0.0000
vn -0.0000 -1.0000 -0.0000
vn -1.0000 -0.0000 -0.0000
vt 0.232056 0.239258
vt 0.232056 0.190918
vt 0.280273 0.190918
vt 0.280273 0.239258
vt 0.411133 0.495117
vt 0.411133 0.256836
vt 0.554688 0.256836
vt 0.554688 0.495117
vt 0.011307 0.749268
vt 0.011307 0.510498
vt 0.250732 0.510498
vt 0.250732 0.749268
vt 0.411133 0.112793
vt 0.554688 0.112793
vt 0.490234 0.749268
vt 0.490234 0.510498
vt 0.729980 0.510498
vt 0.729980 0.749268
vt 0.011307 0.270996
vt 0.250732 0.270996
vt 0.062347 0.256348
vt 0.062347 0.017578
vt 0.110535 0.017578
vt 0.110535 0.256348
vt 0.698730 0.495117
vt 0.698730 0.256836
vt 0.842285 0.256836
vt 0.842285 0.495117
vt 0.014450 0.256348
vt 0.014450 0.017578
vt 0.267578 0.495117
vt 0.267578 0.256836
vt 0.969238 0.510498
vt 0.969238 0.749268
vt 0.158691 0.256348
vt 0.158691 0.017578
vt 0.206055 0.017578
vt 0.206055 0.256348
vt 0.490234 0.988647
vt 0.250732 0.988647
s 1
usemtl MI_Icicle
f 48/1/2 45/2/2 46/3/2 47/4/2
f 32/5/3 29/6/3 30/7/3 31/8/3
f 16/9/4 13/10/4 14/11/4 15/12/4
f 28/6/2 25/13/2 26/14/2 27/7/2
f 24/15/6 21/16/6 22/17/6 23/18/6
f 8/11/2 5/10/2 6/19/2 7/20/2
f 52/21/3 51/22/3 49/23/3 50/24/3
f 12/12/3 9/11/3 10/16/3 11/15/3
f 40/25/5 37/26/5 38/27/5 39/28/5
f 56/29/4 55/30/4 53/22/4 54/21/4
f 36/31/4 33/32/4 34/6/4 35/5/4
f 20/18/5 17/17/5 18/33/5 19/34/5
f 44/8/6 41/7/6 42/26/6 43/25/6
f 60/35/5 59/36/5 57/37/5 58/38/5
f 2/15/1 4/39/1 3/40/1 1/12/1
f 64/24/6 63/23/6 61/36/6 62/35/6
