# Blender 5.0.1
# www.blender.org
mtllib BP_IceDoorWoodenDown.mtl
o SM_Door_Ice.001
v -0.000031 50.000000 0.000000
v -0.000031 100.000000 100.000000
v -0.000031 100.000000 0.000000
v -0.000031 50.000000 100.000000
v -0.000031 100.000000 200.000000
v -0.000031 50.000000 200.000000
v -0.000031 100.000000 300.000000
v -0.000031 50.000000 300.000000
v -0.000031 100.000000 400.000000
v -0.000031 50.000000 400.000000
v -0.000031 0.000000 0.000000
v -0.000031 -0.000000 100.000000
v -0.000031 -0.000000 200.000000
v -0.000031 -0.000000 300.000000
v -0.000031 -0.000000 400.000000
v 500.000000 100.000000 100.000000
v 500.000000 50.000000 0.000000
v 500.000000 100.000000 0.000000
v 500.000000 50.000000 100.000000
v 500.000000 100.000000 200.000000
v 500.000000 50.000000 200.000000
v 500.000000 100.000000 300.000000
v 500.000000 50.000000 300.000000
v 500.000000 100.000000 400.000000
v 500.000000 50.000000 400.000000
v 500.000000 0.000000 0.000000
v 500.000000 -0.000000 100.000000
v 500.000000 -0.000000 200.000000
v 500.000000 -0.000000 300.000000
v 500.000000 -0.000000 400.000000
v 99.999969 0.000000 0.000000
v -0.000031 0.000000 0.000000
v -0.000031 50.000000 0.000000
v 99.999969 50.000000 0.000000
v -0.000031 100.000000 0.000000
v 199.999969 0.000000 0.000000
v 99.999969 100.000000 0.000000
v 199.999969 50.000000 0.000000
v 249.999985 0.000000 0.000000
v 199.999969 100.000000 0.000000
v 249.999985 50.000000 0.000000
v 249.999985 100.000000 0.000000
v 99.999969 -0.000000 400.000000
v -0.000031 -0.000000 400.000000
v -0.000031 -0.000000 300.000000
v 99.999969 -0.000000 300.000000
v -0.000031 -0.000000 200.000000
v 199.999969 -0.000000 400.000000
v 99.999969 -0.000000 200.000000
v -0.000031 -0.000000 100.000000
v 199.999969 -0.000000 300.000000
v 249.999985 -0.000000 300.000000
v 249.999985 -0.000000 400.000000
v 249.999985 -0.000000 200.000000
v 199.999969 -0.000000 200.000000
v 249.999985 -0.000000 100.000000
v 99.999969 -0.000000 100.000000
v -0.000031 0.000000 0.000000
v 99.999969 0.000000 0.000000
v 199.999969 -0.000000 100.000000
v 249.999985 0.000000 0.000000
v 199.999969 0.000000 0.000000
v -0.000031 100.000000 100.000000
v 99.999969 100.000000 0.000000
v -0.000031 100.000000 0.000000
v 99.999969 100.000000 100.000000
v -0.000031 100.000000 200.000000
v 199.999969 100.000000 0.000000
v 99.999969 100.000000 200.000000
v -0.000031 100.000000 300.000000
v 199.999969 100.000000 100.000000
v 249.999985 100.000000 100.000000
v 249.999985 100.000000 0.000000
v 249.999985 100.000000 200.000000
v 199.999969 100.000000 200.000000
v 249.999985 100.000000 300.000000
v 99.999969 100.000000 300.000000
v -0.000031 100.000000 400.000000
v 99.999969 100.000000 400.000000
v 199.999969 100.000000 300.000000
v 249.999985 100.000000 400.000000
v 199.999969 100.000000 400.000000
v 500.000000 0.000000 0.000000
v 400.000000 0.000000 0.000000
v 500.000000 50.000000 0.000000
v 400.000000 50.000000 0.000000
v 500.000000 100.000000 0.000000
v 300.000000 0.000000 0.000000
v 400.000000 100.000000 0.000000
v 300.000000 50.000000 0.000000
v 300.000000 100.000000 0.000000
v 400.000000 -0.000000 400.000000
v 500.000000 -0.000000 300.000000
v 500.000000 -0.000000 400.000000
v 400.000000 -0.000000 300.000000
v 500.000000 -0.000000 200.000000
v 300.000000 -0.000000 400.000000
v 400.000000 -0.000000 200.000000
v 500.000000 -0.000000 100.000000
v 300.000000 -0.000000 300.000000
v 300.000000 -0.000000 200.000000
v 400.000000 -0.000000 100.000000
v 500.000000 0.000000 0.000000
v 400.000000 0.000000 0.000000
v 300.000000 -0.000000 100.000000
v 300.000000 0.000000 0.000000
v 400.000000 100.000000 0.000000
v 500.000000 100.000000 100.000000
v 500.000000 100.000000 0.000000
v 400.000000 100.000000 100.000000
v 500.000000 100.000000 200.000000
v 300.000000 100.000000 0.000000
v 400.000000 100.000000 200.000000
v 500.000000 100.000000 300.000000
v 300.000000 100.000000 100.000000
v 300.000000 100.000000 200.000000
v 400.000000 100.000000 300.000000
v 500.000000 100.000000 400.000000
v 400.000000 100.000000 400.000000
v 300.000000 100.000000 300.000000
v 300.000000 100.000000 400.000000
v 99.999969 -0.000000 400.000000
v -0.000031 50.000000 400.000000
v -0.000031 -0.000000 400.000000
v 99.999969 100.000000 400.000000
v -0.000031 100.000000 400.000000
v 99.999969 50.000000 400.000000
v 199.999969 -0.000000 400.000000
v 199.999969 100.000000 400.000000
v 199.999969 50.000000 400.000000
v 249.999985 -0.000000 400.000000
v 249.999985 100.000000 400.000000
v 249.999985 50.000000 400.000000
v 500.000000 50.000000 400.000000
v 400.000000 -0.000000 400.000000
v 500.000000 -0.000000 400.000000
v 400.000000 100.000000 400.000000
v 500.000000 100.000000 400.000000
v 400.000000 50.000000 400.000000
v 300.000000 -0.000000 400.000000
v 300.000000 100.000000 400.000000
v 300.000000 50.000000 400.000000
vn -1.0000 -0.0000 -0.0000
vn 1.0000 -0.0000 -0.0000
vn -0.0000 -0.0000 -1.0000
vn -0.0000 -1.0000 -0.0000
vn -0.0000 1.0000 -0.0000
vn -0.0000 -0.0000 1.0000
vt 0.498047 0.747803
vt 0.498047 0.996006
vt 0.622070 0.996002
vt 0.622070 0.747803
vt 0.622070 0.499512
vt 0.498047 0.499512
vt 0.249756 0.747803
vt 0.249756 0.499512
vt 0.249756 0.251465
vt 0.001477 0.251465
vt 0.001475 0.002930
vt 0.249756 0.002930
vt 0.873535 0.872314
vt 0.997559 0.872314
vt 0.997559 0.624023
vt 0.873535 0.624023
vt 0.498047 0.251465
vt 0.622070 0.251465
vt 0.498047 0.002930
vt 0.874023 0.996334
vt 0.873535 0.872192
vt 0.998047 0.872192
vt 0.998047 0.996239
vt 0.249756 0.996025
vt 0.498047 0.996025
vt 0.749023 0.624023
vt 0.749023 0.375977
vt 0.873535 0.375977
vt 0.126465 0.500000
vt 0.250488 0.500000
vt 0.250488 0.251953
vt 0.126465 0.251953
vt 0.001522 0.499512
vt 0.001528 0.747803
vt 0.001516 0.251465
vt 0.125854 0.500000
vt 0.001763 0.500000
vt 0.001765 0.251465
vt 0.125854 0.251465
vt 0.001765 0.003418
vt 0.125854 0.003418
vt 0.873535 0.996380
vt 0.749023 0.996380
vt 0.749023 0.872314
vt 0.125854 0.748291
vt 0.001762 0.748291
vt 0.126465 0.003418
vt 0.250488 0.003418
vt 0.001760 0.996401
vt 0.125854 0.996401
vt 0.250488 0.748291
vt 0.126465 0.748291
vt 0.001479 0.499512
vt 0.001483 0.996025
vt 0.001481 0.747803
vt 0.749512 0.996428
vt 0.749512 0.872314
vt 0.997559 0.623779
vt 0.997559 0.375488
vt 0.997559 0.375977
vt 0.001514 0.002930
vt 0.249756 0.996010
vt 0.001534 0.996017
vt 0.749512 0.624023
vt 0.997559 0.996380
vt 0.622070 0.996021
vt 0.622070 0.002930
vt 0.126465 0.996439
vt 0.250488 0.996439
s 1
usemtl MI_Door_Ice
f 100/1/4 97/2/4 53/3/4 52/4/4
f 80/1/5 76/4/5 74/5/5 75/6/5
f 120/1/5 117/7/5 113/8/5 116/6/5
f 110/9/5 108/10/5 109/11/5 107/12/5
f 90/13/3 91/14/3 89/15/3 86/16/3
f 60/17/4 56/18/4 54/5/4 55/6/4
f 66/9/5 71/17/5 68/19/5 64/12/5
f 133/20/6 130/21/6 128/22/6 131/23/6
f 79/24/5 82/25/5 80/1/5 77/7/5
f 34/16/3 31/26/3 32/27/3 33/28/3
f 21/29/2 28/30/2 27/31/2 19/32/2
f 98/8/4 96/33/4 93/34/4 95/7/4
f 57/9/4 49/8/4 47/33/4 50/35/4
f 6/36/1 5/37/1 2/38/1 4/39/1
f 116/6/5 113/8/5 110/9/5 115/17/5
f 62/19/4 60/17/4 57/9/4 59/12/4
f 4/39/1 2/38/1 3/40/1 1/41/1
f 41/42/3 39/43/3 36/44/3 38/13/3
f 40/14/3 38/13/3 34/16/3 37/15/3
f 75/6/5 74/5/5 72/18/5 71/17/5
f 8/45/1 7/46/1 5/37/1 6/36/1
f 60/17/4 55/6/4 49/8/4 57/9/4
f 49/8/4 46/7/4 45/34/4 47/33/4
f 13/30/1 6/29/1 4/32/1 12/31/1
f 77/7/5 80/1/5 75/6/5 69/8/5
f 12/31/1 4/32/1 1/47/1 11/48/1
f 51/1/4 52/4/4 53/3/4 48/2/4
f 24/49/2 25/50/2 23/45/2 22/46/2
f 39/43/3 41/42/3 90/13/3 88/44/3
f 22/46/2 23/45/2 21/36/2 20/37/2
f 14/51/1 8/52/1 6/29/1 13/30/1
f 101/6/4 100/1/4 52/4/4 54/5/4
f 10/50/1 9/49/1 7/46/1 8/45/1
f 63/10/5 66/9/5 64/12/5 65/11/5
f 23/52/2 29/51/2 28/30/2 21/29/2
f 113/8/5 111/53/5 108/10/5 110/9/5
f 20/37/2 21/36/2 19/39/2 16/38/2
f 69/8/5 75/6/5 71/17/5 66/9/5
f 16/38/2 19/39/2 17/41/2 18/40/2
f 119/24/5 118/54/5 114/55/5 117/7/5
f 133/20/6 132/56/6 129/57/6 130/21/6
f 38/13/3 36/44/3 31/26/3 34/16/3
f 78/54/5 79/24/5 77/7/5 70/55/5
f 134/28/6 139/16/6 135/58/6 136/59/6
f 37/15/3 34/16/3 33/28/3 35/60/3
f 59/12/4 57/9/4 50/35/4 58/61/4
f 51/1/4 48/2/4 43/62/4 46/7/4
f 139/16/6 142/21/6 140/22/6 135/58/6
f 84/26/3 86/16/3 85/28/3 83/27/3
f 46/7/4 43/62/4 44/63/4 45/34/4
f 88/44/3 90/13/3 86/16/3 84/26/3
f 86/16/3 89/15/3 87/60/3 85/28/3
f 142/21/6 139/16/6 137/64/6 141/57/6
f 19/32/2 27/31/2 26/48/2 17/47/2
f 55/6/4 54/5/4 52/4/4 51/1/4
f 41/42/3 42/65/3 91/14/3 90/13/3
f 100/1/4 95/7/4 92/62/4 97/2/4
f 55/6/4 51/1/4 46/7/4 49/8/4
f 101/6/4 98/8/4 95/7/4 100/1/4
f 102/9/4 99/35/4 96/33/4 98/8/4
f 95/7/4 93/34/4 94/63/4 92/62/4
f 142/21/6 133/20/6 131/23/6 140/22/6
f 105/17/4 101/6/4 54/5/4 56/18/4
f 82/25/5 81/66/5 76/4/5 80/1/5
f 42/65/3 41/42/3 38/13/3 40/14/3
f 106/19/4 105/17/4 56/18/4 61/67/4
f 106/19/4 104/12/4 102/9/4 105/17/4
f 105/17/4 102/9/4 98/8/4 101/6/4
f 25/68/2 30/69/2 29/51/2 23/52/2
f 67/53/5 69/8/5 66/9/5 63/10/5
f 115/17/5 110/9/5 107/12/5 112/19/5
f 72/18/5 115/17/5 112/19/5 73/67/5
f 62/19/4 61/67/4 56/18/4 60/17/4
f 76/4/5 120/1/5 116/6/5 74/5/5
f 74/5/5 116/6/5 115/17/5 72/18/5
f 117/7/5 114/55/5 111/53/5 113/8/5
f 104/12/4 103/61/4 99/35/4 102/9/4
f 71/17/5 72/18/5 73/67/5 68/19/5
f 121/25/5 119/24/5 117/7/5 120/1/5
f 127/16/6 125/64/6 126/27/6 123/28/6
f 70/55/5 77/7/5 69/8/5 67/53/5
f 130/21/6 129/57/6 125/64/6 127/16/6
f 130/21/6 127/16/6 122/58/6 128/22/6
f 81/66/5 121/25/5 120/1/5 76/4/5
f 139/16/6 134/28/6 138/27/6 137/64/6
f 127/16/6 123/28/6 124/59/6 122/58/6
f 15/69/1 10/68/1 8/52/1 14/51/1
f 133/20/6 142/21/6 141/57/6 132/56/6
