# Blender 5.0.1
# www.blender.org
mtllib BP_JungleStatues_parrot.mtl
o JungleStatues_parrot.001
v -31.250002 -31.249998 -0.000000
v -31.249998 31.250002 -0.000000
v 31.249998 -31.250002 0.000000
v 31.250002 31.249998 0.000000
v 31.249998 -31.250002 31.250000
v 31.250002 31.249998 31.250000
v -31.249998 31.250002 31.250000
v -31.250002 -31.249998 31.250000
v -31.250002 -31.249998 31.250000
v -31.249998 31.250002 31.250000
v -31.249998 31.250002 -0.000000
v -31.250002 -31.249998 -0.000000
v 31.249998 -31.250002 31.250000
v -31.250002 -31.249998 31.250000
v -31.250002 -31.249998 -0.000000
v 31.249998 -31.250002 0.000000
v 31.250002 31.249998 31.250000
v 31.249998 -31.250002 31.250000
v 31.249998 -31.250002 0.000000
v 31.250002 31.249998 0.000000
v -31.249998 31.250002 31.250000
v 31.250002 31.249998 31.250000
v 31.250002 31.249998 0.000000
v -31.249998 31.250002 -0.000000
v -25.000002 -24.999998 74.944878
v -24.999998 25.000002 74.944878
v -24.999998 25.000002 31.194876
v -25.000002 -24.999998 31.194876
v 24.999998 -25.000002 74.944878
v -25.000002 -24.999998 74.944878
v -25.000002 -24.999998 31.194876
v 24.999998 -25.000002 31.194876
v 25.000002 24.999998 74.944878
v 24.999998 -25.000002 74.944878
v 24.999998 -25.000002 31.194876
v 25.000002 24.999998 31.194876
v -24.999998 25.000002 74.944878
v 25.000002 24.999998 74.944878
v 25.000002 24.999998 31.194876
v -24.999998 25.000002 31.194876
v -31.250002 -31.249998 74.878639
v -31.249998 31.250002 74.878639
v 31.249998 -31.250002 74.878639
v 31.250002 31.249998 74.878639
v 31.249998 -31.250002 99.878639
v 31.250002 31.249998 99.878639
v -31.249998 31.250002 99.878639
v -31.250002 -31.249998 99.878639
v -31.250002 -31.249998 99.878639
v -31.249998 31.250002 99.878639
v -31.249998 31.250002 74.878639
v -31.250002 -31.249998 74.878639
v 31.249998 -31.250002 99.878639
v -31.250002 -31.249998 99.878639
v -31.250002 -31.249998 74.878639
v 31.249998 -31.250002 74.878639
v 31.250002 31.249998 99.878639
v 31.249998 -31.250002 99.878639
v 31.249998 -31.250002 74.878639
v 31.250002 31.249998 74.878639
v -31.249998 31.250002 99.878639
v 31.250002 31.249998 99.878639
v 31.250002 31.249998 74.878639
v -31.249998 31.250002 74.878639
v -12.367600 -11.160257 102.276276
v -12.367600 -28.837931 119.953941
v -18.617599 -11.160257 102.276276
v -18.617601 -28.837931 119.953941
v -12.367599 2.097987 150.889862
v -12.367599 19.775656 133.212204
v -18.617599 19.775656 133.212204
v -18.617599 2.097987 150.889862
v -18.617601 -28.837931 119.953941
v -18.617599 2.097987 150.889862
v -18.617599 -11.160257 102.276276
v -18.617599 19.775656 133.212204
v -18.617599 2.097987 150.889862
v -18.617601 -28.837931 119.953941
v -12.367599 2.097987 150.889862
v -12.367600 -28.837931 119.953941
v -12.367600 -11.160257 102.276276
v -12.367599 2.097987 150.889862
v -12.367600 -28.837931 119.953941
v -12.367599 19.775656 133.212204
v -12.367599 19.775656 133.212204
v -12.367600 -11.160257 102.276276
v -18.617599 19.775656 133.212204
v -18.617599 -11.160257 102.276276
v -12.500001 -22.895283 107.591309
v -12.500000 -1.244646 95.091309
v 12.499999 -22.895283 107.591309
v 12.500000 -1.244648 95.091309
v 12.500000 2.104712 150.892578
v 12.500001 23.755348 138.392578
v -12.499999 23.755348 138.392578
v -12.500000 2.104713 150.892578
v -12.500001 -22.895283 107.591309
v -12.499999 23.755348 138.392578
v -12.500000 -1.244646 95.091309
v -12.500000 2.104713 150.892578
v 12.500000 2.104712 150.892578
v -12.500000 2.104713 150.892578
v -12.500001 -22.895283 107.591309
v 12.499999 -22.895283 107.591309
v 12.500001 23.755348 138.392578
v 12.499999 -22.895283 107.591309
v 12.500000 -1.244648 95.091309
v 12.500000 2.104712 150.892578
v -12.499999 23.755348 138.392578
v 12.500001 23.755348 138.392578
v 12.500000 -1.244648 95.091309
v -12.500000 -1.244646 95.091309
v -9.479715 2.046973 109.977325
v -9.479715 5.282214 97.903259
v -3.229716 2.046972 109.977325
v -3.229716 5.282213 97.903259
v -3.229716 8.084008 111.594948
v -9.479714 11.319249 99.520874
v -9.479715 8.084008 111.594948
v -3.229715 11.319249 99.520874
v -9.479715 8.084008 111.594948
v -9.479715 5.282214 97.903259
v -9.479715 2.046973 109.977325
v -9.479714 11.319249 99.520874
v -3.229716 8.084008 111.594948
v -9.479715 2.046973 109.977325
v -3.229716 2.046972 109.977325
v -9.479715 8.084008 111.594948
v -3.229716 5.282213 97.903259
v -3.229716 8.084008 111.594948
v -3.229716 2.046972 109.977325
v -3.229715 11.319249 99.520874
v -9.479714 11.319249 99.520874
v -3.229716 5.282213 97.903259
v -9.479715 5.282214 97.903259
v -3.229715 11.319249 99.520874
v 9.479715 2.046971 109.977325
v 3.229717 5.282214 97.903259
v 9.479716 5.282213 97.903259
v 3.229715 2.046972 109.977325
v 9.479715 8.084007 111.594948
v 3.229717 11.319250 99.520874
v 3.229716 8.084009 111.594948
v 9.479718 11.319248 99.520874
v 9.479715 2.046971 109.977325
v 9.479716 5.282213 97.903259
v 9.479715 8.084007 111.594948
v 9.479718 11.319248 99.520874
v 9.479715 8.084007 111.594948
v 3.229715 2.046972 109.977325
v 9.479715 2.046971 109.977325
v 3.229716 8.084009 111.594948
v 3.229716 8.084009 111.594948
v 3.229717 5.282214 97.903259
v 3.229715 2.046972 109.977325
v 3.229717 11.319250 99.520874
v 9.479718 11.319248 99.520874
v 3.229717 5.282214 97.903259
v 3.229717 11.319250 99.520874
v 9.479716 5.282213 97.903259
v 9.374998 -38.601978 102.867615
v -9.375002 -38.601978 102.867615
v -9.375002 -35.476978 97.454956
v 9.374998 -35.476978 97.454956
v 9.374999 -16.951340 115.367607
v -9.375001 -13.826340 109.954948
v -9.375001 -16.951340 115.367607
v 9.374999 -13.826340 109.954948
v -9.375002 -38.601978 102.867615
v -9.375001 -16.951340 115.367607
v -9.375002 -35.476978 97.454956
v -9.375001 -13.826340 109.954948
v 9.374999 -16.951340 115.367607
v -9.375002 -38.601978 102.867615
v 9.374998 -38.601978 102.867615
v -9.375001 -16.951340 115.367607
v 9.374998 -35.476978 97.454956
v 9.374999 -16.951340 115.367607
v 9.374998 -38.601978 102.867615
v 9.374999 -13.826340 109.954948
v -9.375001 -13.826340 109.954948
v 9.374998 -35.476978 97.454956
v -9.375002 -35.476978 97.454956
v 9.374999 -13.826340 109.954948
v -6.249999 18.239384 141.341278
v -6.249999 36.350491 136.488434
v 6.250001 18.239384 141.341278
v 6.250001 36.350491 136.488434
v 6.250001 23.092239 159.452393
v 6.250002 41.203346 154.599533
v -6.249998 41.203346 154.599533
v -6.249999 23.092239 159.452393
v -6.249999 23.092239 159.452393
v -6.249998 41.203346 154.599533
v -6.249999 36.350491 136.488434
v -6.249999 18.239384 141.341278
v 6.250001 23.092239 159.452393
v -6.249999 23.092239 159.452393
v -6.249999 18.239384 141.341278
v 6.250001 18.239384 141.341278
v 6.250001 23.092239 159.452393
v 6.250001 36.350491 136.488434
v 6.250002 41.203346 154.599533
v 6.250001 18.239384 141.341278
v -6.249998 41.203346 154.599533
v 6.250002 41.203346 154.599533
v 6.250001 36.350491 136.488434
v -6.249999 36.350491 136.488434
v -9.375000 0.289337 146.178802
v -9.374999 18.400444 141.325958
v 9.375000 0.289336 146.178802
v 9.375001 18.400444 141.325958
v 9.375000 6.759810 170.326950
v 9.375001 24.870920 165.474091
v -9.374999 24.870920 165.474091
v -9.375000 6.759811 170.326950
v -9.374999 24.870920 165.474091
v -9.374999 18.400444 141.325958
v -9.375000 6.759811 170.326950
v -9.375000 0.289337 146.178802
v 9.375000 6.759810 170.326950
v -9.375000 6.759811 170.326950
v -9.375000 0.289337 146.178802
v 9.375000 0.289336 146.178802
v 9.375000 6.759810 170.326950
v 9.375001 18.400444 141.325958
v 9.375001 24.870920 165.474091
v 9.375000 0.289336 146.178802
v -9.374999 24.870920 165.474091
v 9.375001 24.870920 165.474091
v 9.375001 18.400444 141.325958
v -9.374999 18.400444 141.325958
v -9.374999 23.220505 159.442459
v -9.374998 35.294579 156.207230
v 9.375001 23.220505 159.442459
v 9.375002 35.294579 156.207230
v 9.375001 24.838123 165.479492
v 9.375002 36.912197 162.244263
v -9.374998 36.912197 162.244263
v -9.374999 24.838123 165.479492
v -9.374999 24.838123 165.479492
v -9.374998 36.912197 162.244263
v -9.374998 35.294579 156.207230
v -9.374999 23.220505 159.442459
v 9.375001 24.838123 165.479492
v -9.374999 24.838123 165.479492
v -9.374999 23.220505 159.442459
v 9.375001 23.220505 159.442459
v 9.375001 24.838123 165.479492
v 9.375002 35.294579 156.207230
v 9.375002 36.912197 162.244263
v 9.375001 23.220505 159.442459
v -9.374998 36.912197 162.244263
v 9.375002 36.912197 162.244263
v 9.375002 35.294579 156.207230
v -9.374998 35.294579 156.207230
v -3.124999 18.705685 166.954346
v -3.124999 24.742722 165.336731
v 3.125001 18.705685 166.954346
v 3.125001 24.742722 165.336731
v 3.125001 21.940922 179.028427
v 3.125001 27.977959 177.410797
v -3.124999 27.977959 177.410797
v -3.124999 21.940922 179.028427
v -3.124999 27.977959 177.410797
v -3.124999 18.705685 166.954346
v -3.124999 21.940922 179.028427
v -3.124999 24.742722 165.336731
v -3.124999 21.940922 179.028427
v -3.124999 18.705685 166.954346
v 3.125001 21.940922 179.028427
v 3.125001 18.705685 166.954346
v 3.125001 18.705685 166.954346
v 3.125001 27.977959 177.410797
v 3.125001 21.940922 179.028427
v 3.125001 24.742722 165.336731
v 3.125001 27.977959 177.410797
v 3.125001 24.742722 165.336731
v -3.124999 27.977959 177.410797
v -3.124999 24.742722 165.336731
v -3.125000 12.685049 168.517761
v -3.124999 18.722086 166.900146
v 3.125000 12.685049 168.517761
v 3.125001 18.722086 166.900146
v 3.125001 14.302668 174.554794
v 3.125001 20.339705 172.937180
v -3.124999 20.339705 172.937180
v -3.124999 14.302668 174.554794
v -3.124999 14.302668 174.554794
v -3.124999 20.339705 172.937180
v -3.124999 18.722086 166.900146
v -3.125000 12.685049 168.517761
v 3.125001 14.302668 174.554794
v -3.124999 14.302668 174.554794
v -3.125000 12.685049 168.517761
v 3.125000 12.685049 168.517761
v 3.125001 14.302668 174.554794
v 3.125001 18.722086 166.900146
v 3.125001 20.339705 172.937180
v 3.125000 12.685049 168.517761
v -3.124999 20.339705 172.937180
v 3.125001 20.339705 172.937180
v 3.125001 18.722086 166.900146
v -3.124999 18.722086 166.900146
v -3.125000 8.372528 176.078552
v -3.124999 14.409565 174.460938
v 3.125000 8.372528 176.078552
v 3.125001 14.409565 174.460938
v 3.125000 9.990147 182.115585
v 3.125001 16.027184 180.497971
v -3.124999 16.027184 180.497971
v -3.125000 9.990147 182.115585
v -3.125000 9.990147 182.115585
v -3.124999 16.027184 180.497971
v -3.124999 14.409565 174.460938
v -3.125000 8.372528 176.078552
v 3.125000 9.990147 182.115585
v -3.125000 9.990147 182.115585
v -3.125000 8.372528 176.078552
v 3.125000 8.372528 176.078552
v 3.125000 9.990147 182.115585
v 3.125001 14.409565 174.460938
v 3.125001 16.027184 180.497971
v 3.125000 8.372528 176.078552
v -3.124999 16.027184 180.497971
v 3.125001 16.027184 180.497971
v 3.125001 14.409565 174.460938
v -3.124999 14.409565 174.460938
v -3.124999 15.988110 180.473389
v -3.124999 22.025146 178.855774
v 3.125001 15.988110 180.473389
v 3.125001 22.025146 178.855774
v 3.125001 19.223347 192.547470
v 3.125001 25.260384 190.929840
v -3.124999 25.260384 190.929840
v -3.124999 19.223347 192.547470
v -3.124999 25.260384 190.929840
v -3.124999 15.988110 180.473389
v -3.124999 19.223347 192.547470
v -3.124999 22.025146 178.855774
v -3.124999 19.223347 192.547470
v -3.124999 15.988110 180.473389
v 3.125001 19.223347 192.547470
v 3.125001 15.988110 180.473389
v 3.125001 15.988110 180.473389
v 3.125001 25.260384 190.929840
v 3.125001 19.223347 192.547470
v 3.125001 22.025146 178.855774
v 3.125001 25.260384 190.929840
v 3.125001 22.025146 178.855774
v -3.124999 25.260384 190.929840
v -3.124999 22.025146 178.855774
v -3.125000 4.015591 183.627655
v -3.125000 10.052628 182.010040
v 3.125000 4.015591 183.627655
v 3.125000 10.052628 182.010040
v 3.125000 7.250828 195.701736
v 3.125000 13.287865 194.084106
v -3.125000 13.287865 194.084106
v -3.125000 7.250828 195.701736
v -3.125000 13.287865 194.084106
v -3.125000 4.015591 183.627655
v -3.125000 7.250828 195.701736
v -3.125000 10.052628 182.010040
v -3.125000 7.250828 195.701736
v -3.125000 4.015591 183.627655
v 3.125000 7.250828 195.701736
v 3.125000 4.015591 183.627655
v 3.125000 4.015591 183.627655
v 3.125000 13.287865 194.084106
v 3.125000 7.250828 195.701736
v 3.125000 10.052628 182.010040
v 3.125000 13.287865 194.084106
v 3.125000 10.052628 182.010040
v -3.125000 13.287865 194.084106
v -3.125000 10.052628 182.010040
v 12.367601 -11.160259 102.276276
v 18.617598 -28.837931 119.953941
v 12.367599 -28.837931 119.953941
v 18.617603 -11.160260 102.276276
v 12.367603 19.775656 133.212204
v 18.617599 2.097985 150.889862
v 18.617603 19.775656 133.212204
v 12.367599 2.097986 150.889862
v 18.617603 -11.160260 102.276276
v 18.617603 19.775656 133.212204
v 18.617599 2.097985 150.889862
v 18.617598 -28.837931 119.953941
v 12.367599 2.097986 150.889862
v 18.617598 -28.837931 119.953941
v 18.617599 2.097985 150.889862
v 12.367599 -28.837931 119.953941
v 12.367601 -11.160259 102.276276
v 12.367599 2.097986 150.889862
v 12.367603 19.775656 133.212204
v 12.367599 -28.837931 119.953941
v 18.617603 19.775656 133.212204
v 12.367601 -11.160259 102.276276
v 12.367603 19.775656 133.212204
v 18.617603 -11.160260 102.276276
vn -0.0000 -0.0000 -1.0000
vn -0.0000 -0.0000 1.0000
vn -1.0000 -0.0000 -0.0000
vn -0.0000 -1.0000 -0.0000
vn 1.0000 -0.0000 -0.0000
vn -0.0000 1.0000 -0.0000
vn -0.0000 -0.7071 -0.7071
vn -0.0000 0.7071 0.7071
vn -0.0000 -0.7071 0.7071
vn -0.0000 0.7071 -0.7071
vn -0.0000 -0.5000 -0.8660
vn -0.0000 0.5000 0.8660
vn -0.0000 -0.8660 0.5000
vn -0.0000 0.8660 -0.5000
vn -0.0000 -0.9659 -0.2588
vn -0.0000 0.9659 0.2588
vn -0.0000 -0.2588 0.9659
vn -0.0000 0.2588 -0.9659
vn -0.0000 -0.8660 -0.5000
vn -0.0000 0.8660 0.5000
vn -0.0000 -0.5000 0.8660
vn -0.0000 0.5000 -0.8660
vn -0.0000 -0.2588 -0.9659
vn -0.0000 0.2588 0.9659
vn -0.0000 -0.9659 0.2588
vn -0.0000 0.9659 -0.2588
vt 0.030579 0.031738
vt 0.155396 0.031738
vt 0.155396 0.343750
vt 0.030579 0.343750
vt 0.687500 0.404785
vt 0.812500 0.404785
vt 0.812500 0.155762
vt 0.687500 0.155762
vt 0.093933 0.750488
vt 0.093933 0.719482
vt 0.125122 0.719482
vt 0.125122 0.750488
vt 0.717773 0.594727
vt 0.717773 0.656738
vt 0.687012 0.656738
vt 0.687012 0.594727
vt 0.687012 0.031250
vt 0.687012 0.155273
vt 0.562988 0.155273
vt 0.562988 0.031250
vt 0.311279 0.031738
vt 0.311279 0.343750
vt 0.658203 0.688477
vt 0.782227 0.688477
vt 0.782227 0.781616
vt 0.658203 0.781616
vt 0.155396 0.343262
vt 0.311279 0.343262
vt 0.311279 0.031250
vt 0.155396 0.031250
vt 0.812988 0.782349
vt 0.812988 0.811768
vt 0.688965 0.811768
vt 0.688965 0.782349
vt 0.531738 0.718262
vt 0.438232 0.718262
vt 0.438232 0.656006
vt 0.531738 0.656006
vt 0.030685 0.343262
vt 0.155518 0.343262
vt 0.155518 0.031250
vt 0.030685 0.031250
vt 0.625000 0.656006
vt 0.625000 0.718262
vt 0.030884 0.656494
vt 0.030884 0.344238
vt 0.342773 0.344238
vt 0.342773 0.656494
vt 0.155640 0.031250
vt 0.311523 0.031250
vt 0.311523 0.343262
vt 0.155640 0.343262
vt 0.155518 0.812622
vt 0.062561 0.812744
vt 0.062561 0.750610
vt 0.155518 0.750610
vt 0.312744 0.281250
vt 0.531250 0.281250
vt 0.531250 0.031250
vt 0.312744 0.031250
vt 0.626953 0.781616
vt 0.626953 0.688477
vt 0.124451 0.656982
vt 0.124451 0.687500
vt 0.154907 0.687500
vt 0.154907 0.656982
vt 0.843262 0.532227
vt 0.968262 0.532227
vt 0.968262 0.625732
vt 0.843262 0.625732
vt 0.033051 0.656982
vt 0.063477 0.656982
vt 0.063538 0.687500
vt 0.033051 0.687500
vt 0.655762 0.282227
vt 0.655762 0.593994
vt 0.343750 0.593994
vt 0.343750 0.282227
vt 0.905762 0.500000
vt 0.781250 0.500000
vt 0.781250 0.406738
vt 0.905762 0.406738
vt 0.344727 0.718262
vt 0.344727 0.656006
vt 0.655762 0.594238
vt 0.343750 0.594238
vt 0.936523 0.155762
vt 0.936523 0.405273
vt 0.812012 0.405273
vt 0.812012 0.155762
vt 0.967773 0.658691
vt 0.845215 0.658691
vt 0.845215 0.872681
vt 0.967773 0.872681
vt 0.687988 0.500000
vt 0.687988 0.406738
vt 0.030594 0.031250
vt 0.030594 0.343750
vt 0.312500 0.031250
vt 0.530762 0.031250
vt 0.530762 0.281250
vt 0.312500 0.281250
vt 0.031525 0.687988
vt 0.062744 0.687988
vt 0.062744 0.719238
vt 0.031525 0.719238
vt 0.812500 0.656738
vt 0.812500 0.688232
vt 0.718262 0.688232
vt 0.718262 0.656738
vt 0.343262 0.656738
vt 0.312012 0.656738
vt 0.312012 0.718994
vt 0.343262 0.718994
vt 0.718262 0.594238
vt 0.812500 0.594238
vt 0.093933 0.687988
vt 0.093933 0.719238
vt 0.844727 0.658691
vt 0.813965 0.658691
vt 0.813965 0.873291
vt 0.844727 0.873291
vt 0.750000 0.500244
vt 0.750000 0.562500
vt 0.718750 0.562500
vt 0.718750 0.500244
vt 0.281006 0.656738
vt 0.281006 0.718994
vt 0.250000 0.718994
vt 0.250000 0.656738
vt 0.845215 0.658447
vt 0.967773 0.658447
vt 0.967773 0.873047
vt 0.845215 0.873047
vt 0.717773 0.687744
vt 0.687012 0.687744
vt 0.843262 0.656982
vt 0.968262 0.656982
vt 0.530273 0.718262
vt 0.624512 0.718262
vt 0.624512 0.812622
vt 0.530273 0.812622
vt 0.312256 0.031738
vt 0.530762 0.031738
vt 0.312256 0.281250
vt 0.155518 0.031738
vt 0.311523 0.031738
vt 0.311523 0.343750
vt 0.155518 0.343750
vt 0.686523 0.030762
vt 0.686523 0.155273
vt 0.562500 0.155273
vt 0.562500 0.030762
vt 0.373047 0.718262
vt 0.467285 0.718262
vt 0.467285 0.812622
vt 0.373047 0.812622
vt 0.030884 0.656250
vt 0.342773 0.656250
vt 0.343994 0.813843
vt 0.437744 0.813843
vt 0.437744 0.938629
vt 0.343994 0.938629
vt 0.935059 0.155273
vt 0.935059 0.030762
vt 0.687012 0.405273
vt 0.687012 0.155762
vt 0.781250 0.406250
vt 0.687988 0.406250
vt 0.531250 0.813843
vt 0.625000 0.813843
vt 0.625000 0.938629
vt 0.531250 0.938629
vt 0.718262 0.562988
vt 0.812500 0.562988
vt 0.687500 0.562500
vt 0.687500 0.500244
vt 0.125122 0.687988
vt 0.125122 0.719238
vt 0.687012 0.563721
vt 0.717773 0.563721
vt 0.781250 0.500244
vt 0.781250 0.562500
vt 0.062683 0.750488
vt 0.062683 0.719482
vt 0.030624 0.031250
vt 0.030624 0.343750
vt 0.186401 0.750610
vt 0.186401 0.812622
vt 0.031647 0.812744
vt 0.031647 0.750610
vt 0.812988 0.688477
vt 0.812988 0.781494
vt 0.031525 0.750488
vt 0.031525 0.719482
vt 0.843262 0.500977
vt 0.968262 0.500977
s 1
usemtl MI_JungleStatues_parrot
f 64/1/6 61/2/6 62/3/6 63/4/6
f 100/5/3 98/6/3 99/7/3 97/8/3
f 306/9/23 308/10/23 307/11/23 305/12/23
f 272/13/25 271/14/25 269/15/25 270/16/25
f 96/17/12 93/18/12 94/19/12 95/20/12
f 20/2/5 17/21/5 18/22/5 19/3/5
f 184/23/22 182/24/22 183/25/22 181/26/22
f 282/9/23 284/10/23 283/11/23 281/12/23
f 12/27/3 9/28/3 10/29/3 11/30/3
f 66/31/7 68/32/7 67/33/7 65/34/7
f 200/35/25 197/36/25 198/37/25 199/38/25
f 52/39/3 49/40/3 50/41/3 51/42/3
f 186/43/23 188/44/23 187/35/23 185/38/23
f 8/45/2 5/46/2 6/47/2 7/48/2
f 16/49/4 13/50/4 14/51/4 15/52/4
f 240/53/24 237/54/24 238/55/24 239/56/24
f 28/57/3 25/58/3 26/59/3 27/60/3
f 168/23/20 166/26/20 167/61/20 165/62/20
f 160/63/18 158/64/18 159/65/18 157/66/18
f 176/67/21 174/68/21 175/69/21 173/70/21
f 128/71/17 126/72/17 127/73/17 125/74/17
f 2/75/1 4/76/1 3/77/1 1/78/1
f 224/79/25 221/80/25 222/81/25 223/82/25
f 192/37/24 189/36/24 190/83/24 191/84/24
f 42/75/1 44/85/1 43/86/1 41/78/1
f 112/87/14 109/88/14 110/89/14 111/90/14
f 388/91/5 385/92/5 386/93/5 387/94/5
f 216/81/24 213/80/24 214/95/24 215/96/24
f 56/97/4 53/30/4 54/3/4 55/98/4
f 36/99/5 33/100/5 34/101/5 35/102/5
f 291/103/3 292/104/3 289/105/3 290/106/3
f 256/107/26 253/108/26 254/109/26 255/110/26
f 146/111/5 148/112/5 147/113/5 145/114/5
f 234/107/23 236/110/23 235/115/23 233/116/23
f 320/117/25 317/118/25 318/105/25 319/104/25
f 392/119/9 390/120/9 391/121/9 389/122/9
f 124/112/3 122/111/3 123/114/3 121/113/3
f 352/123/26 351/124/26 349/125/26 350/126/26
f 132/127/5 130/128/5 131/129/5 129/130/5
f 84/131/5 82/132/5 83/133/5 81/134/5
f 136/65/18 134/64/18 135/63/18 133/66/18
f 336/15/24 333/14/24 334/135/24 335/136/24
f 180/137/5 178/70/5 179/69/5 177/138/5
f 344/13/25 343/14/25 341/15/25 342/16/25
f 195/139/3 196/140/3 193/141/3 194/142/3
f 32/143/4 29/144/4 30/101/4 31/145/4
f 24/146/6 21/147/6 22/148/6 23/149/6
f 90/150/11 92/151/11 91/152/11 89/153/11
f 204/154/5 202/155/5 203/156/5 201/157/5
f 48/158/2 45/46/2 46/47/2 47/159/2
f 228/160/5 226/161/5 227/162/5 225/163/5
f 116/64/15 115/73/15 113/72/15 114/63/15
f 104/164/13 101/18/13 102/17/13 103/165/13
f 108/166/5 106/167/5 107/90/5 105/89/5
f 156/127/3 154/130/3 155/129/3 153/128/3
f 210/168/23 212/80/23 211/95/23 209/169/23
f 218/170/3 220/171/3 219/172/3 217/173/3
f 248/115/25 245/174/25 246/175/25 247/116/25
f 208/139/26 205/142/26 206/156/26 207/155/26
f 40/99/6 37/100/6 38/101/6 39/102/6
f 276/126/5 274/125/5 275/176/5 273/177/5
f 400/119/10 398/120/10 399/121/10 397/122/10
f 300/117/5 298/178/5 299/179/5 297/118/5
f 376/123/26 375/124/26 373/125/26 374/126/26
f 88/119/10 87/122/10 85/121/10 86/120/10
f 354/180/23 356/181/23 355/13/23 353/16/23
f 340/123/3 338/182/3 339/183/3 337/124/3
f 264/15/24 261/14/24 262/135/24 263/136/24
f 348/126/5 346/125/5 347/176/5 345/177/5
f 304/9/26 301/184/26 302/185/26 303/10/26
f 60/186/5 57/30/5 58/3/5 59/187/5
f 258/180/23 260/181/23 259/13/23 257/16/23
f 324/117/5 322/178/5 323/179/5 321/118/5
f 152/74/17 150/73/17 151/72/17 149/71/17
f 243/188/3 244/189/3 241/53/3 242/56/3
f 232/170/26 229/173/26 230/162/26 231/161/26
f 80/119/9 79/122/9 77/121/9 78/120/9
f 120/127/16 118/112/16 119/113/16 117/128/16
f 252/190/5 250/191/5 251/55/5 249/54/5
f 280/123/26 279/124/26 277/125/26 278/126/26
f 315/103/3 316/104/3 313/105/3 314/106/3
f 140/73/15 138/64/15 139/63/15 137/72/15
f 72/31/8 69/32/8 70/33/8 71/34/8
f 164/24/19 161/192/19 162/193/19 163/25/19
f 372/126/5 370/125/5 371/176/5 369/177/5
f 330/180/23 332/181/23 331/13/23 329/16/23
f 364/123/3 362/182/3 363/183/3 361/124/3
f 328/9/26 325/184/26 326/185/26 327/10/26
f 312/194/24 309/195/24 310/185/24 311/184/24
f 288/194/24 285/195/24 286/185/24 287/184/24
f 268/123/3 266/182/3 267/183/3 265/124/3
f 360/15/24 357/14/24 358/135/24 359/136/24
f 296/117/25 293/118/25 294/105/25 295/104/25
f 76/93/3 75/92/3 73/91/3 74/94/3
f 380/33/7 378/32/7 379/31/7 377/34/7
f 144/112/16 142/127/16 143/128/16 141/113/16
f 396/133/3 394/132/3 395/131/3 393/134/3
f 384/32/8 382/31/8 383/34/8 381/33/8
f 172/196/3 171/197/3 169/68/3 170/67/3
f 368/13/25 367/14/25 365/15/25 366/16/25
