# Blender 5.0.1
# www.blender.org
mtllib BP_JungleTempleDoorDown_5.mtl
o SM_DingyJungle_TempleDoor_Box045.001
v 7550.000000 50.005157 -81600.000000
v 7650.000000 -49.994843 -81600.000000
v 7650.000000 50.005157 -81600.000000
v 7550.000000 -49.994843 -81600.000000
v 7950.000000 50.005157 -81600.000000
v 8050.000000 -49.994843 -81600.000000
v 8050.000000 50.005157 -81600.000000
v 7950.000000 -49.994843 -81600.000000
v 7650.000000 -49.994843 -81600.000000
v 7650.000000 50.005157 -81650.000000
v 7650.000000 50.005157 -81600.000000
v 7650.000000 -49.994843 -81650.000000
v 7950.000000 50.005157 -81650.000000
v 7950.000000 -49.994843 -81650.000000
v 7950.000000 50.005157 -81600.000000
v 7950.000000 -49.994843 -81600.000000
v 7650.000000 50.005157 -81650.000000
v 7650.000000 -49.994843 -81650.000000
v 7750.000000 50.005157 -81650.000000
v 7750.000000 -49.994843 -81650.000000
v 7850.000000 -49.994843 -81625.000000
v 7850.000000 50.005157 -81625.000000
v 7800.000000 50.005157 -81625.000000
v 7800.000000 -49.994843 -81625.000000
v 7850.000000 50.005157 -81650.000000
v 7850.000000 -49.994843 -81650.000000
v 7950.000000 50.005157 -81650.000000
v 7950.000000 -49.994843 -81650.000000
v 7750.000000 -24.994833 -81750.000000
v 7800.000000 -49.994843 -81750.000000
v 7800.000000 -24.994833 -81750.000000
v 7750.000000 -49.994843 -81750.000000
v 7850.000000 50.005157 -81625.000000
v 7850.000000 -49.994843 -81625.000000
v 7850.000000 -49.994843 -81650.000000
v 7850.000000 50.005157 -81650.000000
v 7750.000000 -49.994843 -81625.000000
v 7750.000000 50.005157 -81625.000000
v 7750.000000 50.005157 -81650.000000
v 7750.000000 -49.994843 -81650.000000
v 7750.000000 50.005157 -81625.000000
v 7750.000000 -49.994843 -81625.000000
v 7850.000000 -49.994843 -81750.000000
v 7850.000000 -24.994833 -81750.000000
v 7550.000000 -49.994843 -82100.000000
v 7550.000000 50.005157 -82100.000000
v 7550.000000 50.005157 -82150.000000
v 7550.000000 -49.994843 -82150.000000
v 8050.000000 50.005157 -82100.000000
v 8050.000000 -49.994843 -82100.000000
v 8050.000000 -49.994843 -82150.000000
v 8050.000000 50.005157 -82150.000000
v 8050.000000 -49.994843 -82100.000000
v 7950.000000 -49.994843 -82100.000000
v 7950.000000 -49.994843 -82150.000000
v 8050.000000 -49.994843 -82150.000000
v 7950.000000 -24.994841 -82100.000000
v 7950.000000 -24.994841 -82150.000000
v 7950.000000 -49.994843 -82100.000000
v 7950.000000 -49.994843 -82150.000000
v 7950.000000 -24.994841 -82100.000000
v 7850.000000 -24.994841 -82100.000000
v 7850.000000 -24.994841 -82150.000000
v 7950.000000 -24.994841 -82150.000000
v 7850.000000 -49.994843 -82150.000000
v 7850.000000 -24.994841 -82100.000000
v 7850.000000 -49.994843 -82100.000000
v 7850.000000 -24.994841 -82150.000000
v 7750.000000 -24.994841 -82100.000000
v 7750.000000 -24.994841 -82150.000000
v 7750.000000 -49.994843 -82100.000000
v 7750.000000 -49.994843 -82150.000000
v 7650.000000 -24.994841 -82150.000000
v 7750.000000 -24.994841 -82100.000000
v 7650.000000 -24.994841 -82100.000000
v 7750.000000 -24.994841 -82150.000000
v 7650.000000 -49.994843 -82150.000000
v 7650.000000 -24.994841 -82100.000000
v 7650.000000 -49.994843 -82100.000000
v 7650.000000 -24.994841 -82150.000000
v 7550.000000 -49.994843 -82150.000000
v 7650.000000 -49.994843 -82100.000000
v 7550.000000 -49.994843 -82100.000000
v 7650.000000 -49.994843 -82150.000000
v 7800.000000 -24.994833 -81700.000000
v 7800.000000 -24.994833 -81750.000000
v 7850.000000 -24.994833 -81700.000000
v 7850.000000 -24.994833 -81750.000000
v 7950.000000 -24.994833 -81700.000000
v 7950.000000 -24.994833 -81800.000000
v 7850.000000 -24.994833 -81800.000000
v 7850.000000 -24.994833 -81900.000000
v 7950.000000 -24.994833 -81900.000000
v 7850.000000 -24.994833 -82000.000000
v 7950.000000 -24.994833 -82000.000000
v 7850.000000 -24.994833 -82100.000000
v 7950.000000 -24.994833 -82100.000000
v 7800.000000 50.005157 -82100.000000
v 7800.000000 50.005157 -82150.000000
v 7750.000000 50.005157 -82100.000000
v 7750.000000 50.005157 -82150.000000
v 7650.000000 50.005157 -82100.000000
v 7650.000000 50.005157 -82150.000000
v 7550.000000 50.005157 -82100.000000
v 7550.000000 50.005157 -82150.000000
v 7750.000000 -49.994843 -82100.000000
v 7750.000000 -49.994843 -82150.000000
v 7800.000000 -49.994843 -82100.000000
v 7800.000000 -49.994843 -82150.000000
v 7850.000000 -49.994843 -82100.000000
v 7850.000000 -49.994843 -82150.000000
v 7650.000000 -49.994843 -82000.000000
v 7550.000000 -49.994843 -82000.000000
v 7650.000000 -49.994843 -81900.000000
v 7550.000000 -49.994843 -81900.000000
v 7650.000000 -49.994843 -81800.000000
v 7550.000000 -49.994843 -81800.000000
v 7550.000000 -49.994843 -81700.000000
v 7650.000000 -49.994843 -81700.000000
v 7650.000000 -49.994843 -81650.000000
v 7550.000000 -49.994843 -81600.000000
v 7650.000000 -49.994843 -81600.000000
v 7750.000000 -49.994843 -81700.000000
v 7750.000000 -49.994843 -81650.000000
v 7800.000000 -49.994843 -81700.000000
v 7800.000000 -49.994843 -81650.000000
v 7750.000000 -49.994843 -81625.000000
v 7800.000000 -49.994843 -81625.000000
v 7750.000000 -24.994833 -82000.000000
v 7650.000000 -24.994833 -82100.000000
v 7750.000000 -24.994833 -82100.000000
v 7650.000000 -24.994833 -82000.000000
v 7750.000000 -24.994833 -81900.000000
v 7650.000000 -24.994833 -81900.000000
v 7750.000000 -24.994833 -81800.000000
v 7650.000000 -24.994833 -81800.000000
v 7750.000000 -24.994833 -81750.000000
v 7650.000000 -24.994833 -81700.000000
v 7750.000000 -24.994833 -81700.000000
v 8050.000000 -49.994843 -82000.000000
v 7950.000000 -49.994843 -82000.000000
v 8050.000000 -49.994843 -81900.000000
v 7950.000000 -49.994843 -81900.000000
v 8050.000000 -49.994843 -81800.000000
v 7950.000000 -49.994843 -81800.000000
v 7950.000000 -49.994843 -81700.000000
v 8050.000000 -49.994843 -81700.000000
v 7950.000000 -49.994843 -81650.000000
v 8050.000000 -49.994843 -81600.000000
v 7950.000000 -49.994843 -81600.000000
v 7850.000000 -49.994843 -81650.000000
v 7850.000000 -49.994843 -81700.000000
v 7850.000000 -49.994843 -81625.000000
v 8050.000000 -49.994843 -82000.000000
v 8050.000000 50.005157 -82000.000000
v 8050.000000 -49.994843 -81900.000000
v 8050.000000 50.005157 -81900.000000
v 8050.000000 -49.994843 -81800.000000
v 8050.000000 50.005157 -81800.000000
v 8050.000000 -49.994843 -81700.000000
v 8050.000000 50.005157 -81700.000000
v 8050.000000 -49.994843 -81600.000000
v 8050.000000 50.005157 -81600.000000
v 7550.000000 50.005157 -82000.000000
v 7550.000000 -49.994843 -82000.000000
v 7550.000000 50.005157 -81900.000000
v 7550.000000 -49.994843 -81900.000000
v 7550.000000 50.005157 -81800.000000
v 7550.000000 -49.994843 -81800.000000
v 7550.000000 -49.994843 -81700.000000
v 7550.000000 50.005157 -81700.000000
v 7550.000000 50.005157 -81600.000000
v 7550.000000 -49.994843 -81600.000000
v 7750.000000 -24.994833 -82000.000000
v 7750.000000 -24.994833 -82100.000000
v 7750.000000 -49.994843 -82000.000000
v 7750.000000 -24.994833 -81900.000000
v 7750.000000 -49.994843 -81900.000000
v 7750.000000 -24.994833 -81800.000000
v 7750.000000 -49.994843 -81800.000000
v 7750.000000 -24.994833 -81750.000000
v 7750.000000 -49.994843 -81750.000000
v 7850.000000 -24.994833 -81800.000000
v 7850.000000 -24.994833 -81750.000000
v 7850.000000 -49.994843 -81750.000000
v 7850.000000 -49.994843 -81800.000000
v 7850.000000 -24.994833 -81900.000000
v 7850.000000 -49.994843 -81900.000000
v 7850.000000 -24.994833 -82000.000000
v 7850.000000 -49.994843 -82000.000000
v 7850.000000 -24.994833 -82100.000000
v 7950.000000 -24.994833 -82000.000000
v 7950.000000 -24.994833 -82100.000000
v 7950.000000 -49.994843 -82000.000000
v 7950.000000 -24.994833 -81900.000000
v 7950.000000 -49.994843 -81900.000000
v 7950.000000 -24.994833 -81800.000000
v 7950.000000 -49.994843 -81800.000000
v 7950.000000 -24.994833 -81700.000000
v 7950.000000 -49.994843 -81700.000000
v 7650.000000 -24.994833 -81800.000000
v 7650.000000 -24.994833 -81700.000000
v 7650.000000 -49.994843 -81700.000000
v 7650.000000 -49.994843 -81800.000000
v 7650.000000 -24.994833 -81900.000000
v 7650.000000 -49.994843 -81900.000000
v 7650.000000 -24.994833 -82000.000000
v 7650.000000 -49.994843 -82000.000000
v 7650.000000 -24.994833 -82100.000000
v 7850.000000 50.005157 -81625.000000
v 7800.000000 50.005157 -81650.000000
v 7800.000000 50.005157 -81625.000000
v 7850.000000 50.005157 -81650.000000
v 7800.000000 50.005157 -81700.000000
v 7850.000000 50.005157 -81700.000000
v 7800.000000 50.005157 -81800.000000
v 7950.000000 50.005157 -81650.000000
v 7950.000000 50.005157 -81600.000000
v 8050.000000 50.005157 -81600.000000
v 8050.000000 50.005157 -81700.000000
v 7950.000000 50.005157 -81700.000000
v 7850.000000 50.005157 -81800.000000
v 7800.000000 50.005157 -81900.000000
v 7950.000000 50.005157 -81800.000000
v 8050.000000 50.005157 -81800.000000
v 8050.000000 50.005157 -81900.000000
v 7850.000000 50.005157 -81900.000000
v 7800.000000 50.005157 -82000.000000
v 7950.000000 50.005157 -81900.000000
v 8050.000000 50.005157 -82000.000000
v 7850.000000 50.005157 -82000.000000
v 7850.000000 50.005157 -82100.000000
v 7950.000000 50.005157 -82100.000000
v 7950.000000 50.005157 -82000.000000
v 8050.000000 50.005157 -82100.000000
v 7850.000000 50.005157 -82150.000000
v 7950.000000 50.005157 -82150.000000
v 8050.000000 50.005157 -82150.000000
v 7550.000000 -49.994843 -82150.000000
v 7650.000000 -24.994841 -82150.000000
v 7650.000000 -49.994843 -82150.000000
v 7550.000000 50.005157 -82150.000000
v 7650.000000 50.005157 -82150.000000
v 7750.000000 -24.994841 -82150.000000
v 7750.000000 50.005157 -82150.000000
v 7800.000000 50.005157 -82150.000000
v 7800.000000 -49.994843 -82150.000000
v 7750.000000 -49.994843 -82150.000000
v 7550.000000 50.005157 -81600.000000
v 7650.000000 50.005157 -81600.000000
v 7650.000000 50.005157 -81650.000000
v 7550.000000 50.005157 -81700.000000
v 7650.000000 50.005157 -81700.000000
v 7550.000000 50.005157 -81800.000000
v 7750.000000 50.005157 -81650.000000
v 7750.000000 50.005157 -81625.000000
v 7750.000000 50.005157 -81700.000000
v 7650.000000 50.005157 -81800.000000
v 7750.000000 50.005157 -81800.000000
v 7650.000000 50.005157 -81900.000000
v 7550.000000 50.005157 -81900.000000
v 7750.000000 50.005157 -81900.000000
v 7750.000000 50.005157 -82000.000000
v 7650.000000 50.005157 -82000.000000
v 7550.000000 50.005157 -82000.000000
v 7950.000000 -49.994843 -81700.000000
v 7850.000000 -24.994833 -81700.000000
v 7950.000000 -24.994833 -81700.000000
v 7850.000000 -49.994843 -81700.000000
v 7800.000000 -49.994843 -81700.000000
v 7800.000000 -24.994833 -81700.000000
v 7650.000000 -24.994833 -81700.000000
v 7750.000000 -49.994843 -81700.000000
v 7650.000000 -49.994843 -81700.000000
v 7750.000000 -24.994833 -81700.000000
v 7850.000000 -24.994841 -82150.000000
v 7850.000000 -49.994843 -82150.000000
v 7850.000000 50.005157 -82150.000000
v 7950.000000 -24.994841 -82150.000000
v 7950.000000 50.005157 -82150.000000
v 8050.000000 50.005157 -82150.000000
v 8050.000000 -49.994843 -82150.000000
v 7950.000000 -49.994843 -82150.000000
v 7750.000000 -49.994843 -82000.000000
v 7800.000000 -49.994843 -82000.000000
v 7750.000000 -49.994843 -81900.000000
v 7850.000000 -49.994843 -82000.000000
v 7800.000000 -49.994843 -81900.000000
v 7750.000000 -49.994843 -81800.000000
v 7850.000000 -49.994843 -81900.000000
v 7800.000000 -49.994843 -81800.000000
v 7750.000000 -49.994843 -81750.000000
v 7850.000000 -49.994843 -81800.000000
v 7800.000000 -49.994843 -81750.000000
v 7850.000000 -49.994843 -81750.000000
vn -0.0000 -0.0000 1.0000
vn 1.0000 -0.0000 -0.0000
vn -1.0000 -0.0000 -0.0000
vn -0.0000 -1.0000 -0.0000
vn -0.0000 1.0000 -0.0000
vn -0.0000 -0.0000 -1.0000
vt 0.671387 0.508057
vt 0.547852 0.508057
vt 0.547363 0.382812
vt 0.670898 0.382812
vt 0.918945 0.131348
vt 0.918945 0.252930
vt 0.795410 0.252930
vt 0.795898 0.130859
vt 0.071350 0.383301
vt 0.071350 0.257812
vt 0.100830 0.257812
vt 0.100830 0.383301
vt 0.131958 0.383301
vt 0.132080 0.257812
vt 0.102661 0.257812
vt 0.102478 0.383301
vt 0.795898 0.131348
vt 0.795898 0.252930
vt 0.918945 0.253418
vt 0.919434 0.131348
vt 0.980469 0.557373
vt 0.918457 0.557373
vt 0.918457 0.587646
vt 0.980469 0.587891
vt 0.726074 0.695312
vt 0.665527 0.695557
vt 0.665527 0.633301
vt 0.726074 0.633301
vt 0.980469 0.252930
vt 0.980469 0.374512
vt 0.918945 0.374512
vt 0.423828 0.509277
vt 0.544922 0.509277
vt 0.544434 0.384766
vt 0.423828 0.385254
vt 0.179077 0.508057
vt 0.179077 0.447266
vt 0.287354 0.447266
vt 0.287354 0.508057
vt 0.547363 0.508057
vt 0.670898 0.508057
vt 0.671387 0.382812
vt 0.547852 0.382812
vt 0.100952 0.687500
vt 0.071411 0.687500
vt 0.071411 0.624756
vt 0.100952 0.624756
vt 0.131958 0.257812
vt 0.102539 0.257812
vt 0.102661 0.133301
vt 0.132080 0.133301
vt 0.174561 0.564453
vt 0.174438 0.688721
vt 0.295410 0.688721
vt 0.295410 0.564453
vt 0.071716 0.257812
vt 0.101196 0.257812
vt 0.101318 0.133301
vt 0.071838 0.133301
vt 0.423584 0.385254
vt 0.423340 0.260742
vt 0.544434 0.260742
vt 0.141846 0.010254
vt 0.265869 0.010254
vt 0.265869 0.131836
vt 0.141846 0.132324
vt 0.735352 0.047363
vt 0.735352 0.108398
vt 0.673828 0.108398
vt 0.673828 0.047363
vt 0.795410 0.374512
vt 0.294922 0.812988
vt 0.174194 0.813110
vt 0.174072 0.688721
vt 0.294922 0.688477
vt 0.328369 0.010254
vt 0.328369 0.131836
vt 0.796875 0.047363
vt 0.796875 0.108398
vt 0.672363 0.252930
vt 0.672363 0.374512
vt 0.795410 0.375000
vt 0.295654 0.875793
vt 0.174316 0.937439
vt 0.295166 0.937531
vt 0.174438 0.813232
vt 0.295166 0.813354
vt 0.666016 0.726562
vt 0.726074 0.726562
vt 0.726074 0.695557
vt 0.666016 0.695557
vt 0.947266 0.057129
vt 0.947266 0.109375
vt 0.869629 0.109375
vt 0.869629 0.057129
vt 0.359375 0.381836
vt 0.297607 0.381836
vt 0.297607 0.257812
vt 0.359375 0.257812
vt 0.547852 0.257812
vt 0.671387 0.257812
vt 0.453613 0.009766
vt 0.453613 0.131836
vt 0.665527 0.633545
vt 0.544922 0.633545
vt 0.544922 0.695557
vt 0.670898 0.631836
vt 0.547852 0.631836
vt 0.544434 0.633545
vt 0.423828 0.633545
vt 0.423584 0.509277
vt 0.544434 0.509277
vt 0.423096 0.509277
vt 0.423096 0.570068
vt 0.544922 0.570068
vt 0.423828 0.757935
vt 0.544922 0.757812
vt 0.132324 0.133301
vt 0.102844 0.133301
vt 0.484375 0.009766
vt 0.484375 0.131836
vt 0.294678 0.564209
vt 0.173950 0.564453
vt 0.173828 0.438477
vt 0.294678 0.438477
vt 0.071350 0.133301
vt 0.100830 0.133301
vt 0.131714 0.445312
vt 0.131592 0.507568
vt 0.102173 0.507568
vt 0.102234 0.445312
vt 0.295654 0.875488
vt 0.295166 0.937256
vt 0.423828 0.260742
vt 0.544434 0.136230
vt 0.423584 0.136230
vt 0.704590 0.046875
vt 0.704590 0.107910
vt 0.674316 0.107910
vt 0.674316 0.046875
vt 0.795410 0.496094
vt 0.671875 0.496094
vt 0.673828 0.107910
vt 0.673828 0.046875
vt 0.423340 0.136230
vt 0.423828 0.757812
vt 0.545898 0.009766
vt 0.545898 0.131836
vt 0.795898 0.009277
vt 0.672363 0.130859
vt 0.672363 0.009277
vt 0.547363 0.257812
vt 0.670898 0.257812
vt 0.670898 0.133301
vt 0.547363 0.133301
vt 0.358154 0.937500
vt 0.358887 0.875732
vt 0.980469 0.496582
vt 0.918457 0.496582
vt 0.548340 0.132812
vt 0.548340 0.193848
vt 0.670410 0.193848
vt 0.670410 0.132812
vt 0.671387 0.133301
vt 0.547852 0.133301
vt 0.547852 0.008789
vt 0.670898 0.008789
vt 0.669922 0.134277
vt 0.669922 0.194336
vt 0.546875 0.194336
vt 0.546875 0.134277
vt 0.672363 0.131348
vt 0.131714 0.507568
vt 0.131836 0.445312
vt 0.102356 0.445312
vt 0.102295 0.507568
vt 0.780762 0.057129
vt 0.780762 0.109375
vt 0.674316 0.109375
vt 0.674316 0.057129
vt 0.420898 0.381836
vt 0.420898 0.258301
vt 0.298096 0.750610
vt 0.390381 0.750732
vt 0.390625 0.633057
vt 0.298340 0.633057
vt 0.174805 0.438477
vt 0.295654 0.438965
vt 0.359131 0.508057
vt 0.297363 0.508057
vt 0.545410 0.509277
vt 0.545410 0.570068
vt 0.423584 0.570068
vt 0.102356 0.383301
vt 0.131836 0.383301
vt 0.420898 0.508057
vt 0.705078 0.047852
vt 0.705078 0.108887
vt 0.674316 0.108887
vt 0.674316 0.047852
vt 0.132446 0.008789
vt 0.102966 0.008789
vt 0.071655 0.383301
vt 0.101135 0.383301
vt 0.071350 0.507568
vt 0.100891 0.507568
vt 0.071533 0.507812
vt 0.101074 0.507812
vt 0.101379 0.008789
vt 0.071899 0.008789
vt 0.358643 0.569824
vt 0.297119 0.569824
vt 0.071350 0.008789
vt 0.100830 0.008789
vt 0.671875 0.617432
vt 0.795410 0.556885
vt 0.795410 0.617676
vt 0.980469 0.496094
vt 0.918945 0.496094
vt 0.665527 0.726562
vt 0.918945 0.556885
vt 0.980469 0.556885
vt 0.980469 0.587402
vt 0.918945 0.587402
vt 0.294678 0.507080
vt 0.294678 0.448242
vt 0.174927 0.448242
vt 0.174927 0.507080
vt 0.672363 0.252441
vt 0.358643 0.875305
vt 0.358154 0.937073
vt 0.918945 0.009277
vt 0.980957 0.009277
vt 0.980957 0.131348
vt 0.421143 0.750610
vt 0.421143 0.874512
vt 0.390137 0.750610
vt 0.297852 0.874634
vt 0.297852 0.750732
vt 0.297852 0.633057
vt 0.297607 0.571045
vt 0.390381 0.633057
vt 0.420898 0.571045
vt 0.420654 0.632568
vt 0.795410 0.557129
vt 0.671875 0.617920
vt 0.795410 0.617920
vt 0.795410 0.496582
vt 0.950195 0.108398
vt 0.889160 0.108398
vt 0.889160 0.047363
vt 0.950195 0.047363
vt 0.674316 0.108398
vt 0.674316 0.047363
vt 0.797363 0.108398
vt 0.797363 0.047363
vt 0.918945 0.375000
vt 0.980957 0.131836
vt 0.980469 0.253418
vt 0.980469 0.375000
vt 0.675293 0.108398
vt 0.675293 0.047363
vt 0.980957 0.009766
vt 0.919434 0.009766
vt 0.071472 0.624756
vt 0.547852 0.632080
vt 0.670898 0.632080
vt 0.421143 0.632812
vt 0.421387 0.571045
vt 0.298096 0.571045
vt 0.421143 0.874756
vt 0.421387 0.750732
vt 0.071472 0.687500
vt 0.795898 0.009766
vt 0.102783 0.008789
vt 0.132202 0.008789
vt 0.297607 0.134277
vt 0.359375 0.134277
vt 0.420898 0.134277
vt 0.672852 0.009766
vt 0.420410 0.570068
s 1
usemtl MI_DingyJungle_TempleDoor
f 170/1/3 171/2/3 168/3/3 169/4/3
f 231/5/5 227/6/5 229/7/5 234/8/5
f 204/9/2 206/10/2 205/11/2 201/12/2
f 186/13/2 188/14/2 187/15/2 183/16/2
f 264/17/5 260/18/5 262/19/5 263/20/5
f 211/21/5 255/22/5 256/23/5 212/24/5
f 126/25/4 124/26/4 123/27/4 125/28/4
f 227/6/5 223/29/5 216/30/5 222/31/5
f 144/32/4 145/33/4 143/34/4 142/35/4
f 64/36/4 61/37/4 62/38/4 63/39/4
f 161/40/2 160/41/2 158/42/2 159/43/2
f 271/44/6 270/45/6 273/46/6 275/47/6
f 178/48/3 177/49/3 174/50/3 176/51/3
f 95/52/4 93/53/4 92/54/4 94/55/4
f 196/56/3 195/57/3 192/58/3 194/59/3
f 114/34/4 115/60/4 113/61/4 112/62/4
f 4/63/1 2/64/1 3/65/1 1/66/1
f 80/67/2 78/68/2 79/69/2 77/70/2
f 227/6/5 222/31/5 224/71/5 229/7/5
f 135/72/4 136/73/4 134/74/4 133/75/4
f 12/76/2 10/77/2 11/65/2 9/64/2
f 111/78/4 110/79/4 108/68/4 109/67/4
f 261/80/5 254/81/5 258/82/5 260/18/5
f 88/83/4 89/84/4 87/85/4
f 89/84/4 88/83/4 90/86/4
f 91/87/4 90/86/4 88/83/4
f 153/88/4 128/89/4 126/90/4 151/91/4
f 8/64/1 6/63/1 7/66/1 5/65/1
f 105/92/5 104/93/5 102/94/5 103/95/5
f 288/96/4 286/97/4 284/98/4 285/99/4
f 169/4/3 168/3/3 166/100/3 167/101/3
f 20/102/1 19/103/1 17/77/1 18/76/1
f 152/104/4 146/105/4 148/106/4 151/91/4
f 28/76/1 27/77/1 25/103/1 26/102/1
f 173/107/3 172/108/3 171/2/3 170/1/3
f 14/76/3 16/64/3 15/65/3 13/77/3
f 119/109/4 118/110/4 117/111/4 116/112/4
f 56/113/4 53/114/4 54/115/4 55/33/4
f 119/109/4 120/106/4 118/110/4
f 121/116/4 118/110/4 120/106/4
f 121/116/4 120/106/4 122/117/4
f 188/14/2 190/118/2 189/119/2 187/15/2
f 40/102/3 37/120/3 38/121/3 39/103/3
f 129/122/4 132/123/4 130/124/4 131/125/4
f 36/103/2 33/121/2 34/120/2 35/102/2
f 206/10/2 208/126/2 207/127/2 205/11/2
f 32/128/1 30/129/1 31/130/1 29/131/1
f 135/72/4 137/132/4 136/73/4
f 138/84/4 136/73/4 137/132/4
f 138/84/4 137/132/4 139/133/4
f 140/134/4 141/62/4 54/135/4 53/136/4
f 72/137/3 71/138/3 69/139/3 70/140/3
f 225/81/5 224/71/5 221/141/5 220/142/5
f 68/137/2 66/138/2 67/143/2 65/144/2
f 112/62/4 113/61/4 83/145/4 82/135/4
f 146/105/4 147/110/4 148/106/4
f 149/146/4 148/106/4 147/110/4
f 148/106/4 149/146/4 150/117/4
f 41/121/1 42/120/1 24/147/1 23/148/1
f 233/149/5 234/8/5 230/150/5 235/151/5
f 23/148/1 24/147/1 21/120/1 22/121/1
f 157/152/2 156/153/2 154/154/2 155/155/2
f 88/83/4 87/85/4 85/156/4 86/157/4
f 214/158/5 257/159/5 255/22/5 211/21/5
f 52/160/2 49/161/2 50/162/2 51/163/2
f 165/164/3 164/165/3 46/166/3 45/167/3
f 48/168/3 45/169/3 46/170/3 47/171/3
f 265/172/5 261/80/5 260/18/5 264/17/5
f 30/173/1 43/174/1 44/175/1 31/176/1
f 101/177/5 100/178/5 98/179/5 99/180/5
f 290/181/4 288/96/4 285/99/4 287/182/4
f 280/183/6 279/184/6 276/185/6 278/186/6
f 97/187/4 95/52/4 94/55/4 96/188/4
f 151/91/4 126/90/4 125/28/4 152/104/4
f 291/189/4 289/190/4 286/97/4 288/96/4
f 147/110/4 146/105/4 145/33/4 144/32/4
f 84/191/4 82/192/4 83/193/4 81/111/4
f 185/174/2 186/13/2 183/16/2 184/175/2
f 182/128/3 181/131/3 179/194/3 180/195/3
f 293/196/4 291/189/4 288/96/4 290/181/4
f 60/197/3 59/198/3 57/199/3 58/200/3
f 124/26/4 120/106/4 119/109/4 123/27/4
f 190/118/2 67/201/2 191/202/2 189/119/2
f 198/203/3 197/204/3 195/57/3 196/56/3
f 116/112/4 117/111/4 115/60/4 114/34/4
f 203/205/2 204/9/2 201/12/2 202/206/2
f 200/207/3 199/208/3 197/204/3 198/203/3
f 194/59/3 192/58/3 193/209/3 59/210/3
f 294/211/4 292/212/4 289/190/4 291/189/4
f 133/75/4 134/74/4 132/123/4 129/122/4
f 208/126/2 79/213/2 209/214/2 207/127/2
f 219/215/5 217/216/5 218/217/5
f 219/215/5 220/142/5 217/216/5
f 221/141/5 217/216/5 220/142/5
f 222/31/5 216/30/5 214/218/5 215/219/5
f 128/89/4 127/220/4 124/26/4 126/25/4
f 224/71/5 222/31/5 215/219/5 221/141/5
f 221/141/5 215/219/5 213/221/5 217/216/5
f 213/221/5 211/222/5 212/223/5 210/224/5
f 76/225/4 74/226/4 75/227/4 73/228/4
f 142/35/4 143/34/4 141/62/4 140/134/4
f 229/7/5 224/71/5 225/81/5 226/229/5
f 234/8/5 229/7/5 226/229/5 230/150/5
f 86/230/4 85/231/4 139/133/4 137/132/4
f 231/5/5 234/8/5 233/149/5 232/232/5
f 232/232/5 98/233/5 228/234/5 231/5/5
f 231/5/5 228/234/5 223/29/5 227/6/5
f 215/219/5 214/218/5 211/222/5 213/221/5
f 241/235/6 239/236/6 240/237/6
f 242/238/6 240/237/6 239/236/6
f 243/239/6 240/237/6 242/238/6
f 245/240/6 246/241/6 244/242/6
f 246/241/6 247/243/6 244/242/6
f 248/244/6 244/242/6 247/243/6
f 251/245/5 249/246/5 250/247/5
f 249/246/5 251/245/5 252/142/5
f 253/248/5 252/142/5 251/245/5
f 98/249/5 232/250/5 236/251/5 99/252/5
f 180/195/3 179/194/3 177/49/3 178/48/3
f 109/67/4 108/68/4 106/253/4 107/254/4
f 257/159/5 253/248/5 251/245/5 255/22/5
f 258/82/5 254/81/5 252/142/5 253/248/5
f 233/255/5 237/256/5 236/251/5 232/250/5
f 93/53/4 90/86/4 91/87/4 92/54/4
f 159/43/2 158/42/2 156/153/2 157/152/2
f 259/257/5 258/82/5 253/248/5 257/159/5
f 260/18/5 258/82/5 259/257/5 262/19/5
f 155/155/2 154/154/2 50/167/2 49/166/2
f 228/258/5 263/20/5 262/19/5 223/259/5
f 223/259/5 262/19/5 259/257/5 216/260/5
f 216/260/5 259/257/5 257/159/5 214/158/5
f 235/261/5 238/262/5 237/256/5 233/255/5
f 167/101/3 166/100/3 164/165/3 165/164/3
f 98/263/5 100/264/5 263/20/5 228/258/5
f 269/265/6 267/47/6 268/208/6 266/207/6
f 163/266/2 162/267/2 160/41/2 161/40/2
f 277/268/6 247/269/6 276/185/6
f 246/270/6 276/185/6 247/269/6
f 278/186/6 276/185/6 246/270/6
f 275/47/6 273/46/6 274/205/6 272/206/6
f 281/238/6 279/184/6 280/183/6
f 281/238/6 282/271/6 279/184/6
f 279/184/6 282/271/6 283/272/6
f 270/273/6 271/44/6 267/47/6 269/265/6
f 102/274/5 264/17/5 263/20/5 100/264/5
f 176/51/3 174/50/3 175/275/3 71/276/3
f 285/99/4 284/98/4 106/277/4 108/278/4
f 287/182/4 285/99/4 108/278/4 110/279/4
f 104/280/5 265/172/5 264/17/5 102/274/5
f 245/240/6 244/242/6 240/237/6 243/239/6
f 103/95/5 102/94/5 100/178/5 101/177/5
f 295/281/4 294/211/4 291/189/4 293/196/4
