# Blender 5.0.1
# www.blender.org
mtllib BP_jungle_bridge.mtl
o SM_Bridges_HangBridge_End_Reverse.001
v -149.982437 -699.999939 0.000139
v -149.982437 -599.999939 0.000151
v -149.982452 -599.999939 -49.999851
v -149.982452 -699.999939 -49.999863
v 150.017548 -699.999939 -49.999954
v 150.017532 -599.999939 -49.999943
v 150.017548 -599.999939 0.000057
v 150.017563 -699.999939 0.000045
v -283.776276 -731.388855 -12.388731
v -149.937454 -731.388855 103.772385
v -266.098633 -731.388855 -12.388743
v -149.937439 -731.388855 121.450058
v -149.937439 -731.388855 121.450058
v -283.776306 -756.111084 -12.388734
v -149.937439 -756.111084 121.450066
v -283.776276 -731.388855 -12.388731
v -149.937454 -731.388855 103.772385
v -266.098633 -756.111084 -12.388746
v -266.098633 -731.388855 -12.388743
v -149.937454 -756.111084 103.772377
v -149.937439 -756.111084 121.450066
v -283.776306 -756.111084 -12.388734
v -149.937454 -756.111084 103.772377
v -266.098633 -756.111084 -12.388746
v 283.776459 -756.111023 -12.499995
v 149.937668 -756.111023 103.661201
v 266.098816 -756.111023 -12.499998
v 149.937683 -756.111084 121.338875
v 283.776489 -731.388794 -12.499992
v 149.937683 -756.111084 121.338875
v 283.776459 -756.111023 -12.499995
v 149.937683 -731.388794 121.338898
v 149.937668 -731.388794 103.661209
v 266.098816 -731.388794 -12.499995
v 149.937668 -756.111023 103.661201
v 266.098816 -756.111023 -12.499998
v 266.098816 -731.388794 -12.499995
v 149.937668 -731.388794 103.661209
v 283.776489 -731.388794 -12.499992
v 149.937683 -731.388794 121.338898
v 143.687637 -656.249939 0.000052
v 143.687683 -656.249939 137.500046
v 131.187637 -656.249939 0.000056
v 131.187683 -656.249939 137.500046
v 131.187683 -643.749939 137.500046
v 131.187683 -656.249939 137.500046
v 143.687683 -643.749939 137.500046
v 143.687683 -656.249939 137.500046
v 143.687683 -643.749939 137.500046
v 143.687637 -643.749939 0.000054
v 131.187683 -643.749939 137.500046
v 131.187637 -643.749939 0.000058
v 143.687683 -643.749939 137.500046
v 143.687637 -656.249939 0.000052
v 143.687637 -643.749939 0.000054
v 143.687683 -656.249939 137.500046
v 131.187683 -643.749939 137.500046
v 131.187637 -643.749939 0.000058
v 131.187683 -656.249939 137.500046
v 131.187637 -656.249939 0.000056
v 143.687668 -656.249939 118.750053
v 143.687698 -731.249939 193.750046
v 131.187668 -656.249939 118.750061
v 131.187698 -731.249939 193.750046
v 143.687698 -731.249939 212.500046
v 143.687683 -656.249939 137.500046
v 131.187698 -731.249939 212.500046
v 131.187683 -656.249939 137.500046
v 143.687698 -731.249939 193.750046
v 143.687698 -731.249939 212.500046
v 143.687668 -656.249939 118.750053
v 131.187668 -656.249939 118.750061
v 131.187698 -731.249939 193.750046
v 131.187698 -731.249939 212.500046
v 149.937637 -756.249939 -12.499961
v 149.937714 -756.250000 257.942444
v 124.937637 -756.249939 -12.499953
v 124.937721 -756.250000 257.942474
v 124.937721 -731.249939 257.942474
v 124.937721 -756.250000 257.942474
v 149.937714 -731.249939 257.942444
v 149.937714 -756.250000 257.942444
v 149.937714 -731.249939 257.942444
v 149.937637 -731.249939 -12.499958
v 124.937721 -731.249939 257.942474
v 124.937637 -731.249939 -12.499950
v 149.937714 -731.249939 257.942444
v 149.937637 -756.249939 -12.499961
v 149.937637 -731.249939 -12.499958
v 149.937714 -756.250000 257.942444
v 124.937721 -731.249939 257.942474
v 124.937637 -731.249939 -12.499950
v 124.937721 -756.250000 257.942474
v 124.937637 -756.249939 -12.499953
v 143.687683 -600.000000 137.500061
v 131.187683 -600.000000 137.500061
v 143.687668 -600.000000 125.000061
v 143.687683 -643.749939 125.000053
v 131.187668 -600.000000 125.000069
v 131.187683 -643.749939 125.000061
v 143.687668 -600.000000 125.000061
v 143.687683 -643.749939 125.000053
v 143.687683 -600.000000 137.500061
v 131.187683 -600.000000 137.500061
v 131.187683 -643.749939 125.000061
v 131.187668 -600.000000 125.000069
v 143.687653 -656.249939 68.750053
v 143.687683 -731.249939 143.750046
v 131.187653 -656.249939 68.750061
v 131.187683 -731.249939 143.750046
v 143.687683 -731.249939 162.500046
v 143.687668 -656.249939 87.500053
v 131.187683 -731.249939 162.500046
v 131.187668 -656.249939 87.500061
v 143.687683 -731.249939 143.750046
v 143.687668 -656.249939 87.500053
v 143.687683 -731.249939 162.500046
v 143.687653 -656.249939 68.750053
v 131.187653 -656.249939 68.750061
v 131.187683 -731.249939 143.750046
v 131.187668 -656.249939 87.500061
v 131.187683 -731.249939 162.500046
v 143.687668 -643.749939 87.500053
v 143.687668 -599.999939 87.500061
v 131.187668 -643.749939 87.500061
v 131.187668 -599.999939 87.500069
v 143.687653 -599.999939 75.000061
v 143.687653 -643.749939 75.000053
v 131.187653 -599.999939 75.000069
v 131.187653 -643.749939 75.000061
v 143.687653 -599.999939 75.000061
v 143.687668 -643.749939 87.500053
v 143.687653 -643.749939 75.000053
v 143.687668 -599.999939 87.500061
v 131.187668 -599.999939 87.500069
v 131.187653 -643.749939 75.000061
v 131.187668 -643.749939 87.500061
v 131.187653 -599.999939 75.000069
v -131.187454 -643.749939 87.500137
v -131.187454 -599.999939 87.500145
v -143.687454 -643.749939 87.500145
v -143.687454 -599.999939 87.500153
v -131.187469 -599.999939 75.000145
v -131.187469 -643.749939 75.000137
v -143.687469 -599.999939 75.000153
v -143.687469 -643.749939 75.000145
v -131.187469 -599.999939 75.000145
v -131.187454 -643.749939 87.500137
v -131.187469 -643.749939 75.000137
v -131.187454 -599.999939 87.500145
v -143.687454 -599.999939 87.500153
v -143.687469 -643.749939 75.000145
v -143.687454 -643.749939 87.500145
v -143.687469 -599.999939 75.000153
v -131.187469 -656.249939 68.750137
v -131.187439 -731.249939 143.750137
v -143.687469 -656.249939 68.750145
v -143.687439 -731.249939 143.750137
v -131.187439 -731.249939 162.500137
v -131.187454 -656.249939 87.500137
v -143.687439 -731.249939 162.500137
v -143.687454 -656.249939 87.500145
v -131.187439 -731.249939 143.750137
v -131.187454 -656.249939 87.500137
v -131.187439 -731.249939 162.500137
v -131.187469 -656.249939 68.750137
v -143.687469 -656.249939 68.750145
v -143.687439 -731.249939 143.750137
v -143.687454 -656.249939 87.500145
v -143.687439 -731.249939 162.500137
v -131.187439 -643.749939 137.500137
v -131.187439 -600.000000 137.500153
v -143.687439 -643.749939 137.500137
v -143.687439 -600.000000 137.500153
v -131.187454 -600.000000 125.000145
v -131.187439 -643.749939 125.000137
v -143.687454 -600.000000 125.000153
v -143.687439 -643.749939 125.000145
v -131.187454 -600.000000 125.000145
v -131.187439 -643.749939 137.500137
v -131.187439 -643.749939 125.000137
v -131.187439 -600.000000 137.500153
v -143.687439 -600.000000 137.500153
v -143.687439 -643.749939 125.000145
v -143.687439 -643.749939 137.500137
v -143.687454 -600.000000 125.000153
v -124.937469 -756.249939 -12.499875
v -124.937386 -756.250000 257.942535
v -149.937485 -756.249939 -12.499867
v -149.937408 -756.250000 257.942566
v -149.937408 -731.250000 257.942566
v -149.937408 -756.250000 257.942566
v -124.937386 -731.250000 257.942535
v -124.937386 -756.250000 257.942535
v -124.937386 -731.250000 257.942535
v -124.937469 -731.249939 -12.499872
v -149.937408 -731.250000 257.942566
v -149.937485 -731.249939 -12.499865
v -124.937386 -731.250000 257.942535
v -124.937469 -756.249939 -12.499875
v -124.937469 -731.249939 -12.499872
v -124.937386 -756.250000 257.942535
v -149.937408 -731.250000 257.942566
v -149.937485 -731.249939 -12.499865
v -149.937408 -756.250000 257.942566
v -149.937485 -756.249939 -12.499867
v -131.187454 -656.249939 118.750137
v -131.187424 -731.249939 193.750137
v -143.687454 -656.249939 118.750145
v -143.687424 -731.249939 193.750137
v -131.187424 -731.249939 212.500137
v -131.187439 -656.249939 137.500137
v -143.687424 -731.249939 212.500137
v -143.687439 -656.249939 137.500137
v -131.187424 -731.249939 193.750137
v -131.187439 -656.249939 137.500137
v -131.187424 -731.249939 212.500137
v -131.187454 -656.249939 118.750137
v -143.687454 -656.249939 118.750145
v -143.687424 -731.249939 193.750137
v -143.687439 -656.249939 137.500137
v -143.687424 -731.249939 212.500137
v -131.187485 -656.249939 0.000139
v -131.187439 -656.249939 137.500137
v -143.687485 -656.249939 0.000143
v -143.687439 -656.249939 137.500137
v -143.687439 -656.249939 137.500137
v -131.187439 -656.249939 137.500137
v -131.187439 -643.749939 137.500137
v -131.187485 -643.749939 0.000140
v -143.687439 -643.749939 137.500137
v -143.687485 -643.749939 0.000144
v -131.187485 -656.249939 0.000139
v -131.187485 -643.749939 0.000140
v -143.687485 -643.749939 0.000144
v -143.687485 -656.249939 0.000143
v -149.982437 -699.999939 0.000139
v 0.017561 -599.999939 0.000104
v -149.982437 -599.999939 0.000151
v 0.017570 -699.999939 0.000092
v 150.017548 -599.999939 0.000057
v 150.017563 -699.999939 0.000045
v 0.017561 -599.999939 -49.999897
v 150.017548 -599.999939 0.000057
v 150.017532 -599.999939 -49.999943
v 0.017561 -599.999939 0.000104
v -149.982452 -599.999939 -49.999851
v -149.982437 -599.999939 0.000151
v 0.017555 -699.999939 -49.999908
v 150.017532 -599.999939 -49.999943
v 150.017548 -699.999939 -49.999954
v 0.017561 -599.999939 -49.999897
v -149.982452 -599.999939 -49.999851
v -149.982452 -699.999939 -49.999863
v 150.017563 -699.999939 0.000045
v 0.017555 -699.999939 -49.999908
v 150.017548 -699.999939 -49.999954
v 0.017570 -699.999939 0.000092
v -149.982437 -699.999939 0.000139
v -149.982452 -699.999939 -49.999863
vn -1.0000 -0.0000 -0.0000
vn 1.0000 -0.0000 -0.0000
vn -0.0000 1.0000 -0.0000
vn -0.7071 -0.0000 0.7071
vn 0.7071 -0.0000 -0.7071
vn -0.0000 -1.0000 -0.0000
vn 0.7071 -0.0000 0.7071
vn -0.7071 -0.0000 -0.7071
vn -0.0000 -0.0000 1.0000
vn -0.0000 -0.7071 -0.7071
vn -0.0000 0.7071 0.7071
vn -0.0000 -0.0000 -1.0000
vt 0.562500 0.453125
vt 0.562500 0.125000
vt 0.593750 0.125000
vt 0.593750 0.453125
vt 0.500000 0.484375
vt 0.554688 0.484375
vt 0.554688 0.500000
vt 0.500000 0.500000
vt 0.562500 0.383301
vt 0.546875 0.398926
vt 0.562500 0.171875
vt 0.546875 0.156250
vt 0.546875 0.211426
vt 0.578125 0.211426
vt 0.578125 0.453125
vt 0.546875 0.453125
vt 0.468750 0.546875
vt 0.453125 0.546875
vt 0.453125 0.375000
vt 0.468750 0.375000
vt 0.500000 0.171875
vt 0.515625 0.156250
vt 0.515625 0.398926
vt 0.500000 0.383301
vt 0.593750 0.437500
vt 0.593750 0.227051
vt 0.468750 0.562500
vt 0.484375 0.546875
vt 0.484375 0.562500
vt 0.531250 0.437500
vt 0.531250 0.227051
vt 0.500000 0.453125
vt 0.554688 0.453125
vt 0.554688 0.468750
vt 0.500000 0.468750
vt 0.531250 0.125000
vt 0.531250 0.453125
vt 0.500000 0.125000
vt 0.468750 0.250000
vt 0.484375 0.250000
vt 0.484375 0.375000
vt 0.437500 0.546875
vt 0.437500 0.375000
vt 0.554688 0.515625
vt 0.500000 0.515625
vt 0.453125 0.359375
vt 0.453125 0.234375
vt 0.500000 0.234375
vt 0.500000 0.359375
vt 0.875000 0.937500
vt 0.812500 0.937500
vt 0.812500 0.812500
vt 0.875000 0.812500
vt 0.625000 0.125000
vt 0.625000 0.453125
vt 0.437500 0.359375
vt 0.437500 0.234375
vt 0.625000 0.227051
vt 0.625000 0.437500
vt 0.500000 0.375000
vt 0.500000 0.546875
vt 0.593750 0.171875
vt 0.593750 0.383301
vt 0.625000 0.781250
vt 0.625000 0.906250
vt 0.437500 0.906250
vt 0.437500 0.781250
vt 0.562500 0.484375
vt 0.593750 0.484375
vt 0.625000 0.625000
vt 0.625000 0.562500
vt 0.812500 0.562500
vt 0.812500 0.625000
vt 0.812500 0.781250
vt 0.812500 0.906250
vt 0.437500 0.625000
vt 0.437500 0.562500
s 1
usemtl WorldGridMaterial
f 202/1/2 200/2/2 201/3/2 199/4/2
f 150/5/2 148/6/2 149/7/2 147/8/2
f 11/9/3 9/10/3 10/11/3
f 12/12/3 10/11/3 9/10/3
f 32/13/7 30/14/7 31/15/7 29/16/7
f 224/17/6 226/18/6 225/19/6 223/20/6
f 23/21/6 21/22/6 22/23/6
f 24/24/6 23/21/6 22/23/6
f 27/25/6 25/15/6 26/26/6
f 28/14/6 26/26/6 25/15/6
f 227/27/9 228/17/9 171/28/9 173/29/9
f 39/16/3 37/30/3 38/31/3
f 38/31/3 40/13/3 39/16/3
f 106/32/1 105/33/1 57/34/1 104/35/1
f 186/32/1 184/33/1 185/34/1 183/35/1
f 94/36/1 93/37/1 91/32/1 92/38/1
f 160/39/11 162/40/11 161/41/11 159/20/11
f 76/1/6 78/37/6 77/36/6 75/2/6
f 236/19/1 221/18/1 185/42/1 235/43/1
f 128/7/12 130/44/12 129/45/12 127/8/12
f 70/20/2 69/46/2 56/39/2
f 71/47/2 56/39/2 69/46/2
f 59/40/1 72/48/1 73/49/1
f 73/49/1 74/41/1 59/40/1
f 4/50/1 1/51/1 2/52/1 3/53/1
f 84/3/3 86/54/3 85/55/3 83/4/3
f 8/52/2 5/53/2 6/50/2 7/51/2
f 144/7/12 146/44/12 145/45/12 143/8/12
f 56/17/2 54/20/2 55/41/2 53/28/2
f 98/7/12 100/44/12 99/45/12 97/8/12
f 46/27/9 48/17/9 47/28/9 45/29/9
f 156/46/10 158/56/10 157/57/10 155/47/10
f 176/7/12 178/44/12 177/45/12 175/8/12
f 36/25/8 35/26/8 33/58/8 34/59/8
f 230/41/3 232/60/3 231/61/3 229/28/3
f 117/20/2 115/46/2 116/39/2
f 118/47/2 116/39/2 115/46/2
f 121/40/1 119/48/1 120/49/1
f 120/49/1 122/41/1 121/40/1
f 206/36/1 205/37/1 203/32/1 204/38/1
f 20/62/5 18/63/5 19/9/5 17/11/5
f 62/46/10 64/56/10 63/57/10 61/47/10
f 240/64/9 238/65/9 239/66/9 237/67/9
f 108/46/10 110/56/10 109/57/10 107/47/10
f 60/19/1 59/18/1 57/42/1 58/43/1
f 42/17/6 44/18/6 43/19/6 41/20/6
f 90/1/2 88/2/2 89/3/2 87/4/2
f 172/5/9 174/35/9 173/34/9 171/6/9
f 80/68/9 82/1/9 81/4/9 79/69/9
f 165/20/2 163/46/2 164/39/2
f 166/47/2 164/39/2 163/46/2
f 169/40/1 167/48/1 168/49/1
f 168/49/1 170/41/1 169/40/1
f 212/39/11 214/40/11 213/41/11 211/20/11
f 134/5/2 132/6/2 133/7/2 131/8/2
f 154/32/1 152/33/1 153/34/1 151/35/1
f 50/41/3 52/60/3 51/61/3 49/28/3
f 103/5/2 53/6/2 102/7/2 101/8/2
f 138/32/1 136/33/1 137/34/1 135/35/1
f 188/1/6 190/37/6 189/36/6 187/2/6
f 95/5/9 96/35/9 45/34/9 47/6/9
f 196/3/3 198/54/3 197/55/3 195/4/3
f 258/70/6 256/71/6 257/72/6 255/73/6
f 192/68/9 194/1/9 193/4/9 191/69/9
f 217/20/2 215/46/2 216/39/2
f 218/47/2 216/39/2 215/46/2
f 221/40/1 219/48/1 220/49/1
f 220/49/1 222/41/1 221/40/1
f 182/5/2 180/6/2 181/7/2 179/8/2
f 124/5/9 126/35/9 125/34/9 123/6/9
f 208/46/10 210/56/10 209/57/10 207/47/10
f 254/74/12 253/75/12 252/65/12 249/64/12
f 140/5/9 142/35/9 141/34/9 139/6/9
f 112/39/11 114/40/11 113/41/11 111/20/11
f 247/72/3 248/73/3 246/70/3 243/71/3
f 16/10/4 14/23/4 15/22/4 13/12/4
f 249/64/12 252/65/12 250/66/12 251/67/12
f 246/70/3 244/76/3 245/77/3 243/71/3
f 242/74/9 241/75/9 238/65/9 240/64/9
f 216/17/2 233/20/2 234/41/2 180/28/2
f 66/39/11 68/40/11 67/41/11 65/20/11
f 259/76/6 260/77/6 256/71/6 258/70/6
