# Blender 5.0.1
# www.blender.org
mtllib BP_Jungle_Pillar.mtl
o SM_JunglePillar_Rim.001
v -445.124969 445.125366 110.561172
v -445.125061 -445.124634 110.561325
v -445.125061 -445.124664 10.561321
v -445.124969 445.125366 10.561176
v 445.125000 -445.124634 110.561325
v 445.124969 445.125336 110.561172
v 445.124969 445.125305 10.561176
v 445.125000 -445.124664 10.561321
v 445.125000 445.125336 110.561172
v -445.125000 445.125336 110.561172
v -445.125000 445.125305 10.561176
v 445.125000 445.125305 10.561176
v -445.124969 -445.124695 110.561325
v 445.125000 -445.124634 110.561325
v 445.125000 -445.124664 10.561321
v -445.124969 -445.124695 10.561321
vn 1.0000 -0.0000 -0.0000
vn -1.0000 -0.0000 -0.0000
vn -0.0000 -1.0000 -0.0000
vn -0.0000 1.0000 -0.0000
vt 0.000031 0.000000
vt 0.000031 0.999969
vt 1.000000 0.999969
vt 1.000000 0.000000
s 1
usemtl WorldGridMaterial
f 8/1/2 5/2/2 6/3/2 7/4/2
f 16/1/4 13/2/4 14/3/4 15/4/4
f 4/1/1 1/2/1 2/3/1 3/4/1
f 12/1/3 9/2/3 10/3/3 11/4/3
