# Blender 5.0.1
# www.blender.org
mtllib BP_JungleDoorDown_5.mtl
o SM_DJ_Gate.001
v -5949.992676 -31275.000000 -77887.500000
v -6049.992676 -31275.000000 -77887.500000
v -6049.992676 -31300.000000 -77887.500000
v -5916.659180 -31300.000000 -77887.500000
v -6149.992676 -31275.000000 -77887.500000
v -6249.992676 -31275.000000 -77887.500000
v -6249.992676 -31300.000000 -77887.500000
v -6149.992676 -31300.000000 -77887.500000
v -5849.992676 -31275.000000 -77887.500000
v -5849.992676 -31300.000000 -77887.500000
v -6249.992676 -31275.000000 -77887.500000
v -6349.992676 -31275.000000 -77900.000000
v -6349.992676 -31275.000000 -77887.500000
v -6249.992676 -31275.000000 -77900.000000
v -6149.992676 -31275.000000 -77887.500000
v -6149.992676 -31275.000000 -77900.000000
v -5949.992676 -31275.000000 -77887.500000
v -6049.992676 -31275.000000 -77900.000000
v -6049.992676 -31275.000000 -77887.500000
v -5949.992676 -31275.000000 -77900.000000
v -5849.992676 -31275.000000 -77887.500000
v -5849.992676 -31275.000000 -77900.000000
v -6149.992676 -31275.000000 -77887.500000
v -6149.992676 -31300.000000 -77887.500000
v -6149.992676 -31300.000000 -77900.000000
v -6149.992676 -31275.000000 -77900.000000
v -5949.992676 -31300.000000 -78300.000000
v -5849.992676 -31275.000000 -78300.000000
v -5849.992676 -31300.000000 -78300.000000
v -5949.992676 -31275.000000 -78300.000000
v -6349.992676 -31300.000000 -77887.500000
v -6349.992676 -31275.000000 -77887.500000
v -5849.992676 -31275.000000 -77887.500000
v -5849.992676 -31300.000000 -77887.500000
v -5849.992676 -31300.000000 -77900.000000
v -5849.992676 -31275.000000 -77900.000000
v -6349.992676 -31275.000000 -77887.500000
v -6349.992676 -31300.000000 -77900.000000
v -6349.992676 -31300.000000 -77887.500000
v -6349.992676 -31275.000000 -77900.000000
v -6049.992676 -31275.000000 -77887.500000
v -6049.992676 -31300.000000 -77900.000000
v -6049.992676 -31300.000000 -77887.500000
v -6049.992676 -31275.000000 -77900.000000
v -6149.992676 -31325.000000 -77887.500000
v -6249.992676 -31325.000000 -77887.500000
v -6249.992676 -31325.000000 -77887.500000
v -6349.992676 -31325.000000 -77887.500000
v -6349.992676 -31325.000000 -77900.000000
v -6249.992676 -31325.000000 -77900.000000
v -6149.992676 -31325.000000 -77887.500000
v -6149.992676 -31325.000000 -77900.000000
v -5949.992676 -31325.000000 -77887.500000
v -6049.992676 -31325.000000 -77887.500000
v -6049.992676 -31325.000000 -77900.000000
v -5949.992676 -31325.000000 -77900.000000
v -5849.992676 -31325.000000 -77887.500000
v -5849.992676 -31325.000000 -77900.000000
v -6149.992676 -31325.000000 -77887.500000
v -6149.992676 -31325.000000 -77900.000000
v -5849.992676 -31300.000000 -78200.000000
v -5849.992676 -31325.000000 -78300.000000
v -5849.992676 -31300.000000 -78300.000000
v -5849.992676 -31325.000000 -78200.000000
v -5849.992676 -31300.000000 -78100.000000
v -5849.992676 -31325.000000 -78100.000000
v -5949.992676 -31325.000000 -78300.000000
v -5849.992676 -31325.000000 -78300.000000
v -6349.992676 -31325.000000 -77887.500000
v -5849.992676 -31325.000000 -77900.000000
v -5849.992676 -31325.000000 -77887.500000
v -6349.992676 -31300.000000 -78200.000000
v -6349.992676 -31325.000000 -78300.000000
v -6349.992676 -31325.000000 -78200.000000
v -6349.992676 -31300.000000 -78300.000000
v -6349.992676 -31300.000000 -78100.000000
v -6349.992676 -31325.000000 -78100.000000
v -6349.992676 -31325.000000 -77900.000000
v -6349.992676 -31325.000000 -77887.500000
v -6049.992676 -31325.000000 -77887.500000
v -6049.992676 -31325.000000 -77900.000000
v -5949.992676 -31325.000000 -78100.000000
v -6049.992676 -31325.000000 -78100.000000
v -6049.992676 -31325.000000 -78200.000000
v -5949.992676 -31325.000000 -78200.000000
v -6049.992676 -31325.000000 -78300.000000
v -5949.992676 -31325.000000 -78300.000000
v -6099.992676 -31325.000000 -77900.000000
v -6099.992676 -31325.000000 -77950.000000
v -6049.992676 -31325.000000 -77950.000000
v -5949.992676 -31325.000000 -78000.000000
v -6049.992676 -31325.000000 -78000.000000
v -6149.992676 -31325.000000 -77950.000000
v -6149.992676 -31325.000000 -78000.000000
v -6149.992676 -31325.000000 -78100.000000
v -6149.992676 -31325.000000 -78200.000000
v -6149.992676 -31325.000000 -78300.000000
v -6249.992676 -31300.000000 -78300.000000
v -6249.992676 -31325.000000 -78300.000000
v -6283.326172 -31300.000000 -78300.000000
v -6349.992676 -31325.000000 -78300.000000
v -6349.992676 -31300.000000 -78300.000000
v -6349.992676 -31275.000000 -78300.000000
v -6249.992676 -31275.000000 -78200.000000
v -6249.992676 -31275.000000 -78300.000000
v -6349.992676 -31275.000000 -78200.000000
v -6249.992676 -31275.000000 -78100.000000
v -6349.992676 -31275.000000 -78100.000000
v -6249.992676 -31275.000000 -78000.000000
v -6349.992676 -31275.000000 -78000.000000
v -6149.992676 -31275.000000 -78200.000000
v -6149.992676 -31275.000000 -78300.000000
v -6149.992676 -31275.000000 -78100.000000
v -6149.992676 -31275.000000 -78000.000000
v -6149.992676 -31275.000000 -77950.000000
v -6099.992676 -31275.000000 -77950.000000
v -6099.992676 -31275.000000 -77900.000000
v -6049.992676 -31275.000000 -77950.000000
v -5949.992676 -31275.000000 -78000.000000
v -6049.992676 -31275.000000 -78000.000000
v -6049.992676 -31275.000000 -78100.000000
v -5949.992676 -31275.000000 -78100.000000
v -6049.992676 -31275.000000 -78200.000000
v -6049.992676 -31275.000000 -78300.000000
v -6349.992676 -31275.000000 -78300.000000
v -6249.992676 -31275.000000 -78300.000000
v -6049.992676 -31275.000000 -77900.000000
v -6099.992676 -31300.000000 -77900.000000
v -6049.992676 -31300.000000 -77900.000000
v -6099.992676 -31275.000000 -77900.000000
v -6149.992676 -31300.000000 -77900.000000
v -6149.992676 -31275.000000 -77900.000000
v -5849.992676 -31275.000000 -78200.000000
v -5849.992676 -31275.000000 -78300.000000
v -5849.992676 -31275.000000 -78100.000000
v -5849.992676 -31275.000000 -78000.000000
v -5849.992676 -31300.000000 -78000.000000
v -6349.992676 -31275.000000 -78200.000000
v -6349.992676 -31275.000000 -78300.000000
v -6349.992676 -31275.000000 -78100.000000
v -6349.992676 -31275.000000 -78000.000000
v -6349.992676 -31300.000000 -78000.000000
v -6149.992676 -31275.000000 -78300.000000
v -6133.326172 -31300.000000 -78300.000000
v -6049.992676 -31275.000000 -78300.000000
v -6049.992676 -31300.000000 -78300.000000
v -5849.992676 -31325.000000 -78200.000000
v -5849.992676 -31325.000000 -78300.000000
v -5849.992676 -31325.000000 -78100.000000
v -5849.992676 -31325.000000 -78000.000000
v -6249.992676 -31325.000000 -78000.000000
v -6249.992676 -31325.000000 -78100.000000
v -6249.992676 -31325.000000 -78200.000000
v -6249.992676 -31325.000000 -78300.000000
v -5949.992676 -31325.000000 -77887.500000
v -6049.992676 -31325.000000 -77887.500000
v -5849.992676 -31325.000000 -77887.500000
v -5849.992676 -31325.000000 -78000.000000
v -6349.992676 -31325.000000 -78000.000000
v -6049.992676 -31325.000000 -78300.000000
v -6149.992676 -31325.000000 -78300.000000
v -5949.992676 -31275.000000 -78300.000000
v -5949.992676 -31275.000000 -78200.000000
v -5849.992676 -31275.000000 -78300.000000
v -5849.992676 -31275.000000 -78200.000000
v -5849.992676 -31275.000000 -78100.000000
v -5849.992676 -31275.000000 -78000.000000
v -6349.992676 -31325.000000 -78200.000000
v -6349.992676 -31325.000000 -78300.000000
v -6349.992676 -31325.000000 -78100.000000
v -6349.992676 -31325.000000 -78000.000000
v -6049.992676 -31325.000000 -77900.000000
v -6099.992676 -31325.000000 -77900.000000
v -6149.992676 -31325.000000 -77900.000000
vn -0.0000 -0.0000 1.0000
vn -0.0000 1.0000 -0.0000
vn 1.0000 -0.0000 -0.0000
vn -0.0000 -0.0000 -1.0000
vn -1.0000 -0.0000 -0.0000
vn -0.0000 -1.0000 -0.0000
vt 0.764160 0.702393
vt 0.644531 0.673584
vt 0.763672 0.674316
vt 0.604004 0.702148
vt 0.422363 0.789551
vt 0.452393 0.789551
vt 0.452393 0.804565
vt 0.422363 0.804565
vt 0.524902 0.673828
vt 0.524902 0.702393
vt 0.423828 0.385254
vt 0.544434 0.384766
vt 0.544434 0.260742
vt 0.423828 0.260742
vt 0.573242 0.758423
vt 0.573242 0.773438
vt 0.693848 0.773438
vt 0.693848 0.758423
vt 0.891602 0.368164
vt 0.927246 0.368652
vt 0.927246 0.494629
vt 0.892090 0.494629
vt 0.173828 0.438477
vt 0.294678 0.438477
vt 0.294678 0.564209
vt 0.173950 0.564453
vt 0.420410 0.634033
vt 0.359375 0.634033
vt 0.359375 0.664551
vt 0.420410 0.664551
vt 0.437500 0.773193
vt 0.437500 0.788208
vt 0.472656 0.788208
vt 0.472656 0.773193
vt 0.655273 0.508057
vt 0.655762 0.382812
vt 0.619629 0.382812
vt 0.619141 0.508057
vt 0.655273 0.257812
vt 0.619629 0.257812
vt 0.664062 0.702393
vt 0.664062 0.674072
vt 0.545898 0.673584
vt 0.545898 0.702148
vt 0.422363 0.803467
vt 0.452393 0.803467
vt 0.452393 0.788452
vt 0.422363 0.788452
vt 0.544434 0.136230
vt 0.423584 0.136230
vt 0.421143 0.320312
vt 0.297852 0.320312
vt 0.297852 0.445801
vt 0.421143 0.445801
vt 0.297852 0.570801
vt 0.421143 0.570801
vt 0.423828 0.633545
vt 0.544922 0.633545
vt 0.544922 0.509277
vt 0.423828 0.509277
vt 0.655273 0.382812
vt 0.655762 0.257812
vt 0.542480 0.758179
vt 0.542480 0.773315
vt 0.422363 0.773315
vt 0.422363 0.758179
vt 0.298096 0.634033
vt 0.298096 0.664551
vt 0.749023 0.616211
vt 0.875000 0.616455
vt 0.875000 0.495605
vt 0.749512 0.495117
vt 0.422852 0.758423
vt 0.542969 0.758423
vt 0.542969 0.773438
vt 0.422852 0.773438
vt 0.619141 0.133301
vt 0.655273 0.133301
vt 0.295654 0.875793
vt 0.174316 0.937439
vt 0.295166 0.937531
vt 0.174438 0.813232
vt 0.295166 0.813354
vt 0.692871 0.758179
vt 0.692871 0.773315
vt 0.572754 0.773315
vt 0.572754 0.758179
vt 0.580566 0.257812
vt 0.580566 0.133301
vt 0.616699 0.133301
vt 0.616211 0.257812
vt 0.423584 0.385254
vt 0.423340 0.260742
vt 0.294922 0.688477
vt 0.294922 0.812988
vt 0.174194 0.813110
vt 0.174072 0.688721
vt 0.423340 0.136230
vt 0.927734 0.089355
vt 0.927734 0.129883
vt 0.892578 0.129883
vt 0.892578 0.007812
vt 0.928223 0.007812
vt 0.421143 0.633545
vt 0.297852 0.633545
vt 0.295654 0.875488
vt 0.295166 0.937256
vt 0.437500 0.788696
vt 0.472412 0.788696
vt 0.472412 0.773682
vt 0.437256 0.773682
vt 0.358154 0.937073
vt 0.358643 0.875305
vt 0.423584 0.509277
vt 0.544434 0.509277
vt 0.174438 0.688721
vt 0.295410 0.688721
vt 0.544922 0.734131
vt 0.664551 0.733887
vt 0.664551 0.705566
vt 0.544922 0.705566
vt 0.615723 0.133301
vt 0.580078 0.133301
vt 0.580078 0.257812
vt 0.999512 0.616455
vt 0.999512 0.495605
vt 0.655762 0.008789
vt 0.619629 0.008789
vt 0.358887 0.875732
vt 0.358154 0.937500
vt 0.620117 0.133301
vt 0.655762 0.133301
vt 0.927246 0.616211
vt 0.891602 0.616211
vt 0.892090 0.246582
vt 0.927734 0.267090
vt 0.422363 0.673584
vt 0.422363 0.702148
vt 0.423340 0.705566
vt 0.423340 0.734131
vt 0.421143 0.196289
vt 0.297852 0.196289
vt 0.764160 0.733398
vt 0.645508 0.734131
vt 0.764648 0.705566
vt 0.604980 0.705566
vt 0.523926 0.734131
vt 0.523926 0.705566
vt 0.620117 0.508057
vt 0.655762 0.508057
vt 0.544434 0.633545
s 1
usemtl MI_DJ_Gate
f 3/1/1 1/2/1 2/3/1
f 1/2/1 3/1/1 4/4/1
f 60/5/3 25/6/3 24/7/3 59/8/3
f 1/2/1 4/4/1 9/9/1
f 10/10/1 9/9/1 4/4/1
f 149/11/6 82/12/6 85/13/6 147/14/6
f 56/15/6 53/16/6 54/17/6 55/18/6
f 160/19/4 146/20/4 27/21/4 67/22/4
f 154/23/6 97/24/6 96/25/6 153/26/6
f 127/27/1 130/28/1 128/29/1 129/30/1
f 71/31/3 70/32/3 35/33/3 34/34/3
f 70/35/3 158/36/3 137/37/3 35/38/3
f 20/15/2 18/18/2 19/17/2 17/16/2
f 158/36/3 66/39/3 65/40/3 137/37/3
f 8/41/1 5/42/1 6/43/1 7/44/1
f 44/45/5 42/46/5 43/47/5 41/48/5
f 147/14/6 85/13/6 87/49/6 148/50/6
f 123/51/2 111/52/2 113/53/2 121/54/2
f 121/54/2 113/53/2 114/55/2 120/56/2
f 58/57/6 56/58/6 91/59/6 150/60/6
f 173/28/1 172/27/1 129/30/1 128/29/1
f 36/35/3 35/38/3 137/37/3 136/36/3
f 122/12/2 166/11/2 165/14/2 163/13/2
f 142/37/5 141/61/5 140/62/5 76/40/5
f 50/63/6 47/64/6 48/65/6 49/66/6
f 130/28/1 132/67/1 131/68/1 128/29/1
f 36/32/3 33/31/3 34/34/3 35/33/3
f 136/36/3 137/37/3 65/40/3 135/39/3
f 159/61/5 142/37/5 76/40/5 77/62/5
f 26/5/3 23/8/3 24/7/3 25/6/3
f 87/69/6 85/70/6 84/71/6 86/72/6
f 22/73/2 20/74/2 17/75/2 21/76/2
f 135/39/3 65/40/3 61/77/3 133/78/3
f 90/79/6 56/80/6 55/81/6
f 56/80/6 90/79/6 91/82/6
f 92/83/6 91/82/6 90/79/6
f 52/84/6 51/85/6 47/86/6 50/87/6
f 66/88/3 64/89/3 61/90/3 65/91/3
f 108/92/2 107/12/2 104/13/2 106/93/2
f 95/94/6 94/95/6 151/96/6 152/97/6
f 106/93/2 104/13/2 105/49/2 103/98/2
f 100/99/4 98/100/4 99/101/4
f 99/101/4 101/102/4 100/99/4
f 102/103/4 100/99/4 101/102/4
f 83/54/6 92/56/6 94/55/6 95/53/6
f 16/84/2 14/87/2 11/86/2 15/85/2
f 92/56/6 90/104/6 93/105/6 94/55/6
f 120/56/2 114/55/2 115/105/2 118/104/2
f 109/96/2 114/95/2 113/94/2 107/97/2
f 150/60/6 91/59/6 82/12/6 149/11/6
f 107/97/2 113/94/2 111/25/2 104/26/2
f 114/95/2 109/96/2 115/106/2
f 14/80/2 115/106/2 109/96/2
f 16/107/2 115/106/2 14/80/2
f 40/108/5 38/109/5 39/110/5 37/111/5
f 16/107/2 117/112/2 116/113/2 115/106/2
f 18/81/2 20/80/2 118/79/2
f 118/79/2 20/80/2 119/82/2
f 120/83/2 118/79/2 119/82/2
f 104/26/2 111/25/2 112/24/2 105/23/2
f 153/13/6 168/93/6 169/98/6 154/49/6
f 110/114/2 109/115/2 107/12/2 108/92/2
f 14/63/2 12/66/2 13/65/2 11/64/2
f 82/116/6 91/82/6 92/83/6 83/117/6
f 102/103/4 125/102/4 100/99/4
f 126/101/4 100/99/4 125/102/4
f 126/101/4 98/100/4 100/99/4
f 46/118/1 45/119/1 8/120/1 7/121/1
f 72/122/5 74/123/5 77/124/5 76/91/5
f 85/70/6 82/125/6 83/126/6 84/71/6
f 64/78/3 62/127/3 63/128/3 61/77/3
f 118/79/2 116/129/2 117/130/2 18/81/2
f 72/131/5 138/132/5 139/127/5 75/128/5
f 76/40/5 140/62/5 138/132/5 72/131/5
f 30/22/4 27/21/4 146/20/4 145/19/4
f 38/109/5 78/108/5 79/111/5 39/110/5
f 27/21/4 29/133/4 68/134/4 67/22/4
f 98/100/4 126/101/4 143/135/4
f 143/135/4 144/136/4 98/100/4
f 144/136/4 143/135/4 145/19/4
f 145/19/4 146/20/4 144/136/4
f 7/44/1 6/43/1 32/137/1 31/138/1
f 90/79/6 55/81/6 88/130/6 89/129/6
f 46/118/1 7/121/1 31/139/1 69/140/1
f 124/141/2 112/142/2 111/52/2 123/51/2
f 163/70/2 162/69/2 124/72/2 123/71/2
f 58/73/6 57/76/6 53/75/6 56/74/6
f 50/80/6 93/106/6 52/107/6
f 50/80/6 151/96/6 93/106/6
f 94/95/6 93/106/6 151/96/6
f 165/14/2 164/50/2 162/49/2 163/13/2
f 84/51/6 83/54/6 95/53/6 96/52/6
f 121/126/2 122/125/2 163/70/2 123/71/2
f 156/143/1 155/144/1 3/145/1
f 155/144/1 4/146/1 3/145/1
f 155/144/1 157/147/1 4/146/1
f 10/148/1 4/146/1 157/147/1
f 38/149/5 40/150/5 141/61/5 142/37/5
f 78/150/5 38/149/5 142/37/5 159/61/5
f 75/128/5 73/127/5 74/132/5 72/131/5
f 30/22/4 28/134/4 29/133/4 27/21/4
f 43/47/5 42/46/5 81/45/5 80/48/5
f 146/20/4 160/19/4 144/136/4
f 144/136/4 160/19/4 161/135/4
f 144/136/4 161/135/4 98/100/4
f 98/100/4 161/135/4 99/101/4
f 86/141/6 84/51/6 96/52/6 97/142/6
f 151/115/6 171/114/6 170/92/6 152/12/6
f 133/78/3 61/77/3 63/128/3 134/127/3
f 96/25/6 95/94/6 152/97/6 153/26/6
f 52/107/6 93/106/6 89/113/6 88/112/6
f 12/57/2 14/151/2 109/115/2 110/114/2
f 122/116/2 121/117/2 120/83/2 119/82/2
f 20/58/2 22/57/2 167/60/2 119/59/2
f 152/12/6 170/92/6 168/93/6 153/13/6
f 119/59/2 167/60/2 166/11/2 122/12/2
f 50/151/6 49/57/6 171/114/6 151/115/6
f 131/68/1 174/67/1 173/28/1 128/29/1
