# Blender 5.0.1
# www.blender.org
mtllib BP_JunglePuzzleCog.mtl
o SM_DingyJungle_Cog.001
v -50.000000 -46.875000 19.496101
v -50.000000 -46.875000 -19.496105
v 50.000000 -46.875000 -19.496101
v 50.000000 -46.875000 19.496105
v -49.999996 -19.496103 -46.875004
v -49.999996 19.496103 -46.875004
v 50.000004 19.496103 -46.874996
v 50.000004 -19.496103 -46.874996
v -50.000000 46.875000 -19.496105
v -50.000000 46.875000 19.496101
v 50.000000 46.875000 19.496105
v 50.000000 46.875000 -19.496101
v -50.000004 19.496103 46.874996
v -50.000004 -19.496103 46.874996
v 49.999996 -19.496103 46.875004
v 49.999996 19.496103 46.875004
v -50.000000 -46.875000 -19.496105
v -49.999996 -19.496103 -46.875004
v 50.000004 -19.496103 -46.874996
v 50.000000 -46.875000 -19.496101
v 50.000000 -46.875000 19.496105
v 49.999996 -19.496103 46.875004
v -50.000004 -19.496103 46.874996
v -50.000000 -46.875000 19.496101
v -49.999996 19.496103 -46.875004
v -50.000000 46.875000 -19.496105
v 50.000000 46.875000 -19.496101
v 50.000004 19.496103 -46.874996
v -50.000000 46.875000 19.496101
v -50.000004 19.496103 46.874996
v 49.999996 19.496103 46.875004
v 50.000000 46.875000 19.496105
v -37.499996 -18.750006 -104.691673
v -37.500000 -18.750002 -42.191673
v -37.500000 18.749998 -42.191673
v -37.499996 18.749994 -104.691673
v 37.500004 -18.750006 -104.691673
v 37.500004 18.749994 -104.691673
v 37.500000 18.749998 -42.191673
v 37.500000 -18.750002 -42.191673
v 37.500000 -18.750002 -42.191673
v 37.500000 18.749998 -42.191673
v -37.500000 18.749998 -42.191673
v -37.500000 -18.750002 -42.191673
v 37.500004 -18.750006 -104.691673
v 37.500000 -18.750002 -42.191673
v -37.500000 -18.750002 -42.191673
v -37.499996 -18.750006 -104.691673
v 37.500004 18.749994 -104.691673
v 37.500004 -18.750006 -104.691673
v -37.499996 -18.750006 -104.691673
v -37.499996 18.749994 -104.691673
v 37.500000 18.749998 -42.191673
v 37.500004 18.749994 -104.691673
v -37.499996 18.749994 -104.691673
v -37.500000 18.749998 -42.191673
v -37.500000 104.691673 -18.750002
v -37.500000 42.191673 -18.750002
v -37.500000 42.191673 18.749998
v -37.500000 104.691673 18.749998
v 37.500000 104.691673 -18.749998
v 37.500000 104.691673 18.750002
v 37.500000 42.191673 18.750002
v 37.500000 42.191673 -18.749998
v 37.500000 42.191673 -18.749998
v 37.500000 42.191673 18.750002
v -37.500000 42.191673 18.749998
v -37.500000 42.191673 -18.750002
v 37.500000 104.691673 -18.749998
v 37.500000 42.191673 -18.749998
v -37.500000 42.191673 -18.750002
v -37.500000 104.691673 -18.750002
v 37.500000 104.691673 18.750002
v 37.500000 104.691673 -18.749998
v -37.500000 104.691673 -18.750002
v -37.500000 104.691673 18.749998
v 37.500000 42.191673 18.750002
v 37.500000 104.691673 18.750002
v -37.500000 104.691673 18.749998
v -37.500000 42.191673 18.749998
v -37.500004 18.750000 104.691673
v -37.500000 18.750000 42.191673
v -37.500000 -18.750000 42.191673
v -37.500004 -18.750000 104.691673
v 37.499996 18.750000 104.691673
v 37.499996 -18.750000 104.691673
v 37.500000 -18.750000 42.191673
v 37.500000 18.750000 42.191673
v 37.500000 18.750000 42.191673
v 37.500000 -18.750000 42.191673
v -37.500000 -18.750000 42.191673
v -37.500000 18.750000 42.191673
v 37.499996 18.750000 104.691673
v 37.500000 18.750000 42.191673
v -37.500000 18.750000 42.191673
v -37.500004 18.750000 104.691673
v 37.499996 -18.750000 104.691673
v 37.499996 18.750000 104.691673
v -37.500004 18.750000 104.691673
v -37.500004 -18.750000 104.691673
v 37.500000 -18.750000 42.191673
v 37.499996 -18.750000 104.691673
v -37.500004 -18.750000 104.691673
v -37.500000 -18.750000 42.191673
v -37.500000 -104.691673 18.750006
v -37.500000 -42.191673 18.750002
v -37.500000 -42.191673 -18.749998
v -37.500000 -104.691673 -18.749994
v 37.500000 -104.691673 18.750010
v 37.500000 -104.691673 -18.749990
v 37.500000 -42.191673 -18.749994
v 37.500000 -42.191673 18.750006
v 37.500000 -42.191673 18.750006
v 37.500000 -42.191673 -18.749994
v -37.500000 -42.191673 -18.749998
v -37.500000 -42.191673 18.750002
v 37.500000 -104.691673 18.750010
v 37.500000 -42.191673 18.750006
v -37.500000 -42.191673 18.750002
v -37.500000 -104.691673 18.750006
v 37.500000 -104.691673 -18.749990
v 37.500000 -104.691673 18.750010
v -37.500000 -104.691673 18.750006
v -37.500000 -104.691673 -18.749994
v 37.500000 -42.191673 -18.749994
v 37.500000 -104.691673 -18.749990
v -37.500000 -104.691673 -18.749994
v -37.500000 -42.191673 -18.749998
v -50.000004 -19.496103 46.874996
v -50.000004 19.496103 46.874996
v -50.000000 46.875000 19.496101
v -50.000000 46.875000 -19.496105
v -49.999996 19.496103 -46.875004
v -50.000000 -46.875000 -19.496105
v -50.000000 -46.875000 19.496101
v -49.999996 -19.496103 -46.875004
v 50.000000 -46.875000 19.496105
v 50.000000 -46.875000 -19.496101
v 50.000004 -19.496103 -46.874996
v 50.000004 19.496103 -46.874996
v 50.000000 46.875000 -19.496101
v 49.999996 19.496103 46.875004
v 49.999996 -19.496103 46.875004
v 50.000000 46.875000 19.496105
vn -0.0000 -1.0000 -0.0000
vn -0.0000 -0.0000 -1.0000
vn -0.0000 1.0000 -0.0000
vn -0.0000 -0.0000 1.0000
vn -0.0000 -0.7071 -0.7071
vn -0.0000 -0.7071 0.7071
vn -0.0000 0.7071 -0.7071
vn -0.0000 0.7071 0.7071
vn -1.0000 -0.0000 -0.0000
vn 1.0000 -0.0000 -0.0000
vt 0.684082 0.631836
vt 0.684082 0.935486
vt 0.501953 0.935486
vt 0.501953 0.631836
vt 0.316650 0.631836
vt 0.498779 0.631836
vt 0.498779 0.996210
vt 0.316650 0.996210
vt 0.307129 0.996311
vt 0.003485 0.996311
vt 0.003485 0.632080
vt 0.307129 0.632080
vt 0.873047 0.935120
vt 0.873047 0.631592
vt 0.690918 0.631592
vt 0.690918 0.935120
vt 0.169922 0.127930
vt 0.497559 0.263184
vt 0.362305 0.590820
vt 0.034729 0.455566
vt 0.745605 0.097168
vt 0.565918 0.097168
vt 0.565918 0.592041
vt 0.745605 0.592041
vt 0.745605 0.096680
vt 0.565918 0.096680
vt 0.565918 0.591797
vt 0.745605 0.591797
vt 0.498779 0.996172
vt 0.316650 0.996172
vt 0.873047 0.934937
vt 0.690430 0.934937
vt 0.690430 0.631348
vt 0.873047 0.631348
vt 0.684082 0.935364
vt 0.501953 0.935364
vt 0.003466 0.996351
vt 0.307129 0.996351
vt 0.003466 0.632080
vt 0.564453 0.592041
vt 0.564453 0.097168
vt 0.564453 0.591797
vt 0.564453 0.096680
vt 0.497559 0.455566
vt 0.169922 0.590820
vt 0.362305 0.127930
vt 0.034729 0.263184
vt 0.034698 0.455566
vt 0.034698 0.263184
s 1
usemtl MI_DingyJungle_Cog
f 59/1/9 60/2/9 57/3/9 58/4/9
f 43/5/4 44/6/4 41/7/4 42/8/4
f 127/9/2 128/10/2 125/11/2 126/12/2
f 35/13/9 36/14/9 33/15/9 34/16/9
f 134/17/9 129/18/9 131/19/9 133/20/9
f 31/21/8 32/22/8 29/23/8 30/24/8
f 19/25/5 20/26/5 17/27/5 18/28/5
f 27/25/7 28/26/7 25/27/7 26/28/7
f 67/5/1 68/6/1 65/7/1 66/8/1
f 75/29/3 76/30/3 73/5/3 74/6/3
f 39/31/10 40/32/10 37/33/10 38/34/10
f 51/29/2 52/30/2 49/5/2 50/6/2
f 87/4/10 88/1/10 85/35/10 86/36/10
f 71/37/2 72/38/2 69/12/2 70/39/2
f 83/1/9 84/2/9 81/3/9 82/4/9
f 3/24/1 4/40/1 1/41/1 2/21/1
f 63/31/10 64/32/10 61/33/10 62/34/10
f 79/9/4 80/10/4 77/11/4 78/12/4
f 15/24/4 16/40/4 13/41/4 14/21/4
f 119/37/4 120/38/4 117/12/4 118/39/4
f 111/31/10 112/32/10 109/33/10 110/34/10
f 91/5/2 92/6/2 89/7/2 90/8/2
f 7/28/2 8/42/2 5/43/2 6/25/2
f 55/9/3 56/10/3 53/11/3 54/12/3
f 115/5/3 116/6/3 113/7/3 114/8/3
f 95/37/3 96/38/3 93/12/3 94/39/3
f 47/11/1 48/12/1 45/9/1 46/10/1
f 103/9/1 104/10/1 101/11/1 102/12/1
f 23/27/6 24/28/6 21/25/6 22/26/6
f 99/5/4 100/6/4 97/29/4 98/30/4
f 107/1/9 108/2/9 105/3/9 106/4/9
f 123/29/1 124/30/1 121/5/1 122/6/1
f 131/19/9 129/18/9 130/44/9
f 133/20/9 131/19/9 132/45/9
f 134/17/9 135/46/9 129/18/9
f 134/17/9 133/20/9 136/47/9
f 139/18/10 137/17/10 138/46/10
f 141/19/10 139/18/10 140/44/10
f 11/28/3 12/42/3 9/43/3 10/25/3
f 142/48/10 143/49/10 137/17/10
f 142/48/10 141/19/10 144/45/10
f 142/48/10 137/17/10 139/18/10 141/19/10
