# Blender 5.0.1
# www.blender.org
mtllib BP_jungle_tree_small.mtl
o jungletree_small_Box036.001
v 199.999557 -99.999969 299.999878
v 99.999557 -99.999969 299.999878
v 199.999557 0.000031 299.999878
v 99.999557 0.000031 299.999878
v 199.999557 -99.999969 399.999878
v 99.999557 -99.999969 399.999878
v 99.999557 -99.999969 299.999878
v 199.999557 -99.999969 299.999878
v 199.999557 0.000031 399.999878
v 199.999557 -99.999969 399.999878
v 199.999557 -99.999969 299.999878
v 199.999557 0.000031 299.999878
v 99.999542 -99.999985 299.999878
v -0.000458 -99.999985 299.999878
v 99.999542 0.000015 299.999878
v -0.000458 0.000015 299.999878
v 99.999504 -0.000031 299.999847
v -0.000504 -0.000031 299.999847
v 99.999504 99.999969 299.999847
v -0.000504 99.999969 299.999847
v 199.999573 0.000015 299.999847
v 99.999573 0.000015 299.999847
v 199.999573 100.000015 299.999847
v 99.999573 100.000015 299.999847
v 199.999573 100.000015 399.999847
v 199.999573 0.000015 399.999847
v 199.999573 0.000015 299.999847
v 199.999573 100.000015 299.999847
v 199.999512 99.999969 299.999847
v 99.999512 99.999969 299.999847
v 199.999512 199.999969 299.999847
v 99.999512 199.999969 299.999847
v 199.999512 199.999969 399.999847
v 199.999512 99.999969 399.999847
v 199.999512 99.999969 299.999847
v 199.999512 199.999969 299.999847
v 99.999512 199.999969 399.999847
v 199.999512 199.999969 399.999847
v 199.999512 199.999969 299.999847
v 99.999512 199.999969 299.999847
v 99.999832 100.000015 300.000092
v -0.000168 100.000015 300.000092
v 99.999832 200.000015 300.000092
v -0.000168 200.000015 300.000092
v 99.999641 200.000031 300.000183
v -0.000351 200.000031 300.000183
v 99.999641 300.000031 300.000183
v -0.000351 300.000031 300.000183
v 99.999641 300.000031 400.000183
v 99.999641 200.000031 400.000183
v 99.999641 200.000031 300.000183
v 99.999641 300.000031 300.000183
v -0.000351 300.000031 400.000183
v 99.999641 300.000031 400.000183
v 99.999641 300.000031 300.000183
v -0.000351 300.000031 300.000183
v -100.000351 200.000031 300.000183
v -100.000351 300.000031 300.000183
v -100.000351 300.000031 400.000183
v -100.000351 300.000031 300.000183
v -0.000168 100.000000 300.000092
v -100.000168 100.000000 300.000092
v -0.000168 200.000000 300.000092
v -100.000168 200.000000 300.000092
v 0.000000 0.000000 300.000000
v -100.000000 0.000000 300.000000
v 0.000000 100.000000 300.000000
v -100.000000 100.000000 300.000000
v -0.000488 -100.000015 299.999878
v -100.000488 -100.000015 299.999878
v -0.000488 -0.000015 299.999878
v -100.000488 -0.000015 299.999878
v -0.000473 -199.999985 299.999908
v -100.000473 -199.999985 299.999908
v -0.000473 -99.999985 299.999908
v -100.000473 -99.999985 299.999908
v -0.000473 -199.999985 399.999908
v -100.000473 -199.999985 399.999908
v -100.000473 -199.999985 299.999908
v -0.000473 -199.999985 299.999908
v 99.999565 -199.999985 299.999939
v -0.000443 -199.999985 299.999939
v 99.999565 -99.999985 299.999939
v -0.000443 -99.999985 299.999939
v 99.999565 -199.999985 399.999939
v -0.000443 -199.999985 399.999939
v -0.000443 -199.999985 299.999939
v 99.999565 -199.999985 299.999939
v 99.999565 -99.999985 399.999939
v 99.999565 -199.999985 399.999939
v 99.999565 -199.999985 299.999939
v 99.999565 -99.999985 299.999939
v -100.000198 -200.000000 300.000122
v -200.000198 -200.000000 300.000122
v -100.000198 -100.000000 300.000122
v -200.000198 -100.000000 300.000122
v -100.000198 -200.000000 400.000122
v -200.000198 -200.000000 400.000122
v -200.000198 -200.000000 300.000122
v -100.000198 -200.000000 300.000122
v -100.000076 -100.000031 300.000031
v -200.000076 -100.000031 300.000031
v -100.000076 -0.000031 300.000031
v -200.000076 -0.000031 300.000031
v -200.000198 -100.000000 300.000061
v -300.000183 -100.000000 300.000061
v -200.000198 -0.000000 300.000061
v -300.000183 -0.000000 300.000061
v -300.000183 -100.000000 400.000061
v -300.000183 -0.000000 400.000061
v -300.000183 -0.000000 300.000061
v -300.000183 -100.000000 300.000061
v -200.000168 -0.000000 300.000061
v -200.000168 100.000000 300.000061
v -300.000183 100.000000 300.000061
v -300.000183 100.000000 400.000061
v -300.000183 100.000000 300.000061
v -100.000076 -0.000000 300.000031
v -200.000076 -0.000000 300.000031
v -100.000076 100.000000 300.000031
v -200.000076 100.000000 300.000031
v -200.000320 100.000000 300.000153
v -300.000305 100.000000 300.000153
v -200.000320 200.000000 300.000153
v -300.000305 200.000000 300.000153
v -300.000305 100.000000 400.000153
v -300.000305 200.000000 400.000153
v -300.000305 200.000000 300.000153
v -300.000305 100.000000 300.000153
v -100.000168 100.000015 300.000061
v -200.000168 100.000015 300.000061
v -100.000168 200.000015 300.000061
v -200.000168 200.000015 300.000061
v -100.000381 200.000000 300.000183
v -200.000381 200.000000 300.000183
v -100.000381 300.000000 300.000183
v -200.000381 300.000000 300.000183
v -200.000381 300.000000 400.000183
v -100.000381 300.000000 400.000183
v -100.000381 300.000000 300.000183
v -200.000381 300.000000 300.000183
v 199.999588 -0.000000 499.999908
v 99.999588 -0.000000 499.999908
v 99.999588 -100.000000 499.999908
v 199.999588 -100.000000 499.999908
v 199.999588 -100.000000 499.999908
v 99.999588 -100.000000 499.999908
v 99.999588 -100.000000 399.999908
v 199.999588 -100.000000 399.999908
v 199.999588 -0.000000 499.999908
v 199.999588 -100.000000 499.999908
v 199.999588 -100.000000 399.999908
v 199.999588 -0.000000 399.999908
v 199.999603 99.999985 499.999878
v 99.999603 99.999985 499.999878
v 99.999603 -0.000015 499.999878
v 199.999603 -0.000015 499.999878
v 199.999603 99.999985 499.999878
v 199.999603 -0.000015 499.999878
v 199.999603 -0.000015 399.999878
v 199.999603 99.999985 399.999878
v 199.999542 199.999939 499.999878
v 99.999542 199.999939 499.999878
v 99.999542 99.999939 499.999878
v 199.999542 99.999939 499.999878
v 199.999542 199.999939 499.999878
v 199.999542 99.999939 499.999878
v 199.999542 99.999939 399.999878
v 199.999542 199.999939 399.999878
v 99.999863 199.999985 500.000122
v -0.000137 199.999985 500.000122
v -0.000137 99.999985 500.000122
v 99.999863 99.999985 500.000122
v 99.999672 300.000000 500.000214
v -0.000320 300.000000 500.000214
v -0.000320 200.000000 500.000214
v 99.999672 200.000000 500.000214
v -0.000320 300.000000 500.000214
v 99.999672 300.000000 500.000214
v 99.999672 300.000000 400.000214
v -0.000320 300.000000 400.000214
v -100.000320 300.000000 500.000214
v -100.000320 200.000000 500.000214
v -100.000320 300.000000 500.000214
v -100.000320 300.000000 400.000214
v -0.000443 -100.000015 499.999939
v -100.000443 -100.000015 499.999939
v -100.000443 -200.000015 499.999939
v -0.000443 -200.000015 499.999939
v -0.000443 -200.000015 499.999939
v -100.000443 -200.000015 499.999939
v -100.000443 -200.000015 399.999939
v -0.000443 -200.000015 399.999939
v 99.999596 -100.000015 499.999969
v -0.000412 -100.000015 499.999969
v -0.000412 -200.000015 499.999969
v 99.999596 -200.000015 499.999969
v 99.999596 -200.000015 499.999969
v -0.000412 -200.000015 499.999969
v -0.000412 -200.000015 399.999969
v 99.999596 -200.000015 399.999969
v 99.999596 -100.000015 499.999969
v 99.999596 -200.000015 499.999969
v 99.999596 -200.000015 399.999969
v 99.999596 -100.000015 399.999969
v -100.000168 -100.000031 500.000153
v -200.000168 -100.000031 500.000153
v -200.000168 -200.000031 500.000153
v -100.000168 -200.000031 500.000153
v -100.000168 -200.000031 500.000153
v -200.000168 -200.000031 500.000153
v -200.000168 -200.000031 400.000153
v -100.000168 -200.000031 400.000153
v -200.000168 -200.000031 500.000153
v -200.000168 -100.000031 500.000153
v -200.000168 -100.000031 400.000153
v -200.000168 -200.000031 400.000153
v -200.000168 -0.000031 500.000092
v -300.000183 -0.000031 500.000092
v -300.000183 -100.000031 500.000092
v -200.000168 -100.000031 500.000092
v -200.000168 -100.000031 500.000092
v -300.000183 -100.000031 500.000092
v -300.000183 -100.000031 400.000092
v -200.000168 -100.000031 400.000092
v -300.000183 -100.000031 500.000092
v -300.000183 -0.000031 500.000092
v -300.000183 -0.000031 400.000092
v -300.000183 -100.000031 400.000092
v -200.000137 99.999969 500.000092
v -300.000122 99.999969 500.000092
v -300.000122 -0.000031 500.000092
v -200.000137 -0.000031 500.000092
v -300.000122 -0.000031 500.000092
v -300.000122 99.999969 500.000092
v -300.000122 99.999969 400.000092
v -300.000122 -0.000031 400.000092
v -200.000290 199.999969 500.000183
v -300.000305 199.999969 500.000183
v -300.000305 99.999969 500.000183
v -200.000290 99.999969 500.000183
v -300.000305 99.999969 500.000183
v -300.000305 199.999969 500.000183
v -300.000305 199.999969 400.000183
v -300.000305 99.999969 400.000183
v -100.000351 299.999969 500.000214
v -200.000351 299.999969 500.000214
v -200.000351 199.999969 500.000214
v -100.000351 199.999969 500.000214
v -200.000351 299.999969 500.000214
v -100.000351 299.999969 500.000214
v -100.000351 299.999969 400.000214
v -200.000351 299.999969 400.000214
v 99.999611 100.000000 599.999756
v 99.999611 -0.000000 599.999756
v 99.999611 -0.000000 499.999786
v 99.999611 100.000000 499.999786
v -0.000381 100.000000 599.999756
v 99.999611 100.000000 599.999756
v 99.999611 100.000000 499.999786
v -0.000381 100.000000 499.999786
v 99.999611 99.999908 700.000000
v -0.000381 99.999908 700.000000
v -0.000381 -0.000084 700.000000
v 99.999611 -0.000084 700.000000
v 99.999611 -0.000084 700.000000
v -0.000381 -0.000084 700.000000
v -0.000381 -0.000084 600.000000
v 99.999611 -0.000084 600.000000
v 99.999611 99.999908 700.000000
v 99.999611 -0.000084 700.000000
v 99.999611 -0.000084 600.000000
v 99.999611 99.999908 600.000000
v -0.000381 99.999908 700.000000
v 99.999611 99.999908 700.000000
v 99.999611 99.999908 600.000000
v -0.000381 99.999908 600.000000
v -0.000397 -0.000061 700.000000
v -100.000397 -0.000061 700.000000
v -100.000397 -100.000061 700.000000
v -0.000397 -100.000061 700.000000
v -0.000397 -100.000061 700.000000
v -100.000397 -100.000061 700.000000
v -100.000397 -100.000061 600.000000
v -0.000397 -100.000061 600.000000
v -0.000397 -0.000061 700.000000
v -0.000397 -100.000061 700.000000
v -0.000397 -100.000061 600.000000
v -0.000397 -0.000061 600.000000
v -100.000397 -100.000061 700.000000
v -100.000397 -0.000061 700.000000
v -100.000397 -0.000061 600.000000
v -100.000397 -100.000061 600.000000
v -0.000412 99.999924 700.000000
v -100.000412 99.999924 700.000000
v -100.000412 -0.000076 700.000000
v -0.000412 -0.000076 700.000000
v -100.000443 99.999985 700.000000
v -200.000443 99.999985 700.000000
v -200.000443 -0.000015 700.000000
v -100.000443 -0.000015 700.000000
v -100.000443 -0.000015 700.000000
v -200.000443 -0.000015 700.000000
v -200.000443 -0.000015 600.000000
v -100.000443 -0.000015 600.000000
v -200.000443 99.999985 700.000000
v -100.000443 99.999985 700.000000
v -100.000443 99.999985 600.000000
v -200.000443 99.999985 600.000000
v -200.000443 -0.000015 700.000000
v -200.000443 99.999985 700.000000
v -200.000443 99.999985 600.000000
v -200.000443 -0.000015 600.000000
v -0.000381 200.000000 699.999756
v -100.000381 200.000000 699.999756
v -100.000381 100.000000 699.999756
v -0.000381 100.000000 699.999756
v -0.000381 200.000000 699.999756
v -0.000381 100.000000 699.999756
v -0.000381 100.000000 599.999756
v -0.000381 200.000000 599.999756
v -100.000381 200.000000 699.999756
v -0.000381 200.000000 699.999756
v -0.000381 200.000000 599.999756
v -100.000381 200.000000 599.999756
v -100.000381 100.000000 699.999756
v -100.000381 200.000000 699.999756
v -100.000381 200.000000 599.999756
v -100.000381 100.000000 599.999756
v 199.999573 199.999908 399.999847
v 99.999573 199.999908 399.999847
v 199.999573 299.999908 399.999847
v 99.999573 299.999908 399.999847
v 199.999573 299.999908 499.999847
v 99.999573 299.999908 499.999847
v 99.999573 199.999908 499.999847
v 199.999573 199.999908 499.999847
v 199.999573 299.999908 499.999847
v 199.999573 199.999908 499.999847
v 199.999573 199.999908 399.999847
v 199.999573 299.999908 399.999847
v 99.999573 299.999908 499.999847
v 199.999573 299.999908 499.999847
v 199.999573 299.999908 399.999847
v 99.999573 299.999908 399.999847
v -200.000137 -199.999969 300.000122
v -300.000122 -199.999969 300.000122
v -200.000137 -99.999969 300.000122
v -300.000122 -99.999969 300.000122
v -200.000137 -99.999969 400.000122
v -300.000122 -99.999969 400.000122
v -300.000122 -199.999969 400.000122
v -200.000137 -199.999969 400.000122
v -200.000137 -199.999969 400.000122
v -300.000122 -199.999969 400.000122
v -300.000122 -199.999969 300.000122
v -200.000137 -199.999969 300.000122
v -300.000122 -199.999969 400.000122
v -300.000122 -99.999969 400.000122
v -300.000122 -99.999969 300.000122
v -300.000122 -199.999969 300.000122
v -200.000137 300.000000 500.000061
v -300.000122 300.000000 500.000061
v -300.000122 200.000000 500.000061
v -200.000137 200.000000 500.000061
v -300.000122 300.000000 500.000061
v -200.000137 300.000000 500.000061
v -200.000137 300.000000 400.000061
v -300.000122 300.000000 400.000061
v -300.000122 200.000000 500.000061
v -300.000122 300.000000 500.000061
v -300.000122 300.000000 400.000061
v -300.000122 200.000000 400.000061
v -200.000137 200.000000 300.000061
v -300.000122 200.000000 300.000061
v -200.000137 300.000000 300.000061
v -300.000122 300.000000 300.000061
v -200.000137 300.000000 300.000061
v -300.000122 300.000000 300.000061
v -300.000122 300.000000 300.000061
v -300.000122 200.000000 300.000061
v -100.000107 199.999969 600.000000
v -200.000107 199.999969 600.000000
v -200.000107 99.999969 600.000000
v -100.000107 99.999969 600.000000
v -200.000107 199.999969 600.000000
v -100.000107 199.999969 600.000000
v -100.000107 199.999969 500.000031
v -200.000107 199.999969 500.000031
v -200.000107 99.999969 600.000000
v -200.000107 199.999969 600.000000
v -200.000107 199.999969 500.000031
v -200.000107 99.999969 500.000031
v -200.000046 -0.000076 600.000122
v -200.000046 99.999924 600.000122
v -200.000046 99.999924 500.000092
v -200.000046 -0.000076 500.000092
v -100.000443 -0.000000 600.000000
v -200.000443 -0.000000 600.000000
v -200.000443 -100.000000 600.000000
v -100.000443 -100.000000 600.000000
v -100.000443 -100.000000 600.000000
v -200.000443 -100.000000 600.000000
v -200.000443 -100.000000 499.999969
v -100.000443 -100.000000 499.999969
v -200.000443 -100.000000 600.000000
v -200.000443 -0.000000 600.000000
v -200.000443 -0.000000 499.999969
v -200.000443 -100.000000 499.999969
v 0.000046 199.999954 600.000000
v 0.000046 99.999954 600.000000
v 0.000046 99.999954 500.000031
v 0.000046 199.999954 500.000031
v -99.999954 199.999954 600.000000
v 0.000046 199.999954 600.000000
v 0.000046 199.999954 500.000031
v -99.999954 199.999954 500.000031
v 99.999596 -0.000061 600.000000
v -0.000412 -0.000061 600.000000
v -0.000412 -100.000061 600.000000
v 99.999596 -100.000061 600.000000
v 99.999596 -100.000061 600.000000
v -0.000412 -100.000061 600.000000
v -0.000412 -100.000061 499.999969
v 99.999596 -100.000061 499.999969
v 99.999596 -0.000061 600.000000
v 99.999596 -100.000061 600.000000
v 99.999596 -100.000061 499.999969
v 99.999596 -0.000061 499.999969
v -0.000458 -100.000061 600.000000
v -100.000458 -100.000061 600.000000
v -100.000458 -100.000061 499.999969
v -0.000458 -100.000061 499.999969
vn -0.0000 -0.0000 -1.0000
vn -0.0000 -1.0000 -0.0000
vn 1.0000 -0.0000 -0.0000
vn -0.0000 1.0000 -0.0000
vn -1.0000 -0.0000 -0.0000
vn -0.0000 -0.0000 1.0000
vt 1.000000 0.000000
vt 1.000000 0.999969
vt 0.000031 0.999969
vt 0.000031 0.000000
s 1
usemtl MI_jungletree_leaves
f 429/1/3 426/2/3 427/3/3 428/4/3
f 345/1/4 342/2/4 343/3/4 344/4/4
f 281/1/6 278/2/6 279/3/6 280/4/6
f 249/1/6 246/2/6 247/3/6 248/4/6
f 405/1/2 402/2/2 403/3/2 404/4/2
f 375/1/1 377/2/1 376/3/1 374/4/1
f 141/1/4 138/2/4 139/3/4 140/4/4
f 313/1/5 310/2/5 311/3/5 312/4/5
f 173/1/6 170/2/6 171/3/6 172/4/6
f 62/1/1 64/2/1 63/3/1 61/4/1
f 197/1/6 194/2/6 195/3/6 196/4/6
f 205/1/3 202/2/3 203/3/3 204/4/3
f 100/1/2 97/2/2 98/3/2 99/4/2
f 94/1/1 96/2/1 95/3/1 93/4/1
f 265/1/6 262/2/6 263/3/6 264/4/6
f 123/1/1 125/2/1 124/3/1 122/4/1
f 297/1/6 294/2/6 295/3/6 296/4/6
f 80/1/2 77/2/2 78/3/2 79/4/2
f 329/1/5 326/2/5 327/3/5 328/4/5
f 157/1/6 154/2/6 155/3/6 156/4/6
f 12/1/3 9/2/3 10/3/3 11/4/3
f 111/1/5 110/2/5 116/3/5 117/4/5
f 389/1/4 386/2/4 387/3/4 388/4/4
f 22/1/1 24/2/1 23/3/1 21/4/1
f 8/1/2 5/2/2 6/3/2 7/4/2
f 112/1/5 109/2/5 110/3/5 111/4/5
f 106/1/1 108/2/1 107/3/1 105/4/1
f 46/1/1 48/2/1 47/3/1 45/4/1
f 409/1/5 406/2/5 407/3/5 408/4/5
f 181/1/4 178/2/4 179/3/4 180/4/4
f 28/1/3 25/2/3 26/3/3 27/4/3
f 425/1/2 422/2/2 423/3/2 424/4/2
f 14/1/1 16/2/1 15/3/1 13/4/1
f 131/1/1 133/2/1 132/3/1 130/4/1
f 57/1/1 58/2/1 48/3/1 46/4/1
f 253/1/4 250/2/4 251/3/4 252/4/4
f 40/1/4 37/2/4 38/3/4 39/4/4
f 149/1/2 146/2/2 147/3/2 148/4/2
f 36/1/3 33/2/3 34/3/3 35/4/3
f 285/1/2 282/2/2 283/3/2 284/4/2
f 30/1/1 32/2/1 31/3/1 29/4/1
f 165/1/6 162/2/6 163/3/6 164/4/6
f 70/1/1 72/2/1 71/3/1 69/4/1
f 317/1/6 314/2/6 315/3/6 316/4/6
f 66/1/1 68/2/1 67/3/1 65/4/1
f 261/1/4 258/2/4 259/3/4 260/4/4
f 42/1/1 44/2/1 43/3/1 41/4/1
f 347/1/1 349/2/1 348/3/1 346/4/1
f 189/1/6 186/2/6 187/3/6 188/4/6
f 88/1/2 85/2/2 86/3/2 87/4/2
f 379/1/4 369/2/4 368/3/4 378/4/4
f 56/1/4 53/2/4 54/3/4 55/4/4
f 52/1/3 49/2/3 50/3/3 51/4/3
f 213/1/2 210/2/2 211/3/2 212/4/2
f 413/1/3 410/2/3 411/3/3 412/4/3
f 209/1/6 206/2/6 207/3/6 208/4/6
f 102/1/1 104/2/1 103/3/1 101/4/1
f 217/1/5 214/2/5 215/3/5 216/4/5
f 233/1/6 230/2/6 231/3/6 232/4/6
f 417/1/4 414/2/4 415/3/4 416/4/4
f 176/1/6 175/2/6 182/3/6 183/4/6
f 229/1/5 226/2/5 227/3/5 228/4/5
f 177/1/6 174/2/6 175/3/6 176/4/6
f 82/1/1 84/2/1 83/3/1 81/4/1
f 245/1/5 242/2/5 243/3/5 244/4/5
f 241/1/6 238/2/6 239/3/6 240/4/6
f 225/1/2 222/2/2 223/3/2 224/4/2
f 60/1/4 59/2/4 53/3/4 56/4/4
f 135/1/1 137/2/1 136/3/1 134/4/1
f 257/1/3 254/2/3 255/3/3 256/4/3
f 269/1/2 266/2/2 267/3/2 268/4/2
f 129/1/5 126/2/5 127/3/5 128/4/5
f 277/1/4 274/2/4 275/3/4 276/4/4
f 273/1/3 270/2/3 271/3/3 272/4/3
f 119/1/1 121/2/1 120/3/1 118/4/1
f 221/1/6 218/2/6 219/3/6 220/4/6
f 153/1/3 150/2/3 151/3/3 152/4/3
f 289/1/3 286/2/3 287/3/3 288/4/3
f 301/1/6 298/2/6 299/3/6 300/4/6
f 145/1/6 142/2/6 143/3/6 144/4/6
f 309/1/4 306/2/4 307/3/4 308/4/4
f 305/1/2 302/2/2 303/3/2 304/4/2
f 293/1/5 290/2/5 291/3/5 292/4/5
f 74/1/1 76/2/1 75/3/1 73/4/1
f 169/1/3 166/2/3 167/3/3 168/4/3
f 321/1/3 318/2/3 319/3/3 320/4/3
f 331/1/1 333/2/1 332/3/1 330/4/1
f 161/1/3 158/2/3 159/3/3 160/4/3
f 341/1/3 338/2/3 339/3/3 340/4/3
f 337/1/6 334/2/6 335/3/6 336/4/6
f 325/1/4 322/2/4 323/3/4 324/4/4
f 2/1/1 4/2/1 3/3/1 1/4/1
f 92/1/3 89/2/3 90/3/3 91/4/3
f 353/1/6 350/2/6 351/3/6 352/4/6
f 237/1/5 234/2/5 235/3/5 236/4/5
f 108/1/1 115/2/1 114/3/1 113/4/1
f 373/1/5 370/2/5 371/3/5 372/4/5
f 369/1/4 366/2/4 367/3/4 368/4/4
f 357/1/2 354/2/2 355/3/2 356/4/2
f 365/1/6 362/2/6 363/3/6 364/4/6
f 193/1/2 190/2/2 191/3/2 192/4/2
f 381/1/5 373/2/5 372/3/5 380/4/5
f 393/1/5 390/2/5 391/3/5 392/4/5
f 185/1/4 184/2/4 178/3/4 181/4/4
f 401/1/6 398/2/6 399/3/6 400/4/6
f 397/1/5 394/2/5 395/3/5 396/4/5
f 385/1/6 382/2/6 383/3/6 384/4/6
f 361/1/5 358/2/5 359/3/5 360/4/5
f 421/1/6 418/2/6 419/3/6 420/4/6
f 201/1/2 198/2/2 199/3/2 200/4/2
f 18/1/1 20/2/1 19/3/1 17/4/1
f 433/1/2 430/2/2 431/3/2 432/4/2
