# Blender 5.0.1
# www.blender.org
mtllib BP_Jungleplant_tallthin.mtl
o SM_Jungleplant_leaves.001
v 0.000000 -224.362595 -49.999714
v -150.000000 35.445038 -49.999714
v 0.000000 -224.362595 50.000286
v -150.000000 35.445038 50.000286
v 150.000000 35.445038 50.000286
v 0.000000 -224.362595 -49.999714
v 0.000000 -224.362595 50.000286
v 150.000000 35.445038 -49.999714
v -35.355339 -224.362579 35.355633
v 219.067062 -74.362579 148.356674
v 35.355339 -224.362579 -35.355061
v 148.356384 -74.362579 219.067368
v -50.000011 -146.716858 289.778046
v 50.000011 -146.716858 289.778046
v 50.000011 -169.363525 205.259537
v -50.000011 -169.363525 205.259537
v 50.000011 -224.362579 0.000285
v -50.000011 -224.362579 0.000285
v 0.000000 -224.362579 50.000286
v 0.000000 -224.362579 -49.999714
v -120.740723 -192.010193 -49.999714
v -120.740723 -192.010193 50.000286
v -289.777740 -146.716858 -49.999714
v -289.777740 -146.716858 50.000286
v 35.355347 -224.362579 35.355633
v 94.773788 -118.112587 -165.484146
v -35.355347 -224.362579 -35.355061
v 165.484482 -118.112587 -94.773460
v 148.356384 -74.362579 -219.066727
v 219.067078 -74.362579 -148.356033
v 50.000011 -224.362579 0.000285
v 50.000011 -169.363525 -205.258926
v -50.000011 -224.362579 0.000285
v -50.000011 -169.363525 -205.258926
v 50.000011 -146.716858 -289.777435
v -50.000011 -146.716858 -289.777435
v 120.740723 -192.010193 50.000286
v 0.000000 -224.362579 -49.999714
v 0.000000 -224.362579 50.000286
v 120.740723 -192.010193 -49.999714
v 289.777740 -146.716858 50.000286
v 289.777740 -146.716858 -49.999714
v -50.000011 -224.362595 0.000285
v -50.000011 -40.332184 106.250282
v 50.000011 -224.362595 0.000285
v 50.000011 -40.332184 106.250282
v -50.000011 35.445038 150.000290
v 50.000011 35.445038 150.000290
v -165.484482 -118.112587 94.774086
v 35.355347 -224.362579 35.355633
v -35.355347 -224.362579 -35.355061
v -94.773788 -118.112587 165.484787
v -148.356384 -74.362579 219.067368
v -219.067078 -74.362579 148.356674
v -41.191216 -161.862579 -111.901573
v -35.355339 -224.362579 35.355633
v 35.355339 -224.362579 -35.355000
v -111.901894 -161.862579 -41.190876
v -219.067062 -74.362579 -148.356094
v -148.356384 -74.362579 -219.066727
v 50.000000 -116.109406 -62.499714
v -50.000000 -224.362595 0.000285
v 50.000000 -224.362595 0.000285
v -50.000000 -116.109406 -62.499714
v -49.999996 35.445038 -149.999710
v 50.000000 35.445038 -149.999710
vn 0.8660 0.5000 -0.0000
vn -0.8660 0.5000 -0.0000
vn -0.3536 0.8660 -0.3536
vn -0.0000 0.9659 -0.2588
vn 0.2588 0.9659 -0.0000
vn -0.3536 0.8660 0.3536
vn -0.0000 0.9659 0.2588
vn -0.2588 0.9659 -0.0000
vn -0.0000 0.5000 -0.8660
vn 0.3536 0.8660 -0.3536
vn 0.3536 0.8660 0.3536
vn -0.0000 0.5000 0.8660
vt 0.000031 0.708496
vt 0.000031 0.000000
vt 0.333252 0.000000
vt 0.333252 0.708496
vt 0.666504 0.416992
vt 0.333252 0.416992
vt 0.666504 0.000000
vt 0.666504 0.999969
vt 1.000000 0.000000
vt 1.000000 0.999969
vt 0.333252 0.999969
vt 0.000031 0.999969
s 1
usemtl MI_JunglePlant_Leaves
f 52/1/10 50/2/10 51/3/10 49/4/10
f 46/1/9 45/2/9 43/3/9 44/4/9
f 28/4/6 26/1/6 27/2/6 25/3/6
f 61/5/12 64/6/12 62/3/12 63/7/12
f 21/5/5 22/6/5 19/3/5 20/7/5
f 8/8/2 6/7/2 7/9/2 5/10/2
f 2/10/1 4/8/1 3/7/1 1/9/1
f 34/1/7 33/2/7 31/3/7 32/4/7
f 58/6/11 56/3/11 57/7/11 55/5/11
f 54/11/10 53/12/10 52/1/10 49/4/10
f 42/11/8 40/6/8 37/5/8 41/8/8
f 18/3/4 16/4/4 15/1/4 17/2/4
f 12/10/3 10/8/3 11/7/3 9/9/3
f 36/12/7 34/1/7 32/4/7 35/11/7
f 40/6/8 38/3/8 39/7/8 37/5/8
f 48/12/9 46/1/9 44/4/9 47/11/9
f 30/11/6 29/12/6 26/1/6 28/4/6
f 60/8/11 59/11/11 58/6/11 55/5/11
f 23/8/5 24/11/5 22/6/5 21/5/5
f 16/4/4 13/11/4 14/12/4 15/1/4
f 66/8/12 65/11/12 64/6/12 61/5/12
