# Blender 5.0.1
# www.blender.org
mtllib BP_Jungle_flower.mtl
o Large_Jungle_Plant_03.001
v -50.444244 -103.864891 143.433029
v -4.161691 -9.067021 -1.471494
v 6.488262 -11.029455 2.144565
v -61.094212 -101.902435 139.816956
v 6.074795 -1.556246 8.503454
v -50.444244 -103.864891 143.433029
v 6.488262 -11.029455 2.144565
v -50.857716 -94.391693 149.791946
v -4.575142 0.406202 4.887391
v -61.507660 -92.429237 146.175858
v -50.857716 -94.391693 149.791946
v 6.074795 -1.556246 8.503454
v -61.094212 -101.902435 139.816956
v -4.575142 0.406202 4.887391
v -4.161691 -9.067021 -1.471494
v -61.507660 -92.429237 146.175858
v -61.507660 -92.429237 146.175858
v -61.094212 -101.902435 139.816956
v -50.857716 -94.391693 149.791946
v -50.444244 -103.864891 143.433029
v -4.161691 -9.067021 -1.471494
v 6.074795 -1.556246 8.503454
v 6.488262 -11.029455 2.144565
v -4.575142 0.406202 4.887391
v -38.532322 2.486715 114.110558
v -4.598313 9.587804 3.327463
v -5.405044 3.212373 2.950518
v -37.725578 8.862154 114.487495
v 0.520742 2.323446 5.302915
v -32.606541 1.597785 116.462982
v -38.532322 2.486715 114.110558
v -5.405044 3.212373 2.950518
v 1.327481 8.698868 5.679852
v -31.799803 7.973215 116.839905
v -32.606541 1.597785 116.462982
v 0.520742 2.323446 5.302915
v -37.725578 8.862154 114.487495
v 1.327481 8.698868 5.679852
v -4.598313 9.587804 3.327463
v -31.799803 7.973215 116.839905
v -31.799803 7.973215 116.839905
v -38.532322 2.486715 114.110558
v -32.606541 1.597785 116.462982
v -37.725578 8.862154 114.487495
v -5.405044 3.212373 2.950518
v 1.327481 8.698868 5.679852
v 0.520742 2.323446 5.302915
v -4.598313 9.587804 3.327463
v 0.638066 13.371775 0.000002
v 61.631691 20.259886 151.030212
v 63.092480 10.483391 150.853394
v 2.098862 3.595302 -0.176807
v -8.101416 11.986188 4.409745
v 52.892220 18.874300 155.439987
v 61.631691 20.259886 151.030212
v 0.638066 13.371775 0.000002
v 54.352997 9.097820 155.263138
v -8.101416 11.986188 4.409745
v -6.640637 2.209726 4.232925
v 52.892220 18.874300 155.439987
v 63.092480 10.483391 150.853394
v -6.640637 2.209726 4.232925
v 2.098862 3.595302 -0.176807
v 54.352997 9.097820 155.263138
v 52.892220 18.874300 155.439987
v 54.352997 9.097820 155.263138
v 63.092480 10.483391 150.853394
v 61.631691 20.259886 151.030212
v 2.098862 3.595302 -0.176807
v -8.101416 11.986188 4.409745
v 0.638066 13.371775 0.000002
v -6.640637 2.209726 4.232925
v 19.023125 69.101929 117.388657
v 1.116246 16.462214 1.252394
v -3.398285 19.564266 0.360477
v 23.537663 65.999870 118.280563
v -6.250117 16.449060 3.960714
v 16.171295 65.986732 120.988892
v 19.023125 69.101929 117.388657
v -3.398285 19.564266 0.360477
v -1.735594 13.347004 4.852626
v 20.685825 62.884674 121.880806
v 16.171295 65.986732 120.988892
v -6.250117 16.449060 3.960714
v 23.537663 65.999870 118.280563
v -1.735594 13.347004 4.852626
v 1.116246 16.462214 1.252394
v 20.685825 62.884674 121.880806
v 20.685825 62.884674 121.880806
v 19.023125 69.101929 117.388657
v 16.171295 65.986732 120.988892
v 23.537663 65.999870 118.280563
v -3.398285 19.564266 0.360477
v -1.735594 13.347004 4.852626
v -6.250117 16.449060 3.960714
v 1.116246 16.462214 1.252394
v 16.035179 -5.687565 -1.975598
v 59.363636 -68.350441 127.310852
v 55.713486 -76.823181 123.530289
v 19.685322 2.785162 1.804952
v 11.352867 3.992139 7.145015
v 51.031189 -67.143486 132.650940
v 59.363636 -68.350441 127.310852
v 19.685322 2.785162 1.804952
v 7.702718 -4.480571 3.364463
v 47.381039 -75.616196 128.870361
v 51.031189 -67.143486 132.650940
v 11.352867 3.992139 7.145015
v 55.713486 -76.823181 123.530289
v 7.702718 -4.480571 3.364463
v 16.035179 -5.687565 -1.975598
v 47.381039 -75.616196 128.870361
v 55.713486 -76.823181 123.530289
v 59.363636 -68.350441 127.310852
v 51.031189 -67.143486 132.650940
v 47.381039 -75.616196 128.870361
v 11.352867 3.992139 7.145015
v 16.035179 -5.687565 -1.975598
v 7.702718 -4.480571 3.364463
v 19.685322 2.785162 1.804952
v -56.961750 25.079329 101.042183
v -20.102879 -20.105906 127.178940
v -20.102880 25.079330 127.178925
v -56.961750 -20.105906 101.042191
v -20.102880 47.680630 127.178917
v -18.311192 -42.707207 177.123932
v -18.311184 47.680641 177.123901
v -20.102875 -42.707211 127.178917
v -75.398277 25.079329 87.968788
v -24.633224 55.430801 172.640930
v -98.365158 55.430813 120.357391
v -1.666358 25.079323 140.252304
v -98.365143 -50.457382 120.357399
v -24.633215 -50.457382 172.640930
v -75.398277 -20.105906 87.968796
v -1.666359 -20.105904 140.252319
v -104.687180 47.680634 115.874435
v -56.961746 -42.707207 101.042183
v -56.961746 47.680630 101.042183
v -104.687180 -42.707214 115.874420
v -87.069099 -90.973984 142.742630
v -61.828236 -124.015648 125.055000
v -49.956059 -71.906723 160.085312
v -24.715191 -104.948364 142.397675
v 8.254199 -129.946564 178.406540
v -62.581367 -55.379528 168.932510
v -12.089920 -121.475540 133.550446
v -42.237247 -63.850502 213.788635
v -105.632774 -100.511284 134.067947
v -52.932182 -61.453621 213.847794
v -127.172501 -99.595490 179.155746
v -31.392445 -62.369423 168.759949
v -80.391884 -133.552948 116.380325
v -68.022430 -177.026138 137.706146
v 6.217909 -138.884262 172.398193
v -6.151562 -95.411072 151.072357
v -49.202953 -140.542831 116.207779
v -129.208801 -108.533234 173.147369
v -78.717354 -174.629227 137.765320
v -99.694397 -74.446793 151.589828
v -5.423768 -24.138695 218.562958
v -5.258576 -6.613779 0.908702
v 6.129494 -5.886015 1.270174
v -16.811865 -24.866463 218.201477
v -6.125907 -12.769284 217.793808
v 6.129494 -5.886015 1.270174
v 5.427347 5.483401 0.500982
v -5.423768 -24.138695 218.562958
v -5.960712 4.755640 0.139495
v -17.513985 -13.497058 217.432281
v -6.125907 -12.769284 217.793808
v 5.427347 5.483401 0.500982
v -5.258576 -6.613779 0.908702
v -16.811865 -24.866463 218.201477
v -17.513985 -13.497058 217.432281
v -5.960712 4.755640 0.139495
v -17.513985 -13.497058 217.432281
v -5.423768 -24.138695 218.562958
v -6.125907 -12.769284 217.793808
v -16.811865 -24.866463 218.201477
v 6.129494 -5.886015 1.270174
v -5.258576 -6.613779 0.908702
v -5.960712 4.755640 0.139495
v 5.427347 5.483401 0.500982
v -7.654464 75.165756 167.374695
v -66.474396 83.762711 143.928604
v -45.885735 51.080994 167.374695
v -28.243124 107.847458 143.928604
v -62.160664 34.513115 217.065369
v 11.468515 87.212761 167.374695
v -65.008705 39.033997 167.374695
v 14.316573 82.691879 217.065369
v -38.541409 124.194603 132.201050
v 17.342617 92.428452 213.043854
v -23.842628 157.804474 166.142670
v 2.643819 58.818619 179.102203
v -113.434692 101.363617 166.142670
v -35.587444 34.733864 179.102203
v -76.772682 100.109848 132.201050
v -72.249481 35.987648 213.043854
v -85.597374 71.715714 143.928604
v -33.931423 159.278976 162.121246
v -110.408661 111.100197 162.121246
v -9.120131 119.894447 143.928604
v 19.880756 -3.576754 238.602386
v -51.698872 -37.860153 202.356842
v 4.003505 -59.440418 217.780945
v -35.821613 18.003500 223.178268
v -63.683510 28.797771 215.463242
v 47.742630 -14.371025 246.317383
v -71.690582 53.291210 278.649139
v 39.735569 10.122399 309.503326
v -83.967896 47.410896 272.432312
v -59.640537 -65.802704 191.942123
v -27.879934 45.946049 233.592957
v -115.728531 -64.337914 230.781494
v 14.805821 -114.909546 266.926697
v 46.566422 -3.160782 308.577576
v -3.938161 -87.382965 207.366241
v 27.822437 24.365803 249.017059
v 31.865379 -70.234688 225.495941
v -79.560745 -27.065861 194.641800
v 2.528492 -120.789856 260.709869
v -108.897675 -77.621048 229.855743
v 49.298096 -96.229897 111.252258
v 55.337482 -50.057262 144.250519
v 23.952305 -70.235199 128.873352
v 80.683258 -76.051956 126.629402
v 49.662842 -144.311951 120.624474
v 112.445267 -103.948318 151.384720
v 33.599476 -106.322739 103.560715
v 96.381874 -65.959129 134.320938
v 113.481133 -96.028786 157.044586
v 42.659702 -37.054916 153.064438
v 93.361008 -89.054276 117.815483
v 62.779827 -44.029396 192.293533
v 61.975838 -109.232239 102.438324
v -10.768957 -91.314888 156.258331
v 39.932362 -143.314270 121.009354
v 11.274529 -57.232849 137.687286
v 8.253703 -80.328049 121.181824
v 71.036102 -39.964428 151.942032
v -9.733062 -83.395348 161.918167
v 53.049347 -43.031723 192.678391
v 83.771706 41.376183 141.117920
v 35.143963 41.376190 166.390472
v 35.143963 -13.426732 166.390472
v 83.771729 -13.426743 141.117935
v 83.771698 68.788162 141.117920
v 138.643066 -40.838715 166.872192
v 138.643066 68.788177 166.872192
v 83.771713 -40.838715 141.117920
v 130.302429 78.187958 171.206955
v 10.820749 41.376190 179.031601
v 108.094910 41.376167 128.476776
v 33.028214 78.187981 221.761810
v 108.094925 -13.426743 128.476776
v 33.028252 -50.238525 221.761749
v 130.302444 -50.238537 171.206940
v 10.820738 -13.426732 179.031601
v 35.143955 -40.838703 166.390472
v 24.687613 68.788155 226.096527
v 24.687616 -40.838737 226.096497
v 35.143967 68.788170 166.390457
v 0.376339 56.804001 129.849380
v 39.059227 78.555313 109.719589
v 5.169920 84.763306 110.288055
v 34.265648 50.596008 129.280945
v 41.456947 92.540344 99.935165
v 31.867958 36.610981 139.065369
v 67.722878 105.206154 124.475182
v 58.133873 49.276810 163.605362
v 62.732391 111.066544 121.217537
v -5.059249 123.484909 122.354660
v 56.010399 75.450134 109.435272
v -11.781248 87.868500 110.572372
v 51.216812 47.490814 128.996582
v -16.574831 59.909187 130.133713
v 51.499008 45.546001 167.058044
v -16.292664 57.964371 168.195175
v -21.283148 63.824753 164.937531
v 7.567645 98.748322 100.503624
v -11.694127 119.754112 125.807327
v -2.021374 42.818977 139.633804
v -32.871704 75.823479 159.557404
v -8.683889 1.250296 8.132358
v 0.106058 1.883192 9.482622
v -41.661674 75.190552 158.207153
v -32.624226 83.165176 154.505188
v 0.106058 1.883192 9.482622
v 0.353532 9.224901 4.430404
v -32.871704 75.823479 159.557404
v -8.436403 8.591990 3.080125
v -41.414177 82.532257 153.154922
v -32.624226 83.165176 154.505188
v 0.353532 9.224901 4.430404
v -8.683889 1.250296 8.132358
v -41.661674 75.190552 158.207153
v -41.414177 82.532257 153.154922
v -8.436403 8.591990 3.080125
v -41.414177 82.532257 153.154922
v -32.871704 75.823479 159.557404
v -32.624226 83.165176 154.505188
v -41.661674 75.190552 158.207153
v 0.106058 1.883192 9.482622
v -8.683889 1.250296 8.132358
v -8.436403 8.591990 3.080125
v 0.353532 9.224901 4.430404
v -63.946625 -114.539017 169.960052
v -60.484928 -119.070190 167.534500
v -58.856701 -111.924278 172.338440
v -55.394958 -116.455444 169.912872
v -43.312912 95.238380 189.141220
v -51.438747 96.426071 185.902191
v -48.594551 91.910973 189.141235
v -46.157158 99.753410 185.902115
v -35.353554 -35.378426 287.362549
v -45.315800 -40.149948 282.317993
v -37.563255 -43.153450 284.464600
v -43.106037 -32.374924 285.215790
v 85.470825 18.396610 213.394562
v 93.317192 9.553752 209.316635
v 93.317429 18.396877 209.316498
v 85.470512 9.553466 213.394699
v -5.758846 -15.856958 225.619354
v -37.563255 -43.153450 284.464600
v -10.261734 -31.700247 219.714264
v -35.353554 -35.378426 287.362549
v -35.353554 -35.378426 287.362549
v -21.556377 -9.736666 221.244965
v -43.106037 -32.374924 285.215790
v -5.758846 -15.856958 225.619354
v -43.106037 -32.374924 285.215790
v -21.556377 -9.736666 221.244965
v -45.315800 -40.149948 282.317993
v -26.059267 -25.579948 215.339874
v -10.261734 -31.700247 219.714264
v -37.563255 -43.153450 284.464600
v -26.059267 -25.579948 215.339874
v -45.315800 -40.149948 282.317993
v 93.317192 9.553752 209.316635
v 51.951683 5.515378 157.655258
v 66.963989 5.515376 149.853149
v 85.470512 9.553466 213.394699
v 93.317192 9.553752 209.316635
v 66.963982 22.434067 149.853149
v 93.317429 18.396877 209.316498
v 66.963989 5.515376 149.853149
v 51.951694 22.434072 157.655258
v 93.317429 18.396877 209.316498
v 66.963982 22.434067 149.853149
v 85.470825 18.396610 213.394562
v 85.470825 18.396610 213.394562
v 51.951683 5.515378 157.655258
v 85.470512 9.553466 213.394699
v 51.951694 22.434072 157.655258
v -60.484928 -119.070190 167.534500
v -49.220856 -99.456314 142.533249
v -55.394958 -116.455444 169.912872
v -57.162365 -103.536362 138.822235
v -54.621929 -92.386024 146.318069
v -58.856701 -111.924278 172.338440
v -49.220856 -99.456314 142.533249
v -55.394958 -116.455444 169.912872
v -58.856701 -111.924278 172.338440
v -54.621929 -92.386024 146.318069
v -63.946625 -114.539017 169.960052
v -62.563435 -96.466064 142.607056
v -57.162365 -103.536362 138.822235
v -63.946625 -114.539017 169.960052
v -62.563435 -96.466064 142.607056
v -60.484928 -119.070190 167.534500
v -38.815315 71.858376 157.255310
v -51.438747 96.426071 185.902191
v -43.859825 79.865860 151.510681
v -48.594551 91.910973 189.141235
v -29.448101 77.759483 157.255280
v -43.312912 95.238380 189.141220
v -38.815315 71.858376 157.255310
v -48.594551 91.910973 189.141235
v -46.157158 99.753410 185.902115
v -29.448101 77.759483 157.255280
v -34.492619 85.766968 151.510681
v -43.312912 95.238380 189.141220
v -46.157158 99.753410 185.902115
v -43.859825 79.865860 151.510681
v -51.438747 96.426071 185.902191
v -34.492619 85.766968 151.510681
v 26.708378 89.316727 147.359421
v 22.143093 86.762604 149.847061
v 26.166595 86.008820 149.712860
v 22.684769 90.070633 147.493698
v 26.708378 89.316727 147.359421
v 23.115101 64.322311 121.846313
v 24.160728 70.710129 117.301773
v 26.166595 86.008820 149.712860
v 26.708378 89.316727 147.359421
v 24.160728 70.710129 117.301773
v 22.684769 90.070633 147.493698
v 16.391335 72.166092 117.560646
v 15.345726 65.778267 122.105164
v 22.684769 90.070633 147.493698
v 16.391335 72.166092 117.560646
v 22.143093 86.762604 149.847061
v 22.143093 86.762604 149.847061
v 23.115101 64.322311 121.846313
v 26.166595 86.008820 149.712860
v 15.345726 65.778267 122.105164
v 52.142605 -90.222580 150.566055
v 52.756390 -85.351250 154.021118
v 49.463753 -87.530281 152.462067
v 55.435200 -88.043594 152.125198
v 53.037792 -66.855309 130.822540
v 52.756390 -85.351250 154.021118
v 57.221756 -71.059837 127.861771
v 55.435200 -88.043594 152.125198
v 47.895470 -70.258026 128.387894
v 52.756390 -85.351250 154.021118
v 53.037792 -66.855309 130.822540
v 49.463753 -87.530281 152.462067
v 52.142605 -90.222580 150.566055
v 47.895470 -70.258026 128.387894
v 52.079437 -74.462540 125.427101
v 49.463753 -87.530281 152.462067
v 52.142605 -90.222580 150.566055
v 57.221756 -71.059837 127.861771
v 55.435200 -88.043594 152.125198
v 52.079437 -74.462540 125.427101
v -61.051754 5.472800 151.224350
v -65.342957 0.204532 148.154877
v -61.055122 0.200939 151.221909
v -65.339592 5.476442 148.157379
v -61.055122 0.200939 151.221909
v -34.127903 7.669934 117.364365
v -61.051754 5.472800 151.224350
v -34.133625 -1.998872 117.360184
v -41.992035 7.677038 111.739380
v -61.051754 5.472800 151.224350
v -34.127903 7.669934 117.364365
v -65.339592 5.476442 148.157379
v -65.339592 5.476442 148.157379
v -41.992035 7.677038 111.739380
v -65.342957 0.204532 148.154877
v -41.997738 -1.991766 111.735184
v -34.133625 -1.998872 117.360184
v -65.342957 0.204532 148.154877
v -41.997738 -1.991766 111.735184
v -61.055122 0.200939 151.221909
vn 0.0287 -0.8407 -0.5408
vn 0.9472 -0.1491 0.2837
vn -0.0287 0.8407 0.5408
vn -0.9472 0.1491 -0.2837
vn -0.3585 -0.5310 0.7678
vn 0.3585 0.5310 -0.7678
vn -0.9496 0.1368 -0.2821
vn -0.1306 -0.9904 -0.0454
vn 0.9496 -0.1368 0.2821
vn 0.1306 0.9904 0.0454
vn -0.3700 -0.0081 0.9290
vn 0.3700 0.0081 -0.9290
vn 0.9153 0.1436 -0.3762
vn -0.1491 0.9887 0.0151
vn -0.9153 -0.1436 0.3762
vn 0.1491 -0.9887 -0.0151
vn 0.4436 0.0501 0.8948
vn -0.4436 -0.0501 -0.8948
vn 0.5701 0.7117 -0.4105
vn -0.7905 0.6035 -0.1040
vn -0.5701 -0.7117 0.4105
vn 0.7905 -0.6035 0.1040
vn 0.2724 0.6103 0.7439
vn -0.2724 -0.6103 -0.7439
vn 0.8932 -0.2066 -0.3995
vn 0.3615 0.8556 0.3706
vn -0.8932 0.2066 0.3995
vn -0.3615 -0.8556 -0.3706
vn 0.4093 -0.5130 0.7545
vn -0.4093 0.5130 -0.7545
vn -0.5784 -0.0000 0.8157
vn -0.9994 -0.0000 0.0359
vn -0.3513 -0.7945 0.4954
vn -0.3513 0.7945 0.4954
vn 0.2968 -0.0000 0.9549
vn -0.1155 -0.5359 0.8363
vn -0.7227 -0.6607 0.2030
vn 0.3737 -0.9064 0.1969
vn -0.5139 0.2555 0.8189
vn 0.5824 0.0098 0.8128
vn 0.0661 -0.9946 -0.0800
vn 0.9961 0.0655 0.0585
vn -0.0661 0.9946 0.0800
vn -0.9961 -0.0655 -0.0585
vn -0.0358 0.0653 0.9972
vn 0.0358 -0.0653 -0.9972
vn -0.2766 0.4390 0.8548
vn -0.5300 0.8413 0.1069
vn -0.8402 -0.1568 0.5192
vn 0.5042 0.6901 0.5192
vn 0.1940 -0.3080 0.9314
vn -0.3444 -0.2404 0.9075
vn -0.4136 -0.8653 0.2830
vn 0.5081 -0.4239 0.7498
vn -0.9265 0.1319 0.3525
vn -0.0047 0.5734 0.8193
vn -0.0271 -0.5789 0.8150
vn -0.5154 0.1602 0.8418
vn -0.6343 -0.7488 0.1922
vn 0.6014 0.0457 0.7977
vn 0.4825 -0.8633 0.1480
vn 0.4612 -0.0000 0.8873
vn -0.4249 -0.0000 0.9052
vn 0.2801 -0.7945 0.5389
vn 0.2801 0.7945 0.5389
vn 0.9850 -0.0000 0.1725
vn 0.1157 0.5560 0.8231
vn -0.7111 0.4808 0.5130
vn -0.0403 -0.3070 0.9509
vn 0.1808 0.9823 0.0489
vn 0.8516 0.1945 0.4868
vn -0.0032 -0.8973 0.4414
vn 0.9811 0.0861 0.1732
vn 0.0032 0.8973 -0.4414
vn -0.9811 -0.0861 -0.1732
vn -0.1649 0.5629 0.8099
vn 0.1649 -0.5629 -0.8099
vn 0.8795 -0.3642 0.3064
vn 0.2352 0.8886 0.3937
vn -0.9227 0.3340 -0.1926
vn -0.2784 -0.9188 -0.2799
vn 0.0286 -0.9981 0.0551
vn 0.9142 -0.0000 -0.4052
vn 0.0286 0.9981 0.0551
vn -0.8570 -0.0000 0.5153
vn 0.5517 -0.7586 -0.3466
vn 0.8141 0.3930 0.4276
vn -0.5639 0.7018 0.4352
vn -0.8263 -0.4498 -0.3390
vn -0.8617 -0.5047 0.0531
vn 0.4376 -0.6946 0.5710
vn 0.8273 0.5593 0.0531
vn -0.4720 0.7492 -0.4647
vn 0.1322 0.5601 0.8178
vn 0.9881 -0.1537 0.0114
vn 0.1391 0.8367 -0.5297
vn -0.9738 0.2140 0.0767
vn -0.1249 -0.7763 0.6178
vn -0.0037 -0.5782 0.8159
vn 0.7749 0.4896 0.3998
vn -0.6308 0.6104 0.4791
vn -0.7752 -0.5361 -0.3341
vn 0.6305 -0.6569 -0.4134
vn -0.5818 -0.0000 0.8134
vn 0.7827 -0.0008 0.6224
vn -0.0290 0.9987 0.0418
vn -0.8419 0.0008 -0.5397
vn -0.0301 -0.9987 0.0409
vt 0.858887 0.004395
vt 0.858887 0.081055
vt 0.006535 0.081055
vt 0.006535 0.004395
vt 0.919434 0.346680
vt 0.894531 0.347168
vt 0.879883 0.172363
vt 0.925293 0.171387
vt 0.046753 0.004883
vt 0.046753 0.045898
vt 0.006527 0.045898
vt 0.006527 0.004883
vt 0.819336 0.004883
vt 0.858887 0.004883
vt 0.858887 0.044922
vt 0.819336 0.044922
vt 0.001953 0.104004
vt 0.395508 0.104004
vt 0.395508 0.290527
vt 0.001953 0.290527
vt 0.000977 0.749023
vt 0.000977 0.563477
vt 0.395508 0.563477
vt 0.395508 0.749023
vt 0.995117 0.604492
vt 0.995117 0.790039
vt 0.792969 0.790039
vt 0.792969 0.604492
vt 0.791992 0.563477
vt 0.791992 0.749023
vt 0.397461 0.749023
vt 0.397461 0.563477
vt 0.397461 0.290527
vt 0.397461 0.104004
vt 0.791992 0.104004
vt 0.791992 0.290527
vt 0.000977 0.770508
vt 0.395508 0.770508
vt 0.395508 0.977539
vt 0.000977 0.977539
vt 0.791992 0.770508
vt 0.791992 0.977539
vt 0.397461 0.977539
vt 0.397461 0.770508
vt 0.397461 0.312988
vt 0.791992 0.312988
vt 0.791992 0.519775
vt 0.397461 0.519775
vt 0.792969 0.791992
vt 0.995117 0.791992
vt 0.995117 0.996262
vt 0.792969 0.996262
vt 0.000977 0.312988
vt 0.395508 0.312988
vt 0.395508 0.519775
vt 0.000977 0.519775
vt 0.916504 0.318848
vt 0.896484 0.319336
vt 0.887695 0.199707
vt 0.918945 0.199219
vt 0.920410 0.369141
vt 0.919434 0.397461
vt 0.896484 0.395996
vt 0.897949 0.367676
vt 0.916016 0.390625
vt 0.901855 0.391602
vt 0.901367 0.374023
vt 0.915039 0.373047
vt 0.896484 0.398438
vt 0.895996 0.369141
vt 0.919434 0.368652
vt 0.919922 0.397949
vt 0.900879 0.393066
vt 0.899902 0.372559
vt 0.916504 0.371582
vt 0.916992 0.392090
vt 0.919922 0.354492
vt 0.893066 0.354980
vt 0.874023 0.164551
vt 0.928711 0.163574
vt 0.882324 0.172852
vt 0.918457 0.170410
vt 0.917480 0.347168
vt 0.898438 0.348145
vt 0.892578 0.347168
vt 0.875000 0.172363
vt 0.928223 0.171387
vt 0.920410 0.346191
vt 0.875488 0.172363
vt 0.921387 0.337402
vt 0.892090 0.338379
vt 0.876465 0.181641
vt 0.928711 0.180176
vt 0.921387 0.325195
vt 0.892090 0.325684
vt 0.880371 0.193848
vt 0.925781 0.192871
vt 0.916504 0.330566
vt 0.896973 0.331055
vt 0.884277 0.188477
vt 0.921387 0.187500
vt 0.902832 0.375977
vt 0.914062 0.375000
vt 0.914551 0.389160
vt 0.903320 0.389648
vt 0.912109 0.353027
vt 0.893066 0.353027
vt 0.884766 0.176758
vt 0.920898 0.176758
vt 0.914062 0.388672
vt 0.913574 0.375488
s 1
usemtl MI_jungle_plant_plantflower
f 12/1/3 9/2/3 10/3/3 11/4/3
f 171/4/43 172/1/43 169/2/43 170/3/43
f 440/5/106 438/6/106 439/7/106 437/8/106
f 8/3/2 6/4/2 7/1/2 5/2/2
f 115/9/29 116/10/29 113/11/29 114/12/29
f 308/13/77 305/14/77 306/15/77 307/16/77
f 16/4/4 14/1/4 15/2/4 13/3/4
f 28/4/7 26/1/7 27/2/7 25/3/7
f 31/4/8 32/1/8 29/2/8 30/3/8
f 20/12/5 19/9/5 17/10/5 18/11/5
f 92/11/23 90/12/23 91/9/23 89/10/23
f 60/4/15 58/1/15 59/2/15 57/3/15
f 40/4/10 38/1/10 39/2/10 37/3/10
f 100/2/25 98/3/25 99/4/25 97/1/25
f 55/4/14 56/1/14 53/2/14 54/3/14
f 180/11/45 178/12/45 179/9/45 177/10/45
f 48/15/12 46/16/12 47/13/12 45/14/12
f 83/4/21 84/1/21 81/2/21 82/3/21
f 79/4/20 77/2/20 78/3/20
f 77/2/20 79/4/20 80/1/20
f 64/4/16 62/1/16 63/2/16 61/3/16
f 87/2/22 85/3/22 86/1/22
f 88/4/22 86/1/22 85/3/22
f 44/11/11 42/12/11 43/9/11 41/10/11
f 24/16/6 22/13/6 23/14/6 21/15/6
f 108/1/27 105/2/27 106/3/27 107/4/27
f 103/4/26 101/2/26 102/3/26
f 101/2/26 103/4/26 104/1/26
f 35/4/9 36/1/9 33/2/9 34/3/9
f 111/2/28 109/3/28 110/1/28
f 112/4/28 110/1/28 109/3/28
f 68/12/17 65/9/17 66/10/17 67/11/17
f 96/15/24 94/16/24 95/13/24 93/14/24
f 136/17/34 135/18/34 133/19/34 134/20/34
f 192/21/48 190/22/48 191/23/48 189/24/48
f 208/25/52 206/26/52 207/27/52 205/28/52
f 252/23/63 250/24/63 251/21/63 249/22/63
f 128/23/32 126/24/32 127/21/32 125/22/32
f 200/20/50 198/17/50 199/18/50 197/19/50
f 196/29/49 194/30/49 195/31/49 193/32/49
f 210/23/53 212/24/53 211/21/53 209/22/53
f 140/33/35 138/34/35 139/35/35 137/36/35
f 232/37/58 231/38/58 229/39/58 230/40/58
f 288/4/72 286/1/72 287/2/72 285/3/72
f 167/2/42 165/3/42 166/1/42
f 168/4/42 166/1/42 165/3/42
f 295/4/74 296/1/74 293/2/74 294/3/74
f 175/4/44 173/2/44 174/3/44
f 173/2/44 175/4/44 176/1/44
f 304/11/76 302/12/76 303/9/76 301/10/76
f 120/14/30 118/15/30 119/16/30 117/13/30
f 260/18/65 258/19/65 259/20/65 257/17/65
f 152/41/38 150/42/38 151/43/38 149/44/38
f 248/28/62 245/25/62 246/26/62 247/27/62
f 188/26/47 186/27/47 187/28/47 185/25/47
f 184/13/46 181/14/46 182/15/46 183/16/46
f 274/43/69 276/44/69 275/41/69 273/42/69
f 264/35/66 262/36/66 263/33/66 261/34/66
f 204/35/51 202/36/51 203/33/51 201/34/51
f 284/45/71 282/46/71 283/47/71 281/48/71
f 268/49/67 266/50/67 267/51/67 265/52/67
f 236/43/59 234/44/59 235/41/59 233/42/59
f 256/31/64 254/32/64 255/29/64 253/30/64
f 218/20/55 220/17/55 219/18/55 217/19/55
f 132/29/33 130/30/33 131/31/33 129/32/33
f 124/27/31 122/28/31 123/25/31 121/26/31
f 228/50/57 226/51/57 227/52/57 225/49/57
f 156/53/39 153/54/39 154/55/39 155/56/39
f 216/31/54 214/32/54 215/29/54 213/30/54
f 278/54/70 280/55/70 279/56/70 277/53/70
f 272/39/68 271/40/68 269/37/68 270/38/68
f 148/40/37 146/37/37 147/38/37 145/39/37
f 240/54/60 238/55/60 239/56/60 237/53/60
f 142/52/36 144/49/36 143/50/36 141/51/36
f 224/36/56 223/33/56 221/34/56 222/35/56
f 160/46/40 158/47/40 159/48/40 157/45/40
f 420/57/101 418/58/101 419/59/101 417/60/101
f 291/2/73 289/3/73 290/1/73
f 292/4/73 290/1/73 289/3/73
f 164/4/41 162/1/41 163/2/41 161/3/41
f 299/4/75 297/2/75 298/3/75
f 297/2/75 299/4/75 300/1/75
f 320/61/52 318/62/52 319/63/52 317/64/52
f 72/16/18 70/13/18 71/14/18 69/15/18
f 432/65/104 430/66/104 431/67/104 429/68/104
f 324/69/62 322/70/62 323/71/62 321/72/62
f 316/73/47 314/74/47 315/75/47 313/76/47
f 310/74/36 312/75/36 311/76/36 309/73/36
f 76/4/19 74/1/19 75/2/19 73/3/19
f 338/77/81 340/78/81 339/79/81 337/80/81
f 328/77/78 326/78/78 327/79/78 325/80/78
f 336/80/80 335/77/80 333/78/80 334/79/80
f 356/81/85 354/82/85 355/83/85 353/84/85
f 344/85/82 342/86/82 343/87/82 341/88/82
f 348/89/83 346/87/83 347/88/83 345/85/83
f 378/90/91 380/91/91 379/92/91 377/93/91
f 372/94/89 370/95/89 371/96/89 369/97/89
f 404/98/97 402/99/97 403/100/97 401/101/97
f 360/96/86 358/97/86 359/94/86 357/95/86
f 362/94/87 364/95/87 363/96/87 361/97/87
f 332/79/79 330/80/79 331/77/79 329/78/79
f 384/91/92 382/92/92 383/93/92 381/90/92
f 388/92/93 386/93/93 387/90/93 385/91/93
f 376/90/90 374/91/90 375/92/90 373/93/90
f 412/102/99 410/103/99 411/104/99 409/105/99
f 352/106/84 350/107/84 351/108/84 349/109/84
f 408/100/98 406/101/98 407/98/98 405/99/98
f 398/100/96 400/101/96 399/98/96 397/99/96
f 396/99/95 394/100/95 395/101/95 393/98/95
f 51/4/13 52/1/13 49/2/13 50/3/13
f 4/4/1 2/1/1 3/2/1 1/3/1
f 428/59/103 426/60/103 427/57/103 425/58/103
f 414/57/100 416/58/100 415/59/100 413/60/100
f 424/58/102 422/59/102 423/60/102 421/57/102
f 392/110/94 390/105/94 391/102/94 389/111/94
f 442/7/107 444/8/107 443/5/107 441/6/107
f 448/5/108 446/6/108 447/7/108 445/8/108
f 368/97/88 367/94/88 365/95/88 366/96/88
f 436/7/105 434/8/105 435/5/105 433/6/105
f 244/47/61 243/48/61 241/45/61 242/46/61
