# Blender 5.0.1
# www.blender.org
mtllib BP_KitchenGateHH.mtl
o SM_VillagerStatue_Broken.001
v -37.500000 112.500000 18.750000
v -37.500000 0.000000 18.750000
v 0.000000 112.500000 18.750000
v 0.000000 0.000000 18.750000
v -37.500000 112.500000 -18.750000
v 0.000000 0.000000 -18.750000
v -37.500000 0.000000 -18.750000
v 0.000000 112.500000 -18.750000
v 0.000000 0.000000 -18.750000
v 0.000000 112.500000 -18.750000
v 0.000000 0.000000 18.750000
v 0.000000 112.500000 18.750000
v -37.500000 112.500000 18.750000
v -37.500000 0.000000 -18.750000
v -37.500000 0.000000 18.750000
v -37.500000 112.500000 -18.750000
v -37.500000 169.268188 64.774742
v -75.000000 169.268188 64.774742
v -75.000000 142.751678 38.258270
v -37.500000 142.751678 38.258270
v -37.500000 195.784683 -14.774742
v -75.000000 195.784683 -14.774742
v -75.000000 222.301193 11.741760
v -37.500000 222.301193 11.741760
v 0.000000 142.751678 38.258270
v -37.500000 142.751678 38.258270
v -37.500000 156.009949 24.999985
v 0.000000 156.009949 24.999985
v 37.500000 195.784683 38.258270
v 37.500000 169.268188 38.258247
v 37.500000 182.526443 25.000000
v 37.500000 182.526443 51.516510
v 0.000000 156.009918 51.516518
v -37.500000 156.009918 51.516518
v 0.000000 142.751678 38.258270
v 0.000000 143.750000 0.000001
v 37.500000 143.750000 0.000004
v 37.500000 143.750000 -31.250000
v 0.000000 143.750000 -31.250000
v 18.750000 181.250000 25.000000
v 18.750000 225.000000 0.000007
v 18.750000 225.000000 25.000000
v 18.750000 181.250000 0.000005
v 18.750000 181.250000 25.000000
v 0.000000 181.250000 25.000000
v 18.750000 181.250000 0.000005
v 0.000000 181.250000 0.000003
v 0.000000 181.250000 0.000003
v 0.000000 225.000000 0.000006
v 18.750000 181.250000 0.000005
v 18.750000 225.000000 0.000007
v 0.000000 169.268188 38.258247
v 37.500000 182.526443 25.000000
v 37.500000 169.268188 38.258247
v 0.000000 182.526443 25.000000
v 0.000000 169.268188 38.258247
v -37.500000 156.009918 51.516518
v 0.000000 156.009918 51.516518
v -37.500000 169.268188 38.258247
v 0.000000 143.750000 0.000001
v 0.000000 118.750000 0.000002
v 37.500000 143.750000 0.000004
v 37.500000 118.750000 0.000003
v 37.500000 118.750000 25.000000
v 37.500000 118.750000 0.000003
v 0.000000 118.750000 25.000000
v 0.000000 118.750000 0.000002
v 0.000000 25.000000 18.750000
v 37.500000 112.500000 18.750000
v 37.500000 25.000000 18.750000
v 0.000000 25.000000 18.750000
v 0.000000 112.500000 18.750000
v 0.000000 112.500000 -18.750000
v 0.000000 25.000000 -18.750000
v 37.500000 25.000000 -18.750000
v 0.000000 25.000000 -18.750000
v 37.500000 112.500000 -18.750000
v 37.500000 112.500000 18.750000
v 37.500000 25.000000 18.750000
v 37.500000 25.000000 -18.750000
v 37.500000 112.500000 -18.750000
v 0.000000 25.000000 18.750000
v 0.000000 25.000000 -18.750000
v 37.500000 25.000000 18.750000
v 37.500000 25.000000 -18.750000
v -37.500000 222.301193 11.741760
v -75.000000 222.301193 11.741760
v -75.000000 195.784698 38.258251
v -37.500000 195.784698 38.258251
v -75.000000 169.268188 64.774742
v -37.500000 169.268188 64.774742
v -75.000000 169.268188 11.741764
v -75.000000 142.751678 38.258270
v -37.500000 169.268188 11.741764
v -75.000000 195.784683 -14.774742
v -37.500000 195.784683 -14.774742
v -37.500000 169.268188 11.741764
v -37.500000 169.268188 64.774742
v -37.500000 142.751678 38.258270
v -37.500000 195.784698 38.258251
v -37.500000 195.784683 -14.774742
v -37.500000 222.301193 11.741760
v -75.000000 169.268188 64.774742
v -75.000000 169.268188 11.741764
v -75.000000 142.751678 38.258270
v -75.000000 195.784698 38.258251
v -75.000000 195.784683 -14.774742
v -75.000000 222.301193 11.741760
v -37.500000 225.000000 0.000003
v 0.000000 225.000000 -31.250000
v -37.500000 225.000000 -31.250000
v 0.000000 225.000000 0.000006
v -37.500000 225.000000 25.000000
v 0.000000 225.000000 25.000000
v 18.750000 225.000000 0.000007
v 18.750000 225.000000 25.000000
v 0.000000 182.526443 25.000000
v 0.000000 156.009949 24.999985
v 0.005968 169.268188 11.741730
v 0.000000 169.268188 38.258247
v 0.000000 142.751678 38.258270
v 0.000000 156.009918 51.516518
v 0.000000 182.526443 51.516510
v 37.500000 169.268188 38.258247
v 37.500000 182.526443 51.516510
v 0.000000 169.268188 38.258247
v -37.500000 182.526443 51.516510
v -37.500000 169.268188 38.258247
v 0.000000 225.000000 -31.250000
v -37.500000 181.250000 -31.250000
v -37.500000 225.000000 -31.250000
v 0.000000 181.250000 -31.250000
v 0.000000 143.750000 -31.250000
v -37.500000 143.750000 -31.250000
v 37.500000 118.750000 -31.250000
v 37.500000 143.750000 -31.250000
v 0.000000 118.750000 -31.250000
v -37.500000 118.750000 -31.250000
v 37.500000 100.000000 -31.250000
v 0.000000 100.000000 -31.250000
v -37.500000 100.000000 -31.250000
v 0.000000 56.250000 -31.250000
v 37.500000 56.250000 -31.250000
v -37.500000 56.250000 -31.250000
v -37.500000 195.784683 38.258270
v 0.000000 182.526443 25.000000
v -37.500000 182.526443 25.000000
v 0.000000 195.784683 38.258270
v 37.500000 195.784683 38.258270
v 37.500000 182.526443 25.000000
v 0.000000 195.784683 38.258270
v -37.500000 195.784683 38.258270
v -37.500000 182.526443 51.516510
v 0.000000 182.526443 51.516510
v 37.500000 182.526443 51.516510
v 37.500000 195.784683 38.258270
v 0.000000 118.750000 0.000002
v 0.000000 143.750000 25.000000
v 0.000000 118.750000 25.000000
v 0.000000 143.750000 0.000001
v 0.000000 181.250000 -31.250000
v 0.000000 143.750000 -31.250000
v 0.000000 181.250000 0.000003
v 0.000000 181.250000 25.000000
v 0.000000 225.000000 -31.250000
v 0.000000 225.000000 0.000006
v 37.500000 56.250000 -0.000001
v 37.500000 56.250000 -31.250000
v 37.500000 100.000000 -31.250000
v 37.500000 100.000000 0.000001
v 37.500000 56.250000 25.000000
v 37.500000 118.750000 -31.250000
v 37.500000 100.000000 25.000000
v 37.500000 118.750000 0.000003
v 37.500000 118.750000 25.000000
v 37.500000 143.750000 -31.250000
v 37.500000 143.750000 0.000004
v 0.000000 56.250000 -31.250000
v -37.500000 56.250000 -0.000007
v -37.500000 56.250000 -31.250000
v 0.000000 56.250000 -0.000004
v -37.500000 56.250000 25.000000
v 37.500000 56.250000 -31.250000
v 0.000000 56.250000 25.000000
v 37.500000 56.250000 -0.000001
v 37.500000 56.250000 25.000000
v -37.500000 56.250000 -0.000007
v -37.500000 100.000000 -31.250000
v -37.500000 56.250000 -31.250000
v -37.500000 100.000000 -0.000005
v -37.500000 56.250000 25.000000
v -37.500000 118.750000 -31.250000
v -37.500000 100.000000 25.000000
v -37.500000 118.750000 -0.000004
v -37.500000 143.750000 -31.250000
v -37.500000 118.750000 25.000000
v -37.500000 143.750000 -0.000002
v -37.500000 181.250000 -31.250000
v -37.500000 143.750000 25.000000
v -37.500000 181.250000 0.000000
v -37.500000 225.000000 -31.250000
v -37.500000 181.250000 25.000000
v -37.500000 225.000000 0.000003
v -37.500000 225.000000 25.000000
v 0.000000 225.000000 25.000000
v -37.500000 225.000000 25.000000
v -37.500000 181.250000 25.000000
v 0.000000 181.250000 25.000000
v 18.750000 225.000000 25.000000
v 18.750000 181.250000 25.000000
v -37.500000 143.750000 25.000000
v 0.000000 143.750000 25.000000
v -37.500000 118.750000 25.000000
v 0.000000 118.750000 25.000000
v -37.500000 100.000000 25.000000
v 0.000000 100.000000 25.000000
v 37.500000 118.750000 25.000000
v -37.500000 56.250000 25.000000
v 37.500000 100.000000 25.000000
v 0.000000 56.250000 25.000000
v 37.500000 56.250000 25.000000
vn -0.0000 -0.0000 1.0000
vn -0.0000 -0.0000 -1.0000
vn 1.0000 -0.0000 -0.0000
vn -1.0000 -0.0000 -0.0000
vn -0.0000 -0.7071 0.7071
vn -0.0000 0.7071 -0.7071
vn -0.0000 -0.7071 -0.7071
vn -0.0000 1.0000 -0.0000
vn -0.0000 -1.0000 -0.0000
vn -0.0000 0.7071 0.7071
vn 1.0000 -0.0000 0.0002
vn 1.0000 -0.0000 0.0001
vt 0.796875 0.141113
vt 0.796875 0.250488
vt 0.703125 0.250000
vt 0.703125 0.141113
vt 0.000031 0.406250
vt 0.000031 0.125000
vt 0.093750 0.125000
vt 0.093750 0.406250
vt 0.796875 0.453125
vt 0.796875 0.562500
vt 0.703125 0.562500
vt 0.703125 0.453125
vt 0.640625 0.250000
vt 0.640625 0.140625
vt 0.609375 0.859375
vt 0.609375 0.765625
vt 0.656250 0.765625
vt 0.656250 0.859375
vt 0.187500 0.906250
vt 0.093750 0.906250
vt 0.093750 0.812500
vt 0.187500 0.812500
vt 0.468750 0.453125
vt 0.562500 0.453125
vt 0.562500 0.562500
vt 0.468750 0.562500
vt 0.281250 0.812500
vt 0.281250 0.718750
vt 0.375000 0.718750
vt 0.375000 0.812500
vt 0.187500 0.625000
vt 0.187500 0.406250
vt 0.281250 0.406250
vt 0.281250 0.625000
vt 0.843750 0.734375
vt 0.843750 0.625000
vt 0.906250 0.625000
vt 0.906250 0.734375
vt 0.515625 0.953125
vt 0.468750 0.953125
vt 0.468750 0.859375
vt 0.515625 0.859375
vt 0.921875 0.937500
vt 0.859375 0.937500
vt 0.859375 0.890625
vt 0.921875 0.890625
vt 0.640625 0.296875
vt 0.562500 0.296875
vt 0.562500 0.250000
vt 0.796875 0.359375
vt 0.703125 0.359375
vt 0.640625 0.359375
vt 0.562500 0.359375
vt 0.703125 0.625000
vt 0.796875 0.625000
vt 0.796875 0.703125
vt 0.703125 0.703125
vt 0.562500 0.953125
vt 0.562500 0.859375
vt 0.609375 0.953125
vt 0.093750 0.625000
vt 0.000031 0.625000
vt 0.703125 0.859375
vt 0.750000 0.859375
vt 0.750000 0.953125
vt 0.703125 0.953125
vt 0.640625 0.562500
vt 0.640625 0.453125
vt 0.468750 0.500000
vt 0.375000 0.562500
vt 0.375000 0.500000
vt 0.890625 0.078613
vt 0.796875 0.078613
vt 0.796875 0.000488
vt 0.890625 0.000000
vt 0.468750 0.250000
vt 0.468750 0.296875
vt 0.187500 0.718750
vt 0.093750 0.718750
vt 0.515625 0.765625
vt 0.515625 0.718750
vt 0.562500 0.718750
vt 0.562500 0.765625
vt 0.750000 0.812500
vt 0.703125 0.812500
vt 0.281250 0.906250
vt 0.375000 0.906250
vt 0.187500 0.125000
vt 0.843750 0.562500
vt 0.421875 0.953125
vt 0.421875 0.859375
vt 0.656250 0.812500
vt 0.796875 0.734375
vt 0.375000 0.859375
vt 0.375000 0.953125
vt 0.375000 0.140625
vt 0.468750 0.140625
vt 0.375000 0.250000
vt 0.468750 0.359375
vt 1.000000 0.999969
vt 0.921875 0.999969
vt 1.000000 0.937500
vt 0.375000 0.625000
vt 0.375000 0.406250
vt 0.859375 0.359863
vt 0.796875 0.296875
vt 0.859375 0.297363
vt 0.375000 0.296875
vt 0.375000 0.359375
vt 0.468750 0.437500
vt 0.375000 0.437500
vt 0.859375 0.453613
vt 0.937500 0.359863
vt 0.937500 0.453613
vt 0.703125 0.078613
vt 0.703125 0.000000
vt 0.000031 0.812500
vt 0.000031 0.718750
vt 0.906250 0.781250
vt 0.843750 0.781250
vt 0.281250 0.999969
vt 0.187500 0.999969
vt 1.000000 0.890625
vt 0.921875 0.781250
vt 1.000000 0.781250
vt 0.859375 0.562500
vt 0.937500 0.562500
vt 0.859375 0.781250
vt 0.703125 0.296875
vt 0.281250 0.125000
vt 0.375000 0.125000
vt 0.562500 0.140625
vt 0.890625 0.141113
vt 0.000031 0.906250
vt 0.468750 0.765625
vt 0.843750 0.453613
vt 0.890625 0.250488
vt 0.890625 0.297363
s 1
usemtl MI_VillagerBroken
f 220/1/1 216/2/1 215/3/1 218/4/1
f 16/5/4 14/6/4 15/7/4 13/8/4
f 208/9/1 205/10/1 206/11/1 207/12/1
f 191/4/4 193/3/4 190/13/4 187/14/4
f 55/15/7 53/16/7 54/17/7 52/18/7
f 108/19/4 107/20/4 104/21/4 106/22/4
f 132/23/2 130/24/2 131/25/2 129/26/2
f 100/27/3 98/28/3 99/29/3 97/30/3
f 70/31/1 69/32/1 3/33/1 68/34/1
f 43/35/3 41/36/3 42/37/3 40/38/3
f 127/39/5 128/40/5 126/41/5 123/42/5
f 174/43/3 175/44/3 173/45/3 170/46/3
f 194/47/4 192/48/4 188/49/4 190/13/4
f 212/50/1 208/9/1 207/12/1 211/51/1
f 197/52/4 195/53/4 192/48/4 194/47/4
f 109/54/8 112/55/8 110/56/8 111/57/8
f 145/58/6 148/59/6 146/15/6 147/60/6
f 81/8/3 78/32/3 79/31/3 80/61/3
f 77/8/2 75/61/2 76/62/2 8/5/2
f 28/63/7 25/64/7 26/65/7 27/66/7
f 202/12/4 204/11/4 203/67/4 200/68/4
f 67/69/8 66/26/8 64/70/8 65/71/8
f 200/68/4 198/24/4 195/53/4 197/52/4
f 185/72/9 181/73/9 178/74/9 183/75/9
f 140/76/2 141/49/2 138/48/2 137/77/2
f 20/34/5 17/28/5 18/78/5 19/31/5
f 106/22/4 104/21/4 105/79/4 103/78/4
f 32/80/3 30/81/3 31/82/3 29/83/3
f 122/84/3 121/64/3 118/63/12 120/85/12
f 102/86/3 100/27/3 97/30/3 101/87/3
f 4/88/1 3/32/1 1/8/1 2/7/1
f 114/10/8 116/89/8 115/36/8 112/55/8
f 59/40/10 57/90/10 58/91/10 56/41/10
f 120/85/12 118/63/12 119/18/11 117/92/11
f 89/27/10 86/86/10 87/19/10 88/22/10
f 51/36/2 50/35/2 48/93/2 49/55/2
f 35/94/5 33/91/5 34/90/5 20/95/5
f 143/96/2 142/97/2 140/76/2 139/98/2
f 133/99/2 134/53/2 130/24/2 132/23/2
f 176/100/3 177/101/3 174/43/3 172/102/3
f 74/103/4 71/34/4 72/33/4 73/104/4
f 160/105/3 158/50/3 159/106/3 157/107/3
f 137/77/2 138/48/2 134/53/2 133/99/2
f 135/108/2 137/77/2 133/99/2 136/109/2
f 39/99/8 36/110/8 37/111/8 38/109/8
f 91/28/10 89/27/10 88/22/10 90/78/10
f 163/112/3 160/105/3 162/113/3 161/114/3
f 150/16/6 146/15/6 148/59/6 149/83/6
f 155/80/10 156/83/10 151/59/10 154/42/10
f 184/1/9 182/4/9 179/115/9 181/73/9
f 154/42/10 151/59/10 152/58/10 153/39/10
f 181/73/9 179/115/9 180/116/9 178/74/9
f 94/117/7 26/118/7 93/79/7 92/21/7
f 45/119/9 47/120/9 46/35/9 44/38/9
f 24/86/6 21/121/6 22/122/6 23/19/6
f 172/102/3 174/43/3 170/46/3 169/123/3
f 169/123/3 170/46/3 167/124/3 168/125/3
f 199/51/4 202/12/4 200/68/4 197/52/4
f 166/126/3 163/112/3 161/114/3 165/127/3
f 164/9/3 158/50/3 160/105/3 163/112/3
f 170/46/3 173/45/3 171/128/3 167/124/3
f 85/61/9 84/31/9 82/78/9 83/79/9
f 214/106/1 212/50/1 211/51/1 213/129/1
f 8/33/2 6/130/2 7/131/2 5/104/2
f 190/13/4 188/49/4 189/132/4 187/14/4
f 63/71/1 62/111/1 60/110/1 61/69/1
f 186/133/9 184/1/9 181/73/9 185/72/9
f 96/134/7 94/117/7 92/21/7 95/20/7
f 196/129/4 199/51/4 197/52/4 194/47/4
f 126/41/5 124/135/5 125/80/5 123/42/5
f 210/136/1 209/89/1 205/10/1 208/9/1
f 113/11/8 114/10/8 112/55/8 109/54/8
f 219/137/1 217/138/1 214/106/1 216/2/1
f 139/98/2 140/76/2 137/77/2 135/108/2
f 203/67/4 201/25/4 198/24/4 200/68/4
f 196/129/4 194/47/4 190/13/4 193/3/4
f 142/97/2 144/132/2 141/49/2 140/76/2
f 216/2/1 214/106/1 213/129/1 215/3/1
f 10/33/3 12/32/3 11/88/3 9/130/3
f 221/133/1 219/137/1 216/2/1 220/1/1
