# Blender 5.0.1
# www.blender.org
mtllib BP_LF_Lightshafts.mtl
o SM_Lightshafts_SM_Lightshaft_4.001
v -33.750008 -106.250107 1870.000000
v -33.750038 -106.250046 270.000000
v -33.750000 -6.250114 1870.000000
v -33.750031 -6.250046 270.000000
v 9.999997 -50.000114 1870.000000
v -90.000031 -50.000046 270.000000
v 9.999967 -50.000046 270.000000
v -90.000000 -50.000114 1870.000000
vn 1.0000 -0.0000 -0.0000
vn -0.0000 -1.0000 -0.0000
vt 0.750000 0.031250
vt 0.750000 0.999969
vt 0.499756 0.999969
vt 0.500000 0.031250
s 1
usemtl M_LF_Lightshafts
f 4/1/1 3/2/1 1/3/1 2/4/1
f 8/3/2 6/4/2 7/1/2 5/2/2
