# Blender 5.0.1
# www.blender.org
mtllib BP_Lava_Geyser_Sml.mtl
o SM_Rock_3.001
v 99.999893 100.810036 -75.000000
v -0.000107 100.810036 -75.000000
v -0.000107 0.810038 -75.000000
v 99.999893 0.810038 -75.000000
v 99.999893 100.810036 -175.000000
v -0.000107 100.810036 -175.000000
v 99.999893 200.810043 -175.000000
v -0.000107 200.810043 -175.000000
v 99.999893 200.810043 -75.000000
v -0.000107 200.810043 -75.000000
v 99.999893 200.810043 -75.000000
v 99.999893 100.810036 -75.000000
v 99.999893 100.810036 -175.000000
v 99.999893 200.810043 -175.000000
v -0.000107 100.810036 -75.000000
v -0.000107 200.810043 -75.000000
v -0.000107 200.810043 -175.000000
v -0.000107 100.810036 -175.000000
v 199.999832 0.810009 -175.000000
v 99.999840 0.810009 -175.000000
v 199.999832 100.810013 -175.000000
v 99.999840 100.810013 -175.000000
v 199.999832 100.810013 -75.000000
v 99.999840 100.810013 -75.000000
v 99.999840 0.810009 -75.000000
v 199.999832 0.810009 -75.000000
v 199.999832 0.810009 -75.000000
v 99.999840 0.810009 -75.000000
v 99.999840 0.810009 -175.000000
v 199.999832 0.810009 -175.000000
v 199.999832 100.810013 -75.000000
v 199.999832 0.810009 -75.000000
v 199.999832 0.810009 -175.000000
v 199.999832 100.810013 -175.000000
v 99.999893 -99.189980 -175.000000
v -0.000107 -99.189980 -175.000000
v 99.999893 0.810018 -175.000000
v -0.000107 0.810018 -175.000000
v 99.999893 0.810018 -75.000000
v -0.000107 0.810018 -75.000000
v -0.000107 -99.189980 -75.000000
v 99.999893 -99.189980 -75.000000
v 99.999893 -99.189980 -75.000000
v -0.000107 -99.189980 -75.000000
v -0.000107 -99.189980 -175.000000
v 99.999893 -99.189980 -175.000000
v -0.000048 -99.189980 -175.000000
v -100.000046 -99.189980 -175.000000
v -0.000048 0.810018 -175.000000
v -100.000046 0.810018 -175.000000
v -0.000048 0.810018 -75.000000
v -100.000046 0.810018 -75.000000
v -100.000046 -99.189980 -75.000000
v -0.000048 -99.189980 -75.000000
v -0.000048 -99.189980 -75.000000
v -100.000046 -99.189980 -75.000000
v -100.000046 -99.189980 -175.000000
v -0.000048 -99.189980 -175.000000
v -100.000046 0.810018 -75.000000
v -0.000048 0.810018 -75.000000
v -0.000048 0.810018 -175.000000
v -100.000046 0.810018 -175.000000
v -100.000046 -99.189980 -75.000000
v -100.000046 0.810018 -75.000000
v -100.000046 0.810018 -175.000000
v -100.000046 -99.189980 -175.000000
v 99.999817 0.810251 -275.000000
v -0.000184 0.810251 -275.000000
v 99.999817 100.810249 -275.000000
v -0.000184 100.810249 -275.000000
v -100.000099 100.810020 -175.000031
v -100.000061 0.810047 -125.000000
v -100.000099 100.810036 -125.000031
v -100.000061 0.810028 -175.000000
v -50.000050 0.810086 -75.000000
v -0.000058 100.810074 -75.000031
v -50.000088 100.810066 -75.000031
v -0.000039 0.810086 -75.000000
v -50.000088 100.810051 -125.000031
v -100.000061 0.810047 -125.000000
v -50.000050 0.810067 -125.000000
v -100.000099 100.810036 -125.000031
v -50.000050 0.810086 -75.000000
v -50.000088 100.810066 -75.000031
v -50.000088 100.810051 -125.000031
v -50.000050 0.810067 -125.000000
v -50.000263 150.809982 -74.999985
v -0.000291 150.809982 -124.999985
v -50.000271 150.809982 -124.999985
v -0.000291 150.809982 -74.999985
v -50.000282 100.809990 -74.999985
v -50.000263 150.809982 -74.999985
v -50.000271 150.809982 -124.999985
v -50.000290 100.809990 -124.999985
v -50.000263 150.809982 -74.999985
v -0.000310 100.809967 -74.999985
v -0.000291 150.809982 -74.999985
v -50.000282 100.809990 -74.999985
v -100.000290 150.810013 -175.000000
v -100.000275 200.810028 -175.000000
v -49.976997 200.809998 -175.000000
v -49.953743 150.809982 -175.000000
v -0.062932 150.809982 -175.000000
v -0.031597 200.809998 -175.000000
v 199.999832 200.810028 -175.000031
v 99.999863 200.810028 -125.000000
v 199.999847 200.810028 -125.000031
v 99.999847 200.810028 -175.000000
v 99.999886 150.810013 -75.000000
v 199.999878 100.810013 -75.000031
v 199.999878 150.810013 -75.000031
v 99.999886 100.810013 -75.000000
v 199.999847 200.810028 -125.000031
v 99.999863 200.810028 -125.000000
v 99.999863 150.810013 -125.000000
v 199.999863 150.810013 -125.000031
v 199.999878 150.810013 -75.000031
v 199.999878 100.810013 -75.000031
v 199.999863 100.810013 -125.000031
v 199.999863 150.810013 -125.000031
v 99.999886 150.810013 -75.000000
v 199.999878 150.810013 -75.000031
v 199.999863 150.810013 -125.000031
v 99.999863 150.810013 -125.000000
v 199.999771 -99.190010 -175.000031
v 199.999802 0.809970 -125.000000
v 199.999771 -99.190033 -125.000031
v 199.999802 0.809989 -175.000000
v 99.999786 0.809970 -75.000000
v 149.999756 -99.190041 -75.000031
v 149.999802 0.809951 -75.000000
v 99.999771 -99.190033 -75.000031
v 149.999802 0.809970 -125.000000
v 199.999771 -99.190033 -125.000031
v 199.999802 0.809970 -125.000000
v 149.999756 -99.190018 -125.000031
v 149.999802 0.809951 -75.000000
v 149.999756 -99.190041 -75.000031
v 149.999756 -99.190018 -125.000031
v 149.999802 0.809970 -125.000000
v -0.000107 150.810013 -275.000000
v 99.999886 100.810013 -275.000000
v -0.000116 100.810013 -275.000000
v 99.999886 150.810013 -275.000000
v 99.999886 150.810013 -225.000000
v -0.000107 150.810013 -225.000000
v -0.000107 200.810028 -225.000000
v 99.999886 200.810028 -225.000000
v -0.000107 150.810013 -275.000000
v -0.000116 100.810013 -225.000000
v -0.000107 150.810013 -225.000000
v -0.000116 100.810013 -275.000000
v -0.000107 150.810013 -225.000000
v 99.999886 150.810013 -225.000000
v 99.999886 150.810013 -275.000000
v -0.000107 150.810013 -275.000000
v -100.000061 100.810051 -175.000000
v -100.000099 0.810057 -225.000000
v -100.000099 0.810057 -175.000000
v -100.000061 100.810051 -225.000000
v -50.000050 100.810028 -275.000000
v -0.000058 0.810038 -275.000000
v -50.000088 0.810047 -275.000000
v -0.000039 100.810028 -275.000000
v -50.000088 0.810047 -225.000000
v -100.000061 100.810051 -225.000000
v -50.000050 100.810028 -225.000000
v -100.000099 0.810057 -225.000000
v -50.000050 100.810028 -275.000000
v -50.000088 0.810047 -225.000000
v -50.000050 100.810028 -225.000000
v -50.000088 0.810047 -275.000000
v -0.000039 100.810028 -225.000000
v -0.000039 100.810028 -275.000000
v -50.000050 100.810028 -225.000000
v -50.000050 100.810028 -275.000000
v -0.000262 -49.189983 -225.000000
v -50.000233 -49.189983 -275.000000
v -0.000262 -49.189983 -275.000000
v -50.000244 -49.189983 -225.000000
v -50.000244 0.810028 -225.000000
v -50.000233 0.810028 -275.000000
v -50.000244 -49.189983 -225.000000
v -50.000233 -49.189983 -275.000000
v -50.000233 -49.189983 -275.000000
v -0.000262 0.810028 -275.000000
v -0.000262 -49.189983 -275.000000
v -50.000233 0.810028 -275.000000
v -0.000078 -99.189995 -175.000000
v 99.999901 -99.189995 -225.000000
v 99.999901 -99.189995 -175.000000
v -0.000078 -99.189995 -225.000000
v -0.000078 -49.189983 -275.000000
v 99.999916 0.810028 -275.000000
v 99.999916 -49.189983 -275.000000
v -0.000078 0.810028 -275.000000
v 99.999901 -99.189995 -225.000000
v -0.000078 -99.189995 -225.000000
v -0.000078 -49.189983 -225.000000
v 99.999916 -49.189983 -225.000000
v 99.999916 -49.189983 -275.000000
v 99.999916 0.810028 -225.000000
v 99.999916 -49.189983 -225.000000
v 99.999916 0.810028 -275.000000
v 99.999916 -49.189983 -225.000000
v -0.000078 -49.189983 -225.000000
v -0.000078 -49.189983 -275.000000
v 99.999916 -49.189983 -275.000000
v 199.999802 0.810009 -175.000000
v 199.999802 100.809998 -225.000000
v 199.999802 100.809998 -175.000000
v 199.999802 0.810009 -225.000000
v 99.999771 0.810028 -275.000000
v 149.999802 100.810013 -275.000000
v 149.999802 0.810009 -275.000000
v 99.999786 100.810013 -275.000000
v 149.999802 0.810009 -225.000000
v 199.999802 100.809998 -225.000000
v 199.999802 0.810009 -225.000000
v 149.999802 100.810013 -225.000000
v 149.999802 100.810013 -225.000000
v 149.999802 0.810009 -225.000000
v 149.999802 0.810009 -275.000000
v 149.999802 100.810013 -275.000000
v 99.999771 0.810028 -275.000000
v 149.999802 0.810009 -225.000000
v 99.999771 0.810028 -225.000000
v 149.999802 0.810009 -275.000000
v 99.999786 150.810059 -225.000000
v 149.999756 150.810059 -275.000000
v 99.999786 150.810059 -275.000000
v 149.999771 150.810059 -225.000000
v 149.999741 100.810028 -275.000000
v 149.999771 150.810059 -225.000000
v 149.999756 100.810028 -225.000000
v 149.999756 150.810059 -275.000000
v 149.999741 100.810028 -275.000000
v 99.999786 150.810059 -275.000000
v 149.999756 150.810059 -275.000000
v 99.999771 100.810051 -275.000000
v 199.999832 -99.190018 -175.000000
v 199.999832 0.809980 -225.000000
v 199.999832 0.809980 -175.000000
v 199.999832 -99.190018 -225.000000
v 199.999832 100.810013 -175.000031
v 199.999832 150.810013 -175.000031
v 199.999832 200.810028 -175.000031
v 199.999847 200.810028 -125.000031
v 199.999771 100.810028 -225.000000
v 149.999756 100.810028 -225.000000
v 199.999771 150.810013 -225.000000
v 149.999771 150.810059 -225.000000
v 199.999786 200.810028 -225.000000
v 149.999802 200.810074 -225.000000
v 99.999809 200.810074 -225.000000
v 99.999786 150.810059 -225.000000
v -0.000107 200.810028 -175.000000
v -0.000107 200.810028 -225.000000
v -0.000107 150.810013 -175.000000
v -0.000116 100.810013 -175.000000
v -50.000271 -99.189995 -225.000000
v -100.000252 -99.189995 -175.000000
v -100.000252 -99.189995 -225.000000
v -50.000271 -99.189995 -175.000000
v -0.000271 -99.189995 -225.000000
v -0.000271 -99.189995 -175.000000
v -100.000252 -49.189983 -175.000000
v -100.000252 0.810028 -175.000000
v -100.000252 0.810028 -225.000000
v -100.000252 -49.189983 -225.000000
v -100.000252 -99.189995 -175.000000
v -100.000252 -99.189995 -225.000000
v 149.999802 200.810074 -225.000000
v 199.999786 200.810028 -175.000000
v 199.999786 200.810028 -225.000000
v 149.999802 200.810074 -175.000000
v 99.999809 200.810074 -225.000000
v 99.999809 200.810074 -175.000000
v 199.999771 150.810013 -175.000000
v 199.999771 100.810028 -175.000000
v 199.999771 100.810028 -225.000000
v 199.999771 150.810013 -225.000000
v 199.999786 200.810028 -175.000000
v 199.999786 200.810028 -225.000000
v 149.999832 -99.190018 -225.000000
v 99.999840 -99.190018 -175.000000
v 99.999840 -99.190018 -225.000000
v 149.999832 -99.190018 -175.000000
v 199.999832 -99.190018 -225.000000
v 199.999832 -99.190018 -175.000000
v -0.000107 200.810043 -75.000000
v 99.999893 200.810043 -75.000000
v 99.999893 200.810043 -175.000000
v -0.000107 200.810043 -175.000000
v -0.000107 200.810028 -225.000000
v 99.999886 200.810028 -225.000000
v -100.000275 200.810028 -125.000000
v -50.000271 200.809998 -124.999985
v -100.000275 200.810028 -175.000000
v -49.976997 200.809998 -175.000000
v -0.031597 200.809998 -175.000000
v -0.000271 200.809998 -124.999985
v -100.000290 100.809990 -125.000000
v -100.000290 150.810013 -175.000000
v -100.000290 100.809990 -175.000000
v -100.000290 150.810013 -125.000000
v -100.000275 200.810028 -125.000000
v -100.000275 200.810028 -175.000000
v -50.000271 150.809982 -124.999985
v -100.000290 100.809990 -125.000000
v -50.000290 100.809990 -124.999985
v -100.000290 150.810013 -125.000000
v -50.000271 200.809998 -124.999985
v -100.000275 200.810028 -125.000000
v -0.000291 150.809982 -124.999985
v -0.000271 200.809998 -124.999985
v -100.000290 100.809990 -175.000000
v -49.953743 100.809990 -175.000000
v -0.062932 100.810013 -175.000000
v 199.999771 -99.190033 -125.000031
v 149.999756 -99.190018 -125.000031
v 199.999771 -99.190010 -175.000031
v 149.999756 -99.190002 -175.000031
v 99.999771 -99.190010 -125.000031
v 99.999771 -99.189995 -175.000031
v 149.999756 -99.190041 -75.000031
v 99.999771 -99.190033 -75.000031
v -50.000050 100.810028 -175.000000
v -0.000039 100.810028 -175.000000
v -100.000061 100.810051 -225.000000
v -100.000061 100.810051 -175.000000
v -50.000244 0.810028 -225.000000
v -100.000252 -49.189983 -225.000000
v -100.000252 0.810028 -225.000000
v -50.000244 -49.189983 -225.000000
v -50.000271 -99.189995 -225.000000
v -100.000252 -99.189995 -225.000000
v -0.000271 -99.189995 -225.000000
v -0.000262 -49.189983 -225.000000
v 149.999802 0.810009 -175.000000
v 99.999771 0.810028 -175.000000
v 199.999802 0.810009 -225.000000
v 199.999802 0.810009 -175.000000
v 149.999832 -99.190018 -225.000000
v 99.999840 -99.190018 -225.000000
v 99.999840 -49.190022 -225.000000
v 149.999832 -49.190022 -225.000000
v 199.999832 -99.190018 -225.000000
v 99.999840 0.809980 -225.000000
v 199.999832 0.809980 -225.000000
v 149.999832 0.809980 -225.000000
vn -0.0000 -0.0000 1.0000
vn -0.0000 -0.0000 -1.0000
vn 1.0000 -0.0000 -0.0000
vn -1.0000 -0.0000 -0.0000
vn -0.0000 -1.0000 -0.0000
vn -0.0000 1.0000 -0.0000
vt 0.343750 0.000000
vt 0.406250 0.000000
vt 0.406250 0.062500
vt 0.343750 0.062500
vt 0.343750 0.125000
vt 0.343750 0.187500
vt 0.281250 0.187500
vt 0.281250 0.125000
vt 0.312500 0.125000
vt 0.281250 0.093750
vt 0.312500 0.093750
vt 0.375000 0.062500
vt 0.375000 0.031250
vt 0.406250 0.031250
vt 0.312500 0.000000
vt 0.312500 0.031250
vt 0.281250 0.031250
vt 0.281250 0.000000
vt 0.343750 0.156250
vt 0.312500 0.156250
vt 0.281250 0.062500
vt 0.343750 0.093750
vt 0.406250 0.125000
vt 0.375000 0.125000
vt 0.343750 0.031250
vt 0.312500 0.062500
vt 0.312500 0.187500
vt 0.406250 0.093750
vt 0.375000 0.000000
vt 0.281250 0.156250
vt 0.375000 0.093750
s 1
usemtl MI_LavaGeyser_Platform
f 6/1/2 8/2/2 7/3/2 5/4/2
f 294/5/6 291/6/6 292/7/6 293/8/6
f 288/9/5 286/8/5 287/10/5 285/11/5
f 264/9/5 262/8/5 263/10/5 261/11/5
f 343/3/5 340/12/5 226/13/5 342/14/5
f 54/5/1 51/6/1 52/7/1 53/8/1
f 176/15/6 175/16/6 173/17/6 174/18/6
f 34/5/3 31/6/3 32/7/3 33/8/3
f 307/5/4 308/19/4 304/20/4 306/9/4
f 26/5/1 23/6/1 24/7/1 25/8/1
f 259/9/4 257/8/4 258/10/4 151/11/4
f 160/21/4 158/4/4 159/22/4 157/10/4
f 18/5/4 15/6/4 16/7/4 17/8/4
f 184/15/4 183/16/4 181/17/4 182/18/4
f 66/5/4 63/6/4 64/7/4 65/8/4
f 272/22/4 271/5/4 267/9/4 270/11/4
f 276/9/6 274/8/6 275/10/6 273/11/6
f 1/5/1 9/6/1 10/7/1 2/8/1
f 14/5/3 11/6/3 12/7/3 13/8/3
f 316/5/1 313/19/1 309/20/1 315/9/1
f 136/12/1 134/3/1 135/23/1 133/24/1
f 108/25/6 106/1/6 107/2/6 105/14/6
f 144/26/2 142/21/2 143/18/2 141/15/2
f 224/1/3 221/25/3 222/17/3 223/18/3
f 82/3/1 80/23/1 81/24/1 79/12/1
f 302/19/6 301/6/6 300/27/6 298/20/6
f 228/1/5 226/25/5 227/16/5 225/15/5
f 284/4/3 283/22/3 279/11/3 282/26/3
f 216/25/2 214/4/2 215/21/2 213/17/2
f 282/26/3 279/11/3 280/10/3 281/21/3
f 128/22/3 126/4/3 127/3/3 125/28/3
f 90/5/6 88/19/6 89/20/6 87/9/6
f 116/29/1 113/2/1 114/3/1 115/12/1
f 247/25/3 248/1/3 120/29/3 246/13/3
f 102/11/2 318/22/2 317/5/2 99/9/2
f 296/10/6 295/22/6 294/5/6 293/8/6
f 68/18/2 70/1/2 69/4/2 67/21/2
f 30/5/5 27/6/5 28/7/5 29/8/5
f 36/1/2 38/2/2 37/3/2 35/4/2
f 303/8/4 306/9/4 304/20/4 305/30/4
f 168/4/2 166/5/2 167/9/2 165/26/2
f 254/22/2 253/5/2 251/9/2 252/11/2
f 324/28/5 325/23/5 323/24/5 321/31/5
f 120/13/3 117/29/3 118/2/3 119/14/3
f 321/31/5 323/24/5 322/5/5 320/22/5
f 335/11/2 333/9/2 334/8/2 332/10/2
f 192/21/5 190/4/5 191/22/5 189/10/5
f 236/1/3 234/25/3 235/16/3 233/15/3
f 188/17/2 186/18/2 187/15/2 185/16/2
f 132/4/1 130/12/1 131/24/1 129/5/1
f 20/1/2 22/2/2 21/3/2 19/4/2
f 86/22/4 83/4/4 84/3/4 85/28/4
f 46/3/5 43/23/5 44/5/5 45/4/5
f 232/17/6 230/18/6 231/15/6 229/16/6
f 78/5/1 76/4/1 77/12/1 75/24/1
f 124/25/6 121/1/6 122/2/6 123/14/6
f 94/30/4 91/8/4 92/9/4 93/20/4
f 220/26/2 218/4/2 219/5/2 217/9/2
f 208/1/5 205/25/5 206/17/5 207/18/5
f 98/30/1 96/8/1 97/9/1 95/20/1
f 331/5/6 328/9/6 175/11/6 330/22/6
f 156/1/6 153/25/6 154/17/6 155/18/6
f 103/26/2 319/4/2 318/22/2 102/11/2
f 312/27/1 310/7/1 311/30/1 309/20/1
f 314/6/1 312/27/1 309/20/1 313/19/1
f 298/20/6 300/27/6 299/7/6 297/30/6
f 4/2/1 1/3/1 2/4/1 3/1/1
f 278/5/6 276/9/6 273/11/6 277/22/6
f 260/5/4 259/9/4 151/11/4 150/22/4
f 74/22/4 72/4/4 73/3/4 71/28/4
f 58/5/5 55/6/5 56/7/5 57/8/5
f 326/12/5 327/3/5 324/28/5 321/31/5
f 62/5/6 59/6/6 60/7/6 61/8/6
f 270/11/4 267/9/4 268/8/4 269/10/4
f 266/5/5 264/9/5 261/11/5 265/22/5
f 42/3/1 39/23/1 40/5/1 41/4/1
f 172/1/4 170/25/4 171/17/4 169/18/4
f 148/5/2 145/9/2 146/26/2 147/4/2
f 246/13/3 120/29/3 119/2/3 245/14/3
f 180/16/5 178/15/5 179/1/5 177/25/5
f 101/10/2 102/11/2 99/9/2 100/8/2
f 104/21/2 103/26/2 102/11/2 101/10/2
f 347/11/2 344/26/2 345/4/2 346/22/2
f 212/21/3 210/4/3 211/22/3 209/10/3
f 252/11/2 256/26/2 255/4/2 254/22/2
f 250/10/2 252/11/2 251/9/2 249/8/2
f 240/25/2 238/16/2 239/15/2 237/1/2
f 339/26/2 338/4/2 336/22/2 335/11/2
f 335/11/2 336/22/2 337/5/2 333/9/2
f 200/26/2 197/4/2 198/5/2 199/9/2
f 152/1/4 150/25/4 151/16/4 149/15/4
f 290/5/5 288/9/5 285/11/5 289/22/5
f 112/4/1 110/1/1 111/29/1 109/12/1
f 196/21/2 194/18/2 195/15/2 193/26/2
f 244/4/3 242/5/3 243/9/3 241/26/3
f 140/22/3 137/4/3 138/3/3 139/28/3
f 164/26/2 162/15/2 163/1/2 161/4/2
f 204/15/3 202/16/3 203/17/3 201/18/3
f 226/13/5 340/12/5 341/4/5 227/25/5
f 48/1/2 50/2/2 49/3/2 47/4/2
f 347/11/2 348/21/2 344/26/2
f 175/11/6 328/9/6 329/8/6 173/10/6
f 347/11/2 350/8/2 348/21/2
f 351/9/2 350/8/2 347/11/2
f 351/9/2 347/11/2 346/22/2 349/5/2
