# Blender 5.0.1
# www.blender.org
mtllib BP_LavaMill.mtl
o SM_LavaMill_Chain.001
v 617.741577 -395.496033 -152.802414
v 617.741577 -396.675598 -200.893021
v 667.741577 -395.496063 -152.802444
v 667.741577 -396.675629 -200.893051
v 642.741516 -421.668121 -200.281158
v 642.741577 -370.503540 -153.414307
v 642.741577 -420.488556 -152.190552
v 642.741577 -371.683105 -201.504913
v 617.741577 -394.648712 -104.703804
v 617.741516 -395.496033 -152.802231
v 667.741516 -394.648743 -104.703835
v 667.741516 -395.496063 -152.802261
v 642.741516 -420.491943 -152.350189
v 642.741577 -369.652802 -105.155876
v 642.741516 -419.644623 -104.251770
v 642.741516 -370.500153 -153.254303
v 617.741516 -394.459167 -56.597500
v 617.741516 -394.649841 -104.703041
v 667.741516 -394.459198 -56.597527
v 667.741455 -394.649872 -104.703072
v 642.741455 -419.649353 -104.566910
v 642.741516 -369.459717 -56.733662
v 642.741516 -419.458679 -56.461365
v 642.741516 -369.650360 -104.839203
v 617.741516 -395.323486 -8.496826
v 617.741455 -394.459503 -56.595684
v 667.741455 -395.323517 -8.496857
v 667.741455 -394.459534 -56.595711
v 642.741455 -419.455902 -56.966927
v 642.741516 -370.327118 -8.125610
v 642.741455 -420.319885 -8.868073
v 642.741455 -369.463135 -56.224468
v 617.741455 -398.406128 39.516556
v 617.741394 -395.324097 -8.491844
v 667.741455 -398.406158 39.516525
v 667.741394 -395.324097 -8.491875
v 642.741394 -420.278625 -9.930580
v 642.741455 -373.451599 40.955261
v 642.741455 -423.360657 38.077820
v 642.741394 -370.369568 -7.053139
v 620.061218 -408.527649 87.583572
v 617.766357 -398.560974 40.636566
v 670.012207 -408.223572 85.382797
v 667.717346 -398.256897 38.435791
v 642.661926 -422.924896 34.765884
v 645.116638 -383.859650 91.253479
v 644.956848 -432.891541 81.712891
v 642.821777 -373.893005 44.306473
v 619.685791 -424.570831 131.693817
v 620.033325 -408.188538 86.399796
v 669.693481 -424.957184 131.904099
v 670.040955 -408.574890 86.610077
v 644.891357 -432.036163 78.650879
v 644.835388 -401.109558 139.653015
v 644.543884 -448.418457 123.944901
v 645.182922 -384.727264 94.358994
v 618.916138 -464.059174 155.830688
v 619.686401 -424.531555 131.651917
v 668.919067 -464.688110 156.333466
v 669.689331 -425.160492 132.154694
v 644.745483 -438.545380 111.374115
v 643.859985 -450.674286 176.611267
v 643.975220 -478.072998 135.552856
v 644.630310 -411.146637 152.432526
v 618.809326 -510.842499 172.001801
v 618.912476 -464.367401 155.976471
v 668.818604 -510.935730 172.252991
v 668.921753 -464.460632 156.227661
v 644.020264 -473.821167 133.441910
v 643.710815 -501.481934 194.787567
v 643.917175 -520.296265 149.467224
v 643.813965 -455.006866 178.762238
v 618.735901 -549.726807 199.473114
v 618.809326 -510.813843 171.988068
v 668.745300 -549.748596 199.687897
v 668.818726 -510.835663 172.202789
v 643.905029 -526.317993 152.460175
v 643.649597 -534.244446 219.215729
v 643.831604 -565.230957 179.945282
v 643.723083 -495.331512 191.730621
v 618.615479 -585.276978 231.542206
v 618.735901 -549.692505 199.446075
v 668.624878 -585.317810 231.772125
v 668.745300 -549.733337 199.675995
v 643.826172 -567.309509 181.585175
v 643.534607 -567.700806 249.632965
v 643.705750 -602.893921 213.681305
v 643.655029 -532.116333 217.536835
v 618.523499 -621.746216 262.730530
v 618.615417 -585.291504 231.554993
v 668.532898 -621.769653 262.945160
v 668.624817 -585.314941 231.769623
v 643.707031 -602.446289 213.287323
v 643.441284 -604.614868 281.212830
v 643.615173 -638.901001 244.462860
v 643.533142 -568.160156 250.037292
v 618.802673 -652.989319 298.564606
v 618.523682 -621.847656 262.831238
v 668.811462 -652.742859 298.512268
v 668.532410 -621.601196 262.778900
v 643.621765 -641.244080 246.756134
v 643.713379 -633.346497 314.587372
v 643.900757 -672.385742 282.489502
v 643.434326 -602.204834 278.854004
v 620.676697 -683.999634 335.610657
v 618.818054 -653.469788 299.126282
v 670.654236 -682.783691 334.424500
v 668.795593 -652.253784 297.940125
v 643.910950 -672.669678 282.821198
v 645.561340 -663.583801 350.729584
v 645.769592 -703.199585 319.305542
v 643.702698 -633.053894 314.245239
v 619.955811 -711.778198 372.501312
v 620.659058 -683.232056 334.645935
v 669.968201 -712.073975 373.215210
v 670.671448 -683.527832 335.359863
v 645.782410 -703.897461 320.180145
v 644.844788 -691.408569 387.681000
v 645.079163 -732.443726 358.035522
v 645.548035 -662.862305 349.825653
v 618.978271 -746.476318 403.945648
v 619.957275 -711.717163 372.435486
v 668.984863 -746.993896 404.901947
v 669.963928 -712.234619 373.391693
v 645.153442 -729.679321 354.960938
v 643.788757 -729.031677 422.376434
v 644.174377 -764.438477 386.471161
v 644.767761 -694.272461 390.866211
v 619.171509 -792.806335 414.065094
v 618.972168 -747.059631 404.247284
v 669.186218 -792.553162 414.633148
v 668.986877 -746.806396 404.815338
v 644.277222 -754.110107 380.863434
v 643.881104 -785.502686 438.016998
v 644.476562 -799.856812 390.681305
v 643.681824 -739.755981 428.199188
v 619.228210 -842.626587 411.527191
v 619.171265 -792.789185 414.066559
v 669.243835 -842.647705 412.116608
v 669.186890 -792.810303 414.655975
v 644.461975 -793.984253 390.082489
v 643.953125 -841.452637 436.100739
v 644.518921 -843.821655 387.543121
v 643.896179 -791.615234 438.640106
v 619.285095 -892.463928 408.987885
v 619.228149 -842.626587 411.527252
v 669.300659 -892.485107 409.577301
v 669.243774 -842.647705 412.116669
v 644.518860 -843.821655 387.543152
v 644.009949 -891.290039 433.561432
v 644.575806 -893.659058 385.003784
v 643.953003 -841.452637 436.100800
v 619.342407 -941.792786 400.666046
v 619.286987 -892.497253 408.980072
v 669.358093 -941.882874 401.247833
v 669.302673 -892.587341 409.561859
v 644.574463 -890.704163 385.309784
v 644.070618 -943.675964 424.918121
v 644.629883 -939.999695 376.995728
v 644.015198 -894.380432 433.232147
v 618.531738 -984.384583 376.067413
v 619.344360 -941.473389 400.786224
v 668.539673 -985.542480 376.261688
v 669.352295 -942.631287 400.980499
v 644.705444 -931.098816 380.050079
v 643.178589 -995.917114 396.997833
v 643.892822 -974.009949 355.331299
v 643.991211 -953.005920 421.716644
v 618.973083 -1003.520142 334.115875
v 618.528320 -984.910339 375.507935
v 668.984192 -1004.197693 334.846741
v 668.539429 -985.587830 376.238770
v 643.962097 -962.736572 366.825867
v 643.550354 -1026.371460 343.528809
v 644.406860 -981.346375 325.433807
v 643.105652 -1007.761597 384.920868
v 619.045166 -1003.791809 332.399048
v 673.104858 -997.989258 288.067169
v 623.209045 -997.723145 284.487549
v 668.940979 -1004.057922 335.978668
v 643.859863 -978.865662 336.441254
v 648.290161 -1022.915405 284.024963
v 648.023743 -972.796936 288.529755
v 644.126282 -1028.984131 331.936462
v 623.122375 -997.902710 286.025818
v 674.177734 -992.755737 238.685181
v 624.109985 -992.845886 238.156494
v 673.190125 -997.812561 286.554504
v 648.047546 -972.742981 288.068573
v 649.252563 -1017.915466 236.642395
v 649.035217 -967.686096 240.199280
v 648.264954 -1022.972290 284.511719
v 624.169250 -992.878723 240.564362
v 670.422424 -996.534546 189.476685
v 620.466431 -996.685181 193.525146
v 674.125305 -992.728027 236.515900
v 648.914978 -967.600098 236.093811
v 645.676697 -1021.813171 193.947235
v 645.212158 -971.406555 189.054596
v 649.379578 -1018.006653 240.986450
v 620.416382 -996.870300 192.654602
v 669.201660 -1011.972900 145.408722
v 619.128174 -1012.556885 147.393616
v 670.489868 -996.286316 190.669739
v 644.923950 -972.447693 183.739136
v 644.694031 -1036.395508 154.324219
v 643.635742 -988.134277 138.478119
v 645.982239 -1020.708923 199.585205
v 619.121765 -1012.653687 147.111115
v 668.530457 -1027.300537 100.333542
v 618.444580 -1028.075562 101.760696
v 669.207703 -1011.878662 145.683990
v 643.638367 -988.094971 138.592575
v 644.013916 -1051.859253 108.852066
v 642.961121 -1003.516846 93.242157
v 644.691101 -1036.437378 154.202484
v 618.442078 -1028.235596 101.259491
v 668.864685 -1040.884277 54.891068
v 618.774292 -1041.962891 55.365799
v 668.532471 -1027.156860 100.784760
v 642.964172 -1003.272156 94.004669
v 644.342590 -1065.847656 62.145905
v 643.296387 -1016.999573 48.110977
v 644.010376 -1052.120361 108.039597
v 618.774231 -1041.960449 55.373154
v 669.196472 -1054.897461 9.084579
v 619.106079 -1055.974365 9.565254
v 668.864624 -1040.883545 54.892487
v 643.297302 -1017.038757 47.980484
v 644.673401 -1079.819336 16.477264
v 643.629150 -1031.052734 2.172585
v 644.341553 -1065.805420 62.285156
v 619.106140 -1055.979980 9.548828
v 669.528137 -1068.246338 -36.769699
v 619.437805 -1069.327148 -36.302094
v 669.196472 -1054.899170 9.081230
v 643.627014 -1030.968140 2.457077
v 645.007263 -1093.258057 -29.677948
v 643.958740 -1044.315308 -43.393845
v 644.675537 -1079.910889 16.172974
v 619.439575 -1069.375488 -36.558540
v 669.866882 -1072.107910 -84.508049
v 619.777954 -1073.224976 -84.238670
v 669.528564 -1068.258301 -36.827919
v 643.927063 -1043.486084 -39.094894
v 645.379456 -1097.997314 -81.971687
v 644.265381 -1047.335449 -86.775032
v 645.041077 -1094.147705 -34.291557
v 619.778564 -1073.229370 -84.337433
v 670.204407 -1072.375610 -132.437393
v 620.115967 -1073.495850 -132.242920
v 669.867004 -1072.109131 -84.531906
v 644.253784 -1047.260620 -85.149773
v 645.729187 -1098.344360 -131.625061
v 644.591187 -1047.527100 -133.055252
v 645.391785 -1098.077881 -83.719566
v 620.116150 -1073.495728 -132.274078
v 670.541138 -1071.538818 -180.371078
v 620.452881 -1072.658936 -180.199692
v 670.204407 -1072.375610 -132.445465
v 644.587585 -1047.529663 -132.554977
v 646.069702 -1097.504883 -180.090179
v 644.924316 -1046.692871 -180.480591
v 645.732971 -1098.341675 -132.164566
v 620.452942 -1072.658691 -180.211853
v 670.877625 -1070.283447 -228.301529
v 620.789368 -1071.403442 -228.138901
v 670.541138 -1071.538696 -180.374481
v 644.922974 -1046.696899 -180.291107
v 646.407532 -1096.245239 -228.222290
v 645.259399 -1045.441650 -228.218140
v 646.071106 -1097.500488 -180.295258
vn -0.0000 -0.9997 0.0245
vn 1.0000 -0.0000 -0.0000
vn -0.0000 -0.9998 0.0176
vn -0.0000 -1.0000 0.0040
vn -0.0000 -0.9998 -0.0180
vn -0.0000 -0.9979 -0.0641
vn -0.0032 -0.9782 -0.2075
vn 0.9989 0.0060 -0.0476
vn -0.0058 -0.9404 -0.3402
vn 1.0000 -0.0078 0.0049
vn 0.0020 -0.5218 -0.8530
vn 0.9999 -0.0126 0.0112
vn 0.0041 -0.3260 -0.9454
vn 1.0000 -0.0006 0.0048
vn 0.0033 -0.5769 -0.8168
vn 1.0000 0.0009 0.0039
vn 0.0029 -0.6698 -0.7426
vn 1.0000 0.0005 0.0043
vn 0.0030 -0.6499 -0.7600
vn 1.0000 0.0008 0.0039
vn 0.0030 -0.7539 -0.6570
vn 1.0000 0.0065 -0.0021
vn 0.0034 -0.7668 -0.6418
vn 0.9992 0.0274 -0.0280
vn 0.0039 -0.7985 -0.6020
vn 0.9999 -0.0050 0.0148
vn 0.0072 -0.6717 -0.7408
vn 0.9997 -0.0097 0.0203
vn 0.0122 -0.2098 -0.9777
vn 0.9999 0.0066 0.0106
vn 0.0118 0.0509 -0.9986
vn 0.9999 0.0006 0.0116
vn 0.0118 0.1663 -0.9860
vn 0.9999 -0.0008 0.0116
vn 0.0149 0.4989 -0.8665
vn 0.9997 -0.0221 0.0055
vn 0.0183 0.9120 -0.4098
vn 0.9998 -0.0125 0.0163
vn -0.0037 0.9921 0.1253
vn 0.9963 -0.0025 0.0863
vn -0.0029 0.9945 0.1050
vn 0.9998 0.0028 0.0209
vn -0.0095 0.9968 -0.0799
vn 0.9969 0.0016 -0.0786
vn -0.0240 0.9448 -0.3268
vn 0.9994 0.0113 -0.0324
vn -0.0238 0.9466 -0.3215
vn 0.9997 0.0153 -0.0201
vn -0.0233 0.9578 -0.2866
vn 0.9998 0.0216 0.0008
vn -0.0234 0.9559 -0.2926
vn 0.9998 0.0216 0.0006
vn -0.0233 0.9598 -0.2796
vn 0.9998 0.0217 0.0009
vn -0.0227 0.9965 -0.0806
vn 0.9997 0.0225 0.0053
vn -0.0224 0.9997 -0.0057
vn 0.9997 0.0226 0.0069
vn -0.0223 0.9996 0.0173
vn 0.9997 0.0226 0.0074
vn -0.0223 0.9994 0.0260
vn 0.9997 0.0226 0.0076
vt 0.500000 0.125000
vt 0.500000 0.062500
vt 0.562500 0.062500
vt 0.562500 0.125000
s 1
usemtl MI_NetherWastesProps
f 20/1/4 19/2/4 17/3/4 18/4/4
f 116/1/25 115/2/25 113/3/25 114/4/25
f 4/1/1 3/2/1 1/3/1 2/4/1
f 52/1/9 51/2/9 49/3/9 50/4/9
f 28/1/5 27/2/5 25/3/5 26/4/5
f 132/1/29 131/2/29 129/3/29 130/4/29
f 8/1/2 6/2/2 7/3/2 5/4/2
f 44/1/7 43/2/7 41/3/7 42/4/7
f 12/1/3 11/2/3 9/3/3 10/4/3
f 204/1/45 202/2/45 203/3/45 201/4/45
f 108/1/23 107/2/23 105/3/23 106/4/23
f 120/1/26 118/2/26 119/3/26 117/4/26
f 60/1/11 59/2/11 57/3/11 58/4/11
f 104/1/22 102/2/22 103/3/22 101/4/22
f 156/1/33 155/2/33 153/3/33 154/4/33
f 176/1/38 174/2/38 175/3/38 173/4/38
f 24/1/2 22/2/2 23/3/2 21/4/2
f 136/1/30 134/2/30 135/3/30 133/4/30
f 68/1/13 67/2/13 65/3/13 66/4/13
f 72/1/14 70/2/14 71/3/14 69/4/14
f 92/1/19 91/2/19 89/3/19 90/4/19
f 128/1/28 126/2/28 127/3/28 125/4/28
f 76/1/15 75/2/15 73/3/15 74/4/15
f 80/1/16 78/2/16 79/3/16 77/4/16
f 172/1/37 171/2/37 169/3/37 170/4/37
f 192/1/42 190/2/42 191/3/42 189/4/42
f 40/1/2 38/2/2 39/3/2 37/4/2
f 56/1/10 54/2/10 55/3/10 53/4/10
f 124/1/27 123/2/27 121/3/27 122/4/27
f 256/1/58 254/2/58 255/3/58 253/4/58
f 16/1/2 14/2/2 15/3/2 13/4/2
f 96/1/20 94/2/20 95/3/20 93/4/20
f 164/1/35 163/2/35 161/3/35 162/4/35
f 160/1/34 158/2/34 159/3/34 157/4/34
f 148/1/31 147/2/31 145/3/31 146/4/31
f 152/1/32 150/2/32 151/3/32 149/4/32
f 84/1/17 83/2/17 81/3/17 82/4/17
f 140/1/31 139/2/31 137/3/31 138/4/31
f 144/1/32 142/2/32 143/3/32 141/4/32
f 100/1/21 99/2/21 97/3/21 98/4/21
f 64/1/12 62/2/12 63/3/12 61/4/12
f 196/1/43 194/2/43 195/3/43 193/4/43
f 88/1/18 86/2/18 87/3/18 85/4/18
f 216/1/48 214/2/48 215/3/48 213/4/48
f 168/1/36 166/2/36 167/3/36 165/4/36
f 244/1/55 242/2/55 243/3/55 241/4/55
f 184/1/40 182/2/40 183/3/40 181/4/40
f 32/1/2 30/2/2 31/3/2 29/4/2
f 48/1/8 46/2/8 47/3/8 45/4/8
f 212/1/47 210/2/47 211/3/47 209/4/47
f 200/1/44 198/2/44 199/3/44 197/4/44
f 228/1/51 226/2/51 227/3/51 225/4/51
f 208/1/46 206/2/46 207/3/46 205/4/46
f 236/1/53 234/2/53 235/3/53 233/4/53
f 232/1/52 230/2/52 231/3/52 229/4/52
f 220/1/49 218/2/49 219/3/49 217/4/49
f 248/1/56 246/2/56 247/3/56 245/4/56
f 240/1/54 238/2/54 239/3/54 237/4/54
f 188/1/41 186/2/41 187/3/41 185/4/41
f 252/1/57 250/2/57 251/3/57 249/4/57
f 180/1/39 178/2/39 179/3/39 177/4/39
f 260/1/59 258/2/59 259/3/59 257/4/59
f 264/1/60 262/2/60 263/3/60 261/4/60
f 268/1/61 266/2/61 267/3/61 265/4/61
f 272/1/62 270/2/62 271/3/62 269/4/62
f 224/1/50 222/2/50 223/3/50 221/4/50
f 112/1/24 110/2/24 111/3/24 109/4/24
f 36/1/6 35/2/6 33/3/6 34/4/6
