# Blender 5.0.1
# www.blender.org
mtllib BP_LampPost_Lantern_S3Lobby.mtl
o SK_Lantern.001
v 18.749943 112.365768 293.658020
v 18.750116 75.359444 299.722839
v 18.750158 66.262222 244.213348
v 18.749985 103.268547 238.148529
v -18.750055 112.365593 293.658020
v 18.750116 75.359444 299.722839
v 18.749943 112.365768 293.658020
v -18.749882 75.359268 299.722839
v -18.750013 103.268372 238.148529
v -18.749840 66.262047 244.213348
v -18.749882 75.359268 299.722839
v -18.750055 112.365593 293.658020
v 18.749985 103.268547 238.148529
v 18.750158 66.262222 244.213348
v -18.749840 66.262047 244.213348
v -18.750013 103.268372 238.148529
v 18.749943 112.365768 293.658020
v 18.749985 103.268547 238.148529
v -18.750055 112.365593 293.658020
v -18.750013 103.268372 238.148529
v 18.750116 75.359444 299.722839
v -18.749840 66.262047 244.213348
v 18.750158 66.262222 244.213348
v -18.749882 75.359268 299.722839
v -3.124989 97.671181 321.395172
v -9.374992 98.447418 327.596802
v -9.374990 97.671150 321.395172
v -3.124993 98.447449 327.596802
v 3.125011 97.671211 321.395172
v -9.374996 99.223686 333.798401
v 3.125007 98.447479 327.596802
v -3.124996 99.223717 333.798401
v 9.375010 97.671242 321.395172
v -9.375000 99.999954 340.000000
v 9.375008 98.447510 327.596802
v -3.125000 99.999985 340.000000
v 3.125004 99.223747 333.798401
v -9.375004 100.776222 346.201599
v 9.375004 99.223778 333.798401
v -3.125004 100.776253 346.201599
v 3.125000 100.000015 340.000000
v 9.375000 100.000046 340.000000
v 3.124996 100.776283 346.201599
v 9.374996 100.776314 346.201599
v -3.124971 93.862503 296.690430
v -9.374976 94.873276 302.858154
v -9.374971 93.862480 296.690430
v -3.124976 94.873306 302.858154
v 3.125029 93.862534 296.690430
v -9.374981 95.884079 309.025848
v 3.125024 94.873337 302.858154
v -3.124981 95.884109 309.025848
v 9.375029 93.862564 296.690430
v -9.374986 96.894882 315.193573
v 9.375024 94.873367 302.858154
v -3.124985 96.894913 315.193573
v 3.125019 95.884140 309.025848
v -9.374990 97.905685 321.361298
v 9.375019 95.884171 309.025848
v -3.124990 97.905716 321.361298
v 3.125015 96.894943 315.193573
v 9.375014 96.894974 315.193573
v 3.125010 97.905746 321.361298
v 9.375010 97.905777 321.361298
v 0.000004 99.219460 308.603851
v -0.000029 106.197334 314.029175
v -0.000025 105.421066 307.827576
v 0.000000 99.995728 314.805450
v 0.000033 93.017853 309.380127
v -0.000032 106.973602 320.230774
v 0.000030 93.794121 315.581726
v -0.000003 100.771996 321.007050
v 0.000062 86.816254 310.156372
v -0.000036 107.749870 326.432404
v 0.000059 87.592522 316.358002
v -0.000007 101.548264 327.208649
v 0.000026 94.570389 321.783325
v -0.000040 108.526138 332.634003
v 0.000055 88.368790 322.559601
v -0.000010 102.324532 333.410278
v 0.000022 95.346664 327.984924
v 0.000051 89.145058 328.761200
v 0.000019 96.122932 334.186523
v 0.000048 89.921326 334.962799
vn 1.0000 -0.0000 -0.0000
vn -0.0000 0.1617 0.9868
vn -1.0000 -0.0000 -0.0000
vn -0.0000 -0.1617 -0.9868
vn -0.0000 0.9868 -0.1617
vn -0.0000 -0.9868 0.1617
vn -0.0000 -0.9923 0.1242
vt 0.031250 0.593750
vt 0.031235 0.562500
vt 0.062469 0.562500
vt 0.062500 0.593750
vt 0.000031 0.562500
vt 0.000031 0.531250
vt 0.031250 0.531250
vt 0.062500 0.656250
vt 0.062500 0.625000
vt 0.093750 0.625000
vt 0.093750 0.656250
vt 0.000031 0.593750
vt 0.093750 0.593750
vt 0.062500 0.500000
vt 0.062500 0.468750
vt 0.093750 0.468750
vt 0.093750 0.500000
vt 0.093750 0.687500
vt 0.312500 0.468750
vt 0.312500 0.687500
vt 0.000031 0.656250
vt 0.000031 0.625000
vt 0.031250 0.625000
vt 0.031250 0.656250
vt 0.531250 0.469238
vt 0.531250 0.687500
vt 0.312500 0.469238
vt 0.062469 0.687500
vt 0.062500 0.531250
vt 0.093750 0.531250
vt 0.093750 0.562500
vt 0.375000 0.687500
vt 0.562500 0.687500
vt 0.562500 0.999969
vt 0.375000 0.999969
vt 0.000031 0.687500
vt 0.031235 0.687500
vt 0.000031 0.999969
vt 0.000031 0.687500
vt 0.187378 0.687500
vt 0.187500 0.999969
vt 0.000031 0.500000
vt 0.031250 0.500000
vt 0.187378 0.999969
vt 0.000031 0.468750
vt 0.000031 0.437500
vt 0.031235 0.437500
vt 0.031250 0.468750
vt 0.749512 0.687500
vt 0.750000 0.999969
vt 0.062469 0.437500
vt 0.093750 0.437500
s 1
usemtl M_Lantern_RedFire
f 41/1/7 43/2/7 40/3/7 36/4/7
f 73/5/3 75/6/3 71/7/3 69/2/3
f 48/8/6 52/9/6 50/10/6 46/11/6
f 42/12/7 44/5/7 43/2/7 41/1/7
f 32/9/7 36/4/7 34/13/7 30/10/7
f 72/14/3 76/15/3 74/16/3 70/17/3
f 28/8/7 32/9/7 30/10/7 26/11/7
f 8/18/2 6/16/2 7/19/2 5/20/2
f 35/21/7 39/22/7 37/23/7 31/24/7
f 16/25/4 13/26/4 14/20/4 15/27/4
f 45/28/6 48/8/6 46/11/6 47/18/6
f 59/22/6 62/12/6 61/1/6 57/23/6
f 68/29/3 72/14/3 70/17/3 66/30/3
f 52/9/6 56/4/6 54/13/6 50/10/6
f 56/4/6 60/3/6 58/31/6 54/13/6
f 18/32/5 20/33/5 19/34/5 17/35/5
f 53/36/6 55/21/6 51/24/6 49/37/6
f 29/37/7 31/24/7 28/8/7 25/28/7
f 62/12/6 64/5/6 63/2/6 61/1/6
f 49/37/6 51/24/6 48/8/6 45/28/6
f 33/36/7 35/21/7 31/24/7 29/37/7
f 24/38/6 22/39/6 23/40/6 21/41/6
f 39/22/7 42/12/7 41/1/7 37/23/7
f 65/3/3 68/29/3 66/30/3 67/31/3
f 36/4/7 40/3/7 38/31/7 34/13/7
f 75/6/3 79/42/3 77/43/3 71/7/3
f 4/32/1 1/35/1 2/44/1 3/40/1
f 61/1/6 63/2/6 60/3/6 56/4/6
f 69/2/3 71/7/3 68/29/3 65/3/3
f 55/21/6 59/22/6 57/23/6 51/24/6
f 82/45/3 84/46/3 83/47/3 81/48/3
f 25/28/7 28/8/7 26/11/7 27/18/7
f 12/34/3 9/33/3 10/49/3 11/50/3
f 76/15/3 80/51/3 78/52/3 74/16/3
f 79/42/3 82/45/3 81/48/3 77/43/3
f 81/48/3 83/47/3 80/51/3 76/15/3
