# Blender 5.0.1
# www.blender.org
mtllib BP_LumberSaw.mtl
o SM_LumberSaw.001
v 272.774567 -0.000006 181.043259
v -272.774567 0.000004 31.456738
v 74.793274 -0.000008 -166.524567
v -74.793274 0.000008 379.024567
v -218.894379 49.961266 87.500000
v -218.894379 50.000000 24.999992
v -218.894379 75.038734 87.500000
v -218.894379 75.000000 24.999992
v -243.894379 75.038734 87.500000
v -243.933105 75.000000 25.000000
v -243.894379 49.961266 87.500000
v -243.933105 50.000000 25.000000
v -0.000000 18.750000 87.500000
v -250.000000 18.750000 87.500000
v -250.000000 106.250000 87.500000
v -0.000000 106.250000 87.500000
v -250.000000 106.250000 100.000000
v -0.000000 106.250000 100.000000
v -250.000000 18.750000 100.000000
v -0.000000 18.750000 100.000000
v -6.250000 18.750000 100.000000
v -6.250000 118.749992 100.000000
v 6.250000 18.750000 100.000000
v 6.250000 118.749992 100.000000
v 6.250000 18.750000 112.500000
v 6.250000 118.750000 112.500000
v -6.250000 18.750000 112.500000
v -6.250000 118.750000 112.500000
v 306.250000 18.750000 87.500000
v 306.250000 106.250000 87.500000
v 306.250000 106.250000 100.000000
v 306.250000 18.750000 100.000000
v 274.961273 50.144394 87.500000
v 275.000000 50.144394 24.999992
v 300.038727 50.144394 87.500000
v 300.000000 50.144394 24.999992
v 300.038727 75.144394 87.500000
v 300.000000 75.183136 25.000000
v 274.961273 75.144394 87.500000
v 275.000000 75.183136 25.000000
v -0.000000 -18.750000 87.500000
v -250.000000 -18.750000 87.500000
v -0.000000 -18.750000 100.000000
v -250.000000 -18.750000 100.000000
v -0.000000 -106.250000 100.000000
v -250.000000 -106.250000 87.500000
v -250.000000 -106.250000 100.000000
v -0.000000 -106.250000 87.500000
v 275.000000 -50.144394 24.999992
v 274.961273 -50.144394 87.500000
v 300.038727 -50.144394 87.500000
v 300.000000 -50.144394 24.999992
v 300.038727 -75.144394 87.500000
v 300.000000 -75.183136 25.000000
v 274.961273 -75.144394 87.500000
v 275.000000 -75.183136 25.000000
v -212.644379 43.750000 25.000000
v -250.144379 43.750000 0.000000
v -212.644379 43.750000 0.000000
v -250.144379 43.750000 25.000000
v -250.144379 81.250000 0.000000
v -250.144379 81.250000 25.000000
v -212.644379 81.250000 0.000000
v -212.355621 81.250000 25.000000
v 6.250000 -118.750000 100.000000
v -6.250000 -18.750000 100.000000
v 6.250000 -18.750000 100.000000
v -6.250000 -118.750000 100.000000
v -6.250000 -18.750000 112.500000
v -6.250000 -118.750000 112.500000
v 6.250000 -18.750000 112.500000
v 6.250000 -118.750000 112.500000
v 268.750000 43.894394 25.000000
v 268.750000 81.394394 0.000000
v 268.750000 43.894394 0.000000
v 268.750000 81.394394 25.000000
v 306.250000 81.394394 0.000000
v 306.250000 81.394394 25.000000
v 306.250000 43.894394 0.000000
v 306.250000 43.605652 25.000000
v -212.644379 -43.750000 -0.000000
v -250.144379 -43.750000 -0.000000
v -212.644379 -43.750000 25.000000
v -250.144379 -43.750000 25.000000
v -250.144379 -81.250000 -0.000000
v -250.144379 -81.250000 25.000000
v -212.644379 -81.250000 -0.000000
v -212.355621 -81.250000 25.000000
v -218.894379 -75.000000 24.999992
v -243.933105 -75.000000 25.000000
v -218.894379 -50.000000 24.999992
v -243.933105 -50.000000 25.000000
v -218.894379 -75.038734 87.500000
v -218.894379 -49.961266 87.500000
v -243.894379 -75.038734 87.500000
v -243.894379 -49.961266 87.500000
v 306.250000 -106.250000 87.500000
v 306.250000 -18.750000 87.500000
v 306.250000 -106.250000 100.000000
v 306.250000 -18.750000 100.000000
v 24.902939 -18.750000 81.250000
v -24.902939 -18.750000 81.250000
v -24.902939 18.750000 81.250000
v 24.902939 18.750000 81.250000
v 24.902939 18.750000 131.152939
v 24.902939 -18.750000 131.250000
v -24.902939 -18.750000 131.250000
v -24.902939 18.750000 131.152939
v 268.750000 -81.394394 -0.000000
v 268.750000 -43.894394 25.000000
v 268.750000 -43.894394 -0.000000
v 268.750000 -81.394394 25.000000
v 306.250000 -81.394394 25.000000
v 306.250000 -81.394394 -0.000000
v 306.250000 -43.894394 -0.000000
v 306.250000 -43.605652 25.000000
vn -0.0000 -1.0000 -0.0000
vn 0.7070 -0.7072 -0.0004
vn 0.3017 -0.3016 0.9045
vn 0.7070 0.7072 -0.0004
vn 0.3017 0.3016 0.9045
vn -0.7068 0.7074 -0.0000
vn -0.3016 0.3014 0.9045
vn -0.7068 -0.7074 -0.0000
vn -0.3016 -0.3014 0.9045
vn -0.0000 -0.7071 -0.7071
vn -0.5774 -0.5774 -0.5774
vn -0.5774 0.5774 -0.5774
vn -0.0000 0.7071 -0.7071
vn -0.5774 0.5774 0.5774
vn -0.0000 0.7071 0.7071
vn -0.5774 -0.5774 0.5774
vn -0.0000 -0.7071 0.7071
vn -0.3015 0.9045 -0.3015
vn 0.3015 0.9045 -0.3015
vn 0.5774 0.5774 -0.5774
vn 0.3015 0.9045 0.3015
vn 0.5774 0.5774 0.5773
vn -0.3015 0.9045 0.3015
vn -0.5774 0.5774 0.5773
vn 0.5774 -0.5774 -0.5774
vn 0.5774 0.5774 0.5774
vn 0.5774 -0.5774 0.5774
vn -0.7072 -0.7070 -0.0004
vn -0.3016 -0.3017 0.9045
vn 0.7072 -0.7070 -0.0004
vn 0.3016 -0.3017 0.9045
vn 0.7074 0.7068 -0.0000
vn 0.3014 0.3016 0.9045
vn -0.7074 0.7068 -0.0000
vn -0.3014 0.3016 0.9045
vn -0.3016 0.3017 0.9045
vn -0.7072 0.7070 -0.0004
vn 0.7072 0.7070 -0.0004
vn 0.3016 0.3017 0.9045
vn 0.7074 -0.7068 -0.0000
vn 0.3014 -0.3016 0.9045
vn -0.7074 -0.7068 -0.0000
vn -0.3014 -0.3016 0.9045
vn 0.5768 -0.5790 0.5763
vn -0.7071 -0.7071 -0.0000
vn 0.7057 -0.7085 -0.0041
vn -0.5773 -0.5773 0.5774
vn -0.7071 0.7071 -0.0000
vn 0.7059 0.7083 -0.0041
vn 0.5815 0.5751 0.5754
vn -0.3015 -0.9045 -0.3015
vn 0.3015 -0.9045 -0.3015
vn -0.3015 -0.9045 0.3015
vn 0.3015 -0.9045 0.3015
vn -0.5790 -0.5768 0.5763
vn -0.7085 -0.7057 -0.0041
vn -0.5773 0.5773 0.5774
vn 0.7071 0.7071 -0.0000
vn 0.7083 -0.7059 -0.0041
vn 0.5751 -0.5815 0.5754
vn 0.7057 0.7085 -0.0041
vn 0.5768 0.5790 0.5763
vn -0.5774 -0.5774 0.5773
vn 0.7059 -0.7083 -0.0041
vn 0.5815 -0.5751 0.5754
vn 0.5773 -0.5774 -0.5773
vn -0.5773 -0.5774 -0.5773
vn -0.5773 0.5774 -0.5773
vn 0.5773 0.5774 -0.5773
vn 0.5775 0.5780 0.5765
vn 0.5772 -0.5767 0.5782
vn -0.5772 -0.5767 0.5782
vn -0.5775 0.5780 0.5765
vn -0.5790 0.5768 0.5763
vn -0.7085 0.7057 -0.0041
vn 0.5774 -0.5774 0.5773
vn 0.7071 -0.7071 -0.0000
vn 0.7083 0.7059 -0.0041
vn 0.5751 0.5815 0.5754
vt 0.687500 0.843750
vt 0.666504 0.843750
vt 0.666504 0.677246
vt 0.687500 0.677246
vt 0.666504 0.614746
vt 0.750000 0.614746
vt 0.750000 0.677246
vt 0.916504 0.781250
vt 0.916504 0.677246
vt 0.875000 0.677246
vt 0.875000 0.781250
vt 0.833008 0.677246
vt 0.833008 0.781250
vt 1.000000 0.781250
vt 1.000000 0.677246
vt 0.958008 0.677246
vt 0.958008 0.781250
vt 0.833008 0.020996
vt 0.854004 0.020996
vt 0.854004 0.437500
vt 0.833008 0.437500
vt 0.666504 0.437500
vt 0.687500 0.437500
vt 0.687500 0.020996
vt 0.666504 0.020996
vt 0.687500 0.864624
vt 0.708008 0.843750
vt 0.708008 0.864624
vt 0.729004 0.843750
vt 0.708008 0.677246
vt 0.729004 0.677246
vt 0.875000 0.822998
vt 0.937500 0.822998
vt 0.937500 0.781250
vt 1.000000 0.020996
vt 1.000000 0.437500
vt 1.000000 0.531250
vt 0.854004 0.531250
vt 1.000000 0.822998
vt 0.687500 0.000000
vt 0.833008 0.000000
vt 0.833008 0.531250
vt 0.666504 0.531250
vt 0.687500 0.531250
vt 0.812500 0.781250
vt 0.812500 0.822998
vt 0.750000 0.822998
vt 0.750000 0.781250
vt 0.822754 0.833374
vt 0.864258 0.833374
vt 0.822754 0.875000
vt 0.864258 0.875000
vt 0.812500 0.885437
vt 0.875000 0.885437
vt 0.750000 0.843750
vt 0.916504 0.614746
vt 1.000000 0.614746
vt 0.000031 0.000000
vt 0.666504 0.000000
vt 0.666504 0.666748
vt 0.000031 0.666748
vt 0.833008 0.614746
vt 0.781250 0.583496
vt 0.801758 0.583496
vt 0.781250 0.562500
vt 0.801758 0.562500
vt 0.750000 0.531250
vt 0.801758 0.708496
vt 0.781250 0.708496
vt 0.801758 0.729248
vt 0.781250 0.729248
vt 0.833008 0.760498
vt 0.750000 0.760498
s 1
usemtl MI_Lumbersaw
f 28/1/24 22/2/12 21/3/18 27/4/23
f 103/3/68 102/5/67 107/6/72 108/7/73
f 53/8/40 54/9/41 52/10/39 51/11/38
f 93/11/2 89/10/3 91/12/5 94/13/4
f 94/14/4 91/15/5 92/16/7 96/17/6
f 47/18/16 46/19/11 48/20/10 45/21/17
f 13/22/10 20/23/17 19/24/16 14/25/11
f 65/26/25 72/1/27 70/27/16 68/28/11
f 68/29/11 70/27/16 69/30/53 66/31/51
f 85/11/45 86/32/63 84/33/57 82/34/48
f 47/18/16 45/21/17 43/23/15 44/24/14
f 5/14/2 11/17/8 12/16/9 6/15/3
f 46/19/11 42/35/12 41/36/13 48/20/10
f 26/27/22 25/30/21 23/31/19 24/29/20
f 13/37/10 16/38/13 30/19/20 29/35/25
f 76/33/57 74/34/48 75/14/56 73/39/55
f 18/21/15 16/20/13 15/19/12 17/18/14
f 14/40/11 19/24/16 17/18/14 15/41/12
f 16/38/13 18/42/15 31/18/26 30/19/20
f 100/24/26 98/25/20 41/43/13 43/44/15
f 40/16/35 39/17/34 37/8/32 38/9/33
f 51/11/38 52/10/39 49/12/36 50/13/37
f 56/16/43 54/9/41 53/8/40 55/17/42
f 38/9/33 37/8/32 35/11/30 36/10/31
f 16/20/13 13/36/10 14/35/11 15/19/12
f 57/39/44 60/33/47 58/34/45 59/14/46
f 97/19/25 48/38/10 41/37/13 98/35/20
f 29/25/25 32/24/27 20/44/17 13/43/10
f 24/28/20 22/26/12 28/1/24 26/27/22
f 36/10/31 35/11/30 33/13/28 34/12/29
f 50/14/37 49/15/36 56/16/43 55/17/42
f 92/16/7 90/9/9 95/8/8 96/17/6
f 33/14/28 39/17/34 40/16/35 34/15/29
f 28/1/24 27/4/23 25/30/21 26/27/22
f 20/44/17 32/24/27 31/18/26 18/42/15
f 87/45/64 88/46/65 86/32/63 85/11/45
f 83/47/62 88/46/65 87/45/64 81/48/61
f 64/46/50 62/32/24 8/49/5
f 10/50/7 8/49/5 62/32/24
f 8/49/5 6/51/3 64/46/50
f 10/50/7 62/32/24 12/52/9
f 57/53/44 64/46/50 6/51/3
f 12/52/9 62/32/24 60/54/47
f 6/51/3 60/54/47 57/53/44
f 12/52/9 60/54/47 6/51/3
f 72/1/27 65/2/25 67/3/52 71/4/54
f 65/55/25 68/29/11 66/31/51 67/7/52
f 31/18/26 32/24/27 29/40/25 30/41/20
f 104/9/69 101/56/66 102/57/67 103/15/68
f 19/24/16 20/23/17 18/21/15 17/18/14
f 70/27/16 72/1/27 71/4/54 69/30/53
f 62/32/24 61/11/48 58/34/45 60/33/47
f 64/46/50 63/45/49 61/11/48 62/32/24
f 116/46/79 115/45/78 111/48/75 110/47/74
f 80/46/60 78/32/22 36/49/31
f 38/50/33 36/49/31 78/32/22
f 36/49/31 34/51/29 80/46/60
f 38/50/33 78/32/22 40/52/35
f 73/53/55 80/46/60 34/51/29
f 76/54/57 40/52/35 78/32/22
f 34/51/29 76/54/57 73/53/55
f 40/52/35 76/54/57 34/51/29
f 42/25/12 44/24/14 43/23/15 41/22/13
f 24/29/20 23/31/19 21/7/18 22/55/12
f 80/46/60 73/47/55 75/48/56 79/45/59
f 88/46/65 89/49/3 86/32/63
f 90/50/9 86/32/63 89/49/3
f 89/49/3 88/46/65 91/51/5
f 90/50/9 92/52/7 86/32/63
f 83/53/62 91/51/5 88/46/65
f 84/54/57 86/32/63 92/52/7
f 91/51/5 83/53/62 84/54/57
f 92/52/7 91/51/5 84/54/57
f 6/12/3 8/10/5 7/11/4 5/13/2
f 8/10/5 10/9/7 9/8/6 7/11/4
f 12/16/9 11/17/8 9/8/6 10/9/7
f 95/8/8 90/9/9 89/10/3 93/11/2
f 43/44/15 45/42/17 99/18/27 100/24/26
f 46/41/11 47/18/16 44/24/14 42/40/12
f 4/58/1 2/59/1 3/60/1 1/61/1
f 100/24/26 99/18/27 97/41/25 98/40/20
f 99/18/27 45/42/17 48/38/10 97/19/25
f 82/34/48 84/33/57 83/39/62 81/14/61
f 116/46/79 113/32/76 114/11/77 115/45/78
f 78/32/22 77/11/58 74/34/48 76/33/57
f 106/62/71 107/6/72 69/63/53
f 71/64/54 106/62/71 69/63/53
f 71/64/54 101/42/66 106/62/71
f 66/65/51 69/63/53 107/6/72
f 67/66/52 101/42/66 71/64/54
f 67/66/52 102/67/67 101/42/66
f 66/65/51 102/67/67 67/66/52
f 66/65/51 107/6/72 102/67/67
f 105/12/70 106/62/71 101/56/66 104/9/69
f 25/68/21 108/7/73 105/12/70
f 27/69/23 108/7/73 25/68/21
f 25/68/21 105/12/70 23/70/19
f 27/69/23 21/71/18 108/7/73
f 23/70/19 105/12/70 104/72/69
f 23/70/19 104/72/69 21/71/18
f 103/73/68 108/7/73 21/71/18
f 104/72/69 103/73/68 21/71/18
f 108/7/73 107/6/72 106/62/71 105/12/70
f 109/34/45 112/33/47 110/39/74 111/14/75
f 80/46/60 79/45/59 77/11/58 78/32/22
f 64/46/50 57/47/44 59/48/46 63/45/49
f 116/46/79 52/49/39 113/32/76
f 54/50/41 113/32/76 52/49/39
f 52/49/39 116/46/79 49/51/36
f 54/50/41 56/52/43 113/32/76
f 110/53/74 49/51/36 116/46/79
f 56/52/43 112/54/47 113/32/76
f 110/53/74 112/54/47 49/51/36
f 56/52/43 49/51/36 112/54/47
f 114/11/77 113/32/76 112/33/47 109/34/45
