# Blender 5.0.1
# www.blender.org
mtllib BP_LootUrn_New_Pattern03.mtl
o SM_Urn_Loot_New.001
v 49.999989 100.000008 50.331520
v -50.000008 100.000008 50.331532
v -49.999996 0.000000 50.331532
v 49.999992 0.000000 50.331520
v 18.749998 56.249996 18.750002
v -18.749998 56.250004 -18.750002
v -18.750002 56.249996 18.750002
v 18.750002 56.250004 -18.750002
v -49.999996 0.000000 -50.331532
v 50.000008 100.000008 -50.331532
v 50.000011 0.000000 -50.331532
v -50.000008 100.000008 -50.331532
v 49.999992 0.000000 50.331520
v -49.999996 0.000000 50.331532
v -49.999996 0.000000 -50.331532
v 50.000011 0.000000 -50.331532
v 49.999989 100.000008 50.331520
v 49.999992 0.000000 50.331520
v 50.000008 100.000008 -50.331532
v 50.000011 0.000000 -50.331532
v -50.000008 100.000008 50.331532
v -49.999996 0.000000 -50.331532
v -49.999996 0.000000 50.331532
v -50.000008 100.000008 -50.331532
v -31.250002 150.000000 31.250002
v 31.249998 99.999992 31.250008
v 31.250002 150.000000 31.250002
v -31.250002 99.999992 31.250008
v 31.250002 150.000000 31.250002
v 31.249998 99.999992 -31.249994
v 31.250002 150.000000 -31.250002
v 31.249998 99.999992 31.250008
v -31.250002 99.999992 -31.249994
v -31.249998 150.000000 -31.250002
v 31.249998 99.999992 -31.249994
v 31.250002 150.000000 -31.250002
v -31.250002 150.000000 31.250002
v -31.250002 99.999992 -31.249994
v -31.250002 99.999992 31.250008
v -31.249998 150.000000 -31.250002
v -18.750002 56.249996 18.750002
v -18.750002 150.000000 18.750008
v 18.749998 56.249996 18.750002
v 18.749998 150.000000 18.750008
v 18.749998 150.000000 -18.749994
v 18.750002 56.250004 -18.750002
v 18.749998 150.000000 18.750008
v 18.749998 56.249996 18.750002
v -18.750002 150.000000 -18.749994
v -18.749998 56.250004 -18.750002
v 18.749998 150.000000 -18.749994
v 18.750002 56.250004 -18.750002
v -18.750002 150.000000 18.750008
v -18.749998 56.250004 -18.750002
v -18.750002 150.000000 -18.749994
v -18.750002 56.249996 18.750002
v -31.250002 99.999992 31.250008
v 49.999989 100.000008 50.331520
v 31.249998 99.999992 31.250008
v 31.249998 99.999992 -31.249994
v -50.000008 100.000008 50.331532
v 50.000008 100.000008 -50.331532
v -31.250002 99.999992 -31.249994
v -50.000008 100.000008 -50.331532
v -31.250002 150.000000 31.250002
v 18.749998 150.000000 18.750008
v -18.750002 150.000000 18.750008
v -18.750002 150.000000 -18.749994
v 31.250002 150.000000 31.250002
v -31.249998 150.000000 -31.250002
v 18.749998 150.000000 -18.749994
v 31.250002 150.000000 -31.250002
vn -0.0000 -0.0000 1.0000
vn -0.0000 1.0000 -0.0000
vn -0.0000 -0.0000 -1.0000
vn -0.0000 -1.0000 -0.0000
vn 1.0000 -0.0000 -0.0000
vn -1.0000 -0.0000 -0.0000
vt 0.250000 0.250000
vt 0.250000 0.500000
vt 0.000031 0.500000
vt 0.000031 0.250000
vt 0.500000 0.999969
vt 0.499512 0.750000
vt 0.750488 0.750366
vt 0.750000 0.999969
vt 0.562500 0.750000
vt 0.562500 0.640625
vt 0.718750 0.640625
vt 0.718750 0.750000
vt 0.406250 0.640625
vt 0.406250 0.421875
vt 0.500000 0.421875
vt 0.500000 0.640625
vt 0.250000 0.640625
vt 0.406250 0.750000
vt 0.250000 0.750000
vt 0.687500 0.421875
vt 0.687500 0.640625
vt 0.593750 0.640625
vt 0.593750 0.421875
vt 1.000000 0.750366
vt 1.000000 0.999969
vt 0.875000 0.640625
vt 0.875000 0.750000
vt 0.375000 0.609375
vt 0.281250 0.609375
vt 0.281250 0.515625
vt 0.375000 0.515625
vt 0.781250 0.421875
vt 0.781250 0.640625
vt 0.250000 0.999969
vt 0.249390 0.750610
vt -0.001409 0.751221
vt 0.000031 0.999969
vt 0.046875 0.546875
vt 0.046875 0.703125
vt 0.203125 0.546875
vt 0.000031 0.750000
vt 0.203125 0.703125
vt 0.250000 0.484375
vt 0.406250 0.484375
s 1
usemtl MI_Urn_Loot_New_Pattern03
f 16/1/4 13/2/4 14/3/4 15/4/4
f 24/5/6 22/6/6 23/7/6 21/8/6
f 40/9/6 38/10/6 39/11/6 37/12/6
f 44/13/3 43/14/3 41/15/3 42/16/3
f 32/17/5 30/13/5 31/18/5 29/19/5
f 52/20/1 51/21/1 49/22/1 50/23/1
f 4/24/1 1/25/1 2/8/1 3/7/1
f 28/11/1 26/26/1 27/27/1 25/12/1
f 8/28/2 6/29/2 7/30/2 5/31/2
f 46/20/6 48/32/6 47/33/6 45/21/6
f 12/5/3 10/34/3 11/35/3 9/6/3
f 18/36/5 20/35/5 19/34/5 17/37/5
f 36/18/3 35/13/3 33/10/3 34/9/3
f 59/38/2 57/39/2 58/3/2
f 59/38/2 58/3/2 60/40/2
f 61/41/2 58/3/2 57/39/2
f 60/40/2 58/3/2 62/2/2
f 57/39/2 63/42/2 61/41/2
f 62/2/2 64/19/2 60/40/2
f 64/19/2 61/41/2 63/42/2
f 63/42/2 60/40/2 64/19/2
f 67/30/2 65/43/2 66/31/2
f 67/30/2 68/29/2 65/43/2
f 66/31/2 65/43/2 69/44/2
f 70/17/2 65/43/2 68/29/2
f 66/31/2 69/44/2 71/28/2
f 68/29/2 71/28/2 70/17/2
f 71/28/2 69/44/2 72/13/2
f 72/13/2 70/17/2 71/28/2
f 56/15/5 54/23/5 55/22/5 53/16/5
