# Blender 5.0.1
# www.blender.org
mtllib BP_Labtank.mtl
o SM_Labtank.001
v -6.249999 -31.249998 149.966537
v -6.250000 -18.750006 149.966537
v -18.750000 -18.750006 149.966537
v -31.249994 -18.750006 149.966537
v -31.249992 -31.249998 149.966537
v -18.750000 18.749994 149.966537
v -18.750000 -18.750006 149.966537
v -31.249998 18.749994 149.966537
v -31.250000 31.249987 149.966537
v -6.249999 31.249987 149.966537
v -6.250000 18.749994 149.966537
v 31.249992 -31.249998 149.966537
v 6.250000 -31.249998 149.966537
v 31.249992 -31.249998 118.750000
v 6.250000 -31.249998 118.750000
v 31.249992 -31.249996 75.000000
v 6.250000 -31.249996 75.000000
v 6.250001 31.249987 118.750000
v 6.250001 31.249987 149.966537
v 31.249992 31.249987 149.966537
v 31.249992 31.249987 118.750000
v 6.250001 31.249989 75.000000
v 31.249992 31.249989 75.000000
v 31.249992 -18.750004 75.000000
v 31.249992 -18.750006 118.750000
v 31.249992 -31.249996 75.000000
v 31.249992 -31.249998 118.750000
v 31.249992 -18.750006 149.966537
v 31.249992 -31.249998 149.966537
v 31.249992 18.749994 118.750000
v 31.249992 18.749994 149.966537
v 31.249992 31.249987 118.750000
v 31.249992 31.249987 149.966537
v 31.249992 31.249989 75.000000
v 31.249992 18.749996 75.000000
v 18.750000 18.749994 149.966537
v 6.250001 31.249987 149.966537
v 6.250000 18.749994 149.966537
v 31.249992 31.249987 149.966537
v 31.249992 18.749994 149.966537
v 18.750000 -18.750006 149.966537
v 31.249992 -18.750006 149.966537
v 31.249992 -31.249998 149.966537
v 6.250000 -31.249998 149.966537
v -6.250000 -31.249998 118.750000
v -31.249992 -31.249996 75.000000
v -6.249999 -31.249996 75.000000
v -31.249992 -31.249998 118.750000
v -31.249992 -31.249998 149.966537
v -6.249999 -31.249998 149.966537
v -6.250001 31.249987 118.750000
v -31.250000 31.249987 149.966537
v -6.249999 31.249987 149.966537
v -31.250000 31.249987 118.750000
v -31.250000 31.249989 75.000000
v -6.249999 31.249989 75.000000
v -31.249992 -31.249998 118.750000
v -31.249992 -31.249998 149.966537
v -31.249994 -18.750006 149.966537
v -31.249994 -18.750006 118.750000
v -31.249992 -31.249996 75.000000
v -31.249998 18.749994 149.966537
v -31.249994 -18.750004 75.000000
v -31.250000 31.249987 118.750000
v -31.250000 31.249987 149.966537
v -31.249998 18.749994 118.750000
v -31.249998 18.749996 75.000000
v -31.250000 31.249989 75.000000
v 18.750000 18.749992 162.499985
v 18.750000 -18.750008 162.499985
v 18.750000 -18.750006 149.966537
v 18.750000 18.749994 149.966537
v -18.750000 -18.750008 162.499985
v -18.750000 18.749994 149.966537
v -18.750000 -18.750006 149.966537
v -18.750000 18.749992 162.499985
v 6.250000 -18.750006 149.966537
v 37.500000 -37.500004 74.966530
v -37.500000 -37.500004 74.966530
v -37.500000 -37.500000 -0.000002
v 37.500000 -37.500000 -0.000002
v 37.500000 -37.500004 74.966530
v 37.500000 37.499996 74.966530
v -37.500000 -37.500004 74.966530
v -37.500000 37.499996 74.966530
v 37.500000 37.500000 0.000002
v -37.500000 37.500000 0.000002
v -37.500000 37.499996 74.966530
v 37.500000 37.499996 74.966530
v 37.500000 -37.500000 -0.000002
v -37.500000 -37.500000 -0.000002
v -37.500000 37.500000 0.000002
v 37.500000 37.500000 0.000002
v 37.500000 -37.500004 74.966530
v 37.500000 -37.500000 -0.000002
v 37.500000 37.499996 74.966530
v 37.500000 37.500000 0.000002
v -37.500000 -37.500004 74.966530
v -37.500000 37.500000 0.000002
v -37.500000 -37.500000 -0.000002
v -37.500000 37.499996 74.966530
v 6.250000 18.749992 162.499985
v 18.750000 -18.750008 162.499985
v 18.750000 18.749992 162.499985
v 6.250000 -18.750008 162.499985
v -6.250000 18.749992 162.499985
v -6.250000 -18.750008 162.499985
v -18.750000 -18.750008 162.499985
v -18.750000 18.749992 162.499985
v 18.750000 -18.750008 162.499985
v 6.250000 -18.750008 162.499985
v 18.750000 -18.750006 149.966537
v 6.250000 -18.750006 149.966537
v -6.250000 -18.750008 162.499985
v -6.250000 -18.750006 149.966537
v -18.750000 -18.750006 149.966537
v -18.750000 -18.750008 162.499985
v -6.250000 18.749992 162.499985
v -18.750000 18.749994 149.966537
v -18.750000 18.749992 162.499985
v -6.250000 18.749994 149.966537
v 6.250000 18.749992 162.499985
v 6.250000 18.749994 149.966537
v 18.750000 18.749994 149.966537
v 18.750000 18.749992 162.499985
vn -0.0000 -0.0000 1.0000
vn -0.0000 -1.0000 -0.0000
vn -0.0000 1.0000 -0.0000
vn 1.0000 -0.0000 -0.0000
vn -1.0000 -0.0000 -0.0000
vn -0.0000 -0.0000 -1.0000
vt 0.187500 0.968750
vt 0.156250 0.937500
vt 0.187500 0.937500
vt 0.156250 0.999969
vt 0.187500 0.999969
vt 0.281250 0.968750
vt 0.312500 0.999969
vt 0.281250 0.999969
vt 0.312500 0.937500
vt 0.281250 0.937500
vt 0.500000 0.765747
vt 0.500000 0.843750
vt 0.468750 0.843750
vt 0.468750 0.765747
vt 0.031250 0.937500
vt 0.031250 0.906250
vt 0.125000 0.906250
vt 0.125000 0.937500
vt 0.281250 0.765747
vt 0.187500 0.765747
vt 0.187500 0.656250
vt 0.281250 0.656250
vt 0.031250 0.843750
vt 0.125000 0.843750
vt 0.125000 0.875000
vt 0.031250 0.875000
vt 0.187500 0.875000
vt 0.187500 0.843750
vt 0.281250 0.843750
vt 0.281250 0.875000
vt 0.312500 0.656250
vt 0.312500 0.765747
vt 0.031250 0.968750
vt 0.000031 0.968750
vt 0.000031 0.937500
vt 0.593750 0.765747
vt 0.593750 0.843750
vt 0.406250 0.765747
vt 0.406250 0.843750
vt 0.375000 0.843750
vt 0.375000 0.765747
vt 0.281250 0.906250
vt 0.312500 0.906250
vt 0.312500 0.843750
vt 0.093750 0.843750
vt 0.093750 0.765747
vt 0.156250 0.765747
vt 0.156250 0.843750
vt 0.156250 0.906250
vt 0.062500 0.843750
vt 0.000031 0.843750
vt 0.000031 0.765747
vt 0.062500 0.765747
vt 0.375000 0.656250
vt 0.062500 0.656250
vt 0.093750 0.656250
vt 0.625000 0.765747
vt 0.625000 0.843750
vt 0.375000 0.281250
vt 0.187500 0.281250
vt 0.187500 0.093750
vt 0.375000 0.093750
vt 0.156250 0.656250
vt 0.156250 0.875000
vt 0.125000 0.968750
vt 0.125000 0.999969
vt 0.031250 0.999969
vt 0.000031 0.656250
vt 0.187500 0.906250
vt 0.000031 0.906250
vt 0.375000 0.468750
vt 0.562500 0.281250
vt 0.562500 0.468750
vt 0.187500 0.468750
vt 0.406250 0.656250
vt 0.468750 0.656250
vt 0.750000 0.281250
vt 0.750000 0.468750
vt 0.500000 0.656250
vt 0.000031 0.875000
vt 0.156250 0.968750
vt 0.593750 0.656250
vt 0.625000 0.656250
vt 0.000031 0.468750
vt 0.000031 0.281250
s 1
usemtl WorldGridMaterial
f 3/1/1 1/2/1 2/3/1
f 5/4/1 3/1/1 4/5/1
f 6/6/1 9/7/1 8/8/1
f 9/7/1 6/6/1 10/9/1
f 11/10/1 10/9/1 6/6/1
f 66/11/5 62/12/5 65/13/5 64/14/5
f 41/27/1 42/28/1 40/29/1 36/30/1
f 30/19/4 35/22/4 34/31/4 32/32/4
f 66/11/5 60/36/5 59/37/5 62/12/5
f 38/42/1 36/30/1 37/43/1
f 39/44/1 37/43/1 36/30/1
f 36/30/1 40/29/1 39/44/1
f 13/45/2 15/46/2 14/47/2 12/48/2
f 41/27/1 43/48/1 42/28/1
f 41/27/1 44/49/1 43/48/1
f 50/50/2 49/51/2 48/52/2 45/53/2
f 21/32/3 23/31/3 22/54/3 18/41/3
f 60/36/5 57/57/5 58/58/5 59/37/5
f 20/44/3 21/32/3 18/41/3 19/40/3
f 15/46/2 17/56/2 16/63/2 14/47/2
f 31/29/4 28/28/4 25/20/4 30/19/4
f 28/28/4 29/48/4 27/47/4 25/20/4
f 25/20/4 27/47/4 26/63/4 24/21/4
f 51/38/3 54/14/3 52/13/3 53/39/3
f 45/53/2 48/52/2 46/68/2 47/55/2
f 8/8/1 4/5/1 7/1/1 6/6/1
f 56/75/3 55/76/3 54/14/3 51/38/3
f 31/29/4 30/19/4 32/32/4 33/44/4
f 67/79/5 66/11/5 64/14/5 68/76/5
f 63/82/5 61/83/5 57/57/5 60/36/5
f 67/79/5 63/82/5 60/36/5 66/11/5
usemtl WorldGridMaterial
f 107/15/1 105/16/1 102/17/1 106/18/1
f 30/19/4 25/20/4 24/21/4 35/22/4
f 71/23/4 72/24/4 69/25/4 70/26/4
f 114/15/2 117/33/2 116/34/2 115/35/2
f 51/38/3 53/39/3 19/40/3 18/41/3
f 45/53/2 47/55/2 17/56/2 15/46/2
f 93/59/6 90/60/6 91/61/6 92/62/6
f 125/25/3 124/64/3 123/49/3 122/17/3
f 109/65/1 108/33/1 107/15/1 106/18/1
f 15/46/2 13/45/2 50/50/2 45/53/2
f 76/65/5 74/66/5 75/67/5 73/33/5
f 44/49/1 77/69/1 2/3/1 1/2/1
f 38/42/1 37/43/1 10/9/1 11/10/1
f 114/15/2 115/35/2 113/70/2 111/16/2
f 89/71/3 86/59/3 87/72/3 88/73/3
f 95/60/4 97/59/4 96/71/4 94/74/4
f 105/16/1 103/26/1 104/25/1 102/17/1
f 101/73/5 99/72/5 100/77/5 98/78/5
f 85/54/1 84/21/1 82/74/1 83/71/1
f 111/16/2 113/70/2 112/80/2 110/26/2
f 121/2/3 119/81/3 120/65/3 118/18/3
f 123/49/3 121/2/3 118/18/3 122/17/3
f 81/60/2 78/74/2 79/84/2 80/85/2
f 18/41/3 22/54/3 56/75/3 51/38/3
