# Blender 5.0.1
# www.blender.org
mtllib BP_Lilies_Spread.mtl
o SM_Lilies_Spread.001
v 68.750000 -68.133133 98.296280
v 56.250000 -57.307816 92.046280
v 56.250000 -68.133133 98.296280
v 68.750000 -57.307816 92.046280
v 56.250000 -68.133133 98.296280
v 56.250000 -74.383133 87.470963
v 68.750000 -68.133133 98.296280
v 68.750000 -74.383133 87.470963
v 62.500000 -63.344852 90.428658
v 62.500000 -51.270779 93.663895
v 53.661163 -65.632507 98.966316
v 53.661163 -53.558437 102.201553
v 44.822330 -51.270779 93.663895
v 44.822330 -63.344852 90.428658
v 53.661163 -65.632507 98.966316
v 53.661163 -53.558437 102.201553
v 56.250000 -51.057812 102.871597
v 68.750000 -57.307812 92.046280
v 68.750000 -51.057812 102.871597
v 56.250000 -57.307812 92.046280
v 68.750000 -40.232498 96.621597
v 56.250000 -51.057812 102.871597
v 68.750000 -51.057812 102.871597
v 56.250000 -40.232498 96.621597
v 71.338837 -65.632507 98.966316
v 62.500000 -51.270779 93.663895
v 62.500000 -63.344852 90.428658
v 71.338837 -53.558437 102.201553
v 80.177673 -51.270779 93.663895
v 71.338837 -65.632507 98.966316
v 80.177673 -63.344852 90.428658
v 71.338837 -53.558437 102.201553
v -40.088837 -50.000000 85.669418
v -31.250000 -50.000000 76.830582
v -31.250000 -37.500000 76.830582
v -40.088837 -37.500000 85.669418
v -48.927666 -50.000000 76.830582
v -40.088837 -50.000000 85.669418
v -48.927666 -37.500000 76.830582
v -40.088837 -37.500000 85.669418
v -37.500000 -43.750000 76.830582
v -25.000000 -43.750000 76.830582
v -37.500000 -34.911163 85.669418
v -25.000000 -34.911163 85.669418
v -25.000000 -26.072330 76.830582
v -37.500000 -26.072330 76.830582
v -37.500000 -34.911163 85.669418
v -25.000000 -34.911163 85.669418
v -22.411163 -50.000000 85.669418
v -22.411163 -37.500000 85.669418
v -31.250000 -50.000000 76.830582
v -31.250000 -37.500000 76.830582
v -13.572329 -50.000000 76.830582
v -22.411163 -37.500000 85.669418
v -22.411163 -50.000000 85.669418
v -13.572329 -37.500000 76.830582
v -25.000000 -52.588837 85.669418
v -37.500000 -43.750000 76.830582
v -37.500000 -52.588837 85.669418
v -25.000000 -43.750000 76.830582
v -37.500000 -52.588837 85.669418
v -37.500000 -61.427670 76.830582
v -25.000000 -52.588837 85.669418
v -25.000000 -61.427670 76.830582
v -65.088837 43.750000 108.838837
v -56.250000 43.750000 100.000000
v -56.250000 56.250000 100.000000
v -65.088837 56.250000 108.838837
v -73.927673 43.750000 100.000000
v -65.088837 43.750000 108.838837
v -73.927673 56.250000 100.000000
v -65.088837 56.250000 108.838837
v -62.500000 58.838837 108.838837
v -50.000000 50.000000 100.000000
v -50.000000 58.838837 108.838837
v -62.500000 50.000000 100.000000
v -50.000000 67.677673 100.000000
v -62.500000 67.677673 100.000000
v -62.500000 58.838837 108.838837
v -50.000000 58.838837 108.838837
v -47.411163 56.250000 108.838837
v -56.250000 43.750000 100.000000
v -47.411163 43.750000 108.838837
v -56.250000 56.250000 100.000000
v -38.572327 43.750000 100.000000
v -47.411163 56.250000 108.838837
v -47.411163 43.750000 108.838837
v -38.572327 56.250000 100.000000
v -50.000000 50.000000 100.000000
v -62.500000 50.000000 100.000000
v -50.000000 41.161163 108.838837
v -62.500000 41.161163 108.838837
v -62.500000 41.161163 108.838837
v -62.500000 32.322330 100.000000
v -50.000000 41.161163 108.838837
v -50.000000 32.322330 100.000000
v 57.766502 25.000000 101.516502
v 57.766502 25.000000 89.016502
v 57.766502 37.500000 89.016502
v 57.766502 37.500000 101.516502
v 45.266502 25.000000 101.516502
v 57.766502 25.000000 101.516502
v 45.266502 37.500000 101.516502
v 57.766502 37.500000 101.516502
v 68.435921 40.088837 90.847084
v 53.347084 31.250000 93.435921
v 62.185921 31.250000 84.597084
v 59.597084 40.088837 99.685921
v 68.435921 40.088837 90.847084
v 53.347084 48.927670 93.435921
v 59.597084 40.088837 99.685921
v 62.185921 48.927670 84.597084
v 70.266502 25.000000 89.016502
v 70.266502 37.500000 89.016502
v 57.766502 25.000000 89.016502
v 57.766502 37.500000 89.016502
v 70.266502 25.000000 76.516502
v 70.266502 37.500000 89.016502
v 70.266502 25.000000 89.016502
v 70.266502 37.500000 76.516502
v 68.435921 22.411165 90.847084
v 53.347084 31.250000 93.435921
v 59.597084 22.411165 99.685921
v 62.185921 31.250000 84.597084
v 53.347084 13.572330 93.435921
v 62.185921 13.572330 84.597084
v 68.435921 22.411165 90.847084
v 59.597084 22.411165 99.685921
v -6.250000 50.440945 92.046280
v 6.250000 50.440945 92.046280
v -6.250000 61.266258 98.296280
v 6.250000 61.266258 98.296280
v 6.250000 67.516258 87.470963
v -6.250000 67.516258 87.470963
v -6.250000 61.266258 98.296280
v 6.250000 61.266258 98.296280
v 8.838835 58.765636 98.966316
v 0.000001 44.403908 93.663895
v 8.838835 46.691566 102.201553
v 0.000001 56.477982 90.428658
v 17.677670 44.403908 93.663895
v 8.838835 58.765636 98.966316
v 8.838835 46.691566 102.201553
v 17.677670 56.477982 90.428658
v 6.250000 50.440941 92.046280
v -6.250000 50.440941 92.046280
v 6.250000 44.190941 102.871597
v -6.250000 44.190941 102.871597
v -6.250000 33.365623 96.621597
v 6.250000 33.365623 96.621597
v 6.250000 44.190941 102.871597
v -6.250000 44.190941 102.871597
v -0.000001 44.403908 93.663895
v -8.838835 58.765636 98.966316
v -8.838835 46.691566 102.201553
v -0.000001 56.477982 90.428658
v -8.838835 58.765636 98.966316
v -17.677670 44.403908 93.663895
v -8.838835 46.691566 102.201553
v -17.677670 56.477982 90.428658
v 25.000000 31.250000 62.500000
v 25.000000 31.250000 -0.000000
v 37.500000 31.250000 62.500000
v 37.500000 31.250000 -0.000000
v 31.250000 37.500000 -0.000000
v 31.250000 37.500000 62.500000
v 31.250000 25.000000 -0.000000
v 31.250000 25.000000 62.500000
v 35.669418 31.250000 58.080582
v 53.347088 31.250000 93.435921
v 26.830584 31.250000 66.919418
v 62.185921 31.250000 84.597092
v 31.250000 37.500000 62.500000
v 57.766502 37.500000 89.016502
v 31.250000 25.000000 62.500000
v 57.766502 25.000000 89.016502
v -69.366867 0.000000 43.750000
v -69.366867 0.000000 0.000000
v -56.866867 0.000000 43.750000
v -56.866867 0.000000 0.000000
v -63.116867 6.250000 -0.000000
v -63.116867 6.250000 43.750000
v -63.116867 -6.250000 0.000000
v -63.116867 -6.250000 43.750000
v -57.079834 0.000000 45.367619
v -70.020782 0.000000 93.663910
v -69.153908 0.000000 42.132381
v -82.094864 0.000000 90.428673
v -63.116867 6.250000 43.750000
v -76.057816 6.250000 92.046295
v -63.116867 -6.250000 43.750000
v -76.057816 -6.250000 92.046295
v -37.500000 -43.750000 76.830582
v -37.500000 -43.750000 0.000000
v -25.000000 -43.750000 76.830582
v -25.000000 -43.750000 0.000000
v -31.250000 -37.500000 0.000000
v -31.250000 -37.500000 76.830582
v -31.250000 -50.000000 0.000000
v -31.250000 -50.000000 76.830582
v -62.500000 50.000000 100.000000
v -62.500000 50.000000 -0.000000
v -50.000000 50.000000 100.000000
v -50.000000 50.000000 -0.000000
v -56.250000 56.250000 -0.000000
v -56.250000 56.250000 100.000000
v -56.250000 43.750000 -0.000000
v -56.250000 43.750000 100.000000
v 56.250000 -38.116871 0.000000
v 56.250000 -38.116871 43.750000
v 56.250000 -50.616871 0.000000
v 56.250000 -50.616871 43.750000
v 50.000000 -44.366871 43.750000
v 62.500000 -44.366871 0.000000
v 50.000000 -44.366871 0.000000
v 62.500000 -44.366871 43.750000
v 56.250000 -38.329834 45.367619
v 56.250000 -51.270786 93.663910
v 56.250000 -50.403908 42.132381
v 56.250000 -63.344860 90.428673
v 50.000000 -57.307823 92.046295
v 62.500000 -44.366871 43.750000
v 50.000000 -44.366871 43.750000
v 62.500000 -57.307823 92.046295
v 6.250000 31.250000 43.750000
v 6.250000 43.750000 -0.000000
v 6.250000 31.250000 -0.000000
v 6.250000 43.750000 43.750000
v 0.000000 37.500000 43.750000
v 0.000000 37.500000 -0.000000
v 12.500000 37.500000 43.750000
v 12.500000 37.500000 -0.000000
v 6.250000 56.477989 90.428673
v 6.250000 43.537037 42.132381
v 6.250000 44.403915 93.663910
v 6.250000 31.462963 45.367619
v 0.000000 50.440952 92.046295
v 0.000000 37.500000 43.750000
v 12.500000 50.440952 92.046295
v 12.500000 37.500000 43.750000
v 12.500000 -18.750000 76.830582
v 12.500000 -18.750000 0.000000
v 25.000000 -18.750000 76.830582
v 25.000000 -18.750000 0.000000
v 18.750000 -12.500000 0.000000
v 18.750000 -12.500000 76.830582
v 18.750000 -25.000000 0.000000
v 18.750000 -25.000000 76.830582
v 9.911165 -25.000000 83.838837
v 18.749998 -25.000000 75.000000
v 18.749998 -12.500000 75.000000
v 9.911165 -12.500000 83.838837
v 1.072330 -25.000000 75.000000
v 9.911165 -25.000000 83.838837
v 1.072330 -12.500000 75.000000
v 9.911165 -12.500000 83.838837
v 12.500000 -9.911163 83.838837
v 25.000000 -18.750000 75.000000
v 25.000000 -9.911163 83.838837
v 12.500000 -18.750000 75.000000
v 25.000000 -1.072330 75.000000
v 12.500000 -1.072330 75.000000
v 12.500000 -9.911163 83.838837
v 25.000000 -9.911163 83.838837
v 27.588835 -12.500000 83.838837
v 18.750002 -25.000000 75.000000
v 27.588835 -25.000000 83.838837
v 18.750002 -12.500000 75.000000
v 36.427670 -25.000000 75.000000
v 27.588835 -12.500000 83.838837
v 27.588835 -25.000000 83.838837
v 36.427670 -12.500000 75.000000
v 25.000000 -27.588837 83.838837
v 12.500000 -18.750000 75.000000
v 12.500000 -27.588837 83.838837
v 25.000000 -18.750000 75.000000
v 12.500000 -27.588837 83.838837
v 12.500000 -36.427670 75.000000
v 25.000000 -27.588837 83.838837
v 25.000000 -36.427670 75.000000
v -86.883133 -12.500000 98.296280
v -76.057816 -12.500000 92.046280
v -76.057816 0.000000 92.046280
v -86.883133 0.000000 98.296280
v -93.133133 -12.500000 87.470963
v -86.883133 -12.500000 98.296280
v -93.133133 0.000000 87.470963
v -86.883133 0.000000 98.296280
v -70.020782 -6.249999 93.663895
v -84.382507 2.588835 98.966316
v -82.094849 -6.249999 90.428658
v -72.308441 2.588835 102.201553
v -84.382507 2.588835 98.966316
v -70.020782 11.427670 93.663895
v -82.094849 11.427670 90.428658
v -72.308441 2.588835 102.201553
v -69.807816 -12.500000 102.871597
v -69.807816 0.000000 102.871597
v -76.057816 -12.500000 92.046280
v -76.057816 0.000000 92.046280
v -58.982498 -12.500000 96.621597
v -69.807816 0.000000 102.871597
v -69.807816 -12.500000 102.871597
v -58.982498 0.000000 96.621597
v -70.020782 -6.250001 93.663895
v -84.382507 -15.088835 98.966316
v -72.308441 -15.088835 102.201553
v -82.094849 -6.250001 90.428658
v -84.382507 -15.088835 98.966316
v -70.020782 -23.927670 93.663895
v -72.308441 -15.088835 102.201553
v -82.094849 -23.927670 90.428658
vn -0.0000 0.5000 0.8660
vn -0.0000 -0.8660 0.5000
vn 0.7071 -0.1830 0.6830
vn -0.7071 -0.1830 0.6830
vn 0.7071 -0.0000 0.7071
vn -0.7071 -0.0000 0.7071
vn -0.0000 -0.7071 0.7071
vn -0.0000 0.7071 0.7071
vn 1.0000 -0.0000 -0.0000
vn -0.0000 -0.0000 1.0000
vn 0.5000 -0.7071 0.5000
vn 0.5000 0.7071 0.5000
vn -0.0000 -0.5000 0.8660
vn -0.0000 0.8660 0.5000
vn -0.7071 0.1830 0.6830
vn 0.7071 0.1830 0.6830
vn -0.0000 -1.0000 -0.0000
vn 0.7071 -0.0000 -0.7071
vn 0.9659 -0.0000 0.2588
vn -0.0000 1.0000 -0.0000
vn -0.0000 0.9659 0.2588
vn -1.0000 -0.0000 -0.0000
vn -0.0000 -0.9659 0.2588
vn 0.5000 -0.0000 0.8660
vn -0.8660 -0.0000 0.5000
vn -0.1830 -0.7071 0.6830
vn -0.1830 0.7071 0.6830
vt 0.000031 0.625000
vt 0.125000 0.625000
vt 0.125000 0.750000
vt 0.000031 0.750000
vt 0.750000 0.468750
vt 0.750000 0.031250
vt 0.875000 0.031250
vt 0.875000 0.468750
vt 0.875000 0.968750
vt 0.750000 0.968750
vt 0.125000 0.875000
vt 0.000031 0.875000
vt 0.000031 0.999969
vt 0.125000 0.999969
vt 0.250000 0.750000
vt 0.250000 0.875000
vt 0.250000 0.999969
vt 0.000031 0.500000
vt 0.125000 0.500000
vt 1.000000 0.656250
vt 0.875000 0.656250
vt 1.000000 0.031250
vt 1.000000 0.000000
vt 1.000000 0.999969
vt 0.875000 0.999969
vt 0.875000 0.000000
vt 1.000000 0.781250
vt 0.875000 0.781250
vt 0.750000 0.999969
vt 0.750000 0.625000
vt 0.875000 0.625000
vt 0.750000 0.000000
vt 1.000000 0.500000
vt 0.875000 0.500000
vt 0.875000 0.750000
vt 0.750000 0.750000
vt 0.750000 0.500000
vt 1.000000 0.468750
vt 0.750000 0.437500
vt 0.875000 0.437500
vt 1.000000 0.437500
vt 1.000000 0.968750
vt 0.875000 0.593750
vt 1.000000 0.593750
vt 0.750000 0.875000
vt 0.750000 0.375000
vt 0.875000 0.375000
vt 0.875000 0.875000
s 1
usemtl MI_Lilies_SoggySwamp
f 127/1/11 128/2/11 125/3/11 126/4/11
f 228/5/22 226/6/22 227/7/22 225/8/22
f 186/9/17 188/10/17 187/5/17 185/8/17
f 292/11/26 290/12/26 291/4/26 289/3/26
f 120/4/9 118/1/9 119/2/9 117/3/9
f 280/13/7 279/12/7 277/11/7 278/14/7
f 10/15/3 12/16/3 11/11/3 9/3/3
f 28/16/4 26/17/4 27/14/4 25/11/4
f 4/3/1 2/15/1 3/16/1 1/11/1
f 136/16/14 133/17/14 134/14/14 135/11/14
f 56/15/5 54/16/5 55/11/5 53/3/5
f 264/11/8 261/14/8 262/13/8 263/12/8
f 102/1/10 104/2/10 103/3/10 101/4/10
f 64/15/7 63/16/7 61/11/7 62/3/7
f 272/13/5 270/12/5 271/11/5 269/14/5
f 130/15/13 132/16/13 131/11/13 129/3/13
f 260/4/7 258/3/7 259/11/7 257/12/7
f 84/18/6 82/19/6 83/2/6 81/1/6
f 80/2/8 77/3/8 78/4/8 79/1/8
f 24/14/1 22/11/1 23/16/1 21/17/1
f 166/20/9 168/21/9 167/7/9 165/22/9
f 38/16/6 40/11/6 39/3/6 37/15/6
f 96/4/7 95/1/7 93/2/7 94/3/7
f 20/3/2 18/15/2 19/16/2 17/11/2
f 204/23/17 203/24/17 201/25/17 202/26/17
f 284/11/24 281/12/24 282/4/24 283/3/24
f 112/3/12 110/4/12 111/1/12 109/2/12
f 48/11/8 45/3/8 46/15/8 47/16/8
f 198/27/9 200/28/9 199/7/9 197/22/9
f 42/14/7 44/11/7 43/16/7 41/17/7
f 68/2/5 65/1/5 66/18/5 67/19/5
f 174/25/18 176/29/18 175/30/18 173/31/18
f 76/18/7 74/19/7 75/2/7 73/1/7
f 268/4/6 266/3/6 267/11/6 265/12/6
f 160/17/15 158/14/15 159/11/15 157/16/15
f 70/1/6 72/2/6 71/3/6 69/4/6
f 164/26/17 163/31/17 161/30/17 162/32/17
f 236/33/22 235/24/22 233/25/22 234/34/22
f 312/14/26 310/13/26 311/12/26 309/11/26
f 246/27/9 248/28/9 247/7/9 245/22/9
f 152/16/13 149/17/13 150/14/13 151/11/13
f 156/15/16 154/16/16 155/11/16 153/3/16
f 146/15/14 148/16/14 147/11/14 145/3/14
f 88/4/5 86/1/5 87/2/5 85/3/5
f 206/25/9 208/29/9 207/32/9 205/26/9
f 140/3/15 138/15/15 139/16/15 137/11/15
f 100/2/9 97/1/9 98/18/9 99/19/9
f 182/8/9 184/5/9 183/6/9 181/7/9
f 196/26/17 195/35/17 193/36/17 194/32/17
f 244/26/17 243/35/17 241/36/17 242/32/17
f 190/24/19 192/25/19 191/34/19 189/33/19
f 116/18/10 115/19/10 113/2/10 114/1/10
f 240/34/23 239/25/23 237/29/23 238/37/23
f 32/16/3 30/11/3 31/3/3 29/15/3
f 210/38/9 212/8/9 211/7/9 209/22/9
f 108/1/11 106/18/11 107/19/11 105/2/11
f 224/25/21 222/34/21 223/33/21 221/24/21
f 144/14/16 142/11/16 143/16/16 141/17/16
f 296/11/27 294/14/27 295/13/27 293/12/27
f 216/39/20 214/32/20 215/26/20 213/40/20
f 232/22/17 231/38/17 229/8/17 230/7/17
f 124/18/12 122/19/12 123/2/12 121/1/12
f 8/14/2 7/11/2 5/16/2 6/17/2
f 180/23/17 179/41/17 177/40/17 178/26/17
f 52/17/6 51/14/6 49/11/6 50/16/6
f 254/12/6 256/11/6 255/14/6 253/13/6
f 252/11/5 249/12/5 250/4/5 251/3/5
f 90/19/8 92/2/8 91/1/8 89/18/8
f 36/11/5 33/16/5 34/17/5 35/14/5
f 276/4/8 274/3/8 275/11/8 273/12/8
f 60/17/8 58/14/8 59/11/8 57/16/8
f 172/42/17 170/9/17 171/43/17 169/44/17
f 15/11/4 16/16/4 13/17/4 14/14/4
f 286/12/25 288/11/25 287/14/25 285/13/25
f 300/4/25 299/3/25 297/11/25 298/12/25
f 220/45/9 219/46/9 217/47/9 218/48/9
f 308/3/27 306/11/27 307/12/27 305/4/27
f 304/13/24 302/12/24 303/11/24 301/14/24
