# Blender 5.0.1
# www.blender.org
mtllib BP_LBuoyRed.mtl
o SM_LBuoy.001
v -50.000000 50.000057 350.000000
v -50.000000 -49.999958 250.000015
v -50.000000 -49.999943 350.000000
v -50.000000 50.000042 249.999985
v 50.000000 50.000057 350.000000
v -50.000000 50.000042 249.999985
v -50.000000 50.000057 350.000000
v 50.000000 50.000042 249.999985
v 50.000000 -49.999943 350.000000
v 50.000000 50.000042 249.999985
v 50.000000 50.000057 350.000000
v 50.000000 -49.999958 250.000015
v -50.000000 -49.999943 350.000000
v 50.000000 -49.999958 250.000015
v 50.000000 -49.999943 350.000000
v -50.000000 -49.999958 250.000015
v 50.000000 -49.999958 250.000015
v -50.000000 -49.999958 250.000015
v -50.000000 50.000042 249.999985
v 50.000000 50.000042 249.999985
v -50.000000 50.000057 350.000000
v -50.000000 -49.999943 350.000000
v 50.000000 50.000057 350.000000
v 50.000000 -49.999943 350.000000
v 0.000001 -18.749960 250.000000
v 0.000001 -18.750000 0.000003
v -0.000001 18.750040 250.000000
v -0.000001 18.750000 -0.000003
v -0.000001 18.750065 400.000000
v 0.000001 -18.749935 400.000000
v 0.000001 -18.749943 350.000000
v -0.000001 18.750057 350.000000
v 18.750000 0.000042 250.000000
v 18.750000 0.000001 0.000024
v -18.750000 0.000039 250.000000
v -18.750000 -0.000001 0.000024
vn -1.0000 -0.0000 -0.0000
vn -0.0000 1.0000 -0.0000
vn 1.0000 -0.0000 -0.0000
vn -0.0000 -1.0000 -0.0000
vn -0.0000 -0.0000 -1.0000
vn -0.0000 -0.0000 1.0000
vt 0.125000 0.000000
vt 0.125000 0.062500
vt 0.062500 0.062500
vt 0.062500 0.000000
vt 0.023438 0.000000
vt 0.023438 0.152344
vt -0.000031 0.152344
vt -0.000031 0.000000
vt 0.046875 0.000000
vt 0.046875 0.031250
vt 0.023438 0.031250
s 1
usemtl Mi_Buoy
f 20/1/5 17/2/5 18/3/5 19/4/5
f 4/3/1 2/4/1 3/1/1 1/2/1
f 8/3/2 6/4/2 7/1/2 5/2/2
f 28/5/3 27/6/3 25/7/3 26/8/3
f 16/3/4 14/4/4 15/1/4 13/2/4
f 32/9/3 29/10/3 30/11/3 31/5/3
f 12/3/3 10/4/3 11/1/3 9/2/3
f 24/3/6 23/4/6 21/1/6 22/2/6
f 36/5/2 35/6/2 33/7/2 34/8/2
