# Blender 5.0.1
# www.blender.org
mtllib BP_Lantern_S2Lobby.mtl
o SK_Lantern.001
v -18.750034 -17.365646 248.658020
v -18.749962 19.640680 254.722839
v -18.749943 28.737904 199.213348
v -18.750015 -8.268426 193.148529
v 18.749964 -17.365719 248.658020
v -18.749962 19.640680 254.722839
v -18.750034 -17.365646 248.658020
v 18.750036 19.640608 254.722839
v 18.749983 -8.268499 193.148529
v 18.750055 28.737827 199.213348
v 18.750036 19.640608 254.722839
v 18.749964 -17.365719 248.658020
v -18.750015 -8.268426 193.148529
v -18.749943 28.737904 199.213348
v 18.750055 28.737827 199.213348
v 18.749983 -8.268499 193.148529
v -18.750034 -17.365646 248.658020
v -18.750015 -8.268426 193.148529
v 18.749964 -17.365719 248.658020
v 18.749983 -8.268499 193.148529
v -18.749962 19.640680 254.722839
v 18.750055 28.737827 199.213348
v -18.749943 28.737904 199.213348
v 18.750036 19.640608 254.722839
v 3.124995 -2.671201 276.395172
v 9.374992 -3.447482 282.596802
v 9.374994 -2.671213 276.395172
v 3.124993 -3.447469 282.596802
v -3.125005 -2.671189 276.395172
v 9.374991 -4.223750 288.798401
v -3.125007 -3.447457 282.596802
v 3.124991 -4.223738 288.798401
v -9.375006 -2.671177 276.395172
v 9.374990 -5.000018 295.000000
v -9.375008 -3.447445 282.596802
v 3.124990 -5.000006 295.000000
v -3.125009 -4.223725 288.798401
v 9.374988 -5.776287 301.201599
v -9.375009 -4.223713 288.798401
v 3.124989 -5.776275 301.201599
v -3.125010 -4.999994 295.000000
v -9.375010 -4.999982 295.000000
v -3.125011 -5.776262 301.201599
v -9.375012 -5.776250 301.201599
v 3.125002 1.137473 251.690414
v 9.374999 0.126659 257.858154
v 9.375002 1.137461 251.690414
v 3.125000 0.126671 257.858154
v -3.124998 1.137486 251.690414
v 9.374997 -0.884143 264.025848
v -3.125000 0.126683 257.858154
v 3.124998 -0.884131 264.025848
v -9.374998 1.137497 251.690414
v 9.374995 -1.894946 270.193573
v -9.375001 0.126695 257.858154
v 3.124996 -1.894934 270.193573
v -3.125002 -0.884119 264.025848
v 9.374993 -2.905748 276.361298
v -9.375003 -0.884107 264.025848
v 3.124994 -2.905736 276.361298
v -3.125004 -1.894921 270.193573
v -9.375005 -1.894909 270.193573
v -3.125006 -2.905724 276.361298
v -9.375007 -2.905712 276.361298
v -0.000009 -4.219461 263.603851
v -0.000023 -11.197334 269.029175
v -0.000021 -10.421066 262.827576
v -0.000011 -4.995729 269.805450
v 0.000003 1.982144 264.380127
v -0.000024 -11.973602 275.230774
v 0.000001 1.205876 270.581726
v -0.000012 -5.771997 276.007050
v 0.000015 8.183749 265.156372
v -0.000026 -12.749871 281.432404
v 0.000014 7.407481 271.358002
v -0.000014 -6.548266 282.208649
v -0.000000 0.429607 276.783325
v -0.000027 -13.526139 287.634003
v 0.000012 6.631213 277.559601
v -0.000015 -7.324534 288.410278
v -0.000002 -0.346661 282.984924
v 0.000011 5.854944 283.761200
v -0.000003 -1.122929 289.186523
v 0.000009 5.078676 289.962799
vn -1.0000 -0.0000 -0.0000
vn -0.0000 -0.1617 0.9868
vn 1.0000 -0.0000 -0.0000
vn -0.0000 0.1617 -0.9868
vn -0.0000 -0.9868 -0.1617
vn -0.0000 0.9868 0.1617
vn -0.0000 0.9923 0.1242
vt 0.031250 0.593750
vt 0.031235 0.562500
vt 0.062469 0.562500
vt 0.062500 0.593750
vt 0.000031 0.562500
vt 0.000031 0.531250
vt 0.031250 0.531250
vt 0.062500 0.656250
vt 0.062500 0.625000
vt 0.093750 0.625000
vt 0.093750 0.656250
vt 0.000031 0.593750
vt 0.093750 0.593750
vt 0.062500 0.500000
vt 0.062500 0.468750
vt 0.093750 0.468750
vt 0.093750 0.500000
vt 0.093750 0.687500
vt 0.312500 0.468750
vt 0.312500 0.687500
vt 0.000031 0.656250
vt 0.000031 0.625000
vt 0.031250 0.625000
vt 0.031250 0.656250
vt 0.531250 0.469238
vt 0.531250 0.687500
vt 0.312500 0.469238
vt 0.062469 0.687500
vt 0.062500 0.531250
vt 0.093750 0.531250
vt 0.093750 0.562500
vt 0.375000 0.687500
vt 0.562500 0.687500
vt 0.562500 0.999969
vt 0.375000 0.999969
vt 0.000031 0.687500
vt 0.031235 0.687500
vt 0.000031 0.999969
vt 0.000031 0.687500
vt 0.187378 0.687500
vt 0.187500 0.999969
vt 0.000031 0.500000
vt 0.031250 0.500000
vt 0.187378 0.999969
vt 0.000031 0.468750
vt 0.000031 0.437500
vt 0.031235 0.437500
vt 0.031250 0.468750
vt 0.749512 0.687500
vt 0.750000 0.999969
vt 0.062469 0.437500
vt 0.093750 0.437500
s 1
usemtl M_Lantern_RedFire
f 41/1/7 43/2/7 40/3/7 36/4/7
f 73/5/3 75/6/3 71/7/3 69/2/3
f 48/8/6 52/9/6 50/10/6 46/11/6
f 42/12/7 44/5/7 43/2/7 41/1/7
f 32/9/7 36/4/7 34/13/7 30/10/7
f 72/14/3 76/15/3 74/16/3 70/17/3
f 28/8/7 32/9/7 30/10/7 26/11/7
f 8/18/2 6/16/2 7/19/2 5/20/2
f 35/21/7 39/22/7 37/23/7 31/24/7
f 16/25/4 13/26/4 14/20/4 15/27/4
f 45/28/6 48/8/6 46/11/6 47/18/6
f 59/22/6 62/12/6 61/1/6 57/23/6
f 68/29/3 72/14/3 70/17/3 66/30/3
f 52/9/6 56/4/6 54/13/6 50/10/6
f 56/4/6 60/3/6 58/31/6 54/13/6
f 18/32/5 20/33/5 19/34/5 17/35/5
f 53/36/6 55/21/6 51/24/6 49/37/6
f 29/37/7 31/24/7 28/8/7 25/28/7
f 62/12/6 64/5/6 63/2/6 61/1/6
f 49/37/6 51/24/6 48/8/6 45/28/6
f 33/36/7 35/21/7 31/24/7 29/37/7
f 24/38/6 22/39/6 23/40/6 21/41/6
f 39/22/7 42/12/7 41/1/7 37/23/7
f 65/3/3 68/29/3 66/30/3 67/31/3
f 36/4/7 40/3/7 38/31/7 34/13/7
f 75/6/3 79/42/3 77/43/3 71/7/3
f 4/32/1 1/35/1 2/44/1 3/40/1
f 61/1/6 63/2/6 60/3/6 56/4/6
f 69/2/3 71/7/3 68/29/3 65/3/3
f 55/21/6 59/22/6 57/23/6 51/24/6
f 82/45/3 84/46/3 83/47/3 81/48/3
f 25/28/7 28/8/7 26/11/7 27/18/7
f 12/34/3 9/33/3 10/49/3 11/50/3
f 76/15/3 80/51/3 78/52/3 74/16/3
f 79/42/3 82/45/3 81/48/3 77/43/3
f 81/48/3 83/47/3 80/51/3 76/15/3
