# Blender 5.0.1
# www.blender.org
mtllib BP_Ladder_Broken.mtl
o SM_Ladder_Broken.001
v 50.000004 0.000000 0.000000
v -50.000004 0.000000 0.000000
v -50.000004 0.000004 -100.000008
v 50.000004 0.000004 -100.000008
v 50.000004 -6.249998 -50.000000
v -50.000000 -6.249998 -50.000000
v -50.000000 0.000002 -50.000000
v 50.000004 0.000002 -50.000000
v 50.000004 -6.249999 -37.500000
v -50.000004 -6.249999 -37.500000
v -50.000000 -6.249998 -50.000000
v 50.000004 -6.249998 -50.000000
v -50.000004 -6.249999 -37.500000
v 50.000004 -6.249999 -37.500000
v 50.000004 0.000002 -37.500000
v -50.000004 0.000002 -37.500000
v 50.000004 -6.249999 -37.500000
v 50.000004 -6.249998 -50.000000
v 50.000004 0.000002 -50.000000
v 50.000004 0.000002 -37.500000
v -50.000000 -6.249998 -50.000000
v -50.000004 -6.249999 -37.500000
v -50.000004 0.000002 -37.500000
v -50.000000 0.000002 -50.000000
v 50.000004 -6.249999 -25.000000
v -50.000000 -6.249999 -25.000000
v -50.000000 0.000001 -25.000000
v 50.000004 0.000001 -25.000000
v 50.000004 -6.250000 -12.500000
v -50.000004 -6.250000 -12.500000
v -50.000000 -6.249999 -25.000000
v 50.000004 -6.249999 -25.000000
v -50.000004 -6.250000 -12.500000
v 50.000004 -6.250000 -12.500000
v 50.000004 0.000001 -12.500000
v -50.000004 0.000001 -12.500000
v 50.000004 -6.250000 -12.500000
v 50.000004 -6.249999 -25.000000
v 50.000004 0.000001 -25.000000
v 50.000004 0.000001 -12.500000
v -50.000000 -6.249999 -25.000000
v -50.000004 -6.250000 -12.500000
v -50.000004 0.000001 -12.500000
v -50.000000 0.000001 -25.000000
vn -0.0000 -1.0000 -0.0000
vn -0.0000 -0.0000 -1.0000
vn -0.0000 -0.0000 1.0000
vn 1.0000 -0.0000 -0.0000
vn -1.0000 -0.0000 -0.0000
vt 0.531250 0.406250
vt 0.531250 0.468750
vt 0.031250 0.468750
vt 0.031250 0.406250
vt 0.562500 0.343750
vt 0.531250 0.343750
vt 0.531250 0.281250
vt 0.562500 0.281250
vt 0.562500 0.468750
vt 0.562500 0.406250
vt 0.031250 0.375000
vt 0.031250 0.343750
vt 0.531250 0.375000
vt 0.031250 0.281250
vt 1.000000 0.500000
vt 1.000000 0.999969
vt 0.500000 0.999969
vt 0.500000 0.500000
vt 0.000031 0.406250
vt 0.000031 0.468750
vt 0.031250 0.500000
vt 0.531250 0.500000
vt 0.531250 0.250000
vt 0.031250 0.250000
vt 0.000031 0.281250
vt 0.000031 0.343750
s 1
usemtl MI_Ladder
f 12/1/1 9/2/1 10/3/1 11/4/1
f 40/5/4 37/6/4 38/7/4 39/8/4
f 20/9/4 17/2/4 18/1/4 19/10/4
f 36/11/3 33/12/3 34/6/3 35/13/3
f 32/7/1 29/6/1 30/12/1 31/14/1
f 8/13/2 5/1/2 6/4/2 7/11/2
f 4/15/1 1/16/1 2/17/1 3/18/1
f 24/19/5 21/4/5 22/3/5 23/20/5
f 16/21/3 13/3/3 14/2/3 15/22/3
f 28/23/2 25/7/2 26/14/2 27/24/2
f 44/25/5 41/14/5 42/12/5 43/26/5
