# Blender 5.0.1
# www.blender.org
mtllib BP_LF_Staircase_Pillar.mtl
o SM_LF_Staircase_pillar.001
v -100.000000 200.000000 800.000000
v -100.000000 200.000000 700.000000
v -100.000000 100.000000 800.000000
v -100.000000 100.000000 700.000000
v 0.000000 100.000000 700.000000
v -100.000000 100.000000 700.000000
v -100.000000 200.000000 700.000000
v 0.000000 200.000000 700.000000
v 0.000000 200.000000 800.000000
v 0.000000 200.000000 700.000000
v -100.000000 200.000000 800.000000
v -100.000000 200.000000 700.000000
v -100.000000 200.000000 900.000000
v -100.000000 100.000000 900.000000
v 0.000000 200.000000 900.000000
v -100.000000 200.000000 900.000000
v 0.000000 100.000000 900.000000
v 0.000000 200.000000 800.000000
v 0.000000 200.000000 900.000000
v 0.000000 100.000000 800.000000
v -100.000000 200.000000 900.000000
v 0.000000 100.000000 900.000000
v 0.000000 200.000000 900.000000
v -100.000000 100.000000 900.000000
v -100.000000 0.000000 800.000000
v -100.000000 0.000000 700.000000
v -100.000000 0.000000 600.000000
v -100.000000 -100.000000 700.000000
v -100.000000 -100.000000 600.000000
v -100.000000 -100.000000 700.000000
v 0.000000 -100.000000 600.000000
v 0.000000 -100.000000 700.000000
v -100.000000 -100.000000 600.000000
v -100.000000 -100.000000 800.000000
v -100.000000 -100.000000 800.000000
v 0.000000 -100.000000 800.000000
v -100.000000 0.000000 900.000000
v -100.000000 -100.000000 900.000000
v 0.000000 0.000000 900.000000
v 0.000000 0.000000 800.000000
v -100.000000 0.000000 900.000000
v -100.000000 0.000000 800.000000
v -100.000000 -100.000000 900.000000
v 0.000000 -100.000000 900.000000
v -100.000000 0.000000 1000.000000
v -100.000000 -100.000000 1000.000000
v 0.000000 0.000000 1000.000000
v -100.000000 0.000000 1000.000000
v -100.000000 0.000000 1000.000000
v 0.000000 -100.000000 1000.000000
v 0.000000 0.000000 1000.000000
v -100.000000 -100.000000 1000.000000
v -100.000000 -100.000000 1000.000000
v 0.000000 -100.000000 1000.000000
v 100.000000 100.000000 700.000000
v 100.000000 200.000000 700.000000
v 100.000000 200.000000 800.000000
v 100.000000 200.000000 700.000000
v 100.000000 100.000000 800.000000
v 100.000000 200.000000 700.000000
v 100.000000 200.000000 800.000000
v 100.000000 100.000000 700.000000
v 0.000000 200.000000 800.000000
v 100.000000 100.000000 800.000000
v 100.000000 200.000000 800.000000
v 0.000000 100.000000 800.000000
v 100.000000 0.000000 800.000000
v 100.000000 0.000000 700.000000
v 100.000000 -100.000000 700.000000
v 100.000000 0.000000 600.000000
v 100.000000 -100.000000 600.000000
v 100.000000 -100.000000 600.000000
v 100.000000 -100.000000 700.000000
v 100.000000 -100.000000 800.000000
v 100.000000 -100.000000 800.000000
v 100.000000 0.000000 900.000000
v 100.000000 0.000000 800.000000
v 100.000000 -100.000000 900.000000
v 100.000000 0.000000 900.000000
v 100.000000 -100.000000 900.000000
v 100.000000 0.000000 1000.000000
v 100.000000 -100.000000 1000.000000
v 100.000000 0.000000 1000.000000
v 100.000000 -100.000000 1000.000000
v 100.000000 0.000000 1000.000000
v 100.000000 -100.000000 1000.000000
v -100.000000 100.000000 600.000000
v 0.000000 100.000000 700.000000
v 0.000000 100.000000 600.000000
v -100.000000 100.000000 700.000000
v -100.000000 100.000000 600.000000
v 100.000000 100.000000 700.000000
v 100.000000 100.000000 600.000000
v 100.000000 100.000000 600.000000
v -100.000000 0.000000 850.000000
v -100.000000 100.000000 850.000000
v 0.000000 100.000000 850.000000
v -100.000000 100.000000 850.000000
v 0.000000 0.000000 850.000000
v -100.000000 0.000000 850.000000
v -100.000000 50.000000 900.000000
v -100.000000 50.000000 850.000000
v -100.000000 50.000000 900.000000
v 0.000000 50.000000 900.000000
v -100.000000 50.000000 850.000000
v 0.000000 50.000000 850.000000
v -100.000000 50.000000 900.000000
v 0.000000 50.000000 900.000000
v 0.000000 0.000000 850.000000
v 0.000000 100.000000 850.000000
v 0.000000 100.000000 800.000000
v 0.000000 0.000000 800.000000
v 100.000000 0.000000 850.000000
v 100.000000 100.000000 850.000000
v 100.000000 100.000000 850.000000
v 100.000000 0.000000 850.000000
v 100.000000 100.000000 900.000000
v 100.000000 50.000000 900.000000
v 100.000000 50.000000 850.000000
v 100.000000 50.000000 900.000000
v 100.000000 100.000000 900.000000
v 100.000000 50.000000 850.000000
v 100.000000 50.000000 900.000000
v -100.000000 100.000000 100.000015
v -100.000000 100.000000 0.000012
v -100.000000 0.000000 100.000015
v -100.000000 0.000000 0.000012
v 0.000000 100.000000 100.000015
v 0.000000 100.000000 0.000012
v -100.000000 100.000000 100.000015
v -100.000000 100.000000 0.000012
v -100.000000 100.000000 200.000015
v -100.000000 0.000000 200.000015
v 0.000000 100.000000 200.000015
v -100.000000 100.000000 200.000015
v -100.000000 100.000000 300.000000
v -100.000000 0.000000 300.000000
v 0.000000 100.000000 300.000000
v -100.000000 100.000000 300.000000
v -100.000000 100.000000 400.000000
v -100.000000 0.000000 400.000000
v 0.000000 100.000000 400.000000
v -100.000000 100.000000 400.000000
v -100.000000 100.000000 500.000000
v -100.000000 0.000000 500.000000
v 0.000000 100.000000 500.000000
v -100.000000 100.000000 500.000000
v -100.000000 -100.000000 100.000015
v -100.000000 -100.000000 0.000012
v -100.000000 -100.000000 100.000015
v 0.000000 -100.000000 0.000012
v 0.000000 -100.000000 100.000015
v -100.000000 -100.000000 0.000012
v -100.000000 -100.000000 200.000015
v -100.000000 -100.000000 200.000015
v 0.000000 -100.000000 200.000015
v -100.000000 -100.000000 300.000000
v -100.000000 -100.000000 300.000000
v 0.000000 -100.000000 300.000000
v -100.000000 -100.000000 400.000000
v -100.000000 -100.000000 400.000000
v 0.000000 -100.000000 400.000000
v -100.000000 -100.000000 500.000000
v -100.000000 -100.000000 500.000000
v 0.000000 -100.000000 500.000000
v 100.000000 100.000000 100.000015
v 100.000000 100.000000 0.000012
v 100.000000 0.000000 100.000015
v 100.000000 100.000000 0.000012
v 100.000000 100.000000 100.000015
v 100.000000 0.000000 0.000012
v 100.000000 100.000000 200.000015
v 100.000000 0.000000 200.000015
v 100.000000 100.000000 200.000015
v 100.000000 100.000000 300.000000
v 100.000000 0.000000 300.000000
v 100.000000 100.000000 300.000000
v 100.000000 100.000000 400.000000
v 100.000000 0.000000 400.000000
v 100.000000 100.000000 400.000000
v 100.000000 100.000000 500.000000
v 100.000000 0.000000 500.000000
v 100.000000 100.000000 500.000000
v 100.000000 -100.000000 100.000015
v 100.000000 -100.000000 0.000012
v 100.000000 -100.000000 0.000012
v 100.000000 -100.000000 100.000015
v 100.000000 -100.000000 200.000015
v 100.000000 -100.000000 200.000015
v 100.000000 -100.000000 300.000000
v 100.000000 -100.000000 300.000000
v 100.000000 -100.000000 400.000000
v 100.000000 -100.000000 400.000000
v 100.000000 -100.000000 500.000000
v 100.000000 -100.000000 500.000000
v 0.000000 100.000000 900.000000
v 100.000000 100.000000 900.000000
v 100.000000 100.000000 850.000000
v 0.000000 100.000000 850.000000
v 100.000000 100.000000 800.000000
v 0.000000 100.000000 800.000000
vn -1.0000 -0.0000 -0.0000
vn -0.0000 -0.0000 -1.0000
vn -0.0000 1.0000 -0.0000
vn 1.0000 -0.0000 -0.0000
vn -0.0000 -0.0000 1.0000
vn -0.0000 -1.0000 -0.0000
vt 1.000000 0.250000
vt 1.000000 0.500000
vt 0.750000 0.500000
vt 0.750000 0.250000
vt 0.250000 0.875000
vt 0.250000 0.999853
vt 0.000164 0.999853
vt 0.000164 0.875000
vt 0.000164 0.750000
vt 0.250000 0.750000
vt 0.500000 0.750000
vt 0.500000 0.999969
vt 0.250000 0.999969
vt 0.125000 0.999853
vt 0.125000 0.875000
s 1
usemtl MI_LF_MiniAtlas
f 139/1/3 143/2/3 142/3/3 138/4/3
f 184/4/4 168/1/4 173/2/4 188/3/4
f 163/1/1 29/2/1 27/3/1 145/4/1
f 148/1/1 154/2/1 133/3/1 126/4/1
f 122/5/6 123/6/6 108/7/6 106/8/6
f 74/9/4 67/10/4 79/6/4 78/7/4
f 91/11/3 90/12/3 88/13/3 89/10/3
f 138/1/3 142/2/3 178/3/3 175/4/3
f 112/10/1 109/5/1 110/8/1 111/9/1
f 41/10/3 48/6/3 47/7/3 39/9/3
f 126/1/1 133/2/1 132/3/1 124/4/1
f 130/1/3 135/2/3 134/3/3 128/4/3
f 31/9/6 72/10/6 73/6/6 32/7/6
f 71/9/4 70/10/4 68/6/4 69/7/4
f 157/1/1 160/2/1 141/3/1 137/4/1
f 78/9/4 79/10/4 83/6/4 82/7/4
f 4/10/1 3/6/1 1/7/1 2/9/1
f 10/10/3 9/6/3 57/7/3 58/9/3
f 146/1/3 89/2/3 93/3/3 181/4/3
f 98/7/5 100/9/5 99/10/5 97/6/5
f 12/10/3 11/6/3 9/7/3 10/9/3
f 36/9/6 75/10/6 80/6/6 44/7/6
f 68/9/4 62/10/4 59/6/4 67/7/4
f 20/9/4 18/10/4 19/6/4 17/7/4
f 8/6/2 5/10/2 6/9/2 7/7/2
f 11/10/3 16/6/3 15/7/3 9/9/3
f 32/9/6 73/10/6 75/6/6 36/7/6
f 30/9/6 32/10/6 36/6/6 35/7/6
f 127/1/1 126/2/1 124/3/1 125/4/1
f 97/7/5 99/9/5 116/10/5 115/6/5
f 24/9/5 22/10/5 23/6/5 21/7/5
f 141/1/1 145/2/1 144/3/1 140/4/1
f 3/10/1 14/6/1 13/7/1 1/9/1
f 44/9/6 80/10/6 86/6/6 54/7/6
f 35/9/6 36/10/6 44/6/6 43/7/6
f 150/4/6 152/1/6 156/2/6 155/3/6
f 33/9/6 31/10/6 32/6/6 30/7/6
f 70/10/4 94/11/4 62/12/4 68/13/4
f 29/10/1 28/6/1 26/7/1 27/9/1
f 164/4/6 165/1/6 31/2/6 33/3/6
f 26/10/1 25/6/1 3/7/1 4/9/1
f 104/5/5 22/6/5 24/7/5 103/8/5
f 43/9/6 44/10/6 54/6/6 53/7/6
f 176/4/4 177/1/4 180/2/4 179/3/4
f 52/9/5 50/10/5 51/6/5 49/7/5
f 39/10/3 47/6/3 81/7/3 76/9/3
f 147/1/3 91/2/3 89/3/3 146/4/3
f 152/4/6 187/1/6 189/2/6 156/3/6
f 162/4/6 193/1/6 195/2/6 165/3/6
f 66/9/5 64/10/5 65/6/5 63/7/5
f 120/5/5 121/6/5 22/7/5 104/8/5
f 194/4/4 182/1/4 70/2/4 71/3/4
f 42/10/3 41/6/3 39/7/3 40/9/3
f 34/10/1 38/6/1 37/7/1 25/9/1
f 40/10/3 39/6/3 76/7/3 77/9/3
f 131/1/3 130/2/3 128/3/3 129/4/3
f 133/1/1 137/2/1 136/3/1 132/4/1
f 69/9/4 68/10/4 67/6/4 74/7/4
f 137/1/1 141/2/1 140/3/1 136/4/1
f 135/1/3 139/2/3 138/3/3 134/4/3
f 165/4/6 195/1/6 72/2/6 31/3/6
f 118/14/4 119/15/4 114/5/4 117/6/4
f 143/1/3 147/2/3 146/3/3 142/4/3
f 59/10/4 114/5/4 113/8/4 67/9/4
f 62/9/4 60/10/4 61/6/4 59/7/4
f 153/4/6 151/1/6 152/2/6 150/3/6
f 149/1/1 148/2/1 126/3/1 127/4/1
f 145/1/1 27/2/1 87/3/1 144/4/1
f 38/10/1 46/6/1 45/7/1 37/9/1
f 27/11/1 26/12/1 4/13/1 87/10/1
f 154/1/1 157/2/1 137/3/1 133/4/1
f 158/4/6 159/1/6 162/2/6 161/3/6
f 50/9/5 84/10/5 85/6/5 51/7/5
f 161/4/6 162/1/6 165/2/6 164/3/6
f 160/1/1 163/2/1 145/3/1 141/4/1
f 155/4/6 156/1/6 159/2/6 158/3/6
f 199/5/3 196/6/3 197/7/3 198/8/3
f 25/10/1 95/5/1 96/8/1 3/9/1
f 129/1/3 128/2/3 166/3/3 167/4/3
f 168/4/4 170/1/4 174/2/4 173/3/4
f 89/11/3 88/12/3 92/13/3 93/10/3
f 173/4/4 174/1/4 177/2/4 176/3/4
f 134/1/3 138/2/3 175/3/3 172/4/3
f 171/4/4 169/1/4 170/2/4 168/3/4
f 56/6/2 55/10/2 5/9/2 8/7/2
f 106/5/6 108/6/6 107/7/6 105/8/6
f 142/1/3 146/2/3 181/3/3 178/4/3
f 182/4/4 183/1/4 94/2/4 70/3/4
f 102/15/1 101/14/1 14/7/1 96/8/1
f 151/4/6 186/1/6 187/2/6 152/3/6
f 185/4/4 171/1/4 168/2/4 184/3/4
f 179/4/4 180/1/4 183/2/4 182/3/4
f 128/1/3 134/2/3 172/3/3 166/4/3
f 188/4/4 173/1/4 176/2/4 190/3/4
f 192/4/4 179/1/4 182/2/4 194/3/4
f 156/4/6 189/1/6 191/2/6 159/3/6
f 190/4/4 176/1/4 179/2/4 192/3/4
f 159/4/6 191/1/6 193/2/6 162/3/6
f 28/10/1 34/6/1 25/7/1 26/9/1
f 201/10/3 199/5/3 198/8/3 200/9/3
