# Blender 5.0.1
# www.blender.org
mtllib BP_LS_IceFortStruc_01.mtl
o SM_IF_IceFortStruc_01.001
v -300.000000 -199.999985 100.000031
v -300.000000 -99.999985 100.000015
v -300.000000 -200.000000 0.000033
v -300.000000 -100.000000 0.000016
v 0.000000 0.000016 100.000000
v -100.000000 0.000000 0.000000
v -100.000000 0.000016 100.000000
v 0.000000 0.000000 0.000000
v 0.000000 -99.999985 100.000015
v 0.000000 0.000000 0.000000
v 0.000000 0.000016 100.000000
v 0.000000 -100.000000 0.000016
v -200.000000 0.000016 100.000000
v -200.000000 0.000000 0.000000
v 0.000000 0.000033 200.000000
v 0.000000 -99.999969 200.000015
v 0.000000 -199.999985 100.000031
v 0.000000 -200.000000 0.000033
v -200.000000 -299.999969 200.000046
v -300.000000 -299.999969 200.000046
v -300.000000 -299.999969 100.000046
v -200.000000 -299.999969 100.000046
v -300.000000 0.000016 100.000000
v -300.000000 0.000000 0.000000
v -200.000000 -99.999969 200.000015
v -200.000000 0.000033 200.000000
v -200.000000 0.000016 100.000000
v -200.000000 -99.999985 100.000015
v -200.000000 0.000016 100.000000
v -200.000000 100.000015 99.999985
v -100.000000 0.000016 100.000000
v -100.000000 100.000015 99.999985
v -100.000000 -299.999969 100.000046
v 0.000000 -300.000000 0.000049
v 0.000000 -299.999969 100.000046
v -100.000000 -300.000000 0.000049
v -300.000000 0.000016 100.000000
v -300.000000 0.000000 0.000000
v 0.000000 -199.999969 200.000031
v 0.000000 -299.999969 200.000046
v 0.000000 -299.999969 100.000046
v 0.000000 -300.000000 0.000049
v -200.000000 -300.000000 0.000049
v -400.000000 -299.999969 100.000046
v -300.000000 -300.000000 0.000049
v -400.000000 -300.000000 0.000049
v -300.000000 -99.999954 300.000031
v -300.000000 0.000049 300.000000
v -300.000000 0.000033 200.000000
v -300.000000 -99.999969 200.000015
v -300.000000 0.000016 100.000000
v -200.000000 -99.999985 100.000015
v -200.000000 0.000016 100.000000
v -300.000000 -99.999985 100.000015
v -400.000000 -199.999985 100.000031
v -400.000000 -200.000000 0.000033
v -400.000000 -299.999969 100.000046
v -400.000000 -300.000000 0.000049
v -400.000000 -199.999985 100.000031
v -300.000000 -199.999985 100.000031
v -400.000000 -200.000000 0.000033
v -300.000000 -200.000000 0.000033
v -400.000000 -199.999985 100.000031
v -300.000000 -299.999969 100.000046
v -300.000000 -199.999985 100.000031
v -400.000000 -299.999969 100.000046
v -300.000000 -99.999969 200.000015
v -200.000000 -99.999969 200.000015
v -200.000000 -99.999985 100.000015
v -300.000000 -99.999985 100.000015
v -400.000000 -99.999969 200.000015
v -400.000000 -99.999985 100.000015
v -200.000000 -299.999939 300.000061
v -300.000000 -299.999939 300.000061
v -400.000000 -199.999969 200.000031
v -400.000000 -99.999969 200.000015
v -400.000000 -99.999985 100.000015
v -400.000000 -199.999985 100.000031
v -300.000000 -99.999985 100.000015
v -300.000000 -199.999985 100.000031
v -400.000000 -99.999985 100.000015
v -400.000000 -199.999969 200.000031
v -300.000000 -199.999985 100.000031
v -300.000000 -199.999969 200.000031
v -400.000000 -199.999985 100.000031
v -100.000000 -399.999939 300.000061
v -200.000000 -399.999939 300.000061
v -200.000000 -399.999969 200.000061
v -100.000000 -399.999969 200.000061
v -300.000000 -299.999969 200.000046
v -300.000000 -199.999969 200.000031
v -300.000000 -299.999969 100.000046
v 0.000000 -299.999969 200.000046
v -100.000000 -299.999969 200.000046
v -200.000000 -399.999969 100.000069
v -100.000000 -399.999969 100.000069
v -100.000000 -399.999969 100.000069
v -200.000000 -399.999969 100.000069
v -200.000000 -299.999969 100.000046
v -100.000000 -299.999969 100.000046
v -100.000000 -399.999969 200.000061
v -100.000000 -299.999969 100.000046
v -100.000000 -299.999969 200.000046
v -100.000000 -399.999969 100.000069
v -200.000000 -399.999969 200.000061
v -200.000000 -299.999969 200.000046
v -200.000000 -399.999969 100.000069
v -200.000000 -299.999969 100.000046
v 0.000000 0.000098 600.000000
v 0.000000 -99.999901 600.000000
v 0.000000 -99.999916 500.000031
v 0.000000 0.000081 500.000000
v -200.000000 100.000031 199.999985
v -100.000000 100.000031 199.999985
v -100.000000 100.000015 99.999985
v -200.000000 100.000015 99.999985
v -200.000000 100.000031 199.999985
v -200.000000 100.000015 99.999985
v -200.000000 -399.999939 300.000061
v -200.000000 -299.999939 300.000061
v -100.000000 100.000031 199.999985
v -100.000000 0.000033 200.000000
v -100.000000 100.000015 99.999985
v -100.000000 0.000016 100.000000
v -100.000000 0.000049 300.000000
v 0.000000 0.000049 300.000000
v 0.000000 0.000033 200.000000
v -100.000000 0.000033 200.000000
v 100.000000 -199.999969 200.000031
v 0.000000 -199.999969 200.000031
v 100.000000 -199.999985 100.000031
v 0.000000 -199.999985 100.000031
v -300.000000 -299.999939 300.000061
v -300.000000 -199.999954 300.000031
v 100.000000 -99.999969 200.000015
v 100.000000 -199.999969 200.000031
v 100.000000 -199.999985 100.000031
v 100.000000 -99.999985 100.000015
v 100.000000 -199.999985 100.000031
v 0.000000 -199.999985 100.000031
v 100.000000 -99.999985 100.000015
v 0.000000 -99.999985 100.000015
v 100.000000 -99.999969 200.000015
v 0.000000 -99.999985 100.000015
v 0.000000 -99.999969 200.000015
v 100.000000 -99.999985 100.000015
v 0.000000 -299.999939 300.000061
v -100.000000 -299.999939 300.000061
v -100.000000 -299.999939 300.000061
v -100.000000 -399.999939 300.000061
v 0.000000 -199.999954 300.000031
v 0.000000 -299.999939 300.000061
v 0.000000 0.000049 300.000000
v 0.000000 -99.999954 300.000031
v -300.000000 -99.999969 200.000015
v -200.000000 0.000033 200.000000
v -200.000000 -99.999969 200.000015
v -300.000000 0.000033 200.000000
v -300.000000 0.000098 600.000000
v -200.000000 0.000098 600.000000
v -200.000000 0.000081 500.000000
v -300.000000 0.000081 500.000000
v -300.000000 0.000049 300.000000
v -200.000000 0.000049 300.000000
v -300.000000 0.000033 200.000000
v -200.000000 0.000033 200.000000
v -400.000000 -99.999901 600.000000
v -300.000000 -99.999901 600.000000
v -300.000000 -99.999916 500.000031
v -400.000000 -99.999916 500.000031
v -200.000000 0.000098 600.000000
v -200.000000 100.000099 600.000000
v -200.000000 100.000084 499.999969
v -200.000000 0.000081 500.000000
v 0.000000 -199.999908 600.000061
v 0.000000 -299.999908 600.000061
v 0.000000 -299.999908 500.000061
v 0.000000 -199.999924 500.000031
v -300.000000 -199.999908 600.000061
v -400.000000 -199.999908 600.000061
v -400.000000 -199.999924 500.000031
v -300.000000 -199.999924 500.000031
v 0.000000 -299.999908 600.000061
v -100.000000 -299.999908 600.000061
v -100.000000 -299.999908 500.000061
v 0.000000 -299.999908 500.000061
v 100.000000 -99.999901 600.000000
v 100.000000 -199.999908 600.000061
v 100.000000 -199.999924 500.000031
v 100.000000 -99.999916 500.000031
v -100.000000 100.000099 600.000000
v -100.000000 0.000098 600.000000
v -100.000000 0.000081 500.000000
v -100.000000 100.000084 499.999969
v -300.000000 -99.999901 600.000000
v -300.000000 0.000098 600.000000
v -300.000000 0.000081 500.000000
v -300.000000 -99.999916 500.000031
v -100.000000 0.000098 600.000000
v 0.000000 0.000098 600.000000
v 0.000000 0.000081 500.000000
v -100.000000 0.000081 500.000000
v -200.000000 100.000099 600.000000
v -100.000000 100.000099 600.000000
v -100.000000 100.000084 499.999969
v -200.000000 100.000084 499.999969
v -100.000000 -399.999908 600.000061
v -200.000000 -399.999908 600.000061
v -200.000000 -399.999908 500.000061
v -100.000000 -399.999908 500.000061
v 0.000000 -99.999901 600.000000
v 100.000000 -99.999901 600.000000
v 100.000000 -99.999916 500.000031
v 0.000000 -99.999916 500.000031
v -300.000000 -299.999908 600.000061
v -300.000000 -199.999908 600.000061
v -300.000000 -199.999924 500.000031
v -300.000000 -299.999908 500.000061
v -200.000000 -399.999908 600.000061
v -200.000000 -299.999908 600.000061
v -200.000000 -299.999908 500.000061
v -200.000000 -399.999908 500.000061
v 100.000000 -199.999908 600.000061
v 0.000000 -199.999908 600.000061
v 0.000000 -199.999924 500.000031
v 100.000000 -199.999924 500.000031
v -200.000000 -299.999908 600.000061
v -300.000000 -299.999908 600.000061
v -300.000000 -299.999908 500.000061
v -200.000000 -299.999908 500.000061
v -400.000000 -199.999908 600.000061
v -400.000000 -99.999901 600.000000
v -400.000000 -99.999916 500.000031
v -400.000000 -199.999924 500.000031
v -100.000000 -299.999908 600.000061
v -100.000000 -399.999908 600.000061
v -100.000000 -399.999908 500.000061
v -100.000000 -299.999908 500.000061
v -100.000000 -299.999939 400.000061
v -100.000000 -399.999939 400.000061
v -400.000000 -99.999931 400.000031
v -400.000000 -199.999939 400.000031
v -200.000000 -299.999939 400.000061
v -300.000000 -299.999939 400.000061
v 0.000000 -199.999939 400.000031
v 100.000000 -199.999939 400.000031
v -200.000000 -399.999939 400.000061
v -200.000000 -299.999939 400.000061
v -300.000000 -299.999939 400.000061
v -300.000000 -199.999939 400.000031
v 100.000000 -99.999931 400.000031
v 0.000000 -99.999931 400.000031
v -100.000000 -399.999939 400.000061
v -200.000000 -399.999939 400.000061
v -100.000000 100.000069 399.999969
v -200.000000 100.000069 399.999969
v -100.000000 0.000065 400.000000
v 0.000000 0.000065 400.000000
v -100.000000 0.000065 400.000000
v -100.000000 100.000069 399.999969
v 100.000000 -199.999939 400.000031
v 100.000000 -99.999931 400.000031
v 0.000000 -299.999939 400.000061
v -100.000000 -299.999939 400.000061
v -400.000000 -199.999939 400.000031
v -300.000000 -199.999939 400.000031
v 0.000000 -199.999939 400.000031
v 0.000000 -299.999939 400.000061
v -200.000000 100.000069 399.999969
v -200.000000 0.000065 400.000000
v -300.000000 -99.999931 400.000031
v -400.000000 -99.999931 400.000031
v 0.000000 0.000065 400.000000
v 0.000000 -99.999931 400.000031
v -100.000000 -299.999878 700.000061
v -100.000000 -399.999878 700.000061
v 0.000000 -99.999886 700.000000
v 100.000000 -99.999886 700.000000
v 0.000000 -199.999893 700.000061
v 0.000000 -99.999886 700.000000
v 0.000000 -99.999901 600.000000
v 0.000000 -199.999908 600.000061
v -100.000000 -399.999878 700.000061
v -200.000000 -399.999878 700.000061
v 0.000000 -199.999908 600.000061
v -100.000000 -199.999908 600.000061
v 0.000000 -299.999908 600.000061
v -100.000000 -299.999908 600.000061
v -100.000000 0.000098 600.000000
v -200.000000 0.000098 600.000000
v -200.000000 -99.999901 600.000000
v -100.000000 -99.999901 600.000000
v -300.000000 0.000098 600.000000
v -300.000000 -99.999901 600.000000
v -200.000000 -199.999908 600.000061
v -200.000000 -199.999924 500.000031
v -200.000000 -99.999901 600.000000
v -200.000000 -99.999916 500.000031
v 0.000000 0.000098 600.000000
v 0.000000 -99.999901 600.000000
v -200.000000 -199.999908 600.000061
v -200.000000 -299.999908 600.000061
v -100.000000 -99.999916 500.000031
v -200.000000 -99.999916 500.000031
v -200.000000 -199.999924 500.000031
v -100.000000 -199.999924 500.000031
v -200.000000 -99.999901 600.000000
v -200.000000 -99.999916 500.000031
v -100.000000 -99.999901 600.000000
v -100.000000 -99.999916 500.000031
v -100.000000 -99.999901 600.000000
v -100.000000 -99.999916 500.000031
v -100.000000 -199.999908 600.000061
v -100.000000 -199.999924 500.000031
v -100.000000 -199.999908 600.000061
v -100.000000 -199.999924 500.000031
v -200.000000 -199.999908 600.000061
v -200.000000 -199.999924 500.000031
v -100.000000 100.000114 700.000000
v -200.000000 100.000114 700.000000
v -200.000000 0.000114 700.000000
v -100.000000 0.000114 700.000000
v -400.000000 -99.999886 700.000000
v -300.000000 -199.999893 700.000061
v -300.000000 -99.999886 700.000000
v -400.000000 -199.999893 700.000061
v -100.000000 -299.999878 700.000061
v -200.000000 -299.999878 700.000061
v -100.000000 -399.999878 700.000061
v -200.000000 -399.999878 700.000061
v 100.000000 -99.999886 700.000000
v 0.000000 -99.999886 700.000000
v 100.000000 -199.999893 700.000061
v 0.000000 -199.999893 700.000061
v 100.000000 -199.999893 700.000061
v 0.000000 -199.999893 700.000061
v -400.000000 -199.999893 700.000061
v -400.000000 -99.999886 700.000000
v -200.000000 -399.999878 700.000061
v -200.000000 -299.999878 700.000061
v 100.000000 -99.999886 700.000000
v 100.000000 -199.999893 700.000061
v -100.000000 100.000114 700.000000
v -100.000000 0.000114 700.000000
v -200.000000 0.000114 700.000000
v -200.000000 100.000114 700.000000
v -300.000000 -199.999893 700.000061
v -400.000000 -199.999893 700.000061
v -100.000000 0.000114 700.000000
v -200.000000 0.000114 700.000000
v -200.000000 0.000098 600.000000
v -100.000000 0.000098 600.000000
v -200.000000 100.000114 700.000000
v -100.000000 100.000114 700.000000
v -300.000000 -99.999886 700.000000
v -300.000000 -199.999893 700.000061
v -300.000000 -199.999908 600.000061
v -300.000000 -99.999901 600.000000
v -400.000000 -99.999886 700.000000
v -300.000000 -99.999886 700.000000
v -200.000000 -299.999878 700.000061
v -100.000000 -299.999878 700.000061
v -100.000000 -299.999908 600.000061
v -200.000000 -299.999908 600.000061
v -400.000000 -99.999954 300.000031
v -400.000000 -199.999954 300.000031
v 0.000000 -199.999954 300.000031
v 100.000000 -199.999954 300.000031
v 100.000000 -99.999954 300.000031
v 0.000000 -99.999954 300.000031
v -100.000000 100.000046 299.999969
v -200.000000 100.000046 299.999969
v -300.000000 0.000065 400.000000
v -300.000000 -99.999931 400.000031
v -100.000000 0.000049 300.000000
v -100.000000 100.000046 299.999969
v 100.000000 -199.999954 300.000031
v 100.000000 -99.999954 300.000031
v -400.000000 -199.999954 300.000031
v -300.000000 -199.999954 300.000031
v -200.000000 100.000046 299.999969
v -200.000000 0.000049 300.000000
v -300.000000 -99.999954 300.000031
v -400.000000 -99.999954 300.000031
v -200.000000 0.000065 400.000000
v -300.000000 0.000065 400.000000
v -300.000000 -199.999908 600.000061
v -300.000000 -299.999908 600.000061
vn -1.0000 -0.0000 -0.0000
vn -0.0000 1.0000 -0.0000
vn 1.0000 -0.0000 -0.0000
vn -0.0000 -1.0000 -0.0000
vn -0.0000 -0.0000 -1.0000
vn -0.0000 -0.0000 1.0000
vt 0.000031 0.750000
vt 0.250000 0.750000
vt 0.250000 0.999969
vt 0.000031 0.999969
vt 0.500000 0.750000
vt 0.500000 0.999969
vt 0.750000 0.750000
vt 0.750000 0.999969
vt 0.750000 0.500000
vt 0.500000 0.500000
vt 1.000000 0.250000
vt 1.000000 0.500000
vt 0.750000 0.250000
vt -0.000031 0.750000
vt 1.000000 0.750000
vt -0.000031 0.999969
vt 0.500000 0.250000
vt 1.000000 0.999969
vt 0.250000 0.250000
vt 0.250000 0.500000
vt 0.000031 0.500000
vt 0.000031 0.250000
vt 0.000031 0.000000
vt 0.250000 0.000000
vt 1.000000 0.000000
vt 0.750000 0.000000
s 1
usemtl M_IceFort_PF
f 140/1/5 142/2/5 141/3/5 139/4/5
f 252/5/2 214/6/2 213/3/2 251/2/2
f 7/7/2 128/8/2 127/6/2 5/5/2
f 372/9/2 256/7/2 255/5/2 371/10/2
f 73/5/4 243/6/4 244/3/4 74/2/4
f 162/11/2 159/12/2 160/9/2 161/13/2
f 263/2/4 186/3/4 185/4/4 264/1/4
f 118/14/1 27/2/1 26/3/1 117/4/1
f 8/15/2 6/7/2 7/9/2 5/12/2
f 145/9/2 370/7/2 369/5/2 143/10/2
f 164/9/2 166/13/2 165/11/2 163/12/2
f 186/11/4 183/12/4 184/9/4 185/13/4
f 298/9/3 297/13/3 295/11/3 296/12/3
f 91/16/1 1/1/1 92/2/1 90/3/1
f 214/9/2 211/7/2 212/5/2 213/10/2
f 203/11/2 353/12/2 354/9/2 204/13/2
f 17/5/3 39/6/3 40/3/3 41/2/3
f 13/10/2 14/17/2 24/13/2 23/9/2
f 130/16/4 132/1/4 131/2/4 129/3/4
f 249/2/1 218/3/1 217/4/1 250/1/1
f 28/2/1 25/3/1 26/4/1 27/1/1
f 2/9/1 4/13/1 3/11/1 1/12/1
f 84/9/4 380/7/4 379/5/4 82/10/4
f 89/5/4 86/6/4 87/3/4 88/2/4
f 38/9/1 4/10/1 2/17/1 37/13/1
f 85/3/4 83/16/4 84/1/4 82/2/4
f 326/9/6 324/13/6 325/11/6 323/12/6
f 36/11/4 34/12/4 35/9/4 33/13/4
f 238/15/3 235/18/3 236/8/3 237/7/3
f 374/7/1 198/8/1 197/6/1 373/5/1
f 226/9/4 223/7/4 224/5/4 225/10/4
f 222/15/1 219/18/1 220/8/1 221/7/1
f 22/2/4 19/3/4 20/4/4 21/1/4
f 171/11/1 345/12/1 346/9/1 172/13/1
f 112/11/3 109/12/3 110/9/3 111/13/3
f 194/7/3 191/8/3 192/6/3 193/5/3
f 246/5/4 226/6/4 225/3/4 245/2/4
f 119/9/1 247/7/1 248/5/1 120/10/1
f 235/19/3 275/20/3 276/21/3 236/22/3
f 60/9/2 62/13/2 61/11/2 59/12/2
f 352/11/4 349/12/4 350/9/4 351/13/4
f 45/11/4 43/12/4 22/9/4 21/13/4
f 125/2/2 257/3/2 258/4/2 126/1/2
f 15/2/3 153/3/3 154/4/3 16/1/3
f 12/15/3 10/7/3 11/9/3 9/12/3
f 46/11/4 45/12/4 21/9/4 44/13/4
f 93/2/4 147/3/4 148/4/4 94/1/4
f 70/2/2 67/3/2 68/4/2 69/1/2
f 151/5/3 267/6/3 268/3/3 152/2/3
f 58/12/1 57/9/1 55/13/1 56/11/1
f 153/2/3 273/3/3 274/4/3 154/1/3
f 272/17/2 170/10/2 169/20/2 271/19/2
f 289/13/6 292/11/6 300/12/6 299/9/6
f 71/9/2 384/7/2 383/5/2 67/10/2
f 11/7/3 15/8/3 16/6/3 9/5/3
f 262/5/3 190/6/3 189/3/3 261/2/3
f 104/4/3 102/1/3 103/2/3 101/3/3
f 322/11/6 319/12/6 320/9/6 321/13/6
f 18/12/3 12/9/3 9/13/3 17/11/3
f 314/9/1 313/13/1 311/11/1 312/12/1
f 242/17/1 234/10/1 233/20/1 241/19/1
f 106/16/1 108/1/1 107/2/1 105/3/1
f 364/19/2 361/20/2 362/21/2 363/22/2
f 386/7/2 162/8/2 161/6/2 385/5/2
f 202/11/2 199/12/2 200/9/2 201/13/2
f 66/12/6 64/9/6 65/13/6 63/11/6
f 191/11/3 343/12/3 344/9/3 192/13/3
f 113/13/2 372/9/2 371/10/2 114/17/2
f 32/4/5 31/1/5 29/2/5 30/3/5
f 147/5/4 263/6/4 264/3/4 148/2/4
f 133/5/1 249/6/1 250/3/1 134/2/1
f 230/11/4 227/12/4 228/9/4 229/13/4
f 286/13/6 288/11/6 287/12/6 285/9/6
f 247/8/1 222/7/1 221/15/1 248/18/1
f 174/7/1 171/8/1 172/6/1 173/5/1
f 96/2/4 89/3/4 88/4/4 95/1/4
f 129/9/4 368/7/4 367/5/4 130/10/4
f 257/13/2 202/9/2 201/10/2 258/17/2
f 116/2/2 113/3/2 114/4/2 115/1/2
f 219/19/1 339/20/1 340/21/1 220/22/1
f 358/11/3 355/12/3 356/9/3 357/13/3
f 267/2/3 178/3/3 177/4/3 268/1/3
f 138/2/3 135/3/3 136/4/3 137/1/3
f 122/16/3 124/1/3 123/2/3 121/3/3
f 54/19/6 52/22/6 53/23/6 51/24/6
f 128/2/2 125/3/2 126/4/2 127/1/2
f 256/15/2 206/18/2 205/8/2 255/7/2
f 253/8/4 210/7/4 209/15/4 254/18/4
f 273/13/3 112/9/3 111/10/3 274/17/3
f 260/15/3 194/18/3 193/8/3 259/7/3
f 86/9/4 253/7/4 254/5/4 87/10/4
f 243/2/4 230/3/4 229/4/4 244/1/4
f 19/13/4 73/9/4 74/10/4 20/17/4
f 105/5/1 119/6/1 120/3/1 106/2/1
f 90/13/1 133/9/1 134/10/1 91/17/1
f 178/11/3 175/12/3 176/9/3 177/13/3
f 291/25/6 290/11/6 293/13/6 294/26/6
f 42/12/3 18/9/3 17/13/3 41/11/3
f 270/15/1 174/18/1 173/8/1 269/7/1
f 239/8/3 238/7/3 237/15/3 240/18/3
f 158/9/5 156/13/5 157/11/5 155/12/5
f 292/25/6 289/11/6 290/13/6 291/26/6
f 146/14/2 144/2/2 145/3/2 143/4/2
f 179/11/4 347/12/4 348/9/4 180/13/4
f 207/19/4 283/20/4 284/21/4 208/22/4
f 190/9/3 187/7/3 188/5/3 189/10/3
f 211/19/2 277/20/2 278/21/2 212/22/2
f 266/17/4 182/10/4 181/20/4 265/19/4
f 182/5/4 179/6/4 180/3/4 181/2/4
f 318/9/2 317/13/2 315/11/2 316/12/2
f 55/2/1 75/3/1 76/4/1 77/1/1
f 234/5/1 231/6/1 232/3/1 233/2/1
f 223/19/4 335/20/4 336/21/4 224/22/4
f 306/11/6 303/12/6 304/9/6 305/13/6
f 292/26/6 286/25/6 285/11/6 300/13/6
f 81/4/5 79/1/5 80/2/5 78/3/5
f 135/9/3 378/7/3 377/5/3 136/10/3
f 332/21/6 334/20/6 333/2/6 331/1/6
f 187/19/3 341/20/3 342/21/3 188/22/3
f 121/13/3 376/9/3 375/10/3 122/17/3
f 282/19/1 279/20/1 280/21/1 281/22/1
f 378/7/3 262/8/3 261/6/3 377/5/3
f 218/11/1 215/12/1 216/9/1 217/13/1
f 328/21/6 330/20/6 329/2/6 327/1/6
f 288/25/6 286/11/6 301/13/6 302/26/6
f 100/2/5 97/3/5 98/4/5 99/1/5
f 231/11/1 337/12/1 338/9/1 232/13/1
f 43/11/4 36/12/4 33/9/4 22/13/4
f 206/7/2 203/8/2 204/6/2 205/5/2
f 103/5/3 149/6/3 150/3/3 101/2/3
f 47/9/1 374/7/1 373/5/1 48/10/1
f 210/15/4 207/18/4 208/8/4 209/7/4
f 368/7/4 246/8/4 245/6/4 367/5/4
f 167/11/2 359/12/2 360/9/2 168/13/2
f 301/11/6 291/12/6 294/9/6 387/13/6
f 310/9/4 309/13/4 307/11/4 308/12/4
f 7/9/2 6/13/2 14/11/2 13/12/2
f 198/11/1 195/12/1 196/9/1 197/13/1
f 376/9/3 260/7/3 259/5/3 375/10/3
f 39/2/3 151/3/3 152/4/3 40/1/3
f 50/11/1 47/12/1 48/9/1 49/13/1
f 366/7/1 242/8/1 241/6/1 365/5/1
f 26/13/1 382/9/1 381/10/1 117/17/1
f 170/5/2 167/6/2 168/3/2 169/2/2
f 67/2/2 70/3/2 72/4/2 71/14/2
f 75/9/1 366/7/1 365/5/1 76/10/1
f 382/9/1 270/7/1 269/5/1 381/10/1
f 149/9/3 239/7/3 240/5/3 150/10/3
f 384/7/2 272/8/2 271/6/2 383/5/2
f 380/7/4 266/8/4 265/6/4 379/5/4
f 370/7/2 252/8/2 251/6/2 369/5/2
f 163/9/2 386/7/2 385/5/2 164/10/2
f 35/5/4 93/6/4 94/3/4 33/2/4
f 302/25/6 301/11/6 387/13/6 388/26/6
