# Blender 5.0.1
# www.blender.org
mtllib BP_Loaf.mtl
o SM_Loaf.001
v 18.749998 -43.750000 31.249998
v -18.749998 -43.750000 31.249998
v -18.749998 -43.750000 0.000000
v 18.749998 -43.750000 0.000000
v 18.749998 -43.750000 31.249998
v 18.749998 43.750000 31.249998
v -18.749998 -43.750000 31.249998
v -18.749998 43.750000 31.249998
v 18.749998 43.750000 -0.000000
v -18.749998 43.750000 -0.000000
v -18.749998 43.750000 31.249998
v 18.749998 43.750000 31.249998
v -18.749998 -43.750000 0.000000
v -18.749998 43.750000 -0.000000
v 18.749998 -43.750000 0.000000
v 18.749998 43.750000 -0.000000
v 18.749998 43.750000 31.249998
v 18.749998 -43.750000 31.249998
v 18.749998 -43.750000 0.000000
v 18.749998 43.750000 -0.000000
v -18.749998 -43.750000 31.249998
v -18.749998 43.750000 -0.000000
v -18.749998 -43.750000 0.000000
v -18.749998 43.750000 31.249998
vn -0.0000 -1.0000 -0.0000
vn -0.0000 -0.0000 1.0000
vn -0.0000 1.0000 -0.0000
vn -0.0000 -0.0000 -1.0000
vn 1.0000 -0.0000 -0.0000
vn -1.0000 -0.0000 -0.0000
vt 0.500000 0.562500
vt 0.500000 0.999969
vt 0.343750 0.998851
vt 0.343750 0.563721
vt 0.687500 0.999969
vt 0.687500 0.843750
vt 0.875000 0.843750
vt 0.875000 0.999969
vt 0.875000 0.687500
vt 0.687500 0.687500
vt 0.687500 0.562500
vt 0.156250 0.998850
vt 0.156250 0.563721
vt -0.000070 0.998849
vt -0.000070 0.563721
s 1
usemtl MI_Loaf
f 19/1/5 20/2/5 17/3/5 18/4/5
f 12/5/3 9/6/3 10/7/3 11/8/3
f 4/9/1 1/7/1 2/6/1 3/10/1
f 16/2/4 15/1/4 13/11/4 14/5/4
f 8/12/2 7/13/2 5/4/2 6/3/2
f 24/12/6 22/14/6 23/15/6 21/13/6
