# Blender 5.0.1
# www.blender.org
mtllib BP_Lilypad_Gigantic_Flower.mtl
o SM_Lilypad_Gigantic_Flower.001
v 22.169575 -97.652222 43.750000
v 22.169575 -21.875000 0.000002
v -21.580421 -97.652222 43.750000
v -21.580421 -21.875000 0.000002
v 21.580408 21.875000 0.000002
v 21.580408 97.652222 43.750000
v -22.169559 21.875000 0.000002
v -22.169559 97.652222 43.750000
v 97.652229 -21.580429 43.750000
v 21.875011 22.169567 0.000002
v 21.875011 -21.580429 0.000002
v 97.652229 22.169567 43.750000
v -21.874996 21.580402 0.000002
v -97.652214 21.580402 43.750000
v -21.874996 -22.169571 0.000002
v -97.652214 -22.169571 43.750000
v 0.208299 -30.727638 0.000001
v 59.971909 -90.491241 22.646667
v 31.144224 0.208290 0.000001
v 90.907829 -59.555328 22.646667
v 59.555325 90.907822 22.646667
v -0.208287 31.144218 0.000001
v 90.491249 59.971901 22.646667
v 30.727640 0.208290 0.000001
v -90.491211 -59.971909 22.646667
v 0.208297 -31.144211 0.000001
v -30.727608 -0.208305 0.000001
v -59.555313 -90.907822 22.646667
v -31.144209 -0.208282 0.000001
v -59.971909 90.491219 22.646667
v -90.907822 59.555321 22.646667
v -0.208306 30.727615 0.000001
v 22.169577 -109.375000 0.000000
v 22.169577 -21.875000 0.000000
v -21.580395 -109.375000 0.000000
v -21.580395 -21.875000 0.000000
v 21.580442 21.875008 -0.000000
v 21.580442 109.375000 -0.000000
v -22.169556 21.875008 -0.000000
v -22.169556 109.375000 -0.000000
v -21.874996 21.580402 -0.000000
v -109.374985 21.580402 -0.000000
v -21.874996 -22.169571 0.000000
v -109.374985 -22.169571 0.000000
v 109.375008 -21.580429 0.000000
v 21.875015 22.169567 -0.000000
v 21.875015 -21.580429 0.000000
v 109.375008 22.169567 -0.000000
v -22.202503 -21.875031 0.000000
v 21.547491 -21.875031 0.000000
v 15.297495 -15.625015 6.250000
v 21.547491 21.874969 -0.000000
v -15.952500 -15.625008 6.250000
v -22.202503 21.874969 -0.000000
v 15.297495 15.624992 6.250000
v -15.952500 15.624992 6.250000
vn -0.0000 0.5000 0.8660
vn -0.0000 -0.5000 0.8660
vn -0.5000 -0.0000 0.8660
vn 0.5000 -0.0000 0.8660
vn -0.1830 0.1830 0.9659
vn -0.1830 -0.1830 0.9659
vn 0.1830 0.1830 0.9659
vn 0.1830 -0.1830 0.9659
vn -0.0000 -0.0000 1.0000
vn -0.4083 -0.4082 0.8165
vn 0.4082 -0.4082 0.8165
vn 0.3002 -0.3002 0.9054
vn 0.4082 0.4082 0.8165
vn -0.3002 -0.3002 0.9054
vn -0.4082 0.4083 0.8165
vn 0.3002 0.3002 0.9054
vn -0.3002 0.3002 0.9054
vt 0.468750 0.031250
vt 0.468750 0.468750
vt 0.250000 0.468750
vt 0.250000 0.031250
vt 0.218750 0.031250
vt 0.218750 0.468750
vt 0.000031 0.468750
vt 0.000031 0.031250
vt 0.656250 0.312500
vt 0.656250 0.156250
vt 0.812500 0.156250
vt 0.812500 0.312500
vt 0.625000 0.125000
vt 0.843750 0.125000
vt 0.843750 0.343750
vt 0.625000 0.343750
s 1
usemtl MI_Lilypad_Gigantic
f 36/1/9 35/2/9 33/3/9 34/4/9
f 32/1/8 30/2/8 31/3/8 29/4/8
f 14/2/4 16/3/4 15/4/4 13/1/4
f 4/5/1 3/6/1 1/7/1 2/8/1
f 28/3/7 26/4/7 27/1/7 25/2/7
f 56/9/17 53/10/14 51/11/12 55/12/16
f 20/7/5 19/8/5 17/5/5 18/6/5
f 42/2/9 44/3/9 43/4/9 41/1/9
f 12/7/3 10/8/3 11/5/3 9/6/3
f 8/3/2 7/4/2 5/1/2 6/2/2
f 40/7/9 39/8/9 37/5/9 38/6/9
f 51/11/12 49/13/10 50/14/11
f 50/14/11 52/15/13 51/11/12
f 53/10/14 49/13/10 51/11/12
f 53/10/14 54/16/15 49/13/10
f 55/12/16 51/11/12 52/15/13
f 22/8/6 24/5/6 23/6/6 21/7/6
f 56/9/17 52/15/13 54/16/15
f 56/9/17 54/16/15 53/10/14
f 55/12/16 52/15/13 56/9/17
f 48/7/9 46/8/9 47/5/9 45/6/9
