# Blender 5.0.1
# www.blender.org
mtllib BP_LobbyVillagerMysteryMerchant.mtl
o SM_MysteriousMerchantCap.001
v -26.249996 394.062500 51.249992
v 26.250000 394.062500 51.249992
v 26.250000 394.062500 26.249992
v -26.249996 394.062500 26.249992
v 26.250000 394.062500 51.249989
v 26.250000 328.437500 51.249989
v 26.250000 328.437500 26.249989
v 26.250000 394.062500 26.249989
v -26.250000 394.062500 51.249989
v -26.250000 328.437500 51.249989
v -26.250000 328.437500 26.249989
v -26.250000 394.062500 26.249989
vn -0.0000 1.0000 -0.0000
vn 1.0000 -0.0000 -0.0000
vt 0.843750 0.218750
vt 0.843750 0.156250
vt 0.968750 0.156250
vt 0.968750 0.218750
vt 0.843750 0.094238
vt 1.000000 0.094238
vt 1.000000 0.156738
vt 0.843750 0.281250
vt 1.000000 0.218750
vt 1.000000 0.281250
s 1
usemtl WorldGridMaterial
f 4/1/1 1/2/1 2/3/1 3/4/1
f 8/2/2 5/5/2 6/6/2 7/7/2
f 12/8/2 9/1/2 10/9/2 11/10/2
