# Blender 5.0.1
# www.blender.org
mtllib BP_LS_LanternWall.mtl
o SM_LS_LanternWall.001
v 71.875000 -15.624998 -68.054703
v 40.625000 -15.624998 -68.054703
v 40.625000 15.624998 -68.054695
v 71.875000 15.624998 -68.054695
v 40.625000 -15.624998 -12.039075
v 71.875000 -15.624998 -12.039075
v 71.875000 15.624997 -12.039076
v 40.625000 15.624997 -12.039076
v 62.499989 -0.737933 -0.000014
v 50.000000 -0.737932 -12.500013
v 62.499989 -0.737931 -12.500013
v 49.999989 -0.737934 -0.000014
v 50.000000 0.737937 -12.500013
v 62.499989 0.737933 -0.000013
v 62.499989 0.737935 -12.500013
v 49.999989 0.737935 -0.000013
v 71.875000 15.624998 -68.054695
v 40.625000 15.624998 -68.054695
v 71.875000 15.624997 -18.054699
v 40.625000 15.624997 -18.054699
v 71.875000 15.624997 -12.039076
v 40.625000 15.624997 -12.039076
v 71.875000 -15.624998 -68.054703
v 40.625000 -15.624998 -18.054705
v 40.625000 -15.624998 -68.054703
v 71.875000 -15.624998 -18.054705
v 40.625000 -15.624998 -12.039075
v 71.875000 -15.624998 -12.039075
v 50.004448 0.737942 34.996914
v 37.504448 0.737943 47.496914
v 50.004448 0.737940 47.496918
v 37.504448 0.737945 34.996914
v 25.004446 0.737945 47.496914
v 25.004446 0.737947 34.996914
v 12.504446 0.737948 47.496914
v 12.504446 0.737950 34.996914
v 12.504446 0.737953 12.496916
v 25.004446 0.737950 12.496916
v 12.504446 0.737955 -0.003090
v 25.004452 0.737951 -0.003084
v 0.004447 0.737955 12.496910
v 0.004447 0.737956 -0.003090
v 50.004459 -0.737930 -0.003092
v 62.504448 -0.737932 12.496908
v 50.004459 -0.737932 12.496908
v 62.504459 -0.737931 -0.003092
v 75.004448 -0.737933 12.496908
v 75.004456 -0.737931 -0.003092
v 62.504448 -0.737934 34.996914
v 75.004456 -0.737934 34.996914
v 75.004448 -0.737936 47.496914
v 50.004448 -0.737938 47.496914
v 50.004448 -0.737936 34.996914
v 62.504448 -0.737936 47.496914
v 75.004448 -0.737938 59.996914
v 62.504448 -0.737937 59.996914
v 37.504448 -0.737947 47.496914
v 50.004448 -0.737943 34.996918
v 50.004448 -0.737945 47.496914
v 37.504448 -0.737945 34.996914
v 25.004452 -0.737946 34.996914
v 25.004446 -0.737948 47.496914
v 12.504453 -0.737949 34.996914
v 12.504453 -0.737951 47.496914
v 12.504453 -0.737946 12.496915
v 25.004452 -0.737943 12.496915
v 12.504453 -0.737944 -0.003085
v 25.004452 -0.737942 -0.003085
v 0.004452 -0.737947 12.496915
v 0.004452 -0.737945 -0.003085
v 71.875000 -15.624998 -18.054705
v 71.875000 -15.624998 -68.054703
v 71.875000 15.624998 -68.054695
v 71.875000 15.624997 -18.054699
v 71.875000 15.624997 -12.039076
v 71.875000 -15.624998 -12.039075
v 40.625000 -15.624998 -18.054705
v 40.625000 15.624998 -68.054695
v 40.625000 -15.624998 -68.054703
v 40.625000 15.624997 -18.054699
v 40.625000 15.624997 -12.039076
v 40.625000 -15.624998 -12.039075
v 62.504448 0.737930 47.496914
v 62.504448 0.737929 59.996914
v 75.004448 0.737928 59.996914
v 75.004448 0.737930 47.496914
v 62.504448 0.737932 34.996914
v 50.004448 0.737933 47.496914
v 50.004448 0.737935 34.996910
v 75.004448 0.737932 34.996914
v 62.504448 0.737937 12.496908
v 75.004448 0.737936 12.496908
v 62.504459 0.737938 -0.003092
v 75.004456 0.737938 -0.003092
v 50.004448 0.737939 -0.003092
v 50.004448 0.737937 12.496908
vn -0.0000 -0.0000 -1.0000
vn -0.0000 -0.0000 1.0000
vn -0.0000 -1.0000 -0.0000
vn -0.0000 1.0000 -0.0000
vn 1.0000 -0.0000 -0.0000
vn -1.0000 -0.0000 -0.0000
vt 0.562500 0.281250
vt 0.406250 0.281250
vt 0.406250 0.031250
vt 0.562500 0.031250
vt 0.281250 0.468750
vt 0.281250 0.406250
vt 0.156250 0.406250
vt 0.156250 0.468750
vt 0.281250 0.906250
vt 0.281250 0.968750
vt 0.343750 0.968750
vt 0.343750 0.906250
vt 0.343750 0.468750
vt 0.343750 0.406250
vt 0.218750 0.312500
vt 0.375000 0.312500
vt 0.375000 0.281250
vt 0.218750 0.281250
vt 0.031250 0.906250
vt 0.031250 0.843750
vt 0.093750 0.843750
vt 0.093750 0.906250
vt 0.343750 0.343750
vt 0.281250 0.343750
vt 0.937500 0.375000
vt 0.937500 0.218750
vt 0.781250 0.218750
vt 0.781250 0.375000
vt 0.375000 0.031250
vt 0.218750 0.031250
vt 0.781250 0.187500
vt 0.781250 0.031250
vt 0.937500 0.031250
vt 0.937500 0.187500
vt 0.593750 0.281250
vt 0.593750 0.312500
vt 0.750000 0.312500
vt 0.750000 0.281250
vt 0.562500 0.312500
vt 0.406250 0.312500
vt 0.281250 0.843750
vt 0.343750 0.843750
vt 0.281250 0.781250
vt 0.343750 0.781250
vt 0.156250 0.593750
vt 0.156250 0.531250
vt 0.093750 0.531250
vt 0.093750 0.593750
vt 0.093750 0.468750
vt 0.093750 0.406250
vt 0.187500 0.281250
vt 0.031250 0.281250
vt 0.031250 0.031250
vt 0.187500 0.031250
vt 0.593750 0.031250
vt 0.750000 0.031250
vt 0.156250 0.843750
vt 0.156250 0.906250
vt 0.156250 0.781250
vt 0.093750 0.781250
vt 0.093689 0.593750
vt 0.031250 0.312500
vt 0.187500 0.312500
vt 0.156128 0.781250
s 1
usemtl M_LS_Lantern
f 26/1/3 24/2/3 25/3/3 23/4/3
f 38/5/4 37/6/4 36/7/4 34/8/4
f 16/9/4 14/10/4 15/11/4 13/12/4
f 40/13/4 39/14/4 37/6/4 38/5/4
f 82/15/6 81/16/6 80/17/6 77/18/6
f 55/19/3 56/20/3 54/21/3 51/22/3
f 70/23/3 67/14/3 65/6/3 69/24/3
f 4/25/1 1/26/1 2/27/1 3/28/1
f 80/17/6 78/29/6 79/30/6 77/18/6
f 8/31/2 5/32/2 6/33/2 7/34/2
f 20/35/4 22/36/4 21/37/4 19/38/4
f 28/39/3 27/40/3 24/2/3 26/1/3
f 48/12/3 47/9/3 44/41/3 46/42/3
f 46/42/3 44/41/3 45/43/3 43/44/3
f 96/43/4 91/41/4 93/42/4 95/44/4
f 91/41/4 92/9/4 94/12/4 93/42/4
f 29/45/4 32/46/4 30/47/4 31/48/4
f 61/8/3 62/49/3 64/50/3 63/7/3
f 34/8/4 33/49/4 30/47/4 32/46/4
f 68/13/3 66/5/3 65/6/3 67/14/3
f 74/51/5 71/52/5 72/53/5 73/54/5
f 39/14/4 42/23/4 41/24/4 37/6/4
f 62/49/3 61/8/3 60/46/3 57/47/3
f 34/8/4 36/7/4 35/50/4 33/49/4
f 18/55/4 20/35/4 19/38/4 17/56/4
f 66/5/3 61/8/3 63/7/3 65/6/3
f 51/22/3 54/21/3 49/57/3 50/58/3
f 87/57/4 89/59/4 88/60/4 83/21/4
f 60/46/3 58/45/3 59/61/3 57/47/3
f 76/62/5 71/52/5 74/51/5 75/63/5
f 54/21/3 52/60/3 53/64/3 49/57/3
f 85/19/4 86/22/4 83/21/4 84/20/4
f 50/58/3 49/57/3 44/41/3 47/9/3
f 86/22/4 90/58/4 87/57/4 83/21/4
f 12/9/3 10/12/3 11/11/3 9/10/3
f 90/58/4 92/9/4 91/41/4 87/57/4
