# Blender 5.0.1
# www.blender.org
mtllib BP_Lilies.mtl
o SM_Lilies.001
v 37.500000 -44.190945 92.046280
v 37.500000 -55.016258 98.296280
v 50.000000 -44.190945 92.046280
v 50.000000 -55.016258 98.296280
v 50.000000 -55.016258 98.296280
v 37.500000 -55.016258 98.296280
v 50.000000 -61.266258 87.470963
v 37.500000 -61.266258 87.470963
v 43.750000 -38.153908 93.663895
v 34.911163 -40.441566 102.201553
v 43.750000 -50.227982 90.428658
v 34.911163 -52.515636 98.966316
v 34.911163 -52.515636 98.966316
v 34.911163 -40.441566 102.201553
v 26.072330 -50.227982 90.428658
v 26.072330 -38.153908 93.663895
v 50.000000 -44.190941 92.046280
v 50.000000 -37.940941 102.871597
v 37.500000 -44.190941 92.046280
v 37.500000 -37.940941 102.871597
v 37.500000 -37.940941 102.871597
v 50.000000 -37.940941 102.871597
v 37.500000 -27.115625 96.621597
v 50.000000 -27.115625 96.621597
v 43.750000 -50.227982 90.428658
v 52.588837 -52.515636 98.966316
v 43.750000 -38.153908 93.663895
v 52.588837 -40.441566 102.201553
v 52.588837 -40.441566 102.201553
v 52.588837 -52.515636 98.966316
v 61.427670 -38.153908 93.663895
v 61.427670 -50.227982 90.428658
v -18.750000 6.250000 76.830582
v -27.588837 6.250000 85.669418
v -18.750000 -6.250000 76.830582
v -27.588837 -6.250000 85.669418
v -27.588837 -6.250000 85.669418
v -27.588837 6.250000 85.669418
v -36.427670 -6.250000 76.830582
v -36.427670 6.250000 76.830582
v -12.500000 0.000001 76.830582
v -12.500000 8.838835 85.669418
v -25.000000 0.000001 76.830582
v -25.000000 8.838835 85.669418
v -25.000000 8.838835 85.669418
v -12.500000 8.838835 85.669418
v -25.000000 17.677670 76.830582
v -12.500000 17.677670 76.830582
v -18.750000 -6.250000 76.830582
v -9.911165 -6.250000 85.669418
v -18.750000 6.250000 76.830582
v -9.911165 6.250000 85.669418
v -9.911165 6.250000 85.669418
v -9.911165 -6.250000 85.669418
v -1.072330 6.250000 76.830582
v -1.072330 -6.250000 76.830582
v -25.000000 -0.000001 76.830582
v -25.000000 -8.838835 85.669418
v -12.500000 -0.000001 76.830582
v -12.500000 -8.838835 85.669418
v -12.500000 -8.838835 85.669418
v -25.000000 -8.838835 85.669418
v -12.500000 -17.677670 76.830582
v -25.000000 -17.677670 76.830582
v -37.500000 37.500000 100.000000
v -46.338837 37.500000 108.838837
v -37.500000 25.000000 100.000000
v -46.338837 25.000000 108.838837
v -46.338837 25.000000 108.838837
v -46.338837 37.500000 108.838837
v -55.177673 25.000000 100.000000
v -55.177673 37.500000 100.000000
v -31.250000 31.250000 100.000000
v -31.250000 40.088837 108.838837
v -43.750000 31.250000 100.000000
v -43.750000 40.088837 108.838837
v -43.750000 40.088837 108.838837
v -31.250000 40.088837 108.838837
v -43.750000 48.927670 100.000000
v -31.250000 48.927670 100.000000
v -37.500000 25.000000 100.000000
v -28.661163 25.000000 108.838837
v -37.500000 37.500000 100.000000
v -28.661163 37.500000 108.838837
v -28.661163 37.500000 108.838837
v -28.661163 25.000000 108.838837
v -19.822330 37.500000 100.000000
v -19.822330 25.000000 100.000000
v -43.750000 31.250000 100.000000
v -43.750000 22.411165 108.838837
v -31.250000 31.250000 100.000000
v -31.250000 22.411165 108.838837
v -31.250000 22.411165 108.838837
v -43.750000 22.411165 108.838837
v -31.250000 13.572330 100.000000
v -43.750000 13.572330 100.000000
v 12.499999 6.250000 100.000000
v 3.661165 6.250000 108.838837
v 12.499999 -6.250000 100.000000
v 3.661165 -6.250000 108.838837
v 3.661165 -6.250000 108.838837
v 3.661165 6.250000 108.838837
v -5.177670 -6.250000 100.000000
v -5.177670 6.250000 100.000000
v 18.750000 0.000001 100.000000
v 18.750000 8.838835 108.838837
v 6.250000 0.000001 100.000000
v 6.250000 8.838835 108.838837
v 6.250000 8.838835 108.838837
v 18.750000 8.838835 108.838837
v 6.250000 17.677670 100.000000
v 18.750000 17.677670 100.000000
v 12.500001 -6.250000 100.000000
v 21.338835 -6.250000 108.838837
v 12.500001 6.250000 100.000000
v 21.338835 6.250000 108.838837
v 21.338835 6.250000 108.838837
v 21.338835 -6.250000 108.838837
v 30.177670 6.250000 100.000000
v 30.177670 -6.250000 100.000000
v 6.250000 -0.000001 100.000000
v 6.250000 -8.838835 108.838837
v 18.750000 -0.000001 100.000000
v 18.750000 -8.838835 108.838837
v 18.750000 -8.838835 108.838837
v 6.250000 -8.838835 108.838837
v 18.750000 -17.677670 100.000000
v 6.250000 -17.677670 100.000000
v 57.766502 37.500000 89.016502
v 57.766502 37.500000 101.516502
v 57.766502 25.000000 89.016502
v 57.766502 25.000000 101.516502
v 57.766502 25.000000 101.516502
v 57.766502 37.500000 101.516502
v 45.266502 25.000000 101.516502
v 45.266502 37.500000 101.516502
v 62.185921 31.250000 84.597084
v 68.435921 40.088837 90.847084
v 53.347084 31.250000 93.435921
v 59.597084 40.088837 99.685921
v 59.597084 40.088837 99.685921
v 68.435921 40.088837 90.847084
v 53.347084 48.927670 93.435921
v 62.185921 48.927670 84.597084
v 57.766502 25.000000 89.016502
v 70.266502 25.000000 89.016502
v 57.766502 37.500000 89.016502
v 70.266502 37.500000 89.016502
v 70.266502 37.500000 89.016502
v 70.266502 25.000000 89.016502
v 70.266502 37.500000 76.516502
v 70.266502 25.000000 76.516502
v 53.347084 31.250000 93.435921
v 59.597084 22.411165 99.685921
v 62.185921 31.250000 84.597084
v 68.435921 22.411165 90.847084
v 68.435921 22.411165 90.847084
v 59.597084 22.411165 99.685921
v 62.185921 13.572330 84.597084
v 53.347084 13.572330 93.435921
v 6.250000 50.440945 92.046280
v 6.250000 61.266258 98.296280
v -6.250000 50.440945 92.046280
v -6.250000 61.266258 98.296280
v -6.250000 61.266258 98.296280
v 6.250000 61.266258 98.296280
v -6.250000 67.516258 87.470963
v 6.250000 67.516258 87.470963
v 0.000001 44.403908 93.663895
v 8.838835 46.691566 102.201553
v 0.000001 56.477982 90.428658
v 8.838835 58.765636 98.966316
v 8.838835 58.765636 98.966316
v 8.838835 46.691566 102.201553
v 17.677670 56.477982 90.428658
v 17.677670 44.403908 93.663895
v -6.250000 50.440941 92.046280
v -6.250000 44.190941 102.871597
v 6.250000 50.440941 92.046280
v 6.250000 44.190941 102.871597
v 6.250000 44.190941 102.871597
v -6.250000 44.190941 102.871597
v 6.250000 33.365623 96.621597
v -6.250000 33.365623 96.621597
v -0.000001 56.477982 90.428658
v -8.838835 58.765636 98.966316
v -0.000001 44.403908 93.663895
v -8.838835 46.691566 102.201553
v -8.838835 46.691566 102.201553
v -8.838835 58.765636 98.966316
v -17.677670 44.403908 93.663895
v -17.677670 56.477982 90.428658
v 6.250000 0.000000 0.000000
v 18.750000 0.000000 0.000000
v 6.250000 0.000000 100.000000
v 18.750000 0.000000 100.000000
v 12.500000 -6.250000 0.000000
v 12.500000 6.250000 -0.000000
v 12.500000 -6.250000 100.000000
v 12.500000 6.250000 100.000000
v 25.000000 31.250000 -0.000000
v 37.500000 31.250000 -0.000000
v 25.000000 31.250000 62.500000
v 37.500000 31.250000 62.500000
v 31.250000 25.000000 -0.000000
v 31.250000 37.500000 -0.000000
v 31.250000 25.000000 62.500000
v 31.250000 37.500000 62.500000
v 26.830582 31.250000 66.919418
v 35.669418 31.250000 58.080582
v 53.347088 31.250000 93.435921
v 62.185921 31.250000 84.597092
v 31.250000 25.000000 62.500000
v 31.250000 37.500000 62.500000
v 57.766502 25.000000 89.016502
v 57.766502 37.500000 89.016502
v -50.000000 0.000000 0.000000
v -37.500000 0.000000 0.000000
v -50.000000 0.000000 43.750000
v -37.500000 0.000000 43.750000
v -43.750000 -6.250000 0.000000
v -43.750000 6.250000 -0.000000
v -43.750000 -6.250000 43.750000
v -43.750000 6.250000 43.750000
v -49.787037 0.000000 42.132381
v -37.712963 0.000000 45.367619
v -62.727989 0.000000 90.428673
v -50.653915 0.000000 93.663910
v -43.750000 -6.250000 43.750000
v -43.750000 6.250000 43.750000
v -56.690948 -6.250000 92.046295
v -56.690948 6.250000 92.046295
v -25.000000 0.000000 0.000000
v -12.500000 0.000000 0.000000
v -25.000000 0.000000 76.830582
v -12.500000 0.000000 76.830582
v -18.750000 -6.250000 0.000000
v -18.750000 6.250000 -0.000000
v -18.750000 -6.250000 76.830582
v -18.750000 6.250000 76.830582
v -43.750000 31.250000 -0.000000
v -31.250000 31.250000 -0.000000
v -43.750000 31.250000 100.000000
v -31.250000 31.250000 100.000000
v -37.500000 25.000000 -0.000000
v -37.500000 37.500000 -0.000000
v -37.500000 25.000000 100.000000
v -37.500000 37.500000 100.000000
v 37.500000 -37.500000 0.000000
v 37.500000 -25.000000 0.000000
v 37.500000 -37.500000 43.750000
v 37.500000 -25.000000 43.750000
v 43.750000 -31.250000 0.000000
v 31.250000 -31.250000 0.000000
v 43.750000 -31.250000 43.750000
v 31.250000 -31.250000 43.750000
v 37.500000 -37.287037 42.132381
v 37.500000 -25.212963 45.367619
v 37.500000 -50.227989 90.428673
v 37.500000 -38.153915 93.663910
v 43.750000 -31.250000 43.750000
v 31.250000 -31.250000 43.750000
v 43.750000 -44.190952 92.046295
v 31.250000 -44.190952 92.046295
v -25.000000 -25.000000 0.000000
v -25.000000 -37.500000 0.000000
v -25.000000 -25.000000 62.500000
v -25.000000 -37.500000 62.500000
v -31.250000 -31.250000 0.000000
v -18.750000 -31.250000 0.000000
v -31.250000 -31.250000 62.500000
v -18.750000 -31.250000 62.500000
v -25.000000 -26.830582 66.919418
v -25.000000 -35.669418 58.080582
v -25.000000 -53.347088 93.435921
v -25.000000 -62.185921 84.597092
v -31.250000 -31.250000 62.500000
v -18.750000 -31.250000 62.500000
v -31.250000 -57.766502 89.016502
v -18.750000 -57.766502 89.016502
v -18.750000 -57.766502 89.016502
v -18.750000 -57.766502 101.516502
v -31.250000 -57.766502 89.016502
v -31.250000 -57.766502 101.516502
v -31.250000 -57.766502 101.516502
v -18.750000 -57.766502 101.516502
v -31.250000 -45.266502 101.516502
v -18.750000 -45.266502 101.516502
v -25.000000 -62.185921 84.597084
v -16.161165 -68.435921 90.847084
v -25.000000 -53.347084 93.435921
v -16.161165 -59.597084 99.685921
v -16.161165 -59.597084 99.685921
v -16.161165 -68.435921 90.847084
v -7.322330 -53.347084 93.435921
v -7.322330 -62.185921 84.597084
v -31.250000 -57.766502 89.016502
v -31.250000 -70.266502 89.016502
v -18.750000 -57.766502 89.016502
v -18.750000 -70.266502 89.016502
v -18.750000 -70.266502 89.016502
v -31.250000 -70.266502 89.016502
v -18.750000 -70.266502 76.516502
v -31.250000 -70.266502 76.516502
v -25.000000 -53.347084 93.435921
v -33.838837 -59.597084 99.685921
v -25.000000 -62.185921 84.597084
v -33.838837 -68.435921 90.847084
v -33.838837 -68.435921 90.847084
v -33.838837 -59.597084 99.685921
v -42.677670 -62.185921 84.597084
v -42.677670 -53.347084 93.435921
v 6.250000 43.750000 -0.000000
v 6.250000 31.250000 -0.000000
v 6.250000 43.750000 43.750000
v 6.250000 31.250000 43.750000
v 0.000000 37.500000 -0.000000
v 12.500000 37.500000 -0.000000
v 0.000000 37.500000 43.750000
v 12.500000 37.500000 43.750000
v 6.250000 43.537037 42.132381
v 6.250000 31.462963 45.367619
v 6.250000 56.477989 90.428673
v 6.250000 44.403915 93.663910
v 0.000000 37.500000 43.750000
v 12.500000 37.500000 43.750000
v 0.000000 50.440952 92.046295
v 12.500000 50.440952 92.046295
v 0.000000 -43.750000 0.000000
v 12.500000 -43.750000 0.000000
v 0.000000 -43.750000 76.830582
v 12.500000 -43.750000 76.830582
v 6.250000 -50.000000 0.000000
v 6.250000 -37.500000 0.000000
v 6.250000 -50.000000 76.830582
v 6.250000 -37.500000 76.830582
v 6.249999 -37.500000 75.000000
v -2.588835 -37.500000 83.838837
v 6.249999 -50.000000 75.000000
v -2.588835 -50.000000 83.838837
v -2.588835 -50.000000 83.838837
v -2.588835 -37.500000 83.838837
v -11.427670 -50.000000 75.000000
v -11.427670 -37.500000 75.000000
v 12.500000 -43.750000 75.000000
v 12.500000 -34.911163 83.838837
v 0.000000 -43.750000 75.000000
v 0.000000 -34.911163 83.838837
v 0.000000 -34.911163 83.838837
v 12.500000 -34.911163 83.838837
v 0.000000 -26.072330 75.000000
v 12.500000 -26.072330 75.000000
v 6.250001 -50.000000 75.000000
v 15.088835 -50.000000 83.838837
v 6.250001 -37.500000 75.000000
v 15.088835 -37.500000 83.838837
v 15.088835 -37.500000 83.838837
v 15.088835 -50.000000 83.838837
v 23.927670 -37.500000 75.000000
v 23.927670 -50.000000 75.000000
v 0.000000 -43.750000 75.000000
v 0.000000 -52.588837 83.838837
v 12.500000 -43.750000 75.000000
v 12.500000 -52.588837 83.838837
v 12.500000 -52.588837 83.838837
v 0.000000 -52.588837 83.838837
v 12.500000 -61.427670 75.000000
v 0.000000 -61.427670 75.000000
v -56.690941 0.000000 92.046280
v -67.516258 0.000000 98.296280
v -56.690941 -12.500000 92.046280
v -67.516258 -12.500000 98.296280
v -67.516258 -12.500000 98.296280
v -67.516258 0.000000 98.296280
v -73.766258 -12.500000 87.470963
v -73.766258 0.000000 87.470963
v -50.653908 -6.249999 93.663895
v -52.941566 2.588835 102.201553
v -62.727982 -6.249999 90.428658
v -65.015640 2.588835 98.966316
v -65.015640 2.588835 98.966316
v -52.941566 2.588835 102.201553
v -62.727982 11.427670 90.428658
v -50.653908 11.427670 93.663895
v -56.690941 -12.500000 92.046280
v -50.440941 -12.500000 102.871597
v -56.690941 0.000000 92.046280
v -50.440941 0.000000 102.871597
v -50.440941 0.000000 102.871597
v -50.440941 -12.500000 102.871597
v -39.615623 0.000000 96.621597
v -39.615623 -12.500000 96.621597
v -62.727982 -6.250001 90.428658
v -65.015640 -15.088835 98.966316
v -50.653908 -6.250001 93.663895
v -52.941566 -15.088835 102.201553
v -52.941566 -15.088835 102.201553
v -65.015640 -15.088835 98.966316
v -50.653908 -23.927670 93.663895
v -62.727982 -23.927670 90.428658
vn -0.0000 0.5000 0.8660
vn -0.0000 -0.8660 0.5000
vn 0.7071 -0.1830 0.6830
vn -0.7071 -0.1830 0.6830
vn 0.7071 -0.0000 0.7071
vn -0.7071 -0.0000 0.7071
vn -0.0000 -0.7071 0.7071
vn -0.0000 0.7071 0.7071
vn 1.0000 -0.0000 -0.0000
vn -0.0000 -0.0000 1.0000
vn 0.5000 -0.7071 0.5000
vn 0.5000 0.7071 0.5000
vn -0.0000 -0.5000 0.8660
vn -0.0000 0.8660 0.5000
vn -0.7071 0.1830 0.6830
vn 0.7071 0.1830 0.6830
vn -0.0000 -1.0000 -0.0000
vn 0.7071 -0.0000 -0.7071
vn 0.9659 -0.0000 0.2588
vn -0.0000 1.0000 -0.0000
vn -0.0000 0.9659 0.2588
vn -1.0000 -0.0000 -0.0000
vn -0.0000 -0.7071 -0.7071
vn -0.7071 -0.5000 0.5000
vn 0.7071 -0.5000 0.5000
vn -0.0000 -0.9659 0.2588
vn 0.5000 -0.0000 0.8660
vn -0.8660 -0.0000 0.5000
vn -0.1830 -0.7071 0.6830
vn -0.1830 0.7071 0.6830
vt 0.000031 0.625000
vt 0.000031 0.500000
vt 0.125000 0.500000
vt 0.125000 0.625000
vt 0.875000 0.437500
vt 0.750000 0.437500
vt 0.750000 0.000000
vt 0.875000 0.000000
vt 0.875000 0.968750
vt 0.750000 0.968750
vt 0.750000 0.468750
vt 0.875000 0.468750
vt 0.875000 0.875000
vt 0.750000 0.875000
vt 0.750000 0.375000
vt 0.875000 0.375000
vt 0.125000 0.875000
vt 0.125000 0.750000
vt 0.250000 0.750000
vt 0.250000 0.875000
vt 0.250000 0.999969
vt 0.125000 0.999969
vt 0.000031 0.750000
vt 0.000031 0.999969
vt 0.000031 0.875000
vt 0.875000 0.999969
vt 0.750000 0.999969
vt 0.750000 0.625000
vt 0.875000 0.625000
vt 1.000000 0.999969
vt 1.000000 0.000000
vt 1.000000 0.468750
vt 0.875000 0.031250
vt 1.000000 0.031250
vt 1.000000 0.781250
vt 0.875000 0.781250
vt 0.750000 0.031250
vt 0.875000 0.500000
vt 1.000000 0.500000
vt 0.750000 0.500000
vt 0.875000 0.750000
vt 0.750000 0.750000
vt 1.000000 0.437500
vt 1.000000 0.656250
vt 0.875000 0.656250
vt 1.000000 0.968750
vt 0.875000 0.593750
vt 1.000000 0.593750
s 1
usemtl MI_Lilies_SoggySwamp
f 292/1/24 291/2/24 289/3/24 290/4/24
f 256/5/20 255/6/20 253/7/20 254/8/20
f 228/9/17 227/10/17 225/11/17 226/12/17
f 260/13/9 259/14/9 257/15/9 258/16/9
f 92/1/8 91/2/8 89/3/8 90/4/8
f 156/1/12 155/2/12 153/3/12 154/4/12
f 12/17/3 11/18/3 9/19/3 10/20/3
f 16/21/4 15/22/4 13/17/4 14/20/4
f 160/18/11 159/23/11 157/1/11 158/4/11
f 352/22/8 351/24/8 349/25/8 350/17/8
f 188/17/16 187/18/16 185/19/16 186/20/16
f 216/26/18 215/27/18 213/28/18 214/29/18
f 200/30/9 199/26/9 197/8/9 198/31/9
f 272/26/17 271/27/17 269/7/17 270/8/17
f 176/21/16 175/22/16 173/17/16 174/20/16
f 252/32/9 251/12/9 249/33/9 250/34/9
f 148/1/10 147/2/10 145/3/10 146/4/10
f 88/18/5 87/23/5 85/1/5 86/4/5
f 164/17/13 163/18/13 161/19/13 162/20/13
f 336/35/9 335/36/9 333/33/9 334/34/9
f 168/21/14 167/22/14 165/17/14 166/20/14
f 4/17/1 3/18/1 1/19/1 2/20/1
f 364/25/8 363/23/8 361/18/8 362/17/8
f 312/18/24 311/23/24 309/1/24 310/4/24
f 384/22/30 383/24/30 381/25/30 382/17/30
f 84/1/6 83/2/6 81/3/6 82/4/6
f 100/17/5 99/22/5 97/24/5 98/25/5
f 204/29/17 203/28/17 201/7/17 202/8/17
f 44/20/7 43/21/7 41/22/7 42/17/7
f 316/12/22 315/11/22 313/37/22 314/33/22
f 60/20/8 59/21/8 57/22/8 58/17/8
f 264/30/21 263/26/21 261/38/21 262/39/21
f 280/26/23 279/27/23 277/7/23 278/8/23
f 140/1/11 139/2/11 137/3/11 138/4/11
f 56/18/5 55/19/5 53/20/5 54/17/5
f 132/1/9 131/2/9 129/3/9 130/4/9
f 36/20/5 35/21/5 33/22/5 34/17/5
f 320/32/17 319/12/17 317/33/17 318/34/17
f 72/18/6 71/23/6 69/1/6 70/4/6
f 76/1/7 75/2/7 73/3/7 74/4/7
f 128/23/7 127/18/7 125/17/7 126/25/7
f 328/26/26 327/27/26 325/40/26 326/38/26
f 28/20/4 27/21/4 25/22/4 26/17/4
f 116/17/6 115/22/6 113/24/6 114/25/6
f 68/1/5 67/2/5 65/3/5 66/4/5
f 40/18/6 39/19/6 37/20/6 38/17/6
f 172/17/15 171/18/15 169/19/15 170/20/15
f 356/25/6 355/23/6 353/18/6 354/17/6
f 152/18/9 151/23/9 149/1/9 150/4/9
f 244/30/17 243/26/17 241/8/17 242/31/17
f 52/20/6 51/21/6 49/22/6 50/17/6
f 112/23/8 111/18/8 109/17/8 110/25/8
f 396/25/30 395/23/30 393/18/30 394/17/30
f 240/35/9 239/36/9 237/33/9 238/34/9
f 236/41/17 235/42/17 233/7/17 234/8/17
f 48/18/8 47/19/8 45/20/8 46/17/8
f 324/30/22 323/26/22 321/38/22 322/39/22
f 332/41/17 331/42/17 329/7/17 330/8/17
f 224/12/9 223/11/9 221/37/9 222/33/9
f 276/26/22 275/27/22 273/7/22 274/8/22
f 220/43/17 219/5/17 217/8/17 218/31/17
f 208/44/9 207/45/9 205/33/9 206/34/9
f 304/18/17 303/23/17 301/1/17 302/4/17
f 24/21/1 23/22/1 21/17/1 22/20/1
f 120/23/5 119/18/5 117/17/5 118/25/5
f 180/17/14 179/18/14 177/19/14 178/20/14
f 64/18/7 63/19/7 61/20/7 62/17/7
f 212/46/17 211/9/17 209/47/17 210/48/17
f 300/1/10 299/2/10 297/3/10 298/4/10
f 144/18/12 143/23/12 141/1/12 142/4/12
f 296/18/25 295/23/25 293/1/25 294/4/25
f 136/18/10 135/23/10 133/1/10 134/4/10
f 368/22/7 367/24/7 365/25/7 366/17/7
f 288/18/10 287/23/10 285/1/10 286/4/10
f 284/1/17 283/2/17 281/3/17 282/4/17
f 268/26/22 267/27/22 265/7/22 266/8/22
f 104/23/6 103/18/6 101/17/6 102/25/6
f 8/21/2 7/22/2 5/17/2 6/20/2
f 20/17/2 19/18/2 17/19/2 18/20/2
f 32/18/3 31/19/3 29/20/3 30/17/3
f 196/26/17 195/27/17 193/7/17 194/8/17
f 96/18/7 95/23/7 93/1/7 94/4/7
f 360/22/5 359/24/5 357/25/5 358/17/5
f 192/21/15 191/22/15 189/17/15 190/20/15
f 80/18/8 79/23/8 77/1/8 78/4/8
f 344/22/6 343/24/6 341/25/6 342/17/6
f 348/25/7 347/23/7 345/18/7 346/17/7
f 124/17/8 123/22/8 121/24/8 122/25/8
f 388/25/28 387/23/28 385/18/28 386/17/28
f 184/21/13 183/22/13 181/17/13 182/20/13
f 232/30/19 231/26/19 229/38/19 230/39/19
f 308/1/25 307/2/25 305/3/25 306/4/25
f 248/26/9 247/27/9 245/7/9 246/8/9
f 340/25/5 339/23/5 337/18/5 338/17/5
f 380/25/29 379/23/29 377/18/29 378/17/29
f 376/22/28 375/24/28 373/25/28 374/17/28
f 372/25/27 371/23/27 369/18/27 370/17/27
f 400/22/29 399/24/29 397/25/29 398/17/29
f 108/17/7 107/22/7 105/24/7 106/25/7
f 392/22/27 391/24/27 389/25/27 390/17/27
