# Blender 5.0.1
# www.blender.org
mtllib BP_Leaves.mtl
o SM_Leaf_Pile.001
v -150.000000 150.000000 -0.000024
v -0.000015 0.000022 43.543106
v 150.000000 150.000000 -0.000024
v 150.000000 -150.000000 0.000024
v -0.000015 0.000022 43.543106
v -150.000000 -150.000000 0.000024
v 150.000000 150.000000 -0.000024
v -0.000015 0.000022 43.543106
v 150.000000 -150.000000 0.000024
v -150.000000 -150.000000 0.000024
v -0.000015 0.000022 43.543106
v -150.000000 150.000000 -0.000024
vn -0.0000 0.2788 0.9604
vn -0.0000 -0.2788 0.9604
vn 0.2788 -0.0000 0.9604
vn -0.2788 -0.0000 0.9604
vt 1.000000 0.999969
vt 1.000000 -0.021484
vt 0.500000 0.478516
vt -0.000031 -0.021484
vt -0.000031 0.999969
s 1
usemtl MI_Leaves
f 3/1/1 1/2/1 2/3/1
f 6/4/2 4/5/2 5/3/2
f 9/5/3 7/1/3 8/3/3
f 12/2/4 10/4/4 11/3/4
