# Blender 5.0.1
# www.blender.org
mtllib BP_Lilypad_Flower.mtl
o SM_Lilypad_Flower.001
v 6.250000 -6.250000 0.000000
v 6.250000 6.250000 -0.000000
v -6.250000 -6.250000 0.000000
v -6.250000 6.250000 -0.000000
v 9.375000 -37.500000 0.000000
v -9.375000 -6.250008 0.000000
v -9.375000 -37.500000 0.000000
v 9.375000 -6.250000 0.000000
v 9.375000 6.250000 -0.000000
v 9.375000 37.500000 -0.000000
v -9.375000 6.250000 -0.000000
v -9.375000 37.500000 -0.000000
v 6.250000 -9.375008 0.000000
v 37.500000 -9.375000 0.000000
v 6.250000 9.375000 -0.000000
v 37.500000 9.375000 -0.000000
v -37.500000 -9.375008 0.000000
v -6.250000 -9.375000 0.000000
v -37.500000 9.375000 -0.000000
v -6.250000 9.375000 -0.000000
v -2.209702 -11.048543 0.000002
v 32.392693 -19.134434 8.088095
v 11.048538 2.209712 -0.000000
v 19.134445 -32.392681 8.088095
v -11.048553 -2.209707 0.000000
v -19.134430 32.392693 8.088097
v -32.392700 19.134439 8.088097
v 2.209717 11.048548 -0.000000
v -2.209702 11.048542 -0.000000
v 32.392693 19.134434 8.088095
v 19.134438 32.392689 8.088095
v 11.048546 -2.209713 0.000000
v -11.048553 2.209709 -0.000000
v -19.134430 -32.392693 8.088093
v 2.209717 -11.048546 0.000000
v -32.392700 -19.134438 8.088093
vn -0.0000 -0.0000 1.0000
vn -0.1830 0.1830 0.9659
vn 0.1830 -0.1830 0.9659
vn -0.1830 -0.1830 0.9659
vn 0.1830 0.1830 0.9659
vt 0.816406 0.375977
vt 1.003906 0.375977
vt 1.003906 0.688477
vt 0.816406 0.688477
vt 0.810547 1.001753
vt 0.810547 0.689453
vt 0.998047 0.689453
vt 0.998047 1.001753
vt 0.062500 0.191406
vt 0.062500 0.066406
vt 0.187500 0.066406
vt 0.187500 0.191406
s 1
usemtl MI_Lilypad
f 18/1/1 20/2/1 19/3/1 17/4/1
f 32/5/4 30/6/4 31/7/4 29/8/4
f 4/9/1 3/10/1 1/11/1 2/12/1
f 8/8/1 6/5/1 7/6/1 5/7/1
f 14/6/1 16/7/1 15/8/1 13/5/1
f 36/3/5 34/4/5 35/1/5 33/2/5
f 24/6/2 22/7/2 23/8/2 21/5/2
f 28/2/3 26/3/3 27/4/3 25/1/3
f 12/4/1 11/1/1 9/2/1 10/3/1
