# Blender 5.0.1
# www.blender.org
mtllib BP_LS_TownHallRoofFade_2.mtl
o SM_LS_TownHallRoof_2.001
v -200.000000 399.999969 100.000038
v -200.000000 500.000031 100.000061
v -200.000000 400.000000 0.000041
v -200.000000 500.000061 0.000058
v -100.000000 399.999969 100.000038
v -100.000000 400.000000 0.000041
v -100.000000 500.000031 100.000061
v -100.000000 500.000061 0.000058
v -100.000000 399.999969 100.000038
v -200.000000 399.999969 100.000038
v -200.000000 400.000000 0.000041
v -100.000000 400.000000 0.000041
v -100.000000 399.999969 200.000046
v -100.000000 500.000000 200.000061
v -200.000000 299.999969 200.000031
v -200.000000 399.999969 200.000046
v -200.000000 299.999969 100.000023
v -100.000000 299.999969 100.000023
v -200.000000 299.999969 100.000023
v -100.000000 399.999969 100.000038
v -200.000000 399.999969 100.000038
v -100.000000 299.999969 200.000031
v -100.000000 299.999969 100.000023
v -100.000000 199.999969 200.000015
v -100.000000 199.999985 100.000008
v -100.000000 600.000061 100.000076
v -100.000000 600.000061 0.000074
v -100.000000 299.999939 300.000031
v -100.000000 399.999939 300.000031
v -200.000000 199.999985 100.000008
v -200.000000 200.000000 0.000009
v -200.000000 300.000000 0.000025
v -100.000000 300.000000 0.000025
v -200.000000 300.000000 0.000025
v -100.000000 299.999969 100.000023
v -200.000000 299.999969 100.000023
v -100.000000 200.000000 0.000009
v -100.000000 300.000000 0.000025
v -100.000000 99.999992 99.999992
v -100.000000 100.000015 -0.000008
v -200.000000 600.000061 100.000076
v -200.000000 700.000061 100.000092
v -200.000000 600.000061 0.000074
v -200.000000 700.000061 0.000090
v -100.000000 700.000061 0.000090
v -200.000000 700.000061 0.000090
v -100.000000 700.000061 100.000092
v -200.000000 700.000061 100.000092
v -100.000000 600.000061 100.000076
v -100.000000 700.000061 100.000092
v -200.000000 600.000061 100.000076
v -200.000000 700.000061 100.000092
v -100.000000 600.000061 100.000076
v -200.000000 600.000061 100.000076
v -100.000000 600.000000 200.000076
v -200.000000 600.000000 200.000076
v -100.000000 500.000000 200.000061
v -200.000000 500.000000 200.000061
v -100.000000 500.000000 300.000061
v -200.000000 500.000000 300.000061
v -100.000000 399.999939 300.000031
v -200.000000 399.999939 300.000031
v -100.000000 399.999939 400.000031
v -200.000000 399.999939 400.000031
v -100.000000 299.999939 400.000031
v -200.000000 299.999939 400.000031
v -200.000000 299.999939 300.000031
v -100.000000 299.999939 300.000031
v -100.000000 199.999954 300.000000
v -200.000000 199.999954 300.000000
v -200.000000 199.999969 200.000015
v -100.000000 199.999969 200.000015
v -100.000000 99.999977 200.000000
v -200.000000 99.999977 200.000000
v -200.000000 99.999992 99.999992
v -100.000000 99.999992 99.999992
v -200.000000 -0.000004 99.999977
v -200.000000 99.999992 99.999992
v -200.000000 0.000012 -0.000024
v -200.000000 100.000015 -0.000008
v -100.000000 -0.000004 99.999977
v -200.000000 -0.000004 99.999977
v -200.000000 0.000012 -0.000024
v -100.000000 0.000012 -0.000024
v 0.000000 700.000061 0.000090
v 0.000000 700.000061 100.000092
v 0.000000 600.000061 100.000076
v 0.000000 600.000061 0.000074
v 0.000000 700.000061 100.000092
v 0.000000 700.000061 0.000090
v 0.000000 600.000061 100.000076
v -100.000000 600.000061 100.000076
v -100.000000 600.000061 0.000074
v 0.000000 600.000061 0.000074
v 0.000000 500.000031 100.000061
v -100.000000 500.000031 100.000061
v 0.000000 600.000061 100.000076
v -100.000000 600.000061 100.000076
v 0.000000 600.000061 100.000076
v 0.000000 600.000000 200.000076
v 0.000000 500.000000 200.000061
v 0.000000 500.000031 100.000061
v 0.000000 600.000000 200.000076
v 0.000000 500.000000 200.000061
v -100.000000 500.000000 200.000061
v -100.000000 500.000031 100.000061
v 0.000000 500.000031 100.000061
v 0.000000 399.999969 200.000046
v -100.000000 399.999969 200.000046
v 0.000000 500.000000 200.000061
v -100.000000 500.000000 200.000061
v 0.000000 500.000000 200.000061
v 0.000000 500.000000 300.000061
v 0.000000 399.999939 300.000031
v 0.000000 399.999969 200.000046
v 0.000000 500.000000 300.000061
v 0.000000 399.999939 300.000031
v -100.000000 399.999939 300.000031
v -100.000000 399.999969 200.000046
v 0.000000 399.999969 200.000046
v 0.000000 299.999939 300.000031
v -100.000000 299.999939 300.000031
v 0.000000 399.999939 300.000031
v -100.000000 399.999939 300.000031
v 0.000000 399.999939 300.000031
v 0.000000 399.999939 400.000031
v 0.000000 299.999939 400.000031
v 0.000000 299.999939 300.000031
v 0.000000 399.999939 400.000031
v 0.000000 299.999939 400.000031
v 0.000000 299.999939 300.000031
v 0.000000 199.999969 200.000015
v -100.000000 199.999969 200.000015
v 0.000000 299.999969 200.000031
v -100.000000 299.999969 200.000031
v 0.000000 299.999969 200.000031
v -100.000000 299.999969 200.000031
v 0.000000 299.999939 300.000031
v -100.000000 299.999939 300.000031
v 0.000000 199.999954 300.000000
v 0.000000 199.999969 200.000015
v 0.000000 299.999969 200.000031
v 0.000000 199.999954 300.000000
v 0.000000 199.999969 200.000015
v 0.000000 99.999992 99.999992
v -100.000000 99.999992 99.999992
v 0.000000 199.999985 100.000008
v -100.000000 199.999985 100.000008
v 0.000000 199.999985 100.000008
v -100.000000 199.999985 100.000008
v 0.000000 199.999969 200.000015
v -100.000000 199.999969 200.000015
v 0.000000 99.999977 200.000000
v 0.000000 99.999992 99.999992
v 0.000000 199.999985 100.000008
v 0.000000 99.999977 200.000000
v 0.000000 99.999992 99.999992
v 0.000000 100.000015 -0.000008
v -100.000000 100.000015 -0.000008
v 0.000000 99.999992 99.999992
v -100.000000 99.999992 99.999992
v 0.000000 -0.000004 99.999977
v 0.000000 0.000012 -0.000024
v 0.000000 100.000015 -0.000008
v 0.000000 -0.000004 99.999977
v 0.000000 0.000012 -0.000024
v -100.000000 600.000000 150.000076
v -100.000000 700.000000 150.000092
v -100.000000 600.000061 100.000076
v -100.000000 700.000061 100.000092
v 0.000000 700.000000 150.000092
v -100.000000 700.000000 150.000092
v -100.000000 600.000000 150.000076
v 0.000000 600.000000 150.000076
v 0.000000 700.000000 150.000092
v -100.000000 700.000000 150.000092
v -50.000000 600.000000 200.000076
v -50.000000 700.000000 200.000092
v -50.000000 600.000000 150.000076
v -50.000000 700.000000 150.000092
v -50.000000 700.000000 150.000092
v 0.000000 700.000000 200.000092
v -50.000000 700.000000 200.000092
v 0.000000 600.000000 200.000076
v 0.000000 700.000000 200.000092
v -50.000000 600.000000 200.000076
v -50.000000 700.000000 200.000092
v -100.000000 500.000000 250.000061
v -100.000000 600.000000 250.000076
v -100.000000 500.000000 200.000061
v -100.000000 600.000000 200.000076
v 0.000000 600.000000 250.000076
v -100.000000 600.000000 250.000076
v -100.000000 500.000000 250.000061
v 0.000000 500.000000 250.000061
v 0.000000 600.000000 250.000076
v -100.000000 600.000000 250.000076
v -50.000000 500.000000 300.000061
v -50.000000 600.000000 300.000061
v -50.000000 500.000000 250.000061
v -50.000000 600.000000 250.000076
v -50.000000 600.000000 250.000076
v 0.000000 600.000000 300.000061
v -50.000000 600.000000 300.000061
v 0.000000 500.000000 300.000061
v 0.000000 600.000000 300.000061
v -50.000000 500.000000 300.000061
v -50.000000 600.000000 300.000061
v -100.000000 399.999939 350.000031
v -100.000000 500.000000 350.000061
v -100.000000 399.999939 300.000031
v -100.000000 500.000000 300.000061
v 0.000000 500.000000 350.000061
v -100.000000 500.000000 350.000061
v -100.000000 399.999939 350.000031
v 0.000000 399.999939 350.000031
v 0.000000 500.000000 350.000061
v -100.000000 500.000000 350.000061
v -50.000000 399.999939 400.000031
v -50.000000 499.999969 400.000061
v -50.000000 399.999939 350.000031
v -50.000000 500.000000 350.000061
v -50.000000 500.000000 350.000061
v 0.000000 499.999969 400.000061
v -50.000000 499.999969 400.000061
v 0.000000 399.999939 400.000031
v 0.000000 499.999969 400.000061
v -50.000000 399.999939 400.000031
v -50.000000 499.999969 400.000061
v -100.000000 299.999939 450.000061
v -100.000000 399.999939 450.000061
v -100.000000 299.999939 400.000031
v -100.000000 399.999939 400.000031
v 0.000000 399.999939 450.000061
v -100.000000 399.999939 450.000061
v -100.000000 299.999939 450.000061
v 0.000000 299.999939 450.000061
v 0.000000 399.999939 450.000061
v -100.000000 399.999939 450.000061
v 0.000000 299.999939 450.000061
v -100.000000 299.999939 450.000061
v -50.000000 299.999908 500.000061
v -50.000000 399.999908 500.000061
v -50.000000 299.999939 450.000061
v -50.000000 399.999939 450.000061
v -50.000000 399.999939 450.000061
v 0.000000 399.999908 500.000061
v -50.000000 399.999908 500.000061
v 0.000000 299.999908 500.000061
v 0.000000 399.999908 500.000061
v -50.000000 299.999908 500.000061
v -50.000000 399.999908 500.000061
v -50.000000 299.999908 500.000061
v -50.000000 299.999939 450.000061
v 0.000000 299.999908 500.000061
v -100.000000 199.999939 350.000000
v -100.000000 299.999939 350.000031
v -100.000000 199.999954 300.000000
v -100.000000 299.999939 300.000031
v -100.000000 199.999939 350.000000
v 0.000000 199.999939 350.000000
v 0.000000 299.999939 350.000031
v -100.000000 299.999939 350.000031
v 0.000000 199.999939 350.000000
v -100.000000 199.999939 350.000000
v -50.000000 199.999939 400.000000
v -50.000000 299.999939 400.000031
v -50.000000 199.999939 350.000000
v -50.000000 299.999939 350.000031
v 0.000000 199.999939 400.000000
v 0.000000 299.999939 400.000031
v -50.000000 199.999939 400.000000
v -50.000000 299.999939 400.000031
v -50.000000 199.999939 400.000000
v -50.000000 199.999939 350.000000
v 0.000000 199.999939 400.000000
v -100.000000 99.999969 250.000000
v -100.000000 199.999954 250.000015
v -100.000000 99.999977 200.000000
v -100.000000 199.999969 200.000015
v -100.000000 99.999969 250.000000
v 0.000000 99.999969 250.000000
v 0.000000 199.999954 250.000015
v -100.000000 199.999954 250.000015
v 0.000000 99.999969 250.000000
v -100.000000 99.999969 250.000000
v -50.000000 99.999962 300.000000
v -50.000000 199.999954 300.000000
v -50.000000 99.999969 250.000000
v -50.000000 199.999954 250.000015
v 0.000000 99.999962 300.000000
v 0.000000 199.999954 300.000000
v -50.000000 99.999962 300.000000
v -50.000000 199.999954 300.000000
v -50.000000 99.999962 300.000000
v -50.000000 99.999969 250.000000
v 0.000000 99.999962 300.000000
v -100.000000 -0.000013 149.999969
v -100.000000 99.999985 150.000000
v -100.000000 -0.000004 99.999977
v -100.000000 99.999992 99.999992
v -100.000000 -0.000013 149.999969
v 0.000000 -0.000013 149.999969
v 0.000000 99.999985 150.000000
v -100.000000 99.999985 150.000000
v 0.000000 -0.000013 149.999969
v -100.000000 -0.000013 149.999969
v -50.000000 -0.000021 199.999969
v -50.000000 99.999977 200.000000
v -50.000000 -0.000013 149.999969
v -50.000000 99.999985 150.000000
v 0.000000 -0.000021 199.999969
v 0.000000 99.999977 200.000000
v -50.000000 -0.000021 199.999969
v -50.000000 99.999977 200.000000
v -50.000000 -0.000021 199.999969
v -50.000000 -0.000013 149.999969
v 0.000000 -0.000021 199.999969
v -200.000000 500.000000 212.500061
v -200.000000 600.000000 212.500076
v -200.000000 500.000000 200.000061
v -200.000000 600.000000 200.000076
v -100.000000 600.000000 212.500076
v -200.000000 600.000000 212.500076
v -200.000000 500.000000 212.500061
v -100.000000 500.000000 212.500061
v -100.000000 600.000000 212.500076
v -200.000000 600.000000 212.500076
v -200.000000 399.999939 312.500031
v -200.000000 500.000000 312.500061
v -200.000000 399.999939 300.000031
v -200.000000 500.000000 300.000061
v -100.000000 500.000000 312.500061
v -200.000000 500.000000 312.500061
v -200.000000 399.999939 312.500031
v -100.000000 399.999939 312.500031
v -100.000000 500.000000 312.500061
v -200.000000 500.000000 312.500061
v -200.000000 299.999939 425.000061
v -200.000000 399.999939 425.000061
v -200.000000 299.999939 400.000031
v -200.000000 399.999939 400.000031
v -100.000000 399.999939 425.000061
v -200.000000 399.999939 425.000061
v -200.000000 299.999939 425.000061
v -100.000000 299.999939 425.000061
v -100.000000 399.999939 425.000061
v -200.000000 399.999939 425.000061
v -100.000000 299.999939 425.000061
v -200.000000 299.999939 425.000061
v -200.000000 199.999954 312.500000
v -200.000000 299.999939 312.500031
v -200.000000 199.999954 300.000000
v -200.000000 299.999939 300.000031
v -200.000000 199.999954 312.500000
v -100.000000 199.999954 312.500000
v -100.000000 299.999939 312.500031
v -200.000000 299.999939 312.500031
v -100.000000 199.999954 312.500000
v -200.000000 199.999954 312.500000
v -200.000000 99.999977 212.500000
v -200.000000 199.999969 212.500015
v -200.000000 99.999977 200.000000
v -200.000000 199.999969 200.000015
v -200.000000 99.999977 212.500000
v -100.000000 99.999977 212.500000
v -100.000000 199.999969 212.500015
v -200.000000 199.999969 212.500015
v -100.000000 99.999977 212.500000
v -200.000000 99.999977 212.500000
v -200.000000 -0.000008 124.999977
v -200.000000 99.999992 124.999992
v -200.000000 -0.000008 124.999977
v -100.000000 -0.000008 124.999977
v -100.000000 99.999992 124.999992
v -200.000000 99.999992 124.999992
v -100.000000 -0.000008 124.999977
v -200.000000 -0.000008 124.999977
v 0.000000 700.000000 150.000092
v 0.000000 600.000000 150.000076
v 0.000000 700.000000 200.000092
v 0.000000 600.000000 250.000076
v 0.000000 500.000000 250.000061
v 0.000000 600.000000 300.000061
v 0.000000 500.000000 350.000061
v 0.000000 399.999939 350.000031
v 0.000000 499.999969 400.000061
v 0.000000 399.999939 450.000061
v 0.000000 299.999939 450.000061
v 0.000000 399.999908 500.000061
v 0.000000 299.999908 500.000061
v 0.000000 299.999939 350.000031
v 0.000000 199.999939 350.000000
v 0.000000 199.999939 400.000000
v 0.000000 199.999954 250.000015
v 0.000000 99.999969 250.000000
v 0.000000 99.999962 300.000000
v 0.000000 99.999985 150.000000
v 0.000000 -0.000013 149.999969
v 0.000000 -0.000021 199.999969
vn -1.0000 -0.0000 -0.0000
vn 1.0000 -0.0000 -0.0000
vn -0.0000 -1.0000 -0.0000
vn -0.0000 -0.0000 -1.0000
vn -0.0000 1.0000 -0.0000
vn -0.0000 -0.0000 1.0000
vt 0.666504 0.333496
vt 1.000000 0.333496
vt 1.000000 0.666748
vt 0.666504 0.666748
vt 0.000031 0.833374
vt 0.333252 0.833374
vt 0.333252 0.999969
vt 0.000031 0.999969
vt 0.000031 0.666748
vt 0.333252 0.666748
vt 1.000000 0.999969
vt 0.666504 0.999969
vt -0.000031 0.333496
vt 0.333252 0.333496
vt 0.333252 0.416992
vt -0.000031 0.416992
vt 0.166626 0.999969
vt 0.166626 0.666748
vt 0.166626 0.833374
vt -0.000031 0.666748
vt 0.333252 0.375000
vt -0.000031 0.375000
s 1
usemtl M_SettlementFade
f 37/1/2 38/2/2 23/3/2 25/4/2
f 290/5/1 289/6/1 287/7/1 288/8/1
f 284/8/6 281/9/6 282/10/6 283/7/6
f 23/1/2 5/2/2 13/3/2 22/4/2
f 400/8/2 399/5/2 398/6/2 153/7/2
f 143/10/3 264/6/3 265/5/3 69/9/3
f 245/5/1 244/6/1 242/7/1 243/8/1
f 103/8/2 380/5/2 379/6/2 381/7/2
f 222/5/1 221/6/1 219/7/1 220/8/1
f 16/8/1 15/9/1 354/10/1 331/7/1
f 399/5/2 162/9/2 154/10/2 398/6/2
f 57/4/5 59/3/5 113/11/5 112/12/5
f 141/10/2 142/4/2 128/12/2 140/7/2
f 78/13/1 77/14/1 371/15/1 372/16/1
f 115/10/2 101/4/2 116/12/2 114/7/2
f 130/10/3 240/6/3 241/5/3 65/9/3
f 53/4/5 55/3/5 100/11/5 99/12/5
f 128/10/2 114/4/2 129/12/2 127/7/2
f 294/17/6 293/18/6 291/10/6 292/7/6
f 285/6/3 297/7/3 295/17/3 296/19/3
f 144/11/3 143/12/3 69/4/3 72/3/3
f 214/6/5 213/5/5 113/9/5 59/10/5
f 150/4/5 152/3/5 151/11/5 149/12/5
f 163/10/2 164/4/2 154/12/2 162/7/2
f 165/10/3 306/6/3 307/5/3 81/9/3
f 187/17/6 186/18/6 184/10/6 185/7/6
f 191/9/1 190/10/1 188/6/1 189/5/1
f 176/8/6 173/9/6 174/10/6 175/7/6
f 263/8/6 260/9/6 261/10/6 262/7/6
f 218/8/6 215/9/6 216/10/6 217/7/6
f 41/7/1 2/10/1 321/4/1 322/12/1
f 229/17/6 228/18/6 226/10/6 227/7/6
f 84/11/3 81/12/3 82/4/3 83/3/3
f 239/8/6 236/9/6 237/10/6 238/7/6
f 383/5/2 101/9/2 103/10/2 382/6/2
f 107/4/3 104/3/3 105/11/3 106/12/3
f 52/12/6 51/4/6 49/3/6 50/11/6
f 96/4/4 98/3/4 97/11/4 95/12/4
f 19/4/4 21/3/4 20/11/4 18/12/4
f 264/6/3 276/7/3 274/17/3 275/19/3
f 58/4/5 60/3/5 59/11/5 57/12/5
f 156/10/3 285/6/3 286/5/3 73/9/3
f 301/9/1 300/10/1 298/6/1 299/5/1
f 54/4/5 56/3/5 55/11/5 53/12/5
f 72/11/3 69/12/3 70/4/3 71/3/3
f 328/20/6 325/13/6 326/14/6 327/10/6
f 322/13/1 321/14/1 319/21/1 320/22/1
f 348/20/6 345/13/6 346/14/6 347/10/6
f 338/20/6 335/13/6 336/14/6 337/10/6
f 6/1/2 8/2/2 7/3/2 5/4/2
f 76/11/3 73/12/3 74/4/3 75/3/3
f 193/6/5 192/5/5 100/9/5 55/10/5
f 368/20/6 365/13/6 366/14/6 367/10/6
f 30/7/1 78/10/1 363/4/1 364/12/1
f 397/8/2 396/5/2 395/6/2 140/7/2
f 183/17/5 182/8/5 171/5/5 181/19/5
f 393/5/2 140/9/2 128/10/2 392/6/2
f 45/4/5 47/3/5 86/11/5 85/12/5
f 94/4/3 91/3/3 92/11/3 93/12/3
f 1/8/1 17/9/1 15/10/1 16/7/1
f 324/21/5 323/22/5 55/13/5 56/14/5
f 248/17/5 247/8/5 234/5/5 246/19/5
f 332/13/1 331/14/1 329/21/1 330/22/1
f 208/17/6 207/18/6 205/10/6 206/7/6
f 146/4/4 148/3/4 147/11/4 145/12/4
f 22/9/2 13/10/2 29/7/2 28/8/2
f 122/4/4 124/3/4 123/11/4 121/12/4
f 46/4/5 48/3/5 47/11/5 45/12/5
f 120/4/3 117/3/3 118/11/3 119/12/3
f 34/12/5 36/4/5 35/3/5 33/11/5
f 109/4/4 111/3/4 110/11/4 108/12/4
f 235/6/5 234/5/5 126/9/5 63/10/5
f 391/8/2 389/5/2 388/6/2 390/7/2
f 233/9/1 232/10/1 230/6/1 231/5/1
f 225/17/5 224/8/5 213/5/5 223/19/5
f 68/11/3 65/12/3 66/4/3 67/3/3
f 17/8/1 30/9/1 364/10/1 15/7/1
f 305/8/6 302/9/6 303/10/6 304/7/6
f 306/6/3 318/7/3 316/17/3 317/19/3
f 280/9/1 279/10/1 277/6/1 278/5/1
f 344/15/5 343/16/5 63/13/5 64/14/5
f 62/4/5 64/3/5 63/11/5 61/12/5
f 31/8/1 80/9/1 78/10/1 30/7/1
f 137/4/5 139/3/5 138/11/5 136/12/5
f 131/11/3 130/12/3 65/4/3 68/3/3
f 15/7/1 364/10/1 353/4/1 354/12/1
f 81/14/3 377/15/3 378/16/3 82/13/3
f 133/4/4 135/3/4 134/11/4 132/12/4
f 80/7/1 79/10/1 77/4/1 78/12/1
f 12/3/3 9/11/3 10/12/3 11/4/3
f 273/17/6 272/18/6 270/10/6 271/7/6
f 154/10/2 155/4/2 141/12/2 153/7/2
f 252/17/6 251/18/6 249/10/6 250/7/6
f 61/4/5 63/3/5 126/11/5 125/12/5
f 259/9/1 258/10/1 256/6/1 257/5/1
f 358/20/6 355/13/6 356/14/6 357/10/6
f 204/17/5 203/8/5 192/5/5 202/19/5
f 386/5/2 114/9/2 116/10/2 385/6/2
f 166/11/3 165/12/3 81/4/3 84/3/3
f 65/14/3 349/15/3 350/16/3 66/13/3
f 159/4/5 161/3/5 160/11/5 158/12/5
f 240/6/3 255/7/3 253/17/3 254/19/3
f 376/20/6 373/13/6 374/14/6 375/10/6
f 157/11/3 156/12/3 73/4/3 76/3/3
f 269/5/1 268/6/1 266/7/1 267/8/1
f 342/13/1 341/14/1 339/15/1 340/16/1
f 334/21/5 333/22/5 59/13/5 60/14/5
f 180/5/1 179/6/1 177/7/1 178/8/1
f 172/6/5 171/5/5 86/9/5 47/10/5
f 197/8/6 194/9/6 195/10/6 196/7/6
f 4/8/1 3/9/1 1/10/1 2/7/1
f 73/14/3 369/21/3 370/22/3 74/13/3
f 69/14/3 359/21/3 360/22/3 70/13/3
f 5/1/2 7/2/2 14/3/2 13/4/2
f 364/13/1 363/14/1 361/21/1 362/22/1
f 8/9/2 27/10/2 26/7/2 7/8/2
f 44/7/1 43/10/1 41/4/1 42/12/1
f 315/17/6 314/18/6 312/10/6 313/7/6
f 129/8/2 386/5/2 385/6/2 387/7/2
f 201/5/1 200/6/1 198/7/1 199/8/1
f 321/7/1 16/10/1 331/4/1 332/12/1
f 311/5/1 310/6/1 308/7/1 309/8/1
f 396/5/2 153/9/2 141/10/2 395/6/2
f 170/9/1 169/10/1 167/6/1 168/5/1
f 43/8/1 4/9/1 2/10/1 41/7/1
f 25/1/2 23/2/2 22/3/2 24/4/2
f 32/8/1 31/9/1 30/10/1 17/7/1
f 354/13/1 353/14/1 351/21/1 352/22/1
f 394/8/2 393/5/2 392/6/2 127/7/2
f 331/7/1 354/10/1 341/4/1 342/12/1
f 380/5/2 87/9/2 89/10/2 379/6/2
f 2/8/1 1/9/1 16/10/1 321/7/1
f 212/9/1 211/10/1 209/6/1 210/5/1
f 102/10/2 87/4/2 103/12/2 101/7/2
f 116/8/2 383/5/2 382/6/2 384/7/2
f 40/9/2 37/10/2 25/7/2 39/8/2
f 88/10/2 90/4/2 89/12/2 87/7/2
f 389/5/2 127/9/2 129/10/2 388/6/2
