# Blender 5.0.1
# www.blender.org
mtllib BP_LobbyVillagerLuxuryMerchant.mtl
o LuxuaryMerchantHat.001
v -28.680679 345.227936 24.867010
v -3.048055 370.860565 24.867010
v -26.249996 394.062500 24.867008
v -51.882622 368.429871 24.867008
v -26.249996 394.062500 -24.867014
v -28.680677 345.227936 -24.867010
v -51.882622 368.429871 -24.867014
v -3.048054 370.860565 -24.867010
v -26.249996 394.062500 24.867008
v -3.048054 370.860565 -24.867010
v -26.249996 394.062500 -24.867014
v -3.048055 370.860565 24.867010
v -28.680679 345.227936 24.867010
v -3.048054 370.860565 -24.867010
v -3.048055 370.860565 24.867010
v -28.680677 345.227936 -24.867010
v -51.882622 368.429871 24.867008
v -28.680677 345.227936 -24.867010
v -28.680679 345.227936 24.867010
v -51.882622 368.429871 -24.867014
v -26.249996 394.062500 -24.867014
v -51.882622 368.429871 24.867008
v -26.249996 394.062500 24.867008
v -51.882622 368.429871 -24.867014
vn -0.0000 -0.0000 1.0000
vn -0.0000 -0.0000 -1.0000
vn 0.7071 0.7071 -0.0000
vn 0.7071 -0.7071 -0.0000
vn -0.7071 -0.7071 -0.0000
vn -0.7071 0.7071 -0.0000
vt 0.546875 0.281250
vt 0.625000 0.281250
vt 0.625000 0.406250
vt 0.546875 0.406250
vt 0.843750 0.015625
vt 0.921875 0.015625
vt 0.921875 0.093750
vt 0.843750 0.093750
vt 1.000000 0.203125
vt 1.000000 0.281250
vt 0.921875 0.281250
vt 0.921875 0.203125
vt 0.796875 0.093750
vt 0.921875 0.171875
vt 0.796875 0.171875
vt 1.000000 0.078125
vt 1.000000 0.187500
vt 0.921875 0.187500
vt 0.921875 0.078125
vt 0.796875 0.281250
vt 0.796875 0.203125
s 1
usemtl material_0
f 20/1/5 18/2/5 19/3/5 17/4/5
f 4/5/1 1/6/1 2/7/1 3/8/1
f 8/9/2 6/10/2 7/11/2 5/12/2
f 24/13/6 22/7/6 23/14/6 21/15/6
f 12/16/3 10/17/3 11/18/3 9/19/3
f 16/12/4 14/11/4 15/20/4 13/21/4
