# Blender 5.0.1
# www.blender.org
mtllib BP_LS_Lantern_Bright.mtl
o SM_LS_Lantern.001
v 9.374997 -15.624997 31.640625
v -21.874998 -15.624997 31.640625
v -21.874998 15.624998 31.640625
v 9.374997 15.624998 31.640625
v -21.874998 -15.624998 87.656250
v 9.374997 -15.624998 87.656250
v 9.374997 15.624998 87.656250
v -21.874998 15.624998 87.656250
v 9.374997 15.624998 31.640625
v -21.874998 15.624998 31.640625
v 9.374997 15.624997 81.640625
v -21.874998 15.624997 81.640625
v 9.374997 15.624998 87.656250
v -21.874998 15.624998 87.656250
v 0.000000 0.737920 87.500000
v -12.500000 0.737920 87.500000
v 0.000000 0.737918 100.000000
v -12.500000 0.737918 100.000000
v 0.000000 0.737916 112.500000
v -12.500000 0.737916 112.500000
v 0.000000 0.737913 125.000000
v -12.500000 0.737913 125.000000
v -35.000004 0.737915 112.500000
v -35.000004 0.737917 100.000000
v -47.500004 0.737915 112.500000
v -47.500004 0.737917 100.000000
v -60.000004 0.737915 112.500000
v -60.000004 0.737917 100.000000
v -47.500004 0.737939 37.500000
v -35.000004 0.737939 37.500000
v -47.500004 0.737942 25.000000
v -35.000004 0.737942 25.000000
v -47.500004 0.737947 12.500000
v -35.000004 0.737947 12.500000
v -12.500000 0.737947 12.500000
v -12.500000 0.737942 25.000000
v 0.000000 0.737947 12.500000
v 0.000000 0.737942 25.000000
v -12.500000 0.737951 0.000000
v 0.000000 0.737951 0.000000
v 0.000000 -0.737951 100.000000
v -12.500000 -0.737949 87.500000
v 0.000000 -0.737949 87.500000
v -12.500000 -0.737951 100.000000
v 0.000000 -0.737953 112.500000
v -12.500000 -0.737953 112.500000
v 0.000000 -0.737953 125.000000
v -12.500000 -0.737953 125.000000
v -35.000004 -0.737951 112.500000
v -35.000004 -0.737949 100.000000
v -47.500004 -0.737951 112.500000
v -47.500004 -0.737949 100.000000
v -60.000004 -0.737951 112.500000
v -60.000004 -0.737949 100.000000
v -47.500004 -0.737951 37.500000
v -35.000004 -0.737951 37.500000
v -47.500004 -0.737950 25.000000
v -35.000004 -0.737950 25.000000
v -47.500004 -0.737951 12.500000
v -35.000004 -0.737951 12.500000
v -12.500000 -0.737951 12.500000
v -12.500000 -0.737950 25.000000
v 0.000000 -0.737951 12.500000
v 0.000000 -0.737950 25.000000
v -12.500000 -0.737951 0.000000
v 0.000000 -0.737951 0.000000
v 9.374997 -15.624997 31.640625
v -21.874998 -15.624998 81.640625
v -21.874998 -15.624997 31.640625
v 9.374997 -15.624998 81.640625
v -21.874998 -15.624998 87.656250
v 9.374997 -15.624998 87.656250
v 9.374997 15.624997 81.640625
v 9.374997 -15.624997 31.640625
v 9.374997 15.624998 31.640625
v 9.374997 -15.624998 81.640625
v 9.374997 15.624998 87.656250
v 9.374997 -15.624998 87.656250
v -21.874998 -15.624997 31.640625
v -21.874998 15.624997 81.640625
v -21.874998 15.624998 31.640625
v -21.874998 -15.624998 81.640625
v -21.874998 15.624998 87.656250
v -21.874998 -15.624998 87.656250
vn -0.0000 -0.0000 -1.0000
vn -0.0000 -0.0000 1.0000
vn -0.0000 1.0000 -0.0000
vn -0.0000 -1.0000 -0.0000
vn 1.0000 -0.0000 -0.0000
vn -1.0000 -0.0000 -0.0000
vt 0.343750 0.343750
vt 0.343750 0.406250
vt 0.281250 0.406250
vt 0.281250 0.343750
vt 0.343750 0.968750
vt 0.281250 0.968750
vt 0.281250 0.906250
vt 0.343750 0.906250
vt 0.343750 0.468750
vt 0.281250 0.468750
vt 0.093750 0.843750
vt 0.031250 0.843750
vt 0.031250 0.906250
vt 0.093750 0.906250
vt 0.156250 0.531250
vt 0.156250 0.843750
vt 0.093750 0.531250
vt 0.156250 0.906250
vt 0.593750 0.031250
vt 0.593750 0.281250
vt 0.750000 0.281250
vt 0.750000 0.031250
vt 0.937500 0.375000
vt 0.937500 0.218750
vt 0.781250 0.218750
vt 0.781250 0.375000
vt 0.781250 0.187500
vt 0.781250 0.031250
vt 0.937500 0.031250
vt 0.937500 0.187500
vt 0.156250 0.406250
vt 0.093750 0.406250
vt 0.093750 0.468750
vt 0.156250 0.468750
vt 0.281250 0.781250
vt 0.281250 0.843750
vt 0.343750 0.843750
vt 0.343750 0.781250
vt 0.593750 0.312500
vt 0.750000 0.312500
vt 0.562500 0.281250
vt 0.406250 0.281250
vt 0.406250 0.031250
vt 0.562500 0.031250
vt 0.562500 0.312500
vt 0.406250 0.312500
vt 0.218750 0.312500
vt 0.375000 0.312500
vt 0.375000 0.281250
vt 0.218750 0.281250
vt 0.031250 0.281250
vt 0.031250 0.031250
vt 0.187500 0.031250
vt 0.187500 0.281250
vt 0.031250 0.312500
vt 0.187500 0.312500
vt 0.218750 0.031250
vt 0.375000 0.031250
s 1
usemtl M_LS_Lantern
f 66/1/4 63/2/4 61/3/4 65/4/4
f 47/5/4 48/6/4 46/7/4 45/8/4
f 38/9/3 37/2/3 35/3/3 36/10/3
f 26/11/3 28/12/3 27/13/3 25/14/3
f 56/15/4 50/16/4 52/11/4 55/17/4
f 30/15/3 29/17/3 26/11/3 24/16/3
f 40/1/3 39/4/3 35/3/3 37/2/3
f 24/16/3 26/11/3 25/14/3 23/18/3
f 10/19/3 12/20/3 11/21/3 9/22/3
f 4/23/1 1/24/1 2/25/1 3/26/1
f 8/27/2 5/28/2 6/29/2 7/30/2
f 34/31/3 33/32/3 31/33/3 32/34/3
f 16/35/3 18/36/3 17/37/3 15/38/3
f 50/16/4 44/36/4 46/7/4 49/18/4
f 12/20/3 14/39/3 13/40/3 11/21/3
f 70/41/4 68/42/4 69/43/4 67/44/4
f 63/2/4 64/9/4 62/10/4 61/3/4
f 20/7/3 22/6/3 21/5/3 19/8/3
f 18/36/3 24/16/3 23/18/3 20/7/3
f 45/8/4 46/7/4 44/36/4 41/37/4
f 72/45/4 71/46/4 68/42/4 70/41/4
f 41/37/4 44/36/4 42/35/4 43/38/4
f 18/36/3 20/7/3 19/8/3 17/37/3
f 36/10/3 35/3/3 34/31/3 32/34/3
f 52/11/4 50/16/4 49/18/4 51/14/4
f 58/34/4 56/15/4 55/17/4 57/33/4
f 32/34/3 31/33/3 29/17/3 30/15/3
f 61/3/4 62/10/4 58/34/4 60/31/4
f 60/31/4 58/34/4 57/33/4 59/32/4
f 84/47/6 83/48/6 80/49/6 82/50/6
f 54/12/4 52/11/4 51/14/4 53/13/4
f 76/51/5 74/52/5 75/53/5 73/54/5
f 78/55/5 76/51/5 73/54/5 77/56/5
f 79/57/6 82/50/6 80/49/6 81/58/6
