# Blender 5.0.1
# www.blender.org
mtllib BP_Lantern.mtl
o SM_Lantern.001
v -6.250000 -12.500003 56.249996
v -12.500000 -12.500002 50.000000
v -6.250000 -12.500002 50.000000
v -12.500000 -12.500003 56.249996
v -6.250000 -12.500003 62.500000
v -12.500000 -12.500003 62.500000
v 6.250000 -12.500003 56.249996
v 6.250001 -12.500003 62.500000
v 12.500000 -12.500003 56.249996
v 12.500000 -12.500003 62.500000
v 6.250001 -12.500002 50.000000
v 12.500000 -12.500002 50.000000
v 6.250001 12.499998 50.000000
v 6.250001 12.499997 56.249996
v 12.500000 12.499998 50.000000
v 12.500000 12.499997 56.249996
v 6.250001 12.499997 62.500000
v 12.500000 12.499997 62.500000
v -6.250000 12.499997 56.249996
v -6.250000 12.499997 62.500000
v -12.500000 12.499997 56.249996
v -12.500000 12.499997 62.500000
v -12.500000 12.499998 50.000000
v -6.250000 12.499998 50.000000
v -12.500000 6.249998 56.249996
v -12.500000 12.499998 50.000000
v -12.500000 6.249998 50.000000
v -12.500000 12.499997 56.249996
v -12.500000 6.249997 62.500000
v -12.500000 12.499997 62.500000
v -12.500000 -6.250002 56.249996
v -12.500000 -6.250003 62.500000
v -12.500000 -12.500003 56.249996
v -12.500000 -12.500003 62.500000
v -12.500000 -12.500002 50.000000
v -12.500000 -6.250002 50.000000
v 18.750000 -18.750002 50.000000
v 12.500000 -18.750002 50.000000
v 18.750000 -18.750002 43.750000
v 12.500000 -18.750002 43.750000
v 6.250001 -18.750002 50.000000
v 18.750000 -18.750000 6.250000
v 6.250000 -18.750002 43.750000
v -6.250000 -18.750002 50.000000
v 12.500000 -18.750000 6.250000
v -6.250000 -18.750002 43.750000
v 18.750000 -18.750000 -0.000001
v -12.500000 -18.750002 50.000000
v 12.500000 -18.750000 -0.000001
v 6.250001 -18.750000 -0.000001
v 6.250000 -18.750000 6.250000
v -6.250000 -18.750000 -0.000001
v -6.250000 -18.750000 6.250000
v -12.500000 -18.750000 6.250000
v -12.500000 -18.750000 -0.000001
v -18.750000 -18.750000 -0.000001
v -18.750000 -18.750000 6.250000
v -12.500000 -18.750002 43.750000
v -18.750000 -18.750002 43.750000
v -18.750000 -18.750002 50.000000
v 6.250001 -12.500003 62.500000
v 12.500000 -12.500003 62.500000
v 12.500000 -6.250003 62.500000
v 6.250001 -6.250003 62.500000
v -6.250000 -12.500003 62.500000
v 12.500000 6.249997 62.500000
v -6.250000 -6.250003 62.500000
v -12.500000 -12.500003 62.500000
v -12.500000 -6.250003 62.500000
v 6.250001 6.249997 62.500000
v 6.250001 12.499997 62.500000
v 12.500000 12.499997 62.500000
v -6.250000 12.499997 62.500000
v -6.250000 6.249997 62.500000
v -12.500000 6.249997 62.500000
v -12.500000 12.499997 62.500000
v 18.750000 18.750000 0.000001
v 12.500000 18.750000 0.000001
v 18.750000 18.750000 6.250002
v 12.500000 18.750000 6.250002
v 6.250001 18.750000 0.000001
v 18.750000 18.749998 43.750000
v 6.250000 18.750000 6.250002
v -6.250000 18.750000 0.000001
v 12.500000 18.749998 43.750000
v -6.250000 18.750000 6.250002
v 18.750000 18.749998 50.000000
v -12.500000 18.750000 0.000001
v 12.500000 18.749998 50.000000
v 6.250001 18.749998 50.000000
v 6.250000 18.749998 43.750000
v -6.250000 18.749998 50.000000
v -6.250000 18.749998 43.750000
v -12.500000 18.749998 43.750000
v -12.500000 18.749998 50.000000
v -18.750000 18.749998 50.000000
v -18.750000 18.749998 43.750000
v -12.500000 18.750000 6.250002
v -18.750000 18.750000 6.250002
v -18.750000 18.750000 0.000001
v 18.750000 -18.750000 -0.000001
v 12.500000 -18.750000 -0.000001
v 18.750000 -12.500000 -0.000001
v 12.500000 -12.500000 -0.000001
v 6.250001 -18.750000 -0.000001
v 18.750000 -6.250001 -0.000000
v 6.250000 -12.500000 -0.000001
v -6.250000 -18.750000 -0.000001
v 12.500000 -6.250001 -0.000000
v -6.250000 -12.500000 -0.000001
v -12.500000 -18.750000 -0.000001
v 6.250000 -6.250001 -0.000000
v -18.750000 -18.750000 -0.000001
v -18.750000 -12.500000 -0.000001
v -12.500000 -12.500000 -0.000001
v -18.750000 -6.250001 -0.000000
v -6.250000 -6.250001 -0.000000
v -12.500000 -6.250001 -0.000000
v -18.750000 6.250000 0.000000
v -12.500000 6.250000 0.000000
v -18.750000 12.500000 0.000001
v -6.250000 6.250000 0.000000
v -12.500000 12.500000 0.000001
v -18.750000 18.750000 0.000001
v -12.500000 18.750000 0.000001
v -6.250000 18.750000 0.000001
v -6.250000 12.500000 0.000001
v 6.250000 6.250000 0.000000
v 6.250000 12.500000 0.000001
v 6.250001 18.750000 0.000001
v 12.500000 6.250000 0.000000
v 18.750000 6.250000 0.000000
v 12.500000 12.500000 0.000001
v 12.500000 18.750000 0.000001
v 18.750000 12.500000 0.000001
v 18.750000 18.750000 0.000001
v 18.750000 12.499998 50.000000
v 18.750000 18.749998 43.750000
v 18.750000 18.749998 50.000000
v 18.750000 12.499998 43.750000
v 18.750000 6.249998 50.000000
v 18.750000 18.750000 6.250002
v 18.750000 6.249998 43.750000
v 18.750000 12.500000 6.250001
v 18.750000 -6.250002 50.000000
v 18.750000 18.750000 0.000001
v 18.750000 -6.250003 43.750000
v 18.750000 12.500000 0.000001
v 18.750000 -12.500002 50.000000
v 18.750000 6.250000 6.250001
v 18.750000 -12.500002 43.750000
v 18.750000 6.250000 0.000000
v 18.750000 -6.250001 6.250000
v 18.750000 -6.250001 -0.000000
v 18.750000 -12.500000 6.250000
v 18.750000 -12.500000 -0.000001
v 18.750000 -18.750000 -0.000001
v 18.750000 -18.750000 6.250000
v 18.750000 -18.750002 43.750000
v 18.750000 -18.750002 50.000000
v -18.750000 -18.750002 43.750000
v -18.750000 -18.750002 50.000000
v -18.750000 -12.500002 50.000000
v -18.750000 -12.500002 43.750000
v -18.750000 -18.750000 6.250000
v -18.750000 -6.250002 50.000000
v -18.750000 -6.250002 43.750000
v -18.750000 6.249998 50.000000
v -18.750000 -12.500000 6.250000
v -18.750000 6.249998 43.750000
v -18.750000 -18.750000 -0.000001
v -18.750000 12.499998 50.000000
v -18.750000 -12.500000 -0.000001
v -18.750000 -6.250001 -0.000000
v -18.750000 -6.250000 6.250000
v -18.750000 6.250000 0.000000
v -18.750000 6.250000 6.250001
v -18.750000 12.500000 6.250001
v -18.750000 12.500000 0.000001
v -18.750000 18.750000 0.000001
v -18.750000 18.750000 6.250002
v -18.750000 12.499998 43.750000
v -18.750000 18.749998 43.750000
v -18.750000 18.749998 50.000000
v 12.500000 6.249997 62.500000
v 12.500000 12.499997 56.249996
v 12.500000 12.499997 62.500000
v 12.500000 6.249998 56.249996
v 12.500000 12.499998 50.000000
v 12.500000 6.249998 50.000000
v 12.500000 -6.250003 62.500000
v 12.500000 -6.250003 56.249996
v 12.500000 -12.500003 62.500000
v 12.500000 -12.500003 56.249996
v 12.500000 -12.500002 50.000000
v 12.500000 -6.250002 50.000000
v -18.750000 -18.750002 50.000000
v -12.500000 -18.750002 50.000000
v -12.500000 -12.500002 50.000000
v -18.750000 -12.500002 50.000000
v -6.250000 -18.750002 50.000000
v -12.500000 -6.250002 50.000000
v -6.250000 -12.500002 50.000000
v -18.750000 -6.250002 50.000000
v 6.250001 -18.750002 50.000000
v -12.500000 6.249998 50.000000
v 6.250001 -12.500002 50.000000
v -18.750000 6.249998 50.000000
v 12.500000 -12.500002 50.000000
v -12.500000 12.499998 50.000000
v 12.500000 -18.750002 50.000000
v -18.750000 12.499998 50.000000
v 18.750000 -18.750002 50.000000
v -18.750000 18.749998 50.000000
v 18.750000 -12.500002 50.000000
v -12.500000 18.749998 50.000000
v 18.750000 -6.250002 50.000000
v -6.250000 18.749998 50.000000
v 12.500000 -6.250002 50.000000
v -6.250000 12.499998 50.000000
v 18.750000 6.249998 50.000000
v 6.250001 12.499998 50.000000
v 12.500000 6.249998 50.000000
v 6.250001 18.749998 50.000000
v 18.750000 12.499998 50.000000
v 12.500000 12.499998 50.000000
v 12.500000 18.749998 50.000000
v 18.750000 18.749998 50.000000
vn -0.0000 -1.0000 -0.0000
vn -0.0000 1.0000 -0.0000
vn -1.0000 -0.0000 -0.0000
vn -0.0000 -0.0000 1.0000
vn -0.0000 -0.0000 -1.0000
vn 1.0000 -0.0000 -0.0000
vt 0.937500 0.937500
vt 1.000000 0.937500
vt 1.000000 0.999969
vt 0.937500 0.999969
vt 0.125000 0.500000
vt 0.062500 0.500000
vt 0.062500 0.437500
vt 0.125000 0.437500
vt 0.750000 0.625000
vt 0.812500 0.625000
vt 0.812500 0.687500
vt 0.750000 0.687500
vt 0.500000 0.937500
vt 0.500000 0.999969
vt 0.437500 0.999969
vt 0.437500 0.937500
vt 0.937500 0.562500
vt 0.937500 0.625000
vt 0.812500 0.562500
vt 0.437500 0.562500
vt 0.437500 0.500000
vt 0.500000 0.500000
vt 0.500000 0.562500
vt 0.625000 0.187500
vt 0.625000 0.250000
vt 0.500000 0.250000
vt 0.500000 0.187500
vt 0.750000 0.812500
vt 0.750000 0.750000
vt 0.812500 0.750000
vt 0.812500 0.812500
vt 0.687500 0.937500
vt 0.687500 0.999969
vt 0.625000 0.999969
vt 0.625000 0.937500
vt 0.687500 0.250000
vt 0.687500 0.375000
vt 0.625000 0.375000
vt 0.125000 0.562500
vt 0.062500 0.562500
vt 0.687500 0.562500
vt 0.625000 0.562500
vt 0.437500 0.187500
vt 0.437500 0.250000
vt 0.375000 0.250000
vt 0.375000 0.187500
vt 0.375000 0.562500
vt 0.375000 0.500000
vt 0.812500 0.937500
vt 0.937500 0.812500
vt 0.312500 0.999969
vt 0.312500 0.937500
vt 0.375000 0.937500
vt 0.375000 0.999969
vt 0.625000 0.500000
vt 1.000000 0.562500
vt 1.000000 0.625000
vt 0.750000 0.937500
vt 0.750000 0.999969
vt 0.937500 0.750000
vt 0.937500 0.687500
vt 1.000000 0.687500
vt 1.000000 0.750000
vt 1.000000 0.500000
vt 0.937500 0.500000
vt 1.000000 0.812500
vt 0.125000 0.937500
vt 0.062500 0.937500
vt 0.750000 0.562500
vt 0.250000 0.500000
vt 0.312500 0.500000
vt 0.312500 0.562500
vt 0.250000 0.562500
vt 0.250000 0.937500
vt 0.687500 0.187500
vt 0.750000 0.187500
vt 0.750000 0.250000
vt 0.750000 0.500000
vt 0.812500 0.500000
vt 0.500000 0.437500
vt 0.625000 0.437500
vt 0.687500 0.500000
vt 0.687500 0.437500
vt 0.250000 0.999969
vt 0.750000 0.437500
vt 0.500000 0.375000
vt 0.062500 0.250000
vt 0.062500 0.375000
vt 0.000031 0.375000
vt 0.000031 0.250000
vt 0.437500 0.375000
vt 0.375000 0.375000
vt 0.312500 0.375000
vt 0.375000 0.437500
vt 0.312500 0.437500
vt 0.750000 0.125000
vt 0.687500 0.125000
vt 0.125000 0.999969
vt 0.062500 0.999969
vt 0.812500 0.999969
vt 0.750000 0.375000
vt 0.000031 0.562500
vt 0.000031 0.500000
vt 0.625000 0.125000
vt 0.500000 0.125000
vt 0.437500 0.125000
vt 0.375000 0.125000
vt 0.000031 0.937500
vt 0.000031 0.187500
vt 0.062500 0.187500
vt 0.250000 0.437500
vt 0.000031 0.437500
vt 0.000031 0.999969
vt 0.437500 0.437500
vt 0.250000 0.187500
vt 0.125000 0.187500
vt 0.125000 0.125000
vt 0.250000 0.125000
vt 0.000031 0.125000
vt 0.062500 0.125000
vt 0.312500 0.250000
vt 0.312500 0.187500
vt 0.312500 0.125000
s 1
usemtl MI_Lantern_Frame
f 70/1/4 66/2/4 72/3/4 71/4/4
f 204/5/4 200/6/4 199/7/4 202/8/4
f 195/9/6 196/10/6 192/11/6 194/12/6
f 91/13/2 90/14/2 89/15/2 85/16/2
f 7/17/1 8/18/1 5/10/1 1/19/1
f 54/20/1 55/21/1 52/22/1 53/23/1
f 129/24/5 128/25/5 122/26/5 127/27/5
f 69/28/4 68/29/4 65/30/4 67/31/4
f 94/32/2 95/33/2 92/34/2 93/35/2
f 131/36/5 109/37/5 112/38/5 128/25/5
f 179/6/3 176/5/3 177/39/3 178/40/3
f 123/43/5 120/44/5 119/45/5 121/46/5
f 54/20/1 57/47/1 56/48/1 55/21/1
f 74/49/4 67/31/4 64/50/4 70/1/4
f 137/51/6 140/52/6 138/53/6 139/54/6
f 84/55/2 86/42/2 83/23/2 81/22/2
f 19/17/2 21/56/2 22/57/2 20/18/2
f 93/35/2 92/34/2 90/14/2 91/13/2
f 38/33/1 40/32/1 39/58/1 37/59/1
f 185/60/6 188/61/6 186/62/6 187/63/6
f 12/64/1 9/56/1 7/17/1 11/65/1
f 81/22/2 83/23/2 80/20/2 78/21/2
f 67/31/4 65/30/4 61/60/4 64/50/4
f 64/50/4 61/60/4 62/63/4 63/66/4
f 5/10/1 6/9/1 4/69/1 1/19/1
f 152/70/6 148/71/6 144/72/6 150/73/6
f 154/5/6 152/70/6 150/73/6 153/39/6
f 133/75/5 131/36/5 128/25/5 129/24/5
f 135/76/5 132/77/5 131/36/5 133/75/5
f 1/19/1 4/69/1 2/78/1 3/79/1
f 94/32/2 97/58/2 96/59/2 95/33/2
f 140/52/6 144/72/6 142/47/6 138/53/6
f 108/22/5 110/80/5 107/81/5 105/55/5
f 44/14/1 46/13/1 43/35/1 41/34/1
f 80/20/2 85/16/2 82/53/2 79/47/2
f 164/52/3 161/53/3 162/54/3 163/51/3
f 51/42/1 50/55/1 49/82/1 45/41/1
f 105/55/5 107/81/5 104/83/5 102/82/5
f 45/41/1 49/82/1 47/78/1 42/69/1
f 18/9/2 16/69/2 14/19/2 17/10/2
f 167/74/3 164/52/3 163/51/3 166/84/3
f 102/82/5 104/83/5 103/85/5 101/78/5
f 48/15/1 58/16/1 46/13/1 44/14/1
f 191/30/6 192/11/6 188/61/6 185/60/6
f 70/1/4 64/50/4 63/66/4 66/2/4
f 9/56/1 10/57/1 8/18/1 7/17/1
f 31/61/3 33/62/3 34/63/3 32/60/3
f 110/80/5 117/86/5 112/38/5 107/81/5
f 31/61/3 32/60/3 29/30/3 25/11/3
f 207/87/4 203/88/4 201/89/4 205/90/4
f 30/29/3 28/12/3 25/11/3 29/30/3
f 120/44/5 118/91/5 116/92/5 119/45/5
f 48/15/1 60/54/1 59/53/1 58/16/1
f 220/93/4 218/92/4 216/94/4 210/95/4
f 58/16/1 59/53/1 57/47/1 54/20/1
f 98/41/2 99/69/2 97/58/2 94/32/2
f 141/84/6 143/74/6 140/52/6 137/51/6
f 40/32/1 45/41/1 42/69/1 39/58/1
f 20/18/2 17/10/2 14/19/2 19/17/2
f 36/18/3 35/57/3 33/62/3 31/61/3
f 136/96/5 135/76/5 133/75/5 134/97/5
f 24/65/2 23/64/2 21/56/2 19/17/2
f 75/58/4 69/28/4 67/31/4 74/49/4
f 145/98/6 147/67/6 143/74/6 141/84/6
f 182/68/3 170/67/3 168/98/3 172/99/3
f 74/49/4 70/1/4 71/4/4 73/100/4
f 132/77/5 106/101/5 109/37/5 131/36/5
f 107/81/5 112/38/5 109/37/5 104/83/5
f 155/40/6 158/102/6 157/103/6 156/6/6
f 130/104/5 129/24/5 127/27/5 126/105/5
f 78/21/2 80/20/2 79/47/2 77/48/2
f 175/73/3 174/70/3 173/71/3 169/72/3
f 128/25/5 112/38/5 117/86/5 122/26/5
f 125/106/5 123/43/5 121/46/5 124/107/5
f 173/71/3 171/48/3 165/47/3 169/72/3
f 148/71/6 146/48/6 142/47/6 144/72/6
f 126/105/5 127/27/5 123/43/5 125/106/5
f 170/67/3 167/74/3 166/84/3 168/98/3
f 88/82/2 98/41/2 86/42/2 84/55/2
f 155/40/6 156/6/6 154/5/6 153/39/6
f 169/72/3 165/47/3 161/53/3 164/52/3
f 151/68/6 159/108/6 158/102/6 155/40/6
f 194/12/6 192/11/6 191/30/6 193/29/6
f 127/27/5 122/26/5 120/44/5 123/43/5
f 183/108/3 181/102/3 178/40/3 182/68/3
f 205/90/4 211/109/4 209/110/4 207/87/4
f 181/102/3 180/103/3 179/6/3 178/40/3
f 16/69/2 15/78/2 13/79/2 14/19/2
f 104/83/5 109/37/5 106/101/5 103/85/5
f 177/39/3 176/5/3 174/70/3 175/73/3
f 134/97/5 133/75/5 129/24/5 130/104/5
f 208/70/4 204/5/4 202/8/4 206/111/4
f 188/61/6 190/18/6 189/57/6 186/62/6
f 88/82/2 100/78/2 99/69/2 98/41/2
f 203/88/4 199/7/4 198/112/4 201/89/4
f 200/6/4 197/103/4 198/112/4 199/7/4
f 184/113/3 183/108/3 182/68/3 172/99/3
f 115/114/5 111/21/5 113/48/5 114/94/5
f 223/115/4 219/116/4 217/117/4 221/118/4
f 213/119/4 215/120/4 209/110/4 211/109/4
f 219/116/4 209/110/4 215/120/4 217/117/4
f 210/95/4 216/94/4 214/48/4 212/71/4
f 122/26/5 117/86/5 118/91/5 120/44/5
f 222/121/4 224/45/4 218/92/4 220/93/4
f 226/122/4 223/115/4 221/118/4 225/123/4
f 53/23/1 52/22/1 50/55/1 51/42/1
f 115/114/5 118/91/5 117/86/5 110/80/5
f 228/107/4 227/46/4 226/122/4 225/123/4
f 41/34/1 43/35/1 40/32/1 38/33/1
f 226/122/4 227/46/4 224/45/4 222/121/4
f 149/99/6 151/68/6 147/67/6 145/98/6
f 212/71/4 208/70/4 206/111/4 210/95/4
f 149/99/6 160/113/6 159/108/6 151/68/6
f 85/16/2 89/15/2 87/54/2 82/53/2
f 28/12/3 26/9/3 27/10/3 25/11/3
f 111/21/5 115/114/5 110/80/5 108/22/5
f 118/91/5 115/114/5 114/94/5 116/92/5
f 76/59/4 75/58/4 74/49/4 73/100/4
usemtl M_Master_Prefab_Glass
f 45/41/1 40/32/1 43/35/1 51/42/1
f 51/42/1 43/35/1 46/13/1 53/23/1
f 53/23/1 46/13/1 58/16/1 54/20/1
f 147/67/6 151/68/6 155/40/6 153/39/6
f 143/74/6 147/67/6 153/39/6 150/73/6
f 91/13/2 83/23/2 86/42/2 93/35/2
f 27/10/3 36/18/3 31/61/3 25/11/3
f 93/35/2 86/42/2 98/41/2 94/32/2
f 190/18/6 188/61/6 192/11/6 196/10/6
f 11/65/1 7/17/1 1/19/1 3/79/1
f 178/40/3 177/39/3 170/67/3 182/68/3
f 177/39/3 175/73/3 167/74/3 170/67/3
f 175/73/3 169/72/3 164/52/3 167/74/3
f 85/16/2 80/20/2 83/23/2 91/13/2
f 19/17/2 14/19/2 13/79/2 24/65/2
f 140/52/6 143/74/6 150/73/6 144/72/6
