# Blender 5.0.1
# www.blender.org
mtllib BP_LobbyVillager_GiftWrapper.mtl
o SM_GiftWrapperHat.001
v -20.625021 31.575630 0.000036
v -6.874998 19.667788 6.875003
v -6.875021 31.575638 -0.000002
v -20.624998 19.667786 6.875041
v 27.500053 19.667818 27.499920
v 27.499928 -7.832211 -27.500069
v 27.499912 19.667793 -27.500080
v 27.500069 -7.832185 27.499931
v -27.499947 19.667788 27.500061
v 27.500069 -7.832185 27.499931
v 27.500053 19.667818 27.499920
v -27.499931 -7.832214 27.500072
v -27.500090 19.667763 -27.499943
v -27.499931 -7.832214 27.500072
v -27.499947 19.667788 27.500061
v -27.500074 -7.832241 -27.499929
v 27.499912 19.667793 -27.500080
v -27.500074 -7.832241 -27.499929
v -27.500090 19.667763 -27.499943
v 27.499928 -7.832211 -27.500069
v 27.499912 19.667793 -27.500080
v -27.500090 19.667763 -27.499943
v -27.499947 19.667788 27.500061
v 27.500053 19.667818 27.499920
v 41.250011 -7.832188 6.874897
v 27.500013 -7.832195 6.874931
v 27.500069 -7.832185 27.499931
v 41.250072 -7.832178 27.499897
v 27.499928 -7.832211 -27.500069
v 41.249981 -7.832194 -6.875104
v 41.249928 -7.832204 -27.500105
v 27.499979 -7.832201 -6.875069
v 27.499893 -7.832217 -41.250072
v 6.874928 -7.832222 -27.500015
v 6.874893 -7.832228 -41.250019
v -6.875107 -7.832236 -41.249981
v -27.500074 -7.832241 -27.499929
v -6.875072 -7.832229 -27.499981
v -27.500109 -7.832247 -41.249928
v -41.250072 -7.832248 -27.499895
v -41.250019 -7.832238 -6.874896
v -27.500017 -7.832231 -6.874930
v -41.249981 -7.832232 6.875109
v -27.499928 -7.832214 27.500072
v -27.499983 -7.832224 6.875070
v -41.249928 -7.832222 27.500113
v -6.874930 -7.832203 27.500017
v -6.874895 -7.832197 41.250019
v -27.499893 -7.832208 41.250076
v 27.500074 -7.832185 27.499928
v 6.875071 -7.832196 27.499979
v 27.500109 -7.832179 41.249924
v 6.875105 -7.832190 41.249985
v 27.499956 19.667799 -6.875067
v 41.249989 19.667818 6.874899
v 41.249958 19.667812 -6.875102
v 27.499990 19.667807 6.874933
v 41.249958 19.667812 -6.875102
v 52.816879 27.102177 6.874867
v 52.816849 27.102169 -6.875133
v 41.249989 19.667818 6.874899
v 6.874976 31.575645 -0.000034
v 20.624998 19.667807 6.874936
v 20.624975 31.575653 -0.000069
v 6.875000 19.667799 6.874971
vn -0.0000 0.5000 0.8660
vn 1.0000 -0.0000 -0.0000
vn -0.0000 -0.0000 1.0000
vn -1.0000 -0.0000 -0.0000
vn -0.0000 -0.0000 -1.0000
vn -0.0000 1.0000 -0.0000
vn -0.5407 0.8412 -0.0000
vt 0.875000 0.062500
vt 1.000000 0.062500
vt 1.000000 0.250000
vt 0.875000 0.250000
vt 0.750000 0.999969
vt 0.250000 0.999969
vt 0.250000 0.750000
vt 0.750000 0.750000
vt 0.250000 0.000000
vt 0.750000 0.000000
vt 0.750000 0.250000
vt 0.250000 0.250000
vt 1.000000 0.750000
vt 0.000031 0.750000
vt 0.000031 0.250000
vt 0.875000 0.750000
vt 1.000000 0.875000
vt 0.875000 0.875000
vt 0.250000 0.562500
vt 0.125000 0.562500
vt 0.125000 0.437500
vt 0.250000 0.437500
vt 0.000031 0.562500
vt 0.000031 0.437500
s 1
usemtl MI_GiftWrapperHat
f 44/1/6 49/2/6 48/3/6 47/4/6
f 35/3/6 34/4/6 29/1/6 33/2/6
f 20/5/5 18/6/5 19/7/5 17/8/5
f 12/9/3 10/10/3 11/11/3 9/12/3
f 8/3/2 6/13/2 7/8/2 5/11/2
f 16/14/4 14/15/4 15/12/4 13/7/4
f 4/16/1 2/13/1 3/17/1 1/18/1
f 39/3/6 37/4/6 38/1/6 36/2/6
f 42/4/6 37/1/6 40/2/6 41/3/6
f 57/19/6 55/20/6 56/21/6 54/22/6
f 32/1/6 30/2/6 31/3/6 29/4/6
f 51/1/6 53/2/6 52/3/6 50/4/6
f 46/3/6 44/4/6 45/1/6 43/2/6
f 28/2/6 25/3/6 26/4/6 27/1/6
f 24/11/6 21/8/6 22/7/6 23/12/6
f 61/20/7 59/23/7 60/24/7 58/21/7
f 65/13/1 63/16/1 64/18/1 62/17/1
