# Blender 5.0.1
# www.blender.org
mtllib BP_LobbyVillagerStore.mtl
o SK_Villager.001
v 25.000000 -24.999998 212.500000
v -25.000000 -24.999998 212.500000
v -25.000000 -25.000000 150.000000
v 25.000000 -25.000000 150.000000
v -25.000000 25.000002 212.500000
v 25.000000 25.000000 150.000000
v -25.000000 25.000000 150.000000
v 25.000000 25.000002 212.500000
v 25.000000 -24.999998 212.500000
v 25.000000 25.000000 150.000000
v 25.000000 25.000002 212.500000
v 25.000000 -25.000000 150.000000
v 25.000000 -25.000000 150.000000
v -25.000000 -25.000000 150.000000
v -25.000000 25.000000 150.000000
v 25.000000 25.000000 150.000000
v -25.000000 -24.999998 212.500000
v -25.000000 25.000000 150.000000
v -25.000000 -25.000000 150.000000
v -25.000000 25.000002 212.500000
v 25.000000 -24.999998 212.500000
v 25.000000 25.000002 212.500000
v -25.000000 -24.999998 212.500000
v -25.000000 25.000002 212.500000
v 18.750002 -26.178999 181.250000
v -18.749998 -26.178999 181.250000
v -18.749998 -26.178999 175.000000
v 18.750002 -26.178999 175.000000
v -6.249998 -25.863317 175.000000
v -12.499999 -25.863317 175.000000
v -12.499999 -25.863317 168.750000
v -6.249998 -25.863317 168.750000
v -6.249998 -25.318604 175.000000
v -18.750000 -25.318604 175.000000
v -18.750000 -25.318604 168.750000
v -6.249998 -25.318604 168.750000
v 12.500000 -25.863317 175.000000
v 6.250000 -25.863317 175.000000
v 6.250000 -25.863317 168.750000
v 12.500000 -25.863317 168.750000
v 18.750002 -25.318604 175.000000
v 6.250002 -25.318604 175.000000
v 6.250002 -25.318604 168.750000
v 18.750002 -25.318604 168.750000
v 12.500002 -25.772293 162.500000
v -12.499997 -25.772293 162.500000
v -12.499997 -25.772293 156.250000
v 12.500002 -25.772293 156.250000
v -6.250000 -37.500000 168.750000
v -6.250000 -37.500000 143.750000
v 6.250000 -37.500000 168.750000
v 6.250000 -37.500000 143.750000
v -6.250000 -25.000000 143.750000
v -6.250000 -25.000000 168.750000
v 6.250000 -25.000000 143.750000
v 6.250000 -25.000000 168.750000
v 6.250000 -25.000000 143.750000
v 6.250000 -25.000000 168.750000
v 6.250000 -37.500000 143.750000
v 6.250000 -37.500000 168.750000
v 6.250000 -37.500000 143.750000
v -6.250000 -37.500000 143.750000
v -6.250000 -25.000000 143.750000
v 6.250000 -25.000000 143.750000
v -6.250000 -37.500000 143.750000
v -6.250000 -25.000000 168.750000
v -6.250000 -25.000000 143.750000
v -6.250000 -37.500000 168.750000
v 6.250000 -37.500000 168.750000
v 6.250000 -25.000000 168.750000
v -6.250000 -37.500000 168.750000
v -6.250000 -25.000000 168.750000
v 26.250002 -26.249998 214.062500
v -26.249998 -26.249998 214.062500
v -26.249998 -26.250000 148.437500
v 26.250002 -26.250000 148.437500
v -26.249998 26.250002 214.062500
v 26.250002 26.250000 148.437500
v -26.249998 26.250000 148.437500
v 26.250002 26.250002 214.062500
v 26.250002 -26.249998 214.062500
v 26.250002 26.250000 148.437500
v 26.250002 26.250002 214.062500
v 26.250002 -26.250000 148.437500
v 26.250002 -26.250000 148.437500
v -26.249998 -26.250000 148.437500
v -26.249998 26.250000 148.437500
v 26.250002 26.250000 148.437500
v -26.249998 -26.249998 214.062500
v -26.249998 26.250000 148.437500
v -26.249998 -26.250000 148.437500
v -26.249998 26.250002 214.062500
v 26.250002 -26.249998 214.062500
v 26.250002 26.250002 214.062500
v -26.249998 -26.249998 214.062500
v -26.249998 26.250002 214.062500
v 52.500000 -52.500000 187.812500
v 52.500000 52.500000 187.812500
v -52.500000 -52.500000 187.812500
v -52.500000 52.500000 187.812500
v 50.000000 -8.066990 148.796387
v 25.000000 -8.066990 148.796387
v 25.000000 -39.601093 109.994316
v 50.000000 -39.601093 109.994316
v 25.000000 -20.200062 94.227264
v 25.000000 11.334043 133.029327
v 50.000000 -20.200062 94.227264
v 50.000000 11.334043 133.029327
v 50.000000 -8.066990 148.796387
v 50.000000 -20.200062 94.227264
v 50.000000 11.334043 133.029327
v 50.000000 -39.601093 109.994316
v 50.000000 -39.601093 109.994316
v 25.000000 -39.601093 109.994316
v 25.000000 -20.200062 94.227264
v 50.000000 -20.200062 94.227264
v 25.000000 11.334043 133.029327
v 25.000000 -20.200062 94.227264
v 25.000000 -8.066990 148.796387
v 25.000000 -39.601093 109.994316
v 50.000000 -8.066990 148.796387
v 50.000000 11.334043 133.029327
v 25.000000 -8.066990 148.796387
v 25.000000 11.334043 133.029327
v -25.000000 -8.066990 148.796387
v -50.000000 -8.066990 148.796387
v -50.000000 -39.601093 109.994316
v -25.000000 -39.601093 109.994316
v -50.000000 -20.200062 94.227264
v -50.000000 11.334043 133.029327
v -25.000000 -20.200062 94.227264
v -25.000000 11.334043 133.029327
v -25.000000 -8.066990 148.796387
v -25.000000 -20.200062 94.227264
v -25.000000 11.334043 133.029327
v -25.000000 -39.601093 109.994316
v -25.000000 -39.601093 109.994316
v -50.000000 -39.601093 109.994316
v -50.000000 -20.200062 94.227264
v -25.000000 -20.200062 94.227264
v -50.000000 11.334043 133.029327
v -50.000000 -20.200062 94.227264
v -50.000000 -8.066990 148.796387
v -50.000000 -39.601093 109.994316
v -25.000000 -8.066990 148.796387
v -25.000000 11.334043 133.029327
v -50.000000 -8.066990 148.796387
v -50.000000 11.334043 133.029327
v 25.000000 -23.834044 129.395355
v -25.000000 -23.834044 129.395355
v -25.000000 -39.601093 109.994316
v 25.000000 -39.601093 109.994316
v -25.000000 -4.433010 113.628296
v 25.000000 -20.200062 94.227264
v -25.000000 -20.200062 94.227264
v 25.000000 -4.433010 113.628296
v 25.000000 -23.834044 129.395355
v 25.000000 -20.200062 94.227264
v 25.000000 -4.433010 113.628296
v 25.000000 -39.601093 109.994316
v 25.000000 -39.601093 109.994316
v -25.000000 -39.601093 109.994316
v -25.000000 -20.200062 94.227264
v 25.000000 -20.200062 94.227264
v -25.000000 -23.834044 129.395355
v -25.000000 -4.433010 113.628296
v -25.000000 -20.200062 94.227264
v -25.000000 -39.601093 109.994316
v -25.000000 -23.834044 129.395355
v 25.000000 -23.834044 129.395355
v 25.000000 -4.433010 113.628296
v -25.000000 -4.433010 113.628296
v 24.881741 -18.661304 149.865677
v -24.881741 -18.661304 149.865677
v -24.881741 -18.661308 75.220451
v 24.881741 -18.661308 75.220451
v -24.881741 18.661304 149.865677
v 24.881741 18.661303 75.220451
v -24.881741 18.661303 75.220451
v 24.881741 18.661304 149.865677
v 24.881741 18.661303 75.220451
v 24.881741 -18.661304 149.865677
v 24.881741 -18.661308 75.220451
v 24.881741 18.661304 149.865677
v 24.881741 -18.661308 75.220451
v -24.881741 -18.661308 75.220451
v -24.881741 18.661303 75.220451
v 24.881741 18.661303 75.220451
v -24.881741 -18.661304 149.865677
v -24.881741 18.661303 75.220451
v -24.881741 -18.661308 75.220451
v -24.881741 18.661304 149.865677
v 24.881741 -18.661304 149.865677
v 24.881741 18.661304 149.865677
v -24.881741 -18.661304 149.865677
v -24.881741 18.661304 149.865677
v -27.439535 -18.750000 150.000000
v -27.439535 -18.750006 37.500000
v 27.439533 -18.750000 150.000000
v 27.439533 -18.750006 37.500000
v -27.439535 18.749994 37.500000
v -27.439535 18.750000 150.000000
v 27.439533 18.749994 37.500000
v 27.439533 18.750000 150.000000
v 27.439533 18.749994 37.500000
v 27.439533 18.750000 150.000000
v 27.439533 -18.750006 37.500000
v 27.439533 -18.750000 150.000000
v 27.439533 -18.750006 37.500000
v -27.439535 -18.750006 37.500000
v -27.439535 18.749994 37.500000
v 27.439533 18.749994 37.500000
v -27.439535 -18.750006 37.500000
v -27.439535 18.750000 150.000000
v -27.439535 18.749994 37.500000
v -27.439535 -18.750000 150.000000
v 27.439533 -18.750000 150.000000
v 27.439533 18.750000 150.000000
v -27.439535 -18.750000 150.000000
v -27.439535 18.750000 150.000000
v 0.000000 -12.500000 75.000000
v 0.000000 -12.500003 0.000002
v 25.000000 -12.500000 75.000000
v 25.000000 -12.500003 0.000002
v 0.000000 12.499997 0.000002
v 0.000000 12.500000 75.000000
v 25.000000 12.499997 0.000002
v 25.000000 12.500000 75.000000
v 25.000000 12.499997 0.000002
v 25.000000 -12.500000 75.000000
v 25.000000 -12.500003 0.000002
v 25.000000 12.500000 75.000000
v 25.000000 -12.500003 0.000002
v 0.000000 -12.500003 0.000002
v 0.000000 12.499997 0.000002
v 25.000000 12.499997 0.000002
v 0.000000 -12.500000 75.000000
v 0.000000 12.499997 0.000002
v 0.000000 -12.500003 0.000002
v 0.000000 12.500000 75.000000
v 25.000000 -12.500000 75.000000
v 25.000000 12.500000 75.000000
v 0.000000 -12.500000 75.000000
v 0.000000 12.500000 75.000000
v -25.000000 -12.500000 75.000000
v -25.000000 -12.500003 0.000002
v -0.000000 -12.500000 75.000000
v -0.000000 -12.500003 0.000002
v -25.000000 12.499997 0.000002
v -25.000000 12.500000 75.000000
v -0.000000 12.499997 0.000002
v -0.000000 12.500000 75.000000
v -0.000000 12.499997 0.000002
v -0.000000 -12.500000 75.000000
v -0.000000 -12.500003 0.000002
v -0.000000 12.500000 75.000000
v -0.000000 12.499997 0.000002
v -0.000000 -12.500003 0.000002
v -25.000000 12.499997 0.000002
v -25.000000 -12.500003 0.000002
v -25.000000 -12.500003 0.000002
v -25.000000 -12.500000 75.000000
v -25.000000 12.499997 0.000002
v -25.000000 12.500000 75.000000
v -0.000000 12.500000 75.000000
v -25.000000 12.500000 75.000000
v -25.000000 -12.500000 75.000000
v -0.000000 -12.500000 75.000000
vn -0.0000 -1.0000 -0.0000
vn -0.0000 1.0000 -0.0000
vn 1.0000 -0.0000 -0.0000
vn -0.0000 -0.0000 -1.0000
vn -1.0000 -0.0000 -0.0000
vn -0.0000 -0.0000 1.0000
vn -0.0000 -0.7760 0.6307
vn -0.0000 0.7760 -0.6307
vn -0.0000 -0.6307 -0.7760
vn -0.0000 0.6307 0.7760
vt 0.187500 0.593750
vt 0.125000 0.593750
vt 0.125000 0.406250
vt 0.187500 0.406250
vt 0.937500 0.343750
vt 0.937500 0.406250
vt 0.812500 0.406250
vt 0.812500 0.343750
vt 0.250000 0.406250
vt 0.250000 0.593750
vt 0.750000 0.656250
vt 0.750000 0.593750
vt 0.812500 0.593750
vt 0.812500 0.656250
vt 0.437500 0.906250
vt 0.437500 0.968750
vt 0.406250 0.968750
vt 0.406250 0.906250
vt 0.875000 0.593750
vt 0.875000 0.656250
vt 0.093750 0.875000
vt 0.093750 0.890625
vt 0.062500 0.890625
vt 0.062500 0.875000
vt 0.375000 0.968750
vt 0.375000 0.906250
vt 0.468750 0.968750
vt 0.468750 0.906250
vt 0.500000 0.906250
vt 0.500000 0.968750
vt 0.812500 0.468750
vt 0.750000 0.468750
vt 0.125000 0.656250
vt 0.187500 0.656250
vt 0.375000 0.875000
vt 0.375000 0.718750
vt 0.500000 0.718750
vt 0.500000 0.875000
vt 0.375000 0.999969
vt 0.250000 0.999969
vt 0.250000 0.875000
vt 0.875000 0.468750
vt 0.937500 0.468750
vt 0.937500 0.593750
vt 0.250000 0.718750
vt 0.125000 0.875000
vt 0.125000 0.718750
vt 0.468750 0.999969
vt 0.437500 0.999969
vt 0.875000 0.875000
vt 0.875000 0.718750
vt 1.000000 0.718750
vt 1.000000 0.875000
vt 0.109375 0.890625
vt 0.109375 0.906250
vt 0.093750 0.906250
vt 0.406250 0.999969
vt 0.125000 0.906250
vt 0.125000 0.921875
vt 0.031250 0.921875
vt 0.031250 0.906250
vt 0.625000 0.999969
vt 0.625000 0.875000
vt 0.750000 0.875000
vt 0.750000 0.999969
vt 0.125000 0.999969
vt 0.687500 0.406250
vt 0.687500 0.343750
vt 0.062500 0.593750
vt 0.000031 0.593750
vt 0.000031 0.406250
vt 0.062500 0.406250
vt 0.312500 0.312500
vt 0.312500 0.031250
vt 0.437500 0.031250
vt 0.437500 0.312500
vt 0.687500 0.468750
vt 0.687500 0.593750
vt 0.125000 0.890625
vt 0.562500 0.593750
vt 0.468750 0.593750
vt 0.468750 0.406250
vt 0.562500 0.406250
vt 0.625000 0.281250
vt 0.687500 0.281250
vt 0.625000 0.343750
vt 0.750000 0.718750
vt 0.625000 0.718750
vt 0.812500 0.281250
vt 0.875000 0.281250
vt 0.875000 0.343750
vt 1.000000 0.281250
vt 1.000000 0.343750
vt 0.875000 0.999969
vt 0.484375 0.250000
vt 0.484375 0.000000
vt 0.734375 0.000000
vt 0.734375 0.250000
vt 0.343750 0.593750
vt 0.343750 0.406250
vt 0.593750 0.593750
vt 0.593750 0.687500
vt 0.468750 0.687500
vt 0.343750 0.687500
vt 0.062500 0.656250
vt 0.000031 0.875000
vt 0.000031 0.718750
vt 0.218750 0.312500
vt 0.218750 0.031250
vt 0.093750 0.406250
vt 0.093750 0.312500
vt 0.218750 0.406250
vt 0.125000 0.937500
vt 0.062500 0.937500
vt 0.062500 0.921875
vt 0.343750 0.312500
vt 0.093750 0.031250
vt 0.000031 0.312500
vt 0.000031 0.031250
s 1
usemtl MI_Villager_Butcher
f 232/1/3 230/2/3 231/3/3 229/4/3
f 164/5/9 161/6/9 162/7/9 163/8/9
f 252/1/2 251/4/2 249/9/2 250/10/2
f 124/11/10 123/12/10 121/13/10 122/14/10
f 52/15/1 51/16/1 49/17/1 50/18/1
f 116/19/9 113/20/9 114/14/9 115/13/9
f 140/19/9 137/20/9 138/14/9 139/13/9
f 36/21/1 33/22/1 34/23/1 35/24/1
f 256/1/3 254/2/3 255/3/3 253/4/3
f 68/17/5 66/25/5 67/26/5 65/18/5
f 56/27/2 55/28/2 53/29/2 54/30/2
f 104/31/7 101/13/7 102/12/7 103/32/7
f 260/33/4 259/2/4 257/1/4 258/34/4
f 8/35/2 6/36/2 7/37/2 5/38/2
f 16/35/4 13/39/4 14/40/4 15/41/4
f 132/19/8 131/42/8 129/43/8 130/44/8
f 4/45/1 1/41/1 2/46/1 3/47/1
f 64/27/4 61/48/4 62/49/4 63/16/4
f 80/50/2 78/51/2 79/52/2 77/53/2
f 32/54/1 29/55/1 30/56/1 31/22/1
f 72/57/6 71/17/6 69/16/6 70/49/6
f 28/58/1 25/59/1 26/60/1 27/61/1
f 96/62/6 95/63/6 93/64/6 94/65/6
f 24/66/6 23/46/6 21/41/6 22/40/6
f 172/67/10 169/68/10 170/8/10 171/7/10
f 262/69/5 264/70/5 263/71/5 261/72/5
f 204/73/2 203/74/2 201/75/2 202/76/2
f 142/77/5 144/32/5 143/12/5 141/78/5
f 44/46/1 41/79/1 42/22/1 43/21/1
f 112/31/3 110/42/3 111/19/3 109/13/3
f 184/80/3 182/81/3 183/82/3 181/83/3
f 58/27/3 60/16/3 59/15/3 57/28/3
f 180/80/2 178/83/2 179/67/2 177/78/2
f 167/84/5 168/85/5 165/68/5 166/86/5
f 236/1/4 233/34/4 234/33/4 235/2/4
f 136/31/3 134/42/3 135/19/3 133/13/3
f 40/79/1 37/58/1 38/55/1 39/54/1
f 240/70/5 238/71/5 239/72/5 237/69/5
f 84/87/3 82/51/3 83/50/3 81/64/3
f 76/87/1 73/64/1 74/63/1 75/88/1
f 160/89/3 158/90/3 159/91/3 157/8/3
f 156/91/8 154/90/8 155/92/8 153/93/8
f 248/3/1 247/2/1 245/69/1 246/72/1
f 152/89/7 149/8/7 150/68/7 151/85/7
f 88/50/4 85/94/4 86/65/4 87/64/4
f 100/95/6 99/96/6 97/97/6 98/98/6
f 176/82/1 173/81/1 174/99/1 175/100/1
f 188/101/4 185/102/4 186/103/4 187/81/4
f 92/38/5 90/37/5 91/88/5 89/63/5
f 196/104/6 195/99/6 193/81/6 194/103/6
f 192/10/5 190/9/5 191/100/5 189/99/5
f 244/105/6 243/69/6 241/2/6 242/33/6
f 20/106/5 18/107/5 19/47/5 17/46/5
f 108/19/8 107/42/8 105/43/8 106/44/8
f 206/73/3 208/108/3 207/109/3 205/74/3
f 220/110/6 219/111/6 217/108/6 218/112/6
f 48/59/1 45/113/1 46/114/1 47/115/1
f 228/1/2 227/4/2 225/9/2 226/10/2
f 224/3/1 223/2/1 221/69/1 222/72/1
f 118/77/5 120/32/5 119/12/5 117/78/5
f 212/116/4 209/100/4 210/112/4 211/108/4
f 128/31/7 125/13/7 126/12/7 127/32/7
f 12/45/3 10/36/3 11/35/3 9/41/3
f 200/109/1 199/108/1 197/111/1 198/117/1
f 216/111/5 214/118/5 215/119/5 213/117/5
f 148/11/10 147/12/10 145/13/10 146/14/10
f 268/2/6 265/33/6 266/105/6 267/69/6
