# Blender 5.0.1
# www.blender.org
mtllib BP_LobbyAdventureHubMerchant.mtl
o SM_RewardsTotem_Arms.001
v -3.280128 8.616470 24.999998
v -1.280128 8.921515 21.513317
v -3.280128 8.921515 21.513317
v -1.280128 8.616470 24.999998
v -8.914827 3.500004 25.875805
v -9.219872 5.500004 22.389124
v -9.219872 3.500004 22.389124
v -8.914827 5.500004 25.875805
v 4.719872 -3.675587 25.062275
v 4.719872 -3.980632 21.575594
v 6.719872 -3.675587 25.062275
v 6.719872 -3.980632 21.575594
v -6.780128 1.500001 8.999998
v -6.780128 1.500001 5.499998
v -4.780128 1.500001 8.999998
v -4.780128 1.500001 5.499998
v 9.219872 1.500004 26.000000
v 5.219872 1.500004 26.000000
v 5.219872 1.500004 22.000000
v 9.219872 1.500004 22.000000
v 9.219872 1.500004 26.000000
v 9.219872 5.500004 26.000000
v 5.219872 1.500004 26.000000
v 5.219872 5.500004 26.000000
v 9.219872 5.500004 22.000000
v 5.219872 5.500004 22.000000
v 5.219872 5.500004 26.000000
v 9.219872 5.500004 26.000000
v 9.219872 1.500004 22.000000
v 5.219872 1.500004 22.000000
v 5.219872 5.500004 22.000000
v 9.219872 5.500004 22.000000
v 9.219872 1.500004 26.000000
v 9.219872 1.500004 22.000000
v 9.219872 5.500004 26.000000
v 9.219872 5.500004 22.000000
v 5.219872 1.500004 26.000000
v 5.219872 5.500004 22.000000
v 5.219872 1.500004 22.000000
v 5.219872 5.500004 26.000000
v 5.219872 1.500004 21.999998
v 5.219872 1.500002 13.999998
v 9.219872 1.500004 21.999998
v 9.219872 1.500002 13.999998
v 5.219872 5.500002 13.999997
v 5.219872 5.500004 21.999998
v 9.219872 5.500002 13.999997
v 9.219872 5.500004 21.999998
v 9.219872 5.500002 13.999997
v 9.219872 5.500004 21.999998
v 9.219872 1.500002 13.999998
v 9.219872 1.500004 21.999998
v 5.219872 1.500004 21.999998
v 5.219872 5.500002 13.999997
v 5.219872 1.500002 13.999998
v 5.219872 5.500004 21.999998
v 9.219872 5.500001 8.999997
v 5.219872 5.500001 8.999997
v 5.219872 1.500001 8.999998
v 9.219872 1.500001 8.999998
v 5.219872 5.500001 8.999997
v 9.219872 1.500001 8.999998
v 5.219872 1.500001 8.999998
v 9.219872 5.500001 8.999997
v 9.219872 1.500001 8.999998
v 9.219872 5.500001 8.999997
v -8.780128 1.500004 21.999998
v -8.780128 1.500002 13.999998
v -4.780128 1.500004 21.999998
v -4.780128 1.500002 13.999998
v -8.780128 5.500002 13.999997
v -8.780128 5.500004 21.999998
v -4.780128 5.500002 13.999997
v -4.780128 5.500004 21.999998
v -4.780128 5.500002 13.999997
v -4.780128 5.500004 21.999998
v -4.780128 1.500002 13.999998
v -4.780128 1.500004 21.999998
v -8.780128 1.500004 21.999998
v -8.780128 5.500002 13.999997
v -8.780128 1.500002 13.999998
v -8.780128 5.500004 21.999998
v -8.780128 1.500001 8.999998
v -4.780128 5.500001 8.999997
v -8.780128 5.500001 8.999997
v -4.780128 1.500001 8.999998
v -8.780128 1.500001 8.999998
v -8.780128 5.500001 8.999997
v -4.780128 5.500001 8.999997
v -8.780128 5.500001 8.999997
v -8.780128 1.500001 8.999998
v -4.780128 1.500004 26.000000
v -8.780128 1.500004 26.000000
v -8.780128 1.500004 22.000000
v -4.780128 1.500004 22.000000
v -4.780128 5.500004 26.000000
v -8.780128 1.500004 26.000000
v -4.780128 1.500004 26.000000
v -8.780128 5.500004 26.000000
v -4.780128 5.500004 22.000000
v -8.780128 5.500004 22.000000
v -8.780128 5.500004 26.000000
v -4.780128 5.500004 26.000000
v -4.780128 1.500004 22.000000
v -8.780128 1.500004 22.000000
v -8.780128 5.500004 22.000000
v -4.780128 5.500004 22.000000
v -4.780128 1.500004 26.000000
v -4.780128 1.500004 22.000000
v -4.780128 5.500004 26.000000
v -4.780128 5.500004 22.000000
v -8.780128 1.500004 26.000000
v -8.780128 5.500004 22.000000
v -8.780128 1.500004 22.000000
v -8.780128 5.500004 26.000000
v 8.219872 -3.499996 25.000000
v -7.780128 -3.499996 25.000000
v -7.780128 -3.499996 23.000000
v 8.219872 -3.499996 23.000000
v 8.219872 8.500004 22.999998
v -7.780128 8.500004 22.999998
v -7.780128 8.500004 24.999998
v 8.219872 8.500004 24.999998
v 8.219872 2.500004 25.000000
v 8.219872 -3.499996 25.000000
v 8.219872 -3.499996 23.000000
v 8.219872 2.500004 23.000000
v -7.780128 -3.499996 25.000000
v -7.780128 2.500004 23.000000
v -7.780128 -3.499996 23.000000
v -7.780128 2.500004 25.000000
v -7.780128 8.500004 22.999998
v -7.780128 8.500004 24.999998
v 8.219872 8.500004 22.999998
v 8.219872 8.500004 24.999998
v 8.219872 -3.499996 23.000000
v -7.780128 -3.499996 23.000000
v -7.780128 2.500004 23.000000
v 8.219872 2.500004 23.000000
v -7.780128 8.500004 22.999998
v 8.219872 8.500004 22.999998
v 8.219872 2.500004 25.000000
v -7.780128 -3.499996 25.000000
v 8.219872 -3.499996 25.000000
v -7.780128 2.500004 25.000000
v 8.219872 8.500004 24.999998
v -7.780128 8.500004 24.999998
vn -0.0000 0.9962 0.0872
vn -0.9962 -0.0000 0.0872
vn -0.0000 -0.9962 0.0872
vn -0.0000 -1.0000 -0.0000
vn -0.0000 -0.0000 1.0000
vn -0.0000 1.0000 -0.0000
vn -0.0000 -0.0000 -1.0000
vn 1.0000 -0.0000 -0.0000
vn -1.0000 -0.0000 -0.0000
vt 0.562500 0.625000
vt 0.562500 0.500000
vt 0.687012 0.500000
vt 0.687012 0.625000
vt 0.000031 0.375000
vt 0.187378 0.375000
vt 0.187378 0.437012
vt 0.000031 0.437012
vt 0.687012 0.750000
vt 0.562500 0.750000
vt 0.562500 0.250488
vt 0.687500 0.500000
vt 0.687500 0.250488
vt 0.500000 0.437500
vt 0.500000 0.328125
vt 0.562500 0.328125
vt 0.562500 0.437500
vt 0.499756 0.375000
vt 0.499756 0.437012
vt -0.000036 0.437012
vt -0.000036 0.375000
vt 0.562500 0.000488
vt 0.562500 0.156250
vt 0.687012 0.156250
vt 0.687012 0.000488
vt 0.312256 0.437012
vt 0.312256 0.375000
vt 0.000032 0.437012
vt 0.000033 0.375000
vt 0.562012 0.156250
vt 0.562012 0.000488
vt 0.562012 0.500000
vt 0.562012 0.250488
vt 0.687012 0.250000
vt 0.500000 0.218750
vt 0.562500 0.218750
vt 0.499756 0.000488
vt 0.499756 0.187500
vt -0.000032 0.187500
vt 0.000031 0.000000
vt 0.562500 0.109375
vt 0.500000 0.109375
vt 0.687012 0.000000
vt 0.562012 0.750000
vt 0.562012 0.625000
vt 0.562012 0.000000
vt 0.687012 0.500244
vt 0.562012 0.500244
vt 0.562500 0.250000
vt 0.687012 0.250488
vt 0.000037 0.437012
vt 0.000037 0.375000
vt -0.000033 0.375000
vt 0.000032 0.187500
vt 0.499756 0.000000
s 1
usemtl MI_RewardsTotem
f 103/1/6 100/2/6 101/3/6 102/4/6
f 126/5/8 127/6/8 124/7/8 125/8/8
f 24/1/5 23/4/5 21/9/5 22/10/5
f 107/4/7 104/9/7 105/10/7 106/1/7
f 44/11/4 43/2/4 41/12/4 42/13/4
f 4/14/1 2/15/1 3/16/1 1/17/1
f 119/18/4 116/19/4 117/20/4 118/21/4
f 60/22/4 44/23/4 42/24/4 59/25/4
f 131/26/9 129/27/9 130/18/9 128/19/9
f 135/19/8 124/26/8 127/27/8 134/18/8
f 123/28/6 120/29/6 121/18/6 122/19/6
f 15/25/4 70/24/4 68/30/4 83/31/4
f 82/32/9 80/33/9 81/34/9 79/3/9
f 8/15/2 6/35/2 7/36/2 5/16/2
f 141/37/7 139/38/7 138/39/7 140/40/7
f 16/41/4 15/36/4 13/35/4 14/42/4
f 12/16/3 11/17/3 9/14/3 10/15/3
f 80/30/9 90/31/9 91/43/9 81/24/9
f 20/2/4 17/1/4 18/4/4 19/3/4
f 32/1/7 29/44/7 30/9/7 31/4/7
f 40/4/9 38/3/9 39/32/9 37/45/9
f 109/2/8 111/3/8 110/4/8 108/1/8
f 99/10/5 97/1/5 98/4/5 96/9/5
f 48/12/6 47/13/6 45/11/6 46/2/6
f 95/3/4 92/4/4 93/1/4 94/32/4
f 50/2/8 52/12/8 51/13/8 49/11/8
f 65/25/8 66/46/8 49/30/8 51/24/8
f 89/47/7 86/4/7 87/45/7 88/48/7
f 73/30/6 84/31/6 85/25/6 71/24/6
f 47/24/6 57/25/6 58/22/6 45/23/6
f 56/12/9 54/13/9 55/49/9 53/2/9
f 76/3/8 78/32/8 77/33/8 75/50/8
f 74/32/6 73/33/6 71/50/6 72/3/6
f 64/45/7 62/48/7 63/47/7 61/4/7
f 34/3/8 36/32/8 35/45/8 33/4/8
f 115/1/9 113/2/9 114/12/9 112/4/9
f 133/51/9 132/52/9 129/6/9 131/7/9
f 70/50/4 69/3/4 67/32/4 68/33/4
f 139/38/7 136/18/7 137/53/7 138/39/7
f 28/4/6 25/3/6 26/32/6 27/1/6
f 145/54/5 143/40/5 144/55/5 142/38/5
f 147/29/5 145/54/5 142/38/5 146/18/5
