# Blender 5.0.1
# www.blender.org
mtllib BP_LavaLamp_BlackStone02.mtl
o PillarDecor_BlackstoneBasalt_TowerCrenellation.001
v -50.000000 100.000000 50.000000
v -50.000000 0.000000 50.000000
v -50.000000 0.000000 0.000000
v -50.000000 100.000000 -0.000000
v -100.000000 100.000000 50.000000
v -100.000000 0.000000 50.000000
v -50.000000 0.000000 50.000000
v -50.000000 100.000000 50.000000
v -100.000000 100.000000 -0.000000
v -100.000000 0.000000 0.000000
v -100.000000 0.000000 50.000000
v -100.000000 100.000000 50.000000
v -50.000000 100.000000 -0.000000
v -50.000000 0.000000 0.000000
v -100.000000 0.000000 0.000000
v -100.000000 100.000000 -0.000000
v -100.000000 100.000000 -0.000000
v -100.000000 100.000000 50.000000
v -50.000000 100.000000 -0.000000
v -50.000000 100.000000 50.000000
v -50.000000 0.000000 50.000000
v -100.000000 0.000000 50.000000
v -100.000000 0.000000 0.000000
v -50.000000 0.000000 0.000000
v 50.000000 -100.000000 50.000000
v -50.000000 -100.000000 50.000000
v -50.000000 -100.000000 0.000000
v 50.000000 -100.000000 0.000000
v -50.000000 -100.000000 50.000000
v 50.000000 -100.000000 50.000000
v 50.000000 -50.000000 50.000000
v -50.000000 -50.000000 50.000000
v 50.000000 -50.000000 0.000000
v -50.000000 -50.000000 0.000000
v -50.000000 -50.000000 50.000000
v 50.000000 -50.000000 50.000000
v 50.000000 -100.000000 0.000000
v -50.000000 -100.000000 0.000000
v -50.000000 -50.000000 0.000000
v 50.000000 -50.000000 0.000000
v 50.000000 -100.000000 50.000000
v 50.000000 -100.000000 0.000000
v 50.000000 -50.000000 50.000000
v 50.000000 -50.000000 0.000000
v -50.000000 -100.000000 50.000000
v -50.000000 -50.000000 0.000000
v -50.000000 -100.000000 0.000000
v -50.000000 -50.000000 50.000000
v 50.000000 50.000000 50.000000
v -50.000000 50.000000 50.000000
v -50.000000 50.000000 -0.000000
v 50.000000 50.000000 -0.000000
v -50.000000 50.000000 50.000000
v 50.000000 50.000000 50.000000
v 50.000000 100.000000 50.000000
v 50.000000 100.000000 -0.000000
v 50.000000 100.000000 50.000000
v 50.000000 50.000000 -0.000000
v -50.000000 50.000000 -0.000000
v 50.000000 100.000000 -0.000000
v 50.000000 50.000000 50.000000
v 50.000000 50.000000 -0.000000
v 50.000000 100.000000 50.000000
v 50.000000 100.000000 -0.000000
v -50.000000 50.000000 50.000000
v -50.000000 100.000000 -0.000000
v -50.000000 50.000000 -0.000000
v -50.000000 100.000000 50.000000
v 100.000000 0.000000 50.000000
v 100.000000 -100.000000 50.000000
v 100.000000 -100.000000 0.000000
v 100.000000 0.000000 0.000000
v 50.000000 0.000000 50.000000
v 100.000000 -100.000000 50.000000
v 100.000000 0.000000 50.000000
v 50.000000 0.000000 0.000000
v 50.000000 -100.000000 0.000000
v 50.000000 -100.000000 50.000000
v 50.000000 0.000000 50.000000
v 100.000000 0.000000 0.000000
v 100.000000 -100.000000 0.000000
v 50.000000 0.000000 0.000000
v 50.000000 0.000000 0.000000
v 50.000000 0.000000 50.000000
v 100.000000 0.000000 0.000000
v 100.000000 0.000000 50.000000
v 100.000000 -100.000000 50.000000
v 100.000000 -100.000000 0.000000
v 100.000000 -100.000000 150.000000
v 100.000000 -50.000000 50.000000
v 100.000000 -50.000000 150.000000
v 50.000000 -100.000000 150.000000
v 100.000000 -100.000000 150.000000
v 50.000000 -100.000000 150.000000
v 50.000000 -50.000000 150.000000
v 50.000000 -50.000000 50.000000
v 100.000000 -50.000000 150.000000
v 100.000000 -50.000000 50.000000
v 50.000000 -50.000000 150.000000
v 50.000000 -100.000000 150.000000
v 100.000000 -100.000000 150.000000
v 100.000000 -50.000000 150.000000
v 50.000000 -50.000000 150.000000
v 100.000000 -100.000000 50.000000
v 50.000000 -100.000000 50.000000
v 50.000000 -50.000000 50.000000
v 100.000000 -50.000000 50.000000
v 100.000000 50.000000 150.000000
v 100.000000 50.000000 50.000000
v 100.000000 100.000000 50.000000
v 100.000000 100.000000 150.000000
v 50.000000 50.000000 150.000000
v 100.000000 50.000000 50.000000
v 100.000000 50.000000 150.000000
v 50.000000 50.000000 50.000000
v 50.000000 50.000000 150.000000
v 50.000000 100.000000 150.000000
v 50.000000 100.000000 50.000000
v 100.000000 100.000000 150.000000
v 100.000000 100.000000 50.000000
v 50.000000 100.000000 150.000000
v 50.000000 50.000000 150.000000
v 100.000000 50.000000 150.000000
v 100.000000 100.000000 150.000000
v 50.000000 100.000000 150.000000
v 100.000000 50.000000 50.000000
v 50.000000 50.000000 50.000000
v 50.000000 100.000000 50.000000
v 100.000000 100.000000 50.000000
v -100.000000 50.000000 150.000000
v -50.000000 50.000000 150.000000
v -100.000000 50.000000 50.000000
v -100.000000 50.000000 50.000000
v -100.000000 50.000000 150.000000
v -100.000000 100.000000 150.000000
v -50.000000 100.000000 150.000000
v -100.000000 100.000000 150.000000
v -50.000000 50.000000 150.000000
v -50.000000 50.000000 50.000000
v -50.000000 100.000000 150.000000
v -100.000000 50.000000 150.000000
v -50.000000 50.000000 150.000000
v -100.000000 100.000000 150.000000
v -50.000000 100.000000 150.000000
v -100.000000 50.000000 50.000000
v -50.000000 100.000000 50.000000
v -50.000000 50.000000 50.000000
v -100.000000 100.000000 50.000000
v -50.000000 -100.000000 50.000000
v -50.000000 -100.000000 0.000000
v -100.000000 -100.000000 50.000000
v -100.000000 -100.000000 0.000000
v -100.000000 -100.000000 50.000000
v -100.000000 -100.000000 0.000000
v -100.000000 0.000000 0.000000
v -100.000000 0.000000 50.000000
v -50.000000 0.000000 0.000000
v -50.000000 0.000000 50.000000
v -100.000000 -100.000000 50.000000
v -100.000000 -100.000000 0.000000
v 100.000000 100.000000 -0.000000
v 100.000000 100.000000 50.000000
v 50.000000 100.000000 -0.000000
v 100.000000 100.000000 -0.000000
v 100.000000 100.000000 -0.000000
v 100.000000 0.000000 50.000000
v 50.000000 0.000000 50.000000
v 50.000000 0.000000 0.000000
v 100.000000 0.000000 0.000000
v -62.500000 -50.000000 112.500000
v -87.500000 50.000000 112.500000
v -87.500000 -50.000000 112.500000
v -62.500000 50.000000 112.500000
v -62.500000 -50.000000 87.500000
v -62.500000 50.000000 112.500000
v -62.500000 -50.000000 112.500000
v -62.500000 50.000000 87.500000
v -87.500000 -50.000000 87.500000
v -62.500000 50.000000 87.500000
v -62.500000 -50.000000 87.500000
v -87.500000 50.000000 87.500000
v -87.500000 -50.000000 112.500000
v -87.500000 50.000000 87.500000
v -87.500000 -50.000000 87.500000
v -87.500000 50.000000 112.500000
v -62.500000 -50.000000 112.500000
v -87.500000 -50.000000 112.500000
v -62.500000 -50.000000 87.500000
v -87.500000 -50.000000 87.500000
v -62.500000 50.000000 87.500000
v -87.500000 50.000000 87.500000
v -62.500000 50.000000 112.500000
v -87.500000 50.000000 112.500000
v 62.500000 -50.000000 87.500000
v 87.500000 50.000000 87.500000
v 87.500000 -50.000000 87.500000
v 62.500000 50.000000 87.500000
v 62.500000 -50.000000 112.500000
v 62.500000 50.000000 87.500000
v 62.500000 -50.000000 87.500000
v 62.500000 50.000000 112.500000
v 87.500000 -50.000000 112.500000
v 62.500000 50.000000 112.500000
v 62.500000 -50.000000 112.500000
v 87.500000 50.000000 112.500000
v 87.500000 -50.000000 87.500000
v 87.500000 50.000000 112.500000
v 87.500000 -50.000000 112.500000
v 87.500000 50.000000 87.500000
v 62.500000 -50.000000 112.500000
v 87.500000 -50.000000 87.500000
v 87.500000 -50.000000 112.500000
v 62.500000 -50.000000 87.500000
v 62.500000 50.000000 87.500000
v 87.500000 50.000000 112.500000
v 87.500000 50.000000 87.500000
v 62.500000 50.000000 112.500000
v 50.000000 -87.500000 112.500000
v -50.000000 -87.500000 112.500000
v -50.000000 -87.500000 87.500000
v 50.000000 -87.500000 87.500000
v -50.000000 -87.500000 112.500000
v 50.000000 -87.500000 112.500000
v 50.000000 -62.500000 112.500000
v -50.000000 -62.500000 112.500000
v 50.000000 -62.500000 87.500000
v -50.000000 -62.500000 87.500000
v -50.000000 -62.500000 112.500000
v 50.000000 -62.500000 112.500000
v 50.000000 -87.500000 87.500000
v -50.000000 -87.500000 87.500000
v -50.000000 -62.500000 87.500000
v 50.000000 -62.500000 87.500000
v 50.000000 -87.500000 112.500000
v 50.000000 -87.500000 87.500000
v 50.000000 -62.500000 112.500000
v 50.000000 -62.500000 87.500000
v -50.000000 -87.500000 112.500000
v -50.000000 -62.500000 87.500000
v -50.000000 -87.500000 87.500000
v -50.000000 -62.500000 112.500000
v 50.000000 87.500000 87.500000
v -50.000000 87.500015 87.500000
v -50.000000 87.500015 112.500000
v 50.000000 87.500000 112.500000
v 50.000000 62.500023 112.500000
v -50.000000 87.500015 112.500000
v -50.000000 62.500000 112.500000
v 50.000000 87.500000 112.500000
v 50.000000 62.500023 112.500000
v -50.000000 62.500000 112.500000
v -50.000000 62.500000 87.500000
v 50.000000 62.500023 87.500000
v 50.000000 62.500023 87.500000
v -50.000000 62.500000 87.500000
v -50.000000 87.500015 87.500000
v 50.000000 87.500000 87.500000
v -50.000000 62.500000 112.500000
v -50.000000 87.500015 87.500000
v -50.000000 62.500000 87.500000
v -50.000000 87.500015 112.500000
v 50.000000 62.500023 112.500000
v 50.000000 62.500023 87.500000
v 50.000000 87.500000 112.500000
v 50.000000 87.500000 87.500000
v -50.000000 -100.000000 150.000000
v -50.000000 -50.000000 50.000000
v -50.000000 -50.000000 150.000000
v -100.000000 -100.000000 150.000000
v -50.000000 -100.000000 150.000000
v -100.000000 -100.000000 150.000000
v -100.000000 -50.000000 150.000000
v -100.000000 -50.000000 50.000000
v -50.000000 -50.000000 150.000000
v -100.000000 -50.000000 50.000000
v -100.000000 -50.000000 150.000000
v -100.000000 -100.000000 150.000000
v -50.000000 -100.000000 150.000000
v -50.000000 -50.000000 150.000000
v -100.000000 -50.000000 150.000000
v -50.000000 -100.000000 50.000000
v -100.000000 -100.000000 50.000000
v -100.000000 -50.000000 50.000000
v -50.000000 -50.000000 50.000000
vn 1.0000 -0.0000 -0.0000
vn -0.0000 -0.0000 1.0000
vn -1.0000 -0.0000 -0.0000
vn -0.0000 -0.0000 -1.0000
vn -0.0000 1.0000 -0.0000
vn -0.0000 -1.0000 -0.0000
vt 0.468750 0.718750
vt 0.499756 0.718750
vt 0.500000 0.750000
vt 0.468750 0.750000
vt 0.124939 0.812500
vt 0.124939 0.750000
vt 0.187378 0.750000
vt 0.187378 0.812500
vt 0.375000 0.687500
vt 0.499756 0.687500
vt 0.375000 0.750000
vt 0.125000 0.812500
vt 0.125000 0.750000
vt 0.249878 0.750000
vt 0.249878 0.812500
vt 0.375000 0.625000
vt 0.500000 0.625000
vt 0.375000 0.718750
vt 0.437500 0.687744
vt 0.437500 0.750000
vt 0.093689 0.781250
vt 0.093750 0.843750
vt 0.031250 0.843750
vt 0.031250 0.781372
vt 0.375000 0.625244
vt 0.499756 0.625244
vt 0.375000 0.687744
vt 0.499756 0.687744
vt 0.499756 0.750000
vt 0.499756 0.656250
vt 0.375000 0.656250
vt 0.406006 0.718750
vt 0.406250 0.750000
s 1
usemtl MI_BasaltDeltasProps
f 187/1/6 189/2/6 188/3/6 186/4/6
f 148/5/4 146/6/4 147/7/4 145/8/4
f 235/1/1 237/2/1 236/3/1 234/4/1
f 213/4/6 211/1/6 212/2/6 210/3/6
f 75/9/2 162/10/2 55/3/2 73/11/2
f 107/7/4 104/8/4 105/5/4 106/6/4
f 132/12/6 50/13/6 131/14/6 130/15/6
f 12/5/3 133/6/3 134/14/3 135/15/3
f 153/16/3 11/17/3 10/10/3 152/9/3
f 225/11/2 222/18/2 223/2/2 224/3/2
f 8/11/2 53/9/2 54/10/2 55/3/2
f 169/19/6 166/20/6 167/11/6 168/9/6
f 25/5/6 87/6/6 93/14/6 92/15/6
f 7/9/2 8/10/2 5/3/2 6/11/2
f 280/21/2 277/22/2 278/23/2 279/24/2
f 261/4/3 259/1/3 260/2/3 258/3/3
f 154/25/4 15/26/4 14/10/4 38/9/4
f 78/16/3 79/17/3 76/10/3 77/9/3
f 74/9/2 75/10/2 73/3/2 30/11/2
f 32/11/2 29/9/2 30/10/2 31/3/2
f 11/16/3 12/17/3 9/10/3 10/9/3
f 111/14/1 108/15/1 109/12/1 110/13/1
f 88/19/6 87/20/6 25/11/6 28/9/6
f 24/19/6 21/20/6 22/11/6 23/9/6
f 150/27/1 3/28/1 2/29/1 149/11/1
f 20/20/5 19/19/5 17/10/5 18/3/5
f 36/6/5 99/14/5 97/15/5 98/12/5
f 48/11/3 46/9/3 47/19/3 45/20/3
f 79/16/3 118/17/3 163/10/3 76/9/3
f 42/19/1 44/10/1 43/3/1 41/20/1
f 28/28/6 25/29/6 26/11/6 27/27/6
f 3/27/1 4/28/1 1/29/1 2/11/1
f 15/25/4 16/26/4 13/10/4 14/9/4
f 57/17/5 56/10/5 19/9/5 20/16/5
f 229/17/5 226/30/5 227/31/5 228/16/5
f 217/11/5 215/18/5 216/32/5 214/33/5
f 40/26/4 37/10/4 38/9/4 39/25/4
f 18/6/5 137/14/5 136/15/5 20/5/5
f 263/18/1 265/32/1 264/33/1 262/11/1
f 241/11/3 239/18/3 240/32/3 238/33/3
f 159/5/6 26/6/6 270/14/6 269/15/6
f 71/27/1 72/28/1 69/29/1 70/11/1
f 142/24/2 144/21/2 143/22/2 141/23/2
f 273/5/3 153/6/3 271/14/3 272/15/3
f 68/11/3 66/9/3 67/19/3 65/20/3
f 191/18/5 193/32/5 192/33/5 190/11/5
f 91/14/1 89/15/1 70/12/1 90/13/1
f 29/9/2 7/10/2 6/3/2 151/11/2
f 158/20/5 157/19/5 155/10/5 156/3/5
f 86/20/5 85/19/5 83/10/5 84/3/5
f 72/27/1 161/28/1 110/29/1 69/11/1
f 27/19/6 26/20/6 159/11/6 160/9/6
f 275/6/5 276/14/5 274/15/5 35/12/5
f 52/28/6 49/29/6 50/11/6 51/27/6
f 103/21/2 100/22/2 101/23/2 102/24/2
f 82/25/4 60/26/4 164/10/4 80/9/4
f 173/11/2 171/18/2 172/2/2 170/29/2
f 96/5/3 78/6/3 94/14/3 95/15/3
f 181/31/4 179/16/4 180/17/4 178/30/4
f 177/11/1 175/18/1 176/2/1 174/3/1
f 120/20/5 165/19/5 56/10/5 57/3/5
f 257/31/4 254/25/4 255/26/4 256/30/4
f 185/31/3 183/25/3 184/26/3 182/30/3
f 49/5/6 113/6/6 114/14/6 112/15/6
f 37/25/4 82/26/4 80/10/4 81/9/4
f 209/31/1 207/25/1 208/26/1 206/30/1
f 253/31/6 250/16/6 251/17/6 252/30/6
f 205/31/2 203/16/2 204/17/2 202/30/2
f 129/7/4 126/8/4 127/5/4 128/6/4
f 62/19/1 64/10/1 63/3/1 61/20/1
f 57/6/5 121/14/5 119/15/5 120/12/5
f 125/21/2 122/22/2 123/23/2 124/24/2
f 233/26/4 230/30/4 231/31/4 232/25/4
f 197/11/4 195/18/4 196/2/4 194/29/4
f 249/18/2 247/2/2 248/3/2 246/11/2
f 118/5/3 115/6/3 116/14/3 117/15/3
f 140/14/1 138/15/1 139/12/1 1/6/1
f 245/11/5 242/18/5 243/2/5 244/29/5
f 268/14/1 266/15/1 149/12/1 267/13/1
f 221/2/6 218/29/6 219/11/6 220/18/6
f 201/11/3 199/18/3 200/2/3 198/3/3
f 60/26/4 58/10/4 59/9/4 13/25/4
f 36/17/5 33/10/5 34/9/5 35/16/5
f 284/7/4 281/8/4 282/5/4 283/6/4
