# Blender 5.0.1
# www.blender.org
mtllib BP_Marketbooth_Broken_Red.mtl
o SM_Marketbooth_Broken.001
v 37.499996 142.775131 -0.000538
v 37.500004 380.854187 -0.001390
v 56.250004 142.775131 -0.000538
v 56.249996 380.854126 -0.001390
v 37.500004 380.854187 18.748615
v 37.499996 142.775208 18.749472
v 56.249996 380.854187 18.748615
v 56.250004 142.775192 18.749472
v 56.249996 380.854187 18.748615
v 56.250004 142.775192 18.749472
v 56.249996 380.854126 -0.001390
v 56.250004 142.775131 -0.000538
v 37.499996 142.775131 -0.000538
v 37.500004 380.854187 18.748615
v 37.500004 380.854187 -0.001390
v 37.499996 142.775208 18.749472
v 37.500008 -103.146019 227.183975
v 56.249996 100.146492 23.890068
v 56.250000 -103.146019 227.183975
v 37.499996 100.146492 23.890068
v 56.250000 -89.887718 240.442169
v 37.500008 -86.287056 244.042801
v 37.500008 -103.146019 227.183975
v 56.250000 -103.146019 227.183975
v 56.250000 -89.887718 240.442169
v 56.249996 113.404778 37.148273
v 37.500008 -86.287056 244.042801
v 37.499996 117.005455 40.748909
v 56.250000 -103.146019 227.183975
v 56.249996 100.146492 23.890068
v 56.250000 -89.887718 240.442169
v 56.249996 113.404778 37.148273
v 37.500008 -86.287056 244.042801
v 37.499996 117.005455 40.748909
v 37.500008 -103.146019 227.183975
v 37.499996 100.146492 23.890068
v 56.249996 100.146492 23.890068
v 37.499996 100.146492 23.890068
v 56.249996 113.404778 37.148273
v 37.499996 117.005455 40.748909
v -56.250000 -80.885750 245.110901
v -56.250004 -189.189957 12.853921
v -37.500000 -80.904648 245.070374
v -37.500004 -189.189957 12.853921
v -56.250000 -172.196732 4.929772
v -37.499992 -63.911411 237.146179
v -37.500000 -172.196732 4.929772
v -56.249992 -63.892517 237.186707
v -37.500000 -172.196732 4.929772
v -37.499992 -63.911411 237.146179
v -37.500004 -189.189957 12.853921
v -37.500000 -80.904648 245.070374
v -56.250000 -80.885750 245.110901
v -56.250000 -172.196732 4.929772
v -56.250004 -189.189957 12.853921
v -56.249992 -63.892517 237.186707
v 37.500000 -91.214058 222.961945
v 37.499992 -191.831360 7.189440
v 56.250000 -91.214066 222.961945
v 56.249992 -191.831360 7.189440
v 37.499992 -174.838135 -0.734708
v 37.500004 -74.220818 215.037811
v 56.249992 -174.838135 -0.734708
v 56.250004 -74.220825 215.037811
v 56.249992 -174.838135 -0.734708
v 56.250004 -74.220825 215.037811
v 56.249992 -191.831360 7.189440
v 56.250000 -91.214066 222.961945
v 37.500000 -91.214058 222.961945
v 37.499992 -174.838135 -0.734708
v 37.499992 -191.831360 7.189440
v 37.500004 -74.220818 215.037811
v -56.250000 -85.890106 244.439774
v -56.250004 117.402390 41.145847
v -37.500000 -85.858475 244.471390
v -37.500004 117.434006 41.177479
v -37.500000 -71.957695 258.372101
v -56.250000 -68.237358 262.092407
v -56.250000 -85.890106 244.439774
v -37.500000 -85.858475 244.471390
v -37.500000 -71.957695 258.372101
v -37.500015 131.334793 55.078159
v -56.250000 -68.237358 262.092407
v -56.250008 135.055130 58.798481
v -37.500000 -85.858475 244.471390
v -37.500004 117.434006 41.177479
v -37.500000 -71.957695 258.372101
v -37.500015 131.334793 55.078159
v -56.250000 -68.237358 262.092407
v -56.250008 135.055130 58.798481
v -56.250000 -85.890106 244.439774
v -56.250004 117.402390 41.145847
v -37.500004 117.434006 41.177479
v -56.250004 117.402390 41.145847
v -37.500015 131.334793 55.078159
v -56.250008 135.055130 58.798481
v 62.500004 -147.309448 117.454758
v -62.499996 -147.309448 117.454758
v -62.499996 -152.592239 106.125931
v 62.500004 -152.592209 106.125931
v 62.500004 -147.309448 117.454758
v 62.500000 79.267120 11.799383
v -62.499996 -147.309448 117.454758
v -62.500000 79.267120 11.799383
v 62.500000 73.984344 0.470559
v -62.500000 73.984329 0.470559
v -62.500000 79.267120 11.799383
v 62.500000 79.267120 11.799383
v 62.500000 79.267120 11.799383
v 62.500004 -147.309448 117.454758
v 62.500004 -152.592209 106.125931
v 62.500000 73.984344 0.470559
v -62.499996 -147.309448 117.454758
v -62.500000 73.984329 0.470559
v -62.499996 -152.592239 106.125931
v -62.500000 79.267120 11.799383
v 81.250000 -85.623901 227.028397
v 81.249985 99.990982 41.412193
v -81.250000 -54.541111 258.110931
v -81.250000 131.073792 72.494751
v 81.250008 -116.559921 196.092575
v 81.249992 69.054962 10.476360
v 81.250000 -85.623901 227.028397
v 81.249985 99.990982 41.412193
v -81.250015 100.137741 41.558949
v -81.250000 -85.477142 227.175125
v -81.250000 -54.541111 258.110931
v -81.250000 131.073792 72.494751
v -37.500011 114.424278 70.585213
v -56.250011 114.452995 70.619453
v -56.250015 51.449047 -4.465177
v -37.500015 51.449059 -4.465181
v -56.250015 128.816269 58.567112
v -37.500015 128.787567 58.532887
v -37.500015 75.925453 -4.465277
v -56.250015 75.925438 -4.465281
v -56.250011 114.452995 70.619453
v -56.250015 128.816269 58.567112
v -56.250015 75.925438 -4.465281
v -56.250015 51.449047 -4.465177
v 56.249996 380.854187 18.748615
v 56.249996 380.854126 -0.001390
v 37.500004 380.854187 -0.001390
v 37.500004 380.854187 18.748615
v 37.499996 142.775208 18.749472
v 37.499996 142.775131 -0.000538
v 56.250004 142.775131 -0.000538
v 56.250004 142.775192 18.749472
v -37.500015 75.925453 -4.465277
v -37.500015 128.787567 58.532887
v -37.500011 114.424278 70.585213
v -37.500015 51.449059 -4.465181
vn -0.0000 -0.0000 -1.0000
vn -0.0000 -0.0000 1.0000
vn 1.0000 -0.0000 -0.0000
vn -1.0000 -0.0000 -0.0000
vn -0.0000 -0.7071 -0.7071
vn -0.0000 -0.7071 0.7071
vn 0.2621 0.6824 0.6824
vn -0.0000 0.7071 -0.7071
vn -0.0000 -0.9063 0.4226
vn -0.0000 0.9063 -0.4226
vn 0.0024 -0.7071 -0.7071
vn 0.2702 0.6808 0.6808
vn -0.0000 0.4226 0.9063
vn 0.2611 0.6826 0.6826
vn -0.0000 -0.7660 0.6428
vn -0.0000 0.7660 -0.6428
vn -0.0000 1.0000 -0.0000
vn -0.0000 -1.0000 -0.0000
vt 0.524902 0.275391
vt 0.524902 0.300293
vt 0.024994 0.300293
vt 0.024994 0.275391
vt 0.849609 0.950012
vt 0.849609 0.375000
vt 0.887207 0.375000
vt 0.887207 0.950012
vt 0.687500 0.999969
vt 0.687012 0.525146
vt 0.724609 0.525146
vt 0.724609 0.999969
vt 0.612305 0.525146
vt 0.612305 0.999969
vt 0.574707 0.999969
vt 0.574707 0.525146
vt 0.649902 0.999969
vt 0.649902 0.525146
vt 0.774902 0.325195
vt 0.812500 0.375000
vt 0.774902 0.375000
vt 0.812500 0.325195
vt 0.774902 0.950012
vt 0.812500 0.950012
vt 0.524902 0.025391
vt 0.549805 0.025391
vt 0.549805 0.275391
vt 0.922852 0.924011
vt 0.922852 0.978714
vt 0.978027 0.978714
vt 0.978027 0.924011
vt 0.812500 0.999969
vt 0.774902 0.999969
vt 0.612305 0.487793
vt 0.649902 0.487793
vt 0.687500 0.487793
vt 0.724609 0.950012
vt 0.724609 0.375000
vt 0.024994 0.000000
vt 0.524902 0.000000
vt 0.024994 0.025391
vt 0.000031 0.025391
vt 0.000031 0.275391
vt 0.087463 0.475098
vt 0.087463 0.999969
vt 0.000031 0.999969
vt 0.000031 0.475098
vt 0.574707 0.487793
vt 0.424805 0.475098
vt 0.424805 0.999969
vt 0.973633 0.832153
vt 0.973633 0.886780
vt 0.918945 0.886780
vt 0.918945 0.832153
vt 0.512207 0.475098
vt 0.512207 0.999969
vt 0.724609 0.487793
vt 0.687500 0.804199
vt 0.724609 0.804199
vt 0.649902 0.835571
vt 0.612305 0.835693
vt 0.574707 0.804199
s 1
usemtl MI_Marketbooth_Basic_Red
f 116/1/4 114/2/4 115/3/4 113/4/4
f 76/5/11 75/6/11 73/7/11 74/8/11
f 72/9/4 70/10/4 71/11/4 69/12/4
f 4/13/1 3/14/1 1/15/1 2/16/1
f 10/17/3 12/14/3 11/13/3 9/18/3
f 23/19/6 21/20/6 22/21/6
f 24/22/6 21/20/6 23/19/6
f 84/23/12 83/21/12 81/20/12 82/24/12
f 108/25/10 105/26/10 106/27/10 107/1/10
f 147/28/18 148/29/18 145/30/18 146/31/18
f 39/24/8 37/32/8 38/33/8
f 39/24/8 38/33/8 40/23/8
f 48/17/10 46/14/10 47/34/10 45/35/10
f 56/17/4 54/35/4 55/36/4 53/9/4
f 16/9/4 14/10/4 15/11/4 13/12/4
f 20/8/5 18/5/5 19/6/5 17/7/5
f 60/13/9 59/14/9 57/15/9 58/16/9
f 92/37/4 91/38/4 89/21/4 90/23/4
f 66/17/3 68/14/3 67/13/3 65/18/3
f 32/24/3 31/20/3 29/6/3 30/5/3
f 79/19/6 77/20/6 78/21/6
f 80/22/6 77/20/6 79/19/6
f 111/39/3 112/40/3 109/25/3 110/41/3
f 100/42/9 97/41/9 98/4/9 99/43/9
f 127/44/4 128/45/4 125/46/4 126/47/4
f 95/24/8 93/32/8 94/33/8
f 95/24/8 94/33/8 96/23/8
f 50/14/3 52/15/3 51/48/3 49/34/3
f 120/45/14 119/44/14 117/49/14 118/50/14
f 36/37/4 35/38/4 33/21/4 34/23/4
f 88/24/3 87/20/3 85/6/3 86/5/3
f 143/51/17 144/52/17 141/53/17 142/54/17
f 64/17/10 63/18/10 61/10/10 62/9/10
f 8/17/2 7/18/2 5/10/2 6/9/2
f 124/50/3 123/49/3 121/55/3 122/56/3
f 44/57/9 43/12/9 41/9/9 42/36/9
f 131/58/15 132/59/15 129/12/15 130/9/15
f 139/60/4 137/9/4 138/17/4
f 137/9/4 139/60/4 140/58/4
f 135/61/16 136/60/16 133/17/16 134/14/16
f 28/23/7 27/21/7 25/20/7 26/24/7
f 151/15/3 149/61/3 150/14/3
f 149/61/3 151/15/3 152/62/3
f 104/1/13 103/4/13 101/41/13 102/25/13
