# Blender 5.0.1
# www.blender.org
mtllib BP_Monstrosity_Head.mtl
o SK_RedstoneMonstrosityHead.001
v -83.943405 -58.034203 -50.254078
v -84.045059 58.829617 -112.520988
v -83.943130 -58.347244 -111.926170
v -84.045326 59.142673 -50.848923
v 82.573441 -58.110416 -93.806190
v -83.943207 -58.255257 -93.806190
v -84.045135 58.921597 -94.400986
v 82.471527 59.066437 -94.400986
v 82.573250 -57.889339 -50.254078
v -83.943405 -58.034203 -50.254078
v -83.943130 -58.347244 -111.926170
v 82.573517 -58.202404 -111.926170
v 82.573517 -58.202404 -111.926170
v -83.943130 -58.347244 -111.926170
v -84.045059 58.829617 -112.520988
v 82.471596 58.974457 -112.520988
v 82.471321 59.287521 -50.848923
v 82.573250 -57.889339 -50.254078
v 82.573517 -58.202404 -111.926170
v 82.471596 58.974457 -112.520988
v 22.773458 -59.706741 0.582631
v -14.726527 -59.739380 0.582631
v -14.726442 -59.834541 -18.167131
v 22.773542 -59.801926 -18.167131
v 85.273514 -59.747566 -18.167131
v 59.715199 -59.769787 -18.167131
v 59.715313 -59.896679 -43.166794
v 85.273621 -59.874458 -43.166794
v -58.476414 -59.872593 -18.167131
v -84.593048 -59.895313 -18.167131
v -84.592934 -60.022209 -43.166794
v -58.476299 -59.999485 -43.166794
v -84.680542 40.682095 6.322573
v -153.430496 40.622272 6.322573
v -84.680901 41.094513 87.571472
v -153.430862 41.034718 87.571472
v -153.365631 -33.964256 87.952209
v -84.615669 -33.904472 87.952209
v -153.430862 41.034718 87.571472
v -84.680901 41.094513 87.571472
v -209.615616 -34.013203 87.952209
v -209.680481 40.573349 6.322573
v -209.615234 -34.425636 6.703257
v -209.680847 40.985794 87.571472
v -209.616013 -33.537338 181.700958
v -153.366058 -33.488400 181.700958
v -209.681244 41.461662 181.320236
v -153.431290 41.510586 181.320236
v -209.680481 40.573349 6.322573
v -209.680847 40.985794 87.571472
v -153.366058 -33.488400 181.700958
v -153.365631 -33.964256 87.952209
v -153.431290 41.510586 181.320236
v -153.430862 41.034718 87.571472
v -209.681244 41.461662 181.320236
v -153.431290 41.510586 181.320236
v -209.616013 -33.537338 181.700958
v -209.681244 41.461662 181.320236
v -153.366058 -33.488400 181.700958
v -209.616013 -33.537338 181.700958
v -209.615616 -34.013203 87.952209
v -153.365631 -33.964256 87.952209
v 84.134277 -33.757668 87.952209
v 152.884598 -34.110302 6.703257
v 152.884262 -33.697872 87.952209
v 84.134621 -34.170097 6.703257
v 152.884262 -33.697872 87.952209
v 84.069023 41.241283 87.571472
v 84.134277 -33.757668 87.952209
v 152.819000 41.301090 87.571472
v 209.134216 -33.648933 87.952209
v 209.134552 -34.061367 6.703257
v 209.068985 41.350029 87.571472
v 209.069321 40.937595 6.322573
v 209.133835 -33.204784 175.451157
v 152.818619 41.745243 175.070435
v 152.883850 -33.253708 175.451157
v 209.068604 41.794178 175.070435
v 209.134216 -33.648933 87.952209
v 209.134552 -34.061367 6.703257
v 152.883850 -33.253708 175.451157
v 152.819000 41.301090 87.571472
v 152.884262 -33.697872 87.952209
v 152.818619 41.745243 175.070435
v 209.133835 -33.204784 175.451157
v 152.883850 -33.253708 175.451157
v 209.133835 -33.204784 175.451157
v 209.068604 41.794178 175.070435
v 152.819000 41.301090 87.571472
v 152.818619 41.745243 175.070435
v 209.068985 41.350029 87.571472
v 209.068604 41.794178 175.070435
v 84.155945 -58.693886 100.579056
v -84.593964 -58.840656 100.579056
v -84.593117 -59.824146 -93.168495
v 84.156807 -59.677353 -93.168495
v 84.155945 -58.693886 100.579056
v 84.052673 60.054501 99.976204
v -84.593964 -58.840656 100.579056
v -84.697266 59.907722 99.976204
v 84.053520 59.071014 -93.771271
v -84.696404 58.924232 -93.771271
v -84.697266 59.907722 99.976204
v 84.052673 60.054501 99.976204
v 84.155945 -58.693886 100.579056
v 84.156807 -59.677353 -93.168495
v 84.052673 60.054501 99.976204
v 84.053520 59.071014 -93.771271
v -84.593964 -58.840656 100.579056
v -84.696404 58.924232 -93.771271
v -84.593117 -59.824146 -93.168495
v -84.697266 59.907722 99.976204
v 84.069405 40.828865 6.322573
v 84.069023 41.241283 87.571472
v 152.819366 40.888672 6.322573
v 209.069321 40.937595 6.322573
v 84.134621 -34.170097 6.703257
v 84.069405 40.828865 6.322573
v 152.819366 40.888672 6.322573
v 152.884598 -34.110302 6.703257
v 209.069321 40.937595 6.322573
v 209.134552 -34.061367 6.703257
v -84.615303 -34.316895 6.703257
v -84.615669 -33.904472 87.952209
v -153.365265 -34.376690 6.703257
v -209.615234 -34.425636 6.703257
v -153.365265 -34.376690 6.703257
v -84.680542 40.682095 6.322573
v -84.615303 -34.316895 6.703257
v -153.430496 40.622272 6.322573
v -209.615234 -34.425636 6.703257
v -209.680481 40.573349 6.322573
vn -1.0000 -0.0009 -0.0000
vn -0.0000 -0.0051 -1.0000
vn 0.0009 -1.0000 0.0051
vn 1.0000 0.0009 -0.0000
vn -0.0009 1.0000 -0.0051
vn -0.0000 0.0051 1.0000
vt 0.640625 0.974609
vt 0.640625 0.999969
vt 0.605469 0.999969
vt 0.605469 0.974609
vt 0.367188 0.978516
vt 0.367188 0.937500
vt 0.476562 0.937500
vt 0.476562 0.978516
vt 0.808594 0.949219
vt 0.808594 0.923828
vt 0.851562 0.923828
vt 0.851562 0.949219
vt 0.695312 0.957031
vt 0.757812 0.957031
vt 0.757812 0.974609
vt 0.695312 0.974609
vt 0.695312 0.949219
vt 0.640625 0.949219
vt 0.464844 0.857422
vt 0.464844 0.816406
vt 0.574219 0.816406
vt 0.574219 0.857422
vt 0.476562 0.857422
vt 0.562500 0.857422
vt 0.562500 0.876953
vt 0.476562 0.876953
vt -0.000031 0.218750
vt 0.058594 0.218750
vt 0.058594 0.234375
vt 0.000031 0.234375
vt 0.058594 0.302734
vt 0.058594 0.277344
vt 0.093750 0.277344
vt 0.093750 0.302734
vt 0.000031 0.302734
vt 0.000031 0.277344
vt 0.285156 0.876953
vt 0.285156 0.857422
vt 0.367188 0.857422
vt 0.367188 0.876953
vt 0.640625 0.923828
vt 0.605469 0.949219
vt 0.605469 0.923828
vt 0.562500 0.937500
vt 0.492188 0.937500
vt 0.492188 0.945312
vt 0.476562 0.945312
vt 0.757812 0.999969
vt 0.695312 0.999969
vt 0.886719 0.923828
vt 0.886719 0.949219
vt 0.886719 0.999969
vt 0.851562 0.999969
vt 0.851562 0.974609
vt 0.886719 0.974609
vt 0.851562 0.898438
vt 0.808594 0.898438
vt 0.562500 0.949219
vt 0.562500 0.923828
vt 0.515625 0.937500
vt 0.515625 0.943359
vt 0.492188 0.943359
vt 0.808594 0.974609
vt 0.285156 0.937500
vt 0.808594 0.999969
vt 0.757812 0.931641
vt 0.695312 0.931641
vt 0.695312 0.916016
vt 0.757812 0.916016
vt 0.562500 0.999969
vt 0.562500 0.974609
vt 0.058594 0.259766
vt 0.000031 0.259766
vt 0.941406 0.949219
vt 0.941406 0.974609
vt 0.355469 0.857422
vt 0.355469 0.816406
vt 0.562500 0.898438
vt 0.605469 0.898438
vt 0.773438 0.999969
vt 0.773438 0.974609
vt 0.257812 0.998047
vt 0.257812 0.937500
vt 0.367188 0.998047
s 1
usemtl MI_RedstoneMonstrosityHead
f 91/1/5 116/2/5 115/3/5 89/4/5
f 100/5/6 99/6/6 97/7/6 98/8/6
f 38/9/6 40/10/6 39/11/6 37/12/6
f 79/13/3 85/14/3 86/15/3 65/16/3
f 72/17/4 74/16/4 73/1/4 71/18/4
f 8/19/2 5/20/2 6/21/2 7/22/2
f 19/23/4 20/24/4 17/25/4 18/26/4
f 62/27/3 59/28/3 60/29/3 61/30/3
f 46/31/6 48/32/6 47/33/6 45/34/6
f 52/35/4 54/36/4 53/32/4 51/31/4
f 4/37/1 2/38/1 3/39/1 1/40/1
f 80/41/3 79/18/3 65/42/3 64/43/3
f 106/26/4 108/25/4 107/44/4 105/7/4
f 32/45/3 29/46/3 30/47/3 31/7/3
f 84/48/1 82/49/1 83/16/1 81/15/1
f 12/23/3 9/26/3 10/40/3 11/39/3
f 36/12/5 34/11/5 49/50/5 50/51/5
f 126/52/3 125/53/3 62/54/3 61/55/3
f 34/56/5 36/11/5 35/10/5 33/57/5
f 70/42/6 68/58/6 69/59/6 67/43/6
f 28/45/3 25/46/3 26/47/3 27/7/3
f 24/60/3 21/61/3 22/62/3 23/45/3
f 130/54/2 128/63/2 129/9/2 127/12/2
f 112/64/1 110/37/1 111/40/1 109/6/1
f 132/55/2 130/54/2 127/12/2 131/51/2
f 125/53/3 123/65/3 124/63/3 62/54/3
f 92/66/5 91/67/5 89/68/5 90/69/5
f 89/4/5 115/3/5 113/70/5 114/71/5
f 58/72/1 44/73/1 41/30/1 57/29/1
f 44/51/1 42/74/1 43/75/1 41/55/1
f 121/18/2 122/1/2 120/4/2 119/42/2
f 16/76/2 13/77/2 14/20/2 15/19/2
f 66/78/3 64/79/3 65/43/3 63/59/3
f 96/26/3 93/7/3 94/6/3 95/40/3
f 119/42/2 120/4/2 117/71/2 118/58/2
f 56/32/5 36/36/5 50/73/5 55/72/5
f 71/13/4 73/67/4 88/66/4 87/14/4
f 78/65/6 76/80/6 77/81/6 75/63/6
f 104/82/5 101/83/5 102/6/5 103/84/5
