# Blender 5.0.1
# www.blender.org
mtllib BP_Mushrooms_Patch3.mtl
o SM_Mushrooms_New_Patch3.001
v -18.750000 -81.250000 62.508923
v -68.750000 -81.250000 62.508923
v -68.750000 -81.250000 37.526768
v -18.750000 -81.250000 37.526768
v -18.750000 -31.250002 37.526772
v -68.750000 -31.250002 37.526772
v -68.750000 -31.250002 62.508926
v -18.750000 -31.250002 62.508926
v -18.750000 -81.250000 37.526768
v -68.750000 -81.250000 37.526768
v -68.750000 -31.250002 37.526772
v -18.750000 -31.250002 37.526772
v -18.750000 -31.250002 62.508926
v -18.750000 -81.250000 62.508923
v -18.750000 -81.250000 37.526768
v -18.750000 -31.250002 37.526772
v -68.750000 -81.250000 62.508923
v -68.750000 -31.250002 37.526772
v -68.750000 -81.250000 37.526768
v -68.750000 -31.250002 62.508926
v -68.750000 -81.250000 62.508923
v -18.750000 -81.250000 62.508923
v -68.750000 -31.250002 62.508926
v -18.750000 -31.250002 62.508926
v -31.250000 -68.750000 37.491070
v -56.250000 -68.750000 37.491070
v -56.250000 -68.750000 0.000014
v -31.250000 -68.750000 0.000014
v -31.250000 -43.750000 0.000015
v -56.250000 -43.750000 0.000015
v -56.250000 -43.750000 37.491070
v -31.250000 -43.750000 37.491070
v -31.250000 -68.750000 37.491070
v -31.250000 -68.750000 0.000014
v -31.250000 -43.750000 37.491070
v -31.250000 -43.750000 0.000015
v -56.250000 -68.750000 37.491070
v -56.250000 -43.750000 0.000015
v -56.250000 -68.750000 0.000014
v -56.250000 -43.750000 37.491070
v 81.250000 62.499996 68.750000
v 18.750000 62.499996 68.750000
v 18.750000 62.500000 37.517853
v 81.250000 62.500000 37.517853
v 81.250000 125.000000 37.517853
v 18.750000 125.000000 37.517853
v 18.750000 125.000000 68.750008
v 81.250000 125.000000 68.750008
v 81.250000 62.500000 37.517853
v 18.750000 62.500000 37.517853
v 18.750000 125.000000 37.517853
v 81.250000 125.000000 37.517853
v 81.250000 125.000000 68.750008
v 81.250000 62.499996 68.750000
v 81.250000 62.500000 37.517853
v 81.250000 125.000000 37.517853
v 18.750000 62.499996 68.750000
v 18.750000 125.000000 37.517853
v 18.750000 62.500000 37.517853
v 18.750000 125.000000 68.750008
v 18.750000 62.499996 68.750000
v 81.250000 62.499996 68.750000
v 18.750000 125.000000 68.750008
v 81.250000 125.000000 68.750008
v 62.500000 81.250000 37.482155
v 37.500000 81.250000 37.482155
v 37.500000 81.250000 0.000021
v 62.500000 81.250000 0.000021
v 62.500000 106.250000 0.000022
v 37.500000 106.250000 0.000022
v 37.500000 106.250000 37.482155
v 62.500000 106.250000 37.482155
v 62.500000 81.250000 37.482155
v 62.500000 81.250000 0.000021
v 62.500000 106.250000 37.482155
v 62.500000 106.250000 0.000022
v 37.500000 81.250000 37.482155
v 37.500000 106.250000 0.000022
v 37.500000 81.250000 0.000021
v 37.500000 106.250000 37.482155
v 43.750004 -43.750008 100.000000
v -56.250004 -43.750008 100.000000
v -56.250004 -43.750008 62.499996
v 43.750004 -43.750008 62.499996
v 43.750004 56.250000 62.500004
v -56.250004 56.250000 62.500004
v -56.250004 56.250000 100.000000
v 43.750004 56.250000 100.000000
v 43.750004 -43.750008 62.499996
v -56.250004 -43.750008 62.499996
v -56.250004 56.250000 62.500004
v 43.750004 56.250000 62.500004
v 43.750004 56.250000 100.000000
v 43.750004 -43.750008 100.000000
v 43.750004 -43.750008 62.499996
v 43.750004 56.250000 62.500004
v -56.250004 -43.750008 100.000000
v -56.250004 56.250000 62.500004
v -56.250004 -43.750008 62.499996
v -56.250004 56.250000 100.000000
v -18.749998 -6.250002 62.464302
v -18.749998 -6.249999 0.000017
v 6.249999 -6.250002 62.464302
v 6.249999 -6.249999 0.000017
v -18.749998 18.749998 0.000018
v -18.749998 18.749996 62.464302
v 6.249999 18.749998 0.000018
v 6.249999 18.749996 62.464302
v 6.249999 18.749998 0.000018
v 6.249999 18.749996 62.464302
v 6.249999 -6.249999 0.000017
v 6.249999 -6.250002 62.464302
v -18.749998 -6.250002 62.464302
v -18.749998 18.749998 0.000018
v -18.749998 -6.249999 0.000017
v -18.749998 18.749996 62.464302
v -56.250004 -43.750008 100.000000
v 43.750004 -43.750008 100.000000
v -56.250004 56.250000 100.000000
v 43.750004 56.250000 100.000000
v 118.750000 -75.000000 68.750000
v 56.250000 -75.000000 68.750000
v 56.250000 -75.000000 37.517845
v 118.750000 -75.000000 37.517845
v 118.750000 -12.500002 37.517849
v 56.250000 -12.500002 37.517849
v 56.250000 -12.500003 68.750000
v 118.750000 -12.500003 68.750000
v 118.750000 -75.000000 37.517845
v 56.250000 -75.000000 37.517845
v 56.250000 -12.500002 37.517849
v 118.750000 -12.500002 37.517849
v 118.750000 -12.500003 68.750000
v 118.750000 -75.000000 68.750000
v 118.750000 -75.000000 37.517845
v 118.750000 -12.500002 37.517849
v 56.250000 -75.000000 68.750000
v 56.250000 -12.500002 37.517849
v 56.250000 -75.000000 37.517845
v 56.250000 -12.500003 68.750000
v 56.250000 -75.000000 68.750000
v 118.750000 -75.000000 68.750000
v 56.250000 -12.500003 68.750000
v 118.750000 -12.500003 68.750000
v 100.000000 -56.250000 37.482147
v 75.000000 -56.250000 37.482147
v 75.000000 -56.250000 0.000015
v 100.000000 -56.250000 0.000015
v 100.000000 -31.250002 0.000016
v 75.000000 -31.250002 0.000016
v 75.000000 -31.250004 37.482151
v 100.000000 -31.250004 37.482151
v 100.000000 -56.250000 37.482147
v 100.000000 -56.250000 0.000015
v 100.000000 -31.250004 37.482151
v 100.000000 -31.250002 0.000016
v 75.000000 -56.250000 37.482147
v 75.000000 -31.250002 0.000016
v 75.000000 -56.250000 0.000015
v 75.000000 -31.250004 37.482151
v -18.750000 81.250000 62.508930
v -68.750000 81.250000 62.508930
v -68.750000 81.250000 37.526775
v -18.750000 81.250000 37.526775
v -18.750000 131.250000 37.526779
v -68.750000 131.250000 37.526779
v -68.750000 131.250000 62.508934
v -18.750000 131.250000 62.508934
v -18.750000 81.250000 37.526775
v -68.750000 81.250000 37.526775
v -68.750000 131.250000 37.526779
v -18.750000 131.250000 37.526779
v -18.750000 131.250000 62.508934
v -18.750000 81.250000 62.508930
v -18.750000 81.250000 37.526775
v -18.750000 131.250000 37.526779
v -68.750000 81.250000 62.508930
v -68.750000 131.250000 37.526779
v -68.750000 81.250000 37.526775
v -68.750000 131.250000 62.508934
v -68.750000 81.250000 62.508930
v -18.750000 81.250000 62.508930
v -68.750000 131.250000 62.508934
v -18.750000 131.250000 62.508934
v -31.250000 93.750000 37.491077
v -56.250000 93.750000 37.491077
v -56.250000 93.750000 0.000021
v -31.250000 93.750000 0.000021
v -31.250000 118.750000 0.000022
v -56.250000 118.750000 0.000022
v -56.250000 118.750000 37.491077
v -31.250000 118.750000 37.491077
v -31.250000 93.750000 37.491077
v -31.250000 93.750000 0.000021
v -31.250000 118.750000 37.491077
v -31.250000 118.750000 0.000022
v -56.250000 93.750000 37.491077
v -56.250000 118.750000 0.000022
v -56.250000 93.750000 0.000021
v -56.250000 118.750000 37.491077
v -81.250000 -18.750004 68.750000
v -143.750000 -18.750004 68.750000
v -143.750000 -18.750002 37.517849
v -81.250000 -18.750002 37.517849
v -81.250000 43.750000 37.517853
v -143.750000 43.750000 37.517853
v -143.750000 43.749996 68.750000
v -81.250000 43.749996 68.750000
v -81.250000 -18.750002 37.517849
v -143.750000 -18.750002 37.517849
v -143.750000 43.750000 37.517853
v -81.250000 43.750000 37.517853
v -81.250000 43.749996 68.750000
v -81.250000 -18.750004 68.750000
v -81.250000 -18.750002 37.517849
v -81.250000 43.750000 37.517853
v -143.750000 -18.750004 68.750000
v -143.750000 43.750000 37.517853
v -143.750000 -18.750002 37.517849
v -143.750000 43.749996 68.750000
v -143.750000 -18.750004 68.750000
v -81.250000 -18.750004 68.750000
v -143.750000 43.749996 68.750000
v -81.250000 43.749996 68.750000
v -100.000000 -0.000001 37.482151
v -125.000000 -0.000001 37.482151
v -125.000000 0.000001 0.000017
v -100.000000 0.000001 0.000017
v -100.000000 24.999998 0.000018
v -125.000000 24.999998 0.000018
v -125.000000 24.999996 37.482151
v -100.000000 24.999996 37.482151
v -100.000000 -0.000001 37.482151
v -100.000000 0.000001 0.000017
v -100.000000 24.999996 37.482151
v -100.000000 24.999998 0.000018
v -125.000000 -0.000001 37.482151
v -125.000000 24.999998 0.000018
v -125.000000 0.000001 0.000017
v -125.000000 24.999996 37.482151
vn -0.0000 -1.0000 -0.0000
vn -0.0000 1.0000 -0.0000
vn -0.0000 -0.0000 -1.0000
vn 1.0000 -0.0000 -0.0000
vn -1.0000 -0.0000 -0.0000
vn -0.0000 -0.0000 1.0000
vt 0.604004 0.333496
vt 0.541504 0.333496
vt 0.541504 0.291992
vt 0.604004 0.291992
vt 0.375000 0.145996
vt 0.375000 0.104492
vt 0.458252 0.104492
vt 0.458252 0.145996
vt 0.583008 0.145996
vt 0.479004 0.145996
vt 0.479004 0.093750
vt 0.583008 0.093750
vt 0.604004 0.625000
vt 0.541504 0.625000
vt 0.541504 0.458496
vt 0.604004 0.458496
vt 0.562500 0.625000
vt 0.562500 0.729248
vt 0.520508 0.729248
vt 0.520508 0.625000
vt 0.625000 0.843750
vt 0.625000 0.895874
vt 0.520508 0.895874
vt 0.520508 0.843750
vt 0.604004 0.416992
vt 0.541504 0.416992
vt 0.541504 0.375000
vt 0.604004 0.375000
vt 0.604004 0.729248
vt 0.520508 0.739746
vt 0.625000 0.739746
vt 0.500000 0.145996
vt 0.500000 0.229492
vt 0.458252 0.229492
vt 0.583008 0.229492
vt 0.375000 0.395996
vt 0.541504 0.395996
vt 0.375000 0.458496
vt 0.375000 0.625000
vt 0.375000 0.229492
vt 0.520508 0.999969
vt 0.625000 0.999969
vt 0.541504 0.229492
s 1
usemtl MI_Mushrooms
f 40/1/5 38/2/5 39/3/5 37/4/5
f 8/5/2 5/6/2 6/7/2 7/8/2
f 15/32/4 16/33/4 13/34/4 14/8/4
f 12/9/3 9/35/3 10/33/3 11/32/3
f 32/28/2 29/27/2 30/2/2 31/1/2
f 28/2/1 25/1/1 26/28/1 27/27/1
f 22/40/6 24/5/6 23/8/6 21/34/6
f 20/8/5 18/32/5 19/33/5 17/34/5
f 4/7/1 1/8/1 2/5/1 3/6/1
f 34/2/4 36/3/4 35/4/4 33/1/4
usemtl MI_Mushrooms
f 72/25/2 69/26/2 70/27/2 71/28/2
f 55/9/4 56/10/4 53/11/4 54/12/4
f 62/24/6 64/30/6 63/31/6 61/21/6
f 48/21/2 45/22/2 46/23/2 47/24/2
f 44/23/1 41/24/1 42/21/1 43/22/1
f 68/27/1 65/28/1 66/25/1 67/26/1
f 60/12/5 58/9/5 59/10/5 57/11/5
f 74/15/4 76/26/4 75/25/4 73/16/4
f 80/16/5 78/15/5 79/26/5 77/25/5
f 52/41/3 49/23/3 50/22/3 51/42/3
usemtl MI_Mushrooms
f 84/13/1 81/14/1 82/15/1 83/16/1
f 116/17/5 114/18/5 115/19/5 113/20/5
f 108/13/2 107/29/2 105/18/2 106/17/2
f 104/18/1 103/17/1 101/13/1 102/29/1
f 95/36/4 96/37/4 93/15/4 94/38/4
f 118/14/6 120/39/6 119/38/6 117/15/6
f 100/38/5 98/36/5 99/37/5 97/15/5
f 88/15/2 85/16/2 86/13/2 87/14/2
f 110/20/4 112/17/4 111/18/4 109/19/4
f 92/40/3 89/43/3 90/37/3 91/36/3
usemtl MI_Mushrooms
f 135/9/4 136/10/4 133/11/4 134/12/4
f 128/21/2 125/22/2 126/23/2 127/24/2
f 152/25/2 149/26/2 150/27/2 151/28/2
f 140/12/5 138/9/5 139/10/5 137/11/5
f 142/24/6 144/30/6 143/31/6 141/21/6
f 132/41/3 129/23/3 130/22/3 131/42/3
f 124/23/1 121/24/1 122/21/1 123/22/1
f 154/15/4 156/26/4 155/25/4 153/16/4
f 148/27/1 145/28/1 146/25/1 147/26/1
f 160/16/5 158/15/5 159/26/5 157/25/5
usemtl MI_Mushrooms
f 168/5/2 165/6/2 166/7/2 167/8/2
f 200/1/5 198/2/5 199/3/5 197/4/5
f 172/9/3 169/35/3 170/33/3 171/32/3
f 164/7/1 161/8/1 162/5/1 163/6/1
f 175/32/4 176/33/4 173/34/4 174/8/4
f 188/2/1 185/1/1 186/28/1 187/27/1
f 194/2/4 196/3/4 195/4/4 193/1/4
f 192/28/2 189/27/2 190/2/2 191/1/2
f 180/8/5 178/32/5 179/33/5 177/34/5
f 182/40/6 184/5/6 183/8/6 181/34/6
usemtl MI_Mushrooms
f 228/27/1 225/28/1 226/25/1 227/26/1
f 220/12/5 218/9/5 219/10/5 217/11/5
f 204/23/1 201/24/1 202/21/1 203/22/1
f 232/25/2 229/26/2 230/27/2 231/28/2
f 234/15/4 236/26/4 235/25/4 233/16/4
f 215/9/4 216/10/4 213/11/4 214/12/4
f 208/21/2 205/22/2 206/23/2 207/24/2
f 222/24/6 224/30/6 223/31/6 221/21/6
f 212/41/3 209/23/3 210/22/3 211/42/3
f 240/16/5 238/15/5 239/26/5 237/25/5
