# Blender 5.0.1
# www.blender.org
mtllib BP_Monstera.mtl
o SM_Monstera_Corrected.001
v 9.645157 -32.065933 53.143360
v 89.876320 -26.541656 16.469893
v 53.050095 12.644390 48.321625
v 46.471386 -71.251984 21.291626
v 0.948246 -5.168412 1.370487
v 36.427982 -10.917618 52.882122
v 6.189032 -6.730912 -1.655281
v 31.187197 -9.355118 55.907890
v 36.427982 -10.917618 52.882122
v 29.621075 -15.392155 56.312798
v 34.861858 -16.954655 53.287029
v 31.187197 -9.355118 55.907890
v 29.621075 -15.392155 56.312798
v -0.617878 -11.205448 1.775394
v 34.861858 -16.954655 53.287029
v 4.622910 -12.767948 -1.250374
v -0.617878 -11.205448 1.775394
v 6.189032 -6.730912 -1.655281
v 4.622910 -12.767948 -1.250374
v 0.948246 -5.168412 1.370487
v -0.617878 -11.205448 1.775394
v 31.187197 -9.355118 55.907890
v 0.948246 -5.168412 1.370487
v 29.621075 -15.392155 56.312798
v 6.189032 -6.730912 -1.655281
v 36.427982 -10.917618 52.882122
v 4.622910 -12.767948 -1.250374
v 34.861858 -16.954655 53.287029
v 39.248009 106.153336 89.750023
v 58.083546 15.744766 113.117783
v 92.915108 75.142860 90.985588
v 4.416443 46.755238 111.882217
v -55.005676 53.747200 31.532013
v -85.190857 -0.628422 37.728504
v -32.908592 -27.187813 59.348244
v -2.723412 27.187815 53.151756
v -55.231979 -28.953457 63.388138
v -59.059311 -77.603859 32.748257
v -32.268013 -58.546547 61.611870
v -82.023277 -48.010773 34.524529
v 62.500000 -33.873543 92.571198
v 122.870361 28.626459 76.395004
v 62.500000 28.626463 92.571198
v 122.870361 -33.873543 76.395004
v -61.009254 -18.427944 94.926666
v -18.749996 19.072052 106.250000
v -61.009254 19.072052 94.926666
v -18.749996 -18.427946 106.250000
v 12.392504 -6.250000 0.850113
v -16.724642 -6.250000 109.516769
v 6.355467 -6.250000 -0.767509
v -22.761677 -6.250000 107.899155
v -16.724642 0.000000 109.516769
v -22.761677 -6.250000 107.899155
v -16.724642 -6.250000 109.516769
v -22.761677 0.000000 107.899155
v 6.355467 -0.000000 -0.767509
v -16.724642 0.000000 109.516769
v 12.392504 0.000000 0.850113
v -22.761677 0.000000 107.899155
v 12.392504 -6.250000 0.850113
v 6.355467 -6.250000 -0.767509
v 6.355467 -0.000000 -0.767509
v 12.392504 0.000000 0.850113
v 12.392504 0.000000 0.850113
v -16.724642 0.000000 109.516769
v 12.392504 -6.250000 0.850113
v -16.724642 -6.250000 109.516769
v -22.761677 -6.250000 107.899155
v 6.355467 -0.000000 -0.767509
v 6.355467 -6.250000 -0.767509
v -22.761677 0.000000 107.899155
v 0.000000 28.626648 39.583866
v 0.000000 6.751644 1.695248
v 6.250000 28.626648 39.583866
v 6.250000 6.751644 1.695248
v 6.250000 34.039307 36.458866
v 0.000000 28.626648 39.583866
v 6.250000 28.626648 39.583866
v 0.000000 34.039307 36.458866
v 0.000000 12.164303 -1.429752
v 0.000000 34.039307 36.458866
v 6.250000 12.164303 -1.429752
v 6.250000 34.039307 36.458866
v 6.250000 6.751644 1.695248
v 0.000000 6.751644 1.695248
v 0.000000 12.164303 -1.429752
v 6.250000 12.164303 -1.429752
v 6.250000 28.626648 39.583866
v 6.250000 12.164303 -1.429752
v 6.250000 34.039307 36.458866
v 6.250000 6.751644 1.695248
v 0.000000 34.039307 36.458866
v 0.000000 12.164303 -1.429752
v 0.000000 28.626648 39.583866
v 0.000000 6.751644 1.695248
v 68.314369 -6.250000 95.785568
v 6.651714 -6.250000 1.482716
v 12.064371 -6.250000 -1.642284
v 62.901711 -6.250000 98.910568
v 68.314369 0.000000 95.785568
v 62.901711 -6.250000 98.910568
v 68.314369 -6.250000 95.785568
v 62.901711 0.000000 98.910568
v 68.314369 0.000000 95.785568
v 6.651714 0.000000 1.482716
v 62.901711 0.000000 98.910568
v 12.064371 -0.000000 -1.642284
v 12.064371 -6.250000 -1.642284
v 6.651714 -6.250000 1.482716
v 6.651714 0.000000 1.482716
v 12.064371 -0.000000 -1.642284
v 12.064371 -0.000000 -1.642284
v 68.314369 0.000000 95.785568
v 12.064371 -6.250000 -1.642284
v 68.314369 -6.250000 95.785568
v 62.901711 -6.250000 98.910568
v 6.651714 0.000000 1.482716
v 6.651714 -6.250000 1.482716
v 62.901711 0.000000 98.910568
v -0.004642 -6.220818 0.006760
v -42.990791 -48.480080 63.430702
v -5.371788 -5.412006 -3.091961
v -48.357937 -47.671268 60.331982
v -42.990791 -48.480080 63.430702
v -43.901100 -43.067421 66.420181
v -48.357937 -47.671268 60.331982
v -49.268242 -42.258610 63.321457
v -43.901100 -43.067421 66.420181
v -6.282093 0.000652 -0.102486
v -49.268242 -42.258610 63.321457
v -0.914948 -0.808159 2.996235
v -5.371788 -5.412006 -3.091961
v -0.914948 -0.808159 2.996235
v -0.004642 -6.220818 0.006760
v -6.282093 0.000652 -0.102486
v -0.914948 -0.808159 2.996235
v -43.901100 -43.067421 66.420181
v -0.004642 -6.220818 0.006760
v -42.990791 -48.480080 63.430702
v -5.371788 -5.412006 -3.091961
v -49.268242 -42.258610 63.321457
v -6.282093 0.000652 -0.102486
v -48.357937 -47.671268 60.331982
v -0.146408 0.031956 0.850113
v -22.359638 0.031956 59.602867
v -6.183444 0.031956 -0.767509
v -16.322601 0.031956 61.220486
v -16.322601 6.281956 61.220486
v -22.359638 0.031956 59.602867
v -16.322601 0.031956 61.220486
v -22.359638 6.281956 59.602867
v -6.183444 6.281956 -0.767509
v -22.359638 6.281956 59.602867
v -0.146408 6.281956 0.850113
v -16.322601 6.281956 61.220486
v -0.146408 0.031956 0.850113
v -6.183444 0.031956 -0.767509
v -6.183444 6.281956 -0.767509
v -0.146408 6.281956 0.850113
v -0.146408 6.281956 0.850113
v -16.322601 6.281956 61.220486
v -0.146408 0.031956 0.850113
v -16.322601 0.031956 61.220486
v -22.359638 0.031956 59.602867
v -6.183444 6.281956 -0.767509
v -6.183444 0.031956 -0.767509
v -22.359638 6.281956 59.602867
v 30.015663 30.882246 112.410385
v 6.365201 0.147484 -0.002491
v 36.052700 30.882246 110.792770
v 0.328165 0.147484 1.615131
v 36.052700 30.882246 110.792770
v 35.634029 36.919281 109.230270
v 30.015663 30.882246 112.410385
v 29.596992 36.919281 110.847885
v 35.634029 36.919281 109.230270
v 5.946530 6.184520 -1.564991
v 29.596992 36.919281 110.847885
v -0.090506 6.184520 0.052631
v 5.946530 6.184520 -1.564991
v 36.052700 30.882246 110.792770
v 6.365201 0.147484 -0.002491
v 35.634029 36.919281 109.230270
v 29.596992 36.919281 110.847885
v -0.090506 6.184520 0.052631
v 30.015663 30.882246 112.410385
v 0.328165 0.147484 1.615131
v 0.000000 -75.967628 68.313240
v 0.000000 -5.256950 -2.397434
v 6.250000 -75.967628 68.313240
v 6.250000 -5.256950 -2.397434
v 6.250000 -75.967628 68.313240
v 6.250000 -71.548210 72.732658
v 0.000000 -75.967628 68.313240
v 0.000000 -71.548210 72.732658
v 0.000000 -0.837536 2.021980
v 0.000000 -71.548210 72.732658
v 6.250000 -0.837536 2.021980
v 6.250000 -71.548210 72.732658
v 6.250000 -5.256950 -2.397434
v 0.000000 -5.256950 -2.397434
v 0.000000 -0.837536 2.021980
v 6.250000 -0.837536 2.021980
v 6.250000 -71.548210 72.732658
v 6.250000 -5.256950 -2.397434
v 6.250000 -0.837536 2.021980
v 6.250000 -75.967628 68.313240
v 0.000000 -5.256950 -2.397434
v 0.000000 -75.967628 68.313240
v 0.000000 -0.837536 2.021980
v 0.000000 -71.548210 72.732658
v 21.785381 -112.714157 46.875000
v -15.714614 -74.825546 68.750000
v -15.714614 -112.714157 46.875000
v 21.785385 -74.825546 68.750000
v 34.170029 31.250000 37.500000
v -28.329973 85.376587 6.249998
v -28.329977 31.250000 37.500000
v 34.170029 85.376587 6.249998
vn 0.4129 -0.3085 0.8569
vn 0.2506 0.9659 -0.0648
vn 0.4838 -0.0670 0.8726
vn -0.2506 -0.9659 0.0648
vn -0.4838 0.0670 -0.8726
vn -0.8385 0.2500 0.4841
vn 0.8385 -0.2500 -0.4841
vn 0.1367 0.2745 0.9518
vn -0.2588 0.2500 0.9330
vn -0.5000 -0.4330 0.7500
vn 0.2588 -0.0000 0.9659
vn -0.2588 -0.0000 0.9659
vn -0.0000 -1.0000 -0.0000
vn -0.0000 1.0000 -0.0000
vn 0.2588 -0.0000 -0.9659
vn 0.9659 -0.0000 0.2588
vn -0.9659 -0.0000 -0.2588
vn -0.0000 -0.8660 0.5000
vn -0.0000 0.5000 0.8660
vn -0.0000 0.8660 -0.5000
vn -0.0000 -0.5000 -0.8660
vn 1.0000 -0.0000 -0.0000
vn -1.0000 -0.0000 -0.0000
vn 0.5000 -0.0000 0.8660
vn -0.5000 -0.0000 -0.8660
vn 0.8660 -0.0000 -0.5000
vn -0.8660 -0.0000 0.5000
vn 0.1456 -0.8660 -0.4783
vn -0.4913 -0.4830 0.7248
vn -0.1456 0.8660 0.4783
vn 0.4913 0.4830 -0.7248
vn 0.8587 -0.1294 0.4958
vn -0.8587 0.1294 -0.4958
vn 0.0670 -0.9659 0.2500
vn 0.2500 0.2588 0.9330
vn -0.0670 0.9659 -0.2500
vn 0.9659 -0.0000 -0.2588
vn -0.9659 -0.0000 0.2588
vn -0.0000 -0.7071 -0.7071
vn -0.0000 -0.7071 0.7071
vn -0.0000 0.7071 0.7071
vn -0.0000 0.7071 -0.7071
vn -0.0000 -0.5000 0.8660
vt 0.968750 0.156250
vt 1.000000 0.156250
vt 1.000000 0.593750
vt 0.968750 0.593750
vt 1.000000 0.875000
vt 0.968750 0.875000
vt 0.968750 0.312500
vt 1.000000 0.312500
vt 0.906250 0.406250
vt 0.937500 0.406250
vt 0.937500 0.718750
vt 0.906250 0.718750
vt 0.906250 0.218750
vt 0.937500 0.218750
vt 0.937500 0.683838
vt 0.906250 0.683838
vt 0.937500 0.812500
vt 0.906250 0.812500
vt 0.250000 0.999969
vt 0.000031 0.999969
vt 0.000031 0.718750
vt 0.250000 0.718750
vt 0.906250 0.750000
vt 0.937500 0.750000
vt 1.000000 0.218750
vt 1.000000 0.812500
vt 0.968750 0.812500
vt 0.968750 0.218750
vt 0.593750 0.687500
vt 0.593750 0.999969
vt 0.281250 0.999969
vt 0.281250 0.687500
vt 0.875000 0.718750
vt 0.875000 0.156250
vt 0.906250 0.156250
vt 0.937500 0.875000
vt 0.906250 0.875000
vt 0.906250 0.312500
vt 0.937500 0.312500
vt 0.968750 0.906250
vt 0.937500 0.906250
vt 0.906250 0.625000
vt 0.906250 0.593994
vt 0.937500 0.593994
vt 0.937500 0.625000
vt 0.625000 0.781250
vt 0.812500 0.781250
vt 0.812500 0.999969
vt 0.625000 0.999969
vt 0.937500 0.156250
vt 0.937500 0.593750
vt 0.906250 0.593750
vt 0.968750 0.406250
vt 0.968750 0.718750
vt 0.875000 0.875000
vt 0.875000 0.312500
vt 1.000000 0.718750
vt 1.000000 0.406250
vt 0.906250 0.125000
vt 0.906250 0.500000
vt 0.875000 0.500000
vt 0.875000 0.125000
vt 0.250000 0.312500
vt 0.562500 0.312500
vt 0.562500 0.656250
vt 0.250000 0.656250
vt 0.875000 0.531250
vt 0.906250 0.531250
vt 0.906250 0.968750
vt 0.875000 0.968750
vt 0.875000 0.218750
vt 0.875000 0.812500
vt 0.968750 0.968750
vt 0.968750 0.531250
vt 1.000000 0.531250
vt 1.000000 0.968750
vt 0.875000 0.406250
vt 0.937500 0.843750
vt 0.906250 0.843750
vt 0.937500 0.968750
vt 0.937500 0.531250
vt 0.937500 0.999969
vt 0.906250 0.999969
s 1
usemtl MI_Monstera
f 84/1/20 83/2/20 81/3/20 82/4/20
f 50/5/13 52/6/13 51/7/13 49/8/13
f 14/9/4 16/10/4 15/11/4 13/12/4
f 92/13/22 90/14/22 91/15/22 89/16/22
f 156/12/14 155/9/14 153/10/14 154/11/14
f 184/17/37 182/18/37 183/13/37 181/14/37
f 40/19/10 38/20/10 39/21/10 37/22/10
f 12/23/3 10/12/3 11/11/3 9/24/3
f 188/25/38 187/26/38 185/27/38 186/28/38
f 20/10/5 18/10/5 19/10/5 17/10/5
f 36/29/9 33/30/9 34/31/9 35/32/9
f 100/33/13 98/34/13 99/35/13 97/12/13
f 60/36/14 58/37/14 59/38/14 57/39/14
f 152/11/12 150/24/12 151/23/12 149/12/12
f 178/14/36 180/28/36 179/27/36 177/17/36
f 56/36/12 54/6/12 55/40/12 53/41/12
f 160/10/15 157/10/15 158/10/15 159/10/15
f 80/42/19 78/43/19 79/44/19 77/45/19
f 216/46/43 214/47/43 215/48/43 213/49/43
f 76/35/18 75/50/18 73/51/18 74/52/18
f 114/11/26 116/12/26 115/35/26 113/50/26
f 168/11/17 166/10/17 167/53/17 165/54/17
f 26/54/7 28/11/7 27/10/7 25/53/7
f 104/24/24 102/23/24 103/12/24 101/11/24
f 66/37/16 68/55/16 67/56/16 65/38/16
f 44/30/11 42/31/11 43/32/11 41/29/11
f 8/57/2 6/54/2 7/53/2 5/58/2
f 96/59/23 95/60/23 93/61/23 94/62/23
f 64/39/15 61/39/15 62/39/15 63/39/15
f 72/36/17 70/39/17 71/7/17 69/6/17
f 32/63/8 30/64/8 31/65/8 29/66/8
f 132/67/30 130/68/30 131/69/30 129/70/30
f 172/71/34 170/13/34 171/18/34 169/72/34
f 140/73/32 139/74/32 137/75/32 138/76/32
f 24/12/6 22/33/6 23/77/6 21/9/6
f 136/68/31 134/68/31 135/68/31 133/68/31
f 120/54/27 118/1/27 119/2/27 117/57/27
f 148/57/13 146/54/13 147/53/13 145/58/13
f 176/78/35 175/79/35 173/18/35 174/17/35
f 4/30/1 2/31/1 3/32/1 1/29/1
f 208/17/22 206/39/22 207/7/22 205/27/22
f 144/80/33 142/69/33 143/68/33 141/81/33
f 122/73/28 124/80/28 123/81/28 121/74/28
f 128/69/29 127/80/29 125/82/29 126/83/29
f 108/50/14 106/1/14 107/54/14 105/11/14
f 48/21/12 46/22/12 47/19/12 45/20/12
f 88/1/21 85/4/21 86/51/21 87/50/21
f 204/8/42 201/8/42 202/8/42 203/8/42
f 162/12/16 164/33/16 163/77/16 161/9/16
f 112/1/25 109/1/25 110/1/25 111/1/25
f 196/79/40 195/18/40 193/17/40 194/78/40
f 192/39/39 191/17/39 189/18/39 190/38/39
f 212/72/23 211/56/23 209/38/23 210/18/23
f 200/27/41 199/7/41 197/8/41 198/26/41
f 220/30/19 218/31/19 219/32/19 217/29/19
