# Blender 5.0.1
# www.blender.org
mtllib BP_Marketbooth_Big_Flat_YB_NoPatch.mtl
o SM_Marketbooth_Big_Flat.001
v 180.042160 -198.993484 325.000000
v 180.042160 -198.993469 -0.000009
v 198.792160 -198.993484 325.000000
v 198.792160 -198.993469 -0.000024
v 180.042160 -180.243469 -0.000008
v 198.792160 -180.243484 325.000000
v 198.792160 -180.243469 -0.000023
v 180.042160 -180.243484 325.000000
v 198.792160 -180.243469 -0.000023
v 198.792160 -180.243484 325.000000
v 198.792160 -198.993469 -0.000024
v 198.792160 -198.993484 325.000000
v 180.042160 -198.993484 325.000000
v 180.042160 -180.243469 -0.000008
v 180.042160 -198.993469 -0.000009
v 180.042160 -180.243484 325.000000
v -199.604523 180.722687 325.000000
v -199.604523 180.722702 0.000008
v -180.854523 180.722687 325.000000
v -180.854523 180.722702 -0.000007
v -199.604523 199.472702 0.000009
v -180.854523 199.472687 325.000000
v -180.854523 199.472702 -0.000006
v -199.604523 199.472687 325.000000
v -180.854523 199.472702 -0.000006
v -180.854523 199.472687 325.000000
v -180.854523 180.722702 -0.000007
v -180.854523 180.722687 325.000000
v -199.604523 180.722687 325.000000
v -199.604523 199.472702 0.000009
v -199.604523 180.722702 0.000008
v -199.604523 199.472687 325.000000
v -199.539337 -199.677353 325.000000
v -199.539337 -180.927338 -0.000008
v -199.539337 -199.677338 -0.000024
v -199.539337 -180.927353 325.000000
v -180.789337 -199.677353 325.000000
v -180.789337 -180.927338 -0.000008
v -180.789337 -180.927353 325.000000
v -180.789337 -199.677338 -0.000024
v -199.539337 -199.677353 325.000000
v -199.539337 -199.677338 -0.000024
v -180.789337 -199.677353 325.000000
v -180.789337 -199.677338 -0.000024
v -199.539337 -180.927338 -0.000008
v -199.539337 -180.927353 325.000000
v -180.789337 -180.927338 -0.000008
v -180.789337 -180.927353 325.000000
v 180.478989 180.093475 325.000000
v 180.478989 198.843491 0.000009
v 180.478989 180.093491 -0.000007
v 180.478989 198.843475 325.000000
v 199.228989 180.093475 325.000000
v 199.228989 198.843491 0.000009
v 199.228989 198.843475 325.000000
v 199.228989 180.093491 -0.000007
v 180.478989 180.093475 325.000000
v 180.478989 180.093491 -0.000007
v 199.228989 180.093475 325.000000
v 199.228989 180.093491 -0.000007
v 180.478989 198.843491 0.000009
v 180.478989 198.843475 325.000000
v 199.228989 198.843491 0.000009
v 199.228989 198.843475 325.000000
v -200.000015 200.000000 325.623138
v -200.000015 -200.000031 300.623138
v -200.000015 -200.000031 325.623138
v -200.000015 200.000000 300.623138
v 200.000015 -200.000031 300.623138
v 200.000015 200.000000 300.623138
v 200.000015 -200.000031 325.623138
v 200.000015 200.000000 325.623138
v -200.000015 -200.000031 300.623138
v 200.000015 -200.000031 300.623138
v -200.000015 -200.000031 325.623138
v 200.000015 -200.000031 325.623138
v 200.000015 -200.000031 325.623138
v -200.000015 200.000000 325.623138
v -200.000015 -200.000031 325.623138
v 200.000015 200.000000 325.623138
v -200.000015 200.000000 325.623138
v 200.000015 200.000000 325.623138
v -200.000015 200.000000 300.623138
v 200.000015 200.000000 300.623138
vn -0.0000 -1.0000 -0.0000
vn -0.0000 1.0000 -0.0000
vn 1.0000 -0.0000 -0.0000
vn -1.0000 -0.0000 -0.0000
vn -0.0000 -0.0000 1.0000
vt 0.649902 0.887512
vt 0.000031 0.887512
vt 0.000031 0.850098
vt 0.649902 0.850098
vt 0.649902 0.925049
vt 0.000031 0.925049
vt 0.649902 0.999969
vt 0.000031 0.999969
vt 0.000031 0.962524
vt 0.649902 0.962524
vt 0.849609 0.050293
vt 0.849609 0.850098
vt 0.049988 0.850098
vt 0.049988 0.050293
vt 0.049988 0.000000
vt 0.849609 0.000000
vt 0.000031 0.050293
vt 0.899902 0.050293
vt 0.899902 0.850098
s 1
usemtl WorldGridMaterial
f 52/1/4 50/2/4 51/3/4 49/4/4
f 64/5/2 63/6/2 61/2/2 62/1/2
f 44/2/1 43/1/1 41/5/1 42/6/1
f 8/4/2 6/1/2 7/2/2 5/3/2
f 40/2/3 38/3/3 39/4/3 37/1/3
f 48/7/2 47/8/2 45/9/2 46/10/2
f 10/1/3 12/5/3 11/6/3 9/2/3
f 20/3/1 19/4/1 17/1/1 18/2/1
f 4/6/1 3/5/1 1/10/1 2/9/1
f 80/11/5 78/12/5 79/13/5 77/14/5
f 16/7/4 14/8/4 15/9/4 13/10/4
f 56/9/3 54/6/3 55/5/3 53/10/3
f 24/5/2 22/10/2 23/9/2 21/6/2
f 32/5/4 30/6/4 31/2/4 29/1/4
f 72/11/3 71/14/3 69/15/3 70/16/3
f 60/9/1 59/10/1 57/7/1 58/8/1
f 26/10/3 28/7/3 27/8/3 25/9/3
f 68/16/4 66/15/4 67/14/4 65/11/4
f 36/10/4 34/9/4 35/6/4 33/5/4
f 74/17/1 76/14/1 75/13/1 73/3/1
f 82/11/2 84/18/2 83/19/2 81/12/2
