# Blender 5.0.1
# www.blender.org
mtllib BP_MultiGate.mtl
o HH_KitchenDoor.001
v 350.000000 0.000000 300.000000
v 250.000000 0.000000 300.000000
v 350.000000 0.000000 200.000000
v 250.000000 0.000000 200.000000
v 350.000000 0.000000 300.000000
v 250.000000 100.000000 300.000000
v 250.000000 0.000000 300.000000
v 350.000000 100.000000 300.000000
v 250.000000 100.000000 200.000000
v 250.000000 100.000000 300.000000
v 350.000000 100.000000 200.000000
v 350.000000 100.000000 300.000000
v 350.000000 0.000000 -0.250000
v 250.000000 0.000000 -0.250000
v 350.000000 100.000000 -0.250000
v 250.000000 100.000000 -0.250000
v 350.000000 0.000000 300.000000
v 350.000000 0.000000 200.000000
v 350.000000 100.000000 300.000000
v 350.000000 100.000000 200.000000
v -350.000000 0.000000 300.000000
v -350.000000 100.000000 200.000000
v -350.000000 0.000000 200.000000
v -350.000000 100.000000 300.000000
v 150.000000 0.000000 -0.250000
v 150.000000 100.000000 -0.250000
v 150.000000 100.000000 200.000000
v 150.000000 100.000000 300.000000
v 150.000000 100.000000 300.000000
v 150.000000 0.000000 300.000000
v 150.000000 0.000000 300.000000
v 150.000000 0.000000 200.000000
v 50.000000 0.000000 -0.250000
v 50.000000 100.000000 -0.250000
v 50.000000 100.000000 200.000000
v 50.000000 100.000000 300.000000
v 50.000000 100.000000 300.000000
v 50.000000 0.000000 300.000000
v 50.000000 0.000000 300.000000
v 50.000000 0.000000 200.000000
v -49.999996 0.000000 0.250000
v -49.999996 100.000000 0.250000
v -49.999996 100.000000 200.000000
v -49.999996 100.000000 300.000000
v -49.999996 100.000000 300.000000
v -49.999996 0.000000 300.000000
v -49.999996 0.000000 300.000000
v -49.999996 0.000000 200.000000
v -150.000000 0.000000 0.250000
v -150.000000 100.000000 0.250000
v -150.000000 100.000000 200.000000
v -150.000000 100.000000 300.000000
v -150.000000 100.000000 300.000000
v -150.000000 0.000000 300.000000
v -150.000000 0.000000 300.000000
v -150.000000 0.000000 200.000000
v -250.000000 0.000000 -0.250000
v -250.000000 100.000000 -0.250000
v -250.000000 100.000000 200.000000
v -250.000000 100.000000 300.000000
v -250.000000 100.000000 300.000000
v -250.000000 0.000000 300.000000
v -250.000000 0.000000 300.000000
v -250.000000 0.000000 200.000000
v -350.000000 0.000000 -0.250000
v -350.000000 100.000000 -0.250000
v -350.000000 100.000000 200.000000
v -350.000000 100.000000 300.000000
v -350.000000 0.000000 300.000000
v -350.000000 100.000000 300.000000
v -350.000000 0.000000 300.000000
v -350.000000 0.000000 200.000000
v -350.000000 0.000000 100.000000
v -250.000000 0.000000 100.000000
v -150.000000 0.000000 100.000000
v -50.000000 0.000000 100.000000
v 50.000000 0.000000 100.000000
v 150.000000 0.000000 100.000000
v 250.000000 0.000000 100.000000
v 350.000000 0.000000 100.000000
v 350.000000 0.000000 100.000000
v 350.000000 100.000000 100.000000
v 250.000000 100.000000 100.000000
v 350.000000 100.000000 100.000000
v 150.000000 100.000000 100.000000
v 50.000000 100.000000 100.000000
v -49.999996 100.000000 100.000000
v -150.000000 100.000000 100.000000
v -250.000000 100.000000 100.000000
v -350.000000 100.000000 100.000000
v -350.000000 100.000000 100.000000
v -350.000000 0.000000 100.000000
v -350.000000 0.000000 -0.250000
v -250.000000 0.000000 -0.250000
v -150.000000 0.000000 0.250000
v -49.999996 0.000000 0.250000
v 50.000000 0.000000 -0.250000
v 150.000000 0.000000 -0.250000
v 250.000000 0.000000 -0.250000
v 350.000000 0.000000 -0.250000
v 350.000000 0.000000 -0.250000
v 350.000000 100.000000 -0.250000
v 350.000000 100.000000 -0.250000
v 250.000000 100.000000 -0.250000
v 150.000000 100.000000 -0.250000
v 50.000000 100.000000 -0.250000
v -49.999996 100.000000 0.250000
v -150.000000 100.000000 0.250000
v -250.000000 100.000000 -0.250000
v -350.000000 100.000000 -0.250000
v -350.000000 100.000000 -0.250000
v -350.000000 0.000000 -0.250000
vn -0.0000 -1.0000 -0.0000
vn -0.0000 -0.0000 1.0000
vn -0.0000 1.0000 -0.0000
vn -0.0000 -0.0000 -1.0000
vn 1.0000 -0.0000 -0.0000
vn -1.0000 -0.0000 -0.0000
vn -0.0025 -0.0000 -1.0000
vn 0.0025 -0.0000 -1.0000
vt 0.250000 0.750000
vt 0.250000 0.500244
vt 0.499756 0.500244
vt 0.499756 0.750000
vt 0.500000 0.750000
vt 0.750000 0.750000
vt 0.750000 1.000124
vt 0.500000 1.000124
vt 0.750000 0.999969
vt 0.500000 0.999969
vt 0.500000 1.000124
vt 0.750000 1.000124
vt 0.749512 0.750000
vt 0.749512 1.000124
vt 0.250000 0.500000
vt 0.499756 1.000124
vt 0.499756 0.500000
vt 0.499756 0.750122
vt 0.250000 0.750122
vt 0.749512 0.749756
vt 0.749512 1.000248
vt 0.500000 1.000248
vt 0.500000 0.749756
vt 0.750000 0.749756
vt 0.750000 1.000248
vt 0.500000 1.000248
vt 0.749512 1.000124
vt 0.749512 1.000248
vt 0.750000 1.000248
vt 0.750000 0.750122
vt 0.750000 0.999969
vt 0.499756 0.999969
s 1
usemtl MI_HH_EscapeExit
f 31/1/1 32/2/1 4/3/1 2/4/1
f 37/4/2 45/1/2 46/2/2 38/3/2
f 76/5/1 77/6/1 40/7/1 48/8/1
f 55/1/1 56/2/1 48/3/1 47/4/1
f 96/6/1 76/9/1 75/10/1 95/5/1
f 33/11/7 34/5/7 26/6/4 25/12/4
f 79/13/1 4/14/1 32/8/1 78/5/1
f 81/2/5 82/3/5 20/4/5 18/1/5
f 47/1/1 48/2/1 40/3/1 39/4/1
f 74/3/1 64/4/1 72/1/1 73/2/1
f 75/13/1 56/14/1 64/8/1 74/5/1
f 22/1/6 91/15/6 92/3/6 23/4/6
f 80/3/1 3/4/1 4/1/1 79/2/1
f 43/16/3 87/4/3 88/6/3 51/7/3
f 36/1/3 35/2/3 43/3/3 44/4/3
f 14/4/4 16/1/4 15/2/4 13/3/4
f 35/8/3 86/5/3 87/13/3 43/14/3
f 12/1/3 11/2/3 9/3/3 10/4/3
f 44/1/3 43/2/3 51/3/3 52/4/3
f 10/1/3 9/2/3 27/3/3 28/4/3
f 78/6/1 32/7/1 40/8/1 77/5/1
f 2/1/1 4/2/1 3/3/1 1/4/1
f 52/1/3 51/2/3 59/3/3 60/4/3
f 24/1/6 22/15/6 23/3/6 21/4/6
f 39/1/1 40/2/1 32/3/1 31/4/1
f 18/2/5 20/3/5 19/4/5 17/1/5
f 28/1/3 27/2/3 35/3/3 36/4/3
f 101/15/5 102/17/5 82/18/5 81/19/5
f 98/20/1 78/21/1 77/22/1 97/23/1
f 51/8/3 88/5/3 89/13/3 59/14/3
f 105/24/3 85/25/3 83/26/3 104/23/3
f 8/4/2 6/1/2 7/2/2 5/3/2
f 106/24/3 86/25/3 85/26/3 105/23/3
f 41/11/7 42/5/7 34/13/7 33/27/7
f 25/11/4 26/5/4 16/13/4 14/27/4
f 75/5/1 76/6/1 48/7/1 56/8/1
f 63/1/1 64/2/1 56/3/1 55/4/1
f 6/4/2 29/1/2 30/2/2 7/3/2
f 45/4/2 53/1/2 54/2/2 46/3/2
f 89/19/3 109/15/3 110/17/3 90/18/3
f 11/1/3 84/2/3 83/3/3 9/4/3
f 49/11/8 50/5/8 42/13/7 41/27/7
f 27/8/3 85/5/3 86/6/3 35/7/3
f 59/1/3 89/2/3 90/3/3 67/4/3
f 9/8/3 83/5/3 85/6/3 27/7/3
f 29/4/2 37/1/2 38/2/2 30/3/2
f 53/4/2 61/1/2 62/2/2 54/3/2
f 107/13/3 87/28/3 86/26/3 106/23/3
f 57/11/8 58/5/8 50/6/8 49/12/8
f 94/23/1 95/13/1 75/21/1 74/22/1
f 94/17/1 74/18/1 73/19/1 93/15/1
f 64/3/1 63/4/1 71/1/1 72/2/1
f 97/24/1 77/29/1 76/22/1 96/5/1
f 70/1/2 69/2/2 62/3/2 61/4/2
f 99/24/1 79/29/1 78/22/1 98/23/1
f 60/1/3 59/2/3 67/3/3 68/4/3
f 104/17/3 83/18/3 84/19/3 103/15/3
f 109/20/3 89/28/3 88/26/3 108/5/3
f 100/17/1 80/18/1 79/19/1 99/15/1
f 108/30/3 88/31/3 87/32/3 107/18/3
f 58/2/8 57/3/8 65/4/4 66/1/4
f 91/19/6 111/15/6 112/17/6 92/18/6
