# Blender 5.0.1
# www.blender.org
mtllib BP_Milkjug.mtl
o SM_Milkjug.001
v -18.750000 -18.750000 43.750000
v 18.749998 -18.749998 -0.000001
v 18.750000 -18.750000 43.750000
v -18.750000 -18.749998 -0.000001
v 18.749998 -18.749998 -0.000001
v -18.750000 -18.749998 -0.000001
v -18.750000 18.749998 0.000001
v 18.750000 18.749998 0.000001
v 18.750000 -18.750000 43.750000
v 18.749998 -18.749998 -0.000001
v 18.750000 18.749996 43.750000
v 18.750000 18.749998 0.000001
v -18.750000 -18.750000 43.750000
v -18.750000 18.749998 0.000001
v -18.750000 -18.749998 -0.000001
v -18.750000 18.749996 43.750000
v 18.750000 18.749998 0.000001
v -18.750000 18.749998 0.000001
v -18.750000 18.749996 43.750000
v 18.750000 18.749996 43.750000
v -18.750000 -18.750000 43.750000
v 18.750000 -18.750000 43.750000
v 12.500000 -12.500002 50.000000
v -12.500000 -12.500002 50.000000
v 18.750000 -18.750000 43.750000
v 18.750000 18.749996 43.750000
v 12.500000 12.499998 50.000000
v 12.500000 -12.500002 50.000000
v 18.750000 18.749996 43.750000
v -18.750000 18.749996 43.750000
v -12.500000 12.499998 50.000000
v 12.500000 12.499998 50.000000
v -18.750000 18.749996 43.750000
v -18.750000 -18.750000 43.750000
v -12.500000 -12.500002 50.000000
v -12.500000 12.499998 50.000000
v 12.499999 -12.500003 68.750000
v -12.500000 -12.500003 68.750000
v -12.500000 -12.500002 50.000000
v 12.500000 -12.500002 50.000000
v 12.499999 -12.500003 68.750000
v 12.500000 -12.500002 50.000000
v 12.499999 12.499996 68.750000
v 12.500000 12.499998 50.000000
v -12.500000 12.499998 50.000000
v 12.499999 12.499996 68.750000
v 12.500000 12.499998 50.000000
v -12.500000 12.499997 68.750000
v -12.500000 -12.500003 68.750000
v -12.500000 12.499998 50.000000
v -12.500000 -12.500002 50.000000
v -12.500000 12.499997 68.750000
v 18.750000 -18.750004 75.000000
v -18.750000 -18.750004 75.000000
v -18.750000 -18.750004 68.750000
v 18.750000 -18.750004 68.750000
v 18.750000 18.749996 75.000000
v 18.750000 -18.750004 75.000000
v 18.750000 -18.750004 68.750000
v 18.750000 18.749996 68.749992
v -18.750000 18.749996 68.750000
v 18.750000 18.749996 75.000000
v 18.750000 18.749996 68.749992
v -18.750000 18.749996 75.000000
v -18.750000 -18.750004 75.000000
v -18.750000 18.749996 68.750000
v -18.750000 -18.750004 68.750000
v -18.750000 18.749996 75.000000
v -18.750000 -18.750004 68.750000
v 12.499999 -12.500003 68.750000
v 18.750000 -18.750004 68.750000
v -12.500000 -12.500003 68.750000
v 12.499999 12.499996 68.750000
v 18.750000 18.749996 68.749992
v 18.750000 -18.750004 75.000000
v 18.750000 18.749996 75.000000
v -18.750000 -18.750004 75.000000
v -18.750000 18.749996 75.000000
v -12.500000 12.499997 68.750000
v -18.750000 18.749996 68.750000
vn -0.0000 -1.0000 -0.0000
vn -0.0000 -0.0000 -1.0000
vn 1.0000 -0.0000 -0.0000
vn -1.0000 -0.0000 -0.0000
vn -0.0000 1.0000 -0.0000
vn -0.0000 -0.7071 0.7071
vn 0.7071 -0.0000 0.7071
vn -0.0000 0.7071 0.7071
vn -0.7071 -0.0000 0.7071
vn -0.0000 -0.0000 1.0000
vt 0.000031 0.875000
vt 0.000031 0.656250
vt 0.187500 0.656250
vt 0.187500 0.875000
vt 0.031250 0.999969
vt 0.031250 0.906250
vt 0.156250 0.906250
vt 0.156250 0.999969
vt 0.375000 0.656250
vt 0.375000 0.875000
vt 0.562500 0.781250
vt 0.562500 0.812500
vt 0.375000 0.812500
vt 0.375000 0.781250
vt 0.187500 0.468750
vt 0.000031 0.468750
vt 0.343750 0.906250
vt 0.218750 0.906250
vt 0.343750 0.999969
vt 0.218750 0.999969
vt 0.593750 0.812500
vt 0.593750 0.999969
vt 0.562500 0.999969
vt 0.531250 0.750000
vt 0.406250 0.750000
vt 0.625000 0.968750
vt 0.625000 0.843750
vt 0.375000 0.999969
s 1
usemtl MI_Milkjug
f 16/1/4 14/2/4 15/3/4 13/4/4
f 52/5/4 50/6/4 51/7/4 49/8/4
f 4/3/1 2/9/1 3/10/1 1/4/1
f 56/11/1 53/12/1 54/13/1 55/14/1
f 8/15/2 5/3/2 6/2/2 7/16/2
f 23/17/6 21/4/6 22/10/6
f 24/18/6 21/4/6 23/17/6
f 27/7/7 25/1/7 26/4/7
f 28/6/7 25/1/7 27/7/7
f 31/17/8 29/4/8 30/10/8
f 32/18/8 29/4/8 31/17/8
f 35/7/9 33/1/9 34/4/9
f 36/6/9 33/1/9 35/7/9
f 48/19/5 46/20/5 47/18/5 45/17/5
f 10/2/3 12/3/3 11/4/3 9/1/3
f 68/12/4 66/21/4 67/22/4 65/23/4
f 42/6/3 44/7/3 43/8/3 41/5/3
f 40/17/1 37/19/1 38/20/1 39/18/1
f 64/12/5 62/13/5 63/14/5 61/11/5
f 59/21/3 60/22/3 57/23/3 58/12/3
f 71/11/2 69/14/2 70/24/2
f 72/25/2 70/24/2 69/14/2
f 74/22/2 71/21/2 73/26/2
f 70/27/2 73/26/2 71/21/2
f 20/4/5 17/3/5 18/9/5 19/10/5
f 73/25/2 79/24/2 74/14/2
f 80/11/2 74/14/2 79/24/2
f 72/26/2 69/22/2 79/27/2
f 79/27/2 69/22/2 80/21/2
f 78/12/10 77/23/10 75/28/10 76/13/10
