# Blender 5.0.1
# www.blender.org
mtllib BP_Marketbox_Apple.mtl
o SM_Fruitbox_Applebox.001
v 50.000008 -50.000008 37.499996
v -50.000008 -50.000008 37.499996
v -50.000008 -50.000008 -0.000002
v 50.000008 -50.000008 -0.000002
v 43.500004 43.500004 31.250000
v -43.500004 -43.500004 31.249996
v 43.500004 -43.500004 31.249996
v -43.500004 43.500004 31.250000
v 50.000008 50.000008 0.000002
v -50.000008 50.000008 0.000002
v -50.000008 50.000008 37.500004
v 50.000008 50.000008 37.500004
v 50.000008 -50.000008 -0.000002
v -50.000008 -50.000008 -0.000002
v -50.000008 50.000008 0.000002
v 50.000008 50.000008 0.000002
v 50.000008 50.000008 37.500004
v 50.000008 -50.000008 37.499996
v 50.000008 -50.000008 -0.000002
v 50.000008 50.000008 0.000002
v -50.000008 -50.000008 37.499996
v -50.000008 50.000008 0.000002
v -50.000008 -50.000008 -0.000002
v -50.000008 50.000008 37.500004
v 43.500004 -43.500004 31.249996
v -43.500004 -43.500004 31.249996
v -43.500004 -43.500004 37.500000
v 43.500004 -43.500004 37.500000
v 43.500004 43.500004 31.250000
v 43.500004 -43.500004 31.249996
v 43.500004 -43.500004 37.500000
v 43.500004 43.500004 37.500000
v -43.500004 43.500004 31.250000
v 43.500004 43.500004 37.500000
v -43.500004 43.500004 37.500000
v 43.500004 43.500004 31.250000
v -43.500004 -43.500004 31.249996
v -43.500004 43.500004 37.500000
v -43.500004 -43.500004 37.500000
v -43.500004 43.500004 31.250000
v -50.000008 -50.000008 37.499996
v 50.000008 -50.000008 37.499996
v 43.500004 -43.500004 37.500000
v -43.500004 -43.500004 37.500000
v 50.000008 50.000008 37.500004
v 43.500004 43.500004 37.500000
v -50.000008 50.000008 37.500004
v -43.500004 43.500004 37.500000
vn -0.0000 -1.0000 -0.0000
vn -0.0000 -0.0000 1.0000
vn -0.0000 1.0000 -0.0000
vn -0.0000 -0.0000 -1.0000
vn 1.0000 -0.0000 -0.0000
vn -1.0000 -0.0000 -0.0000
vt 1.000000 0.468750
vt 0.500000 0.468750
vt 0.500000 0.281250
vt 1.000000 0.281250
vt 1.000000 0.531250
vt 1.000000 0.968750
vt 0.968750 0.968750
vt 0.968750 0.531250
vt 0.500000 0.000000
vt 0.500000 0.500000
vt 0.000031 0.500000
vt 0.000031 0.000000
vt 0.500000 0.093750
vt 1.000000 0.093750
vt 0.531250 0.968750
vt 0.531250 0.531250
vt 0.968750 0.999969
vt 0.531250 0.999969
vt 0.968750 0.500000
vt 0.531250 0.500000
vt 0.531250 0.062500
vt 0.968750 0.062500
vt 0.531250 0.250000
vt 0.968750 0.250000
vt 0.500000 0.968750
vt 0.500000 0.531250
s 1
usemtl WorldGridMaterial
f 19/1/5 20/2/5 17/3/5 18/4/5
f 31/5/6 32/6/6 29/7/6 30/8/6
f 16/9/4 13/10/4 14/11/4 15/12/4
f 4/3/1 1/13/1 2/14/1 3/4/1
f 8/15/2 6/16/2 7/8/2 5/7/2
f 36/7/1 34/17/1 35/18/1 33/15/1
f 24/4/6 22/1/6 23/2/6 21/3/6
f 28/19/3 25/8/3 26/16/3 27/20/3
f 12/14/3 9/4/3 10/3/3 11/13/3
f 43/21/2 41/14/2 42/13/2
f 44/22/2 41/14/2 43/21/2
f 46/23/2 42/4/2 45/3/2
f 43/24/2 42/4/2 46/23/2
f 48/21/2 45/14/2 47/13/2
f 46/22/2 45/14/2 48/21/2
f 44/23/2 47/4/2 41/3/2
f 48/24/2 47/4/2 44/23/2
f 40/15/5 38/25/5 39/26/5 37/16/5
