# Blender 5.0.1
# www.blender.org
mtllib BP_Mushrooms_Patch4.mtl
o SM_Mushrooms_New_Patch4.001
v -56.250000 -62.508923 -118.750000
v -106.250000 -62.508923 -118.750000
v -106.250000 -37.526768 -118.750000
v -56.250000 -37.526768 -118.750000
v -56.250000 -37.526768 -68.750000
v -106.250000 -37.526768 -68.750000
v -106.250000 -62.508923 -68.750000
v -56.250000 -62.508923 -68.750000
v -56.250000 -37.526768 -118.750000
v -106.250000 -37.526768 -118.750000
v -106.250000 -37.526768 -68.750000
v -56.250000 -37.526768 -68.750000
v -56.250000 -62.508923 -68.750000
v -56.250000 -62.508923 -118.750000
v -56.250000 -37.526768 -118.750000
v -56.250000 -37.526768 -68.750000
v -106.250000 -62.508923 -118.750000
v -106.250000 -37.526768 -68.750000
v -106.250000 -37.526768 -118.750000
v -106.250000 -62.508923 -68.750000
v -106.250000 -62.508923 -118.750000
v -56.250000 -62.508923 -118.750000
v -106.250000 -62.508923 -68.750000
v -56.250000 -62.508923 -68.750000
v -68.750000 -37.491070 -106.250000
v -93.750000 -37.491070 -106.250000
v -93.750000 -0.000012 -106.250000
v -68.750000 -0.000012 -106.250000
v -68.750000 -0.000013 -81.250000
v -93.750000 -0.000013 -81.250000
v -93.750000 -37.491070 -81.250000
v -68.750000 -37.491070 -81.250000
v -68.750000 -37.491070 -106.250000
v -68.750000 -0.000012 -106.250000
v -68.750000 -37.491070 -81.250000
v -68.750000 -0.000013 -81.250000
v -93.750000 -37.491070 -106.250000
v -93.750000 -0.000013 -81.250000
v -93.750000 -0.000012 -106.250000
v -93.750000 -37.491070 -81.250000
v 143.750000 -68.749992 -93.750000
v 81.250000 -68.749992 -93.750000
v 81.250000 -37.517845 -93.750000
v 143.750000 -37.517845 -93.750000
v 143.750000 -37.517849 -31.250002
v 81.250000 -37.517849 -31.250002
v 81.250000 -68.750000 -31.250004
v 143.750000 -68.750000 -31.250004
v 143.750000 -37.517845 -93.750000
v 81.250000 -37.517845 -93.750000
v 81.250000 -37.517849 -31.250002
v 143.750000 -37.517849 -31.250002
v 143.750000 -68.750000 -31.250004
v 143.750000 -68.749992 -93.750000
v 143.750000 -37.517845 -93.750000
v 143.750000 -37.517849 -31.250002
v 81.250000 -68.749992 -93.750000
v 81.250000 -37.517849 -31.250002
v 81.250000 -37.517845 -93.750000
v 81.250000 -68.750000 -31.250004
v 81.250000 -68.749992 -93.750000
v 143.750000 -68.749992 -93.750000
v 81.250000 -68.750000 -31.250004
v 143.750000 -68.750000 -31.250004
v 125.000000 -37.482147 -75.000000
v 100.000000 -37.482147 -75.000000
v 100.000000 -0.000014 -75.000000
v 125.000000 -0.000014 -75.000000
v 125.000000 -0.000015 -50.000000
v 100.000000 -0.000015 -50.000000
v 100.000000 -37.482147 -50.000000
v 125.000000 -37.482147 -50.000000
v 125.000000 -37.482147 -75.000000
v 125.000000 -0.000014 -75.000000
v 125.000000 -37.482147 -50.000000
v 125.000000 -0.000015 -50.000000
v 100.000000 -37.482147 -75.000000
v 100.000000 -0.000015 -50.000000
v 100.000000 -0.000014 -75.000000
v 100.000000 -37.482147 -50.000000
v 43.750004 -100.000000 -43.750008
v -56.250004 -100.000000 -43.750008
v -56.250004 -62.499996 -43.750008
v 43.750004 -62.499996 -43.750008
v 43.750004 -62.500004 56.250000
v -56.250004 -62.500004 56.250000
v -56.250004 -100.000000 56.250000
v 43.750004 -100.000000 56.250000
v 43.750004 -62.499996 -43.750008
v -56.250004 -62.499996 -43.750008
v -56.250004 -62.500004 56.250000
v 43.750004 -62.500004 56.250000
v 43.750004 -100.000000 56.250000
v 43.750004 -100.000000 -43.750008
v 43.750004 -62.499996 -43.750008
v 43.750004 -62.500004 56.250000
v -56.250004 -100.000000 -43.750008
v -56.250004 -62.500004 56.250000
v -56.250004 -62.499996 -43.750008
v -56.250004 -100.000000 56.250000
v -18.749998 -62.464302 -6.250002
v -18.749998 -0.000017 -6.249999
v 6.249999 -62.464302 -6.250002
v 6.249999 -0.000017 -6.249999
v -18.749998 -0.000018 18.749998
v -18.749998 -62.464302 18.749996
v 6.249999 -0.000018 18.749998
v 6.249999 -62.464302 18.749996
v 6.249999 -0.000018 18.749998
v 6.249999 -62.464302 18.749996
v 6.249999 -0.000017 -6.249999
v 6.249999 -62.464302 -6.250002
v -18.749998 -62.464302 -6.250002
v -18.749998 -0.000018 18.749998
v -18.749998 -0.000017 -6.249999
v -18.749998 -62.464302 18.749996
v -56.250004 -100.000000 -43.750008
v 43.750004 -100.000000 -43.750008
v -56.250004 -100.000000 56.250000
v 43.750004 -100.000000 56.250000
vn -0.0000 -0.0000 -1.0000
vn -0.0000 -0.0000 1.0000
vn -0.0000 1.0000 -0.0000
vn 1.0000 -0.0000 -0.0000
vn -1.0000 -0.0000 -0.0000
vn -0.0000 -1.0000 -0.0000
vt 0.625000 0.843750
vt 0.625000 0.895874
vt 0.520508 0.895874
vt 0.520508 0.843750
vt 0.541504 0.375000
vt 0.604004 0.375000
vt 0.604004 0.416992
vt 0.541504 0.416992
vt 0.583008 0.093750
vt 0.583008 0.145996
vt 0.479004 0.145996
vt 0.479004 0.093750
vt 0.604004 0.333496
vt 0.541504 0.333496
vt 0.541504 0.291992
vt 0.604004 0.291992
vt 0.541504 0.458496
vt 0.604004 0.458496
vt 0.604004 0.625000
vt 0.541504 0.625000
vt 0.520508 0.739746
vt 0.625000 0.739746
vt 0.583008 0.229492
vt 0.500000 0.229492
vt 0.500000 0.145996
vt 0.458252 0.104492
vt 0.458252 0.145996
vt 0.375000 0.145996
vt 0.375000 0.104492
vt 0.562500 0.729248
vt 0.562500 0.625000
vt 0.604004 0.729248
vt 0.458252 0.229492
vt 0.520508 0.625000
vt 0.520508 0.729248
vt 0.520508 0.999969
vt 0.625000 0.999969
vt 0.375000 0.229492
vt 0.375000 0.395996
vt 0.541504 0.395996
vt 0.375000 0.458496
vt 0.375000 0.625000
vt 0.541504 0.229492
s 1
usemtl MI_Mushrooms
f 48/1/2 45/2/2 46/3/2 47/4/2
f 68/5/1 65/6/1 66/7/1 67/8/1
f 60/9/5 58/10/5 59/11/5 57/12/5
f 40/13/5 38/14/5 39/15/5 37/16/5
f 88/17/2 85/18/2 86/19/2 87/20/2
f 44/3/1 41/4/1 42/1/1 43/2/1
f 62/4/6 64/21/6 63/22/6 61/1/6
f 34/14/4 36/15/4 35/16/4 33/13/4
f 12/10/3 9/23/3 10/24/3 11/25/3
f 4/26/1 1/27/1 2/28/1 3/29/1
f 8/28/2 5/29/2 6/26/2 7/27/2
f 104/30/1 103/31/1 101/19/1 102/32/1
f 20/27/5 18/25/5 19/24/5 17/33/5
f 74/17/4 76/8/4 75/7/4 73/18/4
f 15/25/4 16/24/4 13/33/4 14/27/4
f 108/19/2 107/32/2 105/30/2 106/31/2
f 32/6/2 29/5/2 30/14/2 31/13/2
f 28/14/1 25/13/1 26/6/1 27/5/1
f 72/7/2 69/8/2 70/5/2 71/6/2
f 110/34/4 112/31/4 111/30/4 109/35/4
f 52/36/3 49/3/3 50/2/3 51/37/3
f 22/38/6 24/28/6 23/27/6 21/33/6
f 55/10/4 56/11/4 53/12/4 54/9/4
f 80/18/5 78/17/5 79/8/5 77/7/5
f 95/39/4 96/40/4 93/17/4 94/41/4
f 100/41/5 98/39/5 99/40/5 97/17/5
f 118/20/6 120/42/6 119/41/6 117/17/6
f 84/19/1 81/20/1 82/17/1 83/18/1
f 92/38/3 89/43/3 90/40/3 91/39/3
f 116/31/5 114/30/5 115/35/5 113/34/5
