# Blender 5.0.1
# www.blender.org
mtllib BP_MinecartIron_NOAudio.mtl
o SM_IronIngot_Small.001
v -12.500000 25.000004 24.999996
v -12.500000 -25.000000 0.000004
v -12.500000 -24.999996 25.000004
v -12.500000 25.000000 -0.000004
v 18.750000 25.000004 24.999996
v -12.500000 25.000000 -0.000004
v -12.500000 25.000004 24.999996
v 18.750000 25.000000 -0.000004
v 18.750000 -24.999996 25.000004
v 18.750000 25.000000 -0.000004
v 18.750000 25.000004 24.999996
v 18.750000 -25.000000 0.000004
v -12.500000 -24.999996 25.000004
v 18.750000 -25.000000 0.000004
v 18.750000 -24.999996 25.000004
v -12.500000 -25.000000 0.000004
v 18.750000 -25.000000 0.000004
v -12.500000 -25.000000 0.000004
v -12.500000 25.000000 -0.000004
v 18.750000 25.000000 -0.000004
v -12.500000 25.000004 24.999996
v -12.500000 -24.999996 25.000004
v 18.750000 25.000004 24.999996
v 18.750000 -24.999996 25.000004
vn -1.0000 -0.0000 -0.0000
vn -0.0000 1.0000 -0.0000
vn 1.0000 -0.0000 -0.0000
vn -0.0000 -1.0000 -0.0000
vn -0.0000 -0.0000 -1.0000
vn -0.0000 -0.0000 1.0000
vt 0.000031 0.437500
vt 0.500000 0.437500
vt 0.500000 0.750000
vt 0.000031 0.750000
vt 1.000000 0.999969
vt 0.500000 0.999969
vt 1.000000 0.750000
vt 0.500000 0.187500
vt 1.000000 0.187500
vt 1.000000 0.437500
vt 0.187500 0.750000
vt 0.187500 0.999969
vt 0.187500 0.187500
vt 0.187500 0.437500
s 1
usemtl MI_IronIngot_Small
f 20/1/5 17/2/5 18/3/5 19/4/5
f 12/5/3 10/6/3 11/3/3 9/7/3
f 4/8/1 2/9/1 3/10/1 1/2/1
f 16/11/4 14/3/4 15/6/4 13/12/4
f 8/13/2 6/8/2 7/2/2 5/14/2
f 24/7/6 23/3/6 21/2/6 22/10/6
