# Blender 5.0.1
# www.blender.org
mtllib BP_Mushrooms_Size_3.mtl
o SM_Mushrooms_New_NoVoxelsWOAH_Size_3.001
v 50.000004 -100.000000 -50.000008
v -50.000004 -100.000000 -50.000008
v -50.000004 -62.499996 -50.000008
v 50.000004 -62.499996 -50.000008
v 50.000004 -62.500004 50.000000
v -50.000004 -62.500004 50.000000
v -50.000004 -100.000000 50.000000
v 50.000004 -100.000000 50.000000
v 50.000004 -62.499996 -50.000008
v -50.000004 -62.499996 -50.000008
v -50.000004 -62.500004 50.000000
v 50.000004 -62.500004 50.000000
v 50.000004 -100.000000 50.000000
v 50.000004 -100.000000 -50.000008
v 50.000004 -62.499996 -50.000008
v 50.000004 -62.500004 50.000000
v -50.000004 -100.000000 -50.000008
v -50.000004 -62.500004 50.000000
v -50.000004 -62.499996 -50.000008
v -50.000004 -100.000000 50.000000
v -12.499999 -62.464302 -12.500002
v -12.499999 -0.000016 -12.499999
v 12.499999 -62.464302 -12.500002
v 12.499999 -0.000016 -12.499999
v -12.499999 -0.000018 12.499999
v -12.499999 -62.464302 12.499996
v 12.499999 -0.000018 12.499999
v 12.499999 -62.464302 12.499996
v 12.499999 -0.000018 12.499999
v 12.499999 -62.464302 12.499996
v 12.499999 -0.000016 -12.499999
v 12.499999 -62.464302 -12.500002
v -12.499999 -62.464302 -12.500002
v -12.499999 -0.000018 12.499999
v -12.499999 -0.000016 -12.499999
v -12.499999 -62.464302 12.499996
v -50.000004 -100.000000 -50.000008
v 50.000004 -100.000000 -50.000008
v -50.000004 -100.000000 50.000000
v 50.000004 -100.000000 50.000000
vn -0.0000 -0.0000 -1.0000
vn -0.0000 -0.0000 1.0000
vn -0.0000 1.0000 -0.0000
vn 1.0000 -0.0000 -0.0000
vn -1.0000 -0.0000 -0.0000
vn -0.0000 -1.0000 -0.0000
vt 0.541504 0.458496
vt 0.604004 0.458496
vt 0.604004 0.625000
vt 0.541504 0.625000
vt 0.562500 0.729248
vt 0.562500 0.625000
vt 0.604004 0.729248
vt 0.375000 0.625000
vt 0.375000 0.458496
vt 0.375000 0.395996
vt 0.541504 0.395996
vt 0.520508 0.625000
vt 0.520508 0.729248
vt 0.375000 0.229492
vt 0.541504 0.229492
s 1
usemtl MI_Mushrooms
f 8/1/2 5/2/2 6/3/2 7/4/2
f 24/5/1 23/6/1 21/3/1 22/7/1
f 28/3/2 27/7/2 25/5/2 26/6/2
f 4/3/1 1/4/1 2/1/1 3/2/1
f 38/4/6 40/8/6 39/9/6 37/1/6
f 20/9/5 18/10/5 19/11/5 17/1/5
f 15/10/4 16/11/4 13/1/4 14/9/4
f 30/12/4 32/6/4 31/5/4 29/13/4
f 12/14/3 9/15/3 10/11/3 11/10/3
f 36/6/5 34/5/5 35/13/5 33/12/5
