# Blender 5.0.1
# www.blender.org
mtllib BP_MovingCart_Iron.mtl
o SM_IronIngot_Small.001
v -32.500000 5.000004 37.999996
v -32.500000 -45.000000 13.000004
v -32.500000 -44.999996 38.000004
v -32.500000 5.000000 12.999996
v -1.250000 5.000004 37.999996
v -32.500000 5.000000 12.999996
v -32.500000 5.000004 37.999996
v -1.250000 5.000000 12.999996
v -1.250000 -44.999996 38.000004
v -1.250000 5.000000 12.999996
v -1.250000 5.000004 37.999996
v -1.250000 -45.000000 13.000004
v -32.500000 -44.999996 38.000004
v -1.250000 -45.000000 13.000004
v -1.250000 -44.999996 38.000004
v -32.500000 -45.000000 13.000004
v -1.250000 -45.000000 13.000004
v -32.500000 -45.000000 13.000004
v -32.500000 5.000000 12.999996
v -1.250000 5.000000 12.999996
v -32.500000 5.000004 37.999996
v -32.500000 -44.999996 38.000004
v -1.250000 5.000004 37.999996
v -1.250000 -44.999996 38.000004
vn -1.0000 -0.0000 -0.0000
vn -0.0000 1.0000 -0.0000
vn 1.0000 -0.0000 -0.0000
vn -0.0000 -1.0000 -0.0000
vn -0.0000 -0.0000 -1.0000
vn -0.0000 -0.0000 1.0000
vt 0.000031 0.437500
vt 0.500000 0.437500
vt 0.500000 0.750000
vt 0.000031 0.750000
vt 1.000000 0.999969
vt 0.500000 0.999969
vt 1.000000 0.750000
vt 0.500000 0.187500
vt 1.000000 0.187500
vt 1.000000 0.437500
vt 0.187500 0.750000
vt 0.187500 0.999969
vt 0.187500 0.187500
vt 0.187500 0.437500
s 1
usemtl MI_IronIngot_Small
f 20/1/5 17/2/5 18/3/5 19/4/5
f 12/5/3 10/6/3 11/3/3 9/7/3
f 4/8/1 2/9/1 3/10/1 1/2/1
f 16/11/4 14/3/4 15/6/4 13/12/4
f 8/13/2 6/8/2 7/2/2 5/14/2
f 24/7/6 23/3/6 21/2/6 22/10/6
