# Blender 5.0.1
# www.blender.org
mtllib BP_Mushrooms_Size_1.mtl
o SM_Mushrooms_New_NoVoxelsWOAH_Size_1.001
v 25.000000 -62.508926 -25.000002
v -25.000000 -62.508926 -25.000002
v -25.000000 -37.526772 -25.000002
v 25.000000 -37.526772 -25.000002
v 25.000000 -37.526772 24.999998
v -25.000000 -37.526772 24.999998
v -25.000000 -62.508926 24.999998
v 25.000000 -62.508926 24.999998
v 25.000000 -37.526772 -25.000002
v -25.000000 -37.526772 -25.000002
v -25.000000 -37.526772 24.999998
v 25.000000 -37.526772 24.999998
v 25.000000 -62.508926 24.999998
v 25.000000 -62.508926 -25.000002
v 25.000000 -37.526772 -25.000002
v 25.000000 -37.526772 24.999998
v -25.000000 -62.508926 -25.000002
v -25.000000 -37.526772 24.999998
v -25.000000 -37.526772 -25.000002
v -25.000000 -62.508926 24.999998
v -25.000000 -62.508926 -25.000002
v 25.000000 -62.508926 -25.000002
v -25.000000 -62.508926 24.999998
v 25.000000 -62.508926 24.999998
v 12.500000 -37.491074 -12.500001
v -12.500000 -37.491074 -12.500001
v -12.500000 -0.000016 -12.499999
v 12.500000 -0.000016 -12.499999
v 12.500000 -0.000018 12.499999
v -12.500000 -0.000018 12.499999
v -12.500000 -37.491074 12.499997
v 12.500000 -37.491074 12.499997
v 12.500000 -37.491074 -12.500001
v 12.500000 -0.000016 -12.499999
v 12.500000 -37.491074 12.499997
v 12.500000 -0.000018 12.499999
v -12.500000 -37.491074 -12.500001
v -12.500000 -0.000018 12.499999
v -12.500000 -0.000016 -12.499999
v -12.500000 -37.491074 12.499997
vn -0.0000 -0.0000 -1.0000
vn -0.0000 -0.0000 1.0000
vn -0.0000 1.0000 -0.0000
vn 1.0000 -0.0000 -0.0000
vn -1.0000 -0.0000 -0.0000
vn -0.0000 -1.0000 -0.0000
vt 0.458252 0.145996
vt 0.500000 0.145996
vt 0.500000 0.229492
vt 0.458252 0.229492
vt 0.604004 0.375000
vt 0.541504 0.375000
vt 0.541504 0.333496
vt 0.604004 0.333496
vt 0.458252 0.104492
vt 0.375000 0.145996
vt 0.375000 0.104492
vt 0.541504 0.291992
vt 0.604004 0.291992
vt 0.375000 0.229492
vt 0.583008 0.145996
vt 0.583008 0.229492
s 1
usemtl MI_Mushrooms
f 20/1/5 18/2/5 19/3/5 17/4/5
f 32/5/2 29/6/2 30/7/2 31/8/2
f 15/2/4 16/3/4 13/4/4 14/1/4
f 4/9/1 1/1/1 2/10/1 3/11/1
f 8/10/2 5/11/2 6/9/2 7/1/2
f 34/7/4 36/12/4 35/13/4 33/8/4
f 22/14/6 24/10/6 23/1/6 21/4/6
f 28/7/1 25/8/1 26/5/1 27/6/1
f 12/15/3 9/16/3 10/3/3 11/2/3
f 40/8/5 38/7/5 39/12/5 37/13/5
