# Blender 5.0.1
# www.blender.org
mtllib BP_NetherPortal_Crimson06.mtl
o SM__netherportal_crimson06.001
v -100.000000 -159.378036 100.000061
v -200.000000 -159.378036 100.000061
v -200.000000 -259.378021 100.000084
v -100.000000 -259.378021 100.000084
v -100.000000 -59.378036 100.000046
v -200.000000 -59.378036 100.000046
v -0.000019 -159.378021 100.000031
v 0.000000 -59.378036 100.000046
v -100.000000 40.621964 100.000031
v -200.000000 40.621964 100.000031
v 0.000010 40.621971 100.000000
v -200.000000 140.621948 99.999985
v -100.000000 140.621964 100.000000
v -100.000000 -259.378021 100.000084
v -200.000000 -259.378021 100.000084
v -200.000000 -259.378052 0.000080
v -100.000000 -259.378052 0.000080
v -200.000000 140.621948 99.999985
v -200.000000 40.621948 0.000032
v -200.000000 40.621964 100.000031
v -200.000000 140.621933 -0.000006
v -200.000000 -59.378036 100.000046
v -200.000000 -59.378052 0.000048
v -200.000000 -159.378036 100.000061
v -200.000000 -159.378052 0.000064
v -200.000000 -259.378021 100.000084
v -200.000000 -259.378052 0.000080
v 100.000000 -159.378021 50.000065
v 100.000000 -59.378052 0.000048
v 100.000000 -59.378044 50.000050
v 100.000000 -159.378052 0.000062
v 100.000008 40.621964 50.000000
v 100.000008 40.621956 0.000003
v -0.000029 -359.378021 100.000061
v -100.000000 -359.378021 100.000099
v -100.000000 -359.378052 0.000097
v -0.000010 -359.378052 0.000082
v 0.000000 -159.378021 200.000061
v -100.000000 -159.378036 100.000061
v -100.000000 -159.378021 200.000061
v -0.000019 -159.378021 100.000031
v -100.000015 -259.378021 200.000076
v -100.000000 -159.378021 200.000061
v -100.000000 -159.378036 100.000061
v -100.000000 -259.378021 100.000084
v -100.000015 -359.378021 200.000076
v -100.000000 -359.378021 100.000099
v 0.000000 -359.378021 200.000076
v -100.000015 -359.378021 200.000076
v 0.000000 -359.378021 200.000076
v -0.000035 -259.378021 100.000046
v 0.000000 -259.378021 200.000076
v -0.000029 -359.378021 100.000061
v 0.000000 40.621983 200.000031
v -100.000000 40.621983 200.000031
v -100.000000 40.621964 100.000031
v 0.000010 40.621971 100.000000
v -100.000000 140.621964 200.000000
v -100.000000 40.621964 100.000031
v -100.000000 40.621983 200.000031
v -100.000000 140.621964 100.000000
v 0.000000 40.621998 300.000061
v -100.000000 40.621998 300.000061
v 0.000000 40.621998 300.000061
v 0.000000 140.621964 200.000031
v 0.000000 140.621979 300.000031
v 0.000000 40.621983 200.000031
v -100.000000 140.621979 300.000031
v 0.000000 140.621979 300.000031
v 0.000000 140.621964 200.000031
v -100.000000 140.621964 200.000000
v -100.000000 140.621979 300.000031
v -100.000000 40.621998 300.000061
v -100.000000 -159.377869 400.000061
v -100.000000 -59.377987 400.000031
v 0.000000 -159.377975 400.000061
v 0.000000 -59.377987 400.000031
v -100.000000 -159.377853 500.000061
v -100.000000 -59.377987 400.000031
v -100.000000 -159.377869 400.000061
v -100.000015 -59.377968 500.000122
v -0.000008 -59.377968 500.000122
v -0.000003 -159.377975 500.000092
v 0.000000 -59.377987 400.000031
v 0.000000 -159.377975 400.000061
v -100.000000 40.622017 400.000061
v 0.000000 40.622017 400.000061
v -100.000000 40.622017 400.000061
v -100.000000 40.622032 500.000061
v 0.000000 90.622047 600.000000
v -100.000000 40.622055 600.000000
v 0.000003 40.622055 600.000000
v -100.000000 90.622047 600.000000
v 0.000000 40.622032 500.000061
v 0.000000 40.622017 400.000061
v -100.000000 -359.378052 0.000097
v -100.000000 -259.378052 0.000080
v 49.999992 -159.378021 50.000065
v 50.000000 -59.378036 100.000046
v 49.999992 -159.378021 100.000061
v 50.000000 -59.378044 50.000050
v 50.000008 40.621971 100.000000
v 50.000008 40.621964 50.000000
v 50.000015 140.621979 99.999962
v 50.000008 190.621964 49.999962
v 50.000008 190.621964 99.999962
v 50.000008 140.621964 49.999981
v 0.000000 90.621964 100.000023
v 0.000000 90.621956 50.000023
v 0.000004 140.621964 99.999985
v 0.000000 140.621964 50.000015
v 50.000008 190.621964 99.999962
v 0.000000 190.621964 49.999962
v 0.000000 190.621964 99.999969
v 50.000008 190.621964 49.999962
v 50.000008 190.621964 99.999962
v 0.000000 190.621964 99.999969
v 50.000015 140.621979 99.999962
v 0.000004 140.621964 99.999985
v 50.000000 -59.378036 100.000046
v 50.000008 40.621971 100.000000
v 49.999992 -159.378021 100.000061
v 100.000000 -59.378044 50.000050
v 49.999992 -159.378021 50.000065
v 100.000000 -159.378021 50.000065
v 50.000000 -59.378044 50.000050
v 100.000008 40.621964 50.000000
v 50.000008 40.621964 50.000000
v -0.000002 -59.377945 600.000000
v 0.000003 40.622055 600.000000
v 0.000010 -59.377926 650.000000
v 0.000010 40.622074 650.000000
v -100.000015 -59.377937 650.000000
v -0.000002 -59.377945 600.000000
v 0.000010 -59.377926 650.000000
v -100.000015 -59.377945 600.000000
v 0.000003 40.622055 600.000000
v -100.000000 40.622074 650.000000
v 0.000010 40.622074 650.000000
v -100.000000 40.622055 600.000000
v -100.000000 40.622074 650.000000
v 0.000010 -59.377926 650.000000
v 0.000010 40.622074 650.000000
v -100.000015 -59.377937 650.000000
v -100.000000 140.622040 550.000000
v 0.000000 140.622040 550.000000
v 0.000000 140.622009 500.000031
v -100.000000 140.622025 500.000000
v -100.000000 140.622040 550.000000
v -100.000000 90.622032 500.000031
v -100.000000 90.622040 550.000000
v -100.000000 140.622025 500.000000
v -100.000000 90.622040 550.000000
v 0.000000 140.622040 550.000000
v -100.000000 140.622040 550.000000
v 0.000000 90.622040 550.000000
v 0.000000 90.622040 550.000000
v 0.000000 140.622009 500.000031
v 0.000000 140.622040 550.000000
v 0.000000 90.622032 500.000031
v -100.000000 90.622047 600.000000
v 0.000000 90.622047 600.000000
v 0.000000 90.622040 550.000000
v -100.000000 90.622040 550.000000
v 0.000000 40.622017 400.000061
v -100.000000 40.622017 400.000061
v 0.000000 140.621994 400.000031
v -100.000000 140.621994 400.000031
v 0.000000 140.621994 400.000031
v -100.000000 140.621994 400.000031
v 0.000000 140.622009 500.000031
v -100.000000 140.622025 500.000000
v -100.000000 40.622032 500.000061
v 0.000000 40.622032 500.000061
v -0.000008 -59.377968 500.000122
v -100.000015 -59.377968 500.000122
v -100.000000 -159.377853 500.000061
v -0.000003 -159.377975 500.000092
v -0.000008 -59.377968 500.000122
v -100.000015 -59.377968 500.000122
v -100.000015 -259.378021 200.000076
v 0.000000 -359.378021 200.000076
v 0.000000 -259.378021 200.000076
v -100.000015 -359.378021 200.000076
v 99.999969 -359.378021 100.000038
v 100.000000 -259.378052 0.000064
v 99.999992 -259.378021 100.000038
v 99.999985 -359.378052 0.000068
v 99.999969 -359.378021 100.000038
v 99.999985 -359.378052 0.000068
v -0.000035 -259.378021 100.000046
v 99.999969 -359.378021 100.000038
v 99.999992 -259.378021 100.000038
v -0.000029 -359.378021 100.000061
v 100.000000 -159.378021 100.000038
v 100.000000 -159.378021 100.000038
v 49.999992 -159.378021 50.000065
v 49.999992 -159.378021 100.000061
v 100.000000 -159.378021 50.000065
v 100.000000 140.621964 50.000015
v 100.000015 140.621948 -0.000020
v 100.000000 140.621964 50.000015
v 50.000008 140.621964 49.999981
v -100.000008 240.621964 49.999954
v -0.000005 240.621948 -0.000044
v -100.000008 240.621948 -0.000046
v 0.000000 240.621964 49.999958
v -100.000008 190.621964 99.999969
v -100.000008 190.621964 49.999962
v -100.000008 190.621964 99.999969
v 0.000000 240.621964 49.999958
v -100.000008 240.621964 49.999954
v -100.000008 190.621964 49.999962
v 0.000000 190.621964 49.999962
v 100.000008 240.621948 -0.000046
v 100.000008 240.621964 49.999954
v -150.000000 190.621964 99.999962
v -150.000000 190.621964 49.999962
v -150.000000 140.621948 99.999962
v -150.000000 190.621964 49.999962
v -150.000000 140.621948 49.999962
v -150.000000 190.621964 99.999962
v -150.000000 190.621964 99.999962
v -150.000000 140.621948 99.999962
v -200.000000 240.621964 49.999954
v -200.000000 140.621948 49.999969
v -200.000000 240.621948 -0.000046
v -150.000000 140.621948 99.999962
v -200.000000 140.621948 49.999969
v -200.000000 140.621948 99.999985
v -150.000000 140.621948 49.999962
v 0.000004 140.621964 99.999985
v -100.000000 140.621964 100.000000
v -100.000015 -59.377937 650.000000
v -100.000000 40.622055 600.000000
v -100.000015 -59.377945 600.000000
v -100.000000 40.622074 650.000000
v -100.000000 -259.377869 300.000061
v -100.000000 -159.377884 300.000061
v 0.000000 -159.377884 300.000061
v -100.000000 -159.377884 300.000061
v 0.000000 -259.377869 300.000061
v 0.000000 -159.378021 200.000061
v 0.000000 -159.377884 300.000061
v -100.000000 -259.377869 300.000061
v 0.000000 -259.378021 200.000076
v 0.000000 -259.377869 300.000061
v -100.000015 -259.378021 200.000076
v -100.000000 -259.377869 400.000061
v 0.000000 -159.377975 400.000061
v -100.000000 -159.377869 400.000061
v 0.000000 -259.377869 400.000061
v -100.000000 -259.377869 400.000061
v 0.000000 -259.377869 400.000061
v -100.000000 -259.377838 500.000061
v 0.000000 -259.377838 500.000061
v -100.000000 -259.377838 500.000061
v 0.000000 -259.377838 500.000061
v -100.000000 -259.377838 500.000061
v 0.000000 -259.377838 500.000061
v 100.000008 190.621948 -0.000041
v 100.000008 190.621964 49.999962
v 100.000008 240.621948 -0.000046
v 100.000008 240.621964 49.999954
v 0.000002 -209.378036 100.000069
v -0.000019 -159.378021 100.000031
v 0.000010 40.621971 100.000000
v -100.000000 -9.377954 600.000061
v 0.000000 -9.377954 600.000061
v 100.000000 -159.378021 100.000038
v 0.000000 40.622036 550.000000
v 0.000000 90.622047 600.000000
v -100.000000 40.622036 550.000000
v -100.000000 90.622047 600.000000
v 50.000008 190.621964 49.999962
v 50.000008 240.621964 49.999954
v 100.000008 190.621964 49.999962
v 100.000008 240.621964 49.999954
v -150.000000 240.621964 49.999954
v -150.000000 240.621948 -0.000049
v -200.000000 240.621948 -0.000046
v -200.000000 240.621964 49.999954
v -150.000000 240.621964 49.999954
v -200.000000 240.621964 49.999954
v -200.000000 190.621964 49.999962
v -150.000000 190.621964 49.999962
v -200.000000 140.621948 49.999969
v -150.000000 140.621948 49.999962
v 1.325401 -59.377834 650.703064
v 1.325417 -59.377899 450.703217
v 1.325386 40.622189 650.703064
v 1.325401 40.622116 450.703217
v 1.325829 40.622181 650.702576
v -48.674141 -59.377819 650.702576
v 1.325844 -59.377819 650.702576
v -48.674156 40.622181 650.702576
v 1.325401 -259.377838 500.703217
v 1.325417 -259.377930 300.703339
v 1.325386 -159.377838 500.703217
v 1.325401 -159.377914 300.703339
v 1.325829 -159.377853 500.702728
v -48.674141 -259.377838 500.702728
v 1.325844 -259.377838 500.702728
v -48.674156 -159.377853 500.702728
v -100.620094 -159.377838 500.703217
v -100.620110 -159.377838 300.703339
v -100.620049 -259.377838 500.703217
v -100.620064 -259.377838 300.703339
v -100.620491 -259.377838 500.702728
v -50.620552 -159.377838 500.702728
v -100.620537 -159.377853 500.702728
v -50.620506 -259.377838 500.702728
vn -0.0000 -0.0000 1.0000
vn -0.0000 -1.0000 -0.0000
vn -1.0000 -0.0000 -0.0000
vn 1.0000 -0.0000 -0.0000
vn -0.0000 1.0000 -0.0000
vn -0.0000 -0.0000 -1.0000
vt 1.000000 0.437500
vt 1.000000 0.500000
vt 0.875000 0.500000
vt 0.875000 0.437500
vt -0.000031 0.375000
vt 0.125000 0.375000
vt 0.125000 0.500000
vt -0.000031 0.500000
vt 0.000031 0.875000
vt 0.000031 0.750000
vt 0.125000 0.750000
vt 0.125000 0.875000
vt 0.937500 0.437500
vt 0.937500 0.500000
vt 0.000031 0.375000
vt 0.000031 0.500000
vt 0.875000 0.375000
vt 0.937500 0.375000
vt 0.125000 0.812500
vt 0.250000 0.812500
vt 0.250000 0.875000
vt 0.875000 0.250000
vt 0.750000 0.375000
vt 0.750000 0.250000
vt 0.250000 0.750000
vt 0.375000 0.812500
vt 0.375000 0.750000
vt 1.000000 0.375000
vt 0.500000 0.375000
vt 0.500000 0.250000
vt 0.500000 0.625000
vt 0.500000 0.750000
vt 0.375000 0.625000
vt 0.500000 0.500000
vt 0.375000 0.500000
vt 1.000000 0.000000
vt 0.750000 0.500000
vt 0.750000 0.000000
vt 0.125000 0.437500
vt 0.062500 0.500000
vt 0.062500 0.437500
vt 0.187500 0.812500
vt 0.187500 0.875000
vt 0.375000 0.375000
vt 0.125000 0.625000
vt 0.000031 0.625000
vt 0.375000 0.875000
vt 0.062500 0.375000
vt 0.125000 0.562500
vt 0.000031 0.562500
s 1
usemtl MI_PortalsNether
f 93/1/1 91/2/1 92/3/1 90/4/1
f 38/5/5 40/6/5 241/7/5 240/8/5
f 191/9/1 193/10/1 195/11/1 7/12/1
f 280/13/5 279/14/5 204/3/5 206/4/5
f 1/15/1 7/6/1 8/7/1 5/16/1
f 107/1/4 104/2/4 102/3/4 103/4/4
f 213/4/1 212/17/1 283/18/1 286/13/1
f 237/12/3 235/19/3 236/20/3 234/21/3
f 222/14/3 220/13/3 221/1/3 219/2/3
f 23/22/3 22/17/3 20/23/3 19/24/3
f 140/20/5 138/21/5 139/12/5 137/19/5
f 37/25/2 34/21/2 35/12/2 36/11/2
f 227/4/3 21/1/3 226/2/3 225/3/3
f 271/4/4 94/17/4 160/18/4 157/13/4
f 233/6/5 71/7/5 70/8/5 232/5/5
f 8/26/1 7/20/1 122/25/1 120/27/1
f 115/13/5 113/1/5 114/2/5 112/14/5
f 130/20/4 132/21/4 131/12/4 129/19/4
f 218/13/5 217/14/5 208/3/5 209/4/5
f 107/4/4 105/13/4 106/14/4 104/3/4
f 128/1/1 126/4/1 123/17/1 127/28/1
f 5/22/1 9/17/1 10/23/1 6/24/1
f 144/9/1 142/10/1 143/11/1 141/12/1
f 71/6/5 68/7/5 69/16/5 70/15/5
f 262/14/4 200/3/4 201/4/4 261/13/4
f 77/16/6 76/15/6 74/6/6 75/7/6
f 174/31/1 171/32/1 172/27/1 173/33/1
f 253/5/2 254/6/2 258/7/2 257/8/2
f 81/7/3 79/16/3 80/15/3 78/6/3
f 1/11/1 5/12/1 6/9/1 2/10/1
f 224/1/1 13/13/1 210/18/1 223/28/1
f 207/3/5 205/4/5 206/1/5 204/2/5
f 47/34/3 46/31/3 42/33/3 45/35/3
f 168/6/5 148/7/5 147/16/5 169/15/5
f 5/15/1 8/6/1 11/7/1 9/16/1
f 53/35/4 51/34/4 52/31/4 50/33/4
f 111/39/4 110/7/4 108/40/4 109/41/4
f 67/15/4 65/6/4 66/7/4 64/16/4
f 252/8/4 242/5/4 244/6/4 85/7/4
f 25/25/3 24/21/3 22/12/3 23/11/3
f 11/1/1 8/4/1 120/17/1 121/28/1
f 152/28/3 150/18/3 151/13/3 149/1/3
f 41/15/5 39/6/5 40/7/5 38/16/5
f 64/15/4 66/6/4 167/7/4 95/16/4
f 58/15/3 60/6/3 73/7/3 72/16/3
f 30/3/4 29/4/4 33/1/4 32/2/4
f 87/16/6 77/15/6 75/6/6 86/7/6
f 117/1/1 119/13/1 118/18/1 116/28/1
f 275/13/1 276/1/1 211/2/1 214/14/1
f 54/6/2 62/7/2 63/16/2 55/15/2
f 73/6/3 88/7/3 170/16/3 72/15/3
f 286/13/1 283/18/1 284/28/1 285/1/1
f 216/3/5 215/4/5 205/1/5 207/2/5
f 148/28/5 145/1/5 146/4/5 147/17/5
f 264/2/4 262/14/4 261/13/4 263/1/4
f 252/5/4 85/6/4 83/7/4 256/8/4
f 136/19/2 134/20/2 135/21/2 133/12/2
f 52/5/4 243/6/4 244/7/4 242/8/4
f 288/14/1 286/13/1 285/1/1 287/2/1
f 4/11/1 1/12/1 2/9/1 3/10/1
f 199/42/5 197/20/5 198/21/5 196/43/5
f 188/11/4 186/25/4 187/21/4 185/12/4
f 10/10/1 9/11/1 13/12/1 12/9/1
f 103/1/4 102/2/4 99/3/4 101/4/4
f 203/1/1 128/4/1 127/17/1 202/28/1
f 21/11/3 19/25/3 20/21/3 18/12/3
f 82/8/4 84/15/4 95/6/4 94/7/4
f 45/6/3 42/7/3 43/16/3 44/15/3
f 184/35/1 182/44/1 183/29/1 181/34/1
f 83/8/4 85/15/4 84/6/4 82/7/4
f 17/25/2 14/21/2 15/12/2 16/11/2
f 180/16/2 179/7/2 134/45/2 136/46/2
f 239/5/3 238/6/3 249/7/3 80/8/3
f 214/4/1 211/17/1 212/28/1 213/1/1
f 240/5/5 241/6/5 251/7/5 250/8/5
f 119/4/1 117/17/1 210/28/1 13/1/1
f 160/18/4 158/28/4 159/1/4 157/13/4
f 57/6/2 54/7/2 55/16/2 56/15/2
f 272/14/4 130/3/4 271/4/4 157/13/4
f 126/26/1 124/20/1 125/25/1 123/27/1
f 239/8/3 43/5/3 42/6/3 238/7/3
f 27/25/3 26/21/3 24/12/3 25/11/3
f 248/5/2 246/6/2 247/7/2 245/8/2
f 260/5/1 178/6/1 177/7/1 259/8/1
f 31/20/4 29/26/4 30/47/4 28/21/4
f 209/1/5 208/2/5 114/3/5 113/4/5
f 88/6/3 89/7/3 152/16/3 170/15/3
f 190/25/2 189/21/2 34/12/2 37/11/2
f 68/6/5 168/7/5 169/16/5 69/15/5
f 178/6/1 175/7/1 176/16/1 177/15/1
f 202/17/1 277/18/1 275/13/1 203/4/1
f 194/9/1 192/10/1 193/11/1 191/12/1
f 51/15/4 265/48/4 52/16/4
f 243/7/4 52/16/4 265/48/4
f 266/6/4 243/7/4 265/48/4
f 267/15/4 108/48/4 67/16/4
f 65/7/4 67/16/4 108/48/4
f 110/6/4 65/7/4 108/48/4
f 236/7/3 268/49/3 81/16/3
f 81/16/3 268/49/3 89/46/3
f 235/45/3 89/46/3 268/49/3
f 130/46/4 269/50/4 94/45/4
f 94/45/4 269/50/4 82/7/4
f 129/16/4 82/7/4 269/50/4
f 270/21/4 187/12/4 28/20/4
f 186/11/4 28/20/4 187/12/4
f 31/25/4 28/20/4 186/11/4
f 273/4/3 151/13/3 150/18/3 89/17/3
f 235/3/3 274/14/3 151/13/3 273/4/3
f 89/7/3 88/16/3 79/15/3 81/6/3
f 80/15/3 249/6/3 255/7/3 78/8/3
f 156/4/1 154/17/1 155/28/1 153/1/1
f 164/1/5 161/2/5 162/3/5 163/4/5
f 119/1/1 11/4/1 121/17/1 118/28/1
f 282/2/5 279/14/5 280/13/5 281/1/5
f 101/26/4 99/47/4 100/21/4 98/20/4
f 62/6/2 165/7/2 166/16/2 63/15/2
f 277/18/1 278/28/1 276/1/1 275/13/1
f 45/11/3 97/25/3 96/21/3 47/12/3
f 34/34/2 48/31/2 49/33/2 35/35/2
f 61/15/3 59/6/3 60/7/3 58/16/3
f 32/3/4 33/4/4 201/1/4 200/2/4
f 95/15/4 167/6/4 158/7/4 94/16/4
f 245/5/2 247/6/2 254/7/2 253/8/2
f 231/19/5 229/42/5 230/43/5 228/12/5
usemtl MI_NetherWartFoilageTwoSide_NoFade
f 304/23/1 302/29/1 303/30/1 301/24/1
f 292/36/4 291/2/4 289/37/4 290/38/4
f 312/23/1 310/29/1 311/30/1 309/24/1
f 300/36/4 299/2/4 297/37/4 298/38/4
f 296/23/1 294/29/1 295/30/1 293/24/1
f 308/36/3 307/2/3 305/37/3 306/38/3
