# Blender 5.0.1
# www.blender.org
mtllib BP_NetherPortal__Nether06.mtl
o SM__netherportal_nether06.001
v -100.000000 -159.378036 100.000061
v -200.000000 -159.378036 100.000061
v -200.000000 -259.378021 100.000084
v -100.000000 -259.378021 100.000084
v -100.000000 -59.378036 100.000046
v -200.000000 -59.378036 100.000046
v -0.000019 -159.378021 100.000031
v 0.000000 -59.378036 100.000046
v -100.000000 40.621964 100.000031
v -200.000000 40.621964 100.000031
v 0.000010 40.621971 100.000000
v -200.000000 140.621948 99.999985
v -100.000000 140.621964 100.000000
v -100.000000 -259.378021 100.000084
v -200.000000 -259.378021 100.000084
v -200.000000 -259.378052 0.000080
v -100.000000 -259.378052 0.000080
v -200.000000 140.621948 99.999985
v -200.000000 40.621948 0.000032
v -200.000000 40.621964 100.000031
v -200.000000 140.621933 -0.000006
v -200.000000 -59.378036 100.000046
v -200.000000 -59.378052 0.000048
v -200.000000 -159.378036 100.000061
v -200.000000 -159.378052 0.000064
v -200.000000 -259.378021 100.000084
v -200.000000 -259.378052 0.000080
v 100.000000 -159.378021 50.000065
v 100.000000 -59.378052 0.000048
v 100.000000 -59.378044 50.000050
v 100.000000 -159.378052 0.000062
v 100.000008 40.621964 50.000000
v 100.000008 40.621956 0.000003
v -0.000029 -359.378021 100.000061
v -100.000000 -359.378021 100.000099
v -100.000000 -359.378052 0.000097
v -0.000010 -359.378052 0.000082
v 0.000000 -159.377899 200.000061
v -100.000000 -159.378036 100.000061
v -100.000000 -159.378021 200.000061
v -0.000019 -159.378021 100.000031
v -100.000015 -259.378021 200.000076
v -100.000000 -159.378021 200.000061
v -100.000000 -159.378036 100.000061
v -100.000000 -259.378021 100.000084
v -100.000015 -359.378021 200.000076
v -100.000000 -359.378021 100.000099
v 0.000000 -359.378021 200.000076
v -100.000015 -359.378021 200.000076
v 0.000000 -359.378021 200.000076
v -0.000035 -259.378021 100.000046
v 0.000000 -259.378021 200.000076
v -0.000029 -359.378021 100.000061
v 0.000000 40.621983 200.000031
v -100.000000 40.621983 200.000031
v -100.000000 40.621964 100.000031
v 0.000010 40.621971 100.000000
v -100.000000 140.621964 200.000000
v -100.000000 40.621964 100.000031
v -100.000000 40.621983 200.000031
v -100.000000 140.621964 100.000000
v 0.000000 40.621998 300.000061
v -100.000000 40.621998 300.000061
v 0.000000 40.621998 300.000061
v 0.000000 140.621964 200.000031
v 0.000000 140.621979 300.000031
v 0.000000 40.621983 200.000031
v -100.000000 140.621979 300.000031
v 0.000000 140.621979 300.000031
v 0.000000 140.621964 200.000031
v -100.000000 140.621964 200.000000
v -100.000000 140.621979 300.000031
v -100.000000 40.621998 300.000061
v -100.000000 -159.377869 400.000061
v -100.000000 -59.377987 400.000031
v 0.000000 -159.377869 400.000061
v 0.000000 -59.377987 400.000031
v -100.000000 -159.377853 500.000061
v -100.000000 -59.377987 400.000031
v -100.000000 -159.377869 400.000061
v -100.000015 -59.377968 500.000122
v -0.000008 -59.377968 500.000122
v -0.000003 -159.377975 500.000092
v 0.000000 -59.377987 400.000031
v 0.000000 -159.377869 400.000061
v -100.000000 40.622017 400.000061
v 0.000000 40.622017 400.000061
v -100.000000 40.622017 400.000061
v -100.000000 40.622032 500.000061
v 0.000000 90.622047 600.000000
v -100.000000 40.622055 600.000000
v 0.000003 40.622055 600.000000
v -100.000000 90.622047 600.000000
v 0.000000 40.622032 500.000061
v 0.000000 40.622017 400.000061
v -100.000000 -359.378052 0.000097
v -100.000000 -259.378052 0.000080
v 49.999992 -159.378021 50.000065
v 50.000000 -59.378036 100.000046
v 49.999992 -159.378021 100.000061
v 50.000000 -59.378044 50.000050
v 50.000008 40.621971 100.000000
v 50.000008 40.621964 50.000000
v 50.000015 140.621979 99.999962
v 50.000008 190.621964 49.999962
v 50.000008 190.621964 99.999962
v 50.000008 140.621964 49.999981
v 0.000000 90.621964 100.000023
v 0.000000 90.621956 50.000023
v 0.000004 140.621964 99.999985
v 0.000000 140.621964 50.000015
v 50.000008 190.621964 99.999962
v 0.000000 190.621964 49.999962
v 0.000000 190.621964 99.999969
v 50.000008 190.621964 49.999962
v 50.000008 190.621964 99.999962
v 0.000000 190.621964 99.999969
v 50.000015 140.621979 99.999962
v 0.000004 140.621964 99.999985
v 50.000000 -59.378036 100.000046
v 50.000008 40.621971 100.000000
v 49.999992 -159.378021 100.000061
v 100.000000 -59.378044 50.000050
v 49.999992 -159.378021 50.000065
v 100.000000 -159.378021 50.000065
v 50.000000 -59.378044 50.000050
v 100.000008 40.621964 50.000000
v 50.000008 40.621964 50.000000
v -0.000002 -59.377945 600.000000
v 0.000003 40.622055 600.000000
v 0.000010 -59.377926 650.000000
v 0.000010 40.622074 650.000000
v -100.000015 -59.377937 650.000000
v -0.000002 -59.377945 600.000000
v 0.000010 -59.377926 650.000000
v -100.000015 -59.377945 600.000000
v 0.000003 40.622055 600.000000
v -100.000000 40.622074 650.000000
v 0.000010 40.622074 650.000000
v -100.000000 40.622055 600.000000
v -100.000000 40.622074 650.000000
v 0.000010 -59.377926 650.000000
v 0.000010 40.622074 650.000000
v -100.000015 -59.377937 650.000000
v 0.000000 90.622040 550.000000
v 0.000000 90.622032 500.000031
v 0.000000 40.622036 550.000000
v -100.000000 140.622040 550.000000
v 0.000000 140.622040 550.000000
v 0.000000 140.622025 500.000000
v -100.000000 140.622009 500.000031
v -100.000000 140.622040 550.000000
v -100.000000 90.622032 500.000031
v -100.000000 90.622040 550.000000
v -100.000000 140.622009 500.000031
v -100.000000 90.622040 550.000000
v 0.000000 140.622040 550.000000
v -100.000000 140.622040 550.000000
v 0.000000 90.622040 550.000000
v 0.000000 140.622025 500.000000
v 0.000000 140.622040 550.000000
v -100.000000 40.622036 550.000000
v 0.000000 90.622047 600.000000
v -100.000000 90.622047 600.000000
v 0.000000 90.622047 600.000000
v 0.000000 90.622040 550.000000
v -100.000000 90.622040 550.000000
v -100.000000 40.622055 600.000000
v -100.000000 90.622047 600.000000
v 0.000000 40.622017 400.000061
v -100.000000 40.622017 400.000061
v 0.000000 140.621994 400.000031
v -100.000000 140.621994 400.000031
v 0.000000 140.621994 400.000031
v -100.000000 140.621994 400.000031
v 0.000000 140.622025 500.000000
v -100.000000 140.622009 500.000031
v -100.000000 40.622032 500.000061
v 0.000000 40.622032 500.000061
v -0.000008 -59.377968 500.000122
v -100.000015 -59.377968 500.000122
v -100.000000 -159.377853 500.000061
v -0.000003 -159.377975 500.000092
v -0.000008 -59.377968 500.000122
v -100.000015 -59.377968 500.000122
v -100.000015 -259.378021 200.000076
v 0.000000 -359.378021 200.000076
v 0.000000 -259.378021 200.000076
v -100.000015 -359.378021 200.000076
v 99.999969 -359.378021 100.000038
v 100.000000 -259.378052 0.000064
v 99.999992 -259.378021 100.000038
v 99.999985 -359.378052 0.000068
v 99.999969 -359.378021 100.000038
v 99.999985 -359.378052 0.000068
v -0.000035 -259.378021 100.000046
v 99.999969 -359.378021 100.000038
v 99.999992 -259.378021 100.000038
v -0.000029 -359.378021 100.000061
v 100.000000 -159.378021 100.000038
v 100.000000 -159.378021 100.000038
v 49.999992 -159.378021 50.000065
v 49.999992 -159.378021 100.000061
v 100.000000 -159.378021 50.000065
v 100.000000 140.621964 50.000015
v 100.000015 140.621948 -0.000020
v 100.000000 140.621964 50.000015
v 50.000008 140.621964 49.999981
v -100.000008 240.621964 49.999954
v -0.000005 240.621948 -0.000044
v -100.000008 240.621948 -0.000046
v 0.000000 240.621964 49.999958
v -100.000008 190.621964 99.999969
v -100.000008 190.621964 49.999962
v -100.000008 190.621964 99.999969
v 0.000000 240.621964 49.999958
v -100.000008 240.621964 49.999954
v -100.000008 190.621964 49.999962
v 0.000000 190.621964 49.999962
v 100.000008 240.621948 -0.000046
v 100.000008 240.621964 49.999954
v -150.000000 190.621964 99.999962
v -150.000000 190.621964 49.999962
v -150.000000 140.621948 99.999962
v -150.000000 190.621964 49.999962
v -150.000000 140.621948 49.999962
v -150.000000 190.621964 99.999962
v -150.000000 190.621964 99.999962
v -150.000000 140.621948 99.999962
v -200.000000 240.621964 49.999954
v -200.000000 140.621948 49.999969
v -200.000000 240.621948 -0.000046
v -150.000000 140.621948 99.999962
v -200.000000 140.621948 49.999969
v -200.000000 140.621948 99.999985
v -150.000000 140.621948 49.999962
v 0.000004 140.621964 99.999985
v -100.000000 140.621964 100.000000
v -100.000015 -59.377937 650.000000
v -100.000015 -59.377945 600.000000
v -100.000000 40.622074 650.000000
v -100.000000 -259.377869 300.000061
v -100.000000 -159.377884 300.000061
v 0.000000 -159.377884 300.000061
v -100.000000 -159.377884 300.000061
v 0.000000 -259.377869 300.000061
v 0.000000 -159.377899 200.000061
v 0.000000 -159.377884 300.000061
v -100.000000 -259.377869 300.000061
v 0.000000 -259.378021 200.000076
v 0.000000 -259.377869 300.000061
v -100.000015 -259.378021 200.000076
v -100.000000 -259.377869 400.000061
v 0.000000 -159.377869 400.000061
v -100.000000 -159.377869 400.000061
v 0.000000 -259.377869 400.000061
v -100.000000 -259.377869 400.000061
v 0.000000 -259.377869 400.000061
v -100.000000 -259.377838 500.000061
v 0.000000 -259.377838 500.000061
v -100.000000 -259.377838 500.000061
v 0.000000 -259.377838 500.000061
v -100.000000 -259.377838 500.000061
v 0.000000 -259.377838 500.000061
v 100.000008 190.621948 -0.000041
v 100.000008 190.621964 49.999962
v 100.000008 240.621948 -0.000046
v 100.000008 240.621964 49.999954
v 0.000002 -209.378036 100.000069
v -0.000019 -159.378021 100.000031
v 0.000010 40.621971 100.000000
v -100.000000 -9.377954 600.000061
v 0.000000 -9.377954 600.000061
v 100.000000 -159.378021 100.000038
v 50.000008 190.621964 49.999962
v 50.000008 240.621964 49.999954
v 100.000008 190.621964 49.999962
v 100.000008 240.621964 49.999954
v -150.000000 240.621964 49.999954
v -150.000000 240.621948 -0.000049
v -200.000000 240.621948 -0.000046
v -200.000000 240.621964 49.999954
v -150.000000 240.621964 49.999954
v -200.000000 240.621964 49.999954
v -200.000000 190.621964 49.999962
v -150.000000 190.621964 49.999962
v -200.000000 140.621948 49.999969
v -150.000000 140.621948 49.999962
v 0.697893 -59.377960 651.064087
v 0.697908 -59.378025 451.064209
v 0.697878 40.622063 651.064087
v 0.697893 40.621990 451.064209
v 0.698320 40.622055 651.063599
v -49.301647 -59.377945 651.063599
v 0.698335 -59.377945 651.063599
v -49.301662 40.622055 651.063599
vn -0.0000 -0.0000 1.0000
vn -0.0000 -1.0000 -0.0000
vn -1.0000 -0.0000 -0.0000
vn 1.0000 -0.0000 -0.0000
vn -0.0000 1.0000 -0.0000
vn -0.0000 -0.0000 -1.0000
vt 0.750000 0.187500
vt 0.750000 0.125000
vt 0.875000 0.125000
vt 0.875000 0.187500
vt 0.125000 0.125000
vt 0.125000 0.062500
vt 0.250000 0.062500
vt 0.250000 0.125000
vt 0.750000 0.999969
vt 0.750000 0.875000
vt 0.875000 0.875000
vt 0.875000 0.999969
vt 0.125000 0.375000
vt 0.125000 0.500000
vt 0.000031 0.500000
vt 0.000031 0.375000
vt 0.375000 0.187500
vt 0.375000 0.250000
vt 0.250000 0.250000
vt 0.250000 0.187500
vt 0.812500 0.187500
vt 0.812500 0.125000
vt 0.187500 0.062500
vt 0.187500 0.125000
vt 0.750000 0.625000
vt 0.750000 0.750000
vt 0.625000 0.750000
vt 0.625000 0.625000
vt -0.000031 0.375000
vt -0.000031 0.500000
vt 1.000000 0.750000
vt 1.000000 0.875000
vt 0.875000 0.750000
vt 0.375000 0.375000
vt 0.500000 0.375000
vt 0.500000 0.500000
vt 0.375000 0.500000
vt 0.937500 0.812500
vt 1.000000 0.812500
vt 0.937500 0.875000
vt 0.312500 0.187500
vt 0.312500 0.250000
vt 0.812500 0.250000
vt 0.750000 0.250000
vt 0.875000 0.250000
vt 1.000000 0.999969
vt 0.125000 0.437500
vt 0.062500 0.500000
vt 0.062500 0.437500
vt 0.750000 0.375000
vt 0.500000 0.250000
vt 0.375000 0.437500
vt 0.437500 0.437500
vt 0.437500 0.500000
vt 0.875000 0.687500
vt 1.000000 0.687500
vt 0.125000 0.000000
vt 0.187500 0.000000
vt 0.625000 0.375000
vt 0.750000 0.500000
vt 0.625000 0.500000
vt 1.000000 0.000000
vt 1.000000 0.500000
vt 0.750000 0.000000
vt 0.500000 0.000000
vt 0.500000 0.125000
vt 0.375000 0.125000
vt 0.375000 0.000000
vt 0.062500 0.375000
vt 0.750000 0.437500
vt 0.625000 0.437500
s 1
usemtl MI_PortalsNether
f 219/1/1 216/2/1 217/3/1 218/4/1
f 93/5/1 91/6/1 92/7/1 90/8/1
f 196/9/1 198/10/1 200/11/1 7/12/1
f 62/13/2 170/14/2 171/15/2 63/16/2
f 1/16/1 7/13/1 8/14/1 5/15/1
f 107/17/4 104/18/4 102/19/4 103/20/4
f 286/21/1 283/22/1 284/3/1 285/4/1
f 147/23/4 145/7/4 163/8/4 130/24/4
f 214/17/5 213/18/5 114/19/5 113/20/5
f 23/25/3 22/26/3 20/27/3 19/28/3
f 252/29/2 250/13/2 251/14/2 249/30/2
f 37/31/2 34/32/2 35/11/2 36/33/2
f 146/23/4 160/7/4 161/8/4 145/24/4
f 147/24/4 94/23/4 146/7/4 145/8/4
f 38/29/5 40/13/5 245/14/5 244/30/5
f 8/4/1 7/1/1 122/2/1 120/3/1
f 53/34/4 51/35/4 52/36/4 50/37/4
f 204/38/5 202/39/5 203/32/5 201/40/5
f 115/41/5 113/17/5 114/18/5 112/42/5
f 107/1/4 105/21/4 106/43/4 104/44/4
f 128/4/1 126/1/1 123/2/1 127/3/1
f 280/21/5 279/43/5 209/44/5 211/1/5
f 268/45/4 266/43/4 265/21/4 267/4/4
f 144/37/1 142/34/1 143/35/1 141/36/1
f 212/44/5 210/1/5 211/4/5 209/45/5
f 54/13/2 62/14/2 63/15/2 55/16/2
f 266/43/4 205/44/4 206/1/4 265/21/4
f 52/29/4 247/13/4 248/14/4 246/30/4
f 257/29/2 258/13/2 262/14/2 261/30/2
f 81/14/3 79/15/3 80/16/3 78/13/3
f 4/32/1 1/46/1 2/12/1 3/11/1
f 83/30/4 85/16/4 84/13/4 82/14/4
f 88/13/3 89/14/3 155/15/3 175/16/3
f 47/35/3 46/36/3 42/37/3 45/34/3
f 34/35/2 48/36/2 49/37/2 35/34/2
f 173/13/5 151/14/5 150/15/5 174/16/5
f 5/16/1 8/13/1 11/14/1 9/15/1
f 223/21/5 222/43/5 213/44/5 214/1/5
f 111/47/4 110/14/4 108/48/4 109/49/4
f 71/13/5 68/14/5 69/15/5 70/16/5
f 31/1/4 29/4/4 30/45/4 28/44/4
f 5/25/1 9/26/1 10/27/1 6/28/1
f 11/4/1 8/1/1 120/2/1 121/3/1
f 30/44/4 29/1/4 33/4/4 32/45/4
f 238/13/5 71/14/5 70/30/5 237/29/5
f 246/29/4 248/13/4 85/14/4 256/30/4
f 89/14/3 88/15/3 79/16/3 81/13/3
f 155/23/3 153/7/3 154/8/3 152/24/3
f 236/52/5 234/53/5 235/54/5 233/37/5
f 77/15/6 76/16/6 74/13/6 75/14/6
f 232/1/3 21/4/3 231/45/3 230/44/3
f 119/4/1 11/1/1 121/2/1 118/3/1
f 241/33/3 168/55/3 240/56/3 239/31/3
f 159/57/1 157/58/1 158/24/1 156/5/1
f 95/16/4 172/13/4 160/14/4 94/15/4
f 275/21/1 276/4/1 216/45/1 219/43/1
f 73/13/3 88/14/3 175/15/3 72/16/3
f 1/32/1 5/46/1 6/12/1 2/11/1
f 185/59/2 184/50/2 134/60/2 136/61/2
f 151/7/5 148/8/5 149/5/5 150/6/5
f 136/55/2 134/56/2 135/31/2 133/33/2
f 193/33/4 191/31/4 192/32/4 190/11/4
f 58/16/3 60/13/3 73/14/3 72/15/3
f 243/30/3 43/29/3 42/13/3 242/14/3
f 221/44/5 220/1/5 210/4/5 212/45/5
f 25/31/3 24/32/3 22/11/3 23/33/3
f 103/17/4 102/18/4 99/19/4 101/20/4
f 10/34/1 9/35/1 13/36/1 12/37/1
f 32/44/4 33/1/4 206/4/4 205/45/4
f 195/31/2 194/32/2 34/11/2 37/33/2
f 208/4/1 128/1/1 127/2/1 207/3/1
f 21/34/3 19/35/3 20/36/3 18/37/3
f 82/30/4 84/16/4 95/13/4 94/14/4
f 45/13/3 42/14/3 43/15/3 44/16/3
f 61/16/3 59/13/3 60/14/3 58/15/3
f 17/31/2 14/32/2 15/11/2 16/33/2
f 179/65/1 176/66/1 177/67/1 178/68/1
f 189/37/1 187/34/1 188/35/1 186/36/1
f 288/43/1 286/21/1 285/4/1 287/45/1
f 27/31/3 26/32/3 24/11/3 25/33/3
f 68/13/5 173/14/5 174/15/5 69/16/5
f 264/29/1 183/13/1 182/14/1 263/30/1
f 119/1/1 117/2/1 215/3/1 13/4/1
f 117/4/1 119/21/1 118/22/1 116/3/1
f 57/13/2 54/14/2 55/15/2 56/16/2
f 80/16/3 253/13/3 259/14/3 78/30/3
f 183/13/1 180/14/1 181/15/1 182/16/1
f 229/4/1 13/21/1 215/22/1 228/3/1
f 140/56/5 138/31/5 139/33/5 137/55/5
f 64/16/4 66/13/4 172/14/4 95/15/4
f 126/17/1 124/20/1 125/8/1 123/67/1
f 243/29/3 242/13/3 253/14/3 80/30/3
f 167/7/5 164/8/5 165/5/5 166/6/5
f 162/7/3 168/8/3 169/24/3 154/23/3
f 153/23/3 89/7/3 162/8/3 154/24/3
f 249/29/2 251/13/2 258/14/2 257/30/2
f 41/16/5 39/13/5 40/14/5 38/15/5
f 207/2/1 277/22/1 275/21/1 208/1/1
f 199/9/1 197/10/1 198/11/1 196/12/1
f 51/16/4 269/69/4 52/15/4
f 247/14/4 52/15/4 269/69/4
f 270/13/4 247/14/4 269/69/4
f 271/16/4 108/69/4 67/15/4
f 65/14/4 67/15/4 108/69/4
f 110/13/4 65/14/4 108/69/4
f 240/50/3 272/70/3 81/59/3
f 81/59/3 272/70/3 89/61/3
f 168/60/3 89/61/3 272/70/3
f 130/61/4 273/71/4 94/60/4
f 94/60/4 273/71/4 82/50/4
f 129/59/4 82/50/4 273/71/4
f 274/32/4 192/11/4 28/39/4
f 191/33/4 28/39/4 192/11/4
f 31/31/4 28/39/4 191/33/4
f 87/15/6 77/16/6 75/13/6 86/14/6
f 244/29/5 245/13/5 255/14/5 254/30/5
f 260/30/4 256/29/4 85/13/4 83/14/4
f 282/45/5 279/43/5 280/21/5 281/4/5
f 101/4/4 99/45/4 100/44/4 98/1/4
f 277/22/1 278/3/1 276/4/1 275/21/1
f 227/42/3 225/41/3 226/17/3 224/18/3
f 45/33/3 97/31/3 96/32/3 47/11/3
f 130/56/4 132/31/4 131/33/4 129/55/4
f 67/16/4 65/13/4 66/14/4 64/15/4
f 218/1/1 217/2/1 283/22/1 286/21/1
usemtl MI_NetherWartFoilageTwoSide_NoFade
f 296/50/1 294/35/1 295/51/1 293/44/1
f 292/62/4 291/63/4 289/60/4 290/64/4
