# Blender 5.0.1
# www.blender.org
mtllib BP_NetherWart.mtl
o SM_Wart_ShadowMesh012.001
v 200.000000 -299.999908 1699.999756
v 200.000000 -299.999847 1799.999756
v 100.000000 -299.999847 1799.999756
v -100.000000 -299.999847 1799.999756
v 0.000000 -299.999908 1699.999756
v 0.000000 -299.999847 1799.999756
v 0.000000 -299.999939 1299.999878
v -100.000000 -299.999908 1399.999756
v -100.000000 -299.999939 1299.999878
v -100.000000 -299.999908 1699.999756
v -200.000000 -299.999908 1699.999756
v -200.000000 -299.999908 1399.999756
v 0.000000 -299.999878 1599.999756
v 100.000000 -299.999878 1599.999756
v 200.000000 -299.999939 1299.999878
v 200.000000 -299.999878 1599.999756
v 100.000000 -299.999939 1299.999878
v 300.000000 -299.999878 1599.999756
v 300.000000 -299.999908 1699.999756
v 100.000000 -299.999908 1699.999756
v 300.000000 0.000068 1299.999756
v 200.000000 100.000061 1299.999756
v 300.000000 100.000061 1299.999756
v 200.000000 0.000068 1299.999756
v 200.000000 -99.999939 1299.999756
v 100.000000 -99.999939 1299.999756
v -100.000000 200.000153 1799.999878
v 200.000000 100.000145 1799.999878
v 200.000000 200.000153 1799.999878
v -100.000000 -99.999855 1799.999756
v -200.000000 -199.999847 1799.999756
v -100.000000 -199.999847 1799.999756
v 300.000000 100.000145 1799.999878
v 200.000000 0.000149 1799.999756
v 300.000000 0.000149 1799.999756
v -100.000000 100.000145 1799.999878
v 300.000000 0.000100 1499.999756
v 300.000000 -99.999863 1699.999756
v 300.000000 -99.999893 1499.999756
v 300.000000 0.000149 1799.999756
v 300.000000 100.000137 1699.999878
v 300.000000 100.000145 1799.999878
v 300.000000 0.000133 1699.999756
v 200.000000 -299.999847 1799.999756
v 100.000000 -199.999847 1799.999756
v 100.000000 -299.999847 1799.999756
v 200.000000 -199.999847 1799.999756
v -200.000000 -99.999954 1199.999756
v -200.000000 0.000068 1299.999756
v -200.000000 0.000051 1199.999756
v -200.000000 200.000137 1699.999878
v -200.000000 100.000122 1599.999878
v -200.000000 100.000137 1699.999878
v -200.000000 0.000116 1599.999756
v -200.000000 0.000084 1399.999756
v -200.000000 100.000061 1299.999756
v -200.000000 100.000076 1399.999878
v -200.000000 -99.999939 1299.999756
v 0.000000 -199.999924 1299.999878
v -100.000000 -299.999939 1299.999878
v -100.000000 -199.999924 1299.999878
v 0.000000 -299.999939 1299.999878
v -200.000000 100.000061 1299.999756
v -100.000000 0.000068 1299.999756
v -200.000000 0.000068 1299.999756
v -100.000000 100.000061 1299.999756
v -100.000000 200.000153 1799.999878
v 200.000000 200.000153 1799.999878
v 200.000000 200.000137 1699.999878
v 200.000000 200.000122 1599.999878
v 100.000000 200.000122 1599.999878
v 300.000000 200.000137 1699.999878
v -100.000000 0.000149 1799.999756
v -200.000000 100.000145 1799.999878
v 200.000000 100.000122 1599.999878
v 100.000000 100.000122 1599.999878
v 200.000000 200.000122 1599.999878
v 100.000000 200.000122 1599.999878
v 0.000000 -199.999832 1899.999756
v 0.000000 -99.999840 1899.999756
v 0.000000 -199.999847 1799.999756
v 0.000000 -99.999855 1799.999756
v 0.000000 -199.999863 1699.999756
v 0.000000 -299.999908 1699.999756
v 100.000000 -199.999863 1699.999756
v 100.000000 -299.999908 1699.999756
v 0.000000 -299.999847 1799.999756
v 0.000000 -199.999863 1699.999756
v 0.000000 -199.999847 1799.999756
v 0.000000 -299.999908 1699.999756
v 0.000000 -199.999878 1599.999756
v 100.000000 -199.999924 1299.999878
v 100.000000 -199.999878 1599.999756
v 0.000000 -199.999924 1299.999878
v 300.000000 -99.999893 1499.999756
v 200.000000 -99.999893 1499.999756
v 300.000000 0.000100 1499.999756
v 200.000000 0.000100 1499.999756
v -100.000000 -299.999908 1399.999756
v -100.000000 -199.999908 1399.999756
v -100.000000 -299.999939 1299.999878
v -100.000000 -199.999924 1299.999878
v -100.000000 -299.999847 1799.999756
v -100.000000 -199.999863 1699.999756
v -100.000000 -299.999908 1699.999756
v -100.000000 -199.999847 1799.999756
v 100.000000 200.000122 1599.999878
v 100.000000 100.000061 1299.999756
v 100.000000 200.000076 1299.999756
v 100.000000 100.000122 1599.999878
v 200.000000 0.000165 1899.999756
v -100.000000 0.000149 1799.999756
v -100.000000 0.000165 1899.999756
v 200.000000 0.000149 1799.999756
v -100.000000 -99.999954 1199.999756
v -200.000000 -99.999954 1199.999756
v -100.000000 0.000051 1199.999756
v -200.000000 0.000051 1199.999756
v -100.000000 100.000122 1599.999878
v -200.000000 100.000122 1599.999878
v -200.000000 100.000107 1499.999878
v -100.000000 100.000107 1499.999878
v -100.000000 100.000076 1399.999878
v -200.000000 100.000061 1299.999756
v -200.000000 100.000076 1399.999878
v -100.000000 100.000061 1299.999756
v -100.000000 0.000116 1599.999756
v -200.000000 0.000116 1599.999756
v -100.000000 100.000122 1599.999878
v -200.000000 100.000122 1599.999878
v -200.000000 200.000137 1699.999878
v -200.000000 100.000137 1699.999878
v -100.000000 200.000137 1699.999878
v -100.000000 100.000137 1699.999878
v 200.000000 0.000100 1499.999756
v 200.000000 0.000068 1299.999756
v 300.000000 0.000100 1499.999756
v 300.000000 0.000068 1299.999756
v 100.000000 -299.999847 1799.999756
v 100.000000 -199.999863 1699.999756
v 100.000000 -299.999908 1699.999756
v 100.000000 -199.999847 1799.999756
v 300.000000 200.000137 1699.999878
v 300.000000 200.000046 1099.999756
v 300.000000 100.000061 1299.999756
v 300.000000 100.000031 1099.999756
v 300.000000 0.000068 1299.999756
v 200.000000 -299.999878 1599.999756
v 200.000000 -199.999924 1299.999878
v 200.000000 -199.999878 1599.999756
v 200.000000 -299.999939 1299.999878
v -100.000000 -199.999908 1399.999756
v -200.000000 -199.999908 1399.999756
v -200.000000 -199.999924 1299.999878
v -100.000000 -199.999924 1299.999878
v 200.000000 200.000137 1699.999878
v 200.000000 100.000137 1699.999878
v 300.000000 200.000137 1699.999878
v 300.000000 100.000137 1699.999878
v 200.000000 100.000061 1299.999756
v 200.000000 100.000031 1099.999756
v 300.000000 100.000061 1299.999756
v 300.000000 100.000031 1099.999756
v 300.000000 0.000149 1799.999756
v 200.000000 0.000149 1799.999756
v 200.000000 0.000133 1699.999756
v 300.000000 0.000133 1699.999756
v 0.000000 -99.999939 1299.999756
v 0.000000 -100.000092 299.999817
v 100.000000 -99.999939 1299.999756
v 100.000000 -100.000092 299.999817
v -100.000000 100.000107 1499.999878
v -200.000000 100.000107 1499.999878
v -100.000000 200.000107 1499.999878
v -200.000000 200.000107 1499.999878
v 200.000000 -199.999863 1699.999756
v 200.000000 -299.999908 1699.999756
v 300.000000 -199.999863 1699.999756
v 300.000000 -299.999908 1699.999756
v -100.000000 0.000068 1299.999756
v -100.000000 -99.999939 1299.999756
v -100.000000 -99.999954 1199.999756
v -100.000000 0.000051 1199.999756
v -200.000000 200.000107 1499.999878
v -200.000000 100.000107 1499.999878
v -100.000000 -99.999939 1299.999756
v 0.000000 0.000068 1299.999756
v 0.000000 -99.999939 1299.999756
v -200.000000 -199.999863 1699.999756
v -200.000000 -299.999908 1699.999756
v -100.000000 -199.999863 1699.999756
v -100.000000 -299.999908 1699.999756
v -100.000000 0.000068 1299.999756
v -200.000000 0.000051 1199.999756
v -200.000000 0.000068 1299.999756
v -100.000000 0.000051 1199.999756
v 100.000000 -199.999878 1599.999756
v 100.000000 -199.999924 1299.999878
v 100.000000 -299.999878 1599.999756
v 100.000000 -299.999939 1299.999878
v -100.000000 0.000116 1599.999756
v -200.000000 0.000084 1399.999756
v -200.000000 0.000116 1599.999756
v -100.000000 0.000084 1399.999756
v -200.000000 100.000076 1399.999878
v -200.000000 0.000084 1399.999756
v -100.000000 100.000076 1399.999878
v -100.000000 0.000084 1399.999756
v 100.000000 -299.999878 1599.999756
v 0.000000 -299.999878 1599.999756
v 100.000000 -199.999878 1599.999756
v 0.000000 -199.999878 1599.999756
v -100.000000 100.000145 1799.999878
v -100.000000 200.000153 1799.999878
v -100.000000 100.000137 1699.999878
v -100.000000 200.000137 1699.999878
v 100.000000 0.000068 1299.999756
v 100.000000 -0.000095 299.999817
v 0.000000 0.000068 1299.999756
v 0.000000 -0.000095 299.999817
v 200.000000 100.000122 1599.999878
v 100.000000 100.000061 1299.999756
v 100.000000 100.000122 1599.999878
v 200.000000 100.000061 1299.999756
v 200.000000 200.000153 1799.999878
v 200.000000 100.000145 1799.999878
v 200.000000 100.000137 1699.999878
v 200.000000 200.000137 1699.999878
v 100.000000 -99.999840 1899.999756
v 100.000000 -199.999832 1899.999756
v 100.000000 -199.999847 1799.999756
v 100.000000 -99.999855 1799.999756
v -100.000000 -99.999840 1899.999756
v -100.000000 0.000165 1899.999756
v -100.000000 -99.999855 1799.999756
v -100.000000 0.000149 1799.999756
v 200.000000 -99.999840 1899.999756
v 100.000000 -99.999840 1899.999756
v 100.000000 -99.999855 1799.999756
v 200.000000 -99.999855 1799.999756
v 200.000000 -299.999847 1799.999756
v 200.000000 -199.999863 1699.999756
v 200.000000 -199.999847 1799.999756
v 200.000000 -299.999908 1699.999756
v 0.000000 -99.999840 1899.999756
v -100.000000 -99.999840 1899.999756
v -100.000000 -99.999855 1799.999756
v 0.000000 -99.999855 1799.999756
v 300.000000 100.000031 1099.999756
v 200.000000 100.000031 1099.999756
v 300.000000 200.000046 1099.999756
v 200.000000 200.000046 1099.999756
v -100.000000 100.000145 1799.999878
v -200.000000 100.000137 1699.999878
v -200.000000 100.000145 1799.999878
v -100.000000 100.000137 1699.999878
v 0.000000 -299.999878 1599.999756
v 0.000000 -299.999939 1299.999878
v 0.000000 -199.999878 1599.999756
v 0.000000 -199.999924 1299.999878
v -100.000000 -299.999908 1399.999756
v -200.000000 -299.999908 1399.999756
v -100.000000 -199.999908 1399.999756
v -200.000000 -199.999908 1399.999756
v -100.000000 -99.999939 1299.999756
v -200.000000 -99.999939 1299.999756
v -200.000000 -99.999954 1199.999756
v -100.000000 -99.999954 1199.999756
v 200.000000 -99.999893 1499.999756
v 200.000000 0.000068 1299.999756
v 200.000000 0.000100 1499.999756
v 200.000000 -99.999939 1299.999756
v 0.000000 -100.000092 299.999817
v 0.000000 -99.999939 1299.999756
v 0.000000 0.000068 1299.999756
v 0.000000 -0.000095 299.999817
v 300.000000 100.000145 1799.999878
v 200.000000 100.000137 1699.999878
v 200.000000 100.000145 1799.999878
v 300.000000 100.000137 1699.999878
v 200.000000 0.000133 1699.999756
v 200.000000 -99.999863 1699.999756
v 300.000000 0.000133 1699.999756
v 300.000000 -99.999863 1699.999756
v -100.000000 -199.999847 1799.999756
v -200.000000 -199.999847 1799.999756
v -200.000000 -199.999863 1699.999756
v -100.000000 -199.999863 1699.999756
v 300.000000 -299.999878 1599.999756
v 200.000000 -299.999878 1599.999756
v 300.000000 -199.999878 1599.999756
v 200.000000 -199.999878 1599.999756
v 200.000000 -199.999878 1599.999756
v 300.000000 -199.999924 1299.999878
v 300.000000 -199.999878 1599.999756
v 200.000000 -199.999924 1299.999878
v 300.000000 -99.999893 1499.999756
v 200.000000 -99.999939 1299.999756
v 200.000000 -99.999893 1499.999756
v 300.000000 -99.999939 1299.999756
v 200.000000 200.000046 1099.999756
v 300.000000 200.000046 1099.999756
v 300.000000 -199.999847 1799.999756
v 200.000000 -199.999847 1799.999756
v 200.000000 -199.999863 1699.999756
v 300.000000 -199.999863 1699.999756
v 300.000000 -99.999855 1799.999756
v 200.000000 -99.999863 1699.999756
v 200.000000 -99.999855 1799.999756
v 300.000000 -99.999863 1699.999756
v 100.000000 0.000068 1299.999756
v 100.000000 -100.000092 299.999817
v 100.000000 -0.000095 299.999817
v 100.000000 -99.999939 1299.999756
v 100.000000 -100.000092 299.999817
v 0.000000 -100.000092 299.999817
v 100.000000 -0.000095 299.999817
v 0.000000 -0.000095 299.999817
v 0.000000 -99.999855 1799.999756
v 0.000000 -199.999847 1799.999756
v 0.000000 -299.999847 1799.999756
v -100.000000 -299.999847 1799.999756
v 300.000000 -199.999878 1599.999756
v 300.000000 -199.999924 1299.999878
v 300.000000 -99.999939 1299.999756
v -200.000000 -199.999924 1299.999878
v -200.000000 -199.999908 1399.999756
v 200.000000 0.000165 1899.999756
v 200.000000 -99.999840 1899.999756
v 200.000000 -99.999855 1799.999756
v 200.000000 0.000149 1799.999756
v 200.000000 -99.999863 1699.999756
v 200.000000 0.000133 1699.999756
v 100.000000 0.000068 1299.999756
v 100.000000 100.000061 1299.999756
v 100.000000 -199.999924 1299.999878
v 200.000000 -299.999939 1299.999878
v 100.000000 -299.999939 1299.999878
v 200.000000 -199.999924 1299.999878
v 300.000000 -199.999924 1299.999878
v 300.000000 -99.999939 1299.999756
v 200.000000 -99.999855 1799.999756
v 100.000000 -99.999855 1799.999756
v 300.000000 -99.999855 1799.999756
v 300.000000 -199.999847 1799.999756
v 200.000000 200.000122 1599.999878
v 200.000000 100.000061 1299.999756
v 200.000000 100.000122 1599.999878
v 200.000000 200.000046 1099.999756
v 200.000000 100.000031 1099.999756
v -200.000000 -199.999847 1799.999756
v -200.000000 100.000145 1799.999878
v -200.000000 -199.999863 1699.999756
v -200.000000 -299.999908 1399.999756
v -200.000000 -299.999908 1699.999756
v 100.000000 -199.999832 1899.999756
v 0.000000 -199.999832 1899.999756
v 0.000000 -199.999847 1799.999756
v 100.000000 -199.999847 1799.999756
v 100.000000 -199.999863 1699.999756
v 0.000000 -199.999863 1699.999756
v -100.000000 100.000076 1399.999878
v -100.000000 200.000076 1299.999756
v -100.000000 100.000061 1299.999756
v -100.000000 200.000107 1499.999878
v -100.000000 100.000107 1499.999878
v -100.000000 0.000084 1399.999756
v -100.000000 0.000116 1599.999756
v -100.000000 100.000122 1599.999878
v -200.000000 -99.999939 1299.999756
v -200.000000 -199.999924 1299.999878
v -100.000000 200.000076 1299.999756
v 100.000000 200.000076 1299.999756
v -100.000000 200.000107 1499.999878
v 100.000000 200.000076 1299.999756
v -100.000000 200.000076 1299.999756
v -100.000000 200.000137 1699.999878
v -200.000000 200.000107 1499.999878
v -200.000000 200.000137 1699.999878
v 0.000000 -99.999840 1899.999756
v -100.000000 0.000165 1899.999756
v -100.000000 -99.999840 1899.999756
v 100.000000 -99.999840 1899.999756
v 200.000000 0.000165 1899.999756
v 200.000000 -99.999840 1899.999756
v 0.000000 -199.999832 1899.999756
v 100.000000 -199.999832 1899.999756
v 300.000000 -199.999863 1699.999756
v 300.000000 -99.999855 1799.999756
v 300.000000 -199.999847 1799.999756
v 300.000000 -299.999878 1599.999756
v 300.000000 -299.999908 1699.999756
vn -0.0000 -1.0000 -0.0000
vn -0.0000 -0.0000 -1.0000
vn -0.0000 -0.0000 1.0000
vn 1.0000 -0.0000 -0.0000
vn -1.0000 -0.0000 -0.0000
vn -0.0000 1.0000 -0.0000
vt 0.000031 0.500000
vt 0.250000 0.500000
vt 0.250000 0.750000
vt 0.000031 0.750000
vt 0.000031 0.000000
vt 0.250000 0.000000
vt 0.000031 0.250000
vt 0.250000 0.250000
vt 0.750000 0.500000
vt 0.750000 0.750000
vt 0.500000 0.750000
vt 0.500000 0.500000
vt 0.500000 0.999969
vt 0.750000 0.999969
s 1
usemtl WorldGridMaterial
f 126/1/6 124/2/6 125/3/6 123/4/6
f 204/5/6 202/6/6 203/3/6 201/4/6
f 9/1/1 7/2/1 8/4/1
f 290/1/2 292/4/2 291/3/2 289/2/2
f 284/2/3 283/3/3 281/4/3 282/1/3
f 240/2/1 237/3/1 238/4/1 239/1/1
f 8/4/1 7/2/1 13/5/1
f 250/5/2 252/7/2 251/8/2 249/6/2
f 28/6/3 36/3/3 73/1/3 34/5/3
f 322/5/3 321/6/3 320/6/3 32/7/3
f 1/6/1 20/8/1 14/4/1 16/1/1
f 32/7/3 30/2/3 31/5/3
f 138/2/1 137/3/1 135/4/1 136/1/1
f 232/6/4 229/8/4 230/7/4 231/5/4
f 280/1/6 278/2/6 279/3/6 277/4/6
f 234/7/5 236/5/5 235/6/5 233/8/5
f 53/8/5 51/7/5 52/5/5
f 52/5/5 54/4/5 53/8/5
f 43/3/4 41/2/4 42/3/4 40/4/4
f 49/4/5 58/5/5 55/3/5
f 256/1/6 254/2/6 255/3/6 253/4/6
f 20/8/1 1/6/1 2/8/1 3/7/1
f 27/4/3 36/3/3 28/6/3 29/8/3
f 71/7/6 69/8/6 70/1/6
f 72/7/6 70/1/6 69/8/6
f 12/1/1 8/4/1 10/3/1 11/4/1
f 36/3/3 74/4/3 73/1/3
f 74/4/3 31/5/3 73/1/3
f 30/2/3 73/1/3 31/5/3
f 64/2/2 187/3/2 188/4/2 186/1/2
f 151/5/4 149/6/4 150/3/4 148/4/4
f 19/3/1 1/6/1 16/1/1 18/2/1
f 142/4/5 140/1/5 141/2/5 139/3/5
f 22/4/2 24/3/2 334/1/2 335/4/2
f 13/5/1 10/3/1 8/4/1
f 10/3/1 13/5/1 5/2/1
f 224/5/6 222/6/6 223/3/6 221/4/6
f 58/5/5 49/4/5 50/1/5 48/2/5
f 353/6/5 351/8/5 352/4/5 53/8/5
f 57/4/5 56/1/5 49/4/5 55/3/5
f 17/5/1 15/6/1 16/1/1 14/4/1
f 208/2/3 207/3/3 205/4/3 206/1/3
f 24/3/2 22/4/2 23/3/2 21/2/2
f 377/2/6 67/3/6 68/4/6 69/8/6
f 296/1/1 294/2/1 295/3/1 293/4/1
f 14/4/1 20/8/1 5/2/1 13/5/1
f 341/3/2 340/2/2 339/8/2 25/4/2
f 106/4/5 104/1/5 105/2/5 103/3/5
f 41/2/4 43/3/4 37/7/4
f 143/8/4 41/2/4 37/7/4
f 145/4/4 144/6/4 143/8/4
f 144/6/4 145/4/4 146/5/4
f 37/7/4 147/5/4 145/4/4
f 145/4/4 143/8/4 37/7/4
f 43/3/4 38/2/4 39/1/4 37/7/4
f 159/6/3 158/8/3 156/7/3 157/5/3
f 262/5/2 264/7/2 263/8/2 261/6/2
f 26/1/2 334/1/2 24/3/2 25/4/2
f 171/9/1 170/10/1 168/11/1 169/12/1
f 63/4/2 66/1/2 64/2/2 65/1/2
f 47/5/3 345/6/3 344/8/3 342/3/3
f 163/6/1 162/3/1 160/4/1 161/5/1
f 200/6/5 199/8/5 197/7/5 198/5/5
f 51/7/5 184/1/5 52/5/5
f 185/2/5 52/5/5 184/1/5
f 306/2/1 303/3/1 304/4/1 305/1/1
f 173/1/2 175/4/2 174/3/2 172/2/2
f 30/2/3 32/7/3 320/6/3 319/8/3
f 331/2/4 328/3/4 329/4/4 330/7/4
f 248/2/1 245/3/1 246/4/1 247/1/1
f 10/3/1 5/2/1 6/3/1 4/4/1
f 268/2/1 265/3/1 266/4/1 267/1/1
f 228/2/4 225/3/4 226/4/4 227/1/4
f 94/1/1 92/2/1 93/3/1 91/4/1
f 314/11/4 312/12/4 313/9/4 311/10/4
f 260/2/4 259/8/4 257/7/4 258/1/4
f 183/2/4 180/3/4 181/4/4 182/1/4
f 244/5/4 242/6/4 243/8/4 241/7/4
f 96/1/2 98/4/2 97/3/2 95/2/2
f 90/1/4 88/2/4 89/3/4 87/4/4
f 114/1/6 112/6/6 113/8/6 111/4/6
f 192/2/3 191/3/3 189/4/3 190/1/3
f 47/5/3 45/4/3 46/1/3 44/2/3
f 80/4/5 82/1/5 81/2/5 79/3/5
f 122/6/1 119/8/1 120/7/1 121/5/1
f 35/6/3 33/8/3 28/6/3 34/5/3
f 392/4/4 391/1/4 323/7/4 388/3/4
f 355/3/5 353/6/5 327/5/5 354/6/5
f 76/1/2 78/4/2 77/3/2 75/2/2
f 300/1/6 298/2/6 299/8/6 297/7/6
f 134/6/3 133/8/3 131/7/3 132/5/3
f 62/6/2 60/5/2 61/6/2 59/8/2
f 358/7/1 361/5/1 360/6/1 359/6/1
f 128/1/2 130/4/2 129/3/2 127/2/2
f 302/5/6 301/6/6 70/1/6
f 70/1/6 72/7/6 302/5/6
f 288/2/1 285/3/1 286/4/1 287/1/1
f 210/1/2 212/4/2 211/3/2 209/2/2
f 38/2/4 389/3/4 390/4/4 388/3/4
f 196/1/6 194/2/6 195/3/6 193/4/6
f 155/2/1 152/3/1 153/4/1 154/1/1
f 359/6/1 356/8/1 357/7/1 358/7/1
f 316/13/2 318/11/2 317/10/2 315/14/2
f 39/1/4 38/2/4 323/7/4
f 39/1/4 323/7/4 324/1/4
f 325/2/4 39/1/4 324/1/4
f 327/5/5 58/5/5 326/6/5
f 327/5/5 55/3/5 58/5/5
f 55/3/5 327/5/5 54/4/5
f 272/1/4 270/2/4 271/3/4 269/4/4
f 214/4/5 216/1/5 215/2/5 213/3/5
f 179/2/3 178/3/3 176/4/3 177/1/3
f 86/2/3 85/3/3 83/4/3 84/1/3
f 47/5/3 342/3/3 343/4/3 45/4/3
f 167/2/1 164/3/1 165/4/1 166/1/1
f 379/8/6 377/2/6 374/1/6 378/2/6
f 339/8/2 337/6/2 338/5/2 336/5/2
f 348/3/5 346/4/5 347/2/5
f 349/5/5 347/2/5 346/4/5
f 350/6/5 347/2/5 349/5/5
f 110/7/4 108/1/4 109/2/4 107/8/4
f 353/6/5 53/8/5 54/4/5
f 353/6/5 54/4/5 327/5/5
f 333/6/4 331/2/4 330/7/4 332/5/4
f 25/4/2 339/8/2 336/5/2 26/1/2
f 220/9/6 219/10/6 217/11/6 218/12/6
f 364/2/5 362/1/5 363/1/5
f 365/7/5 363/1/5 362/1/5
f 366/8/5 365/7/5 362/1/5
f 362/1/5 367/2/5 366/8/5
f 368/8/5 366/8/5 367/2/5
f 369/7/5 366/8/5 368/8/5
f 310/5/6 308/6/6 309/8/6 307/7/6
f 116/1/2 118/4/2 117/3/2 115/2/2
f 186/1/2 188/4/2 59/8/2 61/6/2
f 61/6/2 371/5/2 370/7/2 186/1/2
f 66/1/2 335/3/2 187/3/2
f 334/2/2 187/3/2 335/3/2
f 187/3/2 64/2/2 66/1/2
f 376/2/6 374/1/6 375/1/6
f 71/7/6 375/1/6 374/1/6
f 71/7/6 374/1/6 377/2/6
f 66/1/2 372/4/2 373/3/2 335/3/2
f 69/8/6 71/7/6 377/2/6
f 382/5/3 380/7/3 381/7/3
f 383/5/3 381/7/3 380/7/3
f 381/7/3 383/5/3 384/8/3
f 385/6/3 384/8/3 383/5/3
f 59/8/2 188/4/2 26/3/2 336/2/2
f 275/11/5 276/12/5 273/9/5 274/10/5
f 388/3/4 323/7/4 38/2/4
f 100/4/5 102/1/5 101/2/5 99/3/5
f 387/6/3 383/5/3 380/7/3 386/5/3
