# Blender 5.0.1
# www.blender.org
mtllib BP_NetherPortal_Crimson03.mtl
o SM__netherportal_crimson03.001
v -101.538483 100.000061 199.999741
v -200.000000 100.000023 199.999741
v -200.000000 0.000037 199.999756
v -100.000015 0.000090 199.999771
v -0.000009 -299.999969 149.999817
v 0.000102 -399.999969 99.999779
v -0.000007 -300.000031 99.999825
v -0.000009 -299.999969 149.999817
v -0.000007 -399.999969 199.999817
v -0.000007 -299.999969 199.999817
v -200.000000 -300.000000 99.999809
v -300.000000 -300.000000 99.999809
v -300.000000 -399.999969 99.999817
v -200.000000 -399.999969 99.999817
v -100.000000 -300.000000 99.999809
v -99.999954 -400.000000 99.999779
v 99.999992 -300.000031 99.999817
v 0.000102 -399.999969 99.999779
v 100.000000 -399.999969 99.999817
v 200.000000 -300.000031 49.999802
v 99.999992 -300.000031 49.999790
v 100.000000 -400.000000 49.999805
v 200.000000 -400.000000 49.999817
v -300.000000 -200.000000 99.999771
v -200.000000 -199.999985 99.999771
v -100.000000 -199.999939 199.999786
v -200.000000 -199.999954 199.999786
v -200.000000 -299.999969 199.999802
v -100.000000 -300.000000 199.999802
v 200.000000 -200.000000 99.999771
v 99.999992 -199.999985 99.999802
v 99.999992 -300.000031 99.999817
v 200.000000 -300.000000 99.999809
v -200.000000 0.000021 99.999756
v -300.000000 0.000021 99.999756
v -300.000000 -99.999977 99.999771
v -200.000000 -99.999985 99.999771
v -100.000000 -99.999931 199.999771
v -200.000000 -99.999969 199.999771
v -0.000006 -99.999939 199.999786
v -0.000014 0.000070 199.999771
v 99.999992 0.000014 99.999771
v 200.000000 -99.999985 99.999771
v 200.000000 0.000021 99.999756
v 100.000000 -99.999992 99.999786
v 299.999969 -99.999992 49.999767
v 200.000000 -99.999992 49.999763
v 200.000000 -199.999985 49.999786
v 299.999969 -200.000000 49.999786
v -200.000000 100.000008 99.999748
v -300.000000 100.000023 99.999748
v 200.000000 100.000008 99.999748
v 100.000000 100.000023 99.999756
v 200.000000 0.000005 49.999752
v 300.000031 -0.000001 49.999771
v -299.999969 200.000015 99.999733
v -200.000000 200.000137 99.999748
v -200.000000 200.000183 199.999741
v -100.000008 200.000153 199.999741
v 200.000015 199.999985 99.999733
v 100.000000 200.000015 99.999741
v -300.000000 300.000031 99.999710
v -200.000000 300.000031 99.999733
v -100.000000 300.000031 99.999748
v -100.000000 200.000076 99.999763
v 100.000000 300.000031 99.999710
v -0.000002 300.000031 99.999725
v -0.000002 200.000015 99.999763
v 200.000000 300.000000 49.999714
v 100.000000 300.000000 49.999702
v 99.999992 200.000015 49.999710
v 200.000015 199.999985 49.999718
v -200.000000 -399.999969 99.999817
v -300.000000 -399.999969 99.999817
v -300.000000 -400.000000 -0.000183
v -200.000000 -400.000000 -0.000183
v -199.999985 -499.999969 99.999817
v -200.000000 -399.999969 99.999817
v -200.000000 -400.000000 -0.000183
v -199.999985 -500.000000 -0.000181
v -200.000000 300.000031 99.999733
v -100.000000 300.000031 99.999748
v -100.000000 300.000000 -0.000278
v -200.000000 300.000000 -0.000278
v -300.000000 300.000031 99.999710
v -300.000000 300.000000 -0.000278
v -300.000000 300.000031 99.999710
v -299.999969 200.000000 -0.000261
v -299.999969 200.000015 99.999733
v -300.000000 300.000000 -0.000278
v -300.000000 100.000023 99.999748
v -300.000000 100.000008 -0.000264
v -300.000000 0.000021 99.999756
v -300.000000 0.000005 -0.000248
v -300.000000 -99.999977 99.999771
v -300.000000 -100.000000 -0.000232
v -300.000000 -200.000000 99.999771
v -300.000000 -300.000031 -0.000218
v -300.000000 -300.000000 99.999809
v -300.000000 -200.000000 -0.000215
v -300.000000 -400.000000 -0.000183
v -300.000000 -399.999969 99.999817
v -100.000000 -300.000000 199.999802
v -200.000000 -299.999969 199.999802
v -200.000000 -300.000000 99.999809
v -100.000000 -300.000000 99.999809
v -100.000008 200.000153 199.999741
v -200.000000 200.000137 99.999748
v -200.000000 200.000183 199.999741
v -100.000000 200.000076 99.999763
v -200.000000 100.000023 199.999741
v -200.000000 200.000183 199.999741
v -200.000000 200.000137 99.999748
v -200.000000 100.000008 99.999748
v -200.000000 0.000037 199.999756
v -200.000000 0.000021 99.999756
v -200.000000 -99.999969 199.999771
v -200.000000 -99.999985 99.999771
v -200.000000 -299.999969 199.999802
v -200.000000 -199.999954 199.999786
v -200.000000 -199.999985 99.999771
v -200.000000 -300.000000 99.999809
v 100.000000 -400.000000 49.999805
v 200.000000 -400.000000 -0.000183
v 200.000000 -400.000000 49.999817
v 100.000000 -400.000000 -0.000183
v 200.000000 -300.000031 49.999802
v 200.000000 -400.000000 49.999817
v 200.000000 -400.000000 -0.000183
v 200.000000 -300.000031 -0.000218
v 299.999969 -99.999992 49.999767
v 299.999969 -200.000000 49.999786
v 299.999969 -200.000015 -0.000215
v 299.999969 -100.000000 -0.000232
v 299.999969 -0.000029 -0.000248
v 300.000031 -0.000001 49.999771
v 200.000015 199.999985 49.999718
v 200.000000 300.000000 -0.000278
v 200.000000 300.000000 49.999714
v 200.000015 199.999969 -0.000261
v 100.000000 300.000000 49.999702
v 200.000000 300.000000 49.999714
v 200.000000 300.000000 -0.000278
v 100.000000 300.000000 -0.000278
v 0.000102 -399.999969 99.999779
v 100.000000 -399.999969 99.999817
v 0.000095 -400.000000 -0.000195
v 100.000000 300.000031 99.999710
v 0.000000 300.000000 -0.000278
v -0.000002 300.000031 99.999725
v -0.000007 -399.999969 199.999817
v -100.000000 -399.999969 199.999817
v -99.999954 -400.000000 99.999779
v -100.000015 0.000106 299.999756
v -100.000000 100.000099 299.999725
v -100.000000 100.000084 199.999756
v -100.000015 0.000090 199.999771
v -0.000024 0.000111 299.999756
v -100.000015 0.000106 299.999756
v -100.000015 0.000090 199.999771
v -0.000014 0.000070 199.999771
v -0.000024 0.000111 299.999756
v -0.000003 100.000069 199.999756
v -0.000014 100.000099 299.999725
v -0.000014 0.000070 199.999771
v -0.000024 100.000122 399.999725
v -100.000000 100.000099 299.999725
v -100.000015 100.000122 399.999725
v -0.000014 100.000099 299.999725
v -100.000038 0.000130 399.999756
v -100.000015 100.000122 399.999725
v -0.000033 0.000134 399.999756
v -100.000038 0.000130 399.999756
v -0.000033 0.000134 399.999756
v -0.000024 100.000122 399.999725
v -100.000000 -399.999969 199.999817
v -100.000000 -300.000000 99.999809
v -99.999954 -400.000000 99.999779
v -100.000000 -300.000000 199.999802
v 100.000000 -400.000000 49.999805
v 99.999992 -300.000031 99.999817
v 100.000000 -399.999969 99.999817
v 99.999992 -300.000031 49.999790
v 200.000000 -300.000000 99.999809
v 99.999992 -300.000031 99.999817
v 99.999992 -300.000031 49.999790
v 200.000000 -300.000031 49.999802
v 200.000000 -99.999985 99.999771
v 200.000000 0.000005 49.999752
v 200.000000 0.000021 99.999756
v 200.000000 -99.999992 49.999763
v 200.000015 199.999985 49.999718
v 100.000000 200.000015 99.999741
v 200.000015 199.999985 99.999733
v 99.999992 200.000015 49.999710
v 100.000000 300.000031 99.999710
v 100.000000 200.000015 99.999741
v 99.999992 200.000015 49.999710
v 100.000000 300.000000 49.999702
v -0.000007 -299.999969 199.999817
v -0.000005 -199.999939 199.999802
v 200.000000 -199.999985 49.999786
v 200.000000 -200.000000 99.999771
v 200.000000 0.000005 49.999752
v 300.000031 -0.000001 49.999771
v 299.999969 -0.000029 -0.000248
v 200.000000 -0.000014 -0.000248
v 299.999969 -200.000000 49.999786
v 200.000000 -199.999985 49.999786
v 200.000000 -200.000015 -0.000215
v 299.999969 -200.000015 -0.000215
v -0.000007 -399.999969 199.999817
v -100.000000 -399.999969 199.999817
v -100.000000 100.000160 499.999725
v -0.000014 100.000160 499.999725
v -100.000015 0.000103 499.999725
v -100.000000 100.000160 499.999725
v -100.000015 0.000103 499.999725
v -0.000024 0.000108 499.999725
v -0.000024 0.000108 499.999725
v -0.000014 100.000160 499.999725
v -99.999985 100.000191 599.999756
v 2.797229 100.000114 601.510803
v -99.999985 0.000191 599.999756
v -99.999985 100.000191 599.999756
v 0.000014 0.000191 599.999756
v 2.797229 100.000114 601.510803
v -99.999985 100.000191 599.999756
v -99.999985 0.000191 599.999756
v 2.797229 100.000114 601.510803
v 0.000014 0.000191 599.999756
v 99.999985 -199.999969 149.999802
v -0.000014 -199.999954 149.999802
v 99.999985 -300.000000 149.999832
v 99.999985 0.000015 149.999786
v -0.000014 0.000029 149.999771
v -0.000016 -99.999977 149.999786
v 99.999985 -100.000000 149.999786
v 99.999992 100.000000 149.999741
v -0.000006 100.000023 149.999741
v 99.999992 -199.999985 99.999802
v 99.999985 -199.999969 149.999802
v 100.000000 -99.999992 99.999786
v 99.999985 0.000015 149.999786
v 99.999985 -100.000000 149.999786
v 99.999992 0.000014 99.999771
v 99.999992 100.000000 149.999741
v 100.000000 100.000023 99.999756
v -0.000014 -199.999954 149.999802
v -0.000005 -199.999939 199.999802
v -0.000006 -99.999939 199.999786
v -0.000014 0.000029 149.999771
v -0.000016 -99.999977 149.999786
v -0.000006 100.000023 149.999741
v -99.999985 -99.999825 599.999756
v -100.000015 -99.999840 499.999725
v -99.999985 -99.999825 599.999756
v -0.000005 -99.999840 499.999725
v 0.000024 -99.999825 599.999756
v -100.000015 -99.999840 499.999725
v 0.000024 -99.999825 599.999756
v -0.000005 -99.999840 499.999725
v -99.999985 -99.999825 599.999756
v 0.000024 -99.999825 599.999756
v -0.000005 200.000031 199.999741
v -0.000003 100.000069 199.999756
v 100.000000 200.000031 199.999741
v 99.999992 100.000031 199.999710
v 100.000000 200.000031 199.999741
v -0.000002 200.000015 99.999763
v -0.000005 200.000031 199.999741
v 99.999992 100.000031 199.999710
v 100.000000 200.000031 199.999741
v -1.538496 100.000092 299.999725
v -101.538483 100.000061 199.999741
v -101.538483 100.000092 299.999725
v -0.000003 100.000069 199.999756
v -100.000015 100.000046 99.999756
v -0.000011 100.000031 99.999763
v -101.538483 100.000061 199.999741
v -100.000000 200.000076 99.999763
v -100.000008 200.000153 199.999741
v -100.000015 100.000046 99.999756
v -0.000005 200.000015 79.999779
v -100.000000 200.000015 79.999779
v -100.000000 100.000015 79.999794
v 0.000000 100.000015 79.999794
v -100.000000 100.000015 79.999794
v 0.000000 100.000015 79.999794
v -0.000011 100.000031 99.999763
v -0.000002 200.000015 99.999763
v -0.000005 200.000015 79.999779
v 0.000000 100.000015 79.999794
v -100.000000 200.000076 99.999763
v -0.000005 200.000015 79.999779
v -0.000002 200.000015 99.999763
v -100.000000 200.000015 79.999779
v -100.000000 200.000015 79.999779
v -100.000000 100.000015 79.999794
v 99.999992 100.000031 199.999710
v -0.000003 100.000069 199.999756
v -0.000006 100.000023 149.999741
v 99.999992 100.000000 149.999741
v 0.000063 -499.999969 99.999756
v -99.999924 -499.999969 99.999756
v -99.999924 -499.999969 99.999756
v 0.000063 -500.000000 -0.000240
v 0.000063 -499.999969 99.999756
v -99.999924 -500.000000 -0.000243
v -199.999985 -499.999969 99.999817
v -199.999985 -499.999969 99.999817
v -199.999985 -500.000000 -0.000181
v 0.000063 -499.999969 99.999756
v 0.000095 -400.000000 -0.000195
v 0.000063 -500.000000 -0.000240
v -100.000015 -99.999840 499.999725
v -0.000024 0.000108 499.999725
v -0.000005 -99.999840 499.999725
v -100.000015 0.000103 499.999725
v -98.735352 -199.999954 300.671539
v -98.735352 -299.999969 200.671555
v -98.735352 -299.999939 300.671570
v -98.735352 -199.999969 200.671539
v 1.264648 -199.999954 300.671539
v -98.735352 -199.999969 200.671539
v -98.735352 -199.999954 300.671539
v 1.264648 -199.999969 200.671539
v 1.264648 -299.999939 300.671570
v 1.264648 -199.999969 200.671539
v 1.264648 -199.999954 300.671539
v 1.264648 -299.999969 200.671555
v -98.735352 -299.999939 300.671570
v 1.264648 -299.999969 200.671555
v 1.264648 -299.999939 300.671570
v -98.735352 -299.999969 200.671555
v -98.735352 -199.999939 400.671539
v -98.735352 -299.999939 400.671570
v 1.264648 -199.999939 400.671539
v -98.735352 -199.999939 400.671539
v 1.264648 -299.999939 400.671570
v 1.264648 -199.999939 400.671539
v -98.735352 -299.999939 400.671570
v 1.264648 -299.999939 400.671570
v -98.735352 -199.999924 500.671539
v -98.735352 -299.999908 500.671570
v 1.264648 -199.999924 500.671539
v -98.735352 -199.999924 500.671539
v 1.264648 -299.999908 500.671570
v 1.264648 -199.999924 500.671539
v -98.735352 -299.999908 500.671570
v 1.264648 -299.999908 500.671570
v -98.735352 -199.999908 600.671570
v -98.735352 -299.999908 600.671570
v 1.264648 -299.999908 600.671570
v 1.264648 -199.999908 600.671570
v -98.735352 -299.999908 600.671570
v 1.264648 -299.999908 600.671570
v -98.735352 -199.999908 600.671570
v -98.735352 -299.999908 600.671570
v 1.264648 -199.999908 600.671570
v 1.264648 -299.999908 600.671570
v -98.735352 -99.999901 600.671509
v -98.735352 -99.999916 500.671539
v 1.264648 -99.999916 500.671539
v 1.264648 -99.999901 600.671509
v 1.264648 -199.999924 500.671539
v -98.735352 -199.999924 500.671539
v -98.735352 -99.999916 500.671539
v 1.264648 -99.999916 500.671539
v -98.735352 -99.999901 600.671509
v 1.264648 -99.999901 600.671509
v 200.000000 100.000000 49.999741
v 200.000000 100.000008 99.999748
v 200.000000 99.999962 -0.000264
v 200.000000 -0.000014 -0.000248
v 0.000002 150.000015 99.999748
v -0.000005 200.000031 199.999741
v -0.000003 100.000069 199.999756
v 200.000000 -300.000000 99.999809
v 200.000000 -200.000015 -0.000215
v 200.000015 199.999985 99.999733
v 2.797245 0.000083 601.510803
v 2.797260 0.000020 401.510956
v 2.797229 100.000114 601.510803
v 2.797245 100.000038 401.510925
v 2.797672 100.000099 601.510315
v -47.202297 0.000098 601.510315
v 2.797687 0.000098 601.510315
v -47.202312 100.000099 601.510315
v -101.603737 100.000114 600.448425
v -101.603752 100.000114 400.448547
v -101.603691 0.000086 600.448425
v -101.603706 0.000092 400.448578
v -101.604134 0.000094 600.447937
v -51.604195 100.000114 600.447937
v -101.604179 100.000099 600.447937
v -51.604149 0.000109 600.447937
vn -0.0000 -0.0000 1.0000
vn 0.4461 -0.6329 0.6329
vn 1.0000 -0.0000 -0.0000
vn 0.5774 -0.5773 0.5774
vn 0.5773 -0.5774 0.5774
vn -0.0000 -1.0000 -0.0000
vn -1.0000 -0.0000 -0.0000
vn -0.0000 1.0000 -0.0000
vn 1.0000 -0.0046 -0.0046
vn 1.0000 -0.0069 -0.0069
vn 1.0000 -0.0070 -0.0070
vn 0.9998 -0.0139 -0.0139
vn -0.0075 -0.0075 0.9999
vn -0.0037 -0.0037 1.0000
vn -0.0038 -0.0038 1.0000
vn 0.5774 -0.5774 0.5774
vn 0.9999 -0.0077 0.0077
vn 1.0000 -0.0038 0.0038
vn -0.0000 -0.0000 -1.0000
vt 0.000031 0.500000
vt 0.125000 0.500000
vt 0.125000 0.625000
vt 0.000031 0.625000
vt 0.875000 0.000000
vt 0.875000 0.062500
vt 0.750000 0.000000
vt 0.750000 0.125000
vt 0.875000 0.125000
vt -0.000031 0.375000
vt 0.125000 0.375000
vt -0.000031 0.500000
vt 0.000031 0.609375
vt 0.125000 0.609375
vt 0.000031 0.750000
vt 0.125000 0.750000
vt 0.125000 0.875000
vt 0.000031 0.875000
vt 0.250000 0.750000
vt 0.250000 0.875000
vt 0.500000 0.500000
vt 0.500000 0.375000
vt 0.625000 0.375000
vt 0.625000 0.500000
vt 0.250000 0.812500
vt 0.125000 0.812500
vt 0.000031 0.375000
vt 0.500000 0.562500
vt 0.500000 0.625000
vt 0.375000 0.625000
vt 0.375000 0.562500
vt 0.875000 0.250000
vt 0.875000 0.375000
vt 0.750000 0.375000
vt 0.750000 0.250000
vt 0.000031 0.562500
vt 0.125000 0.562500
vt 0.625000 0.437500
vt 0.500000 0.437500
vt 0.375000 0.500000
vt 1.000000 0.000000
vt 1.000000 0.125000
vt 0.500000 0.250000
vt 0.000031 0.437500
vt 0.125000 0.437500
vt -0.000031 0.437500
vt 0.250000 0.375000
vt 0.250000 0.500000
vt 0.875000 0.500000
vt 0.750000 0.500000
vt 1.000000 0.500000
vt 0.437500 0.500000
s 1
usemtl MI_PortalsNether
f 283/1/18 281/2/18 282/3/17 280/4/17
f 7/5/4 5/6/2 6/7/3
f 6/7/3 8/6/3 9/8/3
f 10/9/3 9/8/3 8/6/3
f 342/10/6 343/11/6 351/2/6 350/12/6
f 293/13/7 290/4/7 291/3/7 292/14/7
f 51/15/1 50/16/1 57/17/1 56/18/1
f 37/16/1 34/17/1 35/18/1 36/15/1
f 149/16/8 83/19/8 82/20/8 150/17/8
f 320/10/7 322/11/7 337/2/7 336/12/7
f 31/21/1 30/22/1 43/23/1 45/24/1
f 340/10/3 341/11/3 349/2/3 348/12/3
f 56/15/1 57/16/1 63/17/1 62/18/1
f 199/25/3 196/20/3 197/17/3 198/26/3
f 86/19/8 85/20/8 81/17/8 84/16/8
f 323/10/7 321/11/7 322/2/7 320/12/7
f 49/16/1 46/17/1 47/18/1 48/15/1
f 158/11/6 172/2/6 173/1/6 159/27/6
f 303/28/6 300/29/6 301/30/6 302/31/6
f 134/26/3 135/25/3 136/20/3 131/17/3
f 277/27/8 275/11/8 276/2/8 274/1/8
f 169/27/8 167/11/8 168/2/8 166/1/8
f 216/11/7 224/2/7 225/1/7 217/27/7
f 80/19/7 77/20/7 78/17/7 79/16/7
f 116/32/7 115/33/7 111/34/7 114/35/7
f 33/2/1 30/3/1 31/4/1 32/1/1
f 324/10/8 326/11/8 339/2/8 338/12/8
f 110/1/8 108/2/8 109/3/8 107/4/8
f 12/15/1 11/16/1 25/17/1 24/18/1
f 191/36/3 189/37/3 190/3/3 188/4/3
f 336/10/7 337/11/7 345/2/7 344/12/7
f 243/38/3 245/24/3 242/21/3 241/39/3
f 14/16/1 11/17/1 12/18/1 13/15/1
f 45/1/1 43/2/1 44/3/1 42/4/1
f 344/10/7 345/11/7 353/2/7 352/12/7
f 122/32/7 119/33/7 120/34/7 121/35/7
f 195/37/8 193/3/8 194/4/8 192/36/8
f 134/25/3 131/20/3 132/17/3 133/26/3
f 52/2/1 60/3/1 61/4/1 53/1/1
f 335/10/6 333/11/6 334/2/6 332/12/6
f 165/27/3 163/11/3 164/2/3 162/1/3
f 126/26/6 124/25/6 125/20/6 123/17/6
f 144/16/8 149/19/8 150/20/8 148/17/8
f 17/39/5 241/38/3 242/24/3 234/21/16
f 193/40/8 270/21/8 271/29/8 269/30/8
f 145/5/6 151/9/6 152/8/6 153/7/6
f 44/24/1 52/21/1 53/22/1 42/23/1
f 264/1/1 231/10/15 229/11/14 263/2/1
f 27/1/1 26/2/1 38/3/1 39/4/1
f 144/25/8 141/20/8 142/17/8 143/26/8
f 34/16/1 50/17/1 51/18/1 35/15/1
f 289/13/8 288/14/8 278/3/8 279/4/8
f 92/19/7 91/20/7 89/17/7 88/16/7
f 191/38/3 188/24/3 203/21/3 202/39/3
f 234/23/16 232/24/1 233/21/1 5/22/2
f 348/10/3 349/11/3 355/2/3 354/12/3
f 76/19/6 73/20/6 74/17/6 75/16/6
f 235/3/1 239/4/1 240/1/1 236/2/1
f 61/16/1 66/17/1 67/18/1 68/15/1
f 39/1/1 38/2/1 4/3/1 3/4/1
f 118/2/7 117/3/7 115/4/7 116/1/7
f 268/30/1 267/40/1 265/21/1 266/29/1
f 100/16/7 98/19/7 99/20/7 97/17/7
f 213/5/1 212/41/1 200/42/1 29/9/1
f 349/10/3 364/11/3 365/2/3 355/12/3
f 331/10/3 329/11/3 330/2/3 328/12/3
f 29/32/1 26/33/1 27/34/1 28/35/1
f 189/39/3 372/38/3 373/24/3 190/21/3
f 68/16/1 67/17/1 64/18/1 65/15/1
f 137/37/3 381/3/3 373/4/3 372/36/3
f 260/10/6 258/11/6 259/2/6 257/12/6
f 23/16/1 20/17/1 21/18/1 22/15/1
f 19/16/1 17/17/5 7/18/4 18/15/1
f 130/25/3 127/20/3 128/17/3 129/26/3
f 161/11/6 158/2/6 159/1/6 160/27/6
f 174/27/3 175/11/3 221/2/10 220/1/9
f 47/15/1 46/16/1 55/17/1 54/18/1
f 106/32/6 103/33/6 104/34/6 105/35/6
f 231/1/15 230/10/13 228/11/13 229/2/14
f 16/16/1 15/17/1 11/18/1 14/15/1
f 220/27/9 221/11/10 227/2/12 226/1/11
f 38/27/1 40/11/1 41/2/1 4/1/1
f 374/1/3 140/2/3 137/37/3 372/36/3
f 211/25/6 208/20/6 209/17/6 210/26/6
f 147/16/6 126/19/6 146/20/6 145/17/6
f 8/44/3 249/45/3 250/2/3 10/1/3
f 305/16/1 16/17/1 14/18/1 310/15/1
f 140/26/3 138/25/3 139/20/3 137/17/3
f 305/15/1 304/16/1 18/17/1 16/18/1
f 170/11/7 216/2/7 217/1/7 171/27/7
f 207/25/8 204/20/8 205/17/8 206/26/8
f 179/8/7 177/7/7 178/5/7 176/9/7
f 375/22/3 374/23/3 372/38/3 189/39/3
f 309/19/6 306/20/6 311/17/6 312/16/6
f 65/2/1 64/3/1 63/4/1 57/1/1
f 256/11/7 255/2/7 224/1/7 216/27/7
f 84/2/8 81/3/8 82/4/8 83/1/8
f 262/27/3 220/11/9 226/2/11 261/1/3
f 157/11/7 154/2/7 155/1/7 156/27/7
f 72/16/1 69/17/1 70/18/1 71/15/1
f 202/37/3 203/3/3 379/4/3 127/36/3
f 279/27/8 278/11/8 275/2/8 277/1/8
f 4/33/1 1/34/1 2/35/1 3/32/1
f 214/11/8 222/2/8 223/1/8 215/27/8
f 327/10/8 325/11/8 326/2/8 324/12/8
f 297/14/6 295/13/6 296/4/6 294/3/6
f 253/46/3 252/45/3 165/2/3 251/12/3
f 299/13/3 298/14/3 281/3/18 283/4/18
f 2/1/1 1/2/1 59/3/1 58/4/1
f 249/46/3 253/45/3 251/2/3 250/12/3
f 183/17/3 181/26/3 182/25/3 180/20/3
f 201/11/1 40/2/1 38/1/1 26/27/1
f 315/16/3 314/19/3 6/20/3 313/17/3
f 363/10/7 344/11/7 352/2/7 362/12/7
f 252/44/3 254/45/3 163/2/3 165/1/3
f 24/32/1 25/33/1 37/34/1 36/35/1
f 238/2/1 235/3/1 236/4/1 237/1/1
f 319/27/19 317/11/19 318/2/19 316/12/19
f 309/16/6 307/19/6 308/20/6 306/17/6
f 90/16/7 88/19/7 89/20/7 87/17/7
f 287/47/1 284/48/1 285/2/1 286/11/1
f 328/10/3 330/11/3 341/2/3 340/12/3
f 162/27/3 164/11/3 175/2/3 174/1/3
f 246/37/3 244/3/3 245/4/3 243/36/3
f 154/11/7 170/2/7 171/1/7 155/27/7
f 96/34/7 100/33/7 97/49/7 95/50/7
f 332/10/6 334/11/6 343/2/6 342/12/6
f 98/16/7 101/19/7 102/20/7 99/17/7
f 338/10/8 339/11/8 347/2/8 346/12/8
f 173/10/6 172/11/6 219/2/6 218/12/6
f 94/19/7 93/20/7 91/17/7 92/16/7
f 350/10/6 351/11/6 357/2/6 356/12/6
f 248/37/3 247/3/3 244/4/3 246/36/3
f 114/2/7 111/3/7 112/4/7 113/1/7
f 361/10/1 360/11/1 358/2/1 359/12/1
f 369/2/19 366/12/19 367/10/19 368/11/19
f 121/2/7 120/3/7 117/4/7 118/1/7
f 248/40/3 197/21/3 273/29/3 272/30/3
f 291/40/7 376/52/7 377/30/7
f 378/29/7 377/30/7 376/52/7
f 290/21/7 378/29/7 376/52/7
f 5/21/2 7/39/4 17/38/5 234/24/16
f 187/37/6 184/3/6 185/4/6 186/36/6
f 96/19/7 95/20/7 93/17/7 94/16/7
f 130/1/3 380/2/3 202/37/3 127/36/3
f 29/27/1 200/11/1 201/2/1 26/1/1
f 232/23/1 238/24/1 237/21/1 233/22/1
f 168/11/8 214/2/8 215/1/8 166/27/8
f 360/10/1 371/11/1 370/2/1 358/12/1
usemtl MI_NetherWartFoilageTwoSide_NoFade
f 397/34/1 395/22/1 396/43/1 394/35/1
f 389/34/1 387/22/1 388/43/1 386/35/1
f 385/41/3 384/51/3 382/50/3 383/7/3
f 393/41/7 392/51/7 390/50/7 391/7/7
