# Blender 5.0.1
# www.blender.org
mtllib BP_NewSeigeTower.mtl
o SM_SeigeTowerNew_Bottom.001
v 349.869781 -400.000946 100.000069
v 349.869781 -350.001129 0.000057
v 349.869781 -350.001129 100.000053
v 349.869781 -400.000946 0.000065
v 349.869781 -400.000916 200.000061
v 350.000000 -349.999969 200.000061
v 350.000000 -250.000000 0.000041
v 350.000000 -249.999985 100.000038
v 350.000000 -249.999969 200.000046
v 399.999939 -399.999969 200.000092
v 199.999969 -400.000000 0.000029
v 199.999924 -399.999969 200.000046
v 399.999969 -400.000000 0.000071
v 399.999939 -449.999969 200.000092
v 199.999939 -449.999969 200.000046
v 399.999969 -450.000000 0.000079
v 199.999969 -450.000000 0.000038
v 399.999969 -450.000000 0.000079
v 199.999969 -450.000000 0.000038
v 199.999969 -400.000000 0.000029
v 399.999969 -400.000000 0.000071
v 199.999939 -449.999969 200.000046
v 399.999939 -399.999969 200.000092
v 199.999924 -399.999969 200.000046
v 399.999939 -449.999969 200.000092
v 399.999939 -449.999969 200.000092
v 399.999969 -400.000000 0.000071
v 399.999939 -399.999969 200.000092
v 399.999969 -450.000000 0.000079
v 199.999969 -450.000000 0.000038
v 199.999939 -449.999969 200.000046
v 199.999924 -399.999969 200.000046
v 199.999969 -400.000000 0.000029
v 399.999939 50.000034 200.000015
v 199.999969 50.000000 -0.000044
v 199.999924 50.000034 199.999969
v 399.999969 50.000000 -0.000002
v 399.999939 0.000033 200.000031
v 199.999939 0.000033 199.999969
v 399.999969 0.000000 0.000006
v 199.999969 -0.000000 -0.000036
v 399.999969 0.000000 0.000006
v 199.999969 -0.000000 -0.000036
v 199.999969 50.000000 -0.000044
v 399.999969 50.000000 -0.000002
v 199.999939 0.000033 199.999969
v 399.999939 50.000034 200.000015
v 199.999924 50.000034 199.999969
v 399.999939 0.000033 200.000031
v 399.999939 0.000033 200.000031
v 399.999969 50.000000 -0.000002
v 399.999939 50.000034 200.000015
v 399.999969 0.000000 0.000006
v 199.999969 -0.000000 -0.000036
v 199.999939 0.000033 199.999969
v 199.999924 50.000034 199.999969
v 199.999969 50.000000 -0.000044
v 356.250000 -299.999969 200.000046
v 356.249969 -99.999992 68.750015
v 356.250000 -99.999969 200.000015
v 356.250000 -300.000000 68.750046
v 350.000000 -149.999969 200.000031
v 350.000000 -49.999966 200.000015
v 300.000000 -49.999966 200.000015
v 300.000000 -149.999969 200.000031
v 300.000000 -249.999969 200.000046
v 300.000000 -349.999969 200.000061
v 350.000000 -249.999969 200.000046
v 350.000000 -349.999969 200.000061
v 0.000000 -349.999969 200.000061
v 100.000000 -399.999969 200.000061
v 100.000000 -349.999969 200.000061
v 0.000000 -399.999969 200.000061
v 200.000000 -49.999966 200.000015
v 200.000000 0.000033 200.000000
v 300.000000 0.000033 200.000000
v 100.000000 0.000033 200.000000
v 100.000000 -49.999966 200.000015
v 0.000000 -49.999966 200.000015
v 0.000000 0.000033 200.000000
v 200.000000 -399.999969 200.000061
v 299.869781 -400.000916 200.000061
v 200.000000 -349.999969 200.000061
v 350.000000 0.000033 200.000000
v 349.869781 -400.000916 200.000061
v 0.000000 -50.000000 0.000008
v 0.000000 0.000016 100.000000
v 0.000000 0.000000 0.000000
v 0.000000 -49.999985 100.000008
v 0.000000 -49.999966 200.000015
v 0.000000 0.000033 200.000000
v 0.000000 -349.999969 200.000061
v 0.000000 -349.999969 100.000053
v 0.000000 -399.999969 200.000061
v 0.000000 -399.999969 100.000069
v 0.000000 -400.000000 0.000065
v 0.000000 -350.000000 0.000057
v 100.000000 -50.000000 0.000008
v 0.000000 -49.999985 100.000008
v 0.000000 -50.000000 0.000008
v 100.000000 -49.999966 200.000015
v 0.000000 -49.999966 200.000015
v 100.000000 -49.999985 100.000008
v 200.000000 -50.000000 0.000008
v 200.000000 -49.999966 200.000015
v 200.000000 -49.999985 100.000008
v 300.000000 -50.000000 0.000008
v 300.000000 -49.999966 200.000015
v 300.000000 -49.999985 100.000008
v 300.000000 0.000000 0.000000
v 350.000000 0.000016 100.000000
v 350.000000 0.000000 0.000000
v 350.000000 0.000033 200.000000
v 300.000000 0.000033 200.000000
v 300.000000 0.000016 100.000000
v 200.000000 0.000000 0.000000
v 200.000000 0.000033 200.000000
v 200.000000 0.000016 100.000000
v 100.000000 0.000000 0.000000
v 100.000000 0.000033 200.000000
v 100.000000 0.000016 100.000000
v 0.000000 0.000000 0.000000
v 0.000000 0.000033 200.000000
v 0.000000 0.000016 100.000000
v 300.000000 -49.999985 100.000008
v 300.000000 -50.000000 0.000008
v 300.000000 -150.000000 0.000024
v 300.000000 -149.999969 200.000031
v 300.000000 -49.999966 200.000015
v 300.000000 -149.999985 100.000023
v 300.000000 -250.000000 0.000041
v 300.000000 -249.999969 200.000046
v 300.000000 -249.999985 100.000038
v 300.000000 -350.000000 0.000057
v 300.000000 -349.999969 200.000061
v 300.000000 -349.999969 100.000053
v 350.000000 -150.000000 0.000024
v 350.000000 -149.999969 200.000031
v 350.000000 -149.999985 100.000023
v 350.000000 -50.000000 0.000008
v 350.000000 -49.999966 200.000015
v 350.000000 -49.999985 100.000008
v 350.000000 0.000000 0.000000
v 350.000000 0.000033 200.000000
v 350.000000 0.000016 100.000000
v 300.000000 -349.999969 100.000053
v 300.000000 -350.000000 0.000057
v 200.000000 -350.000000 0.000057
v 200.000000 -349.999969 200.000061
v 300.000000 -349.999969 200.000061
v 200.000000 -349.999969 100.000053
v 100.000000 -350.000000 0.000057
v 100.000000 -349.999969 200.000061
v 100.000000 -349.999969 100.000053
v 0.000000 -350.000000 0.000057
v 0.000000 -349.999969 200.000061
v 0.000000 -349.999969 100.000053
v 100.000000 -400.000000 0.000065
v 0.000000 -399.999969 100.000069
v 0.000000 -400.000000 0.000065
v 100.000000 -399.999969 200.000061
v 0.000000 -399.999969 200.000061
v 100.000000 -399.999969 100.000069
v 200.000000 -400.000000 0.000065
v 200.000000 -399.999969 200.000061
v 200.000000 -399.999969 100.000069
v 299.869781 -400.000946 0.000065
v 299.869781 -400.000916 200.000061
v 299.869781 -400.000946 100.000069
v 349.869781 -400.000946 0.000065
v 349.869781 -400.000916 200.000061
v 349.869781 -400.000946 100.000069
vn 1.0000 -0.0007 -0.0003
vn 1.0000 -0.0007 -0.0000
vn 1.0000 -0.0008 -0.0003
vn 1.0000 -0.0000 -0.0000
vn 1.0000 -0.0013 -0.0007
vn 1.0000 -0.0010 -0.0007
vn 1.0000 -0.0005 -0.0002
vn 1.0000 -0.0003 -0.0003
vn -0.0000 1.0000 -0.0000
vn -0.0000 -1.0000 -0.0000
vn -0.0000 -0.0000 -1.0000
vn -0.0000 -0.0000 1.0000
vn -1.0000 -0.0000 -0.0000
vt 0.312500 0.593750
vt 0.312500 0.468750
vt 0.398438 0.468750
vt 0.398438 0.593750
vt 0.562500 0.285156
vt 0.562500 0.250000
vt 0.597656 0.250000
vt 0.597656 0.285156
vt 0.625000 0.500000
vt 0.500000 0.500000
vt 0.500000 0.625000
vt 0.625000 0.625000
vt 0.625000 0.250000
vt 0.625000 0.285156
vt 0.031250 0.062500
vt 0.093750 0.062500
vt 0.093750 0.121094
vt 0.031250 0.121094
vt 0.000031 0.000000
vt 0.031250 0.000000
vt 0.000031 0.062500
vt 0.500000 0.058594
vt 0.500000 0.121094
vt 0.531250 0.121094
vt 0.531250 0.058594
vt 0.378906 0.593750
vt 0.378906 0.625000
vt 0.250000 0.625000
vt 0.250000 0.593750
vt 0.031250 0.125000
vt 0.093750 0.125000
vt 0.382812 0.062500
vt 0.382812 0.125000
vt 0.437500 0.125000
vt 0.437500 0.062500
vt 0.156250 0.062500
vt 0.156250 0.125000
vt 0.218750 0.125000
vt 0.218750 0.062500
vt 0.316406 0.062500
vt 0.382812 0.000000
vt 0.316406 0.000000
vt 0.281250 0.062500
vt 0.281250 0.000000
vt 0.316406 0.125000
vt 0.437500 0.000000
vt 0.500000 0.062500
vt 0.437500 0.121094
vt 0.156250 0.000000
vt 0.218750 0.000000
vt 0.000031 0.121094
vt 0.378906 0.062500
vt 0.378906 0.121094
vt 0.316406 0.121094
vt 0.378906 0.000000
vt 0.500000 0.125000
vt 0.250000 0.062500
vt 0.250000 0.121094
vt 0.218750 0.121094
vt 0.500000 0.593750
vt 0.500000 0.000000
vt 0.281250 0.125000
vt 0.093750 0.000000
vt 0.531250 0.000000
vt 0.152344 0.062500
vt 0.152344 0.121094
vt 0.152344 0.000000
vt 0.250000 0.000000
s 1
usemtl MI_NewSeigeTower
f 61/1/4 59/2/4 60/3/4 58/4/4
f 82/5/12 85/6/12 69/7/12 67/8/12
f 13/9/9 11/10/9 12/11/9 10/12/9
f 82/5/12 67/6/12 83/13/12 81/14/12
f 37/9/9 35/10/9 36/11/9 34/12/9
f 3/15/3 8/16/7 9/17/8 6/18/6
f 81/5/12 83/6/12 72/13/12 71/14/12
f 4/19/4 2/20/2 3/15/3 1/21/1
f 95/22/13 94/23/13 92/24/13 93/25/13
f 49/26/12 47/27/12 48/28/12 46/29/12
f 39/11/10 41/10/10 40/9/10 38/12/10
f 136/15/13 135/30/13 132/31/13 133/16/13
f 166/32/10 165/33/10 161/34/10 163/35/10
f 15/11/10 17/10/10 16/9/10 14/12/10
f 90/23/13 91/24/13 87/25/13 89/22/13
f 130/36/13 128/37/13 129/38/13 125/39/13
f 169/40/10 166/32/10 164/41/10 167/42/10
f 115/40/9 111/43/9 112/44/9 110/42/9
f 118/32/9 117/33/9 114/45/9 115/40/9
f 121/35/9 118/32/9 116/41/9 119/46/9
f 64/6/12 65/13/12 62/14/12 63/5/12
f 157/47/9 156/23/9 153/48/9 154/35/9
f 127/49/13 130/36/13 125/39/13 126/50/13
f 76/6/12 64/7/12 63/8/12 84/5/12
f 1/21/1 3/15/3 6/18/6 5/51/5
f 151/52/9 149/53/9 150/54/9 146/40/9
f 152/46/9 154/35/9 151/52/9 148/55/9
f 124/47/9 123/56/9 120/34/9 121/35/9
f 145/57/4 144/58/4 141/59/4 142/39/4
f 25/26/12 23/27/12 24/28/12 22/29/12
f 53/60/4 51/11/4 52/27/4 50/26/4
f 104/55/10 106/52/10 103/35/10 98/46/10
f 124/47/9 121/35/9 119/46/9 122/61/9
f 103/35/10 101/48/10 102/23/10 99/47/10
f 103/35/10 99/47/10 100/61/10 98/46/10
f 163/35/10 159/47/10 160/61/10 158/46/10
f 121/35/9 120/34/9 117/33/9 118/32/9
f 109/40/10 108/54/10 105/53/10 106/52/10
f 64/5/12 76/6/12 75/13/12 74/14/12
f 73/6/12 71/13/12 72/14/12 70/5/12
f 154/35/9 153/48/9 149/53/9 151/52/9
f 69/6/12 68/13/12 66/14/12 67/5/12
f 118/32/9 115/40/9 110/42/9 116/41/9
f 115/40/9 114/45/9 113/62/9 111/43/9
f 107/42/10 109/40/10 106/52/10 104/55/10
f 21/28/11 18/29/11 19/26/11 20/27/11
f 133/16/13 132/31/13 128/37/13 130/36/13
f 74/13/12 75/14/12 77/5/12 78/6/12
f 134/20/13 136/15/13 133/16/13 131/63/13
f 32/11/13 33/27/13 30/26/13 31/60/13
f 29/60/4 27/11/4 28/27/4 26/26/4
f 78/5/12 77/6/12 80/13/12 79/14/12
f 2/20/2 7/63/2 8/16/7 3/15/3
f 148/55/9 151/52/9 146/40/9 147/42/9
f 93/25/13 97/64/13 96/61/13 95/22/13
f 65/6/12 66/13/12 68/14/12 62/5/12
f 139/65/4 138/66/4 9/17/8 8/16/7
f 142/39/4 141/59/4 138/66/4 139/65/4
f 142/39/4 139/65/4 137/67/4 140/50/4
f 139/65/4 8/16/7 7/63/2 137/67/4
f 131/63/13 133/16/13 130/36/13 127/49/13
f 89/22/13 87/25/13 88/64/13 86/61/13
f 166/32/10 163/35/10 158/46/10 164/41/10
f 145/57/4 142/39/4 140/50/4 143/68/4
f 155/61/9 157/47/9 154/35/9 152/46/9
f 106/52/10 105/53/10 101/48/10 103/35/10
f 163/35/10 161/34/10 162/56/10 159/47/10
f 169/40/10 168/45/10 165/33/10 166/32/10
f 56/11/13 57/27/13 54/26/13 55/60/13
f 45/28/11 42/29/11 43/26/11 44/27/11
f 172/43/10 169/40/10 167/42/10 170/44/10
f 172/43/10 171/62/10 168/45/10 169/40/10
