# Blender 5.0.1
# www.blender.org
mtllib BP_NetherPortal_WoodlandMansion03.mtl
o SM_netherportal_woodlandmansion03.001
v -101.538483 100.000061 199.999741
v -200.000000 100.000023 199.999741
v -200.000000 0.000037 199.999756
v -100.000015 0.000090 199.999771
v -0.000009 -299.999969 149.999817
v 0.000102 -399.999969 99.999779
v -0.000007 -300.000031 99.999825
v -0.000009 -299.999969 149.999817
v -0.000007 -399.999969 199.999817
v -0.000007 -299.999969 199.999817
v -200.000000 -300.000000 99.999809
v -300.000000 -300.000000 99.999809
v -300.000000 -399.999969 99.999817
v -200.000000 -399.999969 99.999817
v -100.000000 -300.000000 99.999809
v -99.999954 -400.000000 99.999779
v 99.999992 -300.000031 99.999817
v 0.000102 -399.999969 99.999779
v 100.000000 -399.999969 99.999817
v 200.000000 -300.000031 49.999802
v 99.999992 -300.000031 49.999790
v 100.000000 -400.000000 49.999805
v 200.000000 -400.000000 49.999817
v -300.000000 -200.000000 99.999771
v -200.000000 -199.999985 99.999771
v -100.000000 -199.999939 199.999786
v -200.000000 -199.999954 199.999786
v -200.000000 -299.999969 199.999802
v -100.000000 -300.000000 199.999802
v 200.000000 -200.000000 99.999771
v 99.999992 -199.999985 99.999802
v 99.999992 -300.000031 99.999817
v 200.000000 -300.000000 99.999809
v -200.000000 0.000021 99.999756
v -300.000000 0.000021 99.999756
v -300.000000 -99.999977 99.999771
v -200.000000 -99.999985 99.999771
v -100.000000 -99.999931 199.999771
v -200.000000 -99.999969 199.999771
v -0.000006 -99.999939 199.999786
v -0.000014 0.000070 199.999771
v 99.999992 0.000014 99.999771
v 200.000000 -99.999985 99.999771
v 200.000000 0.000021 99.999756
v 100.000000 -99.999992 99.999786
v 299.999969 -99.999992 49.999767
v 200.000000 -99.999992 49.999763
v 200.000000 -199.999985 49.999786
v 299.999969 -200.000000 49.999786
v -200.000000 100.000008 99.999748
v -300.000000 100.000023 99.999748
v 200.000000 100.000008 99.999748
v 100.000000 100.000023 99.999756
v 200.000000 0.000005 49.999752
v 300.000031 -0.000001 49.999771
v -299.999969 200.000015 99.999733
v -200.000000 200.000137 99.999748
v -200.000000 200.000183 199.999741
v -100.000008 200.000153 199.999741
v 200.000015 199.999985 99.999733
v 100.000000 200.000015 99.999741
v -300.000000 300.000031 99.999710
v -200.000000 300.000031 99.999733
v -100.000000 300.000031 99.999748
v -100.000000 200.000076 99.999763
v 100.000000 300.000031 99.999710
v -0.000002 300.000031 99.999725
v -0.000002 200.000015 99.999763
v 200.000000 300.000000 49.999714
v 100.000000 300.000000 49.999702
v 99.999992 200.000015 49.999710
v 200.000015 199.999985 49.999718
v -200.000000 -399.999969 99.999817
v -300.000000 -399.999969 99.999817
v -300.000000 -400.000000 -0.000183
v -200.000000 -400.000000 -0.000183
v -199.999985 -499.999969 99.999817
v -200.000000 -399.999969 99.999817
v -200.000000 -400.000000 -0.000183
v -199.999985 -500.000000 -0.000181
v -200.000000 300.000031 99.999733
v -100.000000 300.000031 99.999748
v -100.000000 300.000000 -0.000278
v -200.000000 300.000000 -0.000278
v -300.000000 300.000031 99.999710
v -300.000000 300.000000 -0.000278
v -300.000000 300.000031 99.999710
v -299.999969 200.000000 -0.000261
v -299.999969 200.000015 99.999733
v -300.000000 300.000000 -0.000278
v -300.000000 100.000023 99.999748
v -300.000000 100.000008 -0.000264
v -300.000000 0.000021 99.999756
v -300.000000 0.000005 -0.000248
v -300.000000 -99.999977 99.999771
v -300.000000 -100.000000 -0.000232
v -300.000000 -200.000000 99.999771
v -300.000000 -300.000031 -0.000218
v -300.000000 -300.000000 99.999809
v -300.000000 -200.000000 -0.000215
v -300.000000 -400.000000 -0.000183
v -300.000000 -399.999969 99.999817
v -100.000000 -300.000000 199.999802
v -200.000000 -299.999969 199.999802
v -200.000000 -300.000000 99.999809
v -100.000000 -300.000000 99.999809
v -100.000008 200.000153 199.999741
v -200.000000 200.000137 99.999748
v -200.000000 200.000183 199.999741
v -100.000000 200.000076 99.999763
v -200.000000 100.000023 199.999741
v -200.000000 200.000183 199.999741
v -200.000000 200.000137 99.999748
v -200.000000 100.000008 99.999748
v -200.000000 0.000037 199.999756
v -200.000000 0.000021 99.999756
v -200.000000 -99.999969 199.999771
v -200.000000 -99.999985 99.999771
v -200.000000 -299.999969 199.999802
v -200.000000 -199.999954 199.999786
v -200.000000 -199.999985 99.999771
v -200.000000 -300.000000 99.999809
v 100.000000 -400.000000 49.999805
v 200.000000 -400.000000 -0.000183
v 200.000000 -400.000000 49.999817
v 100.000000 -400.000000 -0.000183
v 200.000000 -300.000031 49.999802
v 200.000000 -400.000000 49.999817
v 200.000000 -400.000000 -0.000183
v 200.000000 -300.000031 -0.000218
v 299.999969 -99.999992 49.999767
v 299.999969 -200.000000 49.999786
v 299.999969 -200.000015 -0.000215
v 299.999969 -100.000000 -0.000232
v 299.999969 -0.000029 -0.000248
v 300.000031 -0.000001 49.999771
v 200.000015 199.999985 49.999718
v 200.000000 300.000000 -0.000278
v 200.000000 300.000000 49.999714
v 200.000015 199.999969 -0.000261
v 100.000000 300.000000 49.999702
v 200.000000 300.000000 49.999714
v 200.000000 300.000000 -0.000278
v 100.000000 300.000000 -0.000278
v 0.000102 -399.999969 99.999779
v 100.000000 -399.999969 99.999817
v 0.000095 -400.000000 -0.000195
v 100.000000 300.000031 99.999710
v 0.000000 300.000000 -0.000278
v -0.000002 300.000031 99.999725
v -0.000007 -399.999969 199.999817
v -100.000000 -399.999969 199.999817
v -99.999954 -400.000000 99.999779
v -100.000015 0.000106 299.999756
v -101.538483 100.000092 299.999725
v -100.000000 100.000084 199.999756
v -100.000015 0.000090 199.999771
v -0.000024 0.000111 299.999756
v -100.000015 0.000106 299.999756
v -100.000015 0.000090 199.999771
v -0.000014 0.000070 199.999771
v -0.000024 0.000111 299.999756
v -0.000003 100.000069 199.999756
v -0.000014 100.000099 299.999725
v -0.000014 0.000070 199.999771
v -0.000024 100.000122 399.999725
v -101.538483 100.000092 299.999725
v -100.000015 100.000122 399.999725
v -100.000038 0.000130 399.999756
v -100.000015 100.000122 399.999725
v -0.000033 0.000134 399.999756
v -100.000038 0.000130 399.999756
v -0.000033 0.000134 399.999756
v -0.000014 100.000099 299.999725
v -0.000024 100.000122 399.999725
v -100.000000 -399.999969 199.999817
v -100.000000 -300.000000 99.999809
v -99.999954 -400.000000 99.999779
v -100.000000 -300.000000 199.999802
v 100.000000 -400.000000 49.999805
v 99.999992 -300.000031 99.999817
v 100.000000 -399.999969 99.999817
v 99.999992 -300.000031 49.999790
v 200.000000 -300.000000 99.999809
v 99.999992 -300.000031 99.999817
v 99.999992 -300.000031 49.999790
v 200.000000 -300.000031 49.999802
v 200.000000 -99.999985 99.999771
v 200.000000 0.000005 49.999752
v 200.000000 0.000021 99.999756
v 200.000000 -99.999992 49.999763
v 200.000015 199.999985 49.999718
v 100.000000 200.000015 99.999741
v 200.000015 199.999985 99.999733
v 99.999992 200.000015 49.999710
v 100.000000 300.000031 99.999710
v 100.000000 200.000015 99.999741
v 99.999992 200.000015 49.999710
v 100.000000 300.000000 49.999702
v -0.000007 -299.999969 199.999817
v -0.000005 -199.999939 199.999802
v 200.000000 -199.999985 49.999786
v 200.000000 -200.000000 99.999771
v 200.000000 0.000005 49.999752
v 300.000031 -0.000001 49.999771
v 299.999969 -0.000029 -0.000248
v 200.000000 -0.000014 -0.000248
v 299.999969 -200.000000 49.999786
v 200.000000 -199.999985 49.999786
v 200.000000 -200.000015 -0.000215
v 299.999969 -200.000015 -0.000215
v -0.000007 -399.999969 199.999817
v -100.000000 -399.999969 199.999817
v -100.000000 100.000160 499.999725
v -0.000014 100.000160 499.999725
v -100.000015 0.000103 499.999725
v -100.000000 100.000160 499.999725
v -100.000015 0.000103 499.999725
v -0.000024 0.000108 499.999725
v -0.000024 0.000108 499.999725
v -0.000014 100.000160 499.999725
v -99.999985 100.000191 599.999756
v 2.797229 100.000114 601.510803
v -99.999985 0.000191 599.999756
v -99.999985 100.000191 599.999756
v 0.000014 0.000191 599.999756
v 2.797229 100.000114 601.510803
v -99.999985 100.000191 599.999756
v -99.999985 0.000191 599.999756
v 2.797229 100.000114 601.510803
v 0.000014 0.000191 599.999756
v 99.999985 -199.999969 149.999802
v -0.000014 -199.999954 149.999802
v 99.999985 -300.000000 149.999832
v 99.999985 0.000015 149.999786
v -0.000014 0.000029 149.999771
v -0.000016 -99.999977 149.999786
v 99.999985 -100.000000 149.999786
v 99.999992 100.000000 149.999741
v -0.000006 100.000023 149.999741
v 99.999992 -199.999985 99.999802
v 99.999985 -199.999969 149.999802
v 100.000000 -99.999992 99.999786
v 99.999985 0.000015 149.999786
v 99.999985 -100.000000 149.999786
v 99.999992 0.000014 99.999771
v 99.999992 100.000000 149.999741
v 100.000000 100.000023 99.999756
v -0.000014 -199.999954 149.999802
v -0.000005 -199.999939 199.999802
v -0.000006 -99.999939 199.999786
v -0.000014 0.000029 149.999771
v -0.000016 -99.999977 149.999786
v -0.000006 100.000023 149.999741
v -99.999985 -99.999825 599.999756
v -100.000015 -99.999840 499.999725
v -99.999985 -99.999825 599.999756
v -0.000005 -99.999840 499.999725
v 0.000024 -99.999825 599.999756
v -100.000015 -99.999840 499.999725
v 0.000024 -99.999825 599.999756
v -0.000005 -99.999840 499.999725
v -99.999985 -99.999825 599.999756
v 0.000024 -99.999825 599.999756
v -0.000005 200.000031 199.999741
v -0.000003 100.000069 199.999756
v 100.000000 200.000031 199.999741
v 99.999992 100.000031 199.999710
v 100.000000 200.000031 199.999741
v -0.000002 200.000015 99.999763
v -0.000005 200.000031 199.999741
v 99.999992 100.000031 199.999710
v 100.000000 200.000031 199.999741
v -101.538483 100.000061 199.999741
v -0.000003 100.000069 199.999756
v -100.000015 100.000046 99.999756
v -0.000011 100.000031 99.999763
v -101.538483 100.000061 199.999741
v -100.000000 200.000076 99.999763
v -100.000008 200.000153 199.999741
v -100.000015 100.000046 99.999756
v -0.000005 200.000015 79.999779
v -100.000000 200.000015 79.999779
v -100.000000 100.000015 79.999794
v 0.000000 100.000015 79.999794
v -100.000000 100.000015 79.999794
v 0.000000 100.000015 79.999794
v -0.000011 100.000031 99.999763
v -0.000002 200.000015 99.999763
v -0.000005 200.000015 79.999779
v 0.000000 100.000015 79.999794
v -100.000000 200.000076 99.999763
v -0.000005 200.000015 79.999779
v -0.000002 200.000015 99.999763
v -100.000000 200.000015 79.999779
v -100.000000 200.000015 79.999779
v -100.000000 100.000015 79.999794
v 99.999992 100.000031 199.999710
v -0.000003 100.000069 199.999756
v -0.000006 100.000023 149.999741
v 99.999992 100.000000 149.999741
v 0.000063 -499.999969 99.999756
v -99.999924 -499.999969 99.999756
v -99.999924 -499.999969 99.999756
v 0.000063 -500.000000 -0.000240
v 0.000063 -499.999969 99.999756
v -99.999924 -500.000000 -0.000243
v -199.999985 -499.999969 99.999817
v -199.999985 -499.999969 99.999817
v -199.999985 -500.000000 -0.000181
v 0.000063 -499.999969 99.999756
v 0.000095 -400.000000 -0.000195
v 0.000063 -500.000000 -0.000240
v -100.000015 -99.999840 499.999725
v -0.000024 0.000108 499.999725
v -0.000005 -99.999840 499.999725
v -100.000015 0.000103 499.999725
v -98.735352 -199.999954 300.671539
v -98.735352 -299.999969 200.671555
v -98.735352 -299.999939 300.671570
v -98.735352 -199.999969 200.671539
v 1.264648 -199.999954 300.671539
v -98.735352 -199.999969 200.671539
v -98.735352 -199.999954 300.671539
v 1.264648 -199.999969 200.671539
v 1.264648 -299.999939 300.671570
v 1.264648 -199.999969 200.671539
v 1.264648 -199.999954 300.671539
v 1.264648 -299.999969 200.671555
v -98.735352 -299.999939 300.671570
v 1.264648 -299.999969 200.671555
v 1.264648 -299.999939 300.671570
v -98.735352 -299.999969 200.671555
v -98.735352 -199.999939 400.671539
v -98.735352 -299.999939 400.671570
v 1.264648 -199.999939 400.671539
v -98.735352 -199.999939 400.671539
v 1.264648 -299.999939 400.671570
v 1.264648 -199.999939 400.671539
v -98.735352 -299.999939 400.671570
v 1.264648 -299.999939 400.671570
v -98.735352 -199.999924 500.671539
v -98.735352 -299.999908 500.671570
v 1.264648 -199.999924 500.671539
v -98.735352 -199.999924 500.671539
v 1.264648 -299.999908 500.671570
v 1.264648 -199.999924 500.671539
v -98.735352 -299.999908 500.671570
v 1.264648 -299.999908 500.671570
v -98.735352 -199.999908 600.671570
v -98.735352 -299.999908 600.671570
v 1.264648 -299.999908 600.671570
v 1.264648 -199.999908 600.671570
v -98.735352 -299.999908 600.671570
v 1.264648 -299.999908 600.671570
v -98.735352 -199.999908 600.671570
v -98.735352 -299.999908 600.671570
v 1.264648 -199.999908 600.671570
v 1.264648 -299.999908 600.671570
v -98.735352 -99.999901 600.671509
v -98.735352 -99.999916 500.671539
v 1.264648 -99.999916 500.671539
v 1.264648 -99.999901 600.671509
v 1.264648 -199.999924 500.671539
v -98.735352 -199.999924 500.671539
v -98.735352 -99.999916 500.671539
v 1.264648 -99.999916 500.671539
v -98.735352 -99.999901 600.671509
v 1.264648 -99.999901 600.671509
v 200.000000 100.000000 49.999741
v 200.000000 100.000008 99.999748
v 200.000000 99.999962 -0.000264
v 200.000000 -0.000014 -0.000248
v 0.000002 150.000015 99.999748
v -0.000005 200.000031 199.999741
v -0.000003 100.000069 199.999756
v 200.000000 -300.000000 99.999809
v 200.000000 -200.000015 -0.000215
v 200.000015 199.999985 99.999733
vn -0.0000 -0.0000 1.0000
vn 0.4461 -0.6329 0.6329
vn 1.0000 -0.0000 -0.0000
vn 0.5774 -0.5773 0.5774
vn 0.5773 -0.5774 0.5774
vn -0.0000 -1.0000 -0.0000
vn -1.0000 -0.0000 -0.0000
vn -0.0000 1.0000 -0.0000
vn -1.0000 -0.0077 -0.0000
vn -0.9999 -0.0077 -0.0077
vn 0.8944 0.4472 -0.0000
vn 0.4472 0.8944 -0.0000
vn -1.0000 -0.0038 0.0038
vn 1.0000 -0.0046 -0.0046
vn 1.0000 -0.0069 -0.0069
vn 1.0000 -0.0070 -0.0070
vn 0.9998 -0.0139 -0.0139
vn -0.0075 -0.0075 0.9999
vn -0.0037 -0.0037 1.0000
vn -0.0038 -0.0038 1.0000
vn 0.5774 -0.5774 0.5774
vn 0.9999 -0.0077 0.0077
vn 1.0000 -0.0038 0.0038
vn -0.0000 -0.0000 -1.0000
vt 0.125000 0.375000
vt 0.125000 0.500000
vt 0.000031 0.500000
vt 0.000031 0.375000
vt 0.250000 0.625000
vt 0.250000 0.687500
vt 0.125000 0.625000
vt 0.125000 0.750000
vt 0.250000 0.750000
vt -0.000031 0.375000
vt -0.000031 0.500000
vt 0.250000 0.984375
vt 0.250000 0.999969
vt 0.375000 0.999969
vt 0.375000 0.984375
vt 0.125000 0.687500
vt 0.250000 0.812500
vt 0.250000 0.875000
vt 0.125000 0.875000
vt 0.125000 0.812500
vt 0.000031 0.625000
vt 0.000031 0.750000
vt 0.250000 0.937500
vt 0.375000 0.937500
vt 0.000031 0.687500
vt 0.500000 0.750000
vt 0.500000 0.875000
vt 0.375000 0.875000
vt 0.375000 0.750000
vt 0.000031 0.437500
vt 0.125000 0.437500
vt 0.250000 0.734375
vt 0.125000 0.734375
vt -0.000031 0.437500
vt 0.250000 0.500000
vt 0.187500 0.750000
s 1
usemtl MI_PortalsOverworld01
f 157/1/10 154/2/9 155/3/9 156/4/10
f 7/5/4 5/6/2 6/7/3
f 6/7/3 8/6/3 9/8/3
f 10/9/3 9/8/3 8/6/3
f 340/10/6 341/1/6 349/2/6 348/11/6
f 291/12/7 288/13/7 289/14/7 290/15/7
f 51/7/1 50/5/1 57/9/1 56/8/1
f 37/5/1 34/9/1 35/8/1 36/7/1
f 264/3/1 231/10/20 229/1/19 263/2/1
f 318/10/7 320/1/7 335/2/7 334/11/7
f 31/8/1 30/7/1 43/5/1 45/9/1
f 338/10/3 339/1/3 347/2/3 346/11/3
f 56/7/1 57/5/1 63/9/1 62/8/1
f 199/6/3 196/9/3 197/8/3 198/16/3
f 86/5/8 85/9/8 81/8/8 84/7/8
f 321/10/7 319/1/7 320/2/7 318/11/7
f 49/5/1 46/9/1 47/8/1 48/7/1
f 232/5/1 238/9/1 237/8/1 233/7/1
f 301/17/6 298/18/6 299/19/6 300/20/6
f 134/16/3 135/6/3 136/9/3 131/8/3
f 277/4/8 276/1/8 274/2/8 275/3/8
f 346/10/3 347/1/3 353/2/3 352/11/3
f 216/1/7 224/2/7 225/3/7 217/4/7
f 260/10/6 258/1/6 259/2/6 257/11/6
f 76/5/6 73/9/6 74/8/6 75/7/6
f 248/8/3 197/9/3 273/18/3 272/19/3
f 333/10/6 331/1/6 332/2/6 330/11/6
f 110/21/8 108/7/8 109/8/8 107/22/8
f 12/7/1 11/5/1 25/9/1 24/8/1
f 191/23/3 189/24/3 190/14/3 188/13/3
f 334/10/7 335/1/7 343/2/7 342/11/7
f 243/6/3 245/9/3 242/8/3 241/16/3
f 14/5/1 11/9/1 12/8/1 13/7/1
f 137/16/3 379/8/3 371/22/3 370/25/3
f 342/10/7 343/1/7 351/2/7 350/11/7
f 122/26/7 119/27/7 120/28/7 121/29/7
f 195/16/8 193/8/8 194/22/8 192/25/8
f 134/6/3 131/9/3 132/8/3 133/16/3
f 52/7/1 60/8/1 61/22/1 53/21/1
f 322/10/8 324/1/8 337/2/8 336/11/8
f 165/4/3 163/1/11 164/2/12 162/3/3
f 126/16/6 124/6/6 125/9/6 123/8/6
f 144/7/8 149/5/8 150/9/8 148/8/8
f 326/10/3 328/1/3 339/2/3 338/11/3
f 193/8/8 270/9/8 271/18/8 269/19/8
f 145/5/6 151/9/6 152/8/6 153/7/6
f 158/1/6 171/2/6 172/3/6 159/4/6
f 149/7/8 83/5/8 82/9/8 150/8/8
f 29/26/1 26/27/1 27/28/1 28/29/1
f 144/6/8 141/9/8 142/8/8 143/16/8
f 84/7/8 81/8/8 82/22/8 83/21/8
f 287/12/8 286/15/8 276/14/8 277/13/8
f 281/21/23 279/7/23 280/8/22 278/22/22
f 191/6/3 188/9/3 203/8/3 202/16/3
f 234/5/21 232/9/1 233/8/1 5/7/2
f 2/21/1 1/7/1 59/8/1 58/22/1
f 214/1/8 222/2/8 223/3/8 215/4/8
f 235/8/1 239/22/1 240/21/1 236/7/1
f 61/5/1 66/9/1 67/8/1 68/7/1
f 39/21/1 38/7/1 4/8/1 3/22/1
f 303/7/1 302/5/1 18/9/1 16/8/1
f 268/19/1 267/8/1 265/9/1 266/18/1
f 100/7/7 98/5/7 99/9/7 97/8/7
f 213/7/1 212/5/1 200/9/1 29/8/1
f 347/10/3 362/1/3 363/2/3 353/11/3
f 329/10/3 327/1/3 328/2/3 326/11/3
f 246/16/3 244/8/3 245/22/3 243/25/3
f 189/16/3 370/6/3 371/9/3 190/8/3
f 68/5/1 67/9/1 64/8/1 65/7/1
f 96/5/7 95/9/7 93/8/7 94/7/7
f 168/1/8 214/2/8 215/3/8 166/4/8
f 65/7/1 64/8/1 63/22/1 57/21/1
f 23/5/1 20/9/1 21/8/1 22/7/1
f 19/5/1 17/9/5 7/8/4 18/7/1
f 130/6/3 127/9/3 128/8/3 129/16/3
f 161/1/6 158/2/6 159/3/6 160/4/6
f 44/9/1 52/8/1 53/7/1 42/5/1
f 173/4/3 175/1/3 221/2/15 220/3/14
f 47/7/1 46/5/1 55/9/1 54/8/1
f 106/26/6 103/27/6 104/28/6 105/29/6
f 231/3/20 230/10/18 228/1/18 229/2/19
f 16/5/1 15/9/1 11/8/1 14/7/1
f 220/4/14 221/1/15 227/2/17 226/3/16
f 38/4/1 40/1/1 41/2/1 4/3/1
f 372/21/3 140/7/3 137/16/3 370/25/3
f 211/6/6 208/9/6 209/8/6 210/16/6
f 147/7/6 126/5/6 146/9/6 145/8/6
f 8/30/3 249/31/3 250/2/3 10/3/3
f 303/5/1 16/9/1 14/8/1 308/7/1
f 140/16/3 138/6/3 139/9/3 137/8/3
f 183/8/3 181/16/3 182/6/3 180/9/3
f 169/1/13 216/2/7 217/3/7 170/4/13
f 207/6/8 204/9/8 205/8/8 206/16/8
f 313/7/3 312/5/3 6/9/3 311/8/3
f 72/5/1 69/9/1 70/8/1 71/7/1
f 307/5/6 304/9/6 309/8/6 310/7/6
f 80/5/7 77/9/7 78/8/7 79/7/7
f 361/10/7 342/1/7 350/2/7 360/11/7
f 34/5/1 50/9/1 51/8/1 35/7/1
f 256/1/7 255/2/7 224/3/7 216/4/7
f 163/4/11 274/1/8 167/2/8 164/3/12
f 33/5/1 30/9/1 31/8/1 32/7/1
f 202/6/3 203/9/3 377/8/3 127/16/3
f 92/5/7 91/9/7 89/8/7 88/7/7
f 4/27/1 1/28/1 2/29/1 3/26/1
f 154/1/9 169/2/13 170/3/13 155/4/9
f 325/10/8 323/1/8 324/2/8 322/11/8
f 295/32/6 293/33/6 294/8/6 292/9/6
f 253/34/3 252/31/3 165/2/3 251/11/3
f 297/12/3 296/15/3 279/14/23 281/13/23
f 164/4/12 167/1/8 168/2/8 166/3/8
f 373/7/3 372/5/3 370/6/3 189/16/3
f 118/7/7 117/8/7 115/22/7 116/21/7
f 201/1/1 40/2/1 38/3/1 26/4/1
f 252/30/3 254/31/3 163/2/11 165/3/3
f 262/4/3 220/1/14 226/2/16 261/3/3
f 179/8/7 177/7/7 178/5/7 176/9/7
f 24/26/1 25/27/1 37/28/1 36/29/1
f 238/7/1 235/8/1 236/22/1 237/21/1
f 317/4/24 315/1/24 316/2/24 314/11/24
f 307/7/6 305/5/6 306/9/6 304/8/6
f 90/7/7 88/5/7 89/9/7 87/8/7
f 285/28/1 282/14/1 283/13/1 284/18/1
f 27/21/1 26/7/1 38/8/1 39/22/1
f 162/4/3 174/1/3 175/2/3 173/3/3
f 17/16/5 241/6/3 242/9/3 234/8/21
f 116/26/7 115/27/7 111/28/7 114/29/7
f 96/2/7 100/35/7 97/5/7 95/7/7
f 330/10/6 332/1/6 341/2/6 340/11/6
f 98/7/7 101/5/7 102/9/7 99/8/7
f 336/10/8 337/1/8 345/2/8 344/11/8
f 29/4/1 200/1/1 201/2/1 26/3/1
f 172/10/6 171/1/6 219/2/6 218/11/6
f 94/5/7 93/9/7 91/8/7 92/7/7
f 348/10/6 349/1/6 355/2/6 354/11/6
f 248/16/3 247/8/3 244/22/3 246/25/3
f 114/7/7 111/8/7 112/22/7 113/21/7
f 359/10/1 358/1/1 356/2/1 357/11/1
f 367/2/24 364/11/24 365/10/24 366/1/24
f 121/7/7 120/8/7 117/22/7 118/21/7
f 249/34/3 253/31/3 251/2/3 250/11/3
f 289/8/7 374/36/7 375/19/7
f 376/18/7 375/19/7 374/36/7
f 288/9/7 376/18/7 374/36/7
f 5/8/2 7/16/4 17/6/5 234/9/21
f 187/6/6 184/9/6 185/8/6 186/16/6
f 45/18/1 43/28/1 44/14/1 42/13/1
f 130/7/3 378/5/3 202/6/3 127/16/3
f 358/10/1 369/1/1 368/2/1 356/11/1
