# Blender 5.0.1
# www.blender.org
mtllib BP_NamelessKingInteractable.mtl
o SK_NamelessKing.001
v 80.000015 -0.000185 14.161562
v 80.000000 -26.666746 80.808777
v 79.999962 -26.666859 14.161606
v 60.001659 -27.160105 153.992203
v 60.001591 -40.490334 74.011703
v 60.001633 -40.490200 153.992233
v 60.001617 -27.160238 74.011681
v 60.001633 -40.490200 153.992233
v 73.331741 -27.160131 153.992203
v 60.001659 -27.160105 153.992203
v 73.331718 -40.490223 153.992218
v 73.331703 -27.160265 74.011673
v 73.331718 -40.490223 153.992218
v 73.331673 -40.490356 74.011696
v 73.331741 -27.160131 153.992203
v 60.001617 -27.160238 74.011681
v 73.331673 -40.490356 74.011696
v 60.001591 -40.490334 74.011703
v 73.331703 -27.160265 74.011673
v 73.331741 -27.160131 153.992203
v 60.001617 -27.160238 74.011681
v 60.001659 -27.160105 153.992203
v 73.331703 -27.160265 74.011673
v 73.331673 -40.490356 74.011696
v 60.001633 -40.490200 153.992233
v 60.001591 -40.490334 74.011703
v 73.331718 -40.490223 153.992218
v 53.333382 -27.079956 173.333450
v 53.333298 -60.419846 140.000168
v 53.333313 -60.419792 173.333511
v 53.333363 -27.080013 140.000107
v 53.333313 -60.419792 173.333511
v 93.333313 -60.419872 173.333496
v 53.333382 -27.079956 173.333450
v 93.333374 -27.080034 173.333435
v 93.333359 -27.080091 140.000092
v 93.333374 -27.080034 173.333435
v 93.333298 -60.419926 140.000153
v 93.333313 -60.419872 173.333496
v 53.333298 -60.419846 140.000168
v 93.333313 -60.419872 173.333496
v 53.333313 -60.419792 173.333511
v 93.333298 -60.419926 140.000153
v 53.333382 -27.079956 173.333450
v 93.333359 -27.080091 140.000092
v 53.333363 -27.080013 140.000107
v 93.333374 -27.080034 173.333435
v -16.792259 43.747734 71.249985
v -10.098938 23.747723 71.250084
v -16.792297 23.747734 71.250023
v -10.098900 43.747719 71.250053
v -16.792297 23.747734 71.250023
v -16.792290 23.747768 91.250092
v -16.792259 43.747734 71.249985
v -16.792252 43.747768 91.250053
v -10.098892 43.747753 91.250053
v -16.792290 23.747768 91.250092
v -10.098930 23.747757 91.250084
v -16.792252 43.747768 91.250053
v -10.098900 43.747719 71.250053
v -10.098892 43.747753 91.250053
v -10.098938 23.747723 71.250084
v -10.098930 23.747757 91.250084
v -10.098938 23.747723 71.250084
v -16.792290 23.747768 91.250092
v -16.792297 23.747734 71.250023
v -10.098930 23.747757 91.250084
v -16.792259 43.747734 71.249985
v -16.792252 43.747768 91.250053
v -10.098900 43.747719 71.250053
v -10.098892 43.747753 91.250053
v -13.393257 37.081074 77.916733
v 163.234421 30.407578 77.916656
v -13.393265 30.407919 77.916748
v 163.234436 37.080738 77.916641
v 163.234436 37.080750 84.581680
v -13.393250 37.081085 84.581772
v 163.234436 30.407589 84.581696
v -13.393257 30.407930 84.581787
v 163.234436 37.080738 77.916641
v 163.234436 37.080750 84.581680
v 163.234421 30.407578 77.916656
v 163.234436 30.407589 84.581696
v -13.393265 30.407919 77.916748
v 163.234436 30.407589 84.581696
v -13.393257 30.407930 84.581787
v 163.234421 30.407578 77.916656
v -13.393257 37.081074 77.916733
v 163.234436 37.080750 84.581680
v 163.234436 37.080738 77.916641
v -13.393250 37.081085 84.581772
v 60.001789 40.485001 153.992096
v 60.001747 40.484863 74.011574
v 60.001762 27.154922 153.992111
v 60.001720 27.154789 74.011597
v 60.001762 27.154922 153.992111
v 73.331848 27.154896 153.992111
v 60.001789 40.485001 153.992096
v 73.331879 40.484978 153.992081
v 73.331833 40.484840 74.011566
v 73.331848 27.154896 153.992111
v 73.331810 27.154762 74.011589
v 73.331879 40.484978 153.992081
v 60.001747 40.484863 74.011574
v 73.331833 40.484840 74.011566
v 60.001720 27.154789 74.011597
v 73.331810 27.154762 74.011589
v 73.331810 27.154762 74.011589
v 73.331848 27.154896 153.992111
v 60.001720 27.154789 74.011597
v 60.001762 27.154922 153.992111
v 60.001789 40.485001 153.992096
v 73.331833 40.484840 74.011566
v 60.001747 40.484863 74.011574
v 73.331879 40.484978 153.992081
v 93.333549 60.419960 173.333282
v 93.333466 27.080074 140.000000
v 93.333534 60.419903 139.999939
v 93.333481 27.080132 173.333344
v 53.333485 27.080210 173.333374
v 93.333481 27.080132 173.333344
v 53.333549 60.420040 173.333313
v 93.333549 60.419960 173.333282
v 53.333534 60.419983 139.999969
v 53.333485 27.080210 173.333374
v 53.333549 60.420040 173.333313
v 53.333466 27.080153 140.000031
v 53.333549 60.420040 173.333313
v 93.333534 60.419903 139.999939
v 53.333534 60.419983 139.999969
v 93.333549 60.419960 173.333282
v 53.333466 27.080153 140.000031
v 93.333481 27.080132 173.333344
v 53.333485 27.080210 173.333374
v 93.333466 27.080074 140.000000
v 36.899822 29.082556 231.284607
v 36.917721 29.147816 191.367706
v 37.501152 -29.814148 231.188553
v 37.519051 -29.748867 191.271652
v 37.501152 -29.814148 231.188553
v 96.397926 -29.212862 231.215942
v 36.899822 29.082556 231.284607
v 95.796600 29.683840 231.312012
v 95.814499 29.749123 191.395096
v 95.796600 29.683840 231.312012
v 96.415825 -29.147581 191.299042
v 96.397926 -29.212862 231.215942
v 37.519051 -29.748867 191.271652
v 36.917721 29.147816 191.367706
v 95.814499 29.749123 191.395096
v 96.415825 -29.147581 191.299042
v 37.519051 -29.748867 191.271652
v 96.397926 -29.212862 231.215942
v 37.501152 -29.814148 231.188553
v 96.415825 -29.147581 191.299042
v 36.899822 29.082556 231.284607
v 95.814499 29.749123 191.395096
v 36.917721 29.147816 191.367706
v 95.796600 29.683840 231.312012
v 53.336723 26.660265 159.961060
v 53.336681 26.660131 79.980530
v 53.336617 -26.660080 159.961136
v 53.336578 -26.660213 79.980621
v 53.336723 26.660265 159.961060
v 53.336617 -26.660080 159.961136
v 79.996788 -26.660122 159.961121
v 79.996895 26.660221 159.961044
v 79.996857 26.660088 79.980515
v 79.996895 26.660221 159.961044
v 79.996750 -26.660255 79.980606
v 79.996788 -26.660122 159.961121
v 53.336681 26.660131 79.980530
v 79.996750 -26.660255 79.980606
v 53.336578 -26.660213 79.980621
v 79.996857 26.660088 79.980515
v 79.996750 -26.660255 79.980606
v 79.996788 -26.660122 159.961121
v 53.336578 -26.660213 79.980621
v 53.336617 -26.660080 159.961136
v 53.336723 26.660265 159.961060
v 79.996857 26.660088 79.980515
v 53.336681 26.660131 79.980530
v 79.996895 26.660221 159.961044
v 86.660080 -53.333488 13.333473
v 86.660294 53.320152 13.333296
v 86.660370 53.320396 160.000259
v 86.660156 -53.333244 160.000443
v 59.999901 -53.333439 13.333488
v 86.660156 -53.333244 160.000443
v 59.999981 -53.333195 160.000458
v 86.660080 -53.333488 13.333473
v 59.999908 -46.666828 13.333476
v 59.999981 -53.333195 160.000458
v 59.999985 -46.666584 160.000443
v 59.999901 -53.333439 13.333488
v 53.331806 26.666651 80.808701
v 53.331718 -0.000133 14.161575
v 53.331757 -0.000022 80.808746
v 53.331772 26.666538 14.161531
v 80.000069 26.666485 14.161517
v 80.000107 26.666597 80.808685
v 53.331772 26.666538 14.161531
v 53.331806 26.666651 80.808701
v 80.000107 26.666597 80.808685
v 80.000069 26.666485 14.161517
v 53.331703 -26.666693 80.808792
v 53.331665 -26.666805 14.161620
v 79.999962 -26.666859 14.161606
v 80.000000 -26.666746 80.808777
v 53.331665 -26.666805 14.161620
v 53.331703 -26.666693 80.808792
v 86.660370 53.320396 160.000259
v 86.660294 53.320152 13.333296
v 60.000195 53.320446 160.000275
v 60.000114 53.320202 13.333309
v 60.000172 46.666752 160.000290
v 60.000095 46.666508 13.333321
v 40.006599 -26.659977 213.281494
v 40.006664 26.660366 213.281403
v 40.006676 26.660276 159.961060
v 40.006535 -26.660067 159.961151
v 93.326904 -26.660080 213.281464
v 40.006664 26.660366 213.281403
v 40.006599 -26.659977 213.281494
v 93.327011 26.660263 213.281372
v 93.326874 -26.660170 159.961121
v 93.326981 26.660173 159.961029
v 93.327011 26.660263 213.281372
v 93.326904 -26.660080 213.281464
v 40.006535 -26.660067 159.961151
v 40.006676 26.660276 159.961060
v 93.326981 26.660173 159.961029
v 93.326874 -26.660170 159.961121
v 40.006599 -26.659977 213.281494
v 40.006535 -26.660067 159.961151
v 93.326904 -26.660080 213.281464
v 93.326874 -26.660170 159.961121
v 40.006664 26.660366 213.281403
v 93.326981 26.660173 159.961029
v 40.006676 26.660276 159.961060
v 93.327011 26.660263 213.281372
vn 1.0000 -0.0000 -0.0000
vn -1.0000 -0.0000 -0.0000
vn -0.0000 -0.0000 1.0000
vn -0.0000 -0.0000 -1.0000
vn -0.0000 1.0000 -0.0000
vn -0.0000 -1.0000 -0.0000
vn -0.9999 -0.0102 -0.0005
vn -0.0004 -0.0016 1.0000
vn 0.9999 0.0102 0.0005
vn 0.0004 0.0016 -1.0000
vn 0.0102 -0.9999 -0.0016
vn -0.0102 0.9999 0.0016
vn -0.7071 0.7071 -0.0000
vt 0.685547 0.752075
vt 0.746582 0.752075
vt 0.685547 0.908081
vt 0.250000 0.687500
vt 0.250000 0.500000
vt 0.312500 0.500000
vt 0.312500 0.687500
vt 0.437500 0.500000
vt 0.437500 0.687500
vt 0.124939 0.543457
vt 0.140137 0.543457
vt 0.139893 0.750366
vt 0.125000 0.750366
vt 0.062500 0.531250
vt 0.031250 0.531250
vt 0.031250 0.718750
vt 0.062500 0.718750
vt 0.094727 0.421875
vt 0.000489 0.421875
vt 0.000977 0.500000
vt 0.095215 0.500000
vt 0.093750 0.312500
vt 0.171875 0.312500
vt 0.171875 0.406250
vt 0.093750 0.406250
vt 0.000031 0.968765
vt 0.000031 0.875061
vt 0.124939 0.875000
vt 0.124939 0.968750
vt 0.500000 0.687500
vt 0.500000 0.500000
vt 0.093750 0.484375
vt 0.093750 0.406738
vt 0.171875 0.484375
vt 0.093750 0.718750
vt 0.125000 0.718750
vt 0.125000 0.531250
vt 0.093750 0.531250
vt 0.031250 0.750000
vt 0.062500 0.750000
vt 0.000031 0.421875
vt 0.000061 0.375000
vt 0.046265 0.375000
vt 0.046204 0.421875
vt 0.093750 0.750000
vt 0.140015 0.735107
vt 0.140015 0.750000
vt 0.124939 0.750000
vt 0.124939 0.735107
vt -0.000046 0.266113
vt 0.046875 0.266113
vt 0.046875 0.281250
vt -0.000041 0.281250
vt 0.093262 0.234375
vt 0.171875 0.234375
vt 0.125122 0.543457
vt 0.140259 0.543457
vt 0.140015 0.750366
vt 0.125244 0.750366
vt 0.000031 0.718750
vt 0.000031 0.531250
vt 0.093750 0.500000
vt 0.000031 0.500000
vt 0.093750 0.421875
vt 0.812012 0.500000
vt 0.812012 0.843628
vt 0.881836 0.843628
vt 0.881836 0.500000
vt 0.500000 0.875061
vt 0.500000 0.999969
vt 0.375000 0.999969
vt 0.375000 0.875000
vt 0.623047 0.908081
vt 0.623047 0.751953
vt -0.000046 0.312500
vt 0.046875 0.312500
vt 0.046875 0.328125
vt -0.000046 0.328125
vt 0.140503 0.543457
vt 0.140381 0.543457
vt 0.139771 0.750366
vt 0.095215 0.234375
vt 0.094666 0.156738
vt 0.171265 0.156738
vt 0.625000 0.500000
vt 0.625000 0.687500
vt 0.000031 0.875000
vt 0.000031 0.750000
vt 0.125000 0.750000
vt 0.125000 0.875000
vt 0.312500 0.750000
vt 0.437500 0.750000
vt 0.624512 0.906250
vt 0.624512 0.984375
vt 0.500000 0.984375
vt 0.500000 0.906250
vt 0.375000 1.000038
vt 0.375000 0.875061
vt 0.499756 0.875000
vt 0.499756 0.999962
vt 0.250000 0.750000
vt 0.250000 0.875000
vt 0.046875 0.375000
vt 0.000031 0.375000
vt 0.000031 0.328125
vt 0.562500 0.687500
vt 0.562500 0.750000
vt 0.827637 0.500000
vt 0.827637 0.843628
vt 0.250000 0.999969
vt 0.092712 0.234375
vt 0.172241 0.234375
vt 0.171875 0.140625
vt 0.092712 0.140625
vt 0.046875 0.296875
vt 0.000031 0.296875
vt 0.000031 0.281738
vt 0.046875 0.281738
vt 0.094727 0.484375
vt 0.093201 0.406738
vt 0.684082 0.751831
vt 0.622559 0.751831
vt 0.622559 0.907959
vt 0.684082 0.907959
vt 0.765137 0.500000
vt 0.765137 0.843628
vt 0.560547 0.751831
vt 0.560547 0.907959
vt 0.934082 0.500000
vt 0.934082 0.843628
vt 0.953125 0.843628
vt 0.953125 0.500000
vt 0.092712 0.312500
vt 0.562012 0.751953
vt 0.562012 0.908081
vt 0.046906 0.297363
vt 0.046906 0.312500
vt 0.000031 0.312500
vt 0.000031 0.297363
vt 0.375000 0.750000
vt 0.750000 0.843628
vt 0.750000 0.500000
vt 0.998047 0.500000
vt 0.998047 0.843628
vt 0.125000 0.999969
vt 0.125000 0.968750
vt -0.000031 0.968765
vt 0.625000 0.906250
vt 0.500000 0.875000
vt 0.500000 0.750000
s 1
usemtl MI_NamelessKing
f 3/1/1 1/2/1 2/3/1
f 183/4/5 181/5/5 182/6/5 180/7/5
f 163/8/2 162/9/2 160/7/2 161/6/2
f 87/10/6 85/11/6 86/12/6 84/13/6
f 7/14/2 5/15/2 6/16/2 4/17/2
f 123/18/3 122/19/3 120/20/3 121/21/3
f 43/22/6 41/23/6 42/24/6 40/25/6
f 147/26/9 146/27/9 144/28/9 145/29/9
f 177/30/6 179/9/6 178/8/6 176/31/6
f 31/32/2 29/33/2 30/24/2 28/34/2
f 15/35/1 13/36/1 14/37/1 12/38/1
f 11/39/3 9/40/3 10/17/3 8/16/3
f 55/41/2 54/42/2 52/43/2 53/44/2
f 107/35/4 106/45/4 104/40/4 105/17/4
f 95/14/2 94/17/2 92/16/2 93/15/2
f 83/46/1 82/47/1 80/48/1 81/49/1
f 71/50/5 70/51/5 68/52/5 69/53/5
f 39/23/1 38/22/1 36/54/1 37/55/1
f 75/56/4 73/57/4 74/58/4 72/59/4
f 27/60/6 25/16/6 26/15/6 24/61/6
f 35/62/3 34/63/3 32/41/3 33/64/3
f 19/35/4 17/17/4 18/40/4 16/45/4
f 23/38/5 21/14/5 22/17/5 20/35/5
f 191/65/6 189/66/6 190/67/6 188/68/6
f 151/69/10 148/70/10 149/71/10 150/72/10
f 209/3/6 206/73/6 207/74/6 208/1/6
f 51/75/4 49/76/4 50/77/4 48/78/4
f 79/13/3 78/56/3 76/79/3 77/12/3
f 115/60/5 113/61/5 114/15/5 112/16/5
f 131/23/5 129/22/5 130/25/5 128/24/5
f 91/13/5 89/56/5 90/80/5 88/81/5
f 47/55/5 45/82/5 46/83/5 44/84/5
f 171/30/1 170/31/1 168/85/1 169/86/1
f 241/87/5 239/88/5 240/89/5 238/90/5
f 167/91/3 164/7/3 165/9/3 166/92/3
f 155/93/11 153/94/11 154/95/11 152/96/11
f 143/97/8 142/98/8 140/99/8 141/100/8
f 103/36/1 101/35/1 102/38/1 100/37/1
f 221/101/2 218/102/2 219/90/2 220/89/2
f 63/77/1 62/103/1 60/104/1 61/105/1
f 175/9/4 173/106/4 174/107/4 172/92/4
f 217/108/2 216/109/2 214/66/13 215/65/13
f 233/72/4 230/71/4 231/110/4 232/102/4
f 135/111/6 133/112/6 134/113/6 132/114/6
f 59/115/3 57/116/3 58/117/3 56/118/3
f 127/119/2 125/34/2 126/24/2 124/120/2
f 109/35/6 111/17/6 110/14/6 108/38/6
f 99/39/3 98/16/3 96/17/3 97/40/3
f 205/121/5 202/122/5 203/123/5 204/124/5
f 1/2/1 200/1/1 201/3/1
f 201/3/1 2/3/1 1/2/1
f 213/125/5 215/65/13 214/66/13 212/126/5
f 199/122/2 197/127/2 198/128/2 196/123/2
f 195/129/2 193/130/2 194/131/2 192/132/2
f 119/55/1 117/111/1 118/133/1 116/23/1
f 197/134/2 210/74/2 211/73/2 198/135/2
f 67/136/6 65/137/6 66/138/6 64/139/6
f 235/101/6 237/140/6 236/72/6 234/102/6
f 187/141/1 184/142/1 185/143/1 186/144/1
f 225/145/3 223/90/3 224/102/3 222/110/3
f 139/90/7 138/146/7 136/147/7 137/27/7
f 159/94/12 157/148/12 158/96/12 156/95/12
f 229/149/1 226/150/1 227/140/1 228/72/1
