# Blender 5.0.1
# www.blender.org
mtllib BP_NetherPortalParent.mtl
o SM_BrokenPortal__basalt01.001
v -200.000000 -199.999985 99.999939
v -300.000000 -199.999985 99.999939
v -300.000000 -299.999969 99.999947
v -200.000000 -299.999969 99.999947
v -100.000000 -199.999985 99.999939
v -100.000000 -299.999969 99.999947
v 0.000000 -199.999893 699.999939
v -100.000000 -199.999893 699.999939
v -100.000000 -299.999878 699.999939
v 0.000000 -299.999878 699.999939
v 100.000000 -199.999985 99.999939
v 0.000000 -199.999985 99.999939
v 0.000000 -299.999969 99.999947
v 100.000000 -299.999969 99.999947
v 200.000000 -199.999985 49.999939
v 100.000000 -199.999985 49.999939
v 100.000000 -300.000000 49.999954
v 200.000000 -300.000000 49.999954
v -200.000000 -99.999985 99.999924
v -300.000000 -99.999985 99.999924
v -100.000000 -99.999969 199.999924
v -200.000000 -99.999969 199.999924
v -200.000000 -199.999969 199.999939
v -100.000000 -199.999969 199.999939
v 0.000000 -99.999886 699.999878
v -100.000000 -99.999886 699.999878
v 200.000000 -99.999985 99.999924
v 100.000000 -99.999985 99.999924
v 200.000000 -199.999985 99.999939
v 300.000000 -99.999992 49.999920
v 200.000000 -99.999992 49.999920
v 300.000000 -199.999985 49.999939
v -200.000000 0.000016 99.999908
v -300.000000 0.000016 99.999908
v -100.000000 0.000033 199.999908
v -200.000000 0.000033 199.999908
v 0.000000 0.000033 199.999908
v 0.000000 -99.999969 199.999924
v 200.000000 0.000016 99.999908
v 100.000000 0.000016 99.999908
v 300.000000 0.000008 49.999905
v 200.000000 0.000008 49.999905
v -200.000000 100.000015 99.999893
v -300.000000 100.000015 99.999893
v -100.000000 100.000031 199.999893
v -200.000000 100.000031 199.999893
v 0.000000 100.000031 199.999893
v 200.000000 100.000015 99.999893
v 100.000000 100.000015 99.999893
v 300.000000 100.000008 49.999889
v 200.000000 100.000008 49.999889
v -200.000000 200.000015 99.999878
v -300.000000 200.000015 99.999878
v -100.000000 200.000031 199.999878
v -200.000000 200.000031 199.999878
v 0.000000 200.000046 299.999878
v -100.000000 200.000046 299.999878
v -100.000000 100.000046 299.999878
v 0.000000 100.000046 299.999878
v 200.000000 200.000015 99.999878
v 100.000000 200.000015 99.999878
v 300.000000 200.000015 49.999870
v 200.000000 200.000015 49.999870
v -200.000000 300.000031 99.999863
v -300.000000 300.000031 99.999863
v -100.000000 300.000031 199.999863
v -200.000000 300.000031 199.999863
v 0.000000 300.000061 399.999847
v -100.000000 300.000061 399.999847
v -100.000000 200.000061 399.999878
v 0.000000 200.000061 399.999878
v 100.000000 300.000031 99.999863
v 0.000000 300.000031 99.999863
v 0.000000 200.000015 99.999878
v 200.000000 300.000000 49.999855
v 100.000000 300.000000 49.999855
v 100.000000 200.000015 49.999870
v -200.000000 -299.999969 99.999947
v -300.000000 -299.999969 99.999947
v -300.000000 -300.000000 -0.000046
v -200.000000 -300.000000 -0.000046
v -100.000000 -299.999969 99.999947
v -100.000000 -300.000000 -0.000046
v -200.000000 300.000031 99.999863
v -100.000000 300.000031 99.999863
v -100.000000 300.000000 -0.000144
v -200.000000 300.000000 -0.000144
v -300.000000 300.000031 99.999863
v -300.000000 300.000000 -0.000144
v -300.000000 200.000015 99.999878
v -300.000000 300.000031 99.999863
v -300.000000 300.000000 -0.000144
v -300.000000 200.000000 -0.000128
v -300.000000 100.000015 99.999893
v -300.000000 100.000000 -0.000112
v -300.000000 0.000016 99.999908
v -300.000000 -0.000000 -0.000095
v -300.000000 -99.999985 99.999924
v -300.000000 -100.000000 -0.000079
v -300.000000 -199.999985 99.999939
v -300.000000 -200.000000 -0.000063
v -300.000000 -299.999969 99.999947
v -300.000000 -300.000000 -0.000046
v -100.000000 -199.999969 199.999939
v -200.000000 -199.999969 199.999939
v -200.000000 -199.999985 99.999939
v -100.000000 -199.999985 99.999939
v -200.000000 300.000031 199.999863
v -100.000000 300.000031 199.999863
v -200.000000 200.000031 199.999878
v -200.000000 300.000031 199.999863
v -200.000000 300.000031 99.999863
v -200.000000 200.000015 99.999878
v -200.000000 100.000031 199.999893
v -200.000000 100.000015 99.999893
v -200.000000 0.000033 199.999908
v -200.000000 0.000016 99.999908
v -200.000000 -99.999969 199.999924
v -200.000000 -99.999985 99.999924
v -200.000000 -199.999969 199.999939
v -200.000000 -199.999985 99.999939
v 200.000000 -300.000000 49.999954
v 100.000000 -300.000000 49.999954
v 100.000000 -300.000000 -0.000046
v 200.000000 -300.000000 -0.000046
v 200.000000 -199.999985 49.999939
v 200.000000 -300.000000 49.999954
v 200.000000 -300.000000 -0.000046
v 200.000000 -200.000000 -0.000063
v 300.000000 -199.999985 49.999939
v 200.000000 -199.999985 49.999939
v 200.000000 -200.000000 -0.000063
v 300.000000 -200.000000 -0.000063
v 300.000000 -99.999992 49.999920
v 300.000000 -199.999985 49.999939
v 300.000000 -200.000000 -0.000063
v 300.000000 -100.000000 -0.000079
v 300.000000 0.000008 49.999905
v 300.000000 -0.000000 -0.000095
v 300.000000 100.000008 49.999889
v 300.000000 100.000000 -0.000112
v 300.000000 200.000015 49.999870
v 300.000000 200.000000 -0.000128
v 200.000000 200.000015 49.999870
v 300.000000 200.000015 49.999870
v 300.000000 200.000000 -0.000128
v 200.000000 200.000000 -0.000128
v 200.000000 300.000000 49.999855
v 200.000000 200.000015 49.999870
v 200.000000 200.000000 -0.000128
v 200.000000 300.000000 -0.000144
v 100.000000 300.000000 49.999855
v 200.000000 300.000000 49.999855
v 200.000000 300.000000 -0.000144
v 100.000000 300.000000 -0.000144
v 0.000000 -299.999969 99.999947
v 0.000000 -300.000000 -0.000046
v 100.000000 -299.999969 99.999947
v 0.000000 300.000031 99.999863
v 100.000000 300.000031 99.999863
v 0.000000 300.000000 -0.000144
v 100.000000 -99.999977 149.999924
v 100.000000 0.000016 99.999908
v 100.000000 0.000025 149.999908
v 100.000000 -99.999985 99.999924
v 100.000000 100.000015 99.999893
v 100.000000 100.000023 149.999893
v 0.000000 300.000031 199.999863
v 0.000000 -299.999969 199.999954
v -100.000000 -299.999969 199.999954
v -100.000000 -99.999954 299.999939
v 0.000000 -99.999954 299.999939
v 0.000000 -99.999969 199.999924
v -100.000000 -99.999969 199.999924
v -100.000000 -199.999954 299.999939
v -100.000000 -99.999954 299.999939
v -100.000000 -99.999969 199.999924
v -100.000000 -199.999969 199.999939
v -100.000000 -299.999939 299.999969
v -100.000000 -299.999969 199.999954
v 0.000000 -299.999939 299.999969
v -100.000000 -299.999939 299.999969
v 0.000000 -199.999954 299.999939
v 0.000000 -299.999939 299.999969
v 0.000000 -299.999969 199.999954
v 0.000000 -199.999969 199.999939
v 0.000000 100.000046 299.999878
v -100.000000 100.000046 299.999878
v -100.000000 100.000031 199.999893
v 0.000000 100.000031 199.999893
v 0.000000 300.000061 299.999847
v 0.000000 200.000046 299.999878
v 0.000000 200.000031 199.999878
v 0.000000 300.000031 199.999863
v -100.000000 300.000061 299.999847
v 0.000000 300.000061 299.999847
v -100.000000 200.000046 299.999878
v -100.000000 300.000061 299.999847
v -100.000000 300.000031 199.999863
v -100.000000 200.000031 199.999878
v -100.000000 100.000046 299.999878
v -100.000000 100.000031 199.999893
v -100.000000 -99.999931 399.999939
v 0.000000 -99.999931 399.999939
v -100.000000 -199.999939 399.999939
v -100.000000 -99.999931 399.999939
v -100.000000 -299.999939 399.999969
v 0.000000 -299.999939 399.999969
v -100.000000 -299.999939 399.999969
v 0.000000 -199.999939 399.999939
v 0.000000 -299.999939 399.999969
v 0.000000 -99.999931 399.999939
v 0.000000 -99.999954 299.999939
v 0.000000 200.000061 399.999878
v -100.000000 200.000061 399.999878
v -100.000000 200.000046 299.999878
v 0.000000 200.000046 299.999878
v 0.000000 300.000061 399.999847
v 0.000000 200.000061 399.999878
v -100.000000 300.000061 399.999847
v 0.000000 300.000061 399.999847
v -100.000000 200.000061 399.999878
v -100.000000 300.000061 399.999847
v -100.000000 -99.999916 499.999939
v 0.000000 -99.999916 499.999939
v -100.000000 -299.999908 499.999969
v -100.000000 -199.999924 499.999939
v 0.000000 -299.999908 499.999969
v -100.000000 -299.999908 499.999969
v 0.000000 -199.999924 499.999939
v 0.000000 -299.999908 499.999969
v -100.000000 100.000099 599.999878
v 0.000000 100.000099 599.999878
v 0.000000 100.000084 499.999878
v -100.000000 100.000084 499.999878
v -100.000000 -299.999908 599.999939
v -100.000000 -199.999908 599.999939
v 0.000000 -299.999908 599.999939
v -100.000000 -299.999908 599.999939
v 0.000000 -199.999908 599.999939
v 0.000000 -299.999908 599.999939
v -100.000000 100.000114 699.999878
v 0.000000 100.000114 699.999878
v -100.000000 -199.999893 699.999939
v -100.000000 -99.999886 699.999878
v -100.000000 -99.999901 599.999878
v -100.000000 -299.999878 699.999939
v 0.000000 -299.999878 699.999939
v -100.000000 -299.999878 699.999939
v 0.000000 -199.999893 699.999939
v 0.000000 -299.999878 699.999939
v 0.000000 -99.999886 699.999878
v 0.000000 -99.999901 599.999878
v -100.000000 -99.999916 499.999939
v -100.000000 0.000081 499.999908
v 0.000000 -99.999916 499.999939
v 0.000000 0.000081 499.999908
v -100.000000 0.000098 599.999878
v -100.000000 -99.999916 499.999939
v -100.000000 0.000081 499.999908
v -100.000000 -49.999878 749.999878
v 0.000000 -99.999878 749.999878
v 0.000000 -49.999878 749.999878
v -100.000000 -99.999878 749.999878
v 0.000000 0.000098 599.999878
v 0.000000 0.000081 499.999908
v 0.000000 -99.999916 499.999939
v -100.000000 100.000084 499.999878
v 0.000000 100.000084 499.999878
v -100.000000 100.000099 599.999878
v -100.000000 100.000084 499.999878
v -100.000000 50.000130 799.999878
v 0.000000 0.000130 799.999878
v 0.000000 50.000130 799.999878
v -100.000000 0.000130 799.999878
v 0.000000 100.000099 599.999878
v 0.000000 100.000084 499.999878
v -100.000000 -299.999969 99.999947
v -100.000000 -199.999985 99.999939
v 0.000000 -199.999969 149.999939
v 0.000002 -149.999969 199.999939
v 0.000002 -149.999969 149.999939
v 50.000000 -99.999977 149.999924
v 50.000000 0.000033 199.999908
v 50.000000 -99.999969 199.999924
v 50.000000 0.000025 149.999908
v 50.000000 100.000031 199.999893
v 50.000000 100.000023 149.999893
v 50.000000 150.000031 199.999878
v 50.000000 150.000031 149.999878
v 0.000000 150.000031 199.999878
v 0.000000 150.000031 149.999878
v 0.000000 200.000031 149.999878
v 50.000000 -149.999969 199.999939
v 50.000000 -149.999969 149.999939
v 50.000000 150.000031 199.999878
v 0.000000 150.000031 149.999878
v 0.000000 150.000031 199.999878
v 50.000000 150.000031 149.999878
v 50.000000 150.000031 199.999878
v 0.000000 150.000031 199.999878
v 50.000000 100.000031 199.999893
v 50.000000 0.000033 199.999908
v 50.000000 -99.999969 199.999924
v 0.000002 -149.999969 199.999939
v 50.000000 -149.999969 199.999939
v 50.000000 -149.999969 199.999939
v 0.000002 -149.999969 199.999939
v 50.000000 -149.999969 149.999939
v 0.000002 -149.999969 149.999939
v 100.000000 -99.999977 149.999924
v 100.000000 0.000025 149.999908
v 50.000000 0.000025 149.999908
v 50.000000 -99.999977 149.999924
v 100.000000 100.000023 149.999893
v 50.000000 100.000023 149.999893
v 100.000000 -300.000000 49.999935
v 100.000000 -199.999985 99.999939
v 100.000000 -299.999969 99.999947
v 100.000000 -199.999985 49.999920
v 200.000000 -199.999985 99.999939
v 100.000000 -199.999985 99.999939
v 100.000000 -199.999985 49.999920
v 200.000000 -199.999985 49.999920
v 200.000000 -199.999985 49.999920
v 200.000000 -99.999985 99.999924
v 200.000000 -199.999985 99.999939
v 200.000000 -99.999992 49.999901
v 200.000000 0.000016 99.999908
v 200.000000 0.000008 49.999886
v 200.000000 100.000015 99.999893
v 200.000000 100.000008 49.999870
v 200.000000 200.000015 99.999878
v 200.000000 200.000015 49.999851
v 200.000000 200.000015 49.999851
v 100.000000 200.000015 99.999878
v 200.000000 200.000015 99.999878
v 100.000000 200.000015 49.999851
v 100.000000 300.000031 99.999863
v 100.000000 200.000015 99.999878
v 100.000000 200.000015 49.999851
v 100.000000 300.000000 49.999836
v 100.000008 -99.999893 649.999878
v 100.000008 0.000106 649.999878
v 100.000008 -99.999886 699.999878
v 100.000008 0.000114 699.999878
v -0.000019 -99.999886 699.999878
v 100.000008 -99.999893 649.999878
v 100.000008 -99.999886 699.999878
v -0.000019 -99.999893 649.999878
v -0.000019 -99.999893 649.999878
v 100.000008 0.000106 649.999878
v 100.000008 -99.999893 649.999878
v -0.000019 0.000106 649.999878
v 100.000008 0.000106 649.999878
v -0.000019 0.000106 649.999878
v 100.000008 0.000114 699.999878
v -0.000019 0.000114 699.999878
v -0.000019 0.000114 699.999878
v 100.000008 -99.999886 699.999878
v 100.000008 0.000114 699.999878
v -0.000019 -99.999886 699.999878
v 0.000000 -99.999878 749.999878
v -100.000000 -99.999878 749.999878
v -100.000000 -99.999886 699.999878
v 0.000000 -99.999886 699.999878
v 0.000000 -99.999878 749.999878
v 0.000000 -49.999886 699.999878
v 0.000000 -49.999878 749.999878
v 0.000000 0.000122 749.999878
v 0.000000 50.000114 699.999878
v 0.000000 50.000122 749.999878
v 0.000000 0.000114 699.999878
v -100.000000 100.000122 749.999878
v 0.000000 100.000122 749.999878
v -100.000000 100.000122 749.999878
v -100.000000 50.000114 699.999878
v -100.000000 50.000122 749.999878
v -100.000000 100.000114 699.999878
v -100.000000 0.000122 749.999878
v -100.000000 -49.999886 699.999878
v -100.000000 -49.999878 749.999878
v -100.000000 0.000114 699.999878
v -100.000000 -49.999870 799.999878
v 0.000000 -49.999870 799.999878
v -100.000000 -99.999878 749.999878
v -100.000000 50.000122 749.999878
v 0.000000 100.000122 749.999878
v -100.000000 100.000122 749.999878
v 0.000000 50.000122 749.999878
v 0.000000 100.000114 699.999878
v 0.000000 100.000122 749.999878
v 0.000000 50.000130 799.999878
v 0.000000 0.000130 799.999878
v -100.000000 50.000130 799.999878
v 0.000000 50.000130 799.999878
v 0.000000 50.000122 749.999878
v -100.000000 50.000122 749.999878
v -100.000000 0.000130 799.999878
v -100.000000 50.000130 799.999878
v -100.000000 -49.999870 799.999878
v 0.000000 -49.999870 799.999878
v -100.000000 -49.999870 799.999878
v -100.000000 -49.999878 749.999878
v 0.000000 -49.999878 749.999878
v 0.000000 -49.999870 799.999878
v 0.000000 300.000031 99.999863
v 0.000000 200.000015 99.999878
v 0.000002 -149.999969 149.999939
v 0.000000 -199.999969 149.999939
v 50.000000 -199.999969 149.999939
v 50.000000 -149.999969 149.999939
v 100.000000 -199.999969 149.999939
v 100.000000 -149.999969 149.999939
v 0.000000 -199.999969 149.999939
v 0.000000 -199.999985 99.999939
v 50.000000 -199.999985 99.999939
v 50.000000 -199.999969 149.999939
v 100.000000 -199.999969 149.999939
v 0.000000 -299.999969 99.999947
v 0.000000 -199.999985 99.999939
v 100.000000 -149.999985 99.999931
v 100.000000 -199.999969 149.999939
v 100.000000 -149.999969 149.999939
v 100.000000 150.000015 99.999886
v 100.000000 150.000031 149.999878
v 100.000000 200.000031 149.999878
v 0.000000 -99.999969 199.999924
v 0.000000 100.000046 299.999878
v 0.000000 100.000031 199.999893
v 50.000000 200.000031 149.999878
v 0.000000 200.000015 99.999878
v 0.000000 200.000031 149.999878
v 50.000000 200.000015 99.999878
v 100.000000 200.000031 149.999878
v 100.000000 200.000031 149.999878
v 50.000000 200.000031 149.999878
v 100.000000 150.000031 149.999878
v 50.000000 150.000031 149.999878
v 0.000000 200.000031 149.999878
v 0.000000 150.000031 149.999878
vn -0.0000 -0.0000 1.0000
vn -0.0000 -1.0000 -0.0000
vn -0.0000 1.0000 -0.0000
vn -1.0000 -0.0000 -0.0000
vn 1.0000 -0.0000 -0.0000
vn -0.0000 -0.0000 -1.0000
vt 0.750000 0.625000
vt 0.750000 0.750000
vt 0.625000 0.750000
vt 0.625000 0.625000
vt 0.250000 0.500000
vt 0.250000 0.625000
vt 0.125000 0.625000
vt 0.125000 0.500000
vt 0.125000 0.375000
vt 0.000031 0.500000
vt 0.000031 0.375000
vt 0.125000 0.250000
vt 0.000031 0.250000
vt 1.000000 0.750000
vt 1.000000 0.875000
vt 0.875000 0.875000
vt 0.875000 0.750000
vt 0.750000 0.875000
vt 0.750000 0.999969
vt 0.625000 0.999969
vt 0.625000 0.875000
vt 0.375000 0.812500
vt 0.375000 0.875000
vt 0.250000 0.875000
vt 0.250000 0.812500
vt 0.375000 0.187500
vt 0.375000 0.250000
vt 0.250000 0.250000
vt 0.250000 0.187500
vt 0.750000 0.187500
vt 0.875000 0.187500
vt 0.875000 0.250000
vt 0.750000 0.250000
vt 0.187500 0.625000
vt 0.187500 0.500000
vt 0.500000 0.812500
vt 0.500000 0.875000
vt 0.812500 0.187500
vt 0.812500 0.250000
vt 0.500000 0.750000
vt 0.375000 0.750000
vt 0.500000 0.375000
vt 0.500000 0.500000
vt 0.375000 0.500000
vt 0.375000 0.375000
vt 0.250000 0.750000
vt 1.000000 0.812500
vt 0.875000 0.812500
vt 0.750000 0.757812
vt 0.750000 0.820312
vt 0.625000 0.820312
vt 0.625000 0.757812
vt 0.312500 0.750000
vt 0.312500 0.875000
vt 0.875000 0.125000
vt 0.750000 0.125000
vt 0.625000 0.812500
vt 0.750000 0.812500
vt 0.125000 0.999969
vt 0.000031 0.999969
vt 0.000031 0.875000
vt 0.125000 0.875000
vt 1.000000 0.999969
vt 0.875000 0.999969
vt 0.312500 0.187500
vt 0.312500 0.250000
vt 0.312500 0.812500
vt 0.250000 0.125000
vt 0.375000 0.125000
vt -0.000031 0.500000
vt 0.500000 0.999969
vt 0.375000 0.999969
vt 0.125000 0.437500
vt 0.062500 0.500000
vt 0.062500 0.437500
vt 0.312500 0.125000
vt 0.812500 0.125000
vt 0.000031 0.437500
vt 0.375000 0.445312
vt 0.375000 0.625000
vt 0.062500 0.375000
vt 0.437500 0.875000
vt 0.429688 0.750000
vt 0.500000 0.937500
vt 0.375000 0.937500
s 1
usemtl MI_PortalsNether
f 35/1/1 45/2/1 46/3/1 36/4/1
f 195/5/3 220/6/3 221/7/3 196/8/3
f 37/9/1 47/8/1 45/10/1 35/11/1
f 190/9/2 187/8/2 188/10/2 189/11/2
f 171/12/3 203/9/3 204/11/3 172/13/3
f 115/14/4 114/15/4 110/16/4 113/17/4
f 354/7/6 352/8/6 353/5/6 351/6/6
f 1/18/1 19/19/1 20/20/1 2/21/1
f 405/22/2 402/23/2 403/24/2 404/25/2
f 89/2/3 88/18/3 84/21/3 87/3/3
f 84/14/3 108/15/3 109/16/3 85/17/3
f 288/26/5 287/27/5 284/28/5 286/29/5
f 18/18/1 15/19/1 16/20/1 17/21/1
f 165/30/5 163/31/5 164/32/5 162/33/5
f 356/34/3 358/7/3 357/8/3 355/35/3
f 156/14/2 169/15/2 170/16/2 82/17/2
f 324/36/2 321/37/2 322/23/2 323/22/2
f 434/38/3 432/31/3 433/32/3 431/39/3
f 6/18/1 5/19/1 1/20/1 4/21/1
f 203/12/3 224/9/3 225/11/3 204/13/3
f 29/40/1 27/37/1 28/23/1 11/41/1
f 85/42/3 109/43/3 168/44/3 159/45/3
f 208/41/2 228/23/2 229/24/2 209/46/2
f 7/40/1 25/37/1 26/23/1 8/41/1
f 139/47/5 138/15/5 134/16/5 137/48/5
f 147/14/3 144/15/3 145/16/3 146/17/3
f 322/31/2 419/32/2 418/39/2 417/38/2
f 155/49/3 152/50/3 153/51/3 154/52/3
f 141/47/5 140/15/5 138/16/5 139/48/5
f 27/40/1 39/37/1 40/23/1 28/41/1
f 4/18/1 1/19/1 2/20/1 3/21/1
f 385/46/1 273/53/1 275/54/1 384/24/1
f 14/18/1 11/19/1 12/20/1 13/21/1
f 228/41/2 238/23/2 239/24/2 229/46/2
f 267/9/5 253/8/5 240/10/5 230/11/5
f 93/2/4 90/18/4 91/21/4 92/3/4
f 194/5/5 191/6/5 192/7/5 193/8/5
f 181/55/2 208/32/2 209/33/2 182/56/2
f 48/40/1 60/37/1 61/23/1 49/41/1
f 320/21/5 318/57/5 319/58/5 317/18/5
f 316/31/1 313/30/1 312/56/1 315/55/1
f 39/59/1 48/60/1 49/61/1 40/62/1
f 103/2/4 102/18/4 100/21/4 101/3/4
f 41/15/1 50/63/1 51/64/1 42/16/1
f 257/10/6 256/11/6 254/9/6 255/8/6
f 81/2/2 78/18/2 79/21/2 80/3/2
f 133/14/2 130/15/2 131/16/2 132/17/2
f 264/25/1 262/22/1 263/23/1 261/24/1
f 226/41/4 236/23/4 237/24/4 227/46/4
f 269/10/6 257/11/6 255/9/6 268/8/6
f 113/14/4 110/15/4 111/16/4 112/17/4
f 275/25/1 273/22/1 274/23/1 272/24/1
f 38/9/1 37/8/1 35/10/1 21/11/1
f 178/17/4 279/14/4 278/15/4 180/16/4
f 299/65/3 297/26/3 298/27/3 296/66/3
f 252/67/5 368/22/5 369/23/5 367/54/5
f 21/15/1 35/63/1 36/64/1 22/16/1
f 426/39/5 167/33/5 166/30/5 425/38/5
f 157/14/2 156/15/2 82/16/2 83/17/2
f 47/31/1 37/30/1 303/56/1 302/55/1
f 52/18/1 64/19/1 65/20/1 53/21/1
f 50/15/1 62/63/1 63/64/1 51/16/1
f 398/22/3 395/23/3 396/24/3 397/25/3
f 24/15/1 21/63/1 22/64/1 23/16/1
f 32/15/1 30/63/1 31/64/1 15/16/1
f 33/18/1 43/19/1 44/20/1 34/21/1
f 180/55/4 179/32/4 175/33/4 178/56/4
f 97/2/4 96/18/4 94/21/4 95/3/4
f 83/2/2 82/18/2 78/21/2 81/3/2
f 383/67/4 381/22/4 382/23/4 380/54/4
f 390/46/1 388/53/1 389/54/1 387/24/1
f 202/9/4 201/8/4 197/10/4 200/11/4
f 30/15/1 41/63/1 42/64/1 31/16/1
f 330/36/5 329/37/5 326/23/5 328/22/5
f 200/5/4 197/6/4 198/7/4 199/8/4
f 417/38/2 418/39/2 415/33/2 416/30/2
f 213/12/5 212/9/5 210/11/5 183/13/5
f 191/5/5 218/6/5 219/7/5 192/8/5
f 411/30/1 412/38/1 409/39/1 410/33/1
f 197/5/4 222/6/4 223/7/4 198/8/4
f 240/40/5 250/37/5 251/23/5 241/41/5
f 101/2/4 100/18/4 98/21/4 99/3/4
f 290/38/5 289/39/5 287/33/5 288/30/5
f 107/14/2 104/15/2 105/16/2 106/17/2
f 283/26/5 285/27/5 294/66/5 295/65/5
f 19/18/1 33/19/1 34/20/1 20/21/1
f 210/41/5 230/23/5 231/24/5 211/46/5
f 217/5/2 214/6/2 215/7/2 216/8/2
f 143/47/5 142/15/5 140/16/5 141/48/5
f 99/2/4 98/18/4 96/21/4 97/3/4
f 151/49/5 148/50/5 149/51/5 150/52/5
f 109/5/3 195/6/3 196/7/3 168/8/3
f 129/49/5 126/50/5 127/51/5 128/52/5
f 63/18/1 75/19/1 76/20/1 77/21/1
f 137/47/5 134/15/5 135/16/5 136/48/5
f 121/14/4 120/15/4 118/16/4 119/17/4
f 427/32/5 426/39/5 425/38/5 340/31/5
f 237/62/4 244/59/4 245/60/4 246/61/4
f 59/9/1 56/8/1 57/10/1 58/11/1
f 334/36/5 333/37/5 331/23/5 332/22/5
f 313/26/1 314/29/1 311/68/1 312/69/1
f 230/41/5 240/23/5 241/24/5 231/46/5
f 125/49/2 122/50/2 123/51/2 124/52/2
f 370/22/5 394/23/5 406/54/5 369/67/5
f 238/40/2 248/37/2 249/23/2 239/41/2
f 253/70/5 267/11/5 266/9/5 265/8/5
f 186/55/5 183/32/5 184/33/5 185/56/5
f 232/37/3 242/71/3 243/72/3 233/23/3
f 293/73/5 193/8/5 291/74/5 292/75/5
f 61/18/1 72/19/1 73/20/1 74/21/1
f 253/62/5 252/59/5 250/60/5 240/61/5
f 308/28/2 310/29/2 309/65/2 307/66/2
f 236/40/4 247/37/4 244/23/4 237/41/4
f 286/31/5 284/32/5 285/33/5 283/30/5
f 86/2/3 85/18/3 159/21/3 161/3/3
f 38/65/1 305/29/1 306/68/1 304/76/1
f 161/2/3 159/18/3 160/21/3 155/3/3
f 124/2/2 158/18/2 156/21/2 157/3/2
f 37/31/1 38/30/1 304/56/1 303/55/1
f 301/31/1 47/38/1 302/77/1 300/55/1
f 282/75/5 281/74/5 186/10/5 280/78/5
f 95/2/4 94/18/4 90/21/4 93/3/4
f 174/9/3 171/8/3 172/10/3 173/11/3
f 265/70/5 266/11/5 277/9/5 276/8/5
f 332/36/5 331/37/5 329/23/5 330/22/5
f 207/41/4 226/23/4 227/24/4 205/46/4
f 424/39/5 423/33/5 318/30/5 422/38/5
f 119/14/4 118/15/4 116/16/4 117/17/4
f 260/10/4 259/11/4 246/9/4 258/8/4
f 377/67/4 383/22/4 380/23/4 378/54/4
f 45/15/1 54/63/1 55/64/1 46/16/1
f 163/30/5 166/31/5 167/32/5 164/33/5
f 350/7/2 348/8/2 349/35/2 347/34/2
f 338/36/3 336/37/3 337/23/3 335/22/3
f 87/14/3 84/15/3 85/16/3 86/17/3
f 382/22/4 401/23/4 399/54/4 380/67/4
f 379/67/4 377/22/4 378/23/4 376/54/4
f 437/31/1 439/38/1 438/77/1 436/55/1
f 212/12/5 267/9/5 230/11/5 210/13/5
f 344/34/5 346/7/5 345/8/5 343/35/5
f 242/22/3 374/23/3 375/24/3 243/25/3
f 373/67/5 371/22/5 372/23/5 370/54/5
f 175/12/4 205/9/4 206/11/4 176/13/4
f 169/55/2 181/32/2 182/33/2 170/56/2
f 205/12/4 227/9/4 259/11/4 206/13/4
f 271/10/4 260/11/4 258/9/4 270/8/4
f 368/67/5 373/22/5 370/23/5 369/54/5
f 366/22/2 363/23/2 364/24/2 365/25/2
f 381/67/4 245/22/4 386/23/4 382/54/4
f 371/67/5 391/22/5 392/23/5 372/54/5
f 362/7/1 360/8/1 361/5/1 359/6/1
f 372/22/5 393/23/5 394/54/5 370/67/5
f 293/79/5 194/43/5 193/44/5
f 194/43/5 293/79/5 407/42/5
f 408/45/5 407/42/5 293/79/5
f 342/21/5 339/57/5 340/58/5 341/18/5
f 380/22/4 399/23/4 400/54/4 378/67/4
f 227/9/4 237/8/4 246/10/4 259/11/4
f 328/36/5 326/37/5 327/23/5 325/22/5
f 10/40/1 7/37/1 8/23/1 9/41/1
f 235/9/3 232/8/3 233/10/3 234/11/3
f 440/32/1 441/39/1 439/38/1 437/31/1
f 117/1/4 116/2/4 114/3/4 115/4/4
f 71/44/1 68/80/1 69/6/1 70/5/1
f 186/15/5 185/16/5 280/47/5
f 420/17/5 280/47/5 185/16/5
f 421/14/5 280/47/5 420/17/5
f 179/55/4 207/32/4 205/33/4 175/56/4
f 178/9/4 175/8/4 176/10/4 177/11/4
f 162/32/5 424/39/5 422/38/5 165/31/5
f 183/55/5 210/32/5 211/33/5 184/56/5
f 186/11/5 281/81/5 183/10/5
f 213/8/5 183/10/5 281/81/5
f 428/9/5 213/8/5 281/81/5
f 430/11/5 291/81/5 429/10/5
f 192/8/5 429/10/5 291/81/5
f 193/9/5 192/8/5 291/81/5
f 245/37/4 381/82/4 246/40/4
f 246/40/4 381/82/4 258/41/4
f 383/23/4 258/41/4 381/82/4
f 373/41/5 368/83/5 265/23/5
f 265/23/5 368/83/5 253/37/5
f 252/40/5 253/37/5 368/83/5
f 383/37/4 377/84/4 258/23/4
f 258/23/4 377/84/4 270/72/4
f 379/71/4 270/72/4 377/84/4
f 391/72/5 371/85/5 276/71/5
f 276/71/5 371/85/5 265/37/5
f 373/23/5 265/37/5 371/85/5
f 54/15/1 66/63/1 67/64/1 55/16/1
f 413/56/1 414/77/1 412/38/1 411/30/1
f 336/30/3 434/38/3 431/39/3 435/33/3
f 43/18/1 52/19/1 53/20/1 44/21/1
f 414/77/1 311/55/1 314/31/1 412/38/1
f 439/38/1 316/30/1 315/56/1 438/77/1
