# Blender 5.0.1
# www.blender.org
mtllib BP_NetherPortal__Soulsand04.mtl
o SM__netherportal_soulsand04.001
v -200.000000 -300.000000 99.999779
v -300.000000 -300.000000 99.999779
v -300.000000 -399.999969 99.999802
v -200.000000 -399.999969 99.999802
v -100.000000 -300.000000 99.999779
v -100.000000 -399.999969 99.999802
v 100.000000 -300.000000 99.999779
v 0.000000 -300.000000 99.999779
v 0.000000 -399.999969 99.999802
v 100.000000 -399.999969 99.999802
v 100.000000 -300.000031 49.999771
v 200.000000 -400.000000 49.999798
v 200.000000 -300.000000 49.999783
v 100.000000 -400.000000 49.999786
v -200.000000 -199.999985 99.999763
v -300.000000 -199.999985 99.999763
v -100.000000 -199.999969 199.999756
v -200.000000 -199.999969 199.999756
v -200.000000 -300.000000 199.999771
v -100.000000 -300.000000 199.999771
v 200.000000 -199.999985 99.999763
v 100.000000 -199.999985 99.999763
v 200.000000 -300.000000 99.999779
v -200.000000 0.000016 99.999733
v -300.000000 0.000016 99.999733
v -300.000000 -99.999985 99.999748
v -200.000000 -99.999985 99.999748
v -200.000000 0.000033 199.999725
v -100.000000 -99.999931 199.999741
v -100.000000 0.000033 199.999725
v -200.000000 -99.999969 199.999741
v -0.000002 -99.999931 199.999741
v 0.000000 0.000033 199.999725
v 200.000000 0.000016 99.999733
v 100.000000 0.000016 99.999733
v 100.000000 -99.999985 99.999748
v 200.000000 -99.999985 99.999748
v 300.000000 0.000008 49.999733
v 200.000000 0.000008 49.999725
v 200.000000 -100.000015 49.999748
v 300.000000 -100.000015 49.999748
v -200.000000 100.000015 99.999718
v -300.000000 100.000015 99.999718
v -100.000000 100.000031 199.999710
v -200.000000 100.000031 199.999710
v 0.000000 100.000061 199.999710
v 200.000000 100.000015 99.999718
v 100.000000 100.000015 99.999718
v 200.000015 100.000008 49.999718
v 300.000031 100.000008 49.999725
v -200.000000 200.000015 99.999702
v -300.000000 200.000015 99.999702
v -200.000000 200.000031 199.999695
v -100.000000 200.000046 199.999695
v -98.461533 200.000061 299.999695
v 1.538458 100.000099 299.999695
v 1.538467 200.000061 299.999695
v -98.461540 100.000099 299.999695
v 200.000000 200.000015 99.999702
v 100.000000 200.000015 99.999702
v -200.000000 300.000031 99.999687
v -300.000000 300.000031 99.999687
v -200.000000 300.000031 199.999680
v -100.000000 300.000031 199.999680
v 100.000000 300.000031 99.999687
v 0.000000 300.000031 99.999687
v 0.000000 200.000015 99.999702
v 200.000000 300.000000 49.999683
v 100.000000 300.000000 49.999676
v 100.000000 200.000015 49.999691
v 200.000000 200.000015 49.999699
v -200.000000 -399.999969 99.999802
v -300.000000 -399.999969 99.999802
v -300.000000 -400.000000 -0.000202
v -200.000000 -400.000000 -0.000202
v -100.000000 -399.999969 99.999802
v -100.000000 -400.000000 -0.000202
v -200.000000 300.000031 99.999687
v -100.000000 300.000031 99.999687
v -100.000000 300.000000 -0.000316
v -200.000000 300.000000 -0.000316
v -300.000000 300.000031 99.999687
v -300.000000 300.000000 -0.000316
v -300.000000 200.000015 99.999702
v -300.000000 300.000031 99.999687
v -300.000000 300.000000 -0.000316
v -300.000000 200.000000 -0.000300
v -300.000000 100.000015 99.999718
v -300.000000 100.000000 -0.000283
v -300.000000 0.000016 99.999733
v -300.000000 -0.000000 -0.000267
v -300.000000 -99.999985 99.999748
v -300.000000 -100.000000 -0.000251
v -300.000000 -300.000000 99.999779
v -300.000000 -199.999985 99.999763
v -300.000000 -200.000000 -0.000234
v -300.000000 -300.000031 -0.000218
v -300.000000 -399.999969 99.999802
v -300.000000 -400.000000 -0.000202
v -100.000000 -300.000000 199.999771
v -200.000000 -300.000000 199.999771
v -200.000000 -300.000000 99.999779
v -100.000000 -300.000000 99.999779
v -200.000000 300.000031 199.999680
v -100.000000 300.000031 199.999680
v -200.000000 200.000031 199.999695
v -200.000000 300.000031 199.999680
v -200.000000 300.000031 99.999687
v -200.000000 200.000015 99.999702
v -200.000000 100.000031 199.999710
v -200.000000 100.000015 99.999718
v -200.000000 0.000033 199.999725
v -200.000000 0.000016 99.999733
v -200.000000 -99.999969 199.999741
v -200.000000 -99.999985 99.999748
v -200.000000 -300.000000 199.999771
v -200.000000 -199.999969 199.999756
v -200.000000 -199.999985 99.999763
v -200.000000 -300.000000 99.999779
v 100.000000 -400.000000 49.999786
v 200.000000 -400.000000 -0.000202
v 200.000000 -400.000000 49.999798
v 100.000000 -400.000000 -0.000202
v 200.000000 -300.000000 49.999783
v 200.000000 -400.000000 49.999798
v 200.000000 -400.000000 -0.000202
v 200.000000 -300.000000 -0.000218
v 300.000000 0.000008 49.999733
v 300.000000 -100.000015 49.999748
v 300.000000 -100.000015 -0.000251
v 300.000000 -0.000000 -0.000267
v 300.000000 100.000000 -0.000274
v 300.000031 100.000008 49.999725
v 200.000000 300.000000 49.999683
v 200.000000 200.000015 49.999699
v 200.000000 200.000000 -0.000300
v 200.000000 300.000000 -0.000316
v 100.000000 300.000000 49.999676
v 200.000000 300.000000 49.999683
v 200.000000 300.000000 -0.000316
v 100.000000 300.000000 -0.000316
v 0.000000 -399.999969 99.999802
v 0.000000 -400.000000 -0.000202
v 100.000000 -399.999969 99.999802
v 0.000000 300.000031 99.999687
v 100.000000 300.000031 99.999687
v 0.000000 300.000000 -0.000316
v 100.000000 -99.999977 149.999741
v 100.000000 0.000016 99.999733
v 100.000000 0.000025 149.999725
v 100.000000 -99.999985 99.999748
v 100.000000 100.000015 99.999718
v 100.000000 100.000023 149.999710
v 0.000000 300.000031 199.999680
v -0.000007 -399.999969 199.999786
v -100.000000 -399.999969 199.999786
v -98.461533 200.000061 299.999695
v 1.538467 200.000061 299.999695
v 1.538467 200.000046 199.999695
v -98.461533 200.000046 199.999695
v -98.461548 0.000106 299.999725
v -98.461540 100.000099 299.999695
v -98.461540 100.000084 199.999710
v -98.461548 0.000090 199.999725
v 1.538448 0.000106 299.999725
v -98.461548 0.000106 299.999725
v -98.461548 0.000090 199.999725
v 1.538448 0.000090 199.999725
v 1.538458 100.000099 299.999695
v 1.538448 0.000106 299.999725
v 1.538448 0.000090 199.999725
v 1.538458 100.000084 199.999710
v 1.538467 200.000061 299.999695
v 1.538467 200.000046 199.999695
v -98.461548 100.000069 399.999695
v 1.538452 100.000069 399.999695
v 1.538458 100.000099 299.999695
v -98.461540 100.000099 299.999695
v -98.461548 0.000065 399.999725
v -98.461548 100.000069 399.999695
v 1.538452 0.000065 399.999725
v -98.461548 0.000065 399.999725
v 1.538452 0.000065 399.999725
v 1.538452 100.000069 399.999695
v -100.000000 -399.999969 199.999786
v -100.000000 -300.000000 199.999771
v -100.000000 -399.999969 99.999802
v -100.000000 -300.000000 99.999779
v 0.000000 -300.000000 149.999771
v -0.000001 -249.999985 199.999771
v -0.000006 -300.000000 199.999771
v 0.000002 -249.999985 149.999771
v 50.000000 -99.999977 149.999741
v 50.000000 0.000033 199.999725
v 50.000000 -99.999969 199.999741
v 50.000000 0.000025 149.999725
v 50.000000 100.000046 199.999710
v 50.000008 100.000038 149.999710
v 50.000000 -249.999985 149.999771
v 50.000000 -199.999969 199.999756
v 50.000000 -249.999985 199.999771
v 50.000000 -199.999969 149.999756
v 50.000000 -250.000000 99.999771
v 0.000002 -250.000000 99.999771
v 50.000000 -199.999985 99.999763
v 0.000000 -199.999985 99.999763
v 50.000000 100.000046 199.999710
v 50.000000 0.000033 199.999725
v 50.000000 -99.999969 199.999741
v 50.000000 -199.999969 199.999756
v -0.000001 -249.999985 199.999771
v 50.000000 -249.999985 199.999771
v -0.000003 -199.999954 199.999756
v 50.000000 -249.999985 199.999771
v 0.000002 -249.999985 149.999771
v 50.000000 -249.999985 149.999771
v -0.000001 -249.999985 199.999771
v 100.000000 -99.999977 149.999741
v 100.000000 0.000025 149.999725
v 50.000000 0.000025 149.999725
v 50.000000 -99.999977 149.999741
v 100.000000 100.000023 149.999710
v 50.000008 100.000038 149.999710
v 100.000000 -399.999969 99.999802
v 100.000000 -300.000031 49.999771
v 100.000000 -300.000000 99.999779
v 100.000000 -400.000000 49.999786
v 100.000000 -300.000000 99.999779
v 200.000000 -300.000000 49.999783
v 200.000000 -300.000000 99.999779
v 100.000000 -300.000031 49.999771
v 200.000000 -199.999985 99.999763
v 200.000000 -300.000000 99.999779
v 200.000000 -199.999985 49.999767
v 200.000000 -99.999985 99.999748
v 200.000000 0.000008 49.999725
v 200.000000 0.000016 99.999733
v 200.000000 -100.000015 49.999748
v 200.000015 100.000008 49.999718
v 200.000000 100.000015 99.999718
v 200.000000 200.000015 99.999702
v 100.000000 200.000015 99.999702
v 200.000000 200.000015 99.999702
v 200.000000 200.000015 49.999699
v 100.000000 200.000015 49.999691
v 100.000000 200.000015 49.999691
v 100.000000 300.000031 99.999687
v 100.000000 200.000015 99.999702
v 100.000000 300.000000 49.999676
v 100.000000 -199.999969 149.999756
v 100.000000 -199.999985 99.999763
v 100.000000 -199.999969 149.999756
v 50.000000 -199.999969 149.999756
v -100.000000 -200.000000 299.999756
v -100.000000 -300.000000 299.999786
v -100.000000 -199.999969 199.999756
v -100.000000 -200.000000 299.999756
v -0.000002 -200.000000 299.999756
v -0.000003 -199.999954 199.999756
v -100.000000 -199.999969 199.999756
v -0.000002 -300.000000 299.999786
v -100.000000 -300.000000 299.999786
v -0.000006 -300.000000 199.999771
v 200.000015 100.000000 -0.000274
v 200.000015 100.000008 49.999718
v 300.000031 100.000008 49.999725
v 300.000000 100.000000 -0.000274
v 200.000015 100.000000 -0.000274
v 300.000000 -100.000015 49.999748
v 200.000000 -100.000015 49.999748
v 200.000000 -100.000038 -0.000251
v 300.000000 -100.000015 -0.000251
v 200.000000 -200.000000 -0.000234
v 200.000000 -100.000038 -0.000251
v 50.000000 100.000046 199.999710
v 0.000006 100.000053 149.999710
v 0.000000 100.000061 199.999710
v 50.000008 100.000038 149.999710
v -0.000007 -399.999969 199.999786
v -0.000006 -300.000000 199.999771
v -100.000000 -399.999969 199.999786
v -100.000000 -200.000092 399.999756
v -100.000000 -300.000122 399.999786
v 0.000000 -200.000092 399.999756
v 0.000000 -300.000122 399.999786
v -0.000002 -300.000000 299.999786
v -0.000002 -200.000000 299.999756
v -100.000000 -200.000092 399.999756
v 0.000000 -200.000092 399.999756
v 0.000000 -300.000122 399.999786
v -100.000000 -300.000122 399.999786
v -100.000000 -200.000122 499.999756
v -100.000000 -300.000122 499.999786
v 0.000005 -200.000122 499.999756
v 0.000005 -300.000122 499.999786
v 0.000005 -200.000122 499.999756
v -100.000000 -200.000122 499.999756
v 0.000005 -300.000122 499.999786
v -100.000000 -300.000122 499.999786
v -100.000000 -200.000122 499.999756
v 0.000005 -200.000122 499.999756
v 0.000005 -300.000122 499.999786
v -100.000000 -300.000122 499.999786
v -0.000005 200.000046 199.999695
v 0.000000 300.000031 199.999680
v -98.461548 -199.999908 599.999817
v -98.461548 -299.999908 499.999786
v -98.461548 -299.999908 599.999817
v -98.461548 -199.999924 499.999756
v 1.538452 -299.999908 599.999817
v 1.538452 -199.999924 499.999756
v 1.538452 -199.999908 599.999817
v 1.538452 -299.999908 499.999786
v -98.461548 -299.999908 599.999817
v 1.538452 -299.999908 499.999786
v 1.538452 -299.999908 599.999817
v -98.461548 -299.999908 499.999786
v -98.461548 -199.999908 599.999817
v -98.461548 -299.999908 599.999817
v 1.538452 -199.999908 599.999817
v 1.538452 -299.999908 599.999817
v -98.461548 -99.999901 599.999756
v -98.461548 -99.999916 499.999756
v 1.538452 -99.999916 499.999756
v 1.538452 -99.999901 599.999756
v 1.538452 -199.999924 499.999756
v -98.461548 -199.999924 499.999756
v -98.461548 -99.999916 499.999756
v 1.538452 -99.999916 499.999756
v -98.461548 -99.999901 599.999756
v 1.538452 -99.999901 599.999756
v -98.461548 0.000098 599.999756
v -98.461548 0.000081 499.999725
v 1.538452 0.000081 499.999725
v 1.538452 0.000098 599.999756
v -98.461548 0.000081 499.999725
v 1.538452 0.000081 499.999725
v -98.461548 0.000098 599.999756
v 1.538452 0.000098 599.999756
v -98.461548 100.000084 499.999695
v 1.538452 100.000084 499.999695
v -98.461548 100.000084 499.999695
v 1.538452 100.000084 499.999695
v -98.461548 0.000081 499.999725
v 1.538452 0.000081 499.999725
v -98.461548 100.000099 599.999756
v 1.538452 100.000099 599.999756
v -98.461548 100.000099 599.999756
v 1.538452 100.000099 599.999756
v -98.461548 100.000099 599.999756
v 1.538452 100.000099 599.999756
v 0.000002 -249.999985 149.999771
v 0.000000 -300.000000 149.999771
v 50.000000 -300.000000 149.999771
v 50.000000 -249.999985 149.999771
v 100.000000 -300.000000 149.999771
v 100.000000 -249.999985 149.999771
v 0.000000 -300.000000 149.999771
v 0.000000 -300.000000 99.999779
v 50.000000 -300.000000 99.999779
v 50.000000 -300.000000 149.999771
v 100.000000 -300.000000 149.999771
v -0.000007 -399.999969 199.999786
v 0.000000 -399.999969 99.999802
v 0.000000 -300.000000 99.999779
v 100.000000 -250.000000 99.999771
v 100.000000 -300.000000 149.999771
v 100.000000 -249.999985 149.999771
v 100.000000 150.000015 99.999710
v 100.000000 150.000031 149.999695
v 100.000000 200.000031 149.999695
v 0.000000 200.000031 149.999695
v 0.000000 300.000031 199.999680
v -0.000005 200.000046 199.999695
v 0.000000 300.000031 99.999687
v 0.000000 200.000015 99.999702
v -98.461533 150.000046 199.999695
v -98.461533 200.000061 299.999695
v -98.461533 200.000046 199.999695
v 50.000000 200.000031 149.999695
v 0.000000 200.000015 99.999702
v 0.000000 200.000031 149.999695
v 50.000000 200.000015 99.999702
v 100.000000 200.000031 149.999695
v -0.000003 -199.999954 199.999756
v 0.000000 150.000046 199.999695
v 0.000006 150.000046 149.999695
v 0.000006 100.000053 149.999710
v 0.000000 100.000061 199.999710
v 0.000006 150.000046 149.999695
v 50.000000 200.000031 149.999695
v 0.000000 200.000031 149.999695
v 50.000008 150.000031 149.999695
v 100.000000 200.000031 149.999695
v 0.000006 100.000053 149.999710
v 100.000000 150.000031 149.999695
vn -0.0000 -0.0000 1.0000
vn -0.0000 -1.0000 -0.0000
vn -0.0000 1.0000 -0.0000
vn -1.0000 -0.0000 -0.0000
vn 1.0000 -0.0000 -0.0000
vn -0.0000 -0.0000 -1.0000
vt 1.000000 0.750000
vt 0.875000 0.750000
vt 0.875000 0.625000
vt 1.000000 0.625000
vt 0.625000 0.875000
vt 0.750000 0.875000
vt 0.750000 0.999969
vt 0.625000 0.999969
vt 0.250000 0.812500
vt 0.312500 0.812500
vt 0.312500 0.875000
vt 0.250000 0.875000
vt -0.000031 0.375000
vt 0.125000 0.375000
vt 0.125000 0.500000
vt -0.000031 0.500000
vt 1.000000 0.875000
vt 0.875000 0.875000
vt 0.750000 0.625000
vt 0.750000 0.750000
vt 0.625000 0.750000
vt 0.625000 0.625000
vt 0.812500 0.625000
vt 0.875000 0.687500
vt 0.812500 0.687500
vt 0.062500 0.437500
vt 0.062500 0.500000
vt 0.000031 0.500000
vt 0.000031 0.437500
vt 0.500000 0.812500
vt 0.375000 0.812500
vt 0.375000 0.750000
vt 0.500000 0.750000
vt 1.000000 0.999969
vt 0.875000 0.999969
vt 0.750000 0.687500
vt 0.125000 0.562500
vt 0.250000 0.562500
vt 0.250000 0.625000
vt 0.125000 0.625000
vt 0.500000 0.875000
vt 0.375000 0.875000
vt 0.000031 0.375000
vt 0.750000 0.812500
vt 0.625000 0.812500
vt 0.250000 0.375000
vt 0.250000 0.500000
vt 0.250000 0.750000
vt 0.312500 0.750000
vt 0.187500 0.562500
vt 0.187500 0.625000
vt 0.500000 0.625000
vt 0.375000 0.625000
vt 0.375000 0.562500
vt 0.437500 0.562500
vt 0.437500 0.625000
vt 0.125000 0.999969
vt 0.000031 0.999969
vt 0.000031 0.875000
vt 0.125000 0.875000
vt 0.875000 0.812500
vt 1.000000 0.812500
vt 0.500000 0.999969
vt 0.375000 0.999969
vt 0.937500 0.750000
vt 0.937500 0.687500
vt 1.000000 0.687500
vt 0.500000 0.562500
vt 0.437500 0.500000
vt 0.500000 0.500000
vt 0.375000 0.500000
vt 0.875000 0.820312
vt 0.062500 0.375000
vt 0.937500 0.625000
s 1
usemtl MI_PortalsNether
f 21/1/1 37/2/1 36/3/1 22/4/1
f 71/5/1 68/6/1 69/7/1 70/8/1
f 354/9/1 355/10/1 352/11/1 353/12/1
f 183/13/5 184/14/5 343/15/5 334/16/5
f 320/13/1 331/14/1 330/15/1 318/16/1
f 143/1/2 142/17/2 76/18/2 77/2/2
f 217/12/2 215/9/2 216/10/2 214/11/2
f 78/19/3 104/20/3 105/21/3 79/22/3
f 387/23/5 372/3/5 374/24/5 386/25/5
f 192/26/5 190/27/5 191/28/5 189/29/5
f 83/20/3 82/6/3 78/5/3 81/21/3
f 220/30/1 221/31/1 218/32/1 219/33/1
f 115/1/4 114/17/4 112/18/4 113/2/4
f 103/20/2 100/6/2 101/5/2 102/21/2
f 333/13/4 323/14/4 322/15/4 332/16/4
f 23/17/1 21/34/1 22/35/1 7/18/1
f 389/36/5 388/19/5 387/23/5 386/25/5
f 27/6/1 24/7/1 25/8/1 26/5/1
f 109/19/4 106/20/4 107/21/4 108/22/4
f 324/13/5 334/14/5 335/15/5 325/16/5
f 204/2/6 206/1/6 205/17/6 203/18/6
f 151/37/5 149/38/5 150/39/5 148/40/5
f 193/30/5 195/41/5 200/42/5 202/31/5
f 6/6/1 5/7/1 1/8/1 4/5/1
f 24/6/1 42/7/1 43/8/1 25/5/1
f 257/14/3 288/15/3 289/28/3 258/43/3
f 54/34/1 304/35/1 305/18/1 64/17/1
f 75/20/2 72/6/2 73/5/2 74/21/2
f 262/43/2 100/14/2 263/15/2 261/28/2
f 123/21/2 121/20/2 122/44/2 120/45/2
f 29/43/1 32/14/1 33/15/1 30/28/1
f 96/46/4 95/47/4 92/15/4 93/14/4
f 89/20/4 88/6/4 84/5/4 87/21/4
f 250/42/5 368/11/5 366/10/5 251/31/5
f 97/20/4 94/6/4 95/5/4 96/21/4
f 118/46/4 117/47/4 114/15/4 115/14/4
f 4/6/1 1/7/1 2/8/1 3/5/1
f 172/14/5 169/15/5 170/28/5 171/43/5
f 42/6/1 51/7/1 52/8/1 43/5/1
f 182/13/2 181/14/2 345/15/2 344/16/2
f 37/33/1 34/41/1 35/42/1 36/32/1
f 272/20/2 269/44/2 270/45/2 271/21/2
f 164/14/4 161/15/4 162/28/4 163/43/4
f 213/10/1 211/9/1 212/48/1 210/49/1
f 251/31/5 151/30/5 148/41/5 250/42/5
f 282/43/4 283/14/4 293/15/4 292/28/4
f 278/50/3 276/38/3 277/39/3 275/51/3
f 60/6/1 65/7/1 66/8/1 67/5/1
f 221/30/1 253/31/1 252/32/1 218/33/1
f 51/6/1 61/7/1 62/8/1 52/5/1
f 168/14/2 165/15/2 166/28/2 167/43/2
f 20/5/1 17/6/1 18/7/1 19/8/1
f 141/20/3 138/44/3 139/45/3 140/21/3
f 160/52/3 157/33/3 158/32/3 159/53/3
f 81/1/3 78/17/3 79/18/3 80/2/3
f 317/13/2 315/14/2 316/15/2 314/16/2
f 321/13/1 320/14/1 318/15/1 319/16/1
f 131/20/5 128/44/5 129/45/5 130/21/5
f 329/15/6 326/16/6 327/13/6 328/14/6
f 87/20/4 84/6/4 85/5/4 86/21/4
f 198/38/5 197/39/5 194/40/5 196/37/5
f 176/13/3 175/14/3 342/15/3 341/16/3
f 32/30/1 213/31/1 210/32/1 209/33/1
f 30/20/1 44/21/1 45/22/1 28/19/1
f 161/14/4 179/15/4 180/16/4 162/13/4
f 31/18/1 29/17/1 30/34/1 28/35/1
f 91/20/4 90/6/4 88/5/4 89/21/4
f 93/20/4 92/6/4 90/5/4 91/21/4
f 223/38/1 220/37/1 219/15/1 222/47/1
f 223/54/1 393/55/1 390/56/1 395/53/1
f 10/6/1 7/7/1 8/8/1 9/5/1
f 334/13/5 343/14/5 349/15/5 335/16/5
f 268/20/3 265/44/3 266/45/3 267/21/3
f 309/13/4 307/14/4 308/15/4 306/16/4
f 15/46/1 27/47/1 26/15/1 16/14/1
f 34/57/1 47/58/1 48/59/1 35/60/1
f 260/14/3 257/15/3 258/28/3 259/43/3
f 231/61/2 229/62/2 230/17/2 228/18/2
f 33/38/1 32/37/1 209/15/1 208/47/1
f 58/63/1 56/64/1 57/42/1 55/41/1
f 202/31/5 200/42/5 201/11/5 199/10/5
f 371/1/5 370/65/5 369/66/5 248/67/5
f 393/55/1 391/68/1 392/52/1 390/56/1
f 396/69/1 394/70/1 391/68/1 393/55/1
f 311/13/5 324/14/5 325/15/5 312/16/5
f 1/6/1 15/7/1 16/8/1 2/5/1
f 313/13/5 311/14/5 312/15/5 310/16/5
f 41/5/1 38/6/1 39/7/1 40/8/1
f 111/1/4 110/17/4 106/18/4 109/2/4
f 47/17/1 59/34/1 60/35/1 48/18/1
f 53/22/1 54/19/1 64/20/1 63/21/1
f 17/43/1 213/14/1 32/15/1 29/28/1
f 287/14/5 284/15/5 285/28/5 286/43/5
f 147/20/3 145/6/3 146/5/3 141/21/3
f 119/20/4 116/6/4 117/5/4 118/21/4
f 131/21/5 132/20/5 133/44/5 128/45/5
f 222/71/1 396/69/1 393/55/1 223/54/1
f 80/20/3 79/6/3 145/5/3 147/21/3
f 136/20/5 135/44/5 239/45/5 264/21/5
f 174/52/5 173/33/5 169/32/5 172/53/5
f 170/13/5 169/14/5 184/15/5 183/16/5
f 135/62/5 241/17/5 240/18/5 239/61/5
f 18/14/1 17/46/1 29/47/1 31/15/1
f 46/38/1 33/37/1 208/15/1 207/47/1
f 273/20/5 234/44/5 124/45/5 127/21/5
f 123/20/2 144/6/2 142/5/2 143/21/2
f 254/43/4 255/14/4 283/15/4 282/28/4
f 149/37/5 152/38/5 153/39/5 150/40/5
f 79/1/3 105/17/3 154/18/3 145/2/3
f 284/14/5 294/15/5 295/28/5 285/43/5
f 227/6/5 225/5/5 226/45/5 224/44/5
f 142/47/2 155/39/2 156/40/2 76/15/2
f 303/43/2 291/14/2 290/15/2 302/28/2
f 245/62/3 242/17/3 243/18/3 244/61/3
f 288/14/3 300/15/3 301/28/3 289/43/3
f 137/20/5 134/44/5 135/45/5 136/21/5
f 30/43/1 33/14/1 46/15/1 44/28/1
f 77/20/2 76/6/2 72/5/2 75/21/2
f 297/43/1 299/14/1 298/15/1 296/28/1
f 249/5/5 247/45/5 248/44/5 246/6/5
f 368/11/5 367/12/5 226/9/5 366/10/5
f 291/43/2 262/14/2 261/15/2 290/28/2
f 281/47/1 279/71/1 280/53/1 20/39/1
f 236/48/5 239/32/5 240/31/5 237/9/5
f 340/13/4 333/14/4 332/15/4 346/16/4
f 165/14/2 181/15/2 182/16/2 166/13/2
f 339/13/1 351/14/1 350/15/1 338/16/1
f 234/62/5 232/17/5 233/18/5 124/61/5
f 331/13/1 339/14/1 338/15/1 330/16/1
f 186/15/4 188/47/4 187/39/4 185/40/4
f 178/14/3 175/15/3 176/16/3 177/13/3
f 127/20/5 124/44/5 125/45/5 126/21/5
f 360/10/2 361/11/2 358/12/2 359/9/2
f 256/43/4 186/14/4 255/15/4 254/28/4
f 341/13/3 342/14/3 348/15/3 347/16/3
f 113/19/4 112/20/4 110/21/4 111/22/4
f 337/15/6 329/16/6 328/13/6 336/14/6
f 196/38/5 194/39/5 195/40/5 193/37/5
f 357/49/1 252/32/1 253/31/1 355/10/1
f 356/48/1 357/49/1 355/10/1 354/9/1
f 191/39/5 363/40/5 189/38/5
f 364/15/5 189/38/5 363/40/5
f 365/47/5 189/38/5 364/15/5
f 273/21/5 274/20/5 238/44/5 234/45/5
f 45/18/1 44/17/1 54/34/1 53/35/1
f 99/20/4 98/6/4 94/5/4 97/21/4
f 39/8/1 38/5/1 50/6/1 49/7/1
f 374/18/5 372/72/5 373/17/5
f 373/17/5 372/72/5 375/1/5
f 376/2/5 375/1/5 372/72/5
f 379/53/4 377/56/4 378/32/4
f 162/33/4 378/32/4 377/56/4
f 163/52/4 162/33/4 377/56/4
f 228/31/2 362/42/2 361/11/2 360/10/2
f 383/66/3 381/67/3 382/1/3 380/65/3
f 191/43/5 190/73/5 286/28/5
f 287/15/5 286/28/5 190/73/5
f 385/14/5 287/15/5 190/73/5
f 180/13/4 179/14/4 333/15/4 340/16/4
f 238/31/5 236/30/5 237/41/5 235/42/5
f 323/13/4 309/14/4 306/15/4 322/16/4
f 370/65/5 153/2/5 152/24/5 369/66/5
f 234/74/5 238/65/5 235/2/5 232/3/5
f 14/5/1 12/6/1 13/7/1 11/8/1
f 242/24/3 383/66/3 380/65/3 384/2/3
