# Blender 5.0.1
# www.blender.org
mtllib BP_NewBatteringRam.mtl
o SM_BatteringRamNew.001
v 201.041687 200.000046 56.249950
v 151.041702 200.000046 256.249969
v 201.041718 200.000046 256.249969
v 151.041672 200.000031 56.249969
v 201.041687 150.000031 256.249969
v 201.041687 200.000046 56.249950
v 201.041718 200.000046 256.249969
v 201.041702 150.000015 56.249950
v 201.041687 150.000031 256.249969
v 151.041687 150.000031 56.249969
v 201.041702 150.000015 56.249950
v 151.041718 150.000046 256.249969
v 201.041687 200.000046 56.249950
v 151.041687 150.000031 56.249969
v 151.041672 200.000031 56.249969
v 201.041702 150.000015 56.249950
v 201.041687 150.000031 256.249969
v 151.041702 200.000046 256.249969
v 151.041718 150.000046 256.249969
v 201.041718 200.000046 256.249969
v 151.041687 150.000031 56.249969
v 151.041718 150.000046 256.249969
v 151.041702 200.000046 256.249969
v 151.041672 200.000031 56.249969
v 0.000042 0.000008 74.999977
v 0.000034 0.000011 174.999969
v 0.000006 100.000008 174.999969
v 0.000014 100.000000 74.999969
v 799.999939 100.000137 174.999893
v 700.000061 0.000113 174.999908
v 800.000000 0.000142 174.999893
v 700.000000 100.000107 174.999878
v 799.999939 100.000137 174.999893
v 700.000000 100.000122 74.999908
v 700.000000 100.000107 174.999878
v 799.999939 100.000130 74.999893
v 799.999939 100.000130 74.999893
v 700.000061 0.000110 74.999908
v 700.000000 100.000122 74.999908
v 800.000000 0.000139 74.999893
v 800.000000 0.000142 174.999893
v 700.000061 0.000110 74.999908
v 800.000000 0.000139 74.999893
v 700.000061 0.000113 174.999908
v 799.999939 100.000137 174.999893
v 800.000000 0.000142 174.999893
v 799.999939 100.000130 74.999893
v 800.000000 0.000139 74.999893
v 648.958435 -49.999870 56.249920
v 598.958435 -49.999878 256.249908
v 648.958435 -49.999863 256.249878
v 598.958435 -49.999882 56.249916
v 648.958435 -49.999870 56.249920
v 648.958435 -49.999863 256.249878
v 648.958435 -99.999878 256.249878
v 648.958435 -99.999886 56.249920
v 648.958435 -99.999878 256.249878
v 598.958435 -99.999878 56.249916
v 648.958435 -99.999886 56.249920
v 598.958435 -99.999870 256.249908
v 648.958435 -49.999870 56.249920
v 598.958435 -99.999878 56.249916
v 598.958435 -49.999882 56.249916
v 648.958435 -99.999886 56.249920
v 648.958435 -99.999878 256.249878
v 598.958435 -49.999878 256.249908
v 598.958435 -99.999870 256.249908
v 648.958435 -49.999863 256.249878
v 598.958435 -99.999878 56.249916
v 598.958435 -99.999870 256.249908
v 598.958435 -49.999878 256.249908
v 598.958435 -49.999882 56.249916
v 651.041748 200.000122 56.249912
v 601.041748 200.000122 256.249908
v 651.041748 200.000137 256.249878
v 601.041748 200.000107 56.249908
v 651.041748 150.000107 256.249878
v 651.041748 200.000122 56.249912
v 651.041748 200.000137 256.249878
v 651.041748 150.000107 56.249912
v 651.041748 150.000107 256.249878
v 601.041748 150.000107 56.249908
v 651.041748 150.000107 56.249912
v 601.041809 150.000122 256.249908
v 651.041748 200.000122 56.249912
v 601.041748 150.000107 56.249908
v 601.041748 200.000107 56.249908
v 651.041748 150.000107 56.249912
v 651.041748 150.000107 256.249878
v 601.041748 200.000122 256.249908
v 601.041809 150.000122 256.249908
v 651.041748 200.000137 256.249878
v 601.041748 150.000107 56.249908
v 601.041809 150.000122 256.249908
v 601.041748 200.000122 256.249908
v 601.041748 200.000107 56.249908
v 198.958344 -49.999935 56.249958
v 148.958374 -49.999943 256.249969
v 198.958374 -49.999931 256.249969
v 148.958344 -49.999950 56.249977
v 198.958344 -49.999935 56.249958
v 198.958374 -49.999931 256.249969
v 198.958389 -99.999962 256.249969
v 198.958359 -99.999969 56.249958
v 198.958359 -99.999969 56.249958
v 198.958389 -99.999962 256.249969
v 148.958389 -99.999947 256.249969
v 148.958359 -99.999947 56.249977
v 198.958344 -49.999935 56.249958
v 148.958359 -99.999947 56.249977
v 148.958344 -49.999950 56.249977
v 198.958359 -99.999969 56.249958
v 198.958389 -99.999962 256.249969
v 198.958374 -49.999931 256.249969
v 148.958389 -99.999947 256.249969
v 148.958374 -49.999943 256.249969
v 148.958359 -99.999947 56.249977
v 148.958389 -99.999947 256.249969
v 148.958374 -49.999943 256.249969
v 148.958344 -49.999950 56.249977
v 725.000122 -99.999870 -0.000076
v 525.000122 -99.999916 199.999908
v 725.000122 -99.999863 199.999924
v 525.000122 -99.999924 -0.000091
v 725.000122 -149.999863 -0.000074
v 725.000122 -149.999863 199.999924
v 525.000122 -149.999924 199.999908
v 525.000122 -149.999924 -0.000089
v 725.000122 -149.999863 -0.000074
v 525.000122 -99.999924 -0.000091
v 725.000122 -99.999870 -0.000076
v 525.000122 -149.999924 -0.000089
v 525.000122 -149.999924 199.999908
v 725.000122 -149.999863 199.999924
v 725.000122 -99.999863 199.999924
v 525.000122 -99.999916 199.999908
v 725.000122 -99.999870 -0.000076
v 725.000122 -99.999863 199.999924
v 725.000122 -149.999863 199.999924
v 725.000122 -149.999863 -0.000074
v 525.000122 -149.999924 -0.000089
v 525.000122 -149.999924 199.999908
v 525.000122 -99.999916 199.999908
v 525.000122 -99.999924 -0.000091
v 725.000061 200.000122 -0.000085
v 725.000061 200.000122 199.999924
v 525.000061 200.000076 -0.000100
v 525.000061 200.000076 199.999908
v 725.000061 250.000107 -0.000086
v 525.000061 250.000046 -0.000101
v 725.000061 250.000122 199.999924
v 525.000061 250.000061 199.999908
v 725.000061 250.000107 -0.000086
v 525.000061 200.000076 -0.000100
v 525.000061 250.000046 -0.000101
v 725.000061 200.000122 -0.000085
v 725.000061 250.000122 199.999924
v 525.000061 200.000076 199.999908
v 725.000061 200.000122 199.999924
v 525.000061 250.000061 199.999908
v 525.000061 200.000076 -0.000100
v 525.000061 200.000076 199.999908
v 525.000061 250.000061 199.999908
v 525.000061 250.000046 -0.000101
v 725.000061 250.000107 -0.000086
v 725.000061 250.000122 199.999924
v 725.000061 200.000122 199.999924
v 725.000061 200.000122 -0.000085
v 275.000061 -99.999947 -0.000034
v 75.000046 -100.000000 199.999954
v 275.000061 -99.999939 199.999969
v 75.000061 -100.000000 -0.000049
v 275.000092 -149.999939 -0.000032
v 275.000061 -149.999939 199.999969
v 75.000061 -150.000000 199.999954
v 75.000076 -150.000000 -0.000047
v 275.000092 -149.999939 -0.000032
v 75.000061 -100.000000 -0.000049
v 275.000061 -99.999947 -0.000034
v 75.000076 -150.000000 -0.000047
v 75.000061 -150.000000 199.999954
v 275.000061 -149.999939 199.999969
v 275.000061 -99.999939 199.999969
v 75.000046 -100.000000 199.999954
v 275.000061 -99.999947 -0.000034
v 275.000061 -99.999939 199.999969
v 275.000061 -149.999939 199.999969
v 275.000092 -149.999939 -0.000032
v 75.000076 -150.000000 -0.000047
v 75.000061 -150.000000 199.999954
v 75.000046 -100.000000 199.999954
v 75.000061 -100.000000 -0.000049
v 275.000000 200.000061 -0.000043
v 274.999969 200.000061 199.999954
v 74.999977 200.000015 -0.000058
v 74.999962 200.000015 199.999939
v 274.999969 250.000076 -0.000044
v 74.999962 250.000015 -0.000059
v 274.999969 250.000076 199.999954
v 74.999947 250.000031 199.999939
v 274.999969 250.000076 -0.000044
v 74.999977 200.000015 -0.000058
v 74.999962 250.000015 -0.000059
v 275.000000 200.000061 -0.000043
v 274.999969 250.000076 199.999954
v 74.999962 200.000015 199.999939
v 274.999969 200.000061 199.999954
v 74.999947 250.000031 199.999939
v 74.999977 200.000015 -0.000058
v 74.999962 200.000015 199.999939
v 74.999947 250.000031 199.999939
v 74.999962 250.000015 -0.000059
v 274.999969 250.000076 -0.000044
v 274.999969 250.000076 199.999954
v 274.999969 200.000061 199.999954
v 275.000000 200.000061 -0.000043
v 224.999985 87.684021 414.276611
v 125.000008 52.328674 378.921295
v 225.000000 52.328678 378.921295
v 124.999992 87.684021 414.276642
v 225.000015 229.105408 272.855286
v 125.000023 193.750046 237.499954
v 125.000008 229.105377 272.855286
v 225.000015 193.750031 237.499939
v 125.000046 53.921410 449.631989
v 675.000061 53.921494 449.631927
v 675.000061 89.276833 414.276611
v 125.000038 89.276749 414.276642
v 675.000061 53.921490 378.921234
v 675.000061 53.921494 449.631927
v 675.000061 18.566149 414.276611
v 675.000061 89.276833 414.276611
v 125.000038 89.276749 414.276642
v 125.000053 53.921406 378.921326
v 125.000046 53.921410 449.631989
v 125.000061 18.566067 414.276642
v 675.000061 53.921494 449.631927
v 125.000061 18.566067 414.276642
v 675.000061 18.566149 414.276611
v 125.000046 53.921410 449.631989
v 375.000031 52.328709 378.921295
v 275.000031 87.684052 414.276611
v 275.000031 52.328705 378.921295
v 375.000031 87.684052 414.276611
v 275.000000 229.105408 272.855286
v 375.000031 229.105392 272.855255
v 375.000031 193.750076 237.499924
v 275.000031 193.750076 237.499924
v 525.000061 87.684074 414.276581
v 425.000061 52.328724 378.921265
v 525.000061 52.328728 378.921265
v 425.000031 87.684067 414.276642
v 525.000000 229.105438 272.855255
v 425.000031 193.750092 237.499908
v 425.000000 229.105408 272.855225
v 525.000000 193.750092 237.499893
v 675.000000 52.328747 378.921234
v 575.000061 87.684082 414.276581
v 575.000000 52.328743 378.921265
v 675.000061 87.684090 414.276611
v 675.000000 229.105438 272.855225
v 575.000000 193.750107 237.499893
v 575.000000 229.105453 272.855225
v 675.000000 193.750107 237.499908
v 575.000061 18.566133 414.276581
v 675.000061 18.566149 414.276550
v 675.000061 53.921490 378.921234
v 575.000061 53.921474 378.921265
v 675.000061 -122.855217 272.855255
v 575.000061 -87.499893 237.499908
v 675.000061 -87.499886 237.499893
v 575.000061 -122.855217 272.855255
v 425.000061 18.566092 414.276642
v 525.000061 18.566107 414.276581
v 525.000061 53.921448 378.921265
v 425.000061 53.921432 378.921265
v 525.000061 -122.855255 272.855255
v 425.000061 -87.499931 237.499939
v 525.000061 -87.499931 237.499893
v 425.000061 -122.855263 272.855255
v 275.000092 18.566097 414.276611
v 375.000092 18.566113 414.276642
v 375.000061 53.921452 378.921265
v 275.000061 53.921436 378.921295
v 375.000061 -122.855255 272.855255
v 275.000061 -87.499924 237.499954
v 375.000061 -87.499924 237.499939
v 275.000061 -122.855255 272.855316
v 125.000061 18.566053 414.276642
v 225.000061 18.566071 414.276611
v 225.000046 53.921410 378.921295
v 125.000053 53.921394 378.921326
v 225.000061 -122.855293 272.855286
v 125.000053 -87.499969 237.499969
v 225.000061 -87.499962 237.499924
v 125.000061 -122.855301 272.855286
v 525.000000 229.105438 272.855255
v 425.000000 229.105408 272.855225
v 425.000031 158.394760 343.565918
v 525.000000 158.394745 343.565918
v 425.000031 87.684067 414.276642
v 525.000061 87.684074 414.276581
v 0.000034 0.000011 174.999969
v 100.000008 100.000031 174.999985
v 0.000006 100.000008 174.999969
v 100.000038 0.000016 174.999954
v 200.000000 100.000046 174.999969
v 200.000031 0.000044 174.999969
v 300.000000 100.000046 174.999924
v 300.000031 0.000060 174.999954
v 400.000000 100.000061 174.999908
v 400.000031 0.000064 174.999908
v 500.000000 100.000092 174.999908
v 500.000031 0.000081 174.999924
v 600.000000 100.000107 174.999924
v 600.000061 0.000109 174.999924
v 100.000008 100.000031 174.999985
v 0.000014 100.000000 74.999969
v 0.000006 100.000008 174.999969
v 100.000015 100.000015 74.999954
v 200.000000 100.000046 174.999969
v 200.000015 100.000038 74.999962
v 300.000000 100.000046 174.999924
v 300.000000 100.000046 74.999924
v 400.000000 100.000061 174.999908
v 400.000000 100.000061 74.999908
v 500.000000 100.000076 74.999916
v 500.000000 100.000092 174.999908
v 600.000000 100.000107 74.999924
v 600.000000 100.000107 174.999924
v 0.000042 0.000008 74.999977
v 100.000038 0.000016 174.999954
v 0.000034 0.000011 174.999969
v 100.000046 0.000013 74.999962
v 200.000031 0.000044 174.999969
v 200.000046 0.000041 74.999969
v 300.000031 0.000060 174.999954
v 300.000031 0.000057 74.999954
v 400.000031 0.000064 174.999908
v 400.000031 0.000061 74.999908
v 500.000031 0.000081 174.999924
v 500.000031 0.000078 74.999916
v 600.000061 0.000109 174.999924
v 600.000061 0.000106 74.999924
v 225.000031 158.394699 343.565948
v 225.000015 193.750031 237.499939
v 225.000015 229.105408 272.855286
v 224.999985 123.039368 308.210632
v 224.999985 87.684021 414.276611
v 225.000000 52.328678 378.921295
v 425.000031 158.394760 343.565918
v 425.000061 52.328724 378.921265
v 425.000031 87.684067 414.276642
v 425.000031 123.039413 308.210602
v 425.000000 229.105408 272.855225
v 425.000031 193.750092 237.499908
v 575.000061 -16.789211 308.210571
v 575.000061 -87.499893 237.499908
v 575.000061 -122.855217 272.855255
v 575.000061 -52.144535 343.565948
v 575.000061 53.921474 378.921265
v 575.000061 18.566133 414.276581
v 375.000061 -122.855255 272.855255
v 275.000092 -52.144569 343.565948
v 275.000061 -122.855255 272.855316
v 375.000092 -52.144566 343.565948
v 275.000092 18.566097 414.276611
v 375.000092 18.566113 414.276642
v 375.000092 -52.144566 343.565948
v 375.000061 53.921452 378.921265
v 375.000092 18.566113 414.276642
v 375.000092 -16.789232 308.210602
v 375.000061 -122.855255 272.855255
v 375.000061 -87.499924 237.499939
v 125.000076 -16.789291 308.210632
v 125.000053 -87.499969 237.499969
v 125.000061 -122.855301 272.855286
v 125.000084 -52.144611 343.565979
v 125.000053 53.921394 378.921326
v 125.000061 18.566053 414.276642
v 100.000015 100.000015 74.999954
v 0.000042 0.000008 74.999977
v 0.000014 100.000000 74.999969
v 100.000046 0.000013 74.999962
v 200.000046 0.000041 74.999969
v 200.000015 100.000038 74.999962
v 300.000000 100.000046 74.999924
v 300.000031 0.000057 74.999954
v 400.000000 100.000061 74.999908
v 400.000031 0.000061 74.999908
v 500.000000 100.000076 74.999916
v 500.000031 0.000078 74.999916
v 600.000061 0.000106 74.999924
v 600.000000 100.000107 74.999924
v 225.000015 229.105408 272.855286
v 125.000008 229.105377 272.855286
v 125.000023 158.394699 343.565948
v 225.000031 158.394699 343.565948
v 224.999985 87.684021 414.276611
v 124.999992 87.684021 414.276642
v 125.000023 158.394699 343.565948
v 125.000008 52.328674 378.921295
v 124.999992 87.684021 414.276642
v 124.999992 123.039360 308.210632
v 125.000023 193.750046 237.499954
v 125.000008 229.105377 272.855286
v 275.000000 229.105408 272.855286
v 375.000031 158.394730 343.565948
v 375.000031 229.105392 272.855255
v 275.000031 158.394730 343.565948
v 275.000031 87.684052 414.276611
v 375.000031 87.684052 414.276611
v 275.000031 123.039391 308.210602
v 275.000031 52.328705 378.921295
v 275.000031 87.684052 414.276611
v 275.000031 158.394730 343.565948
v 275.000000 229.105408 272.855286
v 275.000031 193.750076 237.499924
v 375.000000 123.039383 308.210602
v 375.000031 193.750076 237.499924
v 375.000031 229.105392 272.855255
v 375.000031 158.394730 343.565948
v 375.000031 87.684052 414.276611
v 375.000031 52.328709 378.921295
v 525.000061 123.039406 308.210571
v 525.000000 193.750092 237.499893
v 525.000000 229.105438 272.855255
v 525.000000 158.394745 343.565918
v 525.000061 87.684074 414.276581
v 525.000061 52.328728 378.921265
v 675.000000 229.105438 272.855225
v 575.000000 229.105453 272.855225
v 575.000000 158.394775 343.565918
v 675.000000 158.394760 343.565887
v 675.000061 87.684090 414.276611
v 575.000061 87.684082 414.276581
v 575.000000 158.394775 343.565918
v 575.000000 52.328743 378.921265
v 575.000061 87.684082 414.276581
v 575.000061 123.039429 308.210541
v 575.000000 193.750107 237.499893
v 575.000000 229.105453 272.855225
v 675.000000 158.394760 343.565887
v 675.000000 193.750107 237.499908
v 675.000000 229.105438 272.855225
v 675.000061 123.039421 308.210571
v 675.000000 52.328747 378.921234
v 675.000061 87.684090 414.276611
v 675.000061 -122.855217 272.855255
v 575.000061 -52.144535 343.565948
v 575.000061 -122.855217 272.855255
v 675.000061 -52.144531 343.565887
v 675.000061 18.566149 414.276550
v 575.000061 18.566133 414.276581
v 675.000061 -16.789194 308.210571
v 675.000061 18.566149 414.276550
v 675.000061 -52.144531 343.565887
v 675.000061 -122.855217 272.855255
v 675.000061 -87.499886 237.499893
v 525.000061 -122.855255 272.855255
v 425.000092 -52.144577 343.565918
v 425.000061 -122.855263 272.855255
v 525.000061 -52.144573 343.565948
v 525.000061 18.566107 414.276581
v 425.000061 18.566092 414.276642
v 525.000061 -16.789238 308.210571
v 525.000061 53.921448 378.921265
v 525.000061 18.566107 414.276581
v 525.000061 -52.144573 343.565948
v 525.000061 -122.855255 272.855255
v 525.000061 -87.499931 237.499893
v 425.000092 -52.144577 343.565918
v 425.000061 -87.499931 237.499939
v 425.000061 -122.855263 272.855255
v 425.000092 -16.789253 308.210602
v 425.000061 53.921432 378.921265
v 425.000061 18.566092 414.276642
v 275.000092 -16.789248 308.210632
v 275.000061 -87.499924 237.499954
v 275.000061 -122.855255 272.855316
v 275.000092 -52.144569 343.565948
v 275.000092 18.566097 414.276611
v 275.000061 53.921436 378.921295
v 225.000061 -122.855293 272.855286
v 125.000084 -52.144611 343.565979
v 125.000061 -122.855301 272.855286
v 225.000092 -52.144608 343.565948
v 225.000061 18.566071 414.276611
v 125.000061 18.566053 414.276642
v 225.000076 -16.789274 308.210632
v 225.000046 53.921410 378.921295
v 225.000061 18.566071 414.276611
v 225.000092 -52.144608 343.565948
v 225.000061 -122.855293 272.855286
v 225.000061 -87.499962 237.499924
vn -0.0000 1.0000 -0.0000
vn 1.0000 -0.0000 -0.0000
vn -0.0000 -1.0000 -0.0000
vn -0.0000 -0.0000 -1.0000
vn -0.0000 -0.0000 1.0000
vn -1.0000 -0.0000 -0.0000
vn -0.0000 -0.7071 0.7071
vn -0.0000 0.7071 -0.7071
vn -0.0000 0.7071 0.7071
vn -0.0000 -0.7071 -0.7071
vt 0.125000 0.125000
vt 0.000031 0.125000
vt 0.000031 0.000000
vt 0.125000 0.000000
vt 0.812500 0.937500
vt 0.812500 0.999969
vt 0.750000 0.999969
vt 0.750000 0.937500
vt 0.062500 0.703125
vt 0.000031 0.703125
vt 0.000031 0.453125
vt 0.062500 0.453125
vt -0.000031 0.125000
vt -0.000031 0.000000
vt 0.125000 0.500000
vt 0.125000 0.750000
vt 0.375000 0.750000
vt 0.375000 0.500000
vt 0.125000 0.703125
vt 0.125000 0.453125
vt 0.187500 0.125000
vt 0.125000 0.250000
vt 0.187500 0.250000
vt 0.187500 0.000000
vt 0.500000 0.125000
vt 0.375000 0.125000
vt 0.375000 0.000000
vt 0.500000 0.000000
vt 0.875000 0.125000
vt 0.750000 0.125000
vt 0.750000 0.000000
vt 0.875000 0.000000
vt 0.000031 0.250000
vt 0.500000 0.250000
vt 0.375000 0.250000
vt 0.125000 0.437500
vt 0.375000 0.437500
vt 0.156250 0.968750
vt 0.156250 0.906250
vt 0.218750 0.906250
vt 0.218750 0.968750
vt 0.625000 0.437500
vt 0.625000 0.500000
vt 0.125000 0.375000
vt -0.000031 0.250000
vt -0.000031 0.375000
vt 0.125000 0.875000
vt -0.000031 0.875000
vt -0.000031 0.750000
vt 0.562500 0.000000
vt 0.562500 0.125000
vt 0.125000 0.625000
vt -0.000031 0.625000
vt -0.000031 0.500000
vt 0.875000 0.250000
vt 0.750000 0.250000
vt 0.750000 0.312500
vt 0.875000 0.312500
vt 0.000031 0.375000
vt 0.500000 0.750000
vt 0.500000 0.875000
vt 0.375000 0.875000
vt 0.000031 0.750000
vt 0.000031 0.625000
vt 0.000031 0.875000
vt 0.250000 0.999969
vt 0.125000 0.999969
vt 0.250000 0.875000
vt 0.312500 0.125000
vt 0.312500 0.250000
vt 0.000031 0.500000
vt 0.562500 0.250000
vt 0.312500 0.000000
vt 0.687500 0.000000
vt 0.687500 0.125000
vt 0.187500 0.312500
vt 0.312500 0.312500
vt 0.687500 0.250000
vt 0.687500 0.312500
vt 0.562500 0.312500
vt 0.625000 0.999969
vt 0.625000 0.312500
vt 0.687500 0.999969
vt 0.625000 0.750000
vt 0.625000 0.875000
vt 0.250000 0.750000
vt 0.375000 0.312500
vt 0.500000 0.312500
s 1
usemtl MI_BatteringRamNew
f 334/1/3 332/2/3 333/3/3 331/4/3
f 232/5/2 230/6/2 231/7/2 229/8/2
f 108/9/3 105/10/3 106/11/3 107/12/3
f 60/12/3 58/9/3 59/10/3 57/11/3
f 306/1/5 304/13/5 305/14/5 303/4/5
f 172/15/1 170/16/1 171/17/1 169/18/1
f 24/19/6 21/9/6 22/12/6 23/20/6
f 378/21/6 375/1/6 376/22/6 377/23/6
f 468/24/2 469/21/2 466/1/2 467/4/2
f 366/25/7 364/26/7 365/27/7 363/28/7
f 152/17/1 151/16/1 149/15/1 150/18/1
f 200/17/1 199/16/1 197/15/1 198/18/1
f 452/29/7 450/30/7 451/31/7 449/32/7
f 336/22/3 335/33/3 332/2/3 334/1/3
f 368/34/7 367/35/7 364/26/7 366/25/7
f 146/16/3 148/17/3 147/18/3 145/15/3
f 156/18/4 154/15/4 155/36/4 153/37/4
f 124/15/1 122/16/1 123/17/1 121/18/1
f 16/38/4 14/39/4 15/40/4 13/41/4
f 192/18/6 189/37/6 190/42/6 191/43/6
f 324/44/1 322/22/1 321/45/1 323/46/1
f 183/18/5 184/15/5 181/36/5 182/37/5
f 30/47/5 32/48/5 315/49/5 316/16/5
f 354/25/6 352/28/6 353/50/6 351/51/6
f 314/52/5 313/53/5 311/54/5 312/15/5
f 208/37/5 206/18/5 207/15/5 205/36/5
f 267/55/9 268/56/9 265/57/9 266/58/9
f 114/41/5 116/38/5 115/39/5 113/40/5
f 4/10/1 2/11/1 3/12/1 1/9/1
f 272/57/10 270/56/10 271/55/10 269/58/10
f 140/42/2 137/43/2 138/18/2 139/37/2
f 72/19/6 69/9/6 70/12/6 71/20/6
f 68/41/5 66/38/5 67/39/5 65/40/5
f 338/44/3 337/59/3 335/33/3 336/22/3
f 56/19/2 53/9/2 54/12/2 55/20/2
f 194/16/3 196/17/3 195/18/3 193/15/3
f 44/17/3 42/60/3 43/61/3 41/62/3
f 322/22/1 320/1/1 317/13/1 321/45/1
f 160/37/5 158/18/5 159/15/5 157/36/5
f 384/1/4 382/4/4 383/3/4 381/2/4
f 104/19/2 101/9/2 102/12/2 103/20/2
f 164/42/6 161/43/6 162/18/6 163/37/6
f 176/15/3 173/18/3 174/17/3 175/16/3
f 344/16/3 343/63/3 341/64/3 342/52/3
f 88/38/4 86/39/4 87/40/4 85/41/4
f 42/47/3 44/65/3 343/63/3 344/16/3
f 316/16/5 315/49/5 313/53/5 314/52/5
f 144/18/6 141/37/6 142/42/6 143/43/6
f 28/66/6 25/67/6 26/47/6 27/68/6
f 481/26/6 478/69/6 479/70/6 480/35/6
f 394/63/4 393/16/4 392/52/4 391/64/4
f 342/52/3 341/64/3 339/71/3 340/15/3
f 80/19/2 78/9/2 79/12/2 77/20/2
f 188/42/2 185/43/2 186/18/2 187/37/2
f 96/19/6 93/9/6 94/12/6 95/20/6
f 356/34/6 354/25/6 351/51/6 355/72/6
f 487/69/7 485/21/7 486/24/7 484/73/7
f 424/74/2 419/75/2 422/30/2 423/31/2
f 12/12/3 10/9/3 11/10/3 9/11/3
f 34/47/1 329/16/1 330/49/1 35/48/1
f 128/15/3 125/18/3 126/17/3 127/16/3
f 483/73/6 478/69/6 481/26/6 482/27/6
f 430/28/2 425/25/2 428/51/2 429/50/2
f 299/75/9 300/51/9 297/50/9 298/74/9
f 448/24/2 447/4/2 446/1/2 443/21/2
f 64/38/4 62/39/4 63/40/4 61/41/4
f 76/10/1 74/11/1 75/12/1 73/9/1
f 291/70/9 292/23/9 289/76/9 290/77/9
f 422/30/2 419/75/2 420/78/2 421/56/2
f 256/72/8 254/78/8 255/79/8 253/80/8
f 372/69/2 370/73/2 371/27/2 369/26/2
f 400/70/9 399/23/9 398/21/9 397/69/9
f 320/1/1 318/4/1 319/14/1 317/13/1
f 280/76/10 278/23/10 279/70/10 277/77/10
f 418/78/6 413/75/6 416/30/6 417/56/6
f 220/77/7 218/70/7 219/23/7 217/76/7
f 410/29/9 408/30/9 409/31/9 407/32/9
f 454/56/7 450/30/7 452/29/7 453/55/7
f 312/15/5 311/54/5 309/46/5 310/44/5
f 390/15/4 388/44/4 387/59/4 389/71/4
f 330/49/1 329/16/1 327/52/1 328/53/1
f 397/69/9 398/21/9 395/24/9 396/73/9
f 465/23/7 461/21/7 463/69/7 464/70/7
f 168/18/2 165/37/2 166/42/2 167/43/2
f 326/15/1 324/44/1 323/46/1 325/54/1
f 224/23/8 222/70/8 223/77/8 221/76/8
f 180/37/4 178/18/4 179/15/4 177/36/4
f 264/23/8 262/70/8 263/77/8 261/76/8
f 132/37/4 130/18/4 131/15/4 129/36/4
f 362/31/6 361/74/6 357/75/6 360/30/6
f 380/24/6 379/4/6 375/1/6 378/21/6
f 212/42/6 209/43/6 210/18/6 211/37/6
f 310/44/5 309/46/5 307/45/5 308/22/5
f 471/22/2 466/1/2 469/21/2 470/23/2
f 204/18/4 202/15/4 203/36/4 201/37/4
f 120/19/6 117/9/6 118/12/6 119/20/6
f 392/52/4 390/15/4 389/71/4 391/64/4
f 252/79/7 250/78/7 251/72/7 249/80/7
f 437/21/6 442/23/6 441/22/6 440/1/6
f 360/30/6 357/75/6 358/78/6 359/56/6
f 495/22/2 490/1/2 493/21/2 494/23/2
f 456/31/2 457/30/2 455/75/2 229/74/2
f 459/78/2 455/75/2 457/30/2 458/56/2
f 135/18/5 136/15/5 133/36/5 134/37/5
f 433/69/9 434/21/9 431/24/9 432/73/9
f 348/1/2 346/22/2 347/23/2 345/21/2
f 234/8/6 236/7/6 235/6/6 233/5/6
f 415/31/6 416/30/6 413/75/6 414/74/6
f 227/81/9 228/82/9 225/79/9 226/83/9
f 48/60/2 47/84/2 45/85/2 46/61/2
f 244/57/7 242/58/7 243/55/7 241/56/7
f 36/68/1 34/86/1 35/16/1 33/47/1
f 32/86/5 30/17/5 31/62/5 29/68/5
f 411/55/9 412/56/9 408/30/9 410/29/9
f 328/53/1 327/52/1 326/15/1 325/54/1
f 92/41/5 90/38/5 91/39/5 89/40/5
f 20/41/5 18/38/5 19/39/5 17/40/5
f 301/78/9 302/72/9 300/51/9 299/75/9
f 401/21/6 406/23/6 405/22/6 404/1/6
f 275/70/9 276/23/9 273/76/9 274/77/9
f 477/24/6 476/4/6 475/1/6 472/21/6
f 100/10/1 98/11/1 99/12/1 97/9/1
f 240/79/7 238/57/7 239/7/7 237/83/7
f 288/87/10 286/35/10 287/34/10 285/88/10
f 428/51/2 425/25/2 426/34/2 427/72/2
f 296/76/10 294/23/10 295/70/10 293/77/10
f 283/34/9 284/35/9 281/87/9 282/88/9
f 436/70/9 435/23/9 434/21/9 433/69/9
f 308/22/5 307/45/5 304/13/5 306/1/5
f 350/4/2 348/1/2 345/21/2 349/24/2
f 446/1/2 444/22/2 445/23/2 443/21/2
f 260/76/7 258/77/7 259/70/7 257/23/7
f 440/1/6 438/4/6 439/24/6 437/21/6
f 84/12/3 82/9/3 83/10/3 81/11/3
f 388/44/4 385/22/4 386/33/4 387/59/4
f 492/24/2 493/21/2 490/1/2 491/4/2
f 52/10/1 50/11/1 51/12/1 49/9/1
f 340/15/3 339/71/3 337/59/3 338/44/3
f 404/1/6 402/4/6 403/24/6 401/21/6
f 475/1/6 473/22/6 474/23/6 472/21/6
f 247/56/8 248/55/8 245/58/8 246/57/8
f 489/23/7 485/21/7 487/69/7 488/70/7
f 40/61/4 38/60/4 39/17/4 37/62/4
f 374/70/2 372/69/2 369/26/2 373/35/2
f 8/19/2 6/9/2 7/12/2 5/20/2
f 216/18/2 213/37/2 214/42/2 215/43/2
f 112/38/4 110/39/4 111/40/4 109/41/4
f 38/47/4 393/16/4 394/63/4 39/65/4
f 463/69/7 461/21/7 462/24/7 460/73/7
f 386/33/4 385/22/4 384/1/4 381/2/4
