# Blender 5.0.1
# www.blender.org
mtllib BP_NewSeigeTowerTopFD.mtl
o SM_SeigeTowerNew_Top.001
v 100.000000 -149.999969 200.000031
v 200.000000 -149.999969 200.000031
v 100.000000 -149.999954 250.000031
v 200.000000 -149.999954 250.000031
v 200.000000 -249.999954 250.000046
v 200.000000 -149.999954 250.000031
v 200.000000 -149.999969 200.000031
v 200.000000 -249.999969 200.000046
v 100.000000 -249.999954 250.000046
v 200.000000 -249.999954 250.000046
v 200.000000 -249.999969 200.000046
v 100.000000 -249.999969 200.000046
v 100.000000 -249.999969 200.000046
v 100.000000 -149.999969 200.000031
v 100.000000 -249.999954 250.000046
v 100.000000 -149.999954 250.000031
v 349.869781 -400.000885 500.000061
v 349.869781 -400.000885 400.000061
v 349.869781 -350.001068 500.000061
v 350.000000 -349.999939 400.000061
v 100.000000 0.000065 400.000000
v 0.000000 0.000065 400.000000
v 0.000000 -49.999935 400.000000
v 100.000000 -49.999935 400.000000
v 0.000000 -349.999939 400.000061
v 100.000000 -399.999939 400.000061
v 100.000000 -349.999939 400.000061
v 0.000000 -399.999939 400.000061
v 350.000000 -249.999893 700.000061
v 349.869781 -350.001038 700.000061
v 349.869781 -350.001038 600.000061
v 350.000000 -249.999908 600.000061
v 131.250031 6.250100 612.500000
v 331.249969 6.250067 412.500000
v 131.249969 6.250067 412.500000
v 331.250031 6.250100 612.500000
v 131.250031 -406.249908 612.500061
v 331.249969 -406.249939 412.500061
v 331.250031 -406.249908 612.500061
v 131.249969 -406.249939 412.500061
v 356.250031 -299.999969 268.750061
v 356.250000 -99.999969 200.000015
v 356.250000 -99.999954 268.750031
v 356.250000 -299.999969 200.000046
v 0.000000 -349.999969 250.000061
v 0.000000 -249.999969 200.000046
v 0.000000 -349.999969 200.000061
v 0.000000 -249.999954 250.000046
v 0.000000 -149.999969 200.000031
v 0.000000 -149.999954 250.000031
v 0.000000 -49.999966 200.000015
v 0.000000 -49.999958 250.000015
v 350.000000 -149.999893 700.000000
v 350.000000 -149.999908 600.000000
v 350.000000 -49.999886 700.000000
v 350.000000 -49.999901 600.000000
v 350.000000 0.000114 700.000000
v 350.000000 0.000098 600.000000
v 350.000000 -49.999920 500.000000
v 350.000000 0.000081 500.000000
v 350.000000 -49.999935 400.000000
v 350.000000 0.000065 400.000000
v 350.000000 -49.999950 300.000000
v 350.000000 0.000049 300.000000
v 350.000000 -49.999966 200.000015
v 350.000000 0.000033 200.000000
v 350.000000 -149.999969 200.000031
v 350.000000 -149.999954 300.000031
v 350.000000 -149.999939 400.000031
v 350.000000 -249.999969 200.000046
v 350.000000 -249.999954 300.000031
v 350.000000 -349.999969 200.000061
v 350.000000 -249.999939 400.000031
v 350.000000 -349.999939 300.000061
v 0.000000 -399.999939 300.000061
v 0.000000 -399.999969 200.000061
v 0.000000 -349.999939 300.000061
v 0.000000 -399.999939 400.000061
v 0.000000 -349.999939 400.000061
v 0.000000 -49.999950 300.000000
v 0.000000 0.000033 200.000000
v 0.000000 0.000049 300.000000
v 0.000000 -49.999935 400.000000
v 0.000000 0.000065 400.000000
v 349.869781 -400.000916 300.000061
v 349.869781 -400.000916 200.000061
v 100.000000 -49.999920 500.000000
v 100.000000 0.000065 400.000000
v 100.000000 -49.999935 400.000000
v 100.000000 0.000081 500.000000
v 100.000000 -49.999901 600.000000
v 100.000000 0.000098 600.000000
v 100.000000 -49.999886 700.000000
v 100.000000 0.000114 700.000000
v 100.000000 -399.999908 500.000061
v 100.000000 -349.999939 400.000061
v 100.000000 -399.999939 400.000061
v 100.000000 -349.999908 500.000061
v 100.000000 -399.999908 600.000061
v 100.000000 -349.999908 600.000061
v 100.000000 -399.999878 700.000061
v 100.000000 -349.999878 700.000061
v 300.000000 -349.999878 700.000061
v 300.000000 -249.999908 600.000061
v 300.000000 -349.999908 600.000061
v 300.000000 -249.999893 700.000061
v 300.000000 -149.999908 600.000000
v 300.000000 -149.999893 700.000000
v 300.000000 -49.999901 600.000000
v 300.000000 -49.999886 700.000000
v 100.000000 -49.999886 700.000000
v 200.000000 -49.999886 700.000000
v 100.000000 0.000114 700.000000
v 200.000000 0.000114 700.000000
v 300.000000 -49.999886 700.000000
v 300.000000 0.000114 700.000000
v 350.000000 -49.999886 700.000000
v 350.000000 0.000114 700.000000
v 300.000000 -149.999893 700.000000
v 350.000000 -149.999893 700.000000
v 300.000000 -249.999893 700.000061
v 350.000000 -249.999893 700.000061
v 349.869781 -350.001038 700.000061
v 300.000000 -349.999878 700.000061
v 349.869781 -400.000854 700.000061
v 299.869781 -400.000854 700.000061
v 200.000000 -349.999878 700.000061
v 200.000000 -399.999878 700.000061
v 100.000000 -349.999878 700.000061
v 100.000000 -399.999878 700.000061
v 349.869781 -400.000854 700.000061
v 349.869781 -400.000854 600.000061
v 300.000000 -249.999939 400.000031
v 300.000000 -349.999939 400.000061
v 350.000000 -349.999939 400.000061
v 350.000000 -249.999939 400.000031
v 300.000000 -149.999939 400.000031
v 350.000000 -149.999939 400.000031
v 350.000000 -49.999935 400.000000
v 300.000000 -49.999935 400.000000
v 100.000000 -149.999893 650.000000
v 100.000000 -49.999893 650.000000
v 100.000000 -149.999908 600.000000
v 100.000000 -249.999893 650.000061
v 100.000000 -249.999908 600.000061
v 100.000000 -349.999908 650.000061
v 349.869781 -350.001038 600.000061
v 349.869781 -350.001068 500.000061
v 300.000000 -349.999908 600.000061
v 300.000000 -349.999908 500.000061
v 300.000000 -349.999939 400.000061
v 350.000000 -349.999939 400.000061
v 200.000000 -349.999908 500.000061
v 200.000000 -349.999908 600.000061
v 200.000000 -349.999878 700.000061
v 300.000000 -349.999878 700.000061
v 100.000000 -349.999878 700.000061
v 100.000000 -349.999908 600.000061
v 100.000000 -349.999908 500.000061
v 200.000000 -349.999939 400.000061
v 100.000000 -349.999939 400.000061
v 300.000000 -349.999939 300.000061
v 200.000000 -349.999939 300.000061
v 300.000000 -349.999969 200.000061
v 200.000000 -349.999969 200.000061
v 100.000000 -349.999939 300.000061
v 0.000000 -349.999939 400.000061
v 100.000000 -349.999969 200.000061
v 0.000000 -349.999939 300.000061
v 0.000000 -349.999969 200.000061
v 100.000000 -49.999958 250.000015
v 0.000000 -49.999958 250.000015
v 0.000000 -149.999954 250.000031
v 100.000000 -149.999954 250.000031
v 200.000000 -49.999958 250.000015
v 0.000000 -249.999954 250.000046
v 200.000000 -149.999954 250.000031
v 100.000000 -249.999954 250.000046
v 300.000000 -49.999958 250.000015
v 0.000000 -349.999969 250.000061
v 300.000000 -149.999954 250.000031
v 100.000000 -349.999969 250.000061
v 200.000000 -249.999954 250.000046
v 300.000000 -249.999954 250.000046
v 200.000000 -349.999969 250.000061
v 300.000000 -349.999969 250.000061
v 0.000000 0.000049 300.000000
v 100.000000 0.000033 200.000000
v 0.000000 0.000033 200.000000
v 100.000000 0.000049 300.000000
v 0.000000 0.000065 400.000000
v 200.000000 0.000033 200.000000
v 100.000000 0.000065 400.000000
v 200.000000 0.000049 300.000000
v 300.000000 0.000033 200.000000
v 200.000000 0.000065 400.000000
v 100.000000 0.000081 500.000000
v 300.000000 0.000049 300.000000
v 350.000000 0.000033 200.000000
v 350.000000 0.000049 300.000000
v 200.000000 0.000081 500.000000
v 100.000000 0.000098 600.000000
v 300.000000 0.000065 400.000000
v 350.000000 0.000065 400.000000
v 200.000000 0.000098 600.000000
v 100.000000 0.000114 700.000000
v 200.000000 0.000114 700.000000
v 300.000000 0.000081 500.000000
v 350.000000 0.000081 500.000000
v 300.000000 0.000098 600.000000
v 300.000000 0.000114 700.000000
v 350.000000 0.000098 600.000000
v 350.000000 0.000114 700.000000
v 300.000000 -49.999950 300.000000
v 200.000000 -49.999966 200.000015
v 300.000000 -49.999966 200.000015
v 200.000000 -49.999950 300.000000
v 100.000000 -49.999966 200.000015
v 300.000000 -49.999935 400.000000
v 100.000000 -49.999950 300.000000
v 0.000000 -49.999966 200.000015
v 0.000000 -49.999950 300.000000
v 200.000000 -49.999935 400.000000
v 100.000000 -49.999935 400.000000
v 0.000000 -49.999935 400.000000
v 350.000000 -49.999920 500.000000
v 350.000000 -49.999935 400.000000
v 200.000000 -49.999920 500.000000
v 100.000000 -49.999920 500.000000
v 300.000000 -49.999920 500.000000
v 300.000000 -49.999901 600.000000
v 350.000000 -49.999901 600.000000
v 200.000000 -49.999901 600.000000
v 300.000000 -49.999886 700.000000
v 100.000000 -49.999901 600.000000
v 200.000000 -49.999886 700.000000
v 100.000000 -49.999886 700.000000
v 300.000000 -349.999939 300.000061
v 300.000000 -249.999969 200.000046
v 300.000000 -349.999969 200.000061
v 300.000000 -249.999954 300.000031
v 300.000000 -349.999939 400.000061
v 300.000000 -149.999969 200.000031
v 300.000000 -249.999939 400.000031
v 300.000000 -149.999954 300.000031
v 300.000000 -49.999966 200.000015
v 300.000000 -149.999939 400.000031
v 300.000000 -49.999950 300.000000
v 300.000000 -49.999935 400.000000
v 349.869781 -400.000916 300.000061
v 299.869781 -400.000916 200.000061
v 349.869781 -400.000916 200.000061
v 299.869781 -400.000916 300.000061
v 349.869781 -400.000885 400.000061
v 200.000000 -399.999969 200.000061
v 299.869781 -400.000885 400.000061
v 349.869781 -400.000885 500.000061
v 200.000000 -399.999939 300.000061
v 100.000000 -399.999969 200.000061
v 299.869781 -400.000885 500.000061
v 349.869781 -400.000854 600.000061
v 200.000000 -399.999939 400.000061
v 100.000000 -399.999939 300.000061
v 0.000000 -399.999969 200.000061
v 0.000000 -399.999939 300.000061
v 100.000000 -399.999939 400.000061
v 0.000000 -399.999939 400.000061
v 200.000000 -399.999908 500.000061
v 100.000000 -399.999908 500.000061
v 299.869781 -400.000854 600.000061
v 349.869781 -400.000854 700.000061
v 299.869781 -400.000854 700.000061
v 200.000000 -399.999908 600.000061
v 100.000000 -399.999908 600.000061
v 200.000000 -399.999878 700.000061
v 100.000000 -399.999878 700.000061
v 300.000000 -249.999893 650.000061
v 200.000000 -349.999908 650.000061
v 300.000000 -349.999908 650.000061
v 200.000000 -249.999893 650.000061
v 100.000000 -349.999908 650.000061
v 300.000000 -149.999893 650.000000
v 100.000000 -249.999893 650.000061
v 200.000000 -149.999893 650.000000
v 300.000000 -49.999893 650.000000
v 100.000000 -149.999893 650.000000
v 200.000000 -49.999893 650.000000
v 100.000000 -49.999893 650.000000
vn -0.0000 -1.0000 -0.0000
vn -1.0000 -0.0000 -0.0000
vn -0.0000 1.0000 -0.0000
vn 1.0000 -0.0000 -0.0000
vn 1.0000 -0.0007 0.0003
vn 1.0000 -0.0020 0.0003
vn 1.0000 -0.0013 0.0002
vn -0.0000 -0.0000 1.0000
vn 1.0000 -0.0007 -0.0000
vn 1.0000 -0.0004 -0.0000
vn 1.0000 -0.0013 -0.0000
vn 1.0000 -0.0026 -0.0000
vt 0.378906 0.250000
vt 0.378906 0.312500
vt 0.316406 0.312500
vt 0.316406 0.250000
vt 0.250000 0.250000
vt 0.250000 0.312500
vt 0.218750 0.312500
vt 0.218750 0.250000
vt 0.593750 0.187500
vt 0.562500 0.187500
vt 0.562500 0.125000
vt 0.593750 0.125000
vt 0.218750 0.378906
vt 0.218750 0.437500
vt 0.152344 0.437500
vt 0.152344 0.378906
vt 0.625000 0.187500
vt 0.593750 0.140625
vt 0.625000 0.140625
vt 0.593750 0.058594
vt 0.562500 0.058594
vt 0.152344 0.191406
vt 0.093750 0.191406
vt 0.093750 0.121094
vt 0.152344 0.121094
vt 0.562500 0.062500
vt 0.593750 0.062500
vt 0.593750 0.000000
vt 0.562500 0.000000
vt 0.093750 0.437500
vt 0.156250 0.437500
vt 0.156250 0.378906
vt 0.093750 0.378906
vt 0.152344 0.250000
vt 0.218750 0.191406
vt 0.625000 0.000000
vt 0.625000 0.046875
vt 0.593750 0.046875
vt 0.031250 0.191406
vt 0.031250 0.250000
vt 0.000031 0.250000
vt 0.000031 0.191406
vt 0.250000 0.191406
vt 0.218750 0.121094
vt 0.250000 0.121094
vt 0.125000 0.468750
vt 0.125000 0.500000
vt 0.062500 0.500000
vt 0.062500 0.468750
vt 0.187500 0.468750
vt 0.187500 0.500000
vt 0.500000 0.179688
vt 0.531250 0.179688
vt 0.531250 0.121094
vt 0.500000 0.121094
vt 0.093750 0.250000
vt 0.593750 0.093750
vt 0.625000 0.093750
vt 0.031250 0.437500
vt 0.031250 0.378906
vt 0.500000 0.250000
vt 0.531250 0.250000
vt 0.031250 0.121094
vt 0.093750 0.187500
vt 0.156250 0.187500
vt 0.156250 0.125000
vt 0.093750 0.125000
vt 0.437500 0.593750
vt 0.312500 0.593750
vt 0.312500 0.468750
vt 0.437500 0.468750
vt 0.382812 0.183594
vt 0.316406 0.183594
vt 0.316406 0.125000
vt 0.382812 0.125000
vt 0.156250 0.250000
vt 0.218750 0.187500
vt 0.000031 0.121094
vt 0.378906 0.468750
vt 0.378906 0.437500
vt 0.437500 0.437500
vt 0.218750 0.125000
vt 0.031250 0.187500
vt 0.437500 0.308594
vt 0.382812 0.308594
vt 0.382812 0.250000
vt 0.437500 0.250000
vt 0.437500 0.183594
vt 0.500000 0.183594
vt 0.382812 0.437500
vt 0.382812 0.378906
vt 0.437500 0.378906
vt 0.281250 0.312500
vt 0.281250 0.250000
vt 0.312500 0.437500
vt 0.031250 0.312500
vt 0.000031 0.312500
vt 0.437500 0.121094
vt 0.437500 0.125000
vt 0.500000 0.125000
vt 0.437500 0.312500
vt 0.281250 0.183594
vt 0.281250 0.125000
vt 0.250000 0.378906
vt 0.250000 0.437500
vt 0.398438 0.593750
vt 0.398438 0.468750
vt 0.281250 0.468750
vt 0.281250 0.437500
vt 0.378906 0.183594
vt 0.378906 0.121094
vt 0.316406 0.121094
vt 0.125000 0.562500
vt 0.062500 0.562500
vt 0.500000 0.312500
vt 0.500000 0.378906
vt 0.187500 0.562500
vt 0.316406 0.437500
vt 0.316406 0.378906
vt 0.281250 0.378906
vt 0.562500 0.378906
vt 0.562500 0.437500
vt 0.500000 0.437500
vt 0.378906 0.378906
vt 0.281250 0.308594
vt 0.316406 0.308594
vt 0.000031 0.437500
vt 0.000031 0.378906
vt 0.625000 0.250000
vt 0.625000 0.312500
vt 0.562500 0.312500
vt 0.562500 0.250000
vt 0.625000 0.378906
vt 0.500000 0.468750
vt 0.000031 0.500000
vt 0.000031 0.468750
vt 0.031250 0.125000
vt 0.062500 0.625000
vt 0.000031 0.625000
vt 0.000031 0.562500
vt 0.625000 0.437500
vt 0.125000 0.625000
vt 0.187500 0.625000
s 1
usemtl MI_NewSeigeTower
f 160/1/3 153/2/3 150/3/3 151/4/3
f 62/5/4 60/6/4 59/7/4 61/8/4
f 139/9/8 140/10/8 137/11/8 138/12/8
f 56/13/4 55/14/4 53/15/4 54/16/4
f 12/17/3 9/9/3 10/18/3 11/19/3
f 122/20/8 120/12/8 119/11/8 121/21/8
f 68/22/4 71/23/4 70/24/4 67/25/4
f 95/26/2 98/27/2 96/28/2 97/29/2
f 101/10/2 102/9/2 100/12/2 99/11/2
f 106/30/2 108/31/2 107/32/2 104/33/2
f 61/8/4 69/34/4 68/22/4 63/35/4
f 45/36/2 48/37/2 46/38/2 47/28/2
f 74/39/11 20/40/7 18/41/6 85/42/12
f 124/29/8 123/28/8 122/20/8 121/21/8
f 64/43/4 63/35/4 65/44/4 66/45/4
f 145/46/2 144/47/2 141/48/2 143/49/2
f 100/50/2 146/51/2 144/47/2 145/46/2
f 80/52/2 82/53/2 81/54/2 51/55/2
f 69/34/4 73/56/4 71/23/4 68/22/4
f 8/19/2 5/18/2 6/57/2 7/58/2
f 32/33/9 29/30/9 30/59/9 31/60/10
f 83/61/2 84/62/2 82/53/2 80/52/2
f 71/23/4 74/39/11 72/63/11 70/24/4
f 48/37/2 50/58/2 49/57/2 46/38/2
f 241/64/2 245/65/2 243/66/2 239/67/2
f 103/59/2 106/30/2 104/33/2 105/60/2
f 36/68/3 34/69/3 35/70/3 33/71/3
f 194/72/3 198/73/3 195/74/3 192/75/3
f 247/76/2 249/8/2 248/77/2 245/65/2
f 93/10/2 94/9/2 92/12/2 91/11/2
f 72/63/11 74/39/11 85/42/12 86/78/12
f 108/31/2 110/14/2 109/13/2 107/32/2
f 244/56/2 247/76/2 245/65/2 241/64/2
f 73/56/4 20/40/7 74/39/11 71/23/4
f 87/26/2 90/27/2 88/28/2 89/29/2
f 40/69/1 38/70/1 39/71/1 37/68/1
f 112/79/8 114/80/8 113/81/8 111/71/8
f 245/65/2 248/77/2 246/82/2 243/66/2
f 242/40/2 244/56/2 241/64/2 238/83/2
f 54/16/4 53/15/4 29/30/9 32/33/9
f 14/37/4 16/38/4 15/28/4 13/36/4
f 197/84/3 201/85/3 196/86/3 193/87/3
f 78/61/2 79/62/2 77/53/2 75/52/2
f 191/61/3 193/87/3 190/88/3 187/89/3
f 262/86/1 266/87/1 263/88/1 258/72/1
f 206/81/3 207/90/3 205/91/3 202/92/3
f 150/3/3 148/93/3 152/94/3 151/4/3
f 128/79/8 126/70/8 124/95/8 127/80/8
f 20/40/7 19/96/5 17/97/5 18/41/6
f 220/88/1 222/89/1 221/55/1 218/98/1
f 187/89/3 190/88/3 188/99/3 189/100/3
f 75/52/2 77/53/2 47/54/2 76/55/2
f 161/87/3 159/101/3 153/2/3 160/1/3
f 254/94/1 256/4/1 253/73/1 250/102/1
f 250/102/1 253/73/1 251/74/1 252/103/1
f 256/4/1 262/86/1 258/72/1 253/73/1
f 64/43/4 62/5/4 61/8/4 63/35/4
f 58/104/4 57/105/4 55/14/4 56/13/4
f 44/106/4 42/107/4 43/71/4 41/68/4
f 126/70/8 125/108/8 123/109/8 124/95/8
f 214/73/1 217/110/1 215/111/1 216/112/1
f 163/110/3 160/1/3 151/4/3 162/73/3
f 282/47/8 284/113/8 280/114/8 277/48/8
f 178/115/8 174/116/8 173/92/8 176/101/8
f 285/51/8 287/117/8 284/113/8 282/47/8
f 271/109/1 272/118/1 270/119/1 261/120/1
f 263/88/1 265/89/1 264/100/1 259/99/1
f 177/121/8 175/122/8 171/123/8 174/116/8
f 166/88/3 161/87/3 160/1/3 163/110/3
f 165/111/3 163/110/3 162/73/3 164/112/3
f 174/116/8 171/123/8 172/81/8 173/92/8
f 226/93/1 230/3/1 219/4/1 227/94/1
f 170/55/3 169/89/3 166/88/3 168/98/3
f 169/89/3 167/61/3 161/87/3 166/88/3
f 168/98/3 166/88/3 163/110/3 165/111/3
f 154/124/3 149/119/3 150/3/3 153/2/3
f 210/119/3 212/120/3 209/125/3 208/126/3
f 182/61/8 178/115/8 176/101/8 180/87/8
f 31/60/10 30/59/9 131/127/4 132/128/4
f 201/85/3 208/126/3 203/4/3 196/86/3
f 186/129/8 184/130/8 183/131/8 185/132/8
f 185/132/8 183/131/8 178/115/8 182/61/8
f 184/130/8 181/133/8 177/121/8 183/131/8
f 203/4/3 204/94/3 200/102/3 198/73/3
f 193/87/3 196/86/3 194/72/3 190/88/3
f 115/70/8 116/95/8 114/80/8 112/79/8
f 202/92/3 205/91/3 201/85/3 197/84/3
f 99/11/2 100/12/2 98/27/2 95/26/2
f 261/120/1 270/119/1 260/126/1 257/125/1
f 196/86/3 203/4/3 198/73/3 194/72/3
f 198/73/3 200/102/3 199/103/3 195/74/3
f 219/4/1 223/1/1 217/110/1 214/73/1
f 120/12/8 117/9/8 115/10/8 119/11/8
f 2/58/1 4/57/1 3/38/1 1/37/1
f 211/118/3 213/109/3 212/120/3 210/119/3
f 117/108/8 118/109/8 116/95/8 115/70/8
f 226/93/1 232/120/1 231/119/1 230/3/1
f 207/90/3 211/118/3 210/119/3 205/91/3
f 205/91/3 210/119/3 208/126/3 201/85/3
f 190/88/3 194/72/3 192/75/3 188/99/3
f 230/3/1 228/2/1 223/1/1 219/4/1
f 130/71/8 128/79/8 127/80/8 129/81/8
f 228/2/1 229/101/1 224/87/1 223/1/1
f 28/134/8 26/71/8 27/81/8 25/123/8
f 258/72/1 263/88/1 259/99/1 255/75/1
f 224/87/1 225/61/1 222/89/1 220/88/1
f 223/1/1 224/87/1 220/88/1 217/110/1
f 217/110/1 220/88/1 218/98/1 215/111/1
f 24/71/8 21/81/8 22/123/8 23/134/8
f 136/20/8 138/12/8 137/11/8 133/21/8
f 257/125/1 260/126/1 256/4/1 254/94/1
f 63/35/4 68/22/4 67/25/4 65/44/4
f 143/49/2 141/48/2 142/135/2 91/136/2
f 50/58/2 52/19/2 51/18/2 49/57/2
f 91/11/2 92/12/2 90/27/2 87/26/2
f 150/3/3 149/119/3 147/120/3 148/93/3
f 60/6/4 58/104/4 56/13/4 59/7/4
f 236/80/1 237/81/1 235/92/1 233/124/1
f 238/83/2 241/64/2 239/67/2 240/137/2
f 19/96/5 31/60/10 132/128/4 17/97/5
f 234/118/1 236/80/1 233/124/1 231/119/1
f 270/119/1 273/91/1 268/85/1 260/126/1
f 233/124/1 235/92/1 229/101/1 228/2/1
f 231/119/1 233/124/1 228/2/1 230/3/1
f 272/118/1 275/90/1 273/91/1 270/119/1
f 280/114/8 283/138/8 281/139/8 278/140/8
f 208/126/3 209/125/3 204/94/3 203/4/3
f 181/133/8 179/141/8 175/122/8 177/121/8
f 284/113/8 286/142/8 283/138/8 280/114/8
f 260/126/1 268/85/1 262/86/1 256/4/1
f 277/48/8 280/114/8 278/140/8 279/135/8
f 135/28/8 136/20/8 133/21/8 134/29/8
f 253/73/1 258/72/1 255/75/1 251/74/1
f 158/92/3 157/81/3 155/80/3 154/124/3
f 275/90/1 276/81/1 274/92/1 273/91/1
f 273/91/1 274/92/1 269/84/1 268/85/1
f 266/87/1 267/61/1 265/89/1 263/88/1
f 154/124/3 155/80/3 156/118/3 149/119/3
f 268/85/1 269/84/1 266/87/1 262/86/1
f 159/101/3 158/92/3 154/124/3 153/2/3
f 287/117/8 288/143/8 286/142/8 284/113/8
