# Blender 5.0.1
# www.blender.org
mtllib BP_NetherPortal_WoodlandMansion04.mtl
o SM_netherportal_woodlandmansion04.001
v -200.000000 -300.000000 99.999779
v -300.000000 -300.000000 99.999779
v -300.000000 -399.999969 99.999802
v -200.000000 -399.999969 99.999802
v -100.000000 -300.000000 99.999779
v -100.000000 -399.999969 99.999802
v 100.000000 -300.000000 99.999779
v 0.000000 -300.000000 99.999779
v 0.000000 -399.999969 99.999802
v 100.000000 -399.999969 99.999802
v 100.000000 -300.000031 49.999771
v 200.000000 -400.000000 49.999798
v 200.000000 -300.000000 49.999783
v 100.000000 -400.000000 49.999786
v -200.000000 -199.999985 99.999763
v -300.000000 -199.999985 99.999763
v -100.000000 -199.999969 199.999756
v -200.000000 -199.999969 199.999756
v -200.000000 -300.000000 199.999771
v -100.000000 -300.000000 199.999771
v 200.000000 -199.999985 99.999763
v 100.000000 -199.999985 99.999763
v 200.000000 -300.000000 99.999779
v -200.000000 0.000016 99.999733
v -300.000000 0.000016 99.999733
v -300.000000 -99.999985 99.999748
v -200.000000 -99.999985 99.999748
v -200.000000 0.000033 199.999725
v -100.000000 -99.999931 199.999741
v -100.000000 0.000033 199.999725
v -200.000000 -99.999969 199.999741
v -0.000002 -99.999931 199.999741
v 0.000000 0.000033 199.999725
v 200.000000 0.000016 99.999733
v 100.000000 0.000016 99.999733
v 100.000000 -99.999985 99.999748
v 200.000000 -99.999985 99.999748
v 300.000000 0.000008 49.999733
v 200.000000 0.000008 49.999725
v 200.000000 -100.000015 49.999748
v 300.000000 -100.000015 49.999748
v -200.000000 100.000015 99.999718
v -300.000000 100.000015 99.999718
v -100.000000 100.000031 199.999710
v -200.000000 100.000031 199.999710
v 0.000000 100.000061 199.999710
v 200.000000 100.000015 99.999718
v 100.000000 100.000015 99.999718
v 200.000015 100.000008 49.999718
v 300.000031 100.000008 49.999725
v -200.000000 200.000015 99.999702
v -300.000000 200.000015 99.999702
v -200.000000 200.000031 199.999695
v -100.000000 200.000046 199.999695
v -98.461533 200.000061 299.999695
v 1.538458 100.000099 299.999695
v 1.538467 200.000061 299.999695
v -98.461540 100.000099 299.999695
v 200.000000 200.000015 99.999702
v 100.000000 200.000015 99.999702
v -200.000000 300.000031 99.999687
v -300.000000 300.000031 99.999687
v -200.000000 300.000031 199.999680
v -100.000000 300.000031 199.999680
v 100.000000 300.000031 99.999687
v 0.000000 300.000031 99.999687
v 0.000000 200.000015 99.999702
v 200.000000 300.000000 49.999683
v 100.000000 300.000000 49.999676
v 100.000000 200.000015 49.999691
v 200.000000 200.000015 49.999699
v -200.000000 -399.999969 99.999802
v -300.000000 -399.999969 99.999802
v -300.000000 -400.000000 -0.000202
v -200.000000 -400.000000 -0.000202
v -100.000000 -399.999969 99.999802
v -100.000000 -400.000000 -0.000202
v -200.000000 300.000031 99.999687
v -100.000000 300.000031 99.999687
v -100.000000 300.000000 -0.000316
v -200.000000 300.000000 -0.000316
v -300.000000 300.000031 99.999687
v -300.000000 300.000000 -0.000316
v -300.000000 200.000015 99.999702
v -300.000000 300.000031 99.999687
v -300.000000 300.000000 -0.000316
v -300.000000 200.000000 -0.000300
v -300.000000 100.000015 99.999718
v -300.000000 100.000000 -0.000283
v -300.000000 0.000016 99.999733
v -300.000000 -0.000000 -0.000267
v -300.000000 -99.999985 99.999748
v -300.000000 -100.000000 -0.000251
v -100.000000 -300.000000 199.999771
v -200.000000 -300.000000 199.999771
v -200.000000 -300.000000 99.999779
v -100.000000 -300.000000 99.999779
v -200.000000 300.000031 199.999680
v -100.000000 300.000031 199.999680
v -200.000000 200.000031 199.999695
v -200.000000 300.000031 199.999680
v -200.000000 300.000031 99.999687
v -200.000000 200.000015 99.999702
v -200.000000 100.000031 199.999710
v -200.000000 100.000015 99.999718
v -200.000000 0.000033 199.999725
v -200.000000 0.000016 99.999733
v -200.000000 -99.999969 199.999741
v -200.000000 -99.999985 99.999748
v -200.000000 -300.000000 199.999771
v -200.000000 -199.999969 199.999756
v -200.000000 -199.999985 99.999763
v -200.000000 -300.000000 99.999779
v 100.000000 -400.000000 49.999786
v 200.000000 -400.000000 -0.000202
v 200.000000 -400.000000 49.999798
v 100.000000 -400.000000 -0.000202
v 200.000000 -300.000000 49.999783
v 200.000000 -400.000000 49.999798
v 200.000000 -400.000000 -0.000202
v 200.000000 -300.000000 -0.000218
v 300.000000 0.000008 49.999733
v 300.000000 -100.000015 49.999748
v 300.000000 -100.000015 -0.000251
v 300.000000 -0.000000 -0.000267
v 300.000000 100.000000 -0.000274
v 300.000031 100.000008 49.999725
v 200.000000 300.000000 49.999683
v 200.000000 200.000015 49.999699
v 200.000000 200.000000 -0.000300
v 200.000000 300.000000 -0.000316
v 100.000000 300.000000 49.999676
v 200.000000 300.000000 49.999683
v 200.000000 300.000000 -0.000316
v 100.000000 300.000000 -0.000316
v 0.000000 -399.999969 99.999802
v 0.000000 -400.000000 -0.000202
v 100.000000 -399.999969 99.999802
v 0.000000 300.000031 99.999687
v 100.000000 300.000031 99.999687
v 0.000000 300.000000 -0.000316
v 100.000000 -99.999977 149.999741
v 100.000000 0.000016 99.999733
v 100.000000 0.000025 149.999725
v 100.000000 -99.999985 99.999748
v 100.000000 100.000015 99.999718
v 100.000000 100.000023 149.999710
v 0.000000 300.000031 199.999680
v -0.000007 -399.999969 199.999786
v -100.000000 -399.999969 199.999786
v -98.461533 200.000061 299.999695
v 1.538467 200.000061 299.999695
v 1.538467 200.000046 199.999695
v -98.461533 200.000046 199.999695
v -98.461548 0.000106 299.999725
v -98.461540 100.000099 299.999695
v -98.461540 100.000084 199.999710
v -98.461548 0.000090 199.999725
v 1.538448 0.000106 299.999725
v -98.461548 0.000106 299.999725
v -98.461548 0.000090 199.999725
v 1.538448 0.000090 199.999725
v 1.538458 100.000099 299.999695
v 1.538448 0.000106 299.999725
v 1.538448 0.000090 199.999725
v 1.538458 100.000084 199.999710
v 1.538467 200.000061 299.999695
v 1.538467 200.000046 199.999695
v -98.461540 100.000137 399.999695
v 1.538458 100.000137 399.999695
v 1.538458 100.000099 299.999695
v -98.461540 100.000099 299.999695
v -98.461548 0.000132 399.999725
v -98.461540 100.000137 399.999695
v 1.538448 0.000132 399.999725
v -98.461548 0.000132 399.999725
v 1.538448 0.000132 399.999725
v 1.538458 100.000137 399.999695
v -100.000000 -399.999969 199.999786
v -100.000000 -300.000000 199.999771
v -100.000000 -399.999969 99.999802
v -100.000000 -300.000000 99.999779
v 0.000000 -300.000000 149.999771
v -0.000001 -249.999985 199.999771
v -0.000006 -300.000000 199.999771
v 0.000002 -249.999985 149.999771
v 50.000000 -99.999977 149.999741
v 50.000000 0.000033 199.999725
v 50.000000 -99.999969 199.999741
v 50.000000 0.000025 149.999725
v 50.000000 100.000046 199.999710
v 50.000008 100.000038 149.999710
v 50.000000 -249.999985 149.999771
v 50.000000 -199.999969 199.999756
v 50.000000 -249.999985 199.999771
v 50.000000 -199.999969 149.999756
v 50.000000 -250.000000 99.999771
v 0.000002 -250.000000 99.999771
v 50.000000 -199.999985 99.999763
v 0.000000 -199.999985 99.999763
v 50.000000 100.000046 199.999710
v 50.000000 0.000033 199.999725
v 50.000000 -99.999969 199.999741
v 50.000000 -199.999969 199.999756
v -0.000001 -249.999985 199.999771
v 50.000000 -249.999985 199.999771
v -0.000003 -199.999954 199.999756
v 50.000000 -249.999985 199.999771
v 0.000002 -249.999985 149.999771
v 50.000000 -249.999985 149.999771
v -0.000001 -249.999985 199.999771
v 100.000000 -99.999977 149.999741
v 100.000000 0.000025 149.999725
v 50.000000 0.000025 149.999725
v 50.000000 -99.999977 149.999741
v 100.000000 100.000023 149.999710
v 50.000008 100.000038 149.999710
v 100.000000 -399.999969 99.999802
v 100.000000 -300.000031 49.999771
v 100.000000 -300.000000 99.999779
v 100.000000 -400.000000 49.999786
v 100.000000 -300.000000 99.999779
v 200.000000 -300.000000 49.999783
v 200.000000 -300.000000 99.999779
v 100.000000 -300.000031 49.999771
v 200.000000 -199.999985 99.999763
v 200.000000 -300.000000 99.999779
v 200.000000 -199.999985 49.999767
v 200.000000 -99.999985 99.999748
v 200.000000 0.000008 49.999725
v 200.000000 0.000016 99.999733
v 200.000000 -100.000015 49.999748
v 200.000015 100.000008 49.999718
v 200.000000 100.000015 99.999718
v 200.000000 200.000015 99.999702
v 100.000000 200.000015 99.999702
v 200.000000 200.000015 99.999702
v 200.000000 200.000015 49.999699
v 100.000000 200.000015 49.999691
v 100.000000 200.000015 49.999691
v 100.000000 300.000031 99.999687
v 100.000000 200.000015 99.999702
v 100.000000 300.000000 49.999676
v -98.461540 100.000137 399.999695
v 1.538448 0.000132 399.999725
v 1.538458 100.000137 399.999695
v -98.461548 0.000132 399.999725
v -300.000000 -199.999985 99.999763
v -300.000000 -200.000000 -0.000234
v 100.000000 -199.999969 149.999756
v 100.000000 -199.999985 99.999763
v 100.000000 -199.999969 149.999756
v 50.000000 -199.999969 149.999756
v -100.000000 -200.000000 299.999756
v -100.000000 -300.000000 299.999786
v -100.000000 -199.999969 199.999756
v -100.000000 -200.000000 299.999756
v -0.000002 -200.000000 299.999756
v -0.000003 -199.999954 199.999756
v -100.000000 -199.999969 199.999756
v -0.000002 -300.000000 299.999786
v -100.000000 -300.000000 299.999786
v -0.000006 -300.000000 199.999771
v 200.000015 100.000000 -0.000274
v 200.000015 100.000008 49.999718
v 300.000031 100.000008 49.999725
v 300.000000 100.000000 -0.000274
v 200.000015 100.000000 -0.000274
v 300.000000 -100.000015 49.999748
v 200.000000 -100.000015 49.999748
v 200.000000 -100.000038 -0.000251
v 300.000000 -100.000015 -0.000251
v 200.000000 -200.000000 -0.000234
v 200.000000 -100.000038 -0.000251
v 50.000000 100.000046 199.999710
v 0.000006 100.000053 149.999710
v 0.000000 100.000061 199.999710
v 50.000008 100.000038 149.999710
v -0.000007 -399.999969 199.999786
v -0.000006 -300.000000 199.999771
v -100.000000 -399.999969 199.999786
v -100.000000 -200.000092 399.999756
v -100.000000 -300.000122 399.999786
v 0.000000 -200.000092 399.999756
v 0.000000 -300.000122 399.999786
v -0.000002 -300.000000 299.999786
v -0.000002 -200.000000 299.999756
v -100.000000 -200.000092 399.999756
v 0.000000 -200.000092 399.999756
v 0.000000 -300.000122 399.999786
v -100.000000 -300.000122 399.999786
v -100.000000 -200.000122 499.999756
v -100.000000 -300.000122 499.999786
v 0.000005 -200.000122 499.999756
v 0.000005 -300.000122 499.999786
v 0.000005 -200.000122 499.999756
v -100.000000 -200.000122 499.999756
v 0.000005 -300.000122 499.999786
v -100.000000 -300.000122 499.999786
v -100.000000 -200.000122 499.999756
v 0.000005 -200.000122 499.999756
v 0.000005 -300.000122 499.999786
v -100.000000 -300.000122 499.999786
v -0.000005 200.000046 199.999695
v 0.000000 300.000031 199.999680
v 50.000000 -249.999985 149.999771
v 100.000000 -249.999985 149.999771
v 100.000000 -250.000000 99.999771
v 100.000000 -300.000000 149.999771
v 100.000000 -249.999985 149.999771
v -96.867432 -199.999908 600.802429
v -96.867432 -299.999908 500.802429
v -96.867432 -299.999908 600.802429
v -96.867432 -199.999924 500.802399
v 3.132568 -299.999908 600.802429
v 3.132568 -199.999924 500.802399
v 3.132568 -199.999908 600.802429
v 3.132568 -299.999908 500.802429
v -96.867432 -299.999908 600.802429
v 3.132568 -299.999908 500.802429
v 3.132568 -299.999908 600.802429
v -96.867432 -299.999908 500.802429
v -96.867432 -199.999908 600.802429
v -96.867432 -299.999908 600.802429
v 3.132568 -199.999908 600.802429
v 3.132568 -299.999908 600.802429
v -96.867432 -99.999901 600.802368
v -96.867432 -99.999916 500.802399
v 3.132568 -99.999916 500.802399
v 3.132568 -99.999901 600.802368
v 3.132568 -199.999924 500.802399
v -96.867432 -199.999924 500.802399
v -96.867432 -99.999916 500.802399
v 3.132568 -99.999916 500.802399
v -96.867432 -99.999901 600.802368
v 3.132568 -99.999901 600.802368
v -96.867432 0.000098 600.802368
v -96.867432 0.000082 500.802368
v 3.132568 0.000082 500.802368
v 3.132568 0.000098 600.802368
v -96.867432 0.000082 500.802368
v 3.132568 0.000082 500.802368
v -96.867432 0.000098 600.802368
v 3.132568 0.000098 600.802368
v -96.867432 100.000084 500.802338
v -96.867432 0.000065 400.802368
v -96.867432 100.000069 400.802338
v 3.132568 100.000084 500.802338
v -96.867432 100.000069 400.802338
v -96.867432 100.000084 500.802338
v 3.132568 100.000069 400.802338
v 3.132568 100.000069 400.802338
v 3.132568 100.000084 500.802338
v 3.132568 0.000065 400.802368
v -96.867432 0.000082 500.802368
v 3.132568 0.000065 400.802368
v 3.132568 0.000082 500.802368
v -96.867432 0.000065 400.802368
v -96.867432 100.000099 600.802368
v 3.132568 100.000099 600.802368
v -96.867432 100.000099 600.802368
v 3.132568 100.000099 600.802368
v -96.867432 100.000099 600.802368
v 3.132568 100.000099 600.802368
v 0.000002 -249.999985 149.999771
v 0.000000 -300.000000 149.999771
v 50.000000 -300.000000 149.999771
v 100.000000 -300.000000 149.999771
v 0.000000 -300.000000 149.999771
v 0.000000 -300.000000 99.999779
v 50.000000 -300.000000 99.999779
v 50.000000 -300.000000 149.999771
v 100.000000 -300.000000 149.999771
v -300.000000 -300.000000 99.999779
v -300.000000 -300.000031 -0.000218
v -300.000000 -399.999969 99.999802
v -300.000000 -400.000000 -0.000202
v -0.000007 -399.999969 199.999786
v 0.000000 -399.999969 99.999802
v 0.000000 -300.000000 99.999779
v 100.000000 150.000015 99.999710
v 100.000000 150.000031 149.999695
v 100.000000 200.000031 149.999695
v 0.000000 200.000031 149.999695
v 0.000000 300.000031 199.999680
v -0.000005 200.000046 199.999695
v 0.000000 300.000031 99.999687
v 0.000000 200.000015 99.999702
v -98.461533 150.000046 199.999695
v -98.461533 200.000061 299.999695
v -98.461533 200.000046 199.999695
v 50.000000 200.000031 149.999695
v 0.000000 200.000015 99.999702
v 0.000000 200.000031 149.999695
v 50.000000 200.000015 99.999702
v 100.000000 200.000031 149.999695
v -0.000003 -199.999954 199.999756
v 0.000000 150.000046 199.999695
v 0.000006 150.000046 149.999695
v 0.000006 100.000053 149.999710
v 0.000000 100.000061 199.999710
v 0.000006 150.000046 149.999695
v 50.000000 200.000031 149.999695
v 0.000000 200.000031 149.999695
v 50.000008 150.000031 149.999695
v 100.000000 200.000031 149.999695
v 0.000006 100.000053 149.999710
v 100.000000 150.000031 149.999695
vn -0.0000 -0.0000 1.0000
vn -0.0000 -1.0000 -0.0000
vn -0.0000 1.0000 -0.0000
vn -1.0000 -0.0000 -0.0000
vn 1.0000 -0.0000 -0.0000
vn -0.0000 -0.0000 -1.0000
vt 0.125000 0.625000
vt 0.125000 0.750000
vt 0.000031 0.750000
vt 0.000031 0.625000
vt 0.375000 0.875000
vt 0.375000 0.999969
vt 0.250000 0.999969
vt 0.250000 0.875000
vt 0.250000 0.625000
vt 0.250000 0.750000
vt -0.000031 0.375000
vt 0.125000 0.375000
vt 0.125000 0.500000
vt -0.000031 0.500000
vt 0.250000 0.687500
vt 0.125000 0.687500
vt 0.187500 0.500000
vt 0.187500 0.562500
vt 0.125000 0.562500
vt 0.000031 0.500000
vt 0.000031 0.375000
vt 0.375000 0.687500
vt 0.375000 0.625000
vt 0.375000 0.750000
vt 0.312500 0.625000
vt 0.312500 0.687500
vt 0.500000 0.875000
vt 0.500000 0.999969
vt 0.187500 0.625000
vt 0.187500 0.687500
vt 0.187500 0.750000
vt 0.312500 0.750000
vt 0.250000 0.562500
vt 0.312500 0.562500
vt 0.250000 0.500000
vt 0.000031 0.687500
vt 0.375000 0.562500
vt 0.062500 0.437500
vt 0.062500 0.500000
vt 0.000031 0.437500
vt 0.125000 0.695312
vt 0.062500 0.375000
s 1
usemtl MI_PortalsOverworld01
f 27/1/1 24/2/1 25/3/1 26/4/1
f 24/5/1 42/6/1 43/7/1 25/8/1
f 198/1/6 200/9/6 199/10/6 197/2/6
f 329/11/5 339/12/5 340/13/5 330/14/5
f 15/5/1 27/6/1 26/7/1 16/8/1
f 71/1/1 68/9/1 69/10/1 70/2/1
f 1/1/1 15/2/1 16/3/1 2/4/1
f 21/4/1 37/1/1 36/2/1 22/3/1
f 345/11/4 338/12/4 337/13/4 359/14/4
f 190/15/5 188/10/5 189/2/5 187/16/5
f 83/9/3 82/10/3 78/2/3 81/1/3
f 322/11/2 320/12/2 321/13/2 319/14/2
f 137/9/2 136/10/2 76/2/2 77/1/2
f 105/9/4 104/10/4 100/2/4 103/1/4
f 216/13/1 408/17/1 405/18/1 217/19/1
f 334/13/6 331/14/6 332/11/6 333/12/6
f 232/16/5 230/15/5 231/10/5 229/2/5
f 34/10/1 47/2/1 48/1/1 35/9/1
f 158/12/4 155/13/4 156/20/4 157/21/4
f 338/11/4 328/12/4 327/13/4 337/14/4
f 358/11/2 356/12/2 357/13/2 355/14/2
f 79/9/3 99/10/3 148/2/3 139/1/3
f 17/21/1 207/12/1 32/13/1 29/20/1
f 215/22/1 253/15/1 252/9/1 212/23/1
f 6/9/1 5/10/1 1/2/1 4/1/1
f 81/5/3 78/6/3 79/7/3 80/8/3
f 4/9/1 1/10/1 2/2/1 3/1/1
f 257/12/3 288/13/3 289/20/3 258/21/3
f 262/21/2 94/12/2 263/13/2 261/20/2
f 125/15/5 122/10/5 123/2/5 124/16/5
f 342/13/6 334/14/6 333/11/6 341/12/6
f 10/9/1 7/10/1 8/2/1 9/1/1
f 154/9/3 151/10/3 152/2/3 153/1/3
f 93/1/4 92/2/4 90/3/4 91/4/4
f 97/9/2 94/10/2 95/2/2 96/1/2
f 375/1/4 374/2/4 248/3/4 249/4/4
f 112/5/4 111/6/4 108/7/4 109/8/4
f 23/9/1 21/10/1 22/2/1 7/1/1
f 77/9/2 76/10/2 72/2/2 75/1/2
f 272/15/2 269/10/2 270/2/2 271/16/2
f 87/9/4 84/10/4 85/2/4 86/1/4
f 230/1/5 233/9/5 234/15/5 231/16/5
f 187/22/5 189/24/5 194/10/5 196/15/5
f 282/21/4 283/12/4 293/13/4 292/20/4
f 314/11/4 312/12/4 313/13/4 311/14/4
f 348/11/3 350/12/3 361/13/3 360/14/3
f 37/9/1 34/10/1 35/2/1 36/1/1
f 20/1/1 17/9/1 18/10/1 19/2/1
f 60/9/1 65/10/1 66/2/1 67/1/1
f 326/11/1 325/12/1 323/13/1 324/14/1
f 51/9/1 61/10/1 62/2/1 52/1/1
f 141/9/3 139/10/3 140/2/3 135/1/3
f 117/9/2 138/10/2 136/2/2 137/1/2
f 172/12/3 169/13/3 170/14/3 171/11/3
f 249/5/4 248/6/4 92/7/4 93/8/4
f 117/16/2 115/15/2 116/10/2 114/2/2
f 54/10/1 304/2/1 305/1/1 64/9/1
f 168/9/5 167/10/5 163/2/5 166/1/5
f 53/8/1 54/5/1 64/6/1 63/7/1
f 307/9/1 252/25/1 253/26/1 306/15/1
f 75/9/2 72/10/2 73/2/2 74/1/2
f 80/27/3 79/28/3 139/6/3 141/5/3
f 30/10/1 44/2/1 45/1/1 28/9/1
f 354/11/5 352/12/5 353/13/5 339/14/5
f 29/21/1 32/12/1 33/13/1 30/20/1
f 78/5/3 98/6/3 99/7/3 79/8/3
f 217/15/1 214/16/1 213/1/1 216/9/1
f 217/19/1 405/18/1 402/29/1 407/1/1
f 344/11/1 364/12/1 363/13/1 343/14/1
f 318/11/5 316/12/5 317/13/5 315/14/5
f 268/15/3 265/10/3 266/2/3 267/16/3
f 58/10/1 56/2/1 57/1/1 55/9/1
f 109/5/4 108/6/4 106/7/4 107/8/4
f 107/9/4 106/10/4 104/2/4 105/1/4
f 260/12/3 257/13/3 258/20/3 259/21/3
f 284/12/5 294/13/5 295/20/5 285/21/5
f 33/15/1 32/16/1 203/1/1 202/9/1
f 278/30/3 276/15/3 277/10/3 275/31/3
f 196/15/5 194/10/5 195/32/5 193/26/5
f 401/9/5 400/33/5 399/34/5 398/25/5
f 405/18/1 403/33/1 404/9/1 402/29/1
f 303/21/2 291/12/2 290/13/2 302/20/2
f 316/11/5 329/12/5 330/13/5 317/14/5
f 310/32/5 309/10/5 220/15/5 308/26/5
f 42/9/1 51/10/1 52/2/1 43/1/1
f 121/15/5 118/10/5 119/2/5 120/16/5
f 214/15/1 215/16/1 212/1/1 213/9/1
f 211/10/2 209/15/2 210/26/2 208/32/2
f 91/5/4 90/6/4 88/7/4 89/8/4
f 166/12/5 163/13/5 164/20/5 165/21/5
f 251/15/5 145/22/5 142/24/5 250/10/5
f 254/21/4 255/12/4 283/13/4 282/20/4
f 159/12/2 175/13/2 176/14/2 160/11/2
f 113/9/4 110/10/4 111/2/4 112/1/4
f 125/16/5 126/15/5 127/10/5 122/2/5
f 14/1/1 12/9/1 13/10/1 11/2/1
f 143/16/5 146/15/5 147/10/5 144/2/5
f 130/9/5 129/15/5 233/16/5 264/1/5
f 250/32/5 310/10/5 308/15/5 251/26/5
f 328/11/4 314/12/4 311/13/4 327/14/4
f 129/15/5 235/10/5 234/2/5 233/16/5
f 131/15/5 128/10/5 129/2/5 130/16/5
f 247/13/1 245/14/1 246/21/1 244/12/1
f 273/9/5 228/15/5 118/16/5 121/1/5
f 145/16/5 143/15/5 144/10/5 142/2/5
f 287/12/5 284/13/5 285/20/5 286/21/5
f 41/1/1 38/9/1 39/10/1 40/2/1
f 155/12/4 173/13/4 174/14/4 156/11/4
f 221/16/5 219/15/5 220/10/5 218/2/5
f 225/16/2 223/15/2 224/10/2 222/2/2
f 136/35/2 149/9/2 150/1/2 76/13/2
f 239/15/3 236/10/3 237/2/3 238/16/3
f 103/5/4 100/6/4 101/7/4 102/8/4
f 288/12/3 300/13/3 301/20/3 289/21/3
f 162/12/2 159/13/2 160/20/2 161/21/2
f 256/21/4 180/12/4 255/13/4 254/20/4
f 192/15/5 191/10/5 188/2/5 190/16/5
f 18/8/1 17/5/1 29/6/1 31/7/1
f 273/4/5 274/1/5 232/16/5 228/36/5
f 297/21/1 299/12/1 298/13/1 296/20/1
f 291/21/2 262/12/2 261/13/2 290/20/2
f 32/22/1 207/15/1 204/9/1 203/23/1
f 46/15/1 33/16/1 202/1/1 201/9/1
f 281/13/1 279/35/1 280/9/1 20/1/1
f 164/11/5 163/12/5 178/13/5 177/14/5
f 30/21/1 33/12/1 46/13/1 44/20/1
f 180/1/4 182/13/4 181/35/4 179/9/4
f 135/15/3 132/10/3 133/2/3 134/16/3
f 89/9/4 88/10/4 84/2/4 87/1/4
f 207/26/1 205/15/1 206/9/1 204/25/1
f 47/9/1 59/10/1 60/2/1 48/1/1
f 339/11/5 353/12/5 362/13/5 340/14/5
f 371/26/2 372/32/2 369/10/2 370/15/2
f 399/34/5 384/37/5 386/23/5 398/25/5
f 351/11/3 349/12/3 350/13/3 348/14/3
f 31/8/1 29/5/1 30/6/1 28/7/1
f 336/11/1 344/12/1 343/13/1 335/14/1
f 325/11/1 336/12/1 335/13/1 323/14/1
f 186/38/5 184/39/5 185/20/5 183/40/5
f 368/9/1 307/25/1 306/26/1 367/15/1
f 367/15/1 306/26/1 365/32/1 366/10/1
f 377/9/4 376/10/4 374/2/4 375/1/4
f 382/29/5 147/1/5 146/19/5 381/18/5
f 185/9/5 378/1/5 183/33/5
f 379/13/5 183/33/5 378/1/5
f 380/35/5 183/33/5 379/13/5
f 408/17/1 406/35/1 403/33/1 405/18/1
f 39/2/1 38/1/1 50/9/1 49/10/1
f 386/2/5 384/41/5 385/10/5
f 385/10/5 384/41/5 387/9/5
f 388/1/5 387/9/5 384/41/5
f 391/1/4 389/29/4 390/2/4
f 156/10/4 390/2/4 389/29/4
f 157/9/4 156/10/4 389/29/4
f 222/22/2 373/24/2 372/32/2 371/26/2
f 395/18/3 393/33/3 394/9/3 392/29/3
f 185/21/5 184/42/5 286/20/5
f 287/13/5 286/20/5 184/42/5
f 397/12/5 287/13/5 184/42/5
f 347/11/4 346/12/4 338/13/4 345/14/4
f 383/9/5 382/29/5 381/18/5 242/33/5
f 243/2/5 241/16/5 242/15/5 240/10/5
f 45/1/1 44/9/1 54/10/1 53/2/1
f 228/36/5 232/16/5 229/2/5 226/3/5
f 228/15/5 226/10/5 227/2/5 118/16/5
f 236/19/3 395/18/3 392/29/3 396/1/3
