# Blender 5.0.1
# www.blender.org
mtllib BP_NetherGateFrame.mtl
o SM_GateFrame.001
v -250.000000 50.000015 99.999992
v -250.000000 0.000000 0.000004
v -250.000000 0.000016 100.000008
v -250.000000 50.000000 -0.000004
v -150.000000 0.000016 100.000008
v -150.000000 50.000000 -0.000004
v -150.000000 50.000015 99.999992
v -150.000000 0.000000 0.000004
v 150.000000 50.000015 99.999992
v 150.000000 0.000000 0.000004
v 150.000000 0.000016 100.000008
v 150.000000 50.000000 -0.000004
v 250.000000 0.000016 100.000008
v 250.000000 50.000000 -0.000004
v 250.000000 50.000015 99.999992
v 250.000000 0.000000 0.000004
v -50.000000 0.000049 300.000000
v -150.000000 0.000049 300.000000
v -150.000000 50.000050 300.000000
v -50.000000 50.000050 300.000000
v -150.000000 50.000065 400.000000
v -150.000000 0.000065 400.000000
v -50.000000 50.000065 400.000000
v -50.000000 0.000065 400.000000
v 50.000000 0.000049 300.000000
v 50.000000 50.000050 300.000000
v 50.000000 50.000065 400.000000
v 50.000000 0.000065 400.000000
v 150.000000 0.000049 300.000000
v 150.000000 50.000050 300.000000
v 150.000000 50.000065 400.000000
v 150.000000 0.000065 400.000000
v 200.000000 50.000065 400.000000
v 200.000000 0.000065 400.000000
v 250.000000 50.000065 400.000000
v 250.000000 0.000065 400.000000
v 150.000000 0.000000 0.000004
v 150.000000 50.000000 -0.000004
v 200.000000 0.000000 0.000004
v 200.000000 50.000000 -0.000004
v 250.000000 0.000000 0.000004
v 250.000000 50.000000 -0.000004
v -250.000000 0.000000 0.000004
v -250.000000 50.000000 -0.000004
v -200.000000 0.000000 0.000004
v -200.000000 50.000000 -0.000004
v -150.000000 0.000000 0.000004
v -150.000000 50.000000 -0.000004
v -200.000000 50.000000 -0.000004
v -150.000000 50.000015 99.999992
v -150.000000 50.000000 -0.000004
v -200.000000 50.000015 99.999992
v -250.000000 50.000000 -0.000004
v -250.000000 50.000015 99.999992
v -200.000000 0.000000 0.000004
v -250.000000 0.000016 100.000008
v -250.000000 0.000000 0.000004
v -200.000000 0.000016 100.000008
v -150.000000 0.000000 0.000004
v -150.000000 0.000016 100.000008
v 200.000000 50.000000 -0.000004
v 250.000000 50.000015 99.999992
v 250.000000 50.000000 -0.000004
v 200.000000 50.000015 99.999992
v 150.000000 50.000000 -0.000004
v 150.000000 50.000015 99.999992
v 200.000000 0.000000 0.000004
v 150.000000 0.000016 100.000008
v 150.000000 0.000000 0.000004
v 200.000000 0.000016 100.000008
v 250.000000 0.000000 0.000004
v 250.000000 0.000016 100.000008
v -250.000000 50.000034 200.000000
v -250.000000 0.000033 200.000000
v -250.000000 50.000050 300.000000
v -250.000000 0.000049 300.000000
v -150.000000 0.000033 200.000000
v -150.000000 50.000034 200.000000
v -150.000000 0.000049 300.000000
v -150.000000 50.000050 300.000000
v 150.000000 50.000034 200.000000
v 150.000000 0.000033 200.000000
v 150.000000 50.000050 300.000000
v 150.000000 0.000049 300.000000
v 250.000000 0.000033 200.000000
v 250.000000 50.000034 200.000000
v 250.000000 0.000049 300.000000
v 250.000000 50.000050 300.000000
v -250.000000 50.000065 400.000000
v -250.000000 0.000057 350.000000
v -250.000000 0.000065 400.000000
v -250.000000 50.000057 350.000000
v -250.000000 0.000065 400.000000
v -200.000000 50.000065 400.000000
v -250.000000 50.000065 400.000000
v -200.000000 0.000065 400.000000
v -50.000000 50.000065 400.000000
v -150.000000 50.000057 350.000000
v -150.000000 50.000065 400.000000
v -50.000000 50.000057 350.000000
v -150.000000 50.000050 300.000000
v -50.000000 50.000050 300.000000
v -150.000000 0.000065 400.000000
v -50.000000 0.000057 350.000000
v -50.000000 0.000065 400.000000
v -150.000000 0.000057 350.000000
v -50.000000 0.000049 300.000000
v -150.000000 0.000049 300.000000
v 50.000000 50.000065 400.000000
v 50.000000 50.000057 350.000000
v 50.000000 50.000050 300.000000
v 50.000000 0.000057 350.000000
v 50.000000 0.000065 400.000000
v 50.000000 0.000049 300.000000
v 150.000000 50.000065 400.000000
v 150.000000 50.000057 350.000000
v 150.000000 50.000050 300.000000
v 150.000000 0.000057 350.000000
v 150.000000 0.000065 400.000000
v 150.000000 0.000049 300.000000
v 250.000000 0.000065 400.000000
v 250.000000 50.000057 350.000000
v 250.000000 50.000065 400.000000
v 250.000000 0.000057 350.000000
v -150.000000 50.000034 200.000000
v -200.000000 50.000034 200.000000
v -200.000000 50.000050 300.000000
v -250.000000 50.000034 200.000000
v -250.000000 50.000050 300.000000
v -250.000000 0.000033 200.000000
v -200.000000 0.000033 200.000000
v -250.000000 0.000049 300.000000
v -200.000000 0.000049 300.000000
v -150.000000 0.000033 200.000000
v 250.000000 50.000034 200.000000
v 200.000000 50.000034 200.000000
v 250.000000 50.000050 300.000000
v 200.000000 50.000050 300.000000
v 150.000000 50.000034 200.000000
v 150.000000 0.000033 200.000000
v 200.000000 0.000033 200.000000
v 200.000000 0.000049 300.000000
v 250.000000 0.000033 200.000000
v 250.000000 0.000049 300.000000
v 200.000000 0.000065 400.000000
v 250.000000 0.000057 350.000000
v 250.000000 0.000065 400.000000
v 200.000000 0.000057 350.000000
v 200.000000 50.000065 400.000000
v 200.000000 50.000057 350.000000
v 250.000000 50.000065 400.000000
v 250.000000 50.000057 350.000000
v -250.000000 0.000057 350.000000
v -200.000000 0.000057 350.000000
v -250.000000 0.000065 400.000000
v -200.000000 0.000065 400.000000
v -200.000000 50.000057 350.000000
v -200.000000 50.000065 400.000000
v -250.000000 50.000057 350.000000
v -250.000000 50.000065 400.000000
vn -1.0000 -0.0000 -0.0000
vn 1.0000 -0.0000 -0.0000
vn -0.0000 -0.0000 -1.0000
vn -0.0000 -0.0000 1.0000
vn -0.0000 1.0000 -0.0000
vn -0.0000 -1.0000 -0.0000
vt 0.500000 0.000000
vt 0.750000 0.000000
vt 0.750000 0.500000
vt 0.500000 0.500000
vt 0.750000 0.999969
vt 0.500000 0.999969
vt 0.250000 0.500000
vt 0.000031 0.500000
vt -0.000031 0.250000
vt 0.250000 0.250000
vt -0.000031 0.000000
vt 0.250000 0.000000
vt -0.000031 0.000000
vt 0.500000 0.250000
vt 0.249878 0.000000
vt 0.499756 0.000000
vt 1.000000 0.500000
vt 1.000000 0.000000
vt 0.750000 0.250000
vt 1.000000 0.999969
vt -0.000031 0.500000
vt 0.500000 0.750000
vt -0.000031 0.750000
vt 0.000031 0.999969
s 1
usemtl WorldGridMaterial
f 16/1/2 14/2/2 15/3/2 13/4/2
f 84/5/1 83/6/1 81/4/1 82/3/1
f 4/1/1 2/2/1 3/3/1 1/4/1
f 8/1/2 6/2/2 7/3/2 5/4/2
f 156/7/6 155/8/6 153/9/6 154/10/6
f 22/11/4 21/12/4 94/10/4 96/9/4
f 32/11/4 31/12/4 27/7/4 28/8/4
f 102/13/5 101/1/5 98/14/5 100/9/5
f 116/9/5 110/14/5 109/4/5 115/8/5
f 142/15/6 144/1/6 146/14/6 148/10/6
f 127/5/5 101/6/5 125/4/5 126/3/5
f 142/5/6 120/6/6 140/4/6 141/3/6
f 126/3/5 125/4/5 50/16/5 52/2/5
f 128/17/5 126/3/5 52/2/5 54/18/5
f 118/9/6 148/10/6 145/7/6 119/8/6
f 66/17/5 64/3/5 61/2/5 65/18/5
f 117/13/5 111/1/5 110/14/5 116/9/5
f 64/3/5 62/4/5 63/16/5 61/2/5
f 60/17/6 58/3/6 55/2/6 59/18/6
f 28/11/4 27/12/4 23/7/4 24/8/4
f 159/14/5 157/10/5 127/15/5 129/1/5
f 106/14/6 154/10/6 133/15/6 108/1/6
f 34/9/4 33/10/4 31/7/4 32/8/4
f 96/9/4 94/10/4 95/7/4 93/8/4
f 88/5/2 87/6/2 85/4/2 86/3/2
f 124/9/2 122/10/2 123/7/2 121/8/2
f 76/5/1 75/6/1 73/4/1 74/3/1
f 78/3/2 77/4/2 5/1/2 7/2/2
f 86/3/2 85/4/2 13/1/2 15/2/2
f 75/11/1 76/12/1 90/10/1 92/9/1
f 87/11/2 88/12/2 122/10/2 124/9/2
f 74/3/1 73/4/1 1/1/1 3/2/1
f 92/9/1 90/10/1 91/7/1 89/8/1
f 46/19/3 45/14/3 43/1/3 44/2/3
f 120/13/6 142/15/6 148/10/6 118/9/6
f 108/20/6 133/5/6 131/3/6 134/17/6
f 30/7/3 29/8/3 25/11/3 26/12/3
f 107/21/6 114/4/6 112/22/6 104/23/6
f 106/9/6 104/14/6 105/4/6 103/8/6
f 104/23/6 112/22/6 113/6/6 105/24/6
f 58/3/6 56/4/6 57/16/6 55/2/6
f 117/20/5 138/5/5 136/3/5 139/17/5
f 110/23/5 100/22/5 97/6/5 109/24/5
f 158/7/5 99/8/5 98/9/5 157/10/5
f 100/9/5 98/14/5 99/4/5 97/8/5
f 42/3/3 41/4/3 39/14/3 40/19/3
f 150/10/5 116/14/5 115/4/5 149/7/5
f 80/5/2 79/6/2 77/4/2 78/3/2
f 82/3/1 81/4/1 9/1/1 11/2/1
f 112/9/6 118/14/6 119/4/6 113/8/6
f 139/17/5 136/3/5 64/2/5 66/18/5
f 70/3/6 68/4/6 69/16/6 67/2/6
f 144/20/6 142/5/6 141/3/6 143/17/6
f 40/19/3 39/14/3 37/1/3 38/2/3
f 138/5/5 137/6/5 135/4/5 136/3/5
f 131/3/6 130/4/6 56/16/6 58/2/6
f 148/10/6 146/14/6 147/4/6 145/7/6
f 134/17/6 131/3/6 58/2/6 60/18/6
f 12/1/1 10/2/1 11/3/1 9/4/1
f 133/5/6 132/6/6 130/4/6 131/3/6
f 136/3/5 135/4/5 62/16/5 64/2/5
f 52/3/5 50/4/5 51/16/5 49/2/5
f 129/20/5 127/5/5 126/3/5 128/17/5
f 26/7/3 25/8/3 17/11/3 20/12/3
f 20/7/3 17/8/3 18/11/3 19/12/3
f 36/11/4 35/12/4 33/10/4 34/9/4
f 141/3/6 140/4/6 68/16/6 70/2/6
f 48/3/3 47/4/3 45/14/3 46/19/3
f 154/10/6 153/9/6 132/13/6 133/15/6
f 24/11/4 23/12/4 21/7/4 22/8/4
f 137/13/5 138/15/5 150/10/5 152/9/5
f 72/17/6 70/3/6 67/2/6 71/18/6
f 111/21/5 102/4/5 100/22/5 110/23/5
f 138/15/5 117/1/5 116/14/5 150/10/5
f 114/13/6 120/1/6 118/14/6 112/9/6
f 143/17/6 141/3/6 70/2/6 72/18/6
f 108/13/6 107/1/6 104/14/6 106/9/6
f 103/4/6 156/7/6 154/10/6 106/14/6
f 157/10/5 98/9/5 101/13/5 127/15/5
f 152/9/5 150/10/5 149/7/5 151/8/5
f 54/17/5 52/3/5 49/2/5 53/18/5
f 160/4/5 158/7/5 157/10/5 159/14/5
