# Blender 5.0.1
# www.blender.org
mtllib BP_NetherPortal_DesertTemple06.mtl
o SM_netherportal_deserttemple06.001
v -100.000000 -99.999985 100.000015
v -200.000000 -99.999985 100.000015
v -200.000000 -199.999985 100.000031
v -100.000000 -199.999985 100.000031
v -100.000000 0.000016 100.000000
v -200.000000 0.000016 100.000000
v -0.000019 -99.999969 99.999985
v 0.000000 0.000016 100.000000
v -100.000000 100.000015 99.999985
v -200.000000 100.000015 99.999985
v 0.000010 100.000023 99.999954
v -200.000000 200.000000 99.999939
v -100.000000 200.000015 99.999954
v -100.000000 -199.999985 100.000031
v -200.000000 -199.999985 100.000031
v -200.000000 -200.000000 0.000033
v -100.000000 -200.000000 0.000033
v -200.000000 200.000000 99.999939
v -200.000000 100.000000 -0.000016
v -200.000000 100.000015 99.999985
v -200.000000 199.999985 -0.000054
v -200.000000 0.000016 100.000000
v -200.000000 0.000000 0.000000
v -200.000000 -99.999985 100.000015
v -200.000000 -100.000000 0.000016
v -200.000000 -199.999985 100.000031
v -200.000000 -200.000000 0.000033
v 100.000000 -99.999977 50.000015
v 100.000000 0.000000 0.000000
v 100.000000 0.000008 50.000000
v 100.000000 -100.000000 0.000014
v 100.000008 100.000015 49.999954
v 100.000008 100.000008 -0.000045
v -0.000029 -299.999969 100.000008
v -100.000000 -299.999969 100.000046
v -100.000000 -300.000000 0.000049
v -0.000010 -300.000000 0.000035
v 0.000000 -99.999847 200.000015
v -100.000000 -99.999985 100.000015
v -100.000000 -99.999847 200.000015
v -0.000019 -99.999969 99.999985
v -100.000015 -199.999969 200.000031
v -100.000000 -99.999847 200.000015
v -100.000000 -99.999985 100.000015
v -100.000000 -199.999985 100.000031
v -100.000015 -299.999969 200.000015
v -100.000000 -299.999969 100.000046
v 0.000000 -299.999969 200.000015
v -100.000015 -299.999969 200.000015
v 0.000000 -299.999969 200.000015
v -0.000035 -199.999985 99.999992
v 0.000000 -199.999847 200.000031
v -0.000029 -299.999969 100.000008
v 0.000000 100.000031 199.999985
v -100.000000 100.000031 199.999985
v -100.000000 100.000015 99.999985
v 0.000010 100.000023 99.999954
v -100.000000 200.000015 199.999969
v -100.000000 100.000015 99.999985
v -100.000000 100.000031 199.999985
v -100.000000 200.000015 99.999954
v 0.000000 100.000046 300.000000
v -100.000000 100.000046 300.000000
v 0.000000 100.000046 300.000000
v 0.000000 200.000015 200.000000
v 0.000000 200.000031 300.000000
v 0.000000 100.000031 199.999985
v -100.000000 200.000031 300.000000
v 0.000000 200.000031 300.000000
v 0.000000 200.000015 200.000000
v -100.000000 200.000015 199.999969
v -100.000000 200.000031 300.000000
v -100.000000 100.000046 300.000000
v -100.000000 -99.999916 400.000031
v -100.000000 0.000065 400.000000
v 0.000000 -99.999809 400.000031
v 0.000000 0.000065 400.000000
v -100.000000 -99.999916 500.000061
v -100.000000 0.000065 400.000000
v -100.000000 -99.999916 400.000031
v -100.000015 0.000085 500.000092
v -0.000008 0.000085 500.000092
v -0.000003 -99.999916 500.000061
v 0.000000 0.000065 400.000000
v 0.000000 -99.999809 400.000031
v -100.000000 100.000069 400.000000
v 0.000000 100.000069 400.000000
v -100.000000 100.000069 400.000000
v -100.000000 100.000084 500.000000
v 0.000000 150.000092 599.999939
v -100.000000 100.000107 599.999939
v 0.000003 100.000107 599.999939
v -100.000000 150.000092 599.999939
v 0.000000 100.000084 500.000000
v 0.000000 100.000069 400.000000
v -100.000000 -300.000000 0.000049
v -100.000000 -200.000000 0.000033
v 49.999992 -99.999977 50.000015
v 50.000000 0.000016 100.000000
v 49.999992 -99.999969 100.000015
v 50.000000 0.000008 50.000000
v 50.000008 100.000023 99.999954
v 50.000008 100.000015 49.999954
v 50.000015 200.000031 99.999916
v 50.000008 250.000015 49.999912
v 50.000008 250.000015 99.999916
v 50.000008 200.000015 49.999931
v 0.000000 150.000015 99.999977
v 0.000000 150.000015 49.999977
v 0.000004 200.000015 99.999939
v 0.000000 200.000015 49.999966
v 50.000008 250.000015 99.999916
v 0.000000 250.000015 49.999912
v 0.000000 250.000015 99.999924
v 50.000008 250.000015 49.999912
v 50.000008 250.000015 99.999916
v 0.000000 250.000015 99.999924
v 50.000015 200.000031 99.999916
v 0.000004 200.000015 99.999939
v 50.000000 0.000016 100.000000
v 50.000008 100.000023 99.999954
v 49.999992 -99.999969 100.000015
v 100.000000 0.000008 50.000000
v 49.999992 -99.999977 50.000015
v 100.000000 -99.999977 50.000015
v 50.000000 0.000008 50.000000
v 100.000008 100.000015 49.999954
v 50.000008 100.000015 49.999954
v -0.000002 0.000105 599.999939
v 0.000003 100.000107 599.999939
v 0.000010 0.000125 649.999939
v 0.000010 100.000122 649.999939
v -100.000015 0.000114 649.999939
v -0.000002 0.000105 599.999939
v 0.000010 0.000125 649.999939
v -100.000015 0.000105 599.999939
v 0.000003 100.000107 599.999939
v -100.000000 100.000122 649.999939
v 0.000010 100.000122 649.999939
v -100.000000 100.000107 599.999939
v -100.000000 100.000122 649.999939
v 0.000010 0.000125 649.999939
v 0.000010 100.000122 649.999939
v -100.000015 0.000114 649.999939
v -100.000000 200.000092 549.999878
v 0.000000 200.000092 549.999878
v 0.000000 200.000076 499.999969
v -100.000000 200.000061 500.000000
v -100.000000 200.000092 549.999878
v -100.000000 150.000076 499.999969
v -100.000000 150.000092 549.999939
v -100.000000 200.000061 500.000000
v -100.000000 150.000092 549.999939
v 0.000000 200.000092 549.999878
v -100.000000 200.000092 549.999878
v 0.000000 150.000092 549.999939
v 0.000000 150.000092 549.999939
v 0.000000 200.000076 499.999969
v 0.000000 200.000092 549.999878
v 0.000000 150.000076 499.999969
v -100.000000 150.000092 599.999939
v 0.000000 150.000092 599.999939
v 0.000000 150.000092 549.999939
v -100.000000 150.000092 549.999939
v 0.000000 100.000069 400.000000
v -100.000000 100.000069 400.000000
v 0.000000 200.000046 400.000000
v -100.000000 200.000046 400.000000
v 0.000000 200.000046 400.000000
v -100.000000 200.000046 400.000000
v 0.000000 200.000076 499.999969
v -100.000000 200.000061 500.000000
v -100.000000 100.000084 500.000000
v 0.000000 100.000084 500.000000
v -0.000008 0.000085 500.000092
v -100.000015 0.000085 500.000092
v -100.000000 -99.999916 500.000061
v -0.000003 -99.999916 500.000061
v -0.000008 0.000085 500.000092
v -100.000015 0.000085 500.000092
v -100.000015 -199.999969 200.000031
v 0.000000 -299.999969 200.000015
v 0.000000 -199.999847 200.000031
v -100.000015 -299.999969 200.000015
v 99.999969 -299.999969 99.999985
v 100.000000 -200.000000 0.000016
v 99.999992 -199.999985 99.999985
v 99.999985 -300.000000 0.000020
v 99.999969 -299.999969 99.999985
v 99.999985 -300.000000 0.000020
v -0.000035 -199.999985 99.999992
v 99.999969 -299.999969 99.999985
v 99.999992 -199.999985 99.999985
v -0.000029 -299.999969 100.000008
v 100.000000 -99.999969 99.999992
v 100.000000 -99.999969 99.999992
v 49.999992 -99.999977 50.000015
v 49.999992 -99.999969 100.000015
v 100.000000 -99.999977 50.000015
v 100.000000 200.000015 49.999966
v 100.000015 200.000000 -0.000068
v 100.000000 200.000015 49.999966
v 50.000008 200.000015 49.999931
v -100.000008 300.000000 49.999905
v -0.000005 300.000000 -0.000092
v -100.000008 300.000000 -0.000094
v 0.000000 300.000000 49.999908
v -100.000008 250.000015 99.999924
v -100.000008 250.000015 49.999912
v -100.000008 250.000015 99.999924
v 0.000000 300.000000 49.999908
v -100.000008 300.000000 49.999905
v -100.000008 250.000015 49.999912
v 0.000000 250.000015 49.999912
v 100.000008 300.000000 -0.000094
v 100.000008 300.000000 49.999905
v -150.000000 250.000015 99.999916
v -150.000000 250.000015 49.999912
v -150.000000 200.000000 99.999916
v -150.000000 250.000015 49.999912
v -150.000000 200.000000 49.999912
v -150.000000 250.000015 99.999916
v -150.000000 250.000015 99.999916
v -150.000000 200.000000 99.999916
v -200.000000 300.000000 49.999905
v -200.000000 200.000000 49.999920
v -200.000000 300.000000 -0.000094
v -150.000000 200.000000 99.999916
v -200.000000 200.000000 49.999920
v -200.000000 200.000000 99.999939
v -150.000000 200.000000 49.999912
v 0.000004 200.000015 99.999939
v -100.000000 200.000015 99.999954
v -100.000015 0.000114 649.999939
v -100.000000 100.000107 599.999939
v -100.000015 0.000105 599.999939
v -100.000000 100.000122 649.999939
v -100.000000 -199.999832 300.000031
v -100.000000 -99.999832 300.000031
v 0.000000 -99.999832 300.000031
v -100.000000 -99.999832 300.000031
v 0.000000 -199.999832 300.000031
v 0.000000 -99.999847 200.000015
v 0.000000 -99.999832 300.000031
v -100.000000 -199.999832 300.000031
v 0.000000 -199.999847 200.000031
v 0.000000 -199.999832 300.000031
v -100.000015 -199.999969 200.000031
v -100.000000 -199.999817 400.000031
v 0.000000 -99.999809 400.000031
v -100.000000 -99.999916 400.000031
v 0.000000 -199.999817 400.000031
v -100.000000 -199.999817 400.000031
v 0.000000 -199.999817 400.000031
v -100.000000 -199.999802 500.000031
v 0.000000 -199.999802 500.000031
v -100.000000 -199.999802 500.000031
v 0.000000 -199.999802 500.000031
v -100.000000 -199.999802 500.000031
v 0.000000 -199.999802 500.000031
v 100.000008 250.000000 -0.000088
v 100.000008 250.000015 49.999912
v 100.000008 300.000000 -0.000094
v 100.000008 300.000000 49.999905
v 0.000002 -149.999985 100.000023
v -0.000019 -99.999969 99.999985
v 0.000010 100.000023 99.999954
v -100.000000 50.000099 600.000000
v 0.000000 50.000099 600.000000
v 100.000000 -99.999969 99.999992
v 0.000000 100.000092 549.999939
v 0.000000 150.000092 599.999939
v -100.000000 100.000092 549.999939
v -100.000000 150.000092 599.999939
v 50.000008 250.000015 49.999912
v 50.000008 300.000000 49.999905
v 100.000008 250.000015 49.999912
v 100.000008 300.000000 49.999905
v -150.000000 300.000000 49.999905
v -150.000000 300.000000 -0.000097
v -200.000000 300.000000 -0.000094
v -200.000000 300.000000 49.999905
v -150.000000 300.000000 49.999905
v -200.000000 300.000000 49.999905
v -200.000000 250.000015 49.999912
v -150.000000 250.000015 49.999912
v -200.000000 200.000000 49.999920
v -150.000000 200.000000 49.999912
vn -0.0000 -0.0000 1.0000
vn -0.0000 -1.0000 -0.0000
vn -1.0000 -0.0000 -0.0000
vn 1.0000 -0.0000 -0.0000
vn -0.0000 1.0000 -0.0000
vn -0.0000 -0.0000 -1.0000
vt 1.000000 0.937500
vt 1.000000 0.999969
vt 0.875000 0.999969
vt 0.875000 0.937500
vt 0.125000 0.375000
vt 0.125000 0.500000
vt 0.000031 0.500000
vt 0.000031 0.375000
vt 0.500000 0.750000
vt 0.625000 0.750000
vt 0.625000 0.875000
vt 0.500000 0.875000
vt 0.625000 0.812500
vt 0.500000 0.812500
vt -0.000031 0.500000
vt -0.000031 0.375000
vt 0.562500 0.812500
vt 0.562500 0.750000
vt 0.562500 0.875000
vt 0.500000 0.625000
vt 0.375000 0.750000
vt 0.375000 0.625000
vt 0.750000 0.750000
vt 0.875000 0.750000
vt 0.875000 0.875000
vt 0.750000 0.875000
vt 0.937500 0.812500
vt 1.000000 0.812500
vt 1.000000 0.875000
vt 0.937500 0.875000
vt 0.750000 0.625000
vt 0.625000 0.625000
vt 0.500000 0.937500
vt 0.625000 0.937500
vt 0.625000 0.999969
vt 0.500000 0.999969
vt 1.000000 0.750000
vt 0.750000 0.999969
vt 0.125000 0.437500
vt 0.062500 0.500000
vt 0.062500 0.437500
vt 0.625000 0.804688
vt 0.625000 0.867188
vt 0.500000 0.867188
vt 0.500000 0.804688
vt 0.875000 0.812500
vt 0.062500 0.375000
s 1
usemtl MI_PortalsOverworld01
f 101/1/4 99/2/4 100/3/4 98/4/4
f 68/5/5 168/6/5 169/7/5 69/8/5
f 81/6/3 79/7/3 80/8/3 78/5/3
f 180/9/2 179/10/2 134/11/2 136/12/2
f 1/8/1 7/5/1 8/6/1 5/7/1
f 107/13/4 104/11/4 102/12/4 103/14/4
f 214/14/1 211/9/1 212/10/1 213/13/1
f 233/5/5 71/6/5 70/15/5 232/16/5
f 286/17/1 283/18/1 284/10/1 285/13/1
f 222/19/3 220/17/3 221/13/3 219/11/3
f 38/16/5 40/5/5 241/6/5 240/15/5
f 235/12/3 274/19/3 151/17/3 273/14/3
f 103/13/4 102/11/4 99/12/4 101/14/4
f 174/20/1 171/9/1 172/21/1 173/22/1
f 78/15/3 80/8/3 249/5/3 255/6/3
f 53/23/4 51/24/4 52/25/4 50/26/4
f 64/8/4 66/5/4 167/6/4 95/7/4
f 199/27/5 197/28/5 198/29/5 196/30/5
f 224/13/1 13/17/1 210/18/1 223/10/1
f 107/14/4 105/17/4 106/19/4 104/12/4
f 11/13/1 8/14/1 120/9/1 121/10/1
f 5/31/1 9/23/1 10/10/1 6/32/1
f 136/33/2 134/34/2 135/35/2 133/36/2
f 31/4/4 29/1/4 30/2/4 28/3/4
f 119/14/1 117/9/1 210/10/1 13/13/1
f 160/18/4 158/10/4 159/13/4 157/17/4
f 203/13/1 128/14/1 127/9/1 202/10/1
f 45/5/3 42/6/3 43/7/3 44/8/3
f 253/16/2 254/5/2 258/6/2 257/15/2
f 239/16/3 238/5/3 249/6/3 80/15/3
f 25/37/3 24/29/3 22/25/3 23/24/3
f 202/9/1 277/18/1 275/17/1 203/14/1
f 115/17/5 113/13/5 114/11/5 112/19/5
f 27/37/3 26/29/3 24/25/3 25/24/3
f 89/6/3 88/7/3 79/8/3 81/5/3
f 168/5/5 148/6/5 147/7/5 169/8/5
f 82/15/4 84/8/4 95/5/4 94/6/4
f 218/17/5 217/19/5 208/12/5 209/14/5
f 32/12/4 33/14/4 201/13/4 200/11/4
f 128/13/1 126/14/1 123/9/1 127/10/1
f 30/12/4 29/14/4 33/13/4 32/11/4
f 209/13/5 208/11/5 114/12/5 113/14/5
f 264/11/4 262/19/4 261/17/4 263/13/4
f 271/14/4 94/9/4 160/18/4 157/17/4
f 41/8/5 39/5/5 40/6/5 38/7/5
f 207/12/5 205/14/5 206/13/5 204/11/5
f 191/38/1 193/26/1 195/25/1 7/3/1
f 190/37/2 189/29/2 34/25/2 37/24/2
f 248/16/2 246/5/2 247/6/2 245/15/2
f 1/25/1 5/3/1 6/38/1 2/26/1
f 111/39/4 110/6/4 108/40/4 109/41/4
f 280/17/5 279/19/5 204/12/5 206/14/5
f 164/42/5 161/43/5 162/44/5 163/45/5
f 227/14/3 21/13/3 226/11/3 225/12/3
f 4/25/1 1/3/1 2/38/1 3/26/1
f 88/5/3 89/6/3 152/7/3 170/8/3
f 148/13/5 145/11/5 146/12/5 147/14/5
f 73/5/3 88/6/3 170/7/3 72/8/3
f 34/24/2 48/25/2 49/26/2 35/23/2
f 242/16/4 244/5/4 85/6/4 252/15/4
f 288/19/1 286/17/1 285/13/1 287/11/1
f 45/24/3 97/37/3 96/29/3 47/25/3
f 83/15/4 85/8/4 84/5/4 82/6/4
f 21/24/3 19/37/3 20/29/3 18/25/3
f 231/46/5 229/27/5 230/30/5 228/25/5
f 10/26/1 9/25/1 13/3/1 12/38/1
f 194/38/1 192/26/1 193/25/1 191/3/1
f 130/34/4 132/35/4 131/36/4 129/33/4
f 5/8/1 8/5/1 11/6/1 9/7/1
f 188/24/4 186/37/4 187/29/4 185/25/4
f 256/15/4 252/16/4 85/5/4 83/6/4
f 8/1/1 7/4/1 122/25/1 120/29/1
f 216/12/5 215/14/5 205/13/5 207/11/5
f 156/10/1 154/13/1 155/14/1 153/9/1
f 37/37/2 34/29/2 35/25/2 36/24/2
f 23/31/3 22/23/3 20/10/3 19/32/3
f 178/5/1 175/6/1 176/7/1 177/8/1
f 52/16/4 243/5/4 244/6/4 242/15/4
f 17/37/2 14/29/2 15/25/2 16/24/2
f 240/16/5 241/5/5 251/6/5 250/15/5
f 61/8/3 59/5/3 60/6/3 58/7/3
f 117/13/1 119/17/1 118/18/1 116/10/1
f 237/36/3 235/33/3 236/34/3 234/35/3
f 67/8/4 65/5/4 66/6/4 64/7/4
f 152/10/3 150/18/3 151/17/3 149/13/3
f 93/9/1 91/18/1 92/19/1 90/12/1
f 140/34/5 138/35/5 139/36/5 137/33/5
f 262/19/4 200/12/4 201/14/4 261/17/4
f 239/15/3 43/16/3 42/5/3 238/6/3
f 144/36/1 142/12/1 143/11/1 141/35/1
f 126/1/1 124/4/1 125/25/1 123/29/1
f 57/5/2 54/6/2 55/7/2 56/8/2
f 184/11/1 182/10/1 183/23/1 181/26/1
f 277/18/1 278/10/1 276/13/1 275/17/1
f 87/7/6 77/8/6 75/5/6 86/6/6
f 77/7/6 76/8/6 74/5/6 75/6/6
f 71/5/5 68/6/5 69/7/5 70/8/5
f 51/8/4 265/47/4 52/7/4
f 243/6/4 52/7/4 265/47/4
f 266/5/4 243/6/4 265/47/4
f 267/8/4 108/47/4 67/7/4
f 65/6/4 67/7/4 108/47/4
f 110/5/4 65/6/4 108/47/4
f 236/11/3 268/19/3 81/10/3
f 81/10/3 268/19/3 89/9/3
f 235/12/3 89/9/3 268/19/3
f 130/11/4 269/19/4 94/10/4
f 94/10/4 269/19/4 82/9/4
f 129/12/4 82/9/4 269/19/4
f 270/29/4 187/25/4 28/28/4
f 186/24/4 28/28/4 187/25/4
f 31/37/4 28/28/4 186/24/4
f 273/14/3 151/17/3 150/18/3 89/9/3
f 47/24/3 46/25/3 42/26/3 45/23/3
f 58/8/3 60/5/3 73/6/3 72/7/3
f 95/8/4 167/5/4 158/6/4 94/7/4
f 54/5/2 62/6/2 63/7/2 55/8/2
f 275/17/1 276/13/1 211/11/1 214/19/1
f 119/13/1 11/14/1 121/9/1 118/10/1
f 260/16/1 178/5/1 177/6/1 259/15/1
f 62/5/2 165/6/2 166/7/2 63/8/2
f 282/11/5 279/19/5 280/17/5 281/13/5
f 245/16/2 247/5/2 254/6/2 253/15/2
f 272/19/4 130/12/4 271/14/4 157/17/4
f 213/14/1 212/9/1 283/18/1 286/17/1
