# Blender 5.0.1
# www.blender.org
mtllib BP_NetherPortal_Crimson01.mtl
o BloodthornBlossom.001
v -175.000000 -275.000000 231.250000
v -125.000000 -275.000000 231.250000
v -175.000000 -225.000000 231.250000
v -125.000000 -225.000000 231.250000
v -175.000000 -250.000000 231.250000
v -175.000000 -250.000000 200.000000
v -150.000000 -250.000000 231.250000
v -150.000000 -250.000000 200.000000
vn -0.0000 -0.0000 1.0000
vn -0.0000 -1.0000 -0.0000
vt 0.875000 0.421875
vt 0.875000 0.296875
vt 1.000000 0.296875
vt 1.000000 0.421875
vt 0.625000 0.265625
vt 0.687500 0.265625
vt 0.687500 0.343750
vt 0.625000 0.343750
s 1
usemtl MI_NetherFoilage_Emissive
f 4/1/1 3/2/1 1/3/1 2/4/1
f 6/5/2 8/6/2 7/7/2 5/8/2
