# Blender 5.0.1
# www.blender.org
mtllib BP_ObsidianPinnacle_EndgameClicky.mtl
o SK_ArchIllager.001
v 55.524269 -44.475727 0.000000
v 66.572815 -55.524269 0.000000
v 72.097084 -50.000000 0.000000
v 61.048542 -38.951454 0.000000
v 55.524269 -44.475727 23.437500
v 61.048542 -38.951454 23.437500
v 50.000000 -38.951458 23.437500
v 50.000000 -38.951458 -0.000000
v 55.524269 -44.475727 23.437500
v 55.524269 -44.475727 0.000000
v 50.000000 -38.951458 -0.000000
v 50.000000 -38.951458 23.437500
v 55.524269 -33.427185 -0.000000
v 55.524269 -33.427185 23.437500
v 61.048542 -38.951454 0.000000
v 55.524269 -33.427185 23.437500
v 61.048542 -38.951454 23.437500
v 55.524269 -33.427185 -0.000000
v 55.524269 -44.475727 0.000000
v 50.000000 -38.951458 -0.000000
v 61.048542 -38.951454 0.000000
v 55.524269 -33.427185 -0.000000
v 55.524273 -55.524269 46.875000
v 55.524273 -55.524269 23.437500
v 72.097084 -38.951454 46.875000
v 72.097084 -38.951454 23.437500
v 55.524273 -55.524269 23.437500
v 55.524273 -55.524269 46.875000
v 38.951454 -38.951458 23.437500
v 38.951454 -38.951458 46.875000
v 55.524269 -22.378641 23.437500
v 38.951454 -38.951458 23.437500
v 38.951454 -38.951458 46.875000
v 55.524269 -22.378641 46.875000
v 72.097084 -38.951454 23.437500
v 55.524269 -22.378641 46.875000
v 72.097084 -38.951454 46.875000
v 55.524269 -22.378641 23.437500
v 55.524273 -55.524269 23.437500
v 38.951454 -38.951458 23.437500
v 72.097084 -38.951454 23.437500
v 55.524269 -22.378641 23.437500
v 55.524273 -55.524269 46.875000
v 72.097084 -38.951454 46.875000
v 55.524269 -22.378641 46.875000
v 38.951454 -38.951458 46.875000
v 55.524273 -66.572815 0.000000
v 44.475731 -55.524273 0.000000
v 50.000000 -72.097084 0.000000
v 38.951458 -61.048546 0.000000
v 44.475731 -55.524273 23.437500
v 38.951458 -61.048546 23.437500
v 44.475731 -55.524273 23.437500
v 44.475731 -55.524273 0.000000
v 38.951458 -50.000000 -0.000000
v 38.951458 -50.000000 23.437500
v 33.427185 -55.524273 -0.000000
v 38.951458 -50.000000 23.437500
v 38.951458 -50.000000 -0.000000
v 33.427185 -55.524273 23.437500
v 38.951458 -61.048546 0.000000
v 38.951458 -61.048546 23.437500
v 33.427185 -55.524273 23.437500
v 33.427185 -55.524273 -0.000000
v 44.475731 -55.524273 0.000000
v 38.951458 -61.048546 0.000000
v 38.951458 -50.000000 -0.000000
v 33.427185 -55.524273 -0.000000
v 55.524273 -55.524269 46.875000
v 38.951458 -72.097092 46.875000
v 55.524273 -55.524269 23.437500
v 38.951458 -72.097092 23.437500
v 55.524273 -55.524269 23.437500
v 38.951454 -38.951458 23.437500
v 55.524273 -55.524269 46.875000
v 38.951454 -38.951458 46.875000
v 22.378643 -55.524277 23.437500
v 38.951454 -38.951458 46.875000
v 38.951454 -38.951458 23.437500
v 22.378643 -55.524277 46.875000
v 38.951458 -72.097092 23.437500
v 38.951458 -72.097092 46.875000
v 22.378643 -55.524277 46.875000
v 22.378643 -55.524277 23.437500
v 55.524273 -55.524269 23.437500
v 38.951458 -72.097092 23.437500
v 38.951454 -38.951458 23.437500
v 22.378643 -55.524277 23.437500
v 55.524273 -55.524269 46.875000
v 22.378643 -55.524277 46.875000
v 38.951458 -72.097092 46.875000
v 38.951454 -38.951458 46.875000
v 67.065468 -44.939529 79.506264
v 55.515320 -56.489681 69.318871
v 63.399174 -48.605827 65.260803
v 59.181614 -52.823387 83.564331
v 44.939533 -67.065468 79.506264
v 56.489685 -55.515320 69.318871
v 52.823387 -59.181614 83.564331
v 48.605827 -63.399174 65.260803
v 66.924400 -55.172684 70.777802
v 55.524273 -66.572815 70.777802
v 55.524273 -66.572815 54.687500
v 66.924400 -55.172684 54.687500
v 55.524273 -66.572815 70.777802
v 66.924400 -55.172684 70.777802
v 61.084343 -49.332623 70.777802
v 49.684212 -60.732754 70.777802
v 61.084343 -49.332623 54.687496
v 49.684212 -60.732754 54.687496
v 49.684212 -60.732754 70.777802
v 61.084343 -49.332623 70.777802
v 66.924400 -55.172684 54.687500
v 55.524273 -66.572815 54.687500
v 49.684212 -60.732754 54.687496
v 61.084343 -49.332623 54.687496
v 61.084343 -49.332623 54.687496
v 61.084343 -49.332623 70.777802
v 66.924400 -55.172684 54.687500
v 66.924400 -55.172684 70.777802
v 55.524273 -66.572815 54.687500
v 49.684212 -60.732754 70.777802
v 49.684212 -60.732754 54.687496
v 55.524273 -66.572815 70.777802
v 91.570663 -11.647713 93.953491
v 72.675514 -37.216183 93.953491
v 91.570663 -11.647713 70.109009
v 72.675514 -37.216183 70.109009
v 91.570663 -11.647713 70.109009
v 72.675514 -37.216183 70.109009
v 73.840988 1.454556 70.109009
v 54.945839 -24.113916 70.109009
v 73.840988 1.454556 70.109009
v 54.945839 -24.113916 70.109009
v 73.840988 1.454556 93.953491
v 54.945839 -24.113916 93.953491
v 91.570663 -11.647713 93.953491
v 54.945839 -24.113916 93.953491
v 72.675514 -37.216183 93.953491
v 73.840988 1.454556 93.953491
v 72.675514 -37.216183 70.109009
v 72.675514 -37.216183 93.953491
v 54.945839 -24.113916 93.953491
v 54.945839 -24.113916 70.109009
v 66.952179 -32.986626 85.937508
v 104.097443 17.277466 85.937508
v 66.952179 -32.986626 93.750008
v 104.097443 17.277466 93.750008
v 60.669174 -28.343470 85.937508
v 97.814438 21.920624 85.937508
v 66.952179 -32.986626 85.937508
v 104.097443 17.277466 85.937508
v 60.669174 -28.343470 93.750008
v 97.814438 21.920624 93.750008
v 60.669174 -28.343470 85.937508
v 97.814438 21.920624 85.937508
v 104.097443 17.277466 93.750008
v 60.669174 -28.343470 93.750008
v 66.952179 -32.986626 93.750008
v 97.814438 21.920624 93.750008
v 104.097443 17.277466 85.937508
v 97.814438 21.920624 85.937508
v 104.097443 17.277466 93.750008
v 97.814438 21.920624 93.750008
v 15.978565 -94.085800 93.953491
v 15.978565 -94.085800 70.109009
v 38.459366 -71.604996 93.953491
v 38.459366 -71.604996 70.109009
v 15.978565 -94.085800 70.109009
v 0.389935 -78.497177 70.109009
v 38.459366 -71.604996 70.109009
v 22.870735 -56.016369 70.109009
v 0.389935 -78.497177 70.109009
v 0.389935 -78.497177 93.953491
v 22.870735 -56.016369 70.109009
v 22.870735 -56.016369 93.953491
v 15.978565 -94.085800 93.953491
v 38.459366 -71.604996 93.953491
v 22.870735 -56.016369 93.953491
v 0.389935 -78.497177 93.953491
v 38.459366 -71.604996 70.109009
v 22.870735 -56.016369 93.953491
v 38.459366 -71.604996 93.953491
v 22.870735 -56.016369 70.109009
v -10.766979 -110.766998 85.937500
v 33.427185 -66.572815 93.750000
v -10.766979 -110.766998 93.750000
v 33.427185 -66.572815 85.937500
v -16.291252 -105.242722 85.937500
v 33.427185 -66.572815 85.937500
v -10.766979 -110.766998 85.937500
v 27.902916 -61.048546 85.937500
v -16.291252 -105.242722 93.750000
v 27.902916 -61.048546 85.937500
v -16.291252 -105.242722 85.937500
v 27.902916 -61.048546 93.750000
v -10.766979 -110.766998 93.750000
v 33.427185 -66.572815 93.750000
v 27.902916 -61.048546 93.750000
v -16.291252 -105.242722 93.750000
v -10.766979 -110.766998 85.937500
v -10.766979 -110.766998 93.750000
v -16.291252 -105.242722 85.937500
v -16.291252 -105.242722 93.750000
v 74.151093 -38.266788 4.262186
v 74.151093 -38.266788 97.300308
v 38.266792 -74.151093 97.300308
v 38.266792 -74.151093 4.262186
v 56.208935 -20.324636 4.262186
v 74.151093 -38.266788 97.300308
v 74.151093 -38.266788 4.262186
v 56.208935 -20.324636 97.300308
v 20.324638 -56.208939 4.262186
v 56.208935 -20.324636 97.300308
v 56.208935 -20.324636 4.262186
v 20.324638 -56.208939 97.300308
v 38.266792 -74.151093 4.262186
v 38.266792 -74.151093 97.300308
v 20.324638 -56.208939 97.300308
v 20.324638 -56.208939 4.262186
v 38.266792 -74.151093 97.300308
v 74.151093 -38.266788 97.300308
v 56.208935 -20.324636 97.300308
v 20.324638 -56.208939 97.300308
v 44.475731 -66.572815 234.375000
v 44.475731 -66.572815 148.437515
v 66.572815 -44.475727 234.375000
v 66.572815 -44.475727 148.437515
v 66.572815 -44.475727 234.375000
v 44.475723 -22.378643 234.375000
v 44.475731 -66.572815 234.375000
v 22.378641 -44.475731 234.375000
v 22.378641 -44.475731 148.437515
v 22.378641 -44.475731 234.375000
v 44.475723 -22.378643 148.437515
v 44.475723 -22.378643 234.375000
v 66.572815 -44.475727 148.437515
v 44.475731 -66.572815 148.437515
v 22.378641 -44.475731 148.437515
v 44.475723 -22.378643 148.437515
v 44.475723 -22.378643 148.437515
v 44.475723 -22.378643 234.375000
v 66.572815 -44.475727 148.437515
v 66.572815 -44.475727 234.375000
v 44.475731 -66.572815 234.375000
v 22.378641 -44.475731 148.437515
v 44.475731 -66.572815 148.437515
v 22.378641 -44.475731 234.375000
v 61.048546 -72.097084 117.187500
v 61.048546 -72.097084 85.937500
v 72.097092 -61.048542 117.187500
v 72.097092 -61.048542 85.937500
v 61.048546 -72.097084 117.187500
v 72.097092 -61.048542 117.187500
v 66.572815 -55.524269 117.187500
v 55.524273 -66.572815 117.187500
v 55.524273 -66.572815 85.937500
v 55.524273 -66.572815 117.187500
v 66.572815 -55.524269 85.937500
v 66.572815 -55.524269 117.187500
v 72.097092 -61.048542 85.937500
v 61.048546 -72.097084 85.937500
v 55.524273 -66.572815 85.937500
v 66.572815 -55.524269 85.937500
v 66.572815 -55.524269 85.937500
v 66.572815 -55.524269 117.187500
v 72.097092 -61.048542 85.937500
v 72.097092 -61.048542 117.187500
v 61.048546 -72.097084 117.187500
v 55.524273 -66.572815 85.937500
v 61.048546 -72.097084 85.937500
v 55.524273 -66.572815 117.187500
v 67.172760 -55.117538 117.187500
v 77.932617 -44.357677 109.375000
v 77.932617 -44.357677 117.187500
v 67.172722 -55.117577 109.375000
v 67.115974 -55.060822 117.187500
v 83.759247 -38.417542 109.375000
v 83.759247 -38.417542 117.187500
v 67.115974 -55.060822 109.375000
v 44.357674 -77.932632 109.375000
v 55.117554 -67.172752 117.187500
v 44.357674 -77.932632 117.187500
v 55.117565 -67.172737 109.375000
v 55.060814 -67.115982 117.187500
v 38.417549 -83.759247 117.187500
v 38.417549 -83.759247 109.375000
v 55.060814 -67.115982 109.375000
v 94.194168 -27.902908 148.437515
v 27.902918 -94.194176 148.437515
v 27.902918 -94.194176 93.750000
v 94.194168 -27.902908 93.750000
v 27.902918 -94.194176 148.437515
v 94.194168 -27.902908 148.437515
v 61.048538 5.242718 148.437515
v -5.242714 -61.048550 148.437515
v 61.048538 5.242718 93.750000
v -5.242714 -61.048550 93.750000
v -5.242714 -61.048550 148.437515
v 61.048538 5.242718 148.437515
v 94.194168 -27.902908 93.750000
v 27.902918 -94.194176 93.750000
v -5.242714 -61.048550 93.750000
v 61.048538 5.242718 93.750000
v 94.194168 -27.902908 148.437515
v 94.194168 -27.902908 93.750000
v 61.048538 5.242718 148.437515
v 61.048538 5.242718 93.750000
v 27.902918 -94.194176 148.437515
v -5.242714 -61.048550 93.750000
v 27.902918 -94.194176 93.750000
v -5.242714 -61.048550 148.437515
v 72.097084 -38.951454 93.750000
v 38.951458 -72.097092 93.750000
v 72.097084 -38.951454 46.875000
v 38.951458 -72.097092 46.875000
v 72.097084 -38.951454 93.750000
v 72.097084 -38.951454 46.875000
v 55.524269 -22.378641 46.875000
v 55.524269 -22.378641 93.750000
v 22.378643 -55.524277 46.875000
v 55.524269 -22.378641 93.750000
v 55.524269 -22.378641 46.875000
v 22.378643 -55.524277 93.750000
v 38.951458 -72.097092 46.875000
v 38.951458 -72.097092 93.750000
v 22.378643 -55.524277 93.750000
v 22.378643 -55.524277 46.875000
v 22.378643 -55.524277 46.875000
v 55.524269 -22.378641 46.875000
v 38.951458 -72.097092 46.875000
v 72.097084 -38.951454 46.875000
v 72.097084 -38.951454 93.750000
v 22.378643 -55.524277 93.750000
v 38.951458 -72.097092 93.750000
v 55.524269 -22.378641 93.750000
v 88.848465 -33.622906 125.510826
v 83.403229 -39.068142 117.187500
v 88.848465 -33.622906 117.187500
v 78.023163 -44.448215 125.510826
v 78.023163 -44.448215 117.187500
v 88.848465 -33.622906 141.054047
v 67.263313 -55.208061 117.187500
v 67.263306 -55.208076 125.510826
v 83.403229 -39.068142 141.054047
v 78.023163 -44.448215 141.054047
v 33.622910 -88.848473 125.510826
v 33.622910 -88.848473 117.187500
v 39.068150 -83.403229 117.187500
v 44.448215 -78.023163 125.510826
v 44.448215 -78.023163 117.187500
v 33.622910 -88.848473 141.054047
v 55.208076 -67.263306 117.187500
v 55.208092 -67.263290 125.510826
v 39.068150 -83.403229 141.054047
v 44.448215 -78.023163 141.054047
v 105.242714 -16.854366 187.500000
v 132.864075 10.766994 148.437515
v 132.864075 10.766994 187.500000
v 105.242714 -16.854366 148.437515
v 105.242714 -16.854366 187.500000
v 77.621353 10.766991 187.500000
v 105.242714 -16.854366 148.437515
v 77.621353 10.766991 148.437515
v 105.242706 38.388351 148.437515
v 77.621353 10.766991 148.437515
v 105.242706 38.388351 187.500000
v 77.621353 10.766991 187.500000
v 132.864075 10.766994 187.500000
v 132.864075 10.766994 148.437515
v 105.242706 38.388351 148.437515
v 105.242706 38.388351 187.500000
v 105.242714 -16.854366 187.500000
v 132.864075 10.766994 187.500000
v 77.621353 10.766991 187.500000
v 105.242706 38.388351 187.500000
v 105.242714 -16.854366 148.437515
v 105.242706 38.388351 148.437515
v 132.864075 10.766994 148.437515
v 77.621353 10.766991 148.437515
v 105.242706 5.242722 140.625015
v 105.242706 5.242722 -0.000000
v 110.766983 10.766994 140.625015
v 110.766983 10.766994 -0.000000
v 99.718437 10.766991 -0.000000
v 99.718437 10.766991 140.625015
v 105.242706 16.291267 -0.000000
v 105.242706 16.291267 140.625015
v 110.766983 10.766994 -0.000000
v 105.242706 5.242722 -0.000000
v 99.718437 10.766991 -0.000000
v 105.242706 16.291267 -0.000000
v 105.242706 16.291267 -0.000000
v 105.242706 16.291267 140.625015
v 110.766983 10.766994 -0.000000
v 110.766983 10.766994 140.625015
v 105.242706 5.242722 140.625015
v 99.718437 10.766991 -0.000000
v 105.242706 5.242722 -0.000000
v 99.718437 10.766991 140.625015
v 121.815521 10.766998 148.437515
v 105.242706 -5.805824 148.437515
v 105.242706 -5.805824 140.625015
v 121.815521 10.766998 140.625015
v 121.815521 10.766998 148.437515
v 105.242706 27.339813 148.437515
v 105.242706 -5.805824 148.437515
v 88.669891 10.766991 148.437515
v 105.242706 27.339813 140.625015
v 88.669891 10.766991 140.625015
v 88.669891 10.766991 148.437515
v 105.242706 27.339813 148.437515
v 121.815521 10.766998 140.625015
v 105.242706 -5.805824 140.625015
v 88.669891 10.766991 140.625015
v 105.242706 27.339813 140.625015
v 105.242706 27.339813 148.437515
v 121.815521 10.766998 148.437515
v 121.815521 10.766998 140.625015
v 105.242706 27.339813 140.625015
v 105.242706 -5.805824 148.437515
v 88.669891 10.766991 140.625015
v 105.242706 -5.805824 140.625015
v 88.669891 10.766991 148.437515
vn 0.5000 -0.5000 0.7071
vn -0.0000 -0.0000 1.0000
vn 0.7071 -0.7071 -0.0000
vn -0.7071 -0.7071 -0.0000
vn -0.7071 0.7071 -0.0000
vn 0.7071 0.7071 -0.0000
vn -0.0000 -0.0000 -1.0000
vn 0.8042 -0.5943 -0.0000
vn -0.8042 0.5943 -0.0000
vn -0.5943 -0.8042 -0.0000
vn 0.5943 0.8042 -0.0000
vt 0.046875 0.656494
vt 0.062500 0.656494
vt 0.062500 0.703125
vt 0.046875 0.703125
vt 0.561035 0.808594
vt 0.375732 0.808594
vt 0.375732 0.623291
vt 0.561035 0.623291
vt 0.156250 0.703125
vt 0.156250 0.750000
vt 0.203125 0.750000
vt 0.203125 0.703125
vt 0.062500 0.718750
vt 0.062500 0.671875
vt 0.078125 0.671875
vt 0.078125 0.718750
vt 0.000669 0.703125
vt 0.000669 0.656494
vt 0.015625 0.656494
vt 0.015625 0.703125
vt 0.031250 0.718994
vt 0.031250 0.703369
vt 0.062500 0.703369
vt 0.062500 0.718994
vt 0.875000 0.906311
vt 0.875000 0.859497
vt 0.937500 0.859497
vt 0.937500 0.906311
vt 0.093506 0.906250
vt 0.093506 0.921753
vt 0.078064 0.921753
vt 0.078125 0.906250
vt 0.203125 0.656494
vt 0.250000 0.656250
vt 0.250000 0.703125
vt 0.812500 0.765625
vt 0.812500 0.812622
vt 0.875000 0.812622
vt 0.874512 0.765625
vt 0.078125 0.781372
vt 0.062500 0.781372
vt 0.078125 0.718994
vt 0.124939 0.796875
vt 0.109375 0.796875
vt 0.109375 0.672119
vt 0.124939 0.672119
vt 0.812500 0.859497
vt 0.812500 0.906311
vt 0.046875 0.656250
vt 0.031250 0.656250
vt 0.031250 0.703125
vt 0.812500 0.953156
vt 0.874512 0.953156
vt 0.078125 0.584473
vt 0.078125 0.440430
vt 0.218750 0.440430
vt 0.218750 0.584473
vt 0.000031 0.440430
vt 0.000031 0.584473
vt 0.093750 0.672119
vt 0.093750 0.796875
vt 0.343750 0.703125
vt 0.296631 0.703125
vt 0.296631 0.750122
vt 0.343750 0.750000
vt 0.062500 0.781250
vt 0.062500 0.796997
vt 0.031250 0.796997
vt 0.031250 0.781250
vt 0.140625 0.672119
vt 0.156250 0.672119
vt 0.156250 0.796997
vt 0.140625 0.796997
vt 0.343750 0.687500
vt 0.390625 0.687744
vt 0.390625 0.750000
vt 0.140503 0.672119
vt 0.125000 0.672119
vt 0.125000 0.796997
vt 0.140503 0.796997
vt 0.921387 0.999522
vt 0.875000 0.999522
vt 0.875000 0.953156
vt 0.921387 0.953156
vt 0.328369 0.687744
vt 0.312744 0.687744
vt 0.312500 0.656494
vt 0.328369 0.656738
vt 0.031250 0.656494
vt 0.281250 0.703125
vt 0.281494 0.687744
vt 0.312744 0.703369
vt 0.265869 0.687744
vt 0.265625 0.656494
vt 0.281494 0.656494
vt 0.750000 0.765381
vt 0.687500 0.765381
vt 0.687500 0.547119
vt 0.750000 0.547119
vt 0.000031 0.781250
vt 0.000031 0.718994
vt 0.093750 0.999969
vt 0.093750 0.906250
vt 0.281006 0.906250
vt 0.281006 0.999969
vt 0.250000 0.750000
vt 0.296875 0.750000
vt 0.296875 0.703125
vt 0.062500 0.937500
vt 0.031250 0.937500
vt 0.031235 0.921875
vt 0.062500 0.921875
vt 0.312988 0.640869
vt 0.312988 0.656494
vt 0.281494 0.640869
vt 0.875000 0.765625
vt 0.937012 0.765625
vt 0.937500 0.812622
vt 0.015625 0.718750
vt 0.031235 0.703125
vt 0.031235 0.718750
vt 0.359863 0.656494
vt 0.359863 0.687744
vt 0.328369 0.656494
vt 0.281250 0.999969
vt 0.281250 0.906250
vt 0.468750 0.906250
vt 0.468750 0.999969
vt 0.559570 0.810181
vt 0.559570 0.624756
vt 0.745117 0.624756
vt 0.745117 0.810181
vt 0.093750 0.437500
vt 0.125000 0.437500
vt 0.125000 0.999969
vt 0.156250 0.781250
vt 0.171753 0.781250
vt 0.171753 0.796997
vt 0.250000 0.843872
vt 0.250000 0.875061
vt 0.156616 0.875061
vt 0.156616 0.843750
vt 0.203491 0.796509
vt 0.249878 0.796509
vt 0.687500 0.937531
vt 0.687500 0.765747
vt 0.749512 0.765747
vt 0.749512 0.937531
vt 0.859375 0.765991
vt 0.750000 0.765991
vt 0.750000 0.547607
vt 0.859375 0.547607
vt 0.093750 0.718994
vt 0.093750 0.781372
vt 0.859375 0.640625
vt 0.906250 0.640625
vt 0.906250 0.765625
vt 0.859375 0.765625
vt 0.500000 0.546875
vt 0.562500 0.546875
vt 0.562500 0.765381
vt 0.500000 0.765381
vt 0.375000 0.906250
vt 0.375000 0.796875
vt 0.562500 0.796875
vt 0.562500 0.906250
vt 0.625000 0.937500
vt 0.625000 0.765747
vt 0.687012 0.765747
vt 0.687012 0.937500
vt 0.281250 0.796875
vt 0.093689 0.906250
vt 0.077637 0.906311
vt 0.046875 0.906250
vt 0.046844 0.921753
vt 0.077637 0.921753
vt 0.937012 0.953156
vt 0.190308 0.623291
vt 0.190308 0.437988
vt 0.375732 0.437988
vt 0.624512 0.765625
vt 0.624512 0.937500
vt 0.562500 0.937500
vt 0.562500 0.765625
vt 0.562500 0.547119
vt 0.858887 0.999522
vt 0.858887 0.953156
vt 0.812500 0.999522
vt 0.296875 0.584473
vt 0.296875 0.440430
vt 0.374756 0.906250
vt 0.250977 0.998973
vt 0.250977 0.813599
vt 0.436279 0.813599
vt 0.436279 0.998973
vt 0.000031 0.906250
vt 0.000031 0.796875
vt 0.004871 0.623291
vt 0.190308 0.808594
vt 0.004871 0.808594
vt 0.093689 0.921936
vt 0.093689 0.938354
vt 0.077454 0.921875
vt 0.093750 0.968750
vt 0.077454 0.968750
vt 0.062500 0.968750
vt 0.218628 0.368652
vt 0.218628 0.440430
vt 0.078125 0.368652
vt 0.283447 0.875061
vt 0.283447 0.968750
vt 0.250000 0.968750
vt 0.624512 0.999961
vt 0.562500 0.999961
vt 0.437500 0.440430
vt 0.437500 0.584473
vt 0.062500 0.999969
vt 0.062500 0.437500
vt 0.218750 0.656250
vt 0.078125 0.656250
vt 0.812012 0.937500
vt 0.750000 0.937500
vt 0.750000 0.765747
vt 0.812012 0.765747
vt 0.031250 0.406250
vt 0.031250 0.437500
vt 0.000031 0.437500
vt 0.000031 0.406250
vt 0.031250 0.999969
vt 0.249878 1.000473
vt 0.156616 1.000473
vt 0.156616 0.968750
vt 0.687012 0.999967
vt 0.625000 0.999967
vt 0.283447 0.875000
vt 0.374756 0.875000
vt 0.375000 0.968750
vt 0.000031 0.999969
vt 0.125000 0.968750
vt 0.124939 0.875061
s 1
usemtl MI_ArchIllager
f 64/1/4 61/2/4 62/3/4 63/4/4
f 38/9/6 36/10/6 37/11/6 35/12/6
f 3/13/2 4/14/1 1/15/1 2/16/2
f 50/14/1 49/13/2 47/16/2 48/15/1
f 52/17/3 50/18/1 48/19/1 51/20/3
f 84/9/4 81/12/4 82/11/4 83/10/4
f 264/21/7 261/22/7 262/23/7 263/24/7
f 176/25/5 175/26/5 173/27/5 174/28/5
f 288/29/3 285/30/3 286/31/3 287/32/3
f 86/33/7 88/34/7 87/35/7 85/12/7
f 126/36/8 128/37/8 127/38/8 125/39/8
f 266/40/6 268/41/6 267/24/6 265/42/6
f 192/43/7 190/44/7 191/45/7 189/46/7
f 134/47/9 136/48/9 135/25/9 133/26/9
f 14/4/5 13/49/5 11/50/5 12/51/5
f 140/25/2 138/48/2 139/52/2 137/53/2
f 314/54/3 316/55/3 315/56/3 313/57/3
f 328/58/4 325/55/4 326/54/4 327/59/4
f 146/45/8 148/60/8 147/61/8 145/44/8
f 34/62/5 31/63/5 32/64/5 33/65/5
f 256/66/2 253/67/2 254/68/2 255/69/2
f 4/18/1 6/17/3 5/20/3 1/19/1
f 200/70/2 197/71/2 198/72/2 199/73/2
f 100/74/3 98/75/3 99/76/3 97/65/3
f 154/77/9 156/78/9 155/79/9 153/80/9
f 184/81/6 182/82/6 183/83/6 181/84/6
f 118/85/6 120/86/6 119/87/6 117/88/6
f 8/89/4 10/19/4 9/20/4 7/51/4
f 108/90/2 105/91/2 106/86/2 107/92/2
f 124/91/4 122/93/4 123/94/4 121/95/4
f 160/70/2 158/73/2 159/72/2 157/71/2
f 212/96/6 210/97/6 211/98/6 209/99/6
f 56/51/6 53/20/6 54/19/6 55/89/6
f 60/4/5 58/51/5 59/50/5 57/49/5
f 260/21/5 259/69/5 257/100/5 258/101/5
f 296/102/2 293/103/2 294/104/2 295/105/2
f 28/106/4 30/107/4 29/108/4 27/35/4
f 340/109/3 344/110/3 343/111/3 341/112/3
f 116/113/7 113/114/7 114/95/7 115/115/7
f 150/46/7 152/45/7 151/44/7 149/43/7
f 168/38/3 167/116/3 165/117/3 166/118/3
f 70/11/3 72/12/3 71/35/3 69/106/3
f 66/119/7 68/20/7 67/120/7 65/121/7
f 112/122/5 109/123/5 110/85/5 111/124/5
f 130/37/7 132/47/7 131/26/7 129/38/7
f 304/125/7 301/126/7 302/127/7 303/128/7
f 22/20/7 21/119/7 19/121/7 20/120/7
f 202/72/4 204/136/4 203/137/4 201/138/4
f 42/34/7 41/33/7 39/12/7 40/35/7
f 18/1/6 16/4/6 17/3/6 15/2/6
f 92/143/2 90/11/2 91/106/2 89/144/2
f 236/145/5 235/146/5 233/147/5 234/148/5
f 216/149/5 214/150/5 215/151/5 213/152/5
f 272/40/4 270/42/4 271/153/4 269/154/4
f 224/155/2 221/156/2 222/157/2 223/158/2
f 96/76/3 94/75/3 95/74/3 93/65/3
f 220/159/4 217/160/4 218/161/4 219/162/4
f 188/44/3 186/61/3 187/60/3 185/45/3
f 80/62/5 78/65/5 79/64/5 77/63/5
f 26/12/3 25/11/3 23/106/3 24/35/3
f 300/163/5 297/164/5 298/165/5 299/166/5
f 252/24/3 251/66/3 249/69/3 250/21/3
f 248/167/4 246/168/4 247/169/4 245/170/4
f 196/80/5 194/79/5 195/78/5 193/77/5
f 46/143/2 43/144/2 44/106/2 45/11/2
f 292/171/3 289/126/3 290/172/3 291/61/3
f 276/173/3 274/174/3 275/175/3 273/176/3
f 180/28/2 177/177/2 178/83/2 179/25/2
f 280/29/3 278/32/3 279/31/3 277/30/3
f 228/181/3 227/182/3 225/183/3 226/184/3
f 207/161/3 208/185/3 205/98/3 206/97/3
f 144/186/10 141/187/10 142/52/10 143/188/10
f 320/189/6 317/57/6 318/56/6 319/190/6
f 306/171/6 308/164/6 307/191/6 305/126/6
f 312/196/4 310/197/4 311/61/4 309/103/4
f 76/107/6 75/106/6 73/35/6 74/108/6
f 172/26/7 171/38/7 169/118/7 170/27/7
f 339/201/3 337/202/3 338/203/3
f 340/109/3 338/203/3 337/202/3
f 338/203/3 340/109/3 341/112/3
f 340/109/3 337/202/3 342/204/3
f 353/111/3 354/110/3 350/109/3 351/112/3
f 345/205/3 340/109/3 342/204/3
f 345/205/3 346/206/3 340/109/3
f 349/203/3 347/202/3 348/201/3
f 347/202/3 349/203/3 350/109/3
f 351/112/3 350/109/3 349/203/3
f 352/204/3 347/202/3 350/109/3
f 284/173/3 282/176/3 283/175/3 281/174/3
f 355/205/3 352/204/3 350/109/3
f 355/205/3 350/109/3 356/206/3
f 330/207/7 332/208/7 331/55/7 329/209/7
f 164/136/11 163/72/11 161/138/11 162/137/11
f 232/213/2 231/214/2 229/183/2 230/182/2
f 324/189/5 322/190/5 323/215/5 321/216/5
f 336/54/2 334/57/2 335/219/2 333/220/2
f 242/221/6 244/222/6 243/223/6 241/224/6
f 104/87/3 101/86/3 102/91/3 103/95/3
f 240/170/7 237/233/7 238/234/7 239/167/7
usemtl MI_OrbOfDominanceIdle
f 364/5/4 363/6/4 361/7/4 362/8/4
f 366/129/5 368/130/5 367/131/5 365/132/5
f 380/7/7 378/178/7 379/179/7 377/180/7
f 374/192/2 376/193/2 375/194/2 373/195/2
f 372/198/6 369/178/6 370/199/6 371/200/6
f 360/6/3 358/199/3 359/178/3 357/7/3
usemtl MI_SuperStaff
f 400/102/4 398/133/4 399/134/4 397/135/4
f 404/139/3 401/140/3 402/141/3 403/142/3
f 419/210/6 420/211/6 417/212/6 418/140/6
f 394/102/6 396/217/6 395/218/6 393/133/6
f 392/225/7 389/226/7 390/227/7 391/228/7
f 388/229/5 387/226/5 385/218/5 386/217/5
f 412/212/5 409/230/5 410/231/5 411/232/5
f 408/232/2 407/141/2 405/140/2 406/212/2
f 416/211/7 413/235/7 414/236/7 415/237/7
f 384/226/3 383/229/3 381/238/3 382/227/3
f 424/232/4 422/239/4 423/240/4 421/141/4
