# Blender 5.0.1
# www.blender.org
mtllib BP_OrbCorruption.mtl
o CorrutpedVines.001
v 99.999985 -300.000000 50.000000
v 0.000004 -200.000000 50.000000
v 0.000000 -300.000000 50.000000
v 99.999985 -200.000000 50.000000
v -200.000000 99.999985 0.379059
v -200.000000 0.000000 56.629059
v -200.000000 0.000000 0.379059
v -200.000000 99.999985 56.629059
v -200.000000 0.000000 56.629066
v -200.000000 99.999985 56.629066
v -300.000000 0.000000 56.629066
v -300.000000 99.999985 56.629066
v -300.000000 -200.000000 0.379074
v -300.000000 -100.000000 0.379074
v -300.000000 -200.000000 -99.620926
v -300.000000 -100.000000 -99.620926
v -300.000000 -200.000000 0.379074
v -200.000000 -200.000000 -99.620926
v -200.000000 -200.000000 0.379074
v -300.000000 -200.000000 -99.620926
v -300.000000 -100.000000 0.379074
v -400.000000 -100.000000 0.379074
v -400.000000 -100.000000 -99.620926
v -300.000000 -100.000000 -99.620926
v 99.999992 -200.000000 0.379074
v 0.000004 -200.000000 0.379071
v 0.000004 -200.000000 50.000000
v 99.999992 -200.000000 50.000000
v 99.999977 -300.000000 0.379074
v 99.999977 -200.000015 50.000000
v 99.999977 -300.000000 50.000000
v 99.999977 -200.000015 0.379074
v -200.000000 0.000000 0.379074
v -100.000000 0.000000 12.500000
v -100.000000 0.000000 0.379074
v -200.000000 0.000000 12.500000
v -100.000000 -100.000000 0.379074
v -100.000000 0.000000 12.500000
v -100.000000 -100.000000 12.500000
v -100.000000 0.000000 0.379074
v -100.000000 -100.000000 12.500000
v -200.000000 0.000000 12.500000
v -200.000000 -100.000000 12.500000
v -100.000000 0.000000 12.500000
v -200.000000 -300.000000 -99.620926
v -200.000000 -200.000000 0.379074
v -200.000000 -200.000000 -99.620926
v -200.000000 -300.000000 0.379074
v -200.000000 -400.000000 -99.620926
v -200.000000 -400.000000 0.379074
v -300.000000 -300.000000 -99.620926
v -200.000000 -200.000000 -99.620926
v -300.000000 -200.000000 -99.620926
v -200.000000 -300.000000 -99.620926
v -300.000000 -400.000000 -99.620926
v -200.000000 -400.000000 -99.620926
v -400.000000 99.999985 0.379067
v -300.000000 200.000000 0.379067
v -400.000000 200.000000 0.379067
v -300.000000 99.999985 0.379067
v -200.000000 200.000000 0.379067
v -400.000000 0.000000 0.379067
v -200.000000 99.999985 0.379067
v -300.000000 0.000000 0.379067
v -400.000000 -100.000000 0.379067
v -300.000000 -100.000000 0.379067
v -100.000000 200.000000 0.379067
v -200.000000 0.000000 0.379067
v -100.000000 99.999985 0.379067
v -200.000000 -100.000000 0.379067
v -300.000000 -200.000000 0.379067
v -100.000000 0.000000 0.379067
v -200.000000 -200.000000 0.379067
v -100.000000 -100.000000 0.379067
v 0.000000 300.000000 0.379067
v -100.000000 300.000000 0.379067
v 0.000000 200.000000 0.379067
v 99.999985 300.000000 0.379067
v 0.000000 99.999985 0.379067
v 99.999985 200.000000 0.379067
v 200.000000 400.000000 0.379067
v 99.999985 400.000000 0.379067
v 0.000000 0.000000 0.379067
v 200.000000 300.000000 0.379067
v 300.000000 400.000000 0.379067
v 99.999985 99.999985 0.379067
v 200.000000 200.000000 0.379067
v 300.000000 300.000000 0.379067
v 400.000000 400.000000 0.379067
v 400.000000 300.000000 0.379067
v 300.000000 200.000000 0.379067
v 400.000000 200.000000 0.379067
v 200.000000 99.999985 0.379067
v 300.000000 99.999985 0.379067
v 400.000000 99.999985 0.379067
v 99.999985 0.000000 0.379067
v 200.000000 0.000000 0.379067
v 300.000000 0.000000 0.379067
v 400.000000 0.000000 0.379067
v 0.000000 -100.000000 0.379067
v 300.000000 -100.000000 0.379067
v 400.000000 -100.000000 0.379067
v 400.000000 -200.000000 0.379067
v 300.000000 -200.000000 0.379067
v 200.000000 -100.000000 0.379067
v 200.000000 -200.000000 0.379067
v 300.000000 -300.000000 0.379067
v 200.000000 -300.000000 0.379067
v 99.999985 -100.000000 0.379067
v 99.999985 -200.000000 0.379067
v 99.999985 -300.000000 0.379067
v 0.000004 -200.000000 0.379071
v 99.999985 -400.000000 0.379067
v 200.000000 -400.000000 0.379067
v 0.000000 -400.000000 0.379067
v 0.000000 -300.000000 0.379067
v -100.000000 -400.000000 0.379067
v -100.000000 -200.000000 0.379067
v -200.000000 -300.000000 0.379067
v -100.000000 -300.000000 0.379067
v -200.000000 -400.000000 0.379067
vn -0.0000 -0.0000 1.0000
vn 1.0000 -0.0000 -0.0000
vn -1.0000 -0.0000 -0.0000
vn -0.0000 -1.0000 -0.0000
vn -0.0000 1.0000 -0.0000
vt 0.625000 0.750000
vt 0.625000 0.875000
vt 0.500000 0.875000
vt 0.500000 0.750000
vt 0.750000 0.500000
vt 0.875000 0.500000
vt 0.875000 0.625000
vt 0.750000 0.625000
vt 0.500000 0.500000
vt 0.625000 0.500000
vt 0.625000 0.625000
vt 0.500000 0.625000
vt 0.249878 0.500000
vt 0.375000 0.500000
vt 0.375000 0.625000
vt 0.249878 0.625244
vt 0.625000 0.375000
vt 0.750000 0.375000
vt 0.750000 0.875000
vt 0.750000 0.999969
vt 0.625000 0.999969
vt 0.359619 0.500000
vt 0.359619 0.375000
vt 0.375000 0.375000
vt 0.875000 0.750000
vt 1.000000 0.750000
vt 1.000000 0.875000
vt 0.875000 0.875000
vt 0.124939 0.500000
vt 0.124939 0.625244
vt 0.000031 0.625000
vt 0.000031 0.500000
vt 0.625000 0.250000
vt 0.500000 0.250000
vt 0.500000 0.125000
vt 0.625000 0.125000
vt 0.000031 0.125000
vt 0.124939 0.125000
vt 0.124939 0.250000
vt 0.000031 0.250000
vt 0.625000 0.000000
vt 0.750000 0.000000
vt 0.750000 0.125000
vt 0.375000 0.750000
vt 0.179565 0.625244
vt 0.179565 0.500244
vt 0.249878 0.625000
vt 0.124939 0.750000
vt 0.000031 0.750000
vt 0.124939 0.375000
vt 0.249878 0.250000
vt 0.249878 0.375000
vt 0.375000 0.250000
vt 0.500000 0.375000
vt 0.124939 0.625000
vt 0.249878 0.750000
vt 0.500000 0.187988
vt 0.625000 0.187988
vt 0.750000 0.750000
vt 0.624512 0.187988
vt 0.499756 0.187988
vt 0.000031 0.375000
vt 1.000000 0.500000
vt 1.000000 0.625000
vt 0.500000 0.000000
vt 0.750000 0.250000
vt 0.375000 0.125000
vt 0.000031 0.000000
vt 0.124939 0.000000
vt 0.875000 0.999969
vt 0.249878 0.125000
vt 1.000000 0.999969
vt 0.375000 0.875000
vt 0.875000 0.375000
vt 0.875000 0.125000
vt 0.875000 0.250000
vt 1.000000 0.375000
vt 0.249878 0.000000
vt 0.375000 0.000000
vt 1.000000 0.250000
s 1
usemtl MI_OrbOfCorruption
f 80/1/1 78/2/1 75/3/1 77/4/1
f 97/5/1 98/6/1 94/7/1 93/8/1
f 83/9/1 96/10/1 86/11/1 79/12/1
f 68/13/1 72/14/1 69/15/1 63/16/1
f 96/10/1 109/17/1 105/18/1 97/5/1
f 78/2/1 84/19/1 81/20/1 82/21/1
f 40/14/2 38/22/2 39/23/2 37/24/2
f 91/25/1 92/26/1 90/27/1 88/28/1
f 64/29/1 60/30/1 57/31/1 62/32/1
f 4/33/1 2/34/1 3/35/1 1/36/1
f 51/37/1 54/38/1 52/39/1 53/40/1
f 113/41/1 114/42/1 108/43/1 111/36/1
f 69/15/1 79/12/1 77/4/1 67/44/1
f 8/45/2 6/46/2 7/13/2 5/47/2
f 57/31/1 60/30/1 58/48/1 59/49/1
f 16/50/3 15/39/3 13/51/3 14/52/3
f 74/24/1 118/53/1 112/34/1 100/54/1
f 12/55/1 11/29/1 9/13/1 10/47/1
f 63/16/1 69/15/1 67/44/1 61/56/1
f 32/34/2 30/57/2 31/58/2 29/33/2
f 86/11/1 93/8/1 87/59/1 80/1/1
f 28/60/5 25/33/5 26/34/5 27/61/5
f 73/51/1 118/53/1 74/24/1 70/52/1
f 24/39/4 21/50/4 22/62/4 23/40/4
f 98/6/1 99/63/1 95/64/1 94/7/1
f 20/50/4 18/39/4 19/51/4 17/52/4
f 72/14/1 83/9/1 79/12/1 69/15/1
f 116/35/1 115/65/1 113/41/1 111/36/1
f 109/17/1 110/33/1 106/66/1 105/18/1
f 44/14/1 42/13/1 43/52/1 41/24/1
f 60/30/1 63/16/1 61/56/1 58/48/1
f 120/67/1 116/35/1 112/34/1 118/53/1
f 74/24/1 100/54/1 83/9/1 72/14/1
f 55/68/1 56/69/1 54/38/1 51/37/1
f 84/19/1 88/28/1 85/70/1 81/20/1
f 80/1/1 87/59/1 84/19/1 78/2/1
f 119/71/1 120/67/1 118/53/1 73/51/1
f 36/22/5 34/23/5 35/24/5 33/14/5
f 66/50/1 70/52/1 68/13/1 64/29/1
f 87/59/1 91/25/1 88/28/1 84/19/1
f 93/8/1 94/7/1 91/25/1 87/59/1
f 65/62/1 66/50/1 64/29/1 62/32/1
f 97/5/1 93/8/1 86/11/1 96/10/1
f 94/7/1 95/64/1 92/26/1 91/25/1
f 88/28/1 90/27/1 89/72/1 85/70/1
f 67/44/1 77/4/1 75/3/1 76/73/1
f 109/17/1 96/10/1 83/9/1 100/54/1
f 97/5/1 105/18/1 101/74/1 98/6/1
f 71/39/1 73/51/1 70/52/1 66/50/1
f 106/66/1 108/43/1 107/75/1 104/76/1
f 105/18/1 106/66/1 104/76/1 101/74/1
f 101/74/1 102/77/1 99/63/1 98/6/1
f 49/69/3 50/78/3 48/71/3 45/38/3
f 79/12/1 86/11/1 80/1/1 77/4/1
f 111/36/1 108/43/1 106/66/1 110/33/1
f 120/67/1 117/79/1 115/65/1 116/35/1
f 100/54/1 112/34/1 110/33/1 109/17/1
f 101/74/1 104/76/1 103/80/1 102/77/1
f 45/38/3 48/71/3 46/51/3 47/39/3
f 119/71/1 121/78/1 117/79/1 120/67/1
