# Blender 5.0.1
# www.blender.org
mtllib BP_ObsidianMonstrosity_Head.mtl
o SM_ObsidianMonstrosity_Head.001
v 252.500000 -175.000031 398.820435
v 2.500015 -175.000031 398.855591
v 2.500015 -175.000015 111.250000
v 252.500000 -175.000015 111.250000
v 2.500015 -175.000015 61.250000
v 252.500000 -175.000015 61.250000
v 252.500000 62.500019 30.000000
v 252.500000 137.500015 30.000000
v 252.500000 137.500015 61.250000
v 252.500000 62.500019 61.250000
v 252.500000 137.500015 111.250000
v 252.500000 174.999954 61.250000
v 252.500000 174.999954 111.250000
v 252.500000 62.500015 111.250000
v 252.500000 137.500000 398.820435
v 252.500000 174.999954 398.820435
v 252.500000 62.500011 398.820557
v 252.500000 -62.500000 398.820435
v 252.500000 -62.499989 111.250000
v 252.500000 -137.500000 398.820435
v 252.500000 -175.000031 398.820435
v 252.500000 -175.000015 111.250000
v 252.500000 -137.499985 111.250000
v 252.500000 -175.000015 61.250000
v 252.500000 -62.499985 61.250000
v 252.500000 -137.499985 61.250000
v 252.500000 -137.499985 30.000000
v 252.500000 -62.499985 30.000000
v 252.500000 174.999954 398.820435
v 2.500015 174.999969 111.250000
v 2.500015 174.999954 398.855591
v 252.500000 174.999954 111.250000
v 252.500000 174.999954 61.250000
v 2.500015 174.999969 61.250000
v 2.500015 -175.000031 398.855591
v 252.500000 -175.000031 398.820435
v 2.500015 -137.500000 398.855713
v 252.500000 -137.500000 398.820435
v 252.500000 -62.500000 398.820435
v 2.500015 -62.500000 398.855591
v 2.500015 62.499996 398.855591
v 252.500000 62.500011 398.820557
v 2.500015 137.500000 398.855591
v 252.500000 137.500000 398.820435
v 252.500000 174.999954 398.820435
v 2.500015 174.999954 398.855591
v 2.500015 174.999969 111.250000
v 2.500015 137.500000 398.855591
v 2.500015 174.999954 398.855591
v 2.500015 137.500015 111.250000
v 2.500015 174.999969 61.250000
v 2.500015 137.500015 61.250000
v 2.500015 62.500027 61.250000
v 2.500015 62.500023 111.250000
v 2.500015 62.499996 398.855591
v 2.500015 -62.499977 61.250000
v 2.500015 -62.499989 111.250000
v 2.500015 -62.500000 398.855591
v 2.500015 -137.499985 61.250000
v 2.500015 -137.499985 111.250000
v 2.500015 -137.500000 398.855713
v 2.500015 -175.000015 61.250000
v 2.500015 -175.000031 398.855591
v 2.500015 -175.000015 111.250000
v 177.945801 -175.000000 236.249878
v 2.945786 -175.000000 236.249878
v 2.945786 -175.000000 398.749878
v 177.945801 -175.000000 398.749878
v 177.945801 -300.000000 398.749878
v 177.945801 -175.000000 398.749878
v 2.945786 -300.000000 398.749878
v 2.945786 -175.000000 398.749878
v 177.945801 -300.000000 398.749878
v 2.945786 -300.000000 398.749878
v 2.945786 -299.999969 561.249878
v 177.945801 -299.999969 561.249878
v 177.945801 -424.999969 561.249878
v 177.945801 -299.999969 561.249878
v 2.945786 -424.999969 561.249878
v 2.945786 -299.999969 561.249878
v 2.945724 300.000031 561.249878
v 177.945740 300.000000 398.749878
v 177.945740 300.000031 561.249878
v 2.945724 300.000000 398.749878
v 2.945724 300.000031 561.249878
v 177.945740 425.000000 561.249878
v 2.945717 425.000000 561.249878
v 177.945740 300.000031 561.249878
v 2.945724 175.000000 398.749878
v 177.945740 175.000000 236.249878
v 177.945740 175.000000 398.749878
v 2.945724 175.000000 236.249878
v 2.945724 175.000000 398.749878
v 177.945740 175.000000 398.749878
v 2.945724 300.000000 398.749878
v 177.945740 300.000000 398.749878
v 177.945740 425.000000 236.249878
v 2.945724 425.000000 236.249878
v 177.945740 425.000000 398.749878
v 2.945717 425.000000 398.749878
v 177.945740 425.000000 561.249878
v 2.945717 425.000000 561.249878
v 177.945801 -425.000031 236.249878
v 2.945786 -425.000031 236.249878
v 2.945786 -300.000000 236.249878
v 177.945801 -300.000000 236.249878
v 2.945786 -175.000000 236.249878
v 177.945801 -175.000000 236.249878
v 177.945740 175.000000 398.749878
v 177.945740 175.000000 236.249878
v 177.945740 300.000000 236.249878
v 177.945740 300.000000 398.749878
v 177.945740 425.000000 236.249878
v 177.945740 425.000000 398.749878
v 177.945740 300.000031 561.249878
v 177.945740 425.000000 561.249878
v 177.945801 -424.999969 398.749878
v 2.945786 -425.000031 236.249878
v 177.945801 -425.000031 236.249878
v 2.945786 -424.999969 398.749878
v 177.945801 -424.999969 561.249878
v 2.945786 -424.999969 561.249878
v 177.945740 175.000000 236.249878
v 2.945724 175.000000 236.249878
v 2.945724 300.000000 236.249878
v 177.945740 300.000000 236.249878
v 177.945740 425.000000 236.249878
v 2.945724 425.000000 236.249878
v 177.945801 -175.000000 398.749878
v 177.945801 -300.000000 236.249878
v 177.945801 -175.000000 236.249878
v 177.945801 -300.000000 398.749878
v 177.945801 -424.999969 398.749878
v 177.945801 -425.000031 236.249878
v 177.945801 -424.999969 561.249878
v 177.945801 -299.999969 561.249878
v 2.945717 425.000000 398.749878
v 2.945724 300.000031 561.249878
v 2.945717 425.000000 561.249878
v 2.945724 300.000000 398.749878
v 2.945724 300.000000 236.249878
v 2.945724 425.000000 236.249878
v 2.945724 175.000000 236.249878
v 2.945724 175.000000 398.749878
v 2.945786 -425.000031 236.249878
v 2.945786 -424.999969 398.749878
v 2.945786 -300.000000 236.249878
v 2.945786 -300.000000 398.749878
v 2.945786 -424.999969 561.249878
v 2.945786 -299.999969 561.249878
v 2.945786 -175.000000 236.249878
v 2.945786 -175.000000 398.749878
v 252.500000 -175.000000 123.750000
v 252.500000 175.000015 123.750000
v 2.500000 -175.000000 123.750000
v 2.500000 175.000015 123.750000
v 2.500000 -175.000031 61.250000
v 2.500000 -175.000031 30.000000
v 252.500000 -175.000031 30.000000
v 2.500000 -175.000031 -1.214844
v 252.500000 -175.000031 -1.250000
v 252.500000 62.500011 -1.250000
v 252.500000 -62.499989 -1.250000
v 252.500000 137.500015 -1.250000
v 252.500000 -137.499985 -1.250000
v 252.500000 174.999954 30.000000
v 252.500000 174.999969 -1.250000
v 252.500000 -175.000031 30.000000
v 252.500000 -175.000031 -1.250000
v 252.500000 -175.000031 -1.250000
v 2.500000 -175.000031 -1.214844
v 2.500000 -137.499985 -1.214844
v 252.500000 -137.499985 -1.250000
v 2.500000 -62.499989 -1.214844
v 252.500000 -62.499989 -1.250000
v 252.500000 62.500011 -1.250000
v 2.500000 62.500027 -1.214844
v 252.500000 137.500015 -1.250000
v 2.500000 137.500015 -1.214844
v 252.500000 174.999969 -1.250000
v 2.500000 174.999969 -1.214844
v 252.500000 174.999969 -1.250000
v 2.500000 174.999969 -1.214844
v 252.500000 174.999954 30.000000
v 2.500000 174.999969 30.000000
v 2.500000 137.500015 -1.214844
v 2.500000 174.999969 30.000000
v 2.500000 174.999969 -1.214844
v 2.500000 137.500015 30.000000
v 2.500000 62.500027 -1.214844
v 2.500000 62.500027 30.000000
v 2.500000 -62.499981 30.000000
v 2.500000 -62.499989 -1.214844
v 2.500000 -137.499985 30.000000
v 2.500000 -137.499985 -1.214844
v 2.500000 -175.000031 -1.214844
v 2.500000 -175.000031 30.000000
v 252.500000 -175.000000 11.250000
v 252.500000 175.000015 11.250000
v 2.500000 -175.000000 11.250000
v 2.500000 175.000015 11.250000
vn -0.0000 -1.0000 -0.0000
vn 1.0000 -0.0000 -0.0000
vn -0.0000 1.0000 -0.0000
vn 0.0001 -0.0000 1.0000
vn -1.0000 -0.0000 -0.0000
vn -0.0000 -0.0000 1.0000
vn -0.0000 -0.0000 -1.0000
vn -0.0001 -0.0000 -1.0000
vt 0.187500 0.898499
vt 0.187500 0.903320
vt 0.148438 0.903320
vt 0.148438 0.898499
vt 0.046875 0.613281
vt 0.066345 0.613281
vt 0.066345 0.640625
vt 0.046875 0.640625
vt 0.066345 0.878906
vt 0.039062 0.878906
vt 0.039062 0.853638
vt 0.066345 0.853638
vt 0.093750 0.666260
vt 0.066345 0.666260
vt 0.093750 0.640625
vt 0.085938 0.755859
vt 0.105469 0.755859
vt 0.105469 0.783203
vt 0.085938 0.783203
vt 0.039062 0.898499
vt 0.066345 0.898499
vt 0.111267 0.999969
vt 0.099548 0.999969
vt 0.099548 0.960968
vt 0.111267 0.960968
vt 0.130737 0.960968
vt 0.130737 0.999969
vt 0.066345 0.783203
vt 0.066345 0.808716
vt 0.039062 0.808716
vt 0.039062 0.783203
vt 0.099548 0.916016
vt 0.099548 0.908203
vt 0.111267 0.908203
vt 0.111267 0.916016
vt 0.005856 0.903320
vt 0.005856 0.908203
vt 0.000031 0.908203
vt 0.000031 0.903320
vt 0.005856 0.898438
vt 0.000031 0.898499
vt 0.054688 0.908203
vt 0.054688 0.916016
vt 0.048798 0.916016
vt 0.048798 0.908203
vt 0.093750 0.916016
vt 0.093750 0.960968
vt 0.054688 0.960968
vt 0.093750 0.908203
vt 0.093750 0.898499
vt 0.093750 0.903320
vt 0.054688 0.903320
vt 0.054688 0.898499
vt 0.142456 0.960968
vt 0.142456 0.999969
vt 0.048798 0.960968
vt 0.037079 0.960968
vt 0.037079 0.916016
vt 0.027344 0.613281
vt 0.027344 0.640625
vt 0.142456 0.908203
vt 0.130737 0.908203
vt 0.130737 0.903320
vt 0.142456 0.903320
vt 0.142456 0.859375
vt 0.142456 0.898499
vt 0.130737 0.898499
vt 0.130737 0.859375
vt 0.019516 0.808716
vt 0.019516 0.783203
vt 0.148438 0.908203
vt 0.187500 0.908203
vt 0.017563 0.916016
vt 0.017563 0.960968
vt 0.005856 0.960968
vt 0.005856 0.916016
vt 0.046875 0.666260
vt 0.027344 0.666260
vt 0.037079 0.903320
vt 0.037079 0.908203
vt 0.017563 0.908203
vt 0.017563 0.903320
vt 0.130737 0.916016
vt 0.142456 0.916016
vt 0.066345 0.755859
vt 0.093750 0.999969
vt 0.000031 0.666260
vt 0.000031 0.640625
vt 0.099548 0.898499
vt 0.099548 0.903320
vt 0.066345 0.736328
vt 0.093750 0.736328
vt 0.093750 0.755859
vt 0.066345 0.711182
vt 0.066345 0.691406
vt 0.093750 0.691406
vt 0.093750 0.711182
vt 0.000031 0.916016
vt 0.048798 0.903320
vt 0.048798 0.898499
vt 0.187500 0.916016
vt 0.148438 0.916016
vt 0.148438 0.999969
vt 0.148438 0.960968
vt 0.066345 0.833984
vt 0.039062 0.833984
vt 0.113220 0.691406
vt 0.113220 0.666260
vt 0.000031 0.960968
vt 0.111267 0.903320
vt 0.203125 0.999969
vt 0.203125 0.960968
vt 0.046875 0.691406
vt 0.111267 0.898499
vt 0.105469 0.808716
vt 0.085938 0.808716
vt 0.187500 0.960968
vt 0.113220 0.640625
vt 0.132812 0.640625
vt 0.132812 0.666260
vt 0.132812 0.783203
vt 0.132812 0.808716
vt 0.111267 0.859375
vt 0.099548 0.859375
vt 0.093750 0.859375
vt 0.000031 0.808716
vt 0.000031 0.783203
vt 0.017563 0.898499
vt 0.085938 0.833984
vt 0.019516 0.833984
vt 0.037079 0.898499
vt 0.148438 0.859375
vt 0.054688 0.999969
vt 0.000031 0.999969
s 1
usemtl MI_ObsidianMonstrosity
f 40/22/4 37/23/4 38/24/4 39/25/4
f 42/26/4 41/27/4 40/22/4 39/25/4
f 23/32/2 26/33/2 25/34/2 19/35/2
f 62/42/5 64/43/5 60/44/5 59/45/5
f 4/46/1 1/47/1 2/48/1 3/43/1
f 6/49/1 4/46/1 3/43/1 5/42/1
f 44/54/4 43/55/4 41/27/4 42/26/4
f 61/56/5 58/57/5 57/58/5 60/44/5
f 64/43/5 63/48/5 61/56/5 60/44/5
f 9/61/2 10/62/2 7/63/2 8/64/2
f 54/73/5 55/74/5 48/75/5 50/76/5
f 15/54/2 17/26/2 14/83/2 11/84/2
f 36/47/4 38/24/4 37/23/4 35/86/4
f 52/37/5 50/76/5 47/98/5 51/38/5
f 24/49/2 26/33/2 23/32/2 22/46/2
f 22/46/2 23/32/2 20/24/2 21/47/2
f 33/71/3 34/72/3 30/101/3 32/102/3
f 46/103/4 43/55/4 44/54/4 45/104/4
f 50/76/5 48/75/5 49/109/5 47/98/5
f 27/90/2 28/110/2 25/34/2 26/33/2
f 13/102/2 11/84/2 9/61/2 12/71/2
f 60/44/5 57/58/5 56/80/5 59/45/5
f 58/57/5 55/74/5 54/73/5 57/58/5
f 57/58/5 54/73/5 53/81/5 56/80/5
f 19/35/2 14/83/2 17/26/2 18/25/2
f 32/102/3 30/101/3 31/117/3 29/104/3
f 11/84/2 14/83/2 10/62/2 9/61/2
f 20/24/2 23/32/2 19/35/2 18/25/2
f 53/81/5 54/73/5 50/76/5 52/37/5
f 16/104/2 15/54/2 11/84/2 13/102/2
usemtl MI_ObsidianMonstrosity
f 106/5/7 103/6/7 104/7/7 105/8/7
f 84/9/1 82/10/1 83/11/1 81/12/1
f 117/13/1 120/14/1 118/7/1 119/15/1
f 126/16/7 123/17/7 124/18/7 125/19/7
f 94/20/6 96/10/6 95/9/6 93/21/6
f 98/28/3 100/29/3 99/30/3 97/31/3
f 108/59/7 106/5/7 105/8/7 107/60/7
f 114/30/2 112/69/2 111/70/2 113/31/2
f 148/77/5 152/78/5 151/60/5 147/8/5
f 128/28/7 127/85/7 126/16/7 125/19/7
f 68/87/3 65/88/3 66/60/3 67/78/3
f 72/85/6 71/91/6 69/92/6 70/93/6
f 80/94/6 79/95/6 77/96/6 78/97/6
f 76/97/3 73/92/3 74/91/3 75/94/3
f 100/29/3 102/105/3 101/106/3 99/30/3
f 136/107/2 135/96/2 133/13/2 132/108/2
f 121/96/1 122/95/1 120/14/1 117/13/1
f 146/14/5 148/77/5 147/8/5 145/7/5
f 149/95/5 150/113/5 148/77/5 146/14/5
f 143/18/5 144/115/5 140/116/5 141/19/5
f 142/28/5 141/19/5 140/116/5 137/29/5
f 132/108/2 130/118/2 131/119/2 129/120/2
f 134/15/2 130/118/2 132/108/2 133/13/2
f 92/18/1 90/121/1 91/122/1 89/115/1
f 88/11/6 86/106/6 87/105/6 85/12/6
f 112/69/2 109/126/2 110/127/2 111/70/2
f 140/116/5 138/129/5 139/105/5 137/29/5
f 116/106/2 115/130/2 112/69/2 114/30/2
usemtl MI_ObsidianMonstrosity
f 156/111/6 155/103/6 153/104/6 154/112/6
usemtl MI_ObsidianMonstrosity
f 183/1/3 185/2/3 184/3/3 182/4/3
f 189/36/5 52/37/5 51/38/5 187/39/5
f 186/40/5 189/36/5 187/39/5 188/41/5
f 161/50/1 159/51/1 158/52/1 160/53/1
f 179/65/8 178/66/8 176/67/8 177/68/8
f 33/71/3 184/3/3 185/2/3 34/72/3
f 192/79/5 56/80/5 53/81/5 191/82/5
f 12/71/2 9/61/2 8/64/2 166/3/2
f 168/51/2 169/50/2 165/89/2 27/90/2
f 197/52/5 194/99/5 195/100/5 196/53/5
f 25/34/2 10/62/2 14/83/2 19/35/2
f 8/64/2 7/63/2 162/67/2 164/66/2
f 28/110/2 163/114/2 162/67/2 7/63/2
f 27/90/2 165/89/2 163/114/2 28/110/2
f 194/99/5 59/45/5 56/80/5 192/79/5
f 197/52/5 62/42/5 59/45/5 194/99/5
f 177/68/8 176/67/8 175/114/8 174/123/8
f 159/51/1 6/49/1 157/42/1 158/52/1
f 191/82/5 53/81/5 52/37/5 189/36/5
f 175/114/8 173/89/8 172/124/8 174/123/8
f 173/89/8 170/50/8 171/125/8 172/124/8
f 28/110/2 7/63/2 10/62/2 25/34/2
f 167/4/2 166/3/2 8/64/2 164/66/2
f 190/128/5 191/82/5 189/36/5 186/40/5
f 195/100/5 194/99/5 192/79/5 193/131/5
f 193/131/5 192/79/5 191/82/5 190/128/5
f 26/33/2 24/49/2 168/51/2 27/90/2
f 181/132/8 180/4/8 178/66/8 179/65/8
usemtl MI_ObsidianMonstrosity
f 201/133/6 200/134/6 198/109/6 199/48/6
