# Blender 5.0.1
# www.blender.org
mtllib BP_OT_Door_5x.mtl
o SK_OT_Gate5x.001
v 100.000000 25.000000 0.000000
v 200.000000 25.000000 0.000000
v 100.000000 -25.000000 -0.000000
v 200.000000 -25.000000 -0.000000
v -100.000000 25.000000 325.000000
v -200.000000 25.000000 325.000000
v -200.000000 -25.000000 325.000000
v -100.000000 -25.000000 325.000000
v -100.000000 25.000000 300.000000
v -50.000000 -25.000000 300.000000
v -50.000000 25.000000 300.000000
v -100.000000 -25.000000 300.000000
v 0.000000 25.000000 325.000000
v 50.000000 -25.000000 325.000000
v 50.000000 25.000000 325.000000
v 0.000000 -25.000000 325.000000
v 200.000000 25.000000 325.000000
v 100.000000 25.000000 325.000000
v 100.000000 -25.000000 325.000000
v 200.000000 -25.000000 325.000000
v 225.000000 25.000000 0.000000
v 225.000000 -25.000000 -0.000000
v 225.000000 -25.000000 300.000000
v 225.000000 25.000000 300.000000
v 200.000000 25.000000 300.000000
v 200.000000 -25.000000 300.000000
v -225.000000 25.000000 300.000000
v -200.000000 -25.000000 300.000000
v -200.000000 25.000000 300.000000
v -225.000000 -25.000000 300.000000
v -50.000000 25.000000 325.000000
v -50.000000 -25.000000 325.000000
v 50.000000 25.000000 300.000000
v 100.000000 -25.000000 300.000000
v 100.000000 25.000000 300.000000
v 50.000000 -25.000000 300.000000
v -100.000000 25.000000 325.000000
v -100.000000 -25.000000 325.000000
v -100.000000 -25.000000 300.000000
v -100.000000 25.000000 300.000000
v -200.000000 -25.000000 325.000000
v -200.000000 25.000000 325.000000
v -200.000000 25.000000 300.000000
v -200.000000 -25.000000 300.000000
v -50.000000 -25.000000 325.000000
v -50.000000 25.000000 325.000000
v -50.000000 25.000000 300.000000
v -50.000000 -25.000000 300.000000
v 50.000000 25.000000 325.000000
v 50.000000 -25.000000 325.000000
v 50.000000 -25.000000 300.000000
v 50.000000 25.000000 300.000000
v 100.000000 -25.000000 325.000000
v 100.000000 25.000000 325.000000
v 100.000000 25.000000 300.000000
v 100.000000 -25.000000 300.000000
v 200.000000 25.000000 325.000000
v 200.000000 -25.000000 325.000000
v 200.000000 -25.000000 300.000000
v 200.000000 25.000000 300.000000
v -50.000000 25.000000 100.000000
v -100.000000 25.000000 100.000000
v -100.000000 -25.000000 100.000000
v -50.000000 -25.000000 100.000000
v -100.000000 -25.000000 250.000000
v -100.000000 25.000000 250.000000
v -50.000000 -25.000000 250.000000
v -50.000000 25.000000 250.000000
v 50.000000 25.000000 100.000000
v 50.000000 -25.000000 100.000000
v 100.000000 25.000000 100.000000
v 100.000000 -25.000000 100.000000
v 100.000000 -25.000000 250.000000
v 50.000000 -25.000000 250.000000
v 50.000000 25.000000 250.000000
v 100.000000 25.000000 250.000000
v -50.000000 25.000000 325.000000
v 0.000000 25.000000 325.000000
v 0.000000 25.000000 300.000000
v -50.000000 25.000000 300.000000
v 0.000000 25.000000 250.000000
v -50.000000 25.000000 250.000000
v -100.000000 25.000000 300.000000
v -50.000000 25.000000 200.000000
v 0.000000 25.000000 200.000000
v -50.000000 25.000000 100.000000
v -100.000000 25.000000 250.000000
v 0.000000 25.000000 100.000000
v -200.000000 25.000000 325.000000
v -100.000000 25.000000 325.000000
v -200.000000 25.000000 300.000000
v -50.000000 25.000000 0.000000
v 0.000000 25.000000 0.000000
v -100.000000 25.000000 0.000000
v -100.000000 25.000000 100.000000
v -200.000000 25.000000 250.000000
v -225.000000 25.000000 300.000000
v -225.000000 25.000000 250.000000
v -200.000000 25.000000 200.000000
v -100.000000 25.000000 200.000000
v -225.000000 25.000000 200.000000
v -225.000000 25.000000 100.000000
v -200.000000 25.000000 100.000000
v -225.000000 25.000000 0.000000
v -200.000000 25.000000 0.000000
v 50.000000 -25.000000 325.000000
v 0.000000 -25.000000 325.000000
v 0.000000 -25.000000 300.000000
v 50.000000 -25.000000 300.000000
v 0.000000 -25.000000 250.000000
v 50.000000 -25.000000 250.000000
v 100.000000 -25.000000 300.000000
v 50.000000 -25.000000 200.000000
v 0.000000 -25.000000 200.000000
v 50.000000 -25.000000 100.000000
v 100.000000 -25.000000 250.000000
v 0.000000 -25.000000 100.000000
v 200.000000 -25.000000 325.000000
v 100.000000 -25.000000 325.000000
v 200.000000 -25.000000 300.000000
v 50.000000 -25.000000 -0.000000
v 0.000000 -25.000000 -0.000000
v 100.000000 -25.000000 -0.000000
v 100.000000 -25.000000 100.000000
v 200.000000 -25.000000 250.000000
v 225.000000 -25.000000 300.000000
v 225.000000 -25.000000 250.000000
v 200.000000 -25.000000 200.000000
v 100.000000 -25.000000 200.000000
v 225.000000 -25.000000 200.000000
v 225.000000 -25.000000 100.000000
v 200.000000 -25.000000 100.000000
v 225.000000 -25.000000 -0.000000
v 200.000000 -25.000000 -0.000000
v -100.000000 25.000000 250.000000
v -100.000000 -25.000000 250.000000
v -100.000000 25.000000 200.000000
v -100.000000 -25.000000 200.000000
v -100.000000 25.000000 100.000000
v -100.000000 -25.000000 100.000000
v 100.000000 -25.000000 250.000000
v 100.000000 25.000000 250.000000
v 100.000000 -25.000000 200.000000
v 100.000000 25.000000 200.000000
v 100.000000 -25.000000 100.000000
v 100.000000 25.000000 100.000000
v 225.000000 25.000000 100.000000
v 225.000000 -25.000000 -0.000000
v 225.000000 25.000000 0.000000
v 225.000000 -25.000000 100.000000
v 225.000000 25.000000 200.000000
v 225.000000 -25.000000 200.000000
v 225.000000 -25.000000 250.000000
v 225.000000 25.000000 250.000000
v 225.000000 25.000000 300.000000
v 225.000000 -25.000000 300.000000
v -225.000000 -25.000000 100.000000
v -225.000000 25.000000 0.000000
v -225.000000 -25.000000 -0.000000
v -225.000000 25.000000 100.000000
v -225.000000 -25.000000 200.000000
v -225.000000 25.000000 200.000000
v -225.000000 25.000000 250.000000
v -225.000000 -25.000000 250.000000
v -225.000000 -25.000000 300.000000
v -225.000000 25.000000 300.000000
v -200.000000 25.000000 0.000000
v -225.000000 -25.000000 -0.000000
v -225.000000 25.000000 0.000000
v -200.000000 -25.000000 -0.000000
v -100.000000 25.000000 0.000000
v -100.000000 -25.000000 -0.000000
v -50.000000 -25.000000 -0.000000
v -50.000000 25.000000 0.000000
v -50.000000 -25.000000 100.000000
v -50.000000 25.000000 200.000000
v -50.000000 25.000000 100.000000
v -50.000000 -25.000000 200.000000
v -50.000000 25.000000 250.000000
v -50.000000 -25.000000 250.000000
v 50.000000 25.000000 100.000000
v 50.000000 -25.000000 200.000000
v 50.000000 -25.000000 100.000000
v 50.000000 25.000000 200.000000
v 50.000000 -25.000000 250.000000
v 50.000000 25.000000 250.000000
v 0.000000 25.000000 0.000000
v 0.000000 -25.000000 -0.000000
v 50.000000 -25.000000 -0.000000
v 50.000000 25.000000 0.000000
v -100.000000 -25.000000 325.000000
v -200.000000 -25.000000 325.000000
v -200.000000 -25.000000 300.000000
v -100.000000 -25.000000 300.000000
v -225.000000 -25.000000 250.000000
v -225.000000 -25.000000 300.000000
v -200.000000 -25.000000 250.000000
v -225.000000 -25.000000 200.000000
v -100.000000 -25.000000 250.000000
v -50.000000 -25.000000 300.000000
v -100.000000 -25.000000 200.000000
v -50.000000 -25.000000 250.000000
v -200.000000 -25.000000 200.000000
v -50.000000 -25.000000 325.000000
v -50.000000 -25.000000 200.000000
v -50.000000 -25.000000 100.000000
v -50.000000 -25.000000 -0.000000
v -100.000000 -25.000000 100.000000
v -100.000000 -25.000000 -0.000000
v -200.000000 -25.000000 -0.000000
v -225.000000 -25.000000 100.000000
v -225.000000 -25.000000 -0.000000
v -200.000000 -25.000000 100.000000
v 50.000000 25.000000 325.000000
v 50.000000 25.000000 300.000000
v 50.000000 25.000000 250.000000
v 100.000000 25.000000 250.000000
v 50.000000 25.000000 200.000000
v 100.000000 25.000000 300.000000
v 50.000000 25.000000 100.000000
v 50.000000 25.000000 0.000000
v 100.000000 25.000000 100.000000
v 100.000000 25.000000 0.000000
v 200.000000 25.000000 0.000000
v 225.000000 25.000000 100.000000
v 225.000000 25.000000 0.000000
v 200.000000 25.000000 100.000000
v 100.000000 25.000000 200.000000
v 225.000000 25.000000 200.000000
v 200.000000 25.000000 200.000000
v 200.000000 25.000000 250.000000
v 225.000000 25.000000 250.000000
v 200.000000 25.000000 300.000000
v 225.000000 25.000000 300.000000
v 100.000000 25.000000 325.000000
v 200.000000 25.000000 325.000000
vn -0.0000 -0.0000 -1.0000
vn -0.0000 -0.0000 1.0000
vn 1.0000 -0.0000 -0.0000
vn -1.0000 -0.0000 -0.0000
vn -0.0000 1.0000 -0.0000
vn -0.0000 -1.0000 -0.0000
vt 0.000758 0.626465
vt 0.061920 0.626465
vt 0.061920 0.375000
vt 0.000758 0.375000
vt 0.218506 0.626709
vt 0.093445 0.627197
vt 0.093262 0.375977
vt 0.219116 0.375488
vt 0.686523 0.184570
vt 0.625000 0.184570
vt 0.625000 0.312500
vt 0.686523 0.312500
vt 0.625488 0.064941
vt 0.625488 0.000977
vt 0.687012 0.001465
vt 0.687012 0.065430
vt 0.094116 0.626465
vt 0.094299 0.375000
vt 0.062500 0.375000
vt 0.062347 0.626465
vt 0.218140 0.130371
vt 0.282227 0.130859
vt 0.281982 0.375488
vt 0.281738 0.875244
vt 0.281494 0.936890
vt 0.350098 0.937073
vt 0.350098 0.875488
vt 0.349854 0.874512
vt 0.349854 0.936157
vt 0.281494 0.936340
vt 0.281494 0.874756
vt 0.219360 0.375488
vt 0.219482 0.130371
vt 0.414062 0.751831
vt 0.414062 0.875610
vt 0.353027 0.875610
vt 0.353027 0.751831
vt 0.353027 0.750366
vt 0.353027 0.625977
vt 0.414062 0.625977
vt 0.414062 0.750366
vt 0.353027 0.374512
vt 0.414062 0.374512
vt 0.093872 0.874756
vt 0.093811 0.936340
vt 0.218872 0.936768
vt 0.218872 0.875183
vt 0.350586 0.375977
vt 0.281982 0.375977
vt 0.281738 0.627197
vt 0.350342 0.627441
vt 0.413818 0.750244
vt 0.352783 0.750244
vt 0.352783 0.625977
vt 0.413818 0.625977
vt 0.219116 0.626953
vt 0.686035 0.375000
vt 0.624512 0.375000
vt 0.624512 0.062500
vt 0.686523 0.062500
vt 0.281494 0.875366
vt 0.281494 0.936951
vt 0.350098 0.937195
vt 0.350098 0.875549
vt 0.350586 0.130371
vt 0.349365 0.375000
vt 0.219238 0.001465
vt 0.281006 0.000977
vt 0.281006 0.124512
vt 0.219238 0.124512
vt 0.093994 0.750977
vt 0.218994 0.751343
vt 0.093506 0.627197
vt 0.061707 0.627441
vt 0.061493 0.375488
vt 0.187744 0.001465
vt 0.187866 0.125000
vt 0.061646 0.125000
vt 0.061615 0.001465
vt 0.061798 0.001465
vt 0.061768 0.125000
vt 0.187988 0.125000
vt 0.187988 0.001465
vt 0.350830 0.130859
vt 0.032562 0.001465
vt 0.032593 0.125000
vt 0.094543 0.129883
vt 0.093994 0.750854
vt 0.218994 0.751221
vt 0.032715 0.125000
vt 0.032745 0.001465
vt 0.000802 0.001465
vt 0.000777 0.125000
vt 0.000757 0.750732
vt 0.061920 0.750732
vt 0.375244 0.001953
vt 0.312256 0.001465
vt 0.312256 0.125000
vt 0.375244 0.125000
vt 0.094482 0.130371
vt 0.219360 0.001465
vt 0.219360 0.125000
vt 0.686523 0.315430
vt 0.625000 0.315430
vt 0.281006 0.001465
vt 0.281006 0.125000
vt 0.218872 0.875061
vt 0.281738 0.751465
vt 0.312256 0.000977
vt 0.375244 0.000977
vt 0.375244 0.124512
vt 0.312256 0.124512
vt 0.000604 0.001465
vt 0.000652 0.125000
vt 0.093933 0.874634
vt 0.414307 0.751587
vt 0.414307 0.875427
vt 0.353516 0.875427
vt 0.353516 0.751587
vt 0.349854 0.750732
vt 0.281250 0.750977
vt 0.414062 0.876404
vt 0.353027 0.876404
vt 0.353027 0.752563
vt 0.414062 0.752563
vt 0.062317 0.626465
vt 0.062195 0.750854
vt 0.061707 0.627197
vt 0.686035 0.311035
vt 0.624512 0.311035
vt 0.281738 0.751587
vt 0.218628 0.751221
vt 0.093567 0.751587
vt 0.218506 0.626953
vt 0.093079 0.130859
vt 0.061798 0.751709
vt 0.353027 0.749512
vt 0.353027 0.625000
vt 0.414062 0.625000
vt 0.414062 0.749268
vt 0.061920 0.129883
vt 0.000758 0.129883
vt 0.353027 0.373535
vt 0.414062 0.373535
vt 0.093689 0.875427
vt 0.218750 0.875000
vt 0.062225 0.750732
vt 0.000757 0.874634
vt 0.061920 0.874634
vt 0.062134 0.874634
vt 0.350098 0.751831
vt 0.061890 0.874756
vt 0.000724 0.874756
vt 0.000724 0.750854
vt 0.061890 0.750854
vt 0.000724 0.626465
vt 0.061859 0.626465
vt 0.061859 0.375000
vt 0.000724 0.375000
vt 0.000725 0.130371
vt 0.061859 0.130371
vt 0.062744 0.129883
vt 0.686523 0.443359
vt 0.625000 0.443359
vt 0.413818 0.750366
vt 0.352783 0.750366
vt 0.352783 0.374512
vt 0.413818 0.374512
vt 0.061920 0.875549
vt 0.350098 0.751709
vt 0.218750 0.936584
vt 0.093750 0.937012
vt 0.093689 0.875366
vt 0.218628 0.751099
vt 0.061890 0.875488
vt 0.414551 0.875610
vt 0.353516 0.875610
vt 0.353516 0.751831
vt 0.414551 0.751831
vt 0.281250 0.626465
vt 0.349609 0.626465
vt 0.218018 0.130371
vt 0.093872 0.936279
vt 0.218872 0.936646
vt 0.061279 0.130859
vt 0.349854 0.874634
vt 0.349854 0.936218
vt 0.281494 0.936462
vt 0.281494 0.874878
vt 0.062103 0.874634
vt 0.281250 0.626709
vt 0.349854 0.750854
vt 0.061310 0.130859
vt 0.218750 0.936646
vt 0.093750 0.937073
s 1
usemtl MI_OT_Gate
f 151/1/3 152/2/3 150/3/3 147/4/3
f 201/5/6 203/6/6 213/7/6 208/8/6
f 190/9/1 189/10/1 188/11/1 187/12/1
f 170/13/1 168/14/1 169/15/1 167/16/1
f 128/17/6 132/18/6 131/19/6 130/20/6
f 223/21/5 221/22/5 220/23/5 222/8/5
f 109/24/6 106/25/6 107/26/6 108/27/6
f 108/28/6 107/29/6 204/30/6 200/31/6
f 124/32/6 115/23/6 121/22/6 123/33/6
f 64/34/2 61/35/2 62/36/2 63/37/2
f 136/38/3 138/39/3 137/40/3 135/41/3
f 138/39/3 140/42/3 139/43/3 137/40/3
f 91/44/5 89/45/5 90/46/5 83/47/5
f 88/48/5 86/49/5 84/50/5 85/51/5
f 180/52/4 179/53/4 176/54/4 178/55/4
f 103/18/5 99/17/5 100/56/5 95/32/5
f 2/57/1 4/58/1 3/59/1 1/60/1
f 80/61/5 77/62/5 78/63/5 79/64/5
f 207/22/6 122/65/6 117/66/6 206/23/6
f 117/48/6 115/23/6 113/50/6 114/51/6
f 12/67/2 10/68/2 11/69/2 9/70/2
f 100/56/5 99/17/5 96/71/5 87/72/5
f 230/73/5 229/74/5 225/75/5 227/7/5
f 132/18/6 128/17/6 129/56/6 124/32/6
f 8/76/2 5/77/2 6/78/2 7/79/2
f 20/80/2 17/81/2 18/82/2 19/83/2
f 93/84/5 92/22/5 86/49/5 88/48/5
f 44/85/4 41/79/4 42/78/4 43/86/4
f 134/87/6 132/18/6 124/32/6 123/33/6
f 129/56/6 128/17/6 125/88/6 116/89/6
f 25/90/2 26/91/2 23/92/2 24/93/2
f 154/94/3 153/95/3 152/2/3 151/1/3
f 16/96/2 14/97/2 15/98/2 13/99/2
f 105/100/5 103/18/5 95/32/5 94/33/5
f 56/101/4 53/83/4 54/82/4 55/102/4
f 171/103/1 172/104/1 170/13/1 167/16/1
f 36/105/2 34/101/2 35/102/2 33/106/2
f 116/89/6 112/107/6 109/24/6 111/108/6
f 32/109/2 16/110/2 13/111/2 31/112/2
f 3/59/1 189/10/1 190/9/1 1/60/1
f 30/113/2 28/85/2 29/86/2 27/114/2
f 125/88/6 120/115/6 112/107/6 116/89/6
f 72/116/2 71/117/2 69/118/2 70/119/2
f 110/120/6 108/28/6 200/31/6 202/121/6
f 68/122/1 67/123/1 65/124/1 66/125/1
f 101/126/5 98/127/5 96/71/5 99/17/5
f 40/70/3 37/77/3 38/76/3 39/67/3
f 203/6/6 198/128/6 211/75/6 213/7/6
f 4/58/1 2/57/1 21/129/1 22/130/1
f 87/72/5 83/47/5 80/61/5 82/131/5
f 217/132/5 231/133/5 230/73/5 228/134/5
f 222/8/5 227/7/5 224/135/5 223/21/5
f 52/106/3 49/98/3 50/97/3 51/105/3
f 48/68/4 45/109/4 46/112/4 47/69/4
f 95/32/5 86/49/5 92/22/5 94/33/5
f 232/136/5 229/74/5 230/73/5 231/133/5
f 142/137/4 144/138/4 143/139/4 141/140/4
f 96/71/5 91/44/5 83/47/5 87/72/5
f 147/4/3 150/3/3 148/141/3 149/142/3
f 144/138/4 146/143/4 145/144/4 143/139/4
f 233/145/5 231/133/5 217/132/5 219/146/5
f 130/20/6 127/147/6 125/88/6 128/17/6
f 155/148/3 156/149/3 153/95/3 154/94/3
f 127/147/6 126/150/6 120/115/6 125/88/6
f 82/131/5 80/61/5 79/64/5 81/151/5
f 165/152/4 166/153/4 163/154/4 164/155/4
f 164/155/4 163/154/4 162/156/4 161/157/4
f 157/158/4 160/159/4 158/160/4 159/161/4
f 60/90/3 57/81/3 58/80/3 59/91/3
f 103/18/5 105/100/5 104/162/5 102/19/5
f 174/163/1 173/164/1 172/104/1 171/103/1
f 184/55/3 182/54/3 183/42/3 181/43/3
f 99/17/5 103/18/5 102/19/5 101/126/5
f 188/11/1 173/164/1 174/163/1 187/12/1
f 186/165/3 185/166/3 182/54/3 184/55/3
f 178/55/4 176/54/4 177/167/4 175/168/4
f 234/169/5 232/136/5 231/133/5 233/145/5
f 114/51/6 113/50/6 111/108/6 110/170/6
f 194/146/6 191/171/6 192/172/6 193/173/6
f 203/6/6 197/133/6 195/136/6 198/128/6
f 111/108/6 109/24/6 108/27/6 110/170/6
f 203/6/6 201/5/6 199/174/6 197/133/6
f 202/121/6 200/31/6 194/146/6 199/174/6
f 197/133/6 193/173/6 196/175/6 195/136/6
f 76/176/1 73/177/1 74/178/1 75/179/1
f 122/84/6 121/22/6 115/23/6 117/48/6
f 205/180/6 114/181/6 110/120/6 202/121/6
f 209/182/6 207/22/6 206/23/6 208/8/6
f 120/115/6 118/183/6 119/184/6 112/107/6
f 213/7/6 211/75/6 212/185/6 210/135/6
f 208/8/6 213/7/6 210/135/6 209/182/6
f 206/23/6 117/66/6 114/181/6 205/180/6
f 199/174/6 194/146/6 193/173/6 197/133/6
f 79/186/5 78/187/5 214/188/5 215/189/5
f 161/157/4 162/156/4 160/159/4 157/158/4
f 98/127/5 97/190/5 91/44/5 96/71/5
f 221/22/5 93/84/5 88/66/5 220/23/5
f 220/23/5 88/66/5 85/181/5 218/191/5
f 81/192/5 79/186/5 215/189/5 216/121/5
f 132/18/6 134/87/6 133/162/6 131/19/6
f 227/7/5 225/75/5 226/193/5 224/135/5
f 228/134/5 230/73/5 227/7/5 222/8/5
f 218/191/5 85/181/5 81/192/5 216/121/5
f 215/189/5 219/146/5 217/132/5 216/121/5
f 85/51/5 84/50/5 82/131/5 81/151/5
f 235/194/5 236/195/5 233/145/5 219/146/5
