# Blender 5.0.1
# www.blender.org
mtllib BP_Outlook.mtl
o SM_Outlook.001
v -1587.315186 1292.939697 1999.999756
v 1393.766235 1292.939331 -0.000211
v 1393.766235 1292.939697 1999.999756
v -1587.315186 1292.939331 -0.000211
v -1587.315186 392.939697 1999.999878
v -1587.315186 392.939362 -0.000064
v -1387.315186 192.939697 2000.000000
v -1387.315186 192.939377 -0.000031
v -1287.315186 -207.060303 2000.000000
v -1287.315186 -207.060623 0.000034
v -1087.315186 -1007.060303 2000.000122
v -1087.315186 -1007.060608 0.000164
v -287.315186 -1907.060669 0.000311
v -287.315186 -1907.060303 2000.000366
v 912.684814 -2507.060303 2000.000366
v 912.684814 -2507.060547 0.000408
vn 0.7071 -0.7071 -0.0000
vn -0.0000 -1.0000 -0.0000
vn 0.9239 0.3827 -0.0000
vn 0.8702 0.4927 -0.0000
vn 0.9701 0.2425 -0.0000
vn 0.8843 0.4669 -0.0000
vn 0.6083 0.7937 -0.0000
vn 0.4472 0.8944 -0.0000
vt 0.000031 0.000000
s 1
usemtl Mi_OutpostBlended2
f 11/1/6 14/1/7 13/1/7 12/1/6
f 4/1/1 2/1/2 3/1/2 1/1/1
f 12/1/6 10/1/5 9/1/5 11/1/6
f 8/1/4 6/1/3 5/1/3 7/1/4
f 10/1/5 8/1/4 7/1/4 9/1/5
f 6/1/3 4/1/1 1/1/1 5/1/3
f 16/1/8 13/1/7 14/1/7 15/1/8
