# Blender 5.0.1
# www.blender.org
mtllib BP_PoisonFungus.mtl
o MushroomRed1.001
v 25.000000 -25.000002 62.500000
v -25.000000 -25.000002 62.500000
v -25.000000 -25.000002 24.999998
v 25.000000 -25.000002 24.999998
v 25.000000 -25.000002 62.500000
v 25.000000 24.999998 62.500000
v -25.000000 -25.000002 62.500000
v -25.000000 24.999998 62.500000
v 25.000000 24.999998 25.000002
v -25.000000 24.999998 25.000002
v -25.000000 24.999998 62.500000
v 25.000000 24.999998 62.500000
v 25.000000 -25.000002 24.999998
v -25.000000 -25.000002 24.999998
v -25.000000 24.999998 25.000002
v 25.000000 24.999998 25.000002
v 25.000000 -25.000002 62.500000
v 25.000000 -25.000002 24.999998
v 25.000000 24.999998 62.500000
v 25.000000 24.999998 25.000002
v -25.000000 -25.000002 62.500000
v -25.000000 24.999998 25.000002
v -25.000000 -25.000002 24.999998
v -25.000000 24.999998 62.500000
v 12.500000 -12.500001 25.000000
v -12.500000 -12.500001 25.000000
v -12.500000 -12.500000 -0.011033
v 12.500000 -12.500000 -0.011033
v 12.500000 12.500000 -0.011031
v -12.500000 12.500000 -0.011031
v -12.500000 12.499999 25.000000
v 12.500000 12.499999 25.000000
v 12.500000 -12.500000 -0.011033
v -12.500000 -12.500000 -0.011033
v -12.500000 12.500000 -0.011031
v 12.500000 12.500000 -0.011031
v 12.500000 -12.500001 25.000000
v 12.500000 -12.500000 -0.011033
v 12.500000 12.499999 25.000000
v 12.500000 12.500000 -0.011031
v -12.500000 -12.500001 25.000000
v -12.500000 12.500000 -0.011031
v -12.500000 -12.500000 -0.011033
v -12.500000 12.499999 25.000000
vn -0.0000 -1.0000 -0.0000
vn -0.0000 -0.0000 1.0000
vn -0.0000 1.0000 -0.0000
vn -0.0000 -0.0000 -1.0000
vn 1.0000 -0.0000 -0.0000
vn -1.0000 -0.0000 -0.0000
vt 0.125000 0.562500
vt 0.249878 0.562500
vt 0.249878 0.656250
vt 0.125000 0.656250
vt 0.062469 0.937531
vt 0.062469 0.999969
vt 0.000031 0.999969
vt -0.000031 0.937500
vt 0.375000 0.656250
vt 0.375000 0.781128
vt 0.250000 0.781128
vt 0.250000 0.656250
vt 0.000032 0.656250
vt 0.000032 0.562500
vt 0.125000 0.781250
vt 0.125000 0.656494
vt 0.249878 0.656494
vt 0.249878 0.781250
vt -0.000031 0.906250
vt 0.062469 0.906250
vt 0.062469 0.968750
vt 0.000031 0.968750
vt 0.375000 0.562500
vt 0.499756 0.562500
vt 0.499756 0.656250
vt 0.250000 0.656494
vt 0.250000 0.562744
vt 0.374756 0.562744
vt 0.374756 0.656494
vt 0.062469 0.906311
vt 0.062469 0.968781
vt 0.000031 0.968781
vt 0.000031 0.906311
vt 0.000031 0.906250
vt 0.062500 0.906250
vt 0.000031 0.968811
vt -0.000031 0.906311
vt 0.062469 0.968811
s 1
usemtl MI_RedMushrooms
f 18/1/5 20/2/5 19/3/5 17/4/5
f 36/5/4 33/6/4 34/7/4 35/8/4
f 16/9/4 13/10/4 14/11/4 15/12/4
f 4/1/1 1/4/1 2/13/1 3/14/1
f 8/15/2 7/16/2 5/17/2 6/18/2
f 38/19/5 40/20/5 39/21/5 37/22/5
f 24/9/6 22/23/6 23/24/6 21/25/6
f 12/26/3 9/27/3 10/28/3 11/29/3
f 28/30/1 25/31/1 26/32/1 27/33/1
f 32/22/3 29/34/3 30/35/3 31/21/3
f 44/36/6 42/37/6 43/30/6 41/38/6
