# Blender 5.0.1
# www.blender.org
mtllib BP_Pork.mtl
o SM_Pork.001
v -6.250000 -6.250002 12.578764
v -25.000002 -6.250002 12.578764
v -25.000002 -6.250002 0.000000
v -6.250000 -6.250002 0.000000
v -25.000002 -6.250002 12.578764
v -25.000002 18.750002 -0.000000
v -25.000002 -6.250002 0.000000
v -25.000002 18.750002 12.578764
v -6.250000 -18.750000 0.000000
v 25.000002 -18.750000 0.000000
v -6.250000 -18.750000 12.578764
v 25.000002 -18.750000 12.578764
v -6.250000 -18.750000 0.000000
v -6.250000 -18.750000 12.578764
v -6.250000 -6.250002 12.578764
v -6.250000 -6.250002 0.000000
v -25.000002 -6.250002 12.578764
v -6.250000 18.750002 12.578764
v -25.000002 18.750002 12.578764
v -6.250000 -6.250002 12.578764
v 25.000004 -6.250002 12.578764
v 25.000004 18.750002 12.578764
v 25.000002 -18.750000 12.578764
v -6.250000 -18.750000 12.578764
v -6.250000 18.750002 -0.000000
v -25.000002 18.750002 -0.000000
v -25.000002 18.750002 12.578764
v -6.250000 18.750002 12.578764
v 25.000004 18.750002 12.578764
v 25.000004 18.750002 -0.000000
v 25.000004 -6.250002 0.000000
v 25.000004 18.750002 -0.000000
v 25.000004 18.750002 12.578764
v 25.000004 -6.250002 12.578764
v 25.000002 -18.750000 12.578764
v 25.000002 -18.750000 0.000000
v -6.250000 -6.250002 0.000000
v -25.000002 -6.250002 0.000000
v -25.000002 18.750002 -0.000000
v -6.250000 18.750002 -0.000000
v 25.000004 18.750002 -0.000000
v 25.000004 -6.250002 0.000000
v 25.000002 -18.750000 0.000000
v -6.250000 -18.750000 0.000000
vn -0.0000 -1.0000 -0.0000
vn -1.0000 -0.0000 -0.0000
vn -0.0000 -0.0000 1.0000
vn -0.0000 1.0000 -0.0000
vn 1.0000 -0.0000 -0.0000
vn -0.0000 -0.0000 -1.0000
vt 0.000031 0.375000
vt 0.000031 0.250000
vt 0.125000 0.250000
vt 0.125000 0.375000
vt 0.312500 0.625000
vt 0.312500 0.500000
vt 0.500000 0.500000
vt 0.500000 0.625000
vt 0.437500 0.375000
vt 0.562500 0.375000
vt 0.562500 0.500000
vt 0.437500 0.500000
vt 0.187500 0.750000
vt 0.500000 0.750000
vt 0.500000 0.999969
vt 0.187500 0.999969
vt 0.000031 0.500000
vt 0.250000 0.375000
vt 0.250000 0.500000
vt 1.000000 0.999969
vt 0.687500 0.999969
vt 0.687500 0.875000
vt 1.000000 0.875000
vt 0.875000 0.375000
vt 0.875000 0.500000
vt 0.687500 0.625000
vt 0.500000 0.875000
vt 0.000031 0.750000
vt 0.000031 0.999969
vt 0.000031 0.625000
vt 0.187500 0.625000
vt 0.375000 0.375000
vt 0.375000 0.250000
vt 1.000000 0.625000
s 1
usemtl MI_Pork
f 35/1/5 36/2/5 31/3/5 34/4/5
f 28/5/4 25/6/4 26/7/4 27/8/4
f 16/9/2 13/10/2 14/11/2 15/12/2
f 20/13/3 21/14/3 22/15/3 18/16/3
f 8/17/2 6/1/2 7/18/2 5/19/2
f 4/9/1 1/12/1 2/19/1 3/18/1
f 43/20/6 44/21/6 37/22/6 42/23/6
f 10/24/1 12/25/1 11/11/1 9/10/1
f 40/26/6 37/22/6 38/27/6 39/8/6
f 17/28/3 20/13/3 18/16/3 19/29/3
f 29/30/4 30/17/4 25/6/4 28/5/4
f 24/31/3 23/8/3 21/14/3 20/13/3
f 33/32/5 34/4/5 31/3/5 32/33/5
f 41/34/6 42/23/6 37/22/6 40/26/6
