# Blender 5.0.1
# www.blender.org
mtllib BP_Platform_6w_Long.mtl
o SM_Bridges_Platform_6w_Long.001
v -100.000008 -300.000000 -0.000013
v -200.000000 -300.000000 -0.000013
v -200.000000 -300.000000 -50.000011
v -100.000000 -300.000000 -50.000011
v 0.000000 -300.000000 -0.000013
v 0.000000 -300.000000 -50.000011
v -200.000000 300.000000 -49.999989
v -100.000008 300.000000 0.000013
v -100.000000 300.000000 -49.999989
v -200.000000 300.000000 0.000013
v 0.000000 300.000000 0.000013
v 0.000000 300.000000 -49.999989
v -100.000008 -300.000000 -0.000013
v -200.000000 -0.000008 -0.000000
v -200.000000 -300.000000 -0.000013
v -100.000008 -0.000004 -0.000000
v -200.000000 300.000000 0.000013
v -100.000008 300.000000 0.000013
v 0.000000 -300.000000 -0.000013
v 0.000000 0.000000 0.000000
v 0.000000 300.000000 0.000013
v -100.000000 0.000006 -50.000000
v -200.000000 300.000000 -49.999989
v -100.000000 300.000000 -49.999989
v -200.000000 0.000002 -50.000000
v -100.000000 -300.000000 -50.000011
v -200.000000 -300.000000 -50.000011
v 0.000000 0.000010 -50.000000
v 0.000000 300.000000 -49.999989
v 0.000000 -300.000000 -50.000011
v 0.000000 0.000000 0.000000
v 0.000000 -300.000000 -0.000013
v 0.000000 -300.000000 -50.000011
v 0.000000 0.000010 -50.000000
v 0.000000 300.000000 0.000013
v 0.000000 300.000000 -49.999989
v -200.000000 0.000002 -50.000000
v -200.000000 300.000000 0.000013
v -200.000000 300.000000 -49.999989
v -200.000000 -0.000008 -0.000000
v -200.000000 -300.000000 -50.000011
v -200.000000 -300.000000 -0.000013
vn -0.0000 -1.0000 -0.0000
vn -0.0000 1.0000 -0.0000
vn -0.0000 -0.0000 1.0000
vn -0.0000 -0.0000 -1.0000
vn 1.0000 -0.0000 -0.0000
vn -1.0000 -0.0000 -0.0000
vt 0.070312 0.937500
vt 0.195312 0.937500
vt 0.195312 0.999969
vt 0.070312 0.999969
vt 0.390625 0.562500
vt 0.265625 0.562500
vt 0.265625 0.187500
vt 0.390625 0.187500
vt 0.390625 0.937500
vt 0.390625 0.999969
vt 0.265625 0.999969
vt 0.265625 0.937500
vt 0.195312 0.125000
vt 0.195312 0.187500
vt 0.070312 0.187500
vt 0.070312 0.125000
vt 0.187500 0.562500
vt 0.187500 0.937500
vt 0.062500 0.937500
vt 0.062500 0.562500
vt 0.000031 0.937500
vt 0.000031 0.562500
vt 0.070312 0.562500
vt 0.195312 0.562500
vt 0.000031 0.187500
vt 0.062500 0.187500
vt -0.000031 0.562500
vt 0.390625 0.125000
vt 0.265625 0.125000
vt 0.187500 0.187500
s 1
usemtl WorldGridMaterial
f 10/1/2 8/2/2 9/3/2 7/4/2
f 20/5/3 16/6/3 13/7/3 19/8/3
f 11/9/2 12/10/2 9/11/2 8/12/2
f 21/9/3 18/12/3 16/6/3 20/5/3
f 4/13/1 1/14/1 2/15/1 3/16/1
f 22/17/4 24/18/4 29/19/4 28/20/4
f 40/20/6 38/19/6 39/21/6 37/22/6
f 18/2/3 17/1/3 14/23/3 16/24/3
f 22/6/4 25/5/4 23/9/4 24/12/4
f 16/24/3 14/23/3 15/15/3 13/14/3
f 26/7/4 27/8/4 25/5/4 22/6/4
f 36/25/5 35/26/5 31/20/5 34/27/5
f 41/25/6 42/26/6 40/20/6 37/22/6
f 33/21/5 34/27/5 31/20/5 32/19/5
f 6/28/1 5/8/1 1/7/1 4/29/1
f 26/30/4 22/17/4 28/20/4 30/26/4
