# Blender 5.0.1
# www.blender.org
mtllib BP_Pipes_ShortFull.mtl
o SM_Pipes_ShortFull.001
v -31.249996 -49.999996 56.249992
v 31.249996 -49.999996 56.249992
v 31.249996 -37.500000 56.249996
v -31.249996 -37.500000 56.249996
v 31.249996 37.499996 -6.249999
v -31.249996 37.499996 -6.249999
v -31.249996 49.999992 -6.249998
v 31.249996 49.999992 -6.249998
v 31.249996 -37.499996 -6.250001
v 31.249996 -37.500000 56.249996
v 31.249996 -49.999992 -6.250002
v 31.249996 -49.999996 56.249992
v -31.249996 37.499992 56.249996
v -31.249996 49.999992 -6.249998
v -31.249996 37.499996 -6.249999
v -31.249996 49.999989 56.250000
v -31.249996 37.499992 56.249996
v 31.249996 37.499992 56.249996
v 31.249996 49.999989 56.250000
v -31.249996 49.999989 56.250000
v 25.000002 -37.499996 -0.000002
v -25.000002 -37.499996 -0.000002
v -25.000002 37.499996 0.000002
v 25.000002 37.499996 0.000002
v 31.249996 37.499992 56.249996
v 31.249996 37.499996 -6.249999
v 31.249996 49.999992 -6.249998
v 31.249996 49.999989 56.250000
v -25.000002 -37.499996 -0.000002
v -25.000002 -37.500000 49.999996
v -25.000002 37.499992 49.999996
v -25.000002 37.499996 0.000002
v 25.000002 -37.500000 49.999996
v 25.000002 37.499992 49.999996
v -25.000002 -37.500000 49.999996
v -25.000002 37.499992 49.999996
v 25.000002 -37.499996 -0.000002
v 25.000002 37.499996 0.000002
v 25.000002 -37.500000 49.999996
v 25.000002 37.499992 49.999996
v 31.249996 -49.999992 -6.250002
v -31.249996 -49.999992 -6.250002
v -31.249996 -37.499996 -6.250001
v 31.249996 -37.499996 -6.250001
v -31.249996 -49.999992 -6.250002
v -31.249996 -49.999996 56.249992
v -31.249996 -37.500000 56.249996
v -31.249996 -37.499996 -6.250001
v -18.750002 -49.999992 6.249998
v -18.750002 49.999992 6.250002
v -18.750002 -49.999996 43.749996
v -18.750002 49.999989 43.750004
v -18.750002 -49.999996 43.749996
v -18.750002 49.999989 43.750004
v 18.750002 -49.999996 43.749996
v 18.750002 49.999989 43.750004
v 18.750002 -49.999996 43.749996
v 18.750002 49.999989 43.750004
v 18.750002 -49.999992 6.249998
v 18.750002 49.999992 6.250002
v 18.750002 -49.999992 6.249998
v 18.750002 49.999992 6.250002
v -18.750002 -49.999992 6.249998
v -18.750002 49.999992 6.250002
v 31.249996 -49.999996 56.249992
v -31.249996 -49.999996 56.249992
v -18.750002 -49.999996 43.749996
v 18.750002 -49.999996 43.749996
v 18.750002 -49.999992 6.249998
v 31.249996 -49.999992 -6.250002
v -31.249996 -49.999992 -6.250002
v -18.750002 -49.999992 6.249998
v -25.000002 -37.500000 49.999996
v 31.249996 -37.500000 56.249996
v 25.000002 -37.500000 49.999996
v -31.249996 -37.500000 56.249996
v 31.249996 -37.499996 -6.250001
v 25.000002 -37.499996 -0.000002
v -31.249996 -37.499996 -6.250001
v -25.000002 -37.499996 -0.000002
v 31.249996 49.999992 -6.249998
v -31.249996 49.999992 -6.249998
v -18.750002 49.999992 6.250002
v 18.750002 49.999992 6.250002
v -31.249996 49.999989 56.250000
v -18.750002 49.999989 43.750004
v 18.750002 49.999989 43.750004
v 31.249996 49.999989 56.250000
v -25.000002 37.499996 0.000002
v 31.249996 37.499996 -6.249999
v 25.000002 37.499996 0.000002
v -31.249996 37.499996 -6.249999
v -31.249996 37.499992 56.249996
v -25.000002 37.499992 49.999996
v 25.000002 37.499992 49.999996
v 31.249996 37.499992 56.249996
vn -0.0000 -0.0000 1.0000
vn -0.0000 -0.0000 -1.0000
vn 1.0000 -0.0000 -0.0000
vn -1.0000 -0.0000 -0.0000
vn -0.0000 -1.0000 -0.0000
vn -0.0000 1.0000 -0.0000
vt 0.833008 0.916687
vt 0.833008 0.958344
vt 0.625000 0.958344
vt 0.625000 0.916687
vt 0.291504 0.895874
vt 0.000031 0.895874
vt 0.000031 0.729248
vt 0.291504 0.729248
vt 0.416504 0.958344
vt 0.208252 0.958344
vt 0.208252 0.916687
vt 0.416504 0.916687
vt 0.291504 0.395996
vt 0.000031 0.395996
vt 0.000031 0.229492
vt 0.291504 0.229492
vt 0.000031 0.958344
vt 0.000031 0.916687
vt 0.666504 0.770874
vt 1.000000 0.770874
vt 1.000000 0.895874
vt 0.666504 0.895874
vt 0.291504 0.562500
vt 0.000031 0.562500
vt 0.666504 0.645996
vt 1.000000 0.645996
vt 0.666504 0.520996
vt 1.000000 0.520996
vt 0.583008 0.999969
vt 0.458252 0.999969
vt 0.250000 0.999969
vt 0.375000 0.999969
vt 0.041656 0.999969
vt 0.166626 0.999969
vt 0.666504 0.999969
vt 0.791504 0.999969
vt 0.437500 0.895874
vt 0.604004 0.895874
vt 0.229126 0.895874
vt 0.395752 0.895874
vt 0.187500 0.895874
vt 0.020828 0.895874
vt 0.812500 0.895874
vt 0.645508 0.895874
vt 0.666504 0.395996
vt 1.000000 0.395996
s 1
usemtl MI_Pipes
f 48/1/4 45/2/4 46/3/4 47/4/4
f 32/5/4 29/6/4 30/7/4 31/8/4
f 16/9/4 14/10/4 15/11/4 13/12/4
f 28/3/3 25/4/3 26/1/3 27/2/3
f 24/13/2 21/14/2 22/15/2 23/16/2
f 8/17/2 5/18/2 6/11/2 7/10/2
f 52/19/3 51/20/3 49/21/3 50/22/3
f 10/12/3 12/9/3 11/10/3 9/11/3
f 40/23/3 39/24/3 37/14/3 38/13/3
f 56/25/2 55/26/2 53/20/2 54/19/2
f 36/8/1 35/7/1 33/24/1 34/23/1
f 20/9/1 17/12/1 18/4/1 19/3/1
f 44/11/2 41/10/2 42/17/2 43/18/2
f 60/27/4 59/28/4 57/26/4 58/25/4
f 4/4/1 1/3/1 2/9/1 3/12/1
f 67/29/5 65/9/5 66/3/5
f 68/30/5 65/9/5 67/29/5
f 70/10/5 65/9/5 69/31/5
f 68/32/5 69/31/5 65/9/5
f 72/33/5 71/17/5 69/34/5
f 70/10/5 69/34/5 71/17/5
f 67/35/5 66/3/5 72/36/5
f 72/36/5 66/3/5 71/2/5
f 75/37/6 73/38/6 74/12/6
f 76/4/6 74/12/6 73/38/6
f 78/39/6 74/12/6 77/11/6
f 75/40/6 74/12/6 78/39/6
f 77/11/6 79/18/6 78/41/6
f 80/42/6 78/41/6 79/18/6
f 80/43/6 79/1/6 73/44/6
f 73/44/6 79/1/6 76/4/6
f 83/34/6 81/17/6 82/10/6
f 84/33/6 81/17/6 83/34/6
f 86/32/6 83/31/6 85/9/6
f 82/10/6 85/9/6 83/31/6
f 85/9/6 87/29/6 86/30/6
f 88/3/6 87/29/6 85/9/6
f 84/36/6 88/3/6 81/2/6
f 87/35/6 88/3/6 84/36/6
f 91/42/5 89/41/5 90/18/5
f 92/11/5 90/18/5 89/41/5
f 94/40/5 93/12/5 89/39/5
f 89/39/5 93/12/5 92/11/5
f 96/4/5 93/12/5 95/38/5
f 94/37/5 95/38/5 93/12/5
f 95/44/5 90/1/5 96/4/5
f 91/43/5 90/1/5 95/44/5
f 64/45/1 63/46/1 61/28/1 62/27/1
