# Blender 5.0.1
# www.blender.org
mtllib BP_Purple_Tree_001_MF.mtl
o SM_Purple_Tree_B_001.001
v 100.000488 -199.999451 0.000000
v 0.000488 -99.999451 0.000000
v 100.000488 -99.999359 -0.000031
v 0.000488 -199.999451 0.000000
v 100.000488 -199.999451 100.000000
v 0.000488 -199.999451 100.000000
v 0.000488 -199.999451 0.000000
v 100.000488 -199.999451 0.000000
v 100.000488 -99.999374 100.000000
v 100.000488 -199.999451 100.000000
v 100.000488 -199.999451 0.000000
v 100.000488 -99.999359 -0.000031
v -99.999512 -199.999451 0.000000
v -99.999512 -99.999451 0.000000
v -99.999512 -199.999451 100.000000
v -99.999512 -199.999451 0.000000
v -99.999512 -199.999451 100.000000
v -99.999512 -99.999451 100.000000
v -99.999512 -99.999451 0.000000
v -99.999512 -199.999451 0.000000
v 0.000366 0.000851 0.000000
v 100.000488 0.000896 0.000000
v -99.999756 0.000759 0.000000
v -99.999680 0.000690 100.000000
v -99.999756 0.000759 0.000000
v 200.000488 -99.999146 0.000000
v 200.000488 0.000851 0.000000
v 100.000397 0.000935 99.999939
v 200.000488 -99.999146 100.000000
v 200.000488 0.000851 100.000000
v 100.000488 -99.999374 100.000000
v 100.000488 -99.999374 100.000000
v 200.000488 -99.999146 0.000000
v 200.000488 -99.999146 100.000000
v 100.000488 -99.999359 -0.000031
v 200.000488 0.000851 100.000000
v 200.000488 -99.999146 100.000000
v 200.000488 -99.999146 0.000000
v 200.000488 0.000851 0.000000
v 200.000488 100.000854 0.000000
v 100.000488 100.001038 -0.000031
v 200.000488 100.000854 100.000000
v 100.000366 100.000992 99.999939
v 200.000488 100.000854 100.000000
v 200.000488 100.000854 0.000000
v 200.000488 100.000854 100.000000
v 100.000488 100.001038 -0.000031
v 100.000366 100.000992 99.999939
v 200.000488 100.000854 0.000000
v 0.000244 200.000732 0.000000
v 100.000488 200.000916 0.000000
v 0.000244 100.000946 0.000000
v 0.000244 200.000732 100.000000
v 100.000488 200.000916 100.000000
v 0.000122 100.000854 99.999969
v 100.000366 100.000992 99.999939
v 100.000488 200.000916 0.000000
v 100.000488 200.000916 100.000000
v 100.000488 100.001038 -0.000031
v 0.000244 200.000732 100.000000
v 100.000488 200.000916 100.000000
v 100.000488 200.000916 0.000000
v 0.000244 200.000732 0.000000
v -100.000000 200.000549 100.000000
v -100.000000 100.000763 100.000000
v -100.000000 200.000549 100.000000
v -100.000000 200.000549 0.000000
v -100.000000 100.000763 100.000000
v -100.000000 200.000549 100.000000
v -100.000000 200.000549 0.000000
v -100.000000 100.000763 0.000000
v -100.000000 100.000763 0.000000
v -99.999680 0.000690 100.000000
v 0.000328 0.000782 99.999969
v 100.000488 -199.999451 199.999969
v 0.000488 -199.999451 199.999969
v 100.000488 -99.999451 199.999969
v 100.000488 -199.999451 199.999969
v -99.999512 -199.999451 199.999969
v -99.999512 -199.999451 199.999969
v -99.999512 -99.999451 199.999969
v 100.000488 0.000668 199.999939
v 100.000397 0.000935 99.999939
v -99.999512 0.000553 199.999969
v 0.000488 0.000603 199.999969
v 0.000328 0.000782 99.999969
v -99.999680 0.000690 100.000000
v -99.999512 0.000553 199.999969
v 100.000488 0.000668 199.999939
v 100.000397 0.000935 99.999939
v 100.000488 -99.999451 199.999969
v 0.000488 -99.999435 199.999954
v 0.000488 -199.999451 199.999969
v 100.000488 -199.999451 199.999969
v -99.999512 -99.999451 199.999969
v -99.999512 -199.999451 199.999969
v 0.000488 0.000603 199.999969
v 100.000488 0.000668 199.999939
v -99.999512 0.000553 199.999969
v 100.000488 100.001404 199.999847
v 0.000488 100.001404 199.999847
v 0.000488 0.001400 199.999847
v 100.000488 0.001400 199.999847
v 100.000488 0.001400 199.999847
v 100.000488 100.001099 99.999878
v 100.000488 100.001404 199.999847
v 100.000488 0.001064 99.999954
v 0.000488 100.001404 199.999847
v 100.000488 100.001404 199.999847
v 100.000488 100.001099 99.999878
v 0.000244 100.001007 99.999817
v 0.000488 0.001400 199.999847
v 0.000488 100.001404 199.999847
v 0.000244 100.001007 99.999817
v 0.000244 0.001217 99.999817
v 100.000488 -99.999847 100.000000
v 200.000488 -200.000000 100.000000
v 200.000488 -99.999786 100.000000
v 100.000488 -200.000000 100.000000
v 200.000488 -200.000000 100.000000
v 100.000488 -200.000000 100.000000
v 100.000488 -200.000000 0.000000
v 200.000488 -200.000000 0.000000
v 200.000488 -99.999786 100.000000
v 200.000488 -200.000000 100.000000
v 200.000488 -200.000000 0.000000
v 200.000488 -99.999786 -0.000031
v 200.000488 0.000301 100.000000
v 300.000488 -99.999695 100.000000
v 300.000488 0.000301 100.000000
v 200.000488 -99.999786 100.000000
v 300.000488 -99.999695 0.000000
v 300.000488 -99.999695 100.000000
v 200.000488 -99.999786 -0.000031
v 300.000488 0.000301 100.000000
v 300.000488 -99.999695 100.000000
v 300.000488 -99.999695 0.000000
v 300.000488 0.000301 0.000000
v 300.000488 100.000305 100.000000
v 200.000488 100.000305 100.000000
v 300.000488 100.000305 100.000000
v 300.000488 100.000305 0.000000
v 200.000488 100.000305 100.000000
v 300.000488 100.000305 100.000000
v 300.000488 100.000305 0.000000
v 200.000488 100.000305 -0.000031
v 200.000488 200.000183 100.000000
v 100.000488 200.000183 99.999939
v 100.000488 100.000305 99.999939
v 200.000488 100.000305 100.000000
v 200.000488 200.000183 0.000000
v 200.000488 200.000183 100.000000
v 200.000488 100.000305 -0.000031
v 100.000488 200.000183 99.999939
v 200.000488 200.000183 100.000000
v 200.000488 200.000183 0.000000
v 100.000488 200.000061 0.000061
v 200.000488 0.000301 200.000015
v 100.000488 0.000484 199.999954
v 100.000488 -99.999695 200.000015
v 200.000488 -99.999695 200.000015
v 200.000488 -99.999695 200.000015
v 100.000488 -99.999695 200.000015
v 100.000488 -99.999847 100.000000
v 200.000488 -99.999695 200.000015
v 200.000488 0.000301 100.000000
v 200.000488 0.000301 200.000015
v 200.000488 100.000305 200.000015
v 100.000488 100.000488 199.999878
v 200.000488 100.000305 200.000015
v 100.000488 100.000488 199.999878
v 200.000488 100.000305 200.000015
v 100.000488 100.000305 99.999939
v 0.000244 299.999756 100.000000
v 100.000488 299.999939 100.000000
v 0.000244 199.999939 99.999908
v 100.000488 200.000183 99.999939
v 100.000488 299.999939 0.000000
v 100.000488 299.999939 100.000000
v 100.000488 200.000061 0.000061
v 0.000244 299.999756 100.000000
v 100.000488 299.999939 100.000000
v 100.000488 299.999939 0.000000
v 0.000244 299.999756 0.000000
v -100.000000 299.999573 100.000000
v -100.000000 199.999695 99.999939
v -100.000000 299.999573 100.000000
v -100.000000 299.999573 0.000000
v -100.000000 199.999695 99.999939
v -100.000000 299.999573 100.000000
v -100.000000 299.999573 0.000000
v -100.000000 199.999573 0.000061
v -200.000000 199.999512 100.000000
v -100.000000 99.999878 99.999908
v -200.000000 99.999573 100.000000
v -200.000000 199.999512 100.000000
v -100.000000 199.999695 99.999939
v -100.000000 199.999573 0.000061
v -200.000000 199.999512 0.000000
v -200.000000 199.999512 100.000000
v -200.000168 99.999695 0.000061
v -200.000000 99.999573 100.000000
v -200.000000 199.999512 0.000000
v 0.000244 200.000183 199.999802
v 100.000488 200.000366 199.999802
v 0.000244 100.000427 199.999817
v 100.000488 100.000488 199.999878
v 100.000488 200.000366 199.999802
v 100.000488 100.000305 99.999939
v 0.000244 200.000183 199.999802
v 100.000488 200.000366 199.999802
v 0.000244 199.999939 99.999908
v -100.000000 200.000000 199.999802
v -100.000000 100.000183 199.999802
v -100.000000 200.000000 199.999802
v -100.000000 100.000183 199.999802
v -100.000000 200.000000 199.999802
v -100.000000 99.999878 99.999908
v 0.000244 0.000607 199.999817
v -100.000000 0.000423 199.999802
v -100.000000 0.000423 199.999802
v -100.000000 -0.000065 99.999939
v -100.000000 -0.000065 99.999939
v -200.000000 -0.000309 100.000000
v -200.000244 -0.000065 0.000092
v -200.000000 -0.000309 100.000000
v -100.000000 -100.000183 100.000000
v -200.000000 -100.000183 100.000000
v -200.000168 -100.000031 0.000061
v -200.000000 -100.000183 100.000000
v -100.000000 -200.000031 100.000000
v -200.000000 -200.000122 100.000000
v -100.000000 -200.000031 100.000000
v -200.000000 -200.000122 100.000000
v -200.000000 -200.000122 0.000000
v -100.000000 -200.000031 0.000000
v -200.000000 -200.000122 0.000000
v -200.000000 -200.000122 100.000000
v 0.000000 -299.999939 100.000000
v 0.000000 -199.999939 100.000000
v -100.000000 -299.999939 100.000000
v 0.000000 -299.999939 100.000000
v -100.000000 -299.999939 100.000000
v -100.000000 -299.999939 0.000000
v 0.000000 -299.999939 0.000000
v 0.000000 -199.999939 100.000000
v 0.000000 -299.999939 100.000000
v 0.000000 -299.999939 0.000000
v 0.000000 -199.999939 0.000000
v -100.000000 -299.999939 100.000000
v -100.000000 -200.000031 100.000000
v -100.000000 -200.000031 0.000000
v -100.000000 -299.999939 0.000000
v 100.000488 100.000183 0.000000
v 100.000488 200.000000 -99.999817
v 100.000488 100.000183 -99.999908
v 0.000244 199.999817 -99.999817
v 0.000244 199.999817 0.000092
v 100.000488 200.000000 -99.999817
v -100.000000 199.999634 -99.999817
v -100.000168 99.999817 -99.999817
v -100.000168 99.999695 0.000122
v -100.000000 199.999634 -99.999817
v 100.000488 -99.999664 0.000000
v 100.000488 -99.999512 -99.999939
v 200.000488 -99.999695 -100.000092
v 200.000488 0.000301 -0.000061
v 200.000488 -99.999695 -100.000092
v 200.000488 0.000301 -100.000092
v 200.000488 100.000305 -100.000092
v 100.000488 100.000183 -99.999908
v 100.000488 100.000183 0.000000
v 200.000488 100.000305 -100.000092
v 0.000244 -99.999512 0.000183
v 0.000244 -99.999512 -99.999817
v -100.000168 -99.999847 0.000122
v -100.000244 -99.999695 -99.999817
v -200.000168 99.999695 0.000061
v -100.000168 99.999695 0.000122
v -100.000168 99.999817 -99.999817
v -200.000488 99.999939 -99.999817
v -200.000488 0.000118 -99.999817
v -200.000488 99.999939 -99.999817
v -200.000168 -100.000031 0.000061
v -200.000488 -99.999695 -99.999817
v -200.000488 -99.999695 -99.999817
vn -0.0000 -0.0000 -1.0000
vn -0.0000 -1.0000 -0.0000
vn 1.0000 -0.0000 -0.0000
vn -1.0000 -0.0000 -0.0000
vn -0.0000 -0.0000 1.0000
vn -0.0000 1.0000 -0.0000
vt 0.250000 0.500000
vt 0.500000 0.500000
vt 0.500000 0.750000
vt 0.250000 0.750000
vt 1.000000 0.500000
vt 1.000000 0.750000
vt 0.750000 0.750000
vt 0.750000 0.500000
s 1
usemtl MI_End_MeshFades_001_NF
f 92/1/5 91/2/5 98/3/5 97/4/5
f 45/5/3 44/6/3 36/7/3 39/8/3
f 35/8/2 33/5/2 34/6/2 32/7/2
f 7/2/2 6/3/2 15/4/2 16/1/2
f 3/5/1 22/6/1 27/7/1 26/8/1
f 71/8/4 25/5/4 24/6/4 68/7/4
f 52/5/1 50/6/1 51/7/1 41/8/1
f 86/2/6 85/3/6 89/4/6 90/1/6
f 13/2/1 14/3/1 2/4/1 4/1/1
f 67/5/6 66/6/6 60/7/6 63/8/6
f 49/8/6 47/5/6 48/6/6 46/7/6
f 2/2/1 21/3/1 22/4/1 3/1/1
f 87/2/6 84/3/6 85/4/6 86/1/6
f 23/5/1 72/6/1 52/7/1 21/8/1
f 20/2/4 17/3/4 18/4/4 19/1/4
f 95/1/5 92/2/5 97/3/5 99/4/5
f 8/2/2 5/3/2 6/4/2 7/1/2
f 24/1/4 18/2/4 81/3/4 88/4/4
f 31/8/5 29/5/5 30/6/5 28/7/5
f 14/2/1 23/3/1 21/4/1 2/1/1
f 12/2/3 9/3/3 10/4/3 11/1/3
f 94/2/5 91/3/5 92/4/5 93/1/5
f 21/5/1 52/6/1 41/7/1 22/8/1
f 63/5/6 60/6/6 61/7/6 62/8/6
f 9/2/3 77/3/3 78/4/3 10/1/3
f 5/2/2 75/3/2 76/4/2 6/1/2
f 71/5/4 68/6/4 69/7/4 70/8/4
f 96/1/5 93/2/5 92/3/5 95/4/5
f 30/5/5 42/6/5 43/7/5 28/8/5
f 22/5/1 41/6/1 40/7/1 27/8/1
f 59/8/3 57/5/3 58/6/3 56/7/3
f 39/5/3 36/6/3 37/7/3 38/8/3
f 6/2/2 76/3/2 79/4/2 15/1/2
f 25/1/4 19/2/4 18/3/4 24/4/4
f 74/5/5 55/6/5 65/7/5 73/8/5
f 83/2/3 82/3/3 77/4/3 9/1/3
f 65/8/5 55/5/5 53/6/5 64/7/5
f 17/2/4 80/3/4 81/4/4 18/1/4
f 4/2/1 2/3/1 3/4/1 1/1/1
f 55/8/5 43/5/5 54/6/5 53/7/5
usemtl MI_End_MeshFades_001_Leaf_NF
f 245/8/2 242/7/2 243/3/2 244/2/2
f 138/8/3 135/7/3 136/3/3 137/2/3
f 273/2/6 271/8/6 272/7/6 146/3/6
f 203/2/4 201/8/4 202/7/4 200/3/4
f 119/2/5 117/8/5 118/7/5 116/3/5
f 140/8/5 147/7/5 148/3/5 149/2/5
f 199/8/6 196/7/6 197/3/6 198/2/6
f 236/8/2 233/7/2 234/3/2 235/2/2
f 192/8/4 189/7/4 190/3/4 191/2/4
f 206/2/5 169/8/5 205/7/5 204/3/5
f 218/8/4 216/7/4 217/3/4 189/2/4
f 263/2/4 261/8/4 262/7/4 192/3/4
f 173/8/6 171/7/6 172/3/6 143/2/6
f 127/8/3 124/7/3 125/3/3 126/2/3
f 184/8/6 181/7/6 182/3/6 183/2/6
f 107/2/3 105/8/3 106/7/3 104/3/3
f 232/2/5 231/8/5 227/7/5 228/3/5
f 115/8/4 112/7/4 113/3/4 114/2/4
f 220/2/5 219/8/5 206/7/5 214/3/5
f 283/2/4 282/8/4 225/7/4 201/3/4
f 142/8/3 141/7/3 135/3/3 138/2/3
f 269/2/3 270/8/3 153/7/3 267/3/3
f 124/2/3 166/8/3 167/7/3 165/3/3
f 146/8/6 143/7/6 144/3/6 145/2/6
f 123/8/2 120/7/2 121/3/2 122/2/2
f 153/2/3 151/8/3 152/7/3 150/3/3
f 130/8/5 139/7/5 140/3/5 128/2/5
f 212/8/6 210/7/6 211/3/6 154/2/6
f 131/8/2 162/7/2 163/3/2 164/2/2
f 225/2/4 229/8/4 230/7/4 226/3/4
f 103/8/5 100/7/5 101/3/5 102/2/5
f 214/2/5 206/8/5 204/7/5 213/3/5
f 186/2/5 176/8/5 174/7/5 185/3/5
f 158/8/5 168/7/5 169/3/5 159/2/5
f 201/2/4 225/8/4 226/7/4 202/3/4
f 157/8/6 154/7/6 155/3/6 156/2/6
f 111/8/6 108/7/6 109/3/6 110/2/6
f 228/2/5 227/8/5 223/7/5 224/3/5
f 259/2/6 257/8/6 258/7/6 157/3/6
f 176/2/5 148/8/5 175/7/5 174/3/5
f 269/8/3 267/7/3 127/3/3 268/2/3
f 285/2/2 277/8/2 276/7/2 284/3/2
f 229/2/4 237/8/4 238/7/4 230/3/4
f 282/2/4 286/8/4 229/7/4 225/3/4
f 277/2/2 275/8/2 274/7/2 276/3/2
f 265/8/2 264/7/2 274/3/2 275/2/2
f 241/2/5 239/8/5 240/7/5 231/3/5
f 188/8/6 187/7/6 181/3/6 184/2/6
f 118/2/5 129/8/5 130/7/5 128/3/5
f 150/8/3 170/7/3 167/3/3 166/2/3
f 249/8/3 246/7/3 247/3/3 248/2/3
f 180/2/3 178/8/3 179/7/3 177/3/3
f 260/8/6 198/7/6 258/3/6 257/2/6
f 212/2/6 197/8/6 215/7/6 210/3/6
f 266/8/2 134/7/2 264/3/2 265/2/2
f 161/8/5 158/7/5 159/3/5 160/2/5
f 134/2/2 132/8/2 133/7/2 131/3/2
f 256/2/3 255/8/3 180/7/3 254/3/3
f 195/2/5 194/8/5 186/7/5 193/3/5
f 209/2/3 177/8/3 208/7/3 207/3/3
f 224/2/5 223/8/5 194/7/5 195/3/5
f 222/8/4 221/7/4 216/3/4 218/2/4
f 281/8/6 278/7/6 279/3/6 280/2/6
f 253/8/4 250/7/4 251/3/4 252/2/4
