# Blender 5.0.1
# www.blender.org
mtllib BP_PowerStation_Trigger.mtl
o SK_PowerStation.001
v 36.717171 -38.266891 249.950043
v -38.266823 -36.717148 249.950043
v -38.266823 -36.717148 174.950043
v 36.717148 -38.266884 174.950043
v 36.717171 -38.266891 249.950043
v 38.266914 36.717094 249.950043
v -38.266823 -36.717148 249.950043
v -36.717079 38.266838 249.950043
v 38.266914 36.717094 174.950043
v -36.717079 38.266838 174.950043
v -36.717079 38.266838 249.950043
v 38.266914 36.717094 249.950043
v 36.717148 -38.266884 174.950043
v -38.266823 -36.717148 174.950043
v -36.717079 38.266838 174.950043
v 38.266914 36.717094 174.950043
v 36.717171 -38.266891 249.950043
v 36.717148 -38.266884 174.950043
v 38.266914 36.717094 249.950043
v 38.266914 36.717094 174.950043
v -38.266823 -36.717148 249.950043
v -36.717079 38.266838 174.950043
v -38.266823 -36.717148 174.950043
v -36.717079 38.266838 249.950043
v 62.499992 87.500000 81.250000
v -62.500000 87.500000 81.250000
v 62.499981 87.500000 175.000000
v -62.500000 87.500000 175.000000
v 150.000000 -62.500000 -0.000000
v 150.000000 62.500000 0.000000
v 150.000000 62.500000 56.250000
v 150.000000 -62.500000 56.250000
v -62.500000 87.500000 81.250000
v -62.500000 150.000000 56.250000
v -62.500000 87.500000 56.250000
v -62.500000 150.000000 81.250000
v 62.499992 87.500000 81.250000
v -62.500000 150.000000 81.250000
v -62.500000 87.500000 81.250000
v 62.500000 150.000000 81.250000
v 62.500000 87.500000 56.250000
v 62.500000 150.000000 56.250000
v 62.499992 87.500000 81.250000
v 62.500000 150.000000 81.250000
v 62.500000 150.000000 56.250000
v -62.500000 150.000000 81.250000
v 62.500000 150.000000 81.250000
v -62.500000 150.000000 56.250000
v -87.500000 -62.500000 81.250000
v -150.000000 -62.500000 56.250000
v -87.500000 -62.500000 56.250000
v -150.000000 -62.500000 81.250000
v -87.500000 -62.500000 81.250000
v -87.500000 62.500000 81.250000
v -150.000000 -62.500000 81.250000
v -150.000000 62.500000 81.250000
v -150.000000 -62.500000 81.250000
v -150.000000 62.500000 56.250000
v -150.000000 -62.500000 56.250000
v -150.000000 62.500000 81.250000
v -87.500000 62.500000 56.250000
v -150.000000 62.500000 81.250000
v -87.500000 62.500000 81.250000
v -150.000000 62.500000 56.250000
v 87.500000 62.500000 81.250000
v 87.499985 -62.500000 175.000000
v 87.500000 -62.500000 81.250000
v 87.499985 62.500000 175.000000
v 62.500000 150.000000 0.000000
v -62.500000 150.000000 0.000000
v 62.500000 -150.000000 56.250000
v 62.500000 -87.500000 56.250000
v 62.499992 -87.500000 81.250000
v 62.500000 -150.000000 81.250000
v 62.500000 -150.000000 81.250000
v -62.500000 -150.000000 56.250000
v 62.500000 -150.000000 56.250000
v -62.500000 -150.000000 81.250000
v 62.499992 -87.500000 81.250000
v -62.500000 -150.000000 81.250000
v 62.500000 -150.000000 81.250000
v -62.500000 -87.500000 81.250000
v -62.500000 -87.500000 56.250000
v -62.500000 -150.000000 81.250000
v -62.500000 -87.500000 81.250000
v -62.500000 -150.000000 56.250000
v 150.000000 62.500000 56.250000
v 87.500000 62.500000 56.250000
v 87.500000 62.500000 81.250000
v 150.000000 62.500000 81.250000
v 150.000000 62.500000 81.250000
v 150.000000 -62.500000 81.250000
v 62.499981 -87.500000 175.000000
v -62.500000 -87.500000 81.250000
v 62.499992 -87.500000 81.250000
v -62.500000 -87.500000 175.000000
v -150.000000 62.500000 0.000000
v -150.000000 -62.500000 -0.000000
v -62.500000 -150.000000 -0.000000
v 62.500000 -150.000000 -0.000000
v -87.500000 62.500000 175.000000
v -87.500000 -62.500000 81.250000
v -87.500000 -62.500000 175.000000
v -87.500000 62.500000 81.250000
v 62.500000 62.500000 56.250000
v 62.499992 62.500000 81.250000
v 62.499981 62.500000 175.000000
v 62.499981 87.500000 175.000000
v 62.500000 62.500000 0.000000
v 62.500000 62.500000 56.250000
v 87.500000 62.500000 0.000000
v 150.000000 62.500000 0.000000
v 62.500000 -62.500000 56.250000
v 62.500000 -62.500000 -0.000000
v 87.500000 -62.500000 -0.000000
v 87.500000 -62.500000 56.250000
v 150.000000 -62.500000 -0.000000
v 150.000000 -62.500000 56.250000
v 62.499992 62.500000 81.250000
v 87.499985 62.500000 175.000000
v 62.499981 62.500000 175.000000
v 150.000000 -62.500000 81.250000
v 150.000000 62.500000 81.250000
v 88.320374 -62.500000 81.250008
v 87.500000 62.500000 81.250000
v 87.500000 -62.500000 81.250000
v -62.500000 87.500000 175.000000
v -62.500000 62.500000 81.250000
v -62.500000 62.500000 175.000000
v -62.500000 62.500000 56.250000
v 87.500000 -62.500000 80.467003
v 62.500000 -62.500000 81.250000
v 87.500000 -62.500000 81.250000
v 87.499985 -62.500000 175.000000
v 62.499981 -62.500000 175.000000
v -62.500000 87.500000 -0.000000
v -62.500000 62.500000 0.000000
v -62.500000 150.000000 0.000000
v 150.000000 -62.500000 81.250000
v 88.320374 -62.500000 81.250008
v 62.500000 -62.500000 56.250000
v 62.500000 -62.500000 81.250000
v 62.499981 -87.500000 175.000000
v 62.499981 -62.500000 175.000000
v -87.500000 -62.500000 175.000000
v -62.500000 -62.500000 81.250000
v -62.500000 -62.500000 175.000000
v -62.500000 -62.500000 56.250000
v 62.500000 87.500000 -0.000000
v 62.500000 150.000000 0.000000
v 62.500000 62.500000 0.000000
v -62.500000 -87.500000 175.000000
v -62.500000 -62.500000 175.000000
v -62.500000 -62.500000 81.250000
v -62.500000 -62.500000 56.250000
v -62.500000 -62.500000 -0.000000
v -87.500000 -62.500000 -0.000000
v -150.000000 -62.500000 -0.000000
v -87.500000 62.500000 0.000000
v -150.000000 62.500000 0.000000
v -62.500000 62.500000 56.250000
v -62.500000 62.500000 0.000000
v 62.500000 -62.500000 -0.000000
v 62.500000 -87.500000 0.000000
v 62.500000 -150.000000 -0.000000
v -62.500000 -87.500000 0.000000
v -62.500000 -150.000000 -0.000000
v -62.500000 -62.500000 -0.000000
v -62.500000 -87.500000 175.000000
v 62.499981 -87.500000 175.000000
v 62.499981 -62.500000 175.000000
v -62.500000 -62.500000 175.000000
v 62.499981 62.500000 175.000000
v 87.499985 -62.500000 175.000000
v 87.499985 62.500000 175.000000
v -62.500000 87.500000 175.000000
v 62.499981 87.500000 175.000000
v -62.500000 62.500000 175.000000
v -87.500000 -62.500000 175.000000
v -87.500000 62.500000 175.000000
v -62.500000 62.500000 175.000000
v -87.500000 62.500000 175.000000
v -62.500000 62.500000 81.250000
v 0.000000 18.749996 174.949997
v 0.000000 18.749996 -43.799999
v 0.000000 -18.750000 174.949997
v 0.000000 -18.750000 -43.799999
v -15.770784 2.409901 -43.799999
v -15.770784 2.409901 174.949997
v 21.729218 2.409901 -43.799999
v 21.729218 2.409901 174.949997
vn -0.0207 -0.9998 -0.0000
vn -0.0000 -0.0000 1.0000
vn 0.0207 0.9998 -0.0000
vn -0.0000 -0.0000 -1.0000
vn 0.9998 -0.0207 -0.0000
vn -0.9998 0.0207 -0.0000
vn -0.0000 1.0000 -0.0000
vn 1.0000 -0.0000 -0.0000
vn -1.0000 -0.0000 -0.0000
vn -0.0000 -1.0000 -0.0000
vt 0.546875 0.296875
vt 0.609375 0.296875
vt 0.609375 0.062500
vt 0.546875 0.062500
vt 0.921875 0.296875
vt 0.921875 0.062500
vt 0.984375 0.296875
vt 0.984375 0.062500
vt 0.437256 0.671875
vt 0.625000 0.671875
vt 0.625000 0.859375
vt 0.437500 0.859375
vt 0.062500 0.875000
vt 0.218750 0.875000
vt 0.218750 0.562500
vt 0.062500 0.562500
vt 0.781250 0.500000
vt 0.781250 0.640625
vt 0.937500 0.640625
vt 0.937500 0.500000
vt 0.218750 0.500000
vt 0.062500 0.500000
vt 0.812500 0.671875
vt 0.812500 0.859375
vt 1.000000 0.859375
vt 1.000000 0.671875
vt 0.609375 0.000000
vt 0.546875 0.000000
vt 0.468750 0.500000
vt 0.468750 0.640625
vt 0.062500 0.937500
vt 0.218750 0.937500
vt 0.312500 0.640625
vt 0.312500 0.500000
vt 0.250000 0.500000
vt 0.250000 0.640625
vt 0.953125 0.906250
vt 0.953125 0.999969
vt 0.406250 0.999969
vt 0.406250 0.906250
vt 0.453125 0.062500
vt 0.453125 0.375000
vt 0.390625 0.375000
vt 0.390625 0.062500
vt 0.078125 0.375000
vt 0.078125 0.062500
vt 0.437500 0.671875
vt 0.250000 0.859375
vt 0.250000 0.671875
vt 0.984375 0.000000
vt 0.921875 0.000000
vt -0.000031 0.562500
vt -0.000031 0.875000
vt 0.000031 0.562500
vt 0.000031 0.875000
vt 0.468750 0.359375
vt 0.781250 0.359375
vt 0.015625 0.375000
vt 0.015625 0.062500
vt 0.078125 0.000000
vt 0.390625 0.000000
vt 1.000000 0.640625
vt 1.000000 0.500000
vt 0.390625 0.437500
vt 0.078125 0.437500
vt 0.437500 0.890625
vt 0.984375 0.890625
vt 0.984375 0.984375
vt 0.437500 0.984375
s 1
usemtl MI_PowerStation
f 144/1/8 143/2/8 73/3/8 142/4/8
f 68/2/8 66/5/8 67/6/8 65/3/8
f 108/5/8 107/7/8 106/8/8 43/6/8
f 18/9/5 20/10/5 19/11/5 17/12/5
f 123/13/2 125/14/2 124/15/2 122/16/2
f 117/17/10 118/18/10 116/19/10 115/20/10
f 40/16/2 38/13/2 39/14/2 37/15/2
f 61/21/7 64/22/7 62/16/7 63/15/7
f 8/23/2 7/24/2 5/25/2 6/26/2
f 82/15/2 80/16/2 81/13/2 79/14/2
f 142/4/8 73/3/8 72/27/8 141/28/8
f 51/19/10 50/18/10 158/17/10 157/20/10
f 58/18/9 97/17/9 98/29/9 59/30/9
f 90/13/7 87/31/7 88/32/7 89/14/7
f 35/33/9 136/34/9 137/35/9 130/36/9
f 174/41/2 175/42/2 173/43/2 171/44/2
f 178/45/2 172/46/2 171/44/2 173/43/2
f 44/16/8 43/15/8 41/21/8 42/22/8
f 35/27/9 130/28/9 128/4/9 33/3/9
f 110/28/7 119/4/7 89/3/7 88/27/7
f 24/11/6 22/10/6 23/47/6 21/12/6
f 12/48/3 9/49/3 10/47/3 11/12/3
f 49/3/10 146/4/10 147/1/10 145/2/10
f 26/3/7 28/2/7 27/5/7 25/6/7
f 161/50/7 61/51/7 63/6/7 183/8/7
f 104/6/9 102/3/9 103/2/9 101/5/9
f 45/52/7 48/53/7 46/13/7 47/16/7
f 154/8/9 85/6/9 152/5/9 153/7/9
f 183/8/7 63/6/7 182/5/7 181/7/7
f 34/30/9 138/29/9 136/34/9 35/33/9
f 60/16/9 58/52/9 59/53/9 57/13/9
f 87/30/7 112/29/7 111/34/7 88/33/7
f 31/30/8 32/18/8 29/17/8 30/29/8
f 119/4/7 121/1/7 120/2/7 89/3/7
f 135/7/10 132/8/10 133/6/10 134/5/10
f 131/6/10 132/8/10 113/50/10 116/51/10
f 126/14/2 124/15/2 125/14/2
f 75/13/10 78/16/10 76/54/10 77/55/10
f 45/29/7 69/56/7 70/57/7 48/17/7
f 140/15/10 116/21/10 118/22/10 139/16/10
f 133/6/10 132/8/10 131/6/10
f 4/47/1 1/12/1 2/48/1 3/49/1
f 33/3/9 128/4/9 129/1/9 127/2/9
f 180/58/2 179/59/2 172/46/2 178/45/2
f 131/14/10 116/21/10 140/15/10
f 16/47/4 13/12/4 14/48/4 15/49/4
f 73/14/8 74/13/8 71/31/8 72/32/8
f 83/51/9 85/6/9 154/8/9 155/50/9
f 91/13/8 92/16/8 32/54/8 31/55/8
f 51/27/10 148/28/10 146/4/10 49/3/10
f 56/16/2 55/13/2 53/14/2 54/15/2
f 41/19/8 149/20/8 150/17/8 42/18/8
f 172/46/2 169/60/2 170/61/2 171/44/2
f 83/33/9 166/34/9 167/29/9 86/30/9
f 49/14/10 52/13/10 50/31/10 51/32/10
f 43/6/8 106/8/8 105/50/8 41/51/8
f 168/35/9 166/34/9 83/33/9 155/36/9
f 61/19/7 159/20/7 160/17/7 64/18/7
f 77/17/10 76/29/10 99/56/10 100/57/10
f 72/33/8 164/34/8 163/35/8 141/36/8
f 96/5/10 94/6/10 95/3/10 93/2/10
f 161/62/7 162/63/7 159/20/7 61/19/7
f 51/19/10 157/20/10 156/63/10 148/62/10
f 88/33/7 111/34/7 109/35/7 110/36/7
f 115/20/10 116/19/10 113/62/10 114/63/10
f 178/45/2 173/43/2 177/64/2 176/65/2
f 36/13/9 34/31/9 35/32/9 33/14/9
f 105/62/8 151/63/8 149/20/8 41/19/8
f 72/33/8 71/30/8 165/29/8 164/34/8
f 86/22/9 84/16/9 85/15/9 83/21/9
usemtl MI_PowerStationChain
f 185/37/9 187/38/9 186/39/9 184/40/9
f 191/66/7 190/67/7 188/68/7 189/69/7
