# Blender 5.0.1
# www.blender.org
mtllib BP_PitglowLight.mtl
o SM_Lightshafts_SM_Lightshaft_1.001
v -10.000000 90.000000 0.000005
v -10.000000 90.000053 1080.000000
v 90.000000 90.000000 0.000005
v 90.000000 90.000053 1080.000000
v 46.250000 40.000053 1080.000000
v 46.250000 40.000000 0.000027
v 46.249992 140.000061 1080.000000
v 46.249992 140.000000 -0.000016
vn -0.0000 1.0000 -0.0000
vn 1.0000 -0.0000 -0.0000
vt 0.499756 0.999969
vt 0.249878 0.999969
vt 0.250000 0.031250
vt 0.500000 0.031250
s 1
usemtl M_LS_PitGlow
f 6/1/2 8/2/2 7/3/2 5/4/2
f 4/4/1 3/1/1 1/2/1 2/3/1
