# Blender 5.0.1
# www.blender.org
mtllib BP_Podium_HBH_FV_S2.mtl
o SM_FlowerVase.001
v 25.000002 -25.000015 256.250000
v -25.000002 -25.000015 256.250000
v -24.999998 -25.000013 200.000000
v 25.000004 -25.000013 200.000000
v -31.249998 31.249985 256.250000
v 31.249996 31.249983 275.000000
v 31.249998 31.249985 256.250000
v -31.249998 31.249983 275.000000
v 25.000002 -25.000015 256.250000
v 25.000004 -25.000013 200.000000
v 25.000002 24.999989 256.250000
v 25.000004 24.999990 200.000000
v -25.000002 -25.000015 256.250000
v -24.999998 24.999990 200.000000
v -24.999998 -25.000013 200.000000
v -25.000002 24.999989 256.250000
v 31.249996 -31.250013 275.000000
v -31.249998 -31.250013 275.000000
v -31.249998 -31.250015 256.250000
v 31.249998 -31.250015 256.250000
v -24.999998 24.999990 200.000000
v 25.000002 24.999989 256.250000
v 25.000004 24.999990 200.000000
v -25.000002 24.999989 256.250000
v 31.249996 -31.250013 275.000000
v 31.249998 31.249985 256.250000
v 31.249996 31.249983 275.000000
v 31.249998 -31.250015 256.250000
v -31.249998 -31.250013 275.000000
v -31.249998 31.249985 256.250000
v -31.249998 -31.250015 256.250000
v -31.249998 31.249983 275.000000
v 25.000002 24.999989 256.250000
v -25.000002 24.999989 256.250000
v -31.249998 31.249985 256.250000
v 31.249998 31.249985 256.250000
v 31.249998 -31.250015 256.250000
v -31.249998 -31.250015 256.250000
v -25.000002 -25.000015 256.250000
v 25.000002 -25.000015 256.250000
v 43.750000 -43.750019 362.500000
v -43.750000 -43.750019 362.500000
v -43.750000 -43.750015 275.000000
v 43.750000 -43.750015 275.000000
v 43.750000 -43.750019 362.500000
v 43.750000 43.749981 362.500000
v -43.750000 -43.750019 362.500000
v -43.750000 43.749981 362.500000
v 43.750000 43.749985 275.000000
v -43.750000 43.749985 275.000000
v -43.750000 43.749981 362.500000
v 43.750000 43.749981 362.500000
v 43.750000 -43.750015 275.000000
v -43.750000 -43.750015 275.000000
v -43.750000 43.749985 275.000000
v 43.750000 43.749985 275.000000
v 43.750000 -43.750019 362.500000
v 43.750000 -43.750015 275.000000
v 43.750000 43.749981 362.500000
v 43.750000 43.749985 275.000000
v -43.750000 -43.750019 362.500000
v -43.750000 43.749985 275.000000
v -43.750000 -43.750015 275.000000
v -43.750000 43.749981 362.500000
v 50.000000 -50.000019 368.750000
v -50.000000 -50.000019 368.750000
v -50.000000 -50.000015 275.000000
v 50.000000 -50.000015 275.000000
v 50.000000 -50.000019 368.750000
v 50.000000 49.999981 368.750000
v -50.000000 -50.000019 368.750000
v -50.000000 49.999981 368.750000
v 50.000000 49.999985 275.000000
v -50.000000 49.999985 275.000000
v -50.000000 49.999981 368.750000
v 50.000000 49.999981 368.750000
v 50.000000 -50.000019 368.750000
v 50.000000 -50.000015 275.000000
v 50.000000 49.999981 368.750000
v 50.000000 49.999985 275.000000
v -50.000000 -50.000019 368.750000
v -50.000000 49.999985 275.000000
v -50.000000 -50.000015 275.000000
v -50.000000 49.999981 368.750000
vn -0.0000 -1.0000 -0.0000
vn -0.0000 1.0000 -0.0000
vn 1.0000 -0.0000 -0.0000
vn -1.0000 -0.0000 -0.0000
vn -0.0000 -0.0000 -1.0000
vn -0.0000 -0.0000 1.0000
vt 0.416504 0.937500
vt 0.416504 0.999969
vt 0.208252 0.999969
vt 0.208252 0.937500
vt -0.000906 0.584473
vt -0.000906 0.291992
vt 0.291504 0.291992
vt 0.291504 0.584473
vt 0.333252 0.729248
vt 0.333252 0.916687
vt 0.166626 0.916687
vt 0.166626 0.729248
vt 0.000031 0.916687
vt 0.000031 0.729248
vt 0.000031 0.937500
vt 0.000031 0.999969
vt 0.229126 0.916687
vt 0.395752 0.916687
vt 0.020828 0.916687
vt 0.187500 0.916687
vt 0.583496 0.000000
vt 0.583496 0.292480
vt 0.291016 0.292480
vt 0.291016 0.000000
vt 0.666504 0.999969
vt 0.666504 0.666748
vt 1.000000 0.666748
vt 1.000000 0.999969
vt 0.583984 0.291992
vt 0.583984 0.584473
vt 1.000000 0.000000
vt 1.000000 0.333496
vt 0.687500 0.333496
vt 0.687500 0.000000
vt -0.000453 0.292480
vt -0.000453 0.000000
vt 0.291992 0.000000
vt 0.291992 0.292480
vt 0.687500 0.666748
s 1
usemtl MI_FlowerVase
f 20/1/1 17/2/1 18/3/1 19/4/1
f 4/9/1 1/10/1 2/11/1 3/12/1
f 16/13/4 14/14/4 15/12/4 13/11/4
f 8/2/2 6/3/2 7/4/2 5/1/2
f 24/10/2 22/11/2 23/12/2 21/9/2
f 28/15/3 26/4/3 27/3/3 25/16/3
f 35/1/5 33/17/5 34/18/5
f 36/4/5 33/17/5 35/1/5
f 39/17/5 37/1/5 38/4/5
f 40/18/5 37/1/5 39/17/5
f 40/19/5 36/4/5 37/15/5
f 33/20/5 36/4/5 40/19/5
f 34/19/5 39/20/5 35/15/5
f 38/4/5 35/15/5 39/20/5
f 10/14/3 12/12/3 11/11/3 9/13/3
f 32/16/4 30/15/4 31/4/4 29/3/4
usemtl MI_FlowerVase
f 64/5/4 62/6/4 63/7/4 61/8/4
f 56/21/5 53/22/5 54/23/5 55/24/5
f 58/6/3 60/7/3 59/8/3 57/5/3
f 52/8/2 49/7/2 50/29/2 51/30/2
f 44/29/1 41/30/1 42/8/1 43/7/1
f 48/35/6 47/36/6 45/37/6 46/38/6
usemtl MI_FlowerVase
f 72/25/6 71/26/6 69/27/6 70/28/6
f 78/31/3 80/32/3 79/33/3 77/34/3
f 76/33/2 73/32/2 74/27/2 75/39/2
f 68/27/1 65/39/1 66/33/1 67/32/1
f 84/34/4 82/31/4 83/32/4 81/33/4
