# Blender 5.0.1
# www.blender.org
mtllib BP_poles.mtl
o SM_Poles.001
v -12.500000 -12.500000 1000.000122
v -12.500000 -12.500000 -0.000047
v 12.500000 -12.500000 1000.000122
v 12.500000 -12.500000 -0.000047
v -12.500000 12.500000 -0.000047
v -12.500000 12.500000 1000.000122
v 12.500000 12.500000 -0.000047
v 12.500000 12.500000 1000.000122
v 12.500000 12.500000 -0.000047
v 12.500000 12.500000 1000.000122
v 12.500000 -12.500000 -0.000047
v 12.500000 -12.500000 1000.000122
v -12.500000 -12.500000 1000.000122
v -12.500000 12.500000 -0.000047
v -12.500000 -12.500000 -0.000047
v -12.500000 12.500000 1000.000122
vn -0.0000 -1.0000 -0.0000
vn -0.0000 1.0000 -0.0000
vn 1.0000 -0.0000 -0.0000
vn -1.0000 -0.0000 -0.0000
vt 0.600098 0.002441
vt 0.600098 0.498535
vt 0.303955 0.498535
vt 0.303955 0.002441
vt 0.903809 0.498535
vt 0.607422 0.498535
vt 0.607422 0.002441
vt 0.903809 0.002441
vt 0.298096 0.002441
vt 0.298096 0.498535
vt 0.001870 0.498535
vt 0.001870 0.002441
vt 0.640625 0.998009
vt 0.640625 0.501953
vt 0.937012 0.501953
vt 0.937012 0.998009
s 1
usemtl MI_Poles
f 8/1/2 7/2/2 5/3/2 6/4/2
f 10/5/3 12/6/3 11/7/3 9/8/3
f 4/9/1 3/10/1 1/11/1 2/12/1
f 16/13/4 14/14/4 15/15/4 13/16/4
