# Blender 5.0.1
# www.blender.org
mtllib BP_PandaMouth.mtl
o SM_PandaDoor.001
v 50.000000 0.000010 -0.000000
v -50.000019 99.999992 0.000000
v 49.999981 100.000008 -0.000000
v -50.000000 -0.000010 0.000000
v 50.000019 -99.999992 -0.000000
v -49.999981 -100.000008 0.000000
v -50.000000 -0.000010 300.000000
v 50.000000 0.000010 300.000000
v -50.000019 99.999992 300.000000
v 49.999981 100.000008 300.000000
v -49.999981 -100.000008 300.000000
v 50.000019 -99.999992 300.000000
v -50.000000 -0.000010 100.000000
v -50.000019 99.999992 100.000000
v -50.000019 99.999992 0.000000
v -50.000000 -0.000010 0.000000
v -49.999981 -100.000008 100.000000
v -49.999981 -100.000008 0.000000
v -50.000000 -0.000010 200.000000
v -50.000019 99.999992 200.000000
v -49.999981 -100.000008 200.000000
v -50.000000 -0.000010 300.000000
v -50.000019 99.999992 300.000000
v -49.999981 -100.000008 300.000000
v 50.000019 -99.999992 100.000000
v -49.999981 -100.000008 100.000000
v -49.999981 -100.000008 0.000000
v 50.000019 -99.999992 -0.000000
v 50.000019 -99.999992 200.000000
v -49.999981 -100.000008 200.000000
v 50.000019 -99.999992 300.000000
v -49.999981 -100.000008 300.000000
v 50.000000 0.000010 100.000000
v 50.000019 -99.999992 100.000000
v 50.000019 -99.999992 -0.000000
v 50.000000 0.000010 -0.000000
v 49.999981 100.000008 100.000000
v 49.999981 100.000008 -0.000000
v 50.000000 0.000010 200.000000
v 50.000019 -99.999992 200.000000
v 49.999981 100.000008 200.000000
v 50.000000 0.000010 300.000000
v 50.000019 -99.999992 300.000000
v 49.999981 100.000008 300.000000
v -50.000019 99.999992 100.000000
v 49.999981 100.000008 100.000000
v 49.999981 100.000008 -0.000000
v -50.000019 99.999992 0.000000
v -50.000019 99.999992 200.000000
v 49.999981 100.000008 200.000000
v -50.000019 99.999992 300.000000
v 49.999981 100.000008 300.000000
vn -0.0000 -0.0000 -1.0000
vn -0.0000 -0.0000 1.0000
vn -1.0000 -0.0000 -0.0000
vn -0.0000 -1.0000 -0.0000
vn 1.0000 -0.0000 -0.0000
vn -0.0000 1.0000 -0.0000
vt 0.002453 0.009277
vt 0.496826 0.009277
vt 0.496826 0.989899
vt 0.002453 0.989899
vt 0.994141 0.994263
vt 0.994141 0.005859
vt 0.503418 0.005859
vt 0.503418 0.994263
vt 0.993652 0.005859
vt 0.503418 0.994175
vt 0.993652 0.994175
vt 0.497314 0.989784
vt 0.002981 0.989784
vt 0.002981 0.008789
vt 0.497314 0.008789
vt 0.994629 0.005371
vt 0.994629 0.993683
vt 0.503906 0.993683
vt 0.503906 0.005371
vt 0.494629 0.994263
vt 0.004280 0.994263
vt 0.004280 0.005859
vt 0.494629 0.005859
vt 0.494385 0.992733
vt 0.004009 0.992733
vt 0.004009 0.004395
vt 0.494385 0.004395
vt 0.993652 0.994263
vt 0.496826 0.990280
vt 0.002533 0.990280
vt 0.002533 0.009277
vt 0.494629 0.994175
vt 0.004280 0.994175
vt 0.494385 0.994175
vt 0.004009 0.994175
vt 0.004009 0.005859
vt 0.494385 0.005859
vt 0.503418 0.005371
vt 0.503418 0.993683
vt 0.993652 0.993683
vt 0.993652 0.005371
vt 0.004387 0.004395
vt 0.494873 0.004395
vt 0.494873 0.992733
vt 0.004387 0.992733
vt 0.495117 0.994263
vt 0.004654 0.994263
vt 0.004654 0.005859
vt 0.495117 0.005859
vt 0.496826 0.008789
vt 0.496826 0.989433
vt 0.002577 0.989433
vt 0.002577 0.008789
vt 0.502930 0.005371
vt 0.502930 0.993683
vt 0.994141 0.993683
vt 0.994141 0.005371
vt 0.494385 0.993771
vt 0.004009 0.993771
vt 0.004009 0.005371
vt 0.494385 0.005371
vt 0.503418 0.993771
vt 0.993652 0.993771
vt 0.004654 0.005371
vt 0.495117 0.005371
vt 0.495117 0.993771
vt 0.004658 0.993771
vt 0.002981 0.010254
vt 0.497314 0.010254
vt 0.497314 0.990829
vt 0.002981 0.990829
vt 0.494385 0.994263
vt 0.004009 0.994263
s 1
usemtl MI_PandaDoor
f 25/1/4 29/2/4 30/3/4 26/4/4
f 41/5/5 44/6/5 42/7/5 39/8/5
f 38/9/5 37/7/5 33/10/5 36/11/5
f 13/12/3 19/13/3 20/14/3 14/15/3
f 18/16/3 17/17/3 13/18/3 16/19/3
f 6/20/1 4/21/1 1/22/1 5/23/1
f 4/24/1 2/25/1 3/26/1 1/27/1
f 19/8/3 22/7/3 23/9/3 20/28/3
f 10/2/2 9/29/2 7/30/2 8/31/2
f 29/22/4 31/23/4 32/32/4 30/33/4
f 48/34/6 45/35/6 46/36/6 47/37/6
f 16/38/3 13/39/3 14/40/3 15/41/3
f 28/42/4 25/43/4 26/44/4 27/45/4
f 45/46/6 49/47/6 50/48/6 46/49/6
f 8/50/2 7/51/2 11/52/2 12/53/2
f 21/40/3 24/41/3 22/54/3 19/55/3
f 36/56/5 33/39/5 34/38/5 35/57/5
f 33/58/5 39/59/5 40/60/5 34/61/5
f 39/62/5 42/63/5 43/41/5 40/38/5
f 37/64/5 41/65/5 39/66/5 33/67/5
f 17/68/3 21/69/3 19/70/3 13/71/3
f 49/72/6 51/73/6 52/36/6 50/37/6
