# Blender 5.0.1
# www.blender.org
mtllib BP_PreDrowned_02.mtl
o SM_1_1DrownedStatue.001
v -54.468517 52.883705 433.271484
v -55.006145 -17.689987 428.905182
v -54.719669 15.413506 466.376221
v -54.754993 19.780216 395.800507
v 44.990952 -18.445774 428.808380
v 45.528580 52.127922 433.174683
v 45.277428 14.657719 466.279358
v 45.242104 19.024429 395.703674
v 34.741253 14.507751 561.446594
v 34.738430 11.458702 572.555237
v 34.667839 0.031212 569.418640
v 34.741253 14.507751 561.446594
v 34.667839 0.031212 569.418640
v 34.634602 3.089802 558.274414
v -40.162243 14.942905 561.546936
v -40.235657 0.466372 569.519043
v -40.165066 11.893860 572.655579
v -40.235657 0.466372 569.519043
v -40.162243 14.942905 561.546936
v -40.268890 3.524958 558.374817
v -40.235657 0.466372 569.519043
v -40.268890 3.524958 558.374817
v -52.251007 3.585243 558.426453
v 47.744389 -0.044758 569.401184
v 34.634602 3.089802 558.274414
v 34.667839 0.031212 569.418640
v 34.683197 16.603508 509.040649
v 47.750160 6.186457 546.698914
v 47.759750 16.527546 509.023071
v 11.141897 16.740269 509.072144
v 34.637554 6.271963 546.680847
v 11.096252 6.408726 546.712341
v -13.944511 16.886013 509.105774
v -13.990152 6.554474 546.745972
v 11.093306 3.226572 558.305969
v -13.993101 3.372313 558.339539
v -40.220299 17.038658 509.140991
v -40.265942 6.707113 546.781189
v -52.238476 17.108482 509.157104
v -4.515246 2.185658 350.160706
v -5.294023 3.877821 200.172302
v -54.374294 -1.559813 350.377380
v -55.153072 0.132353 200.388916
v -1.551286 -45.978504 199.590393
v -50.631554 -51.416138 349.795441
v -51.410328 -49.723976 199.807007
v -0.772508 -47.670670 349.578796
v -51.410328 -49.723976 199.807007
v -50.631554 -51.416138 349.795441
v -55.153072 0.132353 200.388916
v -54.374294 -1.559813 350.377380
v -55.153072 0.132353 200.388916
v -5.294023 3.877821 200.172302
v -1.551286 -45.978504 199.590393
v -51.410328 -49.723976 199.807007
v -5.294023 3.877821 200.172302
v -0.772508 -47.670670 349.578796
v -1.551286 -45.978504 199.590393
v -4.515246 2.185658 350.160706
v -54.374294 -1.559813 350.377380
v -0.772508 -47.670670 349.578796
v -4.515246 2.185658 350.160706
v -50.631554 -51.416138 349.795441
v 44.557209 -0.015631 348.822998
v 44.605362 -7.220703 198.996140
v -5.435276 0.849413 348.765320
v -5.387119 -6.355658 198.938477
v 43.738548 -57.155495 201.397202
v -6.302092 -49.085381 351.166382
v -6.253935 -56.290451 201.339523
v 43.690395 -49.950424 351.224030
v -6.253935 -56.290451 201.339523
v -6.302092 -49.085381 351.166382
v -5.387119 -6.355658 198.938477
v -5.435276 0.849413 348.765320
v -5.387119 -6.355658 198.938477
v 44.605362 -7.220703 198.996140
v 43.738548 -57.155495 201.397202
v -6.253935 -56.290451 201.339523
v 44.605362 -7.220703 198.996140
v 43.690395 -49.950424 351.224030
v 43.738548 -57.155495 201.397202
v 44.557209 -0.015631 348.822998
v -5.435276 0.849413 348.765320
v 43.690395 -49.950424 351.224030
v 44.557209 -0.015631 348.822998
v -6.302092 -49.085381 351.166382
v 45.214195 0.018875 502.555420
v -54.626747 19.152443 278.299500
v -54.782169 0.871563 502.555603
v 45.369614 18.299755 278.299316
v 44.732201 -56.449562 272.205444
v 44.576782 -74.730438 496.461487
v -55.264160 -55.596874 272.205658
v -55.419586 -73.877747 496.461731
v -55.264160 -55.596874 272.205658
v -55.419586 -73.877747 496.461731
v -54.626747 19.152443 278.299500
v -54.782169 0.871563 502.555603
v 45.369614 18.299755 278.299316
v -55.264160 -55.596874 272.205658
v -54.626747 19.152443 278.299500
v 44.732201 -56.449562 272.205444
v 45.369614 18.299755 278.299316
v 44.576782 -74.730438 496.461487
v 44.732201 -56.449562 272.205444
v 45.214195 0.018875 502.555420
v -54.782169 0.871563 502.555603
v 44.576782 -74.730438 496.461487
v 45.214195 0.018875 502.555420
v -55.419586 -73.877747 496.461731
v -104.467064 53.261604 433.319885
v -104.969368 -21.678804 499.529297
v -54.468517 52.883705 433.271484
v -54.970821 -22.056698 499.480896
v -54.754993 19.780216 395.800507
v -105.255844 -54.782295 462.058289
v -104.753540 20.158112 395.848907
v -55.257301 -55.160187 462.009888
v -104.467064 53.261604 433.319885
v -105.255844 -54.782295 462.058289
v -104.969368 -21.678804 499.529297
v -104.753540 20.158112 395.848907
v -104.467064 53.261604 433.319885
v -54.468517 52.883705 433.271484
v -54.754993 19.780216 395.800507
v -104.753540 20.158112 395.848907
v -55.257301 -55.160187 462.009888
v -54.468517 52.883705 433.271484
v -54.970821 -22.056698 499.480896
v -54.754993 19.780216 395.800507
v -55.257301 -55.160187 462.009888
v -104.969368 -21.678804 499.529297
v -105.255844 -54.782295 462.058289
v -54.970821 -22.056698 499.480896
v 45.528580 52.127922 433.174683
v 45.026276 -22.812485 499.384094
v 95.527130 51.750031 433.126282
v 95.024826 -23.190376 499.335632
v 95.240654 18.646538 395.655273
v 44.739796 -55.915977 461.913025
v 45.242104 19.024429 395.703674
v 94.738342 -56.293869 461.864685
v 45.528580 52.127922 433.174683
v 44.739796 -55.915977 461.913025
v 45.026276 -22.812485 499.384094
v 45.242104 19.024429 395.703674
v 45.528580 52.127922 433.174683
v 95.527130 51.750031 433.126282
v 95.240654 18.646538 395.655273
v 45.242104 19.024429 395.703674
v 94.738342 -56.293869 461.864685
v 95.527130 51.750031 433.126282
v 95.024826 -23.190376 499.335632
v 95.240654 18.646538 395.655273
v 94.738342 -56.293869 461.864685
v 45.026276 -22.812485 499.384094
v 44.739796 -55.915977 461.913025
v 95.024826 -23.190376 499.335632
v -54.719669 15.413506 466.376221
v 45.277428 14.657719 466.279358
v -55.006145 -17.689987 428.905182
v 44.990952 -18.445774 428.808380
v 44.990952 -18.445774 428.808380
v -54.719669 15.413506 466.376221
v -55.006145 -17.689987 428.905182
v 45.277428 14.657719 466.279358
v 11.245176 30.530937 553.333252
v -13.742113 43.910461 505.150024
v -13.754381 30.676167 553.366760
v 11.257441 43.765236 505.116516
v 11.096252 6.423008 546.716187
v -13.891035 19.802544 498.532959
v 11.108519 19.657307 498.499512
v -13.903301 6.568243 546.749695
v -13.891035 19.802544 498.532959
v -13.903301 6.568243 546.749695
v -13.742113 43.910461 505.150024
v -13.754381 30.676167 553.366760
v 11.257441 43.765236 505.116516
v -13.891035 19.802544 498.532959
v -13.742113 43.910461 505.150024
v 11.108519 19.657307 498.499512
v 11.257441 43.765236 505.116516
v 11.096252 6.423008 546.716187
v 11.108519 19.657307 498.499512
v 11.245176 30.530937 553.333252
v -13.754381 30.676167 553.366760
v -13.903301 6.568243 546.749695
v 11.245176 30.530937 553.333252
v 11.096252 6.423008 546.716187
v -52.238476 17.108482 509.157104
v -52.834164 -79.323227 482.688782
v -52.843754 -89.664314 520.364563
v -52.248062 6.767399 546.832886
v -52.846706 -92.846474 531.958191
v -52.251007 3.585243 558.426453
v -52.849529 -95.895531 543.066895
v -52.253830 0.536186 569.535156
v -52.864834 -112.408997 603.230591
v -52.269142 -15.977283 629.698914
v -52.834164 -79.323227 482.688782
v -52.238476 17.108482 509.157104
v -40.220299 17.038658 509.140991
v -40.815987 -79.393051 482.672668
v -13.944511 16.886013 509.105774
v -14.540201 -79.545700 482.637451
v 11.141897 16.740269 509.072144
v 10.546207 -79.691437 482.603821
v 34.683197 16.603508 509.040649
v 34.087509 -79.828201 482.572327
v 47.759750 16.527546 509.023071
v 47.164062 -79.904167 482.554810
v -52.248062 6.767399 546.832886
v 47.747211 3.004299 558.292480
v 47.759750 16.527546 509.023071
v 47.154472 -90.245262 520.230591
v 47.164062 -79.904167 482.554810
v 47.750160 6.186457 546.698914
v 47.151524 -93.427406 531.824158
v 47.747211 3.004299 558.292480
v 47.148701 -96.476479 542.932861
v 47.744389 -0.044758 569.401184
v 47.133396 -112.989960 603.096619
v 47.729080 -16.558228 629.564941
v -52.864834 -112.408997 603.230591
v -40.250965 -16.047100 629.682800
v -52.269142 -15.977283 629.698914
v -40.846657 -112.478821 603.214539
v -13.975178 -16.199753 629.647583
v -14.570869 -112.631477 603.179321
v 11.111231 -16.345509 629.614014
v 10.515539 -112.777206 603.145691
v 34.652531 -16.482258 629.582458
v 34.056843 -112.913986 603.114136
v 47.729080 -16.558228 629.564941
v 47.133396 -112.989960 603.096619
v 11.199953 14.644524 561.478088
v 34.738430 11.458702 572.555237
v 34.741253 14.507751 561.446594
v 11.197128 11.595459 572.586792
v -13.886454 14.790260 561.511719
v -13.889278 11.741199 572.620422
v -40.162243 14.942905 561.546936
v -40.165066 11.893860 572.655579
v 11.093306 3.226572 558.305969
v 34.741253 14.507751 561.446594
v 34.634602 3.089802 558.274414
v 11.199953 14.644524 561.478088
v -13.993101 3.372313 558.339539
v -13.886454 14.790260 561.511719
v -40.268890 3.524958 558.374817
v -40.162243 14.942905 561.546936
v 34.738430 11.458702 572.555237
v 11.126537 0.167982 569.450195
v 34.667839 0.031212 569.418640
v 11.197128 11.595459 572.586792
v -13.959871 0.313719 569.483887
v -13.889278 11.741199 572.620422
v -40.235657 0.466372 569.519043
v -40.165066 11.893860 572.655579
v 47.729080 -16.558228 629.564941
v 34.652531 -16.482258 629.582458
v 11.126537 0.167982 569.450195
v 11.111231 -16.345509 629.614014
v -13.959871 0.313719 569.483887
v -13.975178 -16.199753 629.647583
v -40.250965 -16.047100 629.682800
v -52.253830 0.536186 569.535156
v -52.269142 -15.977283 629.698914
v -52.849529 -95.895531 543.066895
v -40.846657 -112.478821 603.214539
v -52.864834 -112.408997 603.230591
v -40.831352 -95.965355 543.050781
v -14.570869 -112.631477 603.179321
v -52.846706 -92.846474 531.958191
v -14.555565 -96.118011 543.015564
v 10.515539 -112.777206 603.145691
v -40.828529 -92.916283 531.942078
v -52.843754 -89.664314 520.364563
v 10.530846 -96.263741 542.981934
v 34.056843 -112.913986 603.114136
v -14.552738 -93.068939 531.906860
v -40.825577 -89.734138 520.348511
v -52.834164 -79.323227 482.688782
v -40.815987 -79.393051 482.672668
v -14.549789 -89.886795 520.313293
v -14.540201 -79.545700 482.637451
v 10.533670 -93.214668 531.873230
v 10.536621 -90.032524 520.279663
v 10.546207 -79.691437 482.603821
v 34.072147 -96.400505 542.950439
v 47.133396 -112.989960 603.096619
v 47.148701 -96.476479 542.932861
v 34.074974 -93.351433 531.841675
v 47.151524 -93.427406 531.824158
v 34.077923 -90.169289 520.248108
v 47.154472 -90.245262 520.230591
v 34.087509 -79.828201 482.572327
v 47.164062 -79.904167 482.554810
vn -1.0000 0.0076 0.0010
vn 1.0000 -0.0076 -0.0010
vn 1.0000 -0.0058 -0.0013
vn 1.0000 -0.0079 -0.0052
vn -1.0000 0.0058 0.0013
vn -1.0000 0.0079 0.0052
vn 0.0060 0.9643 0.2647
vn 0.0059 0.9643 0.2647
vn -0.0749 0.9971 0.0116
vn 0.0749 -0.9971 -0.0116
vn -0.9972 -0.0749 0.0043
vn -0.0052 0.0113 -0.9999
vn 0.9972 0.0749 -0.0043
vn 0.0052 -0.0113 0.9999
vn 0.0173 0.9987 -0.0480
vn -0.0173 -0.9987 0.0480
vn -0.9998 0.0173 -0.0012
vn 0.0003 -0.0480 -0.9988
vn 0.9998 -0.0173 0.0012
vn -0.0003 0.0480 0.9988
vn 0.0085 0.9967 0.0813
vn -0.0085 -0.9967 -0.0813
vn -1.0000 0.0085 -0.0000
vn 0.0007 0.0812 -0.9967
vn 1.0000 -0.0085 -0.0000
vn -0.0007 -0.0812 0.9967
vn 0.0057 0.6621 0.7494
vn -0.0057 -0.6621 -0.7494
vn 0.0050 0.7494 -0.6621
vn -0.0050 -0.7494 0.6621
vn -0.0060 -0.9643 -0.2647
vn 0.0002 0.2647 -0.9643
vn -0.0002 -0.2647 0.9643
vn 0.0003 0.2677 -0.9635
vt 0.187500 0.406250
vt 0.125000 0.406250
vt 0.125000 0.218750
vt 0.187500 0.218750
vt 0.375000 0.765625
vt 0.250000 0.765625
vt 0.250000 0.718750
vt 0.375000 0.718750
vt 0.015625 0.875000
vt 0.031250 0.890625
vt 0.015625 0.890625
vt 0.031250 0.875000
vt 0.015625 0.984375
vt 0.031250 0.984375
vt 0.015625 0.999969
vt 0.031250 0.999969
vt 0.234375 0.765625
vt 0.234375 0.718750
vt 0.031250 0.953125
vt 0.046875 0.953125
vt 0.046875 0.984375
vt 0.250000 0.781250
vt 0.250000 0.796875
vt 0.234375 0.796875
vt 0.234375 0.781250
vt 0.203125 0.765625
vt 0.203125 0.718750
vt 0.140625 0.765625
vt 0.125000 0.765625
vt 0.125000 0.718750
vt 0.141235 0.718750
vt 0.234375 0.875000
vt 0.203125 0.875000
vt 0.203125 0.796875
vt 0.171875 0.765625
vt 0.171875 0.718750
vt 0.140625 0.781250
vt 0.125000 0.781250
vt 0.687500 0.625000
vt 0.687500 0.750000
vt 0.625000 0.750000
vt 0.625000 0.625000
vt 0.687500 0.812500
vt 0.625000 0.812500
vt 0.187500 0.468750
vt 0.125000 0.468750
vt 0.250000 0.406250
vt 0.250000 0.218750
vt 0.125000 0.875000
vt 0.000031 0.875000
vt 0.000031 0.796875
vt 0.125000 0.796875
vt 0.562500 0.531250
vt 0.468750 0.531250
vt 0.468750 0.250000
vt 0.562500 0.250000
vt 0.593750 0.531250
vt 0.593750 0.625000
vt 0.468750 0.625000
vt 0.062500 0.656250
vt 0.000031 0.656250
vt 0.000031 0.468750
vt 0.062500 0.468750
vt 0.062500 0.718750
vt 0.125000 0.656250
vt 0.250000 0.656250
vt 0.187500 0.656250
vt 0.250000 0.468750
vt 0.421875 0.718750
vt 0.421875 0.765625
vt 0.390625 0.765625
vt 0.390625 0.718750
vt 0.687500 0.250000
vt 0.687500 0.531250
vt 0.562500 0.937500
vt 0.625000 0.937500
vt 0.625000 0.999969
vt 0.562500 0.999969
vt 0.343750 0.531250
vt 0.250000 0.531250
vt 0.250000 0.250000
vt 0.343750 0.250000
vt 0.296875 0.875000
vt 0.328125 0.875000
vt 0.328125 0.999969
vt 0.296875 0.999969
vt 0.062500 0.406250
vt 0.062500 0.218750
vt 0.562500 0.750000
vt 0.562500 0.812500
vt 0.750000 0.750000
vt 0.750000 0.625000
vt 0.015625 0.953125
vt 0.000031 0.984375
vt 0.000031 0.953125
vt 0.750000 0.937500
vt 0.750000 0.875000
vt 0.875000 0.875000
vt 0.875000 0.937500
vt 0.000031 0.406250
vt 0.000031 0.218750
vt 0.125000 0.999969
vt 0.140625 0.875000
vt 0.140625 0.999969
vt 0.875000 0.999969
vt 0.750000 0.999969
vt 0.015625 0.921875
vt 0.000031 0.921875
vt 0.187500 0.718750
vt 0.421875 0.781250
vt 0.421875 0.796875
vt 0.390625 0.796875
vt 0.390625 0.781250
vt 0.359375 0.999969
vt 0.359375 0.875000
vt 0.375000 0.875000
vt 0.375000 0.999969
vt 0.000031 0.781250
vt 0.343750 0.625000
vt 0.687500 0.999969
vt 0.687500 0.937531
vt 0.625000 0.937531
vt 0.500000 0.812500
vt 0.500000 0.937500
vt 0.453125 0.718750
vt 0.453125 0.765625
vt 0.500000 0.781250
vt 0.500000 0.796875
vt 0.484375 0.796875
vt 0.484375 0.781250
vt 0.140625 0.796875
vt 0.000031 0.765625
vt 0.484375 0.765625
vt 0.453125 0.781250
vt 0.500000 0.718750
vt 0.500000 0.765625
vt 0.484375 0.718750
vt 0.031250 0.921875
vt 0.250000 0.875000
vt 0.375000 0.796875
vt 0.375000 0.781250
vt 0.171875 0.999969
vt 0.171875 0.875000
vt 0.203125 0.999969
vt 0.406250 0.968750
vt 0.375000 0.968750
vt 0.375000 0.906250
vt 0.406250 0.906250
vt 0.500000 0.625000
vt 0.562500 0.625000
vt 0.500000 0.750000
vt 0.437500 0.906250
vt 0.437500 0.968750
vt 0.062500 0.984375
vt 0.062500 0.953125
vt 0.078125 0.953125
vt 0.078125 0.984375
vt 0.687500 0.937500
vt 0.750000 0.812500
vt 0.000031 0.718750
vt 0.468750 0.968750
vt 0.468750 0.906250
vt 0.500000 0.906250
vt 0.500000 0.968750
vt 0.171875 0.796875
vt 0.500000 0.875000
vt 0.484375 0.875000
vt 0.453125 0.796875
vt 0.453125 0.875000
vt 0.421875 0.875000
vt 0.265625 0.875000
vt 0.265625 0.999969
vt 0.250000 0.999969
vt 0.203125 0.781250
vt 0.171875 0.781250
vt 0.046875 0.921875
vt 0.046875 0.890625
vt 0.875000 0.812500
vt 0.875000 0.750000
vt 0.234375 0.999969
vt 0.000031 0.890625
vt 0.406250 0.999969
vt 0.437500 0.999969
vt 0.390625 0.875000
vt 0.468750 0.999969
s 1
usemtl Mi_1_1DrownedStatue
f 73/1/17 75/2/17 74/3/17 72/4/17
f 194/5/5 195/6/5 192/7/5 193/8/5
f 11/9/3 9/10/3 10/11/3
f 14/12/4 12/10/4 13/9/4
f 17/13/5 15/14/5 16/15/5
f 20/16/6 18/15/6 19/14/6
f 39/7/7 214/6/7 38/17/7 37/18/7
f 253/14/34 251/19/34 250/20/34 252/21/34
f 23/22/7 269/23/7 21/24/7 22/25/7
f 37/18/7 38/17/7 34/26/7 33/27/7
f 31/28/8 28/29/8 29/30/8 27/31/8
f 21/24/7 268/32/7 267/33/7 266/34/7
f 34/26/7 32/35/7 30/36/7 33/27/7
f 28/29/8 31/28/8 25/37/8 215/38/8
f 147/39/1 145/40/1 146/41/1 144/42/1
f 151/40/29 148/43/29 149/44/29 150/41/29
f 79/1/18 76/45/18 77/46/18 78/2/18
f 71/47/16 69/1/16 70/4/16 68/48/16
f 225/49/3 224/50/3 222/51/3 223/52/3
f 97/53/23 99/54/23 98/55/23 96/56/23
f 103/54/24 101/57/24 102/58/24 100/59/24
f 59/60/13 57/61/13 58/62/13 56/63/13
f 63/30/14 61/64/14 62/60/14 60/65/14
f 47/66/10 45/67/10 46/45/10 44/68/10
f 49/67/11 51/65/11 50/46/11 48/45/11
f 288/69/31 287/70/31 284/71/31 286/72/31
f 95/53/22 94/56/22 92/73/22 93/74/22
f 135/75/30 133/76/30 134/77/30 132/78/30
f 107/79/25 105/80/25 106/81/25 104/82/25
f 91/82/21 89/55/21 90/54/21 88/79/21
f 209/83/32 207/84/32 206/85/32 208/86/32
f 67/3/15 66/2/15 64/87/15 65/88/15
f 43/46/9 42/65/9 40/60/9 41/63/9
f 159/89/30 157/41/30 158/44/30 156/90/30
f 143/91/28 141/40/28 142/39/28 140/92/28
f 259/93/33 261/13/33 260/94/33 258/95/33
f 161/96/27 136/97/27 114/98/27 160/99/27
f 83/87/19 81/100/19 82/101/19 80/88/19
f 237/102/33 236/49/33 234/103/33 235/104/33
f 167/96/30 165/99/30 166/105/30 164/106/30
f 257/107/33 259/93/33 258/95/33 255/108/33
f 55/67/12 52/109/12 53/30/12 54/65/12
f 283/110/31 277/111/31 274/112/31 279/113/31
f 204/114/32 205/115/32 202/116/32 203/117/32
f 223/52/3 222/51/3 220/118/3 221/38/3
f 111/59/26 109/119/26 110/79/26 108/54/26
f 127/120/29 124/121/29 125/122/29 126/77/29
f 131/123/2 129/90/2 130/75/2 128/124/2
f 291/125/31 290/126/31 287/70/31 288/69/31
f 296/127/31 294/128/31 292/129/31 295/130/31
f 87/46/20 85/63/20 86/87/20 84/2/20
f 263/103/7 262/49/7 24/52/8 26/131/7
f 221/38/3 220/118/3 217/132/3 219/29/3
f 297/133/31 295/130/31 289/134/31 290/126/31
f 300/135/31 298/136/31 297/133/31 299/137/31
f 241/107/7 239/11/7 240/10/7 238/138/7
f 200/116/5 201/139/5 199/23/5 198/140/5
f 198/140/5 199/23/5 197/22/5 196/141/5
f 233/142/33 232/143/33 230/33/33 231/144/33
f 115/75/27 114/90/27 112/44/27 113/76/27
f 187/145/3 185/146/3 186/147/3 184/148/3
f 287/70/31 283/110/31 279/113/31 284/71/31
f 155/149/2 153/150/2 154/89/2 152/151/2
f 171/148/7 169/152/7 170/153/7 168/145/7
f 284/71/31 279/113/31 276/141/31 280/5/31
f 215/38/8 25/37/8 26/131/7 24/52/8
f 139/89/27 138/150/27 136/42/27 137/41/27
f 31/154/8 32/155/7 35/156/7 25/157/8
f 119/96/28 117/158/28 118/43/28 116/159/28
f 219/29/3 217/132/3 218/160/3 216/30/3
f 32/35/7 31/28/8 27/31/8 30/36/7
f 175/161/31 173/162/31 174/163/31 172/164/31
f 265/143/7 263/103/7 26/131/7 264/165/7
f 294/128/31 293/166/31 282/167/31 292/129/31
f 281/168/31 278/169/31 275/170/31 277/111/31
f 213/139/32 211/171/32 210/172/32 212/173/32
f 36/174/7 35/175/7 32/35/7 34/26/7
f 295/130/31 292/129/31 281/168/31 289/134/31
f 251/19/34 249/138/34 246/176/34 250/20/34
f 22/25/7 38/17/7 214/6/7 23/22/7
f 249/138/34 247/10/34 248/177/34 246/176/34
f 279/113/31 274/112/31 271/140/31 276/141/31
f 126/178/29 125/98/29 148/97/29 151/159/29
f 4/179/1 2/179/1 3/179/1 1/179/1
f 244/14/7 245/13/7 243/93/7 242/19/7
f 290/126/31 289/134/31 283/110/31 287/70/31
f 235/104/33 234/103/33 232/143/33 233/142/33
f 267/33/7 265/143/7 264/165/7 266/34/7
f 229/180/33 227/32/33 228/139/33 226/173/33
f 254/11/33 257/107/33 255/108/33 256/181/33
f 298/136/31 296/127/31 295/130/31 297/133/31
f 38/155/7 22/156/7 36/157/7 34/154/7
f 289/134/31 281/168/31 277/111/31 283/110/31
f 191/182/33 190/145/33 188/153/33 189/183/33
f 269/23/7 270/139/7 268/32/7 21/24/7
f 274/112/31 272/184/31 273/116/31 271/140/31
f 177/161/5 179/153/5 178/152/5 176/162/5
f 123/43/1 121/158/1 122/76/1 120/44/1
f 292/129/31 282/167/31 278/169/31 281/168/31
f 8/97/2 6/97/2 7/97/2 5/97/2
f 183/153/32 181/161/32 182/185/32 180/183/32
f 196/141/5 197/22/5 195/6/5 194/5/5
f 243/93/7 241/107/7 238/138/7 242/19/7
f 231/144/33 230/33/33 227/32/33 229/180/33
f 286/72/31 284/71/31 280/5/31 285/8/31
f 299/137/31 297/133/31 290/126/31 291/125/31
f 211/171/32 209/83/32 208/86/32 210/172/32
f 206/85/32 207/84/32 205/115/32 204/114/32
f 277/111/31 275/170/31 272/184/31 274/112/31
f 163/91/28 162/179/28 116/178/28 142/159/28
