# Blender 5.0.1
# www.blender.org
mtllib BP_PortraitWall.mtl
o SM_DevPortrait.001
v 12.500000 -150.000000 150.000000
v 12.500000 -150.000000 -150.000000
v 12.500000 150.000000 150.000000
v 12.500000 150.000000 -150.000000
v 12.500000 150.000000 -150.000000
v 12.500000 -150.000000 -150.000000
v 6.250000 -150.000000 -150.000000
v 6.250000 150.000000 -150.000000
v 12.500000 150.000000 150.000000
v 12.500000 150.000000 -150.000000
v 6.250000 150.000000 -150.000000
v 6.250000 150.000000 150.000000
v 12.500000 -150.000000 150.000000
v 6.250000 150.000000 150.000000
v 6.250000 -150.000000 150.000000
v 12.500000 150.000000 150.000000
v 12.500000 -150.000000 -150.000000
v 12.500000 -150.000000 150.000000
v 6.250000 -150.000000 150.000000
v 6.250000 -150.000000 -150.000000
vn 1.0000 -0.0000 -0.0000
vn -0.0000 -0.0000 -1.0000
vn -0.0000 1.0000 -0.0000
vn -0.0000 -0.0000 1.0000
vn -0.0000 -1.0000 -0.0000
vt 0.000031 0.908203
vt 0.093750 0.908203
vt 0.093750 0.906250
vt 0.000031 0.906250
vt 0.093750 0.999969
vt 0.093750 0.998047
vt 0.000031 0.998047
vt 0.000031 0.999969
vt 0.091797 0.906250
vt 0.091797 0.999969
vt 0.001953 0.999969
vt 0.001953 0.906250
s 1
usemtl WorldGridMaterial
f 7/1/2 8/2/2 5/3/2 6/4/2
f 16/5/4 14/6/4 15/7/4 13/8/4
f 2/4/1 4/3/1 3/5/1 1/8/1
f 11/9/3 12/10/3 9/5/3 10/3/3
f 19/11/5 20/12/5 17/4/5 18/8/5
