# Blender 5.0.1
# www.blender.org
mtllib BP_PurpurLamp_unlit.mtl
o SM_PurpurLamp.001
v 25.000000 -25.000000 -0.000000
v -25.000000 -25.000000 -0.000000
v 25.000000 25.000000 0.000000
v -25.000000 25.000000 0.000000
v -25.000000 -25.000000 100.000000
v -25.000000 -25.000000 -0.000000
v 25.000000 -25.000000 100.000000
v 25.000000 -25.000000 -0.000000
v 25.000000 -25.000000 100.000000
v 25.000000 -25.000000 -0.000000
v 25.000000 25.000000 100.000000
v 25.000000 25.000000 0.000000
v 25.000000 25.000000 100.000000
v 25.000000 25.000000 0.000000
v -25.000000 25.000000 100.000000
v -25.000000 25.000000 0.000000
v -25.000000 25.000000 100.000000
v -25.000000 25.000000 0.000000
v -25.000000 -25.000000 100.000000
v -25.000000 -25.000000 -0.000000
v 37.500000 -37.500000 100.000000
v -37.500000 -37.500000 100.000000
v 37.500000 37.500000 100.000000
v -37.500000 37.500000 100.000000
v 37.500000 37.500000 200.000000
v -37.500000 37.500000 200.000000
v -37.500000 -37.500000 200.000000
v 37.500000 -37.500000 200.000000
v 37.500000 -37.500000 200.000000
v -37.500000 -37.500000 200.000000
v -37.500000 -37.500000 100.000000
v 37.500000 -37.500000 100.000000
v 37.500000 37.500000 200.000000
v 37.500000 -37.500000 200.000000
v 37.500000 -37.500000 100.000000
v 37.500000 37.500000 100.000000
v -37.500000 37.500000 200.000000
v 37.500000 37.500000 200.000000
v 37.500000 37.500000 100.000000
v -37.500000 37.500000 100.000000
v -37.500000 -37.500000 200.000000
v -37.500000 37.500000 200.000000
v -37.500000 37.500000 100.000000
v -37.500000 -37.500000 100.000000
v 50.000000 -50.000000 199.999985
v -50.000000 -50.000000 199.999985
v 50.000000 50.000000 199.999985
v -50.000000 50.000000 199.999985
v 50.000000 50.000000 218.749985
v -50.000000 50.000000 218.749985
v -50.000000 -50.000000 218.749985
v 50.000000 -50.000000 218.749985
v 50.000000 -50.000000 218.749985
v -50.000000 -50.000000 218.749985
v -50.000000 -50.000000 199.999985
v 50.000000 -50.000000 199.999985
v 50.000000 50.000000 218.749985
v 50.000000 -50.000000 218.749985
v 50.000000 -50.000000 199.999985
v 50.000000 50.000000 199.999985
v -50.000000 50.000000 218.749985
v 50.000000 50.000000 218.749985
v 50.000000 50.000000 199.999985
v -50.000000 50.000000 199.999985
v -50.000000 -50.000000 218.749985
v -50.000000 50.000000 218.749985
v -50.000000 50.000000 199.999985
v -50.000000 -50.000000 199.999985
vn -0.0000 -0.0000 -1.0000
vn -0.0000 -1.0000 -0.0000
vn 1.0000 -0.0000 -0.0000
vn -0.0000 1.0000 -0.0000
vn -1.0000 -0.0000 -0.0000
vn -0.0000 -0.0000 1.0000
vt 0.468750 0.999969
vt -0.000031 0.999969
vt -0.000031 0.000000
vt 0.468750 0.000000
vt 0.562500 0.999969
vt 0.562500 0.000000
vt 0.937500 0.000000
vt 0.937500 0.999969
vt 0.187500 0.000000
vt 0.187500 0.999969
vt 0.437500 0.999969
vt 0.437500 0.000000
vt 0.562500 0.999969
vt 0.562012 0.000000
vt 0.937012 0.000000
vt 0.937500 0.999969
vt 0.437500 0.875000
vt 0.062500 0.875000
vt 0.062500 0.125000
vt 0.437500 0.125000
vt 0.187500 0.750000
vt 0.187500 0.250000
vt 0.437500 0.250000
vt 0.437500 0.750000
vt 0.343750 0.999969
vt 0.343750 0.000000
vt 0.062500 0.999969
vt 0.062500 0.000000
vt 1.840820 -1.363281
vt 1.840820 -0.631836
vt 1.474609 -0.631836
vt 1.474609 -1.363281
s 1
usemtl MI_PurpurLamp
f 46/1/1 48/2/1 47/3/1 45/4/1
f 32/5/2 29/6/2 30/7/2 31/8/2
f 16/9/4 15/10/4 13/11/4 14/12/4
f 40/13/4 37/14/4 38/15/4 39/16/4
f 22/17/1 24/18/1 23/19/1 21/20/1
f 8/12/2 7/11/2 5/10/2 6/9/2
f 2/21/1 4/22/1 3/23/1 1/24/1
f 12/12/3 11/11/3 9/10/3 10/9/3
f 60/25/3 57/11/3 58/12/3 59/26/3
f 52/6/6 49/5/6 50/27/6 51/28/6
f 36/15/3 33/16/3 34/13/3 35/14/3
f 20/9/5 19/10/5 17/11/5 18/12/5
f 44/7/5 41/8/5 42/5/5 43/6/5
f 64/25/4 61/11/4 62/12/4 63/26/4
f 56/12/2 53/26/2 54/25/2 55/11/2
f 28/29/6 25/30/6 26/31/6 27/32/6
f 68/12/5 65/26/5 66/25/5 67/11/5
