# Blender 5.0.1
# www.blender.org
mtllib BP_Platform_4w_Stairs_SoggySwamp.mtl
o SM_Bridges_Platform_4w_Stairs.001
v -100.000000 0.000000 0.000000
v -100.000000 200.000000 50.000008
v -100.000000 -0.000006 50.000000
v -100.000000 200.000000 0.000009
v -100.000000 -200.000000 -0.000009
v -100.000000 -200.000000 49.999992
v -200.000000 -200.000000 49.999992
v -300.000000 -0.000010 50.000000
v -300.000000 -200.000000 49.999992
v -200.000000 -0.000008 50.000000
v -300.000000 199.999985 50.000008
v -200.000000 200.000000 50.000008
v -100.000000 -200.000000 49.999992
v -100.000000 -0.000006 50.000000
v -100.000000 200.000000 50.000008
v -300.000000 0.000000 0.000000
v -300.000000 199.999985 0.000009
v -200.000000 -0.000002 -0.000000
v -200.000000 200.000000 0.000009
v -300.000000 -200.000000 -0.000009
v -200.000000 -200.000000 -0.000009
v -300.000000 0.000000 0.000000
v -300.000000 199.999985 50.000008
v -300.000000 199.999985 0.000009
v -300.000000 -0.000010 50.000000
v -300.000000 -200.000000 49.999992
v -300.000000 -200.000000 -0.000009
v 0.000000 0.000000 0.000000
v 0.000000 -199.999985 -0.000009
v 0.000000 -199.999985 -50.000008
v 0.000000 0.000010 -50.000000
v 0.000000 200.000000 0.000009
v 0.000000 200.000000 -49.999992
v 0.000000 -199.999985 -0.000009
v -100.000000 0.000000 0.000000
v -100.000000 -200.000000 -0.000009
v 0.000000 0.000000 0.000000
v -100.000000 200.000000 0.000009
v 0.000000 200.000000 0.000009
v -200.000000 -0.000002 -0.000000
v -200.000000 199.999985 -49.999992
v -200.000000 0.000002 -50.000000
v -200.000000 200.000000 0.000009
v -200.000000 -200.000000 -0.000009
v -200.000000 -200.000000 -50.000008
v -200.000000 0.000002 -50.000000
v -200.000000 199.999985 -49.999992
v -100.000000 0.000006 -50.000000
v -100.000000 200.000000 -49.999992
v 0.000000 0.000010 -50.000000
v 0.000000 200.000000 -49.999992
v -200.000000 -200.000000 -50.000008
v -100.000000 -200.000000 -50.000008
v 0.000000 -199.999985 -50.000008
v -200.000000 -200.000000 49.999992
v -300.000000 -200.000000 49.999992
v -300.000000 -200.000000 -0.000009
v -200.000000 -200.000000 -0.000009
v -100.000000 -200.000000 49.999992
v -100.000000 -200.000000 -0.000009
v -200.000000 -200.000000 -50.000008
v -100.000000 -200.000000 -50.000008
v 0.000000 -199.999985 -50.000008
v 0.000000 -199.999985 -0.000009
v 0.000000 200.000000 -49.999992
v -100.000000 200.000000 -49.999992
v 0.000000 200.000000 0.000009
v -100.000000 200.000000 0.000009
v -200.000000 200.000000 50.000008
v -100.000000 200.000000 50.000008
v -200.000000 200.000000 0.000009
v -200.000000 199.999985 -49.999992
v -300.000000 199.999985 50.000008
v -300.000000 199.999985 0.000009
vn 1.0000 -0.0000 -0.0000
vn -0.0000 -0.0000 1.0000
vn -0.0000 -0.0000 -1.0000
vn -1.0000 -0.0000 -0.0000
vn -0.0000 -1.0000 -0.0000
vn -0.0000 1.0000 -0.0000
vt 0.187500 0.687500
vt 0.187500 0.937500
vt 0.062500 0.937500
vt 0.062500 0.687500
vt 0.195312 0.937500
vt 0.070312 0.937500
vt 0.070312 0.687500
vt 0.195312 0.687500
vt 1.000000 0.437500
vt 0.937500 0.437500
vt 0.937500 0.187500
vt 1.000000 0.187500
vt 0.195312 0.437500
vt 0.070312 0.437500
vt 0.070312 0.187500
vt 0.195312 0.187500
vt 0.250000 0.062500
vt 0.250000 0.125000
vt 0.375000 0.125000
vt 0.375000 0.062500
vt 0.234375 0.937500
vt 0.109375 0.937500
vt 0.109375 0.687500
vt 0.234375 0.687500
vt 0.125000 0.000000
vt 0.125000 0.062500
vt 0.250000 0.000000
vt 0.000031 0.937500
vt 0.000031 0.687500
vt 0.187500 0.187500
vt 0.187500 0.437500
vt 0.062500 0.437500
vt 0.062500 0.187500
vt 0.312500 0.687500
vt 0.312500 0.937500
vt 1.000000 0.937500
vt 1.000000 0.687500
vt 0.937500 0.687500
vt 0.937500 0.937500
vt 0.312500 0.187500
vt 0.312500 0.437500
vt 0.125000 0.125000
vt 0.234375 0.437500
vt 0.109375 0.437500
vt 0.109375 0.187500
vt 0.234375 0.187500
vt 0.351562 0.937500
vt 0.226562 0.937500
vt 0.226562 0.687500
vt 0.351562 0.687500
vt 0.000031 0.437500
vt 0.000031 0.187500
vt 0.351562 0.437500
vt 0.226562 0.437500
vt 0.226562 0.187500
vt 0.351562 0.187500
vt 0.000031 0.000000
vt 0.000031 0.062500
s 1
usemtl WorldGridMaterial
f 48/1/3 53/2/3 52/3/3 46/4/3
f 39/5/2 38/6/2 35/7/2 37/8/2
f 1/9/1 3/10/1 6/11/1 5/12/1
f 37/13/2 35/14/2 36/15/2 34/16/2
f 33/12/1 32/11/1 28/10/1 31/9/1
f 58/17/5 55/18/5 56/19/5 57/20/5
f 12/21/2 11/22/2 8/23/2 10/24/2
f 62/25/5 60/26/5 58/17/5 61/27/5
f 25/4/4 23/3/4 24/28/4 22/29/4
f 49/30/3 48/31/3 46/32/3 47/33/3
f 50/34/3 54/35/3 53/2/3 48/1/3
f 30/36/1 31/37/1 28/38/1 29/39/1
f 51/40/3 50/41/3 48/31/3 49/30/3
f 66/18/6 72/42/6 71/26/6 68/17/6
f 10/43/2 8/44/2 9/45/2 7/46/2
f 43/3/4 41/28/4 42/29/4 40/4/4
f 15/47/2 12/48/2 10/49/2 14/50/2
f 68/17/6 71/26/6 69/25/6 70/27/6
f 19/30/3 18/31/3 16/32/3 17/33/3
f 4/36/1 2/39/1 3/38/1 1/37/1
f 42/51/4 45/52/4 44/33/4 40/32/4
f 66/18/6 68/17/6 67/20/6 65/19/6
f 16/4/3 18/1/3 21/2/3 20/3/3
f 14/53/2 10/54/2 7/55/2 13/56/2
f 63/57/5 64/58/5 60/26/5 62/25/5
f 22/51/4 27/52/4 26/33/4 25/32/4
f 60/26/5 59/42/5 55/18/5 58/17/5
f 71/26/6 74/58/6 73/57/6 69/25/6
