# Blender 5.0.1
# www.blender.org
mtllib BP_Pot.mtl
o SM_Pot.001
v 24.999998 -24.999998 31.412434
v 24.999998 24.999998 31.412434
v 18.750000 18.750000 31.412434
v 18.750000 -18.750000 31.412434
v -24.999998 24.999998 31.412434
v -24.999998 -24.999998 31.412434
v -18.750000 -18.750000 31.412434
v -18.750000 18.750000 31.412434
v -6.250000 -31.249998 18.750000
v 6.250000 -31.249998 24.999998
v -6.250000 -31.249998 24.999998
v 6.250000 -31.249998 18.750000
v 6.250000 31.249998 18.750000
v -6.250000 31.249998 18.750000
v -6.250000 31.249998 24.999998
v 6.250000 31.249998 24.999998
v 6.250000 24.999998 18.750000
v -6.250000 24.999998 18.750000
v -6.250000 31.249998 18.750000
v 6.250000 31.249998 18.750000
v -6.250000 31.249998 24.999998
v -6.250000 24.999998 18.750000
v -6.250000 24.999998 24.999998
v -6.250000 31.249998 18.750000
v -6.250000 24.999998 24.999998
v 6.250000 24.999998 24.999998
v 6.250000 31.249998 24.999998
v -6.250000 31.249998 24.999998
v 6.250000 24.999998 18.750000
v 6.250000 31.249998 18.750000
v 6.250000 24.999998 24.999998
v 6.250000 31.249998 24.999998
v -6.250000 -31.249998 24.999998
v 6.250000 -31.249998 24.999998
v 6.250000 -24.999998 24.999998
v -6.250000 -24.999998 24.999998
v -6.250000 -31.249998 18.750000
v -6.250000 -31.249998 24.999998
v -6.250000 -24.999998 24.999998
v -6.250000 -24.999998 18.750000
v 6.250000 -31.249998 18.750000
v -6.250000 -31.249998 18.750000
v -6.250000 -24.999998 18.750000
v 6.250000 -24.999998 18.750000
v 6.250000 -31.249998 24.999998
v 6.250000 -31.249998 18.750000
v 6.250000 -24.999998 18.750000
v 6.250000 -24.999998 24.999998
v 24.999998 -24.999998 0.000000
v 24.999998 24.999998 -0.000000
v 24.999998 24.999998 18.750000
v 24.999998 -24.999998 18.750000
v 24.999998 24.999998 24.999998
v 24.999998 -24.999998 24.999998
v 24.999998 24.999998 31.412434
v 24.999998 -24.999998 31.412434
v 18.750000 -18.750000 31.412434
v 18.750000 18.750000 31.412434
v 18.750000 18.750000 18.750000
v 18.750000 -18.750000 18.750000
v 18.750000 18.750000 6.250001
v 18.750000 -18.750000 6.250001
v 24.999998 24.999998 -0.000000
v 24.999998 -24.999998 0.000000
v 6.250000 -24.999998 0.000000
v 6.250000 24.999998 -0.000000
v -6.250000 -24.999998 0.000000
v -6.250000 24.999998 -0.000000
v -24.999998 24.999998 -0.000000
v -24.999998 -24.999998 0.000000
v -24.999998 -24.999998 18.750000
v -24.999998 24.999998 -0.000000
v -24.999998 -24.999998 0.000000
v -24.999998 24.999998 18.750000
v -24.999998 -24.999998 24.999998
v -24.999998 24.999998 24.999998
v -24.999998 -24.999998 31.412434
v -24.999998 24.999998 31.412434
v -6.250000 -24.999998 31.412434
v -6.249999 -18.750000 31.412434
v 6.250000 -24.999998 31.412434
v 6.250000 -18.750000 31.412434
v -18.750000 -18.750000 18.750000
v -18.750000 18.750000 31.412434
v -18.750000 -18.750000 31.412434
v -18.750000 18.750000 18.750000
v -18.750000 -18.750000 6.250001
v -18.750000 18.750000 6.250001
v -6.250000 24.999998 31.412434
v -6.249999 18.750000 31.412434
v 6.250000 24.999998 31.412434
v 6.250000 18.750000 31.412434
v 6.250000 18.750000 6.250001
v 18.750000 -18.750000 6.250001
v 18.750000 18.750000 6.250001
v 6.250000 -18.750000 6.250001
v -6.249999 18.750000 6.250001
v -6.249999 -18.750000 6.250001
v -18.750000 -18.750000 6.250001
v -18.750000 18.750000 6.250001
v 24.999998 24.999998 24.999998
v 6.250000 24.999998 31.412434
v 24.999998 24.999998 31.412434
v 6.250000 24.999998 24.999998
v -6.250000 24.999998 31.412434
v 24.999998 24.999998 18.750000
v -6.250000 24.999998 24.999998
v -24.999998 24.999998 31.412434
v 6.250000 24.999998 18.750000
v -24.999998 24.999998 24.999998
v -6.250000 24.999998 18.750000
v -24.999998 24.999998 18.750000
v 6.250000 24.999998 -0.000000
v 24.999998 24.999998 -0.000000
v -6.250000 24.999998 -0.000000
v -24.999998 24.999998 -0.000000
v 24.999998 -24.999998 18.750000
v 6.250000 -24.999998 0.000000
v 24.999998 -24.999998 0.000000
v 6.250000 -24.999998 18.750000
v -6.250000 -24.999998 0.000000
v 24.999998 -24.999998 24.999998
v -6.250000 -24.999998 18.750000
v -24.999998 -24.999998 0.000000
v 6.250000 -24.999998 24.999998
v -24.999998 -24.999998 18.750000
v -6.250000 -24.999998 24.999998
v -24.999998 -24.999998 24.999998
v 6.250000 -24.999998 31.412434
v 24.999998 -24.999998 31.412434
v -6.250000 -24.999998 31.412434
v -24.999998 -24.999998 31.412434
v -6.249999 18.750000 6.250001
v -18.750000 18.750000 18.750000
v -18.750000 18.750000 6.250001
v -6.249999 18.750000 31.412434
v -18.750000 18.750000 31.412434
v -6.249999 18.750000 18.750000
v 6.250000 18.750000 6.250001
v 6.250000 18.750000 31.412434
v 18.750000 18.750000 18.750000
v 18.750000 18.750000 6.250001
v 6.250000 18.750000 18.750000
v 18.750000 18.750000 31.412434
v 18.750000 -18.750000 6.250001
v 6.250000 -18.750000 6.250001
v 18.750000 -18.750000 18.750000
v 6.250000 -18.750000 31.412434
v 18.750000 -18.750000 31.412434
v 6.250000 -18.750000 18.750000
v -6.249999 -18.750000 6.250001
v -6.249999 -18.750000 31.412434
v -18.750000 -18.750000 6.250001
v -18.750000 -18.750000 18.750000
v -6.249999 -18.750000 18.750000
v -18.750000 -18.750000 31.412434
vn -0.0000 -0.0000 1.0000
vn -0.0000 -1.0000 -0.0000
vn -0.0000 1.0000 -0.0000
vn -0.0000 -0.0000 -1.0000
vn -1.0000 -0.0000 -0.0000
vn 1.0000 -0.0000 -0.0000
vt 0.437500 0.375000
vt 0.000031 0.312500
vt 0.500000 0.312500
vt 0.062500 0.375000
vt 0.687500 0.937500
vt 0.625000 0.937500
vt 0.625000 0.875000
vt 0.687500 0.875000
vt 0.500000 0.625000
vt 0.500000 0.687500
vt 0.312500 0.687500
vt 0.312500 0.625000
vt 0.000031 0.562500
vt 0.000031 0.375000
vt 0.187500 0.375000
vt 0.187500 0.562500
vt 0.000031 0.250000
vt 0.500000 0.250000
vt 0.375000 0.875000
vt 0.375000 0.999969
vt 0.250000 0.999969
vt 0.250000 0.875000
vt 0.187500 0.625000
vt 0.187500 0.687500
vt 0.000031 0.187500
vt 0.000031 0.000000
vt 0.500000 0.000000
vt 0.500000 0.187500
vt 1.000000 0.312500
vt 1.000000 0.500000
vt 0.500000 0.500000
vt 1.000000 0.875000
vt 0.625000 0.750000
vt 1.000000 0.750000
vt 0.500000 0.937500
vt 0.500000 0.875000
vt 0.625000 0.625000
vt 0.625000 0.500000
vt 1.000000 0.625000
vt 0.000031 0.999969
vt 0.000031 0.875000
vt 1.000000 0.187500
vt 1.000000 0.000000
vt 0.500000 0.812500
vt 0.625000 0.812500
vt 0.500000 0.562500
vt 0.312500 0.562500
vt 0.312500 0.375000
vt 0.500000 0.375000
vt 0.500000 0.999969
vt 0.625000 0.999969
vt 0.000031 0.687500
vt 0.062500 0.750000
vt 0.187500 0.750000
vt 0.312500 0.750000
vt 0.437500 0.750000
vt 0.437500 0.937500
vt 0.437500 0.875000
vt 0.125000 0.750000
vt 0.125000 0.875000
vt 0.000031 0.750000
vt 0.000031 0.625000
vt 0.125000 0.999969
vt 0.375000 0.750000
vt 0.250000 0.750000
s 1
usemtl MI_Pot
f 3/1/1 1/2/1 2/3/1
f 4/4/1 1/2/1 3/1/1
f 7/1/1 5/2/1 6/3/1
f 8/4/1 5/2/1 7/1/1
f 48/5/6 45/6/6 46/7/6 47/8/6
f 122/9/2 130/10/2 129/11/2 125/12/2
f 106/13/3 114/14/3 113/15/3 109/16/3
f 78/2/5 76/17/5 75/18/5 77/3/5
f 141/19/2 144/20/2 140/21/2 143/22/2
f 104/23/3 107/12/3 105/11/3 102/24/3
f 107/12/3 110/9/3 108/10/3 105/11/3
f 74/25/5 72/26/5 73/27/5 71/28/5
f 67/29/4 70/30/4 69/31/4 68/3/4
f 100/32/1 99/7/1 98/33/1 97/34/1
f 16/35/3 13/36/3 14/7/3 15/6/3
f 55/3/6 56/2/6 54/17/6 53/18/6
f 96/37/1 94/38/1 95/30/1 93/39/1
f 86/19/6 84/20/6 85/40/6 83/41/6
f 65/42/4 66/28/4 63/27/4 64/43/4
f 24/7/5 22/8/5 23/5/5 21/6/5
f 98/33/1 96/37/1 93/39/1 97/34/1
f 20/36/4 17/44/4 18/45/4 19/7/4
f 117/46/2 120/47/2 118/48/2 119/49/2
f 115/48/3 111/47/3 109/16/3 113/15/3
f 36/50/1 33/35/1 34/6/1 35/51/1
f 6/52/1 79/24/1 7/53/1
f 80/54/1 7/53/1 79/24/1
f 92/54/1 91/24/1 89/11/1 90/55/1
f 82/55/1 81/11/1 4/56/1
f 1/10/1 4/56/1 81/11/1
f 32/35/6 31/57/6 29/58/6 30/36/6
f 131/24/2 127/23/2 125/12/2 129/11/2
f 5/10/1 8/56/1 89/11/1
f 90/55/1 89/11/1 8/56/1
f 92/54/1 3/53/1 91/24/1
f 2/52/1 91/24/1 3/53/1
f 146/59/3 150/60/3 147/41/3 145/61/3
f 53/18/6 54/17/6 52/25/6 51/28/6
f 101/62/3 104/23/3 102/24/3 103/52/3
f 150/60/3 148/63/3 149/40/3 147/41/3
f 138/60/2 136/63/2 137/40/2 134/41/2
f 115/48/3 116/49/3 112/46/3 111/47/3
f 67/29/4 68/3/4 66/28/4 65/42/4
f 12/7/2 10/6/2 11/35/2 9/36/2
f 61/61/5 62/64/5 60/19/5 59/41/5
f 111/47/3 112/46/3 110/9/3 107/12/3
f 155/22/3 152/21/3 148/63/3 150/60/3
f 120/47/2 123/16/2 121/15/2 118/48/2
f 44/45/4 41/7/4 42/36/4 43/44/4
f 76/17/5 74/25/5 71/28/5 75/18/5
f 106/13/3 109/16/3 104/23/3 101/62/3
f 122/9/2 125/12/2 120/47/2 117/46/2
f 40/58/5 37/36/5 38/35/5 39/57/5
f 127/23/2 128/62/2 126/13/2 123/16/2
f 123/16/2 126/13/2 124/14/2 121/15/2
f 155/22/3 151/65/3 153/64/3 154/19/3
f 51/28/6 52/25/6 49/26/6 50/27/6
f 88/64/6 86/19/6 83/41/6 87/61/6
f 131/24/2 132/52/2 128/62/2 127/23/2
f 143/22/2 138/60/2 133/59/2 139/65/2
f 59/41/5 60/19/5 57/20/5 58/40/5
f 143/22/2 139/65/2 142/64/2 141/19/2
f 143/22/2 140/21/2 136/63/2 138/60/2
f 138/60/2 134/41/2 135/61/2 133/59/2
f 151/65/3 155/22/3 150/60/3 146/59/3
f 82/55/1 80/54/1 79/24/1 81/11/1
f 28/6/1 25/51/1 26/50/1 27/35/1
f 155/22/3 154/19/3 156/20/3 152/21/3
