# Blender 5.0.1
# www.blender.org
mtllib BP_PopFlower.mtl
o SM_PopFlower_Stem.001
v -3.125000 3.125016 100.000000
v -3.125000 -3.125000 0.000001
v -3.125000 -3.124984 100.000000
v -3.125000 3.125000 -0.000001
v 3.125000 3.125016 100.000000
v -3.125000 3.125000 -0.000001
v -3.125000 3.125016 100.000000
v 3.125000 3.125000 -0.000001
v 3.125000 -3.124984 100.000000
v 3.125000 3.125000 -0.000001
v 3.125000 3.125016 100.000000
v 3.125000 -3.125000 0.000001
v -3.125000 -3.124984 100.000000
v 3.125000 -3.125000 0.000001
v 3.125000 -3.124984 100.000000
v -3.125000 -3.125000 0.000001
v 3.125000 -3.125000 0.000001
v -3.125000 -3.125000 0.000001
v -3.125000 3.125000 -0.000001
v 3.125000 3.125000 -0.000001
v -3.125000 3.125016 100.000000
v -3.125000 -3.124984 100.000000
v 3.125000 3.125016 100.000000
v 3.125000 -3.124984 100.000000
v -9.375000 9.375018 112.500000
v -9.375000 -9.374984 100.000000
v -9.375000 -9.374982 112.500000
v -9.375000 9.375016 100.000000
v 9.375000 9.375018 112.500000
v -9.375000 9.375016 100.000000
v -9.375000 9.375018 112.500000
v 9.375000 9.375016 100.000000
v 9.375000 -9.374982 112.500000
v 9.375000 9.375016 100.000000
v 9.375000 9.375018 112.500000
v 9.375000 -9.374984 100.000000
v -9.375000 -9.374982 112.500000
v 9.375000 -9.374984 100.000000
v 9.375000 -9.374982 112.500000
v -9.375000 -9.374984 100.000000
v 9.375000 -9.374984 100.000000
v -9.375000 -9.374984 100.000000
v -9.375000 9.375016 100.000000
v 9.375000 9.375016 100.000000
v -9.375000 9.375018 112.500000
v -9.375000 -9.374982 112.500000
v 9.375000 9.375018 112.500000
v 9.375000 -9.374982 112.500000
vn -1.0000 -0.0000 -0.0000
vn -0.0000 1.0000 -0.0000
vn 1.0000 -0.0000 -0.0000
vn -0.0000 -1.0000 -0.0000
vn -0.0000 -0.0000 -1.0000
vn -0.0000 -0.0000 1.0000
vt 0.218750 0.000000
vt 0.250000 0.000000
vt 0.250000 0.500000
vt 0.218750 0.500000
vt 0.281250 0.000000
vt 0.281250 0.500000
vt 0.281250 0.562500
vt 0.187500 0.562500
vt 0.187500 0.500000
vt 0.281250 0.656250
vt 0.187500 0.656250
vt 0.218750 0.468750
vt 0.250000 0.468750
vt 0.250000 0.031250
vt 0.218750 0.031250
s 1
usemtl MI_PopFlower_Stem
f 12/1/3 10/2/3 11/3/3 9/4/3
f 16/2/4 14/5/4 15/6/4 13/3/4
f 28/7/1 26/8/1 27/9/1 25/6/1
f 32/7/2 30/8/2 31/9/2 29/6/2
f 4/1/1 2/2/1 3/3/1 1/4/1
f 8/2/2 6/5/2 7/6/2 5/3/2
f 36/9/3 34/6/3 35/7/3 33/8/3
f 44/10/5 41/11/5 42/8/5 43/7/5
f 24/12/6 23/13/6 21/3/6 22/4/6
f 20/14/5 17/15/5 18/1/5 19/2/5
f 40/9/4 38/6/4 39/7/4 37/8/4
f 48/8/6 47/7/6 45/10/6 46/11/6
