# Blender 5.0.1
# www.blender.org
mtllib BP_Plank_All_instanced.mtl
o SM_Planks_plank01.001
v 84.622795 6.470482 13.238884
v 23.153273 235.877869 13.238884
v -0.994871 229.407394 13.238884
v 60.474651 0.000006 13.238884
v 84.622795 6.470482 -11.761115
v 23.153273 235.877869 13.238884
v 84.622795 6.470482 13.238884
v 23.153273 235.877869 -11.761115
v 84.622795 6.470482 -11.761115
v -0.994871 229.407394 -11.761115
v 23.153273 235.877869 -11.761115
v 60.474651 0.000006 -11.761115
v 60.474651 0.000006 13.238884
v -0.994871 229.407394 13.238884
v -0.994871 229.407394 -11.761115
v 60.474651 0.000006 -11.761115
v 84.622795 6.470482 13.238884
v 60.474651 0.000006 13.238884
v 84.622795 6.470482 -11.761115
v 60.474651 0.000006 -11.761115
v 23.153273 235.877869 13.238884
v -0.994871 229.407394 -11.761115
v -0.994871 229.407394 13.238884
v 23.153273 235.877869 -11.761115
vn -0.0000 -0.0000 1.0000
vn 0.9659 0.2588 -0.0000
vn -0.0000 -0.0000 -1.0000
vn -0.9659 -0.2588 -0.0000
vn 0.2588 -0.9659 -0.0000
vn -0.2588 0.9659 -0.0000
vt 0.437500 0.359375
vt 0.437500 0.937500
vt 0.375000 0.937500
vt 0.375000 0.359375
vt 0.250000 0.937500
vt 0.250000 0.359375
vt 0.312500 0.359375
vt 0.312500 0.937500
vt 0.312500 0.296875
vt 0.375000 0.296875
vt 0.500000 0.359375
vt 0.500000 0.937500
vt 0.375000 0.999969
vt 0.312500 0.999969
s 1
usemtl MI_Bonfire
f 12/1/3 10/2/3 11/3/3 9/4/3
f 3/5/1 4/6/1 1/7/1 2/8/1
f 18/9/5 20/10/5 19/4/5 17/7/5
f 8/3/2 6/8/2 7/7/2 5/4/2
f 16/1/4 13/11/4 14/12/4 15/2/4
f 24/3/6 22/13/6 23/14/6 21/8/6
