# Blender 5.0.1
# www.blender.org
mtllib BP_Prison_HiddenEntrance.mtl
o SM_Prison_HiddenEntrance.001
v 400.000000 0.000196 100.000046
v 400.000061 -99.999840 0.000080
v 400.000000 0.000261 0.000095
v 400.000061 -99.999802 100.000076
v 400.000061 -99.999802 100.000076
v 300.000031 -99.999779 0.000128
v 400.000061 -99.999840 0.000080
v 300.000031 -99.999840 100.000076
v 300.000000 0.000163 100.000046
v 300.000031 -99.999779 0.000128
v 300.000031 -99.999840 100.000076
v 300.000000 0.000130 0.000048
v 400.000000 0.000261 300.000061
v 400.000061 -99.999779 200.000092
v 400.000000 0.000228 200.000046
v 400.000061 -99.999741 300.000092
v 300.000031 -99.999771 300.000092
v 400.000061 -99.999779 200.000092
v 400.000061 -99.999741 300.000092
v 300.000031 -99.999809 200.000092
v 300.000000 0.000228 300.000061
v 300.000031 -99.999809 200.000092
v 300.000031 -99.999771 300.000092
v 300.000000 0.000196 200.000046
v 400.000061 -99.999710 400.000061
v 400.000000 0.000293 400.000061
v 300.000031 -99.999741 400.000061
v 400.000061 -99.999710 400.000061
v 300.000031 -99.999741 400.000061
v 300.000000 0.000261 400.000061
v 400.000061 -99.999672 500.000061
v 400.000000 0.000326 500.000061
v 300.000031 -99.999710 500.000061
v 400.000061 -99.999672 500.000061
v 400.000061 -99.999649 600.000122
v 400.000000 0.000358 600.000122
v 300.000031 -99.999672 600.000122
v 400.000061 -99.999649 600.000122
v 200.000031 -99.999710 600.000122
v 200.000031 -99.999741 500.000061
v 300.000031 -99.999672 600.000122
v 400.000000 0.000358 600.000122
v 300.000000 0.000326 600.000122
v 400.000061 -99.999649 600.000122
v 399.999969 100.000198 100.000023
v 399.999969 100.000259 0.000158
v 299.999969 100.000168 100.000023
v 399.999969 100.000198 100.000023
v 399.999969 100.000259 0.000158
v 299.999969 100.000229 0.000158
v 299.999969 100.000198 200.000000
v 399.999969 100.000237 200.000000
v 399.999969 100.000267 300.000000
v 399.999969 100.000237 200.000000
v 299.999969 100.000229 300.000000
v 399.999969 100.000267 300.000000
v 399.999969 100.000290 400.000031
v 299.999969 100.000267 400.000031
v 399.999969 100.000290 400.000031
v 399.999969 100.000328 500.000031
v 299.999969 100.000298 500.000031
v 399.999969 100.000328 500.000031
v 399.999969 100.000359 600.000061
v 299.999969 100.000328 600.000061
v 399.999969 100.000359 600.000061
v 299.999969 100.000328 600.000061
v 399.999969 100.000359 600.000061
v 100.000000 0.000130 200.000046
v 100.000038 -99.999908 100.000076
v 100.000000 0.000098 100.000046
v 100.000038 -99.999870 200.000092
v 0.000033 -99.999939 100.000076
v 100.000000 0.000098 100.000046
v 100.000038 -99.999908 100.000076
v -0.000000 0.000065 100.000046
v 100.000038 -99.999870 200.000092
v 0.000033 -99.999939 100.000076
v 100.000038 -99.999908 100.000076
v 0.000033 -99.999908 200.000092
v -0.000000 0.000098 200.000046
v 0.000033 -99.999939 100.000076
v 0.000033 -99.999908 200.000092
v -0.000000 0.000065 100.000046
v 100.000000 0.000163 300.000061
v 100.000038 -99.999840 300.000092
v 100.000038 -99.999840 300.000092
v 0.000033 -99.999870 300.000092
v -0.000000 0.000130 300.000061
v 0.000033 -99.999870 300.000092
v 100.000038 -99.999809 400.000061
v 100.000000 0.000196 400.000061
v 100.000038 -99.999809 400.000061
v 0.000033 -99.999840 400.000061
v 0.000033 -99.999840 400.000061
v -0.000000 0.000163 400.000061
v 100.000038 -99.999779 500.000061
v 0.000033 -99.999802 500.000061
v 100.000038 -99.999741 600.000122
v 0.000033 -99.999779 600.000122
v -0.000033 100.000061 100.000023
v 99.999969 100.000099 100.000023
v 99.999969 100.000130 200.000000
v -0.000033 100.000061 100.000023
v -0.000033 100.000107 200.000000
v 99.999969 100.000099 100.000023
v 99.999969 100.000168 300.000000
v -0.000033 100.000130 300.000000
v 99.999969 100.000198 400.000031
v -0.000033 100.000160 400.000031
v 99.999969 100.000237 500.000031
v -0.000033 100.000198 500.000031
v -99.999969 -99.999840 500.000061
v -99.999969 -99.999809 600.000122
v -99.999969 -99.999809 600.000122
v -0.000000 0.000228 600.000122
v -100.000000 0.000196 600.000122
v 0.000033 -99.999779 600.000122
v -199.999969 -99.999840 600.000122
v -199.999969 -99.999870 500.000061
v -200.000000 0.000163 600.000122
v -199.999969 -99.999840 600.000122
v -200.000000 0.000000 100.000046
v -199.999969 -99.999939 0.000033
v -200.000000 -0.000033 0.000048
v -199.999969 -100.000008 100.000076
v -199.999969 -100.000008 100.000076
v -299.999969 -100.000069 0.000080
v -199.999969 -99.999939 0.000033
v -299.999969 -100.000031 100.000076
v -299.999969 -100.000031 100.000076
v -300.000000 -0.000033 100.000046
v -300.000000 -0.000065 0.000048
v -299.999969 -100.000069 0.000080
v -200.000000 0.000065 300.000061
v -199.999969 -99.999969 200.000092
v -200.000000 0.000033 200.000046
v -199.999969 -99.999939 300.000092
v -299.999969 -99.999977 300.000092
v -199.999969 -99.999969 200.000092
v -199.999969 -99.999939 300.000092
v -299.999969 -100.000000 200.000092
v -300.000000 0.000033 300.000061
v -299.999969 -100.000000 200.000092
v -299.999969 -99.999977 300.000092
v -300.000000 0.000000 200.000046
v -299.999969 -99.999908 500.000061
v -199.999969 -99.999908 400.000061
v -299.999969 -99.999931 400.000061
v -299.999969 -99.999908 500.000061
v -300.000000 0.000098 500.000061
v -300.000000 0.000065 400.000061
v -299.999969 -99.999931 400.000061
v -299.999969 -99.999870 600.000122
v -299.999969 -99.999870 600.000122
v -300.000000 0.000130 600.000122
v -300.000000 0.000130 600.000122
v -299.999969 -99.999870 600.000122
v -300.000031 99.999969 100.000023
v -300.000031 99.999939 0.000015
v -300.000031 99.999969 100.000023
v -200.000031 100.000008 100.000023
v -200.000031 99.999969 0.000015
v -300.000031 99.999939 0.000015
v -300.000031 100.000000 200.000000
v -300.000031 100.000000 200.000000
v -200.000031 100.000031 200.000000
v -300.000031 100.000038 300.000000
v -300.000031 100.000038 300.000000
v -200.000031 100.000076 300.000000
v -300.000031 100.000069 400.000031
v -300.000031 100.000069 400.000031
v -200.000031 100.000099 400.000031
v -300.000031 100.000107 500.000031
v -300.000031 100.000107 500.000031
v -200.000031 100.000130 500.000031
v -300.000031 100.000137 600.000061
v 200.000000 0.000293 600.000122
v 200.000031 -99.999710 600.000122
v 199.999969 100.000298 600.000061
v 199.999969 100.000259 500.000031
v 99.999969 100.000267 600.000061
v -0.000033 100.000229 600.000061
v 100.000000 0.000261 600.000122
v 99.999969 100.000267 600.000061
v -0.000033 100.000229 600.000061
v -100.000038 100.000191 600.000061
v -100.000038 100.000168 500.000031
v -100.000038 100.000191 600.000061
v -200.000031 100.000168 600.000061
v -300.000031 100.000137 600.000061
v -199.999969 -99.999908 400.000061
v -200.000000 0.000098 400.000061
v 200.000000 0.000130 100.000046
v 300.000000 0.000130 0.000048
v 300.000000 0.000163 100.000046
v 200.000000 0.000098 0.000048
v 200.000000 0.000130 100.000046
v 199.999969 100.000137 100.000023
v 199.999969 100.000099 0.000015
v 200.000000 0.000098 0.000048
v 199.999969 100.000137 100.000023
v 199.999969 100.000099 0.000015
v 200.000000 0.000163 200.000046
v 300.000000 0.000196 200.000046
v 199.999969 100.000160 200.000000
v 200.000000 0.000196 300.000061
v 300.000000 0.000228 300.000061
v 199.999969 100.000206 300.000000
v 200.000000 0.000228 400.000061
v 300.000000 0.000261 400.000061
v 199.999969 100.000229 400.000031
v 200.000000 0.000261 500.000061
v 300.000000 0.000293 500.000061
v 200.000000 0.000130 100.000046
v 199.999969 100.000137 100.000023
v 100.000000 0.000130 200.000046
v 100.000000 0.000098 100.000046
v 100.000000 0.000163 300.000061
v 100.000000 0.000196 400.000061
v 100.000000 0.000228 500.000061
v -100.000000 0.000033 100.000046
v -100.000038 100.000038 100.000023
v -0.000000 0.000098 200.000046
v -100.000000 0.000033 100.000046
v -0.000000 0.000065 100.000046
v -100.000000 0.000065 200.000046
v -100.000038 100.000038 100.000023
v -100.000038 100.000069 200.000000
v -0.000000 0.000130 300.000061
v -100.000000 0.000098 300.000061
v -100.000038 100.000099 300.000000
v -0.000000 0.000163 400.000061
v -100.000000 0.000130 400.000061
v -100.000038 100.000137 400.000031
v -0.000000 0.000196 500.000061
v -100.000000 0.000163 500.000061
v -100.000000 0.000033 100.000046
v -100.000038 100.000000 0.000015
v -100.000038 100.000038 100.000023
v -100.000000 0.000000 0.000048
v -200.000000 0.000000 100.000046
v -100.000000 0.000000 0.000048
v -200.000000 -0.000033 0.000048
v -100.000038 100.000000 0.000015
v -200.000000 0.000033 200.000046
v -200.000000 0.000065 300.000061
v -200.000000 0.000098 400.000061
v -200.000000 0.000130 500.000061
v 300.000031 -99.999725 450.000061
v 200.000000 0.000244 450.000061
v 300.000000 0.000277 450.000061
v 200.000031 -99.999763 450.000061
v 200.000031 -99.999763 450.000061
v 300.000031 -99.999725 450.000061
v 300.000031 -99.999741 400.000061
v 250.000000 0.000244 400.000061
v 300.000000 0.000261 400.000061
v 250.000031 -99.999756 400.000061
v 250.000031 -99.999741 450.000061
v 250.000031 -99.999756 400.000061
v 250.000031 -99.999741 450.000061
v 250.000000 0.000261 450.000061
v 250.000000 0.000244 400.000061
v 250.000031 -99.999756 400.000061
v 200.000031 -99.999763 450.000061
v 200.000000 0.000244 450.000061
v 200.000031 -99.999741 500.000061
v 200.000000 0.000261 500.000061
v 100.000000 0.000212 450.000061
v 100.000038 -99.999786 450.000061
v 100.000038 -99.999786 450.000061
v 150.000031 -99.999794 400.000061
v 150.000000 0.000212 400.000061
v 150.000031 -99.999771 450.000061
v 150.000000 0.000228 450.000061
v 100.000038 -99.999809 400.000061
v 150.000000 0.000212 400.000061
v 150.000031 -99.999794 400.000061
v 100.000000 0.000196 400.000061
v 150.000031 -99.999771 450.000061
v 150.000031 -99.999794 400.000061
v -99.999969 -99.999855 450.000061
v -0.000000 0.000179 450.000061
v 0.000033 -99.999825 450.000061
v -100.000000 0.000147 450.000061
v -99.999969 -99.999855 450.000061
v 0.000033 -99.999825 450.000061
v 0.000033 -99.999840 400.000061
v -50.000000 0.000147 400.000061
v -0.000000 0.000163 400.000061
v -49.999966 -99.999855 400.000061
v -49.999966 -99.999855 400.000061
v -49.999966 -99.999840 450.000061
v -49.999966 -99.999840 450.000061
v -50.000000 0.000163 450.000061
v -50.000000 0.000147 400.000061
v -49.999966 -99.999855 400.000061
v -99.999969 -99.999855 450.000061
v -100.000000 0.000147 450.000061
v -99.999969 -99.999840 500.000061
v -100.000000 0.000163 500.000061
v -200.000000 0.000114 450.000061
v -199.999969 -99.999893 450.000061
v -199.999969 -99.999893 450.000061
v -149.999969 -99.999886 400.000061
v -150.000000 0.000114 400.000061
v -149.999969 -99.999870 450.000061
v -150.000000 0.000130 450.000061
v -199.999969 -99.999908 400.000061
v -150.000000 0.000114 400.000061
v -149.999969 -99.999886 400.000061
v -200.000000 0.000098 400.000061
v -149.999969 -99.999870 450.000061
v -149.999969 -99.999886 400.000061
v -199.999969 -99.999939 0.000033
v -299.999969 -100.000069 0.000080
v -300.000000 -0.000065 0.000048
v -200.000000 -0.000033 0.000048
v -300.000031 99.999939 0.000015
v -200.000031 99.999969 0.000015
v 300.000031 -99.999779 0.000128
v 400.000000 0.000261 0.000095
v 400.000061 -99.999840 0.000080
v 300.000000 0.000130 0.000048
v 299.999969 100.000229 0.000158
v 399.999969 100.000259 0.000158
v -100.000000 0.000000 0.000048
v -100.000038 100.000000 0.000015
v 200.000000 0.000098 0.000048
v 199.999969 100.000099 0.000015
v 199.999969 100.000298 600.000061
v 100.000038 -99.999741 600.000122
v -300.000031 100.000137 600.000061
v -200.000031 100.000168 600.000061
vn 1.0000 -0.0000 -0.0000
vn -0.0000 -1.0000 -0.0000
vn -1.0000 -0.0000 -0.0000
vn -0.0000 -0.0000 1.0000
vn -0.0000 1.0000 -0.0000
vn -0.0000 -0.0000 -1.0000
vt 0.500000 0.999969
vt 0.500000 0.750000
vt 0.750000 0.750000
vt 0.750000 0.999969
vt 0.250000 0.750000
vt 0.250000 0.999969
vt 0.750000 0.875000
vt 0.500000 0.875000
vt 0.000031 0.999969
vt 0.000031 0.750000
vt 0.625000 0.875000
vt 0.625000 0.750000
vt 0.625000 0.999969
s 1
usemtl MI_HH_Miniatlas_VertexPaint
f 125/1/1 123/2/1 124/3/1 122/4/1
f 318/3/6 315/4/6 316/1/6 317/2/6
f 8/1/2 6/2/2 7/3/2 5/4/2
f 137/1/1 135/2/1 136/3/1 134/4/1
f 110/5/5 111/2/5 185/1/5 181/6/5
f 125/5/1 122/2/1 136/1/1 135/6/1
f 23/3/3 29/4/3 30/1/3 21/2/3
f 110/3/5 181/4/5 179/1/5 180/2/5
f 89/3/3 94/4/3 95/1/3 88/2/3
f 299/7/1 301/4/1 300/1/1 298/8/1
f 102/5/5 106/6/5 208/9/5 205/10/5
f 144/2/3 152/1/3 151/6/3 142/5/3
f 99/1/2 97/2/2 96/3/2 98/4/2
f 259/11/2 260/12/2 27/3/2 254/7/2
f 13/2/1 53/3/1 57/4/1 26/1/1
f 4/1/1 2/2/1 3/3/1 1/4/1
f 129/5/2 126/2/2 139/1/2 141/6/2
f 196/10/2 194/5/2 195/6/2 193/9/2
f 44/1/4 42/2/4 43/3/4 41/4/4
f 37/1/2 39/6/2 40/5/2 33/2/2
f 152/3/3 149/4/3 150/1/3 151/2/3
f 205/5/5 208/6/5 55/9/5 51/10/5
f 211/5/5 180/6/5 61/9/5 58/10/5
f 209/10/2 210/5/2 213/6/2 212/9/2
f 254/7/2 33/4/2 40/1/2 253/8/2
f 106/2/5 107/3/5 109/4/5 108/1/5
f 26/2/1 57/3/1 60/4/1 32/1/1
f 24/2/3 22/3/3 23/4/3 21/1/3
f 33/2/2 34/3/2 38/4/2 37/1/2
f 258/13/6 256/12/6 257/2/6 255/1/6
f 32/2/1 60/3/1 63/4/1 36/1/1
f 270/4/6 269/3/6 250/2/6 252/1/6
f 168/3/5 171/4/5 172/1/5 169/2/5
f 71/1/1 69/2/1 70/3/1 68/4/1
f 150/3/3 155/4/3 176/1/3 173/2/3
f 115/1/4 183/6/4 184/5/4 182/2/4
f 85/2/1 84/3/1 91/4/1 90/1/1
f 50/3/5 47/4/5 48/1/5 49/2/5
f 175/2/5 189/1/5 188/6/5 187/5/5
f 246/10/2 230/5/2 233/6/2 247/9/2
f 138/5/2 140/2/2 147/1/2 148/6/2
f 16/2/1 13/3/1 26/4/1 25/1/1
f 157/4/4 121/1/4 120/2/4 156/3/4
f 97/1/2 93/2/2 92/3/2 96/4/2
f 320/3/6 318/4/6 317/1/6 319/2/6
f 79/1/2 77/2/2 78/3/2 76/4/2
f 105/5/5 102/6/5 205/9/5 201/10/5
f 217/10/2 193/5/2 203/6/2 216/9/2
f 326/3/6 322/4/6 324/1/6 325/2/6
f 202/5/5 201/6/5 47/9/5 50/10/5
f 108/5/5 110/6/5 180/9/5 211/10/5
f 80/2/3 82/3/3 89/4/3 88/1/3
f 162/5/5 161/6/5 227/9/5 244/10/5
f 164/2/3 145/3/3 142/4/3 167/1/3
f 208/5/5 211/6/5 58/9/5 55/10/5
f 31/2/1 32/3/1 36/4/1 35/1/1
f 109/10/5 234/5/5 187/6/5 111/9/5
f 16/1/1 14/2/1 15/3/1 13/4/1
f 174/3/5 190/4/5 189/1/5 175/2/5
f 83/2/3 81/3/3 82/4/3 80/1/3
f 121/4/4 114/1/4 116/2/4 120/3/4
f 116/6/4 186/5/4 334/2/4 120/1/4
f 252/4/6 250/3/6 251/2/6 249/1/6
f 273/3/1 275/7/1 274/8/1 272/2/1
f 117/1/4 115/2/4 116/3/4 114/4/4
f 222/5/6 100/10/6 75/9/6 221/6/6
f 201/5/5 205/6/5 51/9/5 47/10/5
f 303/4/6 302/3/6 285/2/6 282/1/6
f 17/2/2 19/3/2 28/4/2 27/1/2
f 142/3/3 151/4/3 170/1/3 167/2/3
f 180/2/5 179/1/5 66/6/5 61/5/5
f 312/3/6 310/12/6 311/13/6 309/4/6
f 331/2/4 177/1/4 43/6/4 64/5/4
f 293/11/2 292/12/2 93/3/2 287/7/2
f 151/3/3 150/4/3 173/1/3 170/2/3
f 87/1/2 79/2/2 76/3/2 86/4/2
f 47/3/5 51/4/5 52/1/5 48/2/5
f 93/1/2 87/2/2 86/3/2 92/4/2
f 85/1/1 71/2/1 68/3/1 84/4/1
f 43/4/4 42/1/4 65/2/4 64/3/4
f 105/2/5 103/3/5 104/4/5 102/1/5
f 75/4/6 100/3/6 101/2/6 73/1/6
f 1/2/1 45/3/1 54/4/1 15/1/1
f 111/5/5 187/2/5 188/1/5 185/6/5
f 159/2/3 132/3/3 131/4/3 158/1/3
f 253/7/2 40/4/2 96/1/2 271/8/2
f 169/5/5 172/6/5 234/9/5 231/10/5
f 25/2/1 26/3/1 32/4/1 31/1/1
f 236/9/2 233/10/2 232/5/2 235/6/2
f 137/5/1 134/2/1 192/1/1 191/6/1
f 325/2/6 324/1/6 329/6/6 330/5/6
f 20/2/2 18/3/2 19/4/2 17/1/2
f 51/3/5 55/4/5 56/1/5 52/2/5
f 58/3/5 61/4/5 62/1/5 59/2/5
f 148/2/2 147/3/2 119/4/2 146/1/2
f 106/5/5 108/6/5 211/9/5 208/10/5
f 103/10/5 227/5/5 228/6/5 104/9/5
f 206/10/2 207/5/2 210/6/2 209/9/2
f 203/10/2 204/5/2 207/6/2 206/9/2
f 163/3/5 160/4/5 161/1/5 162/2/5
f 61/3/5 66/4/5 67/1/5 62/2/5
f 218/10/2 206/5/2 209/6/2 219/9/2
f 119/2/2 112/3/2 113/4/2 118/1/2
f 245/10/2 226/5/2 230/6/2 246/9/2
f 27/2/2 28/3/2 34/4/2 33/1/2
f 216/10/2 203/5/2 206/6/2 218/9/2
f 73/6/6 101/5/6 215/10/6 214/9/6
f 233/9/2 230/10/2 229/5/2 232/6/2
f 240/10/1 238/5/1 239/6/1 237/9/1
f 133/3/3 130/4/3 131/1/3 132/2/3
f 102/2/5 104/3/5 107/4/5 106/1/5
f 104/10/5 228/5/5 231/6/5 107/9/5
f 161/5/5 166/6/5 228/9/5 227/10/5
f 230/9/2 226/10/2 223/5/2 229/6/2
f 226/9/2 224/10/2 225/5/2 223/6/2
f 108/2/5 109/3/5 111/4/5 110/1/5
f 241/10/2 224/5/2 226/6/2 245/9/2
f 200/5/3 197/6/3 198/9/3 199/10/3
f 146/2/2 119/3/2 118/4/2 153/1/2
f 332/1/4 183/2/4 115/3/4 117/4/4
f 141/2/2 139/3/2 140/4/2 138/1/2
f 243/10/2 242/5/2 224/6/2 241/9/2
f 107/10/5 231/5/5 234/6/5 109/9/5
f 55/3/5 58/4/5 59/1/5 56/2/5
f 219/10/2 209/5/2 212/6/2 220/9/2
f 166/5/5 169/6/5 231/9/5 228/10/5
f 96/5/2 40/2/2 39/1/2 98/6/2
f 304/8/2 147/2/2 314/12/2 313/11/2
f 172/5/5 175/6/5 187/9/5 234/10/5
f 287/7/2 97/4/2 112/1/2 286/8/2
f 160/3/5 165/4/5 166/1/5 161/2/5
f 165/3/5 168/4/5 169/1/5 166/2/5
f 149/3/3 154/4/3 155/1/3 150/2/3
f 1/1/1 3/2/1 46/3/1 45/4/1
f 279/3/6 277/12/6 278/13/6 276/4/6
f 13/1/1 15/2/1 54/3/1 53/4/1
f 266/7/1 268/4/1 267/1/1 265/8/1
f 9/5/3 11/2/3 22/1/3 24/6/3
f 247/10/2 233/5/2 236/6/2 248/9/2
f 171/3/5 174/4/5 175/1/5 172/2/5
f 286/7/2 112/4/2 119/1/2 304/8/2
f 8/5/2 5/2/2 18/1/2 20/6/2
f 178/1/4 41/6/4 43/5/4 177/2/4
f 306/3/1 308/7/1 307/8/1 305/2/1
f 297/3/3 294/7/3 295/8/3 296/2/3
f 291/13/6 289/12/6 290/2/6 288/1/6
f 14/6/1 4/5/1 1/2/1 15/1/1
f 264/3/3 261/7/3 262/8/3 263/2/3
f 158/2/3 131/3/3 145/4/3 164/1/3
f 285/3/6 283/2/6 284/1/6 282/4/6
f 129/1/2 127/2/2 128/3/2 126/4/2
f 271/8/2 92/2/2 281/12/2 280/11/2
f 12/2/3 10/3/3 11/4/3 9/1/3
f 193/10/2 195/5/2 204/6/2 203/9/2
f 324/2/6 322/3/6 323/4/6 321/1/6
f 145/2/3 143/3/3 144/4/3 142/1/3
f 75/3/6 73/2/6 74/1/6 72/4/6
f 328/2/6 327/1/6 318/6/6 320/5/6
f 183/4/4 177/1/4 331/2/4 184/3/4
f 115/6/4 182/5/4 186/2/4 116/1/4
f 113/1/2 112/2/2 97/3/2 99/4/2
f 177/5/4 183/2/4 332/1/4 178/6/4
f 131/5/3 130/2/3 143/1/3 145/6/3
f 334/2/4 333/3/4 156/4/4 120/1/4
