# Blender 5.0.1
# www.blender.org
mtllib BP_PickleGate_7.mtl
o SK_Picklegate_7.001
v -78.134918 1.158719 351.039520
v -78.134903 19.908735 351.039520
v -96.884918 1.158721 351.039520
v -96.884903 19.908768 351.039520
v -183.231567 21.493568 351.039520
v -151.981583 -9.756399 351.039520
v -151.981567 21.493567 351.039520
v -183.231583 -9.756392 351.039520
v -48.200943 21.041603 351.039520
v -29.450989 2.291597 351.039520
v -29.450989 21.041597 351.039520
v -48.200989 2.291610 351.039520
v -137.578369 1.405204 351.039520
v -118.828384 1.405195 351.039520
v -118.828354 20.155203 351.039520
v -137.578339 20.155212 351.039520
v 248.363770 -2.448010 351.039520
v 267.113770 -2.448009 351.039520
v 248.363770 16.301992 351.039520
v 267.113831 16.301991 351.039520
v 313.246643 -13.363119 351.039520
v 281.996643 17.886847 351.039520
v 281.996643 -13.363092 351.039520
v 313.246643 17.886848 351.039520
v 173.026367 -1.315166 351.039520
v 191.776367 17.434805 351.039520
v 173.026367 17.434803 351.039520
v 191.776367 -1.315180 351.039520
v 207.670319 -2.201566 351.039520
v 226.420349 -2.201571 351.039520
v 226.420349 16.548435 351.039520
v 207.670319 16.548443 351.039520
v 64.943848 13.963976 351.039520
v 46.193817 13.963974 351.039520
v 64.943817 -4.786028 351.039520
v 46.193787 -4.786022 351.039520
v 31.311005 -6.370866 351.039520
v 0.061035 24.879124 351.039520
v 0.061005 -6.370831 351.039520
v 31.311035 24.879105 351.039520
v 125.072479 12.831150 351.039520
v 143.822449 -5.918852 351.039520
v 143.822449 12.831151 351.039520
v 125.072479 -5.918854 351.039520
v 105.637268 13.717527 351.039520
v 86.887268 13.717533 351.039520
v 86.887268 -5.032471 351.039520
v 105.637268 -5.032480 351.039520
v -285.996704 13.352907 351.039520
v -304.746704 13.352905 351.039520
v -285.996704 -5.397097 351.039520
v -304.746735 -5.397091 351.039520
v -229.409271 12.220080 351.039520
v -210.659286 -6.529922 351.039520
v -210.659286 12.220082 351.039520
v -229.409271 -6.529923 351.039520
v -245.303253 13.106459 351.039520
v -264.053223 13.106464 351.039520
v -264.053223 -5.643539 351.039520
v -245.303238 -5.643549 351.039520
v -346.534088 21.493538 351.039520
v -315.284058 -9.756429 351.039520
v -315.284088 21.493542 351.039520
v -346.534119 -9.756422 351.039520
v -183.231583 -9.756392 351.039520
v -183.231583 -9.756394 0.000006
v -151.981583 -9.756399 351.039520
v -151.981583 -9.756399 0.000006
v -183.231567 21.493568 351.039520
v -183.231567 21.493568 0.000006
v -183.231583 -9.756392 351.039520
v -183.231583 -9.756394 0.000006
v -151.981567 21.493567 351.039520
v -183.231567 21.493568 0.000006
v -183.231567 21.493568 351.039520
v -151.981567 21.493563 0.000006
v -151.981583 -9.756399 351.039520
v -151.981567 21.493563 0.000006
v -151.981567 21.493567 351.039520
v -151.981583 -9.756399 0.000006
v -78.134918 1.158719 0.000006
v -78.134903 19.908735 351.039520
v -78.134918 1.158719 351.039520
v -78.134903 19.908735 0.000006
v -96.884918 1.158721 351.039520
v -96.884918 1.158721 0.000006
v -78.134918 1.158719 351.039520
v -78.134918 1.158719 0.000006
v -78.134903 19.908735 351.039520
v -78.134903 19.908735 0.000006
v -96.884903 19.908768 351.039520
v -96.884903 19.908768 0.000006
v -96.884903 19.908768 0.000006
v -96.884918 1.158721 351.039520
v -96.884903 19.908768 351.039520
v -96.884918 1.158721 0.000006
v -29.450989 2.291597 351.039520
v -29.450989 2.291597 0.000006
v -29.450989 21.041597 351.039520
v -29.450989 21.041597 0.000006
v -29.450989 21.041597 351.039520
v -29.450989 21.041597 0.000006
v -48.200943 21.041603 351.039520
v -48.200943 21.041603 0.000006
v -48.200943 21.041603 351.039520
v -48.200943 21.041603 0.000006
v -48.200989 2.291610 351.039520
v -48.200989 2.291610 0.000006
v -48.200989 2.291610 351.039520
v -48.200989 2.291610 0.000006
v -29.450989 2.291597 351.039520
v -29.450989 2.291597 0.000006
v -137.578369 1.405204 351.039520
v -137.578369 1.405204 0.000006
v -118.828384 1.405195 351.039520
v -118.828384 1.405195 0.000006
v -118.828384 1.405195 0.000006
v -118.828354 20.155203 351.039520
v -118.828384 1.405195 351.039520
v -118.828339 20.155203 0.000006
v -118.828354 20.155203 351.039520
v -137.578323 20.155212 0.000006
v -137.578339 20.155212 351.039520
v -118.828339 20.155203 0.000006
v -137.578323 20.155212 0.000006
v -137.578369 1.405204 351.039520
v -137.578339 20.155212 351.039520
v -137.578369 1.405204 0.000006
v 248.363770 -2.448010 351.039520
v 248.363770 -2.448010 0.000006
v 267.113770 -2.448009 351.039520
v 267.113770 -2.448009 0.000006
v 248.363770 16.301992 351.039520
v 248.363770 16.301992 0.000006
v 248.363770 -2.448010 351.039520
v 248.363770 -2.448010 0.000006
v 267.113770 -2.448009 351.039520
v 267.113770 -2.448009 0.000006
v 267.113831 16.301991 351.039520
v 267.113831 16.301991 0.000006
v 267.113831 16.301991 351.039520
v 267.113831 16.301991 0.000006
v 248.363770 16.301992 351.039520
v 248.363770 16.301992 0.000006
v 191.776367 17.434805 351.039520
v 191.776367 17.434801 0.000006
v 173.026367 17.434803 351.039520
v 173.026367 17.434803 0.000006
v 173.026367 17.434803 351.039520
v 173.026367 17.434803 0.000006
v 173.026367 -1.315166 351.039520
v 173.026367 -1.315166 0.000006
v 173.026367 -1.315166 351.039520
v 173.026367 -1.315166 0.000006
v 191.776367 -1.315180 351.039520
v 191.776367 -1.315180 0.000006
v 191.776367 -1.315180 351.039520
v 191.776367 17.434801 0.000006
v 191.776367 17.434805 351.039520
v 191.776367 -1.315180 0.000006
v 207.670319 -2.201566 351.039520
v 207.670319 -2.201566 0.000006
v 226.420349 -2.201571 351.039520
v 226.420349 -2.201571 0.000006
v 226.420349 -2.201571 0.000006
v 226.420349 16.548435 351.039520
v 226.420349 -2.201571 351.039520
v 226.420349 16.548435 0.000006
v 226.420349 16.548435 351.039520
v 226.420349 16.548435 0.000006
v 207.670319 16.548443 351.039520
v 207.670319 16.548443 0.000006
v 207.670319 16.548443 0.000006
v 207.670319 -2.201566 351.039520
v 207.670319 16.548443 351.039520
v 207.670319 -2.201566 0.000006
v 31.311005 -6.370866 351.039520
v 31.311035 24.879101 0.000006
v 31.311035 24.879105 351.039520
v 31.311005 -6.370870 0.000006
v 31.311035 24.879105 351.039520
v 0.061035 24.879124 0.000006
v 0.061035 24.879124 351.039520
v 31.311035 24.879101 0.000006
v 0.061005 -6.370831 351.039520
v 0.061005 -6.370831 0.000006
v 31.311005 -6.370866 351.039520
v 31.311005 -6.370870 0.000006
v 0.061035 24.879124 351.039520
v 0.061035 24.879124 0.000006
v 0.061005 -6.370831 351.039520
v 0.061005 -6.370831 0.000006
v 64.943848 13.963976 0.000006
v 46.193817 13.963974 351.039520
v 64.943848 13.963976 351.039520
v 46.193817 13.963974 0.000006
v 64.943817 -4.786028 351.039520
v 64.943817 -4.786028 0.000006
v 64.943848 13.963976 351.039520
v 64.943848 13.963976 0.000006
v 46.193817 13.963974 0.000006
v 46.193787 -4.786022 351.039520
v 46.193817 13.963974 351.039520
v 46.193787 -4.786022 0.000006
v 46.193787 -4.786022 0.000006
v 64.943817 -4.786028 351.039520
v 46.193787 -4.786022 351.039520
v 64.943817 -4.786028 0.000006
v 143.822449 -5.918852 351.039520
v 143.822449 -5.918852 0.000006
v 143.822449 12.831151 351.039520
v 143.822449 12.831151 0.000006
v 143.822449 12.831151 351.039520
v 143.822449 12.831151 0.000006
v 125.072479 12.831150 351.039520
v 125.072479 12.831150 0.000006
v 125.072479 12.831150 351.039520
v 125.072479 12.831150 0.000006
v 125.072479 -5.918854 351.039520
v 125.072479 -5.918854 0.000006
v 125.072479 -5.918854 351.039520
v 125.072479 -5.918854 0.000006
v 143.822449 -5.918852 351.039520
v 143.822449 -5.918852 0.000006
v 105.637268 13.717527 351.039520
v 105.637268 13.717527 0.000006
v 86.887268 13.717533 351.039520
v 86.887268 13.717533 0.000006
v 86.887268 13.717533 351.039520
v 86.887268 13.717533 0.000006
v 86.887268 -5.032471 351.039520
v 86.887268 -5.032471 0.000006
v 86.887268 -5.032471 351.039520
v 86.887268 -5.032471 0.000006
v 105.637268 -5.032480 351.039520
v 105.637268 -5.032480 0.000006
v 105.637268 -5.032480 0.000006
v 105.637268 13.717527 351.039520
v 105.637268 -5.032480 351.039520
v 105.637268 13.717527 0.000006
v -285.996704 13.352907 0.000006
v -304.746704 13.352905 351.039520
v -285.996704 13.352907 351.039520
v -304.746704 13.352905 0.000006
v -285.996704 -5.397097 351.039520
v -285.996704 -5.397097 0.000006
v -285.996704 13.352907 351.039520
v -285.996704 13.352907 0.000006
v -304.746704 13.352905 0.000006
v -304.746735 -5.397091 351.039520
v -304.746704 13.352905 351.039520
v -304.746735 -5.397091 0.000006
v -304.746735 -5.397091 0.000006
v -285.996704 -5.397097 351.039520
v -304.746735 -5.397091 351.039520
v -285.996704 -5.397097 0.000006
v -210.659286 -6.529922 351.039520
v -210.659286 -6.529922 0.000006
v -210.659286 12.220082 351.039520
v -210.659286 12.220082 0.000006
v -210.659286 12.220082 351.039520
v -210.659286 12.220082 0.000006
v -229.409271 12.220080 351.039520
v -229.409271 12.220080 0.000006
v -229.409271 12.220080 351.039520
v -229.409271 12.220080 0.000006
v -229.409271 -6.529923 351.039520
v -229.409271 -6.529923 0.000006
v -229.409271 -6.529923 351.039520
v -229.409271 -6.529923 0.000006
v -210.659286 -6.529922 351.039520
v -210.659286 -6.529922 0.000006
v -245.303253 13.106459 351.039520
v -245.303253 13.106459 0.000006
v -264.053223 13.106464 351.039520
v -264.053223 13.106464 0.000006
v -264.053223 13.106464 351.039520
v -264.053223 13.106464 0.000006
v -264.053223 -5.643539 351.039520
v -264.053223 -5.643539 0.000006
v -264.053223 -5.643539 351.039520
v -264.053223 -5.643539 0.000006
v -245.303238 -5.643549 351.039520
v -245.303238 -5.643549 0.000006
v -245.303238 -5.643549 0.000006
v -245.303253 13.106459 351.039520
v -245.303238 -5.643549 351.039520
v -245.303253 13.106459 0.000006
v -315.284058 -9.756429 351.039520
v -315.284058 -9.756429 0.000006
v -315.284088 21.493542 351.039520
v -315.284088 21.493542 0.000006
v -315.284088 21.493542 351.039520
v -315.284088 21.493542 0.000006
v -346.534088 21.493538 351.039520
v -346.534088 21.493542 0.000006
v -346.534088 21.493538 351.039520
v -346.534119 -9.756420 0.000006
v -346.534119 -9.756422 351.039520
v -346.534088 21.493542 0.000006
v -346.534119 -9.756422 351.039520
v -346.534119 -9.756420 0.000006
v -315.284058 -9.756429 351.039520
v -315.284058 -9.756429 0.000006
v 281.996643 17.886847 351.039520
v 281.996643 -13.363091 0.000006
v 281.996643 -13.363092 351.039520
v 281.996643 17.886847 0.000006
v 281.996643 -13.363092 351.039520
v 281.996643 -13.363091 0.000006
v 313.246643 -13.363119 351.039520
v 313.246643 -13.363119 0.000006
v 313.246643 17.886848 351.039520
v 313.246643 17.886848 0.000006
v 281.996643 17.886847 351.039520
v 281.996643 17.886847 0.000006
v 313.246643 -13.363119 351.039520
v 313.246643 -13.363119 0.000006
v 313.246643 17.886848 351.039520
v 313.246643 17.886848 0.000006
v -346.534119 6.004670 351.039551
v -315.284180 6.004673 382.289551
v -346.534119 6.004670 382.289551
v -315.284180 6.004673 351.039551
v -330.625732 -9.620409 351.039551
v -330.625732 21.629560 382.289551
v -330.625732 -9.620378 382.289551
v -330.625763 21.629560 351.039551
v -280.121826 9.176004 351.039520
v -311.371796 9.176003 382.289520
v -280.121857 9.176004 382.289520
v -311.371796 9.176003 351.039520
v -295.463379 24.800932 351.039520
v -295.463409 -6.449039 382.289520
v -295.463409 24.800901 382.289520
v -295.463379 -6.449039 351.039520
v -258.112946 -6.448989 351.039490
v -258.112946 24.800980 382.289490
v -258.112946 -6.448959 382.289490
v -258.112946 24.800980 351.039490
v -242.204529 9.175886 351.039520
v -273.454498 9.175914 382.289520
v -242.204559 9.175917 382.289520
v -273.454498 9.175883 351.039520
v -236.229568 9.176017 351.039520
v -204.979599 9.176015 382.289520
v -236.229538 9.176013 382.289520
v -204.979599 9.176019 351.039520
v -220.321182 -6.449066 351.039520
v -220.321152 24.800903 382.289520
v -220.321152 -6.449036 382.289520
v -220.321182 24.800903 351.039520
v -183.231644 5.801704 351.039551
v -151.981674 5.801710 382.289551
v -183.231613 5.801708 382.289551
v -151.981674 5.801706 351.039551
v -167.323242 -9.823371 351.039551
v -167.323227 21.426598 382.289551
v -167.323227 -9.823340 382.289551
v -167.323257 21.426598 351.039551
v -113.184692 9.176054 351.039520
v -144.434662 9.176059 382.289520
v -113.184723 9.176054 382.289520
v -144.434662 9.176059 351.039520
v -128.526230 24.800945 351.039520
v -128.526260 -6.449028 382.289520
v -128.526260 24.800915 382.289520
v -128.526245 -6.449028 351.039520
v -88.464859 -6.448963 351.039520
v -88.464859 24.801006 382.289520
v -88.464859 -6.448933 382.289520
v -88.464859 24.801006 351.039520
v -72.556458 9.175917 351.039520
v -103.806427 9.175944 382.289520
v -72.556488 9.175943 382.289520
v -103.806427 9.175918 351.039520
v -40.571869 -6.448951 351.039520
v -40.571869 24.801018 382.289520
v -40.571869 -6.448921 382.289520
v -40.571869 24.801018 351.039520
v -24.663483 9.175940 351.039520
v -55.913452 9.175960 382.289520
v -24.663513 9.175966 382.289520
v -55.913452 9.175933 351.039520
v 0.060944 8.899364 351.039551
v 31.310913 8.899367 382.289551
v 0.060974 8.899364 382.289551
v 31.310913 8.899367 351.039551
v 15.969360 -6.725710 351.039551
v 15.969360 24.524260 382.289551
v 15.969360 -6.725680 382.289551
v 15.969360 24.524260 351.039551
v 41.142212 9.176060 351.039520
v 72.392181 9.176066 382.289520
v 41.142242 9.176064 382.289520
v 72.392181 9.176063 351.039520
v 57.050629 -6.449019 351.039520
v 57.050629 24.800951 382.289520
v 57.050629 -6.448988 382.289520
v 57.050629 24.800951 351.039520
v 112.415894 9.176065 351.039520
v 81.165924 9.176064 382.289520
v 112.415863 9.176065 382.289520
v 81.165924 9.176064 351.039520
v 97.074341 24.800951 351.039520
v 97.074310 -6.449019 382.289520
v 97.074310 24.800920 382.289520
v 97.074341 -6.449019 351.039520
v 117.325989 9.176074 351.039520
v 148.575958 9.176077 382.289520
v 117.326019 9.176074 382.289520
v 148.575958 9.176077 351.039520
v 133.234375 -6.449005 351.039520
v 133.234406 24.800964 382.289520
v 133.234406 -6.448974 382.289520
v 133.234375 24.800964 351.039520
v 180.032166 -6.448917 351.039551
v 180.032166 24.801052 382.289551
v 180.032166 -6.448886 382.289551
v 180.032166 24.801052 351.039551
v 195.940552 9.175970 351.039520
v 164.690582 9.175998 382.289520
v 195.940521 9.176001 382.289520
v 164.690582 9.175967 351.039520
v 229.631836 9.176084 351.039551
v 198.381866 9.176081 382.289551
v 229.631836 9.176084 382.289551
v 198.381866 9.176081 351.039551
v 214.290222 24.800987 351.039520
v 214.290222 -6.448982 382.289520
v 214.290222 24.800957 382.289520
v 214.290283 -6.448982 351.039520
v 243.570312 9.176096 351.039551
v 274.820312 9.176099 382.289551
v 243.570374 9.176096 382.289551
v 274.820312 9.176099 351.039551
v 259.478699 -6.448986 351.039520
v 259.478699 24.800983 382.289520
v 259.478699 -6.448956 382.289520
v 259.478699 24.800983 351.039520
v 313.246582 2.261857 351.039520
v 281.996643 2.261850 382.289520
v 313.246582 2.261857 382.289520
v 281.996643 2.261850 351.039520
v 297.905029 17.886761 351.039551
v 297.905029 -13.363210 382.289551
v 297.905029 17.886730 382.289551
v 297.905090 -13.363210 351.039551
v 326.127991 -2.447998 351.039520
v 344.877991 -2.447996 351.039520
v 326.127991 16.302004 351.039520
v 344.877991 16.302006 351.039520
v 326.127991 -2.447998 351.039520
v 326.127991 -2.447998 0.000006
v 344.877991 -2.447996 351.039520
v 344.877991 -2.447996 0.000006
v 326.127991 16.302004 0.000006
v 326.127991 -2.447998 351.039520
v 326.127991 16.302004 351.039520
v 326.127991 -2.447998 0.000006
v 344.877991 -2.447996 0.000006
v 344.877991 16.302006 351.039520
v 344.877991 -2.447996 351.039520
v 344.877991 16.302006 0.000006
v 344.877991 16.302006 351.039520
v 344.877991 16.302006 0.000006
v 326.127991 16.302004 351.039520
v 326.127991 16.302004 0.000006
v 321.334534 9.176107 351.039551
v 352.584473 9.176113 382.289551
v 321.334534 9.176107 382.289551
v 352.584473 9.176113 351.039551
v 337.242859 -6.448972 351.039520
v 337.242920 24.800999 382.289520
v 337.242920 -6.448941 382.289520
v 337.242859 24.800999 351.039520
vn -0.0000 -0.0000 1.0000
vn -0.0000 -1.0000 -0.0000
vn -1.0000 -0.0000 -0.0000
vn -0.0000 1.0000 -0.0000
vn 1.0000 -0.0000 -0.0000
vt 0.500000 0.843750
vt 0.500000 0.968750
vt 0.375000 0.968750
vt 0.375000 0.843750
vt 0.156250 0.875000
vt 0.156250 0.937500
vt 0.218750 0.937500
vt 0.218750 0.875000
vt 0.250000 0.843750
vt 0.250000 0.968750
vt 0.125000 0.968750
vt 0.125000 0.843750
vt 0.687500 0.000000
vt 0.687500 0.999969
vt 0.750000 0.999969
vt 0.750000 0.000000
vt -0.000031 0.968750
vt -0.000031 0.843750
vt 0.906250 0.000000
vt 0.906250 0.999969
vt 0.968750 0.999969
vt 0.968750 0.000000
vt 0.562500 0.000000
vt 0.562500 0.999969
vt 0.625000 0.999969
vt 0.625000 0.000000
vt 0.656250 0.000000
vt 0.656250 0.999969
vt 0.718750 0.999969
vt 0.718750 0.000000
vt 0.812500 0.000000
vt 0.812500 0.999969
vt 0.937500 0.999969
vt 0.937500 0.000000
vt 0.875000 0.000000
vt 0.875000 0.999969
vt 0.781250 0.999969
vt 0.781250 0.000000
vt 0.843750 0.999969
vt 0.843750 0.000000
vt 1.000000 0.000000
vt 1.000000 0.999969
vt 0.593750 0.999969
vt 0.593750 0.000000
s 1
usemtl MI_Gate_Pickle_Alt
f 368/1/3 366/2/3 367/3/3 365/4/3
f 32/5/1 29/6/1 30/7/1 31/8/1
f 16/5/1 13/6/1 14/7/1 15/8/1
f 34/5/1 36/8/1 35/7/1 33/6/1
f 448/1/3 446/2/3 447/3/3 445/4/3
f 476/1/5 474/2/5 475/3/5 473/4/5
f 64/9/1 62/10/1 63/11/1 61/12/1
f 48/5/1 45/6/1 46/7/1 47/8/1
f 18/5/1 20/8/1 19/7/1 17/6/1
f 8/9/1 6/10/1 7/11/1 5/12/1
f 450/5/1 452/8/1 451/7/1 449/6/1
f 28/7/1 26/6/1 27/5/1 25/8/1
f 60/5/1 57/6/1 58/7/1 59/8/1
f 108/13/3 107/14/3 105/15/3 106/16/3
f 436/12/2 434/11/2 435/17/2 433/18/2
f 128/19/3 126/20/3 127/21/3 125/22/3
f 156/23/2 155/24/2 153/25/2 154/26/2
f 468/27/4 467/28/4 465/29/4 466/30/4
f 296/27/4 295/28/4 293/15/4 294/16/4
f 72/31/3 71/32/3 69/33/3 70/34/3
f 68/35/2 67/36/2 65/37/2 66/38/2
f 264/19/4 263/20/4 261/39/4 262/40/4
f 268/19/3 267/20/3 265/21/3 266/22/3
f 180/40/5 178/22/5 179/21/5 177/39/5
f 272/16/2 271/15/2 269/14/2 270/13/2
f 100/41/5 99/42/5 97/33/5 98/34/5
f 124/40/4 122/19/4 123/20/4 121/39/4
f 248/41/5 247/42/5 245/33/5 246/34/5
f 176/34/3 174/33/3 175/42/3 173/41/3
f 372/12/5 370/11/5 371/17/5 369/18/5
f 40/9/1 38/10/1 39/11/1 37/12/1
f 120/41/5 118/42/5 119/33/5 117/34/5
f 284/31/2 283/32/2 281/36/2 282/35/2
f 288/41/5 286/42/5 287/33/5 285/34/5
f 276/19/4 275/20/4 273/39/4 274/40/4
f 92/19/4 91/20/4 89/39/4 90/40/4
f 308/22/3 306/40/3 307/39/3 305/21/3
f 168/41/5 166/42/5 167/33/5 165/34/5
f 152/13/3 151/14/3 149/15/3 150/16/3
f 84/41/5 82/42/5 83/33/5 81/34/5
f 80/40/5 78/22/5 79/21/5 77/39/5
f 164/30/2 163/29/2 161/28/2 162/27/2
f 160/34/5 158/41/5 159/42/5 157/33/5
f 144/27/4 143/28/4 141/29/4 142/30/4
f 112/19/2 111/20/2 109/39/2 110/40/2
f 188/34/2 187/33/2 185/39/2 186/40/2
f 148/19/4 147/20/4 145/39/4 146/40/4
f 96/19/3 94/20/3 95/21/3 93/22/3
f 212/41/5 211/42/5 209/33/5 210/34/5
f 116/30/2 115/29/2 113/37/2 114/38/2
f 464/41/5 462/42/5 463/33/5 461/34/5
f 196/27/4 194/28/4 195/29/4 193/30/4
f 204/13/3 202/14/3 203/15/3 201/16/3
f 220/13/3 219/14/3 217/15/3 218/16/3
f 304/13/2 303/14/2 301/37/2 302/38/2
f 456/31/2 455/32/2 453/29/2 454/30/2
f 236/23/2 235/24/2 233/25/2 234/26/2
f 44/7/1 42/6/1 43/5/1 41/8/1
f 232/13/3 231/14/3 229/15/3 230/16/3
f 228/19/4 227/20/4 225/39/4 226/40/4
f 224/41/2 223/42/2 221/33/2 222/34/2
f 208/23/2 206/24/2 207/25/2 205/26/2
f 200/41/5 199/42/5 197/33/5 198/34/5
f 88/16/2 87/15/2 85/32/2 86/31/2
f 300/34/3 298/31/3 299/32/3 297/33/3
f 260/41/5 259/42/5 257/33/5 258/34/5
f 256/16/2 254/15/2 255/14/2 253/13/2
f 252/27/3 250/28/3 251/43/3 249/44/3
f 292/22/5 291/21/5 289/39/5 290/40/5
f 140/41/5 139/42/5 137/33/5 138/34/5
f 312/35/2 311/36/2 309/21/2 310/22/2
f 132/31/2 131/32/2 129/29/2 130/30/2
f 136/34/3 135/33/3 133/42/3 134/41/3
f 184/16/4 182/40/4 183/39/4 181/15/4
f 280/19/3 279/20/3 277/21/3 278/22/3
f 104/27/4 103/28/4 101/29/4 102/30/4
f 56/7/1 54/6/1 55/5/1 53/8/1
f 172/19/4 171/20/4 169/39/4 170/40/4
f 216/27/4 215/28/4 213/29/4 214/30/4
f 192/23/3 191/24/3 189/14/3 190/13/3
f 396/12/2 394/11/2 395/17/2 393/18/2
f 324/12/2 322/11/2 323/17/2 321/18/2
f 328/1/5 326/2/5 327/3/5 325/4/5
f 408/1/3 406/2/3 407/3/3 405/4/3
f 376/1/4 374/2/4 375/3/4 373/4/4
f 340/12/5 338/11/5 339/17/5 337/18/5
f 332/12/4 330/11/4 331/17/4 329/18/4
f 348/12/2 346/11/2 347/17/2 345/18/2
f 344/1/4 342/2/4 343/3/4 341/4/4
f 50/5/1 52/8/1 51/7/1 49/6/1
f 412/12/2 410/11/2 411/17/2 409/18/2
f 360/1/5 358/2/5 359/3/5 357/4/5
f 356/12/2 354/11/2 355/17/2 353/18/2
f 440/1/5 438/2/5 439/3/5 437/4/5
f 384/1/4 382/2/4 383/3/4 381/4/4
f 336/1/3 334/2/3 335/3/3 333/4/3
f 352/1/5 350/2/5 351/3/5 349/4/5
f 388/12/2 386/11/2 387/17/2 385/18/2
f 420/12/5 418/11/5 419/17/5 417/18/5
f 392/1/5 390/2/5 391/3/5 389/4/5
f 380/12/5 378/11/5 379/17/5 377/18/5
f 364/12/4 362/11/4 363/17/4 361/18/4
f 400/1/5 398/2/5 399/3/5 397/4/5
f 404/12/4 402/11/4 403/17/4 401/18/4
f 424/1/4 422/2/4 423/3/4 421/4/4
f 24/9/1 22/10/1 23/11/1 21/12/1
f 444/12/4 442/11/4 443/17/4 441/18/4
f 12/7/1 10/6/1 11/5/1 9/8/1
f 416/1/5 414/2/5 415/3/5 413/4/5
f 240/41/5 238/42/5 239/33/5 237/34/5
f 432/1/3 430/2/3 431/3/3 429/4/3
f 76/27/4 74/23/4 75/24/4 73/28/4
f 428/12/4 426/11/4 427/17/4 425/18/4
f 244/27/4 242/28/4 243/29/4 241/30/4
f 460/34/3 458/33/3 459/42/3 457/41/3
f 320/22/5 319/21/5 317/39/5 318/40/5
f 316/23/4 315/24/4 313/28/4 314/27/4
f 2/5/1 4/8/1 3/7/1 1/6/1
f 472/12/2 470/11/2 471/17/2 469/18/2
