# Blender 5.0.1
# www.blender.org
mtllib BP_Platform_ClosingGrill.mtl
o SM_FF_Bars.001
v -115.623978 250.000381 25.000984
v -99.999039 250.000534 -24.999035
v -115.624039 250.000595 -24.999016
v -99.998978 250.000320 25.000965
v -115.625961 -249.999619 24.998837
v -99.999969 0.000313 24.999893
v -115.624969 0.000375 24.999910
v -100.000961 -249.999680 24.998821
v -115.626022 -249.999405 -25.001163
v -100.000961 -249.999680 24.998821
v -115.625961 -249.999619 24.998837
v -100.001022 -249.999466 -25.001179
v -115.624039 250.000595 -24.999016
v -100.000031 0.000528 -25.000107
v -115.625031 0.000590 -25.000090
v -99.999039 250.000534 -24.999035
v -100.001022 -249.999466 -25.001179
v -100.000031 0.000528 -25.000107
v -99.999969 0.000313 24.999893
v -100.000961 -249.999680 24.998821
v -115.624969 0.000375 24.999910
v -115.623978 250.000381 25.000984
v -115.624039 250.000595 -24.999016
v -115.625031 0.000590 -25.000090
v -115.625961 -249.999619 24.998837
v -115.626022 -249.999405 -25.001163
v -99.999039 250.000534 -24.999035
v -99.998978 250.000320 25.000965
v -100.001022 -249.999466 -25.001179
v -115.626022 -249.999405 -25.001163
v -99.998978 250.000320 25.000965
v -115.623978 250.000381 25.000984
v -474.999054 237.501892 6.251347
v -99.999062 237.500458 -6.249088
v -474.999054 237.501953 -6.248653
v -99.999046 237.500397 6.250912
v -474.999146 212.501892 6.251240
v -99.999046 237.500397 6.250912
v -474.999054 237.501892 6.251347
v -99.999146 212.500397 6.250804
v -474.999176 212.501953 -6.248760
v -99.999146 212.500397 6.250804
v -474.999146 212.501892 6.251240
v -99.999161 212.500458 -6.249196
v -474.999054 237.501953 -6.248653
v -99.999161 212.500458 -6.249196
v -474.999176 212.501953 -6.248760
v -99.999062 237.500458 -6.249088
v -99.999161 212.500458 -6.249196
v -99.999062 237.500458 -6.249088
v -99.999046 237.500397 6.250912
v -99.999146 212.500397 6.250804
v -474.999146 212.501892 6.251240
v -474.999054 237.501892 6.251347
v -474.999054 237.501953 -6.248653
v -474.999176 212.501953 -6.248760
v -474.999237 187.501892 6.251132
v -99.999260 187.500458 -6.249302
v -474.999268 187.501953 -6.248868
v -99.999245 187.500397 6.250698
v -474.999359 162.501892 6.251025
v -99.999245 187.500397 6.250698
v -474.999237 187.501892 6.251132
v -99.999344 162.500397 6.250590
v -474.999359 162.501953 -6.248975
v -99.999344 162.500397 6.250590
v -474.999359 162.501892 6.251025
v -99.999359 162.500458 -6.249410
v -474.999268 187.501953 -6.248868
v -99.999359 162.500458 -6.249410
v -474.999359 162.501953 -6.248975
v -99.999260 187.500458 -6.249302
v -99.999359 162.500458 -6.249410
v -99.999260 187.500458 -6.249302
v -99.999245 187.500397 6.250698
v -99.999344 162.500397 6.250590
v -474.999359 162.501892 6.251025
v -474.999237 187.501892 6.251132
v -474.999268 187.501953 -6.248868
v -474.999359 162.501953 -6.248975
v -474.999451 137.501892 6.250917
v -99.999458 137.500458 -6.249517
v -474.999451 137.501953 -6.249083
v -99.999443 137.500397 6.250483
v -474.999542 112.501884 6.250811
v -99.999443 137.500397 6.250483
v -474.999451 137.501892 6.250917
v -99.999542 112.500389 6.250375
v -474.999573 112.501945 -6.249189
v -99.999542 112.500389 6.250375
v -474.999542 112.501884 6.250811
v -99.999557 112.500450 -6.249625
v -474.999451 137.501953 -6.249083
v -99.999557 112.500450 -6.249625
v -474.999573 112.501945 -6.249189
v -99.999458 137.500458 -6.249517
v -99.999557 112.500450 -6.249625
v -99.999458 137.500458 -6.249517
v -99.999443 137.500397 6.250483
v -99.999542 112.500389 6.250375
v -474.999542 112.501884 6.250811
v -474.999451 137.501892 6.250917
v -474.999451 137.501953 -6.249083
v -474.999573 112.501945 -6.249189
v -474.999634 87.501884 6.250703
v -99.999657 87.500450 -6.249732
v -474.999664 87.501945 -6.249297
v -99.999641 87.500389 6.250268
v -474.999756 62.501884 6.250596
v -99.999641 87.500389 6.250268
v -474.999634 87.501884 6.250703
v -99.999741 62.500393 6.250161
v -474.999756 62.501938 -6.249404
v -99.999741 62.500393 6.250161
v -474.999756 62.501884 6.250596
v -99.999756 62.500446 -6.249839
v -474.999664 87.501945 -6.249297
v -99.999756 62.500446 -6.249839
v -474.999756 62.501938 -6.249404
v -99.999657 87.500450 -6.249732
v -99.999756 62.500446 -6.249839
v -99.999657 87.500450 -6.249732
v -99.999641 87.500389 6.250268
v -99.999741 62.500393 6.250161
v -474.999664 87.501945 -6.249297
v -474.999756 62.501884 6.250596
v -474.999634 87.501884 6.250703
v -474.999756 62.501938 -6.249404
v -474.999847 37.501884 6.250488
v -99.999855 37.500446 -6.249946
v -474.999847 37.501938 -6.249512
v -99.999840 37.500393 6.250054
v -474.999939 12.501885 6.250381
v -99.999840 37.500393 6.250054
v -474.999847 37.501884 6.250488
v -99.999939 12.500394 6.249946
v -474.999969 12.501939 -6.249619
v -99.999939 12.500394 6.249946
v -474.999939 12.501885 6.250381
v -99.999954 12.500447 -6.250054
v -474.999847 37.501938 -6.249512
v -99.999954 12.500447 -6.250054
v -474.999969 12.501939 -6.249619
v -99.999855 37.500446 -6.249946
v -99.999954 12.500447 -6.250054
v -99.999855 37.500446 -6.249946
v -99.999840 37.500393 6.250054
v -99.999939 12.500394 6.249946
v -474.999847 37.501938 -6.249512
v -474.999939 12.501885 6.250381
v -474.999847 37.501884 6.250488
v -474.999969 12.501939 -6.249619
v -475.000031 -12.498115 6.250274
v -100.000061 -12.499553 -6.250161
v -475.000061 -12.498061 -6.249726
v -100.000046 -12.499606 6.249839
v -475.000153 -37.498116 6.250167
v -100.000046 -12.499606 6.249839
v -475.000031 -12.498115 6.250274
v -100.000145 -37.499607 6.249732
v -475.000153 -37.498062 -6.249833
v -100.000145 -37.499607 6.249732
v -475.000153 -37.498116 6.250167
v -100.000160 -37.499554 -6.250268
v -475.000061 -12.498061 -6.249726
v -100.000160 -37.499554 -6.250268
v -475.000153 -37.498062 -6.249833
v -100.000061 -12.499553 -6.250161
v -100.000160 -37.499554 -6.250268
v -100.000061 -12.499553 -6.250161
v -100.000046 -12.499606 6.249839
v -100.000145 -37.499607 6.249732
v -475.000153 -37.498116 6.250167
v -475.000031 -12.498115 6.250274
v -475.000061 -12.498061 -6.249726
v -475.000153 -37.498062 -6.249833
v -475.000244 -62.498116 6.250059
v -100.000259 -62.499554 -6.250375
v -475.000244 -62.498062 -6.249941
v -100.000244 -62.499607 6.249625
v -475.000336 -87.498116 6.249952
v -100.000244 -62.499607 6.249625
v -475.000244 -62.498116 6.250059
v -100.000343 -87.499611 6.249517
v -475.000366 -87.498055 -6.250048
v -100.000343 -87.499611 6.249517
v -475.000336 -87.498116 6.249952
v -100.000359 -87.499550 -6.250483
v -475.000244 -62.498062 -6.249941
v -100.000359 -87.499550 -6.250483
v -475.000366 -87.498055 -6.250048
v -100.000259 -62.499554 -6.250375
v -100.000359 -87.499550 -6.250483
v -100.000259 -62.499554 -6.250375
v -100.000244 -62.499607 6.249625
v -100.000343 -87.499611 6.249517
v -475.000336 -87.498116 6.249952
v -475.000244 -62.498116 6.250059
v -475.000244 -62.498062 -6.249941
v -475.000366 -87.498055 -6.250048
v -475.000427 -112.498116 6.249845
v -100.000458 -112.499550 -6.250590
v -475.000458 -112.498055 -6.250155
v -100.000443 -112.499611 6.249410
v -475.000549 -137.498108 6.249738
v -100.000443 -112.499611 6.249410
v -475.000427 -112.498116 6.249845
v -100.000542 -137.499603 6.249302
v -475.000549 -137.498047 -6.250262
v -100.000542 -137.499603 6.249302
v -475.000549 -137.498108 6.249738
v -100.000557 -137.499542 -6.250698
v -475.000458 -112.498055 -6.250155
v -100.000557 -137.499542 -6.250698
v -475.000549 -137.498047 -6.250262
v -100.000458 -112.499550 -6.250590
v -100.000557 -137.499542 -6.250698
v -100.000458 -112.499550 -6.250590
v -100.000443 -112.499611 6.249410
v -100.000542 -137.499603 6.249302
v -475.000549 -137.498108 6.249738
v -475.000427 -112.498116 6.249845
v -475.000458 -112.498055 -6.250155
v -475.000549 -137.498047 -6.250262
v -475.000641 -162.498108 6.249630
v -100.000656 -162.499542 -6.250804
v -475.000641 -162.498047 -6.250370
v -100.000641 -162.499603 6.249196
v -475.000732 -187.498108 6.249523
v -100.000641 -162.499603 6.249196
v -475.000641 -162.498108 6.249630
v -100.000740 -187.499603 6.249088
v -475.000763 -187.498047 -6.250477
v -100.000740 -187.499603 6.249088
v -475.000732 -187.498108 6.249523
v -100.000755 -187.499542 -6.250912
v -475.000641 -162.498047 -6.250370
v -100.000755 -187.499542 -6.250912
v -475.000763 -187.498047 -6.250477
v -100.000656 -162.499542 -6.250804
v -100.000755 -187.499542 -6.250912
v -100.000656 -162.499542 -6.250804
v -100.000641 -162.499603 6.249196
v -100.000740 -187.499603 6.249088
v -475.000732 -187.498108 6.249523
v -475.000641 -162.498108 6.249630
v -475.000641 -162.498047 -6.250370
v -475.000763 -187.498047 -6.250477
v -475.000824 -212.498108 6.249415
v -100.000854 -212.499542 -6.251019
v -475.000854 -212.498047 -6.250585
v -100.000839 -212.499603 6.248981
v -475.000946 -237.498108 6.249309
v -100.000839 -212.499603 6.248981
v -475.000824 -212.498108 6.249415
v -100.000938 -237.499603 6.248873
v -475.000946 -237.498047 -6.250691
v -100.000938 -237.499603 6.248873
v -475.000946 -237.498108 6.249309
v -100.000954 -237.499542 -6.251127
v -475.000854 -212.498047 -6.250585
v -100.000954 -237.499542 -6.251127
v -475.000946 -237.498047 -6.250691
v -100.000854 -212.499542 -6.251019
v -100.000954 -237.499542 -6.251127
v -100.000854 -212.499542 -6.251019
v -100.000839 -212.499603 6.248981
v -100.000938 -237.499603 6.248873
v -475.000946 -237.498108 6.249309
v -475.000824 -212.498108 6.249415
v -475.000854 -212.498047 -6.250585
v -475.000946 -237.498047 -6.250691
vn -0.0000 1.0000 -0.0000
vn -0.0000 -0.0000 1.0000
vn -0.0000 -1.0000 -0.0000
vn -0.0000 -0.0000 -1.0000
vn 1.0000 -0.0000 -0.0000
vn -1.0000 -0.0000 -0.0000
vt 0.583008 0.000000
vt 0.666504 0.000000
vt 0.666504 0.999969
vt 0.583008 0.999969
vt 0.250000 0.000000
vt 0.333252 0.000000
vt 0.333252 0.999969
vt 0.250000 0.999969
vt 0.083313 0.000000
vt 0.166626 0.000000
vt 0.166626 0.999969
vt 0.083313 0.999969
vt 0.291504 0.999969
vt 0.250000 0.916687
vt 0.291504 0.916687
vt 0.125000 0.999969
vt 0.083313 0.916687
vt 0.125000 0.916687
vt 0.166626 0.916687
vt 0.208252 0.916687
vt 0.208252 0.999969
vt 0.791504 0.604248
vt 0.791504 0.562744
vt 0.833008 0.562744
vt 0.833008 0.604248
vt 0.416504 0.000000
vt 0.500000 0.000000
vt 0.500000 0.999969
vt 0.416504 0.999969
vt 0.208252 0.000000
vt 0.833008 0.166992
vt 0.999512 0.166992
vt 1.000000 0.999969
vt 0.833008 0.999969
vt 0.625000 0.000000
vt 0.625000 0.999969
vt 0.791504 0.562500
vt 0.791504 0.520996
vt 0.833008 0.520996
vt 0.833008 0.562500
vt 0.375000 0.000000
vt 0.375000 0.999969
vt 0.541504 0.000000
vt 0.541504 0.999969
vt 1.000000 0.166992
vt 0.041656 0.000000
vt 0.041656 0.999969
vt 0.125000 0.000000
vt 0.500000 0.916687
vt 0.541504 0.916687
vt 0.583008 0.916687
vt 0.625000 0.916687
vt 0.291504 0.000000
vt 0.000031 0.999969
vt -0.000031 0.916687
vt 0.041656 0.916687
vt 0.333252 0.916687
vt 0.375000 0.916687
vt 0.000031 0.000000
vt 0.666504 0.166992
vt 0.458252 0.000000
vt 0.458252 0.999969
vt 0.416504 0.916687
vt 0.458252 0.916687
vt -0.000031 0.000000
vt 0.000031 0.999969
s 1
usemtl MI_FF_Bars
f 216/1/4 214/2/4 215/3/4 213/4/4
f 120/5/4 118/6/4 119/7/4 117/8/4
f 72/9/4 70/10/4 71/11/4 69/12/4
f 124/13/5 121/8/5 122/14/5 123/15/5
f 244/16/5 241/12/5 242/17/5 243/18/5
f 104/19/6 101/20/6 102/21/6 103/11/6
f 6/22/2 31/23/2 32/24/2 7/25/2
f 160/26/2 158/27/2 159/28/2 157/29/2
f 88/10/2 86/5/2 87/8/2 85/11/2
f 248/17/6 245/18/6 246/16/6 247/12/6
f 92/5/3 90/30/3 91/21/3 89/8/3
f 20/31/5 17/32/5 18/33/5 19/34/5
f 212/2/3 210/35/3 211/36/3 209/3/3
f 128/14/6 126/15/6 127/13/6 125/8/6
f 4/37/1 2/38/1 3/39/1 1/40/1
f 12/37/3 10/38/3 11/39/3 9/40/3
f 132/41/1 130/6/1 131/7/1 129/42/1
f 144/6/4 142/26/4 143/29/4 141/7/4
f 188/1/3 186/43/3 187/44/3 185/4/3
f 19/33/5 18/34/5 27/31/5 28/45/5
f 264/10/4 262/5/4 263/8/4 261/11/4
f 184/27/2 182/1/2 183/4/2 181/28/2
f 44/9/3 42/46/3 43/47/3 41/12/3
f 16/22/4 14/37/4 15/40/4 13/25/4
f 228/48/1 226/9/1 227/12/1 225/16/1
f 200/49/6 197/50/6 198/44/6 199/28/6
f 192/27/4 190/1/4 191/4/4 189/28/4
f 220/36/5 217/4/5 218/51/5 219/52/5
f 116/6/3 114/53/3 115/13/3 113/7/3
f 26/31/6 25/45/6 21/33/6 24/34/6
f 60/48/1 58/9/1 59/12/1 57/16/1
f 168/26/4 166/27/4 167/28/4 165/29/4
f 8/22/2 6/23/2 7/24/2 5/25/2
f 14/22/4 29/37/4 30/40/4 15/25/4
f 204/35/1 202/1/1 203/4/1 201/36/1
f 52/47/5 49/54/5 50/55/5 51/56/5
f 56/55/6 53/56/6 54/47/6 55/54/6
f 152/57/6 150/58/6 151/42/6 149/7/6
f 240/9/4 238/10/4 239/11/4 237/12/4
f 140/26/3 138/41/3 139/42/3 137/29/3
f 148/42/5 145/7/5 146/57/5 147/58/5
f 84/30/1 82/10/1 83/11/1 81/21/1
f 64/9/2 62/10/2 63/11/2 61/12/2
f 40/59/2 38/9/2 39/12/2 37/54/2
f 24/60/6 21/31/6 22/34/6 23/3/6
f 260/5/3 258/30/3 259/21/3 257/8/3
f 232/9/2 230/10/2 231/11/2 229/12/2
f 156/61/1 154/26/1 155/29/1 153/62/1
f 80/17/6 77/18/6 78/16/6 79/12/6
f 176/63/6 173/64/6 174/62/6 175/29/6
f 100/21/5 97/11/5 98/19/5 99/20/5
f 36/46/1 34/65/1 35/66/1 33/47/1
f 224/51/6 221/52/6 222/36/6 223/4/6
f 236/10/3 234/48/3 235/16/3 233/11/3
f 112/5/2 110/6/2 111/7/2 109/8/2
f 96/10/4 94/5/4 95/8/4 93/11/4
f 164/27/3 162/61/3 163/62/3 161/28/3
f 180/43/1 178/27/1 179/28/1 177/44/1
f 208/1/2 206/2/2 207/3/2 205/4/2
f 252/30/1 250/10/1 251/11/1 249/21/1
f 196/44/5 193/28/5 194/49/5 195/50/5
f 48/59/4 46/9/4 47/12/4 45/54/4
f 172/62/5 169/29/5 170/63/5 171/64/5
f 108/53/1 106/5/1 107/8/1 105/13/1
f 136/6/2 134/26/2 135/29/2 133/7/2
f 68/10/3 66/48/3 67/16/3 65/11/3
f 256/10/2 254/5/2 255/8/2 253/11/2
f 76/16/5 73/12/5 74/17/5 75/18/5
f 268/21/5 265/11/5 266/19/5 267/20/5
f 272/19/6 269/20/6 270/21/6 271/11/6
