# Blender 5.0.1
# www.blender.org
mtllib BP_Pipe_RustedNetherite_01.mtl
o Decor_Plank_Netherite.001
v 21.875000 -0.000012 -75.000000
v 21.875000 0.000012 75.000000
v 21.875000 -12.500012 -75.000000
v 21.875000 -12.499988 75.000000
v -21.875000 -12.499988 75.000000
v 21.875000 -12.500012 -75.000000
v 21.875000 -12.499988 75.000000
v -21.875000 -12.500012 -75.000000
v 21.875000 0.000012 75.000000
v -21.875000 0.000012 75.000000
v 21.875000 -12.499988 75.000000
v -21.875000 -12.499988 75.000000
v -21.875000 -0.000012 -75.000000
v 21.875000 0.000012 75.000000
v 21.875000 -0.000012 -75.000000
v -21.875000 0.000012 75.000000
v -21.875000 -0.000012 -75.000000
v 21.875000 -0.000012 -75.000000
v -21.875000 -12.500012 -75.000000
v 21.875000 -12.500012 -75.000000
v -21.875000 -12.500012 -75.000000
v -21.875000 -12.499988 75.000000
v -21.875000 0.000012 75.000000
v -21.875000 -0.000012 -75.000000
vn 1.0000 -0.0000 -0.0000
vn -0.0000 -1.0000 -0.0000
vn -0.0000 -0.0000 1.0000
vn -0.0000 1.0000 -0.0000
vn -0.0000 -0.0000 -1.0000
vn -1.0000 -0.0000 -0.0000
vt 0.125000 0.234375
vt 0.125000 0.250000
vt 0.312500 0.250000
vt 0.312500 0.234375
vt 0.250000 0.937500
vt 0.250000 0.992188
vt 0.437500 0.992188
vt 0.437500 0.937500
vt 0.679688 0.976562
vt 0.679688 0.992188
vt 0.734375 0.992188
vt 0.734375 0.976562
s 1
usemtl MI_NetherWastesProps
f 24/1/6 21/2/6 22/3/6 23/4/6
f 2/3/1 4/4/1 3/1/1 1/2/1
f 8/5/2 6/6/2 7/7/2 5/8/2
f 10/9/3 12/10/3 11/11/3 9/12/3
f 16/5/4 14/6/4 15/7/4 13/8/4
f 18/11/5 20/12/5 19/9/5 17/10/5
