# Blender 5.0.1
# www.blender.org
mtllib BP_Pan.mtl
o SM_Pan.001
v 18.750000 18.750000 6.331199
v 18.750000 -18.750000 6.331199
v 18.750000 -18.750000 12.662433
v 18.750000 18.750000 12.662433
v -18.750000 -18.750000 6.331199
v -18.750000 18.750000 12.662433
v -18.750000 -18.750000 12.662433
v -18.750000 18.750000 6.331199
v 6.250000 56.250004 6.249999
v -6.250000 56.250004 6.249999
v -6.250000 56.250004 12.662433
v 6.250000 56.250004 12.662433
v -6.250000 24.999998 6.249999
v -6.250000 56.250004 6.249999
v 6.250000 24.999998 6.249999
v 6.250000 56.250004 6.249999
v -6.250000 24.999998 12.662433
v -6.250000 56.250004 12.662433
v -6.250000 24.999998 6.249999
v -6.250000 56.250004 6.249999
v 6.250000 24.999998 6.249999
v 6.250000 56.250004 6.249999
v 6.250000 24.999998 12.662433
v 6.250000 56.250004 12.662433
v 24.999998 -24.999998 12.662433
v 24.999998 24.999998 12.662433
v 18.750000 18.750000 12.662433
v 18.750000 -18.750000 12.662433
v -24.999998 24.999998 12.662433
v -24.999998 -24.999998 12.662433
v -18.750000 -18.750000 12.662433
v -18.750000 18.750000 12.662433
v 6.250000 24.999998 12.662433
v 6.250000 56.250004 12.662433
v -6.250000 24.999998 12.662433
v -6.250000 56.250004 12.662433
v 24.999998 24.999998 -0.000035
v 24.999998 -24.999998 -0.000035
v 6.250000 -24.999998 -0.000035
v 6.250000 24.999998 -0.000035
v -6.250000 -24.999998 -0.000035
v -6.250000 24.999998 -0.000035
v -24.999998 24.999998 -0.000035
v -24.999998 -24.999998 -0.000035
v 24.999998 -24.999998 -0.000035
v 24.999998 24.999998 -0.000035
v 24.999998 24.999998 6.249999
v 24.999998 -24.999998 6.249999
v 24.999998 24.999998 12.662433
v 24.999998 -24.999998 12.662433
v 6.250000 18.750000 6.331199
v 18.750000 -18.750000 6.331199
v 18.750000 18.750000 6.331199
v 6.250000 -18.750000 6.331199
v -6.249999 18.750000 6.331199
v -6.249999 -18.750000 6.331199
v -18.750000 -18.750000 6.331199
v -18.750000 18.750000 6.331199
v -24.999998 -24.999998 6.249999
v -24.999998 24.999998 -0.000035
v -24.999998 -24.999998 -0.000035
v -24.999998 24.999998 6.249999
v -24.999998 -24.999998 12.662433
v -24.999998 24.999998 12.662433
v -6.250000 -24.999998 12.662433
v -6.249999 -18.750000 12.662433
v 6.250000 -24.999998 12.662433
v 6.250000 -18.750000 12.662433
v -6.249999 18.750000 12.662433
v 6.250000 18.750000 12.662433
v 18.750000 -18.750000 6.331199
v 6.250000 -18.750000 6.331199
v 18.750000 -18.750000 12.662433
v 6.250000 -18.750000 12.662433
v -6.249999 -18.750000 6.331199
v -6.249999 -18.750000 12.662433
v -18.750000 -18.750000 12.662433
v -18.750000 -18.750000 6.331199
v -6.249999 18.750000 6.331199
v -18.750000 18.750000 12.662433
v -18.750000 18.750000 6.331199
v -6.249999 18.750000 12.662433
v 6.250000 18.750000 6.331199
v 6.250000 18.750000 12.662433
v 18.750000 18.750000 12.662433
v 18.750000 18.750000 6.331199
v -6.250000 24.999998 6.249999
v -24.999998 24.999998 12.662433
v -6.250000 24.999998 12.662433
v -24.999998 24.999998 6.249999
v -6.250000 24.999998 -0.000035
v -24.999998 24.999998 -0.000035
v 6.250000 24.999998 6.249999
v 6.250000 24.999998 -0.000035
v 24.999998 24.999998 6.249999
v 24.999998 24.999998 -0.000035
v 6.250000 24.999998 12.662433
v 24.999998 24.999998 12.662433
v 24.999998 -24.999998 12.662433
v 6.250000 -24.999998 12.662433
v 24.999998 -24.999998 6.249999
v 6.250000 -24.999998 -0.000035
v 24.999998 -24.999998 -0.000035
v 6.250000 -24.999998 6.249999
v -6.250000 -24.999998 12.662433
v -6.250000 -24.999998 -0.000035
v -24.999998 -24.999998 12.662433
v -24.999998 -24.999998 6.249999
v -6.250000 -24.999998 6.249999
v -24.999998 -24.999998 -0.000035
vn -1.0000 -0.0000 -0.0000
vn 1.0000 -0.0000 -0.0000
vn -0.0000 1.0000 -0.0000
vn -0.0000 -0.0000 -1.0000
vn -0.0000 -0.0000 1.0000
vn -0.0000 -1.0000 -0.0000
vt 0.187500 0.375000
vt 0.187500 0.312500
vt 0.312500 0.312500
vt 0.312500 0.375000
vt 0.000031 0.250000
vt 0.000031 0.187500
vt 0.500000 0.187500
vt 0.500000 0.250000
vt 0.500000 0.375000
vt 0.500000 0.312500
vt 0.437500 0.937500
vt 0.062500 0.937500
vt 0.062500 0.812500
vt 0.437500 0.812500
vt 0.500000 0.812500
vt 0.500000 0.937500
vt 0.000031 0.125000
vt 0.500000 0.125000
vt 0.437500 0.312500
vt 0.062500 0.312500
vt 1.000000 0.312500
vt 1.000000 0.500000
vt 0.500000 0.500000
vt 1.000000 0.187500
vt 0.812500 0.812500
vt 0.812500 0.875000
vt 0.687500 0.875000
vt 0.687500 0.812500
vt 0.437500 0.999969
vt 0.062500 0.999969
vt 0.062500 0.687500
vt 0.062500 0.562500
vt 0.437500 0.562500
vt 0.437500 0.687500
vt 0.625000 0.812500
vt 0.625000 0.500000
vt 0.687500 0.500000
vt 0.000031 0.687500
vt 0.000031 0.562500
vt 0.062500 0.500000
vt 0.437500 0.500000
vt 0.312500 0.437500
vt 0.500000 0.437500
vt 0.500000 0.000000
vt 1.000000 0.000000
vt 0.000031 0.437500
vt 0.187500 0.437500
vt 0.187500 0.500000
vt 0.312500 0.500000
vt 0.000031 0.375000
vt 0.812500 0.500000
vt 0.875000 0.500000
vt 0.875000 0.812500
vt 0.000031 0.812500
vt 0.500000 0.687500
vt 0.500000 0.562500
vt 0.000031 0.312500
vt 0.000031 0.937500
s 1
usemtl MI_Pan
f 93/1/3 94/2/3 91/3/3 87/4/3
f 64/5/1 62/6/1 59/7/1 63/8/1
f 101/9/6 104/4/6 102/3/6 103/10/6
f 58/11/5 57/12/5 56/13/5 55/14/5
f 82/15/6 80/16/6 81/11/6 79/14/6
f 47/7/2 48/6/2 45/17/2 46/18/2
f 27/19/5 25/5/5 26/8/5
f 28/20/5 25/5/5 27/19/5
f 31/19/5 29/5/5 30/8/5
f 32/20/5 29/5/5 31/19/5
f 41/21/4 44/22/4 43/23/4 42/10/4
f 41/21/4 42/10/4 40/7/4 39/24/4
f 12/25/3 9/26/3 10/27/3 11/28/3
f 104/4/6 109/1/6 106/2/6 102/3/6
f 8/11/2 6/29/2 7/30/2 5/12/2
f 54/31/5 52/32/5 53/33/5 51/34/5
f 20/35/1 19/36/1 17/37/1 18/28/1
f 72/31/3 74/38/3 73/39/3 71/32/3
f 3/40/1 4/41/1 1/33/1 2/32/1
f 100/42/6 104/4/6 101/9/6 99/43/6
f 39/24/4 40/7/4 37/44/4 38/45/4
f 30/46/5 65/47/5 31/40/5
f 66/48/5 31/40/5 65/47/5
f 70/48/5 33/47/5 35/42/5 69/49/5
f 68/49/5 67/42/5 28/41/5
f 25/43/5 28/41/5 67/42/5
f 29/43/5 32/41/5 35/42/5
f 69/49/5 35/42/5 32/41/5
f 70/48/5 27/40/5 33/47/5
f 26/46/5 33/47/5 27/40/5
f 62/6/1 60/17/1 61/18/1 59/7/1
f 98/46/3 95/50/3 93/1/3 97/47/3
f 36/28/5 35/37/5 33/51/5 34/25/5
f 24/25/2 23/51/2 21/52/2 22/53/2
f 56/13/5 54/31/5 51/34/5 55/14/5
f 75/13/3 76/54/3 74/38/3 72/31/3
f 84/55/6 82/15/6 79/14/6 83/34/6
f 49/8/2 50/5/2 48/6/2 47/7/2
f 87/4/3 90/9/3 88/43/3 89/42/3
f 86/33/6 85/56/6 84/55/6 83/34/6
f 68/49/5 66/48/5 65/47/5 67/42/5
f 105/47/6 109/1/6 104/4/6 100/42/6
f 16/15/4 15/23/4 13/36/4 14/35/4
f 95/50/3 96/57/3 94/2/3 93/1/3
f 91/3/3 92/10/3 90/9/3 87/4/3
f 75/13/3 78/12/3 77/58/3 76/54/3
f 109/1/6 105/47/6 107/46/6 108/50/6
f 109/1/6 108/50/6 110/57/6 106/2/6
