# Blender 5.0.1
# www.blender.org
mtllib BP_Platform_4w_Short_End_SoggySwamp.mtl
o SM_Bridges_Platform_4w_Short_End.001
v -50.000000 -200.000000 -0.000009
v -99.999992 -200.000000 -0.000009
v -99.999992 -200.000000 -50.000008
v -50.000000 -200.000000 -50.000008
v -0.000010 -200.000000 -0.000009
v -0.000010 -200.000000 -50.000008
v -50.000000 -200.000000 -0.000009
v -99.999977 0.000000 0.000000
v -99.999992 -200.000000 -0.000009
v -50.000000 0.000000 0.000000
v -50.000000 200.000000 0.000009
v -99.999992 200.000000 0.000009
v -0.000010 -200.000000 -0.000009
v 0.000000 0.000000 0.000000
v -0.000011 200.000000 0.000009
v -50.000000 200.000000 -49.999992
v -99.999992 200.000000 -49.999992
v -99.999992 200.000000 0.000009
v -50.000000 200.000000 0.000009
v -0.000011 200.000000 -49.999992
v -0.000011 200.000000 0.000009
v -99.999977 0.000002 -50.000000
v -50.000000 200.000000 -49.999992
v -50.000000 0.000002 -50.000000
v -99.999992 200.000000 -49.999992
v -99.999992 -200.000000 -50.000008
v -50.000000 -200.000000 -50.000008
v 0.000000 0.000005 -50.000000
v -0.000011 200.000000 -49.999992
v -0.000010 -200.000000 -50.000008
v 0.000000 0.000000 0.000000
v -0.000010 -200.000000 -0.000009
v -0.000010 -200.000000 -50.000008
v 0.000000 0.000005 -50.000000
v -0.000011 200.000000 0.000009
v -0.000011 200.000000 -49.999992
v -99.999977 0.000000 0.000000
v -99.999992 200.000000 -49.999992
v -99.999977 0.000002 -50.000000
v -99.999992 200.000000 0.000009
v -99.999992 -200.000000 -0.000009
v -99.999992 -200.000000 -50.000008
vn -0.0000 -1.0000 -0.0000
vn -0.0000 -0.0000 1.0000
vn -0.0000 1.0000 -0.0000
vn -0.0000 -0.0000 -1.0000
vn 1.0000 -0.0000 -0.0000
vn -1.0000 -0.0000 -0.0000
vt 0.210938 0.687500
vt 0.210938 0.937500
vt 0.148438 0.937500
vt 0.148438 0.687500
vt 0.062500 0.937500
vt 0.000031 0.937500
vt 0.000031 0.687500
vt 0.062500 0.687500
vt 0.210815 0.687500
vt 0.328125 0.437500
vt 0.328125 0.187500
vt 0.390625 0.187500
vt 0.390625 0.437500
vt 0.328125 0.125000
vt 0.390625 0.125000
vt 0.000031 0.187500
vt 0.062500 0.187500
vt 0.062500 0.437500
vt 0.000031 0.437500
vt 0.210815 0.437500
vt 0.148438 0.437500
vt 0.148438 0.187500
vt 0.210938 0.187500
vt 0.210938 0.999969
vt 0.148438 0.999969
vt 0.500000 0.000000
vt 0.500000 0.062500
vt 0.250000 0.062500
vt 0.250000 0.000000
vt 0.210938 0.437500
vt 0.328125 0.999969
vt 0.328125 0.937500
vt 0.390625 0.937500
vt 0.390625 0.999969
vt 0.210815 0.125000
vt 0.148438 0.125000
s 1
usemtl WorldGridMaterial
f 24/1/4 23/2/4 29/3/4 28/4/4
f 40/5/6 38/6/6 39/7/6 37/8/6
f 12/3/2 8/4/2 10/9/2 11/2/2
f 24/10/4 27/11/4 26/12/4 22/13/4
f 1/11/1 4/14/1 6/15/1 5/12/1
f 25/2/4 23/3/4 24/4/4 22/1/4
f 36/16/5 35/17/5 31/18/5 34/19/5
f 10/20/2 8/21/2 9/22/2 7/23/2
f 19/2/3 16/24/3 17/25/3 18/3/3
f 33/6/5 34/7/5 31/8/5 32/5/5
f 14/26/2 10/27/2 7/28/2 13/29/2
f 14/26/2 15/29/2 11/28/2 10/27/2
f 27/23/4 24/30/4 28/21/4 30/22/4
f 16/31/3 19/32/3 21/33/3 20/34/3
f 4/35/1 1/23/1 2/22/1 3/36/1
f 39/19/6 42/16/6 41/17/6 37/18/6
