# Blender 5.0.1
# www.blender.org
mtllib BP_Podium.mtl
o SM_RewardsTotem_Base2.001
v 100.000076 -99.999710 -0.000011
v 0.000287 -99.999969 -100.000015
v 100.000076 -99.999680 -100.000000
v 0.000226 -100.000031 -0.000011
v -99.999466 -100.000259 -100.000015
v -99.999466 -100.000290 -0.000011
v -99.999786 -0.000805 -0.000072
v -99.999466 -100.000259 -100.000015
v -99.999466 -100.000290 -0.000011
v -99.999786 -0.000805 -100.000076
v -100.000107 99.998611 -0.000134
v -100.000046 99.998703 -100.000107
v -0.000134 99.999542 -0.000103
v -100.000046 99.998703 -100.000107
v -100.000107 99.998611 -0.000134
v -0.000073 99.999695 -100.000092
v -100.000107 99.998611 -0.000134
v 0.000031 -0.000092 -0.000072
v -0.000134 99.999542 -0.000103
v -99.999786 -0.000805 -0.000072
v 99.999878 0.000195 -0.000072
v 99.999908 0.000378 -100.000046
v 99.999680 100.000046 -0.000103
v 99.999710 100.000290 -100.000092
v 99.999680 100.000046 -0.000103
v 99.999710 100.000290 -100.000092
v 99.999878 0.000195 -0.000072
v 99.999680 100.000046 -0.000103
v 100.000076 -99.999710 -0.000011
v 100.000076 -99.999680 -100.000000
v 100.000076 -99.999710 -0.000011
v 0.000226 -100.000031 -0.000011
v -99.999466 -100.000290 -0.000011
v 0.000031 -0.000092 -100.000092
v -100.000046 99.998703 -100.000107
v -0.000073 99.999695 -100.000092
v -99.999786 -0.000805 -100.000076
v 99.999908 0.000378 -100.000046
v 99.999710 100.000290 -100.000092
v 100.000076 -99.999680 -100.000000
v 0.000287 -99.999969 -100.000015
v -99.999466 -100.000259 -100.000015
vn -0.0000 -1.0000 -0.0000
vn -1.0000 -0.0000 -0.0000
vn -0.0000 1.0000 -0.0000
vn -0.0000 -0.0000 1.0000
vn 1.0000 -0.0000 -0.0000
vn -0.0000 -0.0000 -1.0000
vt 1.000000 0.999969
vt 1.000000 0.000488
vt 0.000068 0.000488
vt 0.000068 0.999969
s 1
usemtl MI_RewardsTotem_2
f 6/1/1 5/2/1 2/3/1 4/4/1
f 10/2/2 8/3/2 9/4/2 7/1/2
f 16/3/3 14/2/3 15/1/3 13/4/3
f 22/2/5 21/1/5 29/4/5 30/3/5
f 26/3/3 16/2/3 13/1/3 25/4/3
f 37/1/6 35/4/6 36/3/6 34/2/6
f 34/1/6 36/4/6 39/3/6 38/2/6
f 32/1/4 31/2/4 27/3/4 18/4/4
f 42/1/6 37/4/6 34/3/6 41/2/6
f 41/1/6 34/4/6 38/3/6 40/2/6
f 12/2/2 10/3/2 7/4/2 11/1/2
f 24/2/5 23/1/5 21/4/5 22/3/5
f 20/1/4 18/2/4 19/3/4 17/4/4
f 18/1/4 27/2/4 28/3/4 19/4/4
f 33/1/4 32/2/4 18/3/4 20/4/4
f 4/1/1 2/2/1 3/3/1 1/4/1
