# Blender 5.0.1
# www.blender.org
mtllib BP_Piston_Relay.mtl
o SM_piston_Piston1.001
v -18.750000 18.750011 75.000000
v -18.750000 -18.749996 25.000004
v -18.750000 -18.749989 75.000000
v -18.750000 18.750004 24.999996
v 18.750000 18.750011 75.000000
v -18.750000 18.750004 24.999996
v -18.750000 18.750011 75.000000
v 18.750000 18.750004 24.999996
v 18.750000 -18.749989 75.000000
v 18.750000 18.750004 24.999996
v 18.750000 18.750011 75.000000
v 18.750000 -18.749996 25.000004
v -18.750000 -18.749989 75.000000
v 18.750000 -18.749996 25.000004
v 18.750000 -18.749989 75.000000
v -18.750000 -18.749996 25.000004
v 18.750000 -18.749996 25.000004
v -18.750000 -18.749996 25.000004
v -18.750000 18.750004 24.999996
v 18.750000 18.750004 24.999996
v -18.750000 18.750011 75.000000
v -18.750000 -18.749989 75.000000
v 18.750000 18.750011 75.000000
v 18.750000 -18.749989 75.000000
vn -1.0000 -0.0000 -0.0000
vn -0.0000 1.0000 -0.0000
vn 1.0000 -0.0000 -0.0000
vn -0.0000 -1.0000 -0.0000
vn -0.0000 -0.0000 -1.0000
vn -0.0000 -0.0000 1.0000
vt 0.562500 0.000000
vt 0.609375 0.000000
vt 0.609375 0.062500
vt 0.562500 0.062500
vt 0.609375 0.109375
vt 0.562500 0.109375
vt 0.656250 0.000000
vt 0.656250 0.062500
vt 0.468750 0.000000
vt 0.515625 0.000000
vt 0.515625 0.062500
vt 0.468750 0.062500
vt 0.515625 0.109375
s 1
usemtl M_GuideBeacon
f 12/1/3 10/2/3 11/3/3 9/4/3
f 20/5/5 17/6/5 18/4/5 19/3/5
f 8/2/2 6/7/2 7/8/2 5/3/2
f 4/9/1 2/10/1 3/11/1 1/12/1
f 16/10/4 14/1/4 15/4/4 13/11/4
f 24/11/6 23/4/6 21/6/6 22/13/6
