# Blender 5.0.1
# www.blender.org
mtllib BP_RedstoneMinecart_Empty.mtl
o SM_Minecart.001
v 47.845703 173.487305 15.198750
v -52.154297 173.487305 -47.301250
v 47.845703 173.487305 -47.301250
v -52.154297 173.487305 15.198750
v -52.154297 185.987289 15.198753
v 47.845703 185.987305 -47.301247
v -52.154297 185.987305 -47.301247
v 47.845703 185.987289 15.198753
v 47.845703 185.987289 15.198753
v 47.845703 173.487305 -47.301250
v 47.845703 185.987305 -47.301247
v 47.845703 173.487305 15.198750
v 47.845703 173.487305 -47.301250
v -52.154297 185.987305 -47.301247
v 47.845703 185.987305 -47.301247
v -52.154297 173.487305 -47.301250
v -52.154297 173.487305 15.198750
v -52.154297 185.987305 -47.301247
v -52.154297 173.487305 -47.301250
v -52.154297 185.987289 15.198753
v 47.845703 185.987289 15.198753
v -52.154297 173.487305 15.198750
v 47.845703 173.487305 15.198750
v -52.154297 185.987289 15.198753
v 60.345703 85.987297 15.198734
v 47.845703 85.987305 -47.301266
v 60.345703 85.987305 -47.301266
v 47.845703 85.987297 15.198734
v 60.345703 185.987305 -47.301247
v 60.345703 185.987289 15.198753
v 60.345703 185.987289 15.198753
v 60.345703 85.987305 -47.301266
v 60.345703 185.987305 -47.301247
v 60.345703 85.987297 15.198734
v 60.345703 85.987305 -47.301266
v 60.345703 185.987305 -47.301247
v 47.845703 85.987305 -47.301266
v 47.845703 85.987297 15.198734
v 47.845703 185.987305 -47.301247
v 47.845703 85.987305 -47.301266
v 47.845703 185.987289 15.198753
v 60.345703 185.987289 15.198753
v 47.845703 85.987297 15.198734
v 60.345703 85.987297 15.198734
v -52.154297 85.987297 15.198734
v -64.654297 85.987305 -47.301266
v -52.154297 85.987305 -47.301266
v -64.654297 85.987297 15.198734
v -64.654297 185.987289 15.198753
v -64.654297 185.987305 -47.301247
v -52.154297 185.987289 15.198753
v -52.154297 85.987305 -47.301266
v -52.154297 185.987305 -47.301247
v -52.154297 85.987297 15.198734
v -52.154297 85.987305 -47.301266
v -64.654297 185.987305 -47.301247
v -64.654297 85.987305 -47.301266
v -64.654297 85.987297 15.198734
v -64.654297 185.987305 -47.301247
v -64.654297 85.987305 -47.301266
v -64.654297 185.987289 15.198753
v -64.654297 85.987297 15.198734
v -52.154297 85.987297 15.198734
v -64.654297 185.987289 15.198753
v -52.154297 98.487289 15.198738
v 47.845703 98.487305 -47.301262
v -52.154297 98.487305 -47.301262
v 47.845703 98.487289 15.198738
v 47.845703 98.487289 15.198738
v 47.845703 85.987305 -47.301266
v 47.845703 98.487305 -47.301262
v 47.845703 85.987297 15.198734
v -52.154297 98.487305 -47.301262
v 47.845703 98.487305 -47.301262
v -52.154297 85.987297 15.198734
v -52.154297 98.487305 -47.301262
v -52.154297 85.987305 -47.301266
v -52.154297 98.487289 15.198738
v 47.845703 98.487289 15.198738
v -52.154297 98.487289 15.198738
v 47.845703 98.487305 -34.801262
v -52.154297 98.487305 -47.301262
v 47.845703 98.487305 -47.301262
v -52.154297 98.487305 -34.801262
v -52.154297 173.487305 -34.801250
v 47.845703 173.487305 -47.301250
v -52.154297 173.487305 -47.301250
v 47.845703 173.487305 -34.801250
v 47.845703 173.487305 -34.801250
v 47.845703 98.487305 -34.801262
v -52.154297 98.487305 -34.801262
v -52.154297 173.487305 -34.801250
v 47.845703 173.487305 -34.801250
v -52.154297 98.487305 -34.801262
v 47.845703 98.487305 -34.801262
v -52.154297 173.487305 -34.801250
vn -0.0000 -1.0000 -0.0000
vn -0.0000 1.0000 -0.0000
vn 1.0000 -0.0000 -0.0000
vn -0.0000 -0.0000 -1.0000
vn -1.0000 -0.0000 -0.0000
vn -0.0000 -0.0000 1.0000
vt 0.375000 0.406250
vt 0.281250 0.406250
vt 0.281250 0.375000
vt 0.375000 0.375000
vt 0.421875 0.968750
vt 0.296875 0.968750
vt 0.296875 0.812500
vt 0.421875 0.812500
vt 0.546875 0.656250
vt 0.421875 0.656250
vt 0.546875 0.812500
vt 0.140625 0.656250
vt 0.125000 0.656250
vt 0.125000 0.812500
vt 0.140625 0.812500
vt 0.281250 0.968750
vt 0.281250 0.812500
vt 0.000031 0.656250
vt 0.000031 0.812500
vt 0.140625 0.968750
vt 0.015625 0.968750
vt 0.015625 0.812500
vt 0.265625 0.656250
vt 0.265625 0.812500
vt 0.156250 0.968750
vt 0.156250 0.812500
vt 0.406250 0.593750
vt 0.281250 0.593750
vt 0.406250 0.406250
vt 0.406250 0.656250
vt 0.406250 0.812500
vt 0.000031 0.968750
vt 0.562500 0.968750
vt 0.437500 0.968750
vt 0.437500 0.812500
vt 0.562500 0.812500
vt 0.265625 0.999969
vt 0.140625 0.999969
vt 0.265625 0.968750
vt 0.156250 0.406250
vt 0.140625 0.406250
vt 0.156250 0.656250
vt 0.062500 0.406250
vt 0.062500 0.375000
vt 0.156250 0.375000
vt 0.437500 0.406250
vt 0.421875 0.406250
vt 0.437500 0.656250
vt 0.281250 0.656250
vt 0.015625 0.999969
vt 0.562500 0.656250
vt 0.421875 0.999969
vt 0.296875 0.999969
vt 0.500000 0.406250
vt 0.500000 0.375000
vt 0.546875 0.999969
vt 0.546875 0.968750
vt 0.125000 0.406250
vt 0.156250 0.593750
s 1
usemtl material_0
f 89/1/3 90/2/3 71/3/3 10/4/3
f 28/5/1 45/6/1 47/7/1 26/8/1
f 51/9/3 54/10/3 52/8/3 53/11/3
f 25/12/1 28/13/1 26/14/1 27/15/1
f 75/6/5 78/16/5 76/17/5 77/7/5
f 38/13/5 41/18/5 39/19/5 40/14/5
f 1/20/1 4/21/1 2/22/1 3/15/1
f 31/23/3 34/12/3 32/15/3 33/24/3
f 9/25/3 12/20/3 10/15/3 11/26/3
f 74/27/4 73/28/4 16/2/4 13/29/4
f 5/16/2 8/25/2 6/26/2 7/17/2
f 45/10/1 48/30/1 46/31/1 47/8/1
f 17/21/5 20/32/5 18/19/5 19/22/5
f 65/33/2 68/34/2 66/35/2 67/36/2
f 13/37/4 16/38/4 14/20/4 15/39/4
f 35/40/4 37/41/4 15/12/4 36/42/4
f 91/40/5 92/43/5 19/44/5 76/45/5
f 55/46/4 57/47/4 56/10/4 14/48/4
f 8/49/2 30/23/2 29/24/2 6/17/2
f 24/47/6 64/29/6 62/30/6 63/10/6
f 58/30/5 61/49/5 59/17/5 60/31/5
f 21/38/6 24/50/6 22/21/6 23/20/6
f 49/51/2 5/9/2 7/11/2 50/36/2
f 69/34/3 72/5/3 70/8/3 71/35/3
f 79/52/6 80/53/6 63/6/6 43/5/6
f 85/54/2 88/1/2 86/4/2 87/55/2
f 81/2/1 84/40/1 82/45/1 83/3/1
f 37/56/4 55/52/4 73/5/4 74/57/4
f 42/41/6 21/58/6 43/13/6 44/12/6
f 93/28/6 96/59/6 94/40/6 95/2/6
