# Blender 5.0.1
# www.blender.org
mtllib BP_RR_DarkConduitFade_01.mtl
o SM_RRDarkConduitFade_01.001
v 0.000000 100.000008 99.999992
v -100.000000 0.000008 100.000008
v 0.000000 0.000008 100.000008
v -100.000000 100.000008 99.999992
v 100.000000 100.000008 99.999992
v 100.000000 -0.000008 0.000008
v 100.000000 99.999992 -0.000008
v 100.000000 0.000008 100.000008
v 100.000000 0.000008 100.000008
v 0.000000 -0.000008 0.000008
v 100.000000 -0.000008 0.000008
v 0.000000 0.000008 100.000008
v 100.000000 0.000008 100.000008
v 100.000000 100.000008 99.999992
v 100.000000 199.999985 -0.000024
v 100.000000 300.000000 99.999962
v 100.000000 200.000015 99.999977
v 100.000000 300.000000 -0.000041
v 0.000000 200.000015 99.999977
v 100.000000 200.000015 99.999977
v 0.000000 100.000008 99.999992
v 0.000000 199.999985 -0.000024
v 0.000000 99.999992 -0.000008
v 0.000000 200.000015 99.999977
v 0.000000 300.000000 99.999962
v 100.000000 300.000000 -0.000041
v 0.000000 300.000000 -0.000041
v 100.000000 300.000000 99.999962
v 0.000000 300.000000 99.999962
v 100.000000 300.000000 99.999962
v -100.000000 300.000000 -0.000041
v -200.000000 300.000000 99.999962
v -100.000000 300.000000 99.999962
v -200.000000 300.000000 -0.000041
v -100.000000 300.000000 99.999962
v -200.000000 200.000015 99.999977
v -100.000000 200.000015 99.999977
v -200.000000 300.000000 99.999962
v 0.000000 99.999992 -0.000008
v -100.000000 100.000008 99.999992
v 0.000000 100.000008 99.999992
v -100.000000 99.999992 -0.000008
v 0.000000 200.000015 99.999977
v -100.000000 199.999985 -0.000024
v 0.000000 199.999985 -0.000024
v -100.000000 200.000015 99.999977
v -200.000000 200.000015 99.999977
v -200.000000 300.000000 -0.000041
v -200.000000 199.999985 -0.000024
v -200.000000 300.000000 99.999962
v -200.000000 199.999985 -0.000024
v -300.000000 200.000015 99.999977
v -200.000000 200.000015 99.999977
v -300.000000 199.999985 -0.000024
v -200.000000 100.000008 99.999992
v -200.000000 0.000008 100.000008
v -100.000000 200.000015 99.999977
v -100.000000 99.999992 -0.000008
v -100.000000 199.999985 -0.000024
v -100.000000 100.000008 99.999992
v -400.000000 200.000015 99.999977
v -400.000000 199.999985 -0.000024
v -600.000000 0.000008 100.000008
v -500.000000 -99.999992 100.000023
v -500.000000 0.000008 100.000008
v -600.000000 -99.999992 100.000023
v -100.000000 -99.999992 100.000023
v -200.000000 -99.999992 100.000023
v -400.000000 200.000015 99.999977
v -500.000000 100.000008 99.999992
v -400.000000 100.000008 99.999992
v -500.000000 200.000015 99.999977
v -600.000000 -0.000008 0.000008
v -700.000000 0.000008 100.000008
v -600.000000 0.000008 100.000008
v -700.000000 -0.000008 0.000008
v -600.000000 100.000008 99.999992
v -500.000000 199.999985 -0.000024
v -600.000000 200.000015 99.999977
v -500.000000 200.000015 99.999977
v -600.000000 199.999985 -0.000024
v -400.000000 0.000008 100.000008
v -600.000000 0.000008 100.000008
v -600.000000 99.999992 -0.000008
v -600.000000 -0.000008 0.000008
v -600.000000 100.000008 99.999992
v -600.000000 199.999985 -0.000024
v -600.000000 200.000015 99.999977
v -600.000000 200.000015 99.999977
v -300.000000 -99.999992 100.000023
v -300.000000 0.000008 100.000008
v -400.000000 -99.999992 100.000023
v 0.000000 -99.999992 100.000023
v 0.000000 -200.000015 0.000041
v 0.000000 -100.000008 0.000024
v 0.000000 -199.999985 100.000038
v 0.000000 -199.999985 100.000038
v 0.000000 -99.999992 100.000023
v -100.000000 -199.999985 100.000038
v -400.000000 -99.999992 100.000023
v -500.000000 -100.000008 0.000024
v -400.000000 -100.000008 0.000024
v -500.000000 -99.999992 100.000023
v -300.000000 -99.999992 100.000023
v -300.000000 -100.000008 0.000024
v -500.000000 -99.999992 100.000023
v -500.000000 -200.000015 0.000041
v -500.000000 -100.000008 0.000024
v -500.000000 -199.999985 100.000038
v 0.000000 0.000008 100.000008
v 0.000000 -0.000008 0.000008
v -700.000000 -0.000008 0.000008
v -700.000000 -99.999992 100.000023
v -700.000000 0.000008 100.000008
v -700.000000 -100.000008 0.000024
v -700.000000 -99.999992 100.000023
v -700.000000 0.000008 100.000008
v -500.000000 -199.999985 100.000038
v -600.000000 -200.000015 0.000041
v -500.000000 -200.000015 0.000041
v -600.000000 -199.999985 100.000038
v -700.000000 -200.000015 0.000041
v -700.000000 -199.999985 100.000038
v -800.000000 -199.999985 100.000038
v -700.000000 -199.999985 100.000038
v -800.000000 -99.999992 100.000023
v -600.000000 -199.999985 100.000038
v -500.000000 -199.999985 100.000038
v -800.000000 -100.000008 0.000024
v -800.000000 -199.999985 100.000038
v -800.000000 -99.999992 100.000023
v -800.000000 -200.000015 0.000041
v -700.000000 -100.000008 0.000024
v -800.000000 -99.999992 100.000023
v -700.000000 -99.999992 100.000023
v -800.000000 -100.000008 0.000024
v -800.000000 -200.000015 0.000041
v -800.000000 -199.999985 100.000038
v -100.000000 -199.999985 100.000038
v 0.000000 -199.999969 200.000046
v 0.000000 -199.999985 100.000038
v -100.000000 -199.999969 200.000046
v 0.000000 -300.000000 100.000053
v -100.000000 -300.000000 0.000057
v 0.000000 -300.000000 0.000057
v -100.000000 -300.000000 100.000053
v -200.000000 -199.999985 100.000038
v -300.000000 -200.000015 0.000041
v -200.000000 -200.000015 0.000041
v -300.000000 -199.999985 100.000038
v -300.000000 -100.000008 0.000024
v -300.000000 -199.999985 100.000038
v -300.000000 -99.999992 100.000023
v -300.000000 -200.000015 0.000041
v -200.000000 -199.999985 100.000038
v -300.000000 -199.999985 100.000038
v -200.000000 -300.000000 0.000057
v -200.000000 -300.000000 100.000053
v -200.000000 -200.000015 0.000041
v -200.000000 -300.000000 100.000053
v -200.000000 -199.999985 100.000038
v -200.000000 -300.000000 0.000057
v -100.000000 -300.000000 100.000053
v -200.000000 -300.000000 100.000053
v 0.000000 -300.000000 0.000057
v 0.000000 -300.000000 100.000053
v -100.000000 -199.999969 200.000046
v 0.000000 -299.999969 200.000061
v 0.000000 -199.999969 200.000046
v -100.000000 -299.999969 200.000061
v -100.000000 -300.000000 100.000053
v -100.000000 -199.999969 200.000046
v -100.000000 -199.999985 100.000038
v -100.000000 -299.999969 200.000061
v 0.000000 -299.999969 200.000061
v 0.000000 -199.999969 200.000046
v -100.000000 -299.999969 200.000061
v 0.000000 -299.999969 200.000061
v -200.000000 -300.000000 100.000053
v -100.000000 -299.999969 200.000061
v -100.000000 -300.000000 100.000053
v -200.000000 -299.999969 200.000061
v -200.000000 -299.999969 200.000061
v -100.000000 -399.999969 200.000076
v -200.000000 -399.999969 200.000076
v -100.000000 -300.000000 100.000053
v -100.000000 -399.999969 200.000076
v -100.000000 -400.000000 100.000076
v -100.000000 -299.999969 200.000061
v -100.000000 -400.000000 100.000076
v -200.000000 -399.999969 200.000076
v -200.000000 -400.000000 100.000076
v -100.000000 -399.999969 200.000076
v -300.000000 -199.999985 100.000038
v -200.000000 -199.999969 200.000046
v -200.000000 -199.999985 100.000038
v -300.000000 -199.999969 200.000046
v -300.000000 -199.999969 200.000046
v -200.000000 -199.999969 200.000046
v -300.000000 -299.999969 200.000061
v -200.000000 -199.999985 100.000038
v -200.000000 -299.999969 200.000061
v -200.000000 -300.000000 100.000053
v -200.000000 -199.999969 200.000046
v -400.000000 -399.999969 200.000076
v -300.000000 -499.999969 200.000092
v -300.000000 -399.999969 200.000076
v -400.000000 -499.999969 200.000092
v -200.000000 -500.000000 100.000092
v -300.000000 -499.999969 200.000092
v -300.000000 -500.000000 100.000092
v -200.000000 -499.999969 200.000092
v -200.000000 -399.999969 200.000076
v -200.000000 -500.000000 100.000092
v -200.000000 -400.000000 100.000076
v -200.000000 -499.999969 200.000092
v -200.000000 -499.999969 200.000092
v -400.000000 -500.000000 100.000092
v -400.000000 -499.999969 200.000092
v -500.000000 -399.999969 200.000076
v -600.000000 -499.999969 200.000092
v -500.000000 -499.999969 200.000092
v -600.000000 -399.999969 200.000076
v -400.000000 -299.999969 200.000061
v -400.000000 -199.999969 200.000046
v -400.000000 -399.999969 200.000076
v -500.000000 -399.999969 300.000061
v -500.000000 -399.999969 200.000076
v -400.000000 -399.999969 300.000061
v -300.000000 -99.999992 100.000023
v -400.000000 -99.999977 200.000031
v -300.000000 -99.999977 200.000031
v -400.000000 -99.999992 100.000023
v -300.000000 -199.999985 100.000038
v -300.000000 -99.999977 200.000031
v -300.000000 -199.999969 200.000046
v -300.000000 -99.999992 100.000023
v -500.000000 -99.999977 200.000031
v -500.000000 -99.999992 100.000023
v -400.000000 -99.999977 200.000031
v -300.000000 -99.999977 200.000031
v -500.000000 -199.999969 200.000046
v -500.000000 -99.999992 100.000023
v -500.000000 -199.999985 100.000038
v -500.000000 -99.999977 200.000031
v -500.000000 -199.999969 200.000046
v -500.000000 -299.999969 200.000061
v -500.000000 -99.999977 200.000031
v -500.000000 -500.000000 100.000092
v -500.000000 -499.999969 200.000092
v -300.000000 -299.999969 200.000061
v -300.000000 -399.999969 300.000061
v -300.000000 -399.999969 200.000076
v -300.000000 -299.999969 300.000061
v -600.000000 -399.999969 300.000061
v -600.000000 -399.999969 200.000076
v -500.000000 -299.999969 300.000061
v -400.000000 -399.999969 300.000061
v -400.000000 -299.999969 300.000061
v -500.000000 -399.999969 300.000061
v -300.000000 -399.999969 300.000061
v -300.000000 -299.999969 300.000061
v -300.000000 -399.999969 200.000076
v -300.000000 -399.999969 300.000061
v -500.000000 -299.999969 200.000061
v -400.000000 -299.999969 300.000061
v -400.000000 -299.999969 200.000061
v -500.000000 -299.999969 300.000061
v -600.000000 -199.999969 200.000046
v -700.000000 -199.999954 300.000031
v -600.000000 -199.999954 300.000031
v -700.000000 -199.999969 200.000046
v -300.000000 -299.999969 300.000061
v -300.000000 -299.999969 200.000061
v -700.000000 -399.999969 200.000076
v -700.000000 -399.999969 300.000061
v -500.000000 -199.999969 200.000046
v -500.000000 -299.999969 300.000061
v -500.000000 -299.999969 200.000061
v -500.000000 -199.999954 300.000031
v -600.000000 -299.999969 300.000061
v -600.000000 -399.999969 300.000061
v -500.000000 -199.999954 300.000031
v -600.000000 -199.999954 300.000031
v -500.000000 -199.999954 300.000031
v -500.000000 -199.999969 200.000046
v -700.000000 -499.999969 200.000092
v -700.000000 -399.999969 200.000076
v -600.000000 -500.000000 100.000092
v -600.000000 -499.999969 200.000092
v -700.000000 -299.999969 300.000061
v -800.000000 -399.999969 300.000061
v -700.000000 -399.999969 300.000061
v -800.000000 -299.999969 300.000061
v -800.000000 -499.999969 200.000092
v -800.000000 -399.999969 200.000076
v -700.000000 -500.000000 100.000092
v -700.000000 -499.999969 200.000092
v -700.000000 -199.999954 300.000031
v -800.000000 -299.999969 200.000061
v -900.000000 -299.999969 300.000061
v -800.000000 -299.999969 300.000061
v -900.000000 -299.999969 200.000061
v -800.000000 -299.999969 200.000061
v -800.000000 -199.999954 300.000031
v -800.000000 -199.999969 200.000046
v -800.000000 -299.999969 300.000061
v -800.000000 -199.999969 200.000046
v -900.000000 -299.999969 200.000061
v -800.000000 -299.999969 200.000061
v -900.000000 -199.999969 200.000046
v -800.000000 -399.999969 200.000076
v -800.000000 -399.999969 300.000061
v -800.000000 -199.999954 300.000031
v -800.000000 -199.999969 200.000046
v -800.000000 -500.000000 100.000092
v -800.000000 -499.999969 200.000092
v -800.000000 -199.999954 300.000031
v -700.000000 -199.999985 100.000038
v -800.000000 -199.999985 100.000038
v -900.000000 -400.000000 100.000076
v -900.000000 -499.999969 200.000092
v -900.000000 -399.999969 200.000076
v -900.000000 -500.000000 100.000092
v -900.000000 -199.999985 100.000038
v -900.000000 -299.999969 200.000061
v -900.000000 -199.999969 200.000046
v -900.000000 -300.000000 100.000053
v -900.000000 -399.999969 300.000061
v -900.000000 -299.999969 300.000061
v -900.000000 -500.000000 100.000092
v -900.000000 -499.999969 200.000092
v -900.000000 -499.999969 200.000092
v -900.000000 -399.999969 200.000076
v -900.000000 -399.999969 200.000076
v -900.000000 -399.999969 300.000061
v -900.000000 -399.999969 300.000061
v -900.000000 -299.999969 300.000061
v -900.000000 -199.999969 200.000046
v -900.000000 -199.999985 100.000038
v -300.000000 200.000015 99.999977
v -300.000000 100.000008 99.999992
v -500.000000 -199.999985 100.000038
v -600.000000 -199.999985 100.000038
vn -0.0000 -0.0000 1.0000
vn 1.0000 -0.0000 -0.0000
vn -0.0000 -1.0000 -0.0000
vn -1.0000 -0.0000 -0.0000
vn -0.0000 1.0000 -0.0000
vt 1.000000 0.000000
vt 1.000000 0.500000
vt 0.500000 0.500000
vt 0.500000 0.000000
vt 0.000031 0.500000
vt 0.000031 0.000000
vt 1.000000 0.999969
vt 0.500000 0.999969
vt 0.000031 0.999969
s 1
usemtl Mi_RRDarkConduitFade
f 63/1/1 117/2/1 116/3/1 66/4/1
f 198/4/1 241/3/1 240/5/1 225/6/1
f 200/4/1 207/3/1 185/5/1 183/6/1
f 43/2/3 46/7/3 44/8/3 45/3/3
f 183/4/1 185/3/1 184/5/1 170/6/1
f 186/4/2 189/3/2 187/5/2 188/6/2
f 171/1/4 174/2/4 172/3/4 173/4/4
f 4/1/1 55/2/1 56/3/1 2/4/1
f 72/1/1 89/2/1 77/3/1 70/4/1
f 123/4/3 138/3/3 137/5/3 122/6/3
f 281/1/1 291/2/1 293/3/1 282/4/1
f 320/4/5 340/3/5 339/5/5 315/6/5
f 69/1/1 72/2/1 70/3/1 71/4/1
f 198/4/1 200/3/1 183/5/1 199/6/1
f 155/2/1 164/7/1 163/8/1 99/3/1
f 242/1/4 245/2/4 243/3/4 244/4/4
f 205/4/1 208/3/1 206/5/1 207/6/1
f 14/4/1 20/3/1 19/5/1 1/6/1
f 83/3/4 86/8/4 84/9/4 85/5/4
f 201/4/2 204/3/2 202/5/2 203/6/2
f 91/5/1 342/3/1 71/8/1 82/9/1
f 267/1/5 266/2/5 273/3/5 274/4/5
f 116/1/1 126/2/1 124/3/1 125/4/1
f 5/4/2 8/3/2 6/5/2 7/6/2
f 118/4/3 121/3/3 119/5/3 120/6/3
f 9/4/3 12/3/3 10/5/3 11/6/3
f 300/4/5 303/3/5 301/5/5 302/6/5
f 139/1/5 142/2/5 140/3/5 141/4/5
f 31/1/5 34/2/5 32/3/5 33/4/5
f 179/4/5 182/3/5 180/5/5 181/6/5
f 328/4/4 321/3/4 323/5/4 326/6/4
f 194/4/5 197/3/5 195/5/5 196/6/5
f 1/2/1 4/7/1 2/8/1 3/3/1
f 251/1/2 254/2/2 252/3/2 253/4/2
f 70/3/1 77/8/1 63/9/1 65/5/1
f 82/2/1 92/7/1 90/8/1 91/3/1
f 220/4/1 223/3/1 221/5/1 222/6/1
f 87/1/4 84/2/4 86/3/4 88/4/4
f 209/1/3 212/2/3 210/3/3 211/4/3
f 230/4/5 233/3/5 231/5/5 232/6/5
f 51/2/5 54/7/5 52/8/5 53/3/5
f 296/4/1 334/3/1 333/5/1 295/6/1
f 36/4/1 55/3/1 4/5/1 37/6/1
f 25/1/5 28/2/5 26/3/5 27/4/5
f 269/4/5 271/3/5 285/5/5 286/6/5
f 246/3/1 247/8/1 224/9/1 225/5/1
f 1/4/1 3/3/1 13/5/1 14/6/1
f 66/2/1 127/7/1 128/8/1 64/3/1
f 63/3/1 66/8/1 64/9/1 65/5/1
f 106/4/2 109/3/2 107/5/2 108/6/2
f 263/1/3 264/2/3 229/3/3 226/4/3
f 29/2/1 35/7/1 37/8/1 19/3/1
f 27/2/5 31/7/5 33/8/5 25/3/5
f 223/4/1 288/3/1 287/5/1 221/6/1
f 233/1/5 239/2/5 238/3/5 231/4/5
f 93/1/2 96/2/2 94/3/2 95/4/2
f 326/4/4 323/3/4 329/5/4 330/6/4
f 143/1/3 146/2/3 144/3/3 145/4/3
f 121/4/3 123/3/3 122/5/3 119/6/3
f 321/4/4 324/3/4 322/5/4 323/6/4
f 71/1/1 70/2/1 65/3/1 82/4/1
f 234/4/2 237/3/2 235/5/2 236/6/2
f 73/1/5 76/2/5 74/3/5 75/4/5
f 96/1/2 176/2/2 175/3/2 166/4/2
f 57/4/2 60/3/2 58/5/2 59/6/2
f 342/3/1 341/2/1 69/7/1 71/8/1
f 39/2/5 42/7/5 40/8/5 41/3/5
f 210/4/3 219/3/3 218/5/3 211/6/3
f 7/4/2 15/3/2 17/5/2 5/6/2
f 20/1/1 30/2/1 29/3/1 19/4/1
f 220/4/1 222/3/1 208/5/1 205/6/1
f 190/4/3 193/3/3 191/5/3 192/6/3
f 325/4/4 328/3/4 326/5/4 327/6/4
f 112/1/4 115/2/4 113/3/4 114/4/4
f 55/3/1 36/2/1 341/7/1 342/8/1
f 198/2/1 225/7/1 224/8/1 200/3/1
f 96/1/2 166/2/2 165/3/2 94/4/2
f 91/1/1 90/2/1 68/3/1 56/4/1
f 100/4/3 103/3/3 101/5/3 102/6/3
f 219/4/3 250/3/3 249/5/3 218/6/3
f 104/4/3 100/3/3 102/5/3 105/6/3
f 207/1/1 206/2/1 217/3/1 185/4/1
f 240/1/1 248/2/1 246/3/1 225/4/1
f 304/3/4 307/8/4 305/9/4 306/5/4
f 78/1/5 81/2/5 79/3/5 80/4/5
f 110/1/2 93/2/2 95/3/2 111/4/2
f 277/4/2 280/3/2 278/5/2 279/6/2
f 65/3/1 64/8/1 92/9/1 82/5/1
f 2/1/1 67/2/1 98/3/1 3/4/1
f 298/4/3 317/3/3 316/5/3 297/6/3
f 129/1/4 132/2/4 130/3/4 131/4/4
f 226/2/3 229/7/3 227/8/3 228/3/3
f 272/3/5 315/8/5 314/9/5 270/5/5
f 265/2/5 268/7/5 266/8/5 267/3/5
f 146/4/3 158/3/3 157/5/3 144/6/3
f 259/1/1 258/2/1 261/3/1 262/4/1
f 291/1/1 294/2/1 292/3/1 293/4/1
f 257/2/1 260/7/1 258/8/1 259/3/1
f 56/3/1 68/8/1 67/9/1 2/5/1
f 133/1/5 136/2/5 134/3/5 135/4/5
f 15/1/2 18/2/2 16/3/2 17/4/2
f 250/4/3 290/3/3 289/5/3 249/6/3
f 255/1/3 276/2/3 275/3/3 256/4/3
f 116/3/1 125/8/1 127/9/1 66/5/1
f 283/4/1 284/3/1 281/5/1 257/6/1
f 317/4/3 332/3/3 331/5/3 316/6/3
f 281/4/1 282/3/1 260/5/1 257/6/1
f 269/1/5 272/2/5 270/3/5 271/4/5
f 299/3/1 318/8/1 294/9/1 291/5/1
f 90/1/1 156/2/1 155/3/1 68/4/1
f 62/1/5 78/2/5 80/3/5 61/4/5
f 284/1/1 299/2/1 291/3/1 281/4/1
f 159/4/4 162/3/4 160/5/4 161/6/4
f 319/4/5 320/3/5 315/5/5 272/6/5
f 290/4/3 298/3/3 297/5/3 289/6/3
f 67/1/1 99/2/1 97/3/1 98/4/1
f 147/4/3 150/3/3 148/5/3 149/6/3
f 308/4/1 311/3/1 309/5/1 310/6/1
f 68/3/1 155/8/1 99/9/1 67/5/1
f 47/1/4 50/2/4 48/3/4 49/4/4
f 213/1/2 216/2/2 214/3/2 215/4/2
f 21/4/4 24/3/4 22/5/4 23/6/4
f 151/4/4 154/3/4 152/5/4 153/6/4
f 276/1/3 313/2/3 312/3/3 275/4/3
f 288/4/1 296/3/1 295/5/1 287/6/1
f 35/1/1 38/2/1 36/3/1 37/4/1
f 343/1/5 344/2/5 269/3/5 286/4/5
f 167/1/1 170/2/1 168/3/1 169/4/1
f 313/4/3 336/3/3 335/5/3 312/6/3
f 228/4/3 227/3/3 255/5/3 256/6/3
f 56/5/1 55/3/1 342/8/1 91/9/1
f 143/1/3 178/2/3 177/3/3 146/4/3
f 54/2/5 62/7/5 61/8/5 52/3/5
f 294/4/1 338/3/1 337/5/1 292/6/1
f 344/2/5 319/7/5 272/8/5 269/3/5
