# Blender 5.0.1
# www.blender.org
mtllib BP_Rug_Huge02.mtl
o SM_Rug_Huge_02.001
v 103.124992 -196.875000 5.000000
v -103.124992 196.874985 5.000000
v -103.124992 -196.875015 5.000000
v 103.125008 196.875015 5.000000
v -103.124992 -196.875015 -1.250000
v 103.124992 -196.875000 5.000000
v -103.124992 -196.875015 5.000000
v 103.124992 -196.875000 -1.250000
v 103.124992 -196.875000 -1.250000
v 103.125008 196.875015 5.000000
v 103.124992 -196.875000 5.000000
v 103.125008 196.875015 -1.250000
v 103.125008 196.875015 -1.250000
v -103.124992 196.874985 -1.250000
v -103.124992 196.874985 5.000000
v 103.125008 196.875015 5.000000
v -103.124992 196.874985 -1.250000
v -103.124992 -196.875015 -1.250000
v -103.124992 -196.875015 5.000000
v -103.124992 196.874985 5.000000
vn -0.0000 -0.0000 1.0000
vn -0.0000 -1.0000 -0.0000
vn 1.0000 -0.0000 -0.0000
vn -0.0000 1.0000 -0.0000
vn -1.0000 -0.0000 -0.0000
vt 0.515625 0.999969
vt 0.000031 0.999969
vt 0.000031 0.015625
vt 0.515625 0.015625
vt 0.515625 0.031250
vt 0.000031 0.031250
vt 0.015625 0.015625
vt 0.015625 0.999969
s 1
usemtl MI_Rug_Huge_02
f 4/1/1 2/2/1 3/3/1 1/4/1
f 16/4/4 13/5/4 14/6/4 15/3/4
f 8/4/2 6/5/2 7/6/2 5/3/2
f 12/3/3 10/7/3 11/8/3 9/2/3
f 19/7/5 20/8/5 17/2/5 18/3/5
