# Blender 5.0.1
# www.blender.org
mtllib BP_RewardChest_Open_prop.mtl
o SM_RewardChest_Open.001
v 12.500000 107.954063 131.948898
v -12.500000 107.954063 131.948898
v -12.500000 87.514900 146.344757
v 12.500000 87.514900 146.344757
v -12.500000 107.954063 131.948898
v 12.500000 107.954063 131.948898
v 12.500000 104.355095 126.839119
v -12.500000 104.355095 126.839119
v 12.500000 83.915939 141.234970
v -12.500000 83.915939 141.234970
v -12.500000 104.355095 126.839119
v 12.500000 104.355095 126.839119
v 12.500000 87.514900 146.344757
v -12.500000 87.514900 146.344757
v -12.500000 83.915939 141.234970
v 12.500000 83.915939 141.234970
v 12.500000 83.915939 141.234970
v 12.500000 104.355095 126.839119
v 12.500000 87.514900 146.344757
v 12.500000 107.954063 131.948898
v -12.500000 107.954063 131.948898
v -12.500000 83.915939 141.234970
v -12.500000 87.514900 146.344757
v -12.500000 104.355095 126.839119
v 62.500000 119.889763 115.897636
v -62.499996 119.889763 115.897636
v -62.499996 94.340805 133.892456
v 62.500000 94.340805 133.892456
v -61.754848 69.504257 44.360573
v 63.245159 69.504257 44.360573
v -61.754848 43.955303 62.355400
v 63.245159 43.955303 62.355400
v -62.499996 119.889763 115.897636
v -61.754848 43.955303 62.355400
v -62.499996 94.340805 133.892456
v -61.754848 69.504257 44.360573
v 62.500000 119.889763 115.897636
v -61.754848 69.504257 44.360573
v -62.499996 119.889763 115.897636
v 63.245159 69.504257 44.360573
v 56.250000 111.181007 114.386810
v -56.249996 111.181007 114.386810
v 56.250000 67.993431 53.069328
v -56.249996 67.993431 53.069328
v -56.249996 67.993431 53.069328
v -56.249996 111.181007 114.386810
v -56.249996 90.741844 128.782669
v -56.249996 47.554268 67.465187
v -56.249996 47.554268 67.465187
v 56.250000 47.554268 67.465187
v 56.250000 90.741844 128.782669
v 56.250000 90.741844 128.782669
v -56.249996 90.741844 128.782669
v -56.249996 111.181007 114.386810
v 56.250000 111.181007 114.386810
v 63.245159 69.504257 44.360573
v 62.500000 119.889763 115.897636
v 62.500000 94.340805 133.892456
v 63.245159 43.955303 62.355400
v -62.500000 -43.749989 62.500004
v -62.500000 43.749996 -0.000008
v -62.500000 -43.749996 0.000008
v -62.500000 43.750008 62.499985
v 62.500000 -43.749996 0.000008
v 62.500000 43.749996 -0.000008
v 62.500000 -43.749989 62.500004
v 62.500000 43.750008 62.499985
v 62.500000 -43.749989 62.500004
v -62.500000 -43.749989 62.500004
v -62.500000 -43.749996 0.000008
v 62.500000 -43.749996 0.000008
v 62.500000 -43.749996 0.000008
v -62.500000 -43.749996 0.000008
v -62.500000 43.749996 -0.000008
v 62.500000 43.749996 -0.000008
v 62.500000 43.749996 -0.000008
v -62.500000 43.749996 -0.000008
v -62.500000 43.750008 62.499985
v 62.500000 43.750008 62.499985
v 56.250000 -37.499996 6.250006
v -56.250000 37.500000 6.249992
v -56.250000 -37.499996 6.250006
v 56.250000 37.500000 6.249992
v -56.250000 -37.499996 6.250006
v -56.250000 37.500008 62.499989
v -56.250000 -37.499989 62.500000
v -56.250000 37.500000 6.249992
v 56.250000 -37.499996 6.250006
v -56.250000 -37.499996 6.250006
v -56.250000 -37.499989 62.500000
v 56.250000 -37.499989 62.500000
v 56.250000 -37.499996 6.250006
v 56.250000 -37.499989 62.500000
v 56.250000 37.500000 6.249992
v 56.250000 37.500008 62.499989
v -56.250000 37.500000 6.249992
v 56.250000 37.500008 62.499989
v -56.250000 37.500008 62.499989
v 56.250000 37.500000 6.249992
v 63.245159 43.955303 62.355400
v 62.500000 94.340805 133.892456
v 56.250000 90.741844 128.782669
v -62.499996 94.340805 133.892456
v 56.250000 47.554268 67.465187
v -56.249996 90.741844 128.782669
v -61.754848 43.955303 62.355400
v -56.249996 47.554268 67.465187
v -62.500000 -43.749989 62.500004
v 56.250000 -37.499989 62.500000
v -56.250000 -37.499989 62.500000
v -56.250000 37.500008 62.499989
v 62.500000 -43.749989 62.500004
v -62.500000 43.750008 62.499985
v 56.250000 37.500008 62.499989
v 62.500000 43.750008 62.499985
vn -0.0000 0.5758 0.8176
vn -0.0000 0.8176 -0.5758
vn -0.0000 -0.5758 -0.8176
vn -0.0000 -0.8176 0.5758
vn 1.0000 -0.0000 -0.0000
vn -1.0000 -0.0000 -0.0000
vn -1.0000 -0.0049 -0.0070
vn -0.7071 -0.5781 0.4072
vn -0.5774 -0.1396 0.8045
vn -0.0000 -0.1709 0.9853
vn -0.7071 0.4072 0.5781
vn 1.0000 0.0049 0.0070
vn -0.0000 -1.0000 -0.0000
vn -0.0000 -0.0000 -1.0000
vn -0.0000 1.0000 -0.0000
vn -0.0000 -0.0000 1.0000
vt 0.140625 0.984375
vt 0.140625 0.921875
vt 0.156250 0.921875
vt 0.156250 0.984375
vt 0.156250 0.171875
vt 0.156250 0.062500
vt 0.437256 0.062500
vt 0.437500 0.171875
vt 0.625000 0.703125
vt 0.625000 0.484375
vt 0.312500 0.484375
vt 0.312500 0.703125
vt 0.000031 0.999969
vt 0.000031 0.984375
vt 0.062469 0.984375
vt 0.062469 0.999969
vt 0.531250 0.999969
vt 0.218750 0.999969
vt 0.218628 0.781372
vt 0.531250 0.781372
vt 0.015617 0.984375
vt 0.000031 0.921875
vt 0.015617 0.921875
vt 0.530762 0.328125
vt 0.530762 0.484375
vt 0.218750 0.484375
vt 0.218628 0.328125
vt 0.140625 0.859375
vt 0.015625 0.984375
vt 0.015625 0.859375
vt 0.593750 0.172363
vt 0.437500 0.172363
vt 0.437500 0.062500
vt 0.593750 0.062500
vt 0.000031 0.484375
vt 0.000031 0.328125
vt 0.218628 0.484375
vt 0.000031 0.171875
vt 0.000031 0.062500
vt 0.546875 0.796875
vt 0.546875 0.984375
vt 0.828125 0.984375
vt 0.828125 0.796875
vt 0.530762 0.703125
vt 0.530762 0.781250
vt 0.218750 0.781250
vt 0.218750 0.703125
vt 0.453125 0.328125
vt 0.281006 0.328125
vt 0.281250 0.171875
vt 0.453125 0.171875
vt 0.749512 0.484375
vt 0.531250 0.484375
vt 0.531250 0.328125
vt 0.749512 0.328125
vt 0.531250 0.703125
vt 0.750000 0.703125
vt 0.750000 0.781250
vt 0.734375 0.171875
vt 0.734375 0.328125
vt 0.875000 0.062500
vt 0.875000 0.171875
vt 0.593750 0.171875
vt 0.921875 0.999969
vt 0.843750 0.999969
vt 0.843750 0.687500
vt 0.921875 0.687500
vt 0.124939 0.999969
vt 0.124939 0.984375
vt 0.062469 0.999969
vt 0.000031 0.781250
vt 0.000031 0.703125
vt 0.218628 0.781250
vt 0.296875 0.687744
vt 0.015617 0.687500
vt 0.015625 0.500000
vt 0.296875 0.500000
vt 0.906250 0.171875
vt 0.906250 0.328125
vt 0.625000 0.640625
vt 0.624512 0.484375
vt 0.937500 0.484375
vt 0.937500 0.640625
vt 0.828125 0.796997
vt 0.843750 1.000031
vt 0.843750 0.781250
vt 0.531250 0.781250
vt 0.828125 0.984383
vt 0.531250 0.999969
vt 0.015625 0.500244
vt 0.000031 0.484863
vt 0.312500 0.703369
vt -0.000031 0.328125
vt 0.000031 0.171875
s 1
usemtl MI_WoodenChest_Prop
f 12/1/3 9/2/3 10/3/3 11/4/3
f 50/5/11 43/6/9 44/7/10 49/8/1
f 75/9/14 72/10/14 73/11/14 74/12/14
f 8/13/2 5/14/2 6/15/2 7/16/2
f 40/17/2 38/18/2 39/19/2 37/20/2
f 18/21/5 20/14/5 19/22/5 17/23/5
f 71/24/13 68/25/13 69/26/13 70/27/13
f 4/28/1 1/1/1 2/29/1 3/30/1
f 47/31/5 48/32/5 45/33/5 46/34/5
f 63/35/6 61/36/6 62/27/6 60/37/6
f 43/6/9 50/5/11 51/38/6 41/39/8
f 42/40/4 44/41/10 43/42/9 41/43/8
f 24/14/6 22/22/6 23/23/6 21/21/6
f 28/44/1 25/45/1 26/46/1 27/47/1
f 93/48/6 95/49/6 94/50/6 92/51/6
f 67/52/5 66/53/5 64/54/5 65/55/5
f 58/56/12 59/57/12 56/58/12 57/45/12
f 91/48/15 88/51/15 89/59/15 90/60/15
f 55/61/3 52/62/3 53/63/3 54/34/3
f 30/64/3 32/65/3 31/66/3 29/67/3
f 16/68/4 13/69/4 14/15/4 15/70/4
f 36/71/7 34/72/7 35/47/7 33/73/7
f 83/74/16 81/75/16 82/76/16 80/77/16
f 87/78/5 85/79/5 86/60/5 84/59/5
f 79/80/15 76/81/15 77/82/15 78/83/15
f 102/84/4 100/85/4 101/86/4
f 102/84/4 101/86/4 103/87/4
f 104/88/4 100/85/4 102/84/4
f 105/40/4 102/84/4 103/87/4
f 100/85/4 104/88/4 106/89/4
f 105/40/4 103/87/4 107/41/4
f 107/41/4 106/89/4 104/88/4
f 106/89/4 107/41/4 103/87/4
f 110/90/16 108/91/16 109/77/16
f 110/90/16 111/75/16 108/91/16
f 109/77/16 108/91/16 112/11/16
f 111/75/16 113/72/16 108/91/16
f 109/77/16 112/11/16 114/74/16
f 113/72/16 111/75/16 115/92/16
f 114/74/16 112/11/16 115/92/16
f 114/74/16 115/92/16 111/75/16
f 99/50/13 97/49/13 98/93/13 96/94/13
