# Blender 5.0.1
# www.blender.org
mtllib BP_Reed.mtl
o SM_Reed.001
v 50.000000 -21.875000 193.750000
v 50.000000 -15.625000 193.750000
v 43.750000 -21.875000 200.000000
v 43.750000 -15.625000 200.000000
v 18.750004 -21.875000 162.500000
v 43.750000 -21.875000 200.000000
v 12.500000 -21.875000 168.750000
v 50.000000 -21.875000 193.750000
v 18.750004 -15.625000 162.500000
v 50.000000 -15.625000 193.750000
v 18.750004 -21.875000 162.500000
v 50.000000 -21.875000 193.750000
v 50.000000 -15.625000 193.750000
v 18.750004 -15.625000 162.500000
v 43.750000 -15.625000 200.000000
v 12.500000 -15.625000 168.750000
v 43.750000 -21.875000 200.000000
v 12.500000 -15.625000 168.750000
v 12.500000 -21.875000 168.750000
v 43.750000 -15.625000 200.000000
v -31.249969 15.625000 150.000000
v -24.999969 21.875000 143.750000
v -31.249969 21.875000 143.750000
v -24.999969 15.624998 150.000000
v -31.249998 -9.374998 125.000000
v -31.249969 21.875000 143.750000
v -31.250000 -3.124998 118.750000
v -31.249969 15.625000 150.000000
v -31.249969 15.625000 150.000000
v -25.000000 -9.374998 125.000000
v -24.999969 15.624998 150.000000
v -31.249998 -9.374998 125.000000
v -24.999969 15.624998 150.000000
v -25.000002 -3.124998 118.750000
v -24.999969 21.875000 143.750000
v -25.000000 -9.374998 125.000000
v -31.250000 -3.124998 118.750000
v -31.249969 21.875000 143.750000
v -25.000002 -3.124998 118.750000
v -24.999969 21.875000 143.750000
v -6.250000 -43.750000 193.750000
v -6.250000 -37.500000 193.750000
v -12.500000 -43.750000 193.750000
v -12.500000 -37.500000 193.750000
v -6.250000 37.500000 137.500000
v -6.250000 43.750000 137.500000
v -12.500000 37.500000 137.500000
v -12.500000 43.750000 137.500000
v -43.750000 -31.250000 175.000000
v -43.750000 -25.000000 175.000000
v -50.000000 -31.250000 175.000000
v -50.000000 -25.000000 175.000000
v 12.500000 -21.875000 99.999992
v 12.500000 -21.875000 0.000011
v 18.750004 -21.875000 99.999992
v 18.750004 -21.875000 0.000011
v 12.500000 -15.625000 100.000000
v 18.750004 -15.625000 99.999992
v 12.500000 -15.625000 0.000011
v 18.750004 -15.625000 0.000011
v 18.750004 -15.625000 0.000011
v 18.750004 -15.625000 99.999992
v 18.750004 -21.875000 0.000011
v 18.750004 -21.875000 99.999992
v 18.750004 -15.625000 162.500000
v 18.750004 -21.875000 162.500000
v 12.500000 -21.875000 99.999992
v 12.500000 -15.625000 0.000011
v 12.500000 -21.875000 0.000011
v 12.500000 -15.625000 100.000000
v 12.500000 -21.875000 168.750000
v 12.500000 -15.625000 168.750000
v -31.249998 -9.374998 0.000011
v -31.250000 -3.124998 100.000000
v -31.249998 -3.124997 0.000011
v -31.249998 -9.374998 100.000000
v -25.000000 -9.375000 99.999992
v -24.999996 -3.124996 100.000000
v -24.999996 -3.124996 0.000011
v -25.000000 -9.374998 0.000011
v -31.249998 -9.374998 100.000000
v -31.249998 -9.374998 0.000011
v -25.000000 -9.375000 99.999992
v -25.000000 -9.374998 0.000011
v -31.249998 -9.374998 125.000000
v -25.000000 -9.374998 125.000000
v -31.249998 -3.124997 0.000011
v -24.999996 -3.124996 100.000000
v -24.999996 -3.124996 0.000011
v -31.250000 -3.124998 100.000000
v -25.000002 -3.124998 118.750000
v -31.250000 -3.124998 118.750000
v -12.500000 -43.750000 100.000000
v -12.500000 -43.750000 0.000008
v -6.250000 -43.750000 100.000000
v -6.250000 -43.750000 0.000008
v -12.500000 -43.750000 193.750000
v -6.250000 -43.750000 193.750000
v -12.500000 -37.500000 100.000000
v -12.500000 -37.500000 193.750000
v -6.250000 -37.500000 100.000000
v -6.250000 -37.500000 193.750000
v -12.500000 -37.500000 0.000008
v -6.250000 -37.500000 0.000008
v -6.250000 -37.500000 0.000008
v -6.250000 -37.500000 100.000000
v -6.250000 -43.750000 0.000008
v -6.250000 -43.750000 100.000000
v -6.250000 -37.500000 193.750000
v -6.250000 -43.750000 193.750000
v -12.500000 -43.750000 100.000000
v -12.500000 -37.500000 0.000008
v -12.500000 -43.750000 0.000008
v -12.500000 -37.500000 100.000000
v -12.500000 -43.750000 193.750000
v -12.500000 -37.500000 193.750000
v -12.500000 37.500000 100.000000
v -12.500000 37.500000 0.000008
v -6.250000 37.500000 100.000000
v -6.250000 37.500000 0.000008
v -12.500000 37.500000 137.500000
v -6.250000 37.500000 137.500000
v -12.500000 43.750000 100.000000
v -12.500000 43.750000 137.500000
v -6.250000 43.750000 100.000000
v -6.250000 43.750000 137.500000
v -12.500000 43.750000 0.000008
v -6.250000 43.750000 0.000008
v -6.250000 43.750000 0.000008
v -6.250000 43.750000 100.000000
v -6.250000 37.500000 0.000008
v -6.250000 37.500000 100.000000
v -6.250000 43.750000 137.500000
v -6.250000 37.500000 137.500000
v -12.500000 37.500000 100.000000
v -12.500000 43.750000 0.000008
v -12.500000 37.500000 0.000008
v -12.500000 43.750000 100.000000
v -12.500000 37.500000 137.500000
v -12.500000 43.750000 137.500000
v -50.000000 -31.250000 100.000008
v -50.000000 -31.250000 0.000008
v -43.750000 -31.250000 100.000008
v -43.750000 -31.250000 0.000008
v -50.000000 -31.250000 175.000000
v -43.750000 -31.250000 175.000000
v -50.000000 -25.000000 99.999992
v -50.000000 -25.000000 175.000000
v -43.750000 -25.000000 99.999992
v -43.750000 -25.000000 175.000000
v -50.000000 -25.000000 0.000008
v -43.750000 -25.000000 0.000008
v -43.750000 -25.000000 0.000008
v -43.750000 -25.000000 99.999992
v -43.750000 -31.250000 0.000008
v -43.750000 -31.250000 100.000008
v -43.750000 -25.000000 175.000000
v -43.750000 -31.250000 175.000000
v -50.000000 -31.250000 0.000008
v -50.000000 -25.000000 99.999992
v -50.000000 -25.000000 0.000008
v -50.000000 -31.250000 100.000008
v -50.000000 -25.000000 175.000000
v -50.000000 -31.250000 175.000000
vn 0.7071 -0.0000 0.7071
vn -0.0000 -1.0000 -0.0000
vn 0.7071 -0.0000 -0.7071
vn -0.0000 1.0000 -0.0000
vn -0.7071 -0.0000 0.7071
vn -0.0000 0.7071 0.7071
vn -1.0000 -0.0000 -0.0000
vn -0.0000 -0.7071 0.7071
vn 1.0000 -0.0000 -0.0000
vn -0.0000 0.7071 -0.7071
vn -0.0000 -0.0000 1.0000
vt 0.371582 0.999969
vt 0.309082 0.999969
vt 0.309082 0.937500
vt 0.371582 0.937500
vt 0.184204 0.562500
vt 0.184204 0.937500
vt 0.121704 0.937500
vt 0.121704 0.562500
vt 0.309082 0.000000
vt 0.371582 0.000000
vt 0.996582 0.999969
vt 0.934082 0.999969
vt 0.934082 0.000000
vt 0.996582 0.000000
vt 0.809082 0.999969
vt 0.746582 0.999969
vt 0.746582 0.000000
vt 0.809082 0.000000
vt 0.746582 0.187500
vt 0.684082 0.187500
vt 0.684082 0.000000
vt 0.246704 0.562500
vt 0.246704 0.937500
vt 0.434082 0.937500
vt 0.434082 0.625000
vt 0.496582 0.625000
vt 0.496582 0.937500
vt 0.246704 0.625000
vt 0.309082 0.625000
vt 0.871582 0.999969
vt 0.871582 0.000000
vt 0.121704 0.999969
vt 0.059235 0.999969
vt 0.059235 0.937500
vt 0.059235 0.562500
vt 0.559082 0.625000
vt 0.496582 0.687500
vt 0.496582 0.000000
vt 0.559082 0.000000
vt 0.621582 0.000000
vt 0.621582 0.625000
vt 0.684082 0.687500
vt 0.371582 0.562500
vt 0.434082 0.562500
vt 0.746582 0.687500
vt 0.496582 0.187500
vt 0.559082 0.250000
vt 0.621582 0.250000
vt 0.371582 0.625000
vt 0.434082 0.000000
vt -0.003239 0.937500
vt -0.003239 0.562500
vt 0.246704 0.000000
vt 0.309082 0.562500
vt 0.059235 0.187500
vt -0.003239 0.187500
vt 0.496582 0.562500
vt 0.121704 0.187500
vt 0.184204 0.187500
vt 0.246704 0.187500
s 1
usemtl MI_Reed
f 44/1/11 43/2/11 41/3/11 42/4/11
f 16/5/4 15/6/4 13/7/4 14/8/4
f 109/4/9 110/3/9 108/9/9 106/10/9
f 90/11/4 88/12/4 89/13/4 87/14/4
f 76/15/7 74/16/7 75/17/7 73/18/7
f 92/19/4 91/20/4 88/21/4 90/17/4
f 20/6/5 18/5/5 19/22/5 17/23/5
f 40/24/10 39/25/10 37/26/10 38/27/10
f 28/3/7 26/23/7 27/28/7 25/29/7
f 154/30/9 156/15/9 155/18/9 153/31/9
f 101/30/4 104/31/4 103/13/4 99/12/4
f 52/32/11 51/33/11 49/34/11 50/7/11
f 4/32/1 3/33/1 1/34/1 2/7/1
f 10/7/3 12/34/3 11/35/3 9/8/3
f 5/36/2 7/37/2 53/38/2
f 55/39/2 5/36/2 53/38/2
f 58/40/4 57/21/4 14/41/4
f 16/42/4 14/41/4 57/21/4
f 84/31/2 83/30/2 81/15/2 82/18/2
f 126/4/4 125/43/4 123/44/4 124/24/4
f 48/1/11 47/2/11 45/3/11 46/4/11
f 72/42/7 70/21/7 67/17/7 71/45/7
f 57/12/4 58/30/4 60/31/4 59/13/4
f 24/4/6 22/1/6 23/2/6 21/3/6
f 74/38/7 76/39/7 27/46/7
f 25/47/7 27/46/7 76/39/7
f 34/20/9 36/48/9 77/40/9
f 78/21/9 34/20/9 77/40/9
f 70/12/7 68/13/7 69/14/7 67/11/7
f 83/40/2 86/48/2 85/47/2 81/39/2
f 32/29/8 30/49/8 31/4/8 29/3/8
f 36/49/9 34/25/9 35/24/9 33/4/9
f 80/31/9 79/13/9 78/12/9 77/30/9
f 102/4/4 101/10/4 99/50/4 100/24/4
f 65/41/9 66/36/9 64/39/9 62/40/9
f 8/34/2 6/51/2 7/52/2 5/35/2
f 96/18/2 95/15/2 93/16/2 94/17/2
f 95/9/2 98/3/2 97/23/2 93/53/2
f 130/30/9 132/15/9 131/18/9 129/31/9
f 56/18/2 55/15/2 53/16/2 54/17/2
f 119/54/2 122/3/2 121/23/2 117/22/2
f 143/55/2 146/34/2 145/51/2 141/56/2
f 120/18/2 119/15/2 117/16/2 118/17/2
f 116/24/7 114/50/7 111/38/7 115/27/7
f 114/12/7 112/13/7 113/14/7 111/11/7
f 62/30/9 64/15/9 63/18/9 61/31/9
f 144/18/2 143/15/2 141/16/2 142/17/2
f 133/4/9 134/3/9 132/54/9 130/43/9
f 106/30/9 108/15/9 107/18/9 105/31/9
f 140/24/7 138/44/7 135/57/7 139/27/7
f 138/12/7 136/13/7 137/14/7 135/11/7
f 125/30/4 128/31/4 127/13/4 123/12/4
f 150/7/4 149/58/4 147/59/4 148/6/4
f 157/7/9 158/34/9 156/55/9 154/58/9
f 164/23/7 163/6/7 160/59/7 162/60/7
f 162/11/7 160/12/7 161/13/7 159/14/7
f 149/30/4 152/31/4 151/13/4 147/12/4
