# Blender 5.0.1
# www.blender.org
mtllib BP_Roperoll.mtl
o SM_Roperoll.001
v 24.999998 -25.000000 24.999998
v -25.000002 -25.000004 24.999998
v -25.000002 -25.000002 -0.000001
v 24.999998 -24.999998 -0.000001
v 24.999998 -25.000000 24.999998
v -25.000002 25.000000 25.000002
v -25.000002 -25.000004 24.999998
v 25.000002 25.000000 25.000002
v 25.000002 25.000002 0.000001
v -25.000002 25.000002 0.000001
v -25.000002 25.000000 25.000002
v 25.000002 25.000000 25.000002
v 24.999998 -24.999998 -0.000001
v -25.000002 -25.000002 -0.000001
v -25.000002 25.000002 0.000001
v 25.000002 25.000002 0.000001
v 25.000002 25.000000 25.000002
v 24.999998 -25.000000 24.999998
v 24.999998 -24.999998 -0.000001
v 25.000002 25.000002 0.000001
v -25.000002 -25.000004 24.999998
v -25.000002 25.000002 0.000001
v -25.000002 -25.000002 -0.000001
v -25.000002 25.000000 25.000002
vn -0.0000 -1.0000 -0.0000
vn -0.0000 -0.0000 1.0000
vn -0.0000 1.0000 -0.0000
vn -0.0000 -0.0000 -1.0000
vn 1.0000 -0.0000 -0.0000
vn -1.0000 -0.0000 -0.0000
vt 0.750000 0.750000
vt 0.750000 0.999969
vt 0.250000 0.999969
vt 0.250000 0.750000
vt 0.750000 0.250000
vt 0.250000 0.250000
vt 1.000000 0.250000
vt 1.000000 0.750000
vt 0.750000 0.000000
vt 0.250000 0.000000
vt 0.000031 0.750000
vt 0.000031 0.250000
s 1
usemtl MI_Roperoll
f 12/1/3 9/2/3 10/3/3 11/4/3
f 16/5/4 13/1/4 14/4/4 15/6/4
f 19/7/5 20/8/5 17/1/5 18/5/5
f 8/1/2 6/4/2 7/6/2 5/5/2
f 4/9/1 1/5/1 2/6/1 3/10/1
f 24/4/6 22/11/6 23/12/6 21/6/6
