# Blender 5.0.1
# www.blender.org
mtllib BP_RR_VolcanoTeaseFade.mtl
o SM_RRVolcanoTease_MF.001
v 0.000000 200.000000 99.999992
v 0.000000 99.999992 0.000008
v 0.000000 100.000008 100.000008
v 0.000000 200.000000 -0.000008
v 100.000000 300.000000 99.999977
v 100.000000 200.000000 99.999992
v 100.000000 300.000000 -0.000024
v 100.000000 200.000000 -0.000008
v 100.000000 100.000008 100.000008
v 100.000000 99.999992 0.000008
v 0.000000 100.000008 100.000008
v 100.000000 99.999992 0.000008
v 100.000000 100.000008 100.000008
v 0.000000 99.999992 0.000008
v 100.000000 99.999992 0.000008
v 0.000000 99.999992 0.000008
v 0.000000 200.000000 -0.000008
v 100.000000 200.000000 -0.000008
v 0.000000 100.000023 200.000015
v 0.000000 200.000031 199.999985
v 100.000000 300.000000 99.999977
v 0.000000 300.000000 -0.000024
v 0.000000 300.000000 99.999977
v 100.000000 300.000000 -0.000024
v 0.000000 300.000000 -0.000024
v 100.000000 300.000000 -0.000024
v 200.000000 200.000076 500.000000
v 100.000000 200.000076 500.000000
v 200.000000 100.000076 500.000000
v 100.000000 100.000076 500.000000
v 0.000000 300.000000 99.999977
v 0.000000 300.000000 -0.000024
v 0.000000 300.000061 299.999969
v 100.000000 300.000061 299.999969
v 100.000000 300.000031 199.999969
v 0.000000 300.000031 199.999969
v 0.000000 200.000031 300.000000
v 0.000000 300.000061 299.999969
v 0.000000 300.000031 199.999969
v 100.000000 100.000023 200.000015
v 0.000000 100.000023 200.000015
v 200.000000 200.000000 99.999992
v 100.000000 200.000000 99.999992
v 200.000000 300.000000 99.999977
v 100.000000 300.000000 99.999977
v 100.000000 100.000053 400.000000
v 0.000000 100.000053 400.000000
v 0.000000 100.000038 300.000000
v 100.000000 100.000038 300.000000
v 200.000000 300.000061 499.999969
v 100.000000 300.000061 499.999969
v 200.000000 100.000023 200.000015
v 200.000000 100.000008 100.000008
v 0.000000 100.000038 300.000000
v 200.000000 300.000061 499.999969
v 100.000000 300.000061 399.999969
v 100.000000 300.000061 499.999969
v 200.000000 300.000061 399.999969
v 0.000000 300.000061 499.999969
v 0.000000 300.000061 399.999969
v 0.000000 200.000076 500.000000
v 0.000000 300.000061 499.999969
v 0.000000 300.000061 399.999969
v 0.000000 200.000061 400.000000
v 200.000000 300.000061 299.999969
v 200.000000 300.000031 199.999969
v 0.000000 100.000053 400.000000
v 0.000000 200.000076 500.000000
v 0.000000 100.000076 500.000000
v 0.000000 300.000061 499.999969
v 0.000000 100.000076 500.000000
v 200.000000 300.000000 99.999977
v 100.000000 100.000076 500.000000
v 0.000000 100.000076 500.000000
v 200.000000 300.000031 199.999969
v 200.000000 200.000031 199.999985
v 200.000000 200.000000 99.999992
v 200.000000 300.000000 99.999977
v 200.000000 100.000023 200.000015
v 200.000000 100.000008 100.000008
v 300.000000 200.000076 500.000000
v 300.000000 100.000076 500.000000
v 300.000000 300.000061 299.999969
v 300.000000 300.000031 199.999969
v 300.000000 100.000023 200.000015
v 200.000000 100.000023 200.000015
v 300.000000 200.000031 199.999985
v 200.000000 200.000031 199.999985
v 300.000000 100.000053 400.000000
v 200.000000 100.000053 400.000000
v 300.000000 100.000038 300.000000
v 200.000000 100.000038 300.000000
v 300.000000 300.000061 499.999969
v 300.000000 300.000061 399.999969
v 300.000000 100.000023 200.000015
v 200.000000 100.000008 100.000008
v 100.000000 100.000008 100.000008
v 200.000000 100.000076 500.000000
v 400.000000 100.000023 200.000015
v 400.000000 200.000031 199.999985
v 400.000000 100.000092 600.000000
v 300.000000 100.000092 600.000000
v 300.000000 100.000076 500.000000
v 400.000000 100.000076 500.000000
v 400.000000 100.000053 400.000000
v 500.000000 300.000061 299.999969
v 400.000000 300.000031 199.999969
v 400.000000 300.000061 299.999969
v 500.000000 300.000031 199.999969
v 500.000000 400.000061 499.999969
v 400.000000 400.000061 399.999969
v 400.000000 400.000061 499.999969
v 500.000000 400.000061 399.999969
v 300.000000 300.000031 199.999969
v 200.000000 300.000031 199.999969
v 300.000000 300.000061 499.999969
v 500.000000 100.000053 400.000000
v 500.000000 100.000038 300.000000
v 400.000000 100.000038 300.000000
v 500.000000 400.000092 599.999939
v 400.000000 400.000092 599.999939
v 500.000000 300.000092 600.000000
v 400.000000 300.000092 600.000000
v 600.000000 300.000031 199.999969
v 600.000000 300.000000 99.999977
v 600.000000 200.000031 199.999985
v 600.000000 200.000000 99.999992
v 500.000000 400.000092 599.999939
v 400.000000 400.000092 599.999939
v 500.000000 100.000076 500.000000
v 500.000000 200.000092 600.000000
v 400.000000 200.000092 600.000000
v 400.000000 100.000023 200.000015
v 300.000000 300.000061 399.999969
v 400.000000 400.000061 399.999969
v 400.000000 300.000061 399.999969
v 300.000000 400.000061 399.999969
v 400.000000 300.000031 199.999969
v 500.000000 400.000061 399.999969
v 500.000000 400.000031 299.999969
v 500.000000 300.000061 399.999969
v 500.000000 300.000061 299.999969
v 300.000000 400.000061 399.999969
v 300.000000 400.000061 499.999969
v 300.000000 200.000092 600.000000
v 300.000000 300.000092 600.000000
v 300.000000 300.000061 499.999969
v 300.000000 200.000076 500.000000
v 300.000000 400.000061 499.999969
v 300.000000 300.000061 399.999969
v 300.000000 400.000061 399.999969
v 500.000000 200.000031 199.999985
v 500.000000 300.000031 199.999969
v 400.000000 300.000061 399.999969
v 300.000000 300.000092 600.000000
v 300.000000 200.000092 600.000000
v 400.000000 100.000092 600.000000
v 300.000000 100.000092 600.000000
v 300.000000 400.000092 599.999939
v 300.000000 400.000092 599.999939
v 300.000000 100.000092 600.000000
v 300.000000 100.000076 500.000000
v 500.000000 100.000092 600.000000
v 300.000000 400.000092 599.999939
v 500.000000 100.000023 200.000015
v 600.000000 100.000076 500.000000
v 600.000000 100.000053 400.000000
v 600.000000 200.000031 199.999985
v 600.000000 300.000031 199.999969
v 600.000000 300.000092 600.000000
v 600.000000 200.000092 600.000000
v 600.000000 100.000023 200.000015
v 600.000000 100.000092 600.000000
v 600.000000 100.000038 300.000000
v 600.000000 100.000023 200.000015
v 500.000000 100.000023 200.000015
v 600.000000 400.000092 599.999939
v 600.000000 400.000061 499.999969
v 700.000000 400.000061 499.999969
v 600.000000 400.000061 399.999969
v 700.000000 400.000061 399.999969
v 600.000000 100.000092 600.000000
v 500.000000 100.000092 600.000000
v 800.000000 300.000031 199.999969
v 700.000000 300.000000 99.999977
v 700.000000 300.000031 199.999969
v 800.000000 300.000000 99.999977
v 500.000000 300.000061 399.999969
v 600.000000 300.000061 299.999969
v 700.000000 300.000061 299.999969
v 600.000000 300.000031 199.999969
v 600.000000 400.000031 299.999969
v 700.000000 400.000031 299.999969
v 700.000000 400.000092 599.999939
v 600.000000 400.000092 599.999939
v 700.000000 300.000092 600.000000
v 700.000000 200.000000 99.999992
v 600.000000 200.000000 99.999992
v 700.000000 300.000000 99.999977
v 600.000000 300.000000 99.999977
v 700.000000 100.000076 500.000000
v 700.000000 100.000053 400.000000
v 600.000000 100.000023 200.000015
v 600.000000 100.000008 100.000008
v 700.000000 200.000092 600.000000
v 800.000000 300.000061 299.999969
v 700.000000 100.000092 600.000000
v 700.000000 100.000038 300.000000
v 700.000000 100.000023 200.000015
v 700.000000 400.000092 599.999939
v 500.000000 400.000031 299.999969
v 700.000000 100.000008 100.000008
v 600.000000 100.000008 100.000008
v 500.000000 400.000031 299.999969
v 600.000000 300.000061 299.999969
v 500.000000 300.000061 299.999969
v 600.000000 400.000031 299.999969
v 800.000000 200.000076 500.000000
v 700.000000 200.000076 500.000000
v 800.000000 100.000076 500.000000
v 700.000000 100.000076 500.000000
v 700.000000 300.000092 600.000000
v 700.000000 200.000092 600.000000
v 700.000000 200.000076 500.000000
v 700.000000 300.000061 499.999969
v 700.000000 200.000000 99.999992
v 700.000000 200.000000 -0.000008
v 700.000000 100.000008 100.000008
v 700.000000 99.999992 0.000008
v 800.000000 300.000061 299.999969
v 700.000000 300.000061 299.999969
v 800.000000 400.000031 299.999969
v 700.000000 400.000031 299.999969
v 800.000000 100.000053 400.000000
v 800.000000 100.000038 300.000000
v 800.000000 400.000061 499.999969
v 800.000000 400.000061 399.999969
v 800.000000 400.000031 299.999969
v 800.000000 100.000076 500.000000
v 800.000000 100.000023 200.000015
v 800.000000 100.000008 100.000008
v 700.000000 100.000008 100.000008
v 700.000000 100.000092 600.000000
v 700.000000 100.000076 500.000000
v 700.000000 400.000092 599.999939
v 700.000000 400.000061 499.999969
v 600.000000 100.000008 100.000008
v 700.000000 100.000092 600.000000
v 600.000000 300.000000 99.999977
v 900.000000 100.000053 400.000000
v 900.000000 100.000038 300.000000
v 900.000000 400.000061 399.999969
v 900.000000 400.000031 299.999969
v 900.000000 300.000061 399.999969
v 800.000000 300.000061 399.999969
v 900.000000 200.000061 400.000000
v 800.000000 200.000061 400.000000
v 900.000000 300.000000 99.999977
v 800.000000 300.000000 -0.000024
v 900.000000 300.000000 -0.000024
v 900.000000 100.000053 400.000000
v 800.000000 100.000053 400.000000
v 900.000000 200.000000 -0.000008
v 800.000000 200.000000 -0.000008
v 900.000000 300.000000 -0.000024
v 800.000000 300.000000 -0.000024
v 900.000000 300.000031 199.999969
v 800.000000 200.000076 500.000000
v 800.000000 100.000076 500.000000
v 800.000000 100.000053 400.000000
v 800.000000 200.000061 400.000000
v 800.000000 300.000061 499.999969
v 800.000000 300.000061 399.999969
v 800.000000 400.000061 499.999969
v 800.000000 400.000061 399.999969
v 800.000000 300.000061 499.999969
v 700.000000 300.000061 499.999969
v 800.000000 400.000061 499.999969
v 700.000000 400.000061 499.999969
v 700.000000 300.000000 -0.000024
v 800.000000 99.999992 0.000008
v 700.000000 99.999992 0.000008
v 700.000000 200.000000 -0.000008
v 700.000000 300.000000 -0.000024
v 900.000000 100.000023 200.000015
v 700.000000 99.999992 0.000008
v 800.000000 99.999992 0.000008
v 700.000000 300.000000 99.999977
v 700.000000 300.000000 -0.000024
v 900.000000 99.999992 0.000008
v 1000.000000 100.000038 300.000000
v 1000.000000 100.000023 200.000015
v 1000.000000 200.000000 -0.000008
v 1000.000000 300.000000 -0.000024
v 900.000000 400.000061 399.999969
v 900.000000 300.000061 399.999969
v 900.000000 400.000031 299.999969
v 900.000000 300.000061 299.999969
v 900.000000 200.000061 400.000000
v 900.000000 200.000031 300.000000
v 1000.000000 300.000031 199.999969
v 1000.000000 300.000000 99.999977
v 1000.000000 200.000031 300.000000
v 900.000000 200.000031 300.000000
v 1000.000000 100.000038 300.000000
v 900.000000 100.000038 300.000000
v 900.000000 100.000053 400.000000
v 900.000000 100.000038 300.000000
v 1000.000000 100.000008 100.000008
v 900.000000 100.000008 100.000008
v 1000.000000 99.999992 0.000008
v 900.000000 300.000061 299.999969
v 900.000000 400.000031 299.999969
v 900.000000 99.999992 0.000008
v 900.000000 300.000061 299.999969
v 900.000000 400.000061 399.999969
v 800.000000 400.000061 399.999969
v 1100.000000 300.000061 299.999969
v 1000.000000 300.000061 299.999969
v 1100.000000 200.000031 300.000000
v 1100.000000 100.000023 200.000015
v 1100.000000 100.000008 100.000008
v 1100.000000 100.000038 300.000000
v 1100.000000 200.000000 -0.000008
v 1100.000000 300.000000 -0.000024
v 1100.000000 100.000038 300.000000
v 1100.000000 300.000000 99.999977
v 1000.000000 300.000000 -0.000024
v 1100.000000 300.000000 -0.000024
v 900.000000 300.000061 299.999969
v 1000.000000 99.999992 0.000008
v 900.000000 300.000031 199.999969
v 900.000000 400.000031 199.999954
v 1000.000000 300.000031 199.999969
v 1000.000000 400.000031 199.999954
v 1100.000000 100.000023 200.000015
v 1100.000000 100.000008 100.000008
v 1100.000000 200.000031 199.999985
v 1100.000000 200.000000 99.999992
v 1100.000000 300.000031 199.999969
v 1100.000000 300.000000 99.999977
v 1100.000000 200.000031 300.000000
v 1100.000000 100.000038 300.000000
v 1100.000000 300.000061 299.999969
v 1100.000000 99.999992 0.000008
v 1100.000000 200.000000 -0.000008
v 1100.000000 300.000000 -0.000024
v 1100.000000 99.999992 0.000008
v 1100.000000 300.000031 199.999969
v 1100.000000 400.000031 299.999969
v 1100.000000 400.000031 199.999954
v 1100.000000 99.999992 0.000008
v 1000.000000 400.000031 299.999969
v 900.000000 400.000031 199.999954
v 1000.000000 400.000031 199.999954
v 1100.000000 400.000031 299.999969
v 1100.000000 400.000031 199.999954
v 1000.000000 400.000031 299.999969
v 900.000000 400.000031 299.999969
v 1100.000000 300.000031 199.999969
v 1100.000000 400.000031 199.999954
v 1100.000000 400.000031 299.999969
v 900.000000 400.000031 299.999969
v 900.000000 300.000031 199.999969
v 900.000000 300.000061 299.999969
v 900.000000 400.000031 199.999954
v 500.000000 400.000061 399.999969
v 500.000000 300.000061 399.999969
vn -1.0000 -0.0000 -0.0000
vn 1.0000 -0.0000 -0.0000
vn -0.0000 -1.0000 -0.0000
vn -0.0000 -0.0000 -1.0000
vn -0.0000 1.0000 -0.0000
vn -0.0000 -0.0000 1.0000
vt 0.000031 0.000000
vt 0.500000 0.000000
vt 0.500000 0.500000
vt 0.000031 0.500000
vt 0.000031 0.000000
vt 0.000031 0.000000
s 1
usemtl Mi_RRDarkConduitFade
f 88/1/4 115/2/4 114/3/4 87/4/4
f 227/2/1 226/3/1 288/4/1 289/5/1
f 255/1/6 257/2/6 256/3/6 254/4/6
f 43/1/4 45/2/4 44/3/4 42/4/4
f 170/1/6 171/2/6 205/3/6 196/4/6
f 204/2/1 203/3/1 126/4/1 127/5/1
f 137/4/4 135/1/4 136/2/4 134/3/4
f 165/1/4 152/2/4 168/3/4 172/4/4
f 263/1/4 265/2/4 294/3/4 293/4/4
f 20/2/1 37/3/1 38/4/1 39/1/1
f 304/1/6 306/2/6 305/3/6 303/4/6
f 64/2/1 61/3/1 62/4/1 63/1/1
f 103/1/3 89/2/3 105/3/3 104/4/3
f 249/3/5 191/4/5 186/6/5 185/2/5
f 67/2/1 71/3/1 61/4/1 64/1/1
f 279/1/6 277/2/6 276/3/6 278/4/6
f 277/1/6 219/2/6 218/3/6 276/4/6
f 328/3/5 260/4/5 258/6/5 302/2/5
f 230/1/4 232/2/4 313/3/4 312/4/4
f 148/2/1 145/3/1 146/4/1 147/1/1
f 90/1/3 92/2/3 91/3/3 89/4/3
f 291/1/3 292/2/3 321/3/3 323/4/3
f 241/1/3 287/2/3 314/3/3 310/4/3
f 273/2/2 272/3/2 268/4/2 271/1/2
f 19/2/1 54/3/1 37/4/1 20/1/1
f 66/3/5 35/4/5 34/6/5 65/2/5
f 285/1/3 310/2/3 309/3/3 292/4/3
f 225/2/2 222/3/2 223/4/2 224/1/2
f 120/1/6 122/2/6 170/3/6 195/4/6
f 361/4/4 360/1/4 334/2/4 335/3/4
f 89/1/3 91/2/3 119/3/3 105/4/3
f 142/2/1 141/3/1 139/4/1 140/5/1
f 83/6/5 94/2/5 154/3/5 108/4/5
f 260/3/5 259/4/5 187/6/5 258/2/5
f 298/2/2 296/3/2 299/4/2 300/1/2
f 347/4/2 341/1/2 339/2/2 346/3/2
f 234/1/3 235/2/3 251/3/3 250/4/3
f 293/1/4 294/2/4 325/3/4 324/4/4
f 99/1/4 100/2/4 152/3/4 165/4/4
f 28/1/6 30/2/6 29/3/6 27/4/6
f 280/3/5 185/4/5 187/6/5 259/2/5
f 318/2/6 362/3/6 358/4/6 319/1/6
f 181/3/5 180/4/5 178/6/5 179/2/5
f 130/1/3 117/2/3 167/3/3 166/4/3
f 132/1/6 157/2/6 163/3/6 131/4/6
f 40/2/3 49/3/3 48/4/3 41/1/3
f 195/1/6 170/2/6 196/3/6 194/4/6
f 209/1/3 242/2/3 241/3/3 240/4/3
f 302/3/5 258/4/5 267/6/5 301/2/5
f 113/3/5 111/4/5 112/6/5 110/2/5
f 18/2/4 15/3/4 16/4/4 17/1/4
f 123/1/6 132/2/6 131/3/6 122/4/6
f 292/1/3 309/2/3 322/3/3 321/4/3
f 4/4/1 2/1/1 3/2/1 1/3/1
f 36/6/5 33/2/5 34/3/5 35/4/5
f 229/2/1 228/3/1 226/4/1 227/5/1
f 121/1/6 123/2/6 122/3/6 120/4/6
f 33/6/5 60/2/5 56/3/5 34/4/5
f 338/2/2 342/3/2 343/4/2 336/1/2
f 50/1/6 27/2/6 81/3/6 116/4/6
f 30/4/6 28/1/6 68/2/6 69/3/6
f 198/1/4 200/2/4 199/3/4 197/4/4
f 258/3/5 187/4/5 184/6/5 267/2/5
f 49/2/3 46/3/3 47/4/3 48/1/3
f 253/3/5 238/4/5 237/6/5 252/2/5
f 201/1/3 202/2/3 234/3/3 239/4/3
f 296/1/2 298/2/2 297/3/2 295/4/2
f 14/4/3 12/1/3 13/2/3 11/3/3
f 300/2/2 299/3/2 307/4/2 308/1/2
f 3/2/1 19/3/1 20/4/1 1/1/1
f 156/1/6 158/2/6 157/3/6 132/4/6
f 65/3/5 34/4/5 56/6/5 58/2/5
f 219/1/6 221/2/6 220/3/6 218/4/6
f 283/1/4 284/2/4 266/3/4 264/4/4
f 267/3/5 184/4/5 206/6/5 315/2/5
f 246/2/2 245/3/2 222/4/2 225/1/2
f 271/2/2 268/3/2 269/4/2 270/1/2
f 26/4/4 18/1/4 17/2/4 25/3/4
f 119/1/3 133/2/3 176/3/3 118/4/3
f 123/2/6 121/3/6 159/4/6 155/1/6
f 84/3/5 66/4/5 65/6/5 83/2/5
f 319/2/6 358/3/6 359/4/6 330/1/6
f 144/6/5 164/2/5 129/3/5 112/4/5
f 58/3/5 56/4/5 57/6/5 55/2/5
f 40/1/3 13/2/3 53/3/3 52/4/3
f 108/6/5 154/2/5 188/3/5 106/4/5
f 94/3/5 58/4/5 55/6/5 93/2/5
f 51/1/6 28/2/6 27/3/6 50/4/6
f 187/3/5 185/4/5 186/6/5 184/2/5
f 327/3/5 302/4/5 301/6/5 349/2/5
f 335/4/4 334/1/4 332/2/4 333/3/4
f 97/1/4 43/2/4 42/3/4 96/4/4
f 319/1/6 303/2/6 320/3/6 318/4/6
f 73/1/3 46/2/3 90/3/3 98/4/3
f 104/2/3 101/3/3 102/4/3 103/1/3
f 28/2/6 51/3/6 70/4/6 68/1/6
f 180/3/5 113/4/5 110/6/5 178/2/5
f 85/1/4 87/2/4 100/3/4 99/4/4
f 190/4/5 186/6/5 191/2/5 189/3/5
f 77/2/2 76/3/2 79/4/2 80/1/2
f 13/2/3 40/3/3 41/4/3 11/1/3
f 107/3/5 84/4/5 83/6/5 108/2/5
f 192/3/5 211/4/5 113/6/5 180/2/5
f 184/3/5 186/4/5 190/6/5 206/2/5
f 109/3/5 107/4/5 108/6/5 106/2/5
f 174/1/3 175/2/3 209/3/3 208/4/3
f 215/1/4 217/2/4 233/3/4 231/4/4
f 171/1/6 173/2/6 207/3/6 205/4/6
f 166/1/3 167/2/3 202/3/3 201/4/3
f 231/1/4 233/2/4 232/3/4 230/4/4
f 104/1/3 105/2/3 117/3/3 130/4/3
f 287/4/3 241/1/3 242/2/3 286/3/3
f 224/2/2 223/3/2 243/4/2 244/1/2
f 217/4/4 215/1/4 216/2/4 214/3/4
f 167/1/3 174/2/3 208/3/3 202/4/3
f 213/1/4 198/2/4 197/3/4 212/4/4
f 242/4/3 209/1/3 175/2/3 247/3/3
f 110/3/5 112/4/5 129/6/5 128/2/5
f 105/1/3 119/2/3 118/3/3 117/4/3
f 238/3/5 193/4/5 181/6/5 237/2/5
f 37/2/1 64/3/1 63/4/1 38/1/1
f 344/1/2 340/2/2 351/3/2 350/4/2
f 237/3/5 181/4/5 179/6/5 236/2/5
f 202/1/3 208/2/3 235/3/3 234/4/3
f 109/3/5 106/4/5 189/6/5 191/2/5
f 27/1/6 29/2/6 82/3/6 81/4/6
f 111/3/5 143/4/5 144/6/5 112/2/5
f 23/6/5 36/2/5 35/3/5 21/4/5
f 101/1/3 104/2/3 130/3/3 183/4/3
f 264/1/4 266/2/4 265/3/4 263/4/4
f 91/1/3 95/2/3 133/3/3 119/4/3
f 24/3/5 22/4/5 23/6/5 21/2/5
f 290/1/4 263/2/4 293/3/4 311/4/4
f 341/4/2 340/1/2 338/2/2 339/3/2
f 78/2/2 75/3/2 76/4/2 77/1/2
f 151/2/1 150/3/1 147/4/1 149/5/1
f 257/1/6 262/2/6 261/3/6 256/4/6
f 46/2/3 73/3/3 74/4/3 47/1/3
f 10/4/2 8/1/2 6/2/2 9/3/2
f 100/1/4 138/2/4 153/3/4 152/4/4
f 87/1/4 114/2/4 138/3/4 100/4/4
f 282/1/4 283/2/4 264/3/4 281/4/4
f 208/1/3 209/2/3 240/3/3 235/4/3
f 98/1/3 90/2/3 89/3/3 103/4/3
f 32/4/1 4/1/1 1/2/1 31/3/1
f 155/1/6 156/2/6 132/3/6 123/4/6
f 179/3/5 178/4/5 177/6/5 210/2/5
f 72/3/5 21/4/5 35/6/5 66/2/5
f 147/2/1 146/3/1 160/4/1 149/1/1
f 127/2/1 126/3/1 124/4/1 125/5/1
f 193/3/5 192/4/5 180/6/5 181/2/5
f 251/1/3 285/2/3 292/3/3 291/4/3
f 162/2/1 161/3/1 145/4/1 148/1/1
f 281/1/4 264/2/4 263/3/4 290/4/4
f 235/1/3 240/2/3 285/3/3 251/4/3
f 178/3/5 110/4/5 128/6/5 177/2/5
f 183/1/3 130/2/3 166/3/3 182/4/3
f 317/1/6 255/2/6 254/3/6 316/4/6
f 49/1/3 40/2/3 52/3/3 92/4/3
f 329/3/5 328/4/5 302/6/5 327/2/5
f 240/1/3 241/2/3 310/3/3 285/4/3
f 60/6/5 59/2/5 57/3/5 56/4/5
f 86/1/4 88/2/4 87/3/4 85/4/4
f 122/1/6 131/2/6 171/3/6 170/4/6
f 152/1/4 153/2/4 169/3/4 168/4/4
f 303/1/6 305/2/6 326/3/6 320/4/6
f 83/3/5 65/4/5 58/6/5 94/2/5
f 346/4/2 339/1/2 337/2/2 345/3/2
f 131/1/6 163/2/6 173/3/6 171/4/6
f 118/1/3 176/2/3 175/3/3 174/4/3
f 272/1/2 273/2/2 275/3/2 274/4/2
f 1/2/1 20/3/1 39/4/1 31/1/1
f 54/2/1 67/3/1 64/4/1 37/1/1
f 6/1/2 8/2/2 7/3/2 5/4/2
f 357/3/5 355/4/5 353/6/5 356/2/5
f 340/2/2 344/3/2 342/4/2 338/1/2
f 310/1/3 314/2/3 331/3/3 309/4/3
f 117/1/3 118/2/3 174/3/3 167/4/3
f 366/4/1 364/1/1 365/2/1 363/3/1
f 355/3/5 354/4/5 253/6/5 353/2/5
f 182/1/3 166/2/3 201/3/3 248/4/3
f 311/1/4 293/2/4 324/3/4 352/4/4
f 309/1/3 331/2/3 348/3/3 322/4/3
f 330/1/6 304/2/6 303/3/6 319/4/6
f 46/1/3 49/2/3 92/3/3 90/4/3
f 339/4/2 338/1/2 336/2/2 337/3/2
f 92/1/3 52/2/3 95/3/3 91/4/3
f 135/4/4 367/1/4 368/2/4 136/3/4
