# Blender 5.0.1
# www.blender.org
mtllib BP_Ravager_Gate_Long.mtl
o SM_Ravager_Gate_Long.001
v -1350.000000 12.500016 199.999969
v -1199.999878 12.500006 199.999969
v -1199.999878 12.499958 -0.000046
v -1350.000000 12.499964 -0.000046
v -1350.000000 -12.500011 199.999969
v -1199.999878 -12.500076 -0.000046
v -1199.999878 -12.500021 199.999969
v -1350.000000 -12.500069 -0.000046
v -1350.000000 -12.500069 -0.000046
v -1199.999878 12.499958 -0.000046
v -1199.999878 -12.500076 -0.000046
v -1350.000000 12.499964 -0.000046
v -1350.000000 12.500016 199.999969
v -1350.000000 12.499964 -0.000046
v -1350.000000 -12.500011 199.999969
v -1350.000000 -12.500069 -0.000046
v -1350.000000 -12.500011 199.999969
v -1199.999878 12.500006 199.999969
v -1350.000000 12.500016 199.999969
v -1199.999878 -12.500021 199.999969
v -1199.999878 -0.000046 399.999969
v -1350.000000 -0.000038 399.999969
v -1350.000000 -0.000021 199.999969
v -1199.999878 -0.000036 199.999969
v -899.999878 12.500007 199.999969
v -749.999878 12.500007 199.999969
v -749.999878 12.499958 -0.000046
v -899.999878 12.499958 -0.000046
v -899.999878 -12.500020 199.999969
v -749.999878 -12.500076 -0.000046
v -749.999878 -12.500020 199.999969
v -899.999878 -12.500076 -0.000046
v -899.999878 -12.500076 -0.000046
v -749.999878 12.499958 -0.000046
v -749.999878 -12.500076 -0.000046
v -899.999878 12.499958 -0.000046
v -899.999878 -12.500020 199.999969
v -749.999878 -12.500020 199.999969
v -899.999878 12.500007 199.999969
v -749.999878 12.500007 199.999969
v -749.999878 -0.000048 399.999969
v -899.999878 -0.000048 399.999969
v -899.999878 -0.000036 199.999969
v -749.999878 -0.000036 199.999969
v -599.999878 12.500005 199.999969
v -599.999878 12.499958 -0.000046
v -599.999878 -12.500076 -0.000046
v -599.999878 -12.500020 199.999969
v -599.999878 12.499958 -0.000046
v -599.999878 -12.500076 -0.000046
v -599.999878 12.500005 199.999969
v -599.999878 -12.500020 199.999969
v -599.999878 -0.000046 399.999969
v -599.999878 -0.000036 199.999969
v -449.999908 12.500005 199.999969
v -449.999908 12.499958 -0.000046
v -449.999908 -12.500076 -0.000046
v -449.999908 -12.500020 199.999969
v -449.999908 12.499958 -0.000046
v -449.999908 -12.500076 -0.000046
v -449.999908 -12.500020 199.999969
v -449.999908 12.500005 199.999969
v -449.999908 -0.000044 399.999969
v -449.999908 -0.000036 199.999969
v -299.999878 12.500003 199.999969
v -299.999878 12.499958 -0.000046
v -299.999878 -12.500076 -0.000046
v -299.999878 -12.500020 199.999969
v -299.999878 12.499958 -0.000046
v -299.999878 -12.500076 -0.000046
v -299.999878 12.500003 199.999969
v -299.999878 -12.500020 199.999969
v -299.999878 -0.000042 399.999969
v -299.999878 -0.000036 199.999969
v 1200.000000 12.500003 199.999969
v 1350.000000 12.499997 199.999969
v 1350.000000 12.499950 -0.000046
v 1200.000000 12.499958 -0.000046
v 1200.000000 -12.500020 199.999969
v 1350.000000 -12.500084 -0.000046
v 1350.000000 -12.500027 199.999969
v 1200.000000 -12.500076 -0.000046
v 1200.000000 -12.500076 -0.000046
v 1350.000000 12.499950 -0.000046
v 1350.000000 -12.500084 -0.000046
v 1200.000000 12.499958 -0.000046
v 1200.000000 -12.500020 199.999969
v 1350.000000 12.499997 199.999969
v 1200.000000 12.500003 199.999969
v 1350.000000 -12.500027 199.999969
v 1350.000000 -12.500027 199.999969
v 1350.000000 12.499950 -0.000046
v 1350.000000 12.499997 199.999969
v 1350.000000 -12.500084 -0.000046
v 1350.000000 -0.000057 399.999969
v 1200.000000 -0.000041 399.999969
v 1200.000000 -0.000036 199.999969
v 1350.000000 -0.000051 199.999969
v -149.999878 12.500006 199.999969
v -149.999878 12.499958 -0.000046
v -149.999878 -12.500076 -0.000046
v -149.999878 -12.500020 199.999969
v -149.999878 12.499958 -0.000046
v -149.999878 -12.500076 -0.000046
v -149.999878 -12.500020 199.999969
v -149.999878 12.500006 199.999969
v -149.999878 -0.000046 399.999969
v -149.999878 -0.000036 199.999969
v 0.000122 12.500007 199.999969
v 0.000122 12.499958 -0.000046
v 0.000122 -12.500076 -0.000046
v 0.000122 -12.500020 199.999969
v 0.000122 12.499958 -0.000046
v 0.000122 -12.500076 -0.000046
v 0.000122 -12.500020 199.999969
v 0.000122 12.500007 199.999969
v 0.000122 -0.000050 399.999969
v 0.000122 -0.000036 199.999969
v 150.000122 12.500007 199.999969
v 150.000122 12.499958 -0.000046
v 150.000122 -12.500076 -0.000046
v 150.000122 -12.500020 199.999969
v 150.000122 12.499958 -0.000046
v 150.000122 -12.500076 -0.000046
v 150.000122 -12.500020 199.999969
v 150.000122 12.500007 199.999969
v 150.000122 -0.000048 399.999969
v 150.000122 -0.000036 199.999969
v 300.000122 12.500005 199.999969
v 300.000122 12.499958 -0.000046
v 300.000122 -12.500076 -0.000046
v 300.000122 -12.500020 199.999969
v 300.000122 12.499958 -0.000046
v 300.000122 -12.500076 -0.000046
v 300.000122 12.500005 199.999969
v 300.000122 -12.500020 199.999969
v 300.000122 -0.000046 399.999969
v 300.000122 -0.000036 199.999969
v 450.000122 12.500005 199.999969
v 450.000122 12.499958 -0.000046
v 450.000122 -12.500076 -0.000046
v 450.000122 -12.500020 199.999969
v 450.000122 12.499958 -0.000046
v 450.000122 -12.500076 -0.000046
v 450.000122 -12.500020 199.999969
v 450.000122 12.500005 199.999969
v 450.000122 -0.000044 399.999969
v 450.000122 -0.000036 199.999969
v 600.000122 12.500003 199.999969
v 600.000122 12.499958 -0.000046
v 600.000122 -12.500076 -0.000046
v 600.000122 -12.500020 199.999969
v 600.000122 12.499958 -0.000046
v 600.000122 -12.500076 -0.000046
v 600.000122 12.500003 199.999969
v 600.000122 -12.500020 199.999969
v 600.000122 -0.000042 399.999969
v 600.000122 -0.000036 199.999969
v 750.000122 12.500004 199.999969
v 750.000122 12.499958 -0.000046
v 750.000122 -12.500076 -0.000046
v 750.000122 -12.500020 199.999969
v 750.000122 12.499958 -0.000046
v 750.000122 -12.500076 -0.000046
v 750.000122 -12.500020 199.999969
v 750.000122 12.500004 199.999969
v 750.000122 -0.000044 399.999969
v 750.000122 -0.000036 199.999969
v 900.000122 12.500005 199.999969
v 900.000122 12.499958 -0.000046
v 900.000122 -12.500076 -0.000046
v 900.000122 -12.500020 199.999969
v 900.000122 12.499958 -0.000046
v 900.000122 -12.500076 -0.000046
v 900.000122 -12.500020 199.999969
v 900.000122 12.500005 199.999969
v 900.000122 -0.000044 399.999969
v 900.000122 -0.000036 199.999969
v 1050.000122 12.500003 199.999969
v 1050.000122 12.499958 -0.000046
v 1050.000122 -12.500076 -0.000046
v 1050.000122 -12.500020 199.999969
v 1050.000122 12.499958 -0.000046
v 1050.000122 -12.500076 -0.000046
v 1050.000122 12.500003 199.999969
v 1050.000122 -12.500020 199.999969
v 1050.000122 -0.000042 399.999969
v 1050.000122 -0.000036 199.999969
v -1049.999878 12.500006 199.999969
v -1049.999878 12.499958 -0.000046
v -1049.999878 -12.500021 199.999969
v -1049.999878 -12.500076 -0.000046
v -1049.999878 -12.500076 -0.000046
v -1049.999878 12.499958 -0.000046
v -1049.999878 -12.500021 199.999969
v -1049.999878 12.500006 199.999969
v -1049.999878 -0.000047 399.999969
v -1049.999878 -0.000036 199.999969
vn -0.0000 1.0000 -0.0000
vn -0.0000 -1.0000 -0.0000
vn -0.0000 -0.0000 -1.0000
vn -1.0000 -0.0000 -0.0000
vn -0.0000 -0.0000 1.0000
vn 1.0000 -0.0000 -0.0000
vt 0.125000 0.000000
vt 0.125000 0.500000
vt 0.312500 0.500000
vt 0.312500 0.000000
vt 0.906250 0.750000
vt 0.906250 0.375000
vt 0.937500 0.375000
vt 0.937500 0.750000
vt 0.906250 0.500000
vt 0.906250 0.125000
vt 0.937500 0.125000
vt 0.937500 0.500000
vt 0.250000 0.000000
vt 0.250000 0.500000
vt 0.437500 0.500000
vt 0.437500 0.000000
vt 0.312500 0.999969
vt 0.125000 0.999969
vt 0.859375 0.750000
vt 0.828125 0.750000
vt 0.828125 0.375000
vt 0.859375 0.375000
vt 0.859375 0.500244
vt 0.828125 0.500244
vt 0.828125 0.125000
vt 0.859375 0.125000
vt 0.437256 0.500000
vt 0.437256 0.999969
vt 0.249878 0.999969
vt 0.249878 0.500000
vt 0.124939 0.000000
vt 0.312256 0.000000
vt 0.312256 0.500000
vt 0.124939 0.500000
vt 0.000031 0.000000
vt 0.000031 0.500000
vt 0.187500 0.500000
vt 0.187500 0.000000
vt 0.249878 0.000000
vt 0.437256 0.000000
vt 0.187500 0.999969
vt 0.000031 0.999969
vt 0.859375 0.999969
vt 0.828125 0.999969
vt 0.828125 0.625000
vt 0.859375 0.625000
vt 0.437500 0.906250
vt 0.437500 0.843750
vt 0.687500 0.843750
vt 0.687500 0.906250
vt 0.906250 0.999969
vt 0.906250 0.625000
vt 0.937500 0.625000
vt 0.937500 0.999969
s 1
usemtl MI_Ravager_Gate_Long
f 170/1/1 169/2/1 179/3/1 180/4/1
f 153/5/3 163/6/3 164/7/3 154/8/3
f 86/9/3 84/10/3 85/11/3 83/12/3
f 123/5/3 133/6/3 134/7/3 124/8/3
f 78/13/1 75/14/1 76/15/1 77/16/1
f 108/3/2 107/17/2 73/18/2 74/2/2
f 87/19/5 89/20/5 185/21/5 186/22/5
f 113/5/3 123/6/3 124/7/3 114/8/3
f 46/1/1 45/2/1 55/3/1 56/4/1
f 34/5/3 49/6/3 50/7/3 35/8/3
f 160/1/1 159/2/1 169/3/1 170/4/1
f 20/23/5 18/24/5 19/25/5 17/26/5
f 98/27/2 95/28/2 96/29/2 97/30/2
f 161/31/2 171/32/2 172/33/2 162/34/2
f 66/1/1 65/2/1 99/3/1 100/4/1
f 195/19/5 196/20/5 18/21/5 20/22/5
f 64/3/2 63/17/2 53/18/2 54/2/2
f 194/5/3 36/6/3 33/7/3 193/8/3
f 115/19/5 116/20/5 106/21/5 105/22/5
f 4/35/1 1/36/1 2/37/1 3/38/1
f 82/39/2 80/40/2 81/27/2 79/30/2
f 59/5/3 69/6/3 70/7/3 60/8/3
f 24/37/2 21/41/2 22/42/2 23/36/2
f 3/1/1 2/2/1 189/3/1 190/4/1
f 136/19/5 135/20/5 126/21/5 125/22/5
f 44/3/2 41/17/2 42/18/2 43/2/2
f 28/1/1 25/2/1 26/3/1 27/4/1
f 90/43/5 88/44/5 89/45/5 87/46/5
f 94/47/6 92/48/6 93/49/6 91/50/6
f 16/48/4 15/49/4 13/50/4 14/47/4
f 118/3/2 117/17/2 107/18/2 108/2/2
f 8/35/2 6/38/2 7/37/2 5/36/2
f 69/5/3 103/6/3 104/7/3 70/8/3
f 52/19/5 51/20/5 40/21/5 38/22/5
f 125/19/5 126/20/5 116/21/5 115/22/5
f 38/19/5 40/20/5 39/21/5 37/22/5
f 101/31/2 111/32/2 112/33/2 102/34/2
f 36/5/3 34/6/3 35/7/3 33/8/3
f 171/31/2 181/32/2 182/33/2 172/34/2
f 32/31/2 30/32/2 31/33/2 29/34/2
f 110/1/1 109/2/1 119/3/1 120/4/1
f 37/19/5 39/20/5 196/21/5 195/22/5
f 97/3/2 96/17/2 187/18/2 188/2/2
f 47/31/2 57/32/2 58/33/2 48/34/2
f 168/3/2 167/17/2 157/18/2 158/2/2
f 72/19/5 71/20/5 62/21/5 61/22/5
f 192/31/2 32/32/2 29/33/2 191/34/2
f 128/3/2 127/17/2 117/18/2 118/2/2
f 57/31/2 67/32/2 68/33/2 58/34/2
f 121/31/2 131/32/2 132/33/2 122/34/2
f 120/1/1 119/2/1 129/3/1 130/4/1
f 156/19/5 155/20/5 146/21/5 145/22/5
f 150/1/1 149/2/1 159/3/1 160/4/1
f 74/3/2 73/17/2 63/18/2 64/2/2
f 138/3/2 137/17/2 127/18/2 128/2/2
f 133/5/3 143/6/3 144/7/3 134/8/3
f 188/3/2 187/17/2 177/18/2 178/2/2
f 148/3/2 147/17/2 137/18/2 138/2/2
f 145/19/5 146/20/5 135/21/5 136/22/5
f 12/51/3 10/52/3 11/53/3 9/54/3
f 130/1/1 129/2/1 139/3/1 140/4/1
f 30/31/2 47/32/2 48/33/2 31/34/2
f 165/19/5 166/20/5 155/21/5 156/22/5
f 56/1/1 55/2/1 65/3/1 66/4/1
f 141/31/2 151/32/2 152/33/2 142/34/2
f 151/31/2 161/32/2 162/33/2 152/34/2
f 131/31/2 141/32/2 142/33/2 132/34/2
f 54/3/2 53/17/2 41/18/2 44/2/2
f 105/19/5 106/20/5 71/21/5 72/22/5
f 173/5/3 183/6/3 184/7/3 174/8/3
f 163/5/3 173/6/3 174/7/3 164/8/3
f 67/31/2 101/32/2 102/33/2 68/34/2
f 178/3/2 177/17/2 167/18/2 168/2/2
f 10/5/3 194/6/3 193/7/3 11/8/3
f 175/19/5 176/20/5 166/21/5 165/22/5
f 27/1/1 26/2/1 45/3/1 46/4/1
f 103/5/3 113/6/3 114/7/3 104/8/3
f 186/19/5 185/20/5 176/21/5 175/22/5
f 180/1/1 179/2/1 75/3/1 78/4/1
f 100/1/1 99/2/1 109/3/1 110/4/1
f 183/5/3 86/6/3 83/7/3 184/8/3
f 181/31/2 82/32/2 79/33/2 182/34/2
f 6/31/2 192/32/2 191/33/2 7/34/2
f 61/19/5 62/20/5 51/21/5 52/22/5
f 111/31/2 121/32/2 122/33/2 112/34/2
f 190/1/1 189/2/1 25/3/1 28/4/1
f 43/3/2 42/17/2 197/18/2 198/2/2
f 158/3/2 157/17/2 147/18/2 148/2/2
f 143/5/3 153/6/3 154/7/3 144/8/3
f 140/1/1 139/2/1 149/3/1 150/4/1
f 49/5/3 59/6/3 60/7/3 50/8/3
f 198/3/2 197/17/2 21/18/2 24/2/2
