# Blender 5.0.1
# www.blender.org
mtllib BP_RuneCube.mtl
o SM_RuneCube.001
v -50.000000 50.000015 99.999992
v -50.000000 -50.000000 0.000008
v -50.000000 -49.999985 100.000008
v -50.000000 50.000000 -0.000008
v 50.000000 50.000015 99.999992
v -50.000000 50.000000 -0.000008
v -50.000000 50.000015 99.999992
v 50.000000 50.000000 -0.000008
v 50.000000 -49.999985 100.000008
v 50.000000 50.000000 -0.000008
v 50.000000 50.000015 99.999992
v 50.000000 -50.000000 0.000008
v -50.000000 -49.999985 100.000008
v 50.000000 -50.000000 0.000008
v 50.000000 -49.999985 100.000008
v -50.000000 -50.000000 0.000008
v 50.000000 -50.000000 0.000008
v -50.000000 -50.000000 0.000008
v -50.000000 50.000000 -0.000008
v 50.000000 50.000000 -0.000008
v -50.000000 50.000015 99.999992
v -50.000000 -49.999985 100.000008
v 50.000000 50.000015 99.999992
v 50.000000 -49.999985 100.000008
v -25.000000 25.000011 74.999992
v -25.000000 -24.999996 25.000004
v -25.000000 -24.999989 75.000008
v -25.000000 25.000004 24.999996
v 25.000000 25.000011 74.999992
v -25.000000 25.000004 24.999996
v -25.000000 25.000011 74.999992
v 25.000000 25.000004 24.999996
v 25.000000 -24.999989 75.000008
v 25.000000 25.000004 24.999996
v 25.000000 25.000011 74.999992
v 25.000000 -24.999996 25.000004
v -25.000000 -24.999989 75.000008
v 25.000000 -24.999996 25.000004
v 25.000000 -24.999989 75.000008
v -25.000000 -24.999996 25.000004
v 25.000000 -24.999996 25.000004
v -25.000000 -24.999996 25.000004
v -25.000000 25.000004 24.999996
v 25.000000 25.000004 24.999996
v -25.000000 25.000011 74.999992
v -25.000000 -24.999989 75.000008
v 25.000000 25.000011 74.999992
v 25.000000 -24.999989 75.000008
v -50.000000 0.000016 100.000000
v 50.000000 0.000000 0.000000
v 50.000000 0.000016 100.000000
v -50.000000 0.000000 0.000000
v -35.355343 35.355354 99.999992
v 35.355343 -35.355339 0.000006
v 35.355343 -35.355324 100.000008
v -35.355343 35.355339 -0.000006
v -0.000004 50.000019 99.999992
v 0.000004 -50.000004 0.000008
v 0.000004 -49.999989 100.000008
v -0.000004 50.000004 -0.000008
v 35.355339 35.355362 99.999992
v -35.355339 -35.355347 0.000006
v -35.355339 -35.355331 100.000008
v 35.355339 35.355347 -0.000006
vn -1.0000 -0.0000 -0.0000
vn -0.0000 1.0000 -0.0000
vn 1.0000 -0.0000 -0.0000
vn -0.0000 -1.0000 -0.0000
vn -0.0000 -0.0000 -1.0000
vn -0.0000 -0.0000 1.0000
vn -0.7071 -0.7071 -0.0000
vn -0.7071 0.7071 -0.0000
vt 0.000031 0.500000
vt 0.500000 0.500000
vt 0.500000 0.999969
vt 0.000031 0.999969
vt 1.000000 0.000000
vt 0.999512 1.000031
vt -0.000031 0.999969
vt 0.000031 0.000000
vt 0.000031 0.000000
vt 1.000000 0.999969
vt 1.000000 0.062500
vt 0.937500 0.062500
vt 0.937500 0.000000
vt 0.500000 0.000000
vt 0.000031 0.999969
vt 1.000000 0.500000
s 1
usemtl M_RuneCubeOuter_Inst
f 24/5/6 23/6/6 21/7/6 22/8/6
f 16/9/4 14/5/4 15/10/4 13/4/4
f 8/9/2 6/5/2 7/10/2 5/4/2
f 12/9/3 10/5/3 11/10/3 9/4/3
f 20/10/5 17/15/5 18/8/5 19/5/5
f 4/9/1 2/5/1 3/10/1 1/4/1
usemtl M_RuneCube_Inst
f 32/9/2 30/5/2 31/10/2 29/4/2
f 36/9/3 34/5/3 35/10/3 33/4/3
f 48/5/6 47/11/6 45/12/6 46/13/6
f 44/11/5 41/12/5 42/13/5 43/5/5
f 40/9/4 38/5/4 39/10/4 37/4/4
f 28/9/1 26/5/1 27/10/1 25/4/1
usemtl M_RuneCubeStars_Inst
f 52/1/4 50/2/4 51/3/4 49/4/4
f 60/9/1 58/14/1 59/2/1 57/1/1
f 56/2/7 54/16/7 55/10/7 53/3/7
f 64/14/8 62/5/8 63/16/8 61/2/8
