# Blender 5.0.1
# www.blender.org
mtllib BP_Rug_Big04.mtl
o SM_Rugs_Big_Rug_Big04.001
v 75.000008 -146.901199 7.208057
v -68.750000 -146.901199 7.208057
v -68.750000 -146.901199 -0.225451
v 75.000008 -146.901199 -0.225451
v 75.000008 -146.901199 7.208057
v 75.000008 146.901230 7.208057
v -68.750000 -146.901199 7.208057
v -68.750000 146.901230 7.208057
v 75.000008 146.901230 -0.225451
v -68.750000 146.901230 -0.225451
v -68.750000 146.901230 7.208057
v 75.000008 146.901230 7.208057
v 75.000008 146.901230 7.208057
v 75.000008 -146.901199 7.208057
v 75.000008 -146.901199 -0.225451
v 75.000008 146.901230 -0.225451
v -68.750000 -146.901199 7.208057
v -68.750000 146.901230 -0.225451
v -68.750000 -146.901199 -0.225451
v -68.750000 146.901230 7.208057
vn -0.0000 -1.0000 -0.0000
vn -0.0000 -0.0000 1.0000
vn -0.0000 1.0000 -0.0000
vn 1.0000 -0.0000 -0.0000
vn -1.0000 -0.0000 -0.0000
vt 0.000031 0.999969
vt 0.000031 0.020996
vt 0.479004 0.020996
vt 0.479004 0.999969
vt 0.020828 0.020996
vt 0.020828 0.999969
vt 0.479004 0.019043
vt 0.479004 0.043945
vt 0.000031 0.041992
s 1
usemtl MI_Rug_Big04
f 8/1/2 7/2/2 5/3/2 6/4/2
f 15/5/4 16/6/4 13/1/4 14/2/4
f 4/7/1 1/8/1 2/9/1 3/2/1
f 12/7/3 9/8/3 10/9/3 11/2/3
f 20/6/5 18/1/5 19/2/5 17/5/5
