# Blender 5.0.1
# www.blender.org
mtllib BP_Reed_Planes_Patch1.mtl
o SM_Reed_Patch01.001
v 169.416748 -143.750015 201.333496
v -31.916746 -143.750015 201.333496
v -31.916746 -143.750000 -0.000009
v 169.416748 -143.750000 -0.000009
v 68.750000 -244.416763 201.333481
v 68.750000 -244.416748 -0.000014
v 68.750000 -43.083263 201.333496
v 68.750000 -43.083256 -0.000005
v 212.495392 112.499992 0.000002
v 212.495392 112.499985 200.009125
v 412.504547 112.499992 0.000002
v 412.504547 112.499985 200.009125
v 312.499969 12.495418 200.009125
v 312.499969 12.495426 -0.000002
v 312.499969 212.504547 200.009140
v 312.499969 212.504562 0.000006
v -137.388824 -68.750008 200.222351
v -337.611176 -68.750008 200.222351
v -337.611176 -68.750000 -0.000006
v -137.388824 -68.750000 -0.000006
v -237.500000 -168.861191 200.222351
v -237.500000 -168.861176 -0.000010
v -237.500000 31.361166 200.222351
v -237.500000 31.361176 -0.000002
v 62.394432 256.250000 199.788879
v -137.394424 256.250000 199.788879
v -137.394424 256.250000 0.000008
v 62.394432 256.250000 0.000008
v -37.500000 156.355560 199.788864
v -37.500000 156.355576 0.000004
v -37.500000 356.144440 199.788879
v -37.500000 356.144440 0.000013
vn -0.0000 -1.0000 -0.0000
vn 1.0000 -0.0000 -0.0000
vn -0.0000 1.0000 -0.0000
vt 0.000031 0.000000
vt 1.000000 0.000000
vt 1.000000 0.999969
vt 0.000031 0.999969
s 1
usemtl WorldGridMaterial
f 4/2/1 1/3/1 2/4/1 3/1/1
f 6/1/2 8/2/2 7/3/2 5/4/2
usemtl WorldGridMaterial
f 12/4/3 11/1/3 9/2/3 10/3/3
f 14/1/2 16/2/2 15/3/2 13/4/2
usemtl WorldGridMaterial
f 22/1/2 24/2/2 23/3/2 21/4/2
f 20/2/1 17/3/1 18/4/1 19/1/1
usemtl WorldGridMaterial
f 30/1/2 32/2/2 31/3/2 29/4/2
f 28/2/1 25/3/1 26/4/1 27/1/1
