# Blender 5.0.1
# www.blender.org
mtllib BP_RuneBlocks.mtl
o SM_RuneBlock_Simple.001
v -50.000000 50.000015 99.999992
v -50.000000 -50.000000 0.000008
v -50.000000 -49.999985 100.000008
v -50.000000 50.000000 -0.000008
v 50.000000 50.000015 99.999992
v -50.000000 50.000000 -0.000008
v -50.000000 50.000015 99.999992
v 50.000000 50.000000 -0.000008
v 50.000000 -49.999985 100.000008
v 50.000000 50.000000 -0.000008
v 50.000000 50.000015 99.999992
v 50.000000 -50.000000 0.000008
v -50.000000 -49.999985 100.000008
v 50.000000 -50.000000 0.000008
v 50.000000 -49.999985 100.000008
v -50.000000 -50.000000 0.000008
v 50.000000 -50.000000 0.000008
v -50.000000 -50.000000 0.000008
v -50.000000 50.000000 -0.000008
v 50.000000 50.000000 -0.000008
v -50.000000 50.000015 99.999992
v -50.000000 -49.999985 100.000008
v 50.000000 50.000015 99.999992
v 50.000000 -49.999985 100.000008
vn -1.0000 -0.0000 -0.0000
vn -0.0000 1.0000 -0.0000
vn 1.0000 -0.0000 -0.0000
vn -0.0000 -1.0000 -0.0000
vn -0.0000 -0.0000 -1.0000
vn -0.0000 -0.0000 1.0000
vt 0.750000 0.999969
vt 0.499756 0.999969
vt 0.499756 0.750000
vt 0.750000 0.750000
vt -0.000031 0.750000
vt 0.250000 0.750000
vt 0.250000 0.999969
vt -0.000031 0.999969
vt 0.000031 0.750000
vt 0.000031 0.999969
vt 1.000000 0.000000
vt 0.999512 1.000031
vt -0.000031 0.999969
vt -0.000031 0.000000
s 1
usemtl MI_RuneGateFrame
f 20/1/5 17/2/5 18/3/5 19/4/5
f 12/5/3 10/6/3 11/7/3 9/8/3
f 4/9/1 2/6/1 3/7/1 1/10/1
f 16/9/4 14/6/4 15/7/4 13/10/4
f 8/9/2 6/6/2 7/7/2 5/10/2
usemtl MI_RuneGateRunes
f 24/11/6 23/12/6 21/13/6 22/14/6
