# Blender 5.0.1
# www.blender.org
mtllib BP_Rug_Huge01.mtl
o SM_Rug_Huge_01.001
v 196.875000 199.999985 6.250000
v -196.874985 -193.750015 6.250000
v 196.875015 -193.750015 6.250000
v -196.874985 199.999985 6.250000
v 196.875015 -193.750015 6.250000
v -196.874985 -193.750015 6.250000
v -196.874985 -193.750015 0.000000
v 196.875015 -193.750015 0.000000
v 196.875015 -193.750015 0.000000
v 196.875000 199.999985 6.250000
v 196.875015 -193.750015 6.250000
v 196.875000 199.999985 -0.000000
v 196.875000 199.999985 -0.000000
v -196.874985 199.999985 -0.000000
v -196.874985 199.999985 6.250000
v 196.875000 199.999985 6.250000
v -196.874985 199.999985 -0.000000
v -196.874985 -193.750015 0.000000
v -196.874985 -193.750015 6.250000
v -196.874985 199.999985 6.250000
vn -0.0000 -0.0000 1.0000
vn -0.0000 -1.0000 -0.0000
vn 1.0000 -0.0000 -0.0000
vn -0.0000 1.0000 -0.0000
vn -1.0000 -0.0000 -0.0000
vt 0.000031 0.999969
vt 0.000031 0.015625
vt 0.984375 0.015625
vt 0.984375 0.999969
vt 0.015625 0.015625
vt 0.015625 0.999969
s 1
usemtl MI_Rug_Huge_01
f 4/1/1 2/2/1 3/3/1 1/4/1
f 16/2/4 13/5/4 14/6/4 15/1/4
f 8/2/2 5/5/2 6/6/2 7/1/2
f 12/2/3 10/5/3 11/6/3 9/1/3
f 19/5/5 20/6/5 17/1/5 18/2/5
