# Blender 5.0.1
# www.blender.org
mtllib BP_RopeLift_Jungle_Exit.mtl
o SM_RopeLift_Jungle.001
v 25.000813 -224.999939 350.000000
v 25.000782 -224.999939 0.000005
v 25.000635 -174.999939 350.000000
v 25.000605 -174.999939 0.000005
v -24.999187 -225.000122 350.000000
v 25.000782 -224.999939 0.000005
v 25.000813 -224.999939 350.000000
v -24.999218 -225.000122 0.000005
v -24.999365 -175.000122 350.000000
v -24.999395 -175.000122 0.000005
v -24.999187 -225.000122 350.000000
v -24.999218 -225.000122 0.000005
v 25.000635 -174.999939 350.000000
v 25.000605 -174.999939 0.000005
v -24.999365 -175.000122 350.000000
v -24.999395 -175.000122 0.000005
v 20.581345 -212.499954 66.919418
v 91.291924 -187.499695 -3.791274
v 20.581259 -187.499954 66.919426
v 91.292015 -212.499695 -3.791274
v 91.292015 -212.499695 -3.791274
v 2.903670 -212.500000 49.241749
v 73.614342 -212.499771 -21.468948
v 20.581345 -212.499954 66.919418
v 2.903585 -187.500000 49.241753
v 73.614250 -187.499771 -21.468941
v 2.903670 -212.500000 49.241749
v 73.614342 -212.499771 -21.468948
v 20.581259 -187.499954 66.919426
v 91.291924 -187.499695 -3.791274
v 2.903585 -187.500000 49.241753
v 73.614250 -187.499771 -21.468941
v -20.579880 -187.500076 66.919418
v -91.290459 -212.500320 -3.791274
v -20.579798 -212.500076 66.919426
v -91.290550 -187.500320 -3.791274
v -91.290550 -187.500320 -3.791274
v -20.579880 -187.500076 66.919418
v -73.612869 -187.500259 -21.468946
v -2.902207 -187.500031 49.241749
v -2.902122 -212.500031 49.241753
v -73.612785 -212.500259 -21.468939
v -2.902207 -187.500031 49.241749
v -73.612869 -187.500259 -21.468946
v -20.579798 -212.500076 66.919426
v -91.290459 -212.500320 -3.791274
v -2.902122 -212.500031 49.241753
v -73.612785 -212.500259 -21.468939
v -20.581327 212.499863 66.919418
v -91.291908 187.499634 -3.791274
v -20.581245 187.499863 66.919426
v -91.292000 212.499634 -3.791274
v -91.292000 212.499634 -3.791274
v -20.581327 212.499863 66.919418
v -73.614319 212.499710 -21.468946
v -2.903655 212.499924 49.241749
v -2.903570 187.499924 49.241753
v -73.614235 187.499710 -21.468939
v -2.903655 212.499924 49.241749
v -73.614319 212.499710 -21.468946
v -20.581245 187.499863 66.919426
v -91.291908 187.499634 -3.791274
v -2.903570 187.499924 49.241753
v -73.614235 187.499710 -21.468939
v 20.579897 187.500015 66.919418
v 91.290474 212.500244 -3.791274
v 20.579811 212.500015 66.919426
v 91.290565 187.500244 -3.791274
v 91.290565 187.500244 -3.791274
v 2.902222 187.499954 49.241749
v 73.612892 187.500198 -21.468948
v 20.579897 187.500015 66.919418
v 2.902137 212.499954 49.241753
v 73.612801 212.500198 -21.468941
v 2.902222 187.499954 49.241749
v 73.612892 187.500198 -21.468948
v 20.579811 212.500015 66.919426
v 91.290474 212.500244 -3.791274
v 2.902137 212.499954 49.241753
v 73.612801 212.500198 -21.468941
v 24.999365 175.000000 350.000000
v 24.999334 175.000000 0.000005
v 24.999187 225.000000 350.000000
v 24.999157 225.000000 0.000005
v -25.000635 174.999817 350.000000
v 24.999334 175.000000 0.000005
v 24.999365 175.000000 350.000000
v -25.000666 174.999817 0.000005
v -25.000813 224.999817 350.000000
v -25.000843 224.999817 0.000005
v -25.000635 174.999817 350.000000
v -25.000666 174.999817 0.000005
v 24.999187 225.000000 350.000000
v 24.999157 225.000000 0.000005
v -25.000813 224.999817 350.000000
v -25.000843 224.999817 0.000005
v 75.833481 -67.186340 65.052376
v -3.386216 -5.065656 193.223175
v 66.961166 -75.991577 65.055305
v 5.486097 3.739583 193.220245
v -87.500305 87.499649 71.984161
v 87.500313 -87.499702 71.984146
v 87.499687 87.500290 71.984146
v -87.499680 -87.500328 71.984161
v 87.500313 -87.499702 53.234146
v -87.500305 87.499649 53.234161
v 87.499687 87.500290 53.234146
v -87.499680 -87.500328 53.234161
v 87.499687 87.500290 71.984146
v 87.500313 -87.499702 71.984146
v 87.500313 -87.499702 53.234146
v 87.499687 87.500290 53.234146
v 87.500313 -87.499702 71.984146
v -87.499680 -87.500328 71.984161
v -87.499680 -87.500328 53.234161
v 87.500313 -87.499702 53.234146
v -87.500305 87.499649 53.234161
v -87.499680 -87.500328 71.984161
v -87.500305 87.499649 71.984161
v -87.499680 -87.500328 53.234161
v 87.499687 87.500290 71.984146
v -87.500305 87.499649 53.234161
v -87.500305 87.499649 71.984161
v 87.499687 87.500290 53.234146
v -5.699769 3.483622 193.223175
v -67.820419 -75.736107 65.052376
v 3.105469 -5.388691 193.220245
v -76.625656 -66.863800 65.055305
v 66.960602 76.534302 65.055305
v -3.386243 5.607837 193.223175
v 75.832977 67.729126 65.052376
v 5.486130 -3.197337 193.220245
v -76.370209 67.728577 65.052376
v 2.849482 5.607890 193.223175
v -67.497894 76.533813 65.055313
v -6.022827 -3.197348 193.220245
v 0.537419 6.209642 351.059998
v -0.537426 -6.293047 188.563782
v -0.083332 -6.274933 351.063110
v 0.083325 6.191529 188.560654
v -6.251348 0.579079 351.059998
v 6.251340 -0.495766 188.563782
v 6.233233 -0.041664 351.063110
v -6.233242 0.124977 188.560654
v -9.374968 -9.080173 206.611694
v -9.374968 -9.080173 187.861694
v 9.375032 -9.080105 206.611694
v 9.375032 -9.080105 187.861694
v -9.375035 9.669827 206.611694
v 9.374965 9.669895 206.611694
v -9.375035 9.669827 187.861694
v 9.374965 9.669895 187.861694
v 9.374965 9.669895 206.611694
v 9.375032 -9.080105 206.611694
v 9.374965 9.669895 187.861694
v 9.375032 -9.080105 187.861694
v 9.374965 9.669895 187.861694
v 9.375032 -9.080105 187.861694
v -9.375035 9.669827 187.861694
v -9.374968 -9.080173 187.861694
v -9.375035 9.669827 206.611694
v -9.374968 -9.080173 187.861694
v -9.374968 -9.080173 206.611694
v -9.375035 9.669827 187.861694
v -9.375035 9.669827 206.611694
v -9.374968 -9.080173 206.611694
v 9.374965 9.669895 206.611694
v 9.375032 -9.080105 206.611694
v 34.375225 -62.499889 340.625061
v 34.374775 62.500095 340.625061
v 34.375225 -62.499889 409.375061
v 34.374775 62.500095 409.375061
v -34.374775 -62.500141 340.625061
v -34.375225 62.499844 340.625061
v 34.375225 -62.499889 340.625061
v 34.374775 62.500095 340.625061
v -34.375225 62.499844 409.375061
v -34.374775 -62.500141 340.625061
v -34.374775 -62.500141 409.375061
v -34.375225 62.499844 340.625061
v 34.375225 -62.499889 409.375061
v 34.374775 62.500095 409.375061
v -34.374775 -62.500141 409.375061
v -34.375225 62.499844 409.375061
v -46.874729 -75.000168 421.875061
v -46.874729 -75.000168 328.125061
v 46.875271 -74.999832 421.875061
v 46.875271 -74.999832 328.125061
v -46.874775 -62.500168 421.875061
v 46.875225 -62.499832 421.875061
v -46.874775 -62.500168 328.125061
v 46.875225 -62.499832 328.125061
v 46.875225 -62.499832 328.125061
v 46.875225 -62.499832 421.875061
v 46.875271 -74.999832 421.875061
v 46.875271 -74.999832 328.125061
v -46.874775 -62.500168 328.125061
v 46.875225 -62.499832 328.125061
v 46.875271 -74.999832 328.125061
v -46.874729 -75.000168 328.125061
v -46.874775 -62.500168 421.875061
v -46.874729 -75.000168 328.125061
v -46.874729 -75.000168 421.875061
v -46.874775 -62.500168 328.125061
v 46.875225 -62.499832 421.875061
v -46.874775 -62.500168 421.875061
v -46.874729 -75.000168 421.875061
v 46.875271 -74.999832 421.875061
v 46.874729 75.000137 421.875061
v 46.874729 75.000137 328.125061
v -46.875271 74.999802 421.875061
v -46.875271 74.999802 328.125061
v 46.874775 62.500137 421.875061
v -46.875225 62.499802 421.875061
v 46.874775 62.500137 328.125061
v -46.875225 62.499802 328.125061
v -46.875225 62.499802 328.125061
v -46.875225 62.499802 421.875061
v -46.875271 74.999802 421.875061
v -46.875271 74.999802 328.125061
v 46.874775 62.500137 328.125061
v -46.875271 74.999802 328.125061
v 46.874729 75.000137 328.125061
v -46.875225 62.499802 328.125061
v 46.874775 62.500137 421.875061
v 46.874729 75.000137 328.125061
v 46.874729 75.000137 421.875061
v 46.874775 62.500137 328.125061
v -46.875225 62.499802 421.875061
v 46.874729 75.000137 421.875061
v -46.875271 74.999802 421.875061
v 46.874775 62.500137 421.875061
v -24.999096 -250.000153 400.000061
v -24.999096 -250.000153 350.000061
v 25.000904 -249.999969 400.000061
v 25.000904 -249.999969 350.000061
v -25.000904 249.999847 400.000092
v 24.999096 250.000031 400.000092
v -25.000904 249.999847 350.000092
v 24.999096 250.000031 350.000092
v 25.000904 -249.999969 350.000061
v 25.000000 0.000029 400.000061
v 25.000904 -249.999969 400.000061
v 25.000000 0.000029 350.000061
v 24.999096 250.000031 350.000092
v 24.999096 250.000031 400.000092
v -24.999096 -250.000153 350.000061
v -25.000000 -0.000152 350.000061
v 25.000904 -249.999969 350.000061
v 25.000000 0.000029 350.000061
v -25.000904 249.999847 350.000092
v 24.999096 250.000031 350.000092
v -25.000000 -0.000152 400.000061
v -24.999096 -250.000153 350.000061
v -24.999096 -250.000153 400.000061
v -25.000000 -0.000152 350.000061
v -25.000904 249.999847 350.000092
v -25.000904 249.999847 400.000092
v 25.000904 -249.999969 400.000061
v 25.000000 0.000029 400.000061
v -24.999096 -250.000153 400.000061
v -25.000000 -0.000152 400.000061
v 24.999096 250.000031 400.000092
v -25.000904 249.999847 400.000092
v 25.908527 -162.499969 400.000031
v 25.908504 -162.499969 250.000031
v 25.908257 -87.499977 400.000031
v 25.908234 -87.499977 250.000031
vn 1.0000 -0.0000 -0.0000
vn -0.0000 -1.0000 -0.0000
vn -1.0000 -0.0000 -0.0000
vn -0.0000 1.0000 -0.0000
vn 0.7071 -0.0000 0.7071
vn -0.7071 -0.0000 -0.7071
vn -0.7071 -0.0000 0.7071
vn 0.7071 -0.0000 -0.7071
vn 0.5557 -0.5597 0.6147
vn -0.0000 -0.0000 1.0000
vn -0.0000 -0.0000 -1.0000
vn -0.5597 -0.5557 0.6147
vn 0.5557 0.5597 0.6147
vn -0.5557 0.5597 0.6147
vn -0.9988 0.0497 0.0028
vn -0.0497 -0.9988 0.0028
vt 0.765625 0.734375
vt 1.000000 0.734375
vt 1.000000 0.765625
vt 0.765625 0.765625
vt 0.640625 0.468750
vt 0.687500 0.468750
vt 0.687500 0.515625
vt 0.640625 0.515625
vt 1.000000 0.468750
vt 1.000000 0.640625
vt 0.687500 0.640625
vt 0.765625 0.750000
vt 0.765625 0.999969
vt 0.703125 0.999969
vt 0.703125 0.750000
vt 0.593750 0.437500
vt 1.000000 0.437500
vt 0.593750 0.468750
vt 0.000031 0.875000
vt -0.000031 0.000000
vt 0.125000 0.000000
vt 0.125000 0.875000
vt 1.000000 0.999969
vt 0.562500 0.437500
vt 0.562500 0.000000
vt 1.000000 0.000000
vt 0.500000 0.625000
vt 0.375000 0.625000
vt 0.375000 0.000000
vt 0.500000 0.000000
vt 0.515625 0.437500
vt 0.515625 0.000000
vt 0.250000 0.625000
vt 0.250000 0.000000
vt 0.125000 0.625000
vt 0.250000 0.750000
vt 0.125000 0.750000
vt 0.500000 0.999969
vt 0.125000 0.999969
vt 0.125000 0.812500
vt 0.500000 0.812500
s 1
usemtl MI_RopeLift_Jungle
f 199/1/11 200/2/11 197/3/11 198/4/11
f 158/5/11 160/6/11 159/7/11 157/8/11
f 174/9/11 176/10/11 175/11/11 173/6/11
f 170/10/1 172/9/1 171/6/1 169/11/1
f 40/12/4 39/13/4 37/14/4 38/15/4
f 132/16/13 131/17/13 129/9/13 130/18/13
f 100/18/9 98/16/9 99/17/9 97/9/9
f 144/17/16 142/9/16 143/18/16 141/16/16
f 24/15/2 22/12/2 23/13/2 21/14/2
f 56/12/4 55/13/4 53/14/4 54/15/4
f 128/17/12 126/9/12 127/18/12 125/16/12
f 28/14/6 27/15/6 25/12/6 26/13/6
f 68/13/5 66/14/5 67/15/5 65/12/5
f 60/14/8 59/15/8 57/12/8 58/13/8
f 36/13/7 34/14/7 35/15/7 33/12/7
f 76/14/6 75/15/6 73/12/6 74/13/6
f 140/17/15 138/9/15 139/18/15 137/16/15
f 78/13/4 80/14/4 79/15/4 77/12/4
f 46/13/2 48/14/2 47/15/2 45/12/2
f 154/5/1 156/6/1 155/7/1 153/8/1
f 96/19/4 95/20/4 93/21/4 94/22/4
f 188/4/2 187/3/2 185/23/2 186/13/2
f 4/19/1 3/20/1 1/21/1 2/22/1
f 108/17/11 106/24/11 107/25/11 105/26/11
f 248/27/11 250/28/11 249/29/11 247/30/11
f 44/14/8 43/15/8 41/12/8 42/13/8
f 124/31/4 122/32/4 123/25/4 121/24/4
f 219/1/3 220/2/3 217/3/3 218/4/3
f 84/19/1 83/20/1 81/21/1 82/22/1
f 214/4/2 216/3/2 215/23/2 213/13/2
f 20/13/5 18/14/5 19/15/5 17/12/5
f 136/18/14 134/16/14 135/17/14 133/9/14
f 30/13/4 32/14/4 31/15/4 29/12/4
f 72/15/2 70/12/2 71/13/2 69/14/2
f 52/13/7 50/14/7 51/15/7 49/12/7
f 251/27/11 252/28/11 250/29/11 248/30/11
f 166/5/10 168/6/10 167/7/10 165/8/10
f 150/5/4 152/6/4 151/7/4 149/8/4
f 120/32/3 118/25/3 119/24/3 117/31/3
f 16/19/4 15/20/4 13/21/4 14/22/4
f 12/19/3 11/20/3 9/21/3 10/22/3
f 244/33/1 242/28/1 243/29/1 241/34/1
f 164/8/3 162/5/3 163/6/3 161/7/3
f 8/22/2 6/19/2 7/20/2 5/21/2
f 148/5/2 147/6/2 145/7/2 146/8/2
f 207/1/10 208/2/10 205/3/10 206/4/10
f 92/19/3 91/20/3 89/21/3 90/22/3
f 204/4/3 202/1/3 203/2/3 201/3/3
f 180/9/3 178/6/3 179/11/3 177/10/3
f 238/35/4 240/33/4 239/36/4 237/37/4
f 195/1/1 196/2/1 193/3/1 194/4/1
f 190/4/4 192/3/4 191/23/4 189/13/4
f 88/22/2 86/19/2 87/20/2 85/21/2
f 236/35/2 235/33/2 233/36/2 234/37/2
f 232/4/10 230/1/10 231/2/10 229/3/10
f 116/32/2 113/25/2 114/24/2 115/31/2
f 228/4/1 226/1/1 227/2/1 225/3/1
f 258/28/3 257/33/3 256/34/3 253/29/3
f 224/4/11 222/1/11 223/2/11 221/3/11
f 212/4/4 211/3/4 209/23/4 210/13/4
f 62/13/2 64/14/2 63/15/2 61/12/2
f 112/32/1 109/25/1 110/24/1 111/31/1
f 104/24/10 102/25/10 103/26/10 101/17/10
f 182/9/10 184/10/10 183/11/10 181/6/10
f 245/33/1 246/28/1 242/29/1 244/34/1
f 256/33/3 254/34/3 255/29/3 253/28/3
f 260/27/10 262/28/10 261/29/10 259/30/10
f 263/27/10 264/28/10 262/29/10 260/30/10
f 268/38/1 267/39/1 265/40/1 266/41/1
