# Blender 5.0.1
# www.blender.org
mtllib BP_RuneRoomFloorThreeway.mtl
o SM_RuneRelay.001
v -50.000000 50.000015 99.999992
v -50.000000 -50.000000 0.000008
v -50.000000 -49.999985 100.000008
v -50.000000 50.000000 -0.000008
v 50.000000 50.000015 99.999992
v -50.000000 50.000000 -0.000008
v -50.000000 50.000015 99.999992
v 50.000000 50.000000 -0.000008
v 50.000000 -49.999985 100.000008
v 50.000000 50.000000 -0.000008
v 50.000000 50.000015 99.999992
v 50.000000 -50.000000 0.000008
v -50.000000 -49.999985 100.000008
v 50.000000 -50.000000 0.000008
v 50.000000 -49.999985 100.000008
v -50.000000 -50.000000 0.000008
v 50.000000 -50.000000 0.000008
v -50.000000 -50.000000 0.000008
v -50.000000 50.000000 -0.000008
v 50.000000 50.000000 -0.000008
v -50.000000 50.000015 99.999992
v -50.000000 -49.999985 100.000008
v 50.000000 50.000015 99.999992
v 50.000000 -49.999985 100.000008
vn -1.0000 -0.0000 -0.0000
vn -0.0000 1.0000 -0.0000
vn 1.0000 -0.0000 -0.0000
vn -0.0000 -1.0000 -0.0000
vn -0.0000 -0.0000 -1.0000
vn -0.0000 -0.0000 1.0000
vt 1.000000 0.999969
vt 0.000031 0.999969
vt 0.000031 0.000000
vt 1.000000 0.000000
vt 0.000031 1.000031
vt 1.000000 1.000031
vt 0.000031 0.999969
vt 0.000031 0.000000
vt 0.999512 1.000031
vt -0.000031 0.999969
s 1
usemtl MI_RuneRelay
f 20/1/5 17/2/5 18/3/5 19/4/5
f 12/3/3 10/5/3 11/6/3 9/4/3
f 4/7/1 2/8/1 3/4/1 1/1/1
f 16/3/4 14/4/4 15/1/4 13/2/4
f 8/3/2 6/4/2 7/1/2 5/2/2
f 24/4/6 23/9/6 21/10/6 22/3/6
