# Blender 5.0.1
# www.blender.org
mtllib BP_Rug_Big02.mtl
o SM_Rugs_Big_Rug_Big02.001
v 150.052383 -150.052383 7.208057
v -150.052429 -150.052383 7.208057
v -150.052429 -150.052383 -0.225451
v 150.052383 -150.052383 -0.225451
v 150.052383 -150.052383 7.208057
v 150.052383 150.052429 7.208057
v -150.052429 -150.052383 7.208057
v -150.052429 150.052429 7.208057
v 150.052383 150.052429 -0.225451
v -150.052429 150.052429 -0.225451
v -150.052429 150.052429 7.208057
v 150.052383 150.052429 7.208057
v 150.052383 150.052429 7.208057
v 150.052383 -150.052383 7.208057
v 150.052383 -150.052383 -0.225451
v 150.052383 150.052429 -0.225451
v -150.052429 -150.052383 7.208057
v -150.052429 150.052429 -0.225451
v -150.052429 -150.052383 -0.225451
v -150.052429 150.052429 7.208057
vn -0.0000 -1.0000 -0.0000
vn -0.0000 -0.0000 1.0000
vn -0.0000 1.0000 -0.0000
vn 1.0000 -0.0000 -0.0000
vn -1.0000 -0.0000 -0.0000
vt 0.000031 0.999969
vt 0.000031 0.000000
vt 1.000000 0.000000
vt 1.000000 0.999969
vt 0.020828 0.000000
vt 0.020828 0.999969
vt 1.000000 0.020996
vt 0.000031 0.020996
s 1
usemtl MI_Rug_Big02
f 8/1/2 7/2/2 5/3/2 6/4/2
f 15/5/4 16/6/4 13/1/4 14/2/4
f 4/3/1 1/7/1 2/8/1 3/2/1
f 12/3/3 9/7/3 10/8/3 11/2/3
f 20/6/5 18/1/5 19/2/5 17/5/5
