# Blender 5.0.1
# www.blender.org
mtllib BP_RedStoneCrystal_Concave03.mtl
o SM_RedStoneCrystal_Concave_all_Concave03.001
v 49.418522 50.000008 100.000000
v -49.418625 50.000000 87.500000
v -49.418625 50.000000 100.000000
v 49.418522 50.000008 87.500000
v -49.418625 50.000000 87.500000
v 49.418522 50.000008 62.499996
v -49.418625 50.000000 62.499996
v 49.418522 50.000008 43.749996
v -49.418625 49.999996 43.749996
v 49.418522 50.000004 31.249998
v -49.418625 49.999996 31.249998
v 49.418522 50.000004 12.499999
v -49.418625 49.999996 12.499999
v 49.418522 50.000004 0.000006
v -49.418625 49.999996 0.000006
v -37.500114 12.499999 62.500008
v -49.418617 12.499999 87.500000
v -49.418602 12.499998 62.500000
v -37.500130 12.500001 87.500015
v -37.500114 12.499999 62.500008
v -49.418594 -6.250001 62.500000
v -37.500107 -6.250000 62.500008
v -49.418602 12.499998 62.500000
v -37.500099 -6.250001 43.750008
v -49.418594 -6.250001 62.500000
v -49.418587 -6.250002 43.750000
v -37.500107 -6.250000 62.500008
v -37.500099 -6.250001 43.750008
v -49.418587 -6.250002 43.750000
v -37.500103 -25.000002 43.750008
v -49.418591 -25.000002 43.750000
v -37.500118 31.249998 12.500006
v -49.418583 12.499996 12.500000
v -37.500095 12.499997 12.500006
v -49.418606 31.249996 12.500000
v -37.500130 31.250000 62.500008
v -49.418602 12.499998 62.500000
v -49.418617 31.249998 62.500000
v -37.500114 12.499999 62.500008
v -49.418579 -6.250003 31.250000
v -37.500095 -25.000002 31.250010
v -49.418583 -25.000004 31.250002
v -37.500092 -6.250002 31.250008
v -37.500080 -6.250003 12.500009
v -49.418579 -6.250003 31.250000
v -49.418568 -6.250004 12.500001
v -37.500092 -6.250002 31.250008
v -49.418591 -25.000002 43.750000
v -37.500118 -37.500000 43.750008
v -49.418606 -37.500004 43.750000
v -37.500103 -25.000002 43.750008
v -37.500095 -25.000002 31.250010
v -49.418591 -25.000002 43.750000
v -49.418583 -25.000004 31.250002
v -37.500103 -25.000002 43.750008
v 49.418522 50.000008 100.000000
v -49.418625 50.000000 100.000000
v -49.418625 31.250000 100.000000
v 49.418522 31.250010 100.000000
v -49.418621 12.500000 100.000000
v 49.418526 12.500009 100.000000
v -49.418621 -6.250000 100.000000
v 49.418526 -6.249991 100.000000
v -49.418617 -25.000000 100.000000
v 49.418530 -24.999990 100.000000
v -49.418617 -37.500000 100.000000
v 49.418530 -37.499992 100.000000
v -49.418617 -50.000000 100.000000
v 49.418530 -49.999992 100.000000
v -49.418625 49.999996 0.000006
v 49.418522 50.000004 0.000006
v -49.418602 31.249996 0.000007
v 49.418522 31.250004 0.000007
v -49.418579 12.499995 0.000007
v 49.418526 12.500005 0.000007
v -49.418560 -6.250004 0.000008
v 49.418526 -6.249996 0.000008
v -49.418552 -12.500005 0.000009
v 49.418530 -24.999996 0.000009
v -49.418568 -25.000004 0.000009
v 49.418530 -37.499996 0.000010
v -49.418591 -37.500004 0.000010
v 49.418530 -49.999996 0.000010
v -49.418617 -50.000004 0.000010
v -49.418617 -50.000004 0.000010
v 49.418530 -49.999996 0.000010
v 49.418530 -49.999996 12.500003
v -49.418617 -50.000004 12.500003
v 49.418530 -49.999996 31.250002
v -49.418617 -50.000004 31.250002
v 49.418530 -49.999992 43.750004
v -49.418621 -50.000004 43.750004
v 49.418530 -49.999992 62.500004
v -49.418621 -50.000000 62.500004
v 49.418530 -49.999992 87.500000
v -49.418621 -50.000000 87.500000
v -49.418617 -50.000000 100.000000
v 49.418530 -49.999992 100.000000
v -37.500114 12.499999 62.500008
v -37.500126 -6.250000 87.500015
v -37.500130 12.500001 87.500015
v -37.500107 -6.250000 62.500008
v -37.500126 -25.000000 87.500015
v -37.500111 -25.000000 62.500008
v -37.500099 -6.250001 43.750008
v -37.500103 -25.000002 43.750008
v -37.500107 12.499998 31.250004
v -37.500118 31.249998 12.500006
v -37.500095 12.499997 12.500006
v -37.500122 31.249998 31.250002
v -37.500111 12.499999 43.750004
v -37.500126 31.249998 43.750004
v -37.500130 31.250000 62.500008
v -37.500111 -25.000000 62.500008
v -49.418613 -25.000000 87.500000
v -37.500126 -25.000000 87.500015
v -49.418598 -25.000002 62.500000
v -37.500103 -25.000002 43.750008
v -49.418591 -25.000002 43.750000
v -37.500118 31.249998 12.500006
v -49.418610 31.249996 31.249998
v -49.418606 31.249996 12.500000
v -37.500122 31.249998 31.250002
v -49.418613 31.249998 43.750000
v -37.500126 31.249998 43.750004
v -49.418617 31.249998 62.500000
v -37.500130 31.250000 62.500008
v -37.500111 12.499999 43.750004
v -49.418602 12.499998 62.500000
v -37.500114 12.499999 62.500008
v -49.418598 12.499997 43.750000
v -37.500107 12.499998 31.250004
v -49.418594 12.499997 31.250000
v -49.418583 12.499996 12.500000
v -37.500095 12.499997 12.500006
v -49.418575 -25.000004 12.500002
v -37.500080 -6.250003 12.500009
v -49.418568 -6.250004 12.500001
v -37.500088 -25.000017 12.500008
v -49.418598 -37.500004 12.500003
v -37.500111 -37.500034 12.500007
v -49.418625 50.000000 100.000000
v -49.418625 31.250000 100.000000
v -49.418625 31.250000 87.500000
v -49.418625 50.000000 62.499996
v -49.418625 50.000000 87.500000
v -49.418617 12.499999 87.500000
v -49.418621 12.500000 100.000000
v -49.418617 31.249998 62.500000
v -49.418625 49.999996 43.749996
v -49.418602 12.499998 62.500000
v -49.418613 31.249998 43.750000
v -49.418613 -6.250000 87.500000
v -49.418625 49.999996 31.249998
v -49.418621 -6.250000 100.000000
v -49.418610 31.249996 31.249998
v -49.418613 -25.000000 87.500000
v -49.418625 49.999996 12.499999
v -49.418617 -25.000000 100.000000
v -49.418606 31.249996 12.500000
v -49.418625 49.999996 0.000006
v -49.418602 31.249996 0.000007
v -49.418583 12.499996 12.500000
v -49.418579 12.499995 0.000007
v -49.418568 -6.250004 12.500001
v -49.418560 -6.250004 0.000008
v -49.418552 -12.500005 0.000009
v -49.418579 -6.250003 31.250000
v -49.418575 -25.000004 12.500002
v -49.418594 12.499997 31.250000
v -49.418568 -25.000004 0.000009
v -49.418591 -37.500004 0.000010
v -49.418598 -37.500004 12.500003
v -49.418617 -50.000004 12.500003
v -49.418617 -50.000004 0.000010
v -49.418617 -50.000004 31.250002
v -49.418598 -37.500004 31.250002
v -49.418621 -50.000004 43.750004
v -49.418606 -37.500004 43.750000
v -49.418621 -50.000000 62.500004
v -49.418610 -37.500000 62.500000
v -49.418621 -50.000000 87.500000
v -49.418598 -25.000002 62.500000
v -49.418591 -25.000002 43.750000
v -49.418583 -25.000004 31.250002
v -49.418587 -6.250002 43.750000
v -49.418598 12.499997 43.750000
v -49.418594 -6.250001 62.500000
v -49.418617 -37.500000 87.500000
v -49.418617 -37.500000 100.000000
v -49.418617 -50.000000 100.000000
v -37.500130 12.500001 87.500015
v -49.418613 -6.250000 87.500000
v -49.418617 12.499999 87.500000
v -37.500126 -6.250000 87.500015
v -37.500126 -25.000000 87.500015
v -49.418613 -25.000000 87.500000
v -49.418598 -37.500004 31.250002
v -37.500111 -37.500034 12.500007
v -49.418598 -37.500004 12.500003
v -37.500111 -37.500019 31.250008
v -37.500118 -37.500000 43.750008
v -49.418606 -37.500004 43.750000
v -37.500111 -37.500019 31.250008
v -37.500088 -25.000017 12.500008
v -37.500111 -37.500034 12.500007
v -37.500095 -25.000002 31.250010
v -37.500080 -6.250003 12.500009
v -37.500092 -6.250002 31.250008
v -37.500118 -37.500000 43.750008
v 49.418530 -49.999992 87.500000
v 49.418530 -37.499992 100.000000
v 49.418530 -49.999992 100.000000
v 49.418530 -37.499992 87.500000
v 49.418530 -49.999992 62.500004
v 49.418530 -24.999992 87.500000
v 49.418530 -24.999990 100.000000
v 49.418526 -6.249991 100.000000
v 49.418530 -37.499992 62.500000
v 49.418530 -49.999992 43.750004
v 49.418530 -24.999992 62.500000
v 49.418526 -6.249992 87.500000
v 49.418526 12.500009 100.000000
v 49.418530 -37.499992 43.750000
v 49.418530 -49.999996 31.250002
v 49.418526 12.500009 87.500000
v 49.418522 31.250010 100.000000
v 49.418526 -6.249993 62.500000
v 49.418530 -24.999994 43.750000
v 49.418522 31.250008 87.500000
v 49.418522 50.000008 100.000000
v 49.418522 50.000008 87.500000
v 49.418526 12.500007 62.500000
v 49.418522 31.250008 62.500000
v 49.418522 50.000008 62.499996
v 49.418526 -6.249994 43.750000
v 49.418526 12.500007 43.750000
v 49.418522 31.250006 43.750000
v 49.418522 50.000008 43.749996
v 49.418530 -24.999994 31.250002
v 49.418526 -6.249994 31.250000
v 49.418526 12.500006 31.250000
v 49.418522 31.250006 31.249998
v 49.418522 50.000004 31.249998
v 49.418526 -6.249995 12.500001
v 49.418522 31.250006 12.500000
v 49.418522 50.000004 12.499999
v 49.418522 50.000004 0.000006
v 49.418522 31.250004 0.000007
v 49.418526 12.500005 12.500000
v 49.418526 12.500005 0.000007
v 49.418526 -6.249996 0.000008
v 49.418530 -24.999994 12.500002
v 49.418530 -24.999996 0.000009
v 49.418530 -37.499996 31.250002
v 49.418530 -49.999996 12.500003
v 49.418530 -37.499996 12.500003
v 49.418530 -37.499996 0.000010
v 49.418530 -49.999996 0.000010
vn -0.0000 1.0000 -0.0000
vn -0.7360 0.6770 -0.0000
vn -0.0000 -1.0000 -0.0000
vn -0.0000 -0.0000 1.0000
vn -0.0000 -0.0000 -1.0000
vn -1.0000 -0.0000 -0.0000
vn 1.0000 -0.0000 -0.0000
vt 1.000000 0.666748
vt 0.666504 0.666748
vt 1.000000 0.625000
vt 0.666504 0.625000
vt 0.000031 0.625000
vt 0.000031 0.541748
vt 0.333252 0.541748
vt 0.333252 0.625000
vt 0.541504 0.562500
vt 0.541504 0.625000
vt 0.479004 0.625000
vt 0.479004 0.562500
vt 0.416504 0.625000
vt 0.416504 0.666748
vt 0.375000 0.666748
vt 0.375000 0.625000
vt 0.604004 0.437500
vt 0.604004 0.479492
vt 0.541504 0.479492
vt 0.541504 0.437500
vt 0.375000 0.375000
vt 0.416504 0.375000
vt 0.416504 0.458496
vt 0.375000 0.458496
vt 0.854004 0.916687
vt 0.916504 0.916687
vt 0.916504 0.958344
vt 0.854004 0.958344
vt 0.541504 0.458496
vt 0.541504 0.375000
vt 0.604004 0.375000
vt 0.604004 0.458496
vt 0.812500 0.916687
vt 0.812500 0.854248
vt 0.854004 0.854248
vt 0.333252 0.000000
vt 0.375000 0.000000
vt 0.375000 0.333496
vt 0.333252 0.333496
vt 0.958008 0.854248
vt 0.916504 0.854248
vt 0.916504 0.812500
vt 0.958008 0.812500
vt 0.479004 0.333496
vt 0.479004 0.000000
vt 0.541504 0.000000
vt 0.541504 0.333496
vt 0.000031 0.375000
vt 0.000031 0.333496
vt 0.333252 0.375000
vt 0.958008 0.916687
vt 0.604004 0.541748
vt 0.604004 0.625000
vt 0.541504 0.541748
vt 0.000031 0.479492
vt 0.333252 0.479492
vt 1.000000 0.375000
vt 1.000000 0.437500
vt 0.666504 0.437500
vt 0.666504 0.375000
vt 0.479004 0.520996
vt 0.416504 0.562500
vt 0.416504 0.520996
vt 0.333252 0.666748
vt 0.479004 0.541748
vt 0.812500 0.895874
vt 0.770508 0.895874
vt 0.770508 0.854248
vt 0.770508 0.958344
vt 0.770508 0.999969
vt 0.708008 0.999969
vt 0.708008 0.958344
vt 0.708008 0.750000
vt 0.770508 0.750000
vt 0.770508 0.791748
vt 0.708008 0.791748
vt 0.458252 0.000000
vt 1.000000 0.958344
vt 0.958008 0.958344
vt 1.000000 0.916687
vt 1.000000 0.854248
vt 0.479004 0.666748
vt 0.479004 0.999969
vt 0.416504 0.999969
vt 0.895508 0.729248
vt 0.895508 0.812500
vt 0.833008 0.812500
vt 0.833008 0.729248
vt 0.916504 0.999969
vt 0.875000 0.999969
vt 0.875000 0.958344
vt 0.666504 0.479492
vt 0.666504 0.541748
vt 0.708008 0.895874
vt 0.666504 0.895874
vt 0.666504 0.833374
vt 0.708008 0.833374
vt 0.958008 0.729248
vt 0.541504 0.520996
vt 0.479004 0.458496
vt 1.000000 0.541748
vt 1.000000 0.729248
vt 1.000000 0.812500
vt 0.416504 0.541748
vt 0.812500 0.958344
vt 0.854004 0.729248
vt 0.854004 0.666748
vt 0.895508 0.666748
vt 0.375000 0.520996
vt 0.333252 0.520996
vt 0.333252 0.458496
vt 0.541504 0.666748
vt 0.604004 0.666748
vt 0.604004 0.999969
vt 0.541504 0.999969
vt 0.854004 0.999969
vt 0.812500 0.999969
vt 0.666504 0.958344
vt 0.000031 0.666748
vt 0.708008 0.854248
vt 0.666504 0.854248
vt 0.666504 0.791748
vt 0.416504 0.000000
vt 0.416504 0.333496
vt 0.375000 0.999969
vt 0.333252 0.999969
vt 0.479004 0.375000
vt 0.666504 0.458496
vt 0.604004 0.562500
vt 0.666504 0.562500
vt 0.604004 0.520996
vt 0.666504 0.520996
vt 0.812500 0.791748
vt 0.458252 0.666748
vt 0.479004 0.479492
vt 0.604004 0.000000
vt 0.604004 0.333496
vt 0.958008 0.666748
vt 1.000000 0.479492
vt 0.375000 0.562500
vt 0.333252 0.562500
vt 0.000031 0.437500
vt 0.333252 0.437500
vt 0.958008 0.999969
vt 0.666504 0.333496
vt 0.666504 0.000000
vt 0.854004 0.812500
vt 0.375000 0.437500
vt 0.375000 0.479492
vt 0.375000 0.541748
vt 1.000000 0.333496
vt 0.416504 0.479492
vt 0.666504 0.999969
vt 0.479004 0.437500
vt 0.416504 0.437500
s 1
usemtl MI_RedStoneCrystal_Concave
f 3/1/1 1/2/1 2/3/2
f 1/2/1 4/4/1 5/3/1
f 96/5/3 94/6/3 93/7/3 95/8/3
f 170/9/6 163/10/6 165/11/6 168/12/6
f 216/13/7 217/14/7 212/15/7 214/16/7
f 243/17/7 238/18/7 237/19/7 242/20/7
f 173/16/6 169/13/6 171/14/6 172/15/6
f 189/21/6 157/22/6 183/23/6 181/24/6
f 43/25/5 41/26/5 42/27/5 40/28/5
f 151/29/6 147/30/6 144/31/6 149/32/6
f 23/33/4 21/34/4 22/35/4 20/25/4
f 84/36/5 82/37/5 81/38/5 83/39/5
f 141/40/4 139/41/4 136/42/4 140/43/4
f 77/44/5 76/45/5 74/46/5 75/47/5
f 88/48/3 85/49/3 86/39/3 87/50/3
f 207/26/6 205/41/6 206/40/6 204/51/6
f 234/52/7 230/53/7 226/10/7 233/54/7
f 94/6/3 92/55/3 91/56/3 93/7/3
f 13/57/1 11/58/1 10/59/1 12/60/1
f 186/61/6 168/12/6 185/62/6 184/63/6
f 214/16/7 212/15/7 213/64/7 211/8/7
f 233/54/7 226/10/7 222/11/7 228/65/7
f 133/34/1 131/66/1 128/67/1 132/68/1
f 39/69/5 37/70/5 38/71/5 36/72/5
f 29/73/4 31/74/4 30/75/4 28/76/4
f 209/25/6 208/35/6 205/41/6 207/26/6
f 76/45/5 77/44/5 78/77/5
f 203/78/1 202/79/1 201/51/1 198/80/1
f 201/51/1 199/40/1 200/81/1 198/80/1
f 246/31/7 243/17/7 242/20/7 250/30/7
f 65/14/4 63/82/4 62/83/4 64/84/4
f 102/85/6 100/86/6 101/87/6 99/88/6
f 55/27/3 53/89/3 54/90/3 52/91/3
f 239/92/7 235/93/7 234/52/7 238/18/7
f 195/94/5 193/95/5 194/96/5 192/97/5
f 104/98/6 103/43/6 100/86/6 102/85/6
f 151/29/6 187/99/6 186/61/6 188/100/6
f 7/101/1 5/3/1 4/4/1 6/93/1
f 117/102/1 115/103/1 116/43/1 114/98/1
f 222/11/7 218/82/7 217/14/7 216/13/7
f 228/65/7 222/11/7 216/13/7 221/104/7
f 131/66/1 129/105/1 130/69/1 128/67/1
f 27/85/3 25/106/3 26/107/3 24/108/3
f 181/24/6 179/109/6 178/110/6 180/111/6
f 61/112/4 59/113/4 58/114/4 60/115/4
f 19/116/3 17/117/3 18/33/3 16/25/3
f 127/72/3 126/118/3 124/95/3 125/94/3
f 98/64/3 97/119/3 96/5/3 95/8/3
f 123/120/3 121/121/3 122/122/3 120/76/3
f 82/37/5 80/123/5 79/124/5 81/38/5
f 106/27/6 207/26/6 204/51/6 210/79/6
f 69/64/4 67/15/4 66/125/4 68/126/4
f 110/120/6 108/76/6 109/75/6 107/68/6
f 155/44/6 148/47/6 147/30/6 153/127/6
f 149/32/6 144/31/6 146/60/6 145/128/6
f 160/53/6 156/129/6 154/130/6 158/4/6
f 159/124/6 155/44/6 153/127/6 157/22/6
f 187/99/6 170/9/6 168/12/6 186/61/6
f 156/129/6 152/131/6 150/132/6 154/130/6
f 135/75/1 134/133/1 133/34/1 132/68/1
f 166/82/6 165/11/6 163/10/6 164/112/6
f 125/94/3 124/95/3 121/121/3 123/120/3
f 191/39/6 190/38/6 189/21/6 182/50/6
f 166/82/6 167/134/6 165/11/6
f 237/19/7 233/54/7 228/65/7 236/135/7
f 169/13/6 165/11/6 167/134/6
f 171/14/6 169/13/6 167/134/6
f 164/112/6 163/10/6 160/53/6 162/113/6
f 75/47/5 74/46/5 72/136/5 73/137/5
f 230/53/7 227/113/7 223/112/7 226/10/7
f 119/1/1 117/102/1 114/98/1 118/138/1
f 183/23/6 184/63/6 179/109/6 181/24/6
f 173/16/6 172/15/6 175/64/6 174/8/6
f 148/47/6 143/137/6 144/31/6 147/30/6
f 189/21/6 181/24/6 180/111/6 182/50/6
f 11/58/1 9/139/1 8/92/1 10/59/1
f 162/113/6 160/53/6 158/4/6 161/2/6
f 152/131/6 149/32/6 145/128/6 150/132/6
f 179/109/6 177/140/6 176/141/6 178/110/6
f 190/38/6 159/124/6 157/22/6 189/21/6
f 197/118/5 193/95/5 195/94/5 196/72/5
f 92/55/3 90/142/3 89/143/3 91/56/3
f 51/27/5 49/79/5 50/144/5 48/89/5
f 35/73/4 33/74/4 34/75/4 32/76/4
f 79/124/5 80/123/5 78/77/5 77/44/5
f 71/145/5 73/137/5 72/136/5 70/146/5
f 139/41/4 137/35/4 138/147/4 136/42/4
f 113/72/6 112/94/6 111/67/6 99/69/6
f 90/142/3 88/48/3 87/50/3 89/143/3
f 177/140/6 173/16/6 174/8/6 176/141/6
f 255/148/7 224/149/7 220/56/7 225/143/7
f 112/94/6 110/120/6 107/68/6 111/67/6
f 226/10/7 223/112/7 218/82/7 222/11/7
f 63/82/4 61/112/4 60/115/4 62/83/4
f 258/38/7 254/124/7 253/22/7 257/21/7
f 219/150/7 221/104/7 216/13/7 214/16/7
f 224/149/7 219/150/7 215/7/7 220/56/7
f 219/150/7 214/16/7 211/8/7 215/7/7
f 15/151/1 13/57/1 12/60/1 14/145/1
f 9/139/1 7/101/1 6/93/1 8/92/1
f 235/93/7 232/4/7 230/53/7 234/52/7
f 67/15/4 65/14/4 64/84/4 66/125/4
f 247/60/7 244/59/7 243/17/7 246/31/7
f 232/4/7 231/2/7 227/113/7 230/53/7
f 236/135/7 228/65/7 221/104/7 229/152/7
f 59/113/4 56/2/4 57/153/4 58/114/4
f 250/30/7 242/20/7 241/154/7 245/127/7
f 241/154/7 236/135/7 229/152/7 240/155/7
f 244/59/7 239/92/7 238/18/7 243/17/7
f 106/138/6 104/98/6 102/85/6 105/108/6
f 257/21/7 255/148/7 225/143/7 256/50/7
f 242/20/7 237/19/7 236/135/7 241/154/7
f 255/148/7 240/155/7 229/152/7 224/149/7
f 238/18/7 234/52/7 233/54/7 237/19/7
f 240/155/7 253/22/7 245/127/7 241/154/7
f 47/25/3 45/33/3 46/34/3 44/35/3
f 254/124/7 252/44/7 245/127/7 253/22/7
f 2/60/2 144/31/6 143/137/6 142/145/6
f 252/44/7 251/47/7 250/30/7 245/127/7
f 251/47/7 249/137/7 246/31/7 250/30/7
f 257/21/7 253/22/7 240/155/7 255/148/7
f 249/137/7 248/145/7 247/60/7 246/31/7
f 224/149/7 229/152/7 221/104/7 219/150/7
f 259/39/7 258/38/7 257/21/7 256/50/7
