# Blender 5.0.1
# www.blender.org
mtllib BP_RedstoneMachine.mtl
o SM_RedstoneCore_broken.001
v -75.000000 75.000023 199.999985
v -75.000000 -74.999985 150.000015
v -75.000000 -74.999977 200.000015
v -75.000000 75.000015 149.999985
v 75.000000 75.000023 199.999985
v -75.000000 75.000015 149.999985
v -75.000000 75.000023 199.999985
v 75.000000 75.000015 149.999985
v 75.000000 -74.999977 200.000015
v 75.000000 75.000015 149.999985
v 75.000000 75.000023 199.999985
v 75.000000 -74.999985 150.000015
v -75.000000 -74.999977 200.000015
v 75.000000 -74.999985 150.000015
v 75.000000 -74.999977 200.000015
v -75.000000 -74.999985 150.000015
v 75.000000 -74.999985 150.000015
v -75.000000 -74.999985 150.000015
v -75.000000 75.000015 149.999985
v 75.000000 75.000015 149.999985
v -75.000000 75.000023 199.999985
v -75.000000 -74.999977 200.000015
v 75.000000 75.000023 199.999985
v 75.000000 -74.999977 200.000015
v -75.000000 75.000000 49.999989
v -75.000000 -75.000015 -49.999985
v -75.000000 -75.000000 50.000011
v -75.000000 74.999985 -50.000015
v 75.000000 75.000000 49.999989
v -75.000000 74.999985 -50.000015
v -75.000000 75.000000 49.999989
v 75.000000 74.999985 -50.000015
v 75.000000 -75.000000 50.000011
v 75.000000 74.999985 -50.000015
v 75.000000 75.000000 49.999989
v 75.000000 -75.000015 -49.999985
v -75.000000 -75.000000 50.000011
v 75.000000 -75.000015 -49.999985
v 75.000000 -75.000000 50.000011
v -75.000000 -75.000015 -49.999985
v -75.000000 75.000000 49.999989
v -75.000000 -75.000000 50.000011
v 75.000000 75.000000 49.999989
v 75.000000 -75.000000 50.000011
v -75.000000 -75.000031 -149.999985
v -75.000000 74.999969 -150.000015
v -75.000000 74.999969 -150.000015
v 75.000000 74.999969 -150.000015
v 75.000000 74.999969 -150.000015
v 75.000000 -75.000031 -149.999985
v 75.000000 -75.000031 -149.999985
v -75.000000 -75.000031 -149.999985
v -75.000000 -75.000046 -250.000000
v -75.000000 74.999954 -250.000000
v -75.000000 74.999954 -250.000000
v 75.000000 74.999954 -250.000000
v 75.000000 74.999954 -250.000000
v 75.000000 -75.000046 -250.000000
v 75.000000 -75.000046 -250.000000
v -75.000000 -75.000046 -250.000000
v 75.000000 75.000008 99.999985
v 0.000000 75.000000 49.999989
v 0.000000 75.000008 99.999985
v 75.000000 75.000000 49.999989
v 75.000000 0.000008 100.000000
v 75.000000 75.000000 49.999989
v 75.000000 75.000008 99.999985
v 75.000000 -0.000000 50.000000
v 0.000000 75.000008 99.999985
v 0.000000 50.000004 49.999992
v 0.000000 50.000008 99.999992
v 0.000000 75.000000 49.999989
v 50.000000 0.000008 100.000000
v 50.000004 -0.000000 50.000000
v 75.000000 0.000008 100.000000
v 75.000000 -0.000000 50.000000
v 0.000000 50.000008 99.999992
v 0.000000 50.000004 49.999992
v 50.000004 50.000011 99.999992
v 50.000004 50.000004 49.999992
v 50.000004 50.000011 99.999992
v 50.000004 50.000004 49.999992
v 50.000000 0.000008 100.000000
v 50.000004 -0.000000 50.000000
v 75.000000 75.000015 149.999985
v 0.000000 75.000008 99.999985
v 0.000000 75.000015 149.999985
v 75.000000 75.000008 99.999985
v 50.000000 0.000009 100.000000
v 50.000000 0.000017 150.000000
v 50.000000 50.000015 150.000000
v 50.000004 50.000011 99.999992
v 50.000000 50.000015 150.000000
v 0.000000 50.000008 99.999992
v 50.000004 50.000011 99.999992
v 0.000000 50.000015 150.000000
v 75.000000 0.000017 150.000000
v 75.000000 75.000008 99.999985
v 75.000000 75.000015 149.999985
v 75.000000 0.000009 100.000000
v 0.000000 75.000015 149.999985
v 0.000000 75.000008 99.999985
v 0.000000 50.000015 150.000000
v 0.000000 50.000008 99.999992
v 50.000000 0.000017 150.000000
v 50.000000 0.000009 100.000000
v 75.000000 0.000017 150.000000
v 75.000000 0.000009 100.000000
v -75.000000 75.000015 99.999985
v -75.000000 0.000006 50.000000
v -75.000000 0.000014 100.000000
v -75.000000 75.000008 49.999989
v 0.000006 75.000008 99.999985
v -75.000000 75.000008 49.999989
v -75.000000 75.000015 99.999985
v 0.000006 75.000000 49.999989
v -75.000000 0.000014 100.000000
v -50.000004 0.000006 50.000000
v -50.000000 0.000014 100.000000
v -75.000000 0.000006 50.000000
v 0.000006 50.000008 99.999992
v 0.000006 50.000004 49.999992
v 0.000006 75.000008 99.999985
v 0.000006 75.000000 49.999989
v -50.000000 0.000014 100.000000
v -50.000004 0.000006 50.000000
v -50.000004 50.000019 99.999992
v -50.000004 50.000008 49.999992
v -50.000004 50.000019 99.999992
v -50.000004 50.000008 49.999992
v 0.000006 50.000008 99.999992
v 0.000006 50.000004 49.999992
v -75.000000 75.000023 149.999985
v -75.000000 0.000014 100.000000
v -75.000000 0.000023 150.000000
v -75.000000 75.000015 99.999985
v 0.000006 50.000008 99.999992
v 0.000006 50.000015 150.000000
v -49.999985 50.000019 150.000000
v -50.000004 50.000019 99.999992
v -49.999985 50.000019 150.000000
v -50.000000 0.000014 100.000000
v -50.000004 50.000019 99.999992
v -50.000000 0.000023 150.000000
v 0.000006 75.000015 149.999985
v -75.000000 75.000015 99.999985
v -75.000000 75.000023 149.999985
v 0.000006 75.000008 99.999985
v -75.000000 0.000023 150.000000
v -75.000000 0.000014 100.000000
v -50.000000 0.000023 150.000000
v -50.000000 0.000014 100.000000
v 0.000006 50.000015 150.000000
v 0.000006 50.000008 99.999992
v 0.000006 75.000015 149.999985
v 0.000006 75.000008 99.999985
v -75.000015 -74.999985 100.000015
v -0.000011 -75.000000 50.000011
v -0.000011 -74.999992 100.000015
v -75.000015 -74.999992 50.000011
v -75.000000 0.000020 100.000000
v -75.000015 -74.999992 50.000011
v -75.000015 -74.999985 100.000015
v -75.000000 0.000011 50.000000
v -0.000011 -74.999992 100.000015
v -0.000011 -50.000004 50.000008
v -0.000011 -49.999989 100.000008
v -0.000011 -75.000000 50.000011
v -50.000000 0.000020 100.000000
v -50.000004 0.000011 50.000000
v -75.000000 0.000020 100.000000
v -75.000000 0.000011 50.000000
v -0.000011 -49.999989 100.000008
v -0.000011 -50.000004 50.000008
v -50.000015 -49.999989 100.000008
v -50.000015 -49.999996 50.000008
v -50.000015 -49.999989 100.000008
v -50.000015 -49.999996 50.000008
v -50.000000 0.000020 100.000000
v -50.000004 0.000011 50.000000
v -75.000015 -74.999977 150.000015
v -0.000011 -74.999992 100.000015
v -0.000011 -74.999985 150.000015
v -75.000015 -74.999985 100.000015
v -50.000000 0.000020 100.000000
v -50.000000 0.000028 150.000000
v -50.000008 -49.999966 150.000000
v -50.000015 -49.999989 100.000008
v -50.000008 -49.999966 150.000000
v -0.000011 -49.999989 100.000008
v -50.000015 -49.999989 100.000008
v -0.000011 -49.999981 150.000000
v -75.000000 0.000028 150.000000
v -75.000015 -74.999985 100.000015
v -75.000015 -74.999977 150.000015
v -75.000000 0.000020 100.000000
v -0.000011 -74.999985 150.000015
v -0.000011 -74.999992 100.000015
v -0.000011 -49.999981 150.000000
v -0.000011 -49.999989 100.000008
v -50.000000 0.000028 150.000000
v -50.000000 0.000020 100.000000
v -75.000000 0.000028 150.000000
v -75.000000 0.000020 100.000000
v 74.999985 -75.000008 100.000015
v 75.000000 -0.000017 50.000000
v 75.000000 -0.000009 100.000000
v 74.999985 -75.000015 50.000011
v -0.000017 -74.999992 100.000015
v 74.999985 -75.000015 50.000011
v 74.999985 -75.000008 100.000015
v -0.000017 -75.000000 50.000011
v 75.000000 -0.000009 100.000000
v 50.000004 -0.000017 50.000000
v 50.000000 -0.000009 100.000000
v 75.000000 -0.000017 50.000000
v -0.000017 -49.999989 100.000008
v -0.000017 -50.000004 50.000008
v -0.000017 -74.999992 100.000015
v -0.000017 -75.000000 50.000011
v 50.000000 -0.000009 100.000000
v 50.000004 -0.000017 50.000000
v 49.999992 -50.000011 100.000008
v 49.999992 -50.000019 50.000008
v 49.999992 -50.000011 100.000008
v 49.999992 -50.000019 50.000008
v -0.000017 -49.999989 100.000008
v -0.000017 -50.000004 50.000008
v 74.999985 -75.000000 150.000015
v 75.000000 -0.000009 100.000000
v 75.000000 -0.000000 150.000000
v 74.999985 -75.000008 100.000015
v -0.000017 -49.999989 100.000008
v -0.000017 -49.999981 150.000000
v 49.999977 -50.000000 150.000000
v 49.999992 -50.000011 100.000008
v 49.999977 -50.000000 150.000000
v 50.000000 -0.000009 100.000000
v 49.999992 -50.000011 100.000008
v 50.000000 -0.000000 150.000000
v -0.000017 -74.999985 150.000015
v 74.999985 -75.000008 100.000015
v 74.999985 -75.000000 150.000015
v -0.000017 -74.999992 100.000015
v 75.000000 -0.000000 150.000000
v 75.000000 -0.000009 100.000000
v 50.000000 -0.000000 150.000000
v 50.000000 -0.000009 100.000000
v -0.000017 -49.999981 150.000000
v -0.000017 -49.999989 100.000008
v -0.000017 -74.999985 150.000015
v -0.000017 -74.999992 100.000015
v -75.000000 -75.000069 -350.000000
v -75.000000 74.999931 -350.000000
v -75.000000 74.999931 -350.000000
v 75.000000 74.999931 -350.000000
v 75.000000 74.999931 -350.000000
v 75.000000 -75.000069 -350.000000
v 75.000000 -75.000069 -350.000000
v -75.000000 -75.000069 -350.000000
v -75.000000 -75.000084 -450.000000
v -75.000000 74.999916 -450.000000
v -75.000000 74.999916 -450.000000
v 75.000000 74.999916 -450.000000
v 75.000000 74.999916 -450.000000
v 75.000000 -75.000084 -450.000000
v 75.000000 -75.000084 -450.000000
v -75.000000 -75.000084 -450.000000
v -75.000000 -75.000099 -550.000000
v -75.000000 74.999901 -550.000000
v -75.000000 74.999901 -550.000000
v 75.000000 74.999901 -550.000000
v 75.000000 74.999901 -550.000000
v 75.000000 -75.000099 -550.000000
v 75.000000 -75.000099 -550.000000
v -75.000000 -75.000099 -550.000000
v -75.000000 -75.000114 -650.000000
v -75.000000 74.999886 -650.000000
v -75.000000 74.999886 -650.000000
v 75.000000 74.999886 -650.000000
v 75.000000 74.999886 -650.000000
v 75.000000 -75.000114 -650.000000
v 75.000000 -75.000114 -650.000000
v -75.000000 -75.000114 -650.000000
v 75.000000 -75.000114 -650.000000
v -75.000000 -75.000114 -650.000000
v -75.000000 74.999886 -650.000000
v 75.000000 74.999886 -650.000000
v 50.000004 50.000004 49.999992
v 75.000000 -0.000000 50.000000
v 50.000004 -0.000000 50.000000
v 75.000000 75.000000 49.999989
v 0.000000 75.000000 49.999989
v 0.000000 50.000004 49.999992
v 0.000000 50.000008 99.999992
v 50.000004 50.000011 99.999992
v 0.000000 75.000008 99.999985
v 75.000000 75.000008 99.999985
v 75.000000 0.000008 100.000000
v 50.000000 0.000008 100.000000
v 50.000000 50.000015 150.000000
v 0.000000 75.000015 149.999985
v 0.000000 50.000015 150.000000
v 75.000000 75.000015 149.999985
v 75.000000 0.000017 150.000000
v 50.000000 0.000017 150.000000
v 50.000004 50.000011 99.999992
v 0.000000 50.000008 99.999992
v 0.000000 75.000008 99.999985
v 75.000000 75.000008 99.999985
v 75.000000 0.000009 100.000000
v 50.000000 0.000009 100.000000
v -50.000004 50.000008 49.999992
v 0.000006 75.000000 49.999989
v 0.000006 50.000004 49.999992
v -75.000000 75.000008 49.999989
v -75.000000 0.000006 50.000000
v -50.000004 0.000006 50.000000
v -50.000004 50.000019 99.999992
v -75.000000 0.000014 100.000000
v -50.000000 0.000014 100.000000
v -75.000000 75.000015 99.999985
v 0.000006 75.000008 99.999985
v 0.000006 50.000008 99.999992
v -49.999985 50.000019 150.000000
v -75.000000 0.000023 150.000000
v -50.000000 0.000023 150.000000
v -75.000000 75.000023 149.999985
v 0.000006 75.000015 149.999985
v 0.000006 50.000015 150.000000
v -50.000000 0.000014 100.000000
v -75.000000 0.000014 100.000000
v -50.000004 50.000019 99.999992
v -75.000000 75.000015 99.999985
v 0.000006 75.000008 99.999985
v 0.000006 50.000008 99.999992
v -50.000015 -49.999996 50.000008
v -75.000000 0.000011 50.000000
v -50.000004 0.000011 50.000000
v -75.000015 -74.999992 50.000011
v -0.000011 -75.000000 50.000011
v -0.000011 -50.000004 50.000008
v -50.000015 -49.999989 100.000008
v -0.000011 -74.999992 100.000015
v -0.000011 -49.999989 100.000008
v -75.000015 -74.999985 100.000015
v -75.000000 0.000020 100.000000
v -50.000000 0.000020 100.000000
v -50.000008 -49.999966 150.000000
v -0.000011 -74.999985 150.000015
v -0.000011 -49.999981 150.000000
v -75.000015 -74.999977 150.000015
v -75.000000 0.000028 150.000000
v -50.000000 0.000028 150.000000
v -0.000011 -74.999992 100.000015
v -50.000015 -49.999989 100.000008
v -0.000011 -49.999989 100.000008
v -75.000015 -74.999985 100.000015
v -75.000000 0.000020 100.000000
v -50.000000 0.000020 100.000000
v 49.999992 -50.000019 50.000008
v -0.000017 -75.000000 50.000011
v -0.000017 -50.000004 50.000008
v 74.999985 -75.000015 50.000011
v 75.000000 -0.000017 50.000000
v 50.000004 -0.000017 50.000000
v 49.999992 -50.000011 100.000008
v 75.000000 -0.000009 100.000000
v 50.000000 -0.000009 100.000000
v 74.999985 -75.000008 100.000015
v -0.000017 -74.999992 100.000015
v -0.000017 -49.999989 100.000008
v 49.999977 -50.000000 150.000000
v 75.000000 -0.000000 150.000000
v 50.000000 -0.000000 150.000000
v 74.999985 -75.000000 150.000015
v -0.000017 -74.999985 150.000015
v -0.000017 -49.999981 150.000000
v 75.000000 -0.000009 100.000000
v 49.999992 -50.000011 100.000008
v 50.000000 -0.000009 100.000000
v 74.999985 -75.000008 100.000015
v -0.000017 -74.999992 100.000015
v -0.000017 -49.999989 100.000008
v -12.500001 12.500017 150.000000
v -12.500001 -12.500001 50.000004
v -12.500001 -12.499985 150.000000
v -12.500001 12.500001 49.999996
v 12.500001 12.500017 150.000000
v -12.500001 12.500001 49.999996
v -12.500001 12.500017 150.000000
v 12.500001 12.500001 49.999996
v 12.500001 -12.499985 150.000000
v 12.500001 12.500001 49.999996
v 12.500001 12.500017 150.000000
v 12.500001 -12.500001 50.000004
v -12.500001 -12.499985 150.000000
v 12.500001 -12.500001 50.000004
v 12.500001 -12.499985 150.000000
v -12.500001 -12.500001 50.000004
v 12.500001 -12.500001 50.000004
v -12.500001 -12.500001 50.000004
v -12.500001 12.500001 49.999996
v 12.500001 12.500001 49.999996
v -12.500001 -12.499985 150.000000
v 12.500001 12.500017 150.000000
v -12.500001 12.500017 150.000000
v 12.500001 -12.499985 150.000000
vn -1.0000 -0.0000 -0.0000
vn -0.0000 1.0000 -0.0000
vn 1.0000 -0.0000 -0.0000
vn -0.0000 -1.0000 -0.0000
vn -0.0000 -0.0000 -1.0000
vn -0.0000 -0.0000 1.0000
vt 0.125000 0.750000
vt 0.218750 0.750000
vt 0.218750 0.812500
vt 0.125000 0.812500
vt 0.031250 0.750000
vt 0.031250 0.812500
vt 0.000031 0.812500
vt 0.000031 0.750000
vt 0.812500 0.625000
vt 1.000000 0.625000
vt 1.000000 0.750000
vt 0.812500 0.750000
vt 0.625000 0.625000
vt 0.625000 0.750000
vt 0.437500 0.625000
vt 0.437500 0.750000
vt 0.250000 0.750000
vt 0.250000 0.812500
vt 0.625000 0.187500
vt 0.625000 0.000000
vt 0.812500 0.000000
vt 0.812500 0.187500
vt 0.437500 0.187500
vt 0.625000 0.250000
vt 0.437500 0.250000
vt 0.250000 0.625000
vt 0.812500 0.250000
vt 0.125000 0.875000
vt 0.031250 0.875000
vt 0.000031 0.875000
vt 0.250000 0.875000
vt 0.218750 0.875000
vt 1.000000 0.187500
vt 1.000000 0.250000
vt 0.375000 0.750000
vt 0.375000 0.812500
vt 0.312500 0.812500
vt 0.312500 0.750000
vt 0.312500 0.875000
vt 0.375000 0.875000
vt 0.625000 0.937500
vt 0.812500 0.937500
vt 0.625000 0.437500
vt 0.812500 0.437500
vt 0.093567 0.250000
vt 0.062347 0.250000
vt 0.062347 0.125000
vt 0.093567 0.125000
vt 0.031113 0.250000
vt -0.000123 0.250000
vt -0.000123 0.125000
vt 0.031113 0.125000
vt 0.062500 0.281250
vt 0.031250 0.281250
vt 0.250000 0.187500
vt 0.250000 0.250000
vt 0.062500 0.093750
vt 0.031250 0.093750
vt 0.125000 0.718750
vt 0.187500 0.718750
vt 0.218750 0.656250
vt 0.187500 0.656250
vt 0.218750 0.968750
vt 0.187500 0.968750
vt 0.187500 0.906250
vt 0.125000 0.906250
vt 0.124817 0.250000
vt 0.124817 0.125000
s 1
usemtl MI_RedstoneCore_Broken
f 160/1/4 158/2/4 159/3/4 157/4/4
f 76/5/4 75/6/4 73/7/4 74/8/4
f 28/9/1 26/10/1 27/11/1 25/12/1
f 256/13/2 255/9/2 55/12/2 56/14/2
f 48/13/2 47/9/2 30/12/2 32/14/2
f 50/15/3 49/13/3 34/14/3 36/16/3
f 216/2/2 214/17/2 215/18/2 213/3/2
f 20/19/5 17/20/5 18/21/5 19/22/5
f 12/23/3 10/19/3 11/24/3 9/25/3
f 260/26/4 259/15/4 59/16/4 60/17/4
f 8/19/2 6/22/2 7/27/2 5/24/2
f 196/6/1 194/4/1 195/28/1 193/29/1
f 212/5/4 210/1/4 211/4/4 209/6/4
f 208/1/3 206/2/3 207/3/3 205/4/3
f 108/6/4 107/29/4 105/30/4 106/7/4
f 252/6/1 251/29/1 249/30/1 250/7/1
f 116/5/2 114/1/2 115/4/2 113/6/2
f 104/18/1 103/31/1 101/32/1 102/3/1
f 120/2/4 118/17/4 119/18/4 117/3/4
f 272/13/2 271/9/2 263/12/2 264/14/2
f 4/22/1 2/33/1 3/34/1 1/27/1
f 84/35/1 83/36/1 81/37/1 82/38/1
f 172/5/2 171/6/2 169/7/2 170/8/2
f 46/9/1 45/10/1 26/11/1 28/12/1
f 187/39/3 188/37/3 185/36/3 186/40/3
f 184/4/4 182/3/4 183/32/4 181/28/4
f 224/38/1 223/37/1 221/18/1 222/17/1
f 220/5/1 219/6/1 217/7/1 218/8/1
f 44/41/6 43/14/6 41/12/6 42/42/6
f 168/2/3 166/17/3 167/18/3 165/3/3
f 36/15/3 34/13/3 35/14/3 33/16/3
f 52/26/4 51/15/4 38/16/4 40/17/4
f 276/26/4 275/15/4 267/16/4 268/17/4
f 32/13/2 30/9/2 31/12/2 29/14/2
f 72/2/1 70/17/1 71/18/1 69/3/1
f 136/4/1 134/3/1 135/32/1 133/28/1
f 228/35/2 227/36/2 225/37/2 226/38/2
f 164/5/1 162/1/1 163/4/1 161/6/1
f 192/31/2 190/18/2 191/37/2 189/39/2
f 60/26/4 59/15/4 51/16/4 52/17/4
f 56/13/2 55/9/2 47/12/2 48/14/2
f 58/15/3 57/13/3 49/14/3 50/16/3
f 264/13/2 263/9/2 255/12/2 256/14/2
f 132/35/4 131/36/4 129/37/4 130/38/4
f 200/18/3 199/31/3 197/32/3 198/3/3
f 24/43/6 23/24/6 21/27/6 22/44/6
f 278/9/1 277/10/1 269/11/1 270/12/1
f 100/6/3 98/4/3 99/28/3 97/29/3
f 80/38/4 79/37/4 77/18/4 78/17/4
f 139/39/4 140/37/4 137/36/4 138/40/4
f 240/31/1 238/18/1 239/37/1 237/39/1
f 96/31/4 94/18/4 95/37/4 93/39/4
f 91/39/1 92/37/1 89/36/1 90/40/1
f 88/4/2 86/3/2 87/32/2 85/28/2
f 204/6/2 203/29/2 201/30/2 202/7/2
f 180/35/3 179/36/3 177/37/3 178/38/3
f 68/5/3 66/1/3 67/4/3 65/6/3
f 128/38/3 127/37/3 125/18/3 126/17/3
f 176/38/2 175/37/2 173/18/2 174/17/2
f 124/5/3 123/6/3 121/7/3 122/8/3
f 254/9/1 253/10/1 53/11/1 54/12/1
f 144/31/3 142/18/3 143/37/3 141/39/3
f 112/1/1 110/2/1 111/3/1 109/4/1
f 40/26/4 38/15/4 39/16/4 37/17/4
f 232/4/3 230/3/3 231/32/3 229/28/3
f 288/13/5 285/43/5 286/44/5 287/9/5
f 16/55/4 14/23/4 15/25/4 13/56/4
f 258/15/3 257/13/3 57/14/3 58/16/3
f 248/18/2 247/31/2 245/32/2 246/3/2
f 282/15/3 281/13/3 273/14/3 274/16/3
f 244/6/4 242/4/4 243/28/4 241/29/4
f 266/15/3 265/13/3 257/14/3 258/16/3
f 284/26/4 283/15/4 275/16/4 276/17/4
f 270/9/1 269/10/1 261/11/1 262/12/1
f 64/1/2 62/2/2 63/3/2 61/4/2
f 152/18/4 151/31/4 149/32/4 150/3/4
f 262/9/1 261/10/1 253/11/1 254/12/1
f 148/6/2 146/4/2 147/28/2 145/29/2
f 280/13/2 279/9/2 271/12/2 272/14/2
f 291/59/5 289/60/5 290/1/5
f 292/2/5 290/1/5 289/60/5
f 292/2/5 289/60/5 293/61/5
f 293/61/5 289/60/5 294/62/5
f 297/63/6 295/64/6 296/65/6
f 296/65/6 298/32/6 297/63/6
f 298/32/6 296/65/6 299/28/6
f 300/66/6 299/28/6 296/65/6
f 303/64/6 301/65/6 302/63/6
f 304/32/6 302/63/6 301/65/6
f 301/65/6 305/28/6 304/32/6
f 305/28/6 301/65/6 306/66/6
f 309/61/5 307/60/5 308/62/5
f 307/60/5 309/61/5 310/2/5
f 310/2/5 311/1/5 307/60/5
f 307/60/5 311/1/5 312/59/5
f 315/59/5 313/60/5 314/1/5
f 316/2/5 314/1/5 313/60/5
f 313/60/5 317/61/5 316/2/5
f 318/62/5 317/61/5 313/60/5
f 321/64/6 319/65/6 320/63/6
f 319/65/6 322/32/6 320/63/6
f 322/32/6 319/65/6 323/28/6
f 324/66/6 323/28/6 319/65/6
f 327/64/6 325/65/6 326/63/6
f 328/32/6 326/63/6 325/65/6
f 325/65/6 329/28/6 328/32/6
f 330/66/6 329/28/6 325/65/6
f 333/60/5 331/62/5 332/61/5
f 333/60/5 332/61/5 334/2/5
f 333/60/5 334/2/5 335/1/5
f 335/1/5 336/59/5 333/60/5
f 339/59/5 337/60/5 338/1/5
f 340/2/5 338/1/5 337/60/5
f 337/60/5 341/61/5 340/2/5
f 342/62/5 341/61/5 337/60/5
f 345/64/6 343/65/6 344/63/6
f 346/32/6 344/63/6 343/65/6
f 346/32/6 343/65/6 347/28/6
f 348/66/6 347/28/6 343/65/6
f 351/64/6 349/65/6 350/63/6
f 352/32/6 350/63/6 349/65/6
f 349/65/6 353/28/6 352/32/6
f 354/66/6 353/28/6 349/65/6
f 357/62/5 355/61/5 356/60/5
f 358/2/5 356/60/5 355/61/5
f 356/60/5 358/2/5 359/1/5
f 360/59/5 356/60/5 359/1/5
f 363/59/5 361/60/5 362/1/5
f 364/2/5 362/1/5 361/60/5
f 361/60/5 365/61/5 364/2/5
f 365/61/5 361/60/5 366/62/5
f 369/64/6 367/65/6 368/63/6
f 367/65/6 370/32/6 368/63/6
f 370/32/6 367/65/6 371/28/6
f 372/66/6 371/28/6 367/65/6
f 375/64/6 373/65/6 374/63/6
f 376/32/6 374/63/6 373/65/6
f 376/32/6 373/65/6 377/28/6
f 377/28/6 373/65/6 378/66/6
f 381/62/5 379/61/5 380/60/5
f 380/60/5 379/61/5 382/2/5
f 380/60/5 382/2/5 383/1/5
f 384/59/5 380/60/5 383/1/5
f 156/6/3 155/29/3 153/30/3 154/7/3
f 268/26/4 267/15/4 259/16/4 260/17/4
f 54/9/1 53/10/1 45/11/1 46/12/1
f 235/39/2 236/37/2 233/36/2 234/40/2
f 274/15/3 273/13/3 265/14/3 266/16/3
usemtl MI_RedstoneCore_Broken
f 396/45/3 394/46/3 395/47/3 393/48/3
f 388/49/1 386/50/1 387/51/1 385/52/1
f 404/46/5 401/53/5 402/54/5 403/49/5
f 408/57/6 406/47/6 407/52/6 405/58/6
f 392/46/2 390/49/2 391/52/2 389/47/2
f 400/67/4 398/45/4 399/48/4 397/68/4
