# Blender 5.0.1
# www.blender.org
mtllib BP_RedstoneDoor_Secret.mtl
o SM_Crypt_SecretDoor001.001
v 200.000137 99.999680 100.000015
v 300.000122 99.999519 100.000031
v 200.000153 99.999680 0.000016
v 300.000153 99.999519 0.000033
v 200.000000 -0.000319 0.000016
v 200.000153 99.999680 0.000016
v 300.000000 -0.000478 0.000033
v 300.000153 99.999519 0.000033
v 300.000000 -0.000478 0.000033
v 300.000153 99.999519 0.000033
v 299.999969 -0.000478 100.000031
v 300.000122 99.999519 100.000031
v 200.000122 99.999680 200.000015
v 300.000122 99.999519 200.000031
v 299.999969 -0.000478 200.000031
v 300.000122 99.999519 200.000031
v 199.999969 -0.000319 200.000015
v 200.000122 99.999680 200.000015
v 200.000137 99.999680 100.000015
v 199.999985 -0.000319 100.000015
v 200.000107 99.999680 300.000000
v 300.000092 99.999519 300.000031
v 299.999939 -0.000478 300.000031
v 300.000092 99.999519 300.000031
v 199.999954 -0.000319 300.000000
v 299.999939 -0.000478 300.000031
v 200.000107 99.999680 300.000000
v 300.000092 99.999519 300.000031
v 100.000145 99.999840 100.000000
v 0.000159 100.000000 -0.000016
v 0.000143 100.000000 99.999985
v 100.000160 99.999840 -0.000000
v 0.000000 -0.000000 -0.000016
v 0.000159 100.000000 -0.000016
v 100.000000 -0.000159 -0.000000
v 100.000160 99.999840 -0.000000
v 0.000127 100.000000 199.999985
v 100.000130 99.999840 200.000000
v 99.999985 -0.000159 100.000000
v 100.000145 99.999840 100.000000
v 99.999969 -0.000159 200.000000
v 100.000130 99.999840 200.000000
v -0.000033 0.000000 199.999985
v 0.000127 100.000000 199.999985
v 0.000143 100.000000 99.999985
v -0.000016 0.000000 99.999985
v 0.000110 100.000000 299.999969
v 100.000114 99.999840 300.000000
v -0.000049 0.000000 299.999969
v 99.999954 -0.000159 300.000000
v 0.000110 100.000000 299.999969
v 100.000114 99.999840 300.000000
v -99.999855 100.000160 99.999969
v -199.999847 100.000320 -0.000049
v -199.999863 100.000320 99.999947
v -99.999840 100.000160 -0.000033
v -200.000000 0.000319 -0.000049
v -199.999847 100.000320 -0.000049
v -100.000000 0.000159 -0.000033
v -99.999840 100.000160 -0.000033
v -199.999878 100.000320 199.999954
v -99.999870 100.000160 199.999969
v -100.000015 0.000159 99.999969
v -99.999855 100.000160 99.999969
v -100.000031 0.000159 199.999969
v -99.999870 100.000160 199.999969
v -200.000031 0.000319 199.999954
v -199.999878 100.000320 199.999954
v -199.999863 100.000320 99.999947
v -200.000015 0.000319 99.999947
v -199.999893 100.000320 299.999939
v -99.999886 100.000160 299.999969
v -200.000046 0.000319 299.999939
v -100.000046 0.000159 299.999969
v -199.999893 100.000320 299.999939
v -99.999886 100.000160 299.999969
v -399.999878 100.000641 99.999916
v -299.999878 100.000481 99.999931
v -399.999847 100.000641 -0.000081
v -299.999847 100.000481 -0.000065
v -400.000000 0.000637 -0.000081
v -399.999847 100.000641 -0.000081
v -300.000000 0.000478 -0.000065
v -299.999847 100.000481 -0.000065
v -400.000031 0.000637 99.999916
v -399.999878 100.000641 99.999916
v -399.999847 100.000641 -0.000081
v -400.000000 0.000637 -0.000081
v -399.999878 100.000641 199.999924
v -299.999878 100.000481 199.999939
v -300.000031 0.000478 99.999931
v -299.999878 100.000481 99.999931
v -300.000031 0.000478 199.999939
v -299.999878 100.000481 199.999939
v -400.000031 0.000637 199.999924
v -399.999878 100.000641 199.999924
v -399.999908 100.000641 299.999908
v -299.999908 100.000481 299.999939
v -400.000061 0.000637 299.999908
v -300.000061 0.000478 299.999939
v -399.999908 100.000641 299.999908
v -299.999908 100.000481 299.999939
v -400.000061 0.000637 299.999908
v -399.999908 100.000641 299.999908
v 199.999847 -100.000320 0.000016
v 299.999847 -100.000481 0.000033
v 299.999847 -100.000481 0.000033
v 299.999817 -100.000481 100.000031
v 199.999832 -100.000320 100.000015
v 199.999847 -100.000320 0.000016
v 299.999817 -100.000481 100.000031
v 299.999847 -100.000481 0.000033
v 299.999817 -100.000481 200.000031
v 199.999817 -100.000320 200.000015
v 299.999817 -100.000481 200.000031
v 299.999786 -100.000481 300.000031
v 199.999802 -100.000320 300.000000
v 299.999786 -100.000481 300.000031
v 199.999802 -100.000320 300.000000
v 299.999786 -100.000481 300.000031
v 99.999840 -100.000160 -0.000000
v 99.999825 -100.000160 100.000000
v 99.999840 -100.000160 -0.000000
v 99.999969 -0.000159 200.000000
v 199.999969 -0.000319 200.000015
v 99.999985 -0.000159 100.000000
v 199.999985 -0.000319 100.000015
v 99.999809 -100.000160 200.000000
v 99.999794 -100.000160 300.000000
v 99.999794 -100.000160 300.000000
v -0.000159 -100.000000 -0.000016
v -0.000176 -100.000000 99.999985
v -0.000159 -100.000000 -0.000016
v -0.000192 -100.000000 199.999985
v -0.000208 -100.000000 299.999969
v -0.000208 -100.000000 299.999969
v -100.000160 -99.999840 -0.000033
v -100.000175 -99.999840 99.999969
v -100.000160 -99.999840 -0.000033
v -100.000031 0.000159 199.999969
v -0.000033 0.000000 199.999985
v -100.000015 0.000159 99.999969
v -0.000016 0.000000 99.999985
v -100.000191 -99.999840 199.999969
v -100.000206 -99.999840 299.999969
v -100.000206 -99.999840 299.999969
v -200.000153 -99.999680 -0.000049
v -200.000168 -99.999680 99.999947
v -200.000153 -99.999680 -0.000049
v -200.000183 -99.999680 199.999954
v -200.000198 -99.999680 299.999939
v -200.000198 -99.999680 299.999939
v -300.000153 -99.999519 -0.000065
v -300.000183 -99.999519 99.999931
v -300.000153 -99.999519 -0.000065
v -300.000031 0.000478 199.999939
v -200.000031 0.000319 199.999954
v -300.000031 0.000478 99.999931
v -200.000015 0.000319 99.999947
v -300.000183 -99.999519 199.999939
v -300.000214 -99.999519 299.999939
v -300.000214 -99.999519 299.999939
v -400.000153 -99.999359 -0.000081
v -400.000183 -99.999359 99.999916
v -400.000153 -99.999359 -0.000081
v -400.000183 -99.999359 99.999916
v -400.000153 -99.999359 -0.000081
v -400.000183 -99.999359 199.999924
v -400.000183 -99.999359 199.999924
v -400.000214 -99.999359 299.999908
v -400.000214 -99.999359 299.999908
v -400.000214 -99.999359 299.999908
v 99.999985 -0.000159 100.000000
v 199.999985 -0.000319 100.000015
v 100.000145 99.999840 100.000000
v 200.000137 99.999680 100.000015
v -100.000015 0.000159 99.999969
v -0.000016 0.000000 99.999985
v -99.999855 100.000160 99.999969
v 0.000143 100.000000 99.999985
v -300.000031 0.000478 99.999931
v -200.000015 0.000319 99.999947
v -299.999878 100.000481 99.999931
v -199.999863 100.000320 99.999947
v 99.999969 -0.000159 200.000000
v 100.000130 99.999840 200.000000
v 199.999969 -0.000319 200.000015
v 200.000122 99.999680 200.000015
v -100.000031 0.000159 199.999969
v -99.999870 100.000160 199.999969
v -0.000033 0.000000 199.999985
v 0.000127 100.000000 199.999985
v -300.000031 0.000478 199.999939
v -299.999878 100.000481 199.999939
v -200.000031 0.000319 199.999954
v -199.999878 100.000320 199.999954
vn -0.0000 1.0000 -0.0000
vn -0.0000 -0.0000 -1.0000
vn 1.0000 -0.0000 -0.0000
vn -1.0000 -0.0000 -0.0000
vn -0.0000 -0.0000 1.0000
vn -0.0000 -1.0000 -0.0000
vt 0.500000 0.750000
vt 0.750000 0.750000
vt 0.750000 0.999969
vt 0.500000 0.999969
vt -0.000031 0.750000
vt -0.000031 0.999969
vt 0.250000 0.999969
vt 0.250000 0.750000
vt -0.000031 0.250000
vt -0.000031 0.500000
vt 0.250000 0.500000
vt 0.250000 0.250000
vt 0.750000 0.250000
vt 0.750000 0.000000
vt 1.000000 0.000000
vt 1.000000 0.250000
s 1
usemtl MI_Crypt_MiniAtlas
f 154/1/6 148/2/6 150/3/6 160/4/6
f 84/5/2 58/6/2 57/7/2 83/8/2
f 5/1/2 7/4/2 106/3/2 105/2/2
f 128/1/6 114/2/6 117/3/6 129/4/6
f 6/1/2 8/4/2 7/3/2 5/2/2
f 15/2/3 23/3/3 116/4/3 113/1/3
f 2/1/1 1/2/1 13/3/1 14/4/1
f 194/9/2 196/10/2 195/11/2 193/12/2
f 25/4/5 50/1/5 130/2/5 119/3/5
f 10/2/3 12/3/3 11/4/3 9/1/3
f 27/13/5 52/14/5 50/15/5 25/16/5
f 190/9/2 192/10/2 191/11/2 189/12/2
f 12/2/3 16/3/3 15/4/3 11/1/3
f 11/2/3 15/3/3 113/4/3 108/1/3
f 90/1/1 89/2/1 97/3/1 98/4/1
f 64/2/3 66/3/3 65/4/3 63/1/3
f 53/1/1 55/2/1 61/3/1 62/4/1
f 40/2/3 42/3/3 41/4/3 39/1/3
f 148/1/6 138/2/6 144/3/6 150/4/6
f 102/4/5 101/1/5 99/2/5 100/3/5
f 95/2/4 103/3/4 104/4/4 96/1/4
f 109/1/6 111/2/6 115/3/6 114/4/6
f 85/2/4 95/3/4 96/4/4 86/1/4
f 54/5/1 80/8/1 78/7/1 55/6/1
f 92/2/3 94/3/3 93/4/3 91/1/3
f 122/1/6 109/2/6 114/3/6 128/4/6
f 80/1/1 79/2/1 77/3/1 78/4/1
f 49/4/5 74/1/5 146/2/5 136/3/5
f 59/1/2 33/4/2 131/3/2 137/2/2
f 144/1/6 134/2/6 135/3/6 145/4/6
f 167/2/4 166/3/4 85/4/4 88/1/4
f 9/2/3 11/3/3 108/4/3 107/1/3
f 100/4/5 99/1/5 171/2/5 162/3/5
f 169/2/4 172/3/4 103/4/4 95/1/4
f 150/1/6 144/2/6 145/3/6 151/4/6
f 20/2/4 17/3/4 18/4/4 19/1/4
f 134/1/6 128/2/6 129/3/6 135/4/6
f 28/4/5 27/1/5 25/2/5 26/3/5
f 38/1/1 37/2/1 47/3/1 48/4/1
f 88/2/4 85/3/4 86/4/4 87/1/4
f 16/2/3 24/3/3 23/4/3 15/1/3
f 186/9/2 188/10/2 187/11/2 185/12/2
f 3/5/1 32/8/1 29/7/1 1/6/1
f 60/5/2 34/6/2 33/7/2 59/8/2
f 159/1/1 158/2/1 156/3/1 157/4/1
f 52/4/5 51/1/5 49/2/5 50/3/5
f 76/4/5 75/1/5 73/2/5 74/3/5
f 50/4/5 49/1/5 136/2/5 130/3/5
f 58/1/2 60/4/2 59/3/2 57/2/2
f 149/1/6 139/2/6 138/3/6 148/4/6
f 57/1/2 59/4/2 137/3/2 147/2/2
f 133/1/6 123/2/6 122/3/6 132/4/6
f 33/1/2 35/4/2 121/3/2 131/2/2
f 82/1/2 84/4/2 83/3/2 81/2/2
f 110/1/6 112/2/6 111/3/6 109/4/6
f 4/1/1 3/2/1 1/3/1 2/4/1
f 138/1/6 132/2/6 134/3/6 144/4/6
f 143/1/1 142/2/1 140/3/1 141/4/1
f 114/1/6 115/2/6 118/3/6 117/4/6
f 61/14/1 90/15/1 98/16/1 71/13/1
f 14/1/1 13/2/1 21/3/1 22/4/1
f 139/1/6 133/2/6 132/3/6 138/4/6
f 46/2/4 43/3/4 44/4/4 45/1/4
f 13/14/1 38/15/1 48/16/1 21/13/1
f 62/1/1 61/2/1 71/3/1 72/4/1
f 168/1/6 160/2/6 161/3/6 170/4/6
f 165/1/6 155/2/6 154/3/6 164/4/6
f 32/1/1 30/2/1 31/3/1 29/4/1
f 166/2/4 169/3/4 95/4/4 85/1/4
f 78/1/1 77/2/1 89/3/1 90/4/1
f 70/2/4 67/3/4 68/4/4 69/1/4
f 51/13/5 76/14/5 74/15/5 49/16/5
f 56/1/1 54/2/1 55/3/1 53/4/1
f 81/1/2 83/4/2 153/3/2 163/2/2
f 73/4/5 100/1/5 162/2/5 152/3/5
f 83/1/2 57/4/2 147/3/2 153/2/2
f 26/4/5 25/1/5 119/2/5 120/3/5
f 30/5/1 56/8/1 53/7/1 31/6/1
f 29/1/1 31/2/1 37/3/1 38/4/1
f 176/6/5 175/5/5 173/8/5 174/7/5
f 36/5/2 6/6/2 5/7/2 35/8/2
f 37/14/1 62/15/1 72/16/1 47/13/1
f 34/1/2 36/4/2 35/3/2 33/2/2
f 132/1/6 122/2/6 128/3/6 134/4/6
f 164/1/6 154/2/6 160/3/6 168/4/6
f 74/4/5 73/1/5 152/2/5 146/3/5
f 123/1/6 110/2/6 109/3/6 122/4/6
f 155/1/6 149/2/6 148/3/6 154/4/6
f 184/6/5 183/5/5 181/8/5 182/7/5
f 180/6/5 179/5/5 177/8/5 178/7/5
f 160/1/6 150/2/6 151/3/6 161/4/6
f 127/1/1 126/2/1 124/3/1 125/4/1
f 35/1/2 5/4/2 105/3/2 121/2/2
f 75/13/5 102/14/5 100/15/5 73/16/5
