# Blender 5.0.1
# www.blender.org
mtllib BP_RedStoneGolemSkull.mtl
o SM_RedStoneGolemSkull.001
v 50.000000 -75.000008 100.000000
v -50.000000 -75.000008 100.000000
v -50.000000 -75.000000 -0.000003
v 50.000000 -75.000000 -0.000003
v -50.000000 0.000000 0.000000
v -50.000000 -0.000004 100.000000
v 50.000000 0.000000 0.000000
v 50.000000 -0.000004 100.000000
v 50.000000 -75.000008 100.000000
v 50.000000 -75.000000 -0.000003
v 50.000000 -0.000004 100.000000
v 50.000000 0.000000 0.000000
v 50.000000 -75.000000 -0.000003
v -50.000000 -75.000000 -0.000003
v -50.000000 0.000000 0.000000
v 50.000000 0.000000 0.000000
v -50.000000 -75.000008 100.000000
v -50.000000 0.000000 0.000000
v -50.000000 -75.000000 -0.000003
v -50.000000 -0.000004 100.000000
v 50.000000 -75.000008 100.000000
v 50.000000 -0.000004 100.000000
v -50.000000 -75.000008 100.000000
v -50.000000 -0.000004 100.000000
vn -0.0000 -1.0000 -0.0000
vn -0.0000 1.0000 -0.0000
vn 1.0000 -0.0000 -0.0000
vn -0.0000 -0.0000 -1.0000
vn -1.0000 -0.0000 -0.0000
vn -0.0000 -0.0000 1.0000
vt 0.666504 0.999969
vt 0.666504 0.666748
vt 0.916504 0.666748
vt 0.916504 0.999969
vt 0.333252 0.333496
vt 0.583008 0.333496
vt 0.583008 0.666748
vt 0.333252 0.666748
vt 0.000031 0.666748
vt 0.000031 0.333496
vt 0.666504 0.916687
vt 0.333252 0.916687
vt 0.916504 0.333496
vt 0.000031 0.916687
s 1
usemtl WorldGridMaterial
f 20/1/5 18/2/5 19/3/5 17/4/5
f 10/5/3 12/6/3 11/7/3 9/8/3
f 4/5/1 1/8/1 2/9/1 3/10/1
f 16/2/4 13/11/4 14/12/4 15/8/4
f 8/7/2 7/6/2 5/13/2 6/3/2
f 24/14/6 23/9/6 21/8/6 22/12/6
