# Blender 5.0.1
# www.blender.org
mtllib BP_RuneTower.mtl
o SM_RuneActivator_Wall.001
v 100.000000 -300.000031 3700.000000
v 100.000000 -200.000015 3600.000000
v 100.000000 -200.000031 3700.000000
v 100.000000 -300.000031 3600.000000
v -0.000004 -300.000031 3700.000000
v 100.000000 -300.000031 3600.000000
v 100.000000 -300.000031 3700.000000
v -0.000004 -300.000000 3600.000000
v 0.000004 -200.000031 3700.000000
v -0.000004 -300.000000 3600.000000
v -0.000004 -300.000031 3700.000000
v 0.000004 -200.000015 3600.000000
v 0.000004 -200.000015 3600.000000
v 100.000000 -200.000015 3600.000000
v 100.000000 -300.000031 3600.000000
v -0.000004 -300.000000 3600.000000
v 100.000000 -300.000031 3700.000000
v 100.000000 -200.000031 3700.000000
v -0.000004 -300.000031 3700.000000
v 0.000004 -200.000031 3700.000000
v 100.000000 -300.000061 3800.000000
v 100.000000 -200.000061 3800.000000
v -0.000004 -300.000061 3800.000000
v 100.000000 -300.000061 3800.000000
v 0.000004 -200.000046 3800.000000
v -0.000004 -300.000061 3800.000000
v 0.000004 -200.000031 3700.000000
v 100.000000 -200.000031 3700.000000
v 100.000000 -300.000031 3700.000000
v -0.000004 -300.000031 3700.000000
v 100.000000 -300.000061 3800.000000
v 100.000000 -200.000061 3800.000000
v -0.000004 -300.000061 3800.000000
v 0.000004 -200.000046 3800.000000
v 100.000000 -300.000061 3900.000000
v 100.000000 -200.000061 3900.000000
v -0.000004 -300.000061 3900.000000
v 100.000000 -300.000061 3900.000000
v 0.000004 -200.000061 3900.000000
v -0.000004 -300.000061 3900.000000
v 0.000004 -200.000046 3800.000000
v 100.000000 -200.000061 3800.000000
v 100.000000 -300.000061 3800.000000
v -0.000004 -300.000061 3800.000000
v 100.000000 -300.000061 3900.000000
v 100.000000 -200.000061 3900.000000
v -0.000004 -300.000061 3900.000000
v 0.000004 -200.000061 3900.000000
v 0.000004 -200.000015 3600.000000
v 100.000000 -200.000031 3700.000000
v 100.000000 -200.000015 3600.000000
v 0.000004 -200.000031 3700.000000
v 100.000000 -200.000061 3800.000000
v 0.000004 -200.000046 3800.000000
v 100.000000 -200.000061 3900.000000
v 0.000004 -200.000061 3900.000000
vn 1.0000 -0.0000 -0.0000
vn -0.0000 -1.0000 -0.0000
vn -1.0000 -0.0000 -0.0000
vn -0.0000 -0.0000 -1.0000
vn -0.0000 -0.0000 1.0000
vn -0.0000 1.0000 -0.0000
vt 0.750000 0.999969
vt 0.499756 0.999969
vt 0.499756 0.750000
vt 0.750000 0.750000
vt 1.000000 0.250000
vt 0.750000 0.250000
vt 0.750000 0.000000
vt 1.000000 0.000000
vt 1.000000 0.500000
vt 0.750000 0.500000
vt 0.749512 1.000031
vt 0.500000 0.750000
vt 0.500000 0.999969
vt 1.000000 0.750000
s 1
usemtl MI_RuneActivator_Flipped
f 16/1/4 13/2/4 14/3/4 15/4/4
f 52/5/6 50/6/6 51/7/6 49/8/6
f 44/1/4 41/2/4 42/3/4 43/4/4
f 54/9/6 53/10/6 50/6/6 52/5/6
f 1/3/1 3/4/1 22/1/1 21/2/1
f 9/3/3 11/4/3 26/1/3 25/2/3
f 12/3/3 10/4/3 11/1/3 9/2/3
f 25/3/3 26/4/3 40/1/3 39/2/3
f 48/4/5 47/11/5 45/2/5 46/12/5
f 8/12/2 6/4/2 7/1/2 5/13/2
f 20/4/5 19/11/5 17/2/5 18/12/5
f 21/3/1 22/4/1 36/1/1 35/2/1
f 23/12/2 24/4/2 38/1/2 37/13/2
f 5/12/2 7/4/2 24/1/2 23/13/2
f 30/1/4 27/2/4 28/3/4 29/4/4
f 34/4/5 33/11/5 31/2/5 32/12/5
f 4/3/1 2/4/1 3/1/1 1/2/1
f 56/14/6 55/4/6 53/10/6 54/9/6
