# Blender 5.0.1
# www.blender.org
mtllib BP_Rail_Straight.mtl
o SM_Rails_Straight.001
v 50.000000 0.000000 0.000000
v 50.000000 100.000000 0.000004
v -50.000000 0.000000 0.000000
v -50.000000 100.000000 0.000004
v 37.500000 100.000000 6.250004
v 37.500000 -0.000000 6.250000
v 37.500000 0.000000 0.000000
v 37.500000 100.000000 0.000004
v 25.000000 100.000000 6.250004
v 25.000000 -0.000000 6.250000
v 37.500000 -0.000000 6.250000
v 37.500000 100.000000 6.250004
v 25.000000 100.000000 0.000004
v 25.000000 0.000000 0.000000
v 25.000000 -0.000000 6.250000
v 25.000000 100.000000 6.250004
v 37.500000 100.000000 0.000004
v 25.000000 100.000000 0.000004
v 25.000000 100.000000 6.250004
v 37.500000 100.000000 6.250004
v 37.500000 -0.000000 6.250000
v 25.000000 -0.000000 6.250000
v 25.000000 0.000000 0.000000
v 37.500000 0.000000 0.000000
v -37.500000 -0.000000 6.250000
v -37.500000 100.000000 0.000004
v -37.500000 0.000000 0.000000
v -37.500000 100.000000 6.250004
v -25.000000 -0.000000 6.250000
v -37.500000 100.000000 6.250004
v -37.500000 -0.000000 6.250000
v -25.000000 100.000000 6.250004
v -25.000000 0.000000 0.000000
v -25.000000 100.000000 6.250004
v -25.000000 -0.000000 6.250000
v -25.000000 100.000000 0.000004
v -25.000000 -0.000000 6.250000
v -37.500000 -0.000000 6.250000
v -37.500000 0.000000 0.000000
v -25.000000 0.000000 0.000000
v -37.500000 100.000000 6.250004
v -25.000000 100.000000 0.000004
v -37.500000 100.000000 0.000004
v -25.000000 100.000000 6.250004
vn -0.0000 -0.0000 1.0000
vn 1.0000 -0.0000 -0.0000
vn -1.0000 -0.0000 -0.0000
vn -0.0000 1.0000 -0.0000
vn -0.0000 -1.0000 -0.0000
vt 0.531250 0.531250
vt 0.531250 0.500000
vt 0.593750 0.500000
vt 0.593750 0.531250
vt 0.625000 0.000000
vt 0.656250 0.000000
vt 0.656250 0.500000
vt 0.625000 0.500000
vt 0.593750 0.000000
vt 0.000031 0.500000
vt 0.000031 0.000000
vt 0.500000 0.000000
vt 0.500000 0.500000
vt 0.531250 0.000000
vt 0.718750 0.500000
vt 0.718750 0.531250
vt 0.656250 0.531250
vt 0.718750 0.000000
vt 0.750000 0.000000
vt 0.750000 0.500000
s 1
usemtl MI_Rail
f 20/1/4 17/2/4 18/3/4 19/4/4
f 36/5/2 34/6/2 35/7/2 33/8/2
f 15/3/3 16/9/3 13/5/3 14/8/3
f 4/10/1 3/11/1 1/12/1 2/13/1
f 7/13/2 8/12/2 5/14/2 6/2/2
f 40/15/5 37/16/5 38/17/5 39/7/5
f 24/1/5 21/2/5 22/3/5 23/4/5
f 11/2/1 12/14/1 9/9/1 10/3/1
f 28/18/3 26/19/3 27/20/3 25/15/3
f 32/6/1 30/18/1 31/15/1 29/7/1
f 44/15/4 42/16/4 43/17/4 41/7/4
