# Blender 5.0.1
# www.blender.org
mtllib BP_RuneGate_Button.mtl
o SM_RuneGateButton.001
v 43.750004 -12.499976 87.500000
v 43.749996 12.500017 -0.000001
v 43.749996 12.500024 87.500000
v 43.750004 -12.499983 0.000001
v -43.749996 -12.500010 87.500000
v 43.750004 -12.499983 0.000001
v 43.750004 -12.499976 87.500000
v -43.749996 -12.500017 0.000001
v -43.750004 12.499990 87.500000
v -43.749996 -12.500017 0.000001
v -43.749996 -12.500010 87.500000
v -43.750004 12.499983 -0.000001
v 43.749996 12.500024 87.500000
v -43.750004 12.499983 -0.000001
v -43.750004 12.499990 87.500000
v 43.749996 12.500017 -0.000001
v -43.750004 12.499983 -0.000001
v 43.749996 12.500017 -0.000001
v 43.750004 -12.499983 0.000001
v -43.749996 -12.500017 0.000001
v 43.750004 -12.499976 87.500000
v 43.749996 12.500024 87.500000
v -43.749996 -12.500010 87.500000
v -43.750004 12.499990 87.500000
vn 1.0000 -0.0000 -0.0000
vn -0.0000 -1.0000 -0.0000
vn -1.0000 -0.0000 -0.0000
vn -0.0000 1.0000 -0.0000
vn -0.0000 -0.0000 -1.0000
vn -0.0000 -0.0000 1.0000
vt 1.000000 0.000000
vt 1.000000 0.500000
vt 0.500000 0.500000
vt 0.500000 0.000000
vt 0.656250 0.031250
vt 0.531250 0.031250
vt 0.531250 0.468750
vt 0.656250 0.468750
vt 0.968750 0.031250
vt 0.968750 0.468750
vt 0.531250 0.531250
vt 0.968750 0.531250
vt 0.968750 0.968750
vt 0.531250 0.968750
vt 0.968750 0.343750
vt 0.531250 0.343750
s 1
usemtl MI_RunegateMechanisms
f 20/1/5 17/2/5 18/3/5 19/4/5
f 12/5/3 10/6/3 11/7/3 9/8/3
f 4/6/1 2/5/1 3/8/1 1/7/1
f 16/6/4 14/9/4 15/10/4 13/7/4
f 8/11/2 6/12/2 7/13/2 5/14/2
f 24/15/6 23/10/6 21/7/6 22/16/6
