# Blender 5.0.1
# www.blender.org
mtllib BP_Rugs_HBH_02.mtl
o SM_Rugs_HBH_02.001
v 146.875000 -115.625008 6.249995
v -146.875000 115.625015 6.250005
v -146.875000 -115.625015 6.249995
v 146.875000 115.625015 6.250005
v 146.875000 -115.625008 6.249995
v -146.875000 -115.625015 6.249995
v -146.875000 -115.625015 -0.000005
v 146.875000 -115.625008 -0.000005
v -146.875000 115.625015 0.000005
v -146.875000 -115.625015 -0.000005
v -146.875000 -115.625015 6.249995
v -146.875000 115.625015 6.250005
v 146.875000 -115.625008 -0.000005
v 146.875000 115.625015 6.250005
v 146.875000 -115.625008 6.249995
v 146.875000 115.625015 0.000005
v 146.875000 115.625015 0.000005
v -146.875000 115.625015 0.000005
v -146.875000 115.625015 6.250005
v 146.875000 115.625015 6.250005
vn -0.0000 -0.0000 1.0000
vn -0.0000 -1.0000 -0.0000
vn -1.0000 -0.0000 -0.0000
vn 1.0000 -0.0000 -0.0000
vn -0.0000 1.0000 -0.0000
vt 0.437256 1.000032
vt 0.421875 1.000032
vt 0.421875 0.265625
vt 0.437256 0.265625
vt 0.999512 0.984383
vt 0.999512 0.999969
vt 0.421875 0.999969
vt 0.421875 0.984383
vt 0.421875 0.999969
vt 1.000000 0.265625
vt 1.000000 0.999969
vt 1.000000 1.000031
vt 0.421631 1.000031
vt 0.421631 0.984375
vt 1.000000 0.984375
vt 0.437500 0.999968
vt 0.421631 0.999968
vt 0.421631 0.266113
vt 0.437500 0.266113
s 1
usemtl MI_Rugs_HBH
f 8/1/2 5/2/2 6/3/2 7/4/2
f 16/5/4 14/6/4 15/7/4 13/8/4
f 4/9/1 2/3/1 3/10/1 1/11/1
f 11/12/3 12/13/3 9/14/3 10/15/3
f 20/16/5 17/17/5 18/18/5 19/19/5
