# Blender 5.0.1
# www.blender.org
mtllib BP_Relay_Source.mtl
o SM_Piston_Relay_start.001
v -50.000000 50.000015 99.999992
v -50.000000 -50.000000 0.000008
v -50.000000 -49.999985 100.000008
v -50.000000 50.000000 -0.000008
v 50.000000 50.000015 99.999992
v -50.000000 50.000000 -0.000008
v -50.000000 50.000015 99.999992
v 50.000000 50.000000 -0.000008
v 50.000000 -49.999985 100.000008
v 50.000000 50.000000 -0.000008
v 50.000000 50.000015 99.999992
v 50.000000 -50.000000 0.000008
v -50.000000 -49.999985 100.000008
v 50.000000 -50.000000 0.000008
v 50.000000 -49.999985 100.000008
v -50.000000 -50.000000 0.000008
v 50.000000 -50.000000 0.000008
v -50.000000 -50.000000 0.000008
v -50.000000 50.000000 -0.000008
v 50.000000 50.000000 -0.000008
v -50.000000 50.000015 99.999992
v -50.000000 -49.999985 100.000008
v 50.000000 50.000015 99.999992
v 50.000000 -49.999985 100.000008
vn -1.0000 -0.0000 -0.0000
vn -0.0000 1.0000 -0.0000
vn 1.0000 -0.0000 -0.0000
vn -0.0000 -1.0000 -0.0000
vn -0.0000 -0.0000 -1.0000
vn -0.0000 -0.0000 1.0000
vt 0.666504 0.333496
vt 0.666504 0.666748
vt 0.333252 0.666748
vt 0.333252 0.333496
vt 0.000031 0.333496
vt 0.000031 0.666748
vt 1.000000 0.333496
vt 1.000000 0.666748
vt 0.333252 0.999969
vt 0.000031 0.999969
vt 1.000000 0.999969
vt 0.666504 0.999969
s 1
usemtl MI_RelayMaterial
f 20/1/5 17/2/5 18/3/5 19/4/5
f 12/5/3 10/4/3 11/3/3 9/6/3
f 4/1/1 2/7/1 3/8/1 1/2/1
f 16/6/4 14/3/4 15/9/4 13/10/4
f 8/2/2 6/8/2 7/11/2 5/12/2
f 24/1/6 23/2/6 21/3/6 22/4/6
