# Blender 5.0.1
# www.blender.org
mtllib BP_Stalactite.mtl
o SM_Stalactite_New.001
v -200.000000 -100.000130 800.000000
v -200.000000 -0.000130 800.000000
v -200.000000 -100.000114 700.000000
v -200.000000 -0.000114 700.000000
v -100.000000 -100.000114 700.000000
v -200.000000 -100.000114 700.000000
v -100.000000 -0.000114 700.000000
v -200.000000 -0.000114 700.000000
v -100.000000 -0.000114 700.000000
v -200.000000 -0.000114 700.000000
v -100.000000 -0.000130 800.000000
v -200.000000 -0.000130 800.000000
v -100.000000 -100.000130 800.000000
v -200.000000 -100.000130 800.000000
v -200.000000 -100.000114 700.000000
v -100.000000 -100.000114 700.000000
v -200.000000 -100.000145 900.000000
v -200.000000 -0.000147 900.000000
v -100.000000 -0.000147 900.000000
v -200.000000 -0.000147 900.000000
v -100.000000 -100.000145 900.000000
v -100.000000 -0.000147 900.000000
v -200.000000 -100.000145 900.000000
v -200.000000 -0.000147 900.000000
v -100.000000 -100.000145 900.000000
v -200.000000 -100.000145 900.000000
v -100.000000 -0.000098 600.000000
v -100.000000 99.999901 600.000000
v -100.000000 -0.000081 500.000000
v -100.000000 99.999916 500.000031
v 0.000000 -0.000081 500.000000
v -100.000000 -0.000081 500.000000
v 0.000000 99.999916 500.000031
v -100.000000 99.999916 500.000031
v 0.000000 99.999916 500.000031
v -100.000000 99.999916 500.000031
v 0.000000 99.999901 600.000000
v -100.000000 99.999901 600.000000
v -100.000000 -0.000114 700.000000
v -100.000000 99.999886 700.000000
v 0.000000 99.999886 700.000000
v -100.000000 99.999886 700.000000
v -100.000000 -0.000130 800.000000
v -100.000000 99.999870 800.000000
v 0.000000 99.999870 800.000000
v -100.000000 99.999870 800.000000
v -100.000000 -0.000147 900.000000
v -100.000000 99.999855 900.000000
v 0.000000 99.999855 900.000000
v -100.000000 99.999855 900.000000
v -100.000000 -0.000163 1000.000000
v -100.000000 99.999840 1000.000000
v 0.000000 99.999840 1000.000000
v -100.000000 99.999840 1000.000000
v 0.000000 -0.000163 1000.000000
v 0.000000 99.999840 1000.000000
v -100.000000 -0.000163 1000.000000
v -100.000000 99.999840 1000.000000
v -100.000000 -100.000069 399.999969
v -100.000000 -0.000065 400.000000
v -100.000000 -100.000046 299.999969
v -100.000000 -0.000049 300.000000
v 0.000000 -100.000046 299.999969
v -100.000000 -100.000046 299.999969
v 0.000000 -0.000049 300.000000
v -100.000000 -0.000049 300.000000
v 0.000000 -0.000049 300.000000
v -100.000000 -0.000049 300.000000
v 0.000000 -0.000065 400.000000
v -100.000000 -0.000065 400.000000
v 0.000000 -100.000069 399.999969
v -100.000000 -100.000069 399.999969
v -100.000000 -100.000046 299.999969
v 0.000000 -100.000046 299.999969
v -100.000000 -100.000084 499.999969
v 0.000000 -0.000081 500.000000
v -100.000000 -0.000081 500.000000
v 0.000000 -100.000084 499.999969
v -100.000000 -100.000084 499.999969
v -100.000000 -100.000099 600.000000
v -100.000000 -100.000114 700.000000
v -100.000000 -100.000160 1000.000000
v -100.000000 -100.000145 900.000000
v -100.000000 -100.000175 1100.000000
v -100.000000 -0.000179 1100.000000
v 0.000000 -0.000163 1000.000000
v -100.000000 -0.000163 1000.000000
v 0.000000 -0.000179 1100.000000
v -100.000000 -0.000179 1100.000000
v -100.000000 -100.000198 1200.000000
v -100.000000 -0.000196 1200.000000
v 0.000000 -0.000196 1200.000000
v -100.000000 -0.000196 1200.000000
v -100.000000 -100.000214 1300.000000
v -100.000000 -0.000212 1300.000000
v 0.000000 -0.000212 1300.000000
v -100.000000 -0.000212 1300.000000
v 0.000000 -100.000214 1300.000000
v 0.000000 -0.000212 1300.000000
v -100.000000 -100.000214 1300.000000
v -100.000000 -0.000212 1300.000000
v 0.000000 -100.000214 1300.000000
v -100.000000 -100.000214 1300.000000
v -100.000000 -100.000198 1200.000000
v 0.000000 -100.000198 1200.000000
v -100.000000 -200.000092 599.999939
v -100.000000 -200.000076 499.999969
v 0.000000 -200.000076 499.999969
v -100.000000 -200.000076 499.999969
v 0.000000 -100.000084 499.999969
v -100.000000 -100.000084 499.999969
v 0.000000 -200.000092 599.999939
v -100.000000 -200.000092 599.999939
v -100.000000 -200.000076 499.999969
v 0.000000 -200.000076 499.999969
v -100.000000 -200.000107 699.999939
v 0.000000 -200.000107 699.999939
v -100.000000 -200.000107 699.999939
v -100.000000 -200.000137 799.999939
v -100.000000 -100.000130 800.000000
v -100.000000 -200.000153 899.999939
v -100.000000 -200.000168 999.999939
v -100.000000 -200.000183 1100.000000
v 0.000000 -200.000183 1100.000000
v -100.000000 -200.000183 1100.000000
v -100.000000 -200.000168 999.999939
v 0.000000 -200.000168 999.999939
v -100.000000 -200.000198 1200.000000
v 0.000000 -200.000198 1200.000000
v 0.000000 -200.000183 1100.000000
v 0.000000 -100.000198 1200.000000
v 0.000000 -100.000175 1100.000000
v 0.000000 -200.000198 1200.000000
v 0.000000 -100.000198 1200.000000
v -100.000000 -200.000198 1200.000000
v -100.000000 -100.000198 1200.000000
v 0.000000 -200.000198 1200.000000
v -100.000000 -200.000198 1200.000000
v -100.000000 -300.000122 799.999939
v -100.000000 -300.000122 699.999939
v 0.000000 -300.000122 699.999939
v -100.000000 -300.000122 699.999939
v 0.000000 -200.000107 699.999939
v -100.000000 -200.000107 699.999939
v 0.000000 -300.000122 799.999939
v 0.000000 -300.000122 699.999939
v 0.000000 -200.000137 799.999939
v 0.000000 -200.000107 699.999939
v 0.000000 -300.000122 799.999939
v -100.000000 -300.000122 799.999939
v -100.000000 -300.000122 699.999939
v 0.000000 -300.000122 699.999939
v -100.000000 -300.000153 899.999939
v 0.000000 -300.000153 899.999939
v 0.000000 -200.000153 899.999939
v 0.000000 -300.000153 899.999939
v -100.000000 -300.000153 899.999939
v -100.000000 -300.000153 999.999939
v 0.000000 -300.000153 999.999939
v 0.000000 -200.000168 999.999939
v 0.000000 -300.000153 999.999939
v 0.000000 -200.000168 999.999939
v -100.000000 -300.000153 999.999939
v -100.000000 -200.000168 999.999939
v 0.000000 -300.000153 999.999939
v -100.000000 -300.000153 999.999939
v 0.000000 99.999886 700.000000
v 0.000000 199.999893 700.000061
v 0.000000 99.999901 600.000000
v 0.000000 199.999908 600.000061
v 100.000000 99.999901 600.000000
v 0.000000 99.999901 600.000000
v 100.000000 199.999908 600.000061
v 0.000000 199.999908 600.000061
v 100.000000 199.999908 600.000061
v 0.000000 199.999908 600.000061
v 100.000000 199.999893 700.000061
v 0.000000 199.999893 700.000061
v 100.000000 99.999886 700.000000
v 100.000000 99.999901 600.000000
v 100.000000 199.999893 700.000061
v 100.000000 199.999908 600.000061
v 0.000000 99.999870 800.000000
v 0.000000 199.999863 800.000061
v 100.000000 199.999863 800.000061
v 0.000000 199.999863 800.000061
v 100.000000 99.999870 800.000000
v 100.000000 199.999863 800.000061
v 0.000000 99.999855 900.000000
v 0.000000 199.999847 900.000061
v 100.000000 199.999847 900.000061
v 0.000000 199.999847 900.000061
v 100.000000 99.999855 900.000000
v 100.000000 199.999847 900.000061
v 0.000000 99.999840 1000.000000
v 0.000000 199.999832 1000.000061
v 100.000000 199.999832 1000.000061
v 0.000000 199.999832 1000.000061
v 100.000000 99.999840 1000.000000
v 100.000000 199.999832 1000.000061
v 0.000000 99.999825 1100.000000
v 0.000000 199.999817 1100.000000
v 100.000000 199.999817 1100.000000
v 0.000000 199.999817 1100.000000
v 100.000000 99.999825 1100.000000
v 100.000000 199.999817 1100.000000
v 100.000000 99.999825 1100.000000
v 100.000000 199.999817 1100.000000
v 0.000000 99.999825 1100.000000
v 0.000000 199.999817 1100.000000
v 0.000000 -0.000065 400.000000
v 0.000000 99.999931 400.000031
v 0.000000 -0.000049 300.000000
v 0.000000 99.999954 300.000031
v 100.000000 -0.000049 300.000000
v 100.000000 99.999954 300.000031
v 0.000000 99.999954 300.000031
v 100.000000 99.999954 300.000031
v 0.000000 99.999954 300.000031
v 100.000000 99.999931 400.000031
v 0.000000 99.999931 400.000031
v 100.000000 -0.000065 400.000000
v 100.000000 -0.000049 300.000000
v 100.000000 99.999931 400.000031
v 100.000000 99.999954 300.000031
v 0.000000 -0.000081 500.000000
v 0.000000 99.999916 500.000031
v 100.000000 99.999916 500.000031
v 100.000000 -0.000081 500.000000
v 100.000000 99.999916 500.000031
v 100.000000 99.999901 600.000000
v 100.000000 -0.000130 800.000000
v 100.000000 -0.000114 700.000000
v 100.000000 -0.000147 900.000000
v 100.000000 -0.000163 1000.000000
v 0.000000 -0.000179 1100.000000
v 0.000000 -0.000163 1000.000000
v 0.000000 -0.000196 1200.000000
v 0.000000 99.999802 1200.000000
v 100.000000 99.999825 1100.000000
v 0.000000 99.999825 1100.000000
v 100.000000 99.999802 1200.000000
v 0.000000 99.999802 1200.000000
v 0.000000 -0.000212 1300.000000
v 0.000000 99.999786 1300.000000
v 100.000000 99.999786 1300.000000
v 0.000000 99.999786 1300.000000
v 100.000000 -0.000212 1300.000000
v 100.000000 -0.000196 1200.000000
v 100.000000 99.999786 1300.000000
v 100.000000 99.999802 1200.000000
v 100.000000 -0.000212 1300.000000
v 100.000000 99.999786 1300.000000
v 0.000000 99.999786 1300.000000
v 0.000000 -100.000015 99.999985
v 0.000000 -0.000016 100.000000
v 0.000000 -100.000000 -0.000016
v 0.000000 0.000000 0.000000
v 100.000000 -100.000000 -0.000016
v 0.000000 -100.000000 -0.000016
v 100.000000 0.000000 0.000000
v 0.000000 0.000000 0.000000
v 100.000000 0.000000 0.000000
v 0.000000 0.000000 0.000000
v 100.000000 -0.000016 100.000000
v 0.000000 -0.000016 100.000000
v 100.000000 -100.000015 99.999985
v 100.000000 -100.000000 -0.000016
v 100.000000 -0.000016 100.000000
v 100.000000 0.000000 0.000000
v 100.000000 -100.000015 99.999985
v 0.000000 -100.000015 99.999985
v 0.000000 -100.000000 -0.000016
v 100.000000 -100.000000 -0.000016
v 0.000000 -100.000031 199.999985
v 0.000000 -0.000033 200.000000
v 100.000000 -0.000033 200.000000
v 0.000000 -0.000033 200.000000
v 100.000000 -100.000031 199.999985
v 100.000000 -0.000033 200.000000
v 100.000000 -100.000031 199.999985
v 0.000000 -100.000031 199.999985
v 0.000000 -100.000046 299.999969
v 100.000000 -0.000049 300.000000
v 100.000000 -100.000160 1000.000000
v 100.000000 -100.000145 900.000000
v 100.000000 -100.000175 1100.000000
v 100.000000 -0.000179 1100.000000
v 100.000000 -100.000198 1200.000000
v 100.000000 -100.000198 1200.000000
v 0.000000 -100.000175 1100.000000
v 100.000000 -100.000175 1100.000000
v 100.000000 -100.000214 1300.000000
v 100.000000 -100.000214 1300.000000
v 0.000000 -100.000229 1400.000000
v 0.000000 -0.000228 1400.000000
v 0.000000 -100.000214 1300.000000
v 100.000000 -0.000212 1300.000000
v 100.000000 -0.000228 1400.000000
v 0.000000 -0.000228 1400.000000
v 100.000000 -100.000229 1400.000000
v 100.000000 -0.000228 1400.000000
v 100.000000 -100.000229 1400.000000
v 100.000000 -0.000228 1400.000000
v 0.000000 -100.000229 1400.000000
v 0.000000 -0.000228 1400.000000
v 100.000000 -100.000229 1400.000000
v 0.000000 -100.000229 1400.000000
v 0.000000 -200.000046 299.999969
v 0.000000 -200.000031 199.999969
v 100.000000 -200.000031 199.999969
v 0.000000 -200.000031 199.999969
v 100.000000 -100.000031 199.999985
v 0.000000 -100.000031 199.999985
v 100.000000 -200.000046 299.999969
v 100.000000 -200.000031 199.999969
v 100.000000 -100.000046 299.999969
v 100.000000 -200.000046 299.999969
v 0.000000 -200.000046 299.999969
v 0.000000 -200.000031 199.999969
v 100.000000 -200.000031 199.999969
v 0.000000 -200.000061 399.999969
v 0.000000 -100.000069 399.999969
v 100.000000 -200.000061 399.999969
v 100.000000 -100.000069 399.999969
v 100.000000 -200.000061 399.999969
v 0.000000 -200.000061 399.999969
v 0.000000 -200.000076 499.999969
v 0.000000 -100.000084 499.999969
v 100.000000 -200.000076 499.999969
v 100.000000 -200.000092 599.999939
v 100.000000 -200.000137 799.999939
v 0.000000 -200.000137 799.999939
v 100.000000 -200.000107 699.999939
v 100.000000 -200.000153 899.999939
v 100.000000 -200.000137 799.999939
v 100.000000 -100.000130 800.000000
v 100.000000 -200.000153 899.999939
v 0.000000 -200.000153 899.999939
v 100.000000 -200.000168 999.999939
v 100.000000 -200.000168 999.999939
v 100.000000 -200.000183 1100.000000
v 100.000000 -200.000183 1100.000000
v 100.000000 -100.000175 1100.000000
v 0.000000 -200.000183 1100.000000
v 0.000000 -100.000175 1100.000000
v 100.000000 -200.000183 1100.000000
v 0.000000 -300.000122 699.999939
v 0.000000 -200.000107 699.999939
v 0.000000 -300.000092 599.999939
v 0.000000 -200.000092 599.999939
v 100.000000 -300.000092 599.999939
v 0.000000 -300.000092 599.999939
v 100.000000 -200.000092 599.999939
v 0.000000 -200.000092 599.999939
v 100.000000 -300.000122 699.999939
v 100.000000 -300.000092 599.999939
v 100.000000 -200.000107 699.999939
v 100.000000 -200.000092 599.999939
v 100.000000 -300.000122 699.999939
v 100.000000 -200.000107 699.999939
v 0.000000 -300.000122 699.999939
v 0.000000 -200.000107 699.999939
v 100.000000 -300.000122 699.999939
v 0.000000 -300.000092 599.999939
v 100.000000 -300.000092 599.999939
v 200.000000 -0.000081 500.000000
v 100.000000 -0.000081 500.000000
v 200.000000 99.999916 500.000031
v 100.000000 99.999916 500.000031
v 200.000000 99.999916 500.000031
v 200.000000 99.999901 600.000000
v 200.000000 -0.000098 600.000000
v 200.000000 -0.000081 500.000000
v 200.000000 99.999901 600.000000
v 200.000000 99.999916 500.000031
v 200.000000 99.999886 700.000000
v 100.000000 99.999886 700.000000
v 200.000000 -0.000114 700.000000
v 200.000000 99.999886 700.000000
v 200.000000 -0.000114 700.000000
v 200.000000 99.999886 700.000000
v 100.000000 -0.000114 700.000000
v 100.000000 99.999886 700.000000
v 200.000000 -0.000163 1000.000000
v 100.000000 -0.000163 1000.000000
v 200.000000 99.999840 1000.000000
v 100.000000 99.999840 1000.000000
v 200.000000 99.999840 1000.000000
v 100.000000 99.999840 1000.000000
v 200.000000 99.999825 1100.000000
v 200.000000 -0.000179 1100.000000
v 200.000000 -0.000163 1000.000000
v 200.000000 99.999825 1100.000000
v 200.000000 99.999840 1000.000000
v 200.000000 -0.000179 1100.000000
v 100.000000 -0.000179 1100.000000
v 100.000000 -0.000163 1000.000000
v 200.000000 -0.000163 1000.000000
v 200.000000 99.999802 1200.000000
v 200.000000 -0.000196 1200.000000
v 200.000000 99.999802 1200.000000
v 200.000000 -0.000196 1200.000000
v 200.000000 99.999802 1200.000000
v 100.000000 -0.000196 1200.000000
v 100.000000 99.999802 1200.000000
v 200.000000 -0.000196 1200.000000
v 100.000000 -0.000196 1200.000000
v 200.000000 -100.000031 199.999985
v 200.000000 -0.000033 200.000000
v 100.000000 -0.000033 200.000000
v 200.000000 -0.000033 200.000000
v 200.000000 -0.000049 300.000000
v 200.000000 -100.000046 299.999969
v 200.000000 -100.000031 199.999985
v 200.000000 -0.000049 300.000000
v 200.000000 -0.000033 200.000000
v 200.000000 -100.000046 299.999969
v 100.000000 -100.000046 299.999969
v 200.000000 -100.000031 199.999985
v 200.000000 -0.000065 400.000000
v 100.000000 -0.000065 400.000000
v 200.000000 -100.000069 399.999969
v 200.000000 -0.000065 400.000000
v 200.000000 -100.000069 399.999969
v 100.000000 -100.000069 399.999969
v 200.000000 -0.000081 500.000000
v 100.000000 -0.000081 500.000000
v 200.000000 -100.000084 499.999969
v 200.000000 -100.000099 600.000000
v 200.000000 -100.000114 700.000000
v 200.000000 -0.000114 700.000000
v 100.000000 -0.000114 700.000000
v 200.000000 -0.000130 800.000000
v 100.000000 -0.000130 800.000000
v 200.000000 -100.000130 800.000000
v 200.000000 -0.000130 800.000000
v 200.000000 -0.000147 900.000000
v 100.000000 -0.000147 900.000000
v 200.000000 -100.000145 900.000000
v 200.000000 -0.000147 900.000000
v 200.000000 -100.000145 900.000000
v 200.000000 -0.000147 900.000000
v 100.000000 -100.000145 900.000000
v 100.000000 -0.000147 900.000000
v 200.000000 -100.000145 900.000000
v 100.000000 -100.000145 900.000000
v 100.000000 -100.000130 800.000000
v 200.000000 -100.000130 800.000000
v 200.000000 -200.000061 399.999969
v 100.000000 -200.000061 399.999969
v 200.000000 -100.000069 399.999969
v 100.000000 -100.000069 399.999969
v 200.000000 -200.000076 499.999969
v 200.000000 -200.000061 399.999969
v 200.000000 -200.000076 499.999969
v 200.000000 -200.000061 399.999969
v 200.000000 -200.000092 599.999939
v 200.000000 -200.000092 599.999939
v 200.000000 -200.000107 699.999939
v 200.000000 -200.000107 699.999939
v 200.000000 -200.000137 799.999939
v 200.000000 -200.000137 799.999939
v 200.000000 -100.000130 800.000000
v 100.000000 -200.000137 799.999939
v 100.000000 -100.000130 800.000000
v 200.000000 -200.000137 799.999939
vn -1.0000 -0.0000 -0.0000
vn -0.0000 -0.0000 -1.0000
vn -0.0000 1.0000 -0.0000
vn -0.0000 -1.0000 -0.0000
vn -0.0000 -0.0000 1.0000
vn 1.0000 -0.0000 -0.0000
vt -0.000031 0.000000
vt 1.000000 0.000000
vt 1.000000 0.999969
vt -0.000031 0.999969
s 1
usemtl MI_Stalactite_FadeMat
f 431/1/6 379/2/6 437/3/6 436/4/6
f 268/1/6 270/2/6 269/3/6 267/4/6
f 156/2/4 165/3/4 166/4/4 157/1/4
f 219/2/3 221/3/3 220/4/3 218/1/3
f 289/1/6 249/2/6 248/3/6 293/4/6
f 136/4/5 135/1/5 133/2/5 134/3/5
f 50/2/3 54/3/3 53/4/3 49/1/3
f 406/4/5 405/1/5 403/2/5 404/3/5
f 374/1/6 376/2/6 375/3/6 373/4/6
f 363/4/5 362/1/5 360/2/5 361/3/5
f 271/2/4 281/3/4 282/4/4 272/1/4
f 146/1/6 148/2/6 147/3/6 145/4/6
f 74/2/4 71/3/4 72/4/4 73/1/4
f 429/1/6 374/2/6 373/3/6 430/4/6
f 115/2/4 112/3/4 113/4/4 114/1/4
f 232/1/6 187/2/6 193/3/6 234/4/6
f 321/2/4 318/3/4 319/4/4 320/1/4
f 373/1/6 375/2/6 380/3/6 379/4/6
f 449/2/4 446/3/4 447/4/4 448/1/4
f 192/2/3 198/3/3 197/4/3 191/1/3
f 214/1/1 213/2/1 211/3/1 212/4/1
f 35/2/3 37/3/3 231/4/3 228/1/3
f 243/2/3 247/3/3 246/4/3 242/1/3
f 264/2/3 266/3/3 265/4/3 263/1/3
f 116/1/1 140/2/1 139/3/1 119/4/1
f 258/1/1 257/2/1 255/3/1 256/4/1
f 87/2/3 89/3/3 88/4/3 86/1/3
f 28/1/1 27/2/1 39/3/1 40/4/1
f 244/1/1 297/2/1 295/3/1 296/4/1
f 436/1/6 437/2/6 441/3/6 440/4/6
f 239/1/1 238/2/1 244/3/1 245/4/1
f 178/2/3 186/3/3 185/4/3 177/1/3
f 233/1/6 179/2/6 187/3/6 232/4/6
f 366/2/4 364/3/4 152/4/4 365/1/4
f 44/1/1 43/2/1 47/3/1 48/4/1
f 318/2/4 326/3/4 327/4/4 319/1/4
f 418/2/4 425/3/4 426/4/4 419/1/4
f 433/2/3 435/3/3 434/4/3 432/1/3
f 80/1/1 106/2/1 116/3/1 81/4/1
f 13/2/4 25/3/4 26/4/4 14/1/4
f 338/2/4 341/3/4 127/4/4 339/1/4
f 190/1/1 189/2/1 195/3/1 196/4/1
f 312/1/2 314/4/2 313/3/2 311/2/2
f 168/1/1 167/2/1 183/3/1 184/4/1
f 336/1/6 337/2/6 286/3/6 335/4/6
f 187/1/6 188/2/6 194/3/6 193/4/6
f 199/1/6 200/2/6 206/3/6 205/4/6
f 6/1/2 8/4/2 7/3/2 5/2/2
f 357/1/6 359/2/6 358/3/6 356/4/6
f 84/1/1 123/2/1 128/3/1 90/4/1
f 70/2/3 77/3/3 76/4/3 69/1/3
f 278/2/3 67/3/3 284/4/3 277/1/3
f 285/1/6 235/2/6 288/3/6 287/4/6
f 96/2/3 300/3/3 299/4/3 298/1/3
f 60/1/1 59/2/1 75/3/1 29/4/1
f 306/4/5 305/1/5 303/2/5 304/3/5
f 180/1/6 182/2/6 181/3/6 179/4/6
f 351/1/1 350/2/1 348/3/1 349/4/1
f 124/2/4 137/3/4 138/4/4 125/1/4
f 316/1/6 279/2/6 317/3/6 315/4/6
f 392/1/6 394/2/6 402/3/6 401/4/6
f 12/2/3 20/3/3 19/4/3 11/1/3
f 93/2/3 97/3/3 96/4/3 92/1/3
f 75/1/1 107/2/1 106/3/1 80/4/1
f 386/1/2 388/4/2 387/3/2 385/2/2
f 399/2/4 396/3/4 397/4/4 398/1/4
f 120/1/1 119/2/1 121/3/1 83/4/1
f 460/1/6 431/2/6 436/3/6 462/4/6
f 368/1/2 370/4/2 369/3/2 367/2/2
f 81/1/1 116/2/1 119/3/1 120/4/1
f 10/2/3 12/3/3 11/4/3 9/1/3
f 335/1/6 286/2/6 285/3/6 340/4/6
f 184/1/1 183/2/1 189/3/1 190/4/1
f 313/1/2 411/4/2 410/3/2 409/2/2
f 83/1/1 121/2/1 122/3/1 82/4/1
f 454/1/6 429/2/6 430/3/6 458/4/6
f 422/2/3 428/3/3 427/4/3 421/1/3
f 323/1/1 322/2/1 328/3/1 329/4/1
f 58/4/5 57/1/5 55/2/5 56/3/5
f 414/1/6 416/2/6 424/3/6 423/4/6
f 46/2/3 50/3/3 49/4/3 45/1/3
f 24/4/5 23/1/5 21/2/5 22/3/5
f 121/1/1 153/2/1 158/3/1 122/4/1
f 423/1/6 424/2/6 374/3/6 429/4/6
f 105/2/4 102/3/4 103/4/4 104/1/4
f 212/1/1 211/2/1 226/3/1 227/4/1
f 346/4/5 345/1/5 343/2/5 344/3/5
f 430/1/6 373/2/6 379/3/6 431/4/6
f 85/1/1 84/2/1 90/3/1 91/4/1
f 130/1/6 132/2/6 131/3/6 129/4/6
f 234/1/6 193/2/6 199/3/6 235/4/6
f 287/1/6 288/2/6 249/3/6 289/4/6
f 38/2/3 42/3/3 41/4/3 37/1/3
f 2/1/1 1/2/1 17/3/1 18/4/1
f 266/2/3 278/3/3 277/4/3 265/1/3
f 195/1/1 237/2/1 236/3/1 201/4/1
f 68/2/3 70/3/3 69/4/3 67/1/3
f 241/2/3 243/3/3 242/4/3 240/1/3
f 164/4/5 163/1/5 161/2/5 162/3/5
f 254/4/5 99/1/5 252/2/5 253/3/5
f 256/1/1 255/2/1 275/3/1 276/4/1
f 127/2/4 124/3/4 125/4/4 126/1/4
f 112/2/4 117/3/4 118/4/4 113/1/4
f 274/2/4 271/3/4 272/4/4 273/1/4
f 260/1/2 262/4/2 261/3/2 259/2/2
f 294/2/4 307/3/4 308/4/4 102/1/4
f 154/1/6 155/2/6 160/3/6 159/4/6
f 36/2/3 38/3/3 37/4/3 35/1/3
f 27/1/1 80/2/1 81/3/1 39/4/1
f 201/1/1 236/2/1 238/3/1 239/4/1
f 249/1/6 251/2/6 250/3/6 248/4/6
f 149/2/4 156/3/4 157/4/4 150/1/4
f 29/1/1 75/2/1 80/3/1 27/4/1
f 152/2/4 149/3/4 150/4/4 151/1/4
f 283/1/1 309/2/1 322/3/1 323/4/1
f 62/1/1 61/2/1 59/3/1 60/4/1
f 393/1/6 395/2/6 394/3/6 392/4/6
f 142/1/2 144/4/2 143/3/2 141/2/2
f 290/2/4 294/3/4 102/4/4 105/1/4
f 196/1/1 195/2/1 201/3/1 202/4/1
f 292/2/4 290/3/4 105/4/4 291/1/4
f 276/1/1 275/2/1 283/3/1 213/4/1
f 267/1/6 269/2/6 280/3/6 279/4/6
f 315/1/6 317/2/6 325/3/6 324/4/6
f 51/1/1 82/2/1 84/3/1 85/4/1
f 284/2/3 422/3/3 421/4/3 413/1/3
f 179/1/6 181/2/6 188/3/6 187/4/6
f 186/2/3 192/3/3 191/4/3 185/1/3
f 42/2/3 46/3/3 45/4/3 41/1/3
f 109/1/2 111/4/2 110/3/2 108/2/2
f 193/1/6 194/2/6 200/3/6 199/4/6
f 334/2/4 332/3/4 333/4/4 117/1/4
f 458/1/6 430/2/6 431/3/6 460/4/6
f 332/2/4 338/3/4 339/4/4 333/1/4
f 82/1/1 122/2/1 123/3/1 84/4/1
f 330/2/4 331/3/4 112/4/4 115/1/4
f 326/2/4 330/3/4 115/4/4 327/1/4
f 275/1/1 310/2/1 309/3/1 283/4/1
f 172/1/2 174/4/2 173/3/2 171/2/2
f 145/1/6 147/2/6 155/3/6 154/4/6
f 240/2/3 242/3/3 400/4/3 391/1/3
f 32/1/2 34/4/2 33/3/2 31/2/2
f 89/2/3 93/3/3 92/4/3 88/1/3
f 353/1/2 355/4/2 354/3/2 352/2/2
f 293/1/6 248/2/6 302/3/6 301/4/6
f 176/2/3 178/3/3 177/4/3 175/1/3
f 47/1/1 83/2/1 82/3/1 51/4/1
f 390/2/3 240/3/3 391/4/3 389/1/3
f 71/2/4 78/3/4 79/4/4 72/1/4
f 459/2/4 461/3/4 334/4/4 331/1/4
f 48/1/1 47/2/1 51/3/1 52/4/1
f 384/4/5 383/1/5 381/2/5 382/3/5
f 231/2/3 378/3/3 377/4/3 372/1/3
f 455/1/6 423/2/6 429/3/6 454/4/6
f 228/2/3 231/3/3 372/4/3 371/1/3
f 341/2/4 347/3/4 124/4/4 127/1/4
f 221/2/3 35/3/3 228/4/3 220/1/3
f 210/4/5 209/1/5 207/2/5 208/3/5
f 223/1/6 225/2/6 224/3/6 222/4/6
f 198/2/3 204/3/3 203/4/3 197/1/3
f 64/1/2 66/4/2 65/3/2 63/2/2
f 415/1/6 417/2/6 416/3/6 414/4/6
f 456/2/4 459/3/4 331/4/4 330/1/4
f 101/4/5 100/1/5 98/2/5 99/3/5
f 30/1/1 29/2/1 27/3/1 28/4/1
f 286/1/6 234/2/6 235/3/6 285/4/6
f 222/1/6 224/2/6 230/3/6 229/4/6
f 420/2/4 418/3/4 419/4/4 281/1/4
f 91/1/1 90/2/1 94/3/1 95/4/1
f 277/2/3 284/3/3 413/4/3 412/1/3
f 40/1/1 39/2/1 43/3/1 44/4/1
f 457/2/4 456/3/4 330/4/4 326/1/4
f 445/4/5 444/1/5 442/2/5 443/3/5
f 16/2/4 13/3/4 14/4/4 15/1/4
f 4/1/1 3/2/1 1/3/1 2/4/1
f 65/1/2 217/4/2 216/3/2 215/2/2
f 340/1/6 285/2/6 287/3/6 342/4/6
f 451/1/2 453/4/2 452/3/2 450/2/2
f 170/1/1 169/2/1 167/3/1 168/4/1
f 435/2/3 439/3/3 438/4/3 434/1/3
f 119/1/1 139/2/1 153/3/1 121/4/1
f 396/2/4 407/3/4 408/4/4 397/1/4
f 466/4/5 465/1/5 463/2/5 464/3/5
f 461/2/4 467/3/4 332/4/4 334/1/4
