# Blender 5.0.1
# www.blender.org
mtllib BP_SH_SubDungeon_Door.mtl
o SM_StrongholdEyeDoor_PlaneCentre.001
v -50.305866 49.998985 306.842651
v 56.694141 49.999104 306.842560
v 56.694061 49.999992 199.842575
v -50.305943 49.999874 199.842651
v 56.693951 152.999985 199.843430
v -50.305981 152.998978 306.843506
v -50.306057 152.999878 199.843506
v 56.694027 152.999100 306.843445
vn -0.0000 1.0000 -0.0000
vn -0.0000 -1.0000 -0.0000
vt 1.000000 0.000000
vt 1.000000 0.500000
vt 0.500000 0.500000
vt 0.500000 0.000000
s 1
usemtl MI_CenterLock
f 4/1/1 1/2/1 2/3/1 3/4/1
f 8/3/2 6/2/2 7/1/2 5/4/2
