# Blender 5.0.1
# www.blender.org
mtllib BP_StoneDoor_lit_Blue.mtl
o SM_CryptDoor001.001
v 49.999607 150.000183 99.999985
v 49.999607 50.000160 0.000000
v 49.999607 50.000175 100.000000
v 49.999607 150.000153 -0.000016
v 149.999603 150.000183 99.999985
v 49.999607 150.000153 -0.000016
v 49.999607 150.000183 99.999985
v 149.999603 150.000153 -0.000016
v 149.999603 50.000175 100.000000
v 149.999603 150.000153 -0.000016
v 149.999603 150.000183 99.999985
v 149.999603 50.000160 0.000000
v 49.999607 50.000175 100.000000
v 149.999603 50.000160 0.000000
v 149.999603 50.000175 100.000000
v 49.999607 50.000160 0.000000
v 149.999603 50.000160 0.000000
v 49.999607 50.000160 0.000000
v 49.999607 150.000153 -0.000016
v 149.999603 150.000153 -0.000016
v 49.999607 150.000183 99.999985
v 49.999607 50.000175 100.000000
v 149.999603 150.000183 99.999985
v 149.999603 50.000175 100.000000
v 49.999607 150.000183 199.999985
v 49.999607 50.000195 200.000000
v 149.999603 150.000183 199.999985
v 49.999607 150.000183 199.999985
v 149.999603 50.000195 200.000000
v 149.999603 150.000183 199.999985
v 49.999607 50.000195 200.000000
v 149.999603 50.000195 200.000000
v 49.999607 150.000183 199.999985
v 49.999607 50.000195 200.000000
v 149.999603 150.000183 199.999985
v 149.999603 50.000195 200.000000
v 49.999607 150.000214 299.999969
v 49.999607 50.000210 300.000000
v 149.999603 150.000214 299.999969
v 49.999607 150.000214 299.999969
v 149.999603 50.000210 300.000000
v 149.999603 150.000214 299.999969
v 49.999607 50.000210 300.000000
v 149.999603 50.000210 300.000000
v 49.999607 150.000214 299.999969
v 49.999607 50.000210 300.000000
v 149.999603 150.000214 299.999969
v 149.999603 50.000210 300.000000
v 249.999603 150.000183 99.999985
v 249.999603 150.000153 -0.000016
v 249.999603 50.000175 100.000000
v 249.999603 150.000153 -0.000016
v 249.999603 150.000183 99.999985
v 249.999603 50.000160 0.000000
v 249.999603 50.000160 0.000000
v 249.999603 50.000175 100.000000
v 249.999603 50.000160 0.000000
v 249.999603 150.000153 -0.000016
v 249.999603 150.000183 99.999985
v 249.999603 50.000175 100.000000
v 249.999603 150.000183 199.999985
v 249.999603 50.000195 200.000000
v 249.999603 150.000183 199.999985
v 249.999603 50.000195 200.000000
v 249.999603 150.000183 199.999985
v 249.999603 50.000195 200.000000
v 249.999603 150.000214 299.999969
v 249.999603 50.000210 300.000000
v 249.999603 150.000214 299.999969
v 249.999603 50.000210 300.000000
v 249.999603 150.000214 299.999969
v 249.999603 50.000210 300.000000
v 349.999603 150.000183 99.999985
v 349.999603 150.000153 -0.000016
v 349.999603 50.000160 0.000000
v 349.999603 50.000175 100.000000
v 349.999603 50.000160 0.000000
v 349.999603 150.000153 -0.000016
v 349.999603 150.000183 99.999985
v 349.999603 50.000175 100.000000
v 349.999603 150.000183 199.999985
v 349.999603 50.000195 200.000000
v 349.999603 150.000183 99.999985
v 349.999603 150.000183 199.999985
v 349.999603 50.000175 100.000000
v 349.999603 50.000195 200.000000
v 349.999603 150.000183 199.999985
v 349.999603 50.000195 200.000000
v 349.999603 150.000214 299.999969
v 349.999603 50.000210 300.000000
v 349.999603 150.000214 299.999969
v 349.999603 50.000210 300.000000
v 349.999603 150.000214 299.999969
v 349.999603 50.000210 300.000000
v 349.999603 150.000183 99.999985
v 349.999603 50.000160 0.000000
v 349.999603 50.000175 100.000000
v 349.999603 150.000153 -0.000016
v 449.999603 150.000183 99.999985
v 449.999603 150.000153 -0.000016
v 449.999603 50.000175 100.000000
v 449.999603 150.000153 -0.000016
v 449.999603 150.000183 99.999985
v 449.999603 50.000160 0.000000
v 449.999603 50.000160 0.000000
v 449.999603 50.000175 100.000000
v 449.999603 50.000160 0.000000
v 449.999603 150.000153 -0.000016
v 449.999603 150.000183 99.999985
v 449.999603 50.000175 100.000000
v 449.999603 150.000183 199.999985
v 449.999603 50.000195 200.000000
v 449.999603 150.000183 199.999985
v 449.999603 50.000195 200.000000
v 449.999603 150.000183 199.999985
v 449.999603 50.000195 200.000000
v 449.999603 150.000214 299.999969
v 449.999603 50.000210 300.000000
v 449.999603 150.000214 299.999969
v 449.999603 50.000210 300.000000
v 449.999603 150.000214 299.999969
v 449.999603 50.000210 300.000000
v 49.999607 150.000214 349.999969
v 49.999607 50.000217 350.000000
v 149.999603 150.000214 349.999969
v 49.999607 150.000214 349.999969
v 149.999603 50.000217 350.000000
v 149.999603 150.000214 349.999969
v 49.999607 50.000217 350.000000
v 149.999603 50.000217 350.000000
v 49.999607 150.000214 349.999969
v 49.999607 50.000217 350.000000
v 149.999603 150.000214 349.999969
v 149.999603 50.000217 350.000000
vn -1.0000 -0.0000 -0.0000
vn -0.0000 1.0000 -0.0000
vn 1.0000 -0.0000 -0.0000
vn -0.0000 -1.0000 -0.0000
vn -0.0000 -0.0000 -1.0000
vn -0.0000 -0.0000 1.0000
vt 0.000031 0.750000
vt 0.250000 0.750000
vt 0.249878 0.999969
vt 0.000031 0.999969
vt 0.500000 0.500000
vt 0.750000 0.500000
vt 0.750000 0.750000
vt 0.500000 0.750000
vt 0.499756 0.999969
vt 0.250000 0.999969
vt 0.500000 0.999969
vt 0.000031 0.750000
vt 0.250000 0.500000
vt 0.500000 0.625000
vt 0.250000 0.625000
vt 0.499756 0.625000
s 1
usemtl MI_Crypt_MiniAtlas
f 8/1/2 6/2/2 7/3/2 5/4/2
f 74/5/2 50/6/2 49/7/2 73/8/2
f 55/5/4 75/6/4 76/7/4 56/8/4
f 1/2/1 3/8/1 26/9/1 25/10/1
f 36/2/6 35/8/6 33/11/6 34/10/6
f 27/1/2 28/2/2 40/3/2 39/4/2
f 49/5/2 5/6/2 27/7/2 61/8/2
f 88/2/6 87/8/6 65/11/6 66/10/6
f 54/2/3 52/8/3 53/11/3 51/10/3
f 98/2/1 96/8/1 97/9/1 95/10/1
f 108/7/5 107/8/5 77/5/5 78/6/5
f 112/12/3 113/2/3 119/10/3 118/4/3
f 13/2/4 15/8/4 32/11/4 31/10/4
f 25/1/1 26/2/1 38/3/1 37/4/1
f 48/12/6 47/2/6 45/10/6 46/4/6
f 16/12/4 14/2/4 15/10/4 13/4/4
f 4/1/1 2/2/1 3/3/1 1/4/1
f 12/2/3 10/8/3 11/11/3 9/10/3
f 58/7/5 57/8/5 17/5/5 20/6/5
f 5/2/2 7/8/2 28/9/2 27/10/2
f 73/5/2 49/6/2 61/7/2 81/8/2
f 85/2/3 83/8/3 84/11/3 82/10/3
f 110/2/6 109/8/6 79/11/6 80/10/6
f 100/5/2 74/6/2 73/7/2 99/8/2
f 76/5/4 106/6/4 114/7/4 86/8/4
f 32/12/4 64/2/4 70/10/4 44/4/4
f 29/2/3 30/8/3 42/11/3 41/10/3
f 72/12/6 71/2/6 47/10/6 48/4/6
f 66/2/6 65/8/6 35/11/6 36/10/6
f 24/2/6 23/8/6 21/11/6 22/10/6
f 31/12/4 32/2/4 44/10/4 43/4/4
f 101/5/3 103/6/3 113/7/3 112/8/3
f 61/1/2 27/2/2 39/3/2 67/4/2
f 75/5/4 105/6/4 106/7/4 76/8/4
f 80/2/6 79/8/6 59/11/6 60/10/6
f 78/7/5 77/8/5 57/5/5 58/6/5
f 9/2/3 11/8/3 30/11/3 29/10/3
f 60/2/6 59/8/6 23/11/6 24/10/6
f 62/2/3 63/8/3 69/11/3 68/10/3
f 104/5/3 102/6/3 103/7/3 101/8/3
f 81/1/2 61/2/2 67/3/2 89/4/2
f 14/5/4 55/6/4 56/7/4 15/8/4
f 94/12/6 93/2/6 71/10/6 72/4/6
f 122/12/6 121/2/6 93/10/6 94/4/6
f 64/12/4 86/2/4 92/10/4 70/4/4
f 56/5/4 76/6/4 86/7/4 64/8/4
f 15/5/4 56/6/4 64/7/4 32/8/4
f 43/13/4 44/5/4 130/14/4 129/15/4
f 50/5/2 8/6/2 5/7/2 49/8/2
f 51/2/3 53/8/3 63/11/3 62/10/3
f 99/5/2 73/6/2 81/7/2 111/8/2
f 39/13/2 40/5/2 126/16/2 125/15/2
f 41/13/3 42/5/3 128/14/3 127/15/3
f 116/2/6 115/8/6 87/11/6 88/10/6
f 86/12/4 114/2/4 120/10/4 92/4/4
f 82/2/3 84/8/3 91/11/3 90/10/3
f 37/13/1 38/5/1 124/16/1 123/15/1
f 111/1/2 81/2/2 89/3/2 117/4/2
f 20/11/5 17/10/5 18/2/5 19/8/5
f 134/13/6 133/5/6 131/8/6 132/2/6
