# Blender 5.0.1
# www.blender.org
mtllib BP_SBuoyBlue.mtl
o SM_SmallBuoyCluster.001
v -37.500000 37.500046 275.000000
v -37.500000 -37.499966 200.000015
v -37.500000 -37.499954 275.000000
v -37.500000 37.500034 200.000000
v 37.500000 37.500046 275.000000
v -37.500000 37.500034 200.000000
v -37.500000 37.500046 275.000000
v 37.500000 37.500034 200.000000
v 37.500000 -37.499954 275.000000
v 37.500000 37.500034 200.000000
v 37.500000 37.500046 275.000000
v 37.500000 -37.499966 200.000015
v -37.500000 -37.499954 275.000000
v 37.500000 -37.499966 200.000015
v 37.500000 -37.499954 275.000000
v -37.500000 -37.499966 200.000015
v 37.500000 -37.499966 200.000015
v -37.500000 -37.499966 200.000015
v -37.500000 37.500034 200.000000
v 37.500000 37.500034 200.000000
v -37.500000 37.500046 275.000000
v -37.500000 -37.499954 275.000000
v 37.500000 37.500046 275.000000
v 37.500000 -37.499954 275.000000
v 0.000001 -18.749960 250.000015
v 0.000001 -18.750000 0.000003
v -0.000001 18.750040 250.000015
v -0.000001 18.750000 -0.000003
v -0.000001 18.750053 325.000000
v 0.000001 -18.749947 325.000000
v 0.000001 -18.749956 275.000000
v -0.000001 18.750044 275.000000
v 18.750000 0.000042 250.000015
v 18.750000 0.000001 0.000018
v -18.750000 0.000039 250.000015
v -18.750000 -0.000001 0.000018
v 12.499999 -24.999977 150.000000
v 12.499999 -74.999985 100.000015
v 12.499999 -74.999977 150.000015
v 12.499999 -24.999985 100.000008
v 62.500004 -24.999977 150.000000
v 12.499999 -24.999985 100.000008
v 12.499999 -24.999977 150.000000
v 62.500004 -24.999985 100.000008
v 62.500004 -74.999977 150.000015
v 62.500004 -24.999985 100.000008
v 62.500004 -24.999977 150.000000
v 62.500004 -74.999985 100.000015
v 12.499999 -74.999977 150.000015
v 62.500004 -74.999985 100.000015
v 62.500004 -74.999977 150.000015
v 12.499999 -74.999985 100.000015
v 62.500004 -74.999985 100.000015
v 12.499999 -74.999985 100.000015
v 12.499999 -24.999985 100.000008
v 62.500004 -24.999985 100.000008
v 12.499999 -24.999977 150.000000
v 12.499999 -74.999977 150.000015
v 62.500004 -24.999977 150.000000
v 62.500004 -74.999977 150.000015
v 56.250000 -50.000000 0.000026
v 18.750000 -49.999985 102.430382
v 56.250000 -49.999985 102.430382
v 18.750000 -50.000000 0.000026
v 37.500000 -68.749985 102.430389
v 37.500000 -31.250002 0.000005
v 37.500000 -31.249985 102.430405
v 37.500000 -68.750000 0.000011
v -62.500004 75.000023 149.999985
v -62.500004 25.000017 100.000000
v -62.500004 25.000025 150.000000
v -62.500004 75.000015 99.999992
v -12.499999 75.000023 149.999985
v -62.500004 75.000015 99.999992
v -62.500004 75.000023 149.999985
v -12.499999 75.000015 99.999992
v -12.499999 25.000025 150.000000
v -12.499999 75.000015 99.999992
v -12.499999 75.000023 149.999985
v -12.499999 25.000017 100.000000
v -62.500004 25.000025 150.000000
v -12.499999 25.000017 100.000000
v -12.499999 25.000025 150.000000
v -62.500004 25.000017 100.000000
v -12.499999 25.000017 100.000000
v -62.500004 25.000017 100.000000
v -62.500004 75.000015 99.999992
v -12.499999 75.000015 99.999992
v -62.500004 75.000023 149.999985
v -62.500004 25.000025 150.000000
v -12.499999 75.000023 149.999985
v -12.499999 25.000025 150.000000
v -37.500000 31.250021 125.000000
v -37.500000 31.250002 -0.000005
v -37.500000 68.750023 124.999992
v -37.500000 68.750000 -0.000011
v -18.750000 50.000023 125.000008
v -18.750000 50.000000 0.000010
v -56.250000 50.000023 125.000008
v -56.250000 50.000000 0.000010
v 32.380299 -53.584824 200.000015
v 32.380299 -53.584824 187.500015
v 37.500000 -49.999969 200.000015
v 37.500000 -49.999969 187.500015
v 52.859100 -39.245411 200.000015
v 52.859100 -39.245411 187.500000
v 37.500000 -49.999973 175.000015
v 52.859100 -39.245415 175.000015
v 37.500000 -49.999973 162.500015
v 52.859100 -39.245415 162.500015
v 37.500000 -49.999977 150.000015
v 52.859100 -39.245419 150.000000
v -37.500000 43.750034 187.500000
v -37.500000 31.250032 187.500000
v -37.500000 31.250031 175.000000
v -37.500000 43.750031 175.000000
v -37.500000 31.250029 162.500000
v -37.500000 43.750031 162.500000
v -37.500000 31.250027 150.000000
v -37.500000 43.750027 150.000000
vn -1.0000 -0.0000 -0.0000
vn -0.0000 1.0000 -0.0000
vn 1.0000 -0.0000 -0.0000
vn -0.0000 -1.0000 -0.0000
vn -0.0000 -0.0000 -1.0000
vn -0.0000 -0.0000 1.0000
vn 0.5736 -0.8192 -0.0000
vt 0.125000 0.031250
vt 0.125000 0.000000
vt 0.156250 0.000000
vt 0.156250 0.031250
vt 0.109375 0.062500
vt 0.109375 0.109375
vt 0.062500 0.109375
vt 0.062500 0.062500
vt 0.031250 0.015625
vt 0.031250 0.023438
vt 0.023438 0.023438
vt 0.023438 0.015625
vt 0.023438 0.000000
vt 0.023438 0.152344
vt -0.000031 0.152344
vt -0.000031 0.000000
vt 0.023438 0.062500
vt 0.000031 0.062500
vt 0.031250 0.007812
vt 0.023438 0.007812
vt 0.035156 0.023438
vt 0.035156 0.031250
vt 0.031250 0.031250
vt 0.046875 0.000000
vt 0.046875 0.007812
vt 0.035156 0.007812
vt 0.035156 0.000000
vt 0.046875 0.031250
vt 0.023438 0.031250
vt 0.023438 0.076172
vt 0.000031 0.076172
vt 0.046875 0.023438
vt 0.046875 0.015625
vt 0.035156 0.015625
vt 0.031250 0.000000
s 1
usemtl Mi_Buoy
f 72/1/1 70/2/1 71/3/1 69/4/1
f 20/5/5 17/6/5 18/7/5 19/8/5
f 116/9/3 113/10/3 114/11/3 115/12/3
f 36/13/2 35/14/2 33/15/2 34/16/2
f 64/13/2 62/17/2 63/18/2 61/16/2
f 76/1/2 74/2/2 75/3/2 73/4/2
f 80/1/3 78/2/3 79/3/3 77/4/3
f 12/7/3 10/8/3 11/5/3 9/6/3
f 84/1/4 82/2/4 83/3/4 81/4/4
f 28/13/3 27/14/3 25/15/3 26/16/3
f 118/19/3 116/9/3 115/12/3 117/20/3
f 40/1/1 38/2/1 39/3/1 37/4/1
f 44/1/2 42/2/2 43/3/2 41/4/2
f 92/1/6 91/2/6 89/3/6 90/4/6
f 16/7/4 14/8/4 15/5/4 13/6/4
f 104/21/7 103/22/7 101/23/7 102/10/7
f 112/24/7 110/25/7 109/26/7 111/27/7
f 48/1/3 46/2/3 47/3/3 45/4/3
f 8/7/2 6/8/2 7/5/2 5/6/2
f 32/24/3 29/28/3 30/29/3 31/13/3
f 24/7/6 23/8/6 21/5/6 22/6/6
f 60/1/6 59/2/6 57/3/6 58/4/6
f 100/13/2 99/30/2 97/31/2 98/16/2
f 56/3/5 53/4/5 54/1/5 55/2/5
f 52/1/4 50/2/4 51/3/4 49/4/4
f 96/13/3 95/30/3 93/31/3 94/16/3
f 106/32/7 105/28/7 103/22/7 104/21/7
f 88/3/5 85/4/5 86/1/5 87/2/5
f 108/33/7 106/32/7 104/21/7 107/34/7
f 120/35/3 118/19/3 117/20/3 119/13/3
f 4/7/1 2/8/1 3/5/1 1/6/1
f 68/16/3 66/13/3 67/17/3 65/18/3
f 110/25/7 108/33/7 107/34/7 109/26/7
