# Blender 5.0.1
# www.blender.org
mtllib BP_SingleCoralTrigger.mtl
o SM__RR_Flora_Blue.001
v 35.355343 35.355343 0.000012
v 35.355312 35.355343 100.000015
v -30.935940 -30.935928 99.999992
v -30.935907 -30.935926 -0.000010
v 35.355354 -35.355331 0.000010
v 35.355324 -35.355335 100.000008
v -30.935949 30.935915 99.999992
v -30.935919 30.935917 -0.000009
vn 0.7071 -0.7071 -0.0000
vn -0.7071 -0.7071 -0.0000
vt 0.500977 0.000000
vt 0.750000 0.000000
vt 0.750000 0.250000
vt 0.500977 0.250000
s 1
usemtl Mi_RR_Flora_Blue
f 8/1/2 5/2/2 6/3/2 7/4/2
f 4/1/1 1/2/1 2/3/1 3/4/1
