# Blender 5.0.1
# www.blender.org
mtllib BP_ST_Branch_2.mtl
o SM_ST_Branch_2_Foliage.001
v -500.000000 1012.500061 499.999847
v -400.000000 1012.500061 499.999847
v -500.000000 1012.500061 399.999847
v -400.000000 1012.500061 399.999847
v -712.500000 900.000061 499.999847
v -712.500000 1000.000061 499.999847
v -712.500000 1000.000061 399.999847
v -712.500000 900.000061 399.999847
v -400.000000 1212.500122 499.999817
v -300.000000 1212.500122 499.999817
v -300.000000 1212.500122 399.999817
v -400.000000 1212.500122 399.999817
v -712.500000 1000.000061 299.999847
v -712.500000 900.000061 299.999847
v -412.500000 1200.000122 499.999817
v -412.500000 1100.000122 399.999817
v -412.500000 1100.000122 499.999817
v -412.500000 1200.000122 399.999817
v -500.000000 1012.500061 299.999847
v -400.000000 1012.500061 299.999847
v -500.000000 1012.500061 199.999832
v -400.000000 1012.500061 199.999832
v -500.000000 1012.500000 99.999832
v -400.000000 1012.500000 99.999832
v -412.500000 1100.000000 299.999817
v -412.500000 1200.000000 299.999817
v -412.500000 1100.000000 199.999817
v -412.500000 1200.000000 199.999802
v -412.500000 1100.000000 99.999825
v -412.500000 1200.000000 99.999802
vn -0.0000 1.0000 -0.0000
vn -1.0000 -0.0000 -0.0000
vt 1.000000 0.666748
vt 1.000000 0.999969
vt 0.666504 0.999969
vt 0.666504 0.666748
s 1
usemtl M_FSetpieceFoliage_PF
f 12/1/1 9/2/1 10/3/1 11/4/1
f 4/3/1 20/4/1 19/1/1 3/2/1
f 18/2/2 16/3/2 17/4/2 15/1/2
f 2/3/1 4/4/1 3/1/1 1/2/1
f 8/1/2 5/2/2 6/3/2 7/4/2
f 28/2/2 27/3/2 25/4/2 26/1/2
f 14/1/2 8/2/2 7/3/2 13/4/2
f 20/3/1 22/4/1 21/1/1 19/2/1
f 30/2/2 29/3/2 27/4/2 28/1/2
f 26/2/2 25/3/2 16/4/2 18/1/2
f 22/3/1 24/4/1 23/1/1 21/2/1
