# Blender 5.0.1
# www.blender.org
mtllib BP_SupportBeam_FF_LargeT.mtl
o SK_Lantern.001
v -18.749752 122.634354 248.658020
v -18.749680 159.640686 254.722839
v -18.749660 168.737900 199.213348
v -18.749733 131.731567 193.148529
v 18.750246 122.634277 248.658020
v -18.749680 159.640686 254.722839
v -18.749752 122.634354 248.658020
v 18.750319 159.640610 254.722839
v 18.750265 131.731506 193.148529
v 18.750338 168.737823 199.213348
v 18.750319 159.640610 254.722839
v 18.750246 122.634277 248.658020
v -18.749733 131.731567 193.148529
v -18.749660 168.737900 199.213348
v 18.750338 168.737823 199.213348
v 18.750265 131.731506 193.148529
v -18.749752 122.634354 248.658020
v -18.749733 131.731567 193.148529
v 18.750246 122.634277 248.658020
v 18.750265 131.731506 193.148529
v -18.749680 159.640686 254.722839
v 18.750338 168.737823 199.213348
v -18.749660 168.737900 199.213348
v 18.750319 159.640610 254.722839
v 3.125278 137.328796 276.395172
v 9.375277 136.552521 282.596802
v 9.375278 137.328781 276.395172
v 3.125277 136.552536 282.596802
v -3.124722 137.328812 276.395172
v 9.375276 135.776245 288.798401
v -3.124723 136.552536 282.596802
v 3.125275 135.776260 288.798401
v -9.374722 137.328827 276.395172
v 9.375274 134.999985 295.000000
v -9.374723 136.552551 282.596802
v 3.125274 135.000000 295.000000
v -3.124725 135.776276 288.798401
v 9.375272 134.223709 301.201599
v -9.374724 135.776291 288.798401
v 3.125272 134.223724 301.201599
v -3.124726 135.000000 295.000000
v -9.374726 135.000015 295.000000
v -3.124728 134.223740 301.201599
v -9.374728 134.223755 301.201599
v 3.125286 141.137466 251.690414
v 9.375283 140.126663 257.858154
v 9.375286 141.137466 251.690414
v 3.125284 140.126678 257.858154
v -3.124714 141.137482 251.690414
v 9.375281 139.115860 264.025848
v -3.124716 140.126678 257.858154
v 3.125282 139.115875 264.025848
v -9.374714 141.137497 251.690414
v 9.375279 138.105057 270.193573
v -9.374717 140.126694 257.858154
v 3.125280 138.105072 270.193573
v -3.124718 139.115875 264.025848
v 9.375278 137.094254 276.361298
v -9.374719 139.115891 264.025848
v 3.125278 137.094269 276.361298
v -3.124720 138.105072 270.193573
v -9.374721 138.105087 270.193573
v -3.124722 137.094269 276.361298
v -9.374722 137.094284 276.361298
v 0.000275 135.780533 263.603851
v 0.000261 128.802673 269.029175
v 0.000263 129.578934 262.827576
v 0.000273 135.004272 269.805450
v 0.000287 141.982147 264.380127
v 0.000260 128.026398 275.230774
v 0.000285 141.205872 270.581726
v 0.000272 134.227997 276.007050
v 0.000299 148.183746 265.156372
v 0.000258 127.250130 281.432404
v 0.000297 147.407486 271.358002
v 0.000270 133.451736 282.208649
v 0.000284 140.429611 276.783325
v 0.000256 126.473862 287.634003
v 0.000296 146.631210 277.559601
v 0.000269 132.675461 288.410278
v 0.000282 139.653336 282.984924
v 0.000294 145.854950 283.761200
v 0.000281 138.877075 289.186523
v 0.000293 145.078674 289.962799
vn -1.0000 -0.0000 -0.0000
vn -0.0000 -0.1617 0.9868
vn 1.0000 -0.0000 -0.0000
vn -0.0000 0.1617 -0.9868
vn -0.0000 -0.9868 -0.1617
vn -0.0000 0.9868 0.1617
vn -0.0000 0.9923 0.1242
vt 0.031250 0.593750
vt 0.031235 0.562500
vt 0.062469 0.562500
vt 0.062500 0.593750
vt 0.000031 0.562500
vt 0.000031 0.531250
vt 0.031250 0.531250
vt 0.062500 0.656250
vt 0.062500 0.625000
vt 0.093750 0.625000
vt 0.093750 0.656250
vt 0.000031 0.593750
vt 0.093750 0.593750
vt 0.062500 0.500000
vt 0.062500 0.468750
vt 0.093750 0.468750
vt 0.093750 0.500000
vt 0.093750 0.687500
vt 0.312500 0.468750
vt 0.312500 0.687500
vt 0.000031 0.656250
vt 0.000031 0.625000
vt 0.031250 0.625000
vt 0.031250 0.656250
vt 0.531250 0.469238
vt 0.531250 0.687500
vt 0.312500 0.469238
vt 0.062469 0.687500
vt 0.062500 0.531250
vt 0.093750 0.531250
vt 0.093750 0.562500
vt 0.375000 0.687500
vt 0.562500 0.687500
vt 0.562500 0.999969
vt 0.375000 0.999969
vt 0.000031 0.687500
vt 0.031235 0.687500
vt 0.000031 0.999969
vt 0.000031 0.687500
vt 0.187378 0.687500
vt 0.187500 0.999969
vt 0.000031 0.500000
vt 0.031250 0.500000
vt 0.187378 0.999969
vt 0.000031 0.468750
vt 0.000031 0.437500
vt 0.031235 0.437500
vt 0.031250 0.468750
vt 0.749512 0.687500
vt 0.750000 0.999969
vt 0.062469 0.437500
vt 0.093750 0.437500
s 1
usemtl M_Lantern_RedFire
f 41/1/7 43/2/7 40/3/7 36/4/7
f 73/5/3 75/6/3 71/7/3 69/2/3
f 48/8/6 52/9/6 50/10/6 46/11/6
f 42/12/7 44/5/7 43/2/7 41/1/7
f 32/9/7 36/4/7 34/13/7 30/10/7
f 72/14/3 76/15/3 74/16/3 70/17/3
f 28/8/7 32/9/7 30/10/7 26/11/7
f 8/18/2 6/16/2 7/19/2 5/20/2
f 35/21/7 39/22/7 37/23/7 31/24/7
f 16/25/4 13/26/4 14/20/4 15/27/4
f 45/28/6 48/8/6 46/11/6 47/18/6
f 59/22/6 62/12/6 61/1/6 57/23/6
f 68/29/3 72/14/3 70/17/3 66/30/3
f 52/9/6 56/4/6 54/13/6 50/10/6
f 56/4/6 60/3/6 58/31/6 54/13/6
f 18/32/5 20/33/5 19/34/5 17/35/5
f 53/36/6 55/21/6 51/24/6 49/37/6
f 29/37/7 31/24/7 28/8/7 25/28/7
f 62/12/6 64/5/6 63/2/6 61/1/6
f 49/37/6 51/24/6 48/8/6 45/28/6
f 33/36/7 35/21/7 31/24/7 29/37/7
f 24/38/6 22/39/6 23/40/6 21/41/6
f 39/22/7 42/12/7 41/1/7 37/23/7
f 65/3/3 68/29/3 66/30/3 67/31/3
f 36/4/7 40/3/7 38/31/7 34/13/7
f 75/6/3 79/42/3 77/43/3 71/7/3
f 4/32/1 1/35/1 2/44/1 3/40/1
f 61/1/6 63/2/6 60/3/6 56/4/6
f 69/2/3 71/7/3 68/29/3 65/3/3
f 55/21/6 59/22/6 57/23/6 51/24/6
f 82/45/3 84/46/3 83/47/3 81/48/3
f 25/28/7 28/8/7 26/11/7 27/18/7
f 12/34/3 9/33/3 10/49/3 11/50/3
f 76/15/3 80/51/3 78/52/3 74/16/3
f 79/42/3 82/45/3 81/48/3 77/43/3
f 81/48/3 83/47/3 80/51/3 76/15/3
