# Blender 5.0.1
# www.blender.org
mtllib BP_SupprtBeam.mtl
o SM_SupportBeam.001
v -187.500000 -37.500008 162.500000
v -187.500000 -37.500011 237.500000
v -200.000000 -37.500011 237.500000
v -200.000000 -37.500008 162.500000
v -187.500000 -37.500008 162.500000
v -187.500000 37.499992 162.500000
v -187.500000 -37.500011 237.500000
v -187.500000 37.499989 237.500000
v -200.000000 37.499992 162.500000
v -187.500000 37.499989 237.500000
v -187.500000 37.499992 162.500000
v -200.000000 37.499989 237.500000
v -187.500000 37.499992 162.500000
v -187.500000 -37.500008 162.500000
v -200.000000 -37.500008 162.500000
v -200.000000 37.499992 162.500000
v -187.500000 -37.500011 237.500000
v -200.000000 37.499989 237.500000
v -200.000000 -37.500011 237.500000
v -187.500000 37.499989 237.500000
v 37.500000 -37.500000 12.499998
v -37.500000 -37.500000 12.499998
v -37.500000 -37.500000 -0.000002
v 37.500000 -37.500000 -0.000002
v 37.500000 -37.500000 12.499998
v 37.500000 37.500000 12.500002
v -37.500000 -37.500000 12.499998
v -37.500000 37.500000 12.500002
v 37.500000 37.500000 0.000002
v -37.500000 37.500000 0.000002
v -37.500000 37.500000 12.500002
v 37.500000 37.500000 12.500002
v 37.500000 37.500000 12.500002
v 37.500000 -37.500000 12.499998
v 37.500000 -37.500000 -0.000002
v 37.500000 37.500000 0.000002
v -37.500000 -37.500000 12.499998
v -37.500000 37.500000 0.000002
v -37.500000 -37.500000 -0.000002
v -37.500000 37.500000 12.500002
v -49.371849 -12.500006 79.549522
v -120.082535 -12.500008 150.260208
v -67.049522 -12.500005 61.871849
v -137.760208 -12.500007 132.582535
v -187.499985 -12.500009 182.322311
v -187.500000 -12.500010 217.677673
v -120.082535 12.499994 150.260208
v -187.499985 12.499991 217.677689
v -120.082535 -12.500008 150.260208
v 17.677671 -12.500002 12.499999
v -17.677666 -12.500003 12.499999
v -49.371857 12.499997 79.549530
v -17.677668 12.499998 12.500003
v -67.049530 12.499996 61.871857
v 17.677675 12.500000 12.499998
v -120.082535 12.499994 150.260208
v -137.760208 12.499993 132.582535
v -187.499985 12.499991 217.677689
v -187.499985 12.499991 182.322311
v -49.371857 12.499997 79.549530
v -49.371849 -12.500006 79.549522
v 17.677675 12.500000 12.499998
v 17.677671 -12.500002 12.499999
v -137.760208 -12.500007 132.582535
v -67.049530 12.499996 61.871857
v -67.049522 -12.500005 61.871849
v -137.760208 12.499993 132.582535
v -187.499985 -12.500009 182.322311
v -187.499985 12.499991 182.322311
v -17.677668 12.499998 12.500003
v -17.677666 -12.500003 12.499999
vn -0.0000 -1.0000 -0.0000
vn 1.0000 -0.0000 -0.0000
vn -0.0000 1.0000 -0.0000
vn -0.0000 -0.0000 -1.0000
vn -0.0000 -0.0000 1.0000
vn -1.0000 -0.0000 -0.0000
vn 0.6324 -0.4472 0.6324
vn 0.7071 -0.0000 0.7071
vn -0.7071 -0.0000 -0.7071
vt 0.937500 0.625000
vt 0.937500 0.937500
vt 0.875000 0.937500
vt 0.875000 0.625000
vt 0.875000 0.999969
vt 0.562500 0.999969
vt 0.562500 0.937500
vt 0.562500 0.625000
vt 0.500000 0.250000
vt 0.500000 0.750000
vt 0.375000 0.750000
vt 0.375000 0.250000
vt 0.500000 0.937500
vt 0.500000 0.625000
vt 0.562500 0.562500
vt 0.875000 0.562500
vt 0.250000 0.750000
vt 0.250000 0.250000
vt 0.125000 0.500000
vt 0.250000 0.500000
vt 0.125000 0.851807
vt 0.250000 0.976715
vt 0.125000 0.151367
vt 0.250000 0.026367
vt 0.500000 0.500000
vt 0.375000 0.500000
vt 0.500000 0.151367
vt 0.375000 0.026367
vt 0.500000 0.851807
vt 0.375000 0.976715
vt 0.000031 0.500000
vt 0.000031 0.151367
vt 0.125000 0.250000
vt 0.125000 0.750000
vt -0.000031 0.750000
vt 0.000031 0.250000
vt 0.000031 0.851807
s 1
usemtl MI_SupportBeams
f 15/1/4 16/2/4 13/3/4 14/4/4
f 35/1/2 36/2/2 33/3/2 34/4/2
f 32/3/3 29/5/3 30/6/3 31/7/3
f 8/7/2 7/8/2 5/4/2 6/3/2
f 67/9/9 65/10/9 66/11/9 64/12/9
f 20/7/5 18/13/5 19/14/5 17/8/5
f 3/15/1 4/16/1 1/4/1 2/8/1
f 44/12/1 43/11/1 41/17/1 42/18/1
f 12/6/3 10/7/3 11/3/3 9/5/3
f 28/7/5 27/8/5 25/4/5 26/3/5
f 24/16/1 21/4/1 22/8/1 23/15/1
f 44/19/1 42/20/1 45/21/1
f 46/22/7 45/21/1 42/20/1
f 51/23/1 50/24/1 41/20/1
f 43/19/1 51/23/1 41/20/1
f 54/25/3 52/26/3 53/27/3
f 55/28/3 53/27/3 52/26/3
f 40/7/6 38/13/6 39/14/6 37/8/6
f 59/29/3 58/30/3 56/26/3
f 57/25/3 59/29/3 56/26/3
f 60/26/8 61/20/8 63/24/8 62/28/8
f 65/31/9 70/32/9 71/23/9 66/19/9
f 47/33/8 49/18/8 61/17/8 60/34/8
f 52/34/3 54/35/3 57/36/3 56/33/3
f 49/20/8 47/26/8 48/30/8 46/22/7
f 69/37/9 67/31/9 64/19/9 68/21/9
