# Blender 5.0.1
# www.blender.org
mtllib BP_Stalactite_002.mtl
o SM_Stalactite_002.001
v 49.999996 -50.000008 0.000019
v -50.000004 -50.000000 0.000019
v 49.999996 -50.000000 -99.999992
v -50.000004 -49.999992 -99.999992
v -50.000004 -50.000000 0.000019
v -49.999996 50.000008 -99.999985
v -50.000004 -49.999992 -99.999992
v -49.999996 50.000000 0.000027
v -49.999996 50.000000 0.000027
v 50.000004 49.999992 0.000027
v -49.999996 50.000008 -99.999985
v 50.000004 50.000000 -99.999985
v 50.000004 49.999992 0.000027
v 49.999996 -50.000008 0.000019
v 50.000004 50.000000 -99.999985
v 49.999996 -50.000000 -99.999992
v 49.999996 -49.999992 -200.000000
v -50.000004 -49.999985 -200.000000
v -50.000004 -49.999985 -200.000000
v -49.999996 50.000015 -200.000000
v -49.999996 50.000015 -200.000000
v 50.000004 50.000008 -200.000000
v 49.999996 -49.999992 -200.000000
v 50.000004 50.000008 -200.000000
v -25.000002 -24.999916 -299.999756
v 24.999998 -24.999958 -199.999878
v -25.000084 -24.999950 -199.999878
v 24.999998 -24.999920 -299.999756
v -24.999998 25.000046 -199.999878
v -25.000002 -24.999916 -299.999756
v -25.000084 -24.999950 -199.999878
v -24.999998 25.000084 -299.999756
v 25.000002 25.000042 -199.999878
v 25.000002 25.000080 -299.999756
v -24.999998 25.000046 -199.999878
v -24.999998 25.000084 -299.999756
v 24.999998 -24.999958 -199.999878
v 24.999998 -24.999920 -299.999756
v 25.000002 25.000042 -199.999878
v 25.000002 25.000080 -299.999756
v 12.499999 -12.499787 -399.999756
v -12.500001 -12.499785 -399.999756
v 12.500001 12.500213 -399.999756
v -12.499999 12.500215 -399.999756
v 12.499999 -12.499787 -399.999756
v 12.499999 -12.499857 -299.999756
v -12.500001 -12.499855 -299.999756
v -12.500001 -12.499785 -399.999756
v -12.500001 -12.499785 -399.999756
v -12.500001 -12.499855 -299.999756
v -12.499999 12.500145 -299.999756
v -12.499999 12.500215 -399.999756
v -12.499999 12.500215 -399.999756
v -12.499999 12.500145 -299.999756
v 12.500001 12.500143 -299.999756
v 12.500001 12.500213 -399.999756
v 12.500001 12.500143 -299.999756
v 12.499999 -12.499787 -399.999756
v 12.500001 12.500213 -399.999756
v 12.499999 -12.499857 -299.999756
v 50.000004 49.999992 0.000027
v -49.999996 50.000000 0.000027
v 49.999996 -50.000008 0.000019
v -50.000004 -50.000000 0.000019
v 25.000002 25.000080 -299.999756
v 24.999998 -24.999920 -299.999756
v 12.499999 -12.499857 -299.999756
v -25.000002 -24.999916 -299.999756
v 12.500001 12.500143 -299.999756
v -12.500001 -12.499855 -299.999756
v -24.999998 25.000084 -299.999756
v -12.499999 12.500145 -299.999756
v -25.000084 -24.999950 -199.999878
v -49.999996 50.000015 -200.000000
v -24.999998 25.000046 -199.999878
v 25.000002 25.000042 -199.999878
v -50.000004 -49.999985 -200.000000
v 50.000004 50.000008 -200.000000
v 24.999998 -24.999958 -199.999878
v 49.999996 -49.999992 -200.000000
vn -0.0000 -1.0000 -0.0000
vn -1.0000 -0.0000 -0.0000
vn -0.0000 1.0000 -0.0000
vn 1.0000 -0.0000 -0.0000
vn -0.0000 -0.0000 -1.0000
vn -0.0000 -0.0000 1.0000
vt 0.500000 0.500000
vt 0.500000 0.750000
vt 0.250000 0.750000
vt 0.250000 0.500000
vt 0.406250 0.593750
vt 0.406250 0.656250
vt 0.343750 0.656250
vt 0.343750 0.593750
vt 0.312500 0.750000
vt 0.312500 0.500000
vt 0.437500 0.500000
vt 0.437500 0.750000
vt 0.406250 0.500000
vt 0.406250 0.750000
vt 0.343750 0.750000
vt 0.343750 0.500000
vt 0.312500 0.687500
vt 0.312500 0.562500
vt 0.437500 0.562500
vt 0.437500 0.687500
s 1
usemtl MI_End_MeshFades
f 12/1/3 22/2/3 21/3/3 11/4/3
f 14/1/4 16/2/4 15/3/4 13/4/4
f 42/5/5 44/6/5 43/7/5 41/8/5
f 10/1/3 12/2/3 11/3/3 9/4/3
f 36/9/3 35/10/3 33/11/3 34/12/3
f 40/9/4 39/10/4 37/11/4 38/12/4
f 8/1/2 6/2/2 7/3/2 5/4/2
f 6/1/2 20/2/2 19/3/2 7/4/2
f 51/13/2 52/14/2 49/15/2 50/16/2
f 16/1/4 23/2/4 24/3/4 15/4/4
f 28/9/1 26/10/1 27/11/1 25/12/1
f 4/1/1 18/2/1 17/3/1 3/4/1
f 2/1/1 4/2/1 3/3/1 1/4/1
f 60/13/4 58/14/4 59/15/4 57/16/4
f 47/13/1 48/14/1 45/15/1 46/16/1
f 32/12/2 30/9/2 31/10/2 29/11/2
f 55/13/3 56/14/3 53/15/3 54/16/3
f 67/8/5 65/17/5 66/18/5
f 67/8/5 66/18/5 68/19/5
f 69/7/5 65/17/5 67/8/5
f 70/5/5 67/8/5 68/19/5
f 65/17/5 69/7/5 71/20/5
f 70/5/5 68/19/5 71/20/5
f 72/6/5 71/20/5 69/7/5
f 72/6/5 70/5/5 71/20/5
f 75/20/5 73/19/5 74/2/5
f 75/20/5 74/2/5 76/17/5
f 77/1/5 74/2/5 73/19/5
f 76/17/5 74/2/5 78/3/5
f 73/19/5 79/18/5 77/1/5
f 76/17/5 78/3/5 79/18/5
f 79/18/5 80/4/5 77/1/5
f 79/18/5 78/3/5 80/4/5
f 62/3/6 64/4/6 63/1/6 61/2/6
