# Blender 5.0.1
# www.blender.org
mtllib BP_Spider_Succulent.mtl
o SM_Spider__SucculentStem.001
v -50.000000 50.000015 99.999992
v -50.000000 -50.000000 0.000008
v -50.000000 -49.999985 100.000008
v -50.000000 50.000000 -0.000008
v 50.000000 50.000015 99.999992
v -50.000000 50.000000 -0.000008
v -50.000000 50.000015 99.999992
v 50.000000 50.000000 -0.000008
v 50.000000 -49.999985 100.000008
v 50.000000 50.000000 -0.000008
v 50.000000 50.000015 99.999992
v 50.000000 -50.000000 0.000008
v -50.000000 -49.999985 100.000008
v 50.000000 -50.000000 0.000008
v 50.000000 -49.999985 100.000008
v -50.000000 -50.000000 0.000008
v 50.000000 -50.000000 0.000008
v -50.000000 -50.000000 0.000008
v -50.000000 50.000000 -0.000008
v 50.000000 50.000000 -0.000008
v -50.000000 50.000015 99.999992
v -50.000000 -49.999985 100.000008
v 50.000000 50.000015 99.999992
v 50.000000 -49.999985 100.000008
v 25.000000 -79.054993 112.308670
v -25.000000 -49.999992 50.000008
v -25.000000 -79.054993 112.308670
v 25.000000 -49.999992 50.000008
v -25.000000 -92.261818 83.986557
v 25.000000 -92.261818 83.986557
v -25.000000 -79.054993 112.308670
v 25.000000 -79.054993 112.308670
v 61.323349 50.000004 67.259270
v 49.999996 0.000004 24.999998
v 61.323345 0.000005 67.259277
v 50.000004 50.000004 24.999992
v 61.323349 50.000004 67.259270
v 61.323345 0.000005 67.259277
v 101.098114 49.999996 27.484505
v 101.098106 -0.000005 27.484510
v -24.999998 78.121994 83.514450
v 25.000000 50.000008 49.999992
v 25.000002 78.122002 83.514450
v -25.000000 50.000008 49.999992
v -24.999998 78.121994 83.514450
v 25.000000 97.360626 30.656721
v -25.000000 97.360626 30.656721
v 25.000002 78.122002 83.514450
v -98.613586 -49.999989 73.613594
v -50.000004 0.000004 24.999998
v -98.613586 0.000010 73.613586
v -49.999996 -49.999996 25.000011
v -98.613586 -49.999989 73.613594
v -101.337212 0.000003 42.482502
v -101.337212 -49.999996 42.482513
v -98.613586 0.000010 73.613586
vn -1.0000 -0.0000 -0.0000
vn -0.0000 1.0000 -0.0000
vn 1.0000 -0.0000 -0.0000
vn -0.0000 -1.0000 -0.0000
vn -0.0000 -0.0000 -1.0000
vn -0.0000 -0.0000 1.0000
vn -0.0000 0.9063 0.4226
vn -0.0000 -0.9063 0.4226
vn -0.9659 -0.0000 0.2588
vn 0.7071 -0.0000 0.7071
vn -0.0000 -0.7660 0.6428
vn -0.0000 0.9397 0.3420
vn -0.9962 -0.0000 0.0872
vt 0.624512 0.750000
vt 0.750000 0.750000
vt 0.749512 0.921875
vt 0.625000 0.921875
vt 0.500000 0.750000
vt 0.500000 0.999969
vt 0.249878 0.999969
vt 0.249878 0.750000
vt 0.500000 0.500000
vt 0.500000 0.250000
vt 0.750000 0.250000
vt 0.750000 0.500000
vt 0.249878 0.250000
vt 0.250000 0.500000
vt 0.750000 0.999969
vt 0.625000 0.999969
vt -0.000031 0.250000
vt 0.250000 0.250000
vt 0.000031 0.500000
vt 0.874512 0.859375
vt 0.875000 0.999969
vt 0.750000 0.859375
vt 0.749512 0.750000
vt 0.875000 0.750000
s 1
usemtl MI_SpiderSucculent_Stem
f 28/1/7 26/2/7 27/3/7 25/4/7
f 20/5/5 17/6/5 18/7/5 19/8/5
f 24/9/6 23/10/6 21/11/6 22/12/6
f 4/13/1 2/10/1 3/9/1 1/14/1
f 56/3/13 54/15/13 55/16/13 53/4/13
f 8/17/2 6/18/2 7/14/2 5/19/2
f 12/13/3 10/10/3 11/9/3 9/14/3
f 16/17/4 14/18/4 15/14/4 13/19/4
f 30/16/8 32/4/8 31/3/8 29/15/8
f 48/20/12 46/21/12 47/15/12 45/22/12
f 36/23/9 34/24/9 35/20/9 33/22/9
f 44/23/11 42/24/11 43/20/11 41/22/11
f 52/1/10 50/2/10 51/3/10 49/4/10
f 38/20/10 40/21/10 39/15/10 37/22/10
