# Blender 5.0.1
# www.blender.org
mtllib BP_ShulkerLightCube.mtl
o SK_ShulkerLightCube.001
v 50.025002 -50.025036 100.050011
v -50.025002 -50.025036 100.050011
v -50.025002 -50.025036 0.000020
v 50.025002 -50.025036 0.000020
v 50.025002 50.025036 100.050011
v -50.025002 -50.025036 100.050011
v 50.025002 -50.025036 100.050011
v -50.025002 50.025036 100.050011
v 50.025002 50.025036 0.000020
v -50.025002 50.025036 0.000020
v -50.025002 50.025036 100.050011
v 50.025002 50.025036 100.050011
v -50.025002 -50.025036 0.000020
v 50.025002 50.025036 0.000020
v 50.025002 -50.025036 0.000020
v -50.025002 50.025036 0.000020
v 50.025002 -50.025036 100.050011
v 50.025002 -50.025036 0.000020
v 50.025002 50.025036 100.050011
v 50.025002 50.025036 0.000020
v -50.025002 -50.025036 100.050011
v -50.025002 50.025036 0.000020
v -50.025002 -50.025036 0.000020
v -50.025002 50.025036 100.050011
vn -0.0000 -1.0000 -0.0000
vn -0.0000 -0.0000 1.0000
vn -0.0000 1.0000 -0.0000
vn -0.0000 -0.0000 -1.0000
vn 1.0000 -0.0000 -0.0000
vn -1.0000 -0.0000 -0.0000
vt 0.000212 0.999708
vt 0.000212 0.000488
vt 0.999512 0.000488
vt 0.999512 0.999708
s 1
usemtl MI_ShulkerLightCube
f 18/1/5 20/2/5 19/3/5 17/4/5
f 12/1/3 9/2/3 10/3/3 11/4/3
f 4/1/1 1/2/1 2/3/1 3/4/1
f 16/1/4 14/4/4 15/3/4 13/2/4
f 8/2/2 6/1/2 7/4/2 5/3/2
f 24/4/6 22/1/6 23/2/6 21/3/6
