# Blender 5.0.1
# www.blender.org
mtllib BP_SequenceStaircase.mtl
o SM_SunkenTowerBanner.001
v -449.999939 325.000000 49.999996
v -449.999878 175.000000 49.999996
v -449.999939 325.000000 68.750000
v -449.999878 175.000000 68.750000
v -431.249878 175.000000 49.999996
v -431.249939 325.000000 49.999996
v -431.249939 325.000000 68.750000
v -431.249878 175.000000 68.750000
v -431.249878 175.000000 68.750000
v -431.249939 325.000000 68.750000
v -449.999939 325.000000 68.750000
v -449.999878 175.000000 68.750000
v -431.249878 175.000000 49.999996
v -431.249878 175.000000 68.750000
v -449.999878 175.000000 68.750000
v -449.999878 175.000000 49.999996
v -431.249939 325.000000 49.999996
v -431.249878 175.000000 49.999996
v -449.999878 175.000000 49.999996
v -449.999939 325.000000 49.999996
v -431.249939 325.000000 68.750000
v -431.249939 325.000000 49.999996
v -449.999939 325.000000 49.999996
v -449.999939 325.000000 68.750000
v -440.624908 187.500000 -150.000000
v -440.624939 312.500000 -150.000000
v -440.624939 312.500000 49.999996
v -440.624878 187.500000 49.999996
v -440.624939 300.000000 68.750000
v -440.624908 300.000000 118.750000
v -440.624908 287.500000 68.750000
v -440.624908 287.500000 118.750000
v -440.624908 212.500000 68.750000
v -440.624908 212.500000 118.750000
v -440.624878 200.000000 68.750000
v -440.624878 200.000000 118.750000
vn -1.0000 -0.0000 -0.0000
vn 1.0000 -0.0000 -0.0000
vn -0.0000 -0.0000 1.0000
vn -0.0000 -1.0000 -0.0000
vn -0.0000 -0.0000 -1.0000
vn -0.0000 1.0000 -0.0000
vt 0.218750 0.000000
vt 0.125000 0.000000
vt 0.125000 0.750000
vt 0.218750 0.750000
vt 0.093750 0.750000
vt 0.000031 0.750000
vt 0.000031 0.000000
vt 0.093750 0.000000
vt 0.375000 0.999969
vt 0.375000 0.000000
vt 1.000000 0.000000
vt 1.000000 0.999969
vt 0.250000 0.968750
vt -0.000031 0.968750
vt -0.000031 0.906250
vt 0.250000 0.906250
vt -0.000031 0.875000
vt 0.000031 0.781250
vt 0.093750 0.781250
vt 0.093750 0.875000
vt 0.218750 0.781250
vt 0.218750 0.875000
vt 0.125000 0.875000
vt 0.125000 0.781250
s 1
usemtl M_SunkenWatchtowerBanner
f 20/1/5 17/2/5 18/3/5 19/4/5
f 12/5/3 9/6/3 10/7/3 11/8/3
f 28/9/2 25/10/2 26/11/2 27/12/2
f 2/1/1 4/2/1 3/3/1 1/4/1
f 8/2/2 5/1/2 6/4/2 7/3/2
f 32/13/2 31/14/2 29/15/2 30/16/2
f 24/17/6 21/18/6 22/19/6 23/20/6
f 16/21/4 13/22/4 14/23/4 15/24/4
f 36/13/2 35/14/2 33/15/2 34/16/2
