# Blender 5.0.1
# www.blender.org
mtllib BP_shrooms_jungle1.mtl
o SM_Shrooms_jungle1.001
v -6.250000 6.250009 56.249992
v -6.250000 -6.250000 0.000001
v -6.250000 -6.249990 56.249996
v -6.250000 6.250000 -0.000001
v 6.250000 6.250009 56.249992
v -6.250000 6.250000 -0.000001
v -6.250000 6.250009 56.249992
v 6.250000 6.250000 -0.000001
v 6.250000 -6.249990 56.249996
v 6.250000 6.250000 -0.000001
v 6.250000 6.250009 56.249992
v 6.250000 -6.250000 0.000001
v -6.250000 -6.249990 56.249996
v 6.250000 -6.250000 0.000001
v 6.250000 -6.249990 56.249996
v -6.250000 -6.250000 0.000001
v 6.250000 -6.250000 0.000001
v -6.250000 -6.250000 0.000001
v -6.250000 6.250000 -0.000001
v 6.250000 6.250000 -0.000001
v -21.875002 21.875015 81.249992
v -21.875002 -21.874994 56.250000
v -21.875002 -21.874989 81.250000
v -21.875002 21.875011 56.249996
v 21.875002 21.875015 81.249992
v -21.875002 21.875011 56.249996
v -21.875002 21.875015 81.249992
v 21.875002 21.875011 56.249996
v 21.875002 -21.874989 81.250000
v 21.875002 21.875011 56.249996
v 21.875002 21.875015 81.249992
v 21.875002 -21.874994 56.250000
v -21.875002 -21.874989 81.250000
v 21.875002 -21.874994 56.250000
v 21.875002 -21.874989 81.250000
v -21.875002 -21.874994 56.250000
v 21.875002 -21.874994 56.250000
v -21.875002 -21.874994 56.250000
v -21.875002 21.875011 56.249996
v 21.875002 21.875011 56.249996
v -21.875002 21.875015 81.249992
v -21.875002 -21.874989 81.250000
v 21.875002 21.875015 81.249992
v 21.875002 -21.874989 81.250000
vn -1.0000 -0.0000 -0.0000
vn -0.0000 1.0000 -0.0000
vn 1.0000 -0.0000 -0.0000
vn -0.0000 -1.0000 -0.0000
vn -0.0000 -0.0000 -1.0000
vn -0.0000 -0.0000 1.0000
vt 0.687500 0.500000
vt 0.468750 0.500000
vt 0.468750 0.281250
vt 0.687500 0.281250
vt 0.531250 0.593750
vt 0.593750 0.593750
vt 0.593750 0.875000
vt 0.531250 0.875000
vt 0.687500 0.156250
vt 0.906250 0.156250
vt 0.906250 0.281250
vt 0.468750 0.156250
vt 0.031250 0.156250
vt 0.250000 0.156250
vt 0.250000 0.281250
vt 0.031250 0.281250
vt 0.250000 0.500000
s 1
usemtl MI_GlowShrooms
f 40/1/5 37/2/5 38/3/5 39/4/5
f 4/5/1 2/6/1 3/7/1 1/8/1
f 36/9/4 34/10/4 35/11/4 33/4/4
f 24/12/1 22/9/1 23/4/1 21/3/1
f 32/13/3 30/14/3 31/15/3 29/16/3
f 8/5/2 6/6/2 7/7/2 5/8/2
f 12/5/3 10/6/3 11/7/3 9/8/3
f 20/1/5 17/2/5 18/3/5 19/4/5
f 16/5/4 14/6/4 15/7/4 13/8/4
f 28/14/2 26/12/2 27/3/2 25/15/2
f 44/15/6 43/3/6 41/2/6 42/17/6
