# Blender 5.0.1
# www.blender.org
mtllib BP_SoulDisplay.mtl
o SM_DisplayCase.001
v 50.000000 50.000004 24.999992
v -50.000000 50.000004 24.999992
v -50.000000 -49.999996 25.000008
v 50.000000 -49.999996 25.000008
v 50.000000 -50.000000 0.000008
v -50.000000 -50.000000 0.000008
v -50.000000 50.000000 -0.000008
v 50.000000 50.000000 -0.000008
v -50.000000 -49.999996 25.000008
v 50.000000 -50.000000 0.000008
v 50.000000 -49.999996 25.000008
v -50.000000 -50.000000 0.000008
v 50.000000 -49.999996 25.000008
v 50.000000 50.000000 -0.000008
v 50.000000 50.000004 24.999992
v 50.000000 -50.000000 0.000008
v 50.000000 50.000004 24.999992
v -50.000000 50.000000 -0.000008
v -50.000000 50.000004 24.999992
v 50.000000 50.000000 -0.000008
v -50.000000 50.000004 24.999992
v -50.000000 -50.000000 0.000008
v -50.000000 -49.999996 25.000008
v -50.000000 50.000000 -0.000008
v -49.999996 -49.999985 125.000008
v 49.999996 50.000027 124.999992
v -50.000004 50.000019 124.999992
v 50.000004 -49.999977 125.000008
v -50.000004 50.000000 24.999992
v 49.999996 50.000008 24.999992
v -49.999996 -50.000000 25.000008
v 50.000004 -49.999992 25.000008
v 50.000004 -49.999977 125.000008
v 49.999996 50.000008 24.999992
v 49.999996 50.000027 124.999992
v 50.000004 -49.999992 25.000008
v 49.999996 50.000027 124.999992
v -50.000004 50.000000 24.999992
v -50.000004 50.000019 124.999992
v 49.999996 50.000008 24.999992
v -50.000004 50.000019 124.999992
v -49.999996 -50.000000 25.000008
v -49.999996 -49.999985 125.000008
v -50.000004 50.000000 24.999992
v -49.999996 -49.999985 125.000008
v 50.000004 -49.999992 25.000008
v 50.000004 -49.999977 125.000008
v -49.999996 -50.000000 25.000008
vn -0.0000 -0.0000 1.0000
vn -0.0000 -0.0000 -1.0000
vn -0.0000 -1.0000 -0.0000
vn 1.0000 -0.0000 -0.0000
vn -0.0000 1.0000 -0.0000
vn -1.0000 -0.0000 -0.0000
vt 0.500000 0.000000
vt 1.000000 0.000000
vt 1.000000 0.125000
vt 0.500000 0.125000
vt 0.500000 0.500000
vt 1.000000 0.500000
vt -0.000031 0.000000
vt -0.000031 0.500000
vt 1.000000 0.250000
vt 0.500000 0.250000
vt 1.000000 0.999969
vt 0.500000 0.999969
vt -0.000031 0.999969
s 1
usemtl MI_DisplayCase
f 20/1/5 18/2/5 19/3/5 17/4/5
f 30/5/2 32/1/2 31/2/2 29/6/2
f 16/1/4 14/2/4 15/3/4 13/4/4
f 4/2/1 1/6/1 2/5/1 3/1/1
f 24/1/6 22/2/6 23/3/6 21/4/6
f 36/7/4 34/1/4 35/5/4 33/8/4
f 44/7/6 42/1/6 43/5/6 41/8/6
f 12/4/3 10/3/3 11/9/3 9/10/3
f 28/6/1 26/11/1 27/12/1 25/5/1
f 40/8/5 38/5/5 39/12/5 37/13/5
f 8/2/2 5/6/2 6/5/2 7/1/2
f 48/8/3 46/5/3 47/12/3 45/13/3
