# Blender 5.0.1
# www.blender.org
mtllib BP_SoulfireLanternLight.mtl
o SoulfireLantern.001
v 25.000000 -25.000000 0.000004
v -25.000000 -25.000000 0.000004
v -25.000000 -25.000004 -24.999996
v 25.000000 -25.000004 -24.999996
v 25.000000 -25.000000 0.000004
v 25.000000 25.000000 -0.000004
v -25.000000 -25.000000 0.000004
v -25.000000 25.000000 -0.000004
v 25.000000 24.999996 -25.000004
v -25.000000 24.999996 -25.000004
v -25.000000 25.000000 -0.000004
v 25.000000 25.000000 -0.000004
v 25.000000 25.000000 -0.000004
v 25.000000 -25.000000 0.000004
v 25.000000 -25.000004 -24.999996
v 25.000000 24.999996 -25.000004
v -25.000000 -25.000000 0.000004
v -25.000000 24.999996 -25.000004
v -25.000000 -25.000004 -24.999996
v -25.000000 25.000000 -0.000004
v -37.500000 -37.500004 -24.999994
v -37.500000 37.499996 -25.000006
v -65.625000 -37.500011 -73.713913
v -65.625000 37.499989 -73.713928
v 37.500000 -37.500004 -24.999994
v -37.500000 -37.500004 -24.999994
v -37.500000 -37.500019 -124.999992
v 37.500000 -37.500019 -124.999992
v 37.500000 -37.500004 -24.999994
v 37.500000 37.499996 -25.000006
v -37.500000 -37.500004 -24.999994
v -37.500000 37.499996 -25.000006
v 37.500000 37.499981 -125.000008
v -37.500000 37.499981 -125.000008
v -37.500000 37.499996 -25.000006
v 37.500000 37.499996 -25.000006
v 37.500000 -37.500019 -124.999992
v -37.500000 -37.500019 -124.999992
v -37.500000 37.499981 -125.000008
v 37.500000 37.499981 -125.000008
v 37.500000 -37.500004 -24.999994
v 37.500000 -37.500019 -124.999992
v 37.500000 37.499996 -25.000006
v 37.500000 37.499981 -125.000008
v -37.500000 -37.500004 -24.999994
v -37.500000 37.499981 -125.000008
v -37.500000 -37.500019 -124.999992
v -37.500000 37.499996 -25.000006
v 37.500000 -37.500004 -31.249994
v 37.500000 37.499996 -31.250006
v 65.625000 -37.500011 -79.963913
v 65.625000 37.499989 -79.963928
v 25.000000 -25.000021 -124.999992
v -25.000000 -25.000021 -124.999992
v -25.000000 -25.000025 -150.000000
v 25.000000 -25.000025 -150.000000
v 25.000000 24.999975 -150.000000
v -25.000000 24.999975 -150.000000
v -25.000000 24.999979 -125.000008
v 25.000000 24.999979 -125.000008
v 25.000000 -25.000025 -150.000000
v -25.000000 -25.000025 -150.000000
v -25.000000 24.999975 -150.000000
v 25.000000 24.999975 -150.000000
v 25.000000 24.999979 -125.000008
v 25.000000 -25.000021 -124.999992
v 25.000000 -25.000025 -150.000000
v 25.000000 24.999975 -150.000000
v -25.000000 -25.000021 -124.999992
v -25.000000 24.999975 -150.000000
v -25.000000 -25.000025 -150.000000
v -25.000000 24.999979 -125.000008
vn -0.0000 -1.0000 -0.0000
vn -0.0000 -0.0000 1.0000
vn -0.0000 1.0000 -0.0000
vn 1.0000 -0.0000 -0.0000
vn -1.0000 -0.0000 -0.0000
vn -0.8660 -0.0000 0.5000
vn -0.0000 -0.0000 -1.0000
vn -0.8660 -0.0000 -0.5000
vt 0.921875 0.312500
vt 0.984375 0.312500
vt 0.984375 0.281250
vt 0.921875 0.281250
vt 0.906250 0.531250
vt 0.906250 0.437500
vt 1.000000 0.437500
vt 1.000000 0.531250
vt 0.999512 0.617188
vt 0.906250 0.617188
vt 0.906250 0.546875
vt 0.999512 0.546875
vt 0.921875 0.218750
vt 0.984375 0.218750
vt 1.000000 0.312500
vt 0.906250 0.312500
s 1
usemtl MI_BasaltDeltasProps
f 15/1/4 16/2/4 13/3/4 14/4/4
f 32/5/2 31/6/2 29/7/2 30/8/2
f 4/2/1 1/3/1 2/4/1 3/1/1
f 52/9/8 51/10/8 49/11/8 50/12/8
f 24/9/6 23/10/6 21/11/6 22/12/6
f 8/4/2 7/13/2 5/14/2 6/3/2
f 48/7/5 46/15/5 47/16/5 45/6/5
f 12/3/3 9/2/3 10/1/3 11/4/3
f 56/3/1 53/2/1 54/1/1 55/4/1
f 28/15/1 25/7/1 26/6/1 27/16/1
f 36/7/3 33/15/3 34/16/3 35/6/3
f 20/3/5 18/2/5 19/1/5 17/4/5
f 42/16/4 44/15/4 43/7/4 41/6/4
f 72/2/5 70/3/5 71/4/5 69/1/5
f 40/8/7 37/7/7 38/6/7 39/5/7
f 60/2/3 57/3/3 58/4/3 59/1/3
f 67/4/4 68/3/4 65/2/4 66/1/4
f 64/3/7 61/14/7 62/13/7 63/4/7
