# Blender 5.0.1
# www.blender.org
mtllib BP_SpiderEggDummy.mtl
o SM_EggShellStatic.001
v 50.386066 50.386082 100.943733
v -50.386066 50.386066 0.171600
v -50.386066 50.386082 100.943733
v 50.386066 50.386066 0.171600
v -50.386066 -50.386051 100.943748
v 50.386066 -50.386066 0.171616
v 50.386066 -50.386051 100.943748
v -50.386066 -50.386066 0.171616
v -50.386066 50.386082 100.943733
v -50.386066 -50.386066 0.171616
v -50.386066 -50.386051 100.943748
v -50.386066 50.386066 0.171600
v 50.386066 -50.386051 100.943748
v 50.386066 50.386066 0.171600
v 50.386066 50.386082 100.943733
v 50.386066 -50.386066 0.171616
v 50.386066 75.000053 0.171596
v 50.386066 75.000069 100.943726
v 50.386066 -75.000038 100.943756
v 50.386066 -75.000053 0.171620
v 75.000053 -50.386066 0.171616
v 75.000053 -50.386051 100.943748
v -75.000053 -50.386051 100.943748
v -75.000053 -50.386066 0.171616
v -50.386066 -75.000053 0.171620
v -50.386066 -75.000038 100.943756
v -50.386066 75.000069 100.943726
v -50.386066 75.000053 0.171596
v 75.000053 50.386082 100.943733
v 75.000053 50.386066 0.171600
v -75.000053 50.386066 0.171600
v -75.000053 50.386082 100.943733
v 50.386066 -50.386051 100.943748
v 0.000012 0.000005 100.943741
v -50.386066 -50.386051 100.943748
v 50.386066 50.386082 100.943733
v -50.386066 50.386082 100.943733
vn -0.0000 1.0000 -0.0000
vn -0.0000 -1.0000 -0.0000
vn -1.0000 -0.0000 -0.0000
vn 1.0000 -0.0000 -0.0000
vn -0.0000 -0.0000 1.0000
vt 0.499756 0.000000
vt 1.000000 0.000000
vt 1.000000 0.500000
vt 0.500000 0.500000
vt 0.375000 0.000000
vt 0.500000 0.000000
vt 0.500000 0.498535
vt 0.375000 0.500000
vt 1.000000 0.500244
vt 0.750000 0.750000
vt 1.000000 0.999969
vt 0.499756 0.999969
s 1
usemtl M_SpiderEggShell
f 8/1/2 6/2/2 7/3/2 5/4/2
f 28/5/3 12/6/3 9/7/3 27/8/3
f 20/5/4 16/6/4 13/7/4 19/8/4
f 15/7/4 14/6/4 17/5/4 18/8/4
f 16/1/4 14/2/4 15/3/4 13/4/4
f 30/5/1 4/6/1 1/7/1 29/8/1
f 7/7/2 6/6/2 21/5/2 22/8/2
f 4/1/1 2/2/1 3/3/1 1/4/1
f 12/1/3 10/2/3 11/3/3 9/4/3
f 11/7/3 10/6/3 25/5/3 26/8/3
f 24/5/2 8/6/2 5/7/2 23/8/2
f 35/4/5 33/9/5 34/10/5
f 33/9/5 36/11/5 34/10/5
f 37/12/5 35/4/5 34/10/5
f 37/12/5 34/10/5 36/11/5
f 3/7/1 2/6/1 31/5/1 32/8/1
