# Blender 5.0.1
# www.blender.org
mtllib BP_Sidetable.mtl
o SM_Sidetable.001
v -43.749985 -43.750000 -0.000003
v -43.750023 -43.750004 62.499996
v -43.750023 -25.000010 62.500000
v -43.749985 -25.000000 -0.000002
v -25.000023 -25.000010 62.500000
v -24.999985 -25.000000 -0.000002
v -43.749985 -25.000000 -0.000002
v -43.750023 -25.000010 62.500000
v -24.999985 -43.750000 -0.000003
v -25.000023 -25.000010 62.500000
v -25.000023 -43.750004 62.499996
v -24.999985 -25.000000 -0.000002
v -25.000023 -43.750004 62.499996
v -43.749985 -43.750000 -0.000003
v -24.999985 -43.750000 -0.000003
v -43.750023 -43.750004 62.499996
v -24.999985 -43.750000 -0.000003
v -43.749985 -43.750000 -0.000003
v -43.749985 -25.000000 -0.000002
v -24.999985 -25.000000 -0.000002
v -43.750023 -43.750004 62.499996
v -25.000023 -43.750004 62.499996
v -25.000023 -25.000010 62.500000
v -43.750023 -25.000010 62.500000
v 50.000023 -50.000004 62.499996
v -50.000023 -50.000065 62.499996
v -50.000023 50.000004 62.500004
v 49.999977 50.000057 62.500004
v 49.999954 -50.000004 87.500000
v 50.000000 49.999943 87.500000
v -50.000000 -49.999958 87.500000
v -50.000000 49.999996 87.500000
v 50.000023 -50.000004 62.499996
v 50.000000 49.999943 87.500000
v 49.999954 -50.000004 87.500000
v 49.999977 50.000057 62.500004
v 49.999954 -50.000004 87.500000
v -50.000023 -50.000065 62.499996
v 50.000023 -50.000004 62.499996
v -50.000000 -49.999958 87.500000
v -50.000000 -49.999958 87.500000
v -50.000023 50.000004 62.500004
v -50.000023 -50.000065 62.499996
v -50.000000 49.999996 87.500000
v 49.999977 50.000057 62.500004
v -50.000000 49.999996 87.500000
v 50.000000 49.999943 87.500000
v -50.000023 50.000004 62.500004
v 25.000015 -43.750000 -0.000003
v 24.999977 -43.750004 62.499996
v 24.999977 -25.000010 62.500000
v 25.000015 -25.000000 -0.000002
v 43.749977 -25.000010 62.500000
v 43.750015 -25.000000 -0.000002
v 25.000015 -25.000000 -0.000002
v 24.999977 -25.000010 62.500000
v 43.750015 -43.750000 -0.000003
v 43.749977 -25.000010 62.500000
v 43.749977 -43.750004 62.499996
v 43.750015 -25.000000 -0.000002
v 43.749977 -43.750004 62.499996
v 25.000015 -43.750000 -0.000003
v 43.750015 -43.750000 -0.000003
v 24.999977 -43.750004 62.499996
v 43.750015 -43.750000 -0.000003
v 25.000015 -43.750000 -0.000003
v 25.000015 -25.000000 -0.000002
v 43.750015 -25.000000 -0.000002
v 24.999977 -43.750004 62.499996
v 43.749977 -43.750004 62.499996
v 43.749977 -25.000010 62.500000
v 24.999977 -25.000010 62.500000
v -43.750023 24.999998 62.500000
v -43.749985 43.750000 0.000001
v -43.749985 25.000000 0.000000
v -43.750023 43.750004 62.500004
v -25.000023 43.750004 62.500004
v -24.999985 43.750000 0.000001
v -43.749985 43.750000 0.000001
v -43.750023 43.750004 62.500004
v -25.000023 24.999998 62.500000
v -24.999985 25.000000 0.000000
v -24.999985 43.750000 0.000001
v -25.000023 43.750004 62.500004
v -25.000023 24.999998 62.500000
v -43.749985 25.000000 0.000000
v -24.999985 25.000000 0.000000
v -43.750023 24.999998 62.500000
v -24.999985 25.000000 0.000000
v -43.749985 25.000000 0.000000
v -43.749985 43.750000 0.000001
v -24.999985 43.750000 0.000001
v -43.750023 24.999998 62.500000
v -25.000023 24.999998 62.500000
v -25.000023 43.750004 62.500004
v -43.750023 43.750004 62.500004
v 24.999977 24.999998 62.500000
v 25.000011 43.750000 0.000001
v 25.000011 25.000000 0.000000
v 24.999977 43.750011 62.500004
v 43.749977 43.750011 62.500004
v 43.750011 43.750000 0.000001
v 25.000011 43.750000 0.000001
v 24.999977 43.750011 62.500004
v 43.749977 24.999998 62.500000
v 43.750011 25.000000 0.000000
v 43.750011 43.750000 0.000001
v 43.749977 43.750011 62.500004
v 43.749977 24.999998 62.500000
v 25.000011 25.000000 0.000000
v 43.750011 25.000000 0.000000
v 24.999977 24.999998 62.500000
v 43.750011 25.000000 0.000000
v 25.000011 25.000000 0.000000
v 25.000011 43.750000 0.000001
v 43.750011 43.750000 0.000001
v 24.999977 24.999998 62.500000
v 43.749977 24.999998 62.500000
v 43.749977 43.750011 62.500004
v 24.999977 43.750011 62.500004
vn -1.0000 -0.0000 -0.0000
vn -0.0000 1.0000 -0.0000
vn 1.0000 -0.0000 -0.0000
vn -0.0000 -1.0000 -0.0000
vn -0.0000 -0.0000 -1.0000
vn -0.0000 -0.0000 1.0000
vt 0.781250 0.500000
vt 0.781250 0.187500
vt 0.875000 0.187500
vt 0.875000 0.500000
vt 0.500000 0.500000
vt 0.500000 0.187500
vt 0.593750 0.187500
vt 0.593750 0.500000
vt 0.968750 0.500000
vt 0.875000 0.406250
vt 0.968750 0.406250
vt 0.000031 0.999969
vt 0.000031 0.500000
vt 0.500000 0.999969
vt 0.687500 0.500000
vt 0.687500 0.187500
vt 0.500000 0.250000
vt 0.500000 0.375000
vt 0.000031 0.375000
vt 0.000031 0.250000
vt 1.000000 0.500000
vt 1.000000 0.999969
s 1
usemtl MI_Sidetable
f 100/1/1 98/2/1 99/3/1 97/4/1
f 112/5/4 110/6/4 111/7/4 109/8/4
f 84/8/3 81/5/3 82/6/3 83/7/3
f 88/1/4 86/2/4 87/3/4 85/4/4
f 96/9/6 93/4/6 94/10/6 95/11/6
f 68/11/5 65/9/5 66/4/5 67/10/5
f 32/12/6 31/13/6 29/5/6 30/14/6
f 103/2/2 104/1/2 101/15/2 102/16/2
f 36/17/3 34/18/3 35/19/3 33/20/3
f 48/18/2 46/5/2 47/13/2 45/19/2
f 40/13/4 38/19/4 39/18/4 37/5/4
f 60/2/3 58/1/3 59/15/3 57/16/3
f 44/19/1 42/20/1 43/17/1 41/18/1
f 28/21/5 25/22/5 26/14/5 27/5/5
f 55/3/2 56/4/2 53/1/2 54/2/2
f 116/11/5 113/9/5 114/4/5 115/10/5
f 24/9/6 21/4/6 22/10/6 23/11/6
f 12/3/3 10/4/3 11/1/3 9/2/3
f 64/8/4 62/7/4 63/16/4 61/15/4
f 4/7/1 1/16/1 2/15/1 3/8/1
f 79/16/2 80/15/2 77/8/2 78/7/2
f 76/15/1 74/16/1 75/2/1 73/1/1
f 92/11/5 89/9/5 90/4/5 91/10/5
f 108/15/3 105/8/3 106/7/3 107/16/3
f 7/7/2 8/8/2 5/5/2 6/6/2
f 52/6/1 49/7/1 50/8/1 51/5/1
f 16/15/4 14/16/4 15/2/4 13/1/4
f 20/11/5 17/9/5 18/4/5 19/10/5
f 72/9/6 69/4/6 70/10/6 71/11/6
f 120/9/6 117/4/6 118/10/6 119/11/6
