# Blender 5.0.1
# www.blender.org
mtllib BP_SoggySwamp_Mushroom.mtl
o SM_SmallTray.001
v -31.250000 31.250004 24.999994
v -31.250000 -31.249996 25.000006
v 31.250000 31.250004 24.999994
v 31.250000 -31.249996 25.000006
v 31.250000 -31.250000 0.000005
v -31.250000 -31.250000 0.000005
v -31.250000 31.250000 -0.000005
v 31.250000 31.250000 -0.000005
v -31.250000 -31.249996 25.000006
v 31.250000 -31.250000 0.000005
v 31.250000 -31.249996 25.000006
v -31.250000 -31.250000 0.000005
v 31.250000 -31.249996 25.000006
v 31.250000 31.250000 -0.000005
v 31.250000 31.250004 24.999994
v 31.250000 -31.250000 0.000005
v 31.250000 31.250004 24.999994
v -31.250000 31.250000 -0.000005
v -31.250000 31.250004 24.999994
v 31.250000 31.250000 -0.000005
v -31.250000 31.250004 24.999994
v -31.250000 -31.250000 0.000005
v -31.250000 -31.249996 25.000006
v -31.250000 31.250000 -0.000005
vn -0.0000 -0.0000 1.0000
vn -0.0000 -0.0000 -1.0000
vn -0.0000 -1.0000 -0.0000
vn 1.0000 -0.0000 -0.0000
vn -0.0000 1.0000 -0.0000
vn -1.0000 -0.0000 -0.0000
vt 0.187500 0.062500
vt 0.812500 0.062500
vt 0.812500 0.312500
vt 0.187500 0.312500
vt 0.812500 0.937500
vt 0.187500 0.937500
s 1
usemtl MI_SmallTray
f 20/1/5 18/2/5 19/3/5 17/4/5
f 12/1/3 10/2/3 11/3/3 9/4/3
f 4/5/1 3/6/1 1/4/1 2/3/1
f 16/1/4 14/2/4 15/3/4 13/4/4
f 8/5/2 5/6/2 6/4/2 7/3/2
f 24/1/6 22/2/6 23/3/6 21/4/6
