# Blender 5.0.1
# www.blender.org
mtllib BP_SM_Purple_Rock_001.mtl
o SM_Purple_Rock_001.001
v -99.999512 0.000245 99.999924
v 0.000163 -99.999840 99.999939
v 0.000293 0.000213 99.999931
v -99.999512 -99.999832 99.999924
v -99.999512 -99.999832 99.999924
v -99.999512 0.000245 99.999924
v -99.999512 0.000225 -0.000088
v -99.999512 -99.999832 -0.000099
v -99.999512 -99.999832 -100.000130
v 0.000244 -99.999832 -200.000153
v 0.000244 -99.999832 -100.000122
v -99.999512 -99.999832 -200.000153
v -99.999512 0.000205 -100.000114
v 0.000244 0.000195 -100.000107
v 0.000244 0.000164 -200.000153
v -99.999512 0.000164 -200.000153
v -99.999512 -99.999832 -100.000130
v -99.999512 0.000205 -100.000114
v -99.999512 0.000164 -200.000153
v -99.999512 -99.999832 -200.000153
v 0.000163 -99.999840 -300.000183
v -99.999512 -99.999832 -300.000183
v 0.000163 0.000164 -300.000183
v -99.999512 0.000164 -300.000183
v 0.000163 -99.999840 -300.000183
v -99.999512 -99.999832 -300.000183
v 0.000163 0.000164 -300.000183
v -99.999512 0.000164 -300.000183
v -99.999512 0.000164 -300.000183
v -99.999512 -99.999832 -300.000183
v -99.999512 -99.999832 -0.000099
v 0.000244 -99.999832 -0.000099
v 100.000000 -99.999832 -0.000099
v 100.000000 -99.999832 -100.000122
v 100.000000 0.000164 -0.000099
v 100.000000 -99.999832 -0.000099
v 100.000000 -99.999832 -100.000122
v 100.000000 0.000164 -100.000122
v 100.000000 0.000164 -0.000099
v 0.000244 0.000225 -0.000088
v 100.000000 0.000164 -100.000122
v 100.000000 -99.999832 -200.000153
v 100.000000 -99.999832 -200.000153
v 100.000000 0.000164 -200.000153
v 100.000000 0.000164 -200.000153
v 100.000000 0.000164 199.999969
v 0.000000 0.000164 199.999969
v 0.000000 -99.999832 199.999969
v 100.000000 -99.999832 199.999969
v 100.000000 -99.999832 199.999969
v 0.000000 -99.999832 199.999969
v 0.000163 -99.999840 99.999939
v 100.000000 -99.999832 99.999939
v 100.000000 0.000164 199.999969
v 100.000000 -99.999832 199.999969
v 100.000000 -99.999832 99.999939
v 100.000000 0.000164 99.999939
v 100.000000 0.000164 199.999969
v 0.000293 0.000213 99.999931
v 0.000000 0.000164 199.999969
v 100.000000 0.000164 99.999939
v 0.000000 0.000164 199.999969
v 0.000163 -99.999840 99.999939
v 0.000000 -99.999832 199.999969
v 0.000293 0.000213 99.999931
v 100.000000 -99.999832 -300.000183
v 100.000000 -99.999832 -300.000183
v 100.000000 0.000164 -300.000183
v 100.000000 0.000164 -300.000183
v 100.000000 -99.999832 -400.000183
v 0.000000 -99.999832 -400.000183
v 100.000000 -99.999832 -400.000183
v 100.000000 0.000164 -400.000183
v 100.000000 0.000164 -400.000183
v 0.000000 0.000164 -400.000183
v 0.000163 0.000164 -300.000183
v 0.000000 -99.999832 -400.000183
v 0.000163 -99.999840 -300.000183
v 0.000000 0.000164 -400.000183
v 100.000000 -99.999832 -500.000183
v 0.000000 -99.999832 -500.000183
v 100.000000 0.000164 -500.000183
v 0.000000 0.000164 -500.000183
v 0.000000 -99.999832 -500.000183
v 100.000000 -99.999832 -500.000183
v 100.000000 -99.999832 -500.000183
v 100.000000 0.000164 -500.000183
v 100.000000 0.000164 -500.000183
v 0.000000 0.000164 -500.000183
v 0.000000 0.000164 -500.000183
v 0.000000 -99.999832 -500.000183
v 0.000244 0.000195 -100.000107
v -99.999512 100.000290 -100.000076
v 0.000488 100.000290 -100.000076
v -99.999512 0.000205 -100.000114
v 0.000244 0.000225 -0.000088
v 0.000488 100.000290 -100.000076
v 0.000488 100.000290 -0.000076
v 0.000244 0.000195 -100.000107
v -99.999512 100.000290 -0.000076
v 0.000488 100.000290 -0.000076
v 0.000488 100.000290 -100.000076
v -99.999512 100.000290 -100.000076
v -99.999512 100.000290 -0.000076
v -99.999512 100.000290 -100.000076
v 0.000488 0.000286 300.000000
v -99.999512 0.000286 300.000000
v -99.999512 0.000286 199.999939
v 0.000488 0.000286 199.999939
v 0.000488 100.000290 300.000000
v 0.000488 0.000286 300.000000
v 0.000488 0.000286 199.999939
v 0.000488 100.000290 199.999939
v -99.999512 100.000290 300.000000
v 0.000488 100.000290 300.000000
v 0.000488 100.000290 199.999939
v -99.999512 100.000290 199.999939
v -99.999512 0.000286 300.000000
v -99.999512 100.000290 300.000000
v -99.999512 100.000290 199.999939
v -99.999512 0.000286 199.999939
v 0.000293 0.000213 99.999931
v -99.999512 0.000245 99.999924
v 0.000488 100.000290 99.999916
v 0.000293 0.000213 99.999931
v 0.000488 100.000290 99.999916
v -99.999512 100.000290 99.999916
v -99.999512 100.000290 99.999916
v 0.000488 100.000290 400.000061
v -99.999512 100.000290 400.000061
v -99.999512 0.000286 400.000061
v 0.000488 0.000286 400.000061
v 0.000488 0.000286 400.000061
v -99.999512 0.000286 400.000061
v 0.000488 100.000290 400.000061
v 0.000488 0.000286 400.000061
v -99.999512 100.000290 400.000061
v 0.000488 100.000290 400.000061
v -99.999512 0.000286 400.000061
v -99.999512 100.000290 400.000061
v -99.999512 -99.999832 99.999924
vn -0.0000 -0.0000 1.0000
vn -1.0000 -0.0000 -0.0000
vn -0.0000 -1.0000 -0.0000
vn -0.0000 1.0000 -0.0000
vn -0.0000 -0.0000 -1.0000
vn 1.0000 -0.0000 -0.0000
vt 0.500000 0.250000
vt 0.500000 0.500000
vt 0.250000 0.500000
vt 0.250000 0.250000
vt 1.000000 0.750000
vt 1.000000 0.999969
vt 0.750000 0.999969
vt 0.750000 0.750000
vt 0.250000 0.000000
vt -0.000031 0.250000
vt -0.000031 0.000000
vt 0.500000 0.000000
vt 0.750000 0.000000
vt 0.750000 0.250000
s 1
usemtl MI_End_MeshFades
f 98/1/6 124/2/6 125/3/6 96/4/6
f 7/1/2 6/2/2 128/3/2 104/4/2
f 22/5/5 24/6/5 23/7/5 21/8/5
f 8/9/2 5/4/2 6/10/2 7/11/2
f 99/4/6 97/1/6 98/2/6 96/3/6
f 16/1/4 13/2/4 14/3/4 15/4/4
f 18/1/2 7/2/2 104/3/2 105/4/2
f 33/12/3 53/1/3 52/4/3 32/9/3
f 79/4/2 77/1/2 78/2/2 76/3/2
f 12/4/3 10/1/3 11/2/3 9/3/3
f 20/1/2 17/2/2 18/3/2 19/4/2
f 35/12/6 57/1/6 56/4/6 36/9/6
f 132/13/1 129/14/1 130/1/1 131/12/1
f 32/9/3 52/4/3 141/10/3 31/11/3
f 30/1/2 20/2/2 19/3/2 29/4/2
f 109/9/3 106/4/3 107/10/3 108/11/3
f 41/4/4 14/1/4 40/2/4 39/3/4
f 113/9/6 110/4/6 111/10/6 112/11/6
f 65/11/2 63/9/2 64/4/2 62/10/2
f 87/1/6 73/2/6 72/3/6 86/4/6
f 123/9/3 122/12/3 109/1/3 108/4/3
f 9/9/3 11/12/3 32/1/3 31/4/3
f 45/4/4 15/1/4 14/2/4 41/3/4
f 26/4/3 25/1/3 10/2/3 12/3/3
f 34/1/3 33/2/3 32/3/3 11/4/3
f 28/1/4 16/2/4 15/3/4 27/4/4
f 75/1/4 27/2/4 69/3/4 74/4/4
f 100/1/4 127/2/4 126/3/4 101/4/4
f 53/9/3 50/4/3 51/10/3 52/11/3
f 57/9/6 54/4/6 55/10/6 56/11/6
f 127/12/4 117/1/4 116/4/4 126/9/4
f 117/9/4 114/4/4 115/10/4 116/11/4
f 85/1/3 70/2/3 71/3/3 84/4/3
f 81/5/5 83/6/5 82/7/5 80/8/5
f 49/13/1 46/14/1 47/1/1 48/12/1
f 125/9/6 124/12/6 113/1/6 112/4/6
f 40/12/4 59/1/4 61/4/4 39/9/4
f 91/1/2 77/2/2 79/3/2 90/4/2
f 4/12/1 2/13/1 3/14/1 1/1/1
f 114/9/4 137/4/4 138/10/4 115/11/4
f 44/1/6 38/2/6 37/3/6 43/4/6
f 103/1/4 100/2/4 101/3/4 102/4/4
f 89/1/4 75/2/4 74/3/4 88/4/4
f 95/5/5 93/6/5 94/7/5 92/8/5
f 61/11/4 59/9/4 60/4/4 58/10/4
f 42/1/3 34/2/3 11/3/3 10/4/3
f 17/12/2 8/1/2 7/4/2 18/9/2
f 71/4/3 70/1/3 66/2/3 25/3/3
f 110/9/6 135/4/6 136/10/6 111/11/6
f 6/12/2 121/1/2 120/4/2 128/9/2
f 73/1/6 68/2/6 67/3/6 72/4/6
f 38/1/6 35/2/6 36/3/6 37/4/6
f 68/1/6 44/2/6 43/3/6 67/4/6
f 106/9/3 133/4/3 134/10/3 107/11/3
f 121/9/2 118/4/2 119/10/2 120/11/2
f 27/1/4 15/2/4 45/3/4 69/4/4
f 25/4/3 66/1/3 42/2/3 10/3/3
f 118/9/2 139/4/2 140/10/2 119/11/2
