# Blender 5.0.1
# www.blender.org
mtllib BP_Sapphire.mtl
o SK_Ruby.001
v 0.000036 -0.454343 -112.582092
v -91.923866 -53.179688 -37.282463
v 0.000047 106.035431 -38.017166
v -91.923859 53.310089 37.282463
v 91.923904 53.310051 37.282490
v 0.000001 0.584706 112.582115
v -0.000011 -105.905067 38.017193
v 91.923897 -53.179726 -37.282433
v 91.923897 -53.179726 -37.282433
v -0.000011 -105.905067 38.017193
v -91.923866 -53.179688 -37.282463
v 0.000036 -0.454343 -112.582092
v 91.923904 53.310051 37.282490
v 91.923897 -53.179726 -37.282433
v 0.000036 -0.454343 -112.582092
v 0.000047 106.035431 -38.017166
v 0.000001 0.584706 112.582115
v 91.923904 53.310051 37.282490
v 0.000047 106.035431 -38.017166
v -91.923859 53.310089 37.282463
v -0.000011 -105.905067 38.017193
v 0.000001 0.584706 112.582115
v -91.923859 53.310089 37.282463
v -91.923866 -53.179688 -37.282463
vn -0.7071 0.4056 -0.5792
vn 0.7071 -0.4056 0.5792
vn -0.0000 -0.8192 -0.5736
vn 0.7071 0.4056 -0.5792
vn -0.0000 0.8192 0.5736
vn -0.7071 -0.4056 0.5792
vt 0.999512 0.999969
vt -0.000031 0.999969
vt -0.000031 0.000000
vt 0.999512 0.000000
vt 0.999512 0.999969
vt -0.000031 0.999969
vt 1.000000 0.000000
vt 1.000000 0.999969
vt 0.000031 0.999969
vt 0.000031 0.000000
vt 1.000000 0.000488
vt 0.999512 1.000031
vt 0.000031 0.000000
vt 1.000000 0.999969
vt 0.000031 0.999969
vt 0.000031 0.000000
vt 0.999512 1.000031
vt -0.000031 0.999969
s 1
usemtl MI_Ruby
f 16/1/4 13/2/4 14/3/4 15/4/4
f 24/4/6 21/5/6 22/6/6 23/3/6
f 8/7/2 5/8/2 6/9/2 7/10/2
f 12/11/3 9/12/3 10/6/3 11/13/3
f 2/14/1 4/15/1 3/16/1 1/7/1
f 20/17/5 17/18/5 18/10/5 19/11/5
