# Blender 5.0.1
# www.blender.org
mtllib BP_smallarchway02.mtl
o SM_smallarchway02.001
v 49.999500 49.999886 199.999786
v 49.999516 -50.000114 199.999786
v -50.000484 -50.000130 199.999786
v -50.000500 49.999870 199.999786
v 49.999508 49.999886 299.999786
v -50.000492 49.999870 299.999786
v -50.000477 -50.000130 299.999786
v 49.999523 -50.000114 299.999786
v -50.000492 49.999870 299.999786
v -50.000500 49.999870 199.999786
v -50.000484 -50.000130 199.999786
v -50.000477 -50.000130 299.999786
v 49.999508 49.999886 299.999786
v 49.999500 49.999886 199.999786
v -50.000500 49.999870 199.999786
v -50.000492 49.999870 299.999786
v 49.999523 -50.000114 299.999786
v 49.999516 -50.000114 199.999786
v 49.999500 49.999886 199.999786
v 49.999508 49.999886 299.999786
v -50.000477 -50.000130 299.999786
v -50.000484 -50.000130 199.999786
v 49.999516 -50.000114 199.999786
v 49.999523 -50.000114 299.999786
v 250.001160 -49.999931 199.999969
v 150.000671 -50.000072 199.999969
v 150.000717 -50.000019 99.999954
v 250.001053 -49.999928 99.999908
v 150.000687 49.999928 199.999969
v 250.001129 50.000069 199.999969
v 250.001007 50.000076 99.999908
v 150.000702 49.999985 99.999954
v 150.000961 -49.999973 -0.000107
v 250.000961 -49.999969 -0.000107
v 150.000702 49.999985 99.999954
v 150.000961 50.000027 -0.000107
v 150.000961 -49.999973 -0.000107
v 150.000717 -50.000019 99.999954
v 250.000961 50.000031 -0.000107
v 150.000961 50.000027 -0.000107
v 250.001053 -49.999928 99.999908
v 250.000961 -49.999969 -0.000107
v 250.000961 50.000031 -0.000107
v 250.001007 50.000076 99.999908
v 100.000229 -50.000111 150.000031
v 50.000229 -50.000114 150.000031
v 50.000153 49.999763 150.000031
v 100.000145 49.999767 150.000031
v 50.000153 49.999763 150.000031
v 50.000229 -50.000114 150.000031
v 50.000362 -50.000145 199.999939
v 50.000378 49.999794 199.999939
v 150.000717 -50.000019 99.999954
v 100.000221 -50.000111 100.000015
v 100.000137 49.999767 100.000015
v 150.000702 49.999985 99.999954
v 100.000221 -50.000111 100.000015
v 100.000229 -50.000111 150.000031
v 100.000145 49.999767 150.000031
v 100.000137 49.999767 100.000015
v 300.001221 -49.999836 149.999878
v 300.001068 50.000042 149.999878
v 350.001068 49.999928 149.999878
v 350.001221 -49.999950 149.999878
v 350.001221 -49.999950 149.999878
v 350.001068 49.999928 149.999878
v 350.001251 49.999989 199.999908
v 350.001373 -49.999950 199.999908
v 250.001053 -49.999928 99.999908
v 250.001007 50.000076 99.999908
v 300.001068 50.000042 99.999878
v 300.001221 -49.999836 99.999878
v 300.001221 -49.999836 99.999878
v 300.001068 50.000042 99.999878
v 300.001068 50.000042 149.999878
v 300.001221 -49.999836 149.999878
v 350.001434 50.000050 299.999939
v 250.001221 50.000038 300.000000
v 250.001221 -49.999962 300.000000
v 350.001495 -49.999950 299.999939
v 350.001434 50.000050 299.999939
v 350.001251 49.999989 199.999908
v 250.001221 50.000038 300.000000
v 350.001495 -49.999950 299.999939
v 350.001434 50.000050 299.999939
v 250.001221 -49.999962 300.000000
v 350.001373 -49.999950 199.999908
v 350.001495 -49.999950 299.999939
v 150.000977 50.000019 300.000092
v 150.000977 -49.999981 300.000092
v 150.000977 50.000019 300.000092
v 150.000687 49.999928 199.999969
v 150.000671 -50.000072 199.999969
v 150.000977 -49.999981 300.000092
v 150.000977 50.000019 300.000092
v 150.000977 -49.999981 300.000092
v 450.001434 49.999817 249.999741
v 450.001495 -50.000183 249.999741
v 350.001495 -50.000195 249.999756
v 350.001434 49.999805 249.999756
v 450.001434 49.999817 349.999756
v 350.001434 49.999805 349.999756
v 350.001495 -50.000195 349.999756
v 450.001495 -50.000183 349.999756
v 350.001434 49.999805 349.999756
v 350.001434 49.999805 249.999756
v 350.001495 -50.000195 249.999756
v 350.001495 -50.000195 349.999756
v 450.001434 49.999817 349.999756
v 450.001434 49.999817 249.999741
v 350.001434 49.999805 249.999756
v 350.001434 49.999805 349.999756
v 450.001495 -50.000183 349.999756
v 450.001495 -50.000183 249.999741
v 450.001434 49.999817 249.999741
v 450.001434 49.999817 349.999756
v 350.001495 -50.000195 349.999756
v 350.001495 -50.000195 249.999756
v 450.001495 -50.000183 249.999741
v 450.001495 -50.000183 349.999756
v 50.000378 49.999794 199.999939
v 50.000603 49.999825 249.999847
v 150.000610 49.999775 249.999847
v 50.000362 -50.000145 199.999939
v 150.000488 -50.000225 249.999832
v 50.000496 -50.000175 249.999847
v 50.000496 -50.000175 249.999847
v 150.000488 -50.000225 249.999832
v 150.000610 49.999775 249.999847
v 50.000603 49.999825 249.999847
v -250.000229 -50.000160 99.999954
v -250.000290 49.999840 99.999954
v -150.000000 49.999859 100.000015
v -149.999954 -50.000141 100.000015
v -250.000504 49.999840 200.000000
v -150.000092 49.999920 200.000000
v -150.000000 49.999859 100.000015
v -250.000290 49.999840 99.999954
v -150.000061 -50.000080 200.000000
v -250.000473 -50.000160 200.000000
v -250.000229 -50.000160 99.999954
v -149.999954 -50.000141 100.000015
v -150.000504 -50.000019 99.999924
v -150.000504 49.999981 99.999924
v -250.000504 49.999962 99.999924
v -250.000504 -50.000038 99.999924
v -150.000504 49.999981 99.999924
v -150.000504 49.999981 -0.000076
v -250.000504 49.999962 -0.000076
v -250.000504 49.999962 99.999924
v -150.000504 -50.000019 99.999924
v -150.000504 -50.000019 -0.000076
v -150.000504 49.999981 -0.000076
v -150.000504 49.999981 99.999924
v -250.000504 -50.000038 99.999924
v -250.000504 -50.000038 -0.000076
v -150.000504 -50.000019 -0.000076
v -150.000504 -50.000019 99.999924
v -250.000504 49.999962 99.999924
v -250.000504 49.999962 -0.000076
v -250.000504 -50.000038 -0.000076
v -250.000504 -50.000038 99.999924
v -99.999489 49.999744 150.000031
v -49.999496 49.999870 150.000031
v -49.999390 -50.000008 150.000031
v -99.999397 -50.000134 150.000031
v -49.999390 -50.000008 150.000031
v -49.999496 49.999870 150.000031
v -49.999691 49.999992 199.999939
v -49.999630 -49.999947 199.999939
v -99.999496 49.999744 100.000046
v -99.999405 -50.000134 100.000046
v -99.999496 49.999744 100.000046
v -99.999489 49.999744 150.000031
v -99.999397 -50.000134 150.000031
v -99.999405 -50.000134 100.000046
v -300.000092 49.999714 149.999939
v -299.999908 -50.000164 149.999939
v -349.999908 -50.000050 149.999939
v -350.000092 49.999828 149.999939
v -350.000092 49.999828 149.999939
v -349.999908 -50.000050 149.999939
v -350.000427 -50.000114 199.999969
v -350.000549 49.999825 199.999969
v -299.999908 -50.000164 99.999939
v -300.000092 49.999714 99.999939
v -300.000092 49.999714 99.999939
v -299.999908 -50.000164 99.999939
v -299.999908 -50.000164 149.999939
v -300.000092 49.999714 149.999939
v -350.000946 -50.000179 300.000000
v -250.000732 -50.000160 300.000061
v -250.000732 49.999840 300.000061
v -350.001007 49.999821 300.000000
v -350.000946 -50.000179 300.000000
v -350.000427 -50.000114 199.999969
v -250.000732 -50.000160 300.000061
v -350.001007 49.999821 300.000000
v -350.000946 -50.000179 300.000000
v -250.000732 49.999840 300.000061
v -350.000549 49.999825 199.999969
v -350.001007 49.999821 300.000000
v -150.000488 -50.000134 300.000092
v -150.000488 49.999866 300.000092
v -150.000488 -50.000134 300.000092
v -150.000061 -50.000080 200.000000
v -150.000092 49.999920 200.000000
v -150.000488 49.999866 300.000092
v -150.000488 -50.000134 300.000092
v -150.000488 49.999866 300.000092
v -450.000946 -49.999947 249.999832
v -450.001007 50.000053 249.999832
v -350.001007 50.000080 249.999817
v -350.000946 -49.999920 249.999817
v -450.000946 -49.999947 349.999817
v -350.000946 -49.999920 349.999817
v -350.001007 50.000080 349.999817
v -450.001007 50.000053 349.999817
v -350.000946 -49.999920 349.999817
v -350.000946 -49.999920 249.999817
v -350.001007 50.000080 249.999817
v -350.001007 50.000080 349.999817
v -450.000946 -49.999947 349.999817
v -450.000946 -49.999947 249.999832
v -350.000946 -49.999920 249.999817
v -350.000946 -49.999920 349.999817
v -450.001007 50.000053 349.999817
v -450.001007 50.000053 249.999832
v -450.000946 -49.999947 249.999832
v -450.000946 -49.999947 349.999817
v -350.001007 50.000080 349.999817
v -350.001007 50.000080 249.999817
v -450.001007 50.000053 249.999832
v -450.001007 50.000053 349.999817
v -49.999630 -49.999947 199.999939
v -49.999870 -49.999886 249.999863
v -149.999878 -49.999897 249.999863
v -49.999691 49.999992 199.999939
v -149.999878 50.000103 249.999863
v -49.999886 50.000114 249.999847
v -49.999886 50.000114 249.999847
v -149.999878 50.000103 249.999863
v -149.999878 -49.999897 249.999863
v -49.999870 -49.999886 249.999863
v 50.000229 -50.000114 150.000031
v 100.000229 -50.000111 150.000031
v 100.000221 -50.000111 100.000015
v 300.001221 -49.999836 99.999878
v 300.001221 -49.999836 149.999878
v 350.001221 -49.999950 149.999878
v -49.999496 49.999870 150.000031
v -99.999489 49.999744 150.000031
v -99.999496 49.999744 100.000046
v -300.000092 49.999714 99.999939
v -300.000092 49.999714 149.999939
v -350.000092 49.999828 149.999939
v 100.000137 49.999767 100.000015
v 100.000145 49.999767 150.000031
v 50.000153 49.999763 150.000031
v 350.001068 49.999928 149.999878
v 300.001068 50.000042 149.999878
v 300.001068 50.000042 99.999878
v -99.999405 -50.000134 100.000046
v -99.999397 -50.000134 150.000031
v -49.999390 -50.000008 150.000031
v -349.999908 -50.000050 149.999939
v -299.999908 -50.000164 149.999939
v -299.999908 -50.000164 99.999939
vn -0.0000 -0.0000 -1.0000
vn -0.0000 -0.0000 1.0000
vn -1.0000 -0.0000 -0.0000
vn -0.0000 1.0000 -0.0000
vn 1.0000 -0.0000 -0.0000
vn -0.0000 -1.0000 -0.0000
vt 0.250000 0.750000
vt 0.250000 0.999969
vt 0.500000 0.999969
vt 0.500000 0.750000
vt 0.250000 0.875000
vt 0.500000 0.875000
vt 0.500000 0.250000
vt 0.500000 0.500000
vt 0.250000 0.500000
vt 0.250000 0.250000
vt 0.375000 0.999969
vt 0.375000 0.875000
vt 0.375000 0.750000
s 1
usemtl MI_EndCitadel_MeshFades
f 15/1/4 16/2/4 13/3/4 14/4/4
f 75/5/5 76/6/5 73/4/5 74/1/5
f 149/7/4 150/8/4 147/9/4 148/10/4
f 153/7/5 154/8/5 151/9/5 152/10/5
f 233/1/4 234/2/4 231/3/4 232/4/4
f 11/1/3 12/2/3 9/3/3 10/4/3
f 185/5/1 186/6/1 132/4/1 131/1/1
f 27/10/6 28/7/6 25/8/6 26/9/6
f 29/1/4 95/2/4 83/3/4 30/4/4
f 103/1/2 104/2/2 101/3/2 102/4/2
f 25/1/6 86/2/6 96/3/6 26/4/6
f 47/3/1 48/6/1 45/5/1 46/2/1
f 183/1/3 199/2/3 198/3/3 184/4/3
f 137/10/4 138/7/4 135/8/4 136/9/4
f 201/1/4 202/2/4 200/3/4 135/4/4
f 3/4/1 4/1/1 1/2/1 2/3/1
f 140/1/6 197/2/6 195/3/6 196/4/6
f 93/1/3 94/2/3 91/3/3 92/4/3
f 30/1/4 83/2/4 81/3/4 82/4/4
f 19/1/5 20/2/5 17/3/5 18/4/5
f 67/1/5 85/2/5 84/3/5 68/4/5
f 183/2/3 184/3/3 181/6/3 182/5/3
f 129/1/2 130/4/2 127/3/2 128/2/2
f 37/7/3 38/8/3 35/9/3 36/10/3
f 204/1/2 193/2/2 192/3/2 203/4/2
f 31/10/4 32/7/4 29/8/4 30/9/4
f 55/6/1 56/4/1 53/1/1 54/5/1
f 169/2/5 170/3/5 167/6/5 168/5/5
f 79/1/2 80/2/2 77/3/2 78/4/2
f 99/4/1 100/1/1 97/2/1 98/3/1
f 23/1/6 24/2/6 21/3/6 22/4/6
f 119/1/6 120/2/6 117/3/6 118/4/6
f 175/6/5 176/4/5 173/1/5 174/5/5
f 145/7/2 146/8/2 143/9/2 144/10/2
f 237/6/6 139/4/6 235/1/6 236/5/6
f 239/5/4 240/6/4 238/4/4 136/1/4
f 43/7/5 44/8/5 41/9/5 42/10/5
f 193/1/2 194/2/2 191/3/2 192/4/2
f 172/6/1 134/4/1 133/1/1 171/5/1
f 40/7/4 32/8/4 31/9/4 39/10/4
f 90/1/2 79/2/2 78/3/2 89/4/2
f 115/1/5 116/2/5 113/3/5 114/4/5
f 107/1/3 108/2/3 105/3/3 106/4/3
f 59/6/3 60/4/3 57/1/3 58/5/3
f 7/1/2 8/2/2 5/3/2 6/4/2
f 51/2/3 52/3/3 49/6/3 50/5/3
f 34/7/6 28/8/6 27/9/6 33/10/6
f 141/10/6 142/7/6 139/8/6 140/9/6
f 161/7/3 162/8/3 159/9/3 160/10/3
f 125/5/6 126/6/6 124/4/6 26/1/6
f 165/3/1 166/6/1 163/5/1 164/2/1
f 71/5/1 72/6/1 69/4/1 70/1/1
f 157/7/6 158/8/6 155/9/6 156/10/6
f 243/1/2 244/4/2 241/3/2 242/2/2
f 179/2/1 180/3/1 177/6/1 178/5/1
f 207/1/5 208/2/5 205/3/5 206/4/5
f 135/1/4 200/2/4 210/3/4 136/4/4
f 133/7/1 134/8/1 131/9/1 132/10/1
f 67/2/5 68/3/5 65/6/5 66/5/5
f 63/2/1 64/3/1 61/6/1 62/5/1
f 139/1/6 209/2/6 197/3/6 140/4/6
f 87/1/6 88/2/6 86/3/6 25/4/6
f 213/4/1 214/1/1 211/2/1 212/3/1
f 189/5/3 190/6/3 187/4/3 188/1/3
f 111/1/4 112/2/4 109/3/4 110/4/4
f 221/1/5 222/2/5 219/3/5 220/4/5
f 225/1/6 226/2/6 223/3/6 224/4/6
f 123/6/4 29/4/4 121/1/4 122/5/4
f 217/1/2 218/2/2 215/3/2 216/4/2
f 245/11/6 26/1/6 124/2/6
f 246/12/6 26/1/6 245/11/6
f 27/4/6 26/1/6 246/12/6
f 27/4/6 246/12/6 247/6/6
f 248/6/6 25/1/6 28/4/6
f 249/12/6 25/1/6 248/6/6
f 87/2/6 25/1/6 249/12/6
f 87/2/6 249/12/6 250/11/6
f 251/13/4 136/2/4 238/1/4
f 252/12/4 136/2/4 251/13/4
f 137/3/4 136/2/4 252/12/4
f 137/3/4 252/12/4 253/6/4
f 254/6/4 135/1/4 138/4/4
f 255/12/4 135/1/4 254/6/4
f 201/2/4 135/1/4 255/12/4
f 201/2/4 255/12/4 256/11/4
f 258/12/4 32/4/4 257/6/4
f 29/1/4 32/4/4 258/12/4
f 29/1/4 258/12/4 121/2/4
f 121/2/4 258/12/4 259/11/4
f 261/12/4 82/1/4 260/13/4
f 261/12/4 30/2/4 82/1/4
f 261/12/4 31/3/4 30/2/4
f 262/6/4 31/3/4 261/12/4
f 264/12/6 142/4/6 263/6/6
f 139/1/6 142/4/6 264/12/6
f 139/1/6 264/12/6 235/2/6
f 235/2/6 264/12/6 265/11/6
f 267/12/6 196/1/6 266/13/6
f 267/12/6 140/2/6 196/1/6
f 267/12/6 141/3/6 140/2/6
f 268/6/6 141/3/6 267/12/6
f 229/1/3 230/2/3 227/3/3 228/4/3
