# Blender 5.0.1
# www.blender.org
mtllib BP_Signs_Tailor.mtl
o SM_SignNew_Leaves.001
v -144.000000 -9.374974 1.500015
v 56.000000 -9.374987 -73.500000
v 56.000000 -9.374974 1.500015
v -144.000000 -9.374987 -73.500000
v 56.000000 15.625026 1.500015
v -144.000000 15.625026 1.500015
v -144.000000 -9.374974 1.500015
v 56.000000 -9.374974 1.500015
v -144.000000 15.625026 1.500015
v 56.000000 15.625026 1.500015
v 56.000000 15.625013 -73.500000
v -144.000000 15.625013 -73.500000
vn -0.0000 -1.0000 -0.0000
vn -0.0000 -0.0000 1.0000
vn -0.0000 1.0000 -0.0000
vt 0.000031 0.125000
vt 1.000000 0.125000
vt 1.000000 0.500000
vt 0.000031 0.500000
vt 1.000000 0.625000
vt 0.000031 0.625000
vt 0.000031 0.999969
vt 1.000000 0.999969
s 1
usemtl MI_Signs_Leaves
f 4/1/1 2/2/1 3/3/1 1/4/1
f 8/3/2 5/5/2 6/6/2 7/4/2
f 12/7/3 9/6/3 10/5/3 11/8/3
