# Blender 5.0.1
# www.blender.org
mtllib BP_StaircaseRugs_4blocks.mtl
o SM_StaircaseRugs_Staircase_4blocks.001
v 200.000000 -43.750004 106.250000
v -200.000000 -100.000008 106.249992
v 200.000000 -100.000008 106.249992
v -200.000000 -43.750004 106.250000
v 200.000000 6.250002 0.000002
v -200.000000 6.250002 0.000002
v -200.000000 6.250000 56.250004
v 200.000000 6.250000 56.250004
v -200.000000 -43.750004 56.250000
v 200.000000 -43.750004 106.250000
v 200.000000 -43.750004 56.250000
v -200.000000 -43.750004 106.250000
v 200.000000 -43.750004 56.250000
v -200.000000 6.250000 56.250004
v -200.000000 -43.750004 56.250000
v 200.000000 6.250000 56.250004
v 200.000000 -100.000008 106.249992
v -200.000000 -100.000008 106.249992
v -200.000000 -100.000008 99.999992
v 200.000000 -100.000008 99.999992
v 200.000000 0.000001 0.000002
v -200.000000 0.000001 0.000002
v -200.000000 6.250002 0.000002
v 200.000000 6.250002 0.000002
v 200.000000 -100.000008 106.249992
v 200.000000 -50.000004 100.000000
v 200.000000 -43.750004 106.250000
v 200.000000 -100.000008 99.999992
v 200.000000 -0.000001 50.000004
v 200.000000 0.000001 0.000002
v 200.000000 6.250002 0.000002
v 200.000000 6.250000 56.250004
v 200.000000 -50.000004 50.000000
v 200.000000 -43.750004 56.250000
v -200.000000 -100.000008 106.249992
v -200.000000 -50.000004 100.000000
v -200.000000 -100.000008 99.999992
v -200.000000 -43.750004 106.250000
v -200.000000 -0.000001 50.000004
v -200.000000 6.250002 0.000002
v -200.000000 0.000001 0.000002
v -200.000000 6.250000 56.250004
v -200.000000 -43.750004 56.250000
v -200.000000 -50.000004 50.000000
vn -0.0000 -0.0000 1.0000
vn -0.0000 1.0000 -0.0000
vn -0.0000 -1.0000 -0.0000
vn -0.0000 -0.0000 -1.0000
vn 1.0000 -0.0000 -0.0000
vn -1.0000 -0.0000 -0.0000
vt 0.854980 0.131836
vt 0.854980 0.145020
vt 0.013153 0.145020
vt 0.013153 0.131836
vt 0.854980 0.372559
vt 0.013153 0.372559
vt 0.013153 0.267578
vt 0.854980 0.267578
vt 0.013153 0.263184
vt 0.854980 0.263184
vt 0.854980 0.481934
vt 0.013153 0.481934
vt 0.013153 0.376465
vt 0.854980 0.376465
vt 0.854980 0.000488
vt 0.854980 0.118652
vt 0.013153 0.118652
vt 0.013153 0.000000
vt 0.868164 0.250000
vt 0.868164 0.145020
vt 0.868164 0.013184
vt 0.868164 0.118652
vt 0.000031 0.359375
vt 0.000031 0.254395
vt 0.868164 0.468750
vt 0.868164 0.363281
vt 0.000031 0.145020
vt 0.000031 0.250000
vt 0.000031 0.118652
vt 0.000032 0.013184
vt 0.868164 0.254395
vt 0.868164 0.359375
vt 0.000031 0.468750
vt 0.000031 0.363281
s 1
usemtl WorldGridMaterial
f 20/1/3 17/2/3 18/3/3 19/4/3
f 12/5/2 10/6/2 11/7/2 9/8/2
f 4/9/1 2/3/1 3/2/1 1/10/1
f 16/11/1 14/12/1 15/13/1 13/14/1
f 8/15/2 5/16/2 6/17/2 7/18/2
f 27/10/5 25/2/5 26/19/5
f 28/20/5 26/19/5 25/2/5
f 31/16/5 29/21/5 30/22/5
f 32/15/5 29/21/5 31/16/5
f 34/7/5 26/23/5 33/24/5
f 27/6/5 26/23/5 34/7/5
f 32/11/5 34/14/5 29/25/5
f 33/26/5 29/25/5 34/14/5
f 37/27/6 35/3/6 36/28/6
f 36/28/6 35/3/6 38/9/6
f 41/29/6 39/30/6 40/17/6
f 42/18/6 40/17/6 39/30/6
f 44/31/6 36/32/6 43/8/6
f 38/5/6 43/8/6 36/32/6
f 39/33/6 43/13/6 42/12/6
f 43/13/6 39/33/6 44/34/6
f 24/16/4 21/1/4 22/4/4 23/17/4
