# Blender 5.0.1
# www.blender.org
mtllib BP_SwampFlower.mtl
o SM_SwampFlower.001
v 37.500000 -21.875004 78.125000
v 15.624999 21.874998 56.250000
v 15.624999 -21.875002 56.250000
v 37.500004 21.874996 78.125000
v 59.374996 -21.875000 56.250000
v 37.500004 21.874996 78.125000
v 37.500000 -21.875004 78.125000
v 59.374996 21.875000 56.250000
v 21.874998 37.500000 78.125000
v -21.875000 37.500000 78.125000
v 21.874998 15.624999 56.250000
v -21.875000 15.624999 56.250000
v 21.874998 59.374996 56.250004
v -21.875000 59.375000 56.250004
v -21.875000 37.500000 78.125000
v 21.874998 37.500000 78.125000
v -15.624999 -21.875002 56.250000
v -15.624999 21.874998 56.250000
v -37.500000 -21.875004 78.125000
v -37.500000 21.874996 78.125000
v -59.375000 21.874998 56.250000
v -59.375000 -21.875002 56.250000
v -37.500000 -21.875004 78.125000
v -37.500000 21.874996 78.125000
v -21.875000 -37.500000 78.125000
v 21.874998 -15.625003 56.250000
v -21.875002 -15.625003 56.250000
v 21.875000 -37.500004 78.125000
v -21.875000 -59.375000 56.249996
v 21.875000 -59.375004 56.249996
v 21.875000 -37.500004 78.125000
v -21.875000 -37.500000 78.125000
v -15.624999 -15.625004 93.750000
v 15.625000 -15.625003 56.249996
v 15.625000 -15.625004 93.750000
v -15.625000 -15.625003 56.249996
v 15.625000 -15.625004 93.750000
v 15.625000 15.624994 93.750000
v -15.624999 -15.625004 93.750000
v -15.624999 15.624994 93.750000
v 15.625000 15.624995 56.249996
v -15.625000 15.624995 56.249996
v -15.624999 15.624994 93.750000
v 15.625000 15.624994 93.750000
v 15.625000 -15.625003 56.249996
v -15.625000 -15.625003 56.249996
v -15.625000 15.624995 56.249996
v 15.625000 15.624995 56.249996
v 15.625000 -15.625004 93.750000
v 15.625000 -15.625003 56.249996
v 15.625000 15.624994 93.750000
v 15.625000 15.624995 56.249996
v -15.624999 -15.625004 93.750000
v -15.625000 15.624995 56.249996
v -15.625000 -15.625003 56.249996
v -15.624999 15.624994 93.750000
v -6.250000 -6.250002 56.249996
v -6.250000 -6.250000 -0.000000
v 6.250000 -6.250002 56.249996
v 6.250000 -6.250000 -0.000000
v -6.250000 6.250000 0.000000
v -6.250000 6.249998 56.249996
v 6.250000 6.250000 0.000000
v 6.250000 6.249998 56.249996
v 6.250000 6.250000 0.000000
v 6.250000 6.249998 56.249996
v 6.250000 -6.250000 -0.000000
v 6.250000 -6.250002 56.249996
v -6.250000 -6.250002 56.249996
v -6.250000 6.250000 0.000000
v -6.250000 -6.250000 -0.000000
v -6.250000 6.249998 56.249996
v 0.000000 -34.375000 -0.000002
v 151.554443 -34.375004 87.500000
v 151.554443 34.374996 87.500000
v 0.000000 34.375000 0.000002
v 15.467964 -15.467958 37.500000
v 52.833313 83.769234 63.381908
v -15.467957 15.467962 37.500000
v 83.769234 52.833309 63.381908
v -151.554443 -34.375004 87.500000
v 0.000000 -34.375000 -0.000002
v 0.000000 34.375000 0.000002
v -151.554443 34.374996 87.500000
v 11.690861 132.477127 118.826668
v -34.004723 -4.902699 -1.132750
v 34.004723 4.902699 1.132750
v -56.318584 122.671715 116.561165
v -45.769283 76.705200 87.500000
v -15.467961 -15.467964 37.500000
v 15.467962 15.467959 37.500000
v -76.705208 45.769279 87.500000
v -15.467964 15.467955 37.500000
v -83.769234 -52.833317 63.381901
v -52.833313 -83.769234 63.381901
v 15.467957 -15.467966 37.500000
v -34.375000 0.000000 0.000000
v 34.375000 -86.602547 49.999996
v 34.375000 0.000000 0.000000
v -34.375000 -86.602547 49.999996
v -34.375000 -161.602539 49.999992
v 34.375000 -161.602539 49.999992
v 18.431286 -49.098888 53.748253
v 15.467964 15.467955 37.500000
v -15.467957 -15.467966 37.500000
v 51.230087 -20.164667 52.693825
v 77.402649 -50.582813 32.117130
v 44.603844 -79.517029 33.171558
vn -0.7071 -0.0000 0.7071
vn 0.7071 -0.0000 0.7071
vn -0.0000 -0.7071 0.7071
vn -0.0000 0.7071 0.7071
vn -0.0000 -1.0000 -0.0000
vn -0.0000 -0.0000 1.0000
vn -0.0000 1.0000 -0.0000
vn -0.0000 -0.0000 -1.0000
vn 1.0000 -0.0000 -0.0000
vn -1.0000 -0.0000 -0.0000
vn -0.5000 -0.0000 0.8660
vn -0.1830 -0.1830 0.9659
vn 0.5000 -0.0000 0.8660
vn 0.0719 -0.6695 0.7393
vn 0.3536 -0.3536 0.8660
vn 0.1830 0.1830 0.9659
vn -0.0000 0.5000 0.8660
vn -0.0000 0.2588 0.9659
vn 0.0587 -0.0476 0.9971
vn -0.2007 0.2304 0.9522
vn 0.0685 -0.0582 0.9960
vn 0.3180 -0.3281 0.8895
vt 0.916504 0.416992
vt 0.916504 0.999969
vt 0.687500 0.999969
vt 0.687500 0.416992
vt 0.312500 0.895874
vt 0.312500 0.791748
vt 0.458252 0.791748
vt 0.458252 0.895874
vt 0.145752 0.791748
vt 0.000031 0.791748
vt 0.000031 0.641357
vt 0.145752 0.641357
vt 0.312500 0.999969
vt 0.458252 0.999969
vt 0.083313 0.916687
vt 0.083313 0.791748
vt 0.166626 0.791748
vt 0.166626 0.916687
vt 0.166626 0.895874
vt 0.416504 0.604248
vt 0.416504 0.791748
vt 0.375000 0.791748
vt 0.375000 0.604248
vt 0.166626 0.999969
vt 0.000031 0.999969
vt 0.000031 0.916687
vt 0.083313 0.999969
vt 0.687500 0.666748
vt 0.916504 0.666748
vt 0.291504 0.791748
vt 0.145752 0.458496
vt 0.291504 0.458496
vt 0.291504 0.604248
vt 0.333252 0.604248
vt 0.333252 0.791748
vt 0.000031 0.437500
vt 0.000031 0.208496
vt 0.583008 0.208496
vt 0.583008 0.437500
vt 0.458252 0.604248
vt 0.000031 0.458496
vt 0.458252 0.416992
s 1
usemtl MI_SwampFlower
f 88/1/14 86/2/14 87/3/14 85/4/14
f 4/5/1 2/6/1 3/7/1 1/8/1
f 108/9/22 107/10/22 106/11/21 103/12/19
f 8/13/2 6/5/2 7/8/2 5/14/2
f 44/15/7 41/16/7 42/17/7 43/18/7
f 36/16/5 34/17/5 35/18/5 33/15/5
f 10/19/3 12/17/3 11/6/3 9/5/3
f 23/5/1 24/8/1 21/14/1 22/13/1
f 64/20/7 63/21/7 61/22/7 62/23/7
f 32/5/3 29/13/3 30/24/3 31/19/3
f 40/25/6 39/26/6 37/15/6 38/27/6
f 100/28/18 98/29/18 99/2/17 97/3/17
f 16/5/4 13/13/4 14/24/4 15/19/4
f 50/10/9 52/16/9 51/15/9 49/26/9
f 80/30/12 78/9/12 79/31/12 77/32/12
f 60/30/5 59/33/5 57/34/5 58/35/5
f 20/8/2 19/5/2 17/6/2 18/7/2
f 76/36/11 73/37/11 74/38/11 75/39/11
f 48/18/8 45/24/8 46/27/8 47/15/8
f 72/23/10 70/22/10 71/35/10 69/34/10
f 66/20/9 68/40/9 67/7/9 65/21/9
f 28/19/4 26/17/4 27/6/4 25/5/4
f 96/31/16 93/32/16 94/30/16 95/9/16
f 56/26/10 54/10/10 55/16/10 53/15/10
f 92/10/15 90/41/15 91/31/15 89/9/15
f 84/42/13 81/4/13 82/3/13 83/14/13
f 106/11/21 104/41/20 105/31/20 103/12/19
f 101/4/6 102/1/6 98/29/18 100/28/18
