# Blender 5.0.1
# www.blender.org
mtllib BP_SupportBeam_Large.mtl
o SM_SupportBeam_Large.001
v 50.000000 50.000008 49.999992
v -50.000000 50.000000 -0.000008
v -50.000000 50.000008 49.999992
v 50.000000 50.000000 -0.000008
v 50.000000 0.000008 50.000000
v 50.000000 50.000000 -0.000008
v 50.000000 50.000008 49.999992
v 50.000000 0.000000 0.000000
v -50.000000 0.000008 50.000000
v 50.000000 0.000008 50.000000
v -50.000000 50.000008 49.999992
v 50.000000 50.000008 49.999992
v -50.000000 50.000000 -0.000008
v 50.000000 50.000000 -0.000008
v -50.000000 0.000000 0.000000
v 50.000000 0.000000 0.000000
v -50.000000 0.000000 0.000000
v 50.000000 0.000000 0.000000
v -50.000000 0.000008 50.000000
v 50.000000 0.000008 50.000000
v -50.000000 50.000008 49.999992
v -50.000000 0.000000 0.000000
v -50.000000 0.000008 50.000000
v -50.000000 50.000000 -0.000008
vn -0.0000 1.0000 -0.0000
vn 1.0000 -0.0000 -0.0000
vn -0.0000 -0.0000 1.0000
vn -0.0000 -0.0000 -1.0000
vn -0.0000 -1.0000 -0.0000
vn -1.0000 -0.0000 -0.0000
vt 1.000000 0.250000
vt 1.000000 0.500000
vt 0.500000 0.500000
vt 0.500000 0.250000
vt 1.000000 0.750000
vt 0.500000 0.750000
vt 1.000000 0.999969
vt 0.500000 0.999969
vt 1.000000 0.000000
vt 0.500000 0.000000
vt 0.250000 0.500000
vt 0.250000 0.750000
s 1
usemtl MI_SupportBeam_Large
f 18/1/5 20/2/5 19/3/5 17/4/5
f 10/2/3 12/5/3 11/6/3 9/3/3
f 4/7/1 2/8/1 3/6/1 1/5/1
f 14/9/4 16/1/4 15/4/4 13/10/4
f 8/11/2 6/12/2 7/6/2 5/3/2
f 24/11/6 22/12/6 23/6/6 21/3/6
