# Blender 5.0.1
# www.blender.org
mtllib BP_StoneRailing_Mid_Instanced.mtl
o SM_StoneRailing_Mid.001
v -0.000012 100.000000 18.750000
v -100.000000 100.000000 18.750000
v -100.000000 0.000001 18.750000
v -0.000012 -0.000002 18.750000
v -100.000000 0.000001 -18.750000
v -0.000012 100.000000 -18.750000
v -0.000012 -0.000002 -18.750000
v -100.000000 100.000000 -18.750000
v -99.999992 131.250000 24.999998
v -0.000005 100.000000 24.999998
v -0.000002 131.250000 24.999998
v -99.999992 100.000000 24.999998
v -0.000005 100.000000 -24.999998
v -99.999992 100.000000 -24.999998
v -99.999992 131.250000 -24.999998
v -0.000002 131.250000 -24.999998
v -99.999992 100.000000 24.999998
v -0.000012 100.000000 18.750000
v -0.000005 100.000000 24.999998
v -100.000000 100.000000 18.750000
v -0.000012 100.000000 -18.750000
v -100.000000 100.000000 -18.750000
v -99.999992 100.000000 -24.999998
v -0.000005 100.000000 -24.999998
v -99.999992 131.250000 24.999998
v -0.000002 131.250000 24.999998
v -0.000009 131.250000 18.750000
v -99.999992 131.250000 18.750000
v -0.000009 131.250000 -18.750000
v -99.999992 131.250000 -18.750000
v -99.999992 131.250000 -24.999998
v -0.000002 131.250000 -24.999998
vn -0.0000 -0.0000 1.0000
vn -0.0000 -0.0000 -1.0000
vn -0.0000 -1.0000 -0.0000
vn -0.0000 1.0000 -0.0000
vt 0.187500 0.687500
vt 0.187500 0.531250
vt 0.687500 0.531250
vt 0.687500 0.687500
vt 0.687500 0.000000
vt 0.687500 0.500000
vt 0.187500 0.500000
vt 0.187500 0.000000
vt 0.187500 0.718750
vt 0.687500 0.718750
vt 0.687500 0.937500
vt 0.187500 0.937500
vt 0.187500 0.906250
vt 0.687500 0.906250
s 1
usemtl MI_StoneRailing
f 16/1/2 13/2/2 14/3/2 15/4/2
f 4/5/1 1/6/1 2/7/1 3/8/1
f 28/9/4 25/1/4 26/4/4 27/10/4
f 12/2/1 10/3/1 11/4/1 9/1/1
f 20/7/3 18/6/3 19/3/3 17/2/3
f 32/11/4 31/12/4 30/13/4 29/14/4
f 8/6/2 6/7/2 7/8/2 5/5/2
f 24/2/3 21/7/3 22/6/3 23/3/3
f 30/13/4 28/9/4 27/10/4 29/14/4
