# Blender 5.0.1
# www.blender.org
mtllib BP_StaticShrooms002.mtl
o SM_StaticShrooms002.001
v 48.750000 -8.750000 31.250000
v 48.750000 -21.250000 0.000000
v 48.750000 -21.250000 31.250000
v 48.750000 -8.750000 0.000000
v 61.250000 -8.750000 31.250000
v 48.750000 -8.750000 0.000000
v 48.750000 -8.750000 31.250000
v 61.250000 -8.750000 0.000000
v 61.250000 -21.250000 31.250000
v 61.250000 -8.750000 0.000000
v 61.250000 -8.750000 31.250000
v 61.250000 -21.250000 0.000000
v 48.750000 -21.250000 31.250000
v 61.250000 -21.250000 0.000000
v 61.250000 -21.250000 31.250000
v 48.750000 -21.250000 0.000000
v 61.250000 -21.250000 0.000000
v 48.750000 -21.250000 0.000000
v 48.750000 -8.750000 0.000000
v 61.250000 -8.750000 0.000000
v 42.500000 -2.500000 50.000000
v 42.500000 -27.500000 31.250000
v 42.500000 -27.500000 50.000000
v 42.500000 -2.500000 31.250000
v 67.500000 -2.500000 50.000000
v 42.500000 -2.500000 31.250000
v 42.500000 -2.500000 50.000000
v 67.500000 -2.500000 31.250000
v 67.500000 -27.500000 50.000000
v 67.500000 -2.500000 31.250000
v 67.500000 -2.500000 50.000000
v 67.500000 -27.500000 31.250000
v 42.500000 -27.500000 50.000000
v 67.500000 -27.500000 31.250000
v 67.500000 -27.500000 50.000000
v 42.500000 -27.500000 31.250000
v 67.500000 -27.500000 31.250000
v 42.500000 -27.500000 31.250000
v 42.500000 -2.500000 31.250000
v 67.500000 -2.500000 31.250000
v 42.500000 -2.500000 50.000000
v 42.500000 -27.500000 50.000000
v 67.500000 -2.500000 50.000000
v 67.500000 -27.500000 50.000000
v -1.250000 41.250000 56.250000
v -1.250000 28.750000 0.000000
v -1.250000 28.750000 56.250000
v -1.250000 41.250000 0.000000
v 11.250000 41.250000 56.250000
v -1.250000 41.250000 0.000000
v -1.250000 41.250000 56.250000
v 11.250000 41.250000 0.000000
v 11.250000 28.750000 56.250000
v 11.250000 41.250000 0.000000
v 11.250000 41.250000 56.250000
v 11.250000 28.750000 0.000000
v -1.250000 28.750000 56.250000
v 11.250000 28.750000 0.000000
v 11.250000 28.750000 56.250000
v -1.250000 28.750000 0.000000
v 11.250000 28.750000 0.000000
v -1.250000 28.750000 0.000000
v -1.250000 41.250000 0.000000
v 11.250000 41.250000 0.000000
v -16.875000 56.875000 81.250000
v -16.875000 13.125000 56.250000
v -16.875000 13.125000 81.250000
v -16.875000 56.875000 56.250000
v 26.875000 56.875000 81.250000
v -16.875000 56.875000 56.250000
v -16.875000 56.875000 81.250000
v 26.875000 56.875000 56.250000
v 26.875000 13.125000 81.250000
v 26.875000 56.875000 56.250000
v 26.875000 56.875000 81.250000
v 26.875000 13.125000 56.250000
v -16.875000 13.125000 81.250000
v 26.875000 13.125000 56.250000
v 26.875000 13.125000 81.250000
v -16.875000 13.125000 56.250000
v 26.875000 13.125000 56.250000
v -16.875000 13.125000 56.250000
v -16.875000 56.875000 56.250000
v 26.875000 56.875000 56.250000
v -16.875000 56.875000 81.250000
v -16.875000 13.125000 81.250000
v 26.875000 56.875000 81.250000
v 26.875000 13.125000 81.250000
v 48.750000 -63.750000 56.250000
v 48.750000 -76.250000 0.000000
v 48.750000 -76.250000 56.250000
v 48.750000 -63.750000 0.000000
v 61.250000 -63.750000 56.250000
v 48.750000 -63.750000 0.000000
v 48.750000 -63.750000 56.250000
v 61.250000 -63.750000 0.000000
v 61.250000 -76.250000 56.250000
v 61.250000 -63.750000 0.000000
v 61.250000 -63.750000 56.250000
v 61.250000 -76.250000 0.000000
v 48.750000 -76.250000 56.250000
v 61.250000 -76.250000 0.000000
v 61.250000 -76.250000 56.250000
v 48.750000 -76.250000 0.000000
v 61.250000 -76.250000 0.000000
v 48.750000 -76.250000 0.000000
v 48.750000 -63.750000 0.000000
v 61.250000 -63.750000 0.000000
v 33.125000 -48.125000 81.250000
v 33.125000 -91.875000 56.250000
v 33.125000 -91.875000 81.250000
v 33.125000 -48.125000 56.250000
v 76.875000 -48.125000 81.250000
v 33.125000 -48.125000 56.250000
v 33.125000 -48.125000 81.250000
v 76.875000 -48.125000 56.250000
v 76.875000 -91.875000 81.250000
v 76.875000 -48.125000 56.250000
v 76.875000 -48.125000 81.250000
v 76.875000 -91.875000 56.250000
v 33.125000 -91.875000 81.250000
v 76.875000 -91.875000 56.250000
v 76.875000 -91.875000 81.250000
v 33.125000 -91.875000 56.250000
v 76.875000 -91.875000 56.250000
v 33.125000 -91.875000 56.250000
v 33.125000 -48.125000 56.250000
v 76.875000 -48.125000 56.250000
v 33.125000 -48.125000 81.250000
v 33.125000 -91.875000 81.250000
v 76.875000 -48.125000 81.250000
v 76.875000 -91.875000 81.250000
v -71.250000 16.250000 31.250000
v -71.250000 3.750000 0.000000
v -71.250000 3.750000 31.250000
v -71.250000 16.250000 0.000000
v -58.750000 16.250000 31.250000
v -71.250000 16.250000 0.000000
v -71.250000 16.250000 31.250000
v -58.750000 16.250000 0.000000
v -58.750000 3.750000 31.250000
v -58.750000 16.250000 0.000000
v -58.750000 16.250000 31.250000
v -58.750000 3.750000 0.000000
v -71.250000 3.750000 31.250000
v -58.750000 3.750000 0.000000
v -58.750000 3.750000 31.250000
v -71.250000 3.750000 0.000000
v -58.750000 3.750000 0.000000
v -71.250000 3.750000 0.000000
v -71.250000 16.250000 0.000000
v -58.750000 16.250000 0.000000
v -77.500000 22.500000 68.750000
v -77.500000 -2.500000 31.250000
v -77.500000 -2.500000 68.750000
v -77.500000 22.500000 31.250000
v -52.500000 22.500000 68.750000
v -77.500000 22.500000 31.250000
v -77.500000 22.500000 68.750000
v -52.500000 22.500000 31.250000
v -52.500000 -2.500000 68.750000
v -52.500000 22.500000 31.250000
v -52.500000 22.500000 68.750000
v -52.500000 -2.500000 31.250000
v -77.500000 -2.500000 68.750000
v -52.500000 -2.500000 31.250000
v -52.500000 -2.500000 68.750000
v -77.500000 -2.500000 31.250000
v -52.500000 -2.500000 31.250000
v -77.500000 -2.500000 31.250000
v -77.500000 22.500000 31.250000
v -52.500000 22.500000 31.250000
v -77.500000 22.500000 68.750000
v -77.500000 -2.500000 68.750000
v -52.500000 22.500000 68.750000
v -52.500000 -2.500000 68.750000
v -96.250000 -33.750000 31.250000
v -96.250000 -46.250000 0.000000
v -96.250000 -46.250000 31.250000
v -96.250000 -33.750000 0.000000
v -83.750000 -33.750000 31.250000
v -96.250000 -33.750000 0.000000
v -96.250000 -33.750000 31.250000
v -83.750000 -33.750000 0.000000
v -83.750000 -46.250000 31.250000
v -83.750000 -33.750000 0.000000
v -83.750000 -33.750000 31.250000
v -83.750000 -46.250000 0.000000
v -96.250000 -46.250000 31.250000
v -83.750000 -46.250000 0.000000
v -83.750000 -46.250000 31.250000
v -96.250000 -46.250000 0.000000
v -83.750000 -46.250000 0.000000
v -96.250000 -46.250000 0.000000
v -96.250000 -33.750000 0.000000
v -83.750000 -33.750000 0.000000
v -102.500000 -27.500000 50.000000
v -102.500000 -52.500000 31.250000
v -102.500000 -52.500000 50.000000
v -102.500000 -27.500000 31.250000
v -77.500000 -27.500000 50.000000
v -102.500000 -27.500000 31.250000
v -102.500000 -27.500000 50.000000
v -77.500000 -27.500000 31.250000
v -77.500000 -52.500000 50.000000
v -77.500000 -27.500000 31.250000
v -77.500000 -27.500000 50.000000
v -77.500000 -52.500000 31.250000
v -102.500000 -52.500000 50.000000
v -77.500000 -52.500000 31.250000
v -77.500000 -52.500000 50.000000
v -102.500000 -52.500000 31.250000
v -77.500000 -52.500000 31.250000
v -102.500000 -52.500000 31.250000
v -102.500000 -27.500000 31.250000
v -77.500000 -27.500000 31.250000
v -102.500000 -27.500000 50.000000
v -102.500000 -52.500000 50.000000
v -77.500000 -27.500000 50.000000
v -77.500000 -52.500000 50.000000
v -56.250000 -113.750000 31.250000
v -56.250000 -126.250000 0.000000
v -56.250000 -126.250000 31.250000
v -56.250000 -113.750000 0.000000
v -43.750000 -113.750000 31.250000
v -56.250000 -113.750000 0.000000
v -56.250000 -113.750000 31.250000
v -43.750000 -113.750000 0.000000
v -43.750000 -126.250000 31.250000
v -43.750000 -113.750000 0.000000
v -43.750000 -113.750000 31.250000
v -43.750000 -126.250000 0.000000
v -56.250000 -126.250000 31.250000
v -43.750000 -126.250000 0.000000
v -43.750000 -126.250000 31.250000
v -56.250000 -126.250000 0.000000
v -43.750000 -126.250000 0.000000
v -56.250000 -126.250000 0.000000
v -56.250000 -113.750000 0.000000
v -43.750000 -113.750000 0.000000
v -62.500000 -107.500000 50.000000
v -62.500000 -132.500000 31.250000
v -62.500000 -132.500000 50.000000
v -62.500000 -107.500000 31.250000
v -37.500000 -107.500000 50.000000
v -62.500000 -107.500000 31.250000
v -62.500000 -107.500000 50.000000
v -37.500000 -107.500000 31.250000
v -37.500000 -132.500000 50.000000
v -37.500000 -107.500000 31.250000
v -37.500000 -107.500000 50.000000
v -37.500000 -132.500000 31.250000
v -62.500000 -132.500000 50.000000
v -37.500000 -132.500000 31.250000
v -37.500000 -132.500000 50.000000
v -62.500000 -132.500000 31.250000
v -37.500000 -132.500000 31.250000
v -62.500000 -132.500000 31.250000
v -62.500000 -107.500000 31.250000
v -37.500000 -107.500000 31.250000
v -62.500000 -107.500000 50.000000
v -62.500000 -132.500000 50.000000
v -37.500000 -107.500000 50.000000
v -37.500000 -132.500000 50.000000
v -111.250000 -78.750000 31.250000
v -111.250000 -91.250000 0.000000
v -111.250000 -91.250000 31.250000
v -111.250000 -78.750000 0.000000
v -98.750000 -78.750000 31.250000
v -111.250000 -78.750000 0.000000
v -111.250000 -78.750000 31.250000
v -98.750000 -78.750000 0.000000
v -98.750000 -91.250000 31.250000
v -98.750000 -78.750000 0.000000
v -98.750000 -78.750000 31.250000
v -98.750000 -91.250000 0.000000
v -111.250000 -91.250000 31.250000
v -98.750000 -91.250000 0.000000
v -98.750000 -91.250000 31.250000
v -111.250000 -91.250000 0.000000
v -98.750000 -91.250000 0.000000
v -111.250000 -91.250000 0.000000
v -111.250000 -78.750000 0.000000
v -98.750000 -78.750000 0.000000
v -117.500000 -72.500000 68.750000
v -117.500000 -97.500000 31.250000
v -117.500000 -97.500000 68.750000
v -117.500000 -72.500000 31.250000
v -92.500000 -72.500000 68.750000
v -117.500000 -72.500000 31.250000
v -117.500000 -72.500000 68.750000
v -92.500000 -72.500000 31.250000
v -92.500000 -97.500000 68.750000
v -92.500000 -72.500000 31.250000
v -92.500000 -72.500000 68.750000
v -92.500000 -97.500000 31.250000
v -117.500000 -97.500000 68.750000
v -92.500000 -97.500000 31.250000
v -92.500000 -97.500000 68.750000
v -117.500000 -97.500000 31.250000
v -92.500000 -97.500000 31.250000
v -117.500000 -97.500000 31.250000
v -117.500000 -72.500000 31.250000
v -92.500000 -72.500000 31.250000
v -117.500000 -72.500000 68.750000
v -117.500000 -97.500000 68.750000
v -92.500000 -72.500000 68.750000
v -92.500000 -97.500000 68.750000
v -111.250000 6.250000 31.250000
v -111.250000 -6.250000 0.000000
v -111.250000 -6.250000 31.250000
v -111.250000 6.250000 0.000000
v -98.750000 6.250000 31.250000
v -111.250000 6.250000 0.000000
v -111.250000 6.250000 31.250000
v -98.750000 6.250000 0.000000
v -98.750000 -6.250000 31.250000
v -98.750000 6.250000 0.000000
v -98.750000 6.250000 31.250000
v -98.750000 -6.250000 0.000000
v -111.250000 -6.250000 31.250000
v -98.750000 -6.250000 0.000000
v -98.750000 -6.250000 31.250000
v -111.250000 -6.250000 0.000000
v -98.750000 -6.250000 0.000000
v -111.250000 -6.250000 0.000000
v -111.250000 6.250000 0.000000
v -98.750000 6.250000 0.000000
v -117.500000 12.500000 50.000000
v -117.500000 -12.500000 31.250000
v -117.500000 -12.500000 50.000000
v -117.500000 12.500000 31.250000
v -92.500000 12.500000 50.000000
v -117.500000 12.500000 31.250000
v -117.500000 12.500000 50.000000
v -92.500000 12.500000 31.250000
v -92.500000 -12.500000 50.000000
v -92.500000 12.500000 31.250000
v -92.500000 12.500000 50.000000
v -92.500000 -12.500000 31.250000
v -117.500000 -12.500000 50.000000
v -92.500000 -12.500000 31.250000
v -92.500000 -12.500000 50.000000
v -117.500000 -12.500000 31.250000
v -92.500000 -12.500000 31.250000
v -117.500000 -12.500000 31.250000
v -117.500000 12.500000 31.250000
v -92.500000 12.500000 31.250000
v -117.500000 12.500000 50.000000
v -117.500000 -12.500000 50.000000
v -92.500000 12.500000 50.000000
v -92.500000 -12.500000 50.000000
v -11.250000 -68.750000 31.250000
v -11.250000 -81.250000 0.000000
v -11.250000 -81.250000 31.250000
v -11.250000 -68.750000 0.000000
v 1.250000 -68.750000 31.250000
v -11.250000 -68.750000 0.000000
v -11.250000 -68.750000 31.250000
v 1.250000 -68.750000 0.000000
v 1.250000 -81.250000 31.250000
v 1.250000 -68.750000 0.000000
v 1.250000 -68.750000 31.250000
v 1.250000 -81.250000 0.000000
v -11.250000 -81.250000 31.250000
v 1.250000 -81.250000 0.000000
v 1.250000 -81.250000 31.250000
v -11.250000 -81.250000 0.000000
v 1.250000 -81.250000 0.000000
v -11.250000 -81.250000 0.000000
v -11.250000 -68.750000 0.000000
v 1.250000 -68.750000 0.000000
v -17.500000 -62.500000 68.750000
v -17.500000 -87.500000 31.250000
v -17.500000 -87.500000 68.750000
v -17.500000 -62.500000 31.250000
v 7.500000 -62.500000 68.750000
v -17.500000 -62.500000 31.250000
v -17.500000 -62.500000 68.750000
v 7.500000 -62.500000 31.250000
v 7.500000 -87.500000 68.750000
v 7.500000 -62.500000 31.250000
v 7.500000 -62.500000 68.750000
v 7.500000 -87.500000 31.250000
v -17.500000 -87.500000 68.750000
v 7.500000 -87.500000 31.250000
v 7.500000 -87.500000 68.750000
v -17.500000 -87.500000 31.250000
v 7.500000 -87.500000 31.250000
v -17.500000 -87.500000 31.250000
v -17.500000 -62.500000 31.250000
v 7.500000 -62.500000 31.250000
v -17.500000 -62.500000 68.750000
v -17.500000 -87.500000 68.750000
v 7.500000 -62.500000 68.750000
v 7.500000 -87.500000 68.750000
v -1.250000 -138.750000 56.250000
v -1.250000 -151.250000 0.000000
v -1.250000 -151.250000 56.250000
v -1.250000 -138.750000 0.000000
v 11.250000 -138.750000 56.250000
v -1.250000 -138.750000 0.000000
v -1.250000 -138.750000 56.250000
v 11.250000 -138.750000 0.000000
v 11.250000 -151.250000 56.250000
v 11.250000 -138.750000 0.000000
v 11.250000 -138.750000 56.250000
v 11.250000 -151.250000 0.000000
v -1.250000 -151.250000 56.250000
v 11.250000 -151.250000 0.000000
v 11.250000 -151.250000 56.250000
v -1.250000 -151.250000 0.000000
v 11.250000 -151.250000 0.000000
v -1.250000 -151.250000 0.000000
v -1.250000 -138.750000 0.000000
v 11.250000 -138.750000 0.000000
v -16.875000 -123.125000 81.250000
v -16.875000 -166.875000 56.250000
v -16.875000 -166.875000 81.250000
v -16.875000 -123.125000 56.250000
v 26.875000 -123.125000 81.250000
v -16.875000 -123.125000 56.250000
v -16.875000 -123.125000 81.250000
v 26.875000 -123.125000 56.250000
v 26.875000 -166.875000 81.250000
v 26.875000 -123.125000 56.250000
v 26.875000 -123.125000 81.250000
v 26.875000 -166.875000 56.250000
v -16.875000 -166.875000 81.250000
v 26.875000 -166.875000 56.250000
v 26.875000 -166.875000 81.250000
v -16.875000 -166.875000 56.250000
v 26.875000 -166.875000 56.250000
v -16.875000 -166.875000 56.250000
v -16.875000 -123.125000 56.250000
v 26.875000 -123.125000 56.250000
v -16.875000 -123.125000 81.250000
v -16.875000 -166.875000 81.250000
v 26.875000 -123.125000 81.250000
v 26.875000 -166.875000 81.250000
v -26.250000 -8.750000 31.250000
v -26.250000 -21.250000 0.000000
v -26.250000 -21.250000 31.250000
v -26.250000 -8.750000 0.000000
v -13.750000 -8.750000 31.250000
v -26.250000 -8.750000 0.000000
v -26.250000 -8.750000 31.250000
v -13.750000 -8.750000 0.000000
v -13.750000 -21.250000 31.250000
v -13.750000 -8.750000 0.000000
v -13.750000 -8.750000 31.250000
v -13.750000 -21.250000 0.000000
v -26.250000 -21.250000 31.250000
v -13.750000 -21.250000 0.000000
v -13.750000 -21.250000 31.250000
v -26.250000 -21.250000 0.000000
v -13.750000 -21.250000 0.000000
v -26.250000 -21.250000 0.000000
v -26.250000 -8.750000 0.000000
v -13.750000 -8.750000 0.000000
v -32.500000 -2.500000 50.000000
v -32.500000 -27.500000 31.250000
v -32.500000 -27.500000 50.000000
v -32.500000 -2.500000 31.250000
v -7.500000 -2.500000 50.000000
v -32.500000 -2.500000 31.250000
v -32.500000 -2.500000 50.000000
v -7.500000 -2.500000 31.250000
v -7.500000 -27.500000 50.000000
v -7.500000 -2.500000 31.250000
v -7.500000 -2.500000 50.000000
v -7.500000 -27.500000 31.250000
v -32.500000 -27.500000 50.000000
v -7.500000 -27.500000 31.250000
v -7.500000 -27.500000 50.000000
v -32.500000 -27.500000 31.250000
v -7.500000 -27.500000 31.250000
v -32.500000 -27.500000 31.250000
v -32.500000 -2.500000 31.250000
v -7.500000 -2.500000 31.250000
v -32.500000 -2.500000 50.000000
v -32.500000 -27.500000 50.000000
v -7.500000 -2.500000 50.000000
v -7.500000 -27.500000 50.000000
v -56.250000 -68.750000 31.250000
v -56.250000 -81.250000 0.000000
v -56.250000 -81.250000 31.250000
v -56.250000 -68.750000 0.000000
v -43.750000 -68.750000 31.250000
v -56.250000 -68.750000 0.000000
v -56.250000 -68.750000 31.250000
v -43.750000 -68.750000 0.000000
v -43.750000 -81.250000 31.250000
v -43.750000 -68.750000 0.000000
v -43.750000 -68.750000 31.250000
v -43.750000 -81.250000 0.000000
v -56.250000 -81.250000 31.250000
v -43.750000 -81.250000 0.000000
v -43.750000 -81.250000 31.250000
v -56.250000 -81.250000 0.000000
v -43.750000 -81.250000 0.000000
v -56.250000 -81.250000 0.000000
v -56.250000 -68.750000 0.000000
v -43.750000 -68.750000 0.000000
v -62.500000 -62.500000 68.750000
v -62.500000 -87.500000 31.250000
v -62.500000 -87.500000 68.750000
v -62.500000 -62.500000 31.250000
v -37.500000 -62.500000 68.750000
v -62.500000 -62.500000 31.250000
v -62.500000 -62.500000 68.750000
v -37.500000 -62.500000 31.250000
v -37.500000 -87.500000 68.750000
v -37.500000 -62.500000 31.250000
v -37.500000 -62.500000 68.750000
v -37.500000 -87.500000 31.250000
v -62.500000 -87.500000 68.750000
v -37.500000 -87.500000 31.250000
v -37.500000 -87.500000 68.750000
v -62.500000 -87.500000 31.250000
v -37.500000 -87.500000 31.250000
v -62.500000 -87.500000 31.250000
v -62.500000 -62.500000 31.250000
v -37.500000 -62.500000 31.250000
v -62.500000 -62.500000 68.750000
v -62.500000 -87.500000 68.750000
v -37.500000 -62.500000 68.750000
v -37.500000 -87.500000 68.750000
vn -1.0000 -0.0000 -0.0000
vn -0.0000 1.0000 -0.0000
vn 1.0000 -0.0000 -0.0000
vn -0.0000 -1.0000 -0.0000
vn -0.0000 -0.0000 -1.0000
vn -0.0000 -0.0000 1.0000
vt 0.750000 0.875000
vt 0.875000 0.875000
vt 0.875000 0.999969
vt 0.750000 0.999969
vt 0.156250 0.531250
vt 0.218750 0.531250
vt 0.218750 0.687500
vt 0.156250 0.687500
vt 0.125000 0.687500
vt 0.250000 0.687500
vt 0.250000 0.875000
vt 0.125000 0.875000
vt 0.500000 0.687500
vt 0.375000 0.687500
vt 0.375000 0.562500
vt 0.500000 0.562500
vt 0.468750 0.156250
vt 0.687500 0.156250
vt 0.687500 0.281250
vt 0.468750 0.281250
vt 0.500000 0.875000
vt 0.375000 0.875000
vt 0.750000 0.781250
vt 0.875000 0.781250
vt 0.531250 0.593750
vt 0.593750 0.593750
vt 0.593750 0.875000
vt 0.531250 0.875000
vt 0.250000 0.281250
vt 0.468750 0.500000
vt 0.250000 0.500000
vt 0.687500 0.500000
vt 0.000031 0.687500
vt 0.000031 0.875000
vt 0.906250 0.156250
vt 0.906250 0.281250
vt 0.250000 0.156250
vt 0.031250 0.156250
vt 0.031250 0.281250
vt 0.250000 0.999969
vt 0.125000 0.999969
s 1
usemtl MI_GlowShrooms
f 484/1/6 483/2/6 481/3/6 482/4/6
f 356/5/1 354/6/1 355/7/1 353/8/1
f 292/9/2 290/10/2 291/11/2 289/12/2
f 260/13/5 257/14/5 258/15/5 259/16/5
f 420/17/1 418/18/1 419/19/1 417/20/1
f 388/14/4 386/13/4 387/21/4 385/22/4
f 148/5/4 146/6/4 147/7/4 145/8/4
f 324/5/4 322/6/4 323/7/4 321/8/4
f 180/5/1 178/6/1 179/7/1 177/8/1
f 272/5/2 270/6/2 271/7/2 269/8/2
f 212/23/4 210/24/4 211/2/4 209/1/4
f 452/5/3 450/6/3 451/7/3 449/8/3
f 244/23/1 242/24/1 243/2/1 241/1/1
f 100/25/3 98/26/3 99/27/3 97/28/3
f 276/5/3 274/6/3 275/7/3 273/8/3
f 132/29/6 131/20/6 129/30/6 130/31/6
f 128/32/5 125/30/5 126/20/5 127/19/5
f 84/32/5 81/30/5 82/20/5 83/19/5
f 340/23/3 338/24/3 339/2/3 337/1/3
f 164/33/3 162/9/3 163/12/3 161/34/3
f 12/5/3 10/6/3 11/7/3 9/8/3
f 124/18/4 122/35/4 123/36/4 121/19/4
f 404/25/2 402/26/2 403/27/2 401/28/2
f 196/32/5 193/30/5 194/20/5 195/19/5
f 8/5/2 6/6/2 7/7/2 5/8/2
f 116/37/2 114/17/2 115/20/2 113/29/2
f 468/23/2 466/24/2 467/2/2 465/1/2
f 228/5/2 226/6/2 227/7/2 225/8/2
f 20/32/5 17/30/5 18/20/5 19/19/5
f 188/5/3 186/6/3 187/7/3 185/8/3
f 28/23/2 26/24/2 27/2/2 25/1/2
f 4/5/1 2/6/1 3/7/1 1/8/1
f 16/5/4 14/6/4 15/7/4 13/8/4
f 140/5/2 138/6/2 139/7/2 137/8/2
f 60/25/4 58/26/4 59/27/4 57/28/4
f 264/1/6 263/2/6 261/3/6 262/4/6
f 184/5/2 182/6/2 183/7/2 181/8/2
f 156/10/1 154/14/1 155/22/1 153/11/1
f 36/23/4 34/24/4 35/2/4 33/1/4
f 296/33/3 294/9/3 295/12/3 293/34/3
f 32/23/3 30/24/3 31/2/3 29/1/3
f 172/13/5 169/14/5 170/15/5 171/16/5
f 76/38/3 74/37/3 75/29/3 73/39/3
f 328/32/5 325/30/5 326/20/5 327/19/5
f 72/37/2 70/17/2 71/20/2 69/29/2
f 308/12/6 307/11/6 305/40/6 306/41/6
f 44/1/6 43/2/6 41/3/6 42/4/6
f 360/5/2 358/6/2 359/7/2 357/8/2
f 24/23/1 22/24/1 23/2/1 21/1/1
f 204/23/2 202/24/2 203/2/2 201/1/2
f 92/25/1 90/26/1 91/27/1 89/28/1
f 392/13/5 389/14/5 390/15/5 391/16/5
f 56/25/3 54/26/3 55/27/3 53/28/3
f 220/1/6 219/2/6 217/3/6 218/4/6
f 52/25/2 50/26/2 51/27/2 49/28/2
f 424/37/2 422/17/2 423/20/2 421/29/2
f 48/25/1 46/26/1 47/27/1 45/28/1
f 236/5/4 234/6/4 235/7/4 233/8/4
f 108/32/5 105/30/5 106/20/5 107/19/5
f 456/5/4 454/6/4 455/7/4 453/8/4
f 104/25/4 102/26/4 103/27/4 101/28/4
f 192/5/4 190/6/4 191/7/4 189/8/4
f 488/5/1 486/6/1 487/7/1 485/8/1
f 508/10/1 506/14/1 507/22/1 505/11/1
f 88/29/6 87/20/6 85/30/6 86/31/6
f 256/23/4 254/24/4 255/2/4 253/1/4
f 512/9/2 510/10/2 511/11/2 509/12/2
f 68/17/1 66/18/1 67/19/1 65/20/1
f 64/32/5 61/30/5 62/20/5 63/19/5
f 144/5/3 142/6/3 143/7/3 141/8/3
f 268/5/1 266/6/1 267/7/1 265/8/1
f 280/5/4 278/6/4 279/7/4 277/8/4
f 136/5/1 134/6/1 135/7/1 133/8/1
f 288/10/1 286/14/1 287/22/1 285/11/1
f 284/32/5 281/30/5 282/20/5 283/19/5
f 516/33/3 514/9/3 515/12/3 513/34/3
f 252/23/3 250/24/3 251/2/3 249/1/3
f 160/9/2 158/10/2 159/11/2 157/12/2
f 300/14/4 298/13/4 299/21/4 297/22/4
f 312/5/1 310/6/1 311/7/1 309/8/1
f 152/32/5 149/30/5 150/20/5 151/19/5
f 320/5/3 318/6/3 319/7/3 317/8/3
f 316/5/2 314/6/2 315/7/2 313/8/2
f 304/13/5 301/14/5 302/15/5 303/16/5
f 80/18/4 78/35/4 79/36/4 77/19/4
f 176/12/6 175/11/6 173/40/6 174/41/6
f 332/23/1 330/24/1 331/2/1 329/1/1
f 344/23/4 342/24/4 343/2/4 341/1/4
f 168/14/4 166/13/4 167/21/4 165/22/4
f 352/1/6 351/2/6 349/3/6 350/4/6
f 348/13/5 345/14/5 346/15/5 347/16/5
f 336/23/2 334/24/2 335/2/2 333/1/2
f 520/14/4 518/13/4 519/21/4 517/22/4
f 492/5/2 490/6/2 491/7/2 489/8/2
f 364/5/3 362/6/3 363/7/3 361/8/3
f 248/23/2 246/24/2 247/2/2 245/1/2
f 120/38/3 118/37/3 119/29/3 117/39/3
f 384/33/3 382/9/3 383/12/3 381/34/3
f 380/9/2 378/10/2 379/11/2 377/12/2
f 368/5/4 366/6/4 367/7/4 365/8/4
f 96/25/2 94/26/2 95/27/2 93/28/2
f 208/23/3 206/24/3 207/2/3 205/1/3
f 396/12/6 395/11/6 393/40/6 394/41/6
f 408/25/3 406/26/3 407/27/3 405/28/3
f 200/23/1 198/24/1 199/2/1 197/1/1
f 416/32/5 413/30/5 414/20/5 415/19/5
f 412/25/4 410/26/4 411/27/4 409/28/4
f 400/25/1 398/26/1 399/27/1 397/28/1
f 372/32/5 369/30/5 370/20/5 371/19/5
f 224/5/1 222/6/1 223/7/1 221/8/1
f 428/38/3 426/37/3 427/29/3 425/39/3
f 440/29/6 439/20/6 437/30/6 438/31/6
f 216/13/5 213/14/5 214/15/5 215/16/5
f 448/5/2 446/6/2 447/7/2 445/8/2
f 444/5/1 442/6/1 443/7/1 441/8/1
f 432/18/4 430/35/4 431/36/4 429/19/4
f 112/17/1 110/18/1 111/19/1 109/20/1
f 240/32/5 237/30/5 238/20/5 239/19/5
f 460/32/5 457/30/5 458/20/5 459/19/5
f 472/23/3 470/24/3 471/2/3 469/1/3
f 232/5/3 230/6/3 231/7/3 229/8/3
f 480/13/5 477/14/5 478/15/5 479/16/5
f 476/23/4 474/24/4 475/2/4 473/1/4
f 464/23/1 462/24/1 463/2/1 461/1/1
f 436/32/5 433/30/5 434/20/5 435/19/5
f 524/13/5 521/14/5 522/15/5 523/16/5
f 376/10/1 374/14/1 375/22/1 373/11/1
f 496/5/3 494/6/3 495/7/3 493/8/3
f 500/5/4 498/6/4 499/7/4 497/8/4
f 504/32/5 501/30/5 502/20/5 503/19/5
f 40/13/5 37/14/5 38/15/5 39/16/5
f 528/12/6 527/11/6 525/40/6 526/41/6
