# Blender 5.0.1
# www.blender.org
mtllib BP_SpiderWebWall.mtl
o SM_SpiderWall.001
v 212.500015 31.121906 82.547913
v 212.500031 3.125054 167.717651
v 237.500015 31.121910 84.915138
v 237.500031 3.125057 171.412003
v 150.000015 30.533827 74.947571
v 150.000015 3.125045 157.016953
v 212.500015 31.121906 82.547913
v 212.500031 3.125054 167.717651
v 150.000015 3.125045 157.016953
v 150.000015 30.533827 74.947571
v 50.000023 3.125026 146.792389
v 50.000015 28.316818 67.612740
v 50.000023 3.125026 146.792389
v 50.000015 28.316818 67.612740
v -49.999985 28.316807 67.612755
v -49.999977 3.125008 146.792389
v -49.999977 3.125008 146.792389
v -49.999985 28.316807 67.612755
v -149.999985 30.533791 74.947586
v -149.999985 3.124993 157.016953
v 237.500015 31.121910 84.915138
v 237.500031 3.125057 171.412003
v 250.000015 31.121918 85.791428
v 250.000031 3.125054 172.960556
v 237.500031 3.125061 183.590225
v 237.500031 3.125000 177.515823
v 212.500031 3.125061 179.895767
v 212.500031 3.124873 173.816299
v 250.000031 3.125006 179.066971
v 250.000031 3.124990 185.138809
v 237.500031 3.125057 171.412003
v 250.000031 3.125054 172.960556
v -149.999985 3.124930 163.102661
v -49.999977 3.124923 152.858200
v -149.999985 3.124993 157.016953
v -49.999977 3.125008 146.792389
v 50.000023 3.125026 146.792389
v 50.000023 3.124962 152.858185
v 150.000015 3.125045 157.016953
v 150.000015 3.124983 163.102646
v 212.500031 3.125054 167.717651
v 237.500031 3.125055 189.629120
v 250.000031 3.125070 191.170197
v -237.499969 3.124974 171.412033
v -237.499985 31.121859 84.915184
v -249.999985 31.121857 85.791458
v -249.999969 3.124974 172.960587
v -237.499969 3.124897 189.629135
v -237.499969 3.124903 183.590256
v -249.999969 3.124902 185.138855
v -249.999969 3.124901 191.170212
v -149.999985 3.124993 157.016953
v -149.999985 30.533791 74.947586
v -212.499985 31.121857 82.547943
v -212.499969 3.124973 167.717682
v -212.499969 3.124973 167.717682
v -212.499985 31.121857 82.547943
v -237.499985 31.121859 84.915184
v -237.499969 3.124974 171.412033
v -212.499969 3.124915 173.816315
v -212.499969 3.124973 167.717682
v -237.499969 3.124974 171.412033
v -237.499969 3.124911 177.515854
v -249.999969 3.124974 172.960587
v -249.999969 3.124898 179.067017
v -212.499969 3.124912 179.895798
v -237.500000 100.288422 3.399239
v -237.499985 31.121859 84.915184
v -212.500000 100.189903 3.399235
v -212.499985 31.121857 82.547943
v -212.500000 100.189903 3.399235
v -212.499985 31.121857 82.547943
v -150.000000 95.951920 2.478360
v -149.999985 30.533791 74.947586
v -250.000000 100.288422 3.399240
v -249.999985 31.121857 85.791458
v -237.500000 100.288422 3.399239
v -237.499985 31.121859 84.915184
v 250.000015 31.121918 85.791428
v 250.000000 100.288506 3.399205
v 237.500000 100.288506 3.399206
v 237.500015 31.121910 84.915138
v -150.000000 95.951920 2.478360
v -149.999985 30.533791 74.947586
v -50.000000 88.826920 -0.000001
v -49.999985 28.316807 67.612755
v 50.000000 88.826935 -0.000008
v -49.999985 28.316807 67.612755
v 50.000015 28.316818 67.612740
v -50.000000 88.826920 -0.000001
v 150.000015 30.533827 74.947571
v 150.000000 95.951965 2.478335
v 50.000000 88.826935 -0.000008
v 50.000015 28.316818 67.612740
v 212.500015 31.121906 82.547913
v 212.500000 100.189972 3.399205
v 150.000000 95.951965 2.478335
v 150.000015 30.533827 74.947571
v 237.500015 31.121910 84.915138
v 237.500000 100.288506 3.399206
v 212.500000 100.189972 3.399205
v 212.500015 31.121906 82.547913
v -237.499985 -3.125012 171.412018
v -237.499985 -31.121878 84.915154
v -212.499985 -3.125026 167.717651
v -212.499985 -31.121880 82.547920
v -212.499985 -3.125026 167.717651
v -212.499985 -31.121880 82.547920
v -149.999985 -3.125041 157.016968
v -150.000000 -30.533812 74.947578
v -149.999985 -3.125041 157.016968
v -150.000000 -30.533812 74.947578
v -49.999992 -3.125040 146.792389
v -49.999996 -28.316822 67.612740
v 50.000008 -3.125050 146.792404
v -49.999996 -28.316822 67.612740
v 50.000004 -28.316839 67.612747
v -49.999992 -3.125040 146.792389
v 150.000000 -30.533846 74.947594
v 150.000015 -3.125085 157.016953
v 50.000008 -3.125050 146.792404
v 50.000004 -28.316839 67.612747
v -249.999985 -3.125012 172.960556
v -249.999985 -31.121880 85.791435
v -237.499985 -3.125012 171.412018
v -237.499985 -31.121878 84.915154
v -237.499985 -3.125008 183.590240
v -237.499985 -3.124952 177.515839
v -212.499985 -3.125013 179.895767
v -212.499985 -3.124948 173.816299
v -249.999985 -3.124954 185.138824
v -249.999985 -3.124951 179.066971
v -249.999985 -3.125012 172.960556
v -237.499985 -3.125012 171.412018
v 150.000000 -3.124997 163.102661
v 50.000008 -3.124998 152.858215
v 150.000015 -3.125085 157.016953
v 50.000008 -3.125050 146.792404
v -49.999992 -3.125040 146.792389
v -49.999992 -3.124974 152.858200
v -149.999985 -3.125041 157.016968
v -149.999985 -3.124960 163.102661
v -212.499985 -3.125026 167.717651
v -249.999985 -3.125025 191.170227
v -237.499985 -3.125014 189.629135
v 250.000015 -31.121931 85.791466
v 250.000015 -3.125076 172.960587
v 237.500015 -3.125081 171.412033
v 237.500015 -31.121927 84.915192
v 250.000015 -3.125026 185.138870
v 250.000015 -3.124965 191.170212
v 237.500015 -3.125007 189.629135
v 237.500015 -3.124974 183.590256
v 212.500015 -31.121923 82.547951
v 212.500015 -3.125083 167.717667
v 150.000015 -3.125085 157.016953
v 150.000000 -30.533846 74.947594
v 237.500015 -31.121927 84.915192
v 237.500015 -3.125081 171.412033
v 212.500015 -3.125083 167.717667
v 212.500015 -31.121923 82.547951
v 212.500015 -3.125012 173.816330
v 212.500015 -3.125083 167.717667
v 237.500015 -3.125081 171.412033
v 237.500015 -3.125021 177.515854
v 250.000015 -3.125076 172.960587
v 250.000015 -3.125022 179.067017
v 212.500015 -3.124980 179.895782
v 237.500015 -100.288521 3.399226
v 212.500015 -31.121923 82.547951
v 212.500015 -100.189987 3.399231
v 237.500015 -31.121927 84.915192
v 212.500015 -31.121923 82.547951
v 150.000000 -95.951973 2.478362
v 212.500015 -100.189987 3.399231
v 150.000000 -30.533846 74.947594
v 250.000015 -100.288521 3.399232
v 237.500015 -31.121927 84.915192
v 237.500015 -100.288521 3.399226
v 250.000015 -31.121931 85.791466
v -249.999985 -31.121880 85.791435
v -249.999985 -100.288437 3.399204
v -237.499985 -31.121878 84.915154
v -237.499985 -100.288452 3.399196
v 150.000000 -95.951973 2.478362
v 150.000000 -30.533846 74.947594
v 50.000008 -88.826942 0.000000
v 50.000004 -28.316839 67.612747
v 50.000004 -28.316839 67.612747
v -49.999992 -88.826935 -0.000006
v 50.000008 -88.826942 0.000000
v -49.999996 -28.316822 67.612740
v -150.000000 -30.533812 74.947578
v -49.999992 -88.826935 -0.000006
v -49.999996 -28.316822 67.612740
v -150.000000 -95.951935 2.478338
v -150.000000 -95.951935 2.478338
v -212.499985 -31.121880 82.547920
v -212.499985 -100.189926 3.399196
v -150.000000 -30.533812 74.947578
v -237.499985 -31.121878 84.915154
v -237.499985 -100.288452 3.399196
v -212.499985 -31.121880 82.547920
v -212.499985 -100.189926 3.399196
v -249.999969 3.124901 191.170212
v -249.999985 -3.125025 191.170227
v -237.499969 3.124897 189.629135
v -237.499985 -3.125014 189.629135
v -237.499969 3.124903 183.590256
v -237.499985 -3.125008 183.590240
v -212.499969 3.124912 179.895798
v -212.499985 -3.125013 179.895767
v -149.999985 -3.124960 163.102661
v -149.999985 3.124930 163.102661
v -212.499985 -3.124948 173.816299
v -212.499969 3.124915 173.816315
v -49.999992 -3.124974 152.858200
v -49.999977 3.124923 152.858200
v -149.999985 -3.124960 163.102661
v -149.999985 3.124930 163.102661
v -212.499969 3.124912 179.895798
v -212.499985 -3.125013 179.895767
v -212.499969 3.124915 173.816315
v -212.499985 -3.124948 173.816299
v -237.499969 3.124897 189.629135
v -237.499985 -3.125014 189.629135
v -237.499969 3.124903 183.590256
v -237.499985 -3.125008 183.590240
v 50.000023 3.124962 152.858185
v -49.999992 -3.124974 152.858200
v 50.000008 -3.124998 152.858215
v -49.999977 3.124923 152.858200
v 50.000008 -3.124998 152.858215
v 150.000000 -3.124997 163.102661
v 50.000023 3.124962 152.858185
v 150.000015 3.124983 163.102646
v 250.000015 -3.124965 191.170212
v 250.000031 3.125070 191.170197
v 237.500031 3.125055 189.629120
v 237.500015 -3.125007 189.629135
v 237.500015 -3.124974 183.590256
v 237.500031 3.125061 183.590225
v 212.500031 3.125061 179.895767
v 212.500015 -3.124980 179.895782
v 150.000015 3.124983 163.102646
v 150.000000 -3.124997 163.102661
v 212.500015 -3.125012 173.816330
v 212.500031 3.124873 173.816299
v 212.500031 3.124873 173.816299
v 212.500015 -3.125012 173.816330
v 212.500015 -3.124980 179.895782
v 212.500031 3.125061 179.895767
v 237.500031 3.125061 183.590225
v 237.500015 -3.124974 183.590256
v 237.500015 -3.125007 189.629135
v 237.500031 3.125055 189.629120
vn -0.0296 0.9496 0.3121
vn -0.0429 0.9503 0.3084
vn -0.0322 0.9497 0.3114
vn -0.0455 0.9504 0.3076
vn -0.0474 0.9474 0.3164
vn -0.0511 0.9482 0.3136
vn -0.0498 0.9479 0.3146
vn -0.0534 0.9486 0.3118
vn -0.0377 0.9500 0.3099
vn -0.0000 0.9529 0.3032
vn 0.0377 0.9500 0.3099
vn -0.0216 0.9512 0.3079
vn -0.0365 0.9514 0.3058
vn -0.0230 0.9512 0.3077
vn -0.0379 0.9514 0.3056
vn -0.0000 1.0000 -0.0000
vn 0.0365 0.9514 0.3058
vn 0.0216 0.9512 0.3079
vn 0.0230 0.9512 0.3077
vn 0.0379 0.9514 0.3056
vn 0.0511 0.9482 0.3136
vn 0.0474 0.9474 0.3164
vn 0.0498 0.9479 0.3146
vn 0.0534 0.9486 0.3118
vn 0.0429 0.9503 0.3084
vn 0.0296 0.9496 0.3121
vn 0.0322 0.9497 0.3114
vn 0.0455 0.9504 0.3076
vn 0.0324 0.7576 0.6519
vn 0.0739 0.7461 0.6618
vn 0.0226 0.7640 0.6448
vn -0.0226 0.7640 0.6448
vn 0.0674 0.7420 0.6670
vn -0.0000 0.7452 0.6669
vn -0.0674 0.7420 0.6670
vn -0.0739 0.7461 0.6618
vn -0.0324 0.7576 0.6519
vn 0.0455 -0.9504 0.3076
vn 0.0322 -0.9497 0.3114
vn 0.0429 -0.9503 0.3084
vn 0.0296 -0.9496 0.3121
vn 0.0534 -0.9486 0.3118
vn 0.0498 -0.9479 0.3146
vn 0.0511 -0.9482 0.3136
vn 0.0474 -0.9474 0.3164
vn 0.0377 -0.9500 0.3099
vn -0.0000 -0.9529 0.3032
vn -0.0377 -0.9500 0.3099
vn 0.0379 -0.9514 0.3056
vn 0.0230 -0.9512 0.3077
vn 0.0365 -0.9514 0.3058
vn 0.0216 -0.9512 0.3079
vn -0.0000 -1.0000 -0.0000
vn -0.0230 -0.9512 0.3077
vn -0.0379 -0.9514 0.3056
vn -0.0365 -0.9514 0.3058
vn -0.0216 -0.9512 0.3079
vn -0.0498 -0.9479 0.3146
vn -0.0534 -0.9486 0.3118
vn -0.0511 -0.9482 0.3136
vn -0.0474 -0.9474 0.3164
vn -0.0322 -0.9497 0.3114
vn -0.0455 -0.9504 0.3076
vn -0.0429 -0.9503 0.3084
vn -0.0296 -0.9496 0.3121
vn -0.0324 -0.7576 0.6519
vn -0.0739 -0.7461 0.6618
vn -0.0226 -0.7640 0.6448
vn 0.0226 -0.7640 0.6448
vn -0.0674 -0.7420 0.6670
vn -0.0000 -0.7452 0.6669
vn 0.0674 -0.7420 0.6670
vn 0.0739 -0.7461 0.6618
vn 0.0324 -0.7576 0.6519
vn 0.1224 -0.0000 0.9925
vn 0.1462 -0.0000 0.9893
vn 0.1690 -0.0000 0.9856
vn 0.1019 -0.0000 0.9948
vn 1.0000 -0.0000 -0.0000
vn -0.0000 -0.0000 1.0000
vn -0.1019 -0.0000 0.9948
vn -0.1224 -0.0000 0.9925
vn -0.1462 -0.0000 0.9893
vn -0.1690 -0.0000 0.9856
vn -1.0000 -0.0000 -0.0000
vt 0.062500 0.437500
vt 0.187500 0.437500
vt 0.187500 0.875000
vt 0.062500 0.875000
vt 0.500000 0.437500
vt 0.500000 0.875000
vt 0.062500 0.906250
vt 0.187500 0.937500
vt 0.187500 0.906250
vt 0.031250 0.999969
vt -0.000031 0.999969
vt -0.000031 0.968750
vt 0.031250 0.968750
vt 1.000000 0.437500
vt 1.000000 0.875000
vt 0.000031 0.437500
vt 0.000031 0.875000
vt 0.062500 0.937500
vt 0.000031 0.906250
vt 0.000031 0.937500
vt 1.000000 0.906250
vt 0.500000 0.906250
vt 0.187500 0.999969
vt 0.187500 0.968750
vt 0.500000 0.968750
vt 0.500000 0.999969
vt 0.062500 0.968750
vt 0.000031 0.968750
vt 0.062500 0.000000
vt 0.187500 0.000000
vt 0.500000 0.000000
vt 0.000031 0.000000
vt 1.000000 0.000000
vt 0.499756 0.000000
vt 1.000000 0.999969
vt 1.000000 0.968750
vt 0.062500 0.999969
vt 0.156250 0.999969
vt 0.156250 0.968750
s 1
usemtl MI_SpiderWebWall
f 3/1/3 1/2/1 2/3/2
f 2/3/2 4/4/4 3/1/3
f 7/2/7 5/5/5 6/6/6
f 6/6/6 8/3/8 7/2/7
f 165/7/53 168/8/53 162/9/53 164/4/53
f 226/10/79 228/11/79 227/12/79 225/13/79
f 10/5/9 12/14/9 11/15/9 9/6/9
f 23/16/14 21/1/12 22/4/13
f 22/4/13 24/17/15 23/16/14
f 27/8/16 25/18/16 26/7/16
f 29/19/16 26/7/16 25/18/16
f 25/18/16 30/20/16 29/19/16
f 32/17/16 31/4/16 26/7/16
f 26/7/16 29/19/16 32/17/16
f 35/15/16 33/21/16 34/22/16
f 34/22/16 36/6/16 35/15/16
f 247/23/84 248/24/84 245/25/84 246/26/84
f 38/21/16 39/6/16 37/15/16
f 39/6/16 38/21/16 40/22/16
f 40/22/16 41/3/16 39/6/16
f 41/3/16 40/22/16 28/9/16
f 31/4/16 41/3/16 28/9/16
f 30/20/16 25/18/16 42/27/16
f 42/27/16 43/28/16 30/20/16
f 46/16/19 44/4/17 45/1/18
f 44/4/17 46/16/19 47/17/20
f 50/20/16 48/27/16 49/18/16
f 48/27/16 50/20/16 51/28/16
f 54/2/23 52/6/21 53/5/22
f 52/6/21 54/2/23 55/3/24
f 58/1/27 56/3/25 57/2/26
f 56/3/25 58/1/27 59/4/28
f 62/4/16 60/9/16 61/3/16
f 128/7/53 134/4/53 130/9/53 129/8/53
f 61/3/16 60/9/16 33/22/16
f 33/22/16 35/6/16 61/3/16
f 64/17/16 63/7/16 62/4/16
f 63/7/16 64/17/16 65/19/16
f 65/19/16 49/18/16 63/7/16
f 49/18/16 65/19/16 50/20/16
f 66/8/16 63/7/16 49/18/16
f 202/29/74 204/30/74 203/2/74 201/1/74
f 200/5/73 198/2/73 199/30/73 197/31/73
f 177/32/68 180/16/68 178/1/68 179/29/68
f 182/32/69 184/29/69 183/1/69 181/16/69
f 188/5/70 187/31/70 185/33/70 186/14/70
f 118/6/47 116/5/47 117/14/47 115/15/47
f 76/16/31 78/1/31 77/29/31 75/32/31
f 72/2/30 74/5/30 73/34/30 71/30/30
f 68/1/29 70/2/29 69/30/29 67/29/29
f 105/3/40 103/4/38 104/1/39
f 104/1/39 106/2/41 105/3/40
f 109/6/44 107/3/42 108/2/43
f 108/2/43 110/5/45 109/6/44
f 121/6/48 122/5/48 119/14/48 120/15/48
f 192/5/71 190/31/71 191/33/71 189/14/71
f 19/14/11 20/15/11 17/6/11 18/5/11
f 125/4/51 123/17/49 124/16/50
f 124/16/50 126/1/52 125/4/51
f 129/8/53 127/18/53 128/7/53
f 26/7/16 31/4/16 28/9/16 27/8/16
f 127/18/53 131/20/53 132/19/53
f 132/19/53 128/7/53 127/18/53
f 128/7/53 132/19/53 133/17/53
f 133/17/53 134/4/53 128/7/53
f 137/15/53 135/21/53 136/22/53
f 136/22/53 138/6/53 137/15/53
f 218/35/78 220/26/78 219/25/78 217/36/78
f 140/21/53 141/6/53 139/15/53
f 141/6/53 140/21/53 142/22/53
f 142/22/53 143/3/53 141/6/53
f 143/3/53 142/22/53 130/9/53
f 134/4/53 143/3/53 130/9/53
f 145/27/53 144/28/53 131/20/53
f 131/20/53 127/18/53 145/27/53
f 148/4/56 146/16/54 147/17/55
f 146/16/54 148/4/56 149/1/57
f 152/27/53 150/20/53 151/28/53
f 150/20/53 152/27/53 153/18/53
f 156/6/60 154/2/58 155/3/59
f 154/2/58 156/6/60 157/5/61
f 160/3/64 158/1/62 159/4/63
f 158/1/62 160/3/64 161/2/65
f 164/4/53 162/9/53 163/3/53
f 63/7/16 66/8/16 60/9/16 62/4/16
f 163/3/53 162/9/53 135/22/53
f 135/22/53 137/6/53 163/3/53
f 165/7/53 166/17/53 167/19/53
f 166/17/53 165/7/53 164/4/53
f 153/18/53 167/19/53 150/20/53
f 167/19/53 153/18/53 165/7/53
f 168/8/53 165/7/53 153/18/53
f 97/31/36 98/5/36 95/2/36 96/30/36
f 112/5/46 114/14/46 113/15/46 111/6/46
f 81/29/32 82/1/32 79/16/32 80/32/32
f 101/30/37 102/2/37 99/1/37 100/29/37
f 193/5/72 196/31/72 194/33/72 195/14/72
f 15/14/10 16/15/10 13/6/10 14/5/10
f 93/33/35 94/14/35 91/5/35 92/31/35
f 176/5/67 174/34/67 175/30/67 173/2/67
f 169/29/66 172/1/66 170/2/66 171/30/66
f 239/27/82 240/37/82 237/11/82 238/28/82
f 234/36/81 236/35/81 235/26/81 233/25/81
f 210/27/76 212/24/76 211/23/76 209/37/76
f 36/15/16 34/21/16 38/22/16 37/6/16
f 232/26/80 230/25/80 231/36/80 229/35/80
f 140/22/53 139/6/53 138/15/53 136/21/53
f 255/13/85 256/10/85 253/11/85 254/12/85
f 243/24/83 244/23/83 241/37/83 242/27/83
f 222/23/79 224/38/79 223/39/79 221/24/79
f 206/28/75 208/27/75 207/37/75 205/11/75
f 214/26/77 216/23/77 215/24/77 213/25/77
f 84/14/33 86/5/33 85/31/33 83/33/33
f 251/24/85 252/23/85 249/38/85 250/39/85
f 90/33/34 88/14/34 89/5/34 87/31/34
