# Blender 5.0.1
# www.blender.org
mtllib BP_S2_Mushrooms_Patch2.mtl
o SM_Mushrooms_New_Patch2.001
v 43.750000 118.750000 62.508930
v -6.250000 118.750000 62.508930
v -6.250000 118.750000 37.526775
v 43.750000 118.750000 37.526775
v 43.750000 168.750000 37.526779
v -6.250000 168.750000 37.526779
v -6.250000 168.750000 62.508934
v 43.750000 168.750000 62.508934
v 43.750000 118.750000 37.526775
v -6.250000 118.750000 37.526775
v -6.250000 168.750000 37.526779
v 43.750000 168.750000 37.526779
v 43.750000 168.750000 62.508934
v 43.750000 118.750000 62.508930
v 43.750000 118.750000 37.526775
v 43.750000 168.750000 37.526779
v -6.250000 118.750000 62.508930
v -6.250000 168.750000 37.526779
v -6.250000 118.750000 37.526775
v -6.250000 168.750000 62.508934
v -6.250000 118.750000 62.508930
v 43.750000 118.750000 62.508930
v -6.250000 168.750000 62.508934
v 43.750000 168.750000 62.508934
v 31.250000 131.250000 37.491081
v 6.250000 131.250000 37.491081
v 6.250000 131.250000 0.000023
v 31.250000 131.250000 0.000023
v 31.250000 156.250000 0.000024
v 6.250000 156.250000 0.000024
v 6.250000 156.250000 37.491081
v 31.250000 156.250000 37.491081
v 31.250000 131.250000 37.491081
v 31.250000 131.250000 0.000023
v 31.250000 156.250000 37.491081
v 31.250000 156.250000 0.000024
v 6.250000 131.250000 37.491081
v 6.250000 156.250000 0.000024
v 6.250000 131.250000 0.000023
v 6.250000 156.250000 37.491081
v 143.750000 -56.250004 68.750000
v 81.250000 -56.250004 68.750000
v 81.250000 -56.250000 37.517845
v 143.750000 -56.250000 37.517845
v 143.750000 6.249999 37.517849
v 81.250000 6.249999 37.517849
v 81.250000 6.249997 68.750000
v 143.750000 6.249997 68.750000
v 143.750000 -56.250000 37.517845
v 81.250000 -56.250000 37.517845
v 81.250000 6.249999 37.517849
v 143.750000 6.249999 37.517849
v 143.750000 6.249997 68.750000
v 143.750000 -56.250004 68.750000
v 143.750000 -56.250000 37.517845
v 143.750000 6.249999 37.517849
v 81.250000 -56.250004 68.750000
v 81.250000 6.249999 37.517849
v 81.250000 -56.250000 37.517845
v 81.250000 6.249997 68.750000
v 81.250000 -56.250004 68.750000
v 143.750000 -56.250004 68.750000
v 81.250000 6.249997 68.750000
v 143.750000 6.249997 68.750000
v 125.000000 -37.500000 37.482151
v 100.000000 -37.500000 37.482151
v 100.000000 -37.500000 0.000015
v 125.000000 -37.500000 0.000015
v 125.000000 -12.500001 0.000016
v 100.000000 -12.500001 0.000016
v 100.000000 -12.500003 37.482151
v 125.000000 -12.500003 37.482151
v 125.000000 -37.500000 37.482151
v 125.000000 -37.500000 0.000015
v 125.000000 -12.500003 37.482151
v 125.000000 -12.500001 0.000016
v 100.000000 -37.500000 37.482151
v 100.000000 -12.500001 0.000016
v 100.000000 -37.500000 0.000015
v 100.000000 -12.500003 37.482151
v 162.500000 43.749992 100.000000
v 62.499996 43.749992 100.000000
v 62.499996 43.749992 62.500004
v 162.500000 43.749992 62.500004
v 162.500000 143.750000 62.500008
v 62.499996 143.750000 62.500008
v 62.499996 143.750000 100.000008
v 162.500000 143.750000 100.000008
v 162.500000 43.749992 62.500004
v 62.499996 43.749992 62.500004
v 62.499996 143.750000 62.500008
v 162.500000 143.750000 62.500008
v 162.500000 143.750000 100.000008
v 162.500000 43.749992 100.000000
v 162.500000 43.749992 62.500004
v 162.500000 143.750000 62.500008
v 62.499996 43.749992 100.000000
v 62.499996 143.750000 62.500008
v 62.499996 43.749992 62.500004
v 62.499996 143.750000 100.000008
v 100.000000 81.250000 62.464306
v 100.000000 81.250000 0.000021
v 125.000000 81.250000 62.464306
v 125.000000 81.250000 0.000021
v 100.000000 106.250000 0.000022
v 100.000000 106.250000 62.464306
v 125.000000 106.250000 0.000022
v 125.000000 106.250000 62.464306
v 125.000000 106.250000 0.000022
v 125.000000 106.250000 62.464306
v 125.000000 81.250000 0.000021
v 125.000000 81.250000 62.464306
v 100.000000 81.250000 62.464306
v 100.000000 106.250000 0.000022
v 100.000000 81.250000 0.000021
v 100.000000 106.250000 62.464306
v 62.499996 43.749992 100.000000
v 162.500000 43.749992 100.000000
v 62.499996 143.750000 100.000008
v 162.500000 143.750000 100.000008
v 43.750004 -43.750008 100.000000
v -56.250004 -43.750008 100.000000
v -56.250004 -43.750008 62.499996
v 43.750004 -43.750008 62.499996
v 43.750004 56.250000 62.500004
v -56.250004 56.250000 62.500004
v -56.250004 56.250000 100.000000
v 43.750004 56.250000 100.000000
v 43.750004 -43.750008 62.499996
v -56.250004 -43.750008 62.499996
v -56.250004 56.250000 62.500004
v 43.750004 56.250000 62.500004
v 43.750004 56.250000 100.000000
v 43.750004 -43.750008 100.000000
v 43.750004 -43.750008 62.499996
v 43.750004 56.250000 62.500004
v -56.250004 -43.750008 100.000000
v -56.250004 56.250000 62.500004
v -56.250004 -43.750008 62.499996
v -56.250004 56.250000 100.000000
v -18.749998 -6.250002 62.464302
v -18.749998 -6.249999 0.000017
v 6.249999 -6.250002 62.464302
v 6.249999 -6.249999 0.000017
v -18.749998 18.749998 0.000018
v -18.749998 18.749996 62.464302
v 6.249999 18.749998 0.000018
v 6.249999 18.749996 62.464302
v 6.249999 18.749998 0.000018
v 6.249999 18.749996 62.464302
v 6.249999 -6.249999 0.000017
v 6.249999 -6.250002 62.464302
v -18.749998 -6.250002 62.464302
v -18.749998 18.749998 0.000018
v -18.749998 -6.249999 0.000017
v -18.749998 18.749996 62.464302
v -56.250004 -43.750008 100.000000
v 43.750004 -43.750008 100.000000
v -56.250004 56.250000 100.000000
v 43.750004 56.250000 100.000000
v -18.750000 81.250000 62.508930
v -68.750000 81.250000 62.508930
v -68.750000 81.250000 37.526775
v -18.750000 81.250000 37.526775
v -18.750000 131.250000 37.526779
v -68.750000 131.250000 37.526779
v -68.750000 131.250000 62.508934
v -18.750000 131.250000 62.508934
v -18.750000 81.250000 37.526775
v -68.750000 81.250000 37.526775
v -68.750000 131.250000 37.526779
v -18.750000 131.250000 37.526779
v -18.750000 131.250000 62.508934
v -18.750000 81.250000 62.508930
v -18.750000 81.250000 37.526775
v -18.750000 131.250000 37.526779
v -68.750000 81.250000 62.508930
v -68.750000 131.250000 37.526779
v -68.750000 81.250000 37.526775
v -68.750000 131.250000 62.508934
v -68.750000 81.250000 62.508930
v -18.750000 81.250000 62.508930
v -68.750000 131.250000 62.508934
v -18.750000 131.250000 62.508934
v -31.250000 93.750000 37.491077
v -56.250000 93.750000 37.491077
v -56.250000 93.750000 0.000021
v -31.250000 93.750000 0.000021
v -31.250000 118.750000 0.000022
v -56.250000 118.750000 0.000022
v -56.250000 118.750000 37.491077
v -31.250000 118.750000 37.491077
v -31.250000 93.750000 37.491077
v -31.250000 93.750000 0.000021
v -31.250000 118.750000 37.491077
v -31.250000 118.750000 0.000022
v -56.250000 93.750000 37.491077
v -56.250000 118.750000 0.000022
v -56.250000 93.750000 0.000021
v -56.250000 118.750000 37.491077
vn -0.0000 -1.0000 -0.0000
vn -0.0000 1.0000 -0.0000
vn -0.0000 -0.0000 -1.0000
vn 1.0000 -0.0000 -0.0000
vn -1.0000 -0.0000 -0.0000
vn -0.0000 -0.0000 1.0000
vt 0.520508 0.625000
vt 0.562500 0.625000
vt 0.562500 0.729248
vt 0.520508 0.729248
vt 0.375000 0.145996
vt 0.375000 0.104492
vt 0.458252 0.104492
vt 0.458252 0.145996
vt 0.375000 0.229492
vt 0.458252 0.229492
vt 0.541504 0.375000
vt 0.604004 0.375000
vt 0.604004 0.416992
vt 0.541504 0.416992
vt 0.541504 0.229492
vt 0.541504 0.395996
vt 0.375000 0.395996
vt 0.541504 0.625000
vt 0.375000 0.625000
vt 0.375000 0.458496
vt 0.541504 0.458496
vt 0.604004 0.625000
vt 0.604004 0.729248
vt 0.604004 0.458496
vt 0.583008 0.145996
vt 0.583008 0.229492
vt 0.500000 0.229492
vt 0.500000 0.145996
vt 0.479004 0.145996
vt 0.479004 0.093750
vt 0.583008 0.093750
vt 0.520508 0.999969
vt 0.520508 0.895874
vt 0.625000 0.895874
vt 0.625000 0.999969
vt 0.520508 0.843750
vt 0.520508 0.739746
vt 0.625000 0.739746
vt 0.625000 0.843750
vt 0.541504 0.333496
vt 0.604004 0.333496
vt 0.541504 0.291992
vt 0.604004 0.291992
s 1
usemtl MI_Mushrooms
f 12/25/3 9/26/3 10/27/3 11/28/3
f 4/7/1 1/8/1 2/5/1 3/6/1
f 20/8/5 18/28/5 19/27/5 17/10/5
f 8/5/2 5/6/2 6/7/2 7/8/2
f 15/28/4 16/27/4 13/10/4 14/8/4
f 28/40/1 25/41/1 26/12/1 27/11/1
f 32/12/2 29/11/2 30/40/2 31/41/2
f 34/40/4 36/42/4 35/43/4 33/41/4
f 22/9/6 24/5/6 23/8/6 21/10/6
f 40/41/5 38/40/5 39/42/5 37/43/5
usemtl MI_Mushrooms
f 68/11/1 65/12/1 66/13/1 67/14/1
f 55/25/4 56/29/4 53/30/4 54/31/4
f 52/32/3 49/33/3 50/34/3 51/35/3
f 62/36/6 64/37/6 63/38/6 61/39/6
f 80/24/5 78/21/5 79/14/5 77/13/5
f 48/39/2 45/34/2 46/33/2 47/36/2
f 60/31/5 58/25/5 59/29/5 57/30/5
f 72/13/2 69/14/2 70/11/2 71/12/2
f 74/21/4 76/14/4 75/13/4 73/24/4
f 44/33/1 41/36/1 42/39/1 43/34/1
usemtl MI_Mushrooms
f 110/1/4 112/2/4 111/3/4 109/4/4
f 92/9/3 89/15/3 90/16/3 91/17/3
f 118/18/6 120/19/6 119/20/6 117/21/6
f 84/22/1 81/18/1 82/21/1 83/24/1
f 95/17/4 96/16/4 93/21/4 94/20/4
f 104/3/1 103/2/1 101/22/1 102/23/1
f 100/20/5 98/17/5 99/16/5 97/21/5
f 108/22/2 107/23/2 105/3/2 106/2/2
f 116/2/5 114/3/5 115/4/5 113/1/5
f 88/21/2 85/24/2 86/22/2 87/18/2
usemtl MI_Mushrooms
f 148/22/2 147/23/2 145/3/2 146/2/2
f 140/20/5 138/17/5 139/16/5 137/21/5
f 144/3/1 143/2/1 141/22/1 142/23/1
f 158/18/6 160/19/6 159/20/6 157/21/6
f 128/21/2 125/24/2 126/22/2 127/18/2
f 124/22/1 121/18/1 122/21/1 123/24/1
f 150/1/4 152/2/4 151/3/4 149/4/4
f 156/2/5 154/3/5 155/4/5 153/1/5
f 135/17/4 136/16/4 133/21/4 134/20/4
f 132/9/3 129/15/3 130/16/3 131/17/3
usemtl MI_Mushrooms
f 168/5/2 165/6/2 166/7/2 167/8/2
f 182/9/6 184/5/6 183/8/6 181/10/6
f 188/40/1 185/41/1 186/12/1 187/11/1
f 172/25/3 169/26/3 170/27/3 171/28/3
f 192/12/2 189/11/2 190/40/2 191/41/2
f 164/7/1 161/8/1 162/5/1 163/6/1
f 194/40/4 196/42/4 195/43/4 193/41/4
f 175/28/4 176/27/4 173/10/4 174/8/4
f 180/8/5 178/28/5 179/27/5 177/10/5
f 200/41/5 198/40/5 199/42/5 197/43/5
