# Blender 5.0.1
# www.blender.org
mtllib BP_ST_Branch_4.mtl
o SM_ST_Branch_4_Foliage.001
v 212.500000 800.000000 99.999870
v 212.500000 700.000000 99.999886
v 212.500000 700.000000 -0.000114
v 212.500000 800.000000 -0.000130
v 512.500000 700.000061 199.999893
v 512.500000 600.000061 199.999908
v 512.500000 600.000000 99.999901
v 512.500000 700.000000 99.999886
v 512.500000 600.000000 -0.000098
v 512.500000 700.000000 -0.000114
vn 1.0000 -0.0000 -0.0000
vt 1.000000 0.666748
vt 1.000000 0.999969
vt 0.666504 0.999969
vt 0.666504 0.666748
s 1
usemtl M_FSetpieceFoliage_PF
f 8/1/1 5/2/1 6/3/1 7/4/1
f 4/1/1 1/2/1 2/3/1 3/4/1
f 10/1/1 8/2/1 7/3/1 9/4/1
