# Blender 5.0.1
# www.blender.org
mtllib BP_STBridge_02_blocked.mtl
o SM_Barricade_Blunt_Fade.001
v 375.117096 -168.749786 219.605789
v 249.163696 -149.999817 93.652390
v 249.163696 -168.749847 93.652382
v 375.117065 -149.999756 219.605804
v 262.421936 -168.749832 80.394135
v 388.375305 -149.999756 206.347519
v 388.375336 -168.749771 206.347534
v 262.421936 -149.999817 80.394135
v 249.163696 -168.749847 93.652382
v 262.421936 -149.999817 80.394135
v 262.421936 -168.749832 80.394135
v 249.163696 -149.999817 93.652390
v 388.375305 -149.999756 206.347519
v 262.421936 -149.999817 80.394135
v 249.163696 -149.999817 93.652390
v 375.117065 -149.999756 219.605804
v 249.163696 -168.749847 93.652382
v 388.375336 -168.749771 206.347534
v 375.117096 -168.749786 219.605789
v 262.421936 -168.749832 80.394135
v 375.117096 -168.749786 219.605789
v 388.375305 -149.999756 206.347519
v 375.117065 -149.999756 219.605804
v 388.375336 -168.749771 206.347534
v 249.163742 -249.999863 206.347610
v 375.117126 -231.249756 80.394211
v 375.117126 -249.999771 80.394196
v 249.163727 -231.249817 206.347626
v 388.375366 -249.999771 93.652481
v 262.421997 -231.249817 219.605865
v 262.421997 -249.999832 219.605865
v 388.375366 -231.249756 93.652473
v 262.421997 -249.999832 219.605865
v 249.163727 -231.249817 206.347626
v 249.163742 -249.999863 206.347610
v 262.421997 -231.249817 219.605865
v 388.375366 -249.999771 93.652481
v 249.163742 -249.999863 206.347610
v 375.117126 -249.999771 80.394196
v 262.421997 -249.999832 219.605865
v 249.163727 -231.249817 206.347626
v 388.375366 -231.249756 93.652473
v 375.117126 -231.249756 80.394211
v 262.421997 -231.249817 219.605865
v 388.375366 -249.999771 93.652481
v 375.117126 -231.249756 80.394211
v 388.375366 -231.249756 93.652473
v 375.117126 -249.999771 80.394196
v 375.117126 -268.749756 219.605789
v 249.163742 -249.999817 93.652390
v 249.163757 -268.749847 93.652382
v 375.117126 -249.999756 219.605804
v 262.421997 -268.749817 80.394135
v 388.375366 -249.999741 206.347519
v 388.375397 -268.749756 206.347534
v 262.421997 -249.999817 80.394135
v 249.163757 -268.749847 93.652382
v 262.421997 -249.999817 80.394135
v 262.421997 -268.749817 80.394135
v 249.163742 -249.999817 93.652390
v 388.375366 -249.999741 206.347519
v 262.421997 -249.999817 80.394135
v 249.163742 -249.999817 93.652390
v 375.117126 -249.999756 219.605804
v 249.163757 -268.749847 93.652382
v 388.375397 -268.749756 206.347534
v 375.117126 -268.749756 219.605789
v 262.421997 -268.749817 80.394135
v 375.117126 -268.749756 219.605789
v 388.375366 -249.999741 206.347519
v 375.117126 -249.999756 219.605804
v 388.375397 -268.749756 206.347534
v 375.117188 -368.749786 219.605820
v 249.163803 -349.999817 93.652420
v 249.163803 -368.749847 93.652412
v 375.117188 -349.999756 219.605835
v 262.422058 -368.749817 80.394165
v 388.375427 -349.999756 206.347549
v 388.375427 -368.749756 206.347565
v 262.422058 -349.999817 80.394165
v 249.163803 -368.749847 93.652412
v 262.422058 -349.999817 80.394165
v 262.422058 -368.749817 80.394165
v 249.163803 -349.999817 93.652420
v 388.375427 -349.999756 206.347549
v 262.422058 -349.999817 80.394165
v 249.163803 -349.999817 93.652420
v 375.117188 -349.999756 219.605835
v 249.163803 -368.749847 93.652412
v 388.375427 -368.749756 206.347565
v 375.117188 -368.749786 219.605820
v 262.422058 -368.749817 80.394165
v 375.117188 -368.749786 219.605820
v 388.375427 -349.999756 206.347549
v 375.117188 -349.999756 219.605835
v 388.375427 -368.749756 206.347565
v 249.163803 -349.999847 206.347610
v 375.117188 -331.249756 80.394211
v 375.117188 -349.999756 80.394196
v 249.163788 -331.249817 206.347626
v 388.375427 -349.999756 93.652481
v 262.422028 -331.249817 219.605865
v 262.422058 -349.999817 219.605865
v 388.375427 -331.249756 93.652473
v 262.422058 -349.999817 219.605865
v 249.163788 -331.249817 206.347626
v 249.163803 -349.999847 206.347610
v 262.422028 -331.249817 219.605865
v 388.375427 -349.999756 93.652481
v 249.163803 -349.999847 206.347610
v 375.117188 -349.999756 80.394196
v 262.422058 -349.999817 219.605865
v 249.163788 -331.249817 206.347626
v 388.375427 -331.249756 93.652473
v 375.117188 -331.249756 80.394211
v 262.422028 -331.249817 219.605865
v 388.375427 -349.999756 93.652481
v 375.117188 -331.249756 80.394211
v 388.375427 -331.249756 93.652473
v 375.117188 -349.999756 80.394196
v 345.416656 -99.999771 136.741608
v 332.158142 -99.999771 150.000137
v 358.674896 -99.999756 149.999863
v 345.416382 -99.999771 163.258392
v 358.675049 -399.999786 149.999863
v 332.158295 -399.999817 150.000137
v 345.416809 -399.999817 136.741608
v 345.416534 -399.999817 163.258392
v 249.163696 -149.999847 206.347610
v 375.117065 -131.249756 80.394211
v 375.117065 -149.999756 80.394196
v 249.163681 -131.249817 206.347626
v 388.375305 -149.999756 93.652481
v 262.421936 -131.249817 219.605865
v 262.421936 -149.999817 219.605865
v 388.375305 -131.249741 93.652473
v 262.421936 -149.999817 219.605865
v 249.163681 -131.249817 206.347626
v 249.163696 -149.999847 206.347610
v 262.421936 -131.249817 219.605865
v 388.375305 -149.999756 93.652481
v 249.163696 -149.999847 206.347610
v 375.117065 -149.999756 80.394196
v 262.421936 -149.999817 219.605865
v 249.163681 -131.249817 206.347626
v 388.375305 -131.249741 93.652473
v 375.117065 -131.249756 80.394211
v 262.421936 -131.249817 219.605865
v 388.375305 -149.999756 93.652481
v 375.117065 -131.249756 80.394211
v 388.375305 -131.249741 93.652473
v 375.117065 -149.999756 80.394196
v 345.416443 -249.999786 163.258392
v 332.158295 -399.999817 150.000137
v 345.416534 -399.999817 163.258392
v 332.158203 -249.999786 150.000137
v 345.416382 -99.999771 163.258392
v 332.158142 -99.999771 150.000137
v 358.675049 -399.999786 149.999863
v 358.674988 -249.999771 149.999863
v 345.416534 -399.999817 163.258392
v 345.416443 -249.999786 163.258392
v 345.416382 -99.999771 163.258392
v 358.674896 -99.999756 149.999863
v 345.416809 -399.999817 136.741608
v 345.416748 -249.999786 136.741608
v 358.675049 -399.999786 149.999863
v 358.674988 -249.999771 149.999863
v 358.674896 -99.999756 149.999863
v 345.416656 -99.999771 136.741608
v 332.158203 -249.999786 150.000137
v 345.416809 -399.999817 136.741608
v 332.158295 -399.999817 150.000137
v 345.416748 -249.999786 136.741608
v 332.158142 -99.999771 150.000137
v 345.416656 -99.999771 136.741608
vn -0.7071 -0.0000 0.7071
vn 0.7071 -0.0000 -0.7071
vn -0.7071 -0.0000 -0.7071
vn -0.0000 1.0000 -0.0000
vn -0.0000 -1.0000 -0.0000
vn 0.7071 -0.0000 0.7071
vt 0.166626 0.888916
vt 0.166626 0.083496
vt 0.083313 0.083496
vt 0.083313 0.888916
vt 0.250000 0.083496
vt 0.250000 0.888916
vt 0.333252 0.888916
vt 0.333252 0.083496
vt 0.083313 0.000000
vt 0.166626 0.000000
vt 0.000031 0.083496
vt 0.000031 0.888916
vt 0.083313 0.972229
vt 0.166626 0.972229
vt 0.416504 0.666748
vt 0.416504 0.750000
vt 0.500000 0.750000
vt 0.500000 0.666748
vt 0.583008 0.000000
vt 0.500000 0.000000
vt 0.583008 0.666748
vt 0.333252 0.000000
vt 0.333252 0.666748
vt 0.416504 0.000000
vt 0.666504 0.666748
vt 0.666504 0.000000
s 1
usemtl Mi_BarricadeFade
f 52/1/1 50/2/1 51/3/1 49/4/1
f 56/5/2 54/6/2 55/7/2 53/8/2
f 36/9/1 34/3/1 35/2/1 33/10/1
f 87/2/4 88/1/4 85/6/4 86/5/4
f 68/11/5 66/12/5 67/4/5 65/3/5
f 96/13/6 94/14/6 95/1/6 93/4/6
f 148/11/4 146/12/4 147/4/4 145/3/4
f 8/5/2 6/6/2 7/7/2 5/8/2
f 108/9/1 106/3/1 107/2/1 105/10/1
f 112/5/5 110/2/5 111/1/5 109/6/5
f 116/11/4 114/12/4 115/4/4 113/3/4
f 120/1/2 118/4/2 119/13/2 117/14/2
f 152/1/2 150/4/2 151/13/2 149/14/2
f 80/5/2 78/6/2 79/7/2 77/8/2
f 12/2/3 10/10/3 11/9/3 9/3/3
f 15/2/4 16/1/4 13/6/4 14/5/4
f 44/11/4 42/12/4 43/4/4 41/3/4
f 60/2/3 58/10/3 59/9/3 57/3/3
f 4/1/1 2/2/1 3/3/1 1/4/1
f 20/11/5 18/12/5 19/4/5 17/3/5
f 140/9/1 138/3/1 139/2/1 137/10/1
f 40/5/5 38/2/5 39/1/5 37/6/5
f 76/1/1 74/2/1 75/3/1 73/4/1
f 72/13/6 70/14/6 71/1/6 69/4/6
f 28/3/3 26/4/3 27/1/3 25/2/3
f 32/7/6 30/8/6 31/5/6 29/6/6
f 84/2/3 82/10/3 83/9/3 81/3/3
f 144/5/5 142/2/5 143/1/5 141/6/5
f 132/3/3 130/4/3 131/1/3 129/2/3
f 24/13/6 22/14/6 23/1/6 21/4/6
f 128/15/5 126/16/5 127/17/5 125/18/5
f 136/7/6 134/8/6 135/5/6 133/6/6
f 100/3/3 98/4/3 99/1/3 97/2/3
f 104/7/6 102/8/6 103/5/6 101/6/6
f 63/2/4 64/1/4 61/6/4 62/5/4
f 92/11/5 90/12/5 91/4/5 89/3/5
f 48/1/2 46/4/2 47/13/2 45/14/2
f 166/19/2 168/20/2 167/18/2 165/21/2
f 156/22/1 154/23/1 155/15/1 153/24/1
f 164/18/6 163/15/6 162/24/6 160/20/6
f 122/16/4 124/15/4 123/18/4 121/17/4
f 160/20/6 162/24/6 161/15/6 159/18/6
f 156/22/1 153/24/1 157/15/1 158/23/1
f 170/21/2 169/18/2 168/20/2 166/19/2
f 174/19/3 172/21/3 173/25/3 171/26/3
f 174/19/3 171/26/3 175/25/3 176/21/3
