# Blender 5.0.1
# www.blender.org
mtllib BP_SpiderWebWall_Treetop.mtl
o SM_SpiderWall_Treetop.001
v 50.000000 6.481006 151.915314
v -49.999973 79.110001 0.360859
v -50.000000 6.481004 151.915329
v 50.000027 79.109978 0.360851
v -49.999973 79.110001 0.360859
v -249.999969 6.481003 186.253296
v -50.000000 6.481004 151.915329
v -249.999985 98.171570 0.360847
v 50.000000 6.481006 151.915314
v 250.000031 6.480987 186.253311
v 50.000027 79.109978 0.360851
v 250.000015 98.171516 0.360843
v -49.999985 -6.481011 151.915329
v 49.999992 -79.110001 0.360851
v 50.000015 -6.481020 151.915329
v -50.000008 -79.109993 0.360861
v 49.999992 -79.110001 0.360851
v 250.000031 -6.481032 186.253311
v 50.000015 -6.481020 151.915329
v 250.000015 -98.171585 0.360834
v -49.999985 -6.481011 151.915329
v -249.999969 -6.481002 186.253311
v -50.000008 -79.109993 0.360861
v -249.999985 -98.171585 0.360846
v 50.000000 6.481006 151.915314
v 250.000031 -6.481032 186.253311
v 250.000031 6.480987 186.253311
v 50.000015 -6.481020 151.915329
v 50.000000 6.481006 151.915314
v -50.000000 6.481004 151.915329
v -49.999985 -6.481011 151.915329
v 50.000015 -6.481020 151.915329
v -50.000000 6.481004 151.915329
v -249.999969 6.481003 186.253296
v -249.999969 -6.481002 186.253311
v -49.999985 -6.481011 151.915329
vn -0.0000 0.9018 0.4322
vn 0.0797 0.8964 0.4360
vn 0.0802 0.8962 0.4364
vn 0.0740 0.8993 0.4310
vn 0.0852 0.8936 0.4408
vn -0.0740 0.8993 0.4310
vn -0.0802 0.8962 0.4364
vn -0.0797 0.8964 0.4360
vn -0.0852 0.8936 0.4408
vn -0.0000 -0.9018 0.4322
vn -0.0797 -0.8964 0.4360
vn -0.0802 -0.8962 0.4364
vn -0.0740 -0.8993 0.4310
vn -0.0852 -0.8936 0.4408
vn 0.0740 -0.8993 0.4310
vn 0.0802 -0.8962 0.4364
vn 0.0797 -0.8964 0.4360
vn 0.0852 -0.8936 0.4408
vn -0.1692 -0.0000 0.9856
vn -0.0000 -0.0000 1.0000
vn 0.1692 -0.0000 0.9856
vt -0.000031 0.999969
vt -0.000031 0.937500
vt 1.000000 0.937500
vt 1.000000 0.999969
vt 0.000031 0.843750
vt 0.000031 0.000000
vt 1.000000 0.843750
vt 1.000000 0.000000
vt 0.468750 0.000000
vt 0.062500 0.000000
vt 0.062500 0.843750
vt 0.468750 0.843750
vt 0.468750 0.999969
vt 0.468750 0.937500
vt 0.875000 0.937500
vt 0.875000 0.999969
vt 0.000031 0.937500
vt 0.000031 0.999969
s 1
usemtl MI_SpiderWebWall_Treetop
f 36/1/21 33/2/21 34/3/21 35/4/21
f 7/5/4 5/6/2 6/7/3
f 6/7/3 5/6/2 8/8/5
f 11/8/8 9/7/6 10/5/7
f 11/8/8 10/5/7 12/6/9
f 4/9/1 2/10/1 3/11/1 1/12/1
f 19/5/13 17/6/11 18/7/12
f 18/7/12 17/6/11 20/8/14
f 23/8/17 21/7/15 22/5/16
f 23/8/17 22/5/16 24/6/18
f 32/13/20 29/14/20 30/15/20 31/16/20
f 25/4/19 28/3/19 26/17/19 27/18/19
f 16/9/10 14/10/10 15/11/10 13/12/10
