# Blender 5.0.1
# www.blender.org
mtllib BP_StoutShroom_StoutShroom_Stalk.mtl
o SM_StoutShroom_StoutShroom.001
v -3.124997 46.875000 25.000004
v -3.125005 3.125003 25.000004
v -3.124997 3.125003 0.000003
v -3.124989 46.875000 0.000003
v -3.124997 46.875000 25.000004
v -46.874996 46.875008 24.999989
v -3.125005 3.125003 25.000004
v -46.875004 3.125011 24.999989
v -46.874992 46.875008 -0.000011
v -46.875000 3.125011 -0.000011
v -46.875004 3.125011 24.999989
v -46.874996 46.875008 24.999989
v -3.124989 46.875000 0.000003
v -3.124997 3.125003 0.000003
v -46.875000 3.125011 -0.000011
v -46.874992 46.875008 -0.000011
v -46.874996 46.875008 24.999989
v -3.124997 46.875000 25.000004
v -3.124989 46.875000 0.000003
v -46.874992 46.875008 -0.000011
v -3.125005 3.125003 25.000004
v -46.875000 3.125011 -0.000011
v -3.124997 3.125003 0.000003
v -46.875004 3.125011 24.999989
v -3.125041 -46.875000 175.000000
v -46.875042 -46.874985 174.999985
v -46.875038 -46.874992 149.999985
v -3.125037 -46.875000 150.000000
v -3.125041 -46.875000 175.000000
v -3.125029 -3.124995 175.000000
v -46.875042 -46.874985 174.999985
v -46.875031 -3.124983 174.999985
v -3.125025 -3.124999 150.000000
v -46.875027 -3.124987 149.999985
v -46.875031 -3.124983 174.999985
v -3.125029 -3.124995 175.000000
v -3.125037 -46.875000 150.000000
v -46.875038 -46.874992 149.999985
v -46.875027 -3.124987 149.999985
v -3.125025 -3.124999 150.000000
v -3.125029 -3.124995 175.000000
v -3.125041 -46.875000 175.000000
v -3.125037 -46.875000 150.000000
v -3.125025 -3.124999 150.000000
v -46.875042 -46.874985 174.999985
v -46.875027 -3.124987 149.999985
v -46.875038 -46.874992 149.999985
v -46.875031 -3.124983 174.999985
v 3.124971 -3.125012 125.000000
v 46.874973 -3.125009 125.000008
v 46.874977 -3.125005 100.000008
v 3.124975 -3.125008 100.000000
v 3.124971 -3.125012 125.000000
v 3.124974 -46.875015 125.000000
v 46.874973 -3.125009 125.000008
v 46.874969 -46.875008 125.000008
v 3.124978 -46.875008 100.000000
v 46.874973 -46.875008 100.000008
v 46.874969 -46.875008 125.000008
v 3.124974 -46.875015 125.000000
v 3.124975 -3.125008 100.000000
v 46.874977 -3.125005 100.000008
v 46.874973 -46.875008 100.000008
v 3.124978 -46.875008 100.000000
v 3.124974 -46.875015 125.000000
v 3.124971 -3.125012 125.000000
v 3.124975 -3.125008 100.000000
v 3.124978 -46.875008 100.000000
v 46.874973 -3.125009 125.000008
v 46.874973 -46.875008 100.000008
v 46.874977 -3.125005 100.000008
v 46.874969 -46.875008 125.000008
v 46.874996 46.874992 75.000008
v 46.874989 3.124989 75.000008
v 46.874992 3.124989 50.000011
v 46.875000 46.874992 50.000011
v 46.874996 46.874992 75.000008
v 3.124995 46.875000 75.000000
v 46.874989 3.124989 75.000008
v 3.124986 3.124997 75.000000
v 3.125003 46.875000 49.999996
v 3.124994 3.124997 49.999996
v 3.124986 3.124997 75.000000
v 3.124995 46.875000 75.000000
v 46.875000 46.874992 50.000011
v 46.874992 3.124989 50.000011
v 3.124994 3.124997 49.999996
v 3.125003 46.875000 49.999996
v 3.124995 46.875000 75.000000
v 46.874996 46.874992 75.000008
v 46.875000 46.874992 50.000011
v 3.125003 46.875000 49.999996
v 46.874989 3.124989 75.000008
v 3.124994 3.124997 49.999996
v 46.874992 3.124989 50.000011
v 3.124986 3.124997 75.000000
v 40.625000 9.374990 0.625007
v 40.625008 40.624989 0.625007
v 9.375004 9.374997 0.625002
v 9.375010 40.625000 0.625002
v 21.874985 -28.125006 50.000004
v 21.874992 -28.125006 0.000004
v 28.124985 -28.125008 50.000004
v 28.124992 -28.125008 0.000005
v 21.874994 -21.875006 0.000004
v 21.874985 -21.875006 50.000004
v 28.124994 -21.875008 0.000005
v 28.124985 -21.875008 50.000004
v 28.124992 -28.125008 0.000005
v 21.874992 -28.125006 0.000004
v 21.874994 -21.875006 0.000004
v 28.124994 -21.875008 0.000005
v 28.124994 -21.875008 0.000005
v 28.124985 -21.875008 50.000004
v 28.124992 -28.125008 0.000005
v 28.124985 -28.125008 50.000004
v 21.874985 -28.125006 50.000004
v 21.874994 -21.875006 0.000004
v 21.874992 -28.125006 0.000004
v 21.874985 -21.875006 50.000004
v 40.624996 -9.375010 0.625007
v 9.374996 -9.375004 0.625002
v 40.624992 -40.625008 0.625007
v 9.374990 -40.625000 0.625002
v -40.625011 -40.624992 0.624993
v -9.375010 -40.625000 0.624998
v -40.625004 -9.374990 0.624993
v -9.375003 -9.374996 0.624998
v -9.374990 40.625000 0.624998
v -40.624992 40.625008 0.624993
v -9.374996 9.375004 0.624998
v -40.625000 9.375010 0.624993
v 21.874977 -28.125006 100.000000
v 28.124977 -28.125008 100.000008
v 21.874977 -21.875006 100.000000
v 28.124977 -21.875008 100.000008
v 28.124985 -28.125008 50.000004
v 21.874985 -28.125006 50.000004
v 21.874985 -21.875006 50.000004
v 28.124985 -21.875008 50.000004
v 28.124977 -21.875008 100.000008
v 28.124977 -28.125008 100.000008
v 21.874977 -28.125006 100.000000
v 21.874977 -21.875006 100.000000
v 21.874998 21.874994 50.000004
v 21.875006 21.874994 0.000004
v 28.124998 21.874992 50.000004
v 28.125006 21.874992 0.000005
v 21.875008 28.124994 0.000004
v 21.875000 28.124994 50.000004
v 28.125008 28.124992 0.000005
v 28.125000 28.124992 50.000004
v 28.125006 21.874992 0.000005
v 21.875006 21.874994 0.000004
v 21.875008 28.124994 0.000004
v 28.125008 28.124992 0.000005
v 28.125008 28.124992 0.000005
v 28.125000 28.124992 50.000004
v 28.125006 21.874992 0.000005
v 28.124998 21.874992 50.000004
v 21.874998 21.874994 50.000004
v 21.875008 28.124994 0.000004
v 21.875006 21.874994 0.000004
v 21.875000 28.124994 50.000004
v -28.125015 -28.124992 49.999996
v -28.125008 -28.124992 -0.000005
v -21.875015 -28.124994 49.999996
v -21.875008 -28.124994 -0.000004
v -28.125006 -21.874992 -0.000005
v -28.125015 -21.874992 49.999996
v -21.875006 -21.874994 -0.000004
v -21.875015 -21.874994 49.999996
v -21.875008 -28.124994 -0.000004
v -28.125008 -28.124992 -0.000005
v -28.125006 -21.874992 -0.000005
v -21.875006 -21.874994 -0.000004
v -21.875006 -21.874994 -0.000004
v -21.875015 -21.874994 49.999996
v -21.875008 -28.124994 -0.000004
v -21.875015 -28.124994 49.999996
v -28.125015 -28.124992 49.999996
v -28.125006 -21.874992 -0.000005
v -28.125008 -28.124992 -0.000005
v -28.125015 -21.874992 49.999996
v -28.125023 -28.124992 99.999992
v -21.875023 -28.124994 100.000000
v -28.125023 -21.874992 99.999992
v -21.875023 -21.874994 100.000000
v -21.875015 -28.124994 49.999996
v -28.125015 -28.124992 49.999996
v -28.125015 -21.874992 49.999996
v -21.875015 -21.874994 49.999996
v -21.875023 -21.874994 100.000000
v -21.875023 -28.124994 100.000000
v -28.125023 -28.124992 99.999992
v -28.125023 -21.874992 99.999992
v -28.125032 -28.124992 150.000000
v -21.875032 -28.124994 150.000000
v -28.125031 -21.874992 150.000000
v -21.875031 -21.874994 150.000000
v -21.875023 -28.124994 100.000000
v -28.125023 -28.124992 99.999992
v -28.125023 -21.874992 99.999992
v -21.875023 -21.874994 100.000000
v -21.875031 -21.874994 150.000000
v -21.875032 -28.124994 150.000000
v -28.125032 -28.124992 150.000000
v -28.125031 -21.874992 150.000000
vn 1.0000 -0.0000 -0.0000
vn -0.0000 -0.0000 1.0000
vn -1.0000 -0.0000 -0.0000
vn -0.0000 -0.0000 -1.0000
vn -0.0000 1.0000 -0.0000
vn -0.0000 -1.0000 -0.0000
vt 0.031235 0.750122
vt 0.031235 0.734619
vt 0.015617 0.734619
vt 0.015617 0.750122
vt 0.359131 0.859497
vt 0.359131 0.750122
vt 0.249878 0.750122
vt 0.250000 0.859375
vt 0.250000 0.999969
vt 0.250000 0.921875
vt 0.328125 0.921875
vt 0.328125 0.999969
vt 0.015617 0.859375
vt -0.000032 0.734619
vt 0.000031 0.859375
vt 0.140625 0.796997
vt 0.249878 0.796997
vt 0.249878 0.859375
vt 0.140625 0.859375
vt 0.249878 0.796875
vt 0.249878 0.734619
vt 0.140625 0.734619
vt 0.140625 0.796875
vt 0.031235 0.859375
vt 0.015625 0.859375
vt 0.140503 0.796997
vt 0.140503 0.859375
vt 0.031250 0.859375
vt 0.031250 0.796997
s 1
usemtl MI_PulsatingFoilage_Stout
f 16/5/4 13/6/4 14/7/4 15/8/4
f 64/5/4 61/6/4 62/7/4 63/8/4
f 19/16/5 20/17/5 17/18/5 18/19/5
f 72/20/1 70/21/1 71/22/1 69/23/1
f 88/5/4 85/6/4 86/7/4 87/8/4
f 67/16/3 68/17/3 65/18/3 66/19/3
f 48/20/3 46/21/3 47/22/3 45/23/3
f 12/20/3 9/21/3 10/22/3 11/23/3
f 8/8/2 7/7/2 5/6/2 6/5/2
f 36/20/5 33/21/5 34/22/5 35/23/5
f 96/20/6 94/21/6 95/22/6 93/23/6
f 56/8/2 55/7/2 53/6/2 54/5/2
f 32/8/2 31/7/2 29/6/2 30/5/2
f 60/20/6 57/21/6 58/22/6 59/23/6
f 40/5/4 37/6/4 38/7/4 39/8/4
f 4/26/1 1/27/1 2/28/1 3/29/1
f 80/8/2 79/7/2 77/6/2 78/5/2
f 76/26/1 73/27/1 74/28/1 75/29/1
f 52/26/5 49/27/5 50/28/5 51/29/5
f 24/20/6 22/21/6 23/22/6 21/23/6
f 43/16/1 44/17/1 41/18/1 42/19/1
f 91/16/5 92/17/5 89/18/5 90/19/5
f 84/20/3 81/21/3 82/22/3 83/23/3
f 28/26/6 25/27/6 26/28/6 27/29/6
usemtl MI_NetherFoilage_NoDeform_NoEmissive
f 112/1/4 109/2/4 110/3/4 111/4/4
f 128/9/2 127/10/2 125/11/2 126/12/2
f 152/13/5 151/3/5 149/14/5 150/15/5
f 186/3/6 198/13/6 197/15/6 185/14/6
f 114/24/1 116/25/1 115/3/1 113/2/1
f 108/13/5 107/3/5 105/14/5 106/15/5
f 168/3/6 167/13/6 165/15/6 166/14/6
f 204/1/4 201/2/4 202/3/4 203/4/4
f 141/24/1 142/25/1 116/3/1 114/2/1
f 124/9/2 123/10/2 121/11/2 122/12/2
f 148/3/6 147/13/6 145/15/6 146/14/6
f 156/1/4 153/2/4 154/3/4 155/4/4
f 172/13/5 171/3/5 169/14/5 170/15/5
f 104/3/6 103/13/6 101/15/6 102/14/6
f 158/24/1 160/25/1 159/3/1 157/2/1
f 205/24/1 206/25/1 194/3/1 193/2/1
f 188/13/5 172/3/5 170/14/5 187/15/5
f 103/3/6 134/13/6 133/15/6 101/14/6
f 192/1/4 189/2/4 190/3/4 191/4/4
f 193/24/1 194/25/1 180/3/1 178/2/1
f 144/24/3 120/2/3 117/3/3 143/25/3
f 132/9/2 131/10/2 129/11/2 130/12/2
f 100/9/2 99/10/2 97/11/2 98/12/2
f 120/24/3 118/2/3 119/3/3 117/25/3
f 178/24/1 180/25/1 179/3/1 177/2/1
f 167/3/6 186/13/6 185/15/6 165/14/6
f 176/1/4 173/2/4 174/3/4 175/4/4
f 164/24/3 162/2/3 163/3/3 161/25/3
f 200/13/5 188/3/5 187/14/5 199/15/5
f 136/13/5 108/3/5 106/14/5 135/15/5
f 140/1/4 137/2/4 138/3/4 139/4/4
f 208/24/3 196/2/3 195/3/3 207/25/3
f 184/24/3 182/2/3 183/3/3 181/25/3
f 196/24/3 184/2/3 181/3/3 195/25/3
