# Blender 5.0.1
# www.blender.org
mtllib BP_SkullClicky_Extended.mtl
o SM_Skull.001
v 24.999996 -25.000071 43.749958
v 24.999996 -25.000019 12.499961
v 25.000000 18.749931 43.750027
v 25.000000 18.749983 12.500028
v -25.000002 -25.000015 12.499961
v -25.000000 18.749929 43.750027
v -25.000000 18.749981 12.500028
v -25.000002 -25.000067 43.749958
v 12.500002 -25.000000 -0.000042
v -12.500000 18.750000 0.000028
v 12.500002 18.750000 0.000028
v -12.500002 -25.000000 -0.000042
v 12.500002 -25.000000 -0.000042
v 12.499999 18.749981 12.500027
v 12.500000 -25.000019 12.499961
v 12.500002 18.750000 0.000028
v 12.500000 -25.000019 12.499961
v 12.499999 18.749981 12.500027
v 24.999996 -25.000019 12.499961
v 25.000000 18.749983 12.500028
v -12.500000 -25.000015 12.499961
v -12.500000 18.750000 0.000028
v -12.500002 -25.000000 -0.000042
v -12.500000 18.749981 12.500028
v -25.000000 18.749981 12.500028
v -12.500000 -25.000015 12.499961
v -25.000002 -25.000015 12.499961
v -12.500000 18.749981 12.500028
v 24.999996 -25.000019 12.499961
v 24.999996 -25.000071 43.749958
v 12.500002 -25.000071 43.749958
v 12.500000 -25.000019 12.499961
v -12.500002 -25.000071 43.749958
v -25.000002 -25.000067 43.749958
v -25.000002 -25.000015 12.499961
v -12.500000 -25.000015 12.499961
v 12.500002 -25.000000 -0.000042
v -12.500002 -25.000000 -0.000042
v 12.500002 18.749929 43.750027
v 24.999996 -25.000071 43.749958
v 25.000000 18.749931 43.750027
v 12.500002 -25.000071 43.749958
v -12.500000 18.749929 43.750027
v -12.500002 -25.000071 43.749958
v -25.000002 -25.000067 43.749958
v -25.000000 18.749929 43.750027
v 25.000000 18.749983 12.500028
v 12.500002 18.749929 43.750027
v 25.000000 18.749931 43.750027
v 12.499999 18.749981 12.500027
v -12.500000 18.749929 43.750027
v 12.500002 18.750000 0.000028
v -12.500000 18.750000 0.000028
v -12.500000 18.749981 12.500028
v -25.000000 18.749929 43.750027
v -25.000000 18.749981 12.500028
vn 1.0000 -0.0000 -0.0000
vn -1.0000 -0.0000 -0.0000
vn -0.0000 -0.0000 -1.0000
vn -0.0000 -1.0000 -0.0000
vn -0.0000 -0.0000 1.0000
vn -0.0000 1.0000 -0.0000
vt 0.437500 0.718750
vt 0.281250 0.718750
vt 0.281250 0.593750
vt 0.437500 0.593750
vt 0.000031 0.593750
vt 0.000031 0.531250
vt 0.218750 0.531250
vt 0.218750 0.593750
vt 0.812500 0.718750
vt 0.656250 0.718750
vt 0.656250 0.593750
vt 0.812500 0.593750
vt 0.218750 0.718750
vt 0.000031 0.718750
vt 0.281250 0.531250
vt 0.281250 0.312500
vt 0.437500 0.312500
vt 0.437500 0.531250
vt 0.656250 0.531250
vt 0.812500 0.531250
vt 0.437500 0.781250
vt 0.437500 0.999969
vt 0.281250 0.999969
vt 0.281250 0.781250
vt 0.000031 0.781250
vt 0.218750 0.781250
vt 0.218750 0.843750
vt 0.000031 0.843750
vt 0.875000 0.718750
vt 0.875000 0.593750
vt 0.000031 0.468750
vt 0.218750 0.468750
vt 0.656250 0.781250
vt 0.812500 0.781250
s 1
usemtl MI_Skull
f 33/1/4 36/2/4 32/3/4 31/4/4
f 16/5/1 14/6/1 15/7/1 13/8/1
f 54/9/6 51/10/6 48/11/6 50/12/6
f 12/13/3 10/14/3 11/5/3 9/8/3
f 2/15/1 4/16/1 3/17/1 1/18/1
f 50/12/6 48/11/6 49/19/6 47/20/6
f 8/21/2 6/22/2 7/23/2 5/24/2
f 28/25/3 26/26/3 27/27/3 25/28/3
f 53/29/6 54/9/6 50/12/6 52/30/6
f 24/25/2 22/14/2 23/13/2 21/26/2
f 20/31/3 19/32/3 17/7/3 18/6/3
f 36/2/4 38/13/4 37/8/4 32/3/4
f 36/2/4 33/1/4 34/21/4 35/24/4
f 44/1/5 42/4/5 39/11/5 43/10/5
f 42/4/5 40/18/5 41/19/5 39/11/5
f 46/33/5 45/21/5 44/1/5 43/10/5
f 31/4/4 32/3/4 29/15/4 30/18/4
f 54/9/6 56/34/6 55/33/6 51/10/6
