# Blender 5.0.1
# www.blender.org
mtllib BP_Shield_Wooden.mtl
o SM_Shield.001
v 6.250010 -12.500000 -0.000001
v -12.499996 -12.500000 -0.000001
v -12.499993 0.000000 0.000000
v 6.250009 0.000000 0.000000
v -24.999998 -12.500007 150.000000
v 18.750010 -0.000007 150.000061
v -25.000000 -0.000007 150.000000
v 18.750013 -12.500007 150.000000
v -24.999998 -12.500006 137.500061
v -24.999998 -12.500007 150.000000
v -25.000000 -0.000007 150.000000
v -24.999992 -0.000006 137.500000
v -24.999998 -12.500006 137.500061
v -62.499973 -0.000006 137.500000
v -62.499977 -12.500006 137.500000
v -24.999992 -0.000006 137.500000
v 18.750010 -12.500006 137.500000
v 56.249989 -12.500006 137.500000
v 56.249989 -0.000006 137.500000
v 18.750008 -0.000006 137.500061
v 18.750013 -12.500007 150.000000
v 18.750010 -12.500006 137.500000
v 18.750008 -0.000006 137.500061
v 18.750010 -0.000007 150.000061
v -62.499977 -12.500002 50.000000
v -12.499993 0.000000 0.000000
v -12.499996 -12.500000 -0.000001
v -62.499973 -0.000002 50.000000
v -62.499977 -12.500006 137.500000
v -62.499973 -0.000006 137.500000
v 56.249989 -12.500006 137.500000
v 56.249989 -12.500002 50.000000
v 56.249989 -0.000006 137.500000
v 56.249989 -0.000002 50.000000
v 6.250010 -12.500000 -0.000001
v 6.250009 0.000000 0.000000
v -24.999998 -12.500006 137.500061
v 18.750013 -12.500007 150.000000
v -24.999998 -12.500007 150.000000
v 18.750010 -12.500006 137.500000
v -25.000000 -12.500002 50.000000
v -62.499977 -12.500006 137.500000
v -62.499977 -12.500002 50.000000
v -12.499996 -12.500000 -0.000001
v 18.750010 -12.500002 50.000000
v 56.249989 -12.500006 137.500000
v 6.250010 -12.500000 -0.000001
v 56.249989 -12.500002 50.000000
vn -0.0000 -0.0000 -1.0000
vn -0.0000 -0.0000 1.0000
vn -1.0000 -0.0000 -0.0000
vn 1.0000 -0.0000 -0.0000
vn -0.9239 -0.0000 -0.3827
vn -0.7071 -0.0000 -0.7071
vn 0.9239 -0.0000 -0.3827
vn 0.7071 -0.0000 -0.7071
vn -0.0000 -1.0000 -0.0000
vt 0.718750 0.125000
vt 0.781250 0.125000
vt 0.781250 0.437500
vt 0.718750 0.437500
vt 0.250000 0.999969
vt 0.250000 0.937500
vt 0.312500 0.937500
vt 0.312500 0.999969
vt 0.000031 0.999969
vt 0.000031 0.937500
vt 0.531250 0.999969
vt 0.531250 0.937500
vt 0.593750 0.937500
vt 0.593750 0.999969
vt 0.531250 0.875000
vt 0.312500 0.875000
vt 0.781250 0.875000
vt 0.718750 0.875000
vt 0.468750 0.125000
vt 0.468750 0.187500
vt 0.375000 0.187500
vt 0.375000 0.125000
vt 0.062500 0.437500
vt 0.062500 0.125000
vt 0.125000 0.125000
vt 0.125000 0.437500
vt 0.531250 0.437500
vt 0.312500 0.437500
vt 0.125000 0.875000
vt 0.843750 0.937500
vt 0.843750 0.999969
vt 0.062500 0.875000
s 1
usemtl MI_Shield
f 35/1/8 36/2/8 34/3/7 32/4/7
f 12/5/3 9/6/3 10/7/3 11/8/3
f 16/5/2 14/9/2 15/10/2 13/6/2
f 24/11/4 21/12/4 22/13/4 23/14/4
f 8/12/2 6/11/2 7/8/2 5/7/2
f 40/15/9 38/12/9 39/7/9 37/16/9
f 32/4/7 34/3/7 33/17/4 31/18/4
f 4/19/1 1/20/1 2/21/1 3/22/1
f 28/23/5 26/24/6 27/25/6 25/26/5
f 45/27/9 40/15/9 37/16/9 41/28/9
f 43/26/9 41/28/9 37/16/9 42/29/9
f 20/14/2 17/13/2 18/30/2 19/31/2
f 43/26/9 44/21/9 41/28/9
f 41/28/9 44/21/9 45/27/9
f 30/32/3 28/23/5 25/26/5 29/29/3
f 47/20/9 45/27/9 44/21/9
f 48/4/9 45/27/9 47/20/9
f 48/4/9 46/18/9 40/15/9 45/27/9
