# Blender 5.0.1
# www.blender.org
mtllib BP_SwingingLamp.mtl
o SM_LampSwing.001
v 150.000061 -24.999769 474.999939
v 150.000061 -24.999767 424.999939
v 150.000061 25.000238 474.999939
v 150.000061 25.000240 424.999939
v 125.000000 -0.000003 500.000000
v 125.000000 -0.000007 450.000000
v 175.000000 -0.000007 500.000000
v 175.000000 -0.000011 450.000000
v 125.000061 -0.000007 450.000000
v 125.000061 -0.000011 400.000000
v 175.000061 -0.000011 450.000000
v 175.000061 -0.000015 400.000000
vn 1.0000 -0.0000 -0.0000
vn -0.0000 -1.0000 -0.0000
vt 0.875000 0.859375
vt 0.875000 0.999969
vt 0.750000 0.999969
vt 0.750000 0.859375
s 1
usemtl MI_SoulsandLampStand_Twoside
f 4/1/1 3/2/1 1/3/1 2/4/1
f 8/1/2 7/2/2 5/3/2 6/4/2
f 12/1/2 11/2/2 9/3/2 10/4/2
