# Blender 5.0.1
# www.blender.org
mtllib BP_SiphonStalk.mtl
o SM_SiphonStalk.001
v 0.000010 -37.500011 50.000008
v 12.500000 -37.500000 0.000006
v -0.000010 -12.500010 50.000004
v 12.499989 -12.500011 0.000002
v 12.500000 12.500012 75.000000
v -12.500000 37.500000 -0.000006
v -12.500000 12.500000 -0.000002
v 12.500000 37.500011 74.999992
v -37.500000 12.500000 -0.000002
v -37.500000 0.000005 31.250000
v -12.500000 12.500000 -0.000002
v -12.500000 0.000005 31.250000
v -37.500000 37.500000 -0.000006
v -62.500000 12.500018 112.500000
v -37.500000 12.500000 -0.000002
v -62.500000 37.500019 112.499992
v -37.500000 50.000008 49.999992
v -37.500000 37.500000 -0.000006
v -12.500000 50.000008 49.999992
v -12.500000 37.500000 -0.000006
v -37.499981 -62.499996 75.000008
v -12.499994 -37.499992 0.000006
v -37.500000 -37.500000 0.000006
v -12.499982 -62.499981 75.000008
v -37.500008 -12.500008 0.000002
v -50.000008 -12.500007 31.250002
v -37.500000 -37.500000 0.000006
v -49.999992 -37.500008 31.250006
v -12.500006 -12.499992 0.000002
v -37.500019 12.500010 112.500000
v -37.500008 -12.500008 0.000002
v -12.500018 12.500026 112.500000
v -0.000010 -12.500010 50.000004
v -12.500006 -12.499992 0.000002
v 0.000010 -37.500011 50.000008
v -12.499994 -37.499992 0.000006
v -12.500011 37.499973 74.999992
v 12.500011 12.499988 -0.000002
v 12.499989 37.499989 -0.000006
v -12.499989 12.499976 75.000000
v 37.499989 37.500011 -0.000006
v 37.499977 50.000015 31.249992
v 12.499989 37.499989 -0.000006
v 12.499977 49.999992 31.249992
v 37.500011 12.500012 -0.000002
v 62.499985 37.500057 112.499992
v 37.499989 37.500011 -0.000006
v 62.500015 12.500054 112.500000
v 37.500023 0.000020 50.000000
v 37.500011 12.500012 -0.000002
v 12.500023 -0.000003 50.000000
v 12.500011 12.499988 -0.000002
v 37.499969 12.500024 75.000000
v 12.499989 -12.500011 0.000002
v 37.500000 -12.500000 0.000002
v 12.500000 12.500012 75.000000
v 37.500000 -37.500000 0.000006
v 50.000008 -37.499977 31.250006
v 37.500000 -12.500000 0.000002
v 49.999992 -12.499976 31.250002
v 12.500000 -37.500000 0.000006
v 37.500031 -62.499966 112.500008
v 37.500000 -37.500000 0.000006
v 12.500031 -62.499996 112.500008
v -6.245317 6.253152 112.600014
v -6.245317 43.753155 112.600006
v -43.745316 6.253152 112.600014
v -43.745316 43.753155 112.600006
v -6.245317 6.253152 112.600014
v -43.745316 6.253152 112.600014
v -43.745316 6.253148 100.100014
v -6.245317 6.253148 100.100014
v -43.745316 43.753147 100.100006
v -43.745316 6.253148 100.100014
v -43.745316 6.253152 112.600014
v -43.745316 43.753155 112.600006
v -6.245317 6.253148 100.100014
v -6.245317 43.753155 112.600006
v -6.245317 6.253152 112.600014
v -6.245317 43.753147 100.100006
v -6.245317 43.753147 100.100006
v -43.745316 43.753147 100.100006
v -43.745316 43.753155 112.600006
v -6.245317 43.753155 112.600006
v -43.745316 6.253148 100.100014
v -43.745316 43.753147 100.100006
v -6.245317 6.253148 100.100014
v -6.245317 43.753147 100.100006
v -12.499999 -37.499992 50.000008
v -12.499994 -37.499992 0.000006
v -12.500001 -12.499991 50.000004
v -12.500006 -12.499992 0.000002
v -37.500000 -37.500000 0.000006
v -37.500000 -37.499992 50.000008
v -37.500008 -12.500008 0.000002
v -37.500000 -12.499991 50.000004
v -12.500006 -12.499992 0.000002
v -12.499994 -37.499992 0.000006
v -37.500000 -37.500000 0.000006
v -37.500008 -12.500008 0.000002
v -37.500008 -12.500008 0.000002
v -37.500000 -12.499991 50.000004
v -12.500006 -12.499992 0.000002
v -12.500001 -12.499991 50.000004
v -12.499999 -37.499992 50.000008
v -37.500000 -37.500000 0.000006
v -12.499994 -37.499992 0.000006
v -37.500000 -37.499992 50.000008
v -37.500000 12.500009 49.999996
v -37.500000 12.500000 -0.000002
v -12.500000 12.500009 49.999996
v -12.500000 12.500000 -0.000002
v -37.500000 37.500000 -0.000006
v -37.500000 37.500008 49.999992
v -12.500000 37.500000 -0.000006
v -12.500000 37.500008 49.999992
v -12.500000 12.500000 -0.000002
v -37.500000 12.500000 -0.000002
v -37.500000 37.500000 -0.000006
v -12.500000 37.500000 -0.000006
v -12.500000 37.500000 -0.000006
v -12.500000 37.500008 49.999992
v -12.500000 12.500000 -0.000002
v -12.500000 12.500009 49.999996
v -37.500000 12.500009 49.999996
v -37.500000 37.500000 -0.000006
v -37.500000 12.500000 -0.000002
v -37.500000 37.500008 49.999992
v -12.500008 12.500025 100.000000
v -12.500010 37.500023 99.999992
v -37.500008 12.500023 100.000000
v -37.500008 37.500023 99.999992
v -37.500008 37.500023 99.999992
v -12.500010 37.500023 99.999992
v -12.500008 12.500025 100.000000
v -37.500008 12.500023 100.000000
v 12.500000 -37.499985 50.000004
v 12.500000 -37.500000 0.000006
v 37.500000 -37.499992 50.000008
v 37.500000 -37.500000 0.000006
v 12.499989 -12.500011 0.000002
v 12.500000 -12.499991 50.000004
v 37.500000 -12.500000 0.000002
v 37.500000 -12.499991 50.000004
v 37.500000 -37.500000 0.000006
v 12.500000 -37.500000 0.000006
v 12.499989 -12.500011 0.000002
v 37.500000 -12.500000 0.000002
v 37.500000 -12.500000 0.000002
v 37.500000 -12.499991 50.000004
v 37.500000 -37.500000 0.000006
v 37.500000 -37.499992 50.000008
v 12.500000 -37.499985 50.000004
v 12.499989 -12.500011 0.000002
v 12.500000 -37.500000 0.000006
v 12.500000 -12.499991 50.000004
v 37.499992 -37.499985 100.000000
v 37.499992 -12.499976 100.000000
v 12.499992 -37.499985 100.000000
v 12.499992 -12.499976 100.000000
v 12.499992 -12.499976 100.000000
v 37.499992 -12.499976 100.000000
v 37.499992 -37.499985 100.000000
v 12.499992 -37.499985 100.000000
v 37.499992 -12.499983 150.000000
v 12.499992 -12.499987 150.000000
v 37.499992 -37.499985 150.000000
v 12.499992 -37.499989 150.000000
v 12.499992 -37.499989 150.000000
v 12.499992 -12.499987 150.000000
v 37.499992 -12.499983 150.000000
v 37.499992 -37.499985 150.000000
v -6.253126 -6.245300 62.600018
v -43.753128 -6.245300 62.600010
v -6.253126 -43.745296 62.600025
v -43.753128 -43.745296 62.600018
v -6.253126 -6.245300 62.600018
v -6.253126 -43.745296 62.600025
v -6.253124 -43.745300 50.100025
v -6.253124 -6.245302 50.100018
v -43.753124 -43.745300 50.100018
v -6.253124 -43.745300 50.100025
v -6.253126 -43.745296 62.600025
v -43.753128 -43.745296 62.600018
v -6.253124 -6.245302 50.100018
v -43.753128 -6.245300 62.600010
v -6.253126 -6.245300 62.600018
v -43.753124 -6.245302 50.100010
v -43.753124 -6.245302 50.100010
v -43.753124 -43.745300 50.100018
v -43.753128 -43.745296 62.600018
v -43.753128 -6.245300 62.600010
v -6.253124 -43.745300 50.100025
v -43.753124 -43.745300 50.100018
v -6.253124 -6.245302 50.100018
v -43.753124 -6.245302 50.100010
v 6.245296 -6.253113 162.600021
v 6.245308 -43.753117 162.600006
v 43.745300 -6.253101 162.600021
v 43.745308 -43.753101 162.600006
v 6.245296 -6.253113 162.600021
v 43.745300 -6.253101 162.600021
v 43.745300 -6.253102 150.100021
v 6.245296 -6.253113 150.100021
v 43.745308 -43.753105 150.100006
v 43.745300 -6.253102 150.100021
v 43.745300 -6.253101 162.600021
v 43.745308 -43.753101 162.600006
v 6.245296 -6.253113 150.100021
v 6.245308 -43.753117 162.600006
v 6.245296 -6.253113 162.600021
v 6.245308 -43.753113 150.100006
v 6.245308 -43.753113 150.100006
v 43.745308 -43.753105 150.100006
v 43.745308 -43.753101 162.600006
v 6.245308 -43.753117 162.600006
v 43.745300 -6.253102 150.100021
v 43.745308 -43.753105 150.100006
v 6.245296 -6.253113 150.100021
v 6.245308 -43.753113 150.100006
vn 0.9701 -0.0000 0.2425
vn -0.9487 -0.0000 0.3162
vn -0.0000 0.9285 0.3714
vn 0.9762 -0.0000 0.2169
vn -0.0000 -0.9701 0.2425
vn -0.0000 0.9487 0.3162
vn 0.9285 -0.0000 0.3714
vn -0.0000 -0.9762 0.2169
vn -0.9701 -0.0000 0.2425
vn 0.9487 -0.0000 0.3162
vn -0.0000 -0.9285 0.3714
vn -0.9762 -0.0000 0.2169
vn -0.0000 0.9701 0.2425
vn -0.0000 -0.9487 0.3162
vn -0.9285 -0.0000 0.3714
vn -0.0000 0.9762 0.2169
vn -0.0000 -0.0000 1.0000
vn -0.0000 -1.0000 -0.0000
vn -1.0000 -0.0000 -0.0000
vn 1.0000 -0.0000 -0.0000
vn -0.0000 1.0000 -0.0000
vn -0.0000 -0.0000 -1.0000
vt 0.093750 0.281250
vt 0.093750 0.250000
vt 0.000031 0.250000
vt 0.000031 0.281250
vt 0.125000 0.375000
vt 0.093750 0.375000
vt 0.125000 0.281250
vt 0.000031 0.375000
vt 0.125000 0.250000
vt 0.125000 0.125000
vt 0.062500 0.125000
vt 0.062500 0.250000
vt 0.062500 0.000000
vt 0.125000 0.000000
vt 0.187500 0.296875
vt 0.125000 0.296875
vt 0.187500 0.000000
vt 0.000031 0.125000
vt 0.000031 0.000000
vt 0.187500 0.125000
vt 0.187500 0.203125
vt 0.125000 0.203125
vt 0.187500 0.078125
vt 0.125000 0.078125
vt 0.125000 0.062500
vt 0.062500 0.062500
s 1
usemtl MI_NetherFoilage_NoDeform_Emissive
f 216/1/18 213/2/18 214/3/18 215/4/18
f 188/5/21 186/6/21 187/1/21 185/7/21
f 68/8/17 67/4/17 65/1/17 66/6/17
f 172/9/20 157/10/20 158/11/20 171/12/20
f 122/10/20 124/11/20 123/13/20 121/14/20
f 48/15/12 46/16/12 47/14/12 45/17/12
f 92/13/20 91/11/20 89/18/20 90/19/20
f 16/15/4 14/16/4 15/14/4 13/17/4
f 133/9/21 134/12/21 116/11/21 114/10/21
f 20/17/5 19/20/5 17/10/5 18/14/5
f 108/10/18 106/14/18 107/13/18 105/11/18
f 122/11/20 130/12/20 129/3/20 124/18/20
f 24/21/6 22/17/6 23/14/6 21/22/6
f 36/17/9 35/20/9 33/10/9 34/14/9
f 60/23/15 59/17/15 57/14/15 58/24/15
f 204/2/21 201/1/21 202/4/21 203/3/21
f 12/23/3 11/17/3 9/14/3 10/24/3
f 80/5/20 78/6/20 79/1/20 77/7/20
f 161/9/21 162/12/21 144/11/21 142/10/21
f 44/23/11 43/17/11 41/14/11 42/24/11
f 200/8/17 199/4/17 197/1/17 198/6/17
f 144/11/21 143/13/21 141/19/21 142/18/21
f 164/9/18 137/10/18 139/11/18 163/12/18
f 160/12/19 156/11/19 153/18/19 159/3/19
f 156/10/19 154/14/19 155/13/19 153/11/19
f 140/13/18 139/11/18 137/18/18 138/19/18
f 88/6/22 87/1/22 85/4/22 86/8/22
f 8/21/2 6/17/2 7/14/2 5/22/2
f 180/2/20 177/1/20 178/4/20 179/3/20
f 72/2/18 69/1/18 70/4/18 71/3/18
f 84/1/21 81/2/21 82/3/21 83/4/21
f 32/15/8 30/16/8 31/14/8 29/17/8
f 192/1/19 189/2/19 190/3/19 191/4/19
f 136/9/18 109/10/18 111/11/18 135/12/18
f 75/1/19 76/6/19 73/5/19 74/7/19
f 96/11/19 95/13/19 93/19/19 94/18/19
f 102/10/21 104/11/21 103/13/21 101/14/21
f 4/17/1 3/20/1 1/10/1 2/14/1
f 176/8/17 175/4/17 173/1/17 174/6/17
f 207/1/20 208/6/20 205/5/20 206/7/20
f 169/9/19 170/12/19 160/11/19 159/10/19
f 56/21/14 54/17/14 55/14/14 53/22/14
f 150/11/20 158/12/20 157/3/20 152/18/20
f 212/5/19 210/6/19 211/1/19 209/7/19
f 132/12/19 128/11/19 125/18/19 131/3/19
f 161/11/21 166/12/21 165/3/21 162/18/21
f 100/25/22 97/14/22 98/13/22 99/26/22
f 168/12/18 164/11/18 163/18/18 167/3/18
f 196/6/22 195/1/22 193/4/22 194/8/22
f 150/10/20 152/11/20 151/13/20 149/14/20
f 120/25/22 117/14/22 118/13/22 119/26/22
f 112/13/18 111/11/18 109/18/18 110/19/18
f 40/21/10 38/17/10 39/14/10 37/22/10
f 116/11/21 115/13/21 113/19/21 114/18/21
f 52/17/13 51/20/13 49/10/13 50/14/13
f 183/1/18 184/6/18 181/5/18 182/7/18
f 64/15/16 62/16/16 63/14/16 61/17/16
f 148/25/22 145/14/22 146/13/22 147/26/22
f 28/23/7 27/17/7 25/14/7 26/24/7
f 128/10/19 126/14/19 127/13/19 125/11/19
f 220/6/22 219/1/22 217/4/22 218/8/22
