# Blender 5.0.1
# www.blender.org
mtllib BP_Sarcophagus.mtl
o SM_Sarcophagus.001
v -37.499996 -25.000002 150.000000
v -37.499996 -25.000002 -0.280980
v 37.499996 -25.000002 150.000000
v 37.499996 -25.000002 -0.280980
v 37.499996 -25.000002 150.000000
v 37.499996 24.999998 150.000000
v -37.499996 -25.000002 150.000000
v -37.499996 24.999998 150.000000
v -37.499996 24.999998 -0.280980
v -37.499996 24.999998 150.000000
v 37.499996 24.999998 -0.280980
v 37.499996 24.999998 150.000000
v 37.499996 -25.000002 -0.280980
v -37.499996 -25.000002 -0.280980
v -37.499996 24.999998 -0.280980
v 37.499996 24.999998 -0.280980
v 37.499996 24.999998 -0.280980
v 37.499996 24.999998 150.000000
v 37.499996 -25.000002 -0.280980
v 37.499996 -25.000002 150.000000
v -37.499996 -25.000002 150.000000
v -37.499996 24.999998 -0.280980
v -37.499996 -25.000002 -0.280980
v -37.499996 24.999998 150.000000
vn -0.0000 -1.0000 -0.0000
vn -0.0000 -0.0000 1.0000
vn -0.0000 1.0000 -0.0000
vn -0.0000 -0.0000 -1.0000
vn 1.0000 -0.0000 -0.0000
vn -1.0000 -0.0000 -0.0000
vt 0.625000 0.999969
vt 0.375000 0.999969
vt 0.375000 0.250000
vt 0.625000 0.250000
vt 1.000000 0.250000
vt 1.000000 0.999969
vt 0.000031 0.999969
vt 0.000031 0.250000
vt 1.000000 0.000000
vt 0.625000 0.000000
vt 0.000031 0.000000
vt 0.375000 0.000000
s 1
usemtl MI_Sarcophagus
f 18/1/5 20/2/5 19/3/5 17/4/5
f 12/1/3 11/4/3 9/5/3 10/6/3
f 4/3/1 3/2/1 1/7/1 2/8/1
f 16/9/4 13/5/4 14/4/4 15/10/4
f 8/8/2 7/11/2 5/12/2 6/3/2
f 24/1/6 22/4/6 23/3/6 21/2/6
