# Blender 5.0.1
# www.blender.org
mtllib BP_Trap_Knife.mtl
o SM_Trap_Knife_Knife.001
v -3.125000 143.750000 50.000000
v -3.125000 0.000000 50.000000
v 3.125000 143.750000 50.000000
v 3.125000 0.000000 50.000000
v -3.125000 456.250000 50.000000
v -3.125000 443.750000 50.000000
v 3.125000 456.250000 50.000000
v 3.125000 443.750000 50.000000
v -3.125000 500.000000 50.000000
v -3.125000 462.500000 50.000000
v 3.125000 500.000000 50.000000
v 3.125000 462.500000 50.000000
v 3.125000 150.000000 37.500000
v -3.125000 150.000000 37.500000
v 3.125000 143.750000 37.500000
v -3.125000 143.750000 37.500000
v 3.125000 325.000000 50.000000
v -3.125000 325.000000 50.000000
v 3.125000 325.000000 43.750000
v -3.125000 325.000000 43.750000
v -3.125000 325.000000 43.750000
v 3.125000 318.750000 43.750000
v 3.125000 325.000000 43.750000
v -3.125000 318.750000 43.750000
v 3.125000 318.750000 50.000000
v -3.125000 318.750000 43.750000
v -3.125000 318.750000 50.000000
v 3.125000 318.750000 43.750000
v 3.125000 443.750000 50.000000
v -3.125000 443.750000 50.000000
v 3.125000 443.750000 43.750000
v -3.125000 443.750000 43.750000
v -3.125000 443.750000 43.750000
v 3.125000 437.500000 43.750000
v 3.125000 443.750000 43.750000
v -3.125000 437.500000 43.750000
v -3.125000 437.500000 43.750000
v 3.125000 437.500000 37.500000
v 3.125000 437.500000 43.750000
v -3.125000 437.500000 37.500000
v 3.125000 437.500000 37.500000
v -3.125000 437.500000 37.500000
v 3.125000 431.250000 37.500000
v -3.125000 431.250000 37.500000
v 3.125000 462.500000 50.000000
v -3.125000 462.500000 50.000000
v 3.125000 462.500000 43.750000
v -3.125000 462.500000 43.750000
v -3.125000 462.500000 43.750000
v 3.125000 456.250000 43.750000
v 3.125000 462.500000 43.750000
v -3.125000 456.250000 43.750000
v 3.125000 456.250000 50.000000
v -3.125000 456.250000 43.750000
v -3.125000 456.250000 50.000000
v 3.125000 456.250000 43.750000
v 3.125000 150.000000 50.000000
v -3.125000 150.000000 50.000000
v 3.125000 150.000000 43.750000
v -3.125000 150.000000 43.750000
v 3.125000 150.000000 37.500000
v -3.125000 150.000000 37.500000
v 3.125000 0.000000 50.000000
v -3.125000 0.000000 50.000000
v -3.125000 0.000000 43.750000
v 3.125000 0.000000 43.750000
v -3.125000 0.000000 37.500000
v 3.125000 0.000000 37.500000
v -3.125000 0.000000 -50.000000
v 3.125000 0.000000 -50.000000
v -3.125000 0.000000 50.000000
v -3.125000 143.750000 50.000000
v -3.125000 143.750000 43.750000
v -3.125000 0.000000 43.750000
v -3.125000 143.750000 37.500000
v -3.125000 0.000000 37.500000
v -3.125000 0.000000 -50.000000
v -3.125000 143.750000 -50.000000
v -3.125000 150.000000 37.500000
v -3.125000 150.000000 -50.000000
v -3.125000 250.000000 -50.000000
v -3.125000 250.000000 37.500000
v -3.125000 150.000000 43.750000
v -3.125000 256.250000 37.500000
v -3.125000 256.250000 -50.000000
v -3.125000 318.750000 -50.000000
v -3.125000 250.000000 43.750000
v -3.125000 150.000000 50.000000
v -3.125000 250.000000 50.000000
v -3.125000 256.250000 50.000000
v -3.125000 256.250000 43.750000
v -3.125000 318.750000 43.750000
v -3.125000 318.750000 50.000000
v -3.125000 318.750000 37.500000
v -3.125000 325.000000 37.500000
v -3.125000 325.000000 -50.000000
v -3.125000 325.000000 43.750000
v -3.125000 375.000000 -50.000000
v -3.125000 375.000000 37.500000
v -3.125000 375.000000 43.750000
v -3.125000 325.000000 50.000000
v -3.125000 375.000000 50.000000
v -3.125000 381.250000 50.000000
v -3.125000 381.250000 37.500000
v -3.125000 381.250000 -50.000000
v -3.125000 381.250000 43.750000
v -3.125000 431.250000 -50.000000
v -3.125000 431.250000 43.750000
v -3.125000 431.250000 50.000000
v -3.125000 431.250000 37.500000
v -3.125000 437.500000 37.500000
v -3.125000 437.500000 -50.000000
v -3.125000 443.750000 37.500000
v -3.125000 437.500000 43.750000
v -3.125000 443.750000 -50.000000
v -3.125000 443.750000 43.750000
v -3.125000 456.250000 37.500000
v -3.125000 456.250000 -50.000000
v -3.125000 456.250000 43.750000
v -3.125000 443.750000 50.000000
v -3.125000 456.250000 50.000000
v -3.125000 462.500000 37.500000
v -3.125000 462.500000 -50.000000
v -3.125000 462.500000 43.750000
v -3.125000 500.000000 37.500000
v -3.125000 500.000000 -50.000000
v -3.125000 500.000000 43.750000
v -3.125000 462.500000 50.000000
v -3.125000 500.000000 50.000000
v -3.125000 143.750000 37.500000
v 3.125000 143.750000 43.750000
v 3.125000 143.750000 37.500000
v -3.125000 143.750000 43.750000
v 3.125000 143.750000 50.000000
v -3.125000 143.750000 50.000000
v -3.125000 431.250000 37.500000
v 3.125000 431.250000 43.750000
v 3.125000 431.250000 37.500000
v -3.125000 431.250000 43.750000
v 3.125000 431.250000 50.000000
v -3.125000 431.250000 50.000000
v 3.125000 500.000000 50.000000
v 3.125000 500.000000 43.750000
v -3.125000 500.000000 50.000000
v -3.125000 500.000000 43.750000
v 3.125000 500.000000 37.500000
v -3.125000 500.000000 37.500000
v 3.125000 500.000000 -50.000000
v -3.125000 500.000000 -50.000000
v 3.125000 462.500000 -50.000000
v -3.125000 500.000000 -50.000000
v 3.125000 500.000000 -50.000000
v -3.125000 462.500000 -50.000000
v 3.125000 456.250000 -50.000000
v -3.125000 456.250000 -50.000000
v 3.125000 443.750000 -50.000000
v -3.125000 443.750000 -50.000000
v 3.125000 437.500000 -50.000000
v -3.125000 437.500000 -50.000000
v 3.125000 431.250000 -50.000000
v -3.125000 431.250000 -50.000000
v -3.125000 381.250000 -50.000000
v 3.125000 381.250000 -50.000000
v 3.125000 375.000000 -50.000000
v -3.125000 375.000000 -50.000000
v 3.125000 325.000000 -50.000000
v -3.125000 325.000000 -50.000000
v 3.125000 318.750000 -50.000000
v -3.125000 318.750000 -50.000000
v -3.125000 256.250000 -50.000000
v 3.125000 256.250000 -50.000000
v 3.125000 250.000000 -50.000000
v -3.125000 250.000000 -50.000000
v 3.125000 150.000000 -50.000000
v -3.125000 150.000000 -50.000000
v 3.125000 143.750000 -50.000000
v -3.125000 143.750000 -50.000000
v 3.125000 0.000000 -50.000000
v -3.125000 0.000000 -50.000000
v -3.125000 318.750000 50.000000
v 3.125000 256.250000 50.000000
v 3.125000 318.750000 50.000000
v -3.125000 256.250000 50.000000
v -3.125000 250.000000 50.000000
v 3.125000 250.000000 50.000000
v 3.125000 150.000000 50.000000
v -3.125000 150.000000 50.000000
v -3.125000 431.250000 50.000000
v 3.125000 381.250000 50.000000
v 3.125000 431.250000 50.000000
v -3.125000 381.250000 50.000000
v -3.125000 375.000000 50.000000
v 3.125000 375.000000 50.000000
v 3.125000 325.000000 50.000000
v -3.125000 325.000000 50.000000
v 3.125000 143.750000 50.000000
v 3.125000 0.000000 50.000000
v 3.125000 143.750000 43.750000
v 3.125000 0.000000 43.750000
v 3.125000 0.000000 37.500000
v 3.125000 143.750000 37.500000
v 3.125000 0.000000 -50.000000
v 3.125000 143.750000 -50.000000
v 3.125000 150.000000 37.500000
v 3.125000 150.000000 -50.000000
v 3.125000 250.000000 37.500000
v 3.125000 250.000000 -50.000000
v 3.125000 256.250000 -50.000000
v 3.125000 250.000000 43.750000
v 3.125000 150.000000 43.750000
v 3.125000 256.250000 37.500000
v 3.125000 250.000000 50.000000
v 3.125000 150.000000 50.000000
v 3.125000 256.250000 43.750000
v 3.125000 256.250000 50.000000
v 3.125000 318.750000 50.000000
v 3.125000 318.750000 43.750000
v 3.125000 318.750000 37.500000
v 3.125000 318.750000 -50.000000
v 3.125000 325.000000 43.750000
v 3.125000 325.000000 37.500000
v 3.125000 325.000000 -50.000000
v 3.125000 375.000000 50.000000
v 3.125000 325.000000 50.000000
v 3.125000 375.000000 37.500000
v 3.125000 375.000000 -50.000000
v 3.125000 381.250000 -50.000000
v 3.125000 375.000000 43.750000
v 3.125000 381.250000 37.500000
v 3.125000 381.250000 43.750000
v 3.125000 381.250000 50.000000
v 3.125000 431.250000 50.000000
v 3.125000 431.250000 43.750000
v 3.125000 431.250000 37.500000
v 3.125000 431.250000 -50.000000
v 3.125000 437.500000 -50.000000
v 3.125000 437.500000 37.500000
v 3.125000 437.500000 43.750000
v 3.125000 443.750000 43.750000
v 3.125000 443.750000 37.500000
v 3.125000 443.750000 -50.000000
v 3.125000 456.250000 43.750000
v 3.125000 443.750000 50.000000
v 3.125000 456.250000 50.000000
v 3.125000 456.250000 37.500000
v 3.125000 456.250000 -50.000000
v 3.125000 462.500000 43.750000
v 3.125000 462.500000 37.500000
v 3.125000 462.500000 -50.000000
v 3.125000 500.000000 43.750000
v 3.125000 462.500000 50.000000
v 3.125000 500.000000 50.000000
v 3.125000 500.000000 37.500000
v 3.125000 500.000000 -50.000000
vn -0.0000 -0.0000 1.0000
vn -0.0000 -1.0000 -0.0000
vn -0.0000 1.0000 -0.0000
vn -1.0000 -0.0000 -0.0000
vn -0.0000 -0.0000 -1.0000
vn 1.0000 -0.0000 -0.0000
vt 0.007812 0.367676
vt 0.000031 0.367676
vt 0.000031 0.359375
vt 0.007812 0.359375
vt 0.125000 0.554932
vt 0.132812 0.554932
vt 0.132812 0.679932
vt 0.125000 0.679932
vt 0.125000 0.773560
vt 0.132812 0.773560
vt 0.132812 0.836060
vt 0.125000 0.836060
vt 0.124817 0.999959
vt 0.015778 0.999959
vt 0.015701 0.992188
vt 0.124878 0.992191
vt 0.015625 0.843750
vt 0.015625 0.836060
vt 0.125000 0.843750
vt 0.007812 0.687500
vt 0.000031 0.687500
vt 0.000031 0.679932
vt 0.007812 0.679932
vt 0.242188 0.367676
vt 0.250000 0.367676
vt 0.250000 0.546875
vt 0.242188 0.546875
vt 0.265625 0.679932
vt 0.265625 0.687500
vt 0.257812 0.687500
vt 0.257812 0.679932
vt 0.257812 0.367676
vt 0.257812 0.546875
vt 0.132812 0.765625
vt 0.242188 0.765625
vt 0.242188 0.773560
vt 0.265625 0.921875
vt 0.265625 0.937500
vt 0.257812 0.937500
vt 0.257812 0.921875
vt 0.015625 0.921875
vt 0.007812 0.921875
vt 0.007812 0.914124
vt 0.015625 0.914124
vt 0.132812 0.687500
vt 0.242188 0.687500
vt 0.125000 0.921875
vt 0.132812 0.921875
vt 0.132812 0.937500
vt 0.125000 0.937500
vt 0.125000 0.914124
vt 0.132812 0.914124
vt 0.250000 0.687500
vt 0.242188 0.679932
vt 0.250000 0.679932
vt 0.242188 0.906250
vt 0.242188 0.843750
vt 0.250000 0.843750
vt 0.250000 0.906250
vt 0.257812 0.836060
vt 0.257812 0.773560
vt 0.265625 0.773560
vt 0.265625 0.836060
vt 0.257812 0.843750
vt 0.250000 0.836060
vt 0.265625 0.945343
vt 0.265625 0.992191
vt 0.257812 0.992191
vt 0.257812 0.945343
vt 0.265625 0.367676
vt 0.265625 0.546875
vt 0.015625 0.773560
vt 0.007812 0.773560
vt 0.007812 0.765625
vt 0.015625 0.765625
vt 0.242188 0.914124
vt 0.242188 0.921875
vt 0.257812 0.554932
vt 0.250000 0.554932
vt 0.015625 0.937500
vt 0.250000 0.945343
vt 0.250000 0.992191
vt 0.242188 0.992191
vt 0.242188 0.945343
vt 0.148438 0.359375
vt 0.156250 0.359375
vt 0.156250 0.367676
vt 0.148438 0.367676
vt 0.023438 0.359375
vt 0.015625 0.359375
vt 0.015625 0.352051
vt 0.023438 0.352051
vt 0.257812 0.906250
vt 0.101562 0.352051
vt 0.109375 0.352051
vt 0.109375 0.359375
vt 0.101562 0.359375
vt 0.250000 0.765625
vt 0.085938 0.352051
vt 0.093750 0.352051
vt 0.093750 0.359375
vt 0.085938 0.359375
vt 0.132812 0.945343
vt 0.125000 0.945343
vt 0.242188 0.836060
vt 0.250000 0.773560
vt 0.125000 0.765625
vt 0.046875 0.359375
vt 0.039062 0.359375
vt 0.039062 0.352051
vt 0.046875 0.352051
vt 0.007980 0.999951
vt 0.000245 1.000039
vt 0.000089 0.992237
vt 0.007904 0.992203
vt 0.007812 0.546875
vt 0.000031 0.546875
vt 0.265625 0.554932
vt 0.031250 0.359375
vt 0.031250 0.352051
vt 0.015625 0.554932
vt 0.015625 0.546875
vt 0.125000 0.546875
vt 0.164062 0.359375
vt 0.164062 0.367676
vt 0.242188 0.937500
vt 0.132812 0.546875
vt 0.132812 0.367676
vt 0.000031 0.765625
vt 0.132812 0.906250
vt 0.250000 0.937500
vt 0.015625 0.687500
vt 0.015625 0.679932
vt 0.007812 0.836060
vt 0.125000 0.352051
vt 0.132812 0.352051
vt 0.132812 0.359375
vt 0.125000 0.359375
vt 0.242188 0.554932
vt 0.015625 0.945343
vt 0.007812 0.945343
vt 0.007812 0.937500
vt 0.140625 0.352051
vt 0.140625 0.359375
vt 0.015625 0.367676
vt 0.132812 0.992191
vt 0.171875 0.359375
vt 0.171875 0.367676
vt 0.125000 0.687500
vt 0.125000 0.367676
vt 0.125000 0.906250
vt 0.257812 0.765625
vt 0.132812 0.843750
vt 0.007812 0.554932
vt 0.117188 0.352051
vt 0.117188 0.359375
vt 0.148438 0.352051
vt 0.265625 0.765625
vt 0.265625 0.843750
vt 0.265625 0.906250
vt 0.000031 0.945343
vt 0.007812 0.352051
vt 0.250000 0.921875
vt 0.000031 0.554932
vt 0.000031 0.352051
vt 0.250000 0.914124
vt 0.000031 0.836060
vt 0.000031 0.773560
vt 0.007812 0.843750
vt 0.015625 0.906250
vt 0.007812 0.906250
vt 0.000031 0.843750
vt 0.000031 0.937500
vt 0.000031 0.921875
vt 0.000031 0.906250
s 1
usemtl MI_Trap_Knife
f 66/1/2 63/2/2 64/3/2 65/4/2
f 174/5/5 175/6/5 173/7/5 172/8/5
f 166/9/5 167/10/5 165/11/5 164/12/5
f 149/13/3 147/14/3 146/15/3 148/16/3
f 229/17/6 225/18/6 226/12/6 227/19/6
f 214/20/6 215/21/6 212/22/6 209/23/6
f 76/24/4 74/25/4 73/26/4 75/27/4
f 185/28/1 181/29/1 183/30/1 184/31/1
f 74/25/4 71/32/4 72/33/4 73/26/4
f 96/10/4 86/34/4 94/35/4 95/36/4
f 8/37/1 7/38/1 5/39/1 6/40/1
f 240/41/6 239/42/6 238/43/6 237/44/6
f 94/35/4 86/34/4 85/45/4 84/46/4
f 156/47/5 157/48/5 155/49/5 154/50/5
f 158/51/5 159/52/5 157/48/5 156/47/5
f 91/53/4 84/46/4 82/54/4 87/55/4
f 110/56/4 104/57/4 106/58/4 108/59/4
f 192/60/1 195/61/1 194/62/1 193/63/1
f 103/64/4 106/58/4 100/65/4 102/60/4
f 12/66/1 11/67/1 9/68/1 10/69/1
f 4/70/1 3/71/1 1/33/1 2/32/1
f 221/72/6 220/73/6 217/74/6 218/75/6
f 115/48/4 112/52/4 111/76/4 113/77/4
f 88/78/4 89/31/4 87/55/4 83/79/4
f 246/50/6 245/80/6 240/41/6 241/47/6
f 124/81/4 127/82/4 125/83/4 122/84/4
f 18/85/2 20/86/2 19/87/2 17/88/2
f 42/89/1 44/90/1 43/91/1 41/92/1
f 109/93/4 108/59/4 106/58/4 103/64/4
f 14/94/1 16/95/1 15/96/1 13/97/1
f 92/98/4 94/35/4 84/46/4 91/53/4
f 58/99/2 60/100/2 59/101/2 57/102/2
f 154/50/5 155/49/5 153/103/5 150/104/5
f 128/69/4 129/68/4 127/82/4 124/81/4
f 100/65/4 99/105/4 95/36/4 97/106/4
f 90/30/4 91/53/4 87/55/4 89/31/4
f 168/107/5 169/34/5 167/10/5 166/9/5
f 30/108/2 32/109/2 31/110/2 29/111/2
f 145/112/3 144/113/3 142/114/3 143/115/3
f 197/2/6 199/1/6 198/116/6 196/117/6
f 184/31/1 187/78/1 186/118/1 185/28/1
f 36/119/1 34/120/1 35/110/1 33/109/1
f 40/89/2 38/92/2 39/120/2 37/119/2
f 205/5/6 204/121/6 201/122/6 203/123/6
f 24/124/1 22/125/1 23/87/1 21/86/1
f 118/49/4 115/48/4 113/77/4 117/126/4
f 78/127/4 77/128/4 76/24/4 75/27/4
f 217/74/6 216/129/6 215/21/6 214/20/6
f 112/52/4 107/130/4 110/56/4 111/76/4
f 119/131/4 124/81/4 122/84/4 117/126/4
f 211/132/6 214/20/6 209/23/6 206/133/6
f 221/72/6 225/18/6 228/134/6 220/73/6
f 46/135/2 48/136/2 47/137/2 45/138/2
f 83/79/4 87/55/4 82/54/4 79/139/4
f 248/140/6 247/141/6 242/142/6 245/80/6
f 241/47/6 240/41/6 237/44/6 236/51/6
f 52/143/1 50/144/1 51/137/1 49/136/1
f 207/8/6 206/133/6 204/121/6 205/5/6
f 68/145/2 66/1/2 65/4/2 67/90/2
f 150/104/5 153/103/5 151/146/5 152/16/5
f 28/125/3 26/124/3 27/147/3 25/148/3
f 173/7/5 170/45/5 171/149/5 172/8/5
f 147/14/3 145/112/3 143/115/3 146/15/3
f 203/123/6 201/122/6 200/145/6 202/150/6
f 60/100/2 62/94/2 61/97/2 59/101/2
f 92/98/4 97/106/4 95/36/4 94/35/4
f 171/149/5 170/45/5 169/34/5 168/107/5
f 160/151/5 161/130/5 159/52/5 158/51/5
f 92/98/4 91/53/4 90/30/4 93/152/4
f 165/11/5 162/153/5 163/19/5 164/12/5
f 209/23/6 210/154/6 204/121/6 206/133/6
f 133/155/3 131/156/3 132/96/3 130/95/3
f 56/144/3 54/143/3 55/157/3 53/85/3
f 102/60/4 100/65/4 97/106/4 101/61/4
f 163/19/5 162/153/5 161/130/5 160/151/5
f 176/123/5 177/127/5 175/6/5 174/5/5
f 95/36/4 99/105/4 98/11/4 96/10/4
f 183/30/1 181/29/1 182/158/1 180/152/1
f 178/150/5 179/128/5 177/127/5 176/123/5
f 249/104/6 248/140/6 245/80/6 246/50/6
f 70/150/2 68/145/2 67/90/2 69/138/2
f 110/56/4 107/130/4 105/153/4 104/57/4
f 191/64/1 189/159/1 190/160/1 188/93/1
f 104/57/4 105/153/4 98/11/4 99/105/4
f 106/58/4 104/57/4 99/105/4 100/65/4
f 201/122/6 198/116/6 199/1/6 200/145/6
f 250/115/6 252/114/6 251/161/6 247/141/6
f 193/63/1 189/159/1 191/64/1 192/60/1
f 139/4/3 137/162/3 138/91/3 136/90/3
f 120/40/4 121/39/4 119/131/4 116/163/4
f 79/139/4 82/54/4 81/7/4 80/6/4
f 210/154/6 209/23/6 212/22/6 213/164/6
f 141/3/3 140/165/3 137/162/3 139/4/3
f 211/132/6 206/133/6 207/8/6 208/149/6
f 80/6/4 78/127/4 75/27/4 79/139/4
f 116/163/4 119/131/4 117/126/4 113/77/4
f 218/75/6 217/74/6 214/20/6 211/132/6
f 222/9/6 221/72/6 218/75/6 219/107/6
f 114/166/4 116/163/4 113/77/4 111/76/4
f 226/12/6 225/18/6 221/72/6 222/9/6
f 220/73/6 228/134/6 223/167/6 224/168/6
f 219/107/6 218/75/6 211/132/6 208/149/6
f 253/15/6 250/115/6 247/141/6 248/140/6
f 126/146/4 123/103/4 122/84/4 125/83/4
f 229/17/6 230/169/6 228/134/6 225/18/6
f 234/170/6 233/171/6 230/169/6 229/17/6
f 123/103/4 118/49/4 117/126/4 122/84/4
f 237/44/6 234/170/6 235/151/6 236/51/6
f 235/151/6 234/170/6 229/17/6 227/19/6
f 230/169/6 231/172/6 223/167/6 228/134/6
f 135/135/3 134/138/3 131/156/3 133/155/3
f 245/80/6 242/142/6 239/42/6 240/41/6
f 242/142/6 244/173/6 243/174/6 239/42/6
f 233/171/6 232/175/6 231/172/6 230/169/6
f 84/46/4 85/45/4 81/7/4 82/54/4
f 254/16/6 253/15/6 248/140/6 249/104/6
