# Blender 5.0.1
# www.blender.org
mtllib BP_TempleBridge.mtl
o SM_OT_Bridge_Box069.001
v -373.892395 -0.000240 -25.000000
v -423.892395 -0.000272 -25.000000
v -423.892395 -0.000272 -100.000000
v -373.892395 -0.000240 -100.000000
v 1.107509 150.000000 -25.000000
v 1.107509 150.000000 -100.000000
v -23.892490 149.999985 -25.000000
v -23.892490 149.999985 -100.000000
v -123.892494 149.999924 -25.000000
v -123.892494 149.999924 -100.000000
v -223.892487 149.999863 -25.000000
v -223.892487 149.999863 -100.000000
v -323.892487 149.999786 -25.000000
v -323.892487 149.999786 -100.000000
v -423.892487 149.999725 -25.000000
v -423.892487 149.999725 -100.000000
v 1.107637 -50.000000 -25.000000
v 1.107701 -150.000000 -25.000000
v 1.107701 -150.000000 -100.000000
v 1.107637 -50.000000 -100.000000
v 1.107573 50.000000 -25.000000
v 1.107573 50.000000 -100.000000
v 1.107509 150.000000 -25.000000
v 1.107509 150.000000 -100.000000
v -373.892365 -50.000240 -25.000000
v -373.892395 -0.000240 -25.000000
v -373.892395 -0.000240 -100.000000
v -373.892365 -50.000240 -100.000000
v -373.892303 -150.000244 -25.000000
v -373.892303 -150.000244 -100.000000
v 1.107701 -150.000000 -25.000000
v -23.892300 -150.000015 -100.000000
v 1.107701 -150.000000 -100.000000
v -23.892300 -150.000015 -25.000000
v -123.892296 -150.000076 -100.000000
v -123.892296 -150.000076 -25.000000
v -223.892303 -150.000137 -100.000000
v -223.892303 -150.000137 -25.000000
v -323.892303 -150.000214 -100.000000
v -323.892303 -150.000214 -25.000000
v -373.892303 -150.000244 -25.000000
v -373.892303 -150.000244 -100.000000
v -423.892426 49.999729 -25.000000
v -423.892487 149.999725 -25.000000
v -423.892487 149.999725 -100.000000
v -423.892426 49.999729 -100.000000
v -423.892395 -0.000272 -100.000000
v -423.892395 -0.000272 -25.000000
v 1.107637 -50.000000 -25.000000
v -23.892300 -150.000015 -25.000000
v 1.107701 -150.000000 -25.000000
v -23.892363 -50.000015 -25.000000
v -123.892296 -150.000076 -25.000000
v 1.107573 50.000000 -25.000000
v -123.892365 -50.000080 -25.000000
v -223.892303 -150.000137 -25.000000
v -23.892427 49.999985 -25.000000
v 1.107509 150.000000 -25.000000
v -23.892490 149.999985 -25.000000
v -223.892365 -50.000145 -25.000000
v -123.892426 49.999920 -25.000000
v -123.892494 149.999924 -25.000000
v -323.892303 -150.000214 -25.000000
v -223.892426 49.999855 -25.000000
v -223.892487 149.999863 -25.000000
v -323.892365 -50.000206 -25.000000
v -373.892365 -50.000240 -25.000000
v -373.892303 -150.000244 -25.000000
v -373.892395 -0.000240 -25.000000
v -323.892426 49.999794 -25.000000
v -323.892487 149.999786 -25.000000
v -423.892426 49.999729 -25.000000
v -423.892395 -0.000272 -25.000000
v -423.892487 149.999725 -25.000000
v -423.892426 49.999729 -100.000000
v -423.892487 149.999725 -100.000000
v -323.892487 149.999786 -100.000000
v -373.892395 -0.000240 -100.000000
v -423.892395 -0.000272 -100.000000
v -323.892426 49.999794 -100.000000
v -223.892487 149.999863 -100.000000
v -323.892365 -50.000206 -100.000000
v -373.892365 -50.000240 -100.000000
v -373.892303 -150.000244 -100.000000
v -323.892303 -150.000214 -100.000000
v -223.892426 49.999855 -100.000000
v -123.892494 149.999924 -100.000000
v -223.892365 -50.000145 -100.000000
v -223.892303 -150.000137 -100.000000
v -123.892426 49.999920 -100.000000
v -23.892490 149.999985 -100.000000
v -123.892365 -50.000080 -100.000000
v -123.892296 -150.000076 -100.000000
v -23.892427 49.999985 -100.000000
v 1.107573 50.000000 -100.000000
v 1.107509 150.000000 -100.000000
v 1.107637 -50.000000 -100.000000
v -23.892363 -50.000015 -100.000000
v -23.892300 -150.000015 -100.000000
v 1.107701 -150.000000 -100.000000
vn -0.0000 -1.0000 -0.0000
vn -0.0000 1.0000 -0.0000
vn 1.0000 -0.0000 -0.0000
vn -1.0000 -0.0000 -0.0000
vn -0.0000 -0.0000 1.0000
vn -0.0000 -0.0000 -1.0000
vt 0.406494 0.289551
vt 0.406738 0.414062
vt 0.530273 0.414062
vt 0.530273 0.289551
vt 0.280762 0.039551
vt 0.406738 0.039551
vt 0.406738 0.164062
vt 0.280762 0.164062
vt 0.157837 0.289551
vt 0.280762 0.289551
vt 0.280762 0.414551
vt 0.157837 0.414551
vt 0.406494 0.164062
vt 0.530273 0.164062
vt 0.280762 0.039062
vt 0.406494 0.039062
vt 0.664551 0.008301
vt 0.756836 0.008301
vt 0.756836 0.132812
vt 0.664551 0.132812
vt 0.756836 0.195312
vt 0.664551 0.195312
vt 0.406738 0.290039
vt 0.530273 0.290039
vt 0.530273 0.414551
vt 0.406494 0.414551
vt 0.756836 0.257812
vt 0.756836 0.320801
vt 0.664551 0.320801
vt 0.664551 0.257812
vt 0.499268 0.632080
vt 0.499268 0.540039
vt 0.529785 0.540039
vt 0.529785 0.632324
vt 0.437500 0.632080
vt 0.312988 0.631836
vt 0.312988 0.539551
vt 0.437500 0.539795
vt 0.124939 0.632080
vt 0.125000 0.539795
vt 0.249634 0.539795
vt 0.249634 0.632080
vt 0.280762 0.007812
vt 0.157837 0.039551
vt 0.157837 0.007812
vt 0.000978 0.539307
vt 0.063293 0.539551
vt 0.063232 0.631836
vt 0.000901 0.631592
vt 0.374756 0.539795
vt 0.374756 0.632080
vt 0.157715 0.164062
vt 0.530273 0.039062
vt 0.850098 0.257812
vt 0.757812 0.257812
vt 0.757812 0.133301
vt 0.850098 0.133301
vt 0.530273 0.476562
vt 0.406494 0.476562
vt 0.757812 0.008789
vt 0.850098 0.008789
vt 0.000852 0.632080
vt 0.000879 0.539795
vt 0.187866 0.631836
vt 0.187988 0.539551
vt 0.406738 0.007812
vt 0.157715 0.007812
vt 0.157715 0.039062
vt 0.468262 0.632080
vt 0.468262 0.539795
vt 0.530273 0.039551
vt 0.406738 0.476562
vt 0.342285 0.476562
vt 0.756836 0.445312
vt 0.664551 0.445312
vt 0.280762 0.414062
vt 0.280762 0.538330
vt 0.342285 0.538330
vt 0.157837 0.414062
vt 0.280762 0.538574
vt 0.342285 0.538574
vt 0.157715 0.538330
vt 0.157837 0.538330
vt 0.850098 0.382812
vt 0.757812 0.382812
vt 0.406494 0.007812
vt 0.157837 0.164062
vt 0.530273 0.007812
s 1
usemtl MI_OT_Bridge
f 60/1/5 66/2/5 63/3/5 56/4/5
f 94/5/6 98/6/6 92/7/6 90/8/6
f 81/9/6 86/10/6 80/11/6 77/12/6
f 55/13/5 60/1/5 56/4/5 53/14/5
f 57/15/5 61/8/5 55/13/5 52/16/5
f 30/17/4 29/18/4 25/19/4 28/20/4
f 28/20/4 25/19/4 26/21/4 27/22/4
f 88/23/6 89/24/6 85/25/6 82/26/6
f 48/27/4 43/28/4 46/29/4 47/30/4
f 4/22/1 1/21/1 2/27/1 3/30/1
f 8/31/2 7/32/2 5/33/2 6/34/2
f 34/35/1 36/36/1 35/37/1 32/38/1
f 14/39/2 13/40/2 11/41/2 12/42/2
f 95/43/6 94/5/6 91/44/6 96/45/6
f 42/46/1 39/47/1 40/48/1 41/49/1
f 12/42/2 11/41/2 9/50/2 10/51/2
f 62/52/5 65/9/5 64/10/5 61/8/5
f 10/51/2 9/50/2 7/32/2 8/31/2
f 52/16/5 55/13/5 53/14/5 50/53/5
f 22/54/3 21/55/3 17/56/3 20/57/3
f 85/25/6 84/58/6 83/59/6 82/26/6
f 20/57/3 17/56/3 18/60/3 19/61/3
f 16/62/2 15/63/2 13/40/2 14/39/2
f 36/36/1 38/64/1 37/65/1 35/37/1
f 97/66/6 98/6/6 94/5/6 95/43/6
f 58/67/5 59/68/5 57/15/5 54/43/5
f 31/69/1 34/35/1 32/38/1 33/70/1
f 61/8/5 64/10/5 60/1/5 55/13/5
f 59/68/5 62/52/5 61/8/5 57/15/5
f 98/6/6 99/71/6 93/14/6 92/7/6
f 67/72/5 66/2/5 69/73/5
f 46/29/4 43/28/4 44/74/4 45/75/4
f 69/73/5 66/2/5 70/76/5
f 70/76/5 72/77/5 69/73/5
f 64/10/5 70/76/5 66/2/5 60/1/5
f 73/78/5 69/73/5 72/77/5
f 65/9/5 71/79/5 70/76/5 64/10/5
f 75/80/6 78/73/6 79/81/6
f 78/73/6 75/80/6 80/11/6
f 38/64/1 40/48/1 39/47/1 37/65/1
f 80/11/6 82/26/6 78/73/6
f 83/59/6 78/73/6 82/26/6
f 77/12/6 80/11/6 75/80/6 76/82/6
f 71/79/5 74/83/5 72/77/5 70/76/5
f 66/2/5 67/72/5 68/58/5 63/3/5
f 24/84/3 23/85/3 21/55/3 22/54/3
f 54/43/5 57/15/5 52/16/5 49/86/5
f 86/10/6 88/23/6 82/26/6 80/11/6
f 90/8/6 92/7/6 88/23/6 86/10/6
f 92/7/6 93/14/6 89/24/6 88/23/6
f 91/44/6 94/5/6 90/8/6 87/87/6
f 87/87/6 90/8/6 86/10/6 81/9/6
f 49/86/5 52/16/5 50/53/5 51/88/5
f 100/88/6 99/71/6 98/6/6 97/66/6
