# Blender 5.0.1
# www.blender.org
mtllib BP_Towerkeeper_Bunkbed.mtl
o SM_Bed_Correct_Blue.001
v 51.000301 149.999893 456.250000
v -48.999702 150.000092 418.750000
v -48.999699 150.000092 456.250000
v 51.000298 149.999893 418.750000
v 51.000107 49.999897 456.250000
v 51.000298 149.999893 418.750000
v 51.000301 149.999893 456.250000
v 51.000103 49.999897 418.750000
v -48.999893 50.000095 456.250000
v 51.000103 49.999897 418.750000
v 51.000107 49.999897 456.250000
v -48.999897 50.000095 418.750000
v -48.999699 150.000092 456.250000
v -48.999897 50.000095 418.750000
v -48.999893 50.000095 456.250000
v -48.999702 150.000092 418.750000
v -48.999897 50.000095 418.750000
v -48.999702 150.000092 418.750000
v 51.000298 149.999893 418.750000
v 51.000103 49.999897 418.750000
v 51.000301 149.999893 456.250000
v -48.999699 150.000092 456.250000
v 51.000107 49.999897 456.250000
v -48.999893 50.000095 456.250000
v -30.249737 131.250061 418.750000
v -30.249704 150.000061 400.000000
v -30.249701 150.000061 418.750000
v -30.249741 131.250061 400.000000
v -48.999737 131.250092 418.750000
v -30.249741 131.250061 400.000000
v -30.249737 131.250061 418.750000
v -48.999741 131.250092 400.000000
v -48.999702 150.000092 418.750000
v -48.999741 131.250092 400.000000
v -48.999737 131.250092 418.750000
v -48.999706 150.000092 400.000000
v -30.249701 150.000061 418.750000
v -48.999706 150.000092 400.000000
v -48.999702 150.000092 418.750000
v -30.249704 150.000061 400.000000
v -48.999706 150.000092 400.000000
v -30.249741 131.250061 400.000000
v -48.999741 131.250092 400.000000
v -30.249704 150.000061 400.000000
v -30.249701 150.000061 418.750000
v -48.999737 131.250092 418.750000
v -30.249737 131.250061 418.750000
v -48.999702 150.000092 418.750000
v 32.250263 131.249939 418.750000
v 51.000259 131.249893 400.000000
v 51.000263 131.249893 418.750000
v 32.250259 131.249939 400.000000
v 32.250298 149.999939 418.750000
v 32.250259 131.249939 400.000000
v 32.250263 131.249939 418.750000
v 32.250294 149.999939 400.000000
v 51.000298 149.999893 418.750000
v 32.250294 149.999939 400.000000
v 32.250298 149.999939 418.750000
v 51.000294 149.999893 400.000000
v 51.000263 131.249893 418.750000
v 51.000294 149.999893 400.000000
v 51.000298 149.999893 418.750000
v 51.000259 131.249893 400.000000
v 32.250294 149.999939 400.000000
v 51.000294 149.999893 400.000000
v 32.250259 131.249939 400.000000
v 51.000259 131.249893 400.000000
v 51.000263 131.249893 418.750000
v 51.000298 149.999893 418.750000
v 32.250298 149.999939 418.750000
v 32.250263 131.249939 418.750000
v 32.249947 -31.250065 418.750000
v 32.249905 -50.000065 400.000000
v 32.249908 -50.000065 418.750000
v 32.249943 -31.250065 400.000000
v 50.999943 -31.250103 418.750000
v 32.249943 -31.250065 400.000000
v 32.249947 -31.250065 418.750000
v 50.999939 -31.250103 400.000000
v 50.999908 -50.000103 418.750000
v 50.999939 -31.250103 400.000000
v 50.999943 -31.250103 418.750000
v 50.999905 -50.000103 400.000000
v 32.249908 -50.000065 418.750000
v 50.999905 -50.000103 400.000000
v 50.999908 -50.000103 418.750000
v 32.249905 -50.000065 400.000000
v 32.249905 -50.000065 400.000000
v 32.249943 -31.250065 400.000000
v 50.999905 -50.000103 400.000000
v 50.999939 -31.250103 400.000000
v 50.999908 -50.000103 418.750000
v 50.999943 -31.250103 418.750000
v 32.249908 -50.000065 418.750000
v 32.249947 -31.250065 418.750000
v -30.250053 -31.249943 418.750000
v -49.000061 -31.249905 400.000000
v -49.000057 -31.249905 418.750000
v -30.250057 -31.249943 400.000000
v -30.250090 -49.999943 418.750000
v -30.250057 -31.249943 400.000000
v -30.250053 -31.249943 418.750000
v -30.250093 -49.999943 400.000000
v -49.000092 -49.999905 418.750000
v -30.250093 -49.999943 400.000000
v -30.250090 -49.999943 418.750000
v -49.000095 -49.999905 400.000000
v -49.000057 -31.249905 418.750000
v -49.000095 -49.999905 400.000000
v -49.000092 -49.999905 418.750000
v -49.000061 -31.249905 400.000000
v -49.000095 -49.999905 400.000000
v -49.000061 -31.249905 400.000000
v -30.250057 -31.249943 400.000000
v -30.250093 -49.999943 400.000000
v -30.250053 -31.249943 418.750000
v -49.000057 -31.249905 418.750000
v -30.250090 -49.999943 418.750000
v -49.000092 -49.999905 418.750000
v 51.000107 49.999897 456.250000
v -48.999897 50.000095 418.750000
v -48.999893 50.000095 456.250000
v 51.000103 49.999897 418.750000
v 50.999912 -50.000103 456.250000
v 50.999908 -50.000103 418.750000
v -49.000088 -49.999905 456.250000
v 50.999908 -50.000103 418.750000
v 50.999912 -50.000103 456.250000
v -49.000092 -49.999905 418.750000
v -49.000092 -49.999905 418.750000
v -49.000088 -49.999905 456.250000
v -49.000092 -49.999905 418.750000
v 50.999908 -50.000103 418.750000
v 50.999912 -50.000103 456.250000
v -49.000088 -49.999905 456.250000
vn -0.0000 1.0000 -0.0000
vn 1.0000 -0.0000 -0.0000
vn -0.0000 -1.0000 -0.0000
vn -1.0000 -0.0000 -0.0000
vn -0.0000 -0.0000 -1.0000
vn -0.0000 -0.0000 1.0000
vt 0.828125 0.625000
vt 0.875000 0.625000
vt 0.875000 0.671875
vt 0.828125 0.671875
vt 0.593750 0.656250
vt 0.343750 0.656250
vt 0.343750 0.562500
vt 0.593750 0.562500
vt 0.437500 0.312500
vt 0.437500 0.562500
vt 0.343750 0.312500
vt 0.921875 0.671875
vt 0.921875 0.718750
vt 0.875000 0.718750
vt 0.921875 0.625000
vt 0.968750 0.625000
vt 0.968750 0.671875
vt 0.687500 0.312500
vt 0.687500 0.562500
vt 0.437500 0.656250
vt 0.687500 0.656250
vt 0.687500 0.906250
vt 0.437500 0.906250
vt 0.343750 0.999969
vt 0.093750 0.999969
vt 0.093750 0.906250
vt 0.343750 0.906250
vt 0.781250 0.625000
vt 0.781250 0.671875
vt 0.000031 0.906250
vt 0.000031 0.656250
vt 0.093750 0.656250
vt 0.000031 0.562500
vt 0.000031 0.312500
vt 0.093750 0.312500
vt 0.093750 0.562500
s 1
usemtl MI_Bed_CorrectBlue
f 84/1/2 82/2/2 83/3/2 81/4/2
f 12/5/3 10/6/3 11/7/3 9/8/3
f 130/5/3 128/6/3 129/7/3 127/8/3
f 36/1/4 34/2/4 35/3/4 33/4/4
f 126/9/2 8/10/2 5/7/2 125/11/2
f 116/3/5 113/12/5 114/13/5 115/14/5
f 72/3/6 69/12/6 70/13/6 71/14/6
f 52/15/3 50/16/3 51/17/3 49/12/3
f 134/9/5 133/18/5 17/19/5 20/10/5
f 60/1/1 58/2/1 59/3/1 57/4/1
f 20/20/5 17/21/5 18/22/5 19/23/5
f 90/14/5 92/3/5 91/12/5 89/13/5
f 80/2/1 78/15/1 79/12/1 77/3/1
f 76/15/4 74/16/4 75/17/4 73/12/4
f 56/2/4 54/15/4 55/12/4 53/3/4
f 124/24/1 122/25/1 123/26/1 121/27/1
f 120/13/6 119/14/6 117/3/6 118/12/6
f 28/15/2 26/16/2 27/17/2 25/12/2
f 40/28/1 38/1/1 39/4/1 37/29/1
f 16/30/4 14/31/4 15/32/4 13/26/4
f 108/1/3 106/2/3 107/3/3 105/4/3
f 24/32/6 23/6/6 21/27/6 22/26/6
f 48/13/6 46/14/6 47/3/6 45/12/6
f 32/2/3 30/15/3 31/12/3 29/3/3
f 14/33/4 131/34/4 132/35/4 15/36/4
f 100/15/1 98/16/1 99/17/1 97/12/1
f 94/14/6 96/3/6 95/12/6 93/13/6
f 88/28/3 86/1/3 87/4/3 85/29/3
f 112/28/4 110/1/4 111/4/4 109/29/4
f 8/20/2 6/23/2 7/27/2 5/6/2
f 68/13/5 67/14/5 65/3/5 66/12/5
f 64/28/2 62/1/2 63/4/2 61/29/2
f 44/13/5 42/14/5 43/3/5 41/12/5
f 104/2/2 102/15/2 103/12/2 101/3/2
f 4/24/1 2/25/1 3/26/1 1/27/1
f 136/7/6 135/36/6 23/35/6 24/11/6
