# Blender 5.0.1
# www.blender.org
mtllib BP_TowerArtisanMerchant.mtl
o SK_Artisan.001
v -69.358643 -14.257668 49.999996
v -94.358673 -14.257668 49.999996
v -94.358673 -14.257661 -0.000004
v -69.358643 -14.257668 -0.000004
v -69.358643 -14.257668 49.999996
v -69.358643 -14.257668 -0.000004
v -69.358643 23.242334 -0.000004
v -69.358643 23.242332 49.999996
v -94.358673 -14.257661 -0.000004
v -94.358673 23.242338 -0.000004
v -69.358643 23.242334 -0.000004
v -69.358643 -14.257668 -0.000004
v -94.358673 -14.257668 49.999996
v -94.358673 23.242332 49.999996
v -94.358673 23.242338 -0.000004
v -94.358673 -14.257661 -0.000004
v -69.358643 23.242332 49.999996
v -94.358673 23.242332 49.999996
v -94.358673 -14.257668 49.999996
v -69.358643 -14.257668 49.999996
v -94.358673 23.242332 49.999996
v -69.358643 23.242332 49.999996
v -69.358643 23.242334 -0.000004
v -94.358673 23.242338 -0.000004
v -19.358644 -14.257675 49.999996
v -44.358643 -14.257668 49.999996
v -44.358643 -14.257668 -0.000004
v -19.358644 -14.257675 -0.000004
v -19.358644 -14.257675 49.999996
v -19.358644 -14.257675 -0.000004
v -19.358637 23.242327 -0.000004
v -19.358637 23.242325 49.999996
v -44.358643 -14.257668 -0.000004
v -44.358635 23.242331 -0.000004
v -19.358637 23.242327 -0.000004
v -19.358644 -14.257675 -0.000004
v -44.358643 -14.257668 49.999996
v -44.358635 23.242325 49.999996
v -44.358635 23.242331 -0.000004
v -44.358643 -14.257668 -0.000004
v -19.358637 23.242325 49.999996
v -44.358635 23.242325 49.999996
v -44.358643 -14.257668 49.999996
v -19.358644 -14.257675 49.999996
v -44.358635 23.242325 49.999996
v -19.358637 23.242325 49.999996
v -19.358637 23.242327 -0.000004
v -44.358635 23.242331 -0.000004
v 111.891319 -45.507683 143.750000
v 111.891304 -45.507675 -0.000015
v 111.891327 54.492317 -0.000000
v 111.891342 54.492306 143.750000
v -113.108673 54.492344 143.750000
v 111.891342 54.492306 143.750000
v 111.891327 54.492317 -0.000000
v -113.108658 54.492348 -0.000015
v -113.108673 54.492344 143.750000
v -113.108658 54.492348 -0.000015
v -113.108681 -45.507637 -0.000015
v -113.108681 -45.507652 143.750000
v -113.108658 -39.257683 61.780441
v -113.108673 -39.257675 11.780442
v 111.891197 -39.257675 11.780442
v 111.891220 -39.257683 61.780441
v -44.358555 54.492344 143.750000
v -113.108681 54.492355 143.750000
v -113.108681 -45.507652 143.750000
v -44.358551 -45.507652 143.750000
v -56.858536 54.492290 118.417252
v 55.641464 54.492260 118.417206
v 55.641441 82.281418 42.067219
v -56.858543 82.281425 42.067230
v -56.858543 70.535278 37.791969
v -56.858536 42.746132 114.141983
v -56.858536 54.492290 118.417252
v -56.858543 82.281425 42.067230
v 55.641464 42.746101 114.141983
v 55.641441 70.535255 37.791965
v 55.641441 82.281418 42.067219
v 55.641464 54.492260 118.417206
v -56.858490 82.281418 42.067223
v 55.641510 82.281433 42.067162
v 55.641487 155.918930 7.729442
v -56.858505 155.918945 7.729465
v -56.858505 150.636185 -3.599369
v -56.858490 76.998688 30.738388
v -56.858490 82.281418 42.067223
v -56.858505 155.918945 7.729465
v 55.641510 76.998665 30.738350
v 55.641487 150.636215 -3.599396
v 55.641487 155.918930 7.729442
v 55.641510 82.281433 42.067162
v -131.858643 -20.507647 25.000021
v -150.608643 -20.507631 25.000021
v -150.608643 29.492369 25.000021
v -131.858643 29.492353 25.000021
v -131.858643 -20.507631 37.500011
v -131.858643 -20.507647 25.000021
v -131.858643 29.492353 25.000021
v -131.858643 29.492353 37.500011
v -113.108650 -20.507647 37.500019
v -131.858643 -20.507631 37.500011
v -131.858643 29.492353 37.500011
v -113.108650 29.492338 37.500019
v -150.608643 29.492369 25.000021
v -150.608643 -20.507631 25.000021
v -150.608643 -20.507629 112.500015
v -150.608643 29.492353 112.500015
v -113.108650 -20.507662 112.500015
v -113.108650 -20.507647 37.500019
v -113.108650 29.492338 37.500019
v -113.108650 29.492338 112.500015
v -150.608643 -20.507629 112.500015
v -113.108650 -20.507662 112.500015
v -113.108650 29.492338 112.500015
v -150.608643 29.492353 112.500015
v 131.858643 -20.507753 25.000072
v 131.858643 29.492247 25.000072
v 150.608643 29.492268 25.000072
v 150.608643 -20.507738 25.000072
v 131.858643 -20.507753 37.500072
v 131.858643 29.492247 37.500072
v 131.858643 29.492247 25.000072
v 131.858643 -20.507753 25.000072
v 113.108635 -20.507753 37.500065
v 113.108635 29.492247 37.500065
v 131.858643 29.492247 37.500072
v 131.858643 -20.507753 37.500072
v 150.608643 29.492268 25.000072
v 150.608643 29.492256 112.500061
v 150.608643 -20.507744 112.500061
v 150.608643 -20.507738 25.000072
v 113.108635 -20.507744 112.500076
v 113.108650 29.492241 112.500076
v 113.108635 29.492247 37.500065
v 113.108635 -20.507753 37.500065
v 150.608643 -20.507744 112.500061
v 150.608643 29.492256 112.500061
v 113.108650 29.492241 112.500076
v 113.108635 -20.507744 112.500076
v 43.141426 -14.257668 49.999996
v 18.141390 -14.257668 49.999996
v 18.141390 -14.257661 -0.000004
v 43.141426 -14.257668 -0.000004
v 43.141426 -14.257668 49.999996
v 43.141426 -14.257668 -0.000004
v 43.141418 23.242332 -0.000004
v 43.141418 23.242332 49.999996
v 18.141390 -14.257661 -0.000004
v 18.141388 23.242336 -0.000004
v 43.141418 23.242332 -0.000004
v 43.141426 -14.257668 -0.000004
v 18.141390 -14.257668 49.999996
v 18.141390 23.242332 49.999996
v 18.141388 23.242336 -0.000004
v 18.141390 -14.257661 -0.000004
v 43.141418 23.242332 49.999996
v 18.141390 23.242332 49.999996
v 18.141390 -14.257668 49.999996
v 43.141426 -14.257668 49.999996
v 18.141390 23.242332 49.999996
v 43.141418 23.242332 49.999996
v 43.141418 23.242332 -0.000004
v 18.141388 23.242336 -0.000004
v 93.141426 -14.257675 49.999996
v 68.141418 -14.257668 49.999989
v 68.141418 -14.257668 -0.000004
v 93.141426 -14.257675 -0.000004
v 93.141426 -14.257675 49.999996
v 93.141426 -14.257675 -0.000004
v 93.141418 23.242325 -0.000004
v 93.141418 23.242325 49.999996
v 68.141418 -14.257668 -0.000004
v 68.141418 23.242329 -0.000004
v 93.141418 23.242325 -0.000004
v 93.141426 -14.257675 -0.000004
v 68.141418 -14.257668 49.999989
v 68.141418 23.242325 49.999989
v 68.141418 23.242329 -0.000004
v 68.141418 -14.257668 -0.000004
v 93.141418 23.242325 49.999996
v 68.141418 23.242325 49.999989
v 68.141418 -14.257668 49.999989
v 93.141426 -14.257675 49.999996
v 68.141418 23.242325 49.999989
v 93.141418 23.242325 49.999996
v 93.141418 23.242325 -0.000004
v 68.141418 23.242329 -0.000004
v -44.358555 54.492348 31.249969
v -44.358551 -45.507652 31.249969
v -113.108681 -45.507652 31.249962
v -113.108681 54.492348 31.249962
v 43.141388 -46.543800 68.750000
v 36.891388 -46.543800 68.750000
v 36.891388 -46.543800 62.499996
v 43.141388 -46.543800 62.499996
v 86.891388 -46.543800 68.750000
v 80.641388 -46.543800 68.750000
v 80.641388 -46.543800 62.499996
v 86.891388 -46.543800 62.499996
v -81.858612 -46.543800 68.750000
v -88.108612 -46.543800 68.750000
v -88.108612 -46.543800 62.499996
v -81.858612 -46.543800 62.499996
v -38.108612 -46.543800 68.750000
v -44.358612 -46.543800 68.750000
v -44.358612 -46.543800 62.499996
v -38.108612 -46.543800 62.499996
v 55.641197 54.492409 143.750000
v -56.858875 54.492413 143.750061
v -56.858887 54.492928 287.500000
v 55.641151 54.492928 287.499878
v -56.858887 54.492928 287.500000
v -56.858749 -45.507393 287.500000
v 55.640987 -45.507389 287.499908
v 55.641151 54.492928 287.499878
v 43.140995 -39.257641 237.499908
v -44.358761 -39.257637 237.500000
v -44.358768 -39.257698 143.750031
v 43.140995 -39.257698 143.750000
v 43.140995 -45.507637 143.750000
v 43.140995 -45.507599 237.499878
v 43.140995 -39.257641 237.499908
v 43.140995 -39.257698 143.750000
v -44.358837 -45.507607 237.500000
v -44.358841 -45.507637 143.750031
v -44.358768 -39.257698 143.750031
v -44.358761 -39.257637 237.500000
v 43.140995 -45.507599 237.499878
v -44.358837 -45.507607 237.500000
v -44.358761 -39.257637 237.500000
v 43.140995 -39.257641 237.499908
v -44.358742 -45.507645 143.749969
v 43.141354 -45.507668 143.750031
v 43.141438 -45.507713 200.000015
v -44.358624 -45.507713 200.000015
v 11.891362 -51.757736 225.000076
v -13.108653 -51.757706 225.000076
v -13.108653 -51.757706 181.250076
v 11.891362 -51.757736 181.250076
v 11.891362 -51.757736 225.000076
v 11.891362 -51.757736 181.250076
v 11.891362 -39.257736 181.250076
v 11.891362 -39.257736 225.000076
v -13.108653 -51.757706 181.250076
v -13.108644 -39.257706 181.250076
v 11.891362 -39.257736 181.250076
v 11.891362 -51.757736 181.250076
v -13.108653 -51.757706 225.000076
v -13.108644 -39.257706 225.000076
v -13.108644 -39.257706 181.250076
v -13.108653 -51.757706 181.250076
v 11.891362 -39.257736 225.000076
v -13.108644 -39.257706 225.000076
v -13.108653 -51.757706 225.000076
v 11.891362 -51.757736 225.000076
v -13.108644 -39.257706 225.000076
v 11.891362 -39.257736 225.000076
v 11.891362 -39.257736 181.250076
v -13.108644 -39.257706 181.250076
v -44.358627 -51.757744 200.000015
v -44.358562 -45.507740 143.746918
v -44.358562 -51.757755 143.746918
v -44.358624 -45.507713 200.000015
v 43.141541 -51.757778 143.740448
v 43.141602 -51.757790 87.500000
v 43.141602 -45.507790 87.500000
v 43.141541 -45.507767 143.740463
v 55.641235 54.492371 243.305832
v 55.641232 54.492275 287.500061
v -56.858768 54.492306 287.500061
v -56.858765 54.492401 243.305832
v -56.858757 98.686508 243.305923
v -56.858768 54.492306 287.500061
v 55.641232 54.492275 287.500061
v 55.641232 98.686478 243.305923
v 55.641235 54.492371 243.305832
v 55.641232 76.589401 221.208817
v 55.641232 98.686478 243.305923
v 55.641232 54.492275 287.500061
v 55.641232 98.686478 243.305923
v 55.641232 76.589401 221.208817
v -56.858768 76.589432 221.208817
v -56.858757 98.686508 243.305923
v -56.858768 76.589432 221.208817
v -56.858765 54.492401 243.305832
v -56.858768 54.492306 287.500061
v -56.858757 98.686508 243.305923
v 55.641235 54.492371 243.305832
v -56.858765 54.492401 243.305832
v -56.858768 76.589432 221.208817
v 55.641232 76.589401 221.208817
v -44.358719 -51.757717 112.499985
v 43.141380 -51.757717 112.500015
v 43.141479 -51.757755 200.000046
v -44.358597 -51.757759 200.000046
v -59.400517 41.992340 290.167236
v -59.400394 -33.007660 290.167206
v 58.182854 -33.007660 290.167267
v 58.182980 41.992340 290.167267
v -59.400394 -33.007668 156.250000
v -59.400394 -33.007660 290.167206
v -59.400517 41.992340 290.167236
v -59.400517 41.992340 156.250000
v 58.182854 -33.007660 290.167267
v 58.182854 -33.007668 156.250076
v 58.182980 41.992340 156.250076
v 58.182980 41.992340 290.167267
v 30.641396 -39.788986 237.500000
v -31.858610 -39.788986 237.500000
v -31.858610 -39.788986 231.250000
v 30.641396 -39.788986 231.250000
v -19.358612 -39.788986 218.750000
v -25.608610 -39.788986 218.750000
v -25.608610 -39.788986 212.500000
v -19.358612 -39.788986 212.500000
v 24.391396 -39.788986 218.750000
v 18.141396 -39.788986 218.750000
v 18.141396 -39.788986 212.500000
v 24.391396 -39.788986 212.500000
v 55.641235 63.564419 95.166504
v -56.858887 63.564419 95.166504
v -56.858891 63.564419 238.916519
v 55.641232 63.564419 238.916519
v 43.141438 -51.757744 200.000015
v 43.141499 -51.757755 143.740463
v 43.141499 -45.507744 143.740479
v 43.141438 -45.507713 200.000015
v -44.358521 -51.757778 143.746902
v -44.358459 -45.507790 87.500000
v -44.358459 -51.757790 87.500000
v -44.358521 -45.507763 143.746902
v 111.891319 54.492306 31.249962
v 111.891319 -45.507683 31.249962
v 43.141342 -45.507668 31.249969
v 43.141342 54.492325 31.249969
v -44.358658 -45.507668 31.249969
v -44.358658 54.492325 31.249969
v 55.641151 54.492928 287.499878
v 55.640987 -45.507389 287.499908
v 55.641003 -45.507599 237.499908
v 55.641197 54.492409 143.750000
v 55.641018 -45.507641 143.750000
v 55.641018 -45.507641 143.750000
v 43.140995 -45.507637 143.750000
v 43.140995 -39.257698 143.750000
v 55.641197 54.492409 143.750000
v -44.358768 -39.257698 143.750031
v -56.858875 54.492413 143.750061
v -56.858765 -45.507637 143.750061
v -44.358841 -45.507637 143.750031
v 43.141342 -45.507668 143.750000
v 111.891319 -45.507683 143.750000
v 111.891319 54.492306 143.750000
v 43.141342 54.492325 143.750000
v -44.358658 -45.507668 143.750000
v -44.358658 54.492325 143.750000
v -56.858765 -45.507637 143.750061
v -56.858761 -45.507599 237.500000
v -56.858875 54.492413 143.750061
v -56.858887 54.492928 287.500000
v -56.858749 -45.507393 287.500000
v -44.358543 -45.507645 31.249996
v -44.358551 -45.507652 143.750000
v -113.108681 -45.507652 143.750000
v -113.108681 -45.507652 31.250000
v -113.108681 -45.507652 0.000008
v -44.358543 -45.507645 0.000008
v -44.358658 -45.507668 143.750000
v -44.358677 -45.507660 31.249996
v 43.141319 -45.507660 31.250000
v 43.141342 -45.507668 143.750000
v 111.891327 -45.507668 31.250000
v 111.891319 -45.507683 143.750000
v 43.141319 -45.507660 0.000008
v 111.891327 -45.507668 -0.000000
v -113.108650 -20.507647 37.500019
v -113.108650 -20.507662 112.500015
v -150.608643 -20.507629 112.500015
v -131.858643 -20.507631 37.500011
v -131.858643 -20.507647 25.000021
v -150.608643 -20.507631 25.000021
v -131.858643 29.492353 25.000021
v -150.608643 29.492369 25.000021
v -150.608643 29.492353 112.500015
v -131.858643 29.492353 37.500011
v -113.108650 29.492338 37.500019
v -113.108650 29.492338 112.500015
v 150.608643 -20.507744 112.500061
v 113.108635 -20.507744 112.500076
v 113.108635 -20.507753 37.500065
v 131.858643 -20.507753 37.500072
v 131.858643 -20.507753 25.000072
v 150.608643 -20.507738 25.000072
v 150.608643 29.492256 112.500061
v 150.608643 29.492268 25.000072
v 131.858643 29.492247 25.000072
v 131.858643 29.492247 37.500072
v 113.108635 29.492247 37.500065
v 113.108650 29.492241 112.500076
v -56.858765 -45.507637 143.750061
v -44.358841 -45.507637 143.750031
v -44.358837 -45.507607 237.500000
v -56.858761 -45.507599 237.500000
v -56.858749 -45.507393 287.500000
v 43.140995 -45.507599 237.499878
v 55.640987 -45.507389 287.499908
v 55.641003 -45.507599 237.499908
v 55.641018 -45.507641 143.750000
v 43.140995 -45.507637 143.750000
vn -0.0000 -1.0000 -0.0000
vn 1.0000 -0.0000 -0.0000
vn -0.0000 -0.0000 -1.0000
vn -1.0000 -0.0000 -0.0000
vn -0.0000 -0.0000 1.0000
vn -0.0000 1.0000 -0.0000
vn -0.0000 0.9397 0.3420
vn -0.7071 -0.2418 0.6645
vn 0.7071 -0.2418 0.6645
vn -0.0000 0.4226 0.9063
vn -0.0000 0.7071 0.7071
vn -0.0000 0.7071 -0.7071
vn -0.0000 -0.7071 -0.7071
vt 0.125000 0.312500
vt 0.125000 0.492188
vt 0.000105 0.492188
vt 0.000105 0.312500
vt 0.453125 0.750000
vt 0.484375 0.750000
vt 0.484375 0.804688
vt 0.453125 0.804688
vt 0.312500 0.117188
vt 0.343750 0.117188
vt 0.343750 0.179688
vt 0.312500 0.179688
vt 0.375000 0.179688
vt 0.375000 0.226562
vt 0.343750 0.226562
vt 0.062500 0.750000
vt 0.070312 0.750000
vt 0.070312 0.757812
vt 0.062500 0.757812
vt 0.421875 0.117188
vt 0.390625 0.117188
vt 0.390625 0.179688
vt 0.421875 0.179688
vt 0.320312 0.312500
vt 0.406250 0.312500
vt 0.406250 0.351562
vt 0.320312 0.351562
vt 0.265625 0.117188
vt 0.265625 0.179688
vt 0.546875 0.312500
vt 0.828125 0.312500
vt 0.828125 0.492188
vt 0.546875 0.492188
vt 0.406250 0.492188
vt 0.320312 0.492188
vt 0.210938 0.492188
vt 0.210938 0.351562
vt 0.632812 0.632812
vt 0.632812 0.671875
vt 0.492188 0.671875
vt 0.492188 0.632812
vt 0.843750 0.625000
vt 0.984375 0.625000
vt 0.984375 0.726562
vt 0.843750 0.726562
vt 0.492188 0.750000
vt 0.632812 0.750000
vt 0.406250 0.242188
vt 0.406250 0.304688
vt 0.125000 0.304688
vt 0.125000 0.242188
vt 0.843750 0.828125
vt 0.828125 0.828125
vt 0.828125 0.726562
vt 0.250000 0.937500
vt 0.250000 0.820312
vt 0.265625 0.820312
vt 0.265625 0.937500
vt 0.242188 0.671875
vt 0.257812 0.671875
vt 0.257812 0.734375
vt 0.242188 0.734375
vt 0.703125 0.640625
vt 0.695312 0.640625
vt 0.695312 0.570312
vt 0.703125 0.570312
vt 0.250000 0.937653
vt 0.257812 0.820312
vt 0.258057 0.937836
vt 0.140625 0.820312
vt 0.140625 0.750000
vt 0.250000 0.750000
vt 0.281250 0.671875
vt 0.281250 0.734375
vt 0.710938 0.640625
vt 0.710938 0.570312
vt 0.718750 0.570312
vt 0.718750 0.640625
vt 0.531250 0.999969
vt 0.390625 0.999969
vt 0.390625 0.820312
vt 0.531250 0.820312
vt 0.218750 0.640625
vt 0.218750 0.734375
vt 0.156250 0.734375
vt 0.156250 0.640625
vt 0.140503 0.937744
vt 0.132812 0.937500
vt 0.132812 0.820312
vt 0.984375 0.828125
vt 1.000000 0.726562
vt 1.000000 0.828125
vt 0.406250 0.750000
vt 0.437500 0.750000
vt 0.437500 0.804688
vt 0.406250 0.804688
vt 0.046875 0.796875
vt 0.046875 0.734375
vt 0.000105 0.734375
vt 0.000105 0.796875
vt 0.109375 0.734375
vt 0.109375 0.625000
vt 0.046875 0.625000
vt 0.984375 0.609375
vt 0.843750 0.609375
vt 0.843750 0.429688
vt 0.984375 0.429688
vt 0.312500 0.226562
vt 0.891113 0.304688
vt 0.730469 0.304688
vt 0.730469 0.210938
vt 0.891113 0.210938
vt 0.710938 0.500000
vt 0.718750 0.500000
vt 0.671875 0.671875
vt 0.812500 0.671875
vt 0.812500 0.750000
vt 0.671875 0.750000
vt 0.117188 0.765625
vt 0.125000 0.765625
vt 0.125000 0.773438
vt 0.117188 0.773438
vt 0.406250 0.617188
vt 0.492188 0.617188
vt 0.492188 0.492188
vt 0.125000 0.351562
vt 0.062500 0.765625
vt 0.070312 0.765625
vt 0.070312 0.773438
vt 0.062500 0.773438
vt 0.218750 0.671875
vt 0.589844 0.304688
vt 0.589844 0.210938
vt 0.250000 0.929810
vt 0.140625 0.929810
vt 0.468750 0.804688
vt 0.468750 0.820312
vt 0.437500 0.820312
vt 0.828125 0.625000
vt 0.117188 0.750000
vt 0.125000 0.750000
vt 0.125000 0.757812
vt 0.117188 0.757812
vt 0.406250 0.820312
vt 0.601562 0.617188
vt 0.601562 0.492188
vt 0.390625 0.750000
vt 0.390625 0.804688
vt 0.140625 0.937500
vt 0.125000 0.937500
vt 0.125000 0.820312
vt 0.453125 0.671875
vt 0.428955 0.304688
vt 0.428955 0.210938
vt 0.695312 0.500000
vt 0.703125 0.500000
vt 0.984375 0.843750
vt 0.843750 0.843750
vt 0.687500 0.617188
vt 0.687500 0.492188
vt 0.632812 0.789062
vt 0.492188 0.789062
vt 0.062500 0.781250
vt 0.070312 0.781250
vt 0.070312 0.789062
vt 0.062500 0.789062
vt 0.812500 0.875000
vt 0.812500 0.999969
vt 0.671875 0.999969
vt 0.671875 0.875000
vt 0.320312 0.617432
vt 0.117188 0.781250
vt 0.125000 0.781250
vt 0.125000 0.789062
vt 0.117188 0.789062
vt 0.265625 0.999969
vt 0.546875 0.882812
vt 0.531250 0.875000
vt 0.546875 0.875000
vt 0.656250 0.882812
vt 0.656250 0.875000
vt 0.054688 0.804688
vt 0.132812 0.804688
vt 0.132812 0.812500
vt 0.054688 0.812500
vt 0.000059 0.820312
vt 0.124756 0.937378
vt 0.000059 0.999969
vt 0.125000 0.999969
vt 0.531250 0.312500
vt 0.531250 0.492188
vt 0.210938 0.617188
vt 0.125000 0.617188
vt 0.132812 0.640625
vt 0.132812 0.625000
vt 0.023438 0.625000
vt 0.023438 0.640625
vt 0.000105 0.640625
vt 1.000000 0.625000
vt 0.281250 0.820312
vt 0.281250 0.710938
vt 0.390625 0.710938
vt 0.210938 0.312500
s 1
usemtl MI_Artisan
f 59/1/4 60/2/4 57/3/4 58/4/4
f 259/5/6 260/6/6 257/7/6 258/8/6
f 143/9/1 144/10/1 141/11/1 142/12/1
f 11/13/3 12/14/3 9/15/3 10/11/3
f 195/16/1 196/17/1 193/18/1 194/19/1
f 47/20/6 48/21/6 45/22/6 46/23/6
f 31/10/2 32/11/2 29/22/2 30/21/2
f 171/10/2 172/11/2 169/22/2 170/21/2
f 7/21/2 8/22/2 5/11/2 6/10/2
f 375/24/1 376/25/1 373/26/1 371/27/1
f 39/9/4 40/28/4 37/29/4 38/12/4
f 55/30/6 56/31/6 53/32/6 54/33/6
f 373/26/1 374/34/1 372/35/1 371/27/1
f 371/27/1 372/35/1 369/36/1 370/37/1
f 283/38/12 284/39/12 281/40/12 282/41/12
f 83/42/10 84/43/10 81/44/10 82/45/10
f 275/46/11 276/40/11 273/39/11 274/47/11
f 63/48/1 64/49/1 61/50/1 62/51/1
f 79/45/2 80/52/9 77/53/9 78/54/2
f 406/55/1 410/56/1 409/57/1 408/58/1
f 99/59/2 100/60/2 97/61/2 98/62/2
f 328/63/2 325/64/2 326/65/2 327/66/2
f 223/67/4 224/56/4 221/68/4 222/69/4
f 235/56/1 236/70/1 233/71/1 234/72/1
f 103/60/3 104/73/3 101/74/3 102/61/3
f 264/75/4 262/76/4 263/77/4 261/78/4
f 211/79/6 212/80/6 209/81/6 210/82/6
f 111/83/2 112/84/2 109/85/2 110/86/2
f 163/21/6 164/20/6 161/23/6 162/22/6
f 227/70/2 228/87/2 225/88/2 226/89/2
f 75/90/8 76/44/4 73/91/4 74/92/8
f 27/10/1 28/9/1 25/12/1 26/11/1
f 239/93/1 240/94/1 237/95/1 238/96/1
f 139/97/5 140/98/5 137/99/5 138/100/5
f 131/101/2 132/102/2 129/103/2 130/98/2
f 175/13/3 176/14/3 173/15/3 174/11/3
f 3/9/1 4/10/1 1/11/1 2/12/1
f 323/104/6 324/105/6 321/106/6 322/107/6
f 183/12/5 184/11/5 181/15/5 182/108/5
f 43/12/5 44/11/5 41/15/5 42/108/5
f 107/101/4 108/98/4 105/103/4 106/102/4
f 23/21/6 24/20/6 21/23/6 22/22/6
f 15/28/4 16/9/4 13/12/4 14/29/4
f 307/109/2 308/110/2 305/111/2 306/112/2
f 332/76/4 330/113/4 331/114/4 329/77/4
f 19/12/5 20/11/5 17/15/5 18/108/5
f 291/115/13 292/116/13 289/117/13 290/118/13
f 151/13/3 152/14/3 149/15/3 150/11/3
f 207/119/1 208/120/1 205/121/1 206/122/1
f 191/34/3 192/123/3 189/124/3 190/125/3
f 179/9/4 180/28/4 177/29/4 178/12/4
f 365/2/1 366/126/1 363/37/1 364/36/1
f 203/127/1 204/128/1 201/129/1 202/130/1
f 119/131/3 120/84/3 117/62/3 118/59/3
f 299/111/5 300/110/5 297/132/5 298/133/5
f 115/97/5 116/100/5 113/99/5 114/98/5
f 231/87/3 232/67/3 229/134/3 230/135/3
f 247/136/3 248/137/3 245/138/3 246/95/3
f 91/42/2 92/45/2 89/54/2 90/139/2
f 199/140/1 200/141/1 197/142/1 198/143/1
f 123/59/4 124/62/4 121/61/4 122/60/4
f 255/96/5 256/95/5 253/138/5 254/144/5
f 337/125/3 338/124/3 336/145/3 335/146/3
f 95/131/3 96/59/3 93/62/3 94/84/3
f 251/147/4 252/93/4 249/96/4 250/148/4
f 219/70/1 220/56/1 217/67/1 218/87/1
f 403/149/1 404/150/1 401/151/1 402/70/1
f 35/13/3 36/14/3 33/15/3 34/11/3
f 155/28/4 156/9/4 153/12/4 154/29/4
f 279/40/2 277/5/2 278/152/2
f 277/5/2 279/40/2 280/46/2
f 303/132/4 304/153/4 301/154/4 302/133/4
f 287/47/4 285/115/4 286/118/4
f 285/115/4 287/47/4 288/39/4
f 135/83/4 136/86/4 133/85/4 134/84/4
f 268/66/2 265/65/2 266/155/2 267/156/2
f 80/52/9 75/90/8 74/157/8 77/158/9
f 335/146/3 336/145/3 333/159/3 334/160/3
f 271/47/1 272/161/1 269/162/1 270/46/1
f 243/5/2 244/8/2 241/95/2 242/94/2
f 147/21/2 148/22/2 145/11/2 146/10/2
f 315/163/1 316/164/1 313/165/1 314/166/1
f 127/60/3 128/61/3 125/74/3 126/73/3
f 215/167/5 216/168/5 213/169/5 214/170/5
f 71/45/7 72/44/7 69/90/7 70/52/7
f 354/123/5 355/171/5 352/35/5 353/34/5
f 319/172/1 320/173/1 317/174/1 318/175/1
f 341/58/2 339/80/2 340/176/2
f 339/80/2 341/58/2 342/81/2
f 342/81/2 341/58/2 343/57/2
f 346/177/3 344/178/3 345/179/3
f 346/177/3 347/79/3 344/178/3
f 346/177/3 348/180/3 347/79/3
f 347/79/3 348/180/3 349/169/3
f 349/169/3 348/180/3 350/170/3
f 348/180/3 351/181/3 350/170/3
f 187/20/6 188/21/6 185/22/6 186/23/6
f 311/182/1 312/183/1 309/184/1 310/185/1
f 360/186/4 358/151/4 359/187/4
f 359/187/4 361/188/4 360/186/4
f 361/188/4 359/187/4 362/189/4
f 51/190/2 52/191/2 49/34/2 50/25/2
f 355/171/5 357/192/5 356/36/5 352/35/5
f 167/10/1 168/9/1 165/12/1 166/11/1
f 67/2/5 68/36/5 65/192/5 66/193/5
f 159/12/5 160/11/5 157/15/5 158/108/5
f 379/101/1 377/86/1 378/85/1
f 377/86/1 379/101/1 380/194/1
f 379/101/1 381/195/1 380/194/1
f 381/195/1 379/101/1 382/102/1
f 385/98/6 383/196/6 384/103/6
f 383/196/6 385/98/6 386/197/6
f 385/98/6 387/198/6 386/197/6
f 387/198/6 385/98/6 388/99/6
f 391/86/1 389/101/1 390/85/1
f 389/101/1 391/86/1 392/194/1
f 393/195/1 389/101/1 392/194/1
f 389/101/1 393/195/1 394/102/1
f 397/196/6 395/98/6 396/103/6
f 395/98/6 397/196/6 398/197/6
f 399/198/6 395/98/6 398/197/6
f 395/98/6 399/198/6 400/99/6
f 87/44/4 88/43/4 85/199/4 86/91/4
f 403/149/1 405/189/1 404/150/1
f 406/55/1 405/189/1 403/149/1
f 405/189/1 406/55/1 407/176/1
f 407/176/1 406/55/1 408/58/1
f 295/81/1 296/200/1 293/201/1 294/202/1
f 367/1/1 368/203/1 363/37/1 366/126/1
