# Blender 5.0.1
# www.blender.org
mtllib BP_TreeDead_Branches.mtl
o SM_TreeDead_branches.001
v 206.250000 -0.000013 300.000000
v -93.750000 -0.000013 300.000000
v -93.750000 0.000000 0.000000
v 206.250000 0.000000 0.000000
v 0.000000 -162.500015 300.000000
v 0.000000 -162.500000 -0.000007
v 0.000000 137.499985 300.000000
v 0.000000 137.500000 0.000006
vn -0.0000 -1.0000 -0.0000
vn 1.0000 -0.0000 -0.0000
vt 0.399902 0.562500
vt 0.399902 -0.037109
vt 1.000000 -0.037109
vt 1.000000 0.562500
vt 0.599609 0.400391
vt 0.000031 0.400391
vt 0.000031 0.999969
vt 0.599609 0.999969
s 1
usemtl MI_TreeDead
f 4/1/1 1/2/1 2/3/1 3/4/1
f 6/5/2 8/6/2 7/7/2 5/8/2
