# Blender 5.0.1
# www.blender.org
mtllib BP_Tower_Stronghold_FadeMesh.mtl
o SM_Tower_Stronghold_MeshFade.001
v -200.000000 -0.000008 300.000000
v -300.000000 -0.000008 300.000000
v -300.000000 100.000000 300.000000
v -200.000000 100.000000 300.000000
v -200.000000 -100.000015 600.000000
v -200.000000 -0.000008 600.000000
v -250.000000 -100.000015 600.000000
v -250.000000 -0.000008 600.000000
v -99.999985 -100.000015 600.000000
v -99.999985 -0.000008 600.000000
v 0.000000 -100.000015 600.000000
v 0.000000 -0.000008 600.000000
v 100.000000 -0.000008 300.000000
v 0.000000 -0.000008 300.000000
v 0.000000 100.000000 300.000000
v 100.000000 100.000000 300.000000
v -300.000000 -300.000000 300.000000
v -300.000000 -200.000000 300.000000
v -200.000000 -300.000000 300.000000
v -200.000000 -200.000000 300.000000
v 0.000000 -300.000000 300.000000
v 0.000000 -200.000000 300.000000
v 100.000000 -300.000000 300.000000
v 100.000000 -200.000000 300.000000
v 49.999969 -100.000015 600.000000
v 49.999969 -0.000008 600.000000
v 49.999969 -249.999969 600.000000
v 49.999969 -200.000000 600.000000
v 0.000000 -249.999969 600.000000
v 0.000000 -200.000000 600.000000
v -99.999985 -249.999969 600.000000
v -99.999985 -200.000000 600.000000
v -200.000000 -249.999969 600.000000
v -200.000000 -200.000000 600.000000
v -250.000000 -249.999969 600.000000
v -250.000000 -200.000000 600.000000
v 0.000000 49.999996 600.000000
v -99.999985 49.999996 600.000000
v 49.999969 49.999996 600.000000
v -300.000000 -0.000008 500.153992
v -300.000000 -100.000015 500.153992
v -300.000000 -100.000015 550.077026
v -300.000000 -0.000008 550.077026
v -300.000000 -200.000000 500.153992
v -300.000000 -200.000000 550.077026
v -300.000000 -300.000000 500.153992
v -300.000000 -300.000000 550.077026
v -300.000000 -300.000000 550.077026
v -200.000000 -300.000000 500.153992
v -200.000000 -300.000000 550.077026
v -300.000000 -300.000000 500.153992
v -99.999985 -300.000000 550.077026
v -99.999985 -300.000000 500.153992
v 0.000000 -300.000000 550.077026
v 0.000000 -300.000000 500.153992
v 100.000000 -300.000000 500.153992
v 100.000000 -300.000000 550.077026
v 100.000000 -300.000000 500.153992
v 100.000000 -200.000000 550.077026
v 100.000000 -300.000000 550.077026
v 100.000000 -200.000000 500.153992
v 100.000000 -100.000015 500.153992
v 100.000000 -100.000015 550.077026
v 100.000000 -0.000008 500.153992
v 100.000000 -0.000008 550.077026
v 100.000000 100.000000 500.153992
v 100.000000 100.000000 550.077026
v 100.000000 100.000000 500.153992
v 0.000000 100.000000 500.153992
v 0.000000 100.000000 550.077026
v 100.000000 100.000000 550.077026
v -99.999985 100.000000 550.077026
v -99.999985 100.000000 500.153992
v -200.000000 100.000000 550.077026
v -200.000000 100.000000 500.153992
v -300.000000 100.000000 500.153992
v -300.000000 100.000000 550.077026
v -300.000000 100.000000 500.153992
v -300.000000 100.000000 550.077026
v -250.000000 -0.000008 550.000000
v -250.000000 -100.000015 550.000000
v -250.000000 -100.000015 600.000000
v -250.000000 -0.000008 600.000000
v -250.000000 -249.999969 550.000000
v -250.000000 -249.999969 600.000000
v -250.000000 -200.000000 550.000000
v -250.000000 -200.000000 600.000000
v 49.999969 -100.000015 550.000000
v 49.999969 -0.000008 600.000000
v 49.999969 -100.000015 600.000000
v 49.999969 -0.000008 550.000000
v 49.999969 -200.000000 550.000000
v 49.999969 -200.000000 600.000000
v 49.999969 -249.999969 550.000000
v 49.999969 -249.999969 600.000000
v 0.000000 -249.999969 600.000000
v 0.000000 -249.999969 550.000000
v 49.999969 -249.999969 600.000000
v 49.999969 -249.999969 550.000000
v -99.999985 -249.999969 600.000000
v -99.999985 -249.999969 550.000000
v -200.000000 -249.999969 600.000000
v -200.000000 -249.999969 550.000000
v -250.000000 -249.999969 600.000000
v -250.000000 -249.999969 550.000000
v -250.000000 49.999996 550.000000
v -250.000000 49.999996 600.000000
v 49.999969 49.999996 600.000000
v 49.999969 49.999996 550.000000
v -200.000000 49.999996 550.000000
v -250.000000 49.999996 550.000000
v -250.000000 49.999996 600.000000
v -200.000000 49.999996 600.000000
v -99.999985 49.999996 550.000000
v -99.999985 49.999996 600.000000
v 0.000000 49.999996 550.000000
v 0.000000 49.999996 600.000000
v 49.999969 49.999996 550.000000
v 49.999969 49.999996 600.000000
v 100.000000 -100.000015 550.000000
v 49.999969 -0.000008 550.000000
v 49.999969 -100.000015 550.000000
v 100.000000 -0.000008 550.000000
v 100.000000 -200.000000 550.000000
v 49.999969 -200.000000 550.000000
v 100.000000 -249.999969 550.000000
v 49.999969 -249.999969 550.000000
v 49.999969 49.999996 550.000000
v 100.000000 49.999996 550.000000
v 0.000000 -299.999969 550.000000
v 49.999969 -299.999969 550.000000
v 0.000000 -249.999969 550.000000
v -99.999985 -299.999969 550.000000
v -99.999985 -249.999969 550.000000
v -200.000000 -299.999969 550.000000
v -200.000000 -249.999969 550.000000
v -250.000000 -299.999969 550.000000
v -250.000000 -249.999969 550.000000
v 100.000000 -299.999969 550.000000
v -300.000000 -0.000008 550.000000
v -300.000000 -100.000015 550.000000
v -250.000000 -100.000015 550.000000
v -250.000000 -0.000008 550.000000
v -300.000000 49.999996 550.000000
v -250.000000 49.999996 550.000000
v -200.000000 49.999996 550.000000
v -200.000000 100.000000 550.000000
v -250.000000 100.000000 550.000000
v -99.999985 100.000000 550.000000
v -99.999985 49.999996 550.000000
v 0.000000 100.000000 550.000000
v 0.000000 49.999996 550.000000
v 49.999969 100.000000 550.000000
v 100.000000 100.000000 550.000000
v -300.000000 100.000000 550.000000
v -200.000000 100.000000 412.500000
v -300.000000 100.000000 412.500000
v -300.000000 -0.000008 412.500000
v -300.000000 100.000000 412.500000
v -300.000000 -200.000000 412.500000
v -300.000000 -100.000015 412.500000
v 0.000000 100.000000 412.500000
v -99.999985 100.000000 412.500000
v 100.000000 100.000000 412.500000
v 100.000000 -0.000008 412.500000
v 100.000000 100.000000 412.500000
v 100.000000 -100.000015 412.500000
v 100.000000 -200.000000 412.500000
v -200.000000 -300.000000 412.500000
v -300.000000 -300.000000 412.500000
v -300.000000 -300.000000 412.500000
v -99.999985 -300.000000 412.500000
v 0.000000 -300.000000 412.500000
v 100.000000 -300.000000 412.500000
v 100.000000 -300.000000 412.500000
v -200.000000 100.000000 300.000000
v -300.000000 100.000000 300.000000
v -300.000000 100.000000 300.000000
v -300.000000 -0.000008 300.000000
v 100.000000 100.000000 300.000000
v 0.000000 100.000000 300.000000
v 100.000000 -0.000008 300.000000
v 100.000000 100.000000 300.000000
v -200.000000 -300.000000 300.000000
v -300.000000 -300.000000 300.000000
v -300.000000 -300.000000 300.000000
v -300.000000 -200.000000 300.000000
v 100.000000 -300.000000 300.000000
v 0.000000 -300.000000 300.000000
v 100.000000 -300.000000 300.000000
v 100.000000 -200.000000 300.000000
v -250.000000 0.000000 600.000000
v -200.000000 0.000000 600.000000
v -200.000000 49.999996 600.000000
v -250.000000 49.999996 600.000000
v -99.999985 0.000000 600.000000
v -99.999985 -100.000000 600.000000
v -200.000000 -100.000000 600.000000
v 0.000000 -100.000000 600.000000
v 49.999969 -100.000000 600.000000
v -250.000000 -100.000000 600.000000
v -250.000000 -100.000000 600.000000
v -250.000000 -100.000000 550.000000
v -250.000000 -200.000000 550.000000
v -250.000000 -100.000000 550.000000
v -300.000000 -200.000000 550.000000
v -300.000000 -100.000000 550.000000
v -200.000000 -0.000008 412.500000
v -200.000000 -0.000008 300.000000
v -200.000000 100.000000 412.500000
v -200.000000 100.000000 300.000000
v -200.000000 -0.000008 412.500000
v -300.000000 -0.000008 412.500000
v -300.000000 -0.000008 300.000000
v -200.000000 -0.000008 300.000000
v -300.000000 -200.000000 300.000000
v -300.000000 -200.000000 412.500000
v -200.000000 -200.000000 300.000000
v -200.000000 -200.000000 412.500000
v 0.000000 -0.000008 412.500000
v 0.000000 100.000000 300.000000
v 0.000000 -0.000008 300.000000
v 0.000000 100.000000 412.500000
v 100.000000 -0.000008 412.500000
v 0.000000 -0.000008 412.500000
v 0.000000 -0.000008 300.000000
v 100.000000 -0.000008 300.000000
v -200.000000 -300.000000 412.500000
v -200.000000 -300.000000 300.000000
v -200.000000 -200.000000 412.500000
v -200.000000 -200.000000 300.000000
v -200.000000 -300.000000 412.500000
v -200.000000 -200.000000 412.500000
v -99.999985 -300.000000 412.500000
v -99.999985 -200.000000 412.500000
v 0.000000 -300.000000 412.500000
v 0.000000 -200.000000 412.500000
v -200.000000 0.000000 412.500000
v -200.000000 100.000000 412.500000
v -99.999985 0.000000 412.500000
v -99.999985 100.000000 412.500000
v 0.000000 0.000000 412.500000
v 0.000000 100.000000 412.500000
v 100.000000 -200.000000 412.500000
v 100.000000 -100.000000 412.500000
v 0.000000 -100.000000 412.500000
v 100.000000 0.000000 412.500000
v -300.000000 -200.000000 412.500000
v -200.000000 -100.000000 412.500000
v -300.000000 -100.000000 412.500000
v -300.000000 0.000000 412.500000
v 0.000000 -200.000000 300.000000
v 0.000000 -200.000000 412.500000
v 100.000000 -200.000000 300.000000
v 100.000000 -200.000000 412.500000
v 0.000000 -300.000000 412.500000
v 0.000000 -200.000000 300.000000
v 0.000000 -300.000000 300.000000
v 0.000000 -200.000000 412.500000
v -200.000000 -200.000000 412.500000
v -200.000000 -200.000000 300.000000
v -99.999985 -200.000000 412.500000
v -99.999985 -200.000000 300.000000
v -200.000000 -200.000000 300.000000
v -200.000000 -200.000000 412.500000
v -200.000000 -100.000000 300.000000
v -200.000000 -100.000000 412.500000
v 0.000000 -200.000000 412.500000
v 0.000000 -200.000000 300.000000
v 0.000000 -200.000000 300.000000
v 0.000000 -100.000000 412.500000
v 0.000000 -200.000000 412.500000
v 0.000000 -100.000000 300.000000
v -200.000000 -0.000000 300.000000
v -200.000000 0.000000 412.500000
v -99.999985 -0.000000 300.000000
v -200.000000 -0.000000 300.000000
v -200.000000 0.000000 412.500000
v -99.999985 0.000000 412.500000
v 0.000000 -0.000000 300.000000
v 0.000000 0.000000 412.500000
v 0.000000 0.000000 412.500000
v 0.000000 -0.000000 300.000000
v -200.000000 -200.000000 200.000000
v -99.999985 -200.000000 200.000000
v -200.000000 -200.000000 200.000000
v -200.000000 -100.000000 200.000000
v 0.000000 -200.000000 200.000000
v 0.000000 -200.000000 200.000000
v 0.000000 -100.000000 200.000000
v -200.000000 -0.000000 200.000000
v -99.999985 -0.000000 200.000000
v -200.000000 -0.000000 200.000000
v 0.000000 -0.000000 200.000000
v 0.000000 -0.000000 200.000000
v -200.000000 -200.000000 100.000000
v -99.999985 -200.000000 100.000000
v -200.000000 -200.000000 100.000000
v -200.000000 -100.000000 100.000000
v 0.000000 -200.000000 100.000000
v 0.000000 -200.000000 100.000000
v 0.000000 -100.000000 100.000000
v -200.000000 -0.000000 100.000000
v -99.999985 -0.000000 100.000000
v -200.000000 -0.000000 100.000000
v 0.000000 -0.000000 100.000000
v 0.000000 -0.000000 100.000000
v -200.000000 -200.000000 0.000000
v -99.999985 -200.000000 0.000000
v -200.000000 -200.000000 0.000000
v -200.000000 -100.000000 0.000000
v 0.000000 -200.000000 0.000000
v 0.000000 -200.000000 0.000000
v 0.000000 -100.000000 0.000000
v -200.000000 -0.000000 0.000000
v -99.999985 -0.000000 0.000000
v -200.000000 -0.000000 0.000000
v 0.000000 -0.000000 0.000000
v 0.000000 -0.000000 0.000000
v -300.000000 -299.999969 550.000000
v -300.000000 -249.999969 550.000000
vn -0.0000 -0.0000 -1.0000
vn -0.0000 -0.0000 1.0000
vn -1.0000 -0.0000 -0.0000
vn -0.0000 -1.0000 -0.0000
vn 1.0000 -0.0000 -0.0000
vn -0.0000 1.0000 -0.0000
vt 1.000000 0.500000
vt 1.000000 0.999969
vt 0.500000 0.999969
vt 0.500000 0.500000
vt 0.499756 0.000000
vt 0.499756 0.500000
vt 0.000047 0.500000
vt 0.000047 0.000000
vt 0.000150 0.500244
vt 0.500000 0.500244
vt 0.500000 0.999969
vt 0.000259 1.000031
vt 0.999512 0.999969
vt 0.499756 0.999969
vt 0.999512 0.500000
vt 0.999512 0.000000
vt 0.500000 0.000000
vt 1.000000 0.000000
vt 1.000000 0.999969
vt 0.750000 0.250000
vt 0.750000 0.000000
vt 0.999512 0.250000
vt 0.250000 0.500000
vt 0.499756 0.750000
vt 0.250000 0.750000
vt 0.499756 0.999969
vt 0.250000 0.750122
vt -0.000031 0.500000
vt -0.000031 0.750122
vt 1.000000 0.250000
vt 0.499756 0.250000
vt 0.500000 0.250488
vt 0.999512 0.250488
vt 0.999512 0.000488
vt 0.499756 0.500244
vt 0.250000 0.500244
vt 0.500000 0.250000
vt 0.749512 0.000488
vt 0.749512 0.250488
vt 0.500000 0.000488
vt 0.000031 0.000000
vt 0.000031 0.500000
vt 0.499756 0.750122
vt 0.000031 0.750122
vt 0.000031 0.500244
vt 0.000031 0.750000
vt 0.000031 0.500244
vt 0.499756 0.999969
vt 0.000259 0.999969
vt 0.249878 0.500244
vt 0.249878 0.750122
vt 0.000031 0.750122
vt 0.750000 0.000488
vt 0.000031 0.500000
vt 0.500000 0.750000
vt 0.000031 0.750000
vt 0.749512 0.250000
vt 0.000150 0.500244
vt 1.000000 0.250488
vt 0.000031 0.500244
vt 0.000042 0.500244
vt -0.000086 0.999969
vt 0.000031 0.500244
vt 0.000031 0.750000
vt 0.500000 0.750122
vt 0.000031 0.750122
vt 0.000031 0.500244
vt 0.499756 0.250488
vt 0.000150 0.500000
vt 0.000031 0.750000
vt 0.000031 0.500244
vt 0.000031 0.500244
vt 0.000031 0.750000
vt 1.000000 0.000488
vt 0.499512 0.500244
vt -0.000086 0.500000
vt 0.000042 0.500244
vt -0.000086 1.000031
vt -0.000031 0.750122
vt 0.000031 0.750122
vt 0.000031 0.750000
vt 0.000031 0.500244
vt 0.249878 0.750000
vt 0.000031 0.500000
vt -0.000031 0.500244
vt -0.000031 0.750122
vt 0.000031 0.750122
vt 0.000031 0.750122
vt 0.000031 0.500244
vt 0.000031 0.750000
vt 0.000031 0.750000
vt -0.000031 0.500000
s 1
usemtl MI_StrongholdEntrance
f 290/1/5 273/2/5 270/3/5 289/4/5
f 197/5/2 32/6/2 30/7/2 199/8/2
f 160/9/3 171/10/3 46/11/3 44/12/3
f 298/13/3 299/14/3 311/6/3 310/15/3
f 246/15/1 242/6/1 247/5/1 245/16/1
f 223/6/3 221/17/3 222/18/3 220/1/3
f 300/1/4 288/19/4 285/3/4 297/4/4
f 166/15/5 165/6/5 182/5/5 183/18/5
f 119/20/6 118/21/6 116/16/6 117/22/6
f 162/16/6 69/15/6 68/6/6 164/5/6
f 138/23/2 137/6/2 135/24/2 136/25/2
f 273/1/5 271/2/5 272/26/5 270/4/5
f 153/27/2 128/23/2 129/28/2 154/29/2
f 67/5/5 65/18/5 64/30/5 66/31/5
f 66/15/5 64/6/5 165/5/5 166/16/5
f 91/17/5 89/32/5 90/33/5 88/34/5
f 85/25/3 87/24/3 86/35/3 84/36/3
f 55/30/4 56/37/4 57/17/4 54/18/4
f 190/5/5 191/18/5 168/15/5 175/6/5
f 109/38/5 108/39/5 89/32/5 91/40/5
f 10/41/2 6/17/2 5/4/2 9/42/2
f 294/14/6 306/6/6 304/15/6 292/13/6
f 237/6/1 236/5/1 234/16/1 235/15/1
f 129/20/2 128/21/2 121/16/2 123/22/2
f 8/43/2 7/44/2 5/45/2 6/6/2
f 74/6/6 75/24/6 76/46/6 77/47/6
f 283/1/5 282/19/5 271/48/5 273/4/5
f 148/24/2 145/25/2 146/36/2 147/35/2
f 16/15/1 13/6/1 14/5/1 15/16/1
f 120/32/2 122/17/2 125/16/2 124/33/2
f 159/9/3 158/4/3 40/11/3 78/49/3
f 4/6/1 1/5/1 2/16/1 3/15/1
f 99/50/4 98/51/4 96/52/4 97/47/4
f 92/34/5 93/22/5 95/20/5 94/53/5
f 42/54/3 43/4/3 40/55/3 41/56/3
f 312/1/4 300/19/4 297/3/4 309/4/4
f 123/32/2 121/17/2 122/16/2 120/33/2
f 103/35/4 102/24/4 104/25/4 105/36/4
f 30/38/2 29/57/2 27/37/2 28/40/2
f 172/10/4 53/11/4 49/12/4 169/58/4
f 26/32/2 12/17/2 11/18/2 25/59/2
f 115/32/6 114/40/6 110/16/6 113/33/6
f 53/56/4 52/60/4 50/10/4 49/55/4
f 185/61/4 184/10/4 169/11/4 170/62/4
f 51/63/4 49/10/4 50/55/4 48/64/4
f 32/35/2 31/65/2 29/66/2 30/67/2
f 34/16/2 33/59/2 31/68/2 32/5/2
f 199/40/2 30/18/2 28/59/2 200/32/2
f 20/6/1 19/5/1 17/16/1 18/15/1
f 134/18/2 133/59/2 130/32/2 132/17/2
f 63/17/5 59/18/5 61/30/5 62/37/5
f 227/6/4 224/5/4 225/18/4 226/15/4
f 37/40/2 12/38/2 26/57/2 39/37/2
f 142/4/2 143/54/2 140/66/2 141/65/2
f 38/32/2 10/17/2 12/16/2 37/33/2
f 250/6/1 249/5/1 233/16/1 248/15/1
f 36/24/2 35/25/2 33/36/2 34/35/2
f 149/68/2 150/5/2 152/18/2 151/59/2
f 70/16/6 69/22/6 73/37/6 72/17/6
f 267/13/3 275/14/3 274/6/3 266/1/3
f 71/16/6 68/22/6 69/37/6 70/17/6
f 124/22/2 125/16/2 127/21/2 126/20/2
f 266/13/3 274/14/3 291/6/3 287/15/3
f 24/6/1 23/5/1 21/16/1 22/15/1
f 41/11/3 40/49/3 158/69/3 161/4/3
f 61/37/5 59/17/5 60/16/5 58/22/5
f 302/1/5 290/2/5 289/3/5 301/4/5
f 44/24/3 46/70/3 47/71/3 45/10/3
f 45/72/3 42/35/3 41/24/3 44/73/3
f 167/16/5 62/15/5 61/6/5 168/5/5
f 314/1/5 302/2/5 301/3/5 313/4/5
f 165/16/5 64/15/5 62/6/5 167/5/5
f 88/17/5 90/32/5 93/59/5 92/74/5
f 170/9/4 169/10/4 49/11/4 51/12/4
f 173/17/4 174/18/4 56/1/4 55/10/4
f 299/13/3 303/14/3 315/6/3 311/15/3
f 157/75/6 76/14/6 75/62/6 156/76/6
f 83/24/3 107/25/3 106/36/3 80/35/3
f 173/18/4 55/1/4 53/10/4 172/17/4
f 177/18/6 157/15/6 156/6/6 176/5/6
f 101/17/4 100/68/4 102/33/4 103/18/4
f 181/18/6 162/15/6 164/6/6 180/5/6
f 159/6/3 178/17/3 179/18/3 158/1/3
f 306/14/6 318/6/6 316/15/6 304/13/6
f 55/37/4 54/17/4 52/18/4 53/30/4
f 117/32/6 116/40/6 114/16/6 115/33/6
f 187/77/3 186/10/3 171/11/3 160/78/3
f 195/24/2 192/25/2 193/36/2 194/35/2
f 113/22/6 110/16/6 111/21/6 112/20/6
f 198/5/2 34/6/2 32/7/2 197/8/2
f 194/79/2 193/42/2 196/4/2 38/65/2
f 189/17/4 188/18/4 174/1/4 173/6/4
f 319/1/5 307/19/5 302/3/5 314/4/5
f 276/14/6 292/6/6 293/15/6 277/13/6
f 201/43/2 36/80/2 34/72/2 198/35/2
f 155/81/2 144/82/2 145/50/2 148/83/2
f 43/84/3 79/10/3 78/55/3 40/70/3
f 219/6/6 218/5/6 216/18/6 217/15/6
f 215/18/4 212/1/4 213/6/4 214/17/4
f 203/10/3 86/85/3 87/86/3 202/65/3
f 65/17/5 63/18/5 62/30/5 64/37/5
f 136/35/2 135/43/2 133/87/2 134/60/2
f 229/5/5 231/18/5 230/15/5 228/6/5
f 241/6/1 240/5/1 238/16/1 239/15/1
f 132/34/2 130/22/2 131/20/2 127/53/2
f 237/15/1 246/6/1 245/5/1 244/16/1
f 243/6/1 242/5/1 240/16/1 241/15/1
f 235/6/1 234/5/1 232/16/1 233/15/1
f 207/88/2 206/65/2 204/4/2 205/67/2
f 143/55/2 145/35/2 144/36/2 140/25/2
f 251/6/1 238/5/1 249/16/1 250/15/1
f 263/1/4 262/2/4 260/26/4 261/4/4
f 127/50/2 131/89/2 139/90/2 126/83/2
f 269/1/4 268/19/4 262/26/4 263/4/4
f 265/13/3 267/14/3 266/6/3 264/1/3
f 255/6/6 254/5/6 252/18/6 253/15/6
f 72/16/6 73/22/6 75/37/6 74/17/6
f 151/20/2 152/53/2 128/34/2 153/22/2
f 279/14/6 276/6/6 277/1/6 278/13/6
f 285/1/4 263/2/4 261/3/4 284/4/4
f 147/87/2 146/42/2 150/4/2 149/65/2
f 288/1/4 269/19/4 263/3/4 285/4/4
f 264/13/3 266/14/3 287/6/3 286/15/3
f 281/14/6 280/6/6 276/1/6 279/13/6
f 259/18/3 257/15/3 258/6/3 256/5/3
f 137/89/2 138/36/2 321/25/2 320/91/2
f 61/15/5 58/6/5 175/5/5 168/16/5
f 97/54/4 96/87/4 100/65/4 101/4/4
f 286/13/3 287/14/3 299/6/3 298/15/3
f 209/5/5 211/18/5 210/15/5 208/6/5
f 280/14/6 294/6/6 292/15/6 276/13/6
f 82/79/3 83/65/3 80/4/3 81/92/3
f 69/6/6 162/5/6 163/16/6 73/15/6
f 287/13/3 291/14/3 303/6/3 299/15/3
f 307/1/5 295/19/5 290/3/5 302/4/5
f 44/11/3 41/12/3 161/58/3 160/10/3
f 309/1/4 297/2/4 296/3/4 308/4/4
f 73/6/6 163/5/6 156/16/6 75/15/6
f 292/14/6 304/6/6 305/15/6 293/13/6
f 295/1/5 283/19/5 273/3/5 290/4/5
f 304/14/6 316/6/6 317/15/6 305/13/6
f 297/1/4 285/2/4 284/3/4 296/4/4
f 12/41/2 10/17/2 9/4/2 11/42/2
f 138/36/2 204/35/2 206/24/2 321/25/2
