# Blender 5.0.1
# www.blender.org
mtllib BP_Tree_Stronghold_MeshFade.mtl
o SM_Tree_Leaves_Stronghold_MeshFade.001
v 49.999985 -49.999985 874.999939
v 49.999985 50.000031 874.999939
v -50.000031 -49.999985 874.999939
v -50.000031 50.000031 874.999939
v 49.999985 -250.000031 374.999939
v -50.000031 -250.000031 374.999939
v -50.000031 -250.000031 275.000000
v 49.999985 -250.000031 275.000000
v 250.000031 -49.999985 374.999939
v 250.000031 -49.999985 275.000000
v 250.000031 50.000031 374.999939
v 250.000031 50.000031 275.000000
v -50.000031 250.000031 374.999939
v 49.999985 250.000031 275.000000
v -50.000031 250.000031 275.000000
v 49.999985 250.000031 374.999939
v -250.000031 -49.999985 374.999939
v -250.000031 50.000031 275.000000
v -250.000031 -49.999985 275.000000
v -250.000031 50.000031 374.999939
v 150.000122 -49.999985 275.000000
v 49.999985 -49.999985 275.000000
v 150.000122 50.000031 275.000000
v 49.999985 50.000031 275.000000
v 150.000122 250.000031 275.000000
v 150.000122 250.000031 374.999939
v 150.000122 -49.999985 574.999939
v 49.999985 50.000031 574.999939
v 49.999985 -49.999985 574.999939
v 150.000122 50.000031 574.999939
v 150.000122 -250.000031 374.999939
v 150.000122 -250.000031 275.000000
v -150.000031 -49.999985 275.000000
v -50.000031 50.000031 275.000000
v -50.000031 -49.999985 275.000000
v -150.000031 50.000031 275.000000
v -150.000031 -250.000031 374.999939
v -150.000031 -250.000031 275.000000
v -150.000031 -49.999985 574.999939
v -50.000031 -49.999985 574.999939
v -150.000031 50.000031 574.999939
v -50.000031 50.000031 574.999939
v -150.000031 250.000031 275.000000
v -150.000031 250.000031 374.999939
v 49.999985 -150.000122 275.000000
v -50.000031 -150.000122 275.000000
v -50.000031 -150.000122 574.999939
v 49.999985 -150.000122 574.999939
v 150.000122 -150.000122 275.000000
v 250.000031 -150.000122 374.999939
v 250.000031 -150.000122 275.000000
v 150.000122 -150.000122 574.999939
v -150.000031 -150.000122 574.999939
v -250.000031 -150.000122 275.000000
v -250.000031 -150.000122 374.999939
v -150.000031 -150.000122 275.000000
v -50.000031 150.000031 275.000000
v 49.999985 150.000031 275.000000
v 49.999985 150.000031 574.999939
v -50.000031 150.000031 574.999939
v 150.000122 150.000031 574.999939
v 250.000031 150.000031 275.000000
v 250.000031 150.000031 374.999939
v 150.000122 150.000031 275.000000
v -150.000031 150.000031 275.000000
v -250.000031 150.000031 374.999939
v -250.000031 150.000031 275.000000
v -150.000031 150.000031 574.999939
v -250.000031 -49.999985 275.000000
v -250.000031 50.000031 275.000000
v -250.000031 -49.999985 474.999878
v -150.000031 -49.999985 474.999878
v -250.000031 50.000031 474.999878
v -150.000031 50.000031 474.999878
v -250.000031 -150.000122 275.000000
v -250.000031 -150.000122 374.999939
v -150.000031 -150.000122 374.999939
v -250.000031 -49.999985 374.999939
v -150.000031 -49.999985 374.999939
v -250.000031 50.000031 374.999939
v -150.000031 50.000031 374.999939
v -250.000031 150.000031 374.999939
v -150.000031 150.000031 374.999939
v -250.000031 150.000031 275.000000
v 250.000031 -49.999985 275.000000
v 250.000031 50.000031 275.000000
v 250.000031 -49.999985 474.999878
v 150.000122 50.000031 474.999878
v 150.000122 -49.999985 474.999878
v 250.000031 50.000031 474.999878
v 250.000031 -150.000122 374.999939
v 150.000122 -49.999985 374.999939
v 150.000122 -150.000122 374.999939
v 250.000031 -49.999985 374.999939
v 250.000031 -150.000122 275.000000
v 250.000031 150.000031 275.000000
v 250.000031 50.000031 374.999939
v 150.000122 150.000031 374.999939
v 150.000122 50.000031 374.999939
v 250.000031 150.000031 374.999939
v -50.000031 250.000031 275.000000
v 49.999985 250.000031 275.000000
v 49.999985 150.000031 474.999878
v 49.999985 250.000031 474.999878
v -50.000031 150.000031 474.999878
v -50.000031 250.000031 474.999878
v 150.000122 250.000031 374.999939
v 49.999985 150.000031 374.999939
v 49.999985 250.000031 374.999939
v 150.000122 250.000031 275.000000
v -150.000031 250.000031 275.000000
v -50.000031 150.000031 374.999939
v -50.000031 250.000031 374.999939
v -150.000031 250.000031 374.999939
v 49.999985 -250.000031 275.000000
v -50.000031 -250.000031 275.000000
v -50.000031 -250.000031 474.999878
v 49.999985 -250.000031 474.999878
v 49.999985 -150.000122 474.999878
v -50.000031 -150.000122 474.999878
v 150.000122 -250.000031 275.000000
v 49.999985 -250.000031 374.999939
v 150.000122 -250.000031 374.999939
v 49.999985 -150.000122 374.999939
v -150.000031 -250.000031 374.999939
v -50.000031 -250.000031 374.999939
v -50.000031 -150.000122 374.999939
v -150.000031 -250.000031 275.000000
v 150.000122 -150.000122 474.999878
v 49.999985 -150.000122 474.999878
v 49.999985 -150.000122 374.999939
v 150.000122 -150.000122 374.999939
v 150.000122 -150.000122 474.999878
v 150.000122 -150.000122 374.999939
v 150.000122 -49.999985 474.999878
v 150.000122 -49.999985 374.999939
v -150.000031 -150.000122 474.999878
v -150.000031 -49.999985 374.999939
v -150.000031 -150.000122 374.999939
v -150.000031 -49.999985 474.999878
v -50.000031 -150.000122 474.999878
v -150.000031 -150.000122 474.999878
v -150.000031 -150.000122 374.999939
v -50.000031 -150.000122 374.999939
v 150.000122 50.000031 474.999878
v 150.000122 50.000031 374.999939
v 150.000122 150.000031 474.999878
v 150.000122 150.000031 374.999939
v 49.999985 150.000031 374.999939
v 49.999985 150.000031 474.999878
v 150.000122 150.000031 374.999939
v 150.000122 150.000031 474.999878
v -150.000031 150.000031 374.999939
v -150.000031 150.000031 474.999878
v -50.000031 150.000031 374.999939
v -50.000031 150.000031 474.999878
v -150.000031 50.000031 474.999878
v -150.000031 150.000031 374.999939
v -150.000031 50.000031 374.999939
v -150.000031 150.000031 474.999878
v -250.000031 50.000031 374.999939
v -250.000031 50.000031 474.999878
v -150.000031 50.000031 374.999939
v -150.000031 50.000031 474.999878
v -250.000031 -49.999985 474.999878
v -250.000031 50.000031 474.999878
v -150.000031 -49.999985 474.999878
v -250.000031 -49.999985 474.999878
v -250.000031 -49.999985 374.999939
v -150.000031 -49.999985 374.999939
v 250.000031 -49.999985 474.999878
v 150.000122 -49.999985 474.999878
v 150.000122 -49.999985 374.999939
v 250.000031 -49.999985 374.999939
v 250.000031 -49.999985 474.999878
v 250.000031 50.000031 474.999878
v 150.000122 50.000031 374.999939
v 150.000122 50.000031 474.999878
v 250.000031 50.000031 374.999939
v 250.000031 50.000031 474.999878
v 49.999985 150.000031 474.999878
v 49.999985 150.000031 374.999939
v 49.999985 250.000031 474.999878
v 49.999985 250.000031 374.999939
v -50.000031 250.000031 474.999878
v 49.999985 250.000031 474.999878
v -50.000031 150.000031 474.999878
v -50.000031 250.000031 374.999939
v -50.000031 150.000031 374.999939
v -50.000031 250.000031 474.999878
v -50.000031 -250.000031 474.999878
v -50.000031 -150.000122 374.999939
v -50.000031 -250.000031 374.999939
v -50.000031 -150.000122 474.999878
v 49.999985 -250.000031 474.999878
v -50.000031 -250.000031 474.999878
v 49.999985 -250.000031 474.999878
v 49.999985 -250.000031 374.999939
v 49.999985 -150.000122 474.999878
v 49.999985 -150.000122 374.999939
v 150.000122 -49.999985 574.999939
v 150.000122 50.000031 574.999939
v -150.000031 -49.999985 574.999939
v -150.000031 50.000031 574.999939
v 49.999985 -150.000122 574.999939
v -50.000031 -150.000122 574.999939
v 150.000122 -150.000122 574.999939
v 150.000122 -150.000122 574.999939
v -150.000031 -150.000122 574.999939
v -150.000031 -150.000122 574.999939
v -50.000031 150.000031 574.999939
v 49.999985 150.000031 574.999939
v 150.000122 150.000031 574.999939
v 150.000122 150.000031 574.999939
v -150.000031 150.000031 574.999939
v -150.000031 150.000031 574.999939
v 49.999985 -150.000015 774.999939
v -50.000031 -150.000015 774.999939
v -50.000031 -150.000015 675.000000
v 49.999985 -150.000015 675.000000
v 150.000046 -49.999985 774.999939
v 150.000046 -49.999985 675.000000
v 150.000046 50.000031 774.999939
v 150.000046 50.000031 675.000000
v -50.000031 150.000061 675.000000
v -50.000031 150.000061 774.999939
v 49.999985 150.000061 675.000000
v 49.999985 150.000061 774.999939
v -150.000061 -49.999985 774.999939
v -150.000061 50.000031 675.000000
v -150.000061 -49.999985 675.000000
v -150.000061 50.000031 774.999939
v 150.000046 -49.999985 675.000000
v 49.999985 -49.999985 675.000000
v 150.000046 50.000031 675.000000
v 49.999985 50.000031 675.000000
v 150.000046 50.000031 675.000000
v 49.999985 50.000031 675.000000
v 150.000046 50.000031 774.999939
v 49.999985 50.000031 774.999939
v 150.000046 -49.999985 774.999939
v 49.999985 50.000031 774.999939
v 49.999985 -49.999985 774.999939
v 150.000046 50.000031 774.999939
v 150.000046 -49.999985 774.999939
v 49.999985 -49.999985 774.999939
v 150.000046 -49.999985 675.000000
v 49.999985 -49.999985 675.000000
v -150.000061 -49.999985 675.000000
v -50.000031 50.000031 675.000000
v -50.000031 -49.999985 675.000000
v -150.000061 50.000031 675.000000
v -150.000061 -49.999985 774.999939
v -50.000031 -49.999985 675.000000
v -50.000031 -49.999985 774.999939
v -150.000061 -49.999985 675.000000
v -150.000061 -49.999985 774.999939
v -50.000031 -49.999985 774.999939
v -150.000061 50.000031 774.999939
v -50.000031 50.000031 774.999939
v -150.000061 50.000031 675.000000
v -50.000031 50.000031 774.999939
v -50.000031 50.000031 675.000000
v -150.000061 50.000031 774.999939
v 49.999985 -150.000015 675.000000
v -50.000031 -150.000015 675.000000
v 49.999985 -150.000015 774.999939
v 49.999985 -150.000015 675.000000
v 49.999985 -49.999985 675.000000
v 49.999985 -49.999985 774.999939
v -50.000031 -150.000015 774.999939
v 49.999985 -150.000015 774.999939
v -50.000031 -150.000015 675.000000
v -50.000031 -150.000015 774.999939
v -50.000031 -49.999985 774.999939
v -50.000031 -49.999985 675.000000
v -50.000031 150.000061 675.000000
v 49.999985 150.000061 675.000000
v -50.000031 150.000061 774.999939
v -50.000031 50.000031 675.000000
v -50.000031 50.000031 774.999939
v -50.000031 150.000061 675.000000
v 49.999985 150.000061 774.999939
v -50.000031 150.000061 774.999939
v 49.999985 150.000061 675.000000
v 49.999985 50.000031 774.999939
v 49.999985 50.000031 675.000000
v 49.999985 150.000061 774.999939
v 49.999985 -49.999985 874.999939
v -50.000031 -49.999985 874.999939
v 49.999985 -49.999985 874.999939
v 49.999985 50.000031 874.999939
v -50.000031 50.000031 874.999939
v 49.999985 50.000031 874.999939
v -50.000031 -49.999985 874.999939
v -50.000031 50.000031 874.999939
v -150.000031 -150.000122 374.999817
v -250.000031 -150.000122 374.999817
v -250.000031 -150.000122 275.000000
v -150.000031 -150.000122 275.000000
v -250.000031 150.000031 275.000000
v -250.000031 150.000031 374.999817
v -150.000031 150.000031 275.000000
v -150.000031 150.000031 374.999817
v 250.000031 -150.000122 374.999817
v 150.000122 -150.000122 374.999817
v 150.000122 -150.000122 275.000000
v 250.000031 -150.000122 275.000000
v 150.000122 150.000031 275.000000
v 150.000122 150.000031 374.999817
v 250.000031 150.000031 275.000000
v 250.000031 150.000031 374.999817
v 150.000122 150.000031 374.999817
v 150.000122 150.000031 275.000000
v 150.000122 250.000031 374.999817
v 150.000122 250.000031 275.000000
v -150.000031 150.000031 374.999817
v -150.000031 250.000031 275.000000
v -150.000031 150.000031 275.000000
v -150.000031 250.000031 374.999817
v 150.000122 -250.000031 374.999817
v 150.000122 -250.000031 275.000000
v 150.000122 -150.000122 374.999817
v 150.000122 -150.000122 275.000000
v -150.000031 -250.000031 374.999817
v -150.000031 -150.000122 275.000000
v -150.000031 -250.000031 275.000000
v -150.000031 -150.000122 374.999817
vn -0.0000 -0.0000 1.0000
vn -0.0000 -1.0000 -0.0000
vn 1.0000 -0.0000 -0.0000
vn -0.0000 1.0000 -0.0000
vn -1.0000 -0.0000 -0.0000
vn -0.0000 -0.0000 -1.0000
vt 0.500000 0.500000
vt 1.000000 0.500000
vt 1.000000 0.999969
vt 0.500000 0.999969
vt 1.000000 0.999969
vt 0.500000 0.999969
vt 0.500000 1.000031
vt 1.000000 0.999969
vt 0.999512 0.999969
vt 0.999512 0.999969
vt 0.500000 0.500244
vt 0.500000 1.000031
vt 1.000000 0.500244
vt 0.999512 0.999969
vt 1.000000 1.000031
vt 0.999512 0.500000
vt 0.999512 1.000031
vt 0.999512 0.500244
s 1
usemtl MI_Tree_Leaves_Stronghold
f 90/1/1 88/2/1 89/3/1 87/4/1
f 232/1/5 230/2/5 231/5/5 229/6/5
f 110/1/6 64/2/6 58/3/6 102/4/6
f 77/2/1 79/3/1 78/4/1 76/1/1
f 264/1/4 262/2/4 263/5/4 261/6/4
f 212/7/4 150/1/4 156/2/4 211/8/4
f 21/1/6 49/2/6 45/5/6 22/4/6
f 35/9/6 46/6/6 56/1/6 33/2/6
f 9/1/3 50/2/3 51/3/3 10/4/3
f 101/9/6 57/4/6 65/1/6 111/2/6
f 46/10/6 116/6/6 128/1/6 56/2/6
f 132/11/2 129/2/2 130/5/2 131/6/2
f 160/1/5 158/2/5 159/8/5 157/4/5
f 63/1/3 11/2/3 12/3/3 62/4/3
f 216/12/5 160/1/5 157/13/5 204/14/5
f 14/4/4 16/1/4 26/2/4 25/3/4
f 5/2/2 8/3/2 32/4/2 31/1/2
f 100/1/1 98/2/1 99/3/1 97/4/1
f 29/5/1 48/7/1 52/1/1 27/2/1
f 129/4/2 207/1/2 205/2/2 130/5/2
f 72/4/1 74/1/1 73/2/1 71/3/1
f 276/5/5 273/6/5 274/1/5 275/2/5
f 120/5/1 117/6/1 118/1/1 119/2/1
f 8/1/2 5/2/2 6/3/2 7/4/2
f 68/1/1 41/2/1 42/5/1 60/4/1
f 67/15/5 18/7/5 20/1/5 66/2/5
f 40/6/1 42/1/1 41/2/1 39/5/1
f 252/1/6 250/2/6 251/5/6 249/6/6
f 114/1/1 83/2/1 112/5/1 113/6/1
f 69/3/6 33/4/6 56/1/6 75/2/6
f 36/1/6 34/16/6 35/17/6 33/7/6
f 166/11/5 20/18/5 17/9/5 165/4/5
f 84/1/6 65/2/6 36/3/6 70/4/6
f 182/4/3 184/1/3 183/2/3 181/5/3
f 180/1/4 179/2/4 177/3/4 178/6/4
f 146/6/3 148/1/3 147/16/3 145/10/3
f 49/2/6 21/3/6 85/4/6 95/1/6
f 10/4/3 12/1/3 11/2/3 9/3/3
f 135/17/3 145/6/3 202/1/3 201/2/3
f 22/4/6 24/1/6 23/2/6 21/3/6
f 106/5/1 105/6/1 103/1/1 104/2/1
f 40/5/1 47/4/1 48/1/1 29/2/1
f 145/10/3 147/4/3 213/1/3 202/2/3
f 30/1/1 28/2/1 29/5/1 27/6/1
f 4/5/1 3/4/1 1/1/1 2/2/1
f 38/15/2 7/7/2 6/11/2 37/2/2
f 234/6/6 236/1/6 235/2/6 233/5/6
f 20/1/5 18/2/5 19/3/5 17/4/5
f 124/5/1 122/6/1 123/1/1 93/2/1
f 60/3/1 42/6/1 28/1/1 59/2/1
f 234/1/6 265/2/6 266/5/6 251/6/6
f 22/1/6 45/2/6 46/10/6 35/7/6
f 308/11/2 305/2/2 306/5/2 307/6/2
f 44/1/4 13/2/4 15/15/4 43/4/4
f 246/1/2 289/16/2 290/5/2 255/6/2
f 312/11/4 311/2/4 309/5/4 310/6/4
f 57/3/6 34/4/6 36/1/6 65/2/6
f 144/15/2 141/7/2 142/1/2 143/2/2
f 314/6/3 316/11/3 315/2/3 313/5/3
f 64/1/6 23/2/6 24/15/6 58/4/6
f 45/1/6 115/2/6 116/10/6 46/6/6
f 174/1/2 171/2/2 172/3/2 173/6/2
f 9/4/3 11/1/3 176/2/3 175/3/3
f 58/1/6 24/2/6 34/3/6 57/4/6
f 130/6/2 205/1/2 206/2/2 141/15/2
f 170/15/2 167/7/2 168/1/2 169/16/2
f 186/1/4 16/2/4 13/3/4 185/4/4
f 16/1/4 14/2/4 15/3/4 13/4/4
f 21/4/6 23/1/6 86/2/6 85/3/6
f 204/4/5 157/1/5 140/2/5 203/17/5
f 190/1/5 188/2/5 189/15/5 187/6/5
f 81/4/1 83/1/1 82/2/1 80/3/1
f 5/1/2 195/16/2 196/17/2 6/7/2
f 246/2/2 248/3/2 247/4/2 245/1/2
f 152/1/4 151/2/4 149/3/4 150/4/4
f 198/2/3 200/3/3 199/6/3 197/1/3
f 23/7/6 64/1/6 96/2/6 86/15/6
f 194/10/5 192/12/5 193/1/5 191/16/5
f 133/1/3 135/16/3 201/15/3 208/7/3
f 94/3/1 92/4/1 93/1/1 91/2/1
f 141/2/2 206/15/2 210/7/2 142/1/2
f 203/2/5 140/15/5 137/7/5 209/1/5
f 156/8/4 155/4/4 153/1/4 154/2/4
f 39/1/1 53/2/1 47/3/1 40/6/1
f 109/5/1 108/6/1 98/1/1 107/2/1
f 214/7/4 152/1/4 150/16/4 212/17/4
f 220/1/2 217/2/2 218/5/2 219/6/2
f 102/1/6 58/2/6 57/9/6 101/4/6
f 228/1/4 227/2/4 225/5/4 226/6/4
f 222/6/3 224/1/3 223/2/3 221/5/3
f 322/2/3 324/5/3 323/6/3 321/1/3
f 211/16/4 156/14/4 154/12/4 215/1/4
f 288/1/3 286/2/3 287/5/3 285/6/3
f 238/6/4 240/1/4 239/2/4 237/5/4
f 164/15/4 163/7/4 161/1/4 162/13/4
f 70/1/6 36/2/6 33/15/6 69/7/6
f 258/6/1 260/1/1 259/2/1 257/5/1
f 256/5/2 254/6/2 255/1/2 253/2/2
f 244/1/1 242/2/1 243/3/1 241/4/1
f 59/3/1 28/6/1 30/1/1 61/2/1
f 77/1/1 125/2/1 126/5/1 127/6/1
f 270/1/3 267/2/3 268/5/3 269/6/3
f 278/1/6 236/2/6 250/5/6 277/6/6
f 49/1/6 121/2/6 115/5/6 45/6/6
f 284/5/1 260/6/1 242/1/1 283/2/1
f 282/5/5 280/6/5 281/1/5 279/2/5
f 258/5/1 271/6/1 272/1/1 243/2/1
f 320/11/5 318/2/5 319/5/5 317/6/5
f 140/15/5 138/7/5 139/1/5 137/2/5
f 270/4/3 286/1/3 292/2/3 291/5/3
f 300/5/2 297/6/2 298/1/2 299/2/2
f 304/5/4 303/6/4 301/11/4 302/2/4
f 294/1/4 240/2/4 262/5/4 293/6/4
f 19/3/5 54/4/5 55/1/5 17/2/5
f 296/1/5 281/2/5 275/5/5 295/6/5
f 134/2/3 136/15/3 135/7/3 133/1/3
f 328/5/5 326/6/5 327/1/5 325/2/5
