# Blender 5.0.1
# www.blender.org
mtllib BP_Tomb.mtl
o SM_Tomb.001
v 162.499985 -81.250000 24.999994
v -162.500015 -81.250000 24.999994
v -162.500015 -81.250000 0.000007
v 162.500015 -81.250000 0.000007
v 149.999985 -68.750000 100.000000
v -149.999985 68.750000 100.000000
v -149.999985 -68.750000 100.000000
v 150.000000 68.750000 100.000000
v 150.000000 68.750000 25.000006
v -149.999985 68.750000 25.000006
v -149.999985 68.750000 100.000000
v 150.000000 68.750000 100.000000
v 162.499985 -81.250000 24.999994
v 162.500015 81.250000 0.000007
v 162.500015 81.250000 25.000006
v 162.500015 -81.250000 0.000007
v -162.500015 -81.250000 24.999994
v -162.500015 81.250000 0.000007
v -162.500015 -81.250000 0.000007
v -162.500015 81.250000 25.000006
v 149.999985 -68.750000 100.000000
v -149.999985 -68.750000 100.000000
v -149.999985 -68.750000 24.999994
v 149.999985 -68.750000 24.999994
v 162.500015 81.250000 0.000007
v -162.500015 81.250000 0.000007
v -162.500015 81.250000 25.000006
v 162.500015 81.250000 25.000006
v 149.999985 -68.750000 100.000000
v 150.000000 68.750000 25.000006
v 150.000000 68.750000 100.000000
v 149.999985 -68.750000 24.999994
v -149.999985 -68.750000 100.000000
v -149.999985 68.750000 25.000006
v -149.999985 -68.750000 24.999994
v -149.999985 68.750000 100.000000
v 162.499985 -81.250000 24.999994
v -149.999985 -68.750000 24.999994
v -162.500015 -81.250000 24.999994
v 149.999985 -68.750000 24.999994
v 150.000000 68.750000 25.000006
v 162.500015 81.250000 25.000006
v -162.500015 81.250000 25.000006
v -149.999985 68.750000 25.000006
vn -0.0000 -1.0000 -0.0000
vn -0.0000 -0.0000 1.0000
vn -0.0000 1.0000 -0.0000
vn 1.0000 -0.0000 -0.0000
vn -1.0000 -0.0000 -0.0000
vt 0.000033 0.093750
vt 0.406250 0.093750
vt 0.406250 0.156738
vt 0.000033 0.156738
vt 0.812500 0.187500
vt 0.812500 0.250000
vt 0.000031 0.250000
vt 0.000031 0.187500
vt 0.000031 0.625000
vt 0.343750 0.625000
vt 0.343750 0.812500
vt 0.000031 0.812500
vt 0.000031 0.281250
vt 0.750000 0.281250
vt 0.750000 0.625000
vt 0.750000 0.812500
vt 0.750000 0.999969
vt 0.000031 0.999969
vt -0.000033 0.156250
vt -0.000033 0.094238
vt 0.406006 0.094238
vt 0.406006 0.156250
vt 0.031250 0.281250
vt 0.781250 0.281250
vt 0.031250 0.187988
vt 0.375000 0.187988
vt 0.374756 0.187500
vt 0.031235 0.187500
s 1
usemtl MI_Tomb
f 16/1/4 14/2/4 15/3/4 13/4/4
f 4/5/1 1/6/1 2/7/1 3/8/1
f 32/9/4 30/10/4 31/11/4 29/12/4
f 28/7/3 25/8/3 26/5/3 27/6/3
f 8/13/2 6/14/2 7/15/2 5/9/2
f 24/16/1 21/17/1 22/18/1 23/12/1
f 20/19/5 18/20/5 19/21/5 17/22/5
f 12/18/3 9/12/3 10/16/3 11/17/3
f 39/7/2 37/6/2 38/23/2
f 40/24/2 38/23/2 37/6/2
f 40/25/2 37/4/2 41/26/2
f 41/26/2 37/4/2 42/3/2
f 38/27/2 43/19/2 39/22/2
f 44/28/2 43/19/2 38/27/2
f 42/7/2 44/24/2 41/23/2
f 43/6/2 44/24/2 42/7/2
f 36/12/5 34/9/5 35/10/5 33/11/5
