# Blender 5.0.1
# www.blender.org
mtllib BP_Two_Flag_B_New.mtl
o SK_Two_Flag_B_003.001
v -12.499908 13.125025 500.000000
v 12.500092 -11.874979 500.000000
v 12.500092 13.125029 500.000000
v -12.499908 -11.874979 500.000000
v 12.500092 13.125025 400.000000
v 12.500092 13.125029 500.000000
v 12.500092 -11.874979 500.000000
v 12.500092 -11.874979 400.000000
v -12.499908 13.125025 500.000000
v -12.499908 13.125025 400.000000
v -12.499908 -11.874979 500.000000
v -12.499908 -11.874979 400.000000
v -12.499908 -11.874979 400.000000
v 12.500092 -11.874979 500.000000
v -12.499908 -11.874979 500.000000
v 12.500092 -11.874979 400.000000
v 12.500092 13.125025 400.000000
v -12.499908 13.125025 500.000000
v 12.500092 13.125029 500.000000
v -12.499908 13.125025 400.000000
v 12.500092 -11.874979 300.000000
v 12.500092 -11.874968 200.000000
v 12.500092 13.125025 300.000000
v 12.500092 13.125036 200.000000
v -12.499908 13.125025 300.000000
v -12.499908 -11.874968 200.000000
v -12.499908 -11.874979 300.000000
v -12.499908 13.125036 200.000000
v 12.500092 13.125025 300.000000
v 12.500092 13.125036 200.000000
v -12.499908 13.125025 300.000000
v -12.499908 13.125036 200.000000
v -12.499908 -11.874979 300.000000
v -12.499908 -11.874968 200.000000
v 12.500092 -11.874979 300.000000
v 12.500092 -11.874968 200.000000
v 12.500092 -11.874979 399.999969
v 12.500092 -11.874968 299.999969
v 12.500092 13.125025 399.999969
v 12.500092 13.125036 299.999969
v -12.499908 13.125025 399.999969
v -12.499908 -11.874968 299.999969
v -12.499908 -11.874979 399.999969
v -12.499908 13.125036 299.999969
v 12.500092 13.125025 399.999969
v 12.500092 13.125036 299.999969
v -12.499908 13.125025 399.999969
v -12.499908 13.125036 299.999969
v -12.499908 -11.874979 399.999969
v -12.499908 -11.874968 299.999969
v 12.500092 -11.874979 399.999969
v 12.500092 -11.874968 299.999969
v -149.999908 -36.875004 425.000336
v -74.999969 -36.875004 425.000336
v -149.999908 -36.875015 450.000336
v -74.999969 -36.875019 450.000336
v 150.000061 -36.875011 450.000336
v 150.000061 -36.875004 425.000336
v 150.000061 -11.874995 450.000336
v 150.000061 -11.874992 425.000336
v 150.000061 -36.875004 425.000336
v 75.000061 -36.875004 425.000336
v 75.000061 -11.874994 425.000336
v 150.000061 -11.874992 425.000336
v 75.000061 -11.874997 450.000336
v 150.000061 -36.875011 450.000336
v 150.000061 -11.874995 450.000336
v 75.000061 -36.875015 450.000336
v -149.999908 -11.874998 450.000336
v -74.999969 -11.874999 450.000336
v -74.999969 -11.874996 425.000336
v -149.999908 -11.874996 425.000336
v -149.999908 -36.875015 450.000336
v -149.999908 -11.874998 450.000336
v -149.999908 -36.875004 425.000336
v -149.999908 -11.874996 425.000336
v 0.000061 -36.875004 425.000336
v 75.000061 -36.875004 425.000336
v 0.000061 -36.875019 450.000336
v 75.000061 -36.875015 450.000336
v -74.999969 -36.875004 425.000336
v 0.000061 -11.874996 425.000336
v 0.000061 -36.875004 425.000336
v -74.999969 -11.874996 425.000336
v 0.000061 -11.875000 450.000336
v -74.999969 -36.875019 450.000336
v 0.000061 -36.875023 450.000336
v -74.999969 -11.874999 450.000336
v 75.000061 -11.874997 450.000336
v 0.000061 -11.874996 425.000336
v 0.000061 -11.874999 450.000336
v 75.000061 -11.874994 425.000336
v 0.000061 -11.874999 450.000336
v 0.000061 -36.875019 450.000336
v 150.000061 -36.875004 425.000336
v 150.000061 -36.875011 450.000336
v 150.000061 -11.874995 450.000336
v 150.000061 -11.874992 425.000336
v 0.000061 -36.875023 450.000336
v 0.000061 -11.875000 450.000336
v -149.999908 -36.875004 425.000336
v -149.999908 -11.874996 425.000336
v -149.999908 -36.875015 450.000336
v -149.999908 -11.874998 450.000336
v 12.500092 -11.874979 200.000000
v 12.500092 -11.874968 100.000000
v 12.500092 13.125025 200.000000
v 12.500092 13.125036 100.000000
v -12.499908 13.125025 200.000000
v -12.499908 -11.874968 100.000000
v -12.499908 -11.874979 200.000000
v -12.499908 13.125036 100.000000
v 12.500092 13.125025 200.000000
v 12.500092 13.125036 100.000000
v -12.499908 13.125025 200.000000
v -12.499908 13.125036 100.000000
v -12.499908 -11.874979 200.000000
v -12.499908 -11.874968 100.000000
v 12.500092 -11.874979 200.000000
v 12.500092 -11.874968 100.000000
v 12.500092 -11.874975 100.000000
v 12.500092 -11.874964 0.000000
v 12.500092 13.125029 100.000000
v 12.500092 13.125040 0.000000
v -12.499908 13.125029 100.000000
v -12.499908 -11.874964 -0.000000
v -12.499908 -11.874975 100.000000
v -12.499908 13.125040 -0.000000
v 12.500092 13.125029 100.000000
v 12.500092 13.125040 0.000000
v -12.499908 13.125029 100.000000
v -12.499908 13.125040 -0.000000
v -12.499908 -11.874975 100.000000
v -12.499908 -11.874964 -0.000000
v 12.500092 -11.874975 100.000000
v 12.500092 -11.874964 0.000000
v -112.500061 -38.420334 427.595337
v -131.250061 -38.420334 427.595337
v -131.250061 -38.420319 127.595337
v -81.250061 -38.420319 127.595337
v -93.750061 -38.420334 427.595337
v -68.750061 -38.420334 427.595337
v -50.000061 -38.420334 427.595337
v -31.250065 -38.420319 127.595337
v -31.250061 -38.420334 427.595337
v 49.999939 -38.420334 427.595337
v 31.249939 -38.420334 427.595337
v 31.249941 -38.420322 127.595329
v 81.249931 -38.420322 127.595329
v 68.749939 -38.420334 427.595337
v 93.749939 -38.420334 427.595337
v 112.499939 -38.420334 427.595337
v 131.249924 -38.420322 127.595329
v 131.249939 -38.420334 427.595337
v -68.750061 -10.173542 454.518799
v -93.750061 -10.173546 426.142120
v -93.750061 -10.173542 454.518799
v -68.750061 -10.173546 426.142120
v -68.750061 -10.173542 454.518799
v -93.750061 -10.173542 454.518799
v -93.750061 -38.420334 454.518799
v -68.750061 -38.420334 454.518799
v -68.750061 -38.420334 454.518799
v -93.750061 -38.420334 454.518799
v -31.250061 -10.173542 454.518799
v -50.000061 -10.173546 426.142120
v -50.000061 -10.173542 454.518799
v -31.250061 -10.173546 426.142120
v -131.250061 -10.173542 454.518799
v -112.500061 -10.173542 454.518799
v -131.250061 -10.173546 426.142120
v -112.500061 -10.173546 426.142120
v -31.250061 -10.173542 454.518799
v -50.000061 -10.173542 454.518799
v -31.250061 -38.420334 454.518799
v -50.000061 -38.420334 454.518799
v -131.250061 -10.173542 454.518799
v -112.500061 -38.420334 454.518799
v -112.500061 -10.173542 454.518799
v -131.250061 -38.420334 454.518799
v -112.500061 -38.420334 454.518799
v -131.250061 -38.420334 454.518799
v -31.250061 -38.420334 454.518799
v -50.000061 -38.420334 454.518799
v 93.749939 -10.173542 454.518799
v 68.749939 -10.173546 426.142120
v 68.749939 -10.173542 454.518799
v 93.749939 -10.173546 426.142120
v 93.749939 -10.173542 454.518799
v 68.749939 -10.173542 454.518799
v 68.749939 -38.420334 454.518799
v 93.749939 -38.420334 454.518799
v 93.749939 -38.420334 454.518799
v 68.749939 -38.420334 454.518799
v 131.249939 -10.173542 454.518799
v 112.499939 -10.173546 426.142120
v 112.499939 -10.173542 454.518799
v 131.249939 -10.173546 426.142120
v 31.249939 -10.173542 454.518799
v 49.999939 -10.173542 454.518799
v 31.249939 -10.173546 426.142120
v 49.999939 -10.173546 426.142120
v 131.249939 -10.173542 454.518799
v 112.499939 -10.173542 454.518799
v 131.249939 -38.420334 454.518799
v 112.499939 -38.420334 454.518799
v 31.249939 -10.173542 454.518799
v 49.999939 -38.420334 454.518799
v 49.999939 -10.173542 454.518799
v 31.249939 -38.420334 454.518799
v 49.999939 -38.420334 454.518799
v 31.249939 -38.420334 454.518799
v 112.499939 -38.420334 454.518799
v 131.249939 -38.420334 454.518799
vn -0.0000 -0.0000 1.0000
vn 1.0000 -0.0000 -0.0000
vn -1.0000 -0.0000 -0.0000
vn -0.0000 -1.0000 -0.0000
vn -0.0000 1.0000 -0.0000
vn -0.0000 -0.0000 -1.0000
vt 0.250000 0.937500
vt 0.250000 0.812500
vt 0.281250 0.812500
vt 0.281250 0.937500
vt 0.218750 0.906250
vt 0.218750 0.999969
vt 0.187500 0.999969
vt 0.187500 0.906250
vt 0.218750 0.812500
vt 0.250000 0.906250
vt 0.218750 0.875000
vt 0.218750 0.968750
vt 0.187500 0.968750
vt 0.187500 0.875000
vt 0.273438 0.812500
vt 0.273438 0.937500
vt 0.242188 0.937500
vt 0.242188 0.812500
vt 0.828125 0.437500
vt 0.828125 0.468750
vt 0.796875 0.468750
vt 0.796875 0.437500
vt 0.210938 0.906250
vt 0.242188 0.906250
vt 0.242188 0.999969
vt 0.210938 0.999969
vt 0.343750 0.843750
vt 0.375000 0.843750
vt 0.375000 0.812500
vt 0.343750 0.812500
vt 0.750000 0.437500
vt 0.773438 0.437500
vt 0.773438 0.468750
vt 0.750000 0.468750
vt 0.218750 0.937500
vt 0.210938 0.812500
vt 0.210938 0.937500
vt 0.671875 0.375000
vt 0.648438 0.375000
vt 0.625000 0.000000
vt 0.687500 0.000000
vt 0.218750 0.984375
vt 0.187500 0.984375
vt 0.187500 0.890625
vt 0.218750 0.890625
vt 0.875000 0.500000
vt 0.851562 0.500000
vt 0.851562 0.468750
vt 0.875000 0.468750
vt 0.898438 0.468750
vt 0.898438 0.500000
vt 0.796875 0.406250
vt 0.828125 0.406250
vt 0.265625 0.999969
vt 0.234375 0.999969
vt 0.234375 0.906250
vt 0.265625 0.906250
vt 0.851562 0.437500
vt 0.875000 0.437500
vt 0.273438 0.906250
vt 0.273438 0.843750
vt 0.242188 0.843750
vt 0.898438 0.406250
vt 0.898438 0.437500
vt 0.875000 0.406250
vt 0.625000 0.375000
vt 0.750000 0.000000
vt 0.726562 0.375000
vt 0.703125 0.375000
vt 0.750000 0.375000
vt 0.265625 0.890625
vt 0.234375 0.890625
vt 0.234375 0.984375
vt 0.265625 0.984375
vt 0.828125 0.500000
vt 0.796875 0.500000
vt 0.953125 0.437500
vt 0.953125 0.468750
vt 0.921875 0.468750
vt 0.921875 0.437500
vt 0.851562 0.406250
vt 0.187500 0.898438
vt 0.218750 0.898438
vt 0.218750 0.992188
vt 0.187500 0.992188
vt 0.773438 0.406250
vt 0.750000 0.406250
vt 0.273438 0.835938
vt 0.273438 0.929688
vt 0.242188 0.929688
vt 0.242188 0.835938
vt 0.773438 0.500000
vt 0.750000 0.500000
vt 0.976562 0.468750
vt 0.976562 0.437500
vt 1.000000 0.437500
vt 1.000000 0.468750
vt 0.921875 0.406250
vt 0.953125 0.406250
vt 1.000000 0.500000
vt 0.976562 0.500000
vt 0.953125 0.500000
vt 0.921875 0.500000
vt 1.000000 0.406250
vt 0.976562 0.406250
s 1
usemtl MI_Windswept_Props
f 20/1/5 18/2/5 19/3/5 17/4/5
f 92/5/5 90/6/5 91/7/5 89/8/5
f 104/9/1 103/2/1 86/10/1 88/5/1
f 102/11/6 84/12/6 81/13/6 101/14/6
f 78/14/4 80/11/4 79/12/4 77/13/4
f 40/7/2 39/14/2 37/11/2 38/6/2
f 44/6/3 42/7/3 43/14/3 41/11/3
f 132/15/5 131/16/5 129/17/5 130/18/5
f 48/7/5 47/14/5 45/11/5 46/6/5
f 112/6/3 110/7/3 111/14/3 109/11/3
f 108/7/2 107/14/2 105/11/2 106/6/2
f 32/7/5 31/14/5 29/11/5 30/6/5
f 95/23/4 96/24/4 80/25/4 78/26/4
f 74/27/3 76/28/3 75/29/3 73/30/3
f 12/35/3 11/9/3 9/2/3 10/1/3
f 136/36/4 135/37/4 133/17/4 134/18/4
f 77/42/4 99/43/4 56/44/4 54/45/4
f 64/8/6 61/5/6 62/6/6 63/7/6
f 60/28/2 59/27/2 57/30/2 58/29/2
f 16/35/4 14/9/4 15/2/4 13/1/4
f 124/3/2 123/4/2 121/1/2 122/2/2
f 54/54/4 56/55/4 55/56/4 53/57/4
f 36/6/4 35/11/4 33/14/4 34/7/4
f 52/6/4 51/11/4 49/14/4 50/7/4
f 24/7/2 23/14/2 21/11/2 22/6/2
f 128/18/3 126/15/3 127/16/3 125/17/3
f 68/24/1 66/18/1 67/15/1 65/60/1
f 84/6/6 82/5/6 83/8/6 81/7/6
f 28/6/3 26/7/3 27/14/3 25/11/3
f 88/17/1 86/16/1 87/61/1 85/62/1
f 116/7/5 115/14/5 113/11/5 114/6/5
f 72/71/5 69/72/5 70/73/5 71/74/5
f 83/82/6 82/83/6 63/84/6 62/85/6
f 7/2/2 8/1/2 5/35/2 6/9/2
f 94/88/1 68/89/1 65/90/1 93/91/1
f 120/6/4 119/11/4 117/14/4 118/7/4
f 90/6/5 71/5/5 70/8/5 100/7/5
f 4/30/1 2/29/1 3/28/1 1/27/1
f 98/57/5 92/54/5 89/55/5 97/56/5
usemtl MI_Flags_Green
f 162/19/1 159/20/1 160/21/1 161/22/1
f 180/31/1 178/32/1 179/33/1 177/34/1
f 150/38/4 146/39/4 148/40/4 149/41/4
f 168/46/5 166/47/5 167/48/5 165/49/5
f 200/50/5 202/51/5 201/46/5 199/49/5
f 164/22/4 141/52/4 142/53/4 163/19/4
f 174/48/1 176/58/1 175/59/1 173/49/1
f 146/63/4 211/64/4 212/59/4 147/65/4
f 139/40/4 137/39/4 138/66/4
f 153/67/4 152/68/4 151/69/4 149/41/4
f 140/41/4 142/69/4 141/38/4
f 143/68/4 144/67/4 145/70/4
f 148/40/4 146/39/4 147/66/4
f 141/38/4 137/39/4 139/40/4 140/41/4
f 149/41/4 151/69/4 150/38/4
f 144/67/4 143/68/4 142/69/4 140/41/4
f 152/68/4 153/67/4 154/70/4
f 158/75/5 156/76/5 157/21/5 155/20/5
f 192/77/1 189/78/1 190/79/1 191/80/1
f 145/65/4 183/59/4 184/58/4 143/81/4
f 137/86/4 181/32/4 182/31/4 138/87/4
f 210/59/1 208/64/1 209/50/1 207/49/1
f 170/33/5 172/92/5 171/93/5 169/34/5
f 204/94/1 206/95/1 205/96/1 203/97/1
f 194/80/4 150/98/4 151/99/4 193/77/4
f 198/100/5 196/101/5 197/94/5 195/97/5
f 188/102/5 186/103/5 187/79/5 185/78/5
f 154/104/4 214/96/4 213/95/4 152/105/4
