# Blender 5.0.1
# www.blender.org
mtllib BP_TTTMeshfade_rock.mtl
o SM_TTTGeo_meshfade.001
v -250.000000 150.000000 100.000000
v -250.000000 150.000000 -0.000000
v -250.000000 50.000000 100.000000
v -250.000000 50.000000 -0.000000
v -150.000000 150.000000 100.000000
v -150.000000 150.000000 -0.000000
v -250.000000 150.000000 100.000000
v -250.000000 150.000000 -0.000000
v -150.000000 50.000000 100.000000
v -150.000000 150.000000 -0.000000
v -150.000000 150.000000 100.000000
v -150.000000 50.000000 -0.000000
v -250.000000 150.000000 100.000000
v -150.000000 50.000000 100.000000
v -150.000000 150.000000 100.000000
v -250.000000 50.000000 100.000000
v -250.000000 -50.000000 100.000000
v -250.000000 -50.000000 -0.000000
v -150.000000 -50.000000 100.000000
v -150.000000 -50.000000 -0.000000
v -150.000000 -50.000000 100.000000
v -250.000000 -50.000000 100.000000
v -250.000000 -50.000000 100.000000
v -150.000000 -50.000000 -0.000000
v -150.000000 -50.000000 100.000000
v -250.000000 -50.000000 -0.000000
v -150.000000 150.000000 100.000000
v -150.000000 250.000000 100.000000
v -150.000000 250.000000 0.000000
v -150.000000 150.000000 -0.000000
v -50.000000 250.000000 100.000000
v -50.000000 250.000000 0.000000
v -150.000000 250.000000 100.000000
v -150.000000 250.000000 0.000000
v -150.000000 250.000000 100.000000
v -50.000000 150.000000 100.000000
v -50.000000 250.000000 100.000000
v -150.000000 50.000000 200.000000
v -150.000000 150.000000 200.000000
v -150.000000 50.000000 100.000000
v -150.000000 150.000000 200.000000
v -50.000000 150.000000 200.000000
v -50.000000 150.000000 100.000000
v -150.000000 150.000000 200.000000
v -50.000000 50.000000 200.000000
v -50.000000 150.000000 200.000000
v -150.000000 50.000000 200.000000
v -150.000000 -50.000000 200.000000
v -150.000000 -50.000000 100.000000
v -50.000000 -50.000000 200.000000
v -150.000000 -50.000000 200.000000
v -150.000000 -50.000000 200.000000
v -50.000000 -50.000000 100.000000
v -50.000000 -50.000000 200.000000
v 50.000000 250.000000 100.000000
v 50.000000 250.000000 0.000000
v 50.000000 150.000000 100.000000
v 50.000000 250.000000 100.000000
v 50.000000 150.000000 200.000000
v 50.000000 150.000000 100.000000
v 50.000000 50.000000 200.000000
v 50.000000 150.000000 200.000000
v 50.000000 -50.000000 200.000000
v -50.000000 -50.000000 200.000000
v -50.000000 -50.000000 100.000000
v -50.000000 -150.000000 200.000000
v -50.000000 -150.000000 100.000000
v 50.000000 -150.000000 200.000000
v -50.000000 -150.000000 200.000000
v -50.000000 -150.000000 200.000000
v 50.000000 -150.000000 100.000000
v 50.000000 -150.000000 200.000000
v -50.000000 -150.000000 100.000000
v 150.000000 250.000000 100.000000
v 150.000000 250.000000 0.000000
v 150.000000 150.000000 100.000000
v 150.000000 250.000000 0.000000
v 150.000000 250.000000 100.000000
v 150.000000 150.000000 -0.000000
v 150.000000 150.000000 100.000000
v 150.000000 250.000000 100.000000
v 150.000000 150.000000 200.000000
v 150.000000 150.000000 100.000000
v 150.000000 50.000000 200.000000
v 150.000000 150.000000 200.000000
v 150.000000 50.000000 100.000000
v 150.000000 50.000000 200.000000
v 150.000000 150.000000 200.000000
v 150.000000 -50.000000 200.000000
v 150.000000 -50.000000 100.000000
v 150.000000 -50.000000 200.000000
v 150.000000 -150.000000 200.000000
v 150.000000 -150.000000 100.000000
v 150.000000 -150.000000 200.000000
v 150.000000 -150.000000 100.000000
v 150.000000 -150.000000 200.000000
v 50.000000 -150.000000 100.000000
v 50.000000 -150.000000 -0.000000
v 50.000000 -250.000000 100.000000
v 50.000000 -250.000000 -0.000000
v 50.000000 -150.000000 100.000000
v 150.000000 -150.000000 100.000000
v 150.000000 -150.000000 -0.000000
v 50.000000 -150.000000 -0.000000
v 150.000000 -250.000000 100.000000
v 150.000000 -150.000000 -0.000000
v 150.000000 -250.000000 -0.000000
v 150.000000 -250.000000 100.000000
v 150.000000 -150.000000 100.000000
v 50.000000 -150.000000 100.000000
v 50.000000 -250.000000 100.000000
v 50.000000 -250.000000 100.000000
v 150.000000 -250.000000 -0.000000
v 150.000000 -250.000000 100.000000
v 50.000000 -250.000000 -0.000000
v 250.000000 150.000000 100.000000
v 250.000000 150.000000 -0.000000
v 150.000000 150.000000 -0.000000
v 250.000000 50.000000 100.000000
v 250.000000 150.000000 -0.000000
v 250.000000 150.000000 100.000000
v 250.000000 50.000000 -0.000000
v 250.000000 50.000000 100.000000
v 250.000000 150.000000 100.000000
v 150.000000 50.000000 100.000000
v 250.000000 -50.000000 100.000000
v 250.000000 -50.000000 -0.000000
v 250.000000 -50.000000 100.000000
v 150.000000 -50.000000 100.000000
v 150.000000 -50.000000 100.000000
v 250.000000 -50.000000 -0.000000
v 250.000000 -50.000000 100.000000
v 150.000000 -50.000000 -0.000000
v 135.188904 -65.008453 287.274658
v 64.478241 -135.719147 187.274658
v 64.478241 -135.719147 287.274658
v 135.188904 -65.008484 187.274658
v 64.478271 -65.008392 287.274628
v 135.188934 -135.719055 187.274658
v 135.188934 -135.719055 287.274628
v 64.478271 -65.008392 187.274658
v 135.188904 35.218109 287.165344
v 64.478241 -35.492584 187.165375
v 64.478241 -35.492584 287.165344
v 135.188904 35.218094 187.165375
v 64.478271 35.218170 287.165344
v 135.188934 -35.492493 187.165375
v 135.188934 -35.492493 287.165344
v 64.478271 35.218170 187.165375
v 238.051636 132.786926 174.207474
v 167.340973 62.076233 74.207489
v 167.340973 62.076233 174.207474
v 238.051636 132.786911 74.207489
v 167.341003 132.786987 174.207458
v 238.051666 62.076324 74.207489
v 238.051666 62.076324 174.207458
v 167.341003 132.786987 74.207489
v -64.644623 135.112610 281.120605
v -135.355286 64.401917 181.120605
v -135.355286 64.401917 281.120605
v -64.644608 135.112595 181.120605
v -135.355255 135.112671 281.120575
v -64.644592 64.402008 181.120605
v -64.644592 64.402008 281.120575
v -135.355255 135.112671 181.120605
v -149.905029 -55.699524 -0.000000
v -49.905029 -55.699524 -100.000015
v -49.905029 -55.699524 -0.000000
v -149.905029 -55.699524 -100.000015
v -149.905029 -55.699524 100.000015
v -49.905029 -55.699524 100.000015
v -149.905029 -55.699524 200.000015
v -49.905029 -55.699524 200.000015
v -50.000000 -155.571350 199.999985
v 50.000000 -155.571350 99.999985
v 50.000000 -155.571350 199.999985
v -50.000000 -155.571350 99.999985
v 50.000000 -155.571350 -0.000000
v -50.000000 -155.571350 -0.000000
vn -1.0000 -0.0000 -0.0000
vn -0.0000 1.0000 -0.0000
vn 1.0000 -0.0000 -0.0000
vn -0.0000 -0.0000 1.0000
vn -0.0000 -1.0000 -0.0000
vn -0.7071 0.7071 -0.0000
vn -0.7071 -0.7071 -0.0000
vt 1.000000 0.000000
vt 1.000000 0.500000
vt 0.500000 0.500000
vt 0.500000 0.000000
vt 0.000031 0.000000
vt 0.000031 0.500000
vt 0.500000 0.999969
vt 0.000031 0.999969
vt 1.000000 0.999969
s 1
usemtl MI_TTTGeo_meshfade
f 34/1/2 33/2/2 31/3/2 32/4/2
f 25/5/5 53/4/5 54/3/5 52/6/5
f 93/6/3 90/3/3 89/7/3 92/8/3
f 50/3/4 63/4/4 61/1/4 45/2/4
f 67/3/1 66/7/1 64/8/1 65/6/1
f 100/3/1 99/7/1 97/8/1 98/6/1
f 71/6/5 95/3/5 96/7/5 72/8/5
f 103/6/2 104/3/2 101/7/2 102/8/2
f 32/3/2 31/7/2 55/8/2 56/6/2
f 61/3/4 87/2/4 88/9/4 62/7/4
f 90/6/3 86/3/3 84/7/3 89/8/3
f 56/3/2 55/7/2 74/8/2 75/6/2
f 122/6/3 120/3/3 121/7/3 119/8/3
f 51/5/4 50/4/4 45/3/4 47/6/4
f 16/5/4 14/4/4 15/3/4 13/6/4
f 117/6/2 118/3/2 83/7/2 116/8/2
f 12/6/3 10/3/3 11/7/3 9/8/3
f 60/4/2 43/1/2 42/2/2 59/3/2
f 26/6/5 24/3/5 25/7/5 23/8/5
f 68/7/4 94/3/4 91/2/4 63/9/4
f 4/4/1 3/3/1 1/6/1 2/5/1
f 125/9/4 129/7/4 128/3/4 123/2/4
f 73/6/5 71/3/5 72/7/5 70/8/5
f 47/3/4 45/2/4 46/9/4 44/7/4
f 18/3/1 17/7/1 3/8/1 4/6/1
f 57/7/4 80/3/4 81/2/4 58/9/4
f 133/6/5 131/3/5 132/7/5 130/8/5
f 125/3/4 123/2/4 124/9/4 80/7/4
f 79/6/3 77/3/3 78/7/3 76/8/3
f 8/4/2 7/3/2 5/6/2 6/5/2
f 40/5/1 49/4/1 48/3/1 38/6/1
f 22/7/4 21/3/4 14/2/4 16/9/4
f 63/3/4 91/2/4 87/9/4 61/7/4
f 15/4/4 36/1/4 37/2/4 35/3/4
f 29/4/1 30/1/1 27/2/1 28/3/1
f 45/3/4 61/4/4 62/1/4 46/2/4
f 107/6/3 106/3/3 93/7/3 105/8/3
f 36/3/4 57/2/4 58/9/4 37/7/4
f 115/6/5 113/3/5 114/7/5 112/8/5
f 127/6/3 122/3/3 119/7/3 126/8/3
f 110/7/4 111/3/4 108/2/4 109/9/4
f 20/6/3 12/3/3 9/7/3 19/8/3
f 69/3/4 68/2/4 63/9/4 50/7/4
f 86/6/3 76/3/3 85/7/3 84/8/3
f 43/6/2 5/3/2 41/7/2 42/8/2
f 83/6/2 60/3/2 59/7/2 82/8/2
f 27/6/1 40/3/1 38/7/1 39/8/1
usemtl MI_TTTGeo_meshfade_foliage
f 157/5/7 155/4/7 156/3/7 154/6/7
f 165/5/7 163/4/7 164/3/7 162/6/7
f 166/4/5 168/1/5 171/2/5 170/3/5
f 177/4/5 175/1/5 176/2/5 174/3/5
f 161/5/6 159/4/6 160/3/6 158/6/6
f 153/5/6 151/4/6 152/3/6 150/6/6
f 145/5/6 143/4/6 144/3/6 142/6/6
f 137/3/6 135/2/6 136/9/6 134/7/6
f 141/3/7 139/2/7 140/9/7 138/7/7
f 169/4/5 167/1/5 168/2/5 166/3/5
f 149/5/7 147/4/7 148/3/7 146/6/7
f 170/4/5 171/1/5 173/2/5 172/3/5
f 179/4/5 178/1/5 175/2/5 177/3/5
