# Blender 5.0.1
# www.blender.org
mtllib BP_TrappedTurtle.mtl
o SK_SeaCage.001
v 137.499863 137.499893 12.500022
v -137.500092 137.499893 12.500022
v -137.500092 -137.500107 12.500022
v 137.499863 -137.500107 12.500022
v 137.499863 -137.500107 12.500022
v -137.500092 -137.500107 12.500022
v -137.500092 -137.500107 0.000022
v 137.499863 -137.500107 0.000022
v 137.499863 137.499893 12.500022
v 137.499863 -137.500107 12.500022
v 137.499863 -137.500107 0.000022
v 137.499863 137.499893 0.000022
v -137.500092 137.499893 12.500022
v 137.499863 137.499893 12.500022
v 137.499863 137.499893 0.000022
v -137.500092 137.499893 0.000022
v -137.500092 -137.500107 12.500022
v -137.500092 137.499893 12.500022
v -137.500092 137.499893 0.000022
v -137.500092 -137.500107 0.000022
v 137.500015 -137.500092 187.499954
v 137.500015 -125.000038 12.499994
v 137.500015 -137.500046 12.499987
v 137.500015 -125.000092 187.499954
v 150.000015 -137.500092 187.499954
v 150.000015 -137.500046 12.499987
v 150.000015 -125.000092 187.499954
v 150.000015 -125.000038 12.499987
v 150.000015 -137.500046 12.499987
v 150.000015 -137.500092 187.499954
v 137.500015 -137.500092 187.499954
v 137.500015 -137.500046 12.499987
v 150.000015 -125.000092 187.499954
v 137.500015 -125.000038 12.499994
v 137.500015 -125.000092 187.499954
v 150.000015 -125.000038 12.499987
v 137.500046 124.999901 12.500025
v 137.500046 124.999847 187.500000
v 137.500046 137.499847 187.500000
v 137.500046 137.499893 12.500025
v 150.000046 124.999847 187.500000
v 150.000046 124.999901 12.500025
v 150.000046 137.499847 187.500000
v 150.000046 137.499893 12.500025
v 150.000046 124.999901 12.500025
v 150.000046 124.999847 187.500000
v 137.500046 124.999847 187.500000
v 137.500046 124.999901 12.500025
v 150.000046 137.499847 187.500000
v 137.500046 137.499893 12.500025
v 137.500046 137.499847 187.500000
v 150.000046 137.499893 12.500025
v 137.499985 137.500061 12.499987
v 137.499985 -137.500107 0.000025
v 137.499985 -137.500137 12.499971
v 137.499985 137.500092 0.000040
v 149.999985 -137.500107 0.000025
v 149.999985 137.500061 12.499987
v 149.999985 -137.500137 12.499971
v 149.999985 137.500092 0.000040
v 149.999985 -137.500137 12.499971
v 137.499985 -137.500137 12.499971
v 149.999985 -137.500107 0.000025
v 137.499985 -137.500107 0.000025
v 149.999985 137.500092 0.000040
v 149.999985 -137.500107 0.000025
v 137.499985 -137.500107 0.000025
v 137.499985 137.500092 0.000040
v 149.999985 137.500061 12.499987
v 137.499985 137.500092 0.000040
v 137.499985 137.500061 12.499987
v 149.999985 137.500092 0.000040
v 149.999985 -137.500137 12.499971
v 149.999985 137.500061 12.499987
v 137.499985 137.500061 12.499987
v 137.499985 -137.500137 12.499971
v 137.499985 -137.500137 199.999985
v 137.499985 137.500061 200.000015
v 137.499985 137.500061 187.500015
v 137.499985 -137.500137 187.499985
v 149.999985 -137.500137 187.499985
v 149.999985 137.500061 187.500015
v 149.999985 -137.500137 199.999985
v 149.999985 137.500061 200.000015
v 149.999985 -137.500137 199.999985
v 137.499985 -137.500137 199.999985
v 149.999985 -137.500137 187.499985
v 137.499985 -137.500137 187.499985
v 149.999985 137.500061 187.500015
v 149.999985 -137.500137 187.499985
v 137.499985 -137.500137 187.499985
v 137.499985 137.500061 187.500015
v 149.999985 137.500061 200.000015
v 137.499985 137.500061 187.500015
v 137.499985 137.500061 200.000015
v 149.999985 137.500061 187.500015
v 149.999985 -137.500137 199.999985
v 149.999985 137.500061 200.000015
v 137.499985 137.500061 200.000015
v 137.499985 -137.500137 199.999985
v 149.999634 -124.999969 187.499924
v 150.000031 124.999893 12.500032
v 150.000031 124.999847 187.500000
v 149.999634 -125.000038 12.499994
v -137.500000 149.999893 187.499969
v 137.500015 149.999893 187.499969
v 137.500031 149.999893 12.500041
v -137.500015 149.999893 12.500041
v 137.500031 137.500092 12.500047
v 137.500015 137.500046 187.499969
v 137.500015 150.000046 187.499969
v 137.500031 150.000092 12.500047
v 150.000015 137.500031 187.499969
v 150.000031 137.500092 12.500039
v 150.000015 150.000031 187.499969
v 150.000031 150.000092 12.500047
v 150.000015 137.500031 187.499969
v 137.500031 137.500092 12.500047
v 150.000031 137.500092 12.500039
v 137.500015 137.500046 187.499969
v 150.000015 150.000031 187.499969
v 137.500031 150.000092 12.500047
v 137.500015 150.000046 187.499969
v 150.000031 150.000092 12.500047
v 149.999985 150.000031 199.999954
v -150.000000 150.000122 199.999954
v -150.000000 137.500122 199.999954
v 149.999985 137.500031 199.999954
v -150.000000 137.500122 187.499954
v 149.999985 150.000031 187.499954
v 149.999985 137.500031 187.499954
v -150.000000 150.000122 187.499954
v 149.999985 137.500031 187.499954
v 149.999985 150.000031 199.999954
v 149.999985 137.500031 199.999954
v 149.999985 150.000031 187.499954
v 149.999985 137.500031 199.999954
v -150.000000 137.500122 199.999954
v -150.000000 137.500122 187.499954
v 149.999985 137.500031 187.499954
v -150.000000 150.000122 199.999954
v -150.000000 150.000122 187.499954
v -150.000000 137.500122 199.999954
v -150.000000 137.500122 187.499954
v -150.000000 150.000122 199.999954
v 149.999985 150.000031 199.999954
v 149.999985 150.000031 187.499954
v -150.000000 150.000122 187.499954
v 149.999985 150.000046 12.500026
v -150.000000 150.000122 12.500026
v -150.000000 137.500122 12.500026
v 149.999985 137.500046 12.500026
v -150.000000 137.500122 0.000025
v 149.999985 150.000046 0.000025
v 149.999985 137.500046 0.000025
v -150.000000 150.000122 0.000025
v 149.999985 137.500046 12.500026
v 149.999985 137.500046 0.000025
v 149.999985 150.000046 12.500026
v 149.999985 150.000046 0.000025
v 149.999985 137.500046 12.500026
v -150.000000 137.500122 12.500026
v -150.000000 137.500122 0.000025
v 149.999985 137.500046 0.000025
v -150.000000 150.000122 12.500026
v -150.000000 150.000122 0.000025
v -150.000000 137.500122 12.500026
v -150.000000 137.500122 0.000025
v -150.000000 150.000122 12.500026
v 149.999985 150.000046 12.500026
v 149.999985 150.000046 0.000025
v -150.000000 150.000122 0.000025
v -150.000015 137.500137 12.500047
v -150.000000 137.500076 187.499969
v -150.000000 150.000076 187.499969
v -150.000015 150.000137 12.500047
v -137.500000 137.500076 187.499969
v -137.500015 150.000122 12.500047
v -137.500000 150.000076 187.499969
v -137.500015 137.500122 12.500039
v -137.500000 137.500076 187.499969
v -150.000015 137.500137 12.500047
v -137.500015 137.500122 12.500039
v -150.000000 137.500076 187.499969
v -150.000000 150.000076 187.499969
v -137.500015 150.000122 12.500047
v -150.000015 150.000137 12.500047
v -137.500000 150.000076 187.499969
v 137.500000 -149.999863 187.499969
v -137.500015 -149.999893 187.499969
v -137.500031 -149.999893 12.500041
v 137.500015 -149.999863 12.500041
v -137.500031 -137.500092 12.500047
v -137.500015 -137.500046 187.499969
v -137.500015 -150.000046 187.499969
v -137.500031 -150.000092 12.500047
v -150.000015 -137.500046 187.499969
v -150.000031 -150.000092 12.500047
v -150.000015 -150.000046 187.499969
v -150.000031 -137.500092 12.500039
v -150.000015 -137.500046 187.499969
v -137.500031 -137.500092 12.500047
v -150.000031 -137.500092 12.500039
v -137.500015 -137.500046 187.499969
v -150.000015 -150.000046 187.499969
v -137.500031 -150.000092 12.500047
v -137.500015 -150.000046 187.499969
v -150.000031 -150.000092 12.500047
v 150.000000 -137.500092 199.999954
v -149.999985 -137.500046 199.999954
v -149.999985 -150.000046 199.999954
v 150.000000 -150.000092 199.999954
v -149.999985 -137.500046 187.499954
v 150.000000 -137.500092 187.499954
v -149.999985 -150.000046 187.499954
v 150.000000 -150.000092 187.499954
v -149.999985 -137.500046 187.499954
v -149.999985 -150.000046 199.999954
v -149.999985 -137.500046 199.999954
v -149.999985 -150.000046 187.499954
v -149.999985 -137.500046 199.999954
v 150.000000 -137.500092 199.999954
v 150.000000 -137.500092 187.499954
v -149.999985 -137.500046 187.499954
v 150.000000 -150.000092 199.999954
v 150.000000 -150.000092 187.499954
v 150.000000 -137.500092 199.999954
v 150.000000 -137.500092 187.499954
v 150.000000 -150.000092 199.999954
v -149.999985 -150.000046 199.999954
v -149.999985 -150.000046 187.499954
v 150.000000 -150.000092 187.499954
v 150.000000 -137.500092 12.500026
v -149.999985 -137.500046 12.500026
v -149.999985 -150.000046 12.500026
v 150.000000 -150.000092 12.500026
v -149.999985 -137.500046 0.000025
v 150.000000 -137.500092 0.000025
v -149.999985 -150.000046 0.000025
v 150.000000 -150.000092 0.000025
v -149.999985 -137.500046 12.500026
v -149.999985 -137.500046 0.000025
v -149.999985 -150.000046 12.500026
v -149.999985 -150.000046 0.000025
v -149.999985 -137.500046 12.500026
v 150.000000 -137.500092 12.500026
v 150.000000 -137.500092 0.000025
v -149.999985 -137.500046 0.000025
v 150.000000 -150.000092 12.500026
v 150.000000 -150.000092 0.000025
v 150.000000 -137.500092 12.500026
v 150.000000 -137.500092 0.000025
v 150.000000 -150.000092 12.500026
v -149.999985 -150.000046 12.500026
v -149.999985 -150.000046 0.000025
v 150.000000 -150.000092 0.000025
v 150.000015 -137.500092 12.500047
v 150.000000 -137.500046 187.499969
v 150.000000 -150.000046 187.499969
v 150.000015 -150.000092 12.500047
v 137.500000 -137.500046 187.499969
v 137.500015 -150.000092 12.500047
v 137.500000 -150.000046 187.499969
v 137.500015 -137.500092 12.500039
v 137.500000 -137.500046 187.499969
v 150.000015 -137.500092 12.500047
v 137.500015 -137.500092 12.500039
v 150.000000 -137.500046 187.499969
v 150.000000 -150.000046 187.499969
v 137.500015 -150.000092 12.500047
v 150.000015 -150.000092 12.500047
v 137.500000 -150.000046 187.499969
v -137.500092 137.499969 187.499954
v -137.500107 124.999916 12.499994
v -137.500107 137.499924 12.499987
v -137.500092 124.999969 187.499954
v -150.000092 137.499969 187.499954
v -150.000107 137.499924 12.499987
v -150.000092 124.999969 187.499954
v -150.000107 124.999916 12.499987
v -150.000092 137.499969 187.499954
v -137.500107 137.499924 12.499987
v -150.000107 137.499924 12.499987
v -137.500092 137.499969 187.499954
v -150.000092 124.999969 187.499954
v -137.500107 124.999916 12.499994
v -137.500092 124.999969 187.499954
v -150.000107 124.999916 12.499987
v -137.500092 -125.000023 12.500025
v -137.500076 -124.999969 187.500000
v -137.500076 -137.499969 187.500000
v -137.500092 -137.500015 12.500025
v -150.000076 -124.999969 187.500000
v -150.000092 -125.000023 12.500025
v -150.000076 -137.499969 187.500000
v -150.000092 -137.500015 12.500025
v -150.000076 -124.999969 187.500000
v -137.500092 -125.000023 12.500025
v -150.000092 -125.000023 12.500025
v -137.500076 -124.999969 187.500000
v -150.000076 -137.499969 187.500000
v -137.500092 -137.500015 12.500025
v -137.500076 -137.499969 187.500000
v -150.000092 -137.500015 12.500025
v -137.500015 -137.500183 12.499987
v -137.500076 137.499985 0.000025
v -137.500076 137.500015 12.499971
v -137.500015 -137.500214 0.000040
v -150.000076 137.499985 0.000025
v -150.000015 -137.500183 12.499987
v -150.000076 137.500015 12.499971
v -150.000015 -137.500214 0.000040
v -150.000076 137.500015 12.499971
v -137.500076 137.500015 12.499971
v -150.000076 137.499985 0.000025
v -137.500076 137.499985 0.000025
v -150.000015 -137.500214 0.000040
v -137.500076 137.499985 0.000025
v -137.500015 -137.500214 0.000040
v -150.000076 137.499985 0.000025
v -150.000015 -137.500183 12.499987
v -137.500015 -137.500214 0.000040
v -137.500015 -137.500183 12.499987
v -150.000015 -137.500214 0.000040
v -137.500076 137.500015 12.499971
v -150.000015 -137.500183 12.499987
v -137.500015 -137.500183 12.499987
v -150.000076 137.500015 12.499971
v -137.500076 137.500015 199.999985
v -137.500015 -137.500183 200.000015
v -137.500015 -137.500183 187.500015
v -137.500076 137.500015 187.499985
v -150.000076 137.500015 187.499985
v -150.000015 -137.500183 187.500015
v -150.000076 137.500015 199.999985
v -150.000015 -137.500183 200.000015
v -150.000076 137.500015 199.999985
v -137.500076 137.500015 199.999985
v -150.000076 137.500015 187.499985
v -137.500076 137.500015 187.499985
v -150.000015 -137.500183 187.500015
v -137.500076 137.500015 187.499985
v -137.500015 -137.500183 187.500015
v -150.000076 137.500015 187.499985
v -150.000015 -137.500183 200.000015
v -137.500015 -137.500183 187.500015
v -137.500015 -137.500183 200.000015
v -150.000015 -137.500183 187.500015
v -137.500076 137.500015 199.999985
v -150.000015 -137.500183 200.000015
v -137.500015 -137.500183 200.000015
v -150.000076 137.500015 199.999985
v -149.999710 124.999847 187.499924
v -150.000076 -125.000015 12.500032
v -149.999710 124.999916 12.499994
vn -0.0000 -0.0000 1.0000
vn -0.0000 -1.0000 -0.0000
vn 1.0000 -0.0000 -0.0000
vn -0.0000 1.0000 -0.0000
vn -1.0000 -0.0000 -0.0000
vn -0.0000 -0.0000 -1.0000
vt 0.609375 0.734375
vt 0.609375 0.718750
vt 0.984375 0.718750
vt 0.984375 0.734375
vt 1.000000 0.765625
vt 0.984375 0.765625
vt 0.984375 0.750000
vt 1.000000 0.750000
vt 0.609375 0.796875
vt 0.609375 0.781250
vt 0.984375 0.781250
vt 0.984375 0.796875
vt 0.984375 0.843750
vt 0.640625 0.843750
vt 0.640625 0.828125
vt 0.984375 0.828125
vt 0.828125 0.703125
vt 0.609375 0.703125
vt 0.609375 0.687500
vt 0.828125 0.687500
vt 0.828125 0.718750
vt 0.664062 0.953125
vt 0.882812 0.953125
vt 0.882812 0.968750
vt 0.664062 0.968750
vt 0.015625 0.843750
vt 0.359375 0.843750
vt 0.359375 0.859375
vt 0.015625 0.859375
vt 0.218750 0.828125
vt 0.437500 0.828125
vt 0.437500 0.843750
vt 0.218750 0.843750
vt 0.218750 0.859375
vt -0.000031 0.859375
vt -0.000031 0.843750
vt 0.000031 0.796875
vt 0.218750 0.796875
vt 0.218750 0.812500
vt 0.000031 0.812500
vt 0.218750 0.765625
vt 0.000031 0.765625
vt 0.000031 0.750000
vt 0.218750 0.750000
vt 0.593750 0.750000
vt 0.609375 0.750000
vt 0.609375 0.765625
vt 0.593750 0.765625
vt 0.015625 0.781250
vt 0.359375 0.781250
vt 0.359375 0.796875
vt 0.015625 0.796875
vt 0.000031 0.328125
vt 0.015625 0.328125
vt 0.015625 0.671875
vt 0.000031 0.671875
vt 0.375000 0.671875
vt 0.359375 0.671875
vt 0.359375 0.328125
vt 0.375000 0.328125
vt -0.000031 0.875000
vt 0.218750 0.875000
vt 0.984375 0.859375
vt 0.984375 0.875000
vt 0.640625 0.875000
vt 0.640625 0.859375
vt 0.437500 0.812500
vt 0.359375 0.312500
vt 0.015625 0.312500
vt 0.000031 0.843750
vt 0.000031 0.828125
vt 1.000000 0.859375
vt 1.000000 0.875000
vt 0.359375 0.765625
vt 0.015625 0.765625
vt 0.437500 0.765625
vt 0.437500 0.781250
vt 0.218750 0.781250
vt 0.437500 0.796875
vt 0.828125 0.734375
vt 0.015625 0.750000
vt 0.359375 0.750000
vt 0.882812 0.984375
vt 0.664062 0.984375
vt 0.437500 0.859375
vt 0.437500 0.875000
vt 0.359375 0.828125
vt 0.015625 0.828125
vt 0.015625 0.812500
vt 0.359375 0.812500
vt 0.015625 0.687500
vt 0.359375 0.687500
vt 0.000031 0.750000
vt 0.000031 0.765625
vt 0.390625 0.796875
vt 0.390625 0.812500
vt 0.390625 0.750000
vt 0.390625 0.765625
vt 0.625000 0.875000
vt 0.625000 0.859375
vt 0.000031 0.875000
vt 0.000031 0.859375
vt 0.015625 0.875000
vt 0.984375 0.703125
vt 0.000031 0.781250
vt 0.437500 0.750000
vt 0.640625 0.812500
vt 0.984375 0.812500
vt 0.750000 0.000488
vt 0.968750 0.000488
vt 0.968750 0.344238
vt 0.750000 0.344238
vt 0.000031 0.859375
vt 0.390625 0.781250
vt 0.609375 0.812500
vt 0.359375 0.875000
vt 0.375000 0.859375
vt 0.375000 0.875000
vt 0.000031 0.812500
vt 0.000031 0.796875
vt 0.000031 0.875000
vt 0.531250 0.312500
vt 0.531250 0.000488
vt 0.750000 0.312500
vt 0.664062 0.937500
vt 0.882812 0.937500
vt 0.593750 0.703125
vt 0.593750 0.687500
vt -0.000031 0.812500
vt -0.000031 0.828125
vt 0.828125 0.750000
vt 1.000000 0.687500
vt 1.000000 0.703125
vt 0.984375 0.687500
vt 0.406250 0.765625
vt 0.406250 0.750000
vt 0.375000 0.796875
vt 0.375000 0.812500
vt 0.882812 0.999969
vt 0.664062 0.999969
vt 0.312500 0.312500
vt 0.312500 0.000000
s 1
usemtl MI_Sea_Cage
f 140/1/2 137/2/2 138/3/2 139/4/2
f 244/5/5 243/6/5 241/7/5 242/8/5
f 224/9/4 221/10/4 222/11/4 223/12/4
f 67/13/6 68/14/6 65/15/6 66/16/6
f 284/17/4 282/18/4 283/19/4 281/20/4
f 276/21/3 274/2/3 275/18/3 273/17/3
f 175/22/5 176/23/5 173/24/5 174/25/5
f 91/26/6 92/27/6 89/28/6 90/29/6
f 259/30/3 260/31/3 257/32/3 258/33/3
f 291/34/3 292/35/3 289/36/3 290/33/3
f 28/37/3 27/38/3 25/39/3 26/40/3
f 31/41/2 32/42/2 29/43/2 30/44/2
f 252/45/3 251/46/3 249/47/3 250/48/3
f 308/49/3 306/50/3 307/51/3 305/52/3
f 256/10/2 253/47/2 254/6/2 255/11/2
f 20/53/5 17/54/5 18/55/5 19/56/5
f 12/57/3 9/58/3 10/59/3 11/60/3
f 304/61/2 302/35/2 303/34/2 301/62/2
f 334/63/5 336/64/5 335/65/5 333/66/5
f 272/39/2 270/67/2 271/31/2 269/30/2
f 4/59/1 1/58/1 2/55/1 3/54/1
f 8/68/2 5/59/2 6/54/2 7/69/2
f 47/33/2 48/70/2 45/71/2 46/30/2
f 62/63/2 64/72/2 63/73/2 61/64/2
f 320/74/6 318/50/6 319/49/6 317/75/6
f 208/76/2 206/77/2 207/78/2 205/41/2
f 195/78/3 196/77/3 193/79/3 194/38/3
f 288/1/2 286/2/2 287/21/2 285/80/2
f 312/75/5 310/81/5 311/82/5 309/74/5
f 184/25/2 182/24/2 183/83/2 181/84/2
f 264/85/5 262/86/5 263/62/5 261/34/5
f 111/78/5 112/77/5 109/79/5 110/38/5
f 99/87/1 100/88/1 97/89/1 98/90/1
f 16/91/4 13/55/4 14/58/4 15/92/4
f 168/93/5 167/81/5 165/75/5 166/94/5
f 164/95/2 161/96/2 162/89/2 163/52/2
f 332/14/3 329/15/3 330/16/3 331/13/3
f 152/97/1 149/98/1 150/75/1 151/81/1
f 75/66/1 76/63/1 73/64/1 74/65/1
f 72/99/4 70/100/4 71/66/4 69/65/4
f 86/101/2 88/102/2 87/29/2 85/103/2
f 232/7/2 229/6/2 230/47/2 231/46/2
f 128/2/1 125/18/1 126/104/1 127/3/1
f 36/37/4 34/105/4 35/78/4 33/38/4
f 120/38/2 118/79/2 119/67/2 117/39/2
f 124/76/4 122/77/4 123/78/4 121/41/4
f 236/47/1 233/46/1 234/7/1 235/6/1
f 200/106/5 198/76/5 199/41/5 197/44/5
f 352/107/1 350/108/1 351/16/1 349/15/1
f 24/78/5 22/105/5 23/42/5 21/41/5
f 238/9/6 240/10/6 239/11/6 237/12/6
f 108/109/4 105/110/4 106/111/4 107/112/4
f 39/34/5 40/113/5 37/70/5 38/33/5
f 172/49/4 169/75/4 170/98/4 171/114/4
f 248/12/4 245/108/4 246/115/4 247/9/4
f 82/28/3 84/116/3 83/103/3 81/29/3
f 228/8/3 227/5/3 225/6/3 226/7/3
f 212/6/1 209/11/1 210/10/1 211/47/1
f 214/12/6 216/108/6 215/115/6 213/9/6
f 220/46/5 218/47/5 219/48/5 217/45/5
f 96/28/4 94/117/4 95/118/4 93/116/4
f 324/119/2 322/120/2 323/52/2 321/89/2
f 52/121/4 50/113/4 51/34/4 49/62/4
f 132/7/6 130/46/6 131/1/6 129/4/6
f 328/90/1 326/89/1 327/52/1 325/51/1
f 355/122/5 354/123/5 293/109/5 353/124/5
f 80/26/5 77/88/5 78/87/5 79/27/5
f 188/125/4 186/126/4 187/23/4 185/22/4
f 44/40/3 43/39/3 41/30/3 42/71/3
f 136/19/3 134/18/3 135/127/3 133/128/3
f 268/33/4 266/32/4 267/85/4 265/34/4
f 296/129/5 295/39/5 293/30/5 294/130/5
f 280/1/5 279/80/5 277/131/5 278/46/5
f 144/132/5 143/133/5 141/104/5 142/134/5
f 148/134/4 145/104/4 146/18/4 147/19/4
f 56/14/5 54/13/5 55/63/5 53/66/5
f 60/15/3 58/107/3 59/108/3 57/16/3
f 160/135/3 159/98/3 157/97/3 158/136/3
f 344/66/6 342/14/6 343/13/6 341/63/6
f 314/51/4 316/137/4 315/138/4 313/90/4
f 180/83/3 178/139/3 179/140/3 177/84/3
f 192/109/2 189/110/2 190/111/2 191/112/2
f 156/49/6 154/114/6 155/95/6 153/52/6
f 300/33/4 298/36/4 299/130/4 297/30/4
f 204/38/4 202/79/4 203/67/4 201/39/4
f 338/99/4 340/100/4 339/66/4 337/65/4
f 116/76/3 115/41/3 113/44/3 114/106/3
f 104/141/3 102/142/3 103/123/3 101/122/3
f 348/63/2 346/72/2 347/73/2 345/64/2
