# Blender 5.0.1
# www.blender.org
mtllib BP_TrophyCow.mtl
o SM_CowTrophy.001
v 19.000004 49.750008 102.000000
v -31.000004 49.749992 52.000004
v -30.999996 49.749992 102.000000
v 18.999996 49.750008 51.999996
v 19.000011 12.250006 102.000000
v 18.999996 49.750008 51.999996
v 19.000004 49.750008 102.000000
v 19.000004 12.250006 51.999996
v -30.999989 12.249994 102.000000
v 19.000004 12.250006 51.999996
v 19.000011 12.250006 102.000000
v -30.999996 12.249994 52.000004
v -30.999996 49.749992 102.000000
v -30.999996 12.249994 52.000004
v -30.999989 12.249994 102.000000
v -31.000004 49.749992 52.000004
v -30.999996 12.249994 52.000004
v -31.000004 49.749992 52.000004
v 18.999996 49.750008 51.999996
v 19.000004 12.250006 51.999996
v 19.000004 49.750008 102.000000
v -30.999996 49.749992 102.000000
v 19.000011 12.250006 102.000000
v -30.999989 12.249994 102.000000
v -30.999990 30.999994 108.250000
v -37.249992 30.999994 89.500000
v -37.249992 30.999994 108.250000
v -30.999994 30.999994 89.500000
v -30.999990 24.749994 108.250000
v -30.999994 30.999994 89.500000
v -30.999990 30.999994 108.250000
v -30.999992 24.749994 89.500000
v -37.249992 24.749992 108.250000
v -30.999992 24.749994 89.500000
v -30.999990 24.749994 108.250000
v -37.249992 24.749992 89.500000
v -37.249992 30.999994 108.250000
v -37.249992 24.749992 89.500000
v -37.249992 24.749992 108.250000
v -37.249992 30.999994 89.500000
v -37.249992 24.749992 89.500000
v -37.249992 30.999994 89.500000
v -30.999994 30.999994 89.500000
v -30.999992 24.749994 89.500000
v -30.999990 30.999994 108.250000
v -37.249992 30.999994 108.250000
v -30.999990 24.749994 108.250000
v -37.249992 24.749992 108.250000
v 25.250010 31.000006 108.250000
v 19.000006 31.000006 89.500000
v 19.000010 31.000006 108.250000
v 25.250006 31.000006 89.500000
v 25.250010 24.750006 108.250000
v 25.250006 31.000006 89.500000
v 25.250010 31.000006 108.250000
v 25.250008 24.750006 89.500000
v 19.000010 24.750004 108.250000
v 25.250008 24.750006 89.500000
v 25.250010 24.750006 108.250000
v 19.000008 24.750004 89.500000
v 19.000010 31.000006 108.250000
v 19.000008 24.750004 89.500000
v 19.000010 24.750004 108.250000
v 19.000006 31.000006 89.500000
v 19.000008 24.750004 89.500000
v 19.000006 31.000006 89.500000
v 25.250006 31.000006 89.500000
v 25.250008 24.750006 89.500000
v 25.250010 31.000006 108.250000
v 19.000010 31.000006 108.250000
v 25.250010 24.750006 108.250000
v 19.000010 24.750004 108.250000
vn -0.0000 1.0000 -0.0000
vn 1.0000 -0.0000 -0.0000
vn -0.0000 -1.0000 -0.0000
vn -1.0000 -0.0000 -0.0000
vn -0.0000 -0.0000 -1.0000
vn -0.0000 -0.0000 1.0000
vt 0.093750 0.562500
vt 0.218750 0.562500
vt 0.218750 0.812500
vt 0.093750 0.812500
vt 0.390625 0.999969
vt 0.375000 0.999969
vt 0.375000 0.968750
vt 0.390625 0.968750
vt 0.343750 0.999969
vt 0.218750 0.999969
vt 0.343750 0.812500
vt 0.312500 0.562500
vt 0.437500 0.562500
vt 0.437500 0.812500
vt 0.312500 0.812500
vt 0.000031 0.562500
vt 0.000031 0.812500
vt 0.390625 0.875000
vt 0.406250 0.875000
vt 0.406250 0.968750
vt 0.359375 0.968750
vt 0.359375 0.999969
vt 0.375000 0.875000
vt 0.359375 0.875000
vt 0.343750 0.875000
vt 0.343750 0.968750
vt 0.234375 0.812500
vt 0.234375 0.999969
vt 0.093750 0.999969
s 1
usemtl MI_CowHead
f 12/1/3 10/2/3 11/3/3 9/4/3
f 68/5/5 65/6/5 66/7/5 67/8/5
f 20/9/5 17/10/5 18/3/5 19/11/5
f 4/12/1 2/13/1 3/14/1 1/15/1
f 8/2/2 6/12/2 7/15/2 5/3/2
f 16/16/4 14/1/4 15/4/4 13/17/4
f 52/18/1 50/19/1 51/20/1 49/8/1
f 72/21/6 71/7/6 69/6/6 70/22/6
f 44/5/5 41/6/5 42/7/5 43/8/5
f 32/23/2 30/18/2 31/8/2 29/7/2
f 28/18/1 26/19/1 27/20/1 25/8/1
f 60/24/3 58/23/3 59/7/3 57/21/3
f 40/25/4 38/24/4 39/21/4 37/26/4
f 64/25/4 62/24/4 63/21/4 61/26/4
f 56/23/2 54/18/2 55/8/2 53/7/2
f 36/24/3 34/23/3 35/7/3 33/21/3
f 48/21/6 47/7/6 45/6/6 46/22/6
f 24/4/6 23/27/6 21/28/6 22/29/6
