# Blender 5.0.1
# www.blender.org
mtllib BP_TorchLever.mtl
o SM_Torch_Wall.001
v 67.491455 -43.750050 21.170029
v 23.305962 -43.750355 65.355461
v 67.482681 -43.750122 38.856457
v 32.144791 -43.750370 74.194305
v 14.467163 -68.750565 109.549530
v -12.049324 -68.750526 83.033005
v 5.628365 -68.750404 65.355347
v 32.144840 -68.750443 91.871864
v 67.491486 -56.250050 21.169975
v 23.305992 -56.250359 65.355408
v 67.491455 -43.750050 21.170029
v 23.305962 -43.750355 65.355461
v 32.144791 -43.750370 74.194305
v 67.482719 -56.250126 38.856403
v 67.482681 -43.750122 38.856457
v 32.144821 -56.250374 74.194244
v 10.047691 -37.500412 69.774887
v 36.564186 -37.500374 78.613754
v 18.886524 -37.500347 60.936062
v 27.725346 -37.500435 87.452576
v 23.305992 -56.250359 65.355408
v 67.482719 -56.250126 38.856403
v 32.144821 -56.250374 74.194244
v 67.491486 -56.250050 21.169975
v 10.047752 -62.500412 69.774780
v 10.047691 -37.500412 69.774887
v 18.886524 -37.500347 60.936062
v 18.886593 -62.500351 60.935955
v 27.725346 -37.500435 87.452576
v 36.564255 -62.500381 78.613647
v 36.564186 -37.500374 78.613754
v 27.725414 -62.500443 87.452469
v 10.047752 -62.500412 69.774780
v 36.564255 -62.500381 78.613647
v 27.725414 -62.500443 87.452469
v 18.886593 -62.500351 60.935955
v 5.628258 -31.250404 65.355499
v 14.467056 -31.250568 109.549683
v 32.144741 -31.250446 91.872025
v -12.049431 -31.250528 83.033157
v -12.049324 -68.750526 83.033005
v -12.049431 -31.250528 83.033157
v 5.628258 -31.250404 65.355499
v 5.628365 -68.750404 65.355347
v 14.467056 -31.250568 109.549683
v 32.144840 -68.750443 91.871864
v 32.144741 -31.250446 91.872025
v 14.467163 -68.750565 109.549530
v 80.000046 -12.500240 73.750290
v 80.000107 -12.499866 -13.749706
v 67.500046 -12.500275 73.750290
v 67.500107 -12.499901 -13.749714
v 67.500046 -12.500275 73.750290
v 67.500244 -87.500275 73.749969
v 80.000046 -12.500240 73.750290
v 80.000244 -87.500244 73.749969
v 80.000305 -87.499863 -13.750027
v 80.000244 -87.500244 73.749969
v 67.500305 -87.499901 -13.750034
v 67.500244 -87.500275 73.749969
v 80.000107 -12.499866 -13.749706
v 80.000305 -87.499863 -13.750027
v 67.500107 -12.499901 -13.749714
v 67.500305 -87.499901 -13.750034
v 67.500046 -12.500275 73.750290
v 67.500107 -12.499901 -13.749714
v 67.500244 -87.500275 73.749969
v 67.500305 -87.499901 -13.750034
v 27.725414 -62.500443 87.452469
v 5.628365 -68.750404 65.355347
v 10.047752 -62.500412 69.774780
v 32.144840 -68.750443 91.871864
v 5.628258 -31.250404 65.355499
v 32.144741 -31.250446 91.872025
v 27.725346 -37.500435 87.452576
v 10.047691 -37.500412 69.774887
v 18.886593 -62.500351 60.935955
v 18.886524 -37.500347 60.936062
v 23.305962 -43.750355 65.355461
v 36.564186 -37.500374 78.613754
v 23.305992 -56.250359 65.355408
v 32.144791 -43.750370 74.194305
v 36.564255 -62.500381 78.613647
v 32.144821 -56.250374 74.194244
v 31.886822 -31.250448 92.129944
v 5.370338 -31.250406 65.613426
v 5.370445 -68.750404 65.613266
v 31.886921 -68.750450 92.129791
vn -0.0000 1.0000 -0.0000
vn -0.0000 -1.0000 -0.0000
vn -0.7071 -0.0000 -0.7071
vn 0.7071 -0.0000 0.7071
vn -0.0000 -0.0000 1.0000
vn -0.0000 -0.0000 -1.0000
vn -1.0000 -0.0000 -0.0000
vn 0.7071 -0.0000 -0.7071
vn -0.7071 -0.0000 0.7071
vt 0.812500 0.750000
vt 0.875000 0.687500
vt 0.875000 0.999969
vt 0.812500 0.999969
vt 0.656250 0.375000
vt 0.656250 0.562500
vt 0.531250 0.562500
vt 0.531250 0.375000
vt 0.562500 0.999969
vt 0.562500 0.937500
vt 0.687500 0.937500
vt 0.687500 0.999969
vt 0.656250 0.250000
vt 0.843750 0.250000
vt 0.843750 0.375000
vt 0.562500 0.812500
vt 0.500000 0.937500
vt 0.500000 0.812500
vt 1.000000 0.999969
vt 0.937500 0.999969
vt 1.000000 0.750000
vt 0.937500 0.687500
vt 0.750000 0.999969
vt 0.750000 0.750000
vt 0.750000 0.937500
vt 0.687500 0.812500
vt 0.750000 0.812500
vt 0.437500 0.500000
vt 0.062500 0.500000
vt 0.062500 0.437500
vt 0.437500 0.437500
vt 0.562500 0.750000
vt 0.687500 0.750000
vt 0.968750 0.562500
vt 0.843750 0.562500
vt 0.968750 0.375000
vt 0.843750 0.687500
vt 0.656250 0.687500
vt 0.062500 0.937500
vt 0.000031 0.937500
vt 0.000031 0.500000
vt 0.437500 0.937500
vt 0.500000 0.500000
vt 0.437500 0.999969
vt 0.062500 0.999969
vt 1.000000 0.406250
vt 1.000000 0.531250
vt 0.500000 0.531250
vt 0.500000 0.406250
vt 0.687500 0.218750
vt 0.812500 0.218750
vt 0.687500 0.718750
vt 0.812500 0.718750
vt 0.656250 0.843750
vt 0.593750 0.843750
vt 0.656250 0.906250
vt 0.593750 0.906250
s 1
usemtl MI_Torch_Wall
f 3/1/1 1/2/1 2/3/1
f 4/4/1 3/1/1 2/3/1
f 40/5/1 38/6/1 39/7/1 37/8/1
f 32/9/4 30/10/4 31/11/4 29/12/4
f 43/13/3 44/14/3 41/15/3 42/5/3
f 36/16/2 34/10/2 35/17/2 33/18/2
f 23/19/2 21/20/2 22/21/2
f 24/22/2 22/21/2 21/20/2
f 10/20/3 12/3/3 11/2/3 9/22/3
f 16/23/4 14/24/4 15/1/4 13/4/4
f 20/25/1 18/11/1 19/26/1 17/27/1
f 64/28/6 63/29/6 61/30/6 62/31/6
f 27/26/3 28/16/3 25/32/3 26/33/3
f 8/34/2 5/35/2 6/15/2 7/36/2
f 48/35/4 46/37/4 47/38/4 45/6/4
f 52/29/1 51/39/1 49/40/1 50/41/1
f 60/42/2 59/28/2 57/43/2 58/17/2
f 56/44/5 55/45/5 53/39/5 54/42/5
f 71/46/8 69/47/8 70/36/8
f 72/34/8 70/36/8 69/47/8
f 75/48/8 73/8/8 74/7/8
f 76/49/8 73/8/8 75/48/8
f 76/50/8 70/14/8 73/13/8
f 71/51/8 70/14/8 76/50/8
f 75/52/8 74/38/8 69/53/8
f 69/53/8 74/38/8 72/37/8
f 79/54/8 77/16/8 78/26/8
f 78/26/8 80/11/8 79/54/8
f 81/55/8 77/16/8 79/54/8
f 82/56/8 79/54/8 80/11/8
f 77/16/8 81/55/8 83/10/8
f 82/56/8 80/11/8 84/57/8
f 83/10/8 81/55/8 84/57/8
f 84/57/8 80/11/8 83/10/8
f 66/29/7 68/28/7 67/42/7 65/39/7
usemtl MI_Torch_Wall
f 88/35/9 85/6/9 86/5/9 87/15/9
