# Blender 5.0.1
# www.blender.org
mtllib BP_Tower_Door_Exit.mtl
o TowerDoor_L_Open.001
v -50.007000 25.000326 249.999786
v -50.006512 25.000296 200.000458
v -50.009060 25.000631 349.992401
v 99.982780 25.000677 349.984619
v 49.991505 25.000299 349.992432
v 99.985954 25.000422 299.997589
v 49.992939 25.000460 149.999908
v 99.993614 25.000441 99.999939
v 49.994068 25.000406 100.000626
v 149.993668 25.000309 300.000305
v 149.993668 25.000324 200.000381
v 149.993668 25.000340 100.000458
v 149.993668 25.000355 0.000549
v 99.993858 25.000380 0.000893
v -50.008877 25.000174 449.992432
v 49.991962 25.000483 449.992493
v -50.009476 125.000992 449.992432
v 49.991531 125.001389 449.992523
v 99.985954 25.000422 299.997589
v 149.993668 25.000309 300.000305
v 99.988266 125.000565 299.998779
v 149.993515 125.000412 300.000366
v -50.009060 25.000631 349.992401
v -50.009155 125.001282 349.992371
v -100.019249 25.000704 349.984802
v -100.020248 125.000748 349.984253
v 99.982780 25.000677 349.984619
v 99.982010 125.000763 349.984924
v 49.991505 25.000299 349.992432
v 49.991470 125.000946 349.992432
v -50.007797 125.000427 250.000351
v -100.011276 125.000549 250.001221
v -50.009155 125.001282 349.992371
v -100.020248 125.000748 349.984253
v 99.985954 25.000422 299.997589
v 99.988266 125.000565 299.998779
v 99.982780 25.000677 349.984619
v 99.982010 125.000763 349.984924
v -100.011276 125.000549 250.001221
v -100.010979 25.000368 250.001038
v -100.020248 125.000748 349.984253
v -100.019249 25.000704 349.984802
v -50.007000 25.000326 249.999786
v -50.009060 25.000631 349.992401
v -100.010979 25.000368 250.001038
v -100.019249 25.000704 349.984802
v -50.007797 125.000427 250.000351
v -50.007019 125.000351 200.000854
v -50.007000 25.000326 249.999786
v -50.006512 25.000296 200.000458
v -0.007705 125.000435 200.000366
v -0.007064 125.000435 150.000931
v -0.006998 25.000366 199.999802
v -0.006525 25.000366 150.000549
v 49.992264 125.000504 150.000488
v 49.993546 125.000473 100.001007
v 49.992939 25.000460 149.999908
v 49.994068 25.000406 100.000626
v 99.993614 25.000441 99.999939
v 49.994068 25.000406 100.000626
v 99.992905 125.000488 100.000511
v 49.993546 125.000473 100.001007
v 49.992939 25.000460 149.999908
v -0.006525 25.000366 150.000549
v 49.992264 125.000504 150.000488
v -0.007064 125.000435 150.000931
v -0.006998 25.000366 199.999802
v -50.006512 25.000296 200.000458
v -0.007705 125.000435 200.000366
v -50.007019 125.000351 200.000854
v -50.007000 25.000326 249.999786
v -100.010979 25.000368 250.001038
v -50.007797 125.000427 250.000351
v -100.011276 125.000549 250.001221
v 99.993614 25.000441 99.999939
v 99.992905 125.000488 100.000511
v 99.993858 25.000380 0.000893
v 99.993546 125.000458 0.000603
v 49.991962 25.000483 449.992493
v -50.008877 25.000174 449.992432
v 49.991470 125.000946 349.992432
v 49.991531 125.001389 449.992523
v 49.991505 25.000299 349.992432
v 49.991962 25.000483 449.992493
v -50.009060 25.000631 349.992401
v -50.008877 25.000174 449.992432
v -50.009155 125.001282 349.992371
v -50.009476 125.000992 449.992432
v -50.009476 125.000992 449.992432
v 49.991531 125.001389 449.992523
v 49.991470 125.000946 349.992432
v 200.001389 25.000515 299.998962
v 199.999466 125.000626 299.999573
v 200.000198 125.000504 200.000458
v 199.999466 125.000626 299.999573
v 200.001007 25.000422 200.000381
v 200.001389 25.000515 299.998962
v 199.997208 25.000542 100.000198
v 199.997177 125.000610 100.000519
v 199.996902 25.000519 0.000717
v 199.996841 125.000603 0.000610
v 99.982010 125.000763 349.984924
v 49.992264 125.000504 150.000488
v 99.988266 125.000565 299.998779
v 99.992905 125.000488 100.000511
v 49.993546 125.000473 100.001007
v 149.993515 125.000412 300.000366
v 149.993515 125.000427 200.000458
v 149.993515 125.000458 100.000534
v 149.993515 125.000473 0.000610
v 99.993546 125.000458 0.000603
v -0.007064 125.000435 150.000931
v -0.007705 125.000435 200.000366
v -50.007019 125.000351 200.000854
v -0.006525 25.000366 150.000549
v -0.006998 25.000366 199.999802
v -50.006512 25.000296 200.000458
v 199.996902 25.000519 0.000717
v 199.997208 25.000542 100.000198
v 200.001389 25.000515 299.998962
v 199.999466 125.000626 299.999573
v 199.997177 125.000610 100.000519
v 199.996841 125.000603 0.000610
vn 0.2197 0.9756 -0.0000
vn -0.0000 -0.0000 -0.0000
vn -0.0000 -1.0000 -0.0000
vn -0.0000 -0.0000 1.0000
vn -0.0002 -0.0000 1.0000
vn 0.0002 -0.0000 1.0000
vn -0.0000 1.0000 -0.0000
vn 1.0000 -0.0000 0.0001
vn -1.0000 -0.0000 -0.0001
vn -1.0000 -0.0000 -0.0000
vn -0.0000 -0.0000 -1.0000
vn 1.0000 -0.0000 -0.0000
vt 0.250000 0.875000
vt 0.250000 0.625000
vt 0.250000 0.500000
vt 0.625000 0.750000
vt 0.625000 0.875000
vt 0.500000 0.875000
vt 0.500000 0.375000
vt 0.625000 0.250000
vt 0.500000 0.250000
vt 0.750000 0.750000
vt 0.750000 0.500000
vt 0.750000 0.250000
vt 0.875000 0.999969
vt 0.875000 0.750000
vt 0.750000 0.999969
vt 0.625000 0.007812
vt 0.750000 0.007812
vt 1.000000 0.750000
vt 1.000000 0.875000
vt 0.750000 0.875000
vt 1.000000 0.999969
vt 0.125000 0.875000
vt 0.125000 0.625000
vt 0.000046 0.250000
vt 0.250000 0.250000
vt 0.000046 0.500000
vt 0.375000 0.375000
vt 0.375000 0.500000
vt 0.000046 0.000488
vt 0.250000 0.000488
s 1
usemtl MI_Tower_Door_2
f 3/1/2 1/2/1 2/3/2
f 6/4/3 4/5/3 5/6/3
f 7/7/3 6/4/3 5/6/3
f 7/7/3 8/8/3 6/4/3
f 7/7/3 9/9/3 8/8/3
f 8/8/3 10/10/3 6/4/3
f 8/8/3 11/11/3 10/10/3
f 8/8/3 12/12/3 11/11/3
f 72/13/11 74/14/11 73/10/11 71/15/11
f 123/16/7 110/17/7 109/12/7 122/8/7
f 36/18/8 38/19/8 37/20/8 35/10/8
f 95/21/12 97/15/12 96/10/12 94/18/12
f 48/13/10 50/14/10 49/10/10 47/15/10
f 44/1/3 46/22/3 45/23/3 43/2/3
f 28/19/6 30/21/6 29/15/6 27/20/6
f 32/23/7 34/22/7 33/1/7 31/2/7
f 8/8/3 14/16/3 13/17/3 12/12/3
f 64/21/11 66/18/11 65/14/11 63/13/11
f 76/15/10 78/21/10 77/18/10 75/10/10
f 79/21/3 80/15/3 44/10/3 5/18/3
f 98/24/12 99/25/12 94/3/12 96/26/12
f 52/13/10 54/14/10 53/10/10 51/15/10
f 24/19/5 26/18/5 25/10/5 23/20/5
f 86/21/10 88/15/10 87/10/10 85/18/10
f 40/10/9 42/15/9 41/21/9 39/18/9
f 68/21/11 70/18/11 69/14/11 67/13/11
f 60/21/11 62/18/11 61/14/11 59/13/11
f 56/13/10 58/14/10 57/10/10 55/15/10
f 20/15/4 22/10/4 21/14/4 19/13/4
f 93/14/4 22/10/4 20/15/4 92/13/4
f 90/21/7 91/18/7 33/10/7 89/15/7
f 110/17/7 111/16/7 105/8/7 109/12/7
f 103/7/7 91/6/7 102/5/7
f 103/7/7 102/5/7 104/4/7
f 103/7/7 104/4/7 105/8/7
f 103/7/7 105/8/7 106/9/7
f 105/8/7 104/4/7 107/10/7
f 105/8/7 107/10/7 108/11/7
f 105/8/7 108/11/7 109/12/7
f 12/12/3 13/17/3 118/16/3 119/8/3
f 91/6/7 103/7/7 112/27/7
f 113/28/7 91/6/7 112/27/7
f 113/28/7 31/2/7 91/6/7
f 113/28/7 114/3/7 31/2/7
f 31/2/7 33/1/7 91/6/7
f 116/28/3 115/27/3 7/7/3
f 116/28/3 7/7/3 44/1/3
f 7/7/3 5/6/3 44/1/3
f 116/28/3 44/1/3 117/3/3
f 82/21/12 84/15/12 83/10/12 81/18/12
f 11/11/3 12/12/3 119/8/3
f 10/10/3 11/11/3 119/8/3
f 120/4/3 10/10/3 119/8/3
f 107/10/7 121/4/7 122/8/7
f 108/11/7 107/10/7 122/8/7
f 109/12/7 108/11/7 122/8/7
f 100/29/12 101/30/12 99/25/12 98/24/12
f 16/10/4 18/18/4 17/21/4 15/15/4
