# Blender 5.0.1
# www.blender.org
mtllib BP_TowerGilderMerchant.mtl
o SK_Guilder.001
v -43.749962 -96.996719 31.250015
v -56.250042 -96.996704 25.000000
v -43.750038 -90.746735 25.000000
v 56.249958 -96.996735 25.000000
v 43.749977 -96.996735 31.250015
v 43.749962 -90.746750 25.000000
v 43.749962 -90.746750 25.000000
v 43.749985 -90.746750 112.500015
v -43.750031 -90.746735 112.500015
v -43.750038 -90.746735 25.000000
v -43.749985 -96.996727 112.500015
v -43.749962 -96.996719 31.250015
v -43.750038 -90.746735 25.000000
v -43.750031 -90.746735 112.500015
v 43.749977 -96.996735 31.250015
v 43.749981 -96.996735 112.500015
v 43.749985 -90.746750 112.500015
v 43.749962 -90.746750 25.000000
v 56.249966 -96.996742 112.500015
v 56.249958 -96.996735 0.000015
v 56.249966 103.246758 0.000015
v 56.249981 103.246735 112.500015
v -56.250019 103.246758 112.500015
v 56.249981 103.246735 112.500015
v 56.249966 103.246758 0.000015
v -56.250023 103.246758 0.000015
v -56.250019 103.246758 112.500015
v -56.250023 103.246758 0.000015
v -56.250042 -96.996704 0.000015
v -56.250050 -96.996712 112.500015
v -56.249939 -71.753235 -0.000023
v -74.999939 -71.753235 -0.000023
v -74.999908 -21.753241 -0.000023
v -56.249939 -21.753241 -0.000023
v -56.249844 -21.753258 112.500000
v -56.249844 -71.753250 112.500000
v -56.249939 -71.753235 -0.000023
v -56.249939 -21.753241 -0.000023
v -74.999908 -21.753241 -0.000023
v -74.999939 -71.753235 -0.000023
v -74.999939 -71.753235 112.500000
v -74.999908 -21.753241 112.500000
v -56.249939 -71.753235 -0.000023
v -56.249844 -71.753250 112.500000
v -74.999939 -71.753235 112.500000
v -74.999939 -71.753235 -0.000023
v -74.999939 -71.753235 112.500000
v -56.249844 -71.753250 112.500000
v -56.249844 -21.753258 112.500000
v -74.999908 -21.753241 112.500000
v -56.249939 -21.753241 -0.000023
v -74.999908 -21.753241 -0.000023
v -74.999908 -21.753241 112.500000
v -56.249844 -21.753258 112.500000
v 56.250099 3.003292 193.750153
v -56.249901 3.003292 193.750153
v -56.249901 3.003292 300.000153
v 56.250103 3.003284 300.000153
v -56.249901 3.003292 300.000153
v -56.249901 -96.996704 300.000153
v 56.250103 -96.996696 300.000153
v 56.250103 3.003284 300.000153
v 43.750107 -90.746735 237.500122
v -43.749893 -90.746735 237.500122
v -43.749893 -90.746719 193.750153
v 43.750107 -90.746735 193.750153
v 43.750107 -96.996704 193.750153
v 43.750107 -96.996704 237.500122
v 43.750107 -90.746735 237.500122
v 43.750107 -90.746735 193.750153
v -43.749893 -96.996704 237.500122
v -43.749893 -96.996704 193.750153
v -43.749893 -90.746719 193.750153
v -43.749893 -90.746735 237.500122
v 43.750107 -96.996704 237.500122
v -43.749893 -96.996704 237.500122
v -43.749893 -90.746735 237.500122
v 43.750107 -90.746735 237.500122
v 12.500213 -103.246758 225.000031
v -12.499786 -103.246750 225.000031
v -12.499786 -103.246750 181.250015
v 12.500213 -103.246758 181.250015
v 12.500213 -103.246758 225.000031
v 12.500213 -103.246758 181.250015
v 12.500213 -90.746765 181.250015
v 12.500213 -90.746765 225.000031
v -12.499786 -103.246750 181.250015
v -12.499786 -90.746750 181.250015
v 12.500213 -90.746765 181.250015
v 12.500213 -103.246758 181.250015
v -12.499786 -103.246750 225.000031
v -12.499786 -90.746750 225.000031
v -12.499786 -90.746750 181.250015
v -12.499786 -103.246750 181.250015
v 12.500213 -90.746765 225.000031
v -12.499786 -90.746750 225.000031
v -12.499786 -103.246750 225.000031
v 12.500213 -103.246758 225.000031
v -12.499786 -90.746750 225.000031
v 12.500213 -90.746765 225.000031
v 12.500213 -90.746765 181.250015
v -12.499786 -90.746750 181.250015
v -75.000000 -71.753235 162.499969
v -93.750000 -71.753235 162.499969
v -93.749985 -21.753235 162.499969
v -75.000000 -21.753241 162.499969
v -75.000000 -71.753235 174.999954
v -75.000000 -71.753235 162.499969
v -75.000000 -21.753241 162.499969
v -75.000000 -21.753239 174.999954
v -56.249981 -71.753250 174.999954
v -75.000000 -71.753235 174.999954
v -75.000000 -21.753239 174.999954
v -56.249981 -21.753252 174.999954
v -93.749985 -21.753235 162.499969
v -93.750000 -71.753235 162.499969
v -93.750000 -71.753235 249.999954
v -93.749985 -21.753239 249.999954
v -56.249981 -71.753250 249.999954
v -56.249981 -71.753250 174.999954
v -56.249981 -21.753252 174.999954
v -56.249981 -21.753256 249.999954
v -93.750000 -71.753235 249.999954
v -56.249981 -71.753250 249.999954
v -56.249981 -21.753256 249.999954
v -93.749985 -21.753239 249.999954
v 75.000000 -71.753235 162.500031
v 75.000000 -21.753241 162.500031
v 93.749969 -21.753237 162.500031
v 93.750000 -71.753235 162.500031
v 75.000000 -71.753235 175.000015
v 75.000000 -21.753241 175.000015
v 75.000000 -21.753241 162.500031
v 75.000000 -71.753235 162.500031
v 56.249969 -71.753250 175.000015
v 56.249969 -21.753252 175.000015
v 75.000000 -21.753241 175.000015
v 75.000000 -71.753235 175.000015
v 93.749969 -21.753237 162.500031
v 93.749969 -21.753241 250.000031
v 93.750000 -71.753235 250.000031
v 93.750000 -71.753235 162.500031
v 56.249969 -71.753250 250.000031
v 56.249969 -21.753258 250.000031
v 56.249969 -21.753252 175.000015
v 56.249969 -71.753250 175.000015
v 93.750000 -71.753235 250.000031
v 93.749969 -21.753241 250.000031
v 56.249969 -21.753258 250.000031
v 56.249969 -71.753250 250.000031
v 56.250031 -71.753235 -0.000023
v 56.250031 -21.753237 -0.000023
v 75.000000 -21.753237 -0.000023
v 75.000031 -71.753235 -0.000023
v 56.249939 -21.753254 112.500000
v 56.250031 -21.753237 -0.000023
v 56.250031 -71.753235 -0.000023
v 56.249939 -71.753250 112.500000
v 75.000000 -21.753237 -0.000023
v 75.000000 -21.753237 112.500000
v 75.000031 -71.753235 112.500000
v 75.000031 -71.753235 -0.000023
v 56.250031 -71.753235 -0.000023
v 75.000031 -71.753235 -0.000023
v 75.000031 -71.753235 112.500000
v 56.249939 -71.753250 112.500000
v 75.000031 -71.753235 112.500000
v 75.000000 -21.753237 112.500000
v 56.249939 -21.753254 112.500000
v 56.249939 -71.753250 112.500000
v 56.250031 -21.753237 -0.000023
v 56.249939 -21.753254 112.500000
v 75.000000 -21.753237 112.500000
v 75.000000 -21.753237 -0.000023
v -12.499939 -65.746712 50.000019
v -37.499969 -65.746712 50.000019
v -37.499969 -65.746704 0.000008
v -12.499939 -65.746712 0.000008
v -12.499939 -65.746712 50.000019
v -12.499939 -65.746712 0.000008
v -12.499939 -28.246710 0.000008
v -12.499939 -28.246710 50.000019
v -37.499969 -65.746704 0.000008
v -37.499969 -28.246710 0.000008
v -12.499939 -28.246710 0.000008
v -12.499939 -65.746712 0.000008
v -37.499969 -65.746712 50.000019
v -37.499969 -28.246710 50.000019
v -37.499969 -28.246710 0.000008
v -37.499969 -65.746704 0.000008
v -12.499939 -28.246710 50.000019
v -37.499969 -28.246710 50.000019
v -37.499969 -65.746712 50.000019
v -12.499939 -65.746712 50.000019
v -37.499969 -28.246710 50.000019
v -12.499939 -28.246710 50.000019
v -12.499939 -28.246710 0.000008
v -37.499969 -28.246710 0.000008
v 37.500061 -65.746719 50.000019
v 12.500061 -65.746712 50.000019
v 12.500061 -65.746712 0.000008
v 37.500061 -65.746719 0.000008
v 37.500061 -65.746719 50.000019
v 37.500061 -65.746719 0.000008
v 37.500061 -28.246717 0.000008
v 37.500061 -28.246717 50.000019
v 12.500061 -65.746712 0.000008
v 12.500061 -28.246717 0.000008
v 37.500061 -28.246717 0.000008
v 37.500061 -65.746719 0.000008
v 12.500061 -65.746712 50.000019
v 12.500061 -28.246717 50.000019
v 12.500061 -28.246717 0.000008
v 12.500061 -65.746712 0.000008
v 37.500061 -28.246717 50.000019
v 12.500061 -28.246717 50.000019
v 12.500061 -65.746712 50.000019
v 37.500061 -65.746719 50.000019
v 12.500061 -28.246717 50.000019
v 37.500061 -28.246717 50.000019
v 37.500061 -28.246717 0.000008
v 12.500061 -28.246717 0.000008
v -12.499878 40.503277 50.000000
v -37.499908 40.503269 50.000000
v -37.499908 40.503284 -0.000000
v -12.499878 40.503277 -0.000000
v -12.499878 40.503277 50.000000
v -12.499878 40.503277 -0.000000
v -12.499878 78.003281 -0.000000
v -12.499878 78.003281 50.000000
v -37.499908 40.503284 -0.000000
v -37.499908 78.003281 -0.000000
v -12.499878 78.003281 -0.000000
v -12.499878 40.503277 -0.000000
v -37.499908 40.503269 50.000000
v -37.499908 78.003281 50.000000
v -37.499908 78.003281 -0.000000
v -37.499908 40.503284 -0.000000
v -12.499878 78.003281 50.000000
v -37.499908 78.003281 50.000000
v -37.499908 40.503269 50.000000
v -12.499878 40.503277 50.000000
v -37.499908 78.003281 50.000000
v -12.499878 78.003281 50.000000
v -12.499878 78.003281 -0.000000
v -37.499908 78.003281 -0.000000
v 37.500122 40.503269 50.000000
v 12.500122 40.503269 50.000000
v 12.500122 40.503277 -0.000000
v 37.500122 40.503269 -0.000000
v 37.500122 40.503269 50.000000
v 37.500122 40.503269 -0.000000
v 37.500122 78.003265 -0.000000
v 37.500122 78.003265 50.000000
v 12.500122 40.503277 -0.000000
v 12.500122 78.003265 -0.000000
v 37.500122 78.003265 -0.000000
v 37.500122 40.503269 -0.000000
v 12.500122 40.503269 50.000000
v 12.500122 78.003265 50.000000
v 12.500122 78.003265 -0.000000
v 12.500122 40.503277 -0.000000
v 37.500122 78.003265 50.000000
v 12.500122 78.003265 50.000000
v 12.500122 40.503269 50.000000
v 37.500122 40.503269 50.000000
v 12.500122 78.003265 50.000000
v 37.500122 78.003265 50.000000
v 37.500122 78.003265 -0.000000
v 12.500122 78.003265 -0.000000
v -43.749962 -96.996719 0.000008
v -43.749985 -96.996727 112.500015
v -56.250050 -96.996712 112.500015
v -56.250042 -96.996704 0.000015
v 43.749981 -96.996735 112.500015
v 43.749977 -96.996735 0.000008
v 56.249958 -96.996735 0.000015
v 56.249966 -96.996742 112.500015
v -56.615154 78.246765 56.250000
v -56.615154 84.496765 56.250000
v -56.615139 84.496765 50.000000
v -56.615154 78.246765 50.000000
v -56.615154 34.496769 56.250000
v -56.615154 40.746769 56.250000
v -56.615139 40.746769 50.000000
v -56.615154 34.496769 50.000000
v -18.749910 -91.455902 75.000000
v -24.999910 -91.455902 75.000000
v -24.999910 -91.455887 68.750000
v -18.749910 -91.455902 68.750000
v 25.000092 -91.455902 75.000000
v 18.750092 -91.455902 75.000000
v 18.750092 -91.455887 68.750000
v 25.000092 -91.455902 68.750000
v 56.730003 78.246765 56.250000
v 56.730003 78.246765 50.000000
v 56.730015 84.496765 50.000000
v 56.730003 84.496765 56.250000
v 56.730003 34.496769 56.250000
v 56.730003 34.496769 50.000000
v 56.730015 40.746769 50.000000
v 56.730003 40.746769 56.250000
v 56.249893 -96.996719 193.750000
v 56.249893 -96.996712 112.499985
v 56.249893 3.003283 112.499985
v 56.249916 3.003268 193.750000
v -56.250084 3.003299 193.750000
v 56.249916 3.003268 193.750000
v 56.249893 3.003283 112.499985
v -56.250088 3.003299 112.499985
v -56.250084 3.003299 193.750000
v -56.250088 3.003299 112.499985
v -56.250107 -96.996681 112.499985
v -56.250114 -96.996689 193.750000
v -43.750031 -96.996696 112.499985
v -43.750031 -96.996704 193.750000
v -56.250114 -96.996689 193.750000
v -56.250107 -96.996681 112.499985
v 43.749908 -96.996712 193.750000
v 43.749908 -96.996712 112.499985
v 56.249893 -96.996712 112.499985
v 56.249893 -96.996719 193.750000
v 43.749893 -90.746727 112.499985
v 43.749916 -90.746727 193.750000
v -43.750099 -90.746712 193.750000
v -43.750107 -90.746704 112.499985
v -43.750095 -96.996696 193.750000
v -43.750031 -96.996696 112.499985
v -43.750107 -90.746704 112.499985
v -43.750099 -90.746712 193.750000
v 43.749916 -96.996712 193.750000
v 43.749916 -90.746727 193.750000
v 43.749893 -90.746727 112.499985
v -43.750027 -98.298256 212.108414
v -43.750027 -98.298248 155.858383
v 43.749912 -98.298248 155.858383
v 43.749912 -98.298256 212.108414
v -17.483063 -91.455902 218.750031
v -23.733063 -91.455902 218.750031
v -23.733063 -91.455887 212.500031
v -17.483063 -91.455902 212.500031
v 25.000092 -91.455902 218.750031
v 18.750092 -91.455902 218.750031
v 18.750092 -91.455887 212.500031
v 25.000092 -91.455902 212.500031
v -56.250050 -96.996712 112.500015
v -43.749985 -96.996727 112.500015
v -43.750031 -90.746735 112.500015
v -56.250019 103.246758 112.500015
v 43.749985 -90.746750 112.500015
v 56.249981 103.246735 112.500015
v 56.249966 -96.996742 112.500015
v 43.749981 -96.996735 112.500015
v -56.250042 -96.996704 25.000000
v -56.250023 103.246758 25.000000
v -43.750038 -90.746735 25.000000
v 56.249966 103.246758 25.000000
v 43.749962 -90.746750 25.000000
v 56.249958 -96.996735 25.000000
v 56.250103 3.003284 300.000153
v 56.250103 -96.996696 300.000153
v 56.250103 -96.996712 237.500122
v 56.250099 3.003292 193.750153
v 56.250099 -96.996704 193.750153
v 56.250099 -96.996704 193.750153
v 43.750107 -96.996704 193.750153
v 43.750107 -90.746735 193.750153
v 56.250099 3.003292 193.750153
v -43.749893 -90.746719 193.750153
v -56.249901 3.003292 193.750153
v -56.249901 -96.996704 193.750153
v -43.749893 -96.996704 193.750153
v -56.250114 -96.996689 193.750000
v -43.750031 -96.996704 193.750000
v -43.750099 -90.746712 193.750000
v -56.250084 3.003299 193.750000
v 43.749916 -90.746727 193.750000
v 56.249916 3.003268 193.750000
v 56.249893 -96.996719 193.750000
v 43.749916 -96.996712 193.750000
v 56.249893 -96.996712 112.499985
v 43.749908 -96.996712 112.499985
v 43.749893 -90.746727 112.499985
v 56.249893 3.003283 112.499985
v -43.750107 -90.746704 112.499985
v -56.250088 3.003299 112.499985
v -56.250107 -96.996681 112.499985
v -43.750031 -96.996696 112.499985
v -56.249901 -96.996704 193.750153
v -56.249901 -96.996704 237.500122
v -56.249901 3.003292 193.750153
v -56.249901 3.003292 300.000153
v -56.249901 -96.996704 300.000153
v -56.249901 -96.996704 193.750153
v -43.749893 -96.996704 193.750153
v -43.749893 -96.996704 237.500122
v -56.249901 -96.996704 237.500122
v -56.249901 -96.996704 300.000153
v 43.750107 -96.996704 237.500122
v 56.250103 -96.996696 300.000153
v 56.250103 -96.996712 237.500122
v 56.250099 -96.996704 193.750153
v 43.750107 -96.996704 193.750153
v -56.249981 -71.753250 174.999954
v -56.249981 -71.753250 249.999954
v -93.750000 -71.753235 249.999954
v -75.000000 -71.753235 174.999954
v -75.000000 -71.753235 162.499969
v -93.750000 -71.753235 162.499969
v -75.000000 -21.753241 162.499969
v -93.749985 -21.753235 162.499969
v -93.749985 -21.753239 249.999954
v -75.000000 -21.753239 174.999954
v -56.249981 -21.753252 174.999954
v -56.249981 -21.753256 249.999954
v 93.750000 -71.753235 250.000031
v 56.249969 -71.753250 250.000031
v 56.249969 -71.753250 175.000015
v 75.000000 -71.753235 175.000015
v 75.000000 -71.753235 162.500031
v 93.750000 -71.753235 162.500031
v 93.749969 -21.753241 250.000031
v 93.749969 -21.753237 162.500031
v 75.000000 -21.753241 162.500031
v 75.000000 -21.753241 175.000015
v 56.249969 -21.753252 175.000015
v 56.249969 -21.753258 250.000031
vn 0.3333 -0.6667 -0.6667
vn -0.3333 -0.6667 -0.6667
vn -0.0000 -1.0000 -0.0000
vn 1.0000 -0.0000 -0.0000
vn -1.0000 -0.0000 -0.0000
vn -0.0000 1.0000 -0.0000
vn -0.0000 -0.0000 -1.0000
vn -0.0000 -0.0000 1.0000
vn -0.4472 -0.8944 -0.0000
vt 0.023438 0.375000
vt 0.023438 0.382812
vt 0.007812 0.382812
vt 0.132812 0.375000
vt 0.148438 0.382812
vt 0.132812 0.382812
vt 0.343750 0.695312
vt 0.390625 0.695312
vt 0.390625 0.757812
vt 0.343750 0.757812
vt 0.281250 0.429688
vt 0.273438 0.539062
vt 0.273438 0.437500
vt 0.281250 0.539062
vt 0.390625 0.539062
vt 0.398438 0.437500
vt 0.398438 0.539062
vt 0.390625 0.429688
vt 0.140625 0.867188
vt 0.250000 0.867188
vt 0.250000 0.921875
vt 0.140625 0.921875
vt 0.773438 0.742188
vt 0.773438 0.804688
vt 0.796875 0.804688
vt 0.796875 0.742188
vt 0.421875 0.695312
vt 0.421875 0.757812
vt 0.601562 0.867188
vt 0.601562 0.804688
vt 0.554688 0.804688
vt 0.554688 0.867188
vt 0.421875 0.804688
vt 0.390625 0.804688
vt 0.468750 0.695312
vt 0.500000 0.695312
vt 0.500000 0.757812
vt 0.468750 0.757812
vt 0.406250 0.382812
vt 0.429443 0.382812
vt 0.429688 0.242188
vt 0.406250 0.242188
vt 0.320312 0.382812
vt 0.320312 0.320312
vt 0.296875 0.320312
vt 0.296875 0.382812
vt 0.343750 0.382812
vt 0.343750 0.242188
vt 0.320312 0.242188
vt 0.125000 0.648438
vt 0.125000 0.546875
vt 0.140625 0.546875
vt 0.140625 0.648438
vt 0.664062 0.398438
vt 0.804688 0.398438
vt 0.804688 0.539062
vt 0.664062 0.539062
vt 0.265625 0.648438
vt 0.265625 0.750000
vt 0.156250 0.750000
vt 0.156250 0.648438
vt 0.453125 0.757812
vt 0.453125 0.804688
vt 0.812500 0.804688
vt 0.812500 0.742188
vt 0.296875 0.843750
vt 0.328125 0.843750
vt 0.328125 0.859375
vt 0.296875 0.859375
vt 0.250000 0.929688
vt 0.140625 0.929688
vt 0.250000 0.539062
vt 0.250000 0.398438
vt 0.265625 0.398438
vt 0.265625 0.539062
vt 0.429688 0.382812
vt 0.812500 0.875000
vt 0.812500 0.999969
vt 0.671875 0.999969
vt 0.671875 0.875000
vt 0.515625 0.382812
vt 0.515625 0.242188
vt 0.296875 0.546875
vt 0.296875 0.648438
vt 0.281250 0.648438
vt 0.281250 0.546875
vt 0.515625 0.320312
vt 0.539062 0.320312
vt 0.539062 0.382812
vt 0.257812 0.867188
vt 0.257812 0.921875
vt 0.414062 0.398438
vt 0.414062 0.539062
vt 0.398438 0.398438
vt 0.281250 0.789062
vt 0.296875 0.789062
vt 0.281250 0.843750
vt 0.421875 0.546875
vt 0.562500 0.546875
vt 0.562500 0.648438
vt 0.421875 0.648438
vt 0.773438 0.710938
vt 0.710938 0.710938
vt 0.710938 0.804688
vt 0.835938 0.804688
vt 0.835938 0.742188
vt 0.265625 0.546875
vt 0.273438 0.546875
vt 0.273438 0.648438
vt 0.328125 0.789062
vt 0.343750 0.789062
vt 0.343750 0.843750
vt 0.664062 0.804688
vt 0.664062 0.695312
vt 0.601562 0.695312
vt 0.000045 0.539062
vt 0.000045 0.398438
vt 0.531250 0.999969
vt 0.390625 0.999969
vt 0.390625 0.867188
vt 0.531250 0.867188
vt 0.359375 0.843750
vt 0.359375 0.859375
vt 0.132812 0.921875
vt 0.132812 0.867188
vt 0.375000 0.789062
vt 0.375000 0.843750
vt 0.156250 0.546875
vt 0.000066 0.648438
vt 0.000066 0.546875
vt 0.093750 0.835938
vt 0.101562 0.835938
vt 0.101562 0.843750
vt 0.093750 0.843750
vt 0.039062 0.812500
vt 0.046875 0.812500
vt 0.046875 0.820312
vt 0.039062 0.820312
vt 0.093750 0.812500
vt 0.101562 0.812500
vt 0.101562 0.820312
vt 0.093750 0.820312
vt 0.039062 0.835938
vt 0.046875 0.835938
vt 0.046875 0.843750
vt 0.039062 0.843750
vt 0.093750 0.851562
vt 0.093750 0.859375
vt 0.101562 0.859375
vt 0.101562 0.851562
vt 0.039062 0.851562
vt 0.046875 0.851562
vt 0.046875 0.859375
vt 0.039062 0.859375
vt 0.117188 0.648438
vt 0.117188 0.789062
vt 0.007812 0.789062
vt 0.007812 0.648438
vt 0.265625 0.867188
vt 0.265625 0.921875
vt 0.148438 0.132812
vt 0.007812 0.132812
vt 0.148438 0.648438
vt 0.148438 0.546875
vt 0.273438 0.375000
vt 0.289062 0.382812
vt 0.273438 0.382812
vt 0.289062 0.132812
vt 0.164062 0.375000
vt 0.164062 0.382812
vt 0.265625 0.999969
vt 0.546875 0.882812
vt 0.531250 0.875000
vt 0.546875 0.875000
vt 0.656250 0.882812
vt 0.656250 0.875000
vt 0.828125 0.664062
vt 0.843750 0.671875
vt 0.828125 0.671875
vt 0.843750 0.546875
vt 0.718750 0.664062
vt 0.703125 0.546875
vt 0.703125 0.671875
vt 0.718750 0.671875
vt 0.687500 0.664062
vt 0.687500 0.671875
vt 0.578125 0.664062
vt 0.562500 0.671875
vt 0.578125 0.671875
vt 0.000036 0.867188
vt 0.125000 0.867188
vt 0.125000 0.921875
vt 0.000036 0.999969
vt 0.125000 0.999969
vt 0.250000 0.773560
vt 0.250000 0.843750
vt 0.140625 0.843750
vt 0.140625 0.773560
vt 0.687500 0.710938
vt 0.687500 0.695312
vt 0.578125 0.695312
vt 0.578125 0.710938
vt 0.554688 0.710938
s 1
usemtl MI_Guilder
f 3/1/1 1/2/1 2/3/1
f 6/4/2 4/5/2 5/6/2
f 189/7/5 190/8/5 187/9/5 188/10/5
f 13/11/4 11/12/4 12/13/4
f 11/12/4 13/11/4 14/14/4
f 17/15/5 15/16/5 16/17/5
f 15/16/5 17/15/5 18/18/5
f 65/19/3 66/20/3 63/21/3 64/22/3
f 129/23/7 130/24/7 127/25/7 128/26/7
f 201/8/3 202/27/3 199/28/3 200/9/3
f 149/29/8 150/30/8 147/31/8 148/32/8
f 241/9/8 242/28/8 239/33/8 240/34/8
f 221/35/6 222/36/6 219/37/6 220/38/6
f 165/39/3 166/40/3 163/41/3 164/42/3
f 169/43/8 170/44/8 167/45/8 168/46/8
f 173/47/6 174/48/6 171/49/6 172/43/6
f 317/50/3 318/51/3 315/52/3 316/53/3
f 205/35/4 206/38/4 203/28/4 204/27/4
f 25/54/6 26/55/6 23/56/6 24/57/6
f 320/58/9 319/59/3 316/60/3 315/61/3
f 257/62/7 258/63/7 255/33/7 256/28/7
f 133/26/5 134/25/5 131/64/5 132/65/5
f 161/39/4 162/42/4 159/48/4 160/47/4
f 269/35/6 270/36/6 267/37/6 268/38/6
f 97/66/8 98/67/8 95/68/8 96/69/8
f 77/22/7 78/21/7 75/70/7 76/71/7
f 273/72/3 274/73/3 271/74/3 272/75/3
f 229/35/4 230/38/4 227/28/4 228/27/4
f 209/62/7 210/63/7 207/33/7 208/28/7
f 261/7/5 262/8/5 259/9/5 260/10/5
f 45/39/3 46/42/3 43/41/3 44/76/3
f 61/77/8 62/78/8 59/79/8 60/80/8
f 157/41/5 158/40/5 155/81/5 156/82/5
f 321/83/3 322/84/3 319/85/3 320/86/9
f 33/87/7 34/88/7 31/89/7 32/81/7
f 69/21/5 70/20/5 67/90/5 68/91/5
f 277/92/3 278/93/3 275/17/3 276/94/3
f 93/95/5 94/96/5 91/66/5 92/97/5
f 253/35/4 254/38/4 251/28/4 252/27/4
f 153/87/7 154/81/7 151/89/7 152/88/7
f 309/98/6 310/99/6 307/100/6 308/101/6
f 185/62/7 186/63/7 183/33/7 184/28/7
f 145/102/5 146/103/5 143/104/5 144/24/5
f 53/47/6 54/43/6 51/49/6 52/48/6
f 137/65/7 138/64/7 135/105/7 136/106/7
f 332/58/5 333/107/5 320/108/9 331/109/5
f 249/8/3 250/27/3 247/28/3 248/9/3
f 81/96/3 82/110/3 79/67/3 80/66/3
f 105/23/7 106/26/7 103/25/7 104/24/7
f 109/26/4 110/65/4 107/64/4 108/25/4
f 85/111/4 86/112/4 83/67/4 84/110/4
f 141/113/4 142/114/4 139/115/4 140/30/4
f 245/35/6 246/36/6 243/37/6 244/38/6
f 29/73/5 30/72/5 27/116/5 28/117/5
f 217/9/8 218/28/8 215/33/8 216/34/8
f 117/113/5 118/30/5 115/115/5 116/114/5
f 233/62/7 234/63/7 231/33/7 232/28/7
f 57/118/6 58/119/6 55/120/6 56/121/6
f 89/122/7 90/123/7 87/68/7 88/67/7
f 41/39/5 42/47/5 39/48/5 40/42/5
f 237/7/5 238/8/5 235/9/5 236/10/5
f 37/41/4 38/82/4 35/81/4 36/76/4
f 73/19/4 74/22/4 71/124/4 72/125/4
f 101/111/6 102/126/6 99/127/6 100/112/6
f 325/61/3 326/128/3 323/107/3 324/58/3
f 213/7/5 214/8/5 211/9/5 212/10/5
f 313/51/5 314/50/5 311/129/5 312/130/5
f 121/102/4 122/24/4 119/104/4 120/103/4
f 193/9/8 194/28/8 191/33/8 192/34/8
f 181/35/4 182/38/4 179/28/4 180/27/4
f 305/98/4 306/101/4 303/84/4 304/83/4
f 113/65/7 114/106/7 111/105/7 112/64/7
f 125/29/8 126/32/8 123/31/8 124/30/8
f 344/131/3 345/132/3 342/133/3 343/134/3
f 289/135/3 290/136/3 287/137/3 288/138/3
f 293/139/3 294/140/3 291/141/3 292/142/3
f 340/143/3 341/144/3 338/145/3 339/146/3
f 301/147/4 302/148/4 299/149/4 300/150/4
f 281/151/5 282/152/5 279/153/5 280/154/5
f 49/43/8 50/46/8 47/45/8 48/44/8
f 276/155/3 275/156/3 272/157/3 271/158/3
f 177/8/3 178/27/3 175/28/3 176/9/3
f 9/14/3 10/11/3 7/18/3 8/15/3
f 399/21/3 403/20/3 402/159/3 401/160/3
f 21/54/4 22/57/4 19/93/4 20/92/4
f 357/161/7 358/4/7 356/1/7 355/162/7
f 297/151/4 298/154/4 295/153/4 296/152/4
f 265/9/8 266/28/8 263/33/8 264/34/8
f 197/35/6 198/36/6 195/37/6 196/38/6
f 329/128/4 330/61/4 327/163/4 328/164/4
f 285/147/5 286/150/5 283/149/5 284/148/5
f 348/165/8 346/166/8 347/167/8
f 346/166/8 348/165/8 349/168/8
f 351/161/8 350/169/8 352/5/8
f 352/5/8 350/169/8 353/170/8
f 356/1/7 354/3/7 355/162/7
f 350/169/8 351/161/8 349/168/8 348/165/8
f 358/4/7 357/161/7 359/5/7
f 362/160/4 360/119/4 361/171/4
f 360/119/4 362/160/4 363/120/4
f 363/120/4 362/160/4 364/159/4
f 367/172/7 365/173/7 366/174/7
f 367/172/7 368/118/7 365/173/7
f 367/172/7 369/175/7 368/118/7
f 368/118/7 369/175/7 370/79/7
f 370/79/7 369/175/7 371/80/7
f 369/175/7 372/176/7 371/80/7
f 375/177/8 373/178/8 374/179/8
f 373/178/8 375/177/8 376/180/8
f 377/181/8 376/180/8 375/177/8
f 376/180/8 377/181/8 378/182/8
f 378/182/8 377/181/8 379/183/8
f 379/183/8 377/181/8 380/184/8
f 383/185/7 381/183/7 382/186/7
f 383/185/7 384/182/7 381/183/7
f 385/187/7 384/182/7 383/185/7
f 384/182/7 385/187/7 386/99/7
f 385/187/7 387/188/7 386/99/7
f 385/187/7 388/189/7 387/188/7
f 391/190/5 389/191/5 390/192/5
f 390/192/5 392/193/5 391/190/5
f 392/193/5 390/192/5 393/194/5
f 336/195/3 337/196/3 334/197/3 335/198/3
f 396/22/3 398/194/3 397/192/3
f 399/21/3 398/194/3 396/22/3
f 398/194/3 399/21/3 400/171/3
f 400/171/3 399/21/3 401/160/3
f 225/8/3 226/27/3 223/28/3 224/9/3
f 406/113/3 404/103/3 405/104/3
f 404/103/3 406/113/3 407/199/3
f 406/113/3 408/200/3 407/199/3
f 408/200/3 406/113/3 409/114/3
f 412/30/6 410/201/6 411/115/6
f 410/201/6 412/30/6 413/202/6
f 412/30/6 414/203/6 413/202/6
f 414/203/6 412/30/6 415/31/6
f 418/103/3 416/113/3 417/104/3
f 416/113/3 418/103/3 419/199/3
f 420/200/3 416/113/3 419/199/3
f 416/113/3 420/200/3 421/114/3
f 424/201/6 422/30/6 423/115/6
f 422/30/6 424/201/6 425/202/6
f 426/203/6 422/30/6 425/202/6
f 422/30/6 426/203/6 427/31/6
f 396/22/3 397/192/3 394/191/3 395/19/3
