# Blender 5.0.1
# www.blender.org
mtllib BP_Trigger_Crown.mtl
o SK_WW_Crown.001
v -46.565338 462.086151 15.371390
v 51.216125 552.552979 7.448435
v -46.573914 552.543823 7.449203
v 51.224670 462.095337 15.370622
v -46.571960 535.922974 57.855034
v -46.567932 489.918518 12.933794
v -46.567993 494.172882 61.511517
v -46.571899 531.668640 9.277422
v 23.023682 515.054443 59.682743
v 23.023743 510.800140 11.105080
v 64.933655 515.058411 59.682415
v 64.933685 510.804077 11.104752
v -11.639771 459.202148 57.694321
v 16.300262 454.329620 2.027254
v 16.300201 459.204834 57.694164
v -11.639740 454.326935 2.027424
v -25.630615 464.525757 43.204666
v -11.640350 462.089447 15.371061
v -11.640350 464.527039 43.204559
v -25.630615 462.088135 15.371172
v 30.289886 464.530975 43.204231
v 16.299622 462.092041 15.370844
v 30.289886 462.093384 15.370733
v 16.299622 464.529663 43.204338
v -60.796265 515.046631 59.683468
v -60.796234 510.792236 11.105803
v -18.886322 515.050537 59.683075
v -18.886292 510.796173 11.105412
v 51.222015 489.927643 12.933031
v 51.218018 535.932129 57.854210
v 51.221985 494.182007 61.510754
v 51.218048 531.677856 9.276600
v -25.872986 536.700134 106.737411
v -25.869690 497.653961 61.206692
v -25.869690 501.908325 109.784439
v -25.872986 532.445801 58.159691
v 27.882477 497.659058 61.206264
v 27.879150 536.705261 106.736984
v 27.882477 501.913452 109.784012
v 27.879181 532.450928 58.159260
v -53.808136 482.510864 83.700500
v -32.853149 476.419037 14.116138
v -32.853210 482.512878 83.700378
v -53.808075 476.417084 14.116302
v -53.808777 490.078735 90.049484
v -53.811249 515.463196 59.647190
v -53.808594 487.629669 62.084724
v -53.811432 517.912292 87.611885
v 36.996948 482.519531 83.699020
v 36.996918 476.425232 14.114926
v 57.951843 482.521484 83.698792
v 57.951874 476.427185 14.114649
v 57.951172 490.089203 90.047638
v 57.951324 487.640106 62.082985
v 57.948700 515.473633 59.645401
v 57.948547 517.922729 87.610092
v 30.263031 534.529236 37.074005
v 30.262787 532.091675 9.241138
v 30.261475 546.008545 8.022390
v 30.261719 548.446106 35.855415
v -25.617035 534.524048 37.074760
v -25.618622 546.003418 8.022821
v -25.617279 532.086548 9.241627
v -25.618347 548.440857 35.856007
v 51.795105 552.559509 0.440655
v -47.143311 552.559082 0.440655
v -47.143311 553.168274 7.403465
v 51.795105 553.168701 7.403465
v -47.142944 461.920471 15.386589
v -47.142944 461.311279 8.423779
v 51.795471 461.920898 15.386589
v 51.795471 461.311707 8.423779
v -46.571533 551.936768 0.493109
v 51.218506 551.941589 0.492720
v 51.222961 461.483643 8.410736
v -46.567078 461.478790 8.411123
vn -0.5772 -0.5249 0.6255
vn 0.5772 0.6257 0.5248
vn -0.5775 0.6254 0.5248
vn 0.5775 -0.5246 0.6255
vn -1.0000 -0.0001 -0.0000
vn 0.0001 -0.9962 0.0872
vn 1.0000 0.0001 -0.0000
vn 0.7071 0.7044 -0.0616
vn -0.7071 0.7044 -0.0616
vn -0.5774 0.6255 0.5248
vn 0.5773 0.6255 0.5248
vn -0.5773 -0.5248 0.6255
vn -0.7071 -0.7044 0.0616
vn 0.5774 -0.5248 0.6255
vn 0.7071 -0.7044 0.0616
vn -0.7070 0.7045 -0.0617
vn 0.7072 0.7043 -0.0616
vn 0.7070 -0.7045 0.0617
vn -0.7072 -0.7043 0.0617
vt 0.066284 0.824341
vt 0.066101 0.828125
vt 0.000350 0.828125
vt 0.000350 0.824341
vt 0.019531 0.921875
vt 0.019531 0.906250
vt 0.035156 0.906250
vt 0.035156 0.921875
vt 0.492188 0.910156
vt 0.500000 0.910156
vt 0.500000 0.925781
vt 0.492188 0.925781
vt 0.074219 0.886719
vt 0.074219 0.878906
vt 0.082031 0.878906
vt 0.082031 0.886719
vt 0.066406 0.949219
vt 0.066406 0.976562
vt 0.046875 0.976562
vt 0.046875 0.949219
vt 0.242065 0.824341
vt 0.242065 0.828125
vt 0.175659 0.828125
vt 0.175659 0.824341
vt 0.121094 0.921875
vt 0.140625 0.921875
vt 0.140625 0.949219
vt 0.121094 0.949219
vt 0.484375 0.925781
vt 0.468750 0.925781
vt 0.468750 0.894531
vt 0.484375 0.894531
vt 0.198975 0.828003
vt 0.132446 0.828003
vt 0.132446 0.824341
vt 0.198975 0.824219
vt 0.066406 0.921875
vt 0.050781 0.921875
vt 0.050781 0.906250
vt 0.066406 0.906250
vt 0.023438 0.921875
vt 0.023438 0.949219
vt 0.000031 0.949219
vt 0.000031 0.921875
vt 0.085938 0.878906
vt 0.097656 0.878906
vt 0.097656 0.917969
vt 0.085938 0.917969
vt 0.093750 0.886719
vt 0.085938 0.886719
vt 0.093750 0.878906
vt 0.101562 0.921875
vt 0.101562 0.949219
vt 0.078125 0.949219
vt 0.078125 0.921875
vt 0.066406 0.705322
vt 0.066406 0.701416
vt 0.121094 0.701416
vt 0.121094 0.705322
vt 0.074219 0.917969
vt 0.121094 0.709229
vt 0.121094 0.760010
vt 0.066406 0.760010
vt 0.066406 0.709229
vt 0.097656 0.949219
vt 0.117188 0.949219
vt 0.117188 0.976562
vt 0.097656 0.976562
vt 0.503906 0.925781
vt 0.503906 0.910156
vt 0.511719 0.910156
vt 0.511719 0.925781
vt 0.132446 0.828247
vt 0.066284 0.828247
vt 0.042969 0.949219
vt 0.042969 0.921875
vt 0.177490 0.701416
vt 0.238281 0.701416
vt 0.238281 0.705322
vt 0.177490 0.705322
vt 0.015625 0.701416
vt 0.015625 0.705322
vt 0.120667 0.828369
vt 0.120667 0.878540
vt 0.067261 0.878540
s 1
usemtl M_Wicked_Wraith
f 70/1/13 69/2/12 67/3/10 66/4/9
f 48/5/5 46/6/5 47/7/5 45/8/5
f 20/9/6 18/10/6 19/11/6 17/12/6
f 64/13/5 62/14/5 63/15/5 61/16/5
f 40/17/7 38/18/7 39/19/7 37/20/7
f 68/21/11 65/22/8 66/23/9 67/24/10
f 8/25/5 6/26/5 7/27/5 5/28/5
f 16/29/6 14/30/6 15/31/6 13/32/6
f 68/33/11 71/34/14 72/35/15 65/36/8
f 56/37/7 53/38/7 54/39/7 55/40/7
f 32/41/7 30/42/7 31/43/7 29/44/7
f 44/45/6 42/46/6 43/47/6 41/48/6
f 60/49/7 57/50/7 58/45/7 59/51/7
f 28/52/6 27/53/6 25/54/6 26/55/6
f 1/56/1 76/57/19 75/58/18 4/59/4
f 52/45/6 51/48/6 49/60/6 50/14/6
f 4/61/4 2/62/2 3/63/3 1/64/1
f 36/65/5 34/66/5 35/67/5 33/68/5
f 24/69/6 22/70/6 23/71/6 21/72/6
f 72/35/15 71/73/14 69/74/12 70/1/13
f 12/37/6 11/17/6 9/75/6 10/76/6
f 74/77/17 73/78/16 3/79/3 2/80/2
f 73/81/16 76/57/19 1/56/1 3/82/3
f 4/59/4 75/58/18 74/77/17 2/80/2
f 69/74/12 71/83/14 68/84/11 67/85/10
