# Blender 5.0.1
# www.blender.org
mtllib BP_Urn_Closed.mtl
o SM_Urn_Closed.001
v 0.000000 34.987976 15.625000
v -18.750000 18.750000 25.000000
v 18.750000 18.750000 25.000000
v 0.000000 -34.987976 15.625000
v 18.750000 -18.750000 25.000000
v -18.750000 -18.750000 25.000000
v 34.987976 0.000000 15.625000
v 18.750000 18.750000 25.000000
v 18.750000 -18.750000 25.000000
v -34.987976 0.000000 15.625000
v -18.750000 -18.750000 25.000000
v -18.750000 18.750000 25.000000
v -18.750000 -18.750000 37.500000
v -18.750000 -18.750000 0.000000
v 18.750000 -18.750000 37.500000
v 18.750000 -18.750000 0.000000
v 18.750000 -18.750000 37.500000
v -18.750000 18.750000 37.500000
v -18.750000 -18.750000 37.500000
v 18.750000 18.750000 37.500000
v 18.750000 18.749998 -0.000000
v -18.750000 18.750000 -0.000000
v 18.750000 18.750000 37.500000
v -18.750000 18.750000 37.500000
v -18.750000 -18.750000 0.000000
v 18.750000 18.749998 -0.000000
v 18.750000 -18.750000 0.000000
v -18.750000 18.750000 -0.000000
v 18.750000 -18.750000 37.500000
v 18.750000 18.749998 -0.000000
v 18.750000 18.750000 37.500000
v 18.750000 -18.750000 0.000000
v -18.750000 -18.750000 0.000000
v -18.750000 -18.750000 37.500000
v -18.750000 18.750000 37.500000
v -18.750000 18.750000 -0.000000
vn -0.0000 0.5000 0.8660
vn -0.0000 -0.5000 0.8660
vn 0.5000 -0.0000 0.8660
vn -0.5000 -0.0000 0.8660
vn -0.0000 -1.0000 -0.0000
vn -0.0000 -0.0000 1.0000
vn -0.0000 1.0000 -0.0000
vn -0.0000 -0.0000 -1.0000
vn 1.0000 -0.0000 -0.0000
vn -1.0000 -0.0000 -0.0000
vt 0.000031 0.250000
vt 0.187500 0.062500
vt 0.375000 0.250000
vt 0.562500 0.062500
vt 0.750000 0.250000
vt 0.750000 0.625000
vt 0.750000 0.999969
vt 0.375000 0.999969
vt 0.375000 0.625000
vt 0.000031 0.625000
vt 0.000031 0.999969
s 1
usemtl MI_Urn_Closed
f 3/1/1 1/2/1 2/3/1
f 6/1/2 4/2/2 5/3/2
f 9/3/3 7/4/3 8/5/3
f 12/3/4 10/4/4 11/5/4
f 32/6/9 30/7/9 31/8/9 29/9/9
f 22/3/7 24/9/7 23/10/7 21/1/7
f 16/3/5 15/9/5 13/10/5 14/1/5
f 28/3/8 26/5/8 27/6/8 25/9/8
f 20/8/6 18/11/6 19/10/6 17/9/6
f 36/6/10 33/7/10 34/8/10 35/9/10
