# Blender 5.0.1
# www.blender.org
mtllib BP_Urn03.mtl
o SM_Urn03.001
v 25.000002 -24.999998 75.000008
v -25.000002 -24.999998 75.000008
v -25.000002 -24.999998 -0.000046
v 25.000002 -24.999998 -0.000046
v 18.750002 -18.750006 6.249999
v -18.749998 18.749996 6.249999
v -18.750002 -18.750006 6.249999
v 18.750002 18.749996 6.249999
v 31.250000 31.249998 75.000008
v -31.250000 31.249998 75.000008
v -31.250000 31.249998 87.500000
v 31.250000 31.249998 87.500000
v 25.000002 -24.999998 -0.000046
v -25.000002 -24.999998 -0.000046
v -25.000002 24.999998 -0.000046
v 25.000002 24.999998 -0.000046
v 25.000002 -24.999998 75.000008
v 25.000002 -24.999998 -0.000046
v 25.000002 24.999998 75.000008
v 25.000002 24.999998 -0.000046
v -25.000002 -24.999998 75.000008
v -25.000002 24.999998 -0.000046
v -25.000002 -24.999998 -0.000046
v -25.000002 24.999998 75.000008
v 31.250000 -31.249998 87.500000
v -31.250000 -31.249998 87.500000
v -31.250000 -31.249998 75.000008
v 31.250000 -31.249998 75.000008
v 25.000002 24.999998 -0.000046
v -25.000002 24.999998 -0.000046
v -25.000002 24.999998 75.000008
v 25.000002 24.999998 75.000008
v 31.250000 31.249998 87.500000
v 31.250000 -31.249998 87.500000
v 31.250000 -31.249998 75.000008
v 31.250000 31.249998 75.000008
v -31.250000 -31.249998 87.500000
v -31.250000 31.249998 75.000008
v -31.250000 -31.249998 75.000008
v -31.250000 31.249998 87.500000
v -18.750002 -18.750006 6.249999
v -18.750002 -18.750002 87.500000
v 18.750002 -18.750006 6.249999
v 18.750002 -18.750002 87.500000
v 18.750002 18.750002 87.500000
v 18.750002 18.749996 6.249999
v 18.750002 -18.750002 87.500000
v 18.750002 -18.750006 6.249999
v -18.749998 18.749996 6.249999
v 18.750002 18.750002 87.500000
v -18.749998 18.750002 87.500000
v 18.750002 18.749996 6.249999
v -18.750002 -18.750002 87.500000
v -18.749998 18.749996 6.249999
v -18.749998 18.750002 87.500000
v -18.750002 -18.750006 6.249999
v 25.000002 24.999998 75.000008
v -25.000002 24.999998 75.000008
v -31.250000 31.249998 75.000008
v 31.250000 31.249998 75.000008
v 31.250000 -31.249998 75.000008
v -31.250000 -31.249998 75.000008
v -25.000002 -24.999998 75.000008
v 25.000002 -24.999998 75.000008
v -18.749998 18.750002 87.500000
v 18.750002 18.750002 87.500000
v 31.250000 31.249998 87.500000
v -31.250000 31.249998 87.500000
v 31.250000 -31.249998 87.500000
v -18.750002 -18.750002 87.500000
v 18.750002 -18.750002 87.500000
v -31.250000 -31.249998 87.500000
vn -0.0000 -1.0000 -0.0000
vn -0.0000 -0.0000 1.0000
vn -0.0000 1.0000 -0.0000
vn -0.0000 -0.0000 -1.0000
vn 1.0000 -0.0000 -0.0000
vn -1.0000 -0.0000 -0.0000
vt 0.250000 0.999969
vt 0.250000 0.625000
vt 0.500000 0.625000
vt 0.500000 0.999969
vt 0.531250 0.000000
vt 0.718750 0.000000
vt 0.718750 0.406250
vt 0.531250 0.406250
vt 0.031250 0.093750
vt 0.093750 0.093750
vt 0.093750 0.406250
vt 0.031250 0.406250
vt 0.750000 0.375000
vt 1.000000 0.375000
vt 1.000000 0.625000
vt 0.750000 0.625000
vt 0.093750 0.031250
vt 0.406250 0.031250
vt 0.406250 0.093750
vt 0.468750 0.093750
vt 0.468750 0.406250
vt 0.406250 0.406250
vt 0.750000 0.999969
vt 1.000000 0.187500
vt 0.812500 0.375000
vt 0.812500 0.187500
vt 0.000031 0.625000
vt 0.000031 0.999969
vt 0.406250 0.468750
vt 0.093750 0.468750
vt 1.000000 0.999969
vt 0.500000 0.125000
vt 0.500000 0.375000
vt 0.000031 0.375000
vt 0.000031 0.125000
vt 0.375000 0.000000
vt 0.125000 0.000000
vt 0.375000 0.500000
vt 0.125000 0.500000
vt 0.343750 0.343750
vt 0.343750 0.156250
vt 0.156250 0.343750
vt 0.156250 0.156250
s 1
usemtl MI_Urn03
f 32/1/3 29/2/3 30/3/3 31/4/3
f 56/5/5 54/6/5 55/7/5 53/8/5
f 46/5/6 48/6/6 47/7/6 45/8/6
f 28/9/1 25/10/1 26/11/1 27/12/1
f 44/8/3 43/5/3 41/6/3 42/7/3
f 16/13/4 13/14/4 14/15/4 15/16/4
f 35/17/5 36/18/5 33/19/5 34/10/5
f 12/19/3 9/20/3 10/21/3 11/22/3
f 24/4/6 22/3/6 23/16/6 21/23/6
f 8/24/2 6/14/2 7/25/2 5/26/2
f 18/27/5 20/2/5 19/1/5 17/28/5
f 40/22/6 38/29/6 39/30/6 37/11/6
f 4/15/1 1/31/1 2/23/1 3/16/1
f 59/21/4 57/32/4 58/33/4
f 60/20/4 57/32/4 59/21/4
f 63/34/4 61/9/4 62/12/4
f 64/35/4 61/9/4 63/34/4
f 60/18/4 61/17/4 57/36/4
f 64/37/4 57/36/4 61/17/4
f 58/38/4 63/39/4 59/29/4
f 62/30/4 59/29/4 63/39/4
f 67/19/2 65/40/2 66/41/2
f 68/22/2 65/40/2 67/19/2
f 66/41/2 69/10/2 67/19/2
f 65/40/2 68/22/2 70/42/2
f 71/43/2 69/10/2 66/41/2
f 70/42/2 68/22/2 72/11/2
f 71/43/2 72/11/2 69/10/2
f 70/42/2 72/11/2 71/43/2
f 52/6/1 50/7/1 51/8/1 49/5/1
