# Blender 5.0.1
# www.blender.org
mtllib BP_Underwater_Lantern.mtl
o SM_Underwater_Lantern.001
v 87.500000 -68.615791 169.052917
v 87.500000 -68.615791 131.381744
v 87.500000 -31.319267 131.381744
v 87.500000 -31.319265 169.052917
v 12.499990 -68.615791 169.052917
v 12.499990 -31.319265 169.052917
v 12.500010 -68.615791 131.381744
v 12.500010 -31.319263 131.381744
v 31.526306 -87.500000 169.052917
v 69.104202 -87.500000 131.381744
v 69.104202 -87.500000 169.052917
v 31.526306 -87.500000 131.381744
v 100.000000 -99.999992 0.000000
v 0.000000 -0.000000 0.000000
v 100.000000 0.000000 0.000000
v 0.000000 -99.999992 0.000000
v 69.104202 -12.500002 131.381744
v 31.526306 -12.500000 131.381744
v 69.104202 -12.500002 169.052917
v 31.526306 -12.500000 169.052917
v 69.104202 -68.615791 187.500000
v 69.104202 -31.319267 187.500000
v 31.526306 -68.615791 187.500000
v 31.526304 -31.319267 187.500000
v 69.104202 -68.615791 187.500000
v 31.526306 -68.615791 187.500000
v 31.526306 -68.615791 200.000000
v 69.104202 -68.615791 200.000000
v 69.104202 -31.319267 187.500000
v 69.104202 -68.615791 187.500000
v 69.104202 -68.615791 200.000000
v 69.104202 -31.319267 200.000000
v 69.104202 -31.319267 200.000000
v 31.526304 -31.319267 200.000000
v 31.526304 -31.319267 187.500000
v 69.104202 -31.319267 187.500000
v 31.526306 -68.615791 187.500000
v 31.526304 -31.319267 200.000000
v 31.526306 -68.615791 200.000000
v 31.526304 -31.319267 187.500000
v 69.104202 -99.999992 131.381744
v 69.104202 -99.999992 169.052917
v 69.104202 -87.500000 169.052917
v 69.104202 -87.500000 131.381744
v 31.526306 -87.500000 169.052917
v 69.104202 -99.999992 169.052917
v 31.526306 -99.999992 169.052917
v 69.104202 -87.500000 169.052917
v 31.526306 -99.999992 169.052917
v 31.526306 -99.999992 131.381744
v 31.526306 -87.500000 131.381744
v 31.526306 -87.500000 169.052917
v 69.104202 -87.500000 131.381744
v 31.526306 -99.999992 131.381744
v 69.104202 -99.999992 131.381744
v 31.526306 -87.500000 131.381744
v 12.499990 -68.615791 169.052917
v 12.500010 -68.615791 131.381744
v -0.000001 -68.615791 131.381744
v -0.000002 -68.615791 169.052917
v 12.499990 -68.615791 169.052917
v -0.000002 -31.319267 169.052917
v 12.499990 -31.319265 169.052917
v -0.000002 -68.615791 169.052917
v 12.499990 -31.319265 169.052917
v -0.000001 -31.319265 131.381744
v 12.500010 -31.319263 131.381744
v -0.000002 -31.319267 169.052917
v 12.500010 -68.615791 131.381744
v -0.000001 -31.319265 131.381744
v -0.000001 -68.615791 131.381744
v 12.500010 -31.319263 131.381744
v 31.526306 -12.500000 169.052917
v 31.526306 -12.500000 131.381744
v 31.526306 0.000000 131.381744
v 31.526306 0.000000 169.052917
v 31.526306 -12.500000 169.052917
v 69.104202 -0.000002 169.052917
v 69.104202 -12.500002 169.052917
v 31.526306 0.000000 169.052917
v 69.104202 -12.500002 131.381744
v 69.104202 -12.500002 169.052917
v 69.104202 -0.000002 169.052917
v 69.104202 -0.000002 131.381744
v 31.526306 -12.500000 131.381744
v 69.104202 -12.500002 131.381744
v 69.104202 -0.000002 131.381744
v 31.526306 0.000000 131.381744
v 87.500000 -31.319265 169.052917
v 100.000000 -31.319269 131.381744
v 100.000000 -31.319267 169.052917
v 87.500000 -31.319267 131.381744
v 87.500000 -68.615791 169.052917
v 100.000000 -31.319267 169.052917
v 100.000000 -68.615791 169.052917
v 87.500000 -31.319265 169.052917
v 87.500000 -68.615791 131.381744
v 100.000000 -68.615791 169.052917
v 100.000000 -68.615791 131.381744
v 87.500000 -68.615791 169.052917
v 87.500000 -68.615791 131.381744
v 100.000000 -31.319269 131.381744
v 87.500000 -31.319267 131.381744
v 100.000000 -68.615791 131.381744
v 100.000000 -68.615791 131.381744
v 100.000000 -99.999992 0.000000
v 100.000000 0.000000 0.000000
v 100.000000 -99.999992 200.000000
v 100.000000 -31.319269 131.381744
v 100.000000 -68.615791 169.052917
v 100.000000 -0.000004 200.000000
v 100.000000 -31.319267 169.052917
v 69.104202 -99.999992 131.381744
v 100.000000 -99.999992 200.000000
v 69.104202 -99.999992 169.052917
v 31.526306 -99.999992 169.052917
v 100.000000 -99.999992 0.000000
v -0.000002 -99.999992 200.000000
v 31.526306 -99.999992 131.381744
v 0.000000 -99.999992 0.000000
v 100.000000 -0.000004 200.000000
v 69.104202 -0.000002 131.381744
v 69.104202 -0.000002 169.052917
v 31.526306 0.000000 169.052917
v 100.000000 0.000000 0.000000
v -0.000002 0.000002 200.000000
v 31.526306 0.000000 131.381744
v 0.000000 -0.000000 0.000000
v -0.000001 -68.615791 131.381744
v 0.000000 -0.000000 0.000000
v 0.000000 -99.999992 0.000000
v -0.000002 -99.999992 200.000000
v -0.000001 -31.319265 131.381744
v -0.000002 -68.615791 169.052917
v -0.000002 0.000002 200.000000
v -0.000002 -31.319267 169.052917
v -0.000002 -99.999992 200.000000
v 100.000000 -99.999992 200.000000
v 31.526306 -68.615791 200.000000
v -0.000002 0.000002 200.000000
v 69.104202 -68.615791 200.000000
v 31.526304 -31.319267 200.000000
v 100.000000 -0.000004 200.000000
v 69.104202 -31.319267 200.000000
vn 1.0000 -0.0000 -0.0000
vn -1.0000 -0.0000 -0.0000
vn -0.0000 -1.0000 -0.0000
vn -0.0000 -0.0000 -1.0000
vn -0.0000 1.0000 -0.0000
vn -0.0000 -0.0000 1.0000
vt 0.117188 0.422363
vt 0.117188 0.469238
vt 0.093750 0.469238
vt 0.093750 0.422363
vt 0.093750 0.492188
vt 0.046875 0.492188
vt 0.046875 0.469238
vt 0.132812 0.132812
vt 0.007809 0.132812
vt 0.007809 0.007812
vt 0.132812 0.007812
vt 0.023438 0.422363
vt 0.046875 0.422363
vt 0.023438 0.469238
vt 0.046875 0.398438
vt 0.093750 0.398438
vt 0.046875 0.296875
vt 0.007801 0.132812
vt 0.007801 0.383301
vt 0.093750 0.296875
vt 0.046875 0.343750
vt 0.132812 0.383301
vt 0.093750 0.343750
vt 0.132812 0.382812
vt 0.007835 0.382812
vt 0.007835 0.132812
vt 0.007786 0.382812
vt 0.007790 0.132812
vt 0.132690 0.382812
vt 0.132690 0.132812
vt 0.007797 0.132812
vt 0.007797 0.382812
vt 0.093750 0.046875
vt 0.132812 0.133301
vt 0.007812 0.007812
vt 0.093750 0.093750
vt 0.046875 0.046875
vt 0.007812 0.132812
vt 0.046875 0.093750
s 1
usemtl Mat_Underwater_Lantern
f 59/1/5 60/2/5 57/3/5 58/4/5
f 96/3/4 94/5/4 95/6/4 93/7/4
f 16/8/4 14/9/4 15/10/4 13/11/4
f 84/12/2 81/13/2 82/7/2 83/14/2
f 48/3/4 46/5/4 47/6/4 45/7/4
f 64/5/4 62/6/4 63/7/4 61/3/4
f 76/2/1 73/3/1 74/4/1 75/1/1
f 36/13/3 33/15/3 34/16/3 35/4/3
f 12/13/3 10/4/3 11/3/3 9/7/3
f 28/6/5 25/7/5 26/3/5 27/5/5
f 18/4/5 20/3/5 19/7/5 17/13/5
f 8/13/2 7/4/2 5/3/2 6/7/2
f 44/4/2 41/1/2 42/2/2 43/3/2
f 80/5/4 78/6/4 79/7/4 77/3/4
f 68/14/3 66/12/3 67/13/3 65/7/3
f 104/15/6 102/16/6 103/4/6 101/13/6
f 4/3/1 1/7/1 2/13/1 3/4/1
f 31/14/2 32/12/2 29/13/2 30/7/2
f 92/4/3 90/1/3 91/2/3 89/3/3
f 56/13/6 54/15/6 55/16/6 53/4/6
f 40/4/1 38/1/1 39/2/1 37/3/1
f 52/7/1 49/14/1 50/12/1 51/13/1
f 24/4/6 23/3/6 21/7/6 22/13/6
f 88/16/6 85/4/6 86/13/6 87/15/6
f 72/13/6 70/15/6 71/16/6 69/4/6
f 107/8/1 105/17/1 106/18/1
f 105/17/1 108/19/1 106/18/1
f 109/20/1 105/17/1 107/8/1
f 110/21/1 108/19/1 105/17/1
f 109/20/1 107/8/1 111/22/1
f 108/19/1 110/21/1 111/22/1
f 112/23/1 109/20/1 111/22/1
f 112/23/1 111/22/1 110/21/1
f 115/23/3 113/20/3 114/24/3
f 115/23/3 114/24/3 116/21/3
f 113/20/3 117/8/3 114/24/3
f 118/25/3 116/21/3 114/24/3
f 113/20/3 119/17/3 117/8/3
f 116/21/3 118/25/3 119/17/3
f 120/26/3 117/8/3 119/17/3
f 119/17/3 118/25/3 120/26/3
f 123/21/5 121/27/5 122/17/5
f 123/21/5 124/23/5 121/27/5
f 122/17/5 121/27/5 125/28/5
f 124/23/5 126/29/5 121/27/5
f 122/17/5 125/28/5 127/20/5
f 124/23/5 127/20/5 126/29/5
f 128/30/5 127/20/5 125/28/5
f 127/20/5 128/30/5 126/29/5
f 131/8/2 129/20/2 130/31/2
f 129/20/2 131/8/2 132/24/2
f 133/17/2 130/31/2 129/20/2
f 134/23/2 129/20/2 132/24/2
f 133/17/2 135/32/2 130/31/2
f 134/23/2 132/24/2 135/32/2
f 135/32/2 133/17/2 136/21/2
f 136/21/2 134/23/2 135/32/2
f 139/33/6 137/11/6 138/34/6
f 137/11/6 139/33/6 140/35/6
f 141/36/6 139/33/6 138/34/6
f 142/37/6 140/35/6 139/33/6
f 141/36/6 138/34/6 143/38/6
f 140/35/6 142/37/6 143/38/6
f 144/39/6 141/36/6 143/38/6
f 143/38/6 142/37/6 144/39/6
f 100/7/5 98/14/5 99/12/5 97/13/5
