# Blender 5.0.1
# www.blender.org
mtllib BP_VanillaDoor_Inverted.mtl
o SM_DoubleDoor_Vanilla.001
v 50.000267 -29.376366 199.999710
v 49.999939 -10.625223 -0.000193
v 50.000359 -10.626367 199.999817
v 49.999847 -29.375223 -0.000300
v -49.999729 -29.375904 199.999924
v 49.999847 -29.375223 -0.000300
v 50.000267 -29.376366 199.999710
v -50.000149 -29.374762 -0.000089
v -49.999641 -10.625905 200.000015
v -50.000149 -29.374762 -0.000089
v -49.999729 -29.375904 199.999924
v -50.000065 -10.624762 0.000018
v 50.000359 -10.626367 199.999817
v -50.000065 -10.624762 0.000018
v -49.999641 -10.625905 200.000015
v 49.999939 -10.625223 -0.000193
v -50.000065 -10.624762 0.000018
v 49.999939 -10.625223 -0.000193
v 49.999847 -29.375223 -0.000300
v -50.000149 -29.374762 -0.000089
v 50.000267 -29.376366 199.999710
v 50.000359 -10.626367 199.999817
v -49.999729 -29.375904 199.999924
v -49.999641 -10.625905 200.000015
v -49.999714 -29.375904 199.999924
v -50.000050 -10.624762 0.000018
v -49.999626 -10.625905 200.000015
v -50.000134 -29.374762 -0.000089
v -149.999725 -29.375443 200.000122
v -50.000134 -29.374762 -0.000089
v -49.999714 -29.375904 199.999924
v -150.000137 -29.374300 0.000121
v -149.999634 -10.625443 200.000229
v -150.000137 -29.374300 0.000121
v -149.999725 -29.375443 200.000122
v -150.000046 -10.624300 0.000229
v -49.999626 -10.625905 200.000015
v -150.000046 -10.624300 0.000229
v -149.999634 -10.625443 200.000229
v -50.000050 -10.624762 0.000018
v -150.000046 -10.624300 0.000229
v -50.000050 -10.624762 0.000018
v -50.000134 -29.374762 -0.000089
v -150.000137 -29.374300 0.000121
v -49.999714 -29.375904 199.999924
v -49.999626 -10.625905 200.000015
v -149.999725 -29.375443 200.000122
v -149.999634 -10.625443 200.000229
vn 1.0000 -0.0000 -0.0000
vn -0.0000 -1.0000 -0.0000
vn -1.0000 -0.0000 -0.0000
vn -0.0000 1.0000 -0.0000
vn -0.0000 -0.0000 -1.0000
vn -0.0000 -0.0000 1.0000
vt 0.000031 0.000000
vt 0.500000 0.000000
vt 0.500000 0.999969
vt 0.000031 0.999969
vt 0.406250 0.000000
vt 0.406250 0.999969
vt 0.499756 0.000000
vt 0.000031 0.999969
vt 0.000031 0.000000
vt 0.499756 0.999969
vt 0.500000 0.500000
vt 0.406250 0.500000
s 1
usemtl MI_DoorVanilla
f 16/1/4 14/2/4 15/3/4 13/4/4
f 28/5/1 26/2/1 27/3/1 25/6/1
f 32/1/2 30/7/2 31/3/2 29/8/2
f 36/3/3 34/6/3 35/5/3 33/2/3
f 8/2/2 6/9/2 7/4/2 5/10/2
f 4/5/1 2/2/1 3/3/1 1/6/1
f 44/5/5 41/2/5 42/11/5 43/12/5
f 12/3/3 10/6/3 11/5/3 9/2/3
f 24/11/6 23/12/6 21/5/6 22/2/6
f 20/5/5 17/2/5 18/11/5 19/12/5
f 40/2/4 38/1/4 39/4/4 37/3/4
f 48/11/6 47/12/6 45/5/6 46/2/6
