# Blender 5.0.1
# www.blender.org
mtllib BP_Vultures.mtl
o SM_VultureStatic.001
v -18.750000 26.562508 24.999998
v -18.750000 -35.937504 0.000005
v -18.750000 -35.937500 25.000008
v -18.750000 26.562504 -0.000005
v 18.750000 26.562508 24.999998
v -18.750000 26.562504 -0.000005
v -18.750000 26.562508 24.999998
v 18.750000 26.562504 -0.000005
v 18.750000 -35.937500 25.000008
v 18.750000 26.562504 -0.000005
v 18.750000 26.562508 24.999998
v 18.750000 -35.937504 0.000005
v -18.750000 -35.937500 25.000008
v 18.750000 -35.937504 0.000005
v 18.750000 -35.937500 25.000008
v -18.750000 -35.937504 0.000005
v 18.750000 -35.937504 0.000005
v -18.750000 -35.937504 0.000005
v -18.750000 26.562504 -0.000005
v 18.750000 26.562504 -0.000005
v -18.750000 26.562508 24.999998
v -18.750000 -35.937500 25.000008
v 18.750000 26.562508 24.999998
v 18.750000 -35.937500 25.000008
v -6.250000 -35.937492 25.000006
v -6.250000 -48.437496 12.500007
v -6.250000 -48.437496 25.000008
v -6.250000 -35.937496 12.500005
v 6.250000 -35.937492 25.000006
v -6.250000 -35.937496 12.500005
v -6.250000 -35.937492 25.000006
v 6.250000 -35.937496 12.500005
v 6.250000 -48.437496 25.000008
v 6.250000 -35.937496 12.500005
v 6.250000 -35.937492 25.000006
v 6.250000 -48.437496 12.500007
v -6.250000 -48.437496 25.000008
v 6.250000 -48.437496 12.500007
v 6.250000 -48.437496 25.000008
v -6.250000 -48.437496 12.500007
v 6.250000 -48.437496 12.500007
v -6.250000 -48.437496 12.500007
v -6.250000 -35.937496 12.500005
v 6.250000 -35.937496 12.500005
v -6.250000 -35.937492 25.000006
v -6.250000 -48.437496 25.000008
v 6.250000 -35.937492 25.000006
v 6.250000 -48.437496 25.000008
v -12.500001 -48.437492 25.000008
v -12.500001 -73.437492 12.500010
v -12.500001 -73.437492 25.000011
v -12.500001 -48.437492 12.500007
v 12.500001 -48.437492 25.000008
v -12.500001 -48.437492 12.500007
v -12.500001 -48.437492 25.000008
v 12.500001 -48.437492 12.500007
v 12.500001 -73.437492 25.000011
v 12.500001 -48.437492 12.500007
v 12.500001 -48.437492 25.000008
v 12.500001 -73.437492 12.500010
v -12.500001 -73.437492 25.000011
v 12.500001 -73.437492 12.500010
v 12.500001 -73.437492 25.000011
v -12.500001 -73.437492 12.500010
v 12.500001 -73.437492 12.500010
v -12.500001 -73.437492 12.500010
v -12.500001 -48.437492 12.500007
v 12.500001 -48.437492 12.500007
v -12.500001 -48.437492 25.000008
v -12.500001 -73.437492 25.000011
v 12.500001 -48.437492 25.000008
v 12.500001 -73.437492 25.000011
v 131.250000 1.562501 24.999998
v 93.750000 1.562501 24.999998
v 131.250000 -35.937492 25.000004
v 93.750000 -35.937492 25.000004
v 18.750004 -35.937492 25.000004
v 18.750004 14.062501 24.999996
v 93.750000 14.062501 24.999996
v -93.750000 1.562501 24.999998
v -131.250000 1.562501 24.999998
v -93.750000 -35.937492 25.000004
v -131.250000 -35.937492 25.000004
v -18.750004 -35.937492 25.000004
v -93.750000 14.062501 24.999996
v -18.750004 14.062501 24.999996
v -12.500001 64.062508 24.999990
v -12.500001 26.562500 12.499994
v -12.500001 26.562502 24.999996
v -12.500001 64.062508 12.499989
v 12.500001 64.062508 24.999990
v -12.500001 64.062508 12.499989
v -12.500001 64.062508 24.999990
v 12.500001 64.062508 12.499989
v 12.500001 26.562502 24.999996
v 12.500001 64.062508 12.499989
v 12.500001 64.062508 24.999990
v 12.500001 26.562500 12.499994
v -12.500001 26.562502 24.999996
v 12.500001 26.562500 12.499994
v 12.500001 26.562502 24.999996
v -12.500001 26.562500 12.499994
v 12.500001 26.562500 12.499994
v -12.500001 26.562500 12.499994
v -12.500001 64.062508 12.499989
v 12.500001 64.062508 12.499989
v -12.500001 64.062508 24.999990
v -12.500001 26.562502 24.999996
v 12.500001 64.062508 24.999990
v 12.500001 26.562502 24.999996
vn -1.0000 -0.0000 -0.0000
vn -0.0000 1.0000 -0.0000
vn 1.0000 -0.0000 -0.0000
vn -0.0000 -1.0000 -0.0000
vn -0.0000 -0.0000 -1.0000
vn -0.0000 -0.0000 1.0000
vt 0.333496 0.000488
vt 0.666016 0.000488
vt 0.666016 0.333496
vt 0.333496 0.333496
vt 0.666504 0.000488
vt 0.999512 0.000488
vt 0.999512 0.333496
vt 0.666504 0.333496
vt 0.333008 0.333496
vt 0.000200 0.333496
vt 0.000200 0.000488
vt 0.333008 0.000488
vt 0.333008 0.333984
vt 0.000200 0.333984
vt 0.000200 0.666504
vt 0.333008 0.666504
vt 0.000200 0.666992
vt 0.333008 0.666992
vt 0.333008 0.999800
vt 0.000200 0.999800
vt 0.666016 0.666504
vt 0.333496 0.666504
vt 0.333496 0.333984
vt 0.666016 0.333984
s 1
usemtl WorldGridMaterial
f 98/1/3 96/2/3 97/3/3 95/4/3
f 72/5/6 71/6/6 69/7/6 70/8/6
f 90/9/1 88/10/1 89/11/1 87/12/1
f 74/13/6 76/14/6 75/15/6 73/16/6
f 84/15/6 86/16/6 85/13/6 82/14/6
f 76/15/6 79/16/6 78/13/6 77/14/6
f 64/17/4 62/18/4 63/19/4 61/20/4
f 40/17/4 38/18/4 39/19/4 37/20/4
f 52/9/1 50/10/1 51/11/1 49/12/1
f 60/1/3 58/2/3 59/3/3 57/4/3
f 68/16/5 65/15/5 66/14/5 67/13/5
f 24/5/6 23/6/6 21/7/6 22/8/6
f 56/21/2 54/22/2 55/23/2 53/24/2
f 32/21/2 30/22/2 31/23/2 29/24/2
f 4/9/1 2/10/1 3/11/1 1/12/1
f 36/1/3 34/2/3 35/3/3 33/4/3
f 48/5/6 47/6/6 45/7/6 46/8/6
f 16/17/4 14/18/4 15/19/4 13/20/4
f 106/16/5 103/15/5 104/14/5 105/13/5
f 8/21/2 6/22/2 7/23/2 5/24/2
f 44/16/5 41/15/5 42/14/5 43/13/5
f 102/17/4 100/18/4 101/19/4 99/20/4
f 28/9/1 26/10/1 27/11/1 25/12/1
f 20/16/5 17/15/5 18/14/5 19/13/5
f 12/1/3 10/2/3 11/3/3 9/4/3
f 94/21/2 92/22/2 93/23/2 91/24/2
f 81/13/6 83/14/6 82/15/6 80/16/6
f 110/5/6 109/6/6 107/7/6 108/8/6
