# Blender 5.0.1
# www.blender.org
mtllib BP_Vault_Door_ST.mtl
o SM_Vault_Door_SH.001
v 149.860199 0.080789 -99.377396
v 249.428711 -1.027135 -199.393158
v 249.691895 -0.839747 -99.663010
v 149.997040 -1.117944 -199.132538
v -249.144470 99.230194 -100.314766
v -251.555481 -0.129220 -199.548859
v -250.666000 0.830338 -99.574974
v -250.234970 98.621033 -200.759796
v -150.314346 99.887703 -100.558487
v -250.234970 98.621033 -200.759796
v -249.144470 99.230194 -100.314766
v -150.776794 98.861511 -200.843826
v -149.685715 0.112452 -99.441528
v -150.776794 98.861511 -200.843826
v -150.314346 99.887703 -100.558487
v -150.174286 -1.004976 -199.206497
v -250.666000 0.830338 -99.574974
v -150.174286 -1.004976 -199.206497
v -149.685715 0.112452 -99.441528
v -251.555481 -0.129220 -199.548859
v -150.174286 -1.004976 -199.206497
v -251.555481 -0.129220 -199.548859
v -250.234970 98.621033 -200.759796
v -150.776794 98.861511 -200.843826
v -249.144470 99.230194 -100.314766
v -250.666000 0.830338 -99.574974
v -150.314346 99.887703 -100.558487
v -149.685715 0.112452 -99.441528
v -249.144470 99.230209 -0.314758
v -250.666000 0.830355 0.425034
v -150.314346 99.887718 -0.558487
v -249.144470 99.230209 -0.314758
v -149.685715 0.112468 0.558472
v -150.314346 99.887718 -0.558487
v -250.666000 0.830355 0.425034
v -149.685715 0.112468 0.558472
v -249.144470 99.230209 -0.314758
v -250.666000 0.830355 0.425034
v -150.314346 99.887718 -0.558487
v -149.685715 0.112468 0.558472
v 250.186890 100.578705 99.555481
v 249.691895 -0.839714 100.337006
v 249.691895 -0.839730 0.336990
v 250.186890 100.578690 -0.444504
v 150.139740 99.919792 99.377350
v 149.860199 0.080822 100.622620
v 250.186890 100.578705 99.555481
v 249.691895 -0.839714 100.337006
v 250.186890 100.578705 99.555481
v 150.139740 99.919777 -0.622620
v 150.139740 99.919792 99.377350
v 250.186890 100.578690 -0.444504
v 149.860199 0.080822 100.622620
v 249.691895 -0.839730 0.336990
v 249.691895 -0.839714 100.337006
v 149.860199 0.080806 0.622604
v 49.685669 99.887863 99.441498
v 50.314270 0.112613 100.558472
v -50.314346 99.887772 -100.558487
v -50.776794 98.861580 -200.843826
v -49.685715 0.112516 -99.441528
v -50.776794 98.861580 -200.843826
v -50.314346 99.887772 -100.558487
v -50.174286 -1.004912 -199.206497
v -50.174286 -1.004912 -199.206497
v -49.685715 0.112516 -99.441528
v -50.174286 -1.004912 -199.206497
v -50.776794 98.861580 -200.843826
v -50.314346 99.887772 -100.558487
v -49.685715 0.112516 -99.441528
v -50.314346 99.887787 -0.558487
v -49.685715 0.112533 0.558472
v -50.314346 99.887787 -0.558487
v -49.685715 0.112533 0.558472
v -50.314346 99.887787 -0.558487
v -49.685715 0.112533 0.558472
v 50.314270 0.112613 100.558472
v 50.314270 0.112597 0.558472
v 49.685669 99.887848 -0.558487
v 49.685669 99.887863 99.441498
v -50.314346 99.887802 99.441498
v -49.685715 0.112548 100.558472
v -49.685715 0.112548 100.558472
v 50.096710 99.798325 -100.431053
v 49.830750 98.881271 -200.807495
v 49.218811 -0.719722 -199.442947
v 49.885620 0.006799 -99.490593
v 49.218811 -0.719722 -199.442947
v 49.830750 98.881271 -200.807495
v 50.096710 99.798325 -100.431053
v 49.885620 0.006799 -99.490593
v 50.314270 0.112597 0.558472
v 50.096710 99.798325 -100.431053
v 49.685669 99.887848 -0.558487
v 49.885620 0.006799 -99.490593
v 49.685669 99.887848 -0.558487
v 50.314270 0.112597 0.558472
v 50.314270 0.112613 100.558472
v 49.685669 99.887863 99.441498
v -50.314346 99.887802 99.441498
v -150.314346 99.887733 99.441498
v -149.685715 0.112484 100.558472
v -149.685715 0.112484 100.558472
v 50.096710 99.798325 -100.431053
v 49.218811 -0.719722 -199.442947
v 49.885620 0.006799 -99.490593
v 49.830750 98.881271 -200.807495
v 150.139740 99.919762 -100.622620
v 150.002899 98.640511 -201.000366
v 149.997040 -1.117944 -199.132538
v 150.002899 98.640511 -201.000366
v 150.139740 99.919762 -100.622620
v 149.860199 0.080789 -99.377396
v 250.186890 100.578674 -100.444504
v 249.262268 99.575851 -200.706039
v 150.139740 99.919777 -0.622620
v 149.860199 0.080806 0.622604
v -49.685715 0.112548 100.558472
v -50.314346 99.887802 99.441498
v -150.314346 99.887733 99.441498
v -249.144470 99.230225 99.685211
v -250.666000 0.830370 100.425018
v 250.186890 100.578674 -100.444504
v 249.691895 -0.839747 -99.663010
v 249.428711 -1.027135 -199.393158
v 249.262268 99.575851 -200.706039
v 250.186890 100.578690 -0.444504
v 249.691895 -0.839730 0.336990
v -250.666000 0.830370 100.425018
v -149.685715 0.112484 100.558472
v -150.314346 99.887733 99.441498
v -249.144470 99.230225 99.685211
v 250.186890 100.578674 -100.444504
v 249.691895 -0.839747 -99.663010
v 249.428711 -1.027135 -199.393158
v 249.262268 99.575851 -200.706039
v -249.144470 99.230225 99.685211
v -250.666000 0.830370 100.425018
v -248.439697 100.129288 199.548828
v -249.754044 1.379036 200.759766
v -149.830872 101.005173 199.206451
v -248.439697 100.129288 199.548828
v -149.218811 1.138679 200.843811
v -149.830872 101.005173 199.206451
v -249.754044 1.379036 200.759766
v -149.218811 1.138679 200.843811
v -248.439697 100.129288 199.548828
v -249.754044 1.379036 200.759766
v -149.830872 101.005173 199.206451
v -149.218811 1.138679 200.843811
v -49.830872 101.005241 199.206451
v -49.218811 1.138742 200.843811
v -49.830872 101.005241 199.206451
v -49.218811 1.138742 200.843811
v -49.830872 101.005241 199.206451
v -49.218811 1.138742 200.843811
v 50.169128 101.005302 199.206451
v 50.781189 1.138807 200.843811
v 50.169128 101.005302 199.206451
v 50.781189 1.138807 200.843811
v 50.169128 101.005302 199.206451
v 50.781189 1.138807 200.843811
v 149.996979 101.118530 199.132507
v 150.002960 1.360072 201.000366
v 149.996979 101.118530 199.132507
v 150.002960 1.360072 201.000366
v 250.562042 101.027847 199.393127
v 250.731171 0.424853 200.706024
v 250.562042 101.027847 199.393127
v 250.731171 0.424853 200.706024
v 250.562042 101.027847 199.393127
v 250.731171 0.424853 200.706024
vn -0.0037 -1.0000 0.0043
vn -0.0041 -1.0000 0.0070
vn -0.0067 -1.0000 0.0035
vn -0.0029 -1.0000 0.0083
vn -0.9999 0.0150 0.0049
vn -0.9998 0.0145 0.0098
vn -0.0028 1.0000 -0.0046
vn -0.0045 1.0000 -0.0081
vn -0.0056 1.0000 -0.0041
vn -0.0023 1.0000 -0.0092
vn 1.0000 0.0062 -0.0024
vn 1.0000 0.0061 -0.0048
vn -0.0075 -1.0000 0.0052
vn -0.0040 -0.9999 0.0108
vn -0.0037 -1.0000 0.0054
vn -0.0079 -0.9999 0.0105
vn 0.0006 -0.0154 -0.9999
vn 0.0012 -0.0143 -0.9999
vn 0.0006 0.0094 1.0000
vn 0.0003 0.0103 0.9999
vn -0.9999 0.0155 -0.0000
vn -0.0033 1.0000 -0.0000
vn -0.0067 1.0000 -0.0000
vn 1.0000 0.0063 -0.0000
vn -0.0071 -1.0000 -0.0000
vn -0.0036 -1.0000 -0.0000
vn 1.0000 -0.0033 -0.0035
vn 1.0000 -0.0049 -0.0000
vn 0.0003 0.0109 0.9999
vn 0.0006 0.0101 0.9999
vn -0.0047 1.0000 -0.0041
vn -0.0036 1.0000 -0.0001
vn -0.0026 1.0000 -0.0050
vn -0.0066 1.0000 -0.0000
vn -0.0045 -1.0000 0.0061
vn -0.0092 -1.0000 -0.0000
vn -0.0092 -0.9999 0.0064
vn -0.0046 -1.0000 0.0001
vn -0.0000 0.0115 0.9999
vn 0.0002 1.0000 -0.0051
vn 0.0002 1.0000 -0.0100
vn 0.0005 -0.9999 0.0102
vn 0.0001 -1.0000 0.0052
vn -0.0005 -0.0157 -0.9999
vn -0.0002 0.0108 0.9999
vn -0.0002 0.0107 0.9999
vn 0.0001 1.0000 -0.0001
vn -0.0001 -1.0000 0.0001
vn -0.0000 0.0112 0.9999
vn 0.0002 -1.0000 0.0054
vn -0.0002 -1.0000 0.0003
vn -0.0002 1.0000 -0.0002
vn -0.0003 1.0000 -0.0057
vn -0.0000 -1.0000 0.0051
vn 0.0002 1.0000 -0.0054
vn 0.0005 0.9999 -0.0103
vn -0.0004 -1.0000 0.0094
vn -0.0003 -1.0000 0.0050
vn -0.0002 -0.0156 -0.9999
vn -0.0000 0.0106 0.9999
vn 1.0000 0.0042 -0.0000
vn 1.0000 0.0021 -0.0001
vn -0.0000 1.0000 -0.0056
vn -0.0030 -1.0000 0.0045
vn -1.0000 0.0042 0.0046
vn -0.0037 1.0000 -0.0057
vn -0.0037 0.9999 -0.0111
vn 0.0004 -0.0160 -0.9999
vn 0.0005 0.0105 0.9999
vn -0.0073 1.0000 -0.0056
vn -0.0080 0.9999 -0.0113
vn -0.0036 1.0000 -0.0053
vn 0.0003 -0.0159 -0.9999
vn -0.0059 -1.0000 0.0039
vn -0.0072 1.0000 -0.0050
vn 1.0000 -0.0033 -0.0030
vn 1.0000 -0.0017 -0.0059
vn -0.9999 0.0150 0.0040
vn -0.9999 0.0145 0.0080
vn -0.0039 0.9999 -0.0106
vn -0.0078 0.9999 -0.0101
vn -0.0048 -1.0000 0.0079
vn -0.0024 -1.0000 0.0091
vn 0.0013 0.0143 0.9999
vn 0.0006 0.0154 0.9999
vn -0.0000 0.9999 -0.0112
vn -0.0000 -0.9999 0.0102
vn -0.0000 0.0164 0.9999
vn -0.0004 0.9999 -0.0114
vn 0.0005 -0.9999 0.0109
vn -0.0002 0.0170 0.9999
vn -0.0018 0.9999 -0.0099
vn -0.0041 -0.9999 0.0121
vn -0.0001 0.0167 0.9999
vn -0.0028 1.0000 -0.0083
vn -0.0092 -0.9999 0.0127
vn 0.0002 0.0159 0.9999
vn 1.0000 -0.0017 -0.0071
vt 0.499512 0.500000
vt 1.000000 0.500000
vt 1.000000 0.999588
vt 0.499512 0.999588
vt 0.500000 0.499512
vt 1.000000 0.499512
vt 0.500000 0.000000
vt 0.999512 0.000000
vt 0.999512 0.500000
vt 0.500000 0.500000
vt 0.999512 0.500488
vt 0.999512 0.999588
vt 0.499512 0.500488
vt 1.000000 0.000000
vt 0.500488 0.500000
vt 1.000000 0.999969
vt 0.500488 0.999969
vt 0.000031 0.500000
vt 0.500000 0.999969
vt 0.000031 0.999969
vt 0.500000 0.500244
vt 0.999023 0.500244
vt 0.999023 0.999969
vt 0.499756 0.000000
vt 0.000031 0.000000
s 1
usemtl MI_Vault_Door_ST
f 115/1/71 109/2/67 108/3/66 114/4/70
f 53/1/35 55/2/37 168/3/96 164/4/93
f 4/1/4 2/5/2 3/6/3 1/4/1
f 51/1/33 80/2/53 157/3/89 163/4/92
f 61/7/11 63/8/11 73/9/24 72/10/24
f 102/11/20 101/12/20 121/4/19 122/13/19
f 40/11/20 39/12/20 37/4/19 38/13/19
f 29/11/21 30/12/21 138/4/78 137/13/78
f 84/7/55 59/14/40 71/2/47 79/10/52
f 92/7/61 94/8/61 99/9/11 98/10/11
f 114/15/70 108/2/66 50/16/32 52/17/34
f 150/1/85 149/2/85 147/3/84 148/4/84
f 89/2/59 88/10/59 67/7/44 68/14/44
f 24/18/17 21/10/17 22/19/18 23/20/18
f 31/21/22 32/22/23 132/23/75 120/19/72
f 1/21/1 3/22/3 54/23/36 56/19/38
f 91/7/60 90/8/60 69/9/45 70/10/46
f 120/1/72 132/2/75 142/3/81 141/4/80
f 16/5/12 14/24/12 15/14/11 13/3/11
f 85/18/56 60/10/41 59/19/40 84/20/55
f 162/1/91 161/2/91 155/3/88 156/4/88
f 76/7/49 75/8/49 39/9/20 40/10/20
f 50/18/32 79/10/52 80/19/53 51/20/33
f 13/7/11 15/8/11 34/9/24 33/10/24
f 59/18/40 9/10/7 31/19/22 71/20/47
f 58/11/39 57/12/39 81/4/49 82/13/49
f 35/21/25 36/22/26 103/23/64 129/19/74
f 78/7/51 56/14/38 53/2/35 77/10/50
f 111/2/68 110/10/68 88/7/59 89/14/59
f 36/7/26 74/14/48 83/2/54 103/10/64
f 117/7/29 116/8/29 96/9/39 97/10/39
f 5/11/5 7/12/5 30/4/21 29/13/21
f 86/18/57 4/10/4 1/19/1 87/20/58
f 113/7/69 112/8/69 90/9/60 91/10/60
f 56/21/38 54/22/36 55/23/37 53/19/35
f 109/7/67 85/14/56 84/2/55 108/10/66
f 82/11/49 81/12/49 101/4/20 102/13/20
f 33/11/24 34/12/24 131/4/11 130/13/11
f 74/25/48 78/24/51 77/10/50 83/18/54
f 70/5/46 69/24/45 27/14/20 28/3/20
f 19/7/15 66/14/43 74/2/48 36/10/26
f 97/7/39 96/8/39 75/9/49 76/10/49
f 98/11/11 99/12/11 159/4/12 158/13/12
f 49/1/31 51/2/33 163/3/92 167/4/95
f 65/18/42 86/10/57 87/19/58 66/20/43
f 77/1/50 53/2/35 164/3/93 160/4/90
f 8/1/6 6/2/6 7/3/5 5/4/5
f 170/1/97 169/2/97 165/3/94 166/4/94
f 108/7/66 84/14/55 79/2/52 50/10/32
f 46/11/29 45/12/29 57/4/39 58/13/39
f 129/1/74 103/2/64 146/3/83 145/4/82
f 79/25/52 71/7/47 100/10/63 80/18/53
f 28/11/20 27/12/20 25/4/19 26/13/19
f 66/7/43 87/14/58 78/2/51 74/10/48
f 52/21/34 50/22/32 51/23/33 49/19/31
f 128/11/30 127/12/30 116/4/29 117/13/29
f 41/2/27 171/3/98 172/4/98 42/1/27
f 48/11/30 47/12/30 45/4/29 46/13/29
f 17/21/13 19/22/15 36/23/26 35/19/25
f 72/7/24 73/8/24 119/9/11 118/10/11
f 9/21/7 11/22/9 32/23/23 31/19/22
f 20/1/16 18/2/14 19/3/15 17/4/13
f 44/12/28 41/4/27 42/13/27 43/11/28
f 133/12/76 44/4/28 43/13/28 134/11/76
f 80/1/53 100/2/63 151/3/86 157/4/89
f 103/1/64 83/2/54 154/3/87 146/4/83
f 118/11/11 119/12/11 153/4/12 152/13/12
f 124/15/30 123/2/30 112/16/69 113/17/69
f 95/7/62 93/8/62 94/9/61 92/10/61
f 18/7/14 65/14/42 66/2/43 19/10/15
f 64/7/12 62/8/12 63/9/11 61/10/11
f 83/1/54 77/2/50 160/3/90 154/4/87
f 107/7/65 105/8/65 106/9/65 104/10/65
f 100/1/63 120/2/72 141/3/80 151/4/86
f 130/11/11 131/12/11 144/4/12 143/13/12
f 166/1/94 165/2/94 161/3/91 162/4/91
f 156/1/88 155/2/88 149/3/85 150/4/85
f 87/18/58 1/10/1 56/19/38 78/20/51
f 68/19/44 67/20/44 21/18/17 24/10/17
f 137/1/78 138/2/78 140/3/79 139/4/79
f 126/4/73 125/13/73 110/11/68 111/12/68
f 60/18/41 12/10/10 9/19/7 59/20/40
f 136/2/77 133/3/76 134/4/76 135/1/77
f 12/1/10 10/2/8 11/3/9 9/4/7
f 71/7/47 31/14/22 120/2/72 100/10/63
