# Blender 5.0.1
# www.blender.org
mtllib BP_Vines_Cluster_01.mtl
o SM_Vines_VinePlane_01.001
v 330.000000 0.000000 0.000000
v 230.000000 0.000000 0.000000
v 230.000000 -0.000040 -50.000000
v 330.000000 -0.000040 -50.000000
v 230.000000 -0.000079 -100.000000
v 330.000000 -0.000079 -100.000000
vn -0.0000 -1.0000 -0.0000
vt 1.000000 0.750000
vt 1.000000 0.999969
vt 0.500000 0.999969
vt 0.500000 0.750000
vt 1.000000 0.500000
vt 0.500000 0.500000
s 1
usemtl MI_Vines
f 4/1/1 1/2/1 2/3/1 3/4/1
f 6/5/1 4/1/1 3/4/1 5/6/1
