# Blender 5.0.1
# www.blender.org
mtllib BP_VillagerStatueBroken.mtl
o SM_Podium.001
v 43.750000 -43.750004 87.500000
v -43.750000 -43.750004 87.500000
v -43.750000 -43.750000 -0.000002
v 43.750000 -43.750000 -0.000002
v 43.750000 -43.750004 87.500000
v 43.749996 43.749996 87.500000
v -43.750000 -43.750004 87.500000
v -43.750000 43.749996 87.500000
v 43.749996 43.750000 0.000002
v -43.750000 43.750000 0.000002
v -43.750000 43.749996 87.500000
v 43.749996 43.749996 87.500000
v 43.750000 -43.750004 87.500000
v 43.750000 -43.750000 -0.000002
v 43.749996 43.749996 87.500000
v 43.749996 43.750000 0.000002
v -43.750000 -43.750004 87.500000
v -43.750000 43.750000 0.000002
v -43.750000 -43.750000 -0.000002
v -43.750000 43.749996 87.500000
vn -0.0000 -1.0000 -0.0000
vn -0.0000 -0.0000 1.0000
vn -0.0000 1.0000 -0.0000
vn 1.0000 -0.0000 -0.0000
vn -1.0000 -0.0000 -0.0000
vt 0.000031 0.999969
vt 0.000031 0.562500
vt 0.437500 0.562500
vt 0.437500 0.999969
vt 0.437500 0.125000
vt 0.875000 0.125000
vt 0.875000 0.562500
vt 0.000031 0.125000
vt 0.875000 0.999969
s 1
usemtl MI_ArchIllegerStatuePodium
f 8/1/2 7/2/2 5/3/2 6/4/2
f 14/5/4 16/6/4 15/7/4 13/3/4
f 4/5/1 1/3/1 2/2/1 3/8/1
f 12/4/3 9/3/3 10/7/3 11/9/3
f 20/3/5 18/5/5 19/6/5 17/7/5
