# Blender 5.0.1
# www.blender.org
mtllib BP_VolcanoSeal_Anchor.mtl
o SM_Interactive_Rock_01_001.001
v -100.000610 -0.000046 100.000053
v -0.000732 -99.998871 100.000053
v -0.000732 -0.000046 100.000053
v -100.000610 -99.998871 100.000053
v -100.000610 -99.998871 100.000053
v -0.000732 -99.998871 0.000000
v -0.000732 -99.998871 100.000053
v -100.000610 -99.998871 0.000000
v 99.999146 -99.998871 100.000053
v 99.999146 -0.000046 0.000000
v 99.999146 -0.000046 100.000053
v 99.999146 -99.998871 0.000000
v 99.999146 99.998779 100.000053
v -0.000732 99.998779 0.000000
v -0.000732 99.998779 100.000053
v 99.999146 99.998779 0.000000
v -50.001831 49.999386 199.999664
v 49.998169 -49.999176 199.999954
v 49.998169 49.999100 199.999954
v -50.001831 -49.999470 199.999664
v 49.998169 -49.999176 199.999954
v -50.001831 -49.999470 199.999664
v -50.001831 -49.999470 100.000809
v 49.998169 -49.999176 100.000519
v 49.998169 49.999100 199.999954
v 49.998169 -49.999176 199.999954
v 49.998169 -49.999176 100.000519
v 49.998169 49.999100 100.000519
v -50.001831 49.999386 199.999664
v 49.998169 49.999100 199.999954
v 49.998169 49.999100 100.000519
v -50.001831 49.999386 100.000809
v -50.001831 -49.999470 199.999664
v -50.001831 49.999386 199.999664
v -50.001831 -49.999470 100.000809
v -50.001831 49.999386 100.000809
v -200.000122 99.999512 49.999901
v -100.000122 99.999512 49.999931
v -100.000122 99.999512 -0.000053
v -200.000122 99.999512 -0.000084
v -200.000122 0.000565 49.999908
v -200.000122 99.999512 49.999901
v -200.000122 99.999512 -0.000084
v -200.000122 0.000519 -0.000080
v -200.000122 99.999512 49.999901
v -200.000122 0.000565 49.999908
v -100.000122 99.999512 49.999931
v -100.000122 0.000534 49.999931
v -50.001831 0.000824 149.999969
v -100.000854 0.000824 99.999985
v -100.000854 0.000824 149.999969
v -50.001343 0.000824 99.999985
v -100.000854 -99.999176 149.999939
v -100.000854 0.000824 149.999969
v -100.000854 0.000824 99.999985
v -100.000854 -99.999176 99.999954
v 49.999634 -99.999176 149.999939
v -100.000854 -99.999176 149.999939
v -100.000854 -99.999176 99.999954
v 49.999634 -99.999176 99.999954
v -100.000244 -100.000153 49.999981
v -0.000366 -150.000275 49.999981
v -0.000366 -100.000153 49.999981
v -100.000610 -150.000275 49.999981
v -0.000366 -150.000275 49.999981
v -100.000610 -150.000275 49.999981
v -100.000610 -150.000031 -0.000050
v -0.000366 -150.000031 -0.000050
v 150.000000 -49.999954 49.999981
v 199.999878 -50.000259 -0.000034
v 200.000122 -50.000259 49.999966
v 150.000000 -50.000015 -0.000019
v 200.000122 -0.000259 49.999966
v 200.000122 -50.000259 49.999966
v 199.999878 -50.000259 -0.000034
v 199.999878 -0.000198 -0.000034
v 199.999146 99.998779 49.999596
v 99.999146 99.998779 49.999565
v 99.999146 -0.000183 49.999557
v 199.999146 -0.000183 49.999588
v 199.999146 -0.000183 49.999588
v 199.999146 99.998779 0.000019
v 199.999146 99.998779 49.999596
v 199.999146 -0.000183 0.000019
v 150.000000 -49.999954 49.999981
v 149.998779 -150.000275 49.999981
v 149.998779 -150.000031 -0.000050
v 150.000000 -50.000015 -0.000019
v 149.998779 -150.000275 49.999981
v 99.998779 -150.000275 49.999981
v 99.998779 -150.000031 -0.000050
v 149.998779 -150.000031 -0.000050
v -150.000366 150.000092 49.999981
v -100.000610 99.999969 49.999981
v -100.000610 150.000092 49.999981
v -150.000610 99.999969 49.999981
v -150.000366 150.000092 49.999981
v -150.000610 100.000214 -0.000050
v -150.000610 99.999969 49.999981
v -150.000366 150.000092 -0.000019
v -100.000610 150.000092 -0.000019
v -150.000366 150.000092 49.999981
v -100.000610 150.000092 49.999981
v -150.000366 150.000092 -0.000019
v 149.998413 149.998688 49.999981
v 149.998779 199.998566 -0.000034
v 149.998779 199.998810 49.999966
v 149.998535 149.998688 -0.000019
v 99.998779 199.998810 49.999966
v 149.998779 199.998810 49.999966
v 149.998779 199.998566 -0.000034
v 99.998657 199.998566 -0.000034
v 199.997681 149.998566 49.999981
v 149.998535 149.998688 -0.000019
v 149.998413 149.998688 49.999981
v 199.997681 149.998688 -0.000019
v 199.997681 149.998566 49.999981
v 199.997681 99.998566 -0.000004
v 199.997681 149.998688 -0.000019
v 199.997681 99.998566 49.999996
v -150.000366 0.000824 49.999996
v -100.000610 -49.999298 49.999996
v -100.000610 0.000824 49.999996
v -150.000610 -49.999298 49.999996
v -150.000366 0.000824 49.999996
v -150.000610 -49.999054 -0.000034
v -150.000610 -49.999298 49.999996
v -150.000366 0.000824 -0.000004
v -100.000610 -49.999298 49.999996
v -150.000610 -49.999298 49.999996
v -150.000610 -49.999054 -0.000034
v -100.000610 -49.999054 -0.000034
v -199.999634 -199.998932 50.000015
v -100.000610 -99.998871 50.000000
v -199.999634 -99.998871 50.000000
v -100.000610 -199.998932 50.000015
v -100.000610 -99.998871 50.000000
v -100.000610 -199.998932 50.000015
v -100.000610 -199.998932 0.000038
v -100.000610 -99.998871 0.000000
v -100.000610 -99.998871 50.000000
v -199.999512 -99.998871 0.000000
v -199.999634 -99.998871 50.000000
v -100.000610 -99.998871 0.000000
v -199.999634 -99.998871 50.000000
v -199.999512 -199.998932 0.000038
v -199.999634 -199.998932 50.000015
v -199.999512 -99.998871 0.000000
v -100.000610 -199.998932 50.000015
v -199.999634 -199.998932 50.000015
v -199.999512 -199.998932 0.000038
v -100.000610 -199.998932 0.000038
v 99.999634 -199.997803 49.999939
v -0.000366 -199.997833 49.999969
v -0.000366 -199.997833 -0.000015
v 99.999634 -199.997803 -0.000046
v 99.999634 -99.998871 49.999939
v 99.999634 -199.997803 49.999939
v 99.999634 -199.997803 -0.000046
v 99.999634 -99.998810 -0.000042
v -0.000366 -99.998840 99.999969
v -0.000366 -149.998901 99.999969
v 49.999634 -99.998901 99.999954
v 49.999634 -149.998901 99.999954
v 49.999634 -149.998901 99.999954
v -0.000366 -149.998901 99.999969
v -0.000366 -149.998901 49.999969
v 49.999634 -149.998901 49.999954
v 49.999634 -99.998901 99.999954
v 49.999634 -149.998901 99.999954
v 49.999634 -149.998901 49.999954
v 49.999756 -99.998901 49.999954
v -0.000366 199.998932 49.999561
v -100.000366 199.998932 49.999531
v -100.000366 99.999985 49.999523
v -0.000366 99.999985 49.999554
v -0.000366 99.999985 49.999554
v -0.000366 199.998932 -0.000015
v -0.000366 199.998932 49.999561
v -0.000366 99.999985 -0.000015
v -100.000366 199.998932 49.999531
v -0.000366 199.998932 49.999561
v -0.000366 199.998932 -0.000015
v -100.000366 199.998932 -0.000046
v -100.000366 99.999985 49.999523
v -100.000366 199.998932 49.999531
v -100.000366 199.998932 -0.000046
v -100.000366 99.999985 -0.000046
v -200.000122 0.000565 49.999908
v -100.000122 0.000519 -0.000050
v -100.000122 0.000534 49.999931
v -200.000122 0.000519 -0.000080
v 49.999634 -99.999176 149.999939
v 49.999634 -99.999176 99.999954
v 49.999634 -49.999298 149.999954
v 49.999634 -49.999176 99.999969
v 99.999146 -99.998871 100.000053
v 99.999146 -0.000046 100.000053
v 99.999146 -99.998871 0.000000
v 99.999146 -99.998871 100.000053
v -100.000610 99.998779 0.000000
v -100.000610 99.998779 100.000053
v -100.000610 99.998779 100.000053
v -0.000732 99.998779 100.000053
v 99.999146 99.998779 0.000000
v 99.999146 99.998779 100.000053
v 99.999146 99.998779 100.000053
v -100.000122 50.000580 99.999931
v -150.000122 50.000580 99.999916
v -150.000122 0.000580 99.999916
v -100.000122 0.000519 99.999931
v -100.000122 50.000580 99.999931
v -100.000122 0.000519 99.999931
v -100.000122 0.000549 49.999931
v -100.000122 50.000580 49.999931
v -150.000122 50.000580 99.999916
v -100.000122 50.000580 99.999931
v -100.000122 50.000580 49.999931
v -150.000122 50.000580 49.999916
v -150.000122 0.000580 99.999916
v -150.000122 50.000580 99.999916
v -150.000122 50.000580 49.999916
v -150.000366 0.000580 49.999916
v -150.000122 0.000580 99.999916
v -100.000122 0.000549 49.999931
v -100.000122 0.000519 99.999931
v -150.000366 0.000580 49.999916
v 99.998657 149.998566 50.000027
v 49.998657 149.998840 50.000027
v 49.998657 99.998840 50.000027
v 99.998657 99.998795 50.000027
v 99.998657 99.998795 50.000027
v 49.998657 99.998840 50.000027
v 49.998901 99.998779 -0.000004
v 99.998657 99.998795 0.000027
v 99.998657 149.998566 50.000027
v 49.998901 149.998840 -0.000004
v 49.998657 149.998840 50.000027
v 99.998657 149.998627 0.000027
v 49.998657 99.998840 50.000027
v 49.998657 149.998840 50.000027
v 49.998901 149.998840 -0.000004
v 49.998901 99.998779 -0.000004
v 99.998657 99.998795 50.000027
v 99.998657 99.998795 0.000027
v 99.998657 149.998566 50.000027
v 99.998657 149.998627 0.000027
v 49.999390 -0.001358 150.000015
v 49.999390 -50.001114 150.000015
v 99.999634 -0.001419 150.000000
v 99.999634 -50.001419 150.000000
v 49.999390 -0.001358 150.000015
v 99.999634 -0.001419 150.000000
v 99.999390 -0.001358 100.000000
v 49.999390 -0.001358 100.000015
v 49.999390 -50.001114 150.000015
v 99.999390 -50.001419 100.000000
v 99.999634 -50.001419 150.000000
v 49.999390 -50.001175 100.000015
v 99.999634 -0.001419 150.000000
v 99.999634 -50.001419 150.000000
v 99.999390 -50.001419 100.000000
v 99.999390 -0.001358 100.000000
v -0.000366 -149.998901 99.999969
v -0.000366 -99.998840 99.999969
v -0.000366 -99.998871 49.999969
v -0.000366 -149.998901 49.999969
v -0.000366 -99.998840 -0.000011
v -0.000366 -199.997833 -0.000015
v -0.000366 -199.997833 49.999969
v -100.000610 -0.000046 0.000000
v -100.000610 99.998779 100.000053
v -100.000610 99.998779 0.000000
v -100.000610 -0.000046 100.000053
v -100.000610 -99.998871 0.000000
v -100.000610 -99.998871 100.000053
v -50.001831 0.000824 149.999969
v -100.000854 0.000824 149.999969
v -50.001831 -49.999176 149.999954
v -100.000854 -99.999176 149.999939
v 49.999634 -99.999176 149.999939
v 49.999634 -49.999298 149.999954
v 200.000122 -0.000259 49.999966
v 150.000000 -49.999954 49.999981
v 200.000122 -50.000259 49.999966
v 99.999878 -0.000170 49.999992
v 99.998779 -150.000275 49.999981
v 149.998779 -150.000275 49.999981
v 99.998657 149.998688 49.999981
v 99.998779 199.998810 49.999966
v 99.998657 199.998566 -0.000034
v 99.998657 149.998688 -0.000019
v 99.998657 99.998566 -0.000004
v 99.998657 99.998566 49.999996
v 49.999634 -149.998901 49.999954
v -0.000366 -149.998901 49.999969
v -0.000366 -199.997833 49.999969
v 99.999634 -199.997803 49.999939
v 99.999634 -99.998871 49.999939
v 49.999756 -99.998901 49.999954
v 149.998169 99.998566 49.999996
v 99.998657 149.998688 49.999981
v 99.998657 99.998566 49.999996
v 149.998413 149.998688 49.999981
v 99.998779 199.998810 49.999966
v 149.998779 199.998810 49.999966
v 199.997681 99.998566 49.999996
v 199.997681 149.998566 49.999981
vn -0.0000 -0.0000 1.0000
vn -0.0000 -1.0000 -0.0000
vn 1.0000 -0.0000 -0.0000
vn -0.0000 1.0000 -0.0000
vn -1.0000 -0.0000 -0.0000
vt 0.875000 0.500000
vt 0.750000 0.500000
vt 0.750000 0.250000
vt 0.875000 0.250000
vt 0.125000 0.250000
vt 0.250000 0.250000
vt 0.250000 0.500000
vt 0.125000 0.500000
vt 0.187500 0.000000
vt 0.187500 0.250000
vt 0.125000 0.000000
vt 0.250000 0.000000
vt 0.125000 0.750000
vt 0.250000 0.750000
vt 0.000031 0.875000
vt 0.125000 0.875000
vt 0.125000 0.999969
vt 0.000031 0.999969
vt 0.062500 0.375000
vt 0.000031 0.375000
vt 0.000031 0.125000
vt 0.062500 0.125000
vt 0.062500 0.500000
vt 0.062500 0.750000
vt 0.250000 0.875000
vt 0.250000 0.999969
vt 0.750000 0.125000
vt 0.875000 0.125000
vt 0.750000 0.750000
vt 0.875000 0.750000
vt 0.875000 0.999969
vt 0.750000 0.999969
vt 0.625000 0.250000
vt 0.562500 0.250000
vt 0.562500 0.125000
vt 0.625000 0.125000
vt 0.187500 0.375000
vt 0.125000 0.375000
vt 0.937500 0.375000
vt 0.875000 0.375000
vt 0.937500 0.250000
vt 0.500000 0.375000
vt 0.500000 0.250000
vt 0.562500 0.375000
vt -0.000031 0.500000
vt -0.000031 0.375000
vt 0.250000 0.125000
vt 0.125000 0.125000
vt 0.937500 0.625000
vt 0.812500 0.625000
vt 0.812500 0.375000
vt 0.500000 0.000000
vt 0.562500 0.000000
vt 0.500000 0.125000
vt 0.812500 0.250000
vt 0.750000 0.000000
vt 0.875000 0.000000
vt 0.750000 0.375000
vt 0.812500 0.500000
vt 1.000000 0.250000
vt 1.000000 0.375000
vt 0.250000 0.375000
vt 0.687500 0.375000
vt 0.687500 0.500000
vt 0.500000 0.999969
vt 0.500000 0.750000
vt 0.625000 0.750000
vt 0.625000 0.999969
vt 0.625000 0.500000
vt 0.062500 0.250000
vt 0.000031 0.250000
vt -0.000031 0.250000
vt 0.250000 0.625000
vt 0.125000 0.625000
vt 0.750000 0.625000
vt 0.875000 0.625000
vt 0.625000 0.375000
vt 0.062500 0.000000
vt 0.062500 0.625000
vt 0.000031 0.625000
vt 0.000031 0.500000
vt 0.187500 0.125000
vt 1.000000 0.500000
vt 0.312500 0.500000
vt 0.312500 0.250000
vt 0.687500 0.250000
vt 0.187500 0.625000
vt 0.187500 0.875000
vt 0.437500 0.125000
vt 0.437500 0.250000
vt 0.187500 0.999969
vt 0.000031 0.000000
vt 0.937500 0.500000
vt 0.812500 0.125000
s 1
usemtl MI_Interactive_Sand_02
f 2/1/1 197/2/1 198/3/1 3/4/1
f 4/5/1 2/6/1 3/7/1 1/8/1
f 84/9/3 82/10/3 83/5/3 81/11/3
f 8/11/2 6/12/2 7/6/2 5/5/2
f 32/13/4 29/8/4 30/7/4 31/14/4
f 20/5/1 18/6/1 19/7/1 17/8/1
f 180/15/3 178/16/3 179/17/3 177/18/3
f 88/19/3 85/20/3 86/21/3 87/22/3
f 188/23/5 185/8/5 186/13/5 187/24/5
f 184/17/4 181/16/4 182/25/4 183/26/4
f 192/27/2 190/28/2 191/4/2 189/3/2
f 198/29/1 207/30/1 204/31/1 3/32/1
f 215/33/3 212/34/3 213/35/3 214/36/3
f 136/6/1 134/7/1 135/8/1 133/5/1
f 108/37/3 106/38/3 107/5/3 105/10/3
f 132/39/2 129/40/2 130/4/2 131/41/2
f 255/42/4 252/43/4 253/34/4 254/44/4
f 164/19/1 163/23/1 161/45/1 162/46/1
f 68/12/2 65/47/2 66/48/2 67/11/2
f 28/39/3 25/49/3 26/50/3 27/51/3
f 227/52/2 225/53/2 226/35/2 224/54/2
f 16/3/4 14/4/4 15/1/4 13/2/4
f 124/4/1 122/40/1 123/51/1 121/55/1
f 96/40/1 94/4/1 95/41/1 93/39/1
f 12/56/3 10/57/3 11/4/3 9/3/3
f 292/51/5 289/58/5 290/3/5 291/55/5
f 196/51/3 195/59/3 193/2/3 194/58/3
f 24/12/2 21/6/2 22/5/2 23/11/2
f 172/39/3 169/41/3 170/60/3 171/61/3
f 116/62/4 114/37/4 115/10/4 113/6/4
f 304/63/1 302/58/1 303/2/1 301/64/1
f 14/65/4 201/66/4 202/67/4 15/68/4
f 80/67/1 77/69/1 78/2/1 79/29/1
f 148/23/5 146/70/5 147/5/5 145/8/5
f 152/47/2 149/6/2 150/5/2 151/48/2
f 267/22/5 264/70/5 265/71/5 266/21/5
f 112/19/4 109/70/4 110/5/4 111/38/4
f 168/70/2 165/19/2 166/46/2 167/72/2
f 144/73/4 142/74/4 143/8/4 141/7/4
f 211/35/1 208/34/1 209/43/1 210/54/1
f 40/75/4 37/2/4 38/1/4 39/76/4
f 308/77/1 304/63/1 301/64/1 307/69/1
f 60/12/2 57/47/2 58/22/2 59/78/2
f 176/17/1 173/13/1 174/14/1 175/26/1
f 219/42/4 216/43/4 217/34/4 218/44/4
f 92/23/2 89/79/2 90/80/2 91/81/2
f 247/33/3 246/34/3 244/35/3 245/36/3
f 120/9/3 118/12/3 119/47/3 117/82/3
f 3/60/1 204/83/1 203/1/1 1/4/1
f 34/45/5 36/72/5 35/5/5 33/8/5
f 6/33/2 199/3/2 200/2/2 7/69/2
f 48/4/1 47/1/1 45/2/1 46/3/1
f 104/61/4 102/39/4 103/41/4 101/60/4
f 140/84/3 137/7/3 138/6/3 139/85/3
f 160/37/3 157/38/3 158/48/3 159/82/3
f 44/86/5 41/3/5 42/2/5 43/64/5
f 56/74/5 53/87/5 54/88/5 55/16/5
f 251/35/1 250/34/1 248/43/1 249/54/1
f 231/35/1 228/34/1 229/43/1 230/54/1
f 259/52/2 257/53/2 258/35/2 256/54/2
f 223/89/5 220/54/5 221/43/5 222/90/5
f 235/53/2 232/35/2 233/54/2 234/52/2
f 263/33/3 260/34/3 261/35/3 262/36/3
f 243/89/5 240/54/5 241/43/5 242/90/5
f 64/48/1 62/47/1 63/6/1 61/5/1
f 239/44/4 237/42/4 238/43/4 236/34/4
f 72/19/2 70/23/2 71/81/2 69/20/2
f 76/91/3 73/17/3 74/16/3 75/88/3
f 294/2/5 289/58/5 292/51/5 293/59/5
f 268/92/5 267/22/5 266/21/5
f 269/11/5 267/22/5 268/92/5
f 267/22/5 269/11/5 270/48/5
f 10/31/3 205/32/3 206/29/3 11/30/3
f 274/4/5 272/1/5 273/2/5 271/3/5
f 279/5/1 277/38/1 278/19/1
f 279/5/1 278/19/1 280/22/1
f 280/22/1 281/47/1 279/5/1
f 282/6/1 279/5/1 281/47/1
f 285/13/1 283/16/1 284/24/1
f 283/16/1 286/15/1 284/24/1
f 284/24/1 286/15/1 287/45/1
f 288/23/1 284/24/1 287/45/1
f 304/63/1 306/86/1 305/3/1 302/58/1
f 156/11/2 153/48/2 154/21/2 155/92/2
f 297/21/1 295/70/1 296/71/1
f 295/70/1 297/21/1 298/48/1
f 295/70/1 298/48/1 299/38/1
f 300/19/1 295/70/1 299/38/1
f 100/93/5 98/1/5 99/40/5 97/39/5
f 52/26/4 50/91/4 51/88/4 49/25/4
f 128/94/5 126/28/5 127/4/5 125/55/5
f 276/57/5 274/4/5 271/3/5 275/56/5
