# Blender 5.0.1
# www.blender.org
mtllib BP_WindSwept_End_Gate.mtl
o SM_Windswept_End_Gate_L.001
v -400.000000 -100.000031 0.000000
v -800.000000 -100.000015 0.000000
v -800.000000 -0.000014 0.000000
v -400.000000 -0.000032 0.000000
v -400.000000 -0.000032 800.000000
v -800.000000 -0.000014 800.000000
v -400.000000 -100.000031 800.000000
v -800.000000 -100.000015 800.000000
v -800.000000 -0.000014 300.000000
v -400.000000 -0.000032 300.000000
v -400.000000 -0.000032 0.000000
v -800.000000 -0.000014 0.000000
v -800.000000 -0.000014 800.000000
v -400.000000 -0.000032 800.000000
v -400.000000 -0.000032 500.000000
v -800.000000 -0.000014 500.000000
v -800.000000 -25.000137 300.000000
v -400.000000 -25.000154 300.000000
v -400.000000 -0.000032 300.000000
v -800.000000 -0.000014 300.000000
v -800.000000 -25.000137 500.000000
v -400.000000 -0.000032 500.000000
v -400.000000 -25.000158 500.000000
v -800.000000 -0.000014 500.000000
v -300.000000 -100.000038 500.000000
v -300.000000 -25.000158 500.000000
v -400.000000 -25.000158 500.000000
v -400.000000 -100.000031 500.000000
v -300.000000 -100.000038 300.000000
v -300.000000 -25.000158 500.000000
v -300.000000 -100.000038 500.000000
v -300.000000 -25.000158 300.000000
v -400.000000 -100.000031 300.000000
v -400.000000 -25.000154 300.000000
v -300.000000 -25.000158 300.000000
v -300.000000 -100.000038 300.000000
v -400.000000 -100.000031 300.000000
v -400.000000 -100.000031 0.000000
v -400.000000 -25.000154 300.000000
v -400.000000 -0.000032 0.000000
v -400.000000 -0.000032 300.000000
v -400.000000 -100.000031 800.000000
v -800.000000 -100.000015 800.000000
v -800.000000 -100.000015 500.000000
v -400.000000 -100.000031 500.000000
v -800.000000 -100.000015 300.000000
v -300.000000 -100.000038 300.000000
v -300.000000 -100.000038 500.000000
v -400.000000 -100.000031 300.000000
v -800.000000 -100.000015 0.000000
v -400.000000 -100.000031 0.000000
v -400.000000 -25.000158 500.000000
v -400.000000 -0.000032 500.000000
v -400.000000 -0.000032 800.000000
v -400.000000 -100.000031 800.000000
v -400.000000 -100.000031 500.000000
v -800.000000 -25.000137 500.000000
v -400.000000 -25.000154 300.000000
v -800.000000 -25.000137 300.000000
v -400.000000 -25.000158 500.000000
v -300.000000 -25.000158 500.000000
v -300.000000 -25.000158 300.000000
v -800.000000 -0.000014 800.000000
v -800.000000 -0.000014 500.000000
v -800.000000 -25.000137 500.000000
v -800.000000 -100.000015 800.000000
v -800.000000 -100.000015 500.000000
v -800.000000 -25.000137 300.000000
v -800.000000 -100.000015 300.000000
v -800.000000 -100.000015 0.000000
v -800.000000 -0.000014 0.000000
v -800.000000 -0.000014 300.000000
vn -0.0000 -0.0000 -1.0000
vn -0.0000 -0.0000 1.0000
vn -0.0000 1.0000 -0.0000
vn 1.0000 -0.0000 -0.0000
vn -0.0000 -1.0000 -0.0000
vn -1.0000 -0.0000 -0.0000
vt 1.000000 0.562500
vt 1.000000 0.625000
vt 0.953125 0.625000
vt 0.953125 0.562500
vt 0.375000 0.000000
vt 0.375000 0.187500
vt 0.125000 0.187500
vt 0.125000 0.000000
vt 0.937500 0.000000
vt 0.937500 0.187500
vt 0.687500 0.187500
vt 0.687500 0.000000
vt 0.375000 0.312500
vt 0.125000 0.312500
vt 0.000031 0.999969
vt 0.250000 0.999969
vt 0.250000 0.984375
vt 0.000031 0.984375
vt 0.375000 0.562500
vt 0.125000 0.562500
vt 0.125000 0.500000
vt 0.375000 0.500000
vt 0.250000 0.964844
vt 0.000031 0.964844
vt 0.000031 0.980469
vt 0.250000 0.980469
vt 0.937500 0.312500
vt 1.000000 0.187500
vt 1.000000 0.312500
vt 0.953125 0.812500
vt 0.937500 0.999969
vt 0.937500 0.812500
vt 0.062500 0.000000
vt 0.000031 0.000000
vt 0.000031 0.187500
vt 0.046875 0.187500
vt 0.937500 0.500000
vt 0.687500 0.500000
vt 0.687500 0.312500
vt 0.953125 0.750000
vt 1.000000 0.750000
vt 0.937500 0.375000
vt 0.937500 0.562500
vt 0.000031 0.312500
vt 0.000031 0.500000
vt 0.062500 0.500000
vt 0.046875 0.312500
vt 1.000000 0.812500
vt 0.062500 0.312500
vt 1.000000 0.999969
vt 0.062500 0.187500
vt 1.000000 0.375000
s 1
usemtl MI_Windswept_End_Gate
f 28/1/2 25/2/2 26/3/2 27/4/2
f 12/5/3 9/6/3 10/7/3 11/8/3
f 51/9/5 49/10/5 46/11/5 50/12/5
f 57/13/3 60/14/3 58/7/3 59/6/3
f 24/15/1 22/16/1 23/17/1 21/18/1
f 8/19/2 7/20/2 5/21/2 6/22/2
f 19/23/2 20/24/2 17/25/2 18/26/2
f 45/27/5 49/10/5 47/28/5 48/29/5
f 3/20/1 4/19/1 1/22/1 2/21/1
f 39/30/4 40/31/4 41/32/4
f 71/33/6 70/34/6 69/35/6 68/36/6
f 45/27/5 42/37/5 43/38/5 44/39/5
f 49/10/5 45/27/5 44/39/5 46/11/5
f 32/40/4 30/3/4 31/2/4 29/41/4
f 54/42/4 52/4/4 53/43/4
f 67/44/6 66/45/6 63/46/6 65/47/6
f 36/41/1 33/48/1 34/30/1 35/40/1
f 16/13/3 13/22/3 14/21/3 15/14/3
f 65/47/6 63/46/6 64/49/6
f 38/50/4 40/31/4 39/30/4 37/48/4
f 62/51/3 58/7/3 60/14/3 61/49/3
f 56/1/4 52/4/4 54/42/4 55/52/4
f 72/51/6 71/33/6 68/36/6
f 69/35/6 67/44/6 65/47/6 68/36/6
