# Blender 5.0.1
# www.blender.org
mtllib BP_WeapingVines.mtl
o SM_TwistedVine.001
v 35.355339 35.355354 99.999992
v -35.355339 -35.355339 0.000010
v -35.355339 -35.355324 100.000008
v 35.355339 35.355339 -0.000002
v 35.355339 -35.355324 100.000008
v -35.355339 35.355339 -0.000006
v -35.355339 35.355354 99.999992
v 35.355339 -35.355339 0.000006
vn -0.7071 0.7071 -0.0000
vn 0.7071 0.7071 -0.0000
vt 0.499756 0.500000
vt 1.000000 0.500000
vt 1.000000 0.999969
vt 0.500000 0.999969
s 1
usemtl MI_TwistedVines
f 4/1/1 2/2/1 3/3/1 1/4/1
f 8/1/2 6/2/2 7/3/2 5/4/2
