# Blender 5.0.1
# www.blender.org
mtllib BP_WindDecal.mtl
o SM_GS_Windplaque.001
v -149.999512 -100.000038 -31.249432
v 50.000484 -100.000389 -31.251202
v 50.000835 99.999611 -31.250629
v -149.999161 99.999962 -31.248859
v -149.999161 99.999962 -31.248859
v -149.999680 -99.999985 -49.999428
v -149.999512 -100.000038 -31.249432
v -149.999329 100.000015 -49.998859
v -149.999161 99.999962 -31.248859
v 50.000835 99.999611 -31.250629
v 50.000668 99.999664 -50.000629
v -149.999329 100.000015 -49.998859
v 50.000835 99.999611 -31.250629
v 50.000484 -100.000389 -31.251202
v 50.000317 -100.000328 -50.001202
v 50.000668 99.999664 -50.000629
v -149.999512 -100.000038 -31.249432
v 50.000317 -100.000328 -50.001202
v 50.000484 -100.000389 -31.251202
v -149.999680 -99.999985 -49.999428
vn -0.0000 -0.0000 1.0000
vn -1.0000 -0.0000 -0.0000
vn -0.0000 1.0000 -0.0000
vn 1.0000 -0.0000 -0.0000
vn -0.0000 -1.0000 -0.0000
vt 0.000031 0.093750
vt 1.000000 0.093750
vt 1.000000 0.000000
vt 0.000031 0.000000
vt 1.000000 0.999969
vt 0.000031 0.999969
s 1
usemtl Mi_Windplaque
f 8/1/2 6/2/2 7/3/2 5/4/2
f 20/1/5 18/2/5 19/3/5 17/4/5
f 4/3/1 1/5/1 2/6/1 3/4/1
f 16/1/4 13/4/4 14/3/4 15/2/4
f 12/1/3 9/4/3 10/3/3 11/2/3
