# Blender 5.0.1
# www.blender.org
mtllib BP_WindholeManmade01.mtl
o SM_GS_sWindhole_MM_1.001
v -100.000000 100.000000 -0.000010
v -200.000000 100.000000 -0.000010
v -200.000000 0.000000 0.000000
v -100.000000 0.000000 0.000000
v -100.000000 300.000000 -0.000029
v -200.000000 300.000000 -0.000029
v -200.000000 200.000000 -0.000019
v -100.000000 200.000000 -0.000019
v 0.000000 300.000000 -0.000029
v 0.000000 200.000000 -0.000019
v 100.000000 200.000000 -0.000019
v 0.000000 100.000000 -0.000010
v 100.000000 100.000000 -0.000010
v 0.000000 0.000000 0.000000
v 100.000000 0.000000 0.000000
v -100.000000 -100.000000 0.000010
v 0.000000 -100.000000 0.000010
v -200.000000 -100.000000 0.000010
v -300.000000 100.000000 -0.000010
v -300.000000 0.000000 0.000000
v -300.000000 200.000000 -0.000019
vn -0.0000 -0.0000 1.0000
vt 1.000000 0.375000
vt 1.000000 0.500000
vt 0.875000 0.500000
vt 0.875000 0.375000
vt 0.625000 0.375000
vt 0.625000 0.250000
vt 0.750000 0.250000
vt 0.750000 0.375000
s 1
usemtl MI_GS_Props
f 15/1/1 13/2/1 12/3/1 14/4/1
f 3/2/1 2/3/1 19/4/1 20/1/1
f 13/4/1 11/1/1 10/2/1 12/3/1
f 4/5/1 1/6/1 2/7/1 3/8/1
f 17/1/1 14/2/1 4/3/1 16/4/1
f 2/3/1 7/4/1 21/1/1 19/2/1
f 12/7/1 10/8/1 8/5/1 1/6/1
f 10/4/1 9/1/1 5/2/1 8/3/1
f 16/2/1 4/3/1 3/4/1 18/1/1
f 1/6/1 8/7/1 7/8/1 2/5/1
f 8/3/1 5/4/1 6/1/1 7/2/1
f 14/8/1 12/5/1 1/6/1 4/7/1
