# Blender 5.0.1
# www.blender.org
mtllib BP_Wagon.mtl
o SK_Lantern.001
v 253.665176 -88.117088 186.009888
v 235.162003 -88.117104 189.042297
v 230.613388 -88.117104 161.287552
v 249.116547 -88.117088 158.255142
v 253.665161 -69.367088 186.009888
v 235.162003 -88.117104 189.042297
v 253.665176 -88.117088 186.009888
v 235.161987 -69.367104 189.042297
v 249.116531 -69.367088 158.255142
v 230.613373 -69.367104 161.287567
v 235.161987 -69.367104 189.042297
v 253.665161 -69.367088 186.009888
v 249.116547 -88.117088 158.255142
v 230.613388 -88.117104 161.287552
v 230.613373 -69.367104 161.287567
v 249.116531 -69.367088 158.255142
v 253.665176 -88.117088 186.009888
v 249.116547 -88.117088 158.255142
v 253.665161 -69.367088 186.009888
v 249.116531 -69.367088 158.255142
v 235.162003 -88.117104 189.042297
v 230.613373 -69.367104 161.287567
v 230.613388 -88.117104 161.287552
v 235.161987 -69.367104 189.042297
v 246.317917 -77.179596 199.878464
v 246.706055 -74.054596 202.979279
v 246.317917 -74.054596 199.878464
v 246.706055 -77.179596 202.979279
v 246.317932 -80.304596 199.878464
v 247.094193 -74.054596 206.080078
v 246.706055 -80.304596 202.979279
v 247.094193 -77.179596 206.080078
v 246.317932 -83.429596 199.878464
v 247.482330 -74.054596 209.180878
v 246.706070 -83.429596 202.979279
v 247.482330 -77.179596 209.180878
v 247.094193 -80.304596 206.080078
v 247.870468 -74.054596 212.281677
v 247.094193 -83.429596 206.080078
v 247.870468 -77.179596 212.281677
v 247.482330 -80.304596 209.180878
v 247.482330 -83.429596 209.180878
v 247.870468 -80.304596 212.281677
v 247.870468 -83.429596 212.281677
v 244.413589 -77.179596 187.526093
v 244.918976 -74.054596 190.609955
v 244.413574 -74.054596 187.526093
v 244.918991 -77.179596 190.609955
v 244.413589 -80.304596 187.526093
v 245.424377 -74.054596 193.693802
v 244.918991 -80.304596 190.609955
v 245.424393 -77.179596 193.693802
v 244.413589 -83.429596 187.526093
v 245.929779 -74.054596 196.777664
v 244.918991 -83.429596 190.609955
v 245.929794 -77.179596 196.777664
v 245.424393 -80.304596 193.693802
v 246.435196 -74.054596 199.861526
v 245.424393 -83.429596 193.693802
v 246.435196 -77.179596 199.861526
v 245.929794 -80.304596 196.777664
v 245.929794 -83.429596 196.777664
v 246.435196 -80.304596 199.861526
v 246.435196 -83.429596 199.861526
v 247.092056 -78.742096 193.482803
v 250.580994 -78.742096 196.195465
v 250.192856 -78.742096 193.094666
v 247.480194 -78.742096 196.583603
v 243.991257 -78.742096 193.870941
v 250.969131 -78.742096 199.296265
v 244.379395 -78.742096 196.971741
v 247.868332 -78.742096 199.684402
v 240.890457 -78.742096 194.259064
v 251.357269 -78.742096 202.397079
v 241.278580 -78.742096 197.359879
v 248.256454 -78.742096 202.785202
v 244.767517 -78.742096 200.072540
v 251.745392 -78.742096 205.497879
v 241.666718 -78.742096 200.460678
v 248.644592 -78.742096 205.886017
v 245.155655 -78.742096 203.173340
v 242.054855 -78.742096 203.561478
v 245.543793 -78.742096 206.274139
v 242.442993 -78.742096 206.662277
vn -0.0000 -1.0000 -0.0000
vn 0.1617 -0.0000 0.9868
vn -0.0000 1.0000 -0.0000
vn -0.1617 -0.0000 -0.9868
vn 0.9868 -0.0000 -0.1617
vn -0.9868 -0.0000 0.1617
vn -0.9923 -0.0000 0.1242
vt 0.031250 0.593750
vt 0.031235 0.562500
vt 0.062469 0.562500
vt 0.062500 0.593750
vt 0.000031 0.562500
vt 0.000031 0.531250
vt 0.031250 0.531250
vt 0.062500 0.656250
vt 0.062500 0.625000
vt 0.093750 0.625000
vt 0.093750 0.656250
vt 0.000031 0.593750
vt 0.093750 0.593750
vt 0.062500 0.500000
vt 0.062500 0.468750
vt 0.093750 0.468750
vt 0.093750 0.500000
vt 0.093750 0.687500
vt 0.312500 0.468750
vt 0.312500 0.687500
vt 0.000031 0.656250
vt 0.000031 0.625000
vt 0.031250 0.625000
vt 0.031250 0.656250
vt 0.531250 0.469238
vt 0.531250 0.687500
vt 0.312500 0.469238
vt 0.062469 0.687500
vt 0.062500 0.531250
vt 0.093750 0.531250
vt 0.093750 0.562500
vt 0.375000 0.687500
vt 0.562500 0.687500
vt 0.562500 0.999969
vt 0.375000 0.999969
vt 0.000031 0.687500
vt 0.031235 0.687500
vt 0.000031 0.999969
vt 0.000031 0.687500
vt 0.187378 0.687500
vt 0.187500 0.999969
vt 0.000031 0.500000
vt 0.031250 0.500000
vt 0.187378 0.999969
vt 0.000031 0.468750
vt 0.000031 0.437500
vt 0.031235 0.437500
vt 0.031250 0.468750
vt 0.749512 0.687500
vt 0.750000 0.999969
vt 0.062469 0.437500
vt 0.093750 0.437500
s 1
usemtl M_Lantern_RedFire
f 41/1/7 43/2/7 40/3/7 36/4/7
f 73/5/3 75/6/3 71/7/3 69/2/3
f 48/8/6 52/9/6 50/10/6 46/11/6
f 42/12/7 44/5/7 43/2/7 41/1/7
f 32/9/7 36/4/7 34/13/7 30/10/7
f 72/14/3 76/15/3 74/16/3 70/17/3
f 28/8/7 32/9/7 30/10/7 26/11/7
f 8/18/2 6/16/2 7/19/2 5/20/2
f 35/21/7 39/22/7 37/23/7 31/24/7
f 16/25/4 13/26/4 14/20/4 15/27/4
f 45/28/6 48/8/6 46/11/6 47/18/6
f 59/22/6 62/12/6 61/1/6 57/23/6
f 68/29/3 72/14/3 70/17/3 66/30/3
f 52/9/6 56/4/6 54/13/6 50/10/6
f 56/4/6 60/3/6 58/31/6 54/13/6
f 18/32/5 20/33/5 19/34/5 17/35/5
f 53/36/6 55/21/6 51/24/6 49/37/6
f 29/37/7 31/24/7 28/8/7 25/28/7
f 62/12/6 64/5/6 63/2/6 61/1/6
f 49/37/6 51/24/6 48/8/6 45/28/6
f 33/36/7 35/21/7 31/24/7 29/37/7
f 24/38/6 22/39/6 23/40/6 21/41/6
f 39/22/7 42/12/7 41/1/7 37/23/7
f 65/3/3 68/29/3 66/30/3 67/31/3
f 36/4/7 40/3/7 38/31/7 34/13/7
f 75/6/3 79/42/3 77/43/3 71/7/3
f 4/32/1 1/35/1 2/44/1 3/40/1
f 61/1/6 63/2/6 60/3/6 56/4/6
f 69/2/3 71/7/3 68/29/3 65/3/3
f 55/21/6 59/22/6 57/23/6 51/24/6
f 82/45/3 84/46/3 83/47/3 81/48/3
f 25/28/7 28/8/7 26/11/7 27/18/7
f 12/34/3 9/33/3 10/49/3 11/50/3
f 76/15/3 80/51/3 78/52/3 74/16/3
f 79/42/3 82/45/3 81/48/3 77/43/3
f 81/48/3 83/47/3 80/51/3 76/15/3
