# Blender 5.0.1
# www.blender.org
mtllib BP_Wind_Pillar.mtl
o SM_Wind_Pillar.001
v -50.000000 49.999985 350.000000
v 50.000000 -50.000015 350.000000
v 50.000000 49.999985 350.000000
v -50.000000 -50.000015 350.000000
v -25.000004 50.000000 74.999992
v -25.000000 25.000002 25.000000
v -25.000000 50.000000 24.999994
v -25.000002 25.000002 75.000000
v 25.000000 24.999998 24.999996
v 25.000000 24.999998 75.000000
v 25.000000 50.000000 74.999992
v 25.000000 50.000000 24.999994
v -24.999998 -50.000000 75.000008
v -25.000002 -50.000000 25.000006
v -25.000000 -24.999998 75.000000
v -25.000000 -24.999998 25.000000
v 25.000000 -25.000002 75.000008
v 25.000000 -50.000000 25.000006
v 25.000000 -50.000000 75.000008
v 25.000000 -25.000002 25.000000
v -25.000000 25.000002 25.000000
v -25.000002 25.000002 75.000000
v -50.000000 25.000002 74.999992
v -50.000000 25.000002 24.999996
v -25.000000 -24.999998 75.000000
v -50.000000 -25.000002 25.000000
v -50.000000 -25.000002 75.000000
v -25.000000 -24.999998 25.000000
v 50.000000 24.999994 74.999992
v 25.000000 24.999998 24.999996
v 50.000000 24.999994 24.999996
v 25.000000 24.999998 75.000000
v 25.000000 -25.000002 75.000008
v 50.000000 -25.000006 25.000004
v 25.000000 -25.000002 25.000000
v 50.000000 -25.000006 75.000008
v 25.000000 25.000000 362.500000
v -25.000000 25.000000 362.500000
v -25.000000 -25.000002 362.500000
v 25.000000 -25.000002 362.500000
v 25.000000 -25.000002 362.500000
v -25.000000 -25.000002 362.500000
v -25.000000 -25.000002 350.000000
v 25.000000 -25.000002 350.000000
v 25.000000 25.000000 362.500000
v 25.000000 -25.000002 362.500000
v 25.000000 -25.000002 350.000000
v 25.000000 25.000000 350.000000
v -25.000000 25.000000 362.500000
v 25.000000 25.000000 362.500000
v 25.000000 25.000000 350.000000
v -25.000000 25.000000 350.000000
v -25.000000 -25.000002 362.500000
v -25.000000 25.000000 362.500000
v -25.000000 25.000000 350.000000
v -25.000000 -25.000002 350.000000
v 399.999969 -500.000122 12.500000
v -400.000031 -499.999908 12.500000
v -400.000031 -499.999908 0.000000
v 399.999969 -500.000122 0.000000
v -400.000000 -399.999939 12.500000
v 400.000061 -400.000092 12.500000
v 400.000061 -400.000092 0.000000
v -400.000000 -399.999939 0.000000
v -400.000031 -499.999908 25.000000
v 399.999969 -500.000092 25.000000
v 400.000031 -400.000061 25.000000
v -400.000031 -399.999939 25.000000
v 400.000061 -400.000092 12.500000
v 400.000000 400.000000 12.500000
v 400.000000 400.000000 0.000000
v 400.000061 -400.000092 0.000000
v 500.000031 399.999939 12.500000
v 500.000031 -400.000031 12.500000
v 500.000031 -400.000031 0.000000
v 500.000031 399.999939 0.000000
v 400.000031 -400.000061 25.000000
v 400.000031 400.000061 25.000000
v 500.000061 -400.000031 25.000000
v 500.000061 399.999939 25.000000
v 500.000122 500.000061 12.500000
v 500.000122 500.000061 0.000000
v 500.000122 500.000061 25.000000
v 500.000031 -500.000214 12.500000
v 500.000031 -500.000214 0.000000
v 500.000031 -500.000092 25.000000
v -400.000061 400.000000 12.500000
v -400.000061 400.000000 0.000000
v -400.000061 400.000000 25.000000
v -500.000061 399.999939 12.500000
v -499.999969 499.999939 12.500000
v -499.999969 499.999939 0.000000
v -500.000061 399.999939 0.000000
v -499.999939 499.999939 25.000000
v -500.000031 399.999939 25.000000
v -400.000031 500.000000 12.500000
v -400.000031 500.000000 0.000000
v -400.000000 500.000000 25.000000
v -500.000031 -400.000000 12.500000
v -500.000031 -400.000000 0.000000
v -400.000061 400.000000 12.500000
v -400.000061 400.000000 0.000000
v -500.000031 -400.000000 25.000000
v -400.000061 400.000000 25.000000
v -500.000031 -499.999969 12.500000
v -500.000031 -499.999969 0.000000
v -500.000031 -499.999969 12.500000
v -500.000031 -499.999969 0.000000
v -500.000031 -499.999969 25.000000
v -500.000031 -499.999969 25.000000
v 400.000031 400.000061 25.000000
v 400.000031 -400.000061 25.000000
v 437.500000 400.000031 25.000000
v 437.500000 -400.000061 25.000000
v 462.500000 400.000000 25.000000
v 462.500000 -400.000061 25.000000
v 500.000061 399.999939 25.000000
v 500.000061 -400.000031 25.000000
v -400.000031 -499.999908 25.000000
v 399.999969 -500.000092 25.000000
v -400.000031 -462.500000 25.000000
v 400.000000 -462.499969 25.000000
v -400.000031 -437.500000 25.000000
v 400.000000 -437.500000 25.000000
v -400.000031 -399.999939 25.000000
v -400.000061 400.000000 25.000000
v -400.000031 437.500000 25.000000
v 400.000000 437.500000 25.000000
v -400.000000 462.500000 25.000000
v 400.000000 462.500000 25.000000
v 399.999969 500.000000 25.000000
v -400.000000 500.000000 25.000000
v 399.999939 500.000000 12.500000
v 399.999939 500.000000 0.000000
v 399.999969 500.000000 25.000000
v -437.500000 399.999969 25.000000
v -437.500000 -399.999969 25.000000
v -462.500000 399.999939 25.000000
v -462.500000 -400.000000 25.000000
v -500.000031 -400.000000 25.000000
v -500.000031 399.999939 25.000000
v 50.000000 49.999985 350.000000
v 50.000000 50.000000 100.000000
v -50.000000 49.999985 350.000000
v -50.000000 50.000000 100.000000
v 25.000000 50.000000 74.999992
v 50.000000 50.000000 0.000000
v -25.000004 50.000000 74.999992
v 25.000000 50.000000 24.999994
v -50.000000 50.000000 0.000000
v -25.000000 50.000000 24.999994
v -25.000000 25.000002 25.000000
v 25.000000 50.000000 24.999994
v -25.000000 50.000000 24.999994
v 25.000000 24.999998 24.999996
v -25.000000 -24.999998 25.000000
v -50.000000 25.000002 24.999996
v -50.000000 -25.000002 25.000000
v 25.000000 -25.000002 25.000000
v 50.000000 24.999994 24.999996
v 50.000000 -25.000006 25.000004
v -25.000002 -50.000000 25.000006
v 25.000000 -50.000000 25.000006
v 25.000000 50.000000 74.999992
v -25.000002 25.000002 75.000000
v -25.000004 50.000000 74.999992
v 25.000000 24.999998 75.000000
v -25.000000 -24.999998 75.000000
v -50.000000 25.000002 74.999992
v -50.000000 -25.000002 75.000000
v 25.000000 -25.000002 75.000008
v -24.999998 -50.000000 75.000008
v 25.000000 -50.000000 75.000008
v 50.000000 24.999994 74.999992
v 50.000000 -25.000006 75.000008
v 50.000000 -50.000015 350.000000
v 50.000000 -50.000000 100.000000
v 50.000000 49.999985 350.000000
v 50.000000 50.000000 100.000000
v 50.000000 -25.000006 75.000008
v 50.000000 24.999994 74.999992
v 50.000000 -25.000006 25.000004
v 50.000000 50.000000 0.000000
v 50.000000 -50.000000 0.000000
v 50.000000 24.999994 24.999996
v -50.000000 -50.000015 350.000000
v -50.000000 -50.000000 100.000000
v 50.000000 -50.000015 350.000000
v 50.000000 -50.000000 100.000000
v -24.999998 -50.000000 75.000008
v 25.000000 -50.000000 75.000008
v -25.000002 -50.000000 25.000006
v 25.000000 -50.000000 25.000006
v -50.000000 -50.000000 0.000000
v 50.000000 -50.000000 0.000000
v -50.000000 49.999985 350.000000
v -50.000000 -50.000000 100.000000
v -50.000000 -50.000015 350.000000
v -50.000000 50.000000 100.000000
v -50.000000 -25.000002 75.000000
v -50.000000 25.000002 74.999992
v -50.000000 -25.000002 25.000000
v -50.000000 50.000000 0.000000
v -50.000000 -50.000000 0.000000
v -50.000000 25.000002 24.999996
v -475.000000 425.000000 25.000000
v -499.999939 499.999939 25.000000
v -462.500000 425.000000 25.000000
v -475.000000 475.000000 25.000000
v -437.500000 425.000000 25.000000
v -425.000000 425.000000 25.000000
v -425.000000 437.500000 25.000000
v -425.000000 450.000000 25.000000
v -425.000000 462.500000 25.000000
v -425.000000 475.000000 25.000000
v 424.999969 425.000000 25.000000
v 425.000000 437.500000 25.000000
v 437.500000 425.000000 25.000000
v 462.500000 425.000000 25.000000
v 475.000000 475.000000 25.000000
v 475.000000 424.999969 25.000000
v 500.000122 500.000061 25.000000
v 425.000000 462.500000 25.000000
v 425.000000 475.000000 25.000000
v 425.000000 -425.000000 25.000000
v 425.000000 -437.500000 25.000000
v 437.500000 -425.000000 25.000000
v 462.500000 -425.000000 25.000000
v 475.000000 -475.000000 25.000000
v 475.000000 -425.000000 25.000000
v 500.000031 -500.000092 25.000000
v 425.000000 -462.500000 25.000000
v 425.000000 -475.000000 25.000000
v -425.000000 -425.000000 25.000000
v -437.500000 -425.000000 25.000000
v -425.000000 -437.500000 25.000000
v -424.999969 -462.500000 25.000000
v -475.000000 -475.000000 25.000000
v -424.999969 -475.000000 25.000000
v -500.000031 -499.999969 25.000000
v -462.500000 -425.000000 25.000000
v -475.000000 -425.000000 25.000000
vn -0.0000 -0.0000 1.0000
vn 1.0000 -0.0000 -0.0000
vn -1.0000 -0.0000 -0.0000
vn -0.0000 -1.0000 -0.0000
vn -0.0000 1.0000 -0.0000
vn 0.7071 0.7071 -0.0000
vn -0.7071 -0.7071 -0.0000
vn 0.7071 -0.7071 -0.0000
vn -0.7071 0.7071 -0.0000
vn -0.0000 -0.0000 -1.0000
vt 0.648438 0.250000
vt 0.648438 0.500000
vt 0.632812 0.500000
vt 0.632812 0.250000
vt 0.875000 -0.390625
vt 0.875000 1.609375
vt 0.921875 1.609375
vt 0.921387 -0.390625
vt 0.531250 0.312500
vt 0.531250 0.187500
vt 0.562500 0.187500
vt 0.562500 0.312500
vt 0.750000 0.343750
vt 0.781250 0.343750
vt 0.781250 0.406250
vt 0.750000 0.406250
vt 0.281250 0.312500
vt 0.281250 0.187500
vt 0.304688 0.187500
vt 0.304688 0.312500
vt 0.125000 0.312500
vt 0.125000 0.437500
vt 0.093750 0.437500
vt 0.093750 0.312500
vt 0.718750 1.500000
vt 0.734375 1.500000
vt 0.734375 -0.500000
vt 0.718750 -0.500000
vt 0.031250 0.437500
vt 0.093750 0.500000
vt 0.031250 0.500000
vt 0.921875 -0.390625
vt 0.062500 0.562500
vt 0.078125 0.562500
vt 0.078125 0.687500
vt 0.062500 0.687500
vt 0.093750 0.250000
vt 0.031250 0.312500
vt 0.031250 0.250000
vt 0.625000 1.234375
vt 0.640625 1.234375
vt 0.640625 1.482422
vt 0.625000 1.482422
vt 0.000031 0.750000
vt 0.125000 0.750000
vt 0.125000 0.999969
vt 0.000031 0.999969
vt 0.648438 -0.765625
vt 0.648438 -0.514648
vt 0.632812 -0.514648
vt 0.632812 -0.765625
vt 0.882812 -0.515625
vt 0.898438 -0.515625
vt 0.898438 1.453125
vt 0.882812 1.453125
vt 0.625000 0.000000
vt 0.640625 0.000000
vt 0.640625 0.250000
vt 0.625000 0.250000
vt 0.500000 0.375000
vt 0.500000 0.999969
vt 0.375000 0.999969
vt 0.375000 0.375000
vt 0.093750 0.625000
vt 0.093750 0.656250
vt 0.031250 0.656250
vt 0.031250 0.625000
vt 0.046875 0.687500
vt 0.046875 0.562500
vt 1.000000 -0.421875
vt 1.000000 1.562500
vt 0.952637 1.562500
vt 0.952637 -0.421875
vt 0.031250 0.593750
vt 0.093750 0.593750
vt 0.898438 -0.765625
vt 0.898438 1.234375
vt 0.882812 1.234375
vt 0.882812 -0.765625
vt 0.187500 0.187500
vt 0.218750 0.187500
vt 0.218750 0.312500
vt 0.187500 0.312500
vt 0.093750 0.562500
vt 0.093750 0.687500
vt 0.031250 0.687500
vt 0.031250 0.562500
vt 0.625000 0.375000
vt 0.625000 0.999969
vt 0.625000 1.453125
vt 0.640625 1.453125
vt 0.640625 -0.531250
vt 0.625000 -0.531250
vt 0.648438 1.484375
vt 0.632812 1.484375
vt 0.906250 1.484375
vt 0.890625 1.484375
vt 0.890625 -0.515625
vt 0.906250 -0.515625
vt 0.625000 -0.468750
vt 0.640625 -0.468750
vt 0.640625 1.531250
vt 0.625000 1.531250
vt 0.726562 -0.484375
vt 0.726562 1.500000
vt 0.742188 1.500000
vt 0.742188 -0.484375
vt 0.648438 -0.468750
vt 0.648438 1.531250
vt 0.632812 1.531250
vt 0.632812 -0.468750
vt 0.250000 0.999969
vt 0.250000 0.375000
vt 0.906250 1.593750
vt 0.890625 1.593750
vt 0.890625 -0.390625
vt 0.906250 -0.390625
vt 0.827637 0.062500
vt 0.796387 0.062500
vt 0.796387 0.000000
vt 0.827637 0.000000
vt 0.632812 1.234375
vt 0.648438 1.234375
vt 0.593750 0.187500
vt 0.593750 0.312500
vt 0.343750 0.187500
vt 0.343750 0.312500
vt 0.921387 -0.421875
vt 0.921387 1.562500
vt 0.875000 1.562500
vt 0.875000 -0.421875
vt 0.953125 -0.390625
vt 1.000000 -0.390625
vt 1.000000 1.609375
vt 0.953125 1.609375
vt 0.156250 0.312500
vt 0.156250 0.187500
vt 0.625000 -0.750000
vt 0.640625 -0.750000
vt 0.640625 -0.501953
vt 0.625000 -0.501953
vt 0.976562 -0.468750
vt 0.976562 1.531250
vt 0.992188 1.531250
vt 0.992188 -0.468750
vt 0.976562 -0.515625
vt 0.976562 1.484375
vt 0.992188 1.484375
vt 0.992188 -0.515625
vt 0.406250 0.312500
vt 0.375000 0.125000
vt 0.468750 0.312500
vt 0.406250 0.187500
vt 0.500000 0.125000
vt 0.468750 0.187500
vt 0.437500 0.312500
vt 0.437500 0.187500
vt 0.952637 -0.390625
vt 0.000031 0.437500
vt 0.000031 0.312500
vt 1.000000 -0.515625
vt 0.984375 -0.515625
vt 0.984375 1.484375
vt 1.000000 1.484375
vt 0.250000 0.125000
vt 0.125000 0.375000
vt 0.125000 0.125000
vt 0.625000 0.125000
vt 0.750000 0.500000
vt 0.781250 0.437500
vt 0.875000 0.500000
vt 0.827637 0.750000
vt 0.827637 0.812500
vt 0.796387 0.812500
vt 0.796875 0.750000
vt 0.843750 0.437988
vt 0.781250 0.312500
vt 0.750000 0.250000
vt 0.796875 0.250000
vt 0.796875 0.312500
vt 0.812500 0.312500
vt 0.828125 0.250000
vt 0.828125 0.312500
vt 0.843750 0.312500
vt 0.875000 0.250000
vt 0.750000 0.750000
vt 0.780762 0.812500
vt 0.750000 0.843750
vt 0.781250 0.843750
vt 0.843262 0.937500
vt 0.843262 0.812500
vt 0.875000 0.750000
vt 0.875000 0.999969
vt 0.750000 0.999969
vt 0.780762 0.906250
vt 0.780762 0.937500
vt 0.750000 0.906250
vt 0.750000 0.000000
vt 0.780762 0.062500
vt 0.750000 0.093750
vt 0.828125 0.562744
vt 0.796875 0.562744
vt 0.796875 0.500000
vt 0.828125 0.500000
vt 0.780762 0.093750
vt 0.750000 0.156250
vt 0.780762 0.156250
vt 0.843262 0.187500
vt 0.780762 0.187500
vt 0.843262 0.062500
vt 0.875000 0.000000
vt 0.780762 0.562744
vt 0.750000 0.593994
vt 0.750000 0.656494
vt 0.781250 0.593994
vt 0.780762 0.656494
vt 0.843750 0.687744
vt 0.780762 0.687744
vt 0.843750 0.562500
s 1
usemtl MI_Wind_Pillar_Crystal
f 107/1/4 58/2/4 65/3/4 110/4/4
f 112/5/1 125/6/1 123/7/1 124/8/1
f 23/9/4 24/10/4 21/11/4 22/12/4
f 136/13/1 210/14/1 208/15/1 138/16/1
f 36/17/5 34/18/5 35/19/5 33/20/5
f 161/21/1 160/22/1 155/23/1 159/24/1
f 60/25/4 57/26/4 58/27/4 59/28/4
f 167/29/10 165/23/10 166/30/10 164/31/10
f 155/23/1 153/30/1 154/31/1 152/29/1
f 141/6/1 140/5/1 139/32/1 138/7/1
f 56/33/3 53/34/3 54/35/3 55/36/3
f 163/37/1 159/24/1 156/38/1 162/39/1
f 82/40/6 81/41/6 73/42/2 76/43/2
f 4/44/1 2/45/1 3/46/1 1/47/1
f 99/1/3 105/2/3 109/3/3 103/4/3
f 134/40/5 133/41/5 81/42/6 82/43/6
f 73/48/2 81/49/6 83/50/6 80/51/2
f 78/52/7 70/53/7 69/54/3 77/55/3
f 106/56/3 105/57/3 99/58/3 100/59/3
f 145/60/5 144/61/5 142/62/5 143/63/5
f 84/48/8 74/49/2 79/50/2 86/51/8
f 44/64/4 41/65/4 42/66/4 43/67/4
f 48/36/2 45/68/2 46/69/2 47/33/2
f 118/70/1 117/71/1 115/72/1 116/73/1
f 52/67/5 49/74/5 50/75/5 51/64/5
f 75/40/2 74/41/2 84/42/8 85/43/8
f 62/76/5 61/77/6 68/78/6 67/79/5
f 28/80/5 26/81/5 27/82/5 25/83/5
f 57/48/4 84/49/8 86/50/8 66/51/4
f 40/84/1 37/85/1 38/86/1 39/87/1
f 199/60/3 197/88/3 198/89/3 196/61/3
f 71/90/7 70/91/7 87/92/4 88/93/4
f 96/94/5 98/95/5 135/50/5 133/49/5
f 64/96/6 61/97/6 62/98/5 63/99/5
f 100/100/3 99/101/3 90/102/3 93/103/3
f 58/104/4 57/105/4 66/106/4 65/107/4
f 90/108/3 99/109/3 103/110/3 95/111/3
f 179/63/2 178/62/2 176/112/2 177/113/2
f 72/114/3 69/115/3 70/116/7 71/117/7
f 76/117/2 73/116/2 74/115/2 75/114/2
f 85/40/8 84/41/8 57/42/4 60/43/4
f 132/6/1 129/7/1 130/32/1 131/5/1
f 232/118/1 226/119/1 124/120/1 122/121/1
f 98/122/5 96/123/5 91/94/9 94/95/9
f 8/12/2 6/11/2 7/124/2 5/125/2
f 20/19/3 18/126/3 19/127/3 17/20/3
f 114/128/1 113/129/1 111/130/1 112/131/1
f 137/132/1 125/133/1 126/134/1 136/135/1
f 111/133/1 128/132/1 127/135/1 126/134/1
f 16/80/2 15/83/2 13/136/2 14/137/2
f 74/54/2 73/53/2 80/52/2 79/55/2
f 92/138/9 91/139/9 96/140/5 97/141/5
f 139/32/1 137/132/1 136/135/1 138/7/1
f 87/142/4 70/143/7 78/144/7 89/145/4
f 133/49/5 135/50/5 83/51/6 81/48/6
f 61/146/6 101/147/2 104/148/2 68/149/6
f 91/123/9 90/94/3 95/95/3 94/122/9
f 93/138/3 90/139/3 91/140/9 92/141/9
f 146/150/5 145/60/5 143/63/5
f 143/63/5 147/151/5 146/150/5
f 148/152/5 145/60/5 146/150/5
f 149/153/5 146/150/5 147/151/5
f 148/152/5 150/154/5 145/60/5
f 149/153/5 147/151/5 151/155/5
f 151/155/5 150/154/5 148/152/5
f 151/155/5 147/151/5 150/154/5
f 32/156/4 30/157/4 31/155/4 29/152/4
f 97/138/5 96/139/5 133/41/5 134/40/5
f 171/38/10 168/24/10 165/23/10 167/29/10
f 170/21/10 169/22/10 165/23/10 168/24/10
f 122/158/1 124/8/1 123/7/1 121/135/1
f 157/159/1 158/160/1 156/38/1 152/29/1
f 11/150/3 12/153/3 9/157/3 10/156/3
f 173/39/10 172/37/10 168/24/10 171/38/10
f 175/160/10 171/38/10 167/29/10 174/159/10
f 120/133/1 122/158/1 121/135/1 119/134/1
f 102/161/2 101/162/2 61/163/6 64/164/6
f 180/17/2 179/63/2 177/113/2
f 181/127/2 179/63/2 180/17/2
f 180/17/2 177/113/2 182/18/2
f 179/63/2 181/127/2 183/151/2
f 182/18/2 177/113/2 184/165/2
f 185/126/2 183/151/2 181/127/2
f 182/18/2 184/165/2 185/126/2
f 185/126/2 184/165/2 183/151/2
f 59/56/4 58/57/4 107/58/4 108/59/4
f 190/136/4 189/113/4 187/166/4
f 191/82/4 189/113/4 190/136/4
f 190/136/4 187/166/4 192/137/4
f 191/82/4 193/81/4 189/113/4
f 192/137/4 187/166/4 194/167/4
f 192/137/4 194/167/4 193/81/4
f 195/165/4 189/113/4 193/81/4
f 193/81/4 194/167/4 195/165/4
f 189/113/4 188/112/4 186/46/4 187/166/4
f 197/88/3 199/60/3 200/125/3
f 201/9/3 200/125/3 199/60/3
f 200/125/3 202/124/3 197/88/3
f 199/60/3 203/154/3 201/9/3
f 204/168/3 197/88/3 202/124/3
f 205/10/3 201/9/3 203/154/3
f 202/124/3 205/10/3 204/168/3
f 203/154/3 204/168/3 205/10/3
f 141/169/1 138/16/1 206/170/1
f 206/170/1 207/171/1 141/169/1
f 208/15/1 206/170/1 138/16/1
f 115/172/1 219/173/1 218/174/1 113/175/1
f 207/171/1 206/170/1 209/176/1
f 208/15/1 209/176/1 206/170/1
f 210/14/1 209/176/1 208/15/1
f 211/177/1 210/14/1 136/13/1
f 136/13/1 126/178/1 211/177/1
f 127/179/1 211/177/1 126/178/1
f 211/177/1 212/180/1 210/14/1
f 212/180/1 211/177/1 127/179/1
f 210/14/1 212/180/1 209/176/1
f 127/179/1 213/181/1 212/180/1
f 212/180/1 213/181/1 209/176/1
f 127/179/1 129/182/1 213/181/1
f 213/181/1 214/183/1 209/176/1
f 214/183/1 213/181/1 129/182/1
f 209/176/1 214/183/1 215/184/1
f 214/183/1 129/182/1 215/184/1
f 209/176/1 215/184/1 207/171/1
f 215/184/1 129/182/1 132/185/1
f 215/184/1 132/185/1 207/171/1
f 111/186/1 216/187/1 128/188/1
f 111/186/1 113/175/1 216/187/1
f 217/189/1 128/188/1 216/187/1
f 159/24/1 155/23/1 152/29/1 156/38/1
f 218/174/1 216/187/1 113/175/1
f 218/174/1 217/189/1 216/187/1
f 116/73/1 115/72/1 113/129/1 114/128/1
f 218/174/1 220/190/1 217/189/1
f 218/174/1 219/173/1 220/190/1
f 219/173/1 115/172/1 221/191/1
f 220/190/1 219/173/1 221/191/1
f 117/192/1 221/191/1 115/172/1
f 221/191/1 117/192/1 220/190/1
f 222/193/1 220/190/1 117/192/1
f 222/193/1 131/194/1 220/190/1
f 223/195/1 217/189/1 220/190/1
f 224/196/1 220/190/1 131/194/1
f 223/195/1 220/190/1 224/196/1
f 131/194/1 130/197/1 224/196/1
f 223/195/1 224/196/1 130/197/1
f 112/198/1 124/120/1 225/199/1
f 225/199/1 114/200/1 112/198/1
f 226/119/1 225/199/1 124/120/1
f 241/201/1 235/202/1 137/203/1 139/204/1
f 227/205/1 114/200/1 225/199/1
f 227/205/1 225/199/1 226/119/1
f 217/189/1 223/195/1 130/197/1 128/188/1
f 116/206/1 228/207/1 118/178/1
f 226/119/1 229/208/1 227/205/1
f 227/205/1 229/208/1 228/207/1
f 230/209/1 118/178/1 228/207/1
f 228/207/1 229/208/1 230/209/1
f 230/209/1 229/208/1 118/178/1
f 231/185/1 118/178/1 229/208/1
f 232/118/1 229/208/1 226/119/1
f 229/208/1 233/210/1 231/185/1
f 229/208/1 232/118/1 233/210/1
f 232/118/1 122/121/1 233/210/1
f 120/211/1 231/185/1 233/210/1
f 120/211/1 233/210/1 122/121/1
f 125/169/1 137/203/1 234/212/1
f 123/213/1 125/169/1 234/212/1
f 235/202/1 234/212/1 137/203/1
f 121/214/1 123/213/1 236/215/1 237/216/1
f 123/213/1 234/212/1 236/215/1
f 234/212/1 235/202/1 236/215/1
f 130/32/1 129/7/1 127/135/1 128/132/1
f 236/215/1 235/202/1 238/217/1
f 236/215/1 238/217/1 237/216/1
f 237/216/1 239/218/1 121/214/1
f 237/216/1 238/217/1 239/218/1
f 119/186/1 121/214/1 239/218/1
f 239/218/1 238/217/1 119/186/1
f 240/192/1 119/186/1 238/217/1
f 238/217/1 235/202/1 241/201/1
f 238/217/1 242/219/1 240/192/1
f 238/217/1 241/201/1 242/219/1
f 241/201/1 139/204/1 242/219/1
f 140/171/1 240/192/1 242/219/1
f 242/219/1 139/204/1 140/171/1
f 116/206/1 114/200/1 227/205/1 228/207/1
