# Blender 5.0.1
# www.blender.org
mtllib BP_Well_Lid.mtl
o SM_Well_Lid.001
v -18.750000 -25.000019 12.500000
v -25.000000 -25.000019 12.500000
v -25.000000 -25.000019 6.187808
v -18.750000 -25.000019 6.125617
v -18.750000 -25.000019 12.500000
v -18.750000 24.999981 12.500002
v -25.000000 -25.000019 12.500000
v -25.000000 24.999981 12.500002
v -25.000000 24.999981 6.187810
v -18.750000 24.999981 12.500002
v -18.750000 24.999981 6.125619
v -25.000000 24.999981 12.500002
v -18.750000 24.999981 12.500002
v -18.750000 -25.000019 12.500000
v -18.750000 -25.000019 6.125617
v -18.750000 24.999981 6.125619
v -25.000000 -25.000019 12.500000
v -25.000000 24.999981 6.187810
v -25.000000 -25.000019 6.187808
v -25.000000 24.999981 12.500002
v -50.000000 -49.874699 -0.000002
v 50.000000 -49.874699 -0.000002
v -50.000000 -49.874699 6.249998
v 50.000000 -49.874699 6.249998
v 50.000000 -49.874699 6.249998
v -50.000000 50.125301 6.250002
v -50.000000 -49.874699 6.249998
v 50.000000 50.125301 6.250002
v -50.000000 50.125301 6.250002
v 50.000000 50.125301 6.250002
v -50.000000 50.125301 0.000002
v 50.000000 50.125301 0.000002
v 50.000000 -49.874699 -0.000002
v -50.000000 -49.874699 -0.000002
v 50.000000 50.125301 0.000002
v -50.000000 50.125301 0.000002
v 25.000015 -25.000019 12.500000
v 18.750000 -25.000019 12.500000
v 18.750000 -25.000019 6.249999
v 25.000015 -25.000019 6.125617
v 25.000015 24.999981 12.500002
v 18.750000 -25.000019 12.500000
v 25.000015 -25.000019 12.500000
v 18.750000 24.999981 12.500002
v 18.750000 24.999981 6.250001
v 25.000015 24.999981 12.500002
v 25.000015 24.999981 6.125619
v 18.750000 24.999981 12.500002
v 25.000015 24.999981 12.500002
v 25.000015 -25.000019 12.500000
v 25.000015 -25.000019 6.125617
v 25.000015 24.999981 6.125619
v 18.750000 -25.000019 12.500000
v 18.750000 24.999981 6.250001
v 18.750000 -25.000019 6.249999
v 18.750000 24.999981 12.500002
vn -0.0000 -1.0000 -0.0000
vn -0.0000 -0.0000 1.0000
vn -0.0000 1.0000 -0.0000
vn 1.0000 -0.0000 -0.0000
vn -1.0000 -0.0000 -0.0000
vn -0.7071 -0.7071 -0.0000
vn 0.7071 -0.7071 -0.0000
vn -0.7071 0.7071 -0.0000
vn 0.7071 0.7071 -0.0000
vn -0.0000 -0.0000 -1.0000
vt 0.662109 0.562500
vt 0.662109 0.575195
vt 0.649902 0.575195
vt 0.649902 0.562500
vt 0.762207 0.562500
vt 0.762207 0.575195
vt 0.812500 0.462891
vt 0.824707 0.462891
vt 0.824707 0.662598
vt 0.812500 0.662598
vt 0.612305 0.462891
vt 0.612305 0.450195
vt 0.812500 0.450195
vt 0.774902 0.562500
vt 0.774902 0.575195
vt 0.662109 0.550049
vt 0.762207 0.550049
vt 0.612305 0.662598
vt 0.599609 0.462891
vt 0.599609 0.662598
vt 0.812500 0.675049
vt 0.612305 0.675049
vt 0.762207 0.587646
vt 0.662109 0.587646
s 1
usemtl MI_Well
f 48/1/3 46/2/3 47/3/3 45/4/3
f 44/1/2 42/5/2 43/6/2 41/2/2
f 4/4/1 1/1/1 2/2/1 3/3/1
f 30/7/9 32/8/9 31/9/8 29/10/8
f 30/7/9 24/11/7 22/12/7 32/13/9
f 12/6/3 10/5/3 11/14/3 9/15/3
f 15/16/4 16/17/4 13/5/4 14/1/4
f 34/10/10 36/18/10 35/11/10 33/7/10
f 8/6/2 7/2/2 5/1/2 6/5/2
f 28/7/2 26/10/2 27/18/2 25/11/2
f 22/19/7 24/11/7 23/18/6 21/20/6
f 31/21/8 21/22/6 23/18/6 29/10/8
f 40/15/1 37/6/1 38/5/1 39/14/1
f 20/6/5 18/23/5 19/24/5 17/2/5
f 51/23/4 52/24/4 49/2/4 50/6/4
f 56/1/5 54/16/5 55/17/5 53/5/5
