# Blender 5.0.1
# www.blender.org
mtllib BP_WM_SlideWall.mtl
o SM_WM_SlideWall.001
v -300.000031 49.999802 99.999992
v -299.999969 -50.000214 0.000008
v -299.999969 -50.000198 100.000008
v -300.000031 49.999786 -0.000008
v -200.000031 49.999870 99.999992
v -300.000031 49.999786 -0.000008
v -300.000031 49.999802 99.999992
v -200.000031 49.999855 -0.000008
v -299.999969 -50.000198 100.000008
v -199.999969 -50.000145 0.000008
v -199.999969 -50.000130 100.000008
v -299.999969 -50.000214 0.000008
v -199.999969 -50.000145 0.000008
v -299.999969 -50.000214 0.000008
v -300.000031 49.999786 -0.000008
v -200.000031 49.999855 -0.000008
v -300.000031 49.999821 199.999985
v -299.999969 -50.000179 200.000015
v -200.000031 49.999889 199.999985
v -300.000031 49.999821 199.999985
v -299.999969 -50.000179 200.000015
v -199.999969 -50.000111 200.000015
v -100.000038 49.999943 99.999992
v -100.000038 49.999928 -0.000008
v -99.999962 -50.000072 0.000008
v -99.999962 -50.000057 100.000008
v -99.999962 -50.000072 0.000008
v -100.000038 49.999928 -0.000008
v -100.000038 49.999962 199.999985
v -99.999962 -50.000038 200.000015
v -0.000036 50.000015 99.999992
v -0.000036 50.000000 -0.000008
v 0.000036 -50.000000 0.000008
v 0.000036 -49.999985 100.000008
v 0.000036 -50.000000 0.000008
v -0.000036 50.000000 -0.000008
v -0.000036 50.000034 199.999985
v 0.000036 -49.999966 200.000015
v 300.000031 -49.999737 300.000000
v 400.000031 -49.999680 200.000015
v 400.000031 -49.999664 300.000000
v 300.000031 -49.999752 200.000015
v 400.000031 -49.999664 300.000000
v 399.999969 50.000320 199.999985
v 399.999969 50.000336 300.000000
v 400.000031 -49.999680 200.000015
v 399.999969 50.000336 300.000000
v 299.999969 50.000248 199.999985
v 299.999969 50.000263 300.000000
v 399.999969 50.000320 199.999985
v 99.999962 50.000088 99.999992
v 99.999962 50.000072 -0.000008
v 100.000038 -49.999928 0.000008
v 100.000038 -49.999912 100.000008
v 100.000038 -49.999928 0.000008
v 99.999962 50.000072 -0.000008
v 99.999962 50.000107 199.999985
v 200.000031 -49.999805 300.000000
v 200.000031 -49.999821 200.000015
v 199.999969 50.000179 199.999985
v 199.999969 50.000195 300.000000
v 100.000038 -49.999878 300.000000
v 100.000038 -49.999893 200.000015
v 199.999969 50.000160 99.999992
v 199.999969 50.000145 -0.000008
v 200.000031 -49.999855 0.000008
v 200.000031 -49.999840 100.000008
v 200.000031 -49.999855 0.000008
v 199.999969 50.000145 -0.000008
v 99.999962 50.000122 300.000000
v 0.000036 -49.999950 300.000000
v -0.000036 50.000050 300.000000
v 299.999969 50.000229 99.999992
v 299.999969 50.000214 -0.000008
v 300.000031 -49.999786 0.000008
v 300.000031 -49.999771 100.000008
v 300.000031 -49.999786 0.000008
v 299.999969 50.000214 -0.000008
v -99.999962 -50.000023 300.000000
v -100.000038 49.999977 300.000000
v 399.999969 50.000301 99.999992
v 399.999969 50.000286 -0.000008
v 400.000031 -49.999699 100.000008
v 399.999969 50.000286 -0.000008
v 399.999969 50.000301 99.999992
v 400.000031 -49.999714 0.000008
v 400.000031 -49.999714 0.000008
v 400.000031 -49.999699 100.000008
v 400.000031 -49.999714 0.000008
v 399.999969 50.000286 -0.000008
v -300.000031 49.999851 399.999969
v -299.999969 -50.000149 399.999969
v -200.000031 49.999920 399.999969
v -199.999969 -50.000080 399.999969
v -100.000038 49.999992 399.999969
v -99.999962 -50.000008 399.999969
v -0.000036 50.000065 399.999969
v -100.000038 49.999992 399.999969
v -99.999962 -50.000008 399.999969
v 0.000036 -49.999935 399.999969
v -0.000036 50.000065 399.999969
v 0.000036 -49.999935 399.999969
v 99.999962 50.000137 399.999969
v 100.000038 -49.999863 399.999969
v 99.999962 50.000137 399.999969
v 100.000038 -49.999863 399.999969
v 199.999969 50.000210 399.999969
v 200.000031 -49.999790 399.999969
v 199.999969 50.000210 399.999969
v 200.000031 -49.999790 399.999969
v 299.999969 50.000278 399.999969
v 300.000031 -49.999722 399.999969
v 299.999969 50.000278 399.999969
v 300.000031 -49.999722 399.999969
v 399.999969 50.000351 399.999969
v 400.000031 -49.999649 399.999969
v 399.999969 50.000351 399.999969
v 400.000031 -49.999649 399.999969
v 399.999969 50.000351 399.999969
v 400.000031 -49.999649 399.999969
v -199.999969 -50.000095 300.000000
v -199.999969 -50.000080 399.999969
v -200.000031 49.999905 300.000000
v -200.000031 49.999920 399.999969
v -299.999969 -50.000164 300.000000
v -299.999969 -50.000149 399.999969
v -300.000031 49.999836 300.000000
v -300.000031 49.999851 399.999969
v -300.000031 49.999836 300.000000
v -299.999969 -50.000164 300.000000
v -300.000031 49.999851 399.999969
v -299.999969 -50.000149 399.999969
vn -1.0000 -0.0000 -0.0000
vn -0.0000 1.0000 -0.0000
vn -0.0000 -1.0000 -0.0000
vn -0.0000 -0.0000 -1.0000
vn 1.0000 -0.0000 -0.0000
vn -0.0000 -0.0000 1.0000
vt 0.499756 0.750000
vt 0.750000 0.750000
vt 0.750000 0.999969
vt 0.499756 0.999969
vt 0.000031 0.750000
vt 0.250000 0.750000
vt 0.250000 0.999969
vt 0.000031 0.999969
vt -0.000031 0.750000
vt -0.000031 0.999969
vt -0.000031 0.500000
vt 0.250000 0.500000
vt 0.500000 0.750000
vt 0.500000 0.999969
vt 1.000000 0.750000
vt 1.000000 0.999969
s 1
usemtl MI_Crypt_MiniAtlas
f 65/1/2 52/2/2 51/3/2 64/4/2
f 86/1/5 84/2/5 85/3/5 83/4/5
f 63/3/3 38/4/3 34/1/3 54/2/3
f 79/5/3 71/6/3 100/7/3 99/8/3
f 46/1/5 44/2/5 45/3/5 43/4/5
f 69/3/4 68/4/4 55/1/4 56/2/4
f 67/1/3 76/2/3 42/3/3 59/4/3
f 30/1/3 38/2/3 71/3/3 79/4/3
f 26/1/3 34/2/3 38/3/3 30/4/3
f 39/5/3 41/6/3 118/7/3 112/8/3
f 25/1/3 33/2/3 34/3/3 26/4/3
f 106/9/6 105/6/6 101/7/6 102/10/6
f 48/1/2 60/2/2 61/3/2 49/4/2
f 8/1/2 6/2/2 7/3/2 5/4/2
f 57/1/2 37/2/2 72/3/2 70/4/2
f 24/11/2 8/12/2 5/6/2 23/9/2
f 76/1/3 88/2/3 40/3/3 42/4/3
f 31/1/2 23/2/2 29/3/2 37/4/2
f 43/5/5 45/6/5 117/7/5 116/8/5
f 37/1/2 29/2/2 80/3/2 72/4/2
f 123/6/2 80/9/2 29/11/2 19/12/2
f 60/13/2 57/2/2 70/3/2 61/14/2
f 51/1/2 31/2/2 37/3/2 57/4/2
f 5/11/2 7/12/2 20/6/2 19/9/2
f 75/1/3 87/2/3 88/3/3 76/4/3
f 16/3/4 13/4/4 14/1/4 15/2/4
f 4/1/1 2/2/1 3/3/1 1/4/1
f 11/1/3 26/2/3 30/3/3 22/4/3
f 102/5/6 101/6/6 95/7/6 96/8/6
f 23/1/2 5/2/2 19/3/2 29/4/2
f 9/11/3 11/12/3 22/6/3 21/9/3
f 63/13/3 59/2/3 58/3/3 62/14/3
f 12/1/3 10/2/3 11/3/3 9/4/3
f 66/11/3 75/12/3 76/6/3 67/9/3
f 99/7/3 122/10/3 121/9/3 79/6/3
f 64/2/2 51/15/2 57/16/2 60/3/2
f 28/6/4 27/9/4 13/11/4 16/12/4
f 10/11/3 25/12/3 26/6/3 11/9/3
f 52/1/2 32/2/2 31/3/2 51/4/2
f 58/9/3 39/6/3 112/7/3 108/10/3
f 42/1/3 40/2/3 41/3/3 39/4/3
f 50/1/2 48/2/2 49/3/2 47/4/2
f 47/5/2 49/6/2 111/7/2 115/8/2
f 82/1/2 74/2/2 73/3/2 81/4/2
f 1/11/1 3/12/1 18/6/1 17/9/1
f 74/11/2 65/12/2 64/6/2 73/9/2
f 59/1/3 42/2/3 39/3/3 58/4/3
f 90/3/4 89/4/4 77/1/4 78/2/4
f 94/9/6 93/6/6 91/7/6 92/10/6
f 56/3/4 55/4/4 35/1/4 36/2/4
f 72/5/2 80/6/2 98/7/2 97/8/2
f 96/9/6 95/6/6 93/7/6 94/10/6
f 114/9/6 113/6/6 109/7/6 110/10/6
f 32/1/2 24/2/2 23/3/2 31/4/2
f 53/1/3 66/2/3 67/3/3 54/4/3
f 70/9/2 72/6/2 97/7/2 103/10/2
f 61/9/2 70/6/2 103/7/2 107/10/2
f 110/9/6 109/6/6 105/7/6 106/10/6
f 62/9/3 58/6/3 108/7/3 104/10/3
f 83/1/5 85/2/5 44/3/5 46/4/5
f 71/9/3 62/6/3 104/7/3 100/10/3
f 130/6/1 129/9/1 17/11/1 18/12/1
f 38/1/3 63/2/3 62/3/3 71/4/3
f 59/16/3 63/3/3 54/2/3 67/15/3
f 33/1/3 53/2/3 54/3/3 34/4/3
f 121/6/3 125/9/3 21/11/3 22/12/3
f 120/5/6 119/6/6 113/7/6 114/8/6
f 79/6/3 121/9/3 22/11/3 30/12/3
f 36/3/4 35/4/4 27/1/4 28/2/4
f 78/6/4 77/9/4 68/11/4 69/12/4
f 124/7/2 98/10/2 80/9/2 123/6/2
f 81/1/2 73/2/2 48/3/2 50/4/2
f 49/9/2 61/6/2 107/7/2 111/10/2
f 73/1/2 64/2/2 60/3/2 48/4/2
f 122/7/3 126/10/3 125/9/3 121/6/3
f 127/6/2 123/9/2 19/11/2 20/12/2
f 132/7/1 131/10/1 129/9/1 130/6/1
f 128/7/2 124/10/2 123/9/2 127/6/2
