# Blender 5.0.1
# www.blender.org
mtllib BP_WindReactive_Block_3x3.mtl
o SM_Moving_Block_3x3.001
v 99.999954 -99.999954 149.999786
v 149.999863 -149.999863 149.999786
v 149.999847 -99.999931 149.999725
v 99.999908 -149.999893 149.999786
v -99.999886 -99.999931 149.999725
v -149.999954 -149.999863 149.999786
v -99.999931 -149.999863 149.999786
v -149.999969 -99.999908 149.999786
v -149.999954 149.999863 149.999786
v -149.999954 99.999931 149.999786
v -99.999985 149.999847 149.999725
v -99.999878 99.999939 149.999725
v 149.999817 149.999817 149.999725
v 99.999931 99.999886 149.999725
v 149.999847 99.999931 149.999786
v 99.999847 149.999817 149.999725
v -0.000053 149.999847 149.999725
v 0.000031 99.999931 149.999725
v 149.999817 -0.000011 149.999786
v 99.999931 -0.000038 149.999725
v -99.999886 0.000009 149.999725
v -149.999924 -0.000003 149.999786
v 0.000031 -99.999931 149.999725
v 0.000015 -149.999893 149.999786
v 149.999847 -149.999863 99.999756
v 149.999863 -99.999939 -0.000183
v 149.999817 -99.999924 99.999786
v 149.999863 -149.999893 -0.000214
v 149.999802 -149.999863 -100.000092
v 149.999756 -99.999931 -100.000107
v 149.999817 -99.999931 124.999756
v 149.999802 -0.000007 99.999863
v 149.999817 -0.000009 124.999817
v 149.999817 -0.000011 149.999786
v 149.999863 99.999908 124.999847
v 149.999847 99.999931 149.999786
v -100.000023 149.999863 124.999756
v -0.000072 149.999847 124.999817
v -0.000092 149.999847 99.999832
v -100.000046 149.999863 99.999817
v 99.999870 149.999817 124.999756
v 99.999847 149.999817 149.999725
v -0.000053 149.999847 149.999725
v -149.999954 0.000001 124.999817
v -150.000076 -99.999878 99.999863
v -150.000031 -99.999886 124.999847
v -149.999969 0.000004 99.999832
v -149.999969 99.999931 124.999817
v -149.999954 99.999931 149.999786
v -149.999924 -0.000003 149.999786
v 99.999908 -149.999908 124.999817
v 0.000015 -149.999863 124.999817
v 0.000015 -149.999863 99.999832
v 99.999924 -149.999908 99.999817
v -99.999985 -149.999863 124.999847
v -99.999931 -149.999863 149.999786
v 0.000015 -149.999893 149.999786
v 99.999931 -149.999924 -0.000153
v 99.999786 -99.999962 -100.000076
v 99.999817 -149.999863 -100.000076
v 99.999924 -99.999985 -0.000137
v 99.999924 -149.999908 99.999817
v 99.999931 -99.999962 99.999786
v 149.999756 -99.999931 -100.000107
v 99.999924 -99.999985 -0.000137
v 149.999863 -99.999939 -0.000183
v 99.999786 -99.999962 -100.000076
v 149.999817 -99.999924 99.999786
v 99.999931 -99.999962 99.999786
v 149.999847 -149.999863 99.999756
v 99.999931 -149.999924 -0.000153
v 149.999863 -149.999893 -0.000214
v 149.999802 -149.999863 -100.000092
v 99.999817 -149.999863 -100.000076
v 149.999863 149.999786 99.999832
v 100.000000 149.999756 -0.000076
v 99.999901 149.999817 99.999817
v 149.999969 149.999756 -0.000107
v 149.999802 149.999817 -100.000107
v 99.999786 149.999847 -100.000099
v 100.000061 99.999825 -0.000031
v 149.999802 99.999908 -100.000076
v 150.000000 99.999825 -0.000076
v 99.999825 99.999870 -100.000061
v 149.999893 99.999878 99.999863
v 99.999992 99.999855 99.999863
v 100.000000 149.999756 -0.000076
v 99.999825 99.999870 -100.000061
v 100.000061 99.999825 -0.000031
v 99.999786 149.999847 -100.000099
v 99.999901 149.999817 99.999817
v 99.999992 99.999855 99.999863
v 149.999863 149.999786 99.999832
v 150.000000 99.999825 -0.000076
v 149.999969 149.999756 -0.000107
v 149.999893 99.999878 99.999863
v 149.999802 99.999908 -100.000076
v 149.999802 149.999817 -100.000107
v -150.000015 149.999863 99.999786
v -150.000031 99.999939 -0.000137
v -150.000015 99.999931 99.999817
v -150.000031 149.999863 -0.000153
v -150.000076 99.999931 -100.000076
v -150.000061 149.999863 -100.000076
v -100.000084 149.999893 -0.000092
v -100.000107 99.999954 -100.000092
v -100.000107 149.999863 -100.000107
v -100.000092 99.999962 -0.000076
v -100.000046 149.999863 99.999817
v -100.000046 99.999977 99.999817
v -150.000031 99.999939 -0.000137
v -100.000107 99.999954 -100.000092
v -100.000092 99.999962 -0.000076
v -150.000076 99.999931 -100.000076
v -150.000015 99.999931 99.999817
v -100.000046 99.999977 99.999817
v -150.000015 149.999863 99.999786
v -100.000084 149.999893 -0.000092
v -150.000031 149.999863 -0.000153
v -100.000107 149.999863 -100.000107
v -150.000061 149.999863 -100.000076
v -150.000076 -149.999817 99.999863
v -100.000214 -149.999802 0.000000
v -100.000046 -149.999847 99.999863
v -150.000168 -149.999802 -0.000046
v -150.000076 -149.999847 -100.000031
v -100.000084 -149.999847 -100.000046
v -100.000252 -99.999847 0.000031
v -150.000092 -99.999908 -100.000031
v -150.000183 -99.999847 0.000000
v -100.000168 -99.999886 -100.000061
v -150.000076 -99.999878 99.999863
v -100.000145 -99.999855 99.999878
v -100.000214 -149.999802 0.000000
v -100.000168 -99.999886 -100.000061
v -100.000252 -99.999847 0.000031
v -100.000084 -149.999847 -100.000046
v -100.000046 -149.999847 99.999863
v -100.000145 -99.999855 99.999878
v -150.000076 -149.999817 99.999863
v -150.000183 -99.999847 0.000000
v -150.000168 -149.999802 -0.000046
v -150.000092 -99.999908 -100.000031
v -150.000076 -149.999847 -100.000031
v -0.000092 149.999847 99.999832
v 99.999901 149.999817 99.999817
v -0.000031 99.999962 99.999832
v 99.999992 99.999855 99.999863
v 149.999802 -0.000007 99.999863
v 99.999870 -0.000007 99.999832
v 149.999893 99.999878 99.999863
v -100.000046 99.999977 99.999817
v -100.000046 149.999863 99.999817
v -99.999954 0.000039 99.999832
v -150.000015 99.999931 99.999817
v -149.999969 0.000004 99.999832
v -100.000046 -149.999847 99.999863
v -0.000031 -99.999908 99.999832
v 0.000015 -149.999863 99.999832
v -100.000145 -99.999855 99.999878
v -150.000076 -99.999878 99.999863
v 99.999931 -99.999962 99.999786
v 99.999924 -149.999908 99.999817
v 149.999817 -99.999924 99.999786
v 149.999847 -99.999931 149.999725
v -99.999985 149.999847 149.999725
v -149.999969 -99.999908 149.999786
v 99.999908 -149.999893 149.999786
v 99.999786 149.999847 -100.000099
v -0.000053 149.999847 -100.000107
v 0.000031 99.999931 -100.000107
v 99.999825 99.999870 -100.000061
v 149.999817 -0.000011 -100.000076
v 99.999931 -0.000038 -100.000107
v 149.999802 99.999908 -100.000076
v -100.000107 99.999954 -100.000092
v -100.000107 149.999863 -100.000107
v -150.000076 99.999931 -100.000076
v -149.999924 -0.000003 -100.000076
v -99.999886 0.000009 -100.000107
v 0.000031 -99.999931 -100.000107
v -100.000084 -149.999847 -100.000046
v 0.000015 -149.999893 -100.000076
v -100.000168 -99.999886 -100.000061
v -150.000092 -99.999908 -100.000031
v 99.999786 -99.999962 -100.000076
v 99.999817 -149.999863 -100.000076
v 149.999756 -99.999931 -100.000107
v 149.999817 -99.999931 -125.000076
v 149.999802 -0.000007 -150.000000
v 149.999817 -0.000009 -125.000046
v 149.999817 -99.999924 -150.000046
v 149.999817 -0.000011 -100.000076
v 149.999863 99.999908 -125.000015
v -100.000023 149.999863 -125.000076
v -0.000072 149.999847 -125.000046
v -0.000092 149.999847 -150.000015
v -100.000046 149.999863 -150.000031
v 99.999870 149.999817 -125.000076
v -0.000053 149.999847 -100.000107
v -149.999954 0.000001 -125.000046
v -150.000076 -99.999878 -149.999985
v -150.000031 -99.999886 -125.000015
v -149.999969 0.000004 -150.000000
v -149.999969 99.999931 -125.000046
v -149.999924 -0.000003 -100.000076
v 99.999908 -149.999908 -125.000046
v 0.000015 -149.999863 -125.000046
v 0.000015 -149.999863 -150.000000
v 99.999924 -149.999908 -150.000031
v -99.999985 -149.999863 -125.000015
v 0.000015 -149.999893 -100.000076
v -0.000092 149.999847 -150.000015
v 99.999901 149.999817 -150.000031
v -0.000031 99.999962 -150.000015
v 99.999992 99.999855 -150.000000
v 149.999802 -0.000007 -150.000000
v 99.999870 -0.000007 -150.000015
v 149.999893 99.999878 -149.999985
v -100.000046 99.999977 -150.000031
v -100.000046 149.999863 -150.000031
v -99.999954 0.000039 -150.000015
v -150.000015 99.999931 -150.000031
v -149.999969 0.000004 -150.000000
v -100.000046 -149.999847 -149.999985
v -0.000031 -99.999908 -150.000015
v 0.000015 -149.999863 -150.000000
v -100.000145 -99.999855 -149.999969
v -150.000076 -99.999878 -149.999985
v 99.999931 -99.999962 -150.000046
v 99.999924 -149.999908 -150.000031
v 149.999817 -99.999924 -150.000046
v 149.999893 99.999878 -149.999985
v 99.999901 149.999817 -150.000031
v -150.000015 99.999931 -150.000031
v -100.000046 -149.999847 -149.999985
v 99.999794 -149.999863 99.999817
v -100.000046 -149.999863 99.999817
v -100.000046 -149.999817 -100.000000
v 99.999794 -149.999817 -100.000000
v -149.999847 -99.999817 99.999817
v -149.999847 100.000023 99.999817
v -149.999817 100.000023 -100.000000
v -149.999817 -99.999817 -100.000000
v 149.999817 99.999794 99.999817
v 149.999817 -100.000046 99.999817
v 149.999786 -100.000046 -100.000000
v 149.999786 99.999794 -100.000000
v -99.999794 149.999817 99.999817
v 100.000046 149.999847 99.999817
v 100.000046 149.999817 -100.000000
v -99.999794 149.999786 -100.000000
v 149.999863 -149.999863 149.999786
v 149.999863 -149.999863 124.999756
v -149.999969 149.999863 -125.000046
v -150.000015 149.999863 -150.000046
v 149.999863 -149.999863 -125.000076
v 149.999847 -149.999863 -150.000076
v 149.999863 149.999817 124.999756
v 149.999817 149.999817 149.999725
v -149.999969 149.999863 124.999817
v -149.999954 149.999863 149.999786
v -149.999969 149.999863 124.999817
v -149.999954 149.999863 149.999786
v -150.000015 -149.999847 124.999847
v -149.999954 -149.999863 149.999786
v -150.000015 -149.999847 124.999847
v -149.999954 -149.999863 149.999786
v 0.000023 -0.000007 -100.000107
v 149.999863 149.999817 -125.000076
v 149.999863 149.999786 -150.000015
v -150.000076 -149.999817 -149.999985
v -150.000015 -149.999847 -125.000015
v 149.999863 -149.999863 124.999756
v 149.999863 -149.999863 149.999786
v 149.999817 149.999817 149.999725
v 149.999863 149.999817 124.999756
v -149.999969 149.999863 -125.000046
v -150.000015 149.999863 -150.000046
v -150.000015 -149.999847 -125.000015
v -150.000076 -149.999817 -149.999985
v 149.999863 -149.999863 -125.000076
v 149.999847 -149.999863 -150.000076
v 149.999863 149.999817 -125.000076
v 149.999863 149.999786 -150.000015
v 0.000023 -0.000007 149.999725
v -0.000038 0.000024 99.999832
v -0.000038 0.000024 -150.000015
vn -0.0000 -0.0000 1.0000
vn 1.0000 -0.0000 -0.0000
vn -0.0000 1.0000 -0.0000
vn -1.0000 -0.0000 -0.0000
vn -0.0000 -1.0000 -0.0000
vn -0.0000 -0.0000 -1.0000
vt 0.945312 0.500000
vt 0.945312 0.625000
vt 0.882812 0.625000
vt 0.882812 0.500000
vt 0.250000 0.562500
vt 0.125000 0.562500
vt 0.125000 0.593750
vt 0.250000 0.593750
vt 0.500000 0.562500
vt 0.625000 0.562500
vt 0.625000 0.593750
vt 0.500000 0.593750
vt 0.625000 0.625000
vt 0.500000 0.625000
vt 0.562500 0.687500
vt 0.562500 0.625000
vt 0.531250 0.625000
vt 0.531250 0.687500
vt 0.484375 0.593750
vt 0.484375 0.625000
vt 0.359375 0.625000
vt 0.359375 0.593750
vt 0.875000 0.875000
vt 0.875000 0.999969
vt 0.750000 0.999969
vt 0.750000 0.875000
vt 0.875000 0.500000
vt 1.000000 0.500000
vt 1.000000 0.625000
vt 0.875000 0.625000
vt 0.250000 0.625000
vt 0.125000 0.625000
vt 0.500000 0.687500
vt 0.500000 0.656250
vt 0.562500 0.656250
vt 0.500000 0.500000
vt 0.625000 0.500000
vt 0.125000 0.500000
vt 0.250000 0.500000
vt 0.882812 0.999969
vt 0.945312 0.999969
vt 0.945312 0.875000
vt 0.882812 0.875000
vt 0.429688 0.593750
vt 0.429688 0.625000
vt 0.554688 0.625000
vt 0.554688 0.593750
vt 0.625000 0.687500
vt 0.625000 0.875000
vt 0.625000 0.750000
vt 0.500000 0.750000
vt 0.500000 0.875000
vt 0.335938 0.593750
vt 0.210938 0.593750
vt 0.210938 0.625000
vt 0.335938 0.625000
vt 0.625000 0.999969
vt 0.624512 0.625244
vt 0.562012 0.625000
vt 0.562012 0.656250
vt 0.624512 0.656494
vt 0.273438 0.593750
vt 0.398438 0.593750
vt 0.398438 0.625000
vt 0.273438 0.625000
vt 0.257812 0.500000
vt 0.132935 0.500000
vt 0.132935 0.531250
vt 0.257812 0.531250
vt 0.437500 0.531250
vt 0.437500 0.500000
vt 0.312500 0.500000
vt 0.312500 0.531250
vt 0.500000 0.999969
vt 0.328125 0.531250
vt 0.328125 0.500000
vt 0.203247 0.500000
vt 0.203247 0.531250
vt 0.750000 0.750000
vt 0.750000 0.015625
vt 0.750000 0.265625
vt 0.500000 0.265625
vt 0.500000 0.015625
vt 0.453125 0.531250
vt 0.453125 0.500000
vt 0.593262 0.625244
vt 0.593262 0.687744
vt 0.624512 0.687744
vt 0.499756 0.687500
vt 0.499756 0.625000
vt 0.562012 0.687744
vt 0.750000 0.500000
vt 0.750000 0.625000
vt 0.562012 0.687500
vt 1.000000 0.875000
vt 1.000000 0.999969
vt 0.562012 0.625244
s 1
usemtl MI_Moving_Blocks
f 80/1/3 76/2/3 78/3/3 79/4/3
f 86/4/5 81/3/5 83/2/5 85/1/5
f 204/5/4 202/6/4 203/7/4 201/8/4
f 32/9/2 96/10/2 35/11/2 33/12/2
f 172/10/1 169/13/1 170/14/1 171/9/1
f 71/2/5 74/1/5 73/4/5 72/3/5
f 133/4/3 128/3/3 130/2/3 132/1/3
f 30/15/2 29/16/2 282/17/2 189/18/2
f 194/19/2 97/20/2 193/21/2 191/22/2
f 269/23/1 171/24/1 176/25/1 180/26/1
f 111/2/5 113/3/5 116/4/5 115/1/5
f 181/27/1 186/28/1 174/29/1 269/30/1
f 66/2/3 65/3/3 69/4/3 68/1/3
f 134/2/2 136/3/2 139/4/2 138/1/2
f 171/5/1 170/31/1 177/32/1 176/6/1
f 266/14/4 167/33/4 46/18/4 265/17/4
f 273/34/4 203/35/4 202/16/4 272/14/4
f 224/36/6 223/37/6 220/10/6 222/9/6
f 8/38/1 5/6/1 21/5/1 22/39/1
f 84/40/5 82/41/5 83/42/5 81/43/5
f 221/32/6 213/31/6 215/5/6 220/6/6
f 284/34/2 98/33/2 97/15/2 194/35/2
f 217/31/6 232/32/6 230/6/6 218/5/6
f 233/16/2 285/14/2 284/34/2 194/35/2
f 124/10/5 53/9/5 52/12/5 55/11/5
f 33/22/2 35/19/2 36/20/2 34/21/2
f 219/13/6 217/14/6 218/9/6 216/10/6
f 190/9/2 233/10/2 194/11/2 191/12/2
f 160/6/6 158/5/6 159/39/6 157/38/6
f 94/2/2 97/1/2 98/4/2 95/3/2
f 14/10/1 16/13/1 17/14/1 18/9/1
f 38/44/3 43/45/3 42/46/3 41/47/3
f 235/33/4 205/18/4 255/17/4 256/14/4
f 151/13/6 149/14/6 150/9/6 148/10/6
f 210/6/5 207/7/5 208/8/5 209/5/5
f 108/43/2 106/40/2 107/41/2 105/42/2
f 205/18/4 103/15/4 104/16/4 255/17/4
f 192/6/2 190/5/2 191/8/2 189/7/2
f 63/4/4 61/3/4 58/2/4 62/1/4
f 12/48/1 11/15/1 9/16/1 10/13/1
f 78/43/3 76/42/3 77/41/3 75/40/3
f 287/49/6 158/50/6 160/51/6 154/52/6
f 228/6/6 226/5/6 227/39/6 225/38/6
f 114/41/5 112/40/5 113/43/5 111/42/5
f 40/6/3 37/7/3 38/8/3 39/5/3
f 90/41/4 88/40/4 89/43/4 87/42/4
f 131/40/3 129/41/3 130/42/3 128/43/3
f 234/10/3 197/9/3 196/12/3 199/11/3
f 87/2/4 89/3/4 92/4/4 91/1/4
f 77/10/3 39/9/3 38/12/3 41/11/3
f 56/33/5 268/14/5 267/17/5 55/18/5
f 13/16/1 16/13/1 14/48/1 15/15/1
f 45/41/4 141/42/4 142/43/4 140/40/4
f 263/34/4 99/33/4 101/15/4 48/35/4
f 18/5/1 17/31/1 11/32/1 12/6/1
f 196/53/3 195/54/3 120/55/3 200/56/3
f 184/6/1 182/38/1 183/39/1 181/5/1
f 216/25/6 218/26/6 288/49/6 215/57/6
f 165/58/2 275/59/2 274/60/2 31/61/2
f 180/9/1 176/10/1 178/37/1 179/36/1
f 236/10/5 209/9/5 208/12/5 211/11/5
f 30/1/2 26/2/2 28/3/2 29/4/2
f 189/62/2 191/63/2 193/64/2 30/65/2
f 166/33/3 37/18/3 261/17/3 262/14/3
f 181/9/1 183/36/1 187/37/1 186/10/1
f 44/66/4 46/67/4 167/68/4 50/69/4
f 125/43/5 123/42/5 124/41/5 122/40/5
f 51/70/5 168/71/5 57/72/5 52/73/5
f 118/2/3 120/1/3 121/4/3 119/3/3
f 37/54/3 166/55/3 43/56/3 38/53/3
f 24/36/1 4/37/1 1/10/1 23/9/1
f 214/13/6 216/10/6 215/9/6 213/14/6
f 141/2/4 143/1/4 144/4/4 142/3/4
f 229/38/6 224/39/6 222/5/6 228/6/6
f 220/74/6 215/57/6 288/49/6 222/52/6
f 195/35/3 198/16/3 279/14/3 278/34/3
f 265/17/4 46/18/4 45/15/4 140/16/4
f 55/18/5 267/17/5 122/16/5 124/15/5
f 137/41/2 135/40/2 136/43/2 134/42/2
f 208/75/5 212/76/5 127/77/5 211/78/5
f 23/5/1 5/6/1 7/38/1 24/39/1
f 207/70/5 74/71/5 212/72/5 208/73/5
f 146/13/6 148/10/6 147/9/6 145/14/6
f 54/41/5 71/42/5 72/43/5 70/40/5
f 153/32/6 145/31/6 147/5/6 152/6/6
f 102/43/4 100/42/4 101/41/4 99/40/4
f 161/38/6 156/39/6 154/5/6 160/6/6
f 196/44/3 200/45/3 80/46/3 199/47/3
f 235/10/4 204/9/4 201/12/4 205/11/4
f 149/31/6 164/32/6 162/6/6 150/5/6
f 1/6/1 3/32/1 19/31/1 20/5/1
f 52/75/5 57/76/5 56/77/5 55/78/5
f 186/6/1 188/32/1 173/31/1 174/5/1
f 258/14/5 257/34/5 207/35/5 210/16/5
f 211/35/5 280/34/5 281/14/5 236/16/5
f 158/50/6 287/49/6 150/26/6 162/79/6
f 80/15/3 79/16/3 270/17/3 199/18/3
f 277/17/2 276/14/2 36/33/2 35/18/2
f 248/80/2 245/81/2 246/82/2 247/83/2
f 240/80/5 237/81/5 238/82/5 239/83/5
f 286/49/1 21/52/1 5/51/1 23/50/1
f 244/80/4 241/81/4 242/82/4 243/83/4
f 104/4/4 103/1/4 100/2/4 102/3/4
f 144/33/4 143/15/4 203/35/4 273/34/4
f 175/13/1 172/10/1 174/9/1 173/14/1
f 47/5/4 45/6/4 46/7/4 44/8/4
f 44/76/4 50/75/4 49/84/4 48/85/4
f 156/36/6 155/37/6 152/10/6 154/9/6
f 226/50/6 288/49/6 218/26/6 230/79/6
f 42/16/3 260/14/3 259/34/3 41/35/3
f 37/18/3 40/15/3 117/16/3 261/17/3
f 288/49/6 226/50/6 228/51/6 222/52/6
f 27/6/2 32/5/2 33/8/2 31/7/2
f 54/6/5 51/7/5 52/8/5 53/5/5
f 252/80/3 249/81/3 250/82/3 251/83/3
f 70/58/5 254/86/5 51/87/5 54/88/5
f 101/10/4 47/9/4 44/12/4 48/11/4
f 185/38/1 184/6/1 180/5/1 179/39/1
f 201/66/4 203/67/4 143/68/4 206/69/4
f 20/26/1 286/49/1 23/50/1 1/79/1
f 4/89/1 2/90/1 3/59/1 1/91/1
f 8/15/1 6/16/1 7/13/1 5/48/1
f 96/15/2 93/16/2 277/17/2 35/18/2
f 41/35/3 259/34/3 75/33/3 77/15/3
f 127/15/5 126/33/5 280/34/5 211/35/5
f 28/43/2 26/42/2 27/41/2 25/40/2
f 14/25/1 18/57/1 286/49/1 20/26/1
f 67/40/3 65/43/3 66/42/3 64/41/3
f 199/18/3 270/17/3 271/14/3 234/33/3
f 184/92/1 181/27/1 269/30/1 180/93/1
f 31/62/2 33/63/2 34/64/2 165/65/2
f 40/41/3 118/42/3 119/43/3 117/40/3
f 257/34/5 73/33/5 74/15/5 207/35/5
f 201/76/4 206/75/4 103/84/4 205/85/4
f 121/33/3 120/15/3 195/35/3 278/34/3
f 31/61/2 274/60/2 25/94/2 27/88/2
f 96/41/2 94/42/2 95/43/2 93/40/2
f 15/13/1 14/10/1 20/9/1 19/14/1
f 127/1/5 123/2/5 125/3/5 126/4/5
f 226/9/6 230/10/6 231/37/6 227/36/6
f 22/36/1 21/9/1 12/10/1 10/37/1
f 110/4/2 108/3/2 105/2/2 109/1/2
f 264/14/4 263/34/4 48/35/4 49/16/4
f 198/6/3 195/7/3 196/8/3 197/5/3
f 174/95/1 172/96/1 171/24/1 269/23/1
f 61/43/4 59/40/4 60/41/4 58/42/4
f 189/18/2 282/17/2 283/14/2 192/33/2
f 254/86/5 253/97/5 168/91/5 51/87/5
f 158/9/6 162/10/6 163/37/6 159/36/6
f 148/25/6 150/26/6 287/49/6 147/57/6
f 152/74/6 147/57/6 287/49/6 154/52/6
f 12/74/1 21/52/1 286/49/1 18/57/1
