# Blender 5.0.1
# www.blender.org
mtllib BP_WoodlandGate_9.mtl
o SM_WM_Gate_9.001
v -25.000082 -249.999908 300.000061
v -25.000002 -350.000000 0.000097
v -25.000082 -349.999908 300.000092
v -25.000002 -250.000000 0.000067
v 24.999922 -349.999908 300.000122
v 25.000002 -250.000000 0.000081
v 24.999922 -249.999908 300.000092
v 25.000002 -350.000000 0.000110
v 25.000002 -350.000000 0.000110
v -25.000002 -350.000000 0.000097
v -25.000002 -250.000000 0.000067
v 25.000002 -250.000000 0.000081
v -25.000082 -249.999908 300.000061
v -25.000082 -349.999908 300.000092
v 24.999922 -249.999908 300.000092
v 24.999922 -349.999908 300.000122
v -25.000002 -400.000000 0.000112
v -25.000082 -399.999908 300.000122
v -25.000082 -399.999908 300.000122
v 25.000002 -400.000000 0.000125
v 24.999922 -399.999908 300.000122
v -25.000002 -400.000000 0.000112
v -25.000082 -399.999908 300.000122
v 24.999922 -399.999908 300.000122
v 25.000002 -400.000000 0.000125
v -25.000002 -400.000000 0.000112
v 24.999922 -399.999908 300.000122
v 25.000002 -400.000000 0.000125
v -25.000082 -149.999908 300.000031
v -25.000002 -150.000000 0.000038
v 25.000002 -150.000000 0.000051
v 24.999922 -149.999908 300.000061
v -25.000002 -150.000000 0.000038
v 25.000002 -150.000000 0.000051
v -25.000082 -149.999908 300.000031
v 24.999922 -149.999908 300.000061
v -25.000082 -49.999912 300.000000
v -25.000002 -50.000000 0.000008
v 25.000002 -50.000000 0.000021
v 24.999922 -49.999912 300.000031
v -25.000002 -50.000000 0.000008
v 25.000002 -50.000000 0.000021
v -25.000082 -49.999912 300.000000
v 24.999922 -49.999912 300.000031
v -25.000082 50.000088 299.999969
v -25.000002 50.000000 -0.000021
v 25.000002 50.000000 -0.000008
v 24.999922 50.000088 300.000000
v -25.000002 50.000000 -0.000021
v 25.000002 50.000000 -0.000008
v -25.000082 50.000088 299.999969
v 24.999922 50.000088 300.000000
v -25.000082 350.000092 299.999878
v -25.000082 250.000092 299.999908
v 24.999922 350.000092 299.999908
v 24.999922 250.000092 299.999939
v -25.000082 150.000092 299.999939
v 24.999922 150.000092 299.999969
v 25.000002 150.000000 -0.000038
v -25.000002 150.000000 -0.000051
v -25.000002 250.000000 -0.000081
v 25.000002 250.000000 -0.000067
v 24.999922 150.000092 299.999969
v 25.000002 250.000000 -0.000067
v 24.999922 250.000092 299.999939
v 25.000002 150.000000 -0.000038
v -25.000082 250.000092 299.999908
v -25.000002 150.000000 -0.000051
v -25.000082 150.000092 299.999939
v -25.000002 250.000000 -0.000081
v 24.999922 400.000092 299.999878
v -25.000002 400.000000 -0.000125
v -25.000082 400.000092 299.999878
v 25.000002 400.000000 -0.000112
v 24.999922 350.000092 299.999908
v 25.000002 400.000000 -0.000112
v 24.999922 400.000092 299.999878
v 25.000002 350.000000 -0.000097
v 25.000002 350.000000 -0.000097
v -25.000002 350.000000 -0.000110
v -25.000002 400.000000 -0.000125
v 25.000002 400.000000 -0.000112
v 24.999922 400.000092 299.999878
v -25.000082 400.000092 299.999878
v -25.000082 400.000092 299.999878
v -25.000002 350.000000 -0.000110
v -25.000082 350.000092 299.999878
v -25.000002 400.000000 -0.000125
vn -1.0000 -0.0000 -0.0000
vn 1.0000 -0.0000 -0.0000
vn -0.0000 -0.0000 -1.0000
vn -0.0000 -0.0000 1.0000
vn -0.0000 -1.0000 -0.0000
vn -0.0000 1.0000 -0.0000
vt 0.250000 0.125000
vt 0.500000 0.125000
vt 0.500000 0.250000
vt 0.249878 0.250000
vt 0.250000 0.250000
vt 0.500000 0.999969
vt 0.250000 0.999969
vt 0.625000 0.125000
vt 0.750000 0.125000
vt 0.750000 0.250000
vt 0.625000 0.250000
vt 0.375000 0.250000
vt 0.375000 0.999969
vt 0.750000 0.000000
vt 0.625000 0.000000
vt 0.250000 0.000000
vt 0.500000 0.000000
vt 0.625000 0.999969
s 1
usemtl MI_WoodlandGate
f 12/1/3 9/2/3 10/3/3 11/4/3
f 6/5/2 31/3/2 32/6/2 7/7/2
f 34/1/3 12/2/3 11/3/3 33/4/3
f 9/8/3 25/9/3 26/10/3 10/11/3
f 28/12/2 8/3/2 5/6/2 27/13/2
f 88/12/1 86/3/1 87/6/1 85/13/1
f 55/8/4 83/9/4 84/14/4 53/15/4
f 52/2/4 58/1/4 57/16/4 51/17/4
f 22/3/5 20/11/5 21/18/5 19/6/5
f 4/5/1 2/3/1 3/6/1 1/7/1
f 56/2/4 55/1/4 53/16/4 54/17/4
f 15/2/4 36/1/4 35/16/4 13/17/4
f 82/9/3 79/8/3 80/11/3 81/10/3
f 47/5/2 66/3/2 63/6/2 48/7/2
f 42/1/3 34/2/3 33/3/3 41/4/3
f 64/5/2 78/3/2 75/6/2 65/7/2
f 30/5/1 4/3/1 1/6/1 29/7/1
f 50/1/3 42/2/3 41/3/3 49/4/3
f 16/2/4 15/1/4 13/16/4 14/17/4
f 59/1/3 50/2/3 49/3/3 60/4/3
f 46/5/1 38/3/1 37/6/1 45/7/1
f 39/5/2 47/3/2 48/6/2 40/7/2
f 8/5/2 6/3/2 7/6/2 5/7/2
f 66/5/2 64/3/2 65/6/2 63/7/2
f 38/5/1 30/3/1 29/6/1 37/7/1
f 62/1/3 59/2/3 60/3/3 61/4/3
f 70/5/1 68/3/1 69/6/1 67/7/1
f 78/5/2 76/12/2 77/13/2 75/7/2
f 68/5/1 46/3/1 45/6/1 69/7/1
f 44/2/4 52/1/4 51/16/4 43/17/4
f 24/9/4 16/8/4 14/15/4 23/14/4
f 2/5/1 17/12/1 18/13/1 3/7/1
f 58/2/4 56/1/4 54/16/4 57/17/4
f 74/3/6 72/11/6 73/18/6 71/6/6
f 36/2/4 44/1/4 43/16/4 35/17/4
f 79/1/3 62/2/3 61/3/3 80/4/3
f 31/5/2 39/3/2 40/6/2 32/7/2
f 86/5/1 70/3/1 67/6/1 87/7/1
