# Blender 5.0.1
# www.blender.org
mtllib BP_Wind_Gate_GSalt.mtl
o SM_Door_01.001
v -25.000122 31.250036 237.499863
v -0.000084 -31.250067 237.499924
v -0.000069 31.250032 237.499924
v -25.000137 -31.250063 237.499893
v -149.999969 31.250059 249.999954
v -250.000000 31.250072 249.999863
v -250.000000 -31.250034 249.999863
v -149.999969 -31.250051 249.999954
v -25.000122 31.250036 237.499863
v -25.000137 -31.250063 224.999954
v -25.000137 -31.250063 237.499893
v -25.000122 31.250036 224.999954
v -150.000000 -31.250042 224.999985
v -25.000122 31.250036 224.999954
v -150.000000 31.250050 224.999985
v -25.000137 -31.250063 224.999954
v -0.000137 31.250032 -249.999954
v -0.000069 31.250032 237.499924
v -0.000084 -31.250067 237.499924
v -0.000153 -31.250067 -249.999954
v -149.999969 31.250059 249.999954
v -150.000000 -31.250042 224.999985
v -150.000000 31.250050 224.999985
v -149.999969 -31.250051 249.999954
v -25.000122 31.250036 237.499863
v -0.000069 31.250032 237.499924
v -25.000122 31.250036 224.999954
v -0.000137 31.250032 -249.999954
v -150.000000 31.250050 224.999985
v -250.000092 31.250069 -249.999954
v -250.000000 31.250072 249.999863
v -149.999969 31.250059 249.999954
v -25.000137 -31.250063 224.999954
v -0.000084 -31.250067 237.499924
v -25.000137 -31.250063 237.499893
v -0.000153 -31.250067 -249.999954
v -150.000000 -31.250042 224.999985
v -250.000092 -31.250031 -249.999954
v -250.000000 -31.250034 249.999863
v -149.999969 -31.250051 249.999954
vn -0.0000 -0.0000 1.0000
vn -1.0000 -0.0000 -0.0000
vn 1.0000 -0.0000 -0.0000
vn -0.0000 1.0000 -0.0000
vn -0.0000 -1.0000 -0.0000
vt 0.765625 0.625000
vt 0.765625 0.703125
vt 0.750000 0.703125
vt 0.750000 0.625000
vt 0.734375 0.625000
vt 0.734375 0.703125
vt 0.609375 0.703125
vt 0.609375 0.625000
vt 0.921875 0.625000
vt 0.921875 0.703125
vt 0.937500 0.625000
vt 0.968750 0.625000
vt 0.968750 0.703125
vt 0.937500 0.703125
vt 0.328125 0.593750
vt 0.328125 0.609375
vt 0.296875 0.609375
vt 0.296875 0.000000
vt 0.484375 0.593750
vt 0.609375 0.000000
vt 0.484375 0.625000
vt 0.890625 0.609375
vt 0.890625 0.593750
vt 0.921875 0.609375
vt 0.921875 0.000000
vt 0.734375 0.593750
vt 1.000000 0.000000
vt 1.000000 0.609375
s 1
usemtl MI_Wind_Gate
f 12/1/2 10/2/2 11/3/2 9/4/2
f 24/5/3 22/1/3 23/2/3 21/6/3
f 8/5/1 5/6/1 6/7/1 7/8/1
f 16/9/1 14/10/1 15/2/1 13/1/1
f 4/11/1 2/12/1 3/13/1 1/14/1
f 27/15/4 25/16/4 26/17/4
f 26/17/4 28/18/4 27/15/4
f 29/19/4 27/15/4 28/18/4
f 29/19/4 28/18/4 30/20/4
f 29/19/4 30/20/4 31/8/4
f 29/19/4 31/8/4 32/21/4
f 35/22/5 33/23/5 34/24/5
f 36/25/5 34/24/5 33/23/5
f 33/23/5 37/26/5 36/25/5
f 38/20/5 36/25/5 37/26/5
f 37/26/5 39/8/5 38/20/5
f 40/5/5 39/8/5 37/26/5
f 19/24/3 20/25/3 17/27/3 18/28/3
