# Blender 5.0.1
# www.blender.org
mtllib BP_Windswept_Lift_Structure_MF.mtl
o SM_Lift_Platform_Legs_F.001
v -99.999748 -1500.000244 1450.000000
v 0.000233 -1600.000366 1450.000000
v 0.000233 -1500.000244 1450.000000
v -99.999748 -1600.000366 1450.000000
v 0.000233 -1500.000244 1450.000000
v 0.000233 -1600.000000 -150.000031
v 0.000233 -1500.000244 -150.000031
v 0.000233 -1600.000366 1450.000000
v 0.000233 -1500.000244 1450.000000
v 0.000233 -1500.000244 -150.000031
v -99.999748 -1500.000244 1450.000000
v -99.999748 -1500.000244 -150.000031
v -99.999748 -1500.000244 1450.000000
v -99.999748 -1600.000000 -150.000031
v -99.999748 -1600.000366 1450.000000
v -99.999748 -1500.000244 -150.000031
v -99.999748 -1600.000000 -150.000031
v 0.000233 -1600.000366 1450.000000
v -99.999748 -1600.000366 1450.000000
v 0.000233 -1600.000000 -150.000031
v -100.000023 -0.000155 1450.000000
v 0.000000 -100.000099 1450.000000
v 0.000000 -0.000078 1450.000000
v -100.000023 -100.000175 1450.000000
v 0.000000 -0.000078 1450.000000
v 0.000000 -99.999939 -149.999908
v 0.000000 0.000000 -150.000031
v 0.000000 -100.000099 1450.000000
v 0.000000 -0.000078 1450.000000
v 0.000000 0.000000 -150.000031
v -100.000023 -0.000155 1450.000000
v -100.000023 0.000000 -150.000031
v -100.000023 -0.000155 1450.000000
v -100.000023 -100.000023 -150.000031
v -100.000023 -100.000175 1450.000000
v -100.000023 0.000000 -150.000031
v -100.000023 -100.000175 1450.000000
v 0.000000 -99.999939 -149.999908
v 0.000000 -100.000099 1450.000000
v -100.000023 -100.000023 -150.000031
vn -0.0000 -0.0000 1.0000
vn 1.0000 -0.0000 -0.0000
vn -0.0000 1.0000 -0.0000
vn -1.0000 -0.0000 -0.0000
vn -0.0000 -1.0000 -0.0000
vt 0.062866 1.500000
vt 0.063354 -0.500000
vt 0.188354 -0.500000
vt 0.187866 1.500000
vt 0.312500 -0.500000
vt 0.437500 -0.500000
vt 0.437500 1.500000
vt 0.312500 1.500000
vt 0.875000 0.875000
vt 0.875000 0.750000
vt 1.000000 0.750000
vt 1.000000 0.875000
vt 0.188354 -0.476562
vt 0.188354 1.523438
vt 0.063354 1.523438
vt 0.063354 -0.476562
vt 0.188477 -0.452148
vt 0.313477 -0.452148
vt 0.313477 1.546875
vt 0.188477 1.546875
vt 0.624512 1.500000
vt 0.624512 -0.500000
vt 0.750000 -0.500000
vt 0.749512 1.500000
vt 0.187866 -0.500000
vt 0.062866 -0.500000
s 1
usemtl MI_Windswept_Lift
f 8/1/2 6/2/2 7/3/2 5/4/2
f 16/5/4 14/6/4 15/7/4 13/8/4
f 4/9/1 2/10/1 3/11/1 1/12/1
f 36/5/4 34/6/4 35/7/4 33/8/4
f 12/13/3 11/14/3 9/15/3 10/16/3
f 40/17/5 38/18/5 39/19/5 37/20/5
f 24/9/1 22/10/1 23/11/1 21/12/1
f 32/13/3 31/14/3 29/15/3 30/16/3
f 28/21/2 26/22/2 27/23/2 25/24/2
f 20/25/5 18/4/5 19/1/5 17/26/5
