# Blender 5.0.1
# www.blender.org
mtllib BP_WM_ScalableRoof.mtl
o SM_RoofBlock.001
v -50.000000 50.000015 99.999992
v -50.000000 -50.000000 0.000008
v -50.000000 -49.999985 100.000008
v -50.000000 50.000000 -0.000008
v 50.000000 50.000015 99.999992
v -50.000000 50.000000 -0.000008
v -50.000000 50.000015 99.999992
v 50.000000 50.000000 -0.000008
v 50.000000 -49.999985 100.000008
v 50.000000 50.000000 -0.000008
v 50.000000 50.000015 99.999992
v 50.000000 -50.000000 0.000008
v -50.000000 -49.999985 100.000008
v 50.000000 -50.000000 0.000008
v 50.000000 -49.999985 100.000008
v -50.000000 -50.000000 0.000008
v 50.000000 -50.000000 0.000008
v -50.000000 -50.000000 0.000008
v -50.000000 50.000000 -0.000008
v 50.000000 50.000000 -0.000008
v -50.000000 50.000023 149.999985
v -50.000000 -49.999977 150.000015
v 50.000000 50.000023 149.999985
v -50.000000 50.000023 149.999985
v 50.000000 -49.999977 150.000015
v 50.000000 50.000023 149.999985
v -50.000000 -49.999977 150.000015
v 50.000000 -49.999977 150.000015
v -50.000000 50.000023 149.999985
v -50.000000 -49.999977 150.000015
v 50.000000 50.000023 149.999985
v 50.000000 -49.999977 150.000015
vn -1.0000 -0.0000 -0.0000
vn -0.0000 1.0000 -0.0000
vn 1.0000 -0.0000 -0.0000
vn -0.0000 -1.0000 -0.0000
vn -0.0000 -0.0000 -1.0000
vn -0.0000 -0.0000 1.0000
vt 0.000031 0.500000
vt 0.500000 0.500000
vt 0.500000 0.750000
vt 0.000031 0.750000
vt -0.000031 0.500000
vt 0.500000 0.999969
vt -0.000031 0.999969
vt 1.000000 0.999969
vt 1.000000 0.500000
s 1
usemtl WorldGridMaterial
f 13/1/4 15/2/4 28/3/4 27/4/4
f 16/5/4 14/2/4 15/6/4 13/7/4
f 4/2/1 2/5/1 3/7/1 1/6/1
f 5/2/2 7/1/2 24/4/2 23/3/2
f 9/1/3 11/2/3 26/3/3 25/4/3
f 20/8/5 17/9/5 18/2/5 19/6/5
f 1/2/1 3/1/1 22/4/1 21/3/1
f 8/2/2 6/5/2 7/7/2 5/6/2
f 12/5/3 10/2/3 11/6/3 9/7/3
f 32/9/6 31/8/6 29/6/6 30/2/6
