# Blender 5.0.1
# www.blender.org
mtllib BP_Woodcross.mtl
o SM_Woodcross.001
v -81.250000 -6.251692 31.250000
v -81.250015 6.334397 168.750000
v -81.250015 -6.251698 168.750000
v -81.250000 6.334404 31.250000
v 68.750000 6.334397 181.250000
v 0.000007 -6.251696 112.500008
v 68.750000 -6.251699 181.250000
v 0.000007 6.334400 112.500008
v -68.750000 -6.251692 18.750000
v 68.750000 -6.251692 18.749983
v 68.750000 6.334404 18.749983
v -68.750000 6.334404 18.750000
v -68.750000 6.334404 18.750000
v -0.000008 -6.251695 87.499992
v -68.750000 -6.251692 18.750000
v -0.000008 6.334401 87.499992
v -81.250000 -6.251692 31.250000
v -12.499998 -6.251695 100.000008
v -12.499998 6.334400 100.000008
v -81.250000 6.334404 31.250000
v -12.499998 -6.251695 100.000008
v -81.250015 -6.251698 168.750000
v -81.250015 6.334397 168.750000
v -12.499998 6.334400 100.000008
v -0.000008 6.334401 87.499992
v 68.750000 -6.251692 18.749983
v -0.000008 -6.251695 87.499992
v 68.750000 6.334404 18.749983
v 81.250000 -6.251692 31.250000
v 81.250000 -6.251698 168.750000
v 81.250000 6.334398 168.750000
v 81.250000 6.334404 31.250000
v 68.750000 -6.251699 181.250000
v -68.750000 -6.251699 181.250000
v -68.750000 6.334397 181.250000
v 68.750000 6.334397 181.250000
v 81.250000 -6.251698 168.750000
v 12.499999 -6.251695 100.000000
v 12.499999 6.334401 100.000000
v 81.250000 6.334398 168.750000
v 81.250000 6.334404 31.250000
v 12.499999 -6.251695 100.000000
v 81.250000 -6.251692 31.250000
v 12.499999 6.334401 100.000000
v -68.750000 -6.251699 181.250000
v 0.000007 -6.251696 112.500008
v 0.000007 6.334400 112.500008
v -68.750000 6.334397 181.250000
v -99.999992 6.334405 0.000008
v -68.750000 -6.251691 0.000008
v -99.999992 -6.251691 0.000008
v -68.750000 6.334405 0.000008
v 68.750008 -6.251691 0.000008
v 68.750008 6.334405 0.000008
v 99.999992 -6.251691 0.000008
v 99.999992 6.334405 0.000008
v -99.999992 -6.251699 199.999985
v -68.750000 6.334396 199.999985
v -99.999992 6.334396 199.999985
v -68.750000 -6.251699 199.999985
v 68.749992 6.334396 199.999985
v 68.749992 -6.251699 199.999985
v 99.999992 6.334396 199.999985
v 99.999992 -6.251699 199.999985
v -99.999992 -6.251691 0.000008
v -99.999992 6.334404 31.250000
v -99.999992 6.334405 0.000008
v -99.999992 -6.251692 31.250000
v -99.999992 6.334398 168.750000
v -99.999992 -6.251698 168.750000
v -99.999992 6.334396 199.999985
v -99.999992 -6.251699 199.999985
v 99.999992 -6.251692 31.250000
v 99.999992 -6.251691 0.000008
v 99.999992 6.334405 0.000008
v 99.999992 6.334404 31.250000
v 99.999992 -6.251698 168.750000
v 99.999992 6.334398 168.750000
v 99.999992 -6.251699 199.999985
v 99.999992 6.334396 199.999985
v -99.999992 -6.251698 168.750000
v -81.250000 -6.251699 181.250000
v -99.999992 -6.251699 199.999985
v -68.750000 -6.251699 199.999985
v -81.250015 -6.251698 168.750000
v -99.999992 -6.251692 31.250000
v -68.750000 -6.251699 181.250000
v 68.749992 -6.251699 199.999985
v -81.250000 -6.251692 31.250000
v -12.499998 -6.251695 100.000008
v -81.250000 -6.251692 18.750000
v -99.999992 -6.251691 0.000008
v -68.750000 -6.251691 0.000008
v -68.750000 -6.251692 18.750000
v -0.000008 -6.251695 87.499992
v 68.750000 -6.251692 18.749983
v 68.750008 -6.251691 0.000008
v 0.000007 -6.251696 112.500008
v 68.750000 -6.251699 181.250000
v 12.499999 -6.251695 100.000000
v 81.250000 -6.251698 168.750000
v 81.250000 -6.251692 31.250000
v 81.250000 -6.251699 181.250000
v 99.999992 -6.251699 199.999985
v 99.999992 -6.251698 168.750000
v 99.999992 -6.251692 31.250000
v 81.250000 -6.251692 18.750000
v 99.999992 -6.251691 0.000008
vn 1.0000 -0.0000 -0.0000
vn -0.7071 -0.0000 0.7071
vn -0.0000 -0.0000 1.0000
vn 0.7071 -0.0000 -0.7071
vn -0.7071 -0.0000 -0.7071
vn -1.0000 -0.0000 -0.0000
vn -0.0000 -0.0000 -1.0000
vn 0.7071 -0.0000 0.7071
vn -0.0000 -1.0000 -0.0000
vt 0.156250 0.999969
vt 0.000031 0.999969
vt 0.000031 0.937500
vt 0.156250 0.937500
vt 0.937500 0.937500
vt 0.937500 0.999969
vt 0.593750 0.999969
vt 0.593750 0.937500
vt 0.000031 0.062500
vt 0.000031 0.000000
vt 0.156250 0.000000
vt 0.156250 0.062500
vt 0.500000 0.031250
vt 0.500000 0.093750
vt 0.156250 0.093750
vt 0.156250 0.031250
vt 0.843750 0.062500
vt 0.843750 0.000000
vt 1.000000 0.000000
vt 1.000000 0.062500
vt 1.000000 0.999969
vt 0.843750 0.999969
vt 0.843750 0.937500
vt 1.000000 0.937500
vt 0.843750 0.093750
vt 0.406250 0.031250
vt 0.406250 0.093750
vt 0.062500 0.093750
vt 0.062500 0.031250
vt 0.406250 0.937500
vt 0.406250 0.999969
vt 0.062500 0.999969
vt 0.062500 0.937500
vt 0.843750 0.031250
vt 0.843750 0.906250
vt 0.156250 0.906250
vt 0.093750 0.156250
vt 0.093750 0.843750
vt 0.000031 0.843750
vt 0.000031 0.156250
vt 0.062500 0.000000
vt 0.062500 0.156250
vt 0.031250 0.843750
vt 0.031250 0.156250
vt 0.062500 0.843750
vt 0.937500 0.156250
vt 1.000000 0.156250
vt 1.000000 0.843750
vt 0.937500 0.843750
vt 0.093750 0.906250
vt 0.890625 0.031250
vt 0.890625 0.093750
vt 0.546875 0.093750
vt 0.546875 0.031250
vt 0.500000 0.437500
vt 0.906250 0.156250
vt 0.562500 0.500000
vt 0.093750 0.093750
vt 0.500000 0.562500
vt 0.437500 0.500000
vt 0.906250 0.843750
vt 0.906250 0.906250
vt 0.937500 0.000000
vt 0.906250 0.093750
s 1
usemtl MI_Woodcross
f 62/1/3 64/2/3 63/3/3 61/4/3
f 44/5/8 42/6/8 43/7/8 41/8/8
f 56/9/7 55/10/7 53/11/7 54/12/7
f 28/13/5 26/14/5 27/15/5 25/16/5
f 52/17/7 50/18/7 51/19/7 49/20/7
f 57/21/3 60/22/3 58/23/3 59/24/3
f 97/18/9 96/25/9 94/15/9 93/11/9
f 24/26/5 21/27/5 22/28/5 23/29/5
f 20/30/2 17/31/2 18/32/2 19/33/2
f 16/34/4 14/25/4 15/14/4 13/13/4
f 99/35/9 88/22/9 84/1/9 87/36/9
f 89/37/9 85/38/9 81/39/9 86/40/9
f 48/30/8 45/31/8 46/32/8 47/33/8
f 36/23/7 33/22/7 34/1/7 35/4/7
f 70/40/6 72/10/6 71/41/6 69/42/6
f 12/15/3 9/16/3 10/34/3 11/25/3
f 32/43/6 29/44/6 30/37/6 31/38/6
f 70/40/6 69/42/6 66/45/6 68/39/6
f 78/46/1 77/47/1 73/48/1 76/49/1
f 68/39/6 66/45/6 67/32/6 65/2/6
f 4/46/1 2/49/1 3/48/1 1/47/1
f 60/22/3 62/1/3 61/4/3 58/23/3
f 54/12/7 53/11/7 50/18/7 52/17/7
f 76/49/1 73/48/1 74/21/1 75/6/1
f 83/2/9 81/39/9 82/50/9
f 83/2/9 82/50/9 84/1/9
f 85/38/9 82/50/9 81/39/9
f 8/5/2 6/6/2 7/7/2 5/8/2
f 87/36/9 84/1/9 82/50/9
f 85/38/9 87/36/9 82/50/9
f 40/51/4 37/52/4 38/53/4 39/54/4
f 95/55/9 96/25/9 102/56/9 100/57/9
f 89/37/9 86/40/9 91/58/9
f 92/10/9 91/58/9 86/40/9
f 92/10/9 93/11/9 91/58/9
f 91/58/9 94/15/9 89/37/9
f 94/15/9 91/58/9 93/11/9
f 95/55/9 100/57/9 98/59/9 90/60/9
f 101/61/9 99/35/9 98/59/9 100/57/9
f 98/59/9 87/36/9 85/38/9 90/60/9
f 90/60/9 89/37/9 94/15/9 95/55/9
f 99/35/9 103/62/9 88/22/9
f 103/62/9 99/35/9 101/61/9
f 104/21/9 88/22/9 103/62/9
f 104/21/9 103/62/9 105/48/9
f 101/61/9 105/48/9 103/62/9
f 80/63/1 79/19/1 77/47/1 78/46/1
f 102/56/9 107/64/9 106/47/9
f 107/64/9 102/56/9 96/25/9
f 96/25/9 97/18/9 107/64/9
f 108/19/9 106/47/9 107/64/9
f 108/19/9 107/64/9 97/18/9
f 102/56/9 106/47/9 105/48/9 101/61/9
