# Blender 5.0.1
# www.blender.org
mtllib BP_WindReactive_Pipe_T_Long.mtl
o SM_Wind_Pipe_02_T.001
v -150.000092 -50.000282 200.000031
v -349.999969 49.999695 200.000031
v -150.000122 49.999725 200.000031
v -349.999969 -50.000313 200.000031
v -349.999969 49.999695 200.000031
v -150.000122 49.999725 100.000000
v -150.000122 49.999725 200.000031
v -349.999969 49.999695 100.000000
v -349.999969 49.999695 100.000000
v -150.000092 -50.000282 100.000008
v -150.000122 49.999725 100.000000
v -349.999969 -50.000313 100.000008
v -150.000092 -50.000282 100.000008
v -349.999969 -50.000313 100.000008
v -150.000092 -50.000282 200.000031
v -349.999969 -50.000313 200.000031
v 49.999969 149.999771 200.000031
v -50.000080 349.999847 200.000031
v 49.999935 349.999878 200.000031
v -50.000042 149.999725 200.000031
v -50.000080 349.999847 200.000031
v -50.000042 149.999725 200.000031
v -50.000042 149.999725 100.000000
v -50.000080 349.999847 100.000000
v 49.999969 149.999771 100.000008
v 49.999935 349.999878 100.000008
v -50.000080 349.999847 100.000000
v -50.000042 149.999725 100.000000
v 49.999969 149.999771 200.000031
v 49.999935 349.999878 200.000031
v 49.999935 349.999878 100.000008
v 49.999969 149.999771 100.000008
v -50.000011 49.999748 200.000015
v -50.000011 49.999748 100.000000
v 49.999985 49.999710 200.000015
v 49.999992 49.999733 99.999992
v -50.000011 49.999748 200.000015
v -50.000011 49.999748 100.000000
v 50.000015 -50.000244 100.000000
v 50.000015 -50.000244 200.000000
v 150.000153 -50.000412 100.000000
v 150.000153 -50.000412 200.000031
v 150.000061 49.999596 200.000031
v 349.999939 49.999599 200.000031
v 150.000153 -50.000412 200.000031
v 349.999939 -50.000408 200.000031
v 349.999939 -50.000408 200.000031
v 349.999939 -50.000408 100.000000
v 150.000153 -50.000412 100.000000
v 349.999939 49.999599 100.000008
v 150.000061 49.999596 100.000008
v 349.999939 -50.000408 100.000000
v 150.000061 49.999596 100.000008
v 349.999939 49.999599 100.000008
v 150.000061 49.999596 200.000031
v 349.999939 49.999599 200.000031
v 50.000015 -50.000244 200.000000
v 49.999985 49.999710 200.000015
v 50.000015 -50.000244 100.000000
v 49.999992 49.999733 99.999992
v 49.999985 49.999710 200.000015
v 49.999992 49.999733 99.999992
v -299.999939 -100.000328 50.000004
v -349.999969 -100.000313 50.000000
v -299.999969 -50.000324 50.000008
v -350.000000 -50.000313 50.000000
v -299.999969 49.999683 50.000008
v -350.000000 49.999695 50.000000
v -300.000000 99.999680 50.000004
v -350.000031 99.999687 50.000000
v -299.999939 -100.000328 250.000031
v -349.999969 -100.000313 250.000000
v -299.999939 -100.000305 200.000031
v -349.999969 -100.000313 200.000031
v -299.999939 -100.000305 100.000015
v -349.999969 -100.000313 100.000015
v -299.999939 -100.000328 50.000004
v -349.999969 -100.000313 50.000000
v -100.000084 299.999817 250.000000
v -100.000092 349.999847 250.000000
v -100.000092 349.999847 200.000031
v -100.000099 299.999786 200.000031
v -100.000092 349.999847 100.000000
v -100.000099 299.999786 100.000000
v -100.000084 299.999817 50.000000
v -100.000092 349.999847 50.000000
v 100.000023 -100.000328 50.000004
v -99.999947 -100.000282 50.000004
v 100.000000 -50.000370 50.000004
v -99.999962 -50.000298 50.000008
v 99.999992 49.999626 50.000004
v -99.999977 49.999702 50.000008
v -100.000008 99.999756 50.000008
v -50.000027 99.999809 50.000000
v 49.999981 99.999825 50.000000
v 99.999977 99.999710 50.000000
v 300.000000 99.999611 250.000031
v 349.999969 99.999596 250.000000
v 300.000000 99.999603 200.000031
v 349.999969 99.999596 200.000031
v 300.000000 99.999603 100.000015
v 349.999969 99.999596 100.000015
v 300.000000 99.999611 50.000000
v 349.999969 99.999596 50.000000
v 350.000092 -100.000404 50.000000
v 300.000061 -100.000381 50.000000
v 350.000031 -50.000408 50.000000
v 299.999939 -50.000393 50.000008
v 350.000031 49.999599 50.000000
v 299.999939 49.999615 50.000008
v 349.999969 99.999596 50.000000
v 300.000000 99.999611 50.000000
v 100.000008 -50.000366 250.000031
v -99.999947 -100.000282 250.000031
v 100.000031 -100.000328 250.000015
v -99.999962 -50.000301 250.000031
v 100.000000 49.999634 250.000015
v -99.999977 49.999702 250.000031
v 99.999977 99.999710 250.000015
v 49.999977 99.999825 250.000015
v -50.000031 99.999809 250.000015
v -100.000008 99.999756 250.000031
v -99.999954 -100.000259 200.000015
v 100.000031 -100.000328 250.000015
v -99.999947 -100.000282 250.000031
v 100.000053 -100.000320 200.000000
v -99.999954 -100.000259 100.000008
v 100.000053 -100.000320 100.000000
v 100.000023 -100.000328 50.000004
v -99.999947 -100.000282 50.000004
v -350.000000 49.999695 250.000000
v -300.000000 99.999680 250.000031
v -350.000031 99.999687 250.000000
v -299.999969 49.999683 250.000031
v -350.000000 -50.000313 250.000000
v -299.999969 -50.000324 250.000031
v -349.999969 -100.000313 250.000000
v -299.999939 -100.000328 250.000031
v 99.999939 299.999878 250.000000
v 99.999931 349.999908 200.000031
v 99.999931 349.999908 250.000000
v 99.999931 299.999847 200.000031
v 99.999931 349.999908 100.000015
v 99.999931 299.999847 100.000015
v 99.999939 299.999878 50.000000
v 99.999931 349.999908 50.000000
v 99.999977 99.999710 250.000015
v 99.999977 99.999680 200.000015
v 99.999977 99.999680 100.000008
v 99.999977 99.999710 50.000000
v 99.999939 299.999878 250.000000
v 49.999939 299.999878 250.000015
v -50.000080 299.999878 250.000015
v -100.000084 299.999817 250.000000
v -100.000008 99.999756 250.000031
v -100.000015 99.999741 200.000000
v -100.000015 99.999741 100.000000
v -100.000008 99.999756 50.000008
v -300.000000 99.999680 50.000004
v -100.000015 99.999741 100.000000
v -100.000008 99.999756 50.000008
v -300.000000 99.999695 100.000000
v -100.000015 99.999741 200.000000
v -300.000000 99.999695 200.000031
v -100.000008 99.999756 250.000031
v -300.000000 99.999680 250.000031
v 99.999939 299.999878 50.000000
v 49.999939 299.999878 50.000000
v -50.000080 299.999878 50.000000
v -100.000084 299.999817 50.000000
v 350.000092 -100.000404 50.000000
v 300.000061 -100.000397 100.000000
v 300.000061 -100.000381 50.000000
v 350.000092 -100.000404 100.000000
v 300.000061 -100.000397 200.000031
v 350.000092 -100.000404 200.000031
v 350.000092 -100.000404 250.000000
v 300.000061 -100.000381 250.000031
v 350.000031 -50.000408 250.000000
v 300.000061 -100.000381 250.000031
v 350.000092 -100.000404 250.000000
v 299.999939 -50.000393 250.000031
v 350.000031 49.999599 250.000000
v 299.999939 49.999615 250.000031
v 349.999969 99.999596 250.000000
v 300.000000 99.999611 250.000031
v 99.999977 99.999680 100.000008
v 99.999977 99.999710 50.000000
v 99.999977 99.999680 200.000015
v 99.999977 99.999710 250.000015
v -350.000031 99.999687 100.000000
v -350.000031 99.999687 50.000000
v -350.000031 99.999687 200.000031
v -350.000031 99.999687 250.000000
v -100.000092 349.999847 50.000000
v -50.000080 349.999878 50.000000
v 49.999935 349.999878 50.000000
v 99.999931 349.999908 50.000000
v -100.000092 349.999847 250.000000
v -50.000080 349.999878 250.000000
v 49.999935 349.999878 250.000000
v 99.999931 349.999908 250.000000
v -350.000031 99.999687 250.000000
v -350.000031 99.999687 200.000031
v -350.000000 49.999695 250.000000
v -349.999969 49.999695 200.000031
v -350.000000 -50.000313 250.000000
v -350.000031 99.999687 100.000000
v -349.999969 -50.000313 200.000031
v -349.999969 -100.000313 250.000000
v -349.999969 -100.000313 200.000031
v -349.999969 -100.000313 100.000015
v -349.999969 -50.000313 100.000008
v -349.999969 -100.000313 50.000000
v -350.000000 -50.000313 50.000000
v -349.999969 49.999695 100.000000
v -350.000000 49.999695 50.000000
v -350.000031 99.999687 50.000000
v -50.000080 349.999878 250.000000
v -100.000092 349.999847 200.000031
v -100.000092 349.999847 250.000000
v -50.000080 349.999847 200.000031
v 49.999935 349.999878 250.000000
v -100.000092 349.999847 100.000000
v 49.999935 349.999878 200.000031
v 99.999931 349.999908 250.000000
v -50.000080 349.999847 100.000000
v 99.999931 349.999908 200.000031
v 99.999931 349.999908 100.000015
v 49.999935 349.999878 100.000008
v 99.999931 349.999908 50.000000
v 49.999935 349.999878 50.000000
v -50.000080 349.999878 50.000000
v -100.000092 349.999847 50.000000
v 350.000092 -100.000404 200.000031
v 350.000031 -50.000408 250.000000
v 350.000092 -100.000404 250.000000
v 349.999939 -50.000408 200.000031
v 350.000031 49.999599 250.000000
v 350.000092 -100.000404 100.000000
v 349.999939 49.999599 200.000031
v 349.999969 99.999596 250.000000
v 349.999969 99.999596 200.000031
v 349.999969 99.999596 100.000015
v 349.999939 49.999599 100.000008
v 349.999969 99.999596 50.000000
v 350.000031 49.999599 50.000000
v 349.999939 -50.000408 100.000000
v 350.000031 -50.000408 50.000000
v 350.000092 -100.000404 50.000000
v -50.000011 49.999748 200.000015
v -50.000011 49.999748 100.000000
vn -0.0000 -0.0000 -1.0000
vn -0.0000 -1.0000 -0.0000
vn -0.0000 -0.0000 1.0000
vn -0.0000 1.0000 -0.0000
vn 1.0000 -0.0000 -0.0000
vn -1.0000 -0.0000 -0.0000
vt 0.625000 0.187500
vt 0.625000 0.437500
vt 0.500000 0.437500
vt 0.500000 0.187500
vt 0.500000 0.312500
vt 0.250000 0.312500
vt 0.250000 0.187500
vt 0.125000 0.875000
vt 0.125000 0.750000
vt 0.375000 0.750000
vt 0.375000 0.875000
vt 0.375000 0.187500
vt 0.499756 0.187500
vt 0.499756 0.312500
vt 0.375000 0.312500
vt 0.624512 0.312500
vt 0.624512 0.437500
vt 0.375000 0.437500
vt 0.312500 0.999969
vt 0.187500 0.999969
vt 0.187500 0.937500
vt 0.312500 0.937500
vt 0.125000 0.999969
vt 0.125000 0.937500
vt 0.312500 0.625000
vt 0.312500 0.687500
vt 0.187500 0.687500
vt 0.187500 0.625000
vt 0.375000 0.500000
vt 0.312500 0.500000
vt 0.312500 0.437500
vt 0.624512 0.187500
vt 0.375000 0.937500
vt 0.625000 0.312500
vt 0.375000 0.999969
vt 0.375000 0.687500
vt 0.125000 0.687500
vt 0.312500 0.937531
vt 0.375000 0.937531
vt 0.187500 0.437500
vt 0.125000 0.437500
vt 0.125000 0.375000
vt 0.187500 0.187500
vt 0.125000 0.250000
vt 0.125000 0.187500
vt 0.499756 0.437500
vt 0.375000 0.250000
vt 0.312256 0.187500
vt 0.375000 0.375000
vt 0.312500 0.187500
vt 0.187500 0.500000
vt 0.125000 0.500000
vt 0.187500 0.937531
vt 0.125000 0.937531
vt 0.187378 0.187500
vt 0.125000 0.625000
vt 0.375000 0.625000
s 1
usemtl MI_Wind_Pipe_No_e
f 12/1/3 10/2/3 11/3/3 9/4/3
f 24/4/5 21/5/5 22/6/5 23/7/5
f 117/8/3 113/9/3 182/10/3 184/11/3
f 34/12/5 23/13/5 22/14/5 33/15/5
f 27/15/3 28/16/3 25/17/3 26/18/3
f 191/19/4 193/20/4 164/21/4 162/22/4
f 78/23/2 77/24/2 75/21/2 76/20/2
f 209/25/6 207/26/6 205/27/6 206/28/6
f 7/15/2 6/12/2 38/4/2 37/5/2
f 42/15/4 41/12/4 39/13/4 40/14/4
f 175/10/2 126/9/2 128/8/2 172/11/2
f 92/9/1 90/8/1 65/11/1 67/10/1
f 153/11/3 121/8/3 120/9/3 152/10/3
f 234/18/4 224/29/4 227/30/4 233/31/4
f 8/12/2 6/32/2 7/16/2 5/15/2
f 148/8/5 142/11/5 139/33/5 147/24/5
f 14/12/4 16/4/4 15/3/4 13/18/4
f 60/34/3 59/5/3 49/4/3 51/1/3
f 182/21/3 180/24/3 181/23/3 179/20/3
f 101/11/4 103/33/4 188/24/4 187/8/4
f 138/33/3 136/22/3 135/19/3 137/35/3
f 99/10/4 101/11/4 187/8/4 189/9/4
f 196/20/1 169/21/1 170/24/1 195/23/1
f 52/4/3 50/1/3 51/2/3 49/3/3
f 32/32/6 29/16/6 30/15/6 31/12/6
f 136/11/3 138/33/3 114/24/3 116/8/3
f 85/36/6 158/37/6 157/9/6 84/10/6
f 174/19/2 176/20/2 175/21/2 172/22/2
f 82/38/6 79/39/6 80/35/6 81/19/6
f 112/33/1 110/11/1 91/8/1 96/24/1
f 166/36/4 165/37/4 163/9/4 164/10/4
f 92/40/1 93/41/1 94/42/1
f 92/40/1 94/42/1 91/43/1
f 95/44/1 91/43/1 94/42/1
f 91/43/1 95/44/1 96/45/1
f 58/46/1 251/5/1 20/16/1 17/17/1
f 48/12/4 41/32/4 42/16/4 47/15/4
f 169/11/1 168/10/1 95/9/1 94/8/1
f 136/22/3 134/21/3 131/20/3 135/19/3
f 168/10/1 167/36/1 96/37/1 95/9/1
f 122/24/3 121/8/3 153/11/3 154/33/3
f 178/24/2 175/21/2 176/20/2 177/23/2
f 120/47/3 117/48/3 119/12/3
f 117/48/3 120/47/3 118/31/3
f 121/49/3 118/31/3 120/47/3
f 122/18/3 118/31/3 121/49/3
f 44/12/1 46/4/1 45/46/1 43/18/1
f 116/8/3 118/9/3 134/10/3 136/11/3
f 134/21/3 132/24/3 133/23/3 131/20/3
f 184/11/3 186/33/3 119/24/3 117/8/3
f 66/20/1 68/19/1 67/22/1 65/21/1
f 94/8/1 93/24/1 170/33/1 169/11/1
f 98/35/4 100/19/4 99/22/4 97/33/4
f 241/25/5 239/26/5 236/27/5 238/28/5
f 60/3/3 25/18/3 28/15/3 252/5/3
f 88/18/1 90/31/1 89/50/1 87/12/1
f 13/12/4 15/4/4 40/3/4 39/18/4
f 72/35/2 74/19/2 73/22/2 71/33/2
f 132/36/3 134/10/3 118/9/3 122/37/3
f 217/40/6 215/31/6 213/30/6 216/51/6
f 61/4/2 62/5/2 53/15/2 55/12/2
f 247/31/5 246/18/5 244/29/5 245/30/5
f 4/12/1 2/4/1 3/46/1 1/18/1
f 186/33/3 184/22/3 183/19/3 185/35/3
f 145/36/5 144/10/5 149/9/5 150/37/5
f 249/40/5 247/31/5 245/30/5 248/51/5
f 172/11/2 128/8/2 129/24/2 173/33/2
f 178/36/2 124/37/2 126/9/2 175/10/2
f 104/23/4 103/24/4 101/21/4 102/20/4
f 162/11/4 160/8/4 161/24/4 159/33/4
f 250/41/5 249/40/5 248/51/5 240/52/5
f 91/8/1 110/11/1 108/10/1 89/9/1
f 70/35/1 69/33/1 67/22/1 68/19/1
f 162/22/4 159/33/4 192/35/4 191/19/4
f 144/38/5 143/19/5 140/20/5 142/53/5
f 166/24/4 164/21/4 193/20/4 194/23/4
f 106/33/1 108/22/1 107/19/1 105/35/1
f 110/21/1 109/20/1 107/19/1 108/22/1
f 153/22/3 200/19/3 199/35/3 154/33/3
f 97/36/4 99/10/4 189/9/4 190/37/4
f 198/35/1 167/33/1 168/22/1 197/19/1
f 184/22/3 182/21/3 179/20/3 183/19/3
f 58/15/1 43/12/1 45/4/1 57/14/1
f 174/19/2 172/22/2 173/33/2 171/35/2
f 64/23/1 66/20/1 65/21/1 63/24/1
f 151/24/3 202/23/3 201/20/3 152/21/3
f 128/42/2 126/44/2 123/47/2 127/49/2
f 126/44/2 124/45/2 125/12/2 123/47/2
f 113/9/3 115/37/3 180/36/3 182/10/3
f 36/4/6 35/5/6 29/15/6 32/12/6
f 130/18/2 129/41/2 128/42/2 127/49/2
f 123/9/2 125/37/2 71/36/2 73/10/2
f 84/53/6 82/38/6 81/19/6 83/20/6
f 83/20/6 86/23/6 85/54/6 84/53/6
f 116/40/3 114/41/3 115/45/3 113/55/3
f 100/19/4 102/20/4 101/21/4 99/22/4
f 65/11/1 90/8/1 88/24/1 63/33/1
f 112/24/1 111/23/1 109/20/1 110/21/1
f 228/56/4 225/28/4 223/27/4 226/37/4
f 69/36/1 93/37/1 92/9/1 67/10/1
f 233/31/4 227/30/4 230/51/4 232/40/4
f 149/9/5 144/10/5 142/11/5 148/8/5
f 20/15/1 18/34/1 19/2/1 17/18/1
f 75/11/2 77/33/2 130/24/2 127/8/2
f 213/30/6 212/29/6 211/57/6 209/25/6
f 215/31/6 214/18/6 212/29/6 213/30/6
f 117/48/3 118/31/3 116/40/3 113/55/3
f 152/21/3 201/20/3 200/19/3 153/22/3
f 74/19/2 76/20/2 75/21/2 73/22/2
f 222/25/4 220/57/4 221/36/4 219/26/4
f 73/10/2 75/11/2 127/8/2 123/9/2
f 156/8/6 155/24/6 79/33/6 82/11/6
f 232/40/4 230/51/4 229/52/4 231/41/4
f 211/57/6 210/36/6 207/26/6 209/25/6
f 206/28/6 205/27/6 203/37/6 204/56/6
f 146/35/5 143/19/5 144/38/5 145/39/5
f 54/12/2 56/4/2 55/3/2 53/18/2
f 227/30/4 224/29/4 220/57/4 222/25/4
f 157/9/6 156/8/6 82/11/6 84/10/6
f 230/51/4 225/28/4 228/56/4 229/52/4
f 225/28/4 222/25/4 219/26/4 223/27/4
f 218/41/6 217/40/6 216/51/6 208/52/6
f 152/10/3 120/9/3 119/37/3 151/36/3
f 216/51/6 206/28/6 204/56/6 208/52/6
f 168/22/1 169/21/1 196/20/1 197/19/1
f 238/28/5 236/27/5 237/37/5 235/56/5
f 164/10/4 163/9/4 160/8/4 162/11/4
f 89/9/1 108/10/1 106/36/1 87/37/1
f 245/30/5 244/29/5 243/57/5 241/25/5
f 243/57/5 242/36/5 239/26/5 241/25/5
f 90/31/1 92/40/1 91/43/1 89/50/1
f 251/5/1 58/46/1 57/18/1
f 251/5/1 57/18/1 1/12/1
f 3/4/1 251/5/1 1/12/1
f 142/53/5 140/20/5 141/23/5 139/54/5
f 60/3/3 252/5/3 59/2/3
f 59/2/3 252/5/3 10/1/3
f 11/4/3 10/1/3 252/5/3
f 248/51/5 238/28/5 235/56/5 240/52/5
