# Blender 5.0.1
# www.blender.org
mtllib BP_WP_Building5.mtl
o SM_Building5_Roof.001
v -100.000000 -499.999939 1499.999878
v 0.000046 -300.000000 1500.000000
v -100.000000 -300.000000 1499.999878
v 0.000046 -499.999939 1500.000000
v 0.000046 -100.000023 1500.000000
v 0.000046 99.999939 1500.000000
v -100.000000 99.999939 1499.999878
v -100.000000 -100.000023 1499.999878
v -100.000000 -499.999939 1499.999878
v -100.000000 -300.000000 1499.999878
v -100.000000 -299.999969 1400.000000
v -100.000000 -499.999939 1399.999878
v -100.000000 99.999939 1499.999878
v -100.000000 -100.000000 1400.000000
v -100.000000 -100.000023 1499.999878
v -100.000000 99.999939 1399.999878
v -800.000000 -199.999924 999.999878
v -899.999878 -399.999939 999.999878
v -799.999878 -399.999939 999.999817
v -899.999878 -199.999924 999.999878
v -899.999878 -399.999939 999.999878
v -899.999878 -199.999924 999.999878
v -900.000000 -199.999924 900.000000
v -900.000000 -399.999939 900.000000
v -800.000000 399.999939 999.999878
v -900.000000 200.000015 999.999878
v -800.000000 199.999969 999.999878
v -900.000000 399.999969 999.999878
v -900.000000 399.999969 900.000000
v -900.000000 200.000031 900.000000
v -900.000000 399.999969 999.999878
v -900.000000 200.000015 999.999878
v 0.000107 -499.999908 1399.999878
v 0.000046 -300.000000 1500.000000
v 0.000046 -499.999939 1500.000000
v 0.000107 -299.999939 1400.000000
v 0.000122 -99.999992 1400.000000
v 0.000046 99.999939 1500.000000
v 0.000046 -100.000023 1500.000000
v 0.000137 99.999969 1399.999878
v 700.000000 -199.999924 999.999878
v 799.999878 -399.999939 999.999878
v 799.999878 -199.999924 999.999878
v 699.999878 -399.999939 999.999817
v 800.000000 -399.999939 900.000000
v 800.000000 -199.999924 900.000000
v 799.999878 -399.999939 999.999878
v 799.999878 -199.999924 999.999878
v 700.000000 399.999939 999.999878
v 800.000000 200.000015 999.999878
v 800.000000 399.999969 999.999878
v 700.000000 199.999969 999.999878
v 800.000000 399.999969 999.999878
v 800.000000 200.000015 999.999878
v 800.000000 200.000031 900.000000
v 800.000000 399.999969 900.000000
v 100.000183 100.000000 1399.999756
v 0.000137 99.999969 1399.999878
v 0.000122 -99.999992 1400.000000
v 100.000153 -200.000031 1399.999756
v 0.000107 -299.999939 1400.000000
v 100.000122 -499.999939 1399.999756
v 0.000107 -499.999908 1399.999878
v -100.000000 -299.999969 1400.000000
v -200.000000 -499.999939 1399.999756
v -100.000000 -499.999939 1399.999878
v -200.000000 -199.999924 1399.999756
v -100.000000 -100.000000 1400.000000
v -200.000000 99.999939 1399.999756
v -100.000000 99.999939 1399.999878
v -200.000000 -199.999939 1300.000000
v -299.999969 -499.999908 1299.999878
v -200.000000 -499.999939 1299.999878
v -299.999969 -199.999924 1299.999878
v -200.000000 99.999939 1299.999878
v -299.999969 99.999939 1299.999878
v -399.999939 -499.999939 1199.999756
v -399.999939 -199.999924 1199.999756
v -399.999908 -499.999939 1099.999756
v -399.999939 -199.999924 1099.999756
v -399.999939 99.999924 1199.999756
v -399.999908 99.999924 1099.999756
v 100.000153 -200.000015 1300.000000
v 200.000214 99.999939 1299.999878
v 100.000183 100.000000 1299.999878
v 200.000183 -200.000046 1299.999878
v 100.000122 -499.999939 1299.999878
v 200.000153 -499.999939 1299.999878
v 200.000214 99.999939 1299.999878
v 200.000153 -200.000031 1200.000000
v 200.000214 99.999939 1199.999878
v 200.000183 -200.000046 1299.999878
v 200.000153 -499.999878 1199.999878
v 200.000153 -499.999939 1299.999878
v 300.000153 99.999939 1199.999756
v 300.000092 -200.000061 1199.999756
v 300.000092 99.999939 1099.999756
v 300.000092 -200.000061 1099.999756
v 300.000031 -499.999939 1199.999756
v 300.000031 -499.999939 1099.999756
v 400.000031 99.999939 1099.999756
v 399.999939 -199.999969 999.999756
v 399.999939 99.999954 999.999878
v 400.000000 -200.000076 1099.999756
v 399.999908 -499.999939 999.999756
v 399.999969 -499.999939 1099.999756
v -200.000000 -499.999939 1399.999756
v -200.000000 -199.999939 1300.000000
v -200.000000 -499.999939 1299.999878
v -200.000000 -199.999924 1399.999756
v -200.000000 99.999939 1399.999756
v -200.000000 99.999939 1299.999878
v -299.999969 -499.999908 1299.999878
v -300.000000 -199.999939 1200.000000
v -299.999969 -499.999939 1199.999878
v -299.999969 -199.999924 1299.999878
v -299.999969 99.999939 1299.999878
v -299.999969 99.999931 1199.999878
v -300.000000 -199.999939 1200.000000
v -399.999939 -499.999939 1199.999756
v -299.999969 -499.999939 1199.999878
v -399.999939 -199.999924 1199.999756
v -399.999939 99.999924 1199.999756
v -299.999969 99.999931 1199.999878
v -399.999939 -199.999924 1099.999756
v -499.999847 -499.999939 1099.999756
v -399.999908 -499.999939 1099.999756
v -499.999847 -199.999924 1099.999756
v -499.999847 99.999924 1099.999756
v -399.999908 99.999924 1099.999756
v -499.999847 -499.999939 1099.999756
v -499.999847 -199.999924 1099.999756
v -499.999847 -499.999939 999.999756
v -499.999878 -199.999924 999.999756
v -499.999878 99.999954 999.999878
v -499.999847 99.999924 1099.999756
v -900.000122 -199.999924 599.999817
v -900.000061 0.000046 700.000061
v -900.000122 0.000046 599.999817
v -900.000061 -199.999924 700.000061
v -900.000000 0.000046 900.000000
v 100.000183 100.000000 1399.999756
v 100.000153 -200.000015 1300.000000
v 100.000183 100.000000 1299.999878
v 100.000153 -200.000031 1399.999756
v 100.000122 -499.999939 1399.999756
v 100.000122 -499.999939 1299.999878
v 200.000214 99.999939 1199.999878
v 300.000092 -200.000061 1199.999756
v 300.000153 99.999939 1199.999756
v 200.000153 -200.000031 1200.000000
v 200.000153 -499.999878 1199.999878
v 300.000031 -499.999939 1199.999756
v 300.000092 -200.000061 1099.999756
v 400.000031 99.999939 1099.999756
v 300.000092 99.999939 1099.999756
v 400.000000 -200.000076 1099.999756
v 399.999969 -499.999939 1099.999756
v 300.000031 -499.999939 1099.999756
v 800.000061 0.000046 700.000122
v 800.000122 -199.999924 599.999817
v 800.000122 0.000046 599.999817
v 800.000061 -199.999939 700.000122
v 800.000000 0.000046 900.000000
v -900.000122 499.999878 700.000122
v -900.000122 499.999878 900.000000
v -900.000122 399.999878 700.000122
v -900.000122 499.999878 599.999817
v -900.000122 399.999878 599.999817
v -900.000061 200.000031 700.000061
v -900.000122 200.000015 599.999817
v 800.000122 -499.999908 900.000000
v 800.000122 -499.999878 700.000122
v 800.000000 -399.999939 700.000061
v 800.000122 -499.999908 599.999817
v 800.000122 -399.999939 599.999817
v 800.000122 499.999878 700.000061
v 800.000122 499.999878 900.000000
v 800.000122 399.999878 599.999817
v 800.000122 499.999878 599.999817
v 800.000000 399.999878 700.000061
v 800.000122 200.000015 599.999817
v 800.000061 200.000031 700.000122
v -900.000122 -399.999939 599.999817
v -900.000122 -499.999939 700.000061
v -900.000122 -499.999939 599.999817
v -900.000122 -399.999939 700.000122
v -900.000122 -499.999939 900.000000
v -700.000061 166.666672 999.999878
v -700.000061 -199.999908 999.999878
v -600.000000 133.333313 999.999878
v -600.000000 -199.999908 999.999817
v 199.999908 -499.999969 999.999878
v 99.999847 -499.999969 999.999878
v 99.999786 -500.000000 899.999939
v 200.000000 -500.000000 899.999939
v 199.999786 -399.999969 999.999817
v 99.999878 -400.000000 999.999756
v 99.999847 -499.999969 999.999878
v 199.999908 -499.999969 999.999878
v -199.999847 600.000122 999.999878
v -300.000000 600.000122 899.999939
v -300.000000 600.000122 999.999878
v -199.999786 600.000122 899.999939
v 200.000000 600.000000 999.999878
v 100.000092 600.000061 999.999878
v 100.000183 500.000122 999.999817
v 200.000000 500.000122 999.999817
v 200.000000 600.000000 999.999878
v 100.000137 600.000000 899.999939
v 100.000092 600.000061 999.999878
v 200.000000 600.000000 899.999939
v -200.000092 -500.000000 999.999878
v -300.000000 -500.000000 900.000000
v -200.000137 -500.000000 899.999939
v -300.000061 -500.000000 999.999878
v -200.000214 -400.000000 999.999817
v -300.000061 -500.000000 999.999878
v -200.000092 -500.000000 999.999878
v -300.000061 -400.000031 999.999756
v -300.000000 600.000122 999.999878
v -199.999908 500.000122 999.999756
v -199.999847 600.000122 999.999878
v -300.000000 500.000122 999.999756
v 100.000153 600.000000 799.999939
v 200.000000 600.000000 799.999939
v -300.000000 -500.000000 800.000061
v -200.000153 -499.999969 800.000061
v -700.000000 699.999878 999.999878
v -600.000000 699.999878 999.999878
v -700.000000 699.999878 900.000000
v -600.000000 699.999878 900.000000
v -600.000000 -599.999878 999.999878
v -700.000000 -599.999878 999.999878
v -600.000000 -599.999878 900.000000
v -700.000000 -599.999878 900.000000
v -600.000000 -599.999878 800.000061
v -700.000000 -599.999878 800.000061
v -600.000000 699.999878 799.999939
v -700.000000 699.999878 799.999939
v 500.000000 699.999878 999.999878
v 600.000000 699.999878 999.999878
v 600.000000 699.999878 900.000000
v 500.000000 699.999878 900.000000
v 600.000000 -599.999878 999.999878
v 500.000000 -599.999878 999.999878
v 500.000000 -599.999878 900.000000
v 600.000000 -599.999878 900.000000
v 500.000000 -599.999878 800.000061
v 600.000000 -599.999878 800.000061
v 500.000000 699.999878 799.999939
v 600.000000 699.999878 799.999939
v 600.000000 -199.999939 999.999817
v 600.000000 166.666656 999.999878
v 499.999939 133.333298 999.999878
v 499.999939 -199.999939 999.999756
v -700.000000 -433.333191 999.999817
v -599.999939 -466.666565 999.999756
v -700.000000 -599.999878 999.999878
v -600.000000 -599.999878 999.999878
v 99.999817 -499.999969 800.000061
v 200.000000 -500.000000 800.000061
v -199.999817 600.000061 799.999939
v -300.000000 600.000122 799.999939
v -700.000000 699.999878 999.999878
v -600.000000 599.999878 999.999878
v -600.000000 699.999878 999.999878
v -700.000061 499.999817 999.999878
v 500.000000 599.999878 999.999878
v 600.000000 699.999878 999.999878
v 500.000000 699.999878 999.999878
v 600.000000 499.999908 999.999878
v 600.000000 -433.333221 999.999756
v 500.000000 -466.666565 999.999756
v 600.000000 -599.999878 999.999878
v 500.000000 -599.999878 999.999878
v -499.999939 -599.999878 999.999878
v -499.999969 -599.999878 899.999939
v -400.000214 -500.000000 999.999878
v -400.000183 -500.000000 899.999939
v 300.000031 600.000000 999.999878
v 300.000122 600.000000 899.999939
v -800.000000 699.999878 999.999878
v -800.000061 699.999878 899.999939
v 299.999878 -500.000000 999.999878
v 299.999878 -500.000000 899.999939
v -399.999908 600.000183 899.999939
v -399.999939 600.000122 999.999878
v -800.000000 -599.999878 999.999878
v -800.000000 -599.999878 899.999939
v -499.999939 699.999878 899.999939
v -499.999878 699.999878 999.999878
v 399.999939 -599.999878 999.999878
v 400.000000 -599.999878 899.999939
v 700.000000 699.999878 999.999878
v 699.999939 699.999878 899.999939
v 700.000000 -599.999878 999.999878
v 700.000000 -599.999878 899.999939
v 399.999939 699.999878 899.999939
v 399.999878 699.999878 999.999878
v -200.000183 -499.999939 700.000000
v 99.999847 -499.999939 700.000000
v 200.000000 -499.999969 700.000000
v 299.999878 -500.000000 700.000000
v 299.999878 -500.000000 800.000061
v -400.000122 -500.000000 800.000122
v -400.000061 -500.000000 700.000000
v -300.000000 -499.999969 700.000000
v 100.000183 600.000000 700.000000
v -199.999847 600.000061 700.000000
v -300.000000 600.000122 700.000000
v -399.999878 600.000122 799.999939
v -399.999908 600.000183 700.000000
v 300.000061 600.000000 799.999939
v 300.000031 600.000000 700.000000
v 200.000000 600.000000 700.000000
v -800.000000 -599.999878 800.000122
v -800.000061 -599.999878 700.000000
v -700.000000 -599.999878 700.000000
v -600.000000 -599.999878 700.000000
v -500.000000 -599.999878 800.000061
v -500.000000 -599.999878 700.000000
v 700.000000 -599.999878 800.000122
v 699.999939 -599.999878 700.000000
v 600.000000 -599.999878 700.000000
v 500.000000 -599.999878 700.000000
v 400.000000 -599.999878 800.000061
v 400.000000 -599.999878 700.000000
v -800.000000 699.999878 799.999939
v -700.000000 699.999878 700.000000
v -800.000061 699.999878 700.000000
v -600.000000 699.999878 700.000000
v -500.000000 699.999878 700.000000
v -499.999969 699.999878 799.999939
v 400.000000 699.999878 799.999939
v 500.000000 699.999878 700.000000
v 400.000000 699.999878 700.000000
v 600.000000 699.999878 700.000000
v 699.999939 699.999878 700.000000
v 700.000000 699.999878 799.999939
v -399.999939 600.000122 999.999878
v -399.999939 500.000122 999.999817
v 300.000000 500.000122 999.999756
v 300.000031 600.000000 999.999878
v 399.999939 99.999954 999.999878
v 399.999939 -199.999969 999.999756
v -499.999878 99.999954 999.999878
v -499.999878 -199.999924 999.999756
v 399.999908 -499.999939 999.999756
v 399.999939 -599.999878 999.999878
v 399.999878 699.999878 999.999878
v -800.000000 699.999878 999.999878
v -800.000000 -599.999878 999.999878
v -499.999847 -499.999939 999.999756
v -499.999939 -599.999878 999.999878
v -499.999878 699.999878 999.999878
v 700.000000 -599.999878 999.999878
v 700.000000 699.999878 999.999878
vn -0.0000 -0.0000 1.0000
vn -1.0000 -0.0000 -0.0000
vn 1.0000 -0.0000 -0.0000
vn -0.0000 -1.0000 -0.0000
vn -0.0000 1.0000 -0.0000
vt 0.562500 0.937500
vt 0.562500 0.999969
vt 0.625000 0.999969
vt 0.625000 0.937500
vt 0.625000 0.875000
vt 0.625000 0.812500
vt 0.562500 0.812500
vt 0.562500 0.875000
vt 0.687500 0.500000
vt 0.687500 0.562500
vt 0.625000 0.562500
vt 0.625000 0.500000
vt 0.074219 0.750000
vt 0.074219 0.687500
vt 0.136719 0.687500
vt 0.136719 0.750000
vt 0.375000 0.562500
vt 0.187500 0.562500
vt 0.187500 0.500000
vt 0.375000 0.500000
vt 0.386719 0.562500
vt 0.386719 0.625000
vt 0.324219 0.625000
vt 0.324219 0.562500
vt 0.937500 0.875061
vt 0.812500 0.875061
vt 0.812500 0.999969
vt 0.937500 0.999969
vt 0.074219 0.625000
vt 0.136719 0.625000
vt 0.054688 0.625000
vt 0.054688 0.562500
vt 0.242188 0.562500
vt 0.242188 0.625000
vt 0.386719 0.750000
vt 0.386719 0.687500
vt 0.449219 0.687500
vt 0.449219 0.750000
vt 0.246094 0.500000
vt 0.121094 0.500000
vt 0.121094 0.437500
vt 0.246094 0.437500
vt 0.429688 0.625000
vt 0.429688 0.683594
vt 0.242188 0.683594
vt 0.496094 0.500000
vt 0.371094 0.500000
vt 0.371094 0.437500
vt 0.496094 0.437500
vt 0.812500 0.812500
vt 0.687500 0.875061
vt 0.687500 0.812500
vt 0.125000 0.500000
vt 0.000031 0.562500
vt 0.000031 0.500000
vt 0.250000 0.500000
vt 0.191406 0.562500
vt 0.003906 0.562500
vt 0.003906 0.500000
vt 0.191406 0.500000
vt 0.429688 0.562500
vt 0.324219 0.687500
vt 0.378906 0.562500
vt 0.378906 0.500000
vt 0.011719 0.687500
vt 0.011719 0.750000
vt 0.562500 0.875061
vt 0.078125 0.121094
vt 0.078125 0.246094
vt 0.015625 0.246094
vt 0.015625 0.121094
vt 0.324219 0.750000
vt 0.500000 0.812500
vt 0.500000 0.875000
vt 0.074219 0.562500
vt 0.136719 0.562500
vt 0.187500 0.937500
vt 0.125000 0.937500
vt 0.125000 0.999969
vt 0.187500 0.999969
vt 0.500000 0.875061
vt 0.011719 0.625000
vt 0.011719 0.562500
vt 0.054688 0.746094
vt 0.054688 0.683594
vt 0.242188 0.746094
vt 0.250000 0.875000
vt 0.250000 0.937500
vt 0.187500 0.875000
vt 1.000000 0.999969
vt 1.000000 0.875061
vt 0.449219 0.625000
vt 0.449219 0.562500
vt 0.937500 0.812500
vt 1.000000 0.812500
vt 0.429688 0.746094
vt 0.125000 0.875000
vt 0.125000 0.812500
vt 0.187500 0.812500
vt 0.015625 0.496094
vt 0.015625 0.371094
vt 0.078125 0.371094
vt 0.078125 0.496094
vt 0.562500 0.562500
vt 0.562500 0.500000
vt 0.812500 0.875000
vt 0.875000 0.875000
vt 0.875000 0.812500
vt 0.421875 0.500000
vt 0.421875 0.562500
vt 0.296875 0.562500
vt 0.296875 0.500000
vt 0.500000 0.562500
vt 0.500000 0.500000
vt 0.417969 0.500000
vt 0.417969 0.562500
vt 0.292969 0.562500
vt 0.292969 0.500000
vt 0.500000 0.937500
vt 0.687500 0.999969
vt 0.687500 0.937500
vt 0.687500 0.875000
vt 0.500000 0.999969
vt 0.287598 0.312500
vt 0.266846 0.375488
vt 0.496094 0.375488
vt 0.496094 0.312500
vt 0.312500 0.812500
vt 0.312500 0.875000
vt 0.250000 0.812500
vt 0.937500 0.937500
vt 0.875000 0.937500
vt 0.875000 0.999969
vt 0.937500 0.875000
vt 0.062500 0.937500
vt 0.062500 0.999969
vt 0.250000 0.999969
vt 0.496094 0.375000
vt 0.266846 0.375000
vt 0.726562 0.343750
vt 0.726562 0.406738
vt 0.872070 0.406738
vt 0.893066 0.344238
vt 0.976562 0.406250
vt 0.976562 0.343750
vt 0.519531 0.343750
vt 0.519531 0.406250
vt 0.582031 0.343750
vt 0.644531 0.406738
vt 0.873535 0.343750
vt 0.852539 0.406738
vt 0.582031 0.344238
vt 0.644531 0.406250
vt 0.852539 0.406250
vt 0.726562 0.406250
vt 0.042969 0.500000
vt 0.167969 0.500000
vt 0.167969 0.562500
vt 0.042969 0.562500
vt 0.312500 0.937500
vt 0.312500 0.999969
vt 0.000031 0.937500
vt 0.000031 0.999969
vt 0.062500 0.875000
vt 0.000031 0.875000
vt 0.750000 0.500000
vt 0.750000 0.562500
vt 1.000000 0.875000
vt 0.812500 0.937500
vt 1.000000 0.937500
vt 0.171875 0.500000
vt 0.171875 0.562500
vt 0.046875 0.562500
vt 0.046875 0.500000
vt 0.062500 0.812500
vt 0.000031 0.812500
vt 0.308594 0.250000
vt 0.496094 0.250000
vt 0.726562 0.281250
vt 0.914062 0.281250
vt 0.976562 0.281250
vt 0.519531 0.281250
vt 0.894531 0.281250
vt 0.519531 0.468750
vt 0.707031 0.468750
vt 0.832031 0.468750
vt 0.726562 0.468750
vt 0.851562 0.468750
vt 0.976562 0.468750
s 1
usemtl MI_Building_Roof_005
f 76/17/1 74/18/1 71/19/1 75/20/1
f 174/25/3 163/26/3 46/27/3 45/28/3
f 136/31/2 135/32/2 134/33/2 132/34/2
f 20/39/1 18/40/1 19/41/1 17/42/1
f 157/34/1 155/43/1 156/44/1 154/45/1
f 28/46/1 26/47/1 27/48/1 25/49/1
f 139/50/2 138/26/2 170/51/2 171/52/2
f 59/53/1 57/54/1 58/55/1
f 60/18/1 57/54/1 59/53/1
f 59/53/1 61/56/1 60/18/1
f 61/56/1 62/17/1 60/18/1
f 62/17/1 61/56/1 63/20/1
f 66/55/1 64/53/1 65/54/1
f 64/53/1 67/18/1 65/54/1
f 64/53/1 68/56/1 67/18/1
f 68/56/1 69/17/1 67/18/1
f 70/20/1 69/17/1 68/56/1
f 122/57/1 120/58/1 121/59/1 119/60/1
f 151/60/1 149/57/1 150/58/1 148/59/1
f 132/34/2 134/33/2 133/61/2 131/43/2
f 153/63/1 149/57/1 151/60/1 152/64/1
f 74/18/1 72/54/1 73/55/1 71/19/1
f 181/67/3 183/51/3 182/52/3 179/7/3
f 4/68/1 2/69/1 3/70/1 1/71/1
f 171/52/2 170/51/2 167/67/2 169/7/2
f 92/18/3 90/19/3 91/20/3 89/17/3
f 177/81/3 181/67/3 179/7/3 180/73/3
f 30/42/2 32/39/2 31/40/2 29/41/2
f 160/51/3 163/26/3 161/50/3 162/52/3
f 81/84/2 82/85/2 80/45/2 78/86/2
f 146/54/3 147/55/3 143/19/3 145/18/3
f 99/84/3 100/85/3 98/45/3 96/86/3
f 174/25/3 45/28/3 172/90/3 173/91/3
f 176/94/3 174/25/3 173/91/3 175/95/3
f 78/86/2 80/45/2 79/44/2 77/96/2
f 56/41/3 53/40/3 54/39/3 55/42/3
f 7/100/1 8/101/1 5/102/1 6/103/1
f 40/109/3 38/110/3 39/111/3 37/112/3
f 169/7/2 167/67/2 165/81/2 168/73/2
f 162/50/3 182/52/3 183/51/3 160/26/3
f 118/55/2 114/19/2 116/18/2 117/54/2
f 107/17/2 110/18/2 108/19/2 109/20/2
f 187/25/2 140/26/2 137/50/2 184/94/2
f 24/28/2 187/25/2 185/91/2 188/90/2
f 12/115/2 9/116/2 10/117/2 11/118/2
f 141/120/2 138/51/2 140/26/2 23/27/2
f 154/45/1 159/85/1 158/31/1 157/34/1
f 52/48/1 50/47/1 51/46/1 49/49/1
f 167/67/2 29/2/2 166/123/2 165/81/2
f 124/64/1 123/63/1 122/57/1 119/60/1
f 44/41/1 42/40/1 43/39/1 41/42/1
f 170/51/2 30/120/2 29/2/2 167/67/2
f 86/18/1 84/54/1 85/55/1 83/19/1
f 185/91/2 187/25/2 184/94/2 186/95/2
f 130/85/1 129/31/1 128/34/1 125/45/1
f 176/94/3 161/50/3 163/26/3 174/25/3
f 164/27/3 160/26/3 183/51/3 55/120/3
f 140/26/2 138/51/2 139/52/2 137/50/2
f 187/25/2 24/28/2 23/27/2 140/26/2
f 55/120/3 183/51/3 181/67/3 56/2/3
f 16/156/2 14/157/2 15/158/2 13/159/2
f 104/34/3 102/33/3 103/61/3 101/43/3
f 142/17/3 145/18/3 143/19/3 144/20/3
f 111/54/2 112/55/2 108/19/2 110/18/2
f 88/17/1 86/18/1 83/19/1 87/20/1
f 96/86/3 98/45/3 97/44/3 95/96/3
f 181/67/3 177/81/3 178/123/3 56/2/3
f 46/48/3 48/47/3 47/46/3 45/49/3
f 128/34/1 126/43/1 127/44/1 125/45/1
f 116/18/2 114/19/2 115/20/2 113/17/2
f 138/26/2 141/27/2 30/120/2 170/51/2
f 164/120/3 46/27/3 163/26/3 160/51/3
f 24/49/2 21/46/2 22/47/2 23/48/2
f 36/171/3 34/172/3 35/173/3 33/174/3
f 106/31/3 105/32/3 102/33/3 104/34/3
f 92/18/3 94/54/3 93/55/3 90/19/3
usemtl MI_Building_Roof_001_New
f 248/1/4 245/2/4 246/3/4 247/4/4
f 216/13/4 214/14/4 215/15/4 213/16/4
f 226/29/5 225/30/5 210/15/5 212/14/5
f 195/62/4 215/15/4 228/30/4 261/23/4
f 196/36/4 195/62/4 261/23/4 262/22/4
f 196/36/4 193/35/4 194/72/4 195/62/4
f 240/87/5 231/88/5 232/77/5 239/89/5
f 208/9/1 205/10/1 206/11/1 207/12/1
f 220/12/1 218/11/1 219/104/1 217/105/1
f 202/36/5 204/62/5 263/23/5 264/22/5
f 200/113/1 197/114/1 198/105/1 199/104/1
f 204/62/5 210/15/5 225/30/5 263/23/5
f 191/124/1 189/125/1 190/126/1
f 192/127/1 191/124/1 190/126/1
f 212/14/5 210/15/5 211/16/5 209/13/5
f 234/28/4 236/131/4 235/132/4 233/133/4
f 236/131/4 238/134/4 237/107/4 235/132/4
f 244/135/5 241/136/5 242/79/5 243/78/5
f 230/80/5 232/77/5 231/88/5 229/137/5
f 255/124/1 253/138/1 254/139/1
f 253/138/1 255/124/1 256/127/1
f 192/140/1 190/141/1 257/142/1
f 258/143/1 192/140/1 257/142/1
f 259/144/1 258/143/1 257/142/1
f 260/145/1 258/143/1 259/144/1
f 267/146/1 265/147/1 266/148/1
f 268/149/1 266/148/1 265/147/1
f 268/149/1 191/150/1 266/148/1
f 189/151/1 191/150/1 268/149/1
f 271/146/1 269/152/1 270/147/1
f 272/153/1 270/147/1 269/152/1
f 272/153/1 269/152/1 255/150/1
f 254/154/1 272/153/1 255/150/1
f 256/140/1 273/142/1 253/155/1
f 273/142/1 256/140/1 274/143/1
f 275/144/1 273/142/1 274/143/1
f 275/144/1 274/143/1 276/145/1
f 228/30/4 215/15/4 214/14/4 227/29/4
f 252/97/5 251/164/5 244/135/5 243/78/5
f 224/9/1 222/166/1 223/167/1 221/10/1
f 250/8/4 248/1/4 247/4/4 249/5/4
f 204/62/5 202/36/5 203/35/5 201/72/5
usemtl MI_Building_Roof_002
f 249/5/4 326/6/4 325/7/4 250/8/4
f 303/21/4 262/22/4 261/23/4 302/24/4
f 193/35/4 196/36/4 286/37/4 285/38/4
f 282/65/5 212/14/5 209/13/5 281/66/5
f 250/8/4 325/7/4 324/73/4 323/74/4
f 228/30/4 227/29/4 308/75/4 301/76/4
f 296/77/5 243/78/5 242/79/5 295/80/5
f 308/75/4 227/29/4 306/82/4 307/83/4
f 305/92/4 262/22/4 303/21/4 304/93/4
f 334/97/5 333/98/5 332/99/5 239/89/5
f 321/106/4 237/107/4 320/108/4 322/50/4
f 226/29/5 212/14/5 282/65/5 314/82/5
f 250/8/4 323/74/4 298/119/4 248/1/4
f 247/4/4 294/121/4 327/122/4 249/5/4
f 331/128/5 329/129/5 240/87/5 330/130/5
f 326/6/4 249/5/4 327/122/4 328/52/4
f 320/108/4 237/107/4 238/134/4 319/94/4
f 232/77/5 291/78/5 334/97/5 239/89/5
f 287/37/5 202/36/5 264/22/5 312/92/5
f 227/29/4 214/14/4 280/65/4 306/82/4
f 214/14/4 216/13/4 279/66/4 280/65/4
f 302/24/4 261/23/4 228/30/4 301/76/4
f 284/160/5 283/161/5 229/137/5 231/88/5
f 247/4/4 246/3/4 293/120/4 294/121/4
f 298/119/4 297/123/4 245/2/4 248/1/4
f 292/79/5 291/78/5 232/77/5 230/80/5
f 244/135/5 299/162/5 300/163/5 241/136/5
f 310/24/5 263/23/5 225/30/5 309/76/5
f 196/36/4 262/22/4 305/92/4 286/37/4
f 251/164/5 335/165/5 299/162/5 244/135/5
f 311/21/5 264/22/5 263/23/5 310/24/5
f 243/78/5 296/77/5 340/89/5 252/97/5
f 316/75/5 226/29/5 314/82/5 315/83/5
f 202/36/5 287/37/5 288/38/5 203/35/5
f 319/94/4 238/134/4 317/168/4 318/95/4
f 225/30/5 226/29/5 316/75/5 309/76/5
f 235/132/4 237/107/4 321/106/4 278/169/4
f 240/87/5 329/129/5 284/160/5 231/88/5
f 238/134/4 236/131/4 290/170/4 317/168/4
f 289/90/4 290/170/4 236/131/4 234/28/4
f 233/133/4 235/132/4 278/169/4 277/27/4
f 340/89/5 339/99/5 338/98/5 252/97/5
f 332/99/5 330/130/5 240/87/5 239/89/5
f 335/165/5 251/164/5 336/175/5 337/176/5
f 313/93/5 312/92/5 264/22/5 311/21/5
f 252/97/5 338/98/5 336/175/5 251/164/5
usemtl MI_Building_Roof_002_New
f 224/9/1 221/10/1 341/11/1 342/12/1
f 208/9/1 343/166/1 344/167/1 205/10/1
f 255/124/1 345/177/1 256/127/1
f 346/178/1 256/127/1 345/177/1
f 189/125/1 27/42/1 17/49/1
f 190/126/1 189/125/1 17/49/1
f 347/177/1 191/124/1 192/127/1
f 348/178/1 347/177/1 192/127/1
f 52/42/1 254/139/1 41/49/1
f 253/138/1 41/49/1 254/139/1
f 346/179/1 274/143/1 256/140/1
f 274/143/1 346/179/1 349/180/1
f 276/145/1 274/143/1 349/180/1
f 276/145/1 349/180/1 350/181/1
f 271/146/1 351/182/1 269/152/1
f 269/152/1 351/182/1 345/183/1
f 255/150/1 269/152/1 345/183/1
f 265/147/1 352/184/1 268/149/1
f 25/185/1 268/149/1 352/184/1
f 25/185/1 189/151/1 268/149/1
f 27/186/1 189/151/1 25/185/1
f 17/187/1 19/188/1 190/141/1
f 257/142/1 190/141/1 19/188/1
f 19/188/1 353/189/1 257/142/1
f 259/144/1 257/142/1 353/189/1
f 355/181/1 354/180/1 260/145/1
f 260/145/1 354/180/1 258/143/1
f 354/180/1 348/179/1 258/143/1
f 348/179/1 192/140/1 258/143/1
f 191/150/1 347/183/1 266/148/1
f 266/148/1 347/183/1 356/182/1
f 267/146/1 266/148/1 356/182/1
f 275/144/1 357/189/1 273/142/1
f 44/188/1 273/142/1 357/189/1
f 273/142/1 44/188/1 253/155/1
f 41/187/1 253/155/1 44/188/1
f 52/186/1 49/185/1 254/154/1
f 49/185/1 272/153/1 254/154/1
f 49/185/1 358/184/1 272/153/1
f 270/147/1 272/153/1 358/184/1
