# Blender 5.0.1
# www.blender.org
mtllib BP_WT3_Fade.mtl
o SM_CrossLeaf_Jungle.001
v 48.732700 52.483799 990.174316
v -50.000000 87.500000 932.263000
v -50.000000 31.250000 932.263000
v 12.499901 -50.000000 932.263000
v 48.732700 52.483799 990.174316
v 68.750000 150.000000 932.263000
v 31.250000 150.000000 932.263000
v -50.000000 87.500000 932.263000
v 48.732700 52.483799 990.174316
v 12.499901 -50.000000 932.263000
v 75.000000 -50.000000 932.263000
v 150.000000 31.250000 932.263123
v 48.732700 52.483799 990.174316
v 150.000000 31.250000 932.263123
v 150.000000 68.750000 932.263123
v 68.750000 150.000000 932.263000
v -21.168404 121.949501 912.500000
v -21.168404 121.949501 968.750000
v 23.025801 77.755302 1050.000000
v 67.220001 33.561199 1050.000000
v 120.252998 -19.471802 968.750000
v 62.800499 37.980598 850.000000
v 36.284000 64.497101 850.000000
v 120.252998 -19.471802 931.250000
v -21.168404 -17.262100 912.500000
v -21.168404 -17.262100 968.750000
v 23.025801 26.931999 1050.000000
v 67.220001 71.126198 1050.000000
v 120.252899 124.159203 968.750000
v 62.800598 66.706802 850.000000
v 36.284100 40.190300 850.000000
v 120.252899 124.159203 931.250000
vn -0.4594 -0.2145 0.8619
vn -0.5059 -0.0000 0.8626
vn -0.4753 -0.1530 0.8664
vn -0.4249 -0.3268 0.8442
vn -0.2490 0.4611 0.8517
vn -0.0000 0.5106 0.8598
vn -0.1533 0.4841 0.8615
vn -0.3353 0.4359 0.8352
vn 0.2662 -0.4216 0.8668
vn -0.0000 -0.4920 0.8706
vn 0.1817 -0.4481 0.8753
vn 0.4013 -0.3705 0.8377
vn 0.4329 0.3138 0.8451
vn 0.4964 -0.0000 0.8681
vn 0.4678 0.1733 0.8667
vn 0.4043 0.4043 0.8205
vn 0.7071 0.7071 -0.0000
vn -0.7071 0.7071 -0.0000
vt 1.029297 0.608643
vt 0.505859 0.487793
vt 1.019531 0.305664
vt 0.692871 1.018692
vt 0.608887 -0.027344
vt 0.401123 -0.021484
vt 0.357666 1.026794
vt -0.020187 0.596924
vt -0.025696 0.388184
vt 0.687500 0.999969
vt 1.000000 0.312500
vt 1.000000 0.593750
vt -0.000031 0.593994
vt 0.375000 0.999969
vt 0.406006 0.000000
vt 0.593262 0.000000
vt 0.000031 0.406738
s 1
usemtl MI_jungletree_leaves_Outer
f 3/1/3 1/2/1 2/3/2
f 1/2/1 3/1/3 4/4/4
f 7/5/7 5/2/5 6/6/6
f 5/2/5 7/5/7 8/3/8
f 11/7/11 9/2/9 10/4/10
f 9/2/9 11/7/11 12/8/12
f 15/9/15 13/2/13 14/8/14
f 13/2/13 15/9/15 16/6/16
f 19/10/17 17/11/17 18/12/17
f 21/13/17 19/10/17 20/14/17
f 21/13/17 17/11/17 19/10/17
f 22/15/17 17/11/17 21/13/17
f 22/15/17 23/16/17 17/11/17
f 22/15/17 21/13/17 24/17/17
f 27/10/18 25/11/18 26/12/18
f 29/13/18 27/10/18 28/14/18
f 29/13/18 25/11/18 27/10/18
f 30/15/18 25/11/18 29/13/18
f 30/15/18 31/16/18 25/11/18
f 30/15/18 29/13/18 32/17/18
