# Blender 5.0.1
# www.blender.org
mtllib BP_WP_01_L_Fade.mtl
o SM_Wind_Pipe_01_L.001
v -50.000027 49.999977 200.000015
v -149.999985 49.999916 100.000000
v -50.000027 49.999977 100.000000
v -149.999985 49.999916 200.000031
v 50.000038 -49.999985 100.000000
v -149.999893 -50.000092 100.000008
v 50.000038 -49.999985 200.000000
v -149.999893 -50.000092 200.000031
v -50.000027 49.999977 200.000015
v -50.000095 150.000015 100.000000
v -50.000095 150.000015 200.000031
v -50.000027 49.999977 100.000000
v 50.000038 -49.999985 200.000000
v 49.999920 150.000107 200.000031
v 49.999920 150.000107 100.000008
v 50.000038 -49.999985 100.000000
v 50.000038 -49.999985 250.000000
v -99.999954 -100.000046 250.000000
v 100.000061 -99.999954 250.000000
v -99.999977 -50.000069 250.000000
v -99.999954 -100.000046 250.000000
v -149.999954 -100.000069 250.000000
v -99.999954 -100.000046 200.000031
v -149.999954 -100.000069 200.000031
v -99.999954 -100.000046 100.000015
v -149.999954 -100.000069 100.000015
v -99.999954 -100.000046 50.000000
v -149.999954 -100.000069 50.000000
v -150.000046 99.999931 250.000000
v -100.000053 99.999954 250.000000
v -150.000046 99.999931 200.000031
v -100.000053 99.999954 200.000031
v -150.000046 99.999931 100.000000
v -100.000053 99.999954 100.000000
v -150.000046 99.999931 50.000000
v -100.000053 99.999954 50.000000
v 99.999924 150.000183 250.000000
v 99.999947 100.000061 250.000000
v 99.999947 100.000061 200.000031
v 99.999924 150.000183 200.000031
v 99.999947 100.000061 100.000015
v 99.999924 150.000183 100.000015
v 99.999947 100.000061 50.000000
v 99.999924 150.000183 50.000000
v -100.000053 99.999954 250.000000
v -100.000092 150.000076 250.000000
v -100.000092 150.000076 200.000031
v -100.000053 99.999954 200.000031
v -100.000092 150.000076 100.000000
v -100.000053 99.999954 100.000000
v -100.000092 150.000076 50.000000
v -100.000053 99.999954 50.000000
v -50.000027 49.999977 250.000000
v -100.000023 49.999939 250.000000
v -100.000053 99.999954 250.000000
v 100.000046 -99.999954 100.000000
v 100.000046 -99.999954 50.000000
v 100.000046 -99.999954 200.000000
v 100.000061 -99.999954 250.000000
v 100.000046 -99.999954 100.000000
v 100.000046 -99.999954 50.000000
v 100.000046 -99.999954 200.000000
v 100.000061 -99.999954 250.000000
v 99.999947 100.000061 250.000000
v 49.999943 100.000031 250.000000
v -50.000072 99.999985 250.000000
v -150.000046 99.999931 250.000000
v -150.000046 49.999916 250.000000
v -149.999954 -50.000092 250.000000
v -149.999954 -100.000069 250.000000
v -50.000027 49.999977 200.000015
v -149.999893 -50.000092 200.000031
v -149.999985 49.999916 200.000031
v 50.000038 -49.999985 200.000000
v 49.999920 150.000107 200.000031
v -50.000095 150.000015 200.000031
v -50.000027 49.999977 100.000000
v -149.999985 49.999916 100.000000
v -149.999893 -50.000092 100.000008
v 50.000038 -49.999985 100.000000
v 49.999920 150.000107 100.000008
v -50.000095 150.000015 100.000000
v 99.999924 150.000183 250.000000
v 49.999912 150.000168 250.000000
v -50.000095 150.000076 250.000000
v -100.000092 150.000076 250.000000
v -150.000046 99.999931 200.000031
v -150.000046 49.999916 250.000000
v -150.000046 99.999931 250.000000
v -150.000046 49.999916 200.000031
v -149.999954 -50.000092 250.000000
v -150.000046 99.999931 100.000000
v -149.999954 -50.000092 200.000031
v -149.999954 -100.000069 250.000000
v -149.999954 -100.000069 200.000031
v -150.000046 49.999916 100.000000
v -149.999954 -50.000092 100.000015
v -149.999954 -100.000069 100.000015
v -149.999954 -100.000069 50.000000
v -149.999954 -50.000092 50.000000
v -150.000046 49.999916 50.000000
v -150.000046 99.999931 50.000000
v -50.000107 150.000076 250.000000
v -100.000092 150.000092 200.000031
v -100.000092 150.000092 250.000000
v -50.000107 150.000076 200.000031
v 49.999908 150.000198 250.000000
v -100.000092 150.000092 100.000000
v 49.999908 150.000198 200.000031
v 99.999931 150.000198 250.000000
v -50.000107 150.000076 100.000000
v 99.999931 150.000198 200.000031
v 49.999908 150.000198 100.000015
v 99.999931 150.000198 100.000015
v 99.999931 150.000198 50.000000
v 49.999908 150.000198 50.000000
v -50.000107 150.000076 50.000000
v -100.000092 150.000092 50.000000
v 99.999947 100.000061 50.000000
v 100.000046 -99.999954 50.000000
v 50.000031 -49.999977 50.000000
v 49.999943 100.000031 50.000000
v 99.999924 150.000183 50.000000
v 49.999912 150.000168 50.000000
v -50.000027 49.999977 50.000000
v -50.000095 150.000076 50.000000
v -50.000072 99.999985 50.000000
v -100.000053 99.999954 50.000000
v -100.000092 150.000076 50.000000
v -99.999954 -100.000046 50.000000
v -99.999977 -50.000069 50.000000
v -149.999954 -50.000092 50.000000
v -149.999954 -100.000069 50.000000
v -100.000023 49.999939 50.000000
v -150.000046 49.999916 50.000000
v -150.000046 99.999931 50.000000
vn -0.0000 -1.0000 -0.0000
vn -0.0000 1.0000 -0.0000
vn 1.0000 -0.0000 -0.0000
vn -1.0000 -0.0000 -0.0000
vn -0.0000 -0.0000 1.0000
vn -0.0000 -0.0000 -1.0000
vt 0.375000 0.187500
vt 0.500000 0.187500
vt 0.500000 0.312500
vt 0.375000 0.312500
vt 0.312500 0.937500
vt 0.312500 0.999969
vt 0.375000 0.999969
vt 0.375000 0.937500
vt 0.187500 0.437500
vt 0.312500 0.437500
vt 0.312500 0.500000
vt 0.187500 0.500000
vt 0.187378 0.875000
vt 0.124939 0.875000
vt 0.124939 0.687500
vt 0.124939 0.750000
vt 0.375000 0.688477
vt 0.312500 0.750854
vt 0.125000 0.688477
vt 0.125000 0.750854
vt 0.312500 0.625000
vt 0.312500 0.687500
vt 0.187500 0.687500
vt 0.187500 0.625000
vt 0.125000 0.687500
vt 0.125000 0.625000
vt 0.375000 0.625000
vt 0.375000 0.687500
vt 0.187500 0.999969
vt 0.187500 0.937500
vt 0.375000 0.375000
vt 0.375000 0.437500
vt 0.125000 0.437500
vt 0.125000 0.375000
vt 0.125000 0.999969
vt 0.125000 0.937500
vt 0.375000 0.500000
vt 0.187378 0.750000
vt 0.312256 0.875000
vt 0.125000 0.250000
vt 0.125000 0.187500
vt 0.375000 0.250000
vt 0.500000 0.437500
vt 0.312500 0.875000
vt 0.374756 0.687500
vt 0.312256 0.750000
vt 0.625000 0.437500
vt 0.625000 0.312500
vt 0.625000 0.187500
vt 0.125000 0.500000
vt 0.312500 0.750000
vt 0.187500 0.875000
vt 0.187500 0.750000
vt 0.124939 0.937500
s 1
usemtl MI_Wind_Pipe_No_e
f 12/1/3 10/2/3 11/3/3 9/4/3
f 122/5/6 124/6/6 123/7/6 119/8/6
f 101/9/4 100/10/4 97/11/4 96/12/4
f 53/13/5 66/14/5 55/15/5 54/16/5
f 19/17/5 17/18/5 18/19/5
f 20/20/5 18/19/5 17/18/5
f 48/5/4 45/8/4 46/7/4 47/6/4
f 44/7/3 42/6/3 41/5/3 43/8/3
f 93/21/4 91/22/4 88/23/4 90/24/4
f 90/24/4 88/23/4 89/25/4 87/26/4
f 109/24/2 106/21/2 103/22/2 107/23/2
f 106/21/2 104/27/2 105/28/2 103/22/2
f 24/6/1 26/29/1 25/30/1 23/5/1
f 25/31/1 27/32/1 57/33/1 56/34/1
f 42/6/3 40/29/3 39/30/3 41/5/3
f 4/4/1 2/1/1 3/2/1 1/3/1
f 28/35/1 27/36/1 25/30/1 26/29/1
f 100/10/4 99/32/4 98/37/4 97/11/4
f 53/38/5 20/14/5 17/39/5
f 53/38/5 54/16/5 20/14/5
f 58/40/1 59/41/1 21/1/1 23/42/1
f 22/7/1 24/6/1 23/5/1 21/8/1
f 20/5/5 54/30/5 68/29/5 69/6/5
f 39/31/3 62/34/3 60/40/3 41/42/3
f 6/1/2 8/2/2 7/43/2 5/32/2
f 134/5/6 128/36/6 127/30/6 125/44/6
f 131/30/6 130/36/6 133/35/6 132/29/6
f 19/45/5 64/15/5 17/46/5
f 65/16/5 17/46/5 64/15/5
f 53/13/5 17/46/5 65/16/5
f 66/14/5 53/13/5 65/16/5
f 129/35/6 126/29/6 127/30/6 128/36/6
f 135/6/6 136/7/6 128/8/6 134/5/6
f 23/42/1 25/31/1 56/34/1 58/40/1
f 73/2/6 71/3/6 72/1/6
f 71/3/6 74/32/6 72/1/6
f 71/3/6 75/47/6 74/32/6
f 76/48/6 75/47/6 71/3/6
f 79/49/5 77/3/5 78/2/5
f 77/3/5 79/49/5 80/47/5
f 77/3/5 80/47/5 81/32/5
f 82/4/5 77/3/5 81/32/5
f 16/49/4 13/48/4 14/4/4 15/1/4
f 38/32/3 63/33/3 62/34/3 39/31/3
f 127/30/6 126/29/6 124/6/6 122/5/6
f 40/29/3 37/35/3 38/36/3 39/30/3
f 52/36/4 50/30/4 49/29/4 51/35/4
f 50/30/4 48/5/4 47/6/4 49/29/4
f 114/50/2 113/12/2 109/24/2 112/26/2
f 95/27/4 94/28/4 91/22/4 93/21/4
f 36/8/2 35/7/2 33/6/2 34/5/2
f 117/10/2 111/11/2 113/12/2 116/9/2
f 96/12/4 90/24/4 87/26/4 92/50/4
f 98/37/4 95/27/4 93/21/4 97/11/4
f 112/26/2 109/24/2 107/23/2 110/25/2
f 32/30/2 34/5/2 33/6/2 31/29/2
f 30/36/2 32/30/2 31/29/2 29/35/2
f 111/11/2 108/37/2 104/27/2 106/21/2
f 102/33/4 101/9/4 96/12/4 92/50/4
f 41/42/3 60/40/3 61/41/3 43/1/3
f 116/9/2 113/12/2 114/50/2 115/33/2
f 121/51/6 119/8/6 120/28/6
f 119/8/6 121/51/6 122/5/6
f 84/29/5 65/30/5 64/36/5 83/35/5
f 122/5/6 121/51/6 125/52/6
f 132/29/6 135/6/6 134/5/6 131/30/6
f 122/5/6 125/52/6 127/30/6
f 85/6/5 66/5/5 65/30/5 84/29/5
f 86/7/5 55/8/5 66/5/5 85/6/5
f 121/53/6 120/25/6 130/36/6
f 130/36/6 131/30/6 121/53/6
f 125/44/6 121/53/6 131/30/6
f 70/7/5 18/8/5 20/5/5 69/6/5
f 125/44/6 131/30/6 134/5/6
f 68/29/5 54/30/5 55/54/5 67/35/5
f 118/32/2 108/37/2 111/11/2 117/10/2
