# Blender 5.0.1
# www.blender.org
mtllib BP_WP_Building2.mtl
o SM_Building2_Roof.001
v -300.000000 -100.000000 400.000000
v -300.000000 300.000000 400.000000
v -300.000000 300.000000 300.000000
v -300.000000 -100.000000 300.000000
v -300.000000 -100.000000 500.000000
v -300.000000 300.000000 500.000000
v -200.000000 -100.000000 500.000000
v -200.000000 300.000000 500.000000
v -300.000000 300.000000 500.000000
v -300.000000 -100.000000 500.000000
v -300.000000 -400.000000 400.000000
v -300.000000 -400.000000 300.000000
v 400.000000 -100.000000 500.000000
v 400.000000 300.000000 400.000000
v 400.000000 300.000000 500.000000
v 400.000000 -100.000000 400.000000
v 400.000000 -100.000000 500.000000
v 400.000000 300.000000 500.000000
v 300.000000 300.000000 500.000000
v 300.000000 -100.000000 500.000000
v -300.000000 -400.000000 500.000000
v -200.000000 -400.000000 500.000000
v -300.000000 -400.000000 500.000000
v 400.000000 -400.000000 500.000000
v 400.000000 -400.000000 400.000000
v 400.000000 -400.000000 500.000000
v 300.000000 -400.000000 500.000000
v 300.000000 500.000000 400.000000
v -200.000000 500.000000 400.000000
v 300.000000 500.000000 500.000000
v -200.000000 500.000000 500.000000
v 300.000000 500.000000 500.000000
v -200.000000 500.000000 500.000000
v -200.000000 -600.000000 500.000000
v 300.000000 -600.000000 500.000000
v -200.000000 -600.000000 500.000000
v 300.000000 -600.000000 400.000000
v 300.000000 -600.000000 500.000000
v -200.000000 -600.000000 400.000000
vn -1.0000 -0.0000 -0.0000
vn -0.0000 -0.0000 1.0000
vn 1.0000 -0.0000 -0.0000
vn -0.0000 1.0000 -0.0000
vn -0.0000 -1.0000 -0.0000
vt 0.312500 0.812500
vt 0.312500 0.875000
vt 0.000031 0.875000
vt 0.000031 0.812500
vt 0.250000 0.562500
vt 0.070312 0.562500
vt 0.070312 0.500000
vt 0.250000 0.500000
vt 0.460938 0.562500
vt 0.460938 0.625000
vt 0.273438 0.625000
vt 0.273438 0.562500
vt 0.460938 0.687500
vt 0.273438 0.687500
vt 0.320312 0.500000
vt 0.320312 0.562500
vt 0.023438 0.687500
vt 0.023438 0.625000
vt 0.824219 0.628906
vt 0.824219 0.753906
vt 0.515625 0.753906
vt 0.515625 0.628906
vt 0.500000 0.562500
vt 0.500000 0.500000
vt 0.335938 0.218750
vt 0.335938 0.398438
vt 0.023438 0.398438
vt 0.023438 0.218750
vt 0.535156 0.812500
vt 0.722656 0.812500
vt 0.722656 0.875000
vt 0.535156 0.875000
vt 0.972656 0.812500
vt 0.972656 0.875000
vt 0.003906 0.359375
vt 0.003906 0.109375
vt 0.312500 0.109375
vt 0.312500 0.359375
vt 0.691406 0.753906
vt 0.691406 0.628906
vt 1.000000 0.628906
vt 1.000000 0.753906
vt 0.023438 0.562500
vt -0.000031 0.812500
vt 0.308594 0.812500
vt 0.308594 0.875000
vt -0.000031 0.875000
s 1
usemtl MI_Building_Roof_005
f 10/5/2 23/6/2 22/7/2 7/8/2
f 12/9/1 11/10/1 1/11/1 4/12/1
f 11/10/1 21/13/1 5/14/1 1/11/1
f 19/7/2 20/15/2 17/16/2 18/6/2
f 1/11/1 5/14/1 6/17/1 2/18/1
f 9/23/2 10/5/2 7/8/2 8/24/2
f 20/15/2 27/24/2 26/23/2 17/16/2
f 25/29/3 16/30/3 13/31/3 24/32/3
f 16/30/3 14/33/3 15/34/3 13/31/3
f 4/12/1 1/11/1 2/18/1 3/43/1
usemtl MI_Building_Roof_002
f 29/1/4 31/2/4 30/3/4 28/4/4
f 19/19/2 32/20/2 33/21/2 8/22/2
f 7/25/2 22/26/2 27/27/2 20/28/2
f 8/35/2 7/36/2 20/37/2 19/38/2
f 35/39/2 27/40/2 22/41/2 34/42/2
f 39/44/5 37/45/5 38/46/5 36/47/5
