# Blender 5.0.1
# www.blender.org
mtllib BP_Witchpole.mtl
o SM_Witchpole.001
v -10.881168 -13.296826 225.000000
v -10.881168 -13.296825 187.500000
v 1.618832 -13.296826 225.000000
v 1.618832 -13.296825 187.500000
v 18.750000 -25.000010 218.706055
v 6.250000 -25.000010 218.706055
v 6.250000 -25.000010 199.956055
v 18.750000 -25.000010 199.956055
v 18.750000 -25.000010 218.706055
v 18.750000 -12.500010 218.706055
v 6.250000 -25.000010 218.706055
v 6.250000 -12.500010 218.706055
v 18.750000 -12.500009 199.956055
v 6.250000 -12.500009 199.956055
v 6.250000 -12.500010 218.706055
v 18.750000 -12.500010 218.706055
v 18.750000 -25.000010 199.956055
v 6.250000 -25.000010 199.956055
v 6.250000 -12.500009 199.956055
v 18.750000 -12.500009 199.956055
v 18.750000 -25.000010 218.706055
v 18.750000 -25.000010 199.956055
v 18.750000 -12.500010 218.706055
v 18.750000 -12.500009 199.956055
v 6.250000 -25.000010 218.706055
v 6.250000 -12.500009 199.956055
v 6.250000 -25.000010 199.956055
v 6.250000 -12.500010 218.706055
v 25.000000 -37.500008 193.750000
v 25.000000 -37.500008 156.250000
v 25.000000 -12.500007 193.750000
v 25.000000 -12.500005 156.250000
v -12.500000 -37.500008 193.750000
v -12.500000 -12.500007 156.250000
v -12.500000 -37.500008 156.250000
v -12.500000 -12.500009 193.750000
v 25.000000 -37.500008 193.750000
v -12.499998 -12.500012 193.750000
v -12.500000 -37.500008 193.750000
v 25.000000 -12.500007 193.750000
v 25.000000 -12.500005 156.250000
v -12.499998 -12.500012 193.750000
v 25.000000 -12.500007 193.750000
v -12.500002 -12.500014 156.250000
v 25.000000 -37.500008 193.750000
v -12.499998 -37.500008 156.250000
v 25.000000 -37.500008 156.250000
v -12.500000 -37.500008 193.750000
v -12.500002 -12.500014 156.250000
v 25.000000 -37.500008 156.250000
v -12.499998 -37.500008 156.250000
v 25.000000 -12.500005 156.250000
v -6.249989 -25.000011 206.250000
v -18.749994 -25.000017 206.250000
v -18.749987 -25.000013 193.750000
v -6.249995 -25.000015 193.750000
v -6.249998 -12.500012 206.250000
v -18.749994 -25.000017 206.250000
v -6.249989 -25.000011 206.250000
v -18.749992 -12.500009 206.250000
v -6.249996 -12.500009 193.750000
v -18.750000 -12.500009 193.750000
v -18.749992 -12.500009 206.250000
v -6.249998 -12.500012 206.250000
v -18.749987 -25.000013 193.750000
v -6.249996 -12.500009 193.750000
v -6.249995 -25.000015 193.750000
v -18.750000 -12.500009 193.750000
v -6.249989 -25.000011 206.250000
v -6.249996 -12.500009 193.750000
v -6.249998 -12.500012 206.250000
v -6.249995 -25.000015 193.750000
v -18.749987 -25.000013 193.750000
v -18.749992 -12.500009 206.250000
v -18.750000 -12.500009 193.750000
v -18.749994 -25.000017 206.250000
v -17.139893 -13.103531 189.756516
v 4.639894 -13.103532 222.743484
v -7.434179 -13.103532 225.978729
v -5.065821 -13.103531 186.521271
v -6.857391 -13.103532 223.232758
v 14.922396 -13.103531 190.245789
v 5.216682 -13.103532 226.468002
v 2.848323 -13.103531 187.010544
v 6.250000 -25.000010 225.000000
v -6.250000 -25.000010 225.000000
v -6.250000 -25.000010 212.500000
v 6.250000 -25.000010 212.500000
v 6.250000 -25.000010 225.000000
v 6.250000 -12.500010 225.000000
v -6.250000 -25.000010 225.000000
v -6.250000 -12.500010 225.000000
v 6.250000 -12.500010 212.500000
v -6.250000 -12.500010 212.500000
v -6.250000 -12.500010 225.000000
v 6.250000 -12.500010 225.000000
v 6.250000 -25.000010 212.500000
v -6.250000 -25.000010 212.500000
v -6.250000 -12.500010 212.500000
v 6.250000 -12.500010 212.500000
v 6.250000 -25.000010 225.000000
v 6.250000 -25.000010 212.500000
v 6.250000 -12.500010 225.000000
v 6.250000 -12.500010 212.500000
v -6.250000 -25.000010 225.000000
v -6.250000 -12.500010 212.500000
v -6.250000 -25.000010 212.500000
v -6.250000 -12.500010 225.000000
v 12.500001 -12.500010 275.000000
v -12.500001 12.499986 275.000000
v -12.500001 -12.500010 275.000000
v 12.500001 12.499986 275.000000
v -12.500002 -12.499998 -0.000009
v 12.500002 12.499998 -0.000007
v 12.500002 -12.499998 -0.000001
v -12.500002 12.499998 0.000001
v -12.768499 -12.778353 256.250000
v 12.768498 -12.778353 256.250000
v -12.768500 -12.778353 268.750000
v 12.768500 -12.778353 268.750000
v -12.768500 12.778330 268.750000
v 12.768498 12.778330 256.250000
v -12.768499 12.778330 256.250000
v 12.768500 12.778330 268.750000
v 12.768498 -12.778353 256.250000
v 12.768498 12.778330 256.250000
v 12.768500 -12.778353 268.750000
v 12.768500 12.778330 268.750000
v -12.768500 12.778330 268.750000
v -12.768499 -12.778353 256.250000
v -12.768500 -12.778353 268.750000
v -12.768499 12.778330 256.250000
v -12.500002 12.499992 137.500000
v -12.500001 12.499986 275.000000
v 12.500002 12.499992 137.500000
v 12.500001 12.499986 275.000000
v -12.500002 12.499998 0.000001
v 12.500002 12.499998 -0.000007
v -12.500001 -12.500010 275.000000
v -12.500002 -12.500004 137.500000
v 12.500001 -12.500010 275.000000
v 12.500002 -12.500004 137.500000
v 12.500002 -12.499998 -0.000001
v -12.500002 -12.499998 -0.000009
v 12.500002 12.499992 137.500000
v 12.500001 12.499986 275.000000
v 12.500002 -12.500004 137.500000
v 12.500001 -12.500010 275.000000
v 12.500002 12.499998 -0.000007
v 12.500002 -12.499998 -0.000001
v -12.500001 -12.500010 275.000000
v -12.500002 12.499992 137.500000
v -12.500002 -12.500004 137.500000
v -12.500001 12.499986 275.000000
v -12.500002 12.499998 0.000001
v -12.500002 -12.499998 -0.000009
vn -0.0000 -1.0000 -0.0000
vn -0.0000 -0.0000 1.0000
vn -0.0000 1.0000 -0.0000
vn -0.0000 -0.0000 -1.0000
vn 1.0000 -0.0000 -0.0000
vn -1.0000 -0.0000 -0.0000
vt 0.562500 0.468750
vt 0.562500 0.531250
vt 0.500000 0.531250
vt 0.500000 0.468750
vt 0.562500 0.718750
vt 0.625000 0.718750
vt 0.625000 0.812500
vt 0.562500 0.812500
vt 0.437500 0.531250
vt 0.437500 0.468750
vt 0.437500 0.999969
vt 0.312500 0.999969
vt 0.312500 0.937500
vt 0.437500 0.937500
vt 0.312500 0.687500
vt 0.125000 0.687500
vt 0.125000 0.562500
vt 0.312500 0.562500
vt 0.625000 0.531250
vt 0.625000 0.468750
vt 0.687500 0.468750
vt 0.687500 0.531250
vt 0.438477 1.000327
vt 0.248901 1.000327
vt 0.248901 0.937195
vt 0.438477 0.937195
vt 0.500000 0.875000
vt 0.500000 0.812500
vt 0.562500 0.875000
vt 0.500000 0.718750
vt 0.125000 0.812500
vt 0.312500 0.812500
vt 0.562500 0.937500
vt 0.562500 0.999969
vt 0.312500 0.375000
vt 0.437500 0.375000
vt 0.437500 0.562500
vt 0.187500 0.999969
vt 0.187500 0.937500
vt 0.437500 0.656250
vt 0.437500 0.593750
vt 0.500000 0.593750
vt 0.500000 0.656250
vt 0.625000 0.593750
vt 0.562500 0.593750
vt 0.687500 0.593750
vt 0.687500 0.656250
vt 0.625000 0.656250
vt 0.562500 0.656250
vt 0.687500 0.937500
vt 0.687500 0.999969
vt 0.562500 0.406250
vt 0.500000 0.406250
vt 0.000031 0.562500
vt 0.000031 0.375000
vt 0.125000 0.375000
vt 0.437500 0.812500
vt 0.437500 0.718750
vt 0.687500 0.875000
vt 0.812500 0.875000
vt 0.812500 0.999969
vt 0.687500 0.000000
vt 0.687500 0.125000
vt 0.000031 0.125000
vt 0.000031 0.000000
vt 0.812500 0.187500
vt 0.687500 0.187500
vt 0.687500 0.718750
vt 0.687500 0.812500
vt 0.937500 0.875000
vt 0.937500 0.999969
vt 0.312500 0.250000
vt 0.125000 0.250000
vt 0.687500 0.250000
vt 0.000031 0.250000
vt 0.937500 0.187500
s 1
usemtl MI_Witchpole
f 88/1/1 85/2/1 86/3/1 87/4/1
f 22/5/5 24/6/5 23/7/5 21/8/5
f 108/9/6 106/10/6 107/4/6 105/3/6
f 128/11/5 127/12/5 125/13/5 126/14/5
f 40/15/2 38/16/2 39/17/2 37/18/2
f 96/19/3 93/20/3 94/21/3 95/22/3
f 4/23/1 3/24/1 1/25/1 2/26/1
f 12/27/2 11/28/2 9/8/2 10/29/2
f 8/5/1 5/8/1 6/28/1 7/30/1
f 44/31/3 42/16/3 43/15/3 41/32/3
f 124/11/3 122/14/3 123/33/3 121/34/3
f 30/35/5 32/36/5 31/37/5 29/18/5
f 118/13/1 120/12/1 119/38/1 117/39/1
f 64/40/3 61/41/3 62/42/3 63/43/3
f 68/2/4 66/19/4 67/44/4 65/45/4
f 72/44/5 70/46/5 71/47/5 69/48/5
f 76/49/6 74/43/6 75/42/6 73/45/6
f 56/44/1 53/48/1 54/49/1 55/45/1
f 84/26/1 82/23/1 83/24/1 81/25/1
f 60/5/2 58/49/2 59/48/2 57/6/2
f 132/33/6 130/50/6 131/51/6 129/34/6
f 100/52/4 97/1/4 98/4/4 99/53/4
f 102/1/5 104/20/5 103/19/5 101/2/5
f 36/54/6 34/55/6 35/56/6 33/17/6
f 20/49/4 17/5/4 18/30/4 19/43/4
f 92/42/2 91/3/2 89/2/2 90/45/2
f 28/57/6 26/58/6 27/30/6 25/28/6
f 80/23/1 78/24/1 79/25/1 77/26/1
f 116/51/4 114/59/4 115/60/4 113/61/4
f 144/62/1 143/63/1 142/64/1 140/65/1
f 142/66/1 141/60/1 139/59/1 140/67/1
f 16/7/3 13/6/3 14/68/3 15/69/3
f 112/70/2 110/71/2 111/61/2 109/60/2
f 52/72/4 50/35/4 51/56/4 49/73/4
f 48/17/1 46/56/1 47/35/1 45/18/1
f 152/64/6 155/63/6 156/74/6 153/75/6
f 136/59/3 135/67/3 133/66/3 134/60/3
f 133/64/3 135/65/3 138/62/3 137/63/3
f 146/70/5 148/60/5 147/66/5 145/76/5
f 145/75/5 147/64/5 150/63/5 149/74/5
f 154/60/6 152/66/6 153/76/6 151/70/6
