# Blender 5.0.1
# www.blender.org
mtllib BP_WaterWheelObjective_Rotated.mtl
o SK_Lever.001
v 57.712280 6.250021 154.017410
v 97.886505 6.249972 201.895172
v 107.462059 6.249963 193.860321
v 67.287834 6.250012 145.982559
v 97.886505 6.249972 201.895172
v 57.712280 6.250021 154.017410
v 57.712265 -6.249979 154.017410
v 97.886490 -6.250028 201.895172
v 67.287819 -6.249988 145.982559
v 97.886490 -6.250028 201.895172
v 57.712265 -6.249979 154.017410
v 107.462051 -6.250037 193.860321
v 67.287834 6.250012 145.982559
v 107.462059 6.249963 193.860321
v 107.462051 -6.250037 193.860321
v 67.287819 -6.249988 145.982559
v 57.712280 6.250021 154.017410
v 67.287834 6.250012 145.982559
v 57.712265 -6.249979 154.017410
v 67.287819 -6.249988 145.982559
v 97.886505 6.249972 201.895172
v 107.462051 -6.250037 193.860321
v 107.462059 6.249963 193.860321
v 97.886490 -6.250028 201.895172
v 68.750076 18.750006 174.999985
v 68.750069 18.750013 124.999985
v 50.000065 18.750032 124.999985
v 50.000072 18.750025 174.999985
v 68.750076 18.750006 174.999985
v 68.750031 -18.749994 174.999985
v 68.750069 18.750013 124.999985
v 68.750031 -18.749987 124.999985
v 50.000034 -18.749975 174.999985
v 50.000027 -18.749968 124.999985
v 68.750031 -18.749987 124.999985
v 68.750031 -18.749994 174.999985
v 50.000072 18.750025 174.999985
v 50.000065 18.750032 124.999985
v 50.000027 -18.749968 124.999985
v 50.000034 -18.749975 174.999985
v 68.750031 -18.749994 174.999985
v 68.750076 18.750006 174.999985
v 50.000072 18.750025 174.999985
v 50.000034 -18.749975 174.999985
v 68.750069 18.750013 124.999985
v 50.000027 -18.749968 124.999985
v 50.000065 18.750032 124.999985
v 68.750031 -18.749987 124.999985
vn -0.0000 1.0000 -0.0000
vn -0.7660 -0.0000 0.6428
vn -0.0000 -1.0000 -0.0000
vn 0.7660 -0.0000 -0.6428
vn -0.6428 -0.0000 -0.7660
vn 0.6428 -0.0000 0.7660
vn 1.0000 -0.0000 -0.0000
vn -1.0000 -0.0000 -0.0000
vn -0.0000 -0.0000 1.0000
vn -0.0000 -0.0000 -1.0000
vt 0.093750 0.718994
vt 0.093750 0.531494
vt 0.343506 0.531494
vt 0.343506 0.718994
vt 0.624512 0.625244
vt 0.687012 0.625244
vt 0.687012 0.937500
vt 0.624512 0.937500
vt 0.343506 0.812622
vt 0.343506 1.000031
vt 0.093750 0.999969
vt 0.093750 0.812622
vt 0.562012 0.937500
vt 0.562012 0.999969
vt 0.500000 0.999969
vt 0.500000 0.937500
vt 0.343506 0.437988
vt 0.093750 0.437988
vt 0.437256 0.531494
vt 0.437256 0.718994
vt 0.437500 0.937500
vt 0.437500 0.625244
vt 0.500000 0.625244
vt 0.093689 0.812622
vt 0.093689 0.718994
vt 0.500000 0.562744
vt 0.562012 0.562744
vt 0.562012 0.625244
vt 0.562500 0.937500
vt 0.000031 0.718994
vt 0.000031 0.531494
vt 0.093689 0.531494
s 1
usemtl MI_Lever
f 32/1/7 31/2/7 29/3/7 30/4/7
f 16/5/4 13/6/4 14/7/4 15/8/4
f 40/9/8 37/10/8 38/11/8 39/12/8
f 24/13/6 22/14/6 23/15/6 21/16/6
f 36/17/3 33/3/3 34/2/3 35/18/3
f 43/19/9 44/20/9 41/4/9 42/3/9
f 12/16/3 10/21/3 11/22/3 9/23/3
f 28/4/1 25/9/1 26/24/1 27/25/1
f 18/26/5 20/27/5 19/28/5 17/23/5
f 3/29/1 4/28/1 1/5/1 2/8/1
f 8/13/2 5/16/2 6/23/2 7/28/2
f 48/1/10 46/30/10 47/31/10 45/32/10
