# Blender 5.0.1
# www.blender.org
mtllib BP_Wind_Gate_GSalt_Gears.mtl
o SM_Extension.001
v -212.500366 49.999104 501.000061
v -212.500427 49.999073 1.000031
v -212.500244 -50.000942 501.000061
v -212.500305 -50.000950 1.000000
v -50.000336 49.999336 501.000061
v -212.500366 49.999104 501.000061
v -212.500244 -50.000942 501.000061
v -50.000153 -50.000710 501.000061
v -212.500244 -50.000942 501.000061
v -50.000153 -50.000717 1.000000
v -50.000153 -50.000710 501.000061
v -212.500305 -50.000950 1.000000
v -50.000153 -50.000710 501.000061
v -50.000336 49.999306 1.000031
v -50.000336 49.999336 501.000061
v -50.000153 -50.000717 1.000000
v -50.000336 49.999336 501.000061
v -50.000336 49.999306 1.000031
v -212.500366 49.999104 501.000061
v -212.500427 49.999073 1.000031
vn -1.0000 -0.0000 -0.0000
vn -0.0000 -0.0000 1.0000
vn -0.0000 -1.0000 -0.0000
vn 1.0000 -0.0000 -0.0000
vn -0.0000 1.0000 -0.0000
vt 0.328125 0.000000
vt 0.453125 0.000000
vt 0.453125 0.625000
vt 0.328125 0.625000
vt 0.125000 0.000000
vt 0.125000 0.625000
vt 0.000031 0.625000
vt 0.000031 0.000000
vt 0.125000 0.750000
vt 0.328125 0.750000
vt 0.656250 0.000000
vt 0.656250 0.625000
s 1
usemtl MI_Wind_Gate_GsAlt_Gears
f 16/1/4 14/2/4 15/3/4 13/4/4
f 4/5/1 3/6/1 1/7/1 2/8/1
f 8/9/2 5/6/2 6/4/2 7/10/2
f 12/5/3 10/1/3 11/4/3 9/6/3
f 20/11/5 19/12/5 17/3/5 18/2/5
