# Blender 5.0.1
# www.blender.org
mtllib BP_WindReactive_Pipe_Straight_Long.mtl
o SM_Wind_Pipe_Base.001
v -100.000000 -150.000000 -0.000010
v -150.000000 -150.000000 -0.000010
v -100.000000 -100.000000 -0.000007
v -150.000000 -100.000000 -0.000007
v 100.000000 -100.000000 -0.000007
v 100.000000 -150.000000 -0.000010
v 150.000000 -150.000000 -0.000010
v 150.000000 -100.000000 -0.000007
v -100.000000 100.000000 0.000007
v -150.000000 100.000000 0.000007
v 100.000000 100.000000 0.000007
v 150.000000 100.000000 0.000007
v -100.000000 150.000000 0.000010
v -150.000000 150.000000 0.000010
v 100.000000 150.000000 0.000010
v 150.000000 150.000000 0.000010
v -100.000000 -100.000000 49.999992
v -150.000000 -100.000000 49.999992
v -150.000000 -150.000000 49.999989
v -100.000000 -150.000000 49.999989
v 100.000000 -100.000000 49.999992
v 100.000000 -150.000000 49.999989
v 150.000000 -100.000000 49.999992
v 150.000000 -150.000000 49.999989
v -150.000000 100.000000 50.000008
v -100.000000 100.000000 50.000008
v 100.000000 100.000000 50.000008
v 150.000000 100.000000 50.000008
v -100.000000 150.000000 50.000011
v -150.000000 150.000000 50.000011
v 100.000000 150.000000 50.000011
v 150.000000 150.000000 50.000011
v -100.000023 -100.000000 250.000000
v 100.000023 99.999969 250.000000
v 99.999985 -100.000038 250.000000
v -99.999985 100.000008 250.000000
v -99.999977 99.999992 295.108337
v 99.999977 -100.000038 295.108337
v 100.000023 99.999962 295.108337
v -100.000023 -100.000008 295.108337
v -99.999977 99.999992 295.108337
v 100.000023 99.999962 295.108337
v 100.000023 99.999969 250.000000
v -99.999985 100.000008 250.000000
v -99.999977 99.999992 295.108337
v -100.000023 -100.000000 250.000000
v -100.000023 -100.000008 295.108337
v -99.999985 100.000008 250.000000
v 99.999977 -100.000038 295.108337
v -100.000023 -100.000008 295.108337
v -100.000023 -100.000000 250.000000
v 99.999985 -100.000038 250.000000
v 99.999977 -100.000038 295.108337
v 100.000023 99.999969 250.000000
v 100.000023 99.999962 295.108337
v 99.999985 -100.000038 250.000000
v -100.000000 -150.000000 49.999989
v -150.000000 -150.000000 49.999989
v -150.000000 -150.000000 -0.000010
v -100.000000 -150.000000 -0.000010
v 100.000000 -150.000000 49.999989
v 100.000000 -150.000000 -0.000010
v 150.000000 -150.000000 49.999989
v 150.000000 -150.000000 -0.000010
v 150.000000 -100.000000 49.999992
v 150.000000 -150.000000 49.999989
v 150.000000 -150.000000 -0.000010
v 150.000000 -100.000000 -0.000007
v 150.000000 100.000000 50.000008
v 150.000000 100.000000 0.000007
v 150.000000 150.000000 50.000011
v 150.000000 150.000000 0.000010
v 100.000000 150.000000 50.000011
v 150.000000 150.000000 50.000011
v 150.000000 150.000000 0.000010
v 100.000000 150.000000 0.000010
v -100.000000 150.000000 50.000011
v -100.000000 150.000000 0.000010
v -150.000000 150.000000 50.000011
v -150.000000 150.000000 0.000010
v -150.000000 100.000000 50.000008
v -150.000000 150.000000 50.000011
v -150.000000 150.000000 0.000010
v -150.000000 100.000000 0.000007
v -150.000000 -100.000000 49.999992
v -150.000000 -100.000000 -0.000007
v -150.000000 -150.000000 49.999989
v -150.000000 -150.000000 -0.000010
vn -0.0000 -0.0000 -1.0000
vn -0.0000 -0.0000 1.0000
vn -0.0000 1.0000 -0.0000
vn -1.0000 -0.0000 -0.0000
vn -0.0000 -1.0000 -0.0000
vn 1.0000 -0.0000 -0.0000
vt -0.000031 0.625000
vt 0.062500 0.625000
vt 0.062500 0.687500
vt -0.000031 0.687500
vt 0.000031 0.937500
vt 0.062500 0.937500
vt 0.000031 0.687500
vt 0.125000 0.999969
vt 0.062500 0.999969
vt 0.062500 0.750000
vt 0.125000 0.750000
vt 0.000031 0.562500
vt 0.000031 0.500000
vt 0.062500 0.500000
vt 0.062500 0.562500
vt 0.375000 0.187500
vt 0.375000 0.437500
vt 0.125000 0.437500
vt 0.125000 0.187500
vt -0.000031 0.562500
vt -0.000031 0.500000
vt 0.000031 0.999969
vt 0.000031 0.625000
vt 0.750000 0.695312
vt 0.750000 0.750000
vt 0.500000 0.750000
vt 0.500000 0.695312
vt 0.749512 0.695068
vt 0.499756 0.695068
vt 0.499756 0.749756
vt 0.749512 0.749756
vt 0.000135 0.500244
vt 0.062622 0.500244
vt 0.062622 0.562744
vt 0.000135 0.562744
vt -0.000031 0.937500
vt 0.750000 0.999969
vt 0.500000 0.999969
vt -0.000031 0.999969
s 1
usemtl MI_Wind_Pipe
f 64/1/5 63/2/5 61/3/5 62/4/5
f 86/5/4 85/6/4 81/3/4 84/7/4
f 15/8/1 11/9/1 9/10/1 13/11/1
f 28/12/2 32/13/2 31/14/2 27/15/2
f 21/16/2 27/17/2 26/18/2 17/19/2
f 5/8/1 6/9/1 1/10/1 3/11/1
f 20/14/2 17/15/2 18/20/2 19/21/2
f 72/22/6 71/9/6 69/6/6 70/5/6
f 68/7/6 65/3/6 66/2/6 67/23/6
f 2/14/1 4/15/1 3/20/1 1/21/1
f 6/14/1 5/15/1 8/20/1 7/21/1
f 17/8/2 26/11/2 25/10/2 18/9/2
f 3/16/1 9/17/1 11/18/1 5/19/1
f 5/11/1 11/8/1 12/9/1 8/10/1
f 11/14/1 15/15/1 16/20/1 12/21/1
f 23/11/2 28/8/2 27/9/2 21/10/2
f 76/5/3 73/6/3 74/9/3 75/22/3
f 10/14/1 14/15/1 13/20/1 9/21/1
f 22/10/2 21/11/2 17/8/2 20/9/2
f 52/24/5 49/25/5 50/26/5 51/27/5
f 48/24/4 46/27/4 47/26/4 45/25/4
f 56/28/6 54/29/6 55/30/6 53/31/6
f 44/28/3 41/31/3 42/30/3 43/29/3
f 70/5/6 69/6/6 65/3/6 68/7/6
f 36/19/1 34/16/1 35/17/1 33/18/1
f 24/32/2 23/33/2 21/34/2 22/35/2
f 62/4/5 61/3/5 57/6/5 60/36/5
f 40/37/2 38/38/2 39/26/2 37/25/2
f 60/36/5 57/6/5 58/9/5 59/39/5
f 80/23/3 79/2/3 77/3/3 78/7/3
f 27/9/2 31/8/2 29/11/2 26/10/2
f 26/34/2 29/35/2 30/32/2 25/33/2
f 78/7/3 77/3/3 73/6/3 76/5/3
f 84/7/4 81/3/4 82/2/4 83/23/4
f 4/11/1 10/8/1 9/9/1 3/10/1
f 88/22/4 87/9/4 85/6/4 86/5/4
