# Blender 5.0.1
# www.blender.org
mtllib BP_WP_Building9.mtl
o SM_Building9_Roof.001
v 600.000000 -500.000000 499.999969
v 600.000000 -300.000061 499.999908
v 500.000000 -300.000061 499.999878
v 500.000000 -500.000000 499.999939
v 500.000000 -300.000061 499.999878
v 600.000000 -300.000061 499.999908
v 600.000000 -300.000061 399.999847
v 500.000000 -300.000061 399.999817
v 600.000000 -700.000000 600.000122
v 600.000000 -500.000000 600.000000
v 500.000000 -500.000000 600.000000
v 500.000000 -700.000000 600.000122
v 500.000000 -500.000000 600.000000
v 600.000000 -500.000000 600.000000
v 600.000000 -500.000000 499.999969
v 500.000000 -500.000000 499.999939
v 0.000002 -700.000000 700.000122
v -99.999451 -1000.000122 700.000244
v 0.000004 -1000.000122 700.000244
v -99.999451 -700.000000 700.000122
v 0.000004 -500.000000 499.999939
v 0.000004 -300.000061 499.999878
v -99.999451 -300.000061 499.999908
v -99.999451 -500.000000 499.999939
v 0.000004 -300.000061 499.999878
v -99.999451 -300.000061 399.999847
v -99.999451 -300.000061 499.999908
v 0.000004 -300.000061 399.999847
v 0.000004 -500.000000 600.000000
v -99.999451 -500.000000 499.999939
v -99.999451 -500.000000 600.000000
v 0.000004 -500.000000 499.999939
v 0.000002 -700.000000 600.000122
v 0.000004 -500.000000 600.000000
v -99.999451 -500.000000 600.000000
v -99.999451 -700.000000 600.000122
v 200.000000 300.000000 399.999908
v 100.000412 300.000061 300.000061
v 100.000412 300.000000 399.999908
v 200.000000 300.000061 300.000061
v 500.000000 -700.000000 700.000122
v 600.000000 -1000.000122 700.000244
v 600.000000 -700.000000 700.000122
v 500.000000 -1000.000122 700.000244
v 500.000000 -700.000000 700.000122
v 600.000000 -700.000000 700.000122
v 600.000000 -700.000000 600.000122
v 500.000000 -700.000000 600.000122
v 0.000002 -700.000000 700.000122
v -99.999451 -700.000000 600.000122
v -99.999451 -700.000000 700.000122
v 0.000002 -700.000000 600.000122
v -99.999451 -300.000061 399.999847
v -0.000004 -200.000000 399.999817
v -99.999466 -200.000000 399.999847
v 0.000004 -300.000061 399.999847
v 100.000412 -200.000000 399.999817
v 100.000412 -300.000061 399.999847
v 200.000000 -300.000061 399.999847
v 200.000000 -200.000000 399.999817
v 300.000000 -300.000061 399.999847
v 300.000000 -200.000000 399.999817
v 699.999939 0.000000 399.999817
v 600.000000 -99.999985 399.999847
v 699.999939 -100.000023 399.999817
v 600.000000 0.000008 399.999817
v 699.999939 100.000000 399.999817
v 600.000000 100.000000 399.999817
v 699.999939 199.999954 399.999817
v 600.000000 199.999954 399.999817
v 0.000004 300.000031 399.999878
v 0.000004 300.000061 300.000000
v -99.999451 300.000061 399.999847
v -99.999451 300.000061 299.999939
v 0.000004 300.000092 200.000061
v -99.999451 300.000092 200.000000
v 500.000000 -200.000000 399.999817
v 600.000000 -200.000000 399.999847
v 500.000000 -99.999977 399.999847
v 500.000000 0.000008 399.999817
v 500.000000 100.000000 399.999817
v -199.999435 -0.000008 399.999817
v -199.999420 -99.999855 299.999817
v -199.999451 -99.999878 399.999817
v -199.999420 0.000008 299.999817
v -199.999420 100.000000 399.999817
v -199.999405 100.000000 299.999817
v -199.999390 200.000076 299.999817
v -199.999420 200.000092 399.999817
v 699.999939 100.000000 399.999817
v 699.999939 199.999908 299.999817
v 699.999939 199.999954 399.999817
v 699.999878 100.000000 299.999817
v 699.999939 0.000000 399.999817
v 699.999878 0.000000 299.999817
v 699.999939 -100.000015 299.999817
v 699.999939 -100.000023 399.999817
v 0.000004 -99.999939 399.999847
v -99.999474 -99.999924 399.999847
v 0.000000 0.000004 399.999817
v -99.999466 0.000000 399.999817
v -99.999451 100.000000 399.999817
v 0.000004 100.000000 399.999817
v 400.000000 -300.000061 399.999817
v 400.000000 -200.000000 399.999817
v 500.000000 -300.000061 399.999817
v 600.000000 -300.000061 399.999847
v -199.999420 100.000000 399.999817
v -99.999443 200.000076 399.999817
v -199.999420 200.000092 399.999817
v -199.999435 -0.000008 399.999817
v -199.999451 -99.999878 399.999817
v 300.000000 300.000000 399.999908
v 300.000000 300.000061 300.000061
v 400.000000 300.000061 300.000061
v 400.000000 300.000000 399.999939
v 500.000000 300.000000 399.999939
v 500.000000 300.000061 300.000061
v 600.000000 300.000000 399.999908
v 600.000000 300.000061 300.000061
v 600.000000 300.000092 200.000122
v 500.000000 300.000092 200.000122
v 0.000004 300.000031 399.999878
v -99.999451 300.000061 399.999847
v 0.000008 200.000031 399.999817
v 100.000412 300.000000 399.999908
v 100.000412 199.999969 399.999817
v 200.000000 199.999969 399.999817
v 200.000000 300.000000 399.999908
v 300.000000 199.999969 399.999817
v 300.000000 300.000000 399.999908
v 400.000000 300.000000 399.999939
v 400.000000 199.999954 399.999817
v 500.000000 199.999954 399.999817
v 500.000000 300.000000 399.999939
v 600.000000 300.000000 399.999908
v 300.000000 0.000008 399.999817
v 400.000000 -99.999969 399.999847
v 400.000000 0.000008 399.999817
v 400.000000 100.000000 399.999817
v 300.000000 -99.999969 399.999878
v 300.000000 100.000008 399.999817
v 200.000000 0.000008 399.999817
v 200.000000 -99.999969 399.999878
v 200.000000 100.000015 399.999817
v 100.000412 -99.999962 399.999847
v 100.000412 100.000008 399.999817
v 100.000412 0.000008 399.999817
v 100.000412 300.000092 200.000122
v 200.000000 300.000092 200.000122
v 100.000412 -500.000000 499.999939
v 100.000412 -300.000061 499.999908
v 200.000000 -500.000000 499.999939
v 200.000000 -300.000061 499.999939
v 300.000000 -500.000000 499.999939
v 300.000000 -300.000061 499.999908
v 400.000000 -500.000000 499.999939
v 400.000000 -300.000061 499.999878
v 400.000000 -500.000000 600.000000
v 400.000000 -700.000000 600.000122
v 300.000000 -500.000000 600.000000
v 300.000000 -700.000000 600.000122
v 200.000000 -500.000000 600.000000
v 200.000000 -700.000000 600.000122
v 100.000412 -500.000000 600.000000
v 100.000412 -700.000000 600.000122
v 100.000412 -300.000061 399.999847
v 100.000412 -300.000061 499.999908
v 200.000000 -300.000061 399.999847
v 200.000000 -300.000061 499.999939
v 300.000000 -300.000061 499.999908
v 300.000000 -300.000061 399.999847
v 400.000000 -300.000061 499.999878
v 400.000000 -300.000061 399.999817
v 300.000000 300.000092 200.000122
v 400.000000 300.000092 200.000122
v 400.000000 -500.000000 499.999939
v 400.000000 -500.000000 600.000000
v 300.000000 -500.000000 499.999939
v 300.000000 -500.000000 600.000000
v 200.000000 -500.000000 499.999939
v 200.000000 -500.000000 600.000000
v 100.000412 -500.000000 499.999939
v 100.000412 -500.000000 600.000000
v 400.000000 -700.000000 600.000122
v 400.000000 -700.000000 700.000122
v 300.000000 -700.000000 600.000122
v 300.000000 -700.000000 700.000122
v 200.000000 -700.000000 600.000122
v 200.000000 -700.000000 700.000122
v 100.000412 -700.000000 600.000122
v 100.000412 -700.000000 700.000122
v 100.000412 -700.000000 700.000122
v 100.000412 -1000.000122 700.000244
v 200.000000 -1000.000122 700.000244
v 200.000000 -700.000000 700.000122
v 300.000000 -1000.000122 700.000244
v 300.000000 -700.000000 700.000122
v 400.000000 -1000.000061 700.000244
v 400.000000 -700.000000 700.000122
vn -0.0000 -0.0000 1.0000
vn -0.0000 1.0000 -0.0000
vn -1.0000 -0.0000 -0.0000
vn 1.0000 -0.0000 -0.0000
vt 0.812500 0.812500
vt 0.875000 0.812500
vt 0.875000 0.875000
vt 0.812500 0.875000
vt 0.140625 0.718750
vt 0.140625 0.656250
vt 0.203125 0.656250
vt 0.203125 0.718750
vt 0.277344 0.363281
vt 0.277344 0.238281
vt 0.339844 0.238281
vt 0.339844 0.363281
vt 0.500000 0.875000
vt 0.562500 0.875000
vt 0.562500 0.937500
vt 0.500000 0.937500
vt 0.625000 0.875000
vt 0.625000 0.937500
vt 0.390625 0.781250
vt 0.390625 0.718750
vt 0.453125 0.718750
vt 0.453125 0.781250
vt 0.312500 0.562500
vt 0.312500 0.500000
vt 0.375000 0.500000
vt 0.375000 0.562500
vt 0.250000 0.562500
vt 0.250000 0.500000
vt 0.187500 0.562500
vt 0.187500 0.500000
vt 0.535156 0.179688
vt 0.535156 0.000000
vt 0.593750 0.000000
vt 0.593750 0.179688
vt -0.738281 0.125000
vt -0.738281 0.187500
vt -0.800781 0.187500
vt -0.800781 0.125000
vt 0.625000 0.500000
vt 0.687500 0.500000
vt 0.687500 0.562500
vt 0.625000 0.562500
vt 0.781250 0.179688
vt 0.718750 0.179688
vt 0.718750 0.000000
vt 0.781250 0.000000
vt 0.214844 0.363281
vt 0.214844 0.238281
vt 0.125000 0.500000
vt 0.125000 0.562500
vt 0.082031 0.625000
vt 0.019531 0.625000
vt 0.019531 0.562500
vt 0.082031 0.562500
vt 0.062500 0.562500
vt 0.062500 0.500000
vt 0.906250 0.000000
vt 0.968750 0.000000
vt 0.968750 0.179688
vt 0.906250 0.179688
vt 0.144531 0.562500
vt 0.207031 0.562500
vt 0.207031 0.625000
vt 0.144531 0.625000
vt 0.937500 0.875000
vt 0.937500 0.937500
vt 0.875000 0.937500
vt 0.937500 0.812500
vt -0.675781 0.187500
vt -0.675781 0.250000
vt -0.738281 0.250000
vt 0.078125 0.718750
vt 0.078125 0.781250
vt 0.015625 0.781250
vt 0.015625 0.718750
vt -0.800781 0.250000
vt 0.843750 0.179688
vt 0.843750 0.000000
vt -0.863281 0.187500
vt -0.863281 0.250000
vt -0.925781 0.250000
vt -0.925781 0.187500
vt 0.632812 0.781250
vt 0.632812 0.656250
vt 0.570312 0.656250
vt 0.570312 0.781250
vt 0.152344 0.363281
vt 0.152344 0.238281
vt -0.988281 0.187500
vt -0.988281 0.125000
vt -0.925781 0.125000
vt 1.000000 0.812500
vt 1.000000 0.875000
vt 0.000031 0.562500
vt 0.000031 0.500000
vt 0.140625 0.781250
vt 0.203125 0.781250
vt -0.675781 0.125000
vt -0.613281 0.187500
vt -0.613281 0.250000
vt 0.437500 0.500000
vt 0.437500 0.562500
vt 0.265625 0.718750
vt 0.265625 0.781250
vt 0.328125 0.718750
vt 0.328125 0.656250
vt 0.390625 0.656250
vt 0.500000 0.500000
vt 0.500000 0.562500
vt 0.089844 0.238281
vt 0.089844 0.363281
vt 0.562500 0.500000
vt 0.562500 0.562500
vt 0.015625 0.656250
vt 0.078125 0.656250
vt 1.000000 0.937500
vt 0.402344 0.238281
vt 0.402344 0.363281
vt -0.863281 0.125000
vt -0.550781 0.187500
vt -0.550781 0.250000
vt -0.863281 0.312500
vt -0.925781 0.312500
vt -0.988281 0.250000
vt 0.328125 0.781250
vt 0.812500 0.937500
vt 0.859375 0.781250
vt 0.859375 0.656250
vt 0.796875 0.656250
vt 0.796875 0.781250
vt 0.507812 0.656250
vt 0.507812 0.781250
vt 0.695312 0.781250
vt 0.695312 0.656250
vt 0.757812 0.781250
vt 0.757812 0.656250
vt 0.921875 0.656250
vt 0.921875 0.781250
vt 0.984375 0.781250
vt 0.984375 0.656250
vt 0.464844 0.238281
vt 0.464844 0.363281
vt 0.265625 0.656250
vt 0.687500 0.875000
vt 0.687500 0.937500
vt 0.750000 0.875000
vt 0.750000 0.937500
vt 0.027344 0.363281
vt 0.027344 0.238281
vt 0.687500 0.812500
vt 0.750000 0.812500
vt 0.625000 0.812500
vt 0.562500 0.812500
vt 0.500000 0.812500
vt -0.550781 0.312500
vt -0.613281 0.312500
vt 0.453125 0.656250
vt -0.800781 0.312500
vt -0.738281 0.312500
vt 0.656250 0.179688
vt 0.656250 0.000000
vt -0.675781 0.312500
vt -0.988281 0.312500
vt -0.613281 0.125000
vt -0.550781 0.125000
s 1
usemtl MI_Building_Roof_002
f 133/5/1 132/6/1 131/7/1 130/8/1
f 120/13/2 118/14/2 117/15/2 119/16/2
f 118/14/2 115/17/2 116/18/2 117/15/2
f 103/19/1 125/20/1 109/21/1 102/22/1
f 62/27/1 60/29/1 59/30/1 61/28/1
f 20/31/1 18/32/1 19/33/1 17/34/1
f 102/39/1 109/40/1 110/41/1 108/42/1
f 66/39/1 64/40/1 65/41/1 63/42/1
f 94/51/4 97/52/4 96/53/4 95/54/4
f 58/49/1 57/50/1 54/55/1 56/56/1
f 44/57/1 42/58/1 43/59/1 41/60/1
f 93/61/4 91/62/4 92/63/4 90/64/4
f 72/65/2 71/66/2 39/67/2 38/3/2
f 141/36/1 138/69/1 139/70/1 137/71/1
f 134/72/1 81/73/1 68/74/1 70/75/1
f 144/37/1 141/36/1 137/71/1 143/76/1
f 99/89/1 55/90/1 54/91/1 98/82/1
f 76/92/2 74/93/2 72/65/2 75/68/2
f 56/56/1 54/55/1 55/94/1 53/95/1
f 86/51/3 89/52/3 88/53/3 87/54/3
f 127/105/1 126/106/1 123/107/1 125/20/1
f 16/49/2 13/50/2 14/55/2 15/56/2
f 95/54/4 93/61/4 90/64/4 94/51/4
f 28/101/2 26/108/2 27/109/2 25/102/2
f 99/108/1 101/112/1 111/113/1 112/109/1
f 70/75/1 136/114/1 135/115/1 134/72/1
f 74/93/2 73/116/2 71/66/2 72/65/2
f 52/101/2 50/108/2 51/109/2 49/102/2
f 80/100/1 79/99/1 64/120/1 66/121/1
f 105/26/1 62/23/1 61/24/1 104/25/1
f 48/49/2 45/50/2 46/55/2 47/56/2
f 85/61/3 83/62/3 84/63/3 82/64/3
f 134/72/1 135/115/1 132/6/1 133/5/1
f 69/109/1 70/108/1 68/112/1 67/113/1
f 100/81/1 101/124/1 99/89/1 98/82/1
f 40/4/2 38/3/2 39/67/2 37/126/2
f 23/131/1 24/132/1 21/86/1 22/85/1
f 3/137/1 4/138/1 1/139/1 2/140/1
f 67/113/1 68/112/1 66/39/1 63/42/1
f 60/29/1 57/50/1 58/49/1 59/30/1
f 11/118/1 12/117/1 9/141/1 10/142/1
f 130/8/1 131/7/1 129/143/1 128/103/1
f 111/113/1 101/112/1 102/39/1 108/42/1
f 116/18/2 115/17/2 114/144/2 113/145/2
f 114/144/2 40/146/2 37/147/2 113/145/2
f 35/148/1 36/149/1 33/110/1 34/111/1
f 77/102/1 105/26/1 104/25/1 106/101/1
f 78/109/1 77/102/1 106/101/1 107/108/1
f 32/101/2 30/108/2 31/109/2 29/102/2
f 122/153/2 118/14/2 120/13/2 121/154/2
f 68/155/1 81/156/1 80/100/1 66/121/1
f 125/20/1 123/107/1 124/157/1 109/21/1
f 148/80/1 143/76/1 145/158/1 147/122/1
f 145/158/1 143/76/1 137/71/1 142/159/1
f 142/159/1 137/71/1 139/70/1 140/162/1
f 8/49/2 5/50/2 6/55/2 7/56/2
f 103/123/1 102/163/1 101/124/1 100/81/1
f 87/54/3 85/61/3 82/64/3 86/51/3
f 143/76/1 148/80/1 146/79/1 144/37/1
f 128/103/1 129/143/1 126/106/1 127/105/1
f 64/120/1 79/99/1 77/164/1 78/165/1
usemtl MI_Building_Roof_005
f 150/1/2 149/2/2 38/3/2 40/4/2
f 161/9/1 162/10/1 160/11/1 159/12/1
f 170/23/2 169/24/2 167/25/2 168/26/2
f 182/23/2 180/27/2 179/28/2 181/24/2
f 62/35/1 141/36/1 144/37/1 60/38/1
f 198/43/1 196/44/1 195/45/1 197/46/1
f 163/47/1 164/48/1 162/10/1 161/9/1
f 184/26/2 182/23/2 181/24/2 183/25/2
f 8/49/2 174/30/2 173/29/2 5/50/2
f 75/68/2 72/65/2 38/3/2 149/2/2
f 200/77/1 198/43/1 197/46/1 199/78/1
f 146/79/1 148/80/1 100/81/1 98/82/1
f 151/83/1 152/84/1 22/85/1 21/86/1
f 165/87/1 166/88/1 164/48/1 163/47/1
f 140/96/1 133/5/1 130/8/1 142/97/1
f 105/98/1 138/69/1 141/36/1 62/35/1
f 139/70/1 138/69/1 79/99/1 80/100/1
f 32/101/2 29/102/2 184/26/2 183/25/2
f 142/97/1 130/8/1 128/103/1 145/104/1
f 180/27/2 178/29/2 177/30/2 179/28/2
f 33/110/1 166/88/1 165/87/1 34/111/1
f 159/12/1 160/11/1 12/117/1 11/118/1
f 60/38/1 144/37/1 146/79/1 57/119/1
f 100/81/1 148/80/1 147/122/1 103/123/1
f 25/102/2 168/26/2 167/25/2 28/101/2
f 147/125/1 127/105/1 125/20/1 103/19/1
f 157/127/1 158/128/1 156/129/1 155/130/1
f 153/133/1 154/134/1 152/84/1 151/83/1
f 155/135/1 156/136/1 154/134/1 153/133/1
f 4/138/1 3/137/1 158/128/1 157/127/1
f 172/28/2 169/24/2 170/23/2 171/27/2
f 44/57/1 41/60/1 200/77/1 199/78/1
f 178/29/2 13/50/2 16/49/2 177/30/2
f 175/150/2 150/151/2 40/146/2 114/144/2
f 188/27/2 186/29/2 185/30/2 187/28/2
f 176/152/2 175/150/2 114/144/2 115/17/2
f 122/153/2 176/152/2 115/17/2 118/14/2
f 190/23/2 188/27/2 187/28/2 189/24/2
f 186/29/2 45/50/2 48/49/2 185/30/2
f 145/104/1 128/103/1 127/105/1 147/125/1
f 52/101/2 49/102/2 192/26/2 191/25/2
f 196/44/1 193/160/1 194/161/1 195/45/1
f 194/161/1 193/160/1 17/34/1 19/33/1
f 174/30/2 172/28/2 171/27/2 173/29/2
f 57/119/1 146/79/1 98/82/1 54/91/1
f 81/73/1 134/72/1 133/5/1 140/96/1
f 138/69/1 105/98/1 77/164/1 79/99/1
f 192/26/2 190/23/2 189/24/2 191/25/2
f 81/156/1 140/162/1 139/70/1 80/100/1
