# Blender 5.0.1
# www.blender.org
mtllib BP_WesternGate_Big.mtl
o SM_Westerngate_Big.001
v -318.750000 -12.500020 450.000000
v -318.750000 -12.500000 -0.000001
v -281.250000 -12.500020 450.000000
v -281.250000 -12.500000 -0.000001
v -281.250000 -12.500020 450.000000
v -281.250000 24.999981 450.000000
v -318.750000 -12.500020 450.000000
v -318.750000 24.999981 450.000000
v -318.750000 25.000000 0.000001
v -318.750000 24.999981 450.000000
v -281.250000 25.000000 0.000001
v -281.250000 24.999981 450.000000
v -281.250000 -12.500020 450.000000
v -281.250000 -12.500000 -0.000001
v -281.250000 25.000000 0.000001
v -281.250000 24.999981 450.000000
v -318.750000 -12.500000 -0.000001
v -318.750000 -12.500020 450.000000
v -318.750000 24.999981 450.000000
v -318.750000 25.000000 0.000001
v 375.000000 -25.000017 412.500000
v -337.500031 -25.000017 412.500000
v -337.500000 -25.000015 343.750000
v 375.000031 -25.000015 343.750000
v 375.000000 -25.000017 412.500000
v -337.500031 -12.500018 412.500000
v -337.500031 -25.000017 412.500000
v 375.000000 -12.500018 412.500000
v -337.500031 -12.500018 412.500000
v 375.000000 -12.500018 412.500000
v -337.500000 -12.500015 343.750000
v 375.000031 -12.500015 343.750000
v -337.500000 -12.500015 343.750000
v 375.000031 -12.500015 343.750000
v -337.500000 -25.000015 343.750000
v 375.000031 -25.000015 343.750000
v 375.000031 -12.500015 343.750000
v 375.000000 -12.500018 412.500000
v 375.000031 -25.000015 343.750000
v 375.000000 -25.000017 412.500000
v -337.500031 -25.000017 412.500000
v -337.500000 -12.500015 343.750000
v -337.500000 -25.000015 343.750000
v -337.500031 -12.500018 412.500000
v 281.250000 -12.500020 450.000000
v 281.250000 -12.500000 -0.000001
v 318.750000 -12.500020 450.000000
v 318.750000 -12.500000 -0.000001
v 318.750000 -12.500020 450.000000
v 318.750000 24.999981 450.000000
v 281.250000 -12.500020 450.000000
v 281.250000 24.999981 450.000000
v 281.250000 25.000000 0.000001
v 281.250000 24.999981 450.000000
v 318.750000 25.000000 0.000001
v 318.750000 24.999981 450.000000
v 318.750000 -12.500020 450.000000
v 318.750000 -12.500000 -0.000001
v 318.750000 25.000000 0.000001
v 318.750000 24.999981 450.000000
v 281.250000 -12.500000 -0.000001
v 281.250000 -12.500020 450.000000
v 281.250000 24.999981 450.000000
v 281.250000 25.000000 0.000001
v -62.500000 -62.548306 343.749969
v -31.250002 -43.798298 343.749969
v -62.500000 -43.798298 343.749939
v -31.250002 -62.548313 343.749969
v 62.500000 -62.548313 343.749969
v 31.250002 -43.798298 343.749969
v 31.250002 -62.548313 343.749969
v 62.500000 -43.798298 343.749939
v 31.249962 -68.701721 349.517822
v -31.249962 -68.701721 349.517822
v -31.249962 -68.701721 262.500000
v 31.249962 -68.701721 262.500000
v 31.249962 -68.701721 349.517822
v 31.249962 -25.096584 349.517822
v -31.249962 -68.701721 349.517822
v -31.249962 -25.096584 349.517822
v 31.249962 -25.096581 262.500000
v -31.249962 -25.096581 262.500000
v -31.249962 -25.096584 349.517822
v 31.249962 -25.096584 349.517822
v 31.249962 -68.701721 262.500000
v -31.249962 -68.701721 262.500000
v -31.249962 -25.096581 262.500000
v 31.249962 -25.096581 262.500000
v 31.249962 -25.096581 262.500000
v 31.249962 -25.096584 349.517822
v 31.249962 -68.701721 262.500000
v 31.249962 -68.701721 349.517822
v -31.249962 -68.701721 349.517822
v -31.249962 -25.096581 262.500000
v -31.249962 -68.701721 262.500000
v -31.249962 -25.096584 349.517822
v 81.250000 -62.548283 362.500061
v 62.499985 -43.798275 362.500061
v 62.499985 -62.548283 362.500061
v 81.250000 -43.798275 362.500061
v -81.250000 -62.548283 362.500061
v -62.499985 -62.548283 362.500061
v -81.250000 -43.798275 362.500061
v -62.499985 -43.798275 362.500061
v 62.499985 -62.548283 362.500061
v 62.500000 -43.798298 343.749939
v 62.500000 -62.548313 343.749969
v 62.499985 -43.798275 362.500061
v -62.499985 -62.548283 362.500061
v -62.500000 -43.798298 343.749939
v -62.499985 -43.798275 362.500061
v -62.500000 -62.548306 343.749969
v -350.000000 -25.000013 287.500000
v 350.000000 -25.000013 287.500000
v -350.000000 -25.000015 337.500000
v 350.000000 -25.000015 337.500000
v 350.000000 -25.000015 337.500000
v -350.000000 -12.500014 337.500000
v -350.000000 -25.000015 337.500000
v 350.000000 -12.500014 337.500000
v -350.000000 -12.500014 337.500000
v 350.000000 -12.500014 337.500000
v -350.000000 -12.500012 287.500000
v 350.000000 -12.500012 287.500000
v -350.000000 -12.500012 287.500000
v 350.000000 -25.000013 287.500000
v -350.000000 -25.000013 287.500000
v 350.000000 -12.500012 287.500000
v 350.000000 -12.500012 287.500000
v 350.000000 -12.500014 337.500000
v 350.000000 -25.000013 287.500000
v 350.000000 -25.000015 337.500000
v -350.000000 -25.000015 337.500000
v -350.000000 -12.500012 287.500000
v -350.000000 -25.000013 287.500000
v -350.000000 -12.500014 337.500000
v -81.250000 -62.548283 362.500061
v -62.500000 -62.548306 343.749969
v -62.499985 -62.548283 362.500061
v -81.250008 -62.548306 343.749969
v -81.250008 -62.548306 343.749969
v -81.250008 -43.798306 343.749969
v -81.250008 -62.548306 325.000000
v -81.250008 -43.798298 324.999969
v -81.250000 -62.548283 362.500061
v -81.250000 -43.798275 362.500061
v -81.250008 -43.798306 343.749969
v -62.499985 -43.798275 362.500061
v -62.500000 -43.798298 343.749939
v -81.250000 -43.798275 362.500061
v 81.250000 -62.548283 362.500061
v 62.499985 -62.548283 362.500061
v 62.500000 -62.548313 343.749969
v 81.250008 -62.548313 343.749969
v 81.250008 -62.548313 325.000000
v 81.250008 -43.798298 343.749969
v 81.250008 -62.548313 343.749969
v 81.250008 -43.798298 324.999969
v 81.250000 -62.548283 362.500061
v 81.250000 -43.798275 362.500061
v 62.500000 -43.798298 343.749939
v 62.499985 -43.798275 362.500061
v 81.250008 -43.798298 343.749969
v 81.250000 -43.798275 362.500061
v 31.250002 -62.548313 343.749969
v 31.250002 -62.548313 325.000000
v 62.500000 -62.548313 325.000000
v 81.250008 -62.548313 325.000000
v 31.250002 -62.548313 325.000000
v 31.250002 -43.798298 324.999969
v 62.500000 -43.798298 324.999878
v 62.500000 -62.548313 325.000000
v 81.250008 -43.798298 324.999969
v 81.250008 -62.548313 325.000000
v -31.250002 -62.548313 325.000000
v -31.250002 -62.548313 343.749969
v -62.500000 -62.548306 325.000000
v -81.250008 -62.548306 325.000000
v -62.500000 -62.548306 325.000000
v -31.250002 -43.798298 324.999969
v -31.250002 -62.548313 325.000000
v -62.500000 -43.798298 324.999878
v -81.250008 -62.548306 325.000000
v -81.250008 -43.798298 324.999969
v -81.250008 -43.798298 324.999969
v -62.500000 -43.798298 324.999878
v -31.250002 -43.798298 324.999969
v -31.250002 -43.798298 343.749969
v 81.250008 -43.798298 324.999969
v 62.500000 -43.798298 324.999878
v 31.250002 -43.798298 324.999969
v 31.250002 -43.798298 343.749969
vn -0.0000 -1.0000 -0.0000
vn -0.0000 -0.0000 1.0000
vn -0.0000 1.0000 -0.0000
vn 1.0000 -0.0000 -0.0000
vn -1.0000 -0.0000 -0.0000
vn -0.0000 -0.0000 -1.0000
vt 0.671875 0.633057
vt 0.648438 0.633057
vt 0.648438 0.593750
vt 0.671875 0.593750
vt 0.757812 0.843750
vt 0.703125 0.843750
vt 0.703125 0.734375
vt 0.757812 0.734375
vt 0.000031 0.390625
vt 0.046875 0.390625
vt 0.046875 0.953125
vt 0.000031 0.953125
vt 0.703125 0.679932
vt 0.625000 0.734375
vt 0.625000 0.679932
vt 0.546875 0.984375
vt 0.484375 0.984375
vt 0.484375 0.109375
vt 0.546875 0.109375
vt 0.273438 0.984375
vt 0.187500 0.984375
vt 0.187500 0.093750
vt 0.273438 0.093750
vt 0.703125 0.898499
vt 0.703125 0.999969
vt 0.625000 0.999969
vt 0.625000 0.898499
vt 0.695312 0.640625
vt 0.695312 0.617432
vt 0.718750 0.617432
vt 0.718750 0.640625
vt 0.406250 0.984375
vt 0.468750 0.984375
vt 0.468750 0.999969
vt 0.406250 0.999969
vt 0.625000 0.843750
vt 0.742188 0.617432
vt 0.742188 0.640625
vt 0.093750 0.953125
vt 0.093750 0.999969
vt 0.046875 0.999969
vt 0.273438 0.999969
vt 0.187500 0.999969
vt 0.187500 0.953125
vt 0.140625 0.953125
vt 0.140625 0.390625
vt 0.187500 0.390625
vt 0.390625 0.984375
vt 0.375000 0.984375
vt 0.375000 0.093750
vt 0.390625 0.093750
vt 0.765625 0.617432
vt 0.765625 0.640625
vt 0.093750 0.390625
vt 0.289062 0.984375
vt 0.289062 0.093750
vt 0.625000 0.656250
vt 0.648438 0.656250
vt 0.648438 0.679932
vt 0.570312 0.843750
vt 0.570312 0.734375
vt 0.406250 0.109375
vt 0.468750 0.109375
vt 0.625000 0.633057
vt 0.625000 0.593750
vt 0.601562 0.633057
vt 0.601562 0.593750
vt 0.718750 0.593750
vt 0.742188 0.593750
vt 0.671875 0.679932
vt 0.671875 0.656250
vt 0.742188 0.664307
vt 0.718750 0.664307
vt 0.562500 0.984375
vt 0.562500 0.109375
vt 0.601562 0.656250
vt 0.695312 0.656250
vt 0.695312 0.633057
vt 0.695312 0.593750
s 1
usemtl MI_WesternGate_Big
f 167/1/1 153/2/1 165/3/1 166/4/1
f 90/5/4 92/6/4 91/7/4 89/8/4
f 64/9/5 61/10/5 62/11/5 63/12/5
f 88/13/6 85/7/6 86/14/6 87/15/6
f 114/16/1 116/17/1 115/18/1 113/19/1
f 30/20/3 32/21/3 31/22/3 29/23/3
f 84/24/3 81/25/3 82/26/3 83/27/3
f 140/28/1 138/29/1 139/30/1 137/31/1
f 136/32/5 134/33/5 135/34/5 133/35/5
f 76/7/1 73/6/1 74/36/1 75/14/1
f 100/37/2 98/38/2 99/31/2 97/30/2
f 8/11/2 7/39/2 5/40/2 6/41/2
f 102/30/2 104/37/2 103/38/2 101/31/2
f 44/42/5 42/43/5 43/21/5 41/20/5
f 16/44/4 13/45/4 14/46/4 15/47/4
f 34/48/6 36/49/6 35/50/6 33/51/6
f 150/38/3 148/37/3 149/52/3 147/53/3
f 68/3/2 66/4/2 67/1/2 65/2/2
f 4/46/1 3/45/1 1/39/1 2/54/1
f 130/35/4 132/32/4 131/33/4 129/34/4
f 12/12/3 11/9/3 9/10/3 10/11/3
f 38/43/4 40/21/4 39/20/4 37/42/4
f 20/10/5 17/54/5 18/39/5 19/11/5
f 56/45/3 55/46/3 53/47/3 54/44/3
f 48/54/1 47/39/1 45/11/1 46/10/1
f 24/49/1 21/55/1 22/56/1 23/50/1
f 144/15/5 143/57/5 141/58/5 142/59/5
f 164/37/3 163/52/3 161/53/3 162/38/3
f 52/41/2 51/11/2 49/39/2 50/40/2
f 96/60/5 94/61/5 95/14/5 93/36/5
f 60/45/4 57/39/4 58/54/4 59/46/4
f 122/33/3 124/32/3 123/62/3 121/63/3
f 177/64/1 175/65/1 176/3/1 138/2/1
f 80/27/2 79/36/2 77/6/2 78/24/2
f 154/29/1 151/30/1 152/31/1 153/28/1
f 72/64/2 70/65/2 71/3/2 69/2/2
f 192/65/3 161/64/3 190/66/3 191/67/3
f 157/68/4 156/69/4 160/37/4 159/30/4
f 158/70/4 156/59/4 157/58/4 155/71/4
f 112/68/4 110/69/4 111/37/4 109/30/4
f 146/38/5 142/72/5 141/73/5 145/31/5
f 108/38/5 106/72/5 107/73/5 105/31/5
f 28/20/2 26/23/2 27/56/2 25/55/2
f 128/74/6 126/16/6 127/19/6 125/75/6
f 182/66/6 180/67/6 181/65/6 179/64/6
f 184/76/6 182/66/6 179/64/6 183/57/6
f 120/33/2 118/63/2 119/18/2 117/17/2
f 168/71/1 154/58/1 153/2/1 167/1/1
f 190/66/3 161/64/3 163/57/3 189/76/3
f 173/77/6 174/71/6 172/1/6 171/78/6
f 171/78/6 172/1/6 169/4/6 170/79/6
f 149/1/3 186/78/3 185/77/3 147/71/3
f 188/4/3 187/79/3 186/78/3 149/1/3
f 178/57/1 177/64/1 138/2/1 140/58/1
