# Blender 5.0.1
# www.blender.org
mtllib BP_WP_Building3.mtl
o SM_Building3_Roof.001
v -300.000000 200.000000 400.000000
v -300.000000 -300.000000 400.000000
v -300.000000 200.000000 500.000000
v -300.000000 -300.000000 500.000000
v 400.000031 200.000000 500.000000
v 400.000031 -300.000000 500.000000
v 400.000061 -300.000000 400.000000
v 400.000061 200.000000 400.000000
v -200.000000 -400.000000 500.000000
v 300.000000 -400.000000 500.000000
v -200.000000 -300.000000 500.000000
v 300.000000 -300.000000 500.000000
v -200.000000 300.000000 500.000000
v 300.000000 300.000000 500.000000
v -199.999985 499.999908 500.000000
v 300.000000 499.999908 500.000000
v -199.999969 -599.999939 400.000000
v 300.000000 -600.000000 500.000000
v -199.999985 -600.000000 500.000000
v 300.000031 -599.999939 400.000000
v 300.000000 499.999908 500.000000
v -199.999969 499.999817 400.000000
v -199.999985 499.999908 500.000000
v 300.000031 499.999817 400.000000
v -199.999985 -600.000000 500.000000
v 300.000000 -600.000000 500.000000
v -200.000000 200.000000 500.000000
v 300.000000 200.000000 500.000000
v -300.000000 200.000000 500.000000
v -300.000000 -300.000000 500.000000
v 400.000031 200.000000 500.000000
v 400.000031 -300.000000 500.000000
vn -1.0000 -0.0000 -0.0000
vn 1.0000 -0.0000 -0.0000
vn -0.0000 -0.0000 1.0000
vn -0.0000 -1.0000 -0.0000
vn -0.0000 1.0000 -0.0000
vt 0.597656 0.144531
vt 0.597656 0.457031
vt 0.542969 0.457031
vt 0.542969 0.144531
vt 0.000031 0.812500
vt 0.000031 0.875000
vt 0.304688 0.875000
vt 0.304688 0.812500
vt 0.472656 0.253906
vt 0.472656 0.378906
vt 0.160156 0.378906
vt 0.160156 0.253906
vt 0.312500 0.812500
vt 0.312500 0.875000
vt 0.910156 0.144531
vt 0.910156 0.457031
vt 0.472656 0.316406
vt 0.472656 0.441406
vt 0.160156 0.441406
vt 0.160156 0.316406
vt 0.187500 0.562500
vt 0.187500 0.500000
vt 0.500000 0.500000
vt 0.500000 0.562500
vt 0.421875 0.500000
vt 0.421875 0.562500
vt 0.109375 0.562500
vt 0.109375 0.500000
vt 0.972656 0.144531
vt 0.972656 0.457031
s 1
usemtl MI_Building_Roof_003_Torn
f 2/5/1 4/6/1 3/7/1 1/8/1
f 8/8/2 5/7/2 6/6/2 7/5/2
usemtl MI_Building_Roof_006
f 26/9/3 10/10/3 9/11/3 25/12/3
f 20/13/4 18/14/4 19/6/4 17/5/4
f 24/5/5 22/13/5 23/14/5 21/6/5
f 14/17/3 16/18/3 15/19/3 13/20/3
f 10/21/3 12/22/3 11/23/3 9/24/3
f 28/25/3 14/26/3 13/27/3 27/28/3
usemtl MI_Building_Roof_003_New
f 11/1/3 27/2/3 29/3/3 30/4/3
f 12/15/3 28/16/3 27/2/3 11/1/3
f 32/29/3 31/30/3 28/16/3 12/15/3
