# Blender 5.0.1
# www.blender.org
mtllib BP_WindholeManmade02.mtl
o SM_GS_sWindhole_MM_2.001
v -399.999969 -0.000052 -0.000030
v -399.999939 -100.000053 -0.000030
v -299.999939 -100.000038 -0.000020
v -299.999969 -0.000036 -0.000020
v -599.999939 -200.000076 -0.000049
v -599.999878 -300.000092 -0.000049
v -499.999939 -300.000061 -0.000039
v -499.999939 -200.000061 -0.000039
v -599.999939 -100.000084 -0.000049
v -499.999939 -100.000069 -0.000039
v -600.000000 -0.000085 -0.000049
v -499.999969 -0.000068 -0.000039
v -500.000000 99.999931 -0.000039
v -400.000000 99.999947 -0.000030
v -399.999939 -200.000046 -0.000030
v -299.999939 -200.000031 -0.000020
v -399.999939 -300.000061 -0.000030
v -299.999908 -300.000031 -0.000020
v -499.999908 -400.000061 -0.000039
v -399.999908 -400.000061 -0.000030
vn -0.0000 -0.0000 1.0000
vt 0.875000 0.250000
vt 0.875000 0.375000
vt 0.750000 0.375000
vt 0.750000 0.250000
vt 0.625000 0.500000
vt 0.625000 0.375000
vt 0.750000 0.500000
vt 1.000000 0.375000
vt 1.000000 0.500000
vt 0.875000 0.500000
vt 0.500000 0.500000
vt 0.500000 0.375000
s 1
usemtl MI_GS_Props
f 14/1/1 13/2/1 12/3/1 1/4/1
f 15/5/1 8/6/1 7/3/1 17/7/1
f 12/2/1 11/8/1 9/9/1 10/10/1
f 4/8/1 1/9/1 2/10/1 3/2/1
f 8/10/1 5/2/1 6/8/1 7/9/1
f 12/7/1 10/5/1 2/6/1 1/3/1
f 3/7/1 2/3/1 15/2/1 16/10/1
f 10/2/1 9/10/1 5/7/1 8/3/1
f 16/9/1 15/10/1 17/2/1 18/8/1
f 17/3/1 7/4/1 19/1/1 20/2/1
f 10/5/1 8/11/1 15/12/1 2/6/1
