# Blender 5.0.1
# www.blender.org
mtllib BP_WP_BrazierOrb_Vector.mtl
o SM_Brazier_Orb_001.001
v -24.999950 -24.999992 225.000000
v -43.750000 -43.749992 225.000000
v -24.999949 -43.749996 225.000000
v -43.750000 -24.999996 225.000000
v 24.999996 -24.999996 225.000000
v 43.750000 -43.749996 225.000000
v 43.750000 -24.999994 225.000000
v 24.999992 -43.749996 225.000000
v -43.750000 43.750008 225.000000
v -43.750000 25.000010 225.000000
v -24.999962 43.750004 225.000000
v -24.999954 25.000010 225.000000
v 24.999992 25.000008 225.000000
v 43.750000 43.750004 225.000000
v 24.999985 43.750004 225.000000
v 43.750000 25.000010 225.000000
v 24.999992 25.000008 225.000000
v 24.999985 43.750004 175.000000
v 24.999992 25.000006 175.000000
v 24.999985 43.750004 225.000000
v 24.999996 -24.999996 225.000000
v 24.999992 -25.000000 175.000000
v 24.999992 -43.749996 225.000000
v 24.999992 -43.749996 175.000000
v -24.999954 25.000010 225.000000
v -24.999969 43.750004 175.000000
v -24.999962 43.750004 225.000000
v -24.999962 25.000006 175.000000
v -24.999962 -25.000000 175.000000
v -24.999950 -24.999992 225.000000
v -24.999949 -43.749996 225.000000
v -24.999962 -43.749996 175.000000
v 24.999992 25.000008 225.000000
v 24.999992 25.000006 175.000000
v 43.750000 25.000010 225.000000
v 43.750000 25.000006 175.000000
v -24.999962 25.000006 175.000000
v -24.999954 25.000010 225.000000
v -43.750000 25.000010 225.000000
v -43.750000 25.000006 175.000000
v 24.999996 -24.999996 225.000000
v 43.750000 -25.000000 175.000000
v 24.999992 -25.000000 175.000000
v 43.750000 -24.999994 225.000000
v -24.999950 -24.999992 225.000000
v -24.999962 -25.000000 175.000000
v -43.750000 -24.999996 225.000000
v -43.750000 -24.999998 175.000000
v 24.999977 -24.999989 187.499985
v -24.999968 -24.999989 187.499985
v -24.999968 25.000000 187.499985
v 24.999981 25.000000 187.499985
v 24.999981 25.000011 237.499969
v -24.999968 25.000011 237.499969
v 24.999973 -24.999981 237.499969
v -24.999968 -24.999981 237.499969
v 24.999981 25.000011 237.499969
v -24.999968 25.000000 187.499985
v -24.999968 25.000011 237.499969
v 24.999981 25.000000 187.499985
v 24.999973 -24.999981 237.499969
v 24.999981 25.000000 187.499985
v 24.999981 25.000011 237.499969
v 24.999977 -24.999989 187.499985
v 24.999973 -24.999981 237.499969
v -24.999968 -24.999989 187.499985
v 24.999977 -24.999989 187.499985
v -24.999968 -24.999981 237.499969
v -24.999968 -24.999981 237.499969
v -24.999968 25.000000 187.499985
v -24.999968 -24.999989 187.499985
v -24.999968 25.000011 237.499969
v 43.750000 25.000010 225.000000
v 43.750000 43.750004 175.000000
v 43.750000 43.750004 225.000000
v 43.750000 25.000006 175.000000
v 43.750000 43.750000 0.000000
v 43.750000 25.000000 0.000000
v 43.750000 -25.000000 175.000000
v 43.750000 -25.000004 0.000000
v 43.750000 -43.749996 175.000000
v 43.750000 -43.750000 0.000000
v 43.750000 -43.749996 225.000000
v 43.750000 -24.999994 225.000000
v -43.750000 43.750008 175.000000
v -43.750000 25.000010 225.000000
v -43.750000 43.750008 225.000000
v -43.750000 25.000006 175.000000
v -43.750000 43.750004 0.000000
v -43.750000 25.000000 0.000000
v -43.750000 -24.999998 175.000000
v -43.750000 -24.999998 0.000000
v -43.750000 -43.749992 175.000000
v -43.750000 -43.749996 0.000000
v -43.750000 -43.749992 225.000000
v -43.750000 -24.999996 225.000000
v 24.999992 -43.749996 225.000000
v 24.999992 -43.749996 175.000000
v 43.750000 -43.749996 225.000000
v 43.750000 -43.749996 175.000000
v 25.000015 -43.750000 0.000000
v 43.750000 -43.750000 0.000000
v -24.999962 -43.749996 175.000000
v -25.000038 -43.750000 0.000000
v -43.750000 -43.749992 175.000000
v -43.750000 -43.749996 0.000000
v -43.750000 -43.749992 225.000000
v -24.999949 -43.749996 225.000000
v 24.999985 43.750004 175.000000
v 24.999985 43.750004 225.000000
v 43.750000 43.750004 225.000000
v 43.750000 43.750004 175.000000
v 25.000000 43.750000 0.000000
v 43.750000 43.750000 0.000000
v -24.999969 43.750004 175.000000
v -25.000061 43.750000 0.000000
v -43.750000 43.750008 175.000000
v -43.750000 43.750004 0.000000
v -43.750000 43.750008 225.000000
v -24.999962 43.750004 225.000000
v 24.999992 25.000006 175.000000
v 43.750000 -25.000000 175.000000
v 43.750000 25.000006 175.000000
v 24.999992 -25.000000 175.000000
v -24.999962 -43.749996 175.000000
v 24.999992 -43.749996 175.000000
v -24.999962 -25.000000 175.000000
v -24.999962 25.000006 175.000000
v 24.999985 43.750004 175.000000
v -24.999969 43.750004 175.000000
v -43.750000 -24.999998 175.000000
v -43.750000 25.000006 175.000000
v -25.000061 43.750000 0.000000
v -43.750000 25.000000 0.000000
v -43.750000 43.750004 0.000000
v -25.000055 25.000000 0.000000
v -43.750000 -24.999998 0.000000
v 25.000000 43.750000 0.000000
v -25.000044 -25.000004 0.000000
v -43.750000 -43.749996 0.000000
v -25.000038 -43.750000 0.000000
v 25.000004 25.000000 0.000000
v 43.750000 43.750000 0.000000
v 43.750000 25.000000 0.000000
v 25.000011 -25.000004 0.000000
v 25.000015 -43.750000 0.000000
v 43.750000 -25.000004 0.000000
v 43.750000 -43.750000 0.000000
vn -0.0000 -0.0000 1.0000
vn -1.0000 -0.0000 -0.0000
vn 1.0000 -0.0000 -0.0000
vn -0.0000 -1.0000 -0.0000
vn -0.0000 1.0000 -0.0000
vn -0.0000 -0.0000 -1.0000
vt 0.460938 0.976562
vt 0.460938 0.999969
vt 0.437500 0.999969
vt 0.437500 0.976562
vt 0.437500 0.937500
vt 0.414062 0.999969
vt 0.414062 0.937500
vt 0.414062 0.718750
vt 0.476562 0.718750
vt 0.476562 0.937500
vt 0.500000 0.718750
vt 0.500000 0.937500
vt 0.078125 0.515625
vt 0.078125 0.578125
vt 0.015625 0.578125
vt 0.015625 0.515625
vt 0.476562 0.999969
vt 0.500000 0.999969
vt 0.390625 0.999969
vt 0.390625 0.937500
vt 0.390625 0.695312
vt 0.414062 0.695312
vt 0.390625 0.718750
vt 0.390625 0.632812
vt 0.414062 0.632812
vt 0.476562 0.632812
vt 0.500000 0.632812
vt 0.500000 0.695312
vt 0.476562 0.695312
vt 0.414062 0.609375
vt 0.476562 0.609375
vt 0.500000 0.609375
vt 0.390625 0.609375
s 1
usemtl MI_Windswept_Orb
f 16/1/1 14/2/1 15/3/1 13/4/1
f 4/3/1 2/4/1 3/1/1 1/2/1
f 48/5/5 47/3/5 45/6/5 46/7/5
f 104/8/4 101/9/4 98/10/4 103/7/4
f 78/9/3 77/11/3 74/12/3 76/10/3
f 72/13/2 70/14/2 71/15/2 69/16/2
f 96/17/2 91/10/2 93/12/2 95/18/2
f 103/7/4 108/6/4 107/19/4 105/20/4
f 100/12/4 99/18/4 97/17/4 98/10/4
f 144/21/6 142/22/6 138/8/6 143/23/6
f 68/13/4 66/14/4 67/15/4 65/16/4
f 117/12/5 115/10/5 116/9/5 118/11/5
f 20/6/2 18/7/2 19/5/2 17/3/2
f 79/7/3 81/20/3 82/23/3 80/8/3
f 28/7/3 26/5/3 27/3/3 25/6/3
f 8/4/1 6/1/1 7/2/1 5/3/1
f 80/8/3 78/9/3 76/10/3 79/7/3
f 103/7/4 105/20/4 106/23/4 104/8/4
f 36/5/4 35/3/4 33/6/4 34/7/4
f 93/12/2 91/10/2 92/9/2 94/11/2
f 92/9/2 91/10/2 88/7/2 90/8/2
f 24/5/2 23/3/2 21/6/2 22/7/2
f 39/6/4 40/7/4 37/5/4 38/3/4
f 52/13/6 49/14/6 50/15/6 51/16/6
f 44/6/5 42/7/5 43/5/5 41/3/5
f 147/24/6 145/25/6 142/22/6 144/21/6
f 90/8/2 88/7/2 85/20/2 89/23/2
f 88/7/2 86/6/2 87/19/2 85/20/2
f 124/26/1 122/27/1 123/28/1 121/29/1
f 54/13/1 56/14/1 55/15/1 53/16/1
f 145/25/6 139/26/6 136/29/6 142/22/6
f 64/14/3 62/15/3 63/16/3 61/13/3
f 120/17/5 115/10/5 117/12/5 119/18/5
f 76/10/3 74/12/3 75/18/3 73/17/3
f 60/14/5 58/15/5 59/16/5 57/13/5
f 139/26/6 137/27/6 134/28/6 136/29/6
f 129/9/1 130/8/1 128/22/1 121/29/1
f 132/21/1 131/24/1 127/25/1 128/22/1
f 114/23/5 113/8/5 109/7/5 112/20/5
f 111/19/5 112/20/5 109/7/5 110/6/5
f 124/26/1 127/25/1 125/30/1 126/31/1
f 116/9/5 115/10/5 109/7/5 113/8/5
f 79/7/3 84/6/3 83/19/3 81/20/3
f 141/31/6 140/32/6 137/27/6 139/26/6
f 142/22/6 136/29/6 133/9/6 138/8/6
f 136/29/6 134/28/6 135/11/6 133/9/6
f 146/30/6 141/31/6 139/26/6 145/25/6
f 148/33/6 146/30/6 145/25/6 147/24/6
f 12/1/1 11/2/1 9/3/1 10/4/1
f 31/6/3 32/7/3 29/5/3 30/3/3
f 102/11/4 100/12/4 98/10/4 101/9/4
f 127/25/1 124/26/1 121/29/1 128/22/1
