# Blender 5.0.1
# www.blender.org
mtllib BP_WoodlandKeyGate_Silver.mtl
o SM_WoodlandKeygate.001
v -350.000153 -24.998518 299.999969
v -350.000305 -74.998535 -0.000041
v -350.000336 -74.998512 299.999969
v -350.000122 -24.998539 -0.000045
v -350.000336 -74.998512 299.999969
v -300.000275 -74.998718 -0.000035
v -300.000336 -74.998695 299.999969
v -350.000305 -74.998535 -0.000041
v -300.000153 -24.998699 299.999969
v -350.000153 -24.998518 299.999969
v -350.000336 -74.998512 299.999969
v -300.000336 -74.998695 299.999969
v -300.000275 -74.998718 -0.000035
v -350.000305 -74.998535 -0.000041
v -350.000122 -24.998539 -0.000045
v -300.000122 -24.998720 -0.000038
v -300.000336 -74.998695 299.999969
v -300.000122 -24.998720 -0.000038
v -300.000153 -24.998699 299.999969
v -300.000275 -74.998718 -0.000035
v -350.000153 -24.998518 299.999969
v -300.000153 -24.998699 299.999969
v -300.000122 -24.998720 -0.000038
v -350.000122 -24.998539 -0.000045
v 350.000061 24.998987 300.000061
v 350.000305 74.998962 0.000041
v 350.000244 74.998985 300.000061
v 350.000122 24.998966 0.000045
v 350.000244 74.998985 300.000061
v 300.000275 74.999146 0.000035
v 300.000244 74.999161 300.000061
v 350.000305 74.998962 0.000041
v 350.000244 74.998985 300.000061
v 300.000244 74.999161 300.000061
v 300.000061 24.999168 300.000061
v 350.000061 24.998987 300.000061
v 350.000122 24.998966 0.000045
v 300.000122 24.999147 0.000038
v 300.000275 74.999146 0.000035
v 350.000305 74.998962 0.000041
v 300.000244 74.999161 300.000061
v 300.000122 24.999147 0.000038
v 300.000061 24.999168 300.000061
v 300.000275 74.999146 0.000035
v 350.000061 24.998987 300.000061
v 300.000061 24.999168 300.000061
v 300.000122 24.999147 0.000038
v 350.000122 24.998966 0.000045
v -0.000020 25.000177 300.000000
v -0.000112 -24.999784 -0.000003
v -0.000201 -24.999821 300.000000
v 0.000068 25.000214 0.000003
v 49.999981 24.999996 300.000031
v 0.000068 25.000214 0.000003
v -0.000020 25.000177 300.000000
v 50.000069 25.000032 0.000018
v 0.000068 25.000214 0.000003
v 49.999889 -24.999964 0.000012
v -0.000112 -24.999784 -0.000003
v 50.000069 25.000032 0.000018
v -0.000201 -24.999821 300.000000
v 49.999802 -25.000000 300.000031
v -0.000020 25.000177 300.000000
v 49.999981 24.999996 300.000031
v -0.000201 -24.999821 300.000000
v 49.999889 -24.999964 0.000012
v 49.999802 -25.000000 300.000031
v -0.000112 -24.999784 -0.000003
v 199.999847 -25.000534 300.000061
v 299.999939 -25.000854 0.000086
v 299.999847 -25.000891 300.000092
v 199.999939 -25.000498 0.000056
v 300.000031 24.999111 300.000092
v 200.000122 24.999500 0.000062
v 200.000031 24.999464 300.000061
v 300.000122 24.999147 0.000092
v 200.000122 24.999500 0.000062
v 299.999939 -25.000854 0.000086
v 199.999939 -25.000498 0.000056
v 300.000122 24.999147 0.000092
v 199.999847 -25.000534 300.000061
v 299.999847 -25.000891 300.000092
v 200.000031 24.999464 300.000061
v 300.000031 24.999111 300.000092
v 349.999939 -25.001032 0.000101
v 349.999847 -25.001068 300.000122
v 349.999847 -25.001068 300.000122
v 350.000122 24.998966 0.000107
v 350.000031 24.998930 300.000122
v 349.999939 -25.001032 0.000101
v 349.999847 -25.001068 300.000122
v 350.000031 24.998930 300.000122
v 349.999939 -25.001032 0.000101
v 350.000122 24.998966 0.000107
v 350.000031 24.998930 300.000122
v 350.000122 24.998966 0.000107
v 99.999802 -25.000175 300.000031
v 99.999893 -25.000141 0.000027
v 100.000076 24.999861 0.000033
v 99.999985 24.999826 300.000031
v 100.000076 24.999861 0.000033
v 99.999893 -25.000141 0.000027
v 99.999802 -25.000175 300.000031
v 99.999985 24.999826 300.000031
v 299.999878 -25.000832 300.000061
v 299.999756 -75.000854 0.000045
v 299.999695 -75.000839 300.000061
v 299.999939 -25.000853 0.000042
v 299.999695 -75.000839 300.000061
v 349.999756 -75.001038 0.000052
v 349.999695 -75.001015 300.000061
v 299.999756 -75.000854 0.000045
v 349.999878 -25.001013 300.000061
v 299.999878 -25.000832 300.000061
v 299.999695 -75.000839 300.000061
v 349.999695 -75.001015 300.000061
v 349.999756 -75.001038 0.000052
v 299.999756 -75.000854 0.000045
v 299.999939 -25.000853 0.000042
v 349.999939 -25.001034 0.000048
v 349.999695 -75.001015 300.000061
v 349.999939 -25.001034 0.000048
v 349.999878 -25.001013 300.000061
v 349.999756 -75.001038 0.000052
v 299.999878 -25.000832 300.000061
v 349.999878 -25.001013 300.000061
v 349.999939 -25.001034 0.000048
v 299.999939 -25.000853 0.000042
v -0.000201 -24.999823 300.000000
v -0.000112 -24.999786 -0.000003
v -0.000020 25.000177 300.000000
v 0.000068 25.000214 0.000003
v -50.000023 25.000359 300.000000
v -0.000020 25.000177 300.000000
v 0.000068 25.000214 0.000003
v -49.999935 25.000395 -0.000012
v -0.000112 -24.999786 -0.000003
v -50.000114 -24.999607 -0.000018
v -49.999935 25.000395 -0.000012
v 0.000068 25.000214 0.000003
v -50.000023 25.000359 300.000000
v -0.000201 -24.999823 300.000000
v -0.000020 25.000177 300.000000
v -50.000206 -24.999643 300.000000
v -0.000201 -24.999823 300.000000
v -50.000206 -24.999643 300.000000
v -50.000114 -24.999607 -0.000018
v -0.000112 -24.999786 -0.000003
v -200.000214 -24.999109 299.999939
v -300.000214 -24.998755 299.999908
v -300.000153 -24.998718 -0.000092
v -200.000122 -24.999075 -0.000062
v -300.000061 25.001244 299.999939
v -200.000031 25.000893 299.999969
v -199.999939 25.000927 -0.000056
v -299.999969 25.001280 -0.000086
v -200.000122 -24.999075 -0.000062
v -300.000153 -24.998718 -0.000092
v -299.999969 25.001280 -0.000086
v -199.999939 25.000927 -0.000056
v -300.000061 25.001244 299.999939
v -200.000214 -24.999109 299.999939
v -200.000031 25.000893 299.999969
v -300.000214 -24.998755 299.999908
v -350.000244 -24.998575 299.999908
v -350.000153 -24.998539 -0.000107
v -350.000061 25.001425 299.999908
v -349.999969 25.001461 -0.000101
v -350.000244 -24.998575 299.999908
v -350.000153 -24.998539 -0.000107
v -350.000061 25.001425 299.999908
v -350.000244 -24.998575 299.999908
v -350.000153 -24.998539 -0.000107
v -349.999969 25.001461 -0.000101
v -350.000061 25.001425 299.999908
v -349.999969 25.001461 -0.000101
v -100.000206 -24.999466 299.999969
v -100.000122 -24.999430 -0.000033
v -100.000031 25.000538 300.000000
v -99.999939 25.000574 -0.000027
v -100.000122 -24.999430 -0.000033
v -99.999939 25.000574 -0.000027
v -100.000206 -24.999466 299.999969
v -100.000031 25.000538 300.000000
v -299.999969 25.001301 299.999969
v -299.999756 75.001282 -0.000045
v -299.999786 75.001305 299.999969
v -299.999939 25.001280 -0.000042
v -299.999786 75.001305 299.999969
v -349.999756 75.001465 -0.000052
v -349.999786 75.001488 299.999969
v -299.999756 75.001282 -0.000045
v -299.999786 75.001305 299.999969
v -349.999786 75.001488 299.999969
v -349.999969 25.001482 299.999969
v -299.999969 25.001301 299.999969
v -299.999939 25.001280 -0.000042
v -349.999939 25.001461 -0.000048
v -349.999756 75.001465 -0.000052
v -299.999756 75.001282 -0.000045
v -349.999786 75.001488 299.999969
v -349.999939 25.001461 -0.000048
v -349.999969 25.001482 299.999969
v -349.999756 75.001465 -0.000052
v -299.999969 25.001301 299.999969
v -349.999969 25.001482 299.999969
v -349.999939 25.001461 -0.000048
v -299.999939 25.001280 -0.000042
v -56.250004 25.000412 225.000000
v 56.250050 25.000023 75.000023
v 56.250004 25.000004 225.000031
v -56.249958 25.000429 74.999985
v -56.249958 37.500412 225.000000
v -56.249958 25.000429 74.999985
v -56.250004 25.000412 225.000000
v -56.249912 37.500431 74.999992
v 56.250050 37.500004 225.000031
v -56.249912 37.500431 74.999992
v -56.249958 37.500412 225.000000
v 56.250095 37.500023 75.000023
v 56.250004 25.000004 225.000031
v 56.250095 37.500023 75.000023
v 56.250050 37.500004 225.000031
v 56.250050 25.000023 75.000023
v -56.249912 37.500431 74.999992
v 56.250095 37.500023 75.000023
v -56.249958 25.000429 74.999985
v 56.250050 25.000023 75.000023
v -56.250004 25.000412 225.000000
v 56.250004 25.000004 225.000031
v -56.249958 37.500412 225.000000
v 56.250050 37.500004 225.000031
vn -1.0000 -0.0000 -0.0000
vn -0.0000 -1.0000 -0.0000
vn -0.0000 -0.0000 1.0000
vn -0.0000 -0.0000 -1.0000
vn 1.0000 -0.0000 -0.0000
vn -0.0000 1.0000 -0.0000
vt 0.250000 0.250000
vt 0.500000 0.250000
vt 0.500000 0.999969
vt 0.250000 0.999969
vt 0.375000 0.250000
vt 0.375000 0.999969
vt 0.125000 0.250000
vt 0.000031 0.250000
vt 0.000031 0.125000
vt 0.125000 0.125000
vt 0.125000 0.999969
vt 0.000031 0.999969
vt 0.250000 0.125000
vt 0.249878 0.250000
vt 0.500000 0.125000
vt 0.750000 0.125000
vt 0.750000 0.250000
vt 0.625000 0.250000
vt 0.625000 0.125000
vt 0.328125 0.562500
vt 0.359375 0.562500
vt 0.359375 0.937500
vt 0.328125 0.937500
vt 0.500000 0.000000
vt 0.375000 0.000000
vt 0.375000 0.125000
vt 0.015625 0.562500
vt 0.046875 0.562500
vt 0.046875 0.937500
vt 0.015625 0.937500
vt 0.625000 0.000000
vt 0.750000 0.000000
vt 0.625000 0.999969
vt 0.250000 0.000000
vt 0.750000 0.999969
vt 0.046875 0.531250
vt 0.328125 0.531250
vt 0.421875 0.562500
vt 0.703125 0.562500
vt 0.703125 0.937500
vt 0.421875 0.937500
vt 0.046875 0.968750
vt 0.328125 0.968750
s 1
usemtl MI_WoodlandGate
f 76/1/6 74/2/6 75/3/6 73/4/6
f 96/5/6 76/2/6 73/3/6 95/6/6
f 98/1/2 72/2/2 69/3/2 97/4/2
f 40/7/4 37/8/4 38/9/4 39/10/4
f 44/8/1 42/7/1 43/11/1 41/12/1
f 160/13/4 157/14/4 158/2/4 159/15/4
f 156/1/6 153/4/6 154/3/6 155/2/6
f 180/1/6 179/4/6 133/6/6 136/5/6
f 140/16/4 137/17/4 138/18/4 139/19/4
f 183/24/3 144/25/3 141/26/3 184/15/3
f 155/1/6 154/4/6 179/3/6 180/2/6
f 192/8/6 190/7/6 191/11/6 189/12/6
f 182/13/4 181/14/4 157/2/4 160/15/4
f 124/8/5 122/7/5 123/11/5 121/12/5
f 132/7/5 131/11/5 129/4/5 130/1/5
f 60/19/4 58/18/4 59/17/4 57/16/4
f 144/31/3 142/32/3 143/16/3 141/19/3
f 90/2/5 88/18/5 89/33/5 87/3/5
f 170/2/1 169/3/1 167/33/1 168/18/1
f 82/24/3 84/15/3 83/13/3 81/34/3
f 70/1/2 85/5/2 86/6/2 71/4/2
f 24/7/6 21/11/6 22/4/6 23/1/6
f 48/7/2 45/11/2 46/4/2 47/1/2
f 136/18/6 133/33/6 134/35/6 135/17/6
f 4/8/1 2/7/1 3/11/1 1/12/1
f 28/8/5 26/7/5 27/11/5 25/12/5
f 116/7/3 113/8/3 114/9/3 115/10/3
f 196/9/3 193/10/3 194/7/3 195/8/3
f 56/18/6 54/17/6 55/35/6 53/33/6
f 36/9/3 33/10/3 34/7/3 35/8/3
f 68/17/2 66/18/2 67/33/2 65/35/2
f 176/5/6 175/6/6 153/3/6 156/2/6
f 52/7/1 50/1/1 51/4/1 49/11/1
f 16/9/4 13/10/4 14/7/4 15/8/4
f 151/1/2 150/4/2 165/6/2 166/5/2
f 159/19/4 158/18/4 173/17/4 174/16/4
f 120/9/4 117/10/4 118/7/4 119/8/4
f 8/8/2 6/7/2 7/11/2 5/12/2
f 80/15/4 78/2/4 79/14/4 77/13/4
f 112/8/2 110/7/2 111/11/2 109/12/2
f 62/31/3 64/19/3 63/16/3 61/32/3
f 178/1/2 177/4/2 149/3/2 152/2/2
f 99/1/6 56/5/6 53/6/6 100/4/6
f 81/24/3 83/15/3 104/13/3 103/34/3
f 12/7/3 9/8/3 10/9/3 11/10/3
f 94/16/4 93/17/4 78/18/4 80/19/4
f 147/5/2 146/6/2 177/3/2 178/2/2
f 91/32/3 92/16/3 84/19/3 82/31/3
f 74/1/6 99/2/6 100/3/6 75/4/6
f 208/7/2 205/11/2 206/4/2 207/1/2
f 108/8/1 106/7/1 107/11/1 105/12/1
f 77/15/4 79/2/4 102/14/4 101/13/4
f 32/8/6 30/7/6 31/11/6 29/12/6
f 148/17/2 145/35/2 146/33/2 147/18/2
f 66/5/2 98/2/2 97/3/2 67/6/2
f 103/24/3 104/15/3 64/26/3 62/25/3
f 172/32/3 164/31/3 161/19/3 171/16/3
f 139/26/4 138/5/4 181/2/4 182/15/4
f 204/8/1 202/7/1 203/11/1 201/12/1
f 101/15/4 102/2/4 58/5/4 60/26/4
f 188/8/5 186/7/5 187/11/5 185/12/5
f 152/1/2 149/4/2 150/3/2 151/2/2
f 72/1/2 70/2/2 71/3/2 69/4/2
f 128/7/6 125/11/6 126/4/6 127/1/6
f 200/7/4 197/8/4 198/9/4 199/10/4
f 164/24/3 162/34/3 163/13/3 161/15/3
f 212/38/2 210/39/2 211/40/2 209/41/2
f 162/24/3 183/34/3 184/13/3 163/15/3
f 20/8/5 18/7/5 19/11/5 17/12/5
usemtl MI_GateLocks_Silver
f 216/20/1 214/21/1 215/22/1 213/23/1
f 224/27/5 222/28/5 223/29/5 221/30/5
f 226/28/4 228/36/4 227/37/4 225/20/4
f 220/28/6 218/20/6 219/23/6 217/29/6
f 230/42/3 232/29/3 231/23/3 229/43/3
