# Blender 5.0.1
# www.blender.org
mtllib BP_WoodlandGateBase.mtl
o SM_WM_Gate_5.001
v 200.000092 -24.999931 299.999939
v 200.000000 24.999992 -0.000066
v 200.000092 25.000072 299.999939
v 200.000000 -25.000011 -0.000053
v 150.000092 -24.999928 299.999969
v 200.000000 -25.000011 -0.000053
v 200.000092 -24.999931 299.999939
v 150.000000 -25.000008 -0.000038
v 150.000000 -25.000008 -0.000038
v 150.000000 24.999996 -0.000051
v 200.000000 24.999992 -0.000066
v 200.000000 -25.000011 -0.000053
v 200.000092 -24.999931 299.999939
v 200.000092 25.000072 299.999939
v 150.000092 25.000076 299.999939
v 150.000092 -24.999928 299.999969
v 200.000092 25.000072 299.999939
v 150.000000 24.999996 -0.000051
v 150.000092 25.000076 299.999939
v 200.000000 24.999992 -0.000066
v -49.999912 25.000084 300.000000
v -150.000000 25.000008 0.000038
v -149.999908 25.000088 300.000031
v -50.000000 25.000004 0.000008
v -149.999908 -24.999916 300.000061
v -50.000000 -25.000000 0.000021
v -49.999912 -24.999920 300.000031
v -150.000000 -24.999996 0.000051
v -150.000000 -24.999996 0.000051
v -150.000000 25.000008 0.000038
v -50.000000 25.000004 0.000008
v -50.000000 -25.000000 0.000021
v -49.999912 25.000084 300.000000
v -149.999908 25.000088 300.000031
v -49.999912 -24.999920 300.000031
v -149.999908 -24.999916 300.000061
v -200.000000 25.000011 0.000053
v -199.999908 25.000092 300.000061
v -199.999908 25.000092 300.000061
v -200.000000 -24.999992 0.000066
v -199.999908 -24.999912 300.000061
v -200.000000 25.000011 0.000053
v -199.999908 25.000092 300.000061
v -199.999908 -24.999912 300.000061
v -200.000000 -24.999992 0.000066
v -200.000000 25.000011 0.000053
v -199.999908 -24.999912 300.000061
v -200.000000 -24.999992 0.000066
v 50.000088 25.000080 299.999969
v 50.000000 25.000000 -0.000021
v 50.000000 -25.000004 -0.000008
v 50.000088 -24.999924 300.000000
v 50.000000 25.000000 -0.000021
v 50.000000 -25.000004 -0.000008
v 50.000088 25.000080 299.999969
v 50.000088 -24.999924 300.000000
vn 1.0000 -0.0000 -0.0000
vn -0.0000 -1.0000 -0.0000
vn -0.0000 -0.0000 -1.0000
vn -0.0000 -0.0000 1.0000
vn -0.0000 1.0000 -0.0000
vn -1.0000 -0.0000 -0.0000
vt 0.625000 0.125000
vt 0.750000 0.125000
vt 0.750000 0.000000
vt 0.625000 0.000000
vt 0.250000 0.250000
vt 0.375000 0.250000
vt 0.375000 0.999969
vt 0.250000 0.999969
vt 0.500000 0.125000
vt 0.250000 0.125000
vt 0.250000 0.000000
vt 0.500000 0.000000
vt 0.500000 0.250000
vt 0.500000 0.999969
vt 0.625000 0.250000
vt 0.625000 0.999969
vt 0.249878 0.250000
vt 0.750000 0.250000
s 1
usemtl MI_WoodlandGate
f 16/1/4 13/2/4 14/3/4 15/4/4
f 22/5/5 37/6/5 38/7/5 23/8/5
f 35/9/4 56/10/4 55/11/4 33/12/4
f 44/2/4 36/1/4 34/4/4 43/3/4
f 48/6/2 28/13/2 25/14/2 47/7/2
f 36/9/4 35/10/4 33/11/4 34/12/4
f 26/5/2 51/13/2 52/14/2 27/8/2
f 28/5/2 26/13/2 27/14/2 25/8/2
f 8/5/2 6/6/2 7/7/2 5/8/2
f 42/13/6 40/15/6 41/16/6 39/14/6
f 20/6/5 18/13/5 19/14/5 17/7/5
f 24/5/5 22/13/5 23/14/5 21/8/5
f 4/13/1 2/15/1 3/16/1 1/14/1
f 51/5/2 8/13/2 5/14/2 52/8/2
f 50/5/5 24/13/5 21/14/5 49/8/5
f 32/10/3 29/9/3 30/13/3 31/17/3
f 18/5/5 50/13/5 49/14/5 19/8/5
f 29/1/3 45/2/3 46/18/3 30/15/3
f 12/2/3 9/1/3 10/15/3 11/18/3
f 54/10/3 32/9/3 31/13/3 53/17/3
f 9/10/3 54/9/3 53/13/3 10/17/3
f 56/9/4 16/10/4 15/11/4 55/12/4
