# Blender 5.0.1
# www.blender.org
mtllib BP_WaterTrough.mtl
o SM_WaterTrough.001
v 87.563370 -30.702333 43.750000
v -87.436638 -30.702333 43.750000
v -87.436638 -30.702332 -0.000001
v 87.563370 -30.702332 -0.000001
v -81.186630 -24.452333 31.249996
v 81.313370 -24.452333 31.249996
v 81.313370 25.547668 31.250000
v -81.186630 25.547668 31.250000
v 87.563370 31.797670 0.000001
v -87.436638 31.797670 0.000001
v -87.436638 31.797668 43.750000
v 87.563370 31.797668 43.750000
v 87.563370 -30.702333 43.750000
v 87.563370 -30.702332 -0.000001
v 87.563370 31.797668 43.750000
v 87.563370 31.797670 0.000001
v -87.436638 -30.702333 43.750000
v -87.436638 31.797670 0.000001
v -87.436638 -30.702332 -0.000001
v -87.436638 31.797668 43.750000
v 81.313370 -24.452333 31.249996
v -81.186630 -24.452333 31.249996
v -81.186630 -24.452333 43.750000
v 81.313370 -24.452333 43.750000
v 81.313370 25.547668 31.250000
v 81.313370 -24.452333 31.249996
v 81.313370 -24.452333 43.750000
v 81.313370 25.547668 43.750000
v -81.186630 25.547668 31.250000
v 81.313370 25.547668 43.750000
v -81.186630 25.547668 43.750000
v 81.313370 25.547668 31.250000
v -81.186630 -24.452333 31.249996
v -81.186630 25.547668 43.750000
v -81.186630 -24.452333 43.750000
v -81.186630 25.547668 31.250000
v 81.313370 -24.452333 43.750000
v -87.436638 -30.702333 43.750000
v 87.563370 -30.702333 43.750000
v -81.186630 -24.452333 43.750000
v 87.563370 31.797668 43.750000
v 81.313370 25.547668 43.750000
v -87.436638 31.797668 43.750000
v -81.186630 25.547668 43.750000
vn -0.0000 -1.0000 -0.0000
vn -0.0000 -0.0000 1.0000
vn -0.0000 1.0000 -0.0000
vn 1.0000 -0.0000 -0.0000
vn -1.0000 -0.0000 -0.0000
vt 0.468750 0.312500
vt 0.250000 0.312500
vt 0.250000 0.000000
vt 0.468750 0.000000
vt 0.218750 0.875000
vt 0.000031 0.875000
vt 0.000031 0.000000
vt 0.218750 0.000000
vt 0.437500 0.312500
vt 0.437500 0.562500
vt 0.375000 0.562500
vt 0.375000 0.312500
vt 0.500000 0.000000
vt 0.750000 0.000000
vt 0.750000 0.812500
vt 0.500000 0.812500
vt 0.875000 0.000000
vt 0.937500 0.000000
vt 0.937500 0.812500
vt 0.875000 0.812500
vt 0.250000 0.031250
vt 0.250000 0.843750
vt 0.500000 0.031250
vt 0.500000 0.281250
s 1
usemtl MI_Watertrough
f 20/1/5 18/2/5 19/3/5 17/4/5
f 12/5/3 9/6/3 10/7/3 11/8/3
f 27/9/5 28/10/5 25/11/5 26/12/5
f 4/7/1 1/8/1 2/5/1 3/6/1
f 8/13/2 5/14/2 6/15/2 7/16/2
f 32/17/1 30/18/1 31/19/1 29/20/1
f 24/19/3 21/20/3 22/17/3 23/18/3
f 14/2/4 16/3/4 15/4/4 13/1/4
f 39/8/2 37/21/2 38/5/2
f 40/22/2 38/5/2 37/21/2
f 42/23/2 39/1/2 41/4/2
f 37/24/2 39/1/2 42/23/2
f 44/21/2 41/5/2 43/8/2
f 42/22/2 41/5/2 44/21/2
f 43/1/2 38/4/2 44/24/2
f 40/23/2 44/24/2 38/4/2
f 36/12/4 34/9/4 35/10/4 33/11/4
