# Blender 5.0.1
# www.blender.org
mtllib BP_Yellow_Grey_002.mtl
o SM_Yellow_Grey_002.001
v 0.000000 -100.000542 99.999977
v -100.000000 -100.000542 99.999977
v -100.000000 -100.000542 -0.000023
v 0.000000 -100.000542 -0.000023
v -100.000000 -100.000542 99.999977
v -100.000000 -0.000057 99.999977
v -100.000000 -0.000057 -0.000023
v -100.000000 -100.000542 -0.000023
v 100.000000 -100.000542 99.999977
v 100.000000 -100.000542 -0.000023
v 200.000000 -100.000542 99.999977
v 200.000000 -100.000542 -0.000023
v 200.000000 -0.000545 99.999977
v 200.000000 -100.000542 99.999977
v 200.000000 -100.000542 -0.000023
v 200.000000 -0.000545 -0.000023
v 200.000000 -0.000545 199.999969
v 100.000000 -0.000301 199.999969
v 100.000000 -100.000542 199.999969
v 200.000000 -100.000542 199.999969
v 200.000000 -100.000542 199.999969
v 100.000000 -100.000542 199.999969
v 200.000000 -0.000545 199.999969
v 200.000000 -100.000542 199.999969
v 0.000000 -100.000542 199.999969
v -100.000000 -100.000542 199.999969
v -100.000000 -100.000542 199.999969
v -100.000000 -0.000057 199.999969
v 0.000000 -100.000542 399.999969
v -100.000000 -100.000542 399.999969
v -100.000000 -100.000542 299.999969
v 0.000000 -100.000542 299.999969
v -100.000000 -100.000542 399.999969
v -100.000000 -0.000057 399.999969
v -100.000000 -0.000057 299.999969
v -100.000000 -100.000542 299.999969
v 100.000000 -100.000542 299.999969
v 100.000000 -100.000542 299.999969
v 100.000000 -0.000301 199.999969
v 100.000000 -0.000057 299.999969
v 100.000000 -100.000542 199.999969
v -100.000000 100.000435 199.999969
v 0.000000 100.000435 199.999969
v 0.000000 100.000435 99.999977
v -100.000000 100.000435 99.999977
v -100.000000 100.000435 199.999969
v -100.000000 100.000435 99.999977
v 0.000244 -0.000026 499.999969
v 100.000000 -100.000542 499.999969
v 100.000336 0.000149 499.999969
v 0.000000 -100.000542 499.999969
v 100.000000 -100.000542 499.999969
v 0.000000 -100.000542 499.999969
v 100.000000 -100.000542 399.999969
v 100.000000 -100.000542 499.999969
v 100.000000 -0.000057 399.999969
v 100.000336 0.000149 499.999969
v 100.000000 -100.000542 399.999969
v -100.000000 -100.000542 499.999969
v -100.000000 -100.000542 499.999969
v -100.000000 -0.000057 499.999969
v 0.000000 -0.000057 599.999939
v -100.000000 -0.000057 599.999939
v -100.000000 -100.000542 599.999939
v 0.000000 -100.000542 599.999939
v 0.000000 -100.000542 599.999939
v -100.000000 -100.000542 599.999939
v -100.000000 -100.000542 599.999939
v -100.000000 -0.000057 599.999939
v 0.000000 100.000435 599.999939
v -100.000000 100.000435 599.999939
v -100.000000 100.000435 599.999939
v -100.000000 100.000435 499.999969
v 0.000549 100.000496 550.000427
v 100.000977 0.000558 550.000488
v 100.000977 100.000557 550.000488
v 0.000549 0.000256 550.000305
v 0.000549 0.000256 550.000305
v 100.000336 0.000149 499.999969
v 100.000977 0.000558 550.000488
v 0.000244 -0.000026 499.999969
v 100.000977 0.000558 550.000488
v 100.000488 100.000496 499.999969
v 100.000977 100.000557 550.000488
v 0.000549 100.000496 550.000427
v 100.000977 100.000557 550.000488
v 100.000488 100.000496 499.999969
v 0.000244 100.000465 499.999969
v 100.000000 100.000435 399.999969
v 100.000000 100.000435 399.999969
v 0.000000 100.000435 399.999969
v 100.000000 100.000435 299.999969
v 100.000000 100.000435 299.999969
v 0.000000 100.000435 299.999969
v 200.000000 99.999458 199.999969
v 100.000000 100.000114 199.999969
v 200.000000 99.999458 199.999969
v 200.000000 99.999458 99.999977
v 100.000000 100.000114 199.999969
v 200.000000 99.999458 199.999969
v 200.000000 99.999458 99.999977
v 100.000000 99.999947 99.999977
v 100.000000 100.000114 199.999969
v 200.000000 99.999458 -0.000023
v 200.000000 99.999458 -0.000023
v 100.000000 99.999947 -0.000023
v 0.000000 100.000435 -0.000023
v -100.000000 100.000435 -0.000023
v -100.000000 100.000435 -0.000023
v -100.000000 100.000435 299.999969
v -100.000000 100.000435 299.999969
v -100.000000 100.000435 399.999969
v -100.000000 100.000435 399.999969
v -100.000000 100.000435 499.999969
v 0.000000 100.000435 599.999939
v 0.000000 -0.000057 599.999939
v 0.000549 0.000256 550.000305
v 0.000549 100.000496 550.000427
v -100.000000 100.000435 599.999939
v 0.000000 100.000435 599.999939
v 0.000000 -100.000542 599.999939
v 0.000000 -100.000542 499.999969
v 0.000244 -0.000026 499.999969
vn -0.0000 -1.0000 -0.0000
vn -1.0000 -0.0000 -0.0000
vn 1.0000 -0.0000 -0.0000
vn -0.0000 -0.0000 1.0000
vn -0.0000 1.0000 -0.0000
vt 1.000000 0.000000
vt 1.000000 0.250000
vt 0.750000 0.250000
vt 0.750000 0.000000
vt 0.750000 0.500000
vt 0.500000 0.500000
vt 0.500000 0.250000
vt 1.000000 0.500000
vt 0.500000 0.750000
vt 0.250000 0.750000
vt 0.250000 0.500000
vt 1.000000 0.750000
vt 1.000000 0.999969
vt 0.750000 0.999969
vt 0.750000 0.750000
vt 1.000000 0.125000
vt 0.750000 0.125000
vt 1.000000 0.125488
vt 0.750000 0.125488
s 1
usemtl MI_End_MeshFades
f 92/1/3 89/2/3 56/3/3 40/4/3
f 42/3/5 110/5/5 94/6/5 43/7/5
f 98/2/3 97/8/3 23/5/3 13/3/3
f 27/3/2 36/5/2 35/6/2 28/7/2
f 62/6/4 70/9/4 71/10/4 63/11/4
f 41/7/3 39/3/3 40/5/3 38/6/3
f 54/1/1 52/2/1 53/3/1 29/4/1
f 11/2/1 21/8/1 22/5/1 9/3/1
f 10/3/1 9/5/1 1/6/1 4/7/1
f 40/1/3 56/2/3 58/3/3 38/4/3
f 36/1/2 33/2/2 34/3/2 35/4/2
f 8/3/2 5/5/2 6/6/2 7/7/2
f 4/3/1 1/5/1 2/6/1 3/7/1
f 25/3/1 32/5/1 31/6/1 26/7/1
f 102/2/5 99/8/5 100/5/5 101/3/5
f 104/3/3 98/5/3 13/6/3 16/7/3
f 22/3/1 37/5/1 32/6/1 25/7/1
f 94/1/5 91/2/5 90/3/5 93/4/5
f 9/2/1 22/8/1 25/5/1 1/3/1
f 17/12/4 95/13/4 96/14/4 18/15/4
f 12/3/1 11/5/1 9/6/1 10/7/1
f 91/1/5 88/2/5 87/3/5 90/4/5
f 1/2/1 25/8/1 26/5/1 2/3/1
f 16/3/3 13/5/3 14/6/3 15/7/3
f 107/3/5 44/5/5 102/6/5 106/7/5
f 53/1/1 66/2/1 67/3/1 59/4/1
f 110/1/5 112/2/5 91/3/5 94/4/5
f 20/12/4 17/13/4 18/14/4 19/15/4
f 33/1/2 60/2/2 61/3/2 34/4/2
f 5/2/2 27/8/2 28/5/2 6/3/2
f 37/1/1 54/2/1 29/3/1 32/4/1
f 39/7/3 103/3/3 92/5/3 40/6/3
f 88/1/5 85/16/5 86/17/5 87/4/5
f 81/4/1 79/1/1 80/16/1 78/17/1
f 77/11/4 75/6/4 76/9/4 74/10/4
f 51/11/4 49/6/4 50/9/4 48/10/4
f 13/2/3 23/8/3 24/5/3 14/3/3
f 35/1/2 34/2/2 113/3/2 111/4/2
f 57/4/3 83/1/3 84/16/3 82/17/3
f 45/2/5 42/8/5 43/5/5 44/3/5
f 44/2/5 43/8/5 99/5/5 102/3/5
f 118/18/3 115/2/3 116/3/3 117/19/3
f 56/4/3 89/1/3 83/2/3 57/3/3
f 6/2/2 28/8/2 46/5/2 47/3/2
f 61/1/2 69/2/2 72/3/2 73/4/2
f 28/3/2 35/5/2 111/6/2 46/7/2
f 29/1/1 53/2/1 59/3/1 30/4/1
f 108/3/5 45/5/5 44/6/5 107/7/5
f 7/3/2 6/5/2 47/6/2 109/7/2
f 60/1/2 68/2/2 69/3/2 61/4/2
f 32/1/1 29/2/1 30/3/1 31/4/1
f 65/6/4 62/9/4 63/10/4 64/11/4
f 43/3/5 94/5/5 93/6/5 99/7/5
f 106/3/5 102/5/5 101/6/5 105/7/5
f 112/1/5 114/2/5 88/3/5 91/4/5
f 58/4/3 56/1/3 57/2/3 55/3/3
f 85/19/5 119/2/5 120/3/5
f 119/2/5 85/19/5 114/1/5
f 88/4/5 114/1/5 85/19/5
f 121/3/3 117/18/3 116/2/3
f 122/4/3 117/18/3 121/3/3
f 123/1/3 117/18/3 122/4/3
f 34/1/2 61/2/2 73/3/2 113/4/2
