# Blender 5.0.1
# www.blender.org
mtllib BP_Yellow_Coral_01.mtl
o SM_Yellow_Coral_01.001
v 42.261726 90.630806 0.000015
v -42.261799 -90.630806 0.000015
v 42.261757 90.630791 100.000015
v -42.261772 -90.630821 100.000015
v -42.261917 90.630722 0.000019
v 42.261898 -90.630775 100.000015
v -42.261890 90.630737 100.000015
v 42.261875 -90.630783 0.000012
vn -0.9063 0.4226 -0.0000
vn -0.9063 -0.4226 -0.0000
vt 0.750000 0.500000
vt 0.750000 0.750000
vt 0.500000 0.750000
vt 0.500000 0.500000
s 1
usemtl MI_Coral_01
f 8/1/2 6/2/2 7/3/2 5/4/2
f 2/1/1 4/2/1 3/3/1 1/4/1
