# Blender 5.0.1
# www.blender.org
mtllib BP_Yellow_Island_Small_001.mtl
o SM_Yellow_Island_Small_001.001
v 0.000214 0.000015 200.000076
v -99.999756 0.000015 200.000076
v -99.999756 -99.999985 200.000076
v 0.000214 -99.999985 200.000076
v -99.999756 -99.999985 200.000076
v 0.000183 -99.999969 100.000061
v 0.000214 -99.999985 200.000076
v -99.999786 -99.999985 100.000069
v -99.999756 -99.999985 200.000076
v -99.999756 0.000015 200.000076
v -99.999786 0.000015 100.000069
v -99.999786 -99.999985 100.000069
v 0.000214 100.000015 200.000076
v -99.999756 100.000015 200.000076
v -99.999756 100.000015 200.000076
v 0.000214 100.000015 200.000076
v 0.000183 100.000015 100.000069
v -99.999786 100.000015 100.000069
v -99.999756 100.000015 200.000076
v -99.999786 100.000015 100.000069
v 100.000183 100.000015 200.000076
v 100.000183 0.000015 200.000076
v 100.000183 100.000015 200.000076
v 100.000183 0.000015 200.000076
v 100.000153 0.000031 100.000061
v 100.000153 100.000046 100.000053
v 100.000183 100.000015 200.000076
v 100.000153 100.000046 100.000053
v 100.000183 -99.999985 200.000076
v 100.000153 -99.999969 100.000061
v 100.000183 -99.999985 200.000076
v 100.000183 -99.999985 200.000076
v 100.000153 -99.999969 100.000061
v 0.000137 -99.999954 0.000031
v -99.999817 -99.999985 0.000031
v -99.999817 0.000015 0.000031
v -99.999817 -99.999985 0.000031
v 0.000153 100.000015 0.000031
v -99.999817 100.000015 0.000031
v -99.999817 100.000015 0.000031
v 0.000183 -99.999969 100.000061
v 100.000122 -199.999924 100.000046
v 100.000153 -99.999969 100.000061
v 0.000122 -199.999924 100.000046
v 0.000122 -199.999924 100.000046
v 100.000092 -199.999924 0.000046
v 100.000122 -199.999924 100.000046
v 0.000092 -199.999924 0.000046
v 100.000122 -199.999924 100.000046
v 100.000092 -199.999924 0.000046
v 100.000107 -99.999939 0.000046
v 0.000183 -99.999969 100.000061
v 0.000092 -199.999924 0.000046
v 0.000122 -199.999924 100.000046
v 0.000137 -99.999954 0.000031
v 100.000061 -199.999924 -99.999954
v 0.000084 -99.999947 -99.999985
v 100.000061 -99.999924 -99.999969
v 0.000061 -199.999924 -99.999954
v 100.000061 -199.999924 -99.999954
v 0.000061 -199.999924 -99.999954
v 100.000061 -199.999924 -99.999954
v 100.000061 -99.999924 -99.999969
v 0.000061 -199.999924 -99.999954
v 0.000084 -99.999947 -99.999985
v -99.999817 0.000015 -100.000000
v 0.000122 0.000031 -100.000000
v -99.999817 -99.999985 -100.000000
v 0.000084 -99.999947 -99.999985
v -99.999817 -99.999985 -100.000000
v -99.999817 0.000015 -100.000000
v -99.999817 -99.999985 -100.000000
v -99.999817 100.000015 -100.000000
v 0.000145 100.000015 -100.000015
v -99.999817 100.000015 -100.000000
v 0.000145 100.000015 -100.000015
v -99.999817 100.000015 -100.000000
v 100.000031 -99.999924 -200.000015
v 100.000061 -99.999924 -99.999969
v 0.000000 -99.999924 -199.999985
v 0.000122 0.000031 -100.000000
v 0.000000 -99.999924 -199.999985
v 0.000042 0.000057 -200.000015
v 100.000000 -99.999924 -300.000000
v 0.000000 -99.999924 -300.000000
v 100.000000 0.000076 -300.000000
v 0.000000 0.000076 -300.000000
v 100.000000 -99.999924 -300.000000
v 0.000000 -99.999924 -300.000000
v 100.000031 -99.999924 -200.000015
v 100.000000 0.000076 -300.000000
v 100.000061 0.000061 -199.999985
v 100.000000 -99.999924 -300.000000
v 0.000042 0.000057 -200.000015
v 100.000061 0.000061 -199.999985
v 100.000000 0.000076 -300.000000
v 0.000000 0.000076 -300.000000
v 0.000000 -99.999924 -300.000000
v 0.000000 0.000076 -300.000000
v 200.000061 -99.999924 -199.999985
v 100.000061 0.000061 -199.999985
v 200.000061 0.000076 -199.999985
v 100.000031 -99.999924 -200.000015
v 200.000061 -99.999924 -199.999985
v 200.000092 -99.999924 -99.999985
v 200.000076 0.000076 -99.999985
v 200.000092 -99.999924 -99.999985
v 200.000061 -99.999924 -199.999985
v 200.000061 0.000076 -199.999985
v 100.000122 0.000057 0.000031
v 200.000122 -99.999924 0.000015
v 200.000107 0.000076 0.000015
v 100.000107 -99.999939 0.000046
v 100.000107 -99.999939 0.000046
v 200.000122 -99.999924 0.000015
v 200.000107 0.000076 0.000015
v 200.000122 -99.999924 0.000015
v 100.000122 0.000057 0.000031
v 100.000153 100.000046 100.000053
v 200.000122 0.000076 100.000031
v 200.000122 100.000076 100.000031
v 100.000153 0.000031 100.000061
v 200.000122 0.000076 100.000031
v 100.000153 0.000031 100.000061
v 100.000122 0.000057 0.000031
v 200.000107 0.000076 0.000015
v 200.000122 0.000076 100.000031
v 200.000092 100.000076 0.000031
v 200.000122 100.000076 100.000031
v 200.000122 100.000076 100.000031
v 200.000092 100.000076 0.000031
v 100.000107 100.000046 0.000031
v 200.000061 100.000076 -99.999985
v 200.000061 100.000076 -99.999985
v 100.000092 100.000046 -100.000000
v 100.000092 100.000046 -199.999985
v 200.000061 100.000076 -199.999985
v 200.000061 100.000076 -199.999985
v 200.000061 100.000076 -199.999985
v 100.000092 100.000046 -199.999985
v 0.000122 100.000015 -200.000015
v 0.000042 0.000057 -200.000015
v 0.000122 100.000015 -200.000015
v 0.000145 100.000015 -100.000015
v 0.000122 100.000015 -200.000015
vn -0.0000 -0.0000 1.0000
vn -0.0000 -1.0000 -0.0000
vn -1.0000 -0.0000 -0.0000
vn -0.0000 1.0000 -0.0000
vn 1.0000 -0.0000 -0.0000
vn -0.0000 -0.0000 -1.0000
vt 0.500000 0.500000
vt 0.500000 0.750000
vt 0.250000 0.750000
vt 0.250000 0.500000
vt 0.750000 0.500000
vt 0.750000 0.750000
vt 1.000000 0.500000
vt 1.000000 0.750000
s 1
usemtl MI_End_MeshFades
f 36/1/3 11/2/3 20/3/3 40/4/3
f 78/4/2 104/1/2 105/2/2 79/3/2
f 72/1/3 37/2/3 36/3/3 71/4/3
f 11/5/3 10/6/3 19/2/3 20/1/3
f 6/1/2 30/5/2 31/6/2 7/2/2
f 106/4/5 133/1/5 128/2/5 116/3/5
f 71/1/3 36/2/3 40/3/3 77/4/3
f 35/4/2 34/1/2 6/2/2 8/3/2
f 132/5/4 28/6/4 130/2/4 131/1/4
f 4/7/1 1/8/1 2/6/1 3/5/1
f 61/4/2 60/1/2 46/2/2 48/3/2
f 116/1/5 128/5/5 129/6/5 127/2/5
f 17/5/4 16/6/4 27/2/4 28/1/4
f 22/7/1 21/8/1 13/6/1 1/5/1
f 126/5/2 123/6/2 124/2/2 125/1/2
f 1/7/1 13/8/1 14/6/1 2/5/1
f 122/5/1 120/7/1 121/8/1 119/6/1
f 18/5/4 15/6/4 16/2/4 17/1/4
f 55/1/3 53/5/3 54/6/3 52/2/3
f 48/1/2 46/5/2 47/6/2 45/2/2
f 8/1/2 6/5/2 7/6/2 5/2/2
f 39/1/4 18/2/4 17/3/4 38/4/4
f 51/5/5 33/6/5 49/2/5 50/1/5
f 44/5/1 42/7/1 43/8/1 41/6/1
f 97/1/4 94/2/4 95/3/4 96/4/4
f 99/4/3 98/1/3 82/2/3 83/3/3
f 29/7/1 22/8/1 1/6/1 4/5/1
f 135/1/4 132/2/4 131/3/4 134/4/4
f 109/1/5 106/2/5 107/3/5 108/4/5
f 12/5/3 9/6/3 10/2/3 11/1/3
f 68/1/6 66/2/6 67/3/6 57/4/6
f 118/1/5 25/2/5 33/3/5 51/4/5
f 37/1/3 12/2/3 11/3/3 36/4/3
f 25/5/5 24/6/5 32/2/5 33/1/5
f 145/4/3 83/1/3 81/2/3 144/3/3
f 93/4/5 91/1/5 92/2/5 90/3/5
f 142/1/6 141/2/6 136/3/6 101/4/6
f 101/1/6 136/2/6 137/3/6 102/4/6
f 138/1/5 133/2/5 106/3/5 109/4/5
f 63/1/5 51/2/5 50/3/5 62/4/5
f 38/1/4 17/2/4 28/3/4 132/4/4
f 85/1/6 87/2/6 86/3/6 84/4/6
f 103/1/6 101/2/6 102/3/6 100/4/6
f 26/5/5 23/6/5 24/2/5 25/1/5
f 66/1/6 73/2/6 74/3/6 67/4/6
f 76/1/4 38/2/4 132/3/4 135/4/4
f 79/1/2 105/5/2 115/6/2 114/2/2
f 140/1/4 135/2/4 134/3/4 139/4/4
f 143/1/4 76/2/4 135/3/4 140/4/4
f 65/4/3 64/1/3 53/2/3 55/3/3
f 89/4/2 88/1/2 78/2/2 80/3/2
f 76/4/4 75/1/4 39/2/4 38/3/4
f 80/4/2 78/1/2 79/2/2 69/3/2
f 59/1/6 57/2/6 58/3/6 56/4/6
f 83/4/3 82/1/3 65/2/3 81/3/3
f 113/5/1 111/7/1 112/8/1 110/6/1
f 70/4/2 69/1/2 34/2/2 35/3/2
f 106/5/5 116/6/5 117/2/5 107/1/5
