# Blender 5.0.1
# www.blender.org
mtllib BP_Yellow_Island_Large_002.mtl
o SM_Yellow_Island_Large_002.001
v 99.999756 99.999359 700.000427
v -0.000244 99.999359 700.000427
v -0.000244 -0.000637 700.000427
v 99.999756 -0.000637 700.000427
v 99.999756 -0.000637 700.000427
v -0.000244 -0.000637 700.000427
v -0.000244 -0.000637 600.000427
v 99.999756 -0.000637 600.000427
v 99.999756 99.999359 700.000427
v 99.999756 -0.000637 700.000427
v 99.999756 -0.000637 600.000427
v 99.999756 99.999359 600.000427
v -0.000244 99.999359 700.000427
v 99.999756 99.999359 700.000427
v 99.999756 99.999359 600.000427
v -0.000244 99.999359 600.000427
v -0.000244 -0.000637 700.000427
v -0.000244 99.999359 700.000427
v -0.000244 99.999359 600.000427
v -0.000244 -0.000637 600.000427
v -0.000244 -0.000576 500.000366
v 99.999756 -0.000557 500.000336
v 99.999756 -0.000557 500.000336
v 99.999756 99.999359 500.000366
v 99.999756 99.999359 500.000366
v -0.000244 99.999359 500.000366
v -0.000244 99.999359 600.000427
v -100.000244 99.999359 600.000427
v -100.000244 -0.000637 600.000427
v -0.000244 -0.000637 600.000427
v -100.000244 -0.000637 600.000427
v -100.000244 -0.000637 500.000366
v -100.000244 99.999359 600.000427
v -100.000244 99.999359 500.000366
v -100.000244 -0.000637 600.000427
v -100.000244 99.999359 600.000427
v -100.000244 99.999359 500.000366
v -100.000244 -0.000637 500.000366
v 99.999939 -0.000301 400.000244
v 100.000000 99.999634 400.000244
v 0.000061 99.999680 400.000244
v 100.000000 99.999634 400.000244
v -0.000328 -0.000599 400.000244
v -100.000549 -0.000912 400.000214
v -100.000168 99.999466 400.000214
v -100.000168 99.999466 400.000214
v -100.000549 -0.000912 400.000214
v -0.000244 -0.000576 500.000366
v 99.999756 -100.000397 500.000305
v 99.999756 -0.000557 500.000336
v -0.000244 -100.000397 500.000305
v 99.999756 -100.000397 500.000305
v -0.000244 -100.000397 500.000305
v -0.000328 -100.000427 400.000214
v 99.999840 -100.000198 400.000214
v 99.999756 -100.000397 500.000305
v 99.999840 -100.000198 400.000214
v -0.000244 -100.000397 500.000305
v -0.000244 -0.000576 500.000366
v -0.000328 -0.000599 400.000244
v -0.000328 -100.000427 400.000214
v -0.000328 -100.000427 400.000214
v 99.999756 -200.000092 400.000183
v 99.999840 -100.000198 400.000214
v -0.000244 -200.000092 400.000183
v 99.999756 -200.000092 400.000183
v -0.000244 -200.000092 400.000183
v -0.000244 -200.000076 300.000183
v 99.999756 -200.000092 300.000183
v 99.999756 -200.000092 400.000183
v 99.999756 -200.000092 300.000183
v 100.000000 -100.000092 300.000122
v -0.000244 -200.000076 300.000183
v -0.000244 -200.000092 400.000183
v -0.000328 -100.000305 300.000183
v -100.000549 -0.000912 400.000214
v -0.000328 -0.000599 400.000244
v -100.000610 -100.000977 400.000183
v -100.000610 -100.000977 400.000183
v -100.000549 -100.000793 300.000183
v -0.000328 -100.000305 300.000183
v -200.000732 -0.001125 400.000183
v -200.000732 -100.001190 400.000183
v -200.000732 -100.001190 400.000183
v -200.000732 -100.001190 300.000183
v -200.000732 -100.001190 400.000183
v -200.000732 -0.001125 400.000183
v -200.000732 -0.001125 300.000183
v -200.000732 -100.001190 300.000183
v -200.000732 99.998932 400.000183
v -100.000168 99.999466 400.000214
v -200.000732 99.998932 400.000183
v -100.000336 99.999710 300.000183
v -200.000732 99.999329 300.000183
v -200.000732 99.998932 400.000183
v -200.000732 99.999329 300.000183
v 100.000366 -0.000088 300.000061
v 100.000488 99.999908 300.000000
v 0.000427 100.000000 300.000122
v 100.000488 99.999908 300.000000
v -99.999512 200.000092 400.000183
v 0.000061 99.999680 400.000244
v 0.000488 200.000092 400.000183
v 0.000488 200.000092 400.000183
v 0.000061 99.999680 400.000244
v 0.000427 100.000000 300.000122
v 0.000488 200.000092 300.000183
v -99.999512 200.000092 400.000183
v 0.000488 200.000092 400.000183
v 0.000488 200.000092 300.000183
v -99.999924 200.000092 300.000183
v -99.999512 200.000092 400.000183
v -100.000336 99.999710 300.000183
v -99.999924 200.000092 300.000183
v -0.000244 -200.000061 200.000183
v 99.999756 -200.000092 200.000183
v 99.999756 -200.000092 200.000183
v 100.000122 -100.000092 200.000061
v -200.000732 -100.001190 200.000183
v -100.000488 -100.000610 200.000183
v -200.000732 -0.001125 200.000183
v -200.000732 -100.001190 200.000183
v -200.000732 99.999512 200.000183
v 0.000488 200.000092 200.000183
v 0.000488 100.000000 200.000061
v 0.000488 200.000092 200.000183
v -100.000122 200.000092 200.000183
v -200.000732 200.000092 300.000183
v -100.000336 99.999710 300.000183
v -99.999924 200.000092 300.000183
v -200.000732 99.999329 300.000183
v -200.000732 200.000092 300.000183
v -200.000732 200.000092 200.000183
v -200.000732 200.000092 300.000183
v -200.000732 200.000092 200.000183
v 100.000366 -0.000088 300.000061
v 200.000488 -100.000092 299.999939
v 200.000610 -0.000088 299.999939
v 100.000000 -100.000092 300.000122
v 200.000488 -100.000092 299.999939
v 100.000000 -100.000092 300.000122
v 100.000122 -100.000092 200.000061
v 200.000488 -100.000092 199.999939
v 200.000610 -0.000088 299.999939
v 200.000488 -100.000092 299.999939
v 200.000488 -100.000092 199.999939
v 200.000610 -0.000088 199.999939
v 100.000488 99.999908 300.000000
v 200.000732 99.999908 299.999939
v 200.000732 99.999908 299.999939
v 200.000732 99.999908 199.999939
v 200.000732 99.999908 299.999939
v 100.000610 99.999908 199.999939
v 200.000732 99.999908 199.999939
v 0.000488 100.000000 200.000061
v -0.000244 -200.000061 100.000183
v 99.999756 -200.000031 100.000061
v 99.999756 -200.000031 100.000061
v 100.000000 -100.000031 100.000000
v -200.000732 -100.001190 100.000183
v -100.000488 -100.000610 100.000183
v -200.000732 -0.001125 100.000183
v -200.000732 -100.001190 100.000183
v -200.000732 99.999512 100.000183
v 0.000488 200.000092 100.000183
v 0.000488 100.000000 100.000061
v 0.000488 200.000092 100.000183
v -100.000122 200.000092 100.000183
v -200.000732 200.000092 100.000183
v -200.000732 200.000092 100.000183
v 200.000244 -100.000031 99.999939
v 100.000000 -100.000031 100.000000
v 200.000244 -100.000031 99.999939
v 200.000610 -0.000088 99.999939
v 200.000732 99.999908 99.999939
v 200.000732 99.999908 99.999939
v 100.000610 99.999908 99.999939
v 0.000488 100.000000 100.000061
v -0.000244 -200.000061 0.000183
v 99.999756 -200.000000 0.000061
v -100.000488 -100.000839 0.000183
v -200.000732 -100.001190 0.000183
v -100.000732 -0.001453 0.000061
v -200.000732 -0.001106 0.000122
v -200.000732 -100.001190 0.000183
v -100.000488 -100.000839 0.000183
v -200.000732 -100.001190 0.000183
v -200.000732 -0.001106 0.000122
v -200.000732 99.999329 0.000122
v 0.000488 200.000092 0.000061
v 0.000244 100.000153 0.000000
v -99.999924 200.000092 0.000061
v 0.000488 200.000092 0.000061
v -100.000336 99.999710 0.000061
v -200.000732 200.000092 0.000183
v -99.999924 200.000092 0.000061
v -200.000732 99.999329 0.000122
v -200.000732 200.000092 0.000183
v -200.000732 200.000092 0.000183
v 199.999939 -99.999908 -0.000061
v 200.000183 0.000156 -0.000061
v 200.000244 100.000214 -0.000061
v 200.000244 100.000214 -0.000061
v 100.000122 100.000214 -0.000061
v 0.000244 100.000153 0.000000
v 100.000000 -100.000031 100.000000
v 199.999756 -199.999908 99.999939
v 200.000244 -100.000031 99.999939
v 99.999756 -200.000031 100.000061
v 199.999756 -199.999908 99.999939
v 199.999756 -199.999908 -0.000061
v 199.999756 -199.999908 99.999939
v 199.999756 -199.999908 -0.000061
v -100.000549 -100.000793 300.000183
v -0.000244 -200.000076 300.000183
v -0.000328 -100.000305 300.000183
v -100.000244 -200.000031 300.000183
v -100.000244 -200.000031 300.000183
v -100.000244 -200.000031 200.000183
v -100.000549 -100.000793 300.000183
v -100.000244 -200.000031 200.000183
v -100.000244 -200.000031 300.000183
v -100.000488 -100.000610 200.000183
v -100.000244 -200.000031 100.000183
v -100.000488 -100.000610 100.000183
v -100.000244 -200.000031 100.000183
v -100.000244 -200.000031 0.000183
v -100.000488 -100.000839 0.000183
v -100.000244 -200.000031 0.000183
v -100.000732 -0.001453 0.000061
v -200.000732 -0.001106 0.000122
v -200.000732 -0.001064 -99.999939
v -100.000732 -0.001583 -99.999939
v -100.000336 99.999710 0.000061
v -200.000732 99.998932 -99.999939
v -200.000732 99.999329 0.000122
v -100.000122 99.999512 -100.000000
v -200.000732 99.998932 -99.999939
v -200.000732 -0.001064 -99.999939
v -100.000732 -0.001186 -199.999939
v -200.000732 99.998932 -199.999939
v -100.000122 99.999908 -200.000061
v -200.000732 -0.001064 -199.999939
v -200.000732 -0.001064 -199.999939
v -100.000732 -0.001186 -199.999939
v -200.000732 99.998932 -199.999939
v -100.000122 99.999908 -200.000061
v -200.000732 99.998932 -199.999939
v -200.000732 -0.001064 -199.999939
v -100.000732 -0.001453 0.000061
v -100.000732 -0.001583 -99.999939
v -100.000580 -100.001419 -99.999939
v -100.000580 -100.001419 -99.999939
v -0.000488 -100.001099 -199.999878
v -0.000408 -100.000748 -99.999939
v -100.000732 -100.002106 -199.999939
v -100.000732 -0.001186 -199.999939
v -100.000732 -100.002106 -199.999939
v -0.000244 -200.000076 -99.999939
v -100.000580 -100.001419 -99.999939
v -0.000408 -100.000748 -99.999939
v -100.000244 -200.000031 -99.999817
v -100.000244 -200.000031 -99.999817
v -0.000244 -200.000076 -99.999939
v -100.000244 -200.000031 -99.999817
v 99.999756 -200.000000 -100.000000
v 199.999756 -199.999908 -100.000122
v 199.999756 -199.999908 -100.000122
v 199.999756 -99.999817 -100.000122
v -0.000244 -200.000092 -199.999939
v 99.999756 -200.000000 -200.000000
v -0.000244 -200.000076 -99.999939
v -0.000408 -100.000748 -99.999939
v -0.000488 -100.001099 -199.999878
v -0.000244 -200.000092 -199.999939
v 199.999756 -199.999908 -200.000183
v 199.999756 -199.999908 -200.000183
v 199.999756 -99.999817 -200.000183
v 99.999756 -200.000000 -300.000000
v -0.000549 -100.001602 -299.999878
v 99.999695 -100.001053 -299.999939
v -0.000244 -200.000092 -299.999878
v -0.000244 -200.000092 -299.999878
v 99.999756 -200.000000 -300.000000
v -0.000549 -100.001602 -299.999878
v -0.000244 -200.000092 -299.999878
v 199.999756 -199.999908 -300.000122
v 199.999756 -100.000580 -300.000061
v 199.999756 -199.999908 -300.000122
v 199.999756 -100.000580 -300.000061
v 199.999756 -199.999908 -300.000122
v -0.000549 -100.001602 -299.999878
v -100.000732 -100.002106 -299.999878
v -100.000732 -0.001446 -299.999939
v -100.000732 -100.002106 -299.999878
v -0.000572 -100.002106 -399.999817
v -100.000732 -100.002106 -399.999817
v -0.000652 -0.002102 -399.999817
v -100.000732 -0.002102 -399.999817
v -0.000572 -100.002106 -399.999817
v -100.000732 -100.002106 -399.999817
v -100.000732 -0.002102 -399.999817
v -100.000732 -100.002106 -399.999817
v -100.000336 99.999512 -300.000061
v -0.000305 99.999146 -300.000000
v -0.000610 99.997986 -399.999817
v -100.000732 99.997894 -399.999817
v -100.000336 99.999512 -300.000061
v -100.000732 99.997894 -399.999817
v 99.999634 -100.002106 -399.999817
v 99.999695 -100.001053 -299.999939
v 199.999756 -100.000580 -300.000061
v 199.999756 -100.002106 -399.999817
v 199.999756 -0.002010 -399.999817
v 199.999756 -0.000805 -300.000000
v 199.999756 -100.002106 -399.999817
v -0.000488 -100.002106 -499.999817
v 99.999596 -100.002106 -499.999817
v -0.000572 -100.002106 -399.999817
v -0.000652 -0.002102 -399.999817
v -0.000549 -0.002132 -499.999817
v -0.000488 -100.002106 -499.999817
v 199.999756 -100.002106 -499.999817
v 99.999634 -0.002087 -499.999817
v 199.999756 -0.002010 -499.999817
v 99.999596 -100.002106 -499.999817
v 199.999756 -100.002106 -499.999817
v 199.999756 -100.002106 -499.999817
v 199.999756 -0.002010 -499.999817
v 99.999512 -100.002106 -599.999817
v -0.000488 -100.002106 -599.999817
v 99.999512 -0.002186 -599.999817
v -0.000488 -0.002186 -599.999817
v 99.999512 -100.002106 -599.999817
v -0.000488 -100.002106 -599.999817
v 99.999596 -100.002106 -499.999817
v 99.999512 -0.002186 -599.999817
v 99.999634 -0.002087 -499.999817
v 99.999512 -100.002106 -599.999817
v -0.000488 -0.002186 -599.999817
v -0.000488 -100.002106 -599.999817
v 99.999512 99.997772 -599.999817
v 99.999596 99.997986 -499.999817
v -0.000572 99.997925 -499.999817
v 99.999596 99.997986 -499.999817
v 99.999512 99.997772 -599.999817
v -0.000488 99.997772 -599.999817
v -0.000572 99.997925 -499.999817
v -0.000488 99.997772 -599.999817
v 99.999512 -0.002186 -599.999817
v -0.000488 -0.002186 -599.999817
v -0.000488 -0.002224 -700.000061
v 99.999512 -0.002224 -700.000061
v 99.999512 99.997772 -700.000061
v 99.999512 -0.002224 -700.000061
v 99.999512 99.997772 -700.000061
v -0.000488 99.997772 -700.000061
v -0.000488 99.997772 -700.000061
v -0.000488 -0.002224 -700.000061
v 99.999512 -0.002224 -800.000061
v -0.000488 -0.002224 -800.000061
v 99.999512 99.997772 -800.000061
v -0.000488 99.997772 -800.000061
v -0.000488 -0.002224 -800.000061
v 99.999512 -0.002224 -800.000061
v 99.999512 -0.002224 -800.000061
v 99.999512 99.997772 -800.000061
v 99.999512 99.997772 -800.000061
v -0.000488 99.997772 -800.000061
v -0.000488 99.997772 -800.000061
v -0.000488 -0.002224 -800.000061
v 199.999756 0.000401 -100.000122
v 199.999756 0.000401 -200.000183
v 199.999756 99.998077 -399.999817
v 199.999756 99.999298 -300.000000
v 99.999634 99.999298 -300.000000
v 199.999756 99.999298 -300.000000
v 199.999756 99.998077 -399.999817
v 99.999634 99.998077 -399.999817
v 99.999596 99.997986 -499.999817
v 199.999756 99.998077 -499.999817
v 199.999756 99.998077 -499.999817
v 199.999756 99.998077 -499.999817
v 199.999756 100.000519 -100.000122
v 199.999756 100.000519 -100.000122
v 99.999634 100.000519 -100.000122
v 199.999756 100.000519 -200.000183
v 199.999756 100.000519 -200.000183
v 99.999634 100.000519 -200.000183
v 0.000000 100.000305 -100.000061
v 0.000000 100.000305 -200.000122
v -100.000122 99.999908 -200.000061
v 0.000000 100.000305 -100.000061
v 0.000488 200.000092 -100.000061
v -99.999512 200.000092 -100.000061
v 0.000488 200.000092 -100.000061
v -100.000336 99.999710 0.000061
v -99.999924 200.000092 0.000061
v -99.999512 200.000092 -100.000061
v -100.000122 99.999512 -100.000000
v 0.000488 200.000092 -200.000061
v 0.000000 100.000305 -200.000122
v 0.000488 200.000092 -200.000061
v -99.999512 200.000092 -200.000061
v -99.999512 200.000092 -200.000061
v -0.000305 99.999146 -300.000000
v -99.999512 200.000092 -300.000061
v 0.000488 200.000092 -300.000061
v -100.000336 99.999512 -300.000061
v 0.000488 200.000092 -300.000061
v -0.000305 99.999146 -300.000000
v 0.000488 200.000092 -300.000061
v -99.999512 200.000092 -300.000061
v -99.999512 200.000092 -300.000061
v -0.000549 -0.002132 -499.999817
v -100.000732 -0.002102 -499.999695
v -0.000572 99.997925 -499.999817
v -100.000732 99.997894 -499.999695
v -0.000652 -0.002102 -399.999817
v -100.000732 -0.002102 -399.999817
v -100.000732 -0.002102 -499.999695
v -0.000549 -0.002132 -499.999817
v -100.000732 99.997894 -499.999695
v -100.000732 99.997894 -499.999695
v -100.000732 -0.002102 -499.999695
vn -0.0000 -0.0000 1.0000
vn -0.0000 -1.0000 -0.0000
vn 1.0000 -0.0000 -0.0000
vn -0.0000 1.0000 -0.0000
vn -1.0000 -0.0000 -0.0000
vn -0.0000 -0.0000 -1.0000
vt 0.250000 0.500000
vt 0.250000 0.750000
vt -0.000031 0.750000
vt -0.000031 0.500000
s 1
usemtl MI_End_MeshFades
f 20/1/5 17/2/5 18/3/5 19/4/5
f 179/1/2 156/2/2 224/3/2 227/4/2
f 177/1/4 153/2/4 154/3/4 176/4/4
f 353/1/2 350/2/2 351/3/2 352/4/2
f 164/1/5 123/2/5 135/3/5 170/4/5
f 322/1/5 319/2/5 320/3/5 321/4/5
f 335/4/2 334/1/2 318/2/2 317/3/2
f 30/1/1 27/2/1 28/3/1 29/4/1
f 249/1/5 239/2/5 238/3/5 248/4/5
f 344/1/4 306/2/4 379/3/4 345/4/4
f 147/1/3 144/2/3 145/3/3 146/4/3
f 8/1/2 5/2/2 6/3/2 7/4/2
f 42/4/4 41/1/4 26/2/4 25/3/4
f 237/4/4 235/1/4 236/2/4 234/3/4
f 390/1/4 205/2/4 204/3/4 386/4/4
f 286/1/5 275/2/5 274/3/5 285/4/5
f 78/4/1 62/1/1 77/2/1 76/3/1
f 297/1/6 299/2/6 298/3/6 296/4/6
f 400/1/5 397/2/5 398/3/5 399/4/5
f 275/1/5 272/2/5 273/3/5 274/4/5
f 264/1/2 179/2/2 227/3/2 263/4/2
f 289/1/2 276/2/2 271/3/2 284/4/2
f 116/1/2 69/2/2 68/3/2 115/4/2
f 174/1/3 147/2/3 146/3/3 173/4/3
f 271/1/2 266/2/2 264/3/2 270/4/2
f 209/4/1 207/1/1 208/2/1 206/3/1
f 61/1/5 58/2/5 59/3/5 60/4/5
f 39/1/3 23/2/3 56/3/3 57/4/3
f 186/1/2 161/2/2 160/3/2 185/4/2
f 4/1/1 1/2/1 2/3/1 3/4/1
f 258/1/5 252/2/5 251/3/5 257/4/5
f 111/1/4 108/2/4 109/3/4 110/4/4
f 306/1/4 305/2/4 376/3/4 379/4/4
f 301/4/2 300/1/2 292/2/2 293/3/2
f 308/1/5 392/2/5 405/3/5 414/4/5
f 82/4/1 76/1/1 91/2/1 90/3/1
f 307/1/4 304/2/4 305/3/4 306/4/4
f 47/1/5 38/2/5 37/3/5 46/4/5
f 396/4/4 395/1/4 192/2/4 193/3/4
f 384/1/3 202/2/3 201/3/3 372/4/3
f 115/1/2 68/2/2 218/3/2 219/4/2
f 269/1/3 200/2/3 213/3/3 268/4/3
f 80/1/2 79/2/2 84/3/2 85/4/2
f 38/1/5 35/2/5 36/3/5 37/4/5
f 193/4/4 192/1/4 168/2/4 167/3/4
f 223/4/5 221/1/5 222/2/5 220/3/5
f 135/4/5 123/1/5 96/2/5 134/3/5
f 205/1/4 178/2/4 177/3/4 204/4/4
f 157/1/2 116/2/2 115/3/2 156/4/2
f 266/1/2 180/2/2 179/3/2 264/4/2
f 245/1/2 233/2/2 232/3/2 244/4/2
f 405/4/5 392/1/5 400/2/5 399/3/5
f 69/1/2 66/2/2 67/3/2 68/4/2
f 337/4/3 342/1/3 343/2/3 338/3/3
f 34/1/4 33/2/4 16/3/4 26/4/4
f 284/1/2 271/2/2 270/3/2 283/4/2
f 94/1/4 92/2/4 45/3/4 93/4/4
f 172/4/2 171/1/2 143/2/2 142/3/2
f 191/4/3 190/1/3 165/2/3 166/3/3
f 151/1/3 150/2/3 144/3/3 147/4/3
f 122/1/5 89/2/5 88/3/5 121/4/5
f 371/1/5 359/2/5 358/3/5 370/4/5
f 189/1/5 164/2/5 170/3/5 199/4/5
f 162/1/5 121/2/5 123/3/5 164/4/5
f 168/1/4 127/2/4 126/3/4 167/4/4
f 169/1/4 133/2/4 127/3/4 168/4/4
f 229/1/5 226/2/5 225/3/5 228/4/5
f 153/4/4 155/1/4 99/2/4 100/3/4
f 26/1/4 16/2/4 15/3/4 25/4/4
f 389/1/4 386/2/4 385/3/4 388/4/4
f 267/1/2 211/2/2 180/3/2 266/4/2
f 211/1/2 210/2/2 157/3/2 180/4/2
f 313/1/2 312/2/2 311/3/2 310/4/2
f 276/1/2 267/2/2 266/3/2 271/4/2
f 318/1/2 310/2/2 300/3/2 317/4/2
f 133/1/4 132/2/4 111/3/4 127/4/4
f 279/1/6 281/2/6 288/3/6 287/4/6
f 127/1/4 111/2/4 110/3/4 126/4/4
f 107/1/3 104/2/3 105/3/3 106/4/3
f 136/4/1 138/1/1 149/2/1 148/3/1
f 347/1/4 344/2/4 345/3/4 346/4/4
f 394/1/3 190/2/3 191/3/3 393/4/3
f 41/4/4 45/1/4 34/2/4 26/3/4
f 386/1/4 204/2/4 203/3/4 385/4/4
f 44/4/2 43/1/2 21/2/2 32/3/2
f 262/1/6 260/2/6 261/3/6 259/4/6
f 295/1/5 258/2/5 257/3/5 294/4/5
f 139/4/1 137/1/1 138/2/1 136/3/1
f 40/1/3 24/2/3 23/3/3 39/4/3
f 318/4/2 327/1/2 313/2/2 310/3/2
f 180/1/2 157/2/2 156/3/2 179/4/2
f 376/1/4 389/2/4 388/3/4 377/4/4
f 89/1/5 86/2/5 87/3/5 88/4/5
f 161/1/2 120/2/2 119/3/2 160/4/2
f 340/1/5 321/2/5 348/3/5 349/4/5
f 65/4/1 63/1/1 64/2/1 62/3/1
f 114/4/5 113/1/5 46/2/5 112/3/5
f 143/1/2 140/2/2 141/3/2 142/4/2
f 290/4/3 315/1/3 373/2/3 278/3/3
f 282/1/6 280/2/6 281/3/6 279/4/6
f 256/4/2 254/1/2 255/2/2 253/3/2
f 163/1/5 122/2/5 121/3/5 162/4/5
f 97/1/3 39/2/3 57/3/3 72/4/3
f 182/1/6 184/2/6 183/3/6 181/4/6
f 409/1/6 407/2/6 408/3/6 406/4/6
f 204/1/4 177/2/4 176/3/4 203/4/4
f 339/4/3 337/1/3 338/2/3 336/3/3
f 252/1/5 228/2/5 250/3/5 251/4/5
f 188/1/5 162/2/5 164/3/5 189/4/5
f 166/4/3 165/1/3 124/2/3 125/3/3
f 192/4/4 198/1/4 169/2/4 168/3/4
f 324/1/6 380/2/6 381/3/6 325/4/6
f 200/1/3 173/2/3 212/3/3 213/4/3
f 118/1/3 72/2/3 71/3/3 117/4/3
f 331/1/6 333/2/6 332/3/6 330/4/6
f 217/4/1 215/1/1 216/2/1 214/3/1
f 123/4/5 121/1/5 88/2/5 96/3/5
f 303/1/5 295/2/5 294/3/5 302/4/5
f 55/1/2 52/2/2 53/3/2 54/4/2
f 120/1/2 80/2/2 85/3/2 119/4/2
f 293/4/2 292/1/2 254/2/2 256/3/2
f 300/4/2 310/1/2 311/2/2 292/3/2
f 233/1/2 230/2/2 231/3/2 232/4/2
f 24/1/3 12/2/3 11/3/3 23/4/3
f 247/4/4 246/1/4 235/2/4 237/3/4
f 372/1/3 201/2/3 200/3/3 269/4/3
f 411/4/3 410/1/3 401/2/3 402/3/3
f 316/4/3 314/1/3 315/2/3 290/3/3
f 197/1/6 195/2/6 196/3/6 194/4/6
f 131/4/1 129/1/1 130/2/1 128/3/1
f 326/1/6 324/2/6 325/3/6 323/4/6
f 51/4/1 49/1/1 50/2/1 48/3/1
f 75/4/5 73/1/5 74/2/5 61/3/5
f 359/1/5 340/2/5 349/3/5 358/4/5
f 369/1/4 357/2/4 356/3/4 368/4/4
f 329/1/3 314/2/3 316/3/3 328/4/3
f 416/1/6 418/2/6 417/3/6 415/4/6
f 345/1/4 379/2/4 378/3/4 383/4/4
f 81/1/2 54/2/2 79/3/2 80/4/2
f 305/1/4 391/2/4 389/3/4 376/4/4
f 422/1/2 419/2/2 420/3/2 421/4/2
f 344/4/4 423/1/4 307/2/4 306/3/4
f 278/1/3 269/2/3 268/3/3 277/4/3
f 402/4/3 401/1/3 394/2/3 393/3/3
f 16/1/4 13/2/4 14/3/4 15/4/4
f 355/4/3 354/1/3 342/2/3 337/3/3
f 367/1/3 354/2/3 355/3/3 366/4/3
f 404/1/4 395/2/4 396/3/4 403/4/4
f 365/1/2 353/2/2 352/3/2 364/4/2
f 361/1/6 363/2/6 362/3/6 360/4/6
f 357/1/4 347/2/4 346/3/4 356/4/4
f 98/1/3 40/2/3 39/3/3 97/4/3
f 226/1/5 221/2/5 223/3/5 225/4/5
f 315/4/3 375/1/3 387/2/3 373/3/3
f 302/1/5 294/2/5 308/3/5 309/4/5
f 156/1/2 115/2/2 219/3/2 224/4/2
f 341/1/5 322/2/5 321/3/5 340/4/5
f 379/1/4 376/2/4 377/3/4 378/4/4
f 154/4/4 153/1/4 100/2/4 152/3/4
f 202/1/3 175/2/3 174/3/3 201/4/3
f 100/4/4 99/1/4 41/2/4 42/3/4
f 12/1/3 9/2/3 10/3/3 11/4/3
f 175/1/3 151/2/3 147/3/3 174/4/3
f 314/4/3 374/1/3 375/2/3 315/3/3
f 387/1/3 384/2/3 372/3/3 373/4/3
f 72/1/3 57/2/3 70/3/3 71/4/3
f 389/4/4 391/1/4 390/2/4 386/3/4
f 291/4/3 290/1/3 278/2/3 277/3/3
f 188/4/5 187/1/5 163/2/5 162/3/5
f 96/4/5 88/1/5 87/2/5 95/3/5
f 265/1/5 229/2/5 228/3/5 252/4/5
f 83/4/1 78/1/1 76/2/1 82/3/1
f 239/1/5 188/2/5 189/3/5 238/4/5
f 201/1/3 174/2/3 173/3/3 200/4/3
f 22/1/2 8/2/2 7/3/2 21/4/2
f 382/1/3 374/2/3 314/3/3 329/4/3
f 159/1/3 118/2/3 117/3/3 158/4/3
f 91/4/1 102/1/1 103/2/1 101/3/1
f 243/1/6 241/2/6 242/3/6 240/4/6
f 373/1/3 372/2/3 269/3/3 278/4/3
f 294/1/5 257/2/5 392/3/5 308/4/5
f 21/1/2 7/2/2 31/3/2 32/4/2
f 125/4/3 124/1/3 107/2/3 106/3/3
f 177/4/4 178/1/4 155/2/4 153/3/4
f 413/1/4 404/2/4 403/3/4 412/4/4
f 425/1/5 302/2/5 309/3/5 424/4/5
