# Blender 5.0.1
# www.blender.org
mtllib BP_Yellow_Island_Medium_001.mtl
o SM_Yellow_Island_Medium_001.001
v -200.000198 99.999619 500.000122
v -100.000198 0.000565 500.000122
v -100.000198 99.999634 500.000122
v -200.000214 -0.000008 500.000122
v -100.000198 0.000565 500.000122
v -99.999435 99.998962 400.000061
v -100.000198 99.999634 500.000122
v -99.999802 0.000145 400.000092
v -100.000198 99.999634 500.000122
v -200.000046 99.999298 400.000061
v -200.000198 99.999619 500.000122
v -99.999435 99.998962 400.000061
v -99.999954 -100.001114 -500.000000
v -199.999954 -100.001099 -500.000000
v -99.999954 -0.001099 -500.000000
v -199.999954 -0.001083 -500.000000
v -99.999954 -100.001114 -400.000000
v -199.999954 -100.001099 -400.000000
v -199.999954 -100.001099 -500.000000
v -99.999954 -100.001114 -500.000000
v -199.999954 -0.001083 -400.000000
v -99.999954 -0.001099 -400.000000
v -99.999954 -0.001099 -500.000000
v -199.999954 -0.001083 -500.000000
v -199.999954 -100.001099 -400.000000
v -199.999954 -0.001083 -400.000000
v -199.999954 -0.001083 -500.000000
v -199.999954 -100.001099 -500.000000
v 0.000057 -100.001114 -500.000000
v 0.000042 -0.001106 -500.000000
v 0.000057 -100.001114 -400.000000
v 0.000057 -100.001114 -500.000000
v 0.000042 -0.001106 -400.000000
v 0.000057 -100.001114 -400.000000
v 0.000057 -100.001114 -500.000000
v 0.000042 -0.001106 -500.000000
v 0.000042 -0.001106 -400.000000
v 0.000042 -0.001106 -500.000000
v -199.999954 -100.001099 -300.000061
v -99.999954 -100.001114 -300.000000
v -199.999954 -0.001083 -300.000000
v -99.999954 -0.001099 -300.000000
v -199.999954 -100.001099 -300.000061
v -199.999954 -0.001083 -300.000000
v 0.000057 -100.001114 -300.000061
v 0.000057 -100.001114 -300.000061
v 0.000046 -0.001129 -300.000000
v 0.000046 -0.001129 -300.000000
v -99.999954 -200.001083 -300.000000
v -199.999954 -100.001099 -300.000061
v -99.999954 -100.001114 -300.000000
v -199.999954 -200.001144 -300.000000
v -99.999954 -200.001083 -200.000015
v -199.999954 -200.001144 -200.000015
v -199.999954 -200.001144 -300.000000
v -99.999954 -200.001083 -300.000000
v -199.999954 -100.001099 -200.000015
v -199.999954 -200.001144 -300.000000
v -199.999954 -200.001144 -200.000015
v 0.000057 -200.001083 -300.000000
v 0.000057 -100.001114 -300.000061
v 0.000057 -200.001083 -200.000015
v 0.000057 -200.001083 -300.000000
v 0.000057 -100.001114 -200.000015
v 0.000057 -200.001083 -200.000015
v 0.000057 -200.001083 -300.000000
v -99.999954 -200.001083 -100.000008
v -199.999954 -200.001144 -100.000008
v -199.999954 -200.001144 -100.000008
v -199.999954 -100.001099 -100.000008
v 0.000057 -200.001083 -100.000008
v 0.000057 -200.001083 -100.000008
v 0.000038 -100.001083 -100.000008
v -199.999954 -0.001083 -200.000015
v -99.999924 -0.001129 -200.000015
v -199.999954 -0.001083 -200.000015
v 0.000084 -0.001198 -200.000015
v -199.999954 -0.001083 -100.000008
v -99.999893 -0.001167 -100.000008
v -199.999954 -0.001083 -100.000008
v 100.000046 -100.001099 -300.000000
v 100.000046 -0.001160 -300.000000
v 0.000046 -0.001129 -300.000000
v 0.000057 -100.001114 -200.000015
v 100.000046 -100.001099 -300.000000
v 100.000046 -100.001099 -200.000015
v 100.000046 -0.001160 -200.000015
v 100.000046 -100.001099 -200.000015
v 100.000046 -100.001099 -300.000000
v 100.000046 -0.001160 -300.000000
v 100.000015 -100.001022 -100.000008
v 0.000038 -100.001083 -100.000008
v 100.000015 -100.001022 -100.000008
v 100.000015 -0.001152 -100.000008
v 100.000061 99.998764 -300.000000
v 0.000046 99.998779 -300.000000
v 100.000061 99.998764 -200.000015
v 100.000061 99.998764 -300.000000
v 0.000084 99.998764 -200.000015
v 100.000061 99.998764 -200.000015
v 100.000061 99.998764 -300.000000
v 0.000046 99.998779 -300.000000
v 0.000084 99.998764 -200.000015
v 0.000046 -0.001129 -300.000000
v 0.000084 -0.001198 -200.000015
v 0.000046 99.998779 -300.000000
v 100.000046 99.998718 -100.000008
v 0.000111 99.998703 -100.000008
v 100.000046 99.998718 -100.000008
v 0.000084 -0.001198 -200.000015
v -99.999817 99.998779 -200.000015
v 0.000084 99.998764 -200.000015
v -99.999924 -0.001129 -200.000015
v -99.999832 99.998734 -100.000008
v -99.999817 99.998779 -200.000015
v -99.999832 99.998734 -100.000008
v -99.999924 -0.001129 -200.000015
v -99.999893 -0.001167 -100.000008
v -99.999817 99.998779 -200.000015
v 100.000046 99.998718 -100.000008
v 0.000111 99.998703 -100.000008
v 100.000031 199.998672 -100.000008
v 0.000092 199.998657 -100.000008
v 100.000298 199.998520 -0.000009
v 100.000137 99.998718 0.000052
v 100.000031 199.998672 -100.000008
v 0.000237 199.998520 -0.000009
v 100.000298 199.998520 -0.000009
v 100.000031 199.998672 -100.000008
v 0.000092 199.998657 -100.000008
v -99.999832 99.998734 -100.000008
v -99.999832 199.998672 -100.000008
v -99.999817 199.998489 -0.000009
v -99.999832 199.998672 -100.000008
v -99.999817 199.998489 -0.000009
v -99.999802 99.998581 -0.000009
v -99.999832 199.998672 -100.000008
v 99.999954 -0.001076 0.000022
v -99.999832 -0.001305 -0.000009
v 99.999962 -100.001022 0.000022
v 0.000038 -100.001083 -0.000009
v 199.999893 -100.001038 -100.000008
v 100.000015 -0.001152 -100.000008
v 199.999908 -0.000999 -100.000008
v 100.000015 -100.001022 -100.000008
v 199.999893 -100.001038 0.000052
v 199.999893 -100.001038 -100.000008
v 199.999908 -0.000999 0.000022
v 199.999893 -100.001038 0.000052
v 199.999893 -100.001038 -100.000008
v 199.999908 -0.000999 -100.000008
v 199.999908 -0.000999 0.000022
v 100.000015 -0.001152 -100.000008
v 99.999954 -0.001076 0.000022
v 199.999908 -0.000999 -100.000008
v -99.999954 -200.001083 -0.000009
v -199.999954 -200.001144 -0.000009
v -199.999954 -200.001144 -0.000009
v -199.999954 -100.001099 -0.000009
v 0.000057 -200.001083 -0.000009
v 0.000038 -100.001083 -0.000009
v 0.000057 -200.001083 -0.000009
v 99.999962 -100.001022 100.000053
v 199.999893 -100.001038 100.000053
v 199.999924 -0.001213 100.000053
v 199.999893 -100.001038 100.000053
v 199.999908 -0.000999 0.000022
v 100.000137 99.998718 0.000052
v 199.999939 99.999008 0.000052
v 99.999954 -0.001076 0.000022
v 199.999878 99.998596 100.000053
v 199.999939 99.999008 0.000052
v 199.999878 99.998596 100.000053
v 100.000137 99.998718 0.000052
v 100.000099 99.998505 100.000053
v 199.999939 99.999008 0.000052
v -0.000004 -200.001083 100.000023
v -99.999954 -200.001083 99.999992
v 100.000046 -200.001114 -0.000009
v 0.000057 -200.001083 -0.000009
v 99.999962 -100.001022 0.000022
v 0.000038 -100.001083 -0.000009
v 99.999969 -200.001083 100.000023
v 100.000046 -200.001114 -0.000009
v 99.999969 -200.001083 100.000023
v 99.999962 -100.001022 0.000022
v 99.999962 -100.001022 100.000053
v 100.000046 -200.001114 -0.000009
v -199.999954 -200.001144 99.999992
v -199.999954 -200.001144 99.999992
v -199.999954 -100.001099 99.999992
v -199.999863 -0.001274 -0.000009
v -99.999832 -0.001305 -0.000009
v -199.999863 -0.001274 -0.000009
v -99.999741 199.998184 99.999992
v -99.999756 99.998398 99.999992
v 0.000237 199.998520 -0.000009
v -99.999817 199.998489 -0.000009
v 0.000195 299.998322 -0.000009
v -99.999832 299.998322 -0.000009
v 0.000378 299.997894 99.999992
v 0.000412 199.998138 99.999992
v 0.000237 199.998520 -0.000009
v 0.000195 299.998322 -0.000009
v -99.999680 299.998016 99.999992
v 0.000378 299.997894 99.999992
v 0.000195 299.998322 -0.000009
v -99.999832 299.998322 -0.000009
v -99.999680 299.998016 99.999992
v -99.999832 299.998322 -0.000009
v -99.999832 -0.001305 -0.000009
v -199.999710 99.998428 -0.000009
v -99.999802 99.998581 -0.000009
v -199.999863 -0.001274 -0.000009
v -99.999756 99.998398 99.999992
v -199.999710 99.998428 -0.000009
v -199.999786 99.998535 99.999992
v -99.999802 99.998581 -0.000009
v -199.999863 -0.001274 99.999992
v -199.999786 99.998535 99.999992
v -199.999710 99.998428 -0.000009
v -199.999954 -100.001099 -0.000009
v -299.999939 -100.001083 -0.000009
v -299.999939 -0.001106 -0.000009
v -199.999954 -100.001099 99.999992
v -299.999939 -100.001083 99.999992
v -299.999939 -100.001083 -0.000009
v -199.999954 -100.001099 -0.000009
v -299.999939 -0.001106 99.999992
v -199.999863 -0.001274 99.999992
v -299.999939 -0.001106 -0.000009
v -299.999939 -100.001083 99.999992
v -299.999939 -0.001106 99.999992
v -299.999939 -0.001106 -0.000009
v -299.999939 -100.001083 -0.000009
v -299.999939 -100.001083 199.999985
v -199.999954 -100.001099 200.000000
v -299.999939 -100.001083 199.999985
v -300.000000 -0.000900 199.999985
v -199.999863 -0.001274 99.999992
v -299.999939 -0.001106 99.999992
v -199.999786 99.998535 99.999992
v -300.000000 99.998917 99.999992
v -199.999847 99.998764 199.999969
v -300.000000 99.998917 99.999992
v -300.000061 99.999283 199.999985
v -300.000061 99.999283 199.999985
v -300.000000 99.998917 99.999992
v -99.999756 99.998398 99.999992
v -99.999741 199.998184 99.999992
v -199.999680 199.998291 99.999992
v -199.999619 199.998260 199.999954
v -99.999451 199.997772 199.999954
v -99.999741 199.998184 99.999992
v -199.999680 199.998291 99.999992
v -199.999847 99.998764 199.999969
v -199.999619 199.998260 199.999954
v -199.999680 199.998291 99.999992
v -99.999268 299.997253 199.999954
v 0.000626 299.997467 199.999954
v -99.999268 299.997253 199.999954
v -99.999451 199.997772 199.999954
v 100.000381 199.998184 100.000023
v 0.000412 199.998138 99.999992
v 100.000557 299.997650 99.999992
v 0.000378 299.997894 99.999992
v 100.000542 299.997711 199.999954
v 100.000267 199.998062 200.000015
v 100.000381 199.998184 100.000023
v 100.000557 299.997650 99.999992
v 0.000412 199.998138 99.999992
v 100.000381 199.998184 100.000023
v 199.999863 99.998489 200.000076
v 99.999924 99.998322 200.000061
v 199.999847 -100.001007 200.000046
v 99.999886 -100.001007 200.000061
v 199.999847 -100.001007 200.000046
v 199.999817 -0.001213 200.000061
v 199.999771 -100.001038 300.000092
v 99.999847 -100.001053 300.000122
v 199.999771 -100.001038 300.000092
v 199.999802 -0.001022 300.000122
v -0.000053 -300.000336 199.999985
v -100.000153 -300.000366 199.999985
v -0.000046 -200.000870 200.000031
v -100.000046 -200.000717 199.999985
v -0.000145 -300.000305 300.000000
v -100.000168 -300.000366 300.000000
v -100.000153 -300.000366 199.999985
v -0.000053 -300.000336 199.999985
v -0.000145 -300.000305 300.000000
v -0.000046 -200.000870 200.000031
v -0.000118 -200.000687 300.000061
v -0.000053 -300.000336 199.999985
v -100.000259 -300.000336 400.000061
v -200.000229 -300.000366 400.000061
v -200.000198 -300.000336 300.000000
v -200.000229 -300.000366 400.000061
v -200.000183 -200.000351 400.000061
v -200.000137 -200.000565 300.000000
v -200.000198 -300.000336 300.000000
v -200.000046 -200.000839 200.000000
v -200.000198 -300.000336 199.999985
v -200.000198 -300.000336 199.999985
v -0.000248 -300.000275 400.000061
v -0.000248 -300.000275 400.000061
v -0.000252 -200.000687 400.000092
v 99.999931 -200.001053 200.000076
v 99.999886 -100.001007 200.000061
v -0.000118 -200.000687 300.000061
v 99.999931 -200.001053 200.000076
v 99.999931 -200.001053 300.000122
v -0.000046 -200.000870 200.000031
v 99.999847 -100.001053 300.000122
v 99.999931 -200.001053 300.000122
v -100.000046 -200.000717 199.999985
v -200.000046 -200.000839 200.000000
v -200.000046 -200.000839 200.000000
v -199.999954 -100.001099 200.000000
v 99.999786 -200.001114 400.000122
v -0.000252 -200.000687 400.000092
v 99.999786 -100.001053 400.000122
v 99.999786 -200.001114 400.000122
v 199.999802 -0.001022 400.000122
v 99.999977 -0.000603 400.000122
v 99.999786 -100.001053 400.000122
v 199.999771 -100.001038 400.000122
v 199.999771 -100.001038 400.000122
v 99.999786 -100.001053 400.000122
v 199.999771 -100.001038 400.000122
v 199.999802 -0.001022 400.000122
v 199.999802 99.999008 400.000122
v 100.000183 99.999466 400.000092
v 199.999817 99.998840 300.000122
v 199.999802 99.999008 400.000122
v 199.999786 199.998993 400.000122
v 100.000313 199.998657 400.000092
v 199.999847 199.998642 300.000122
v 199.999786 199.998993 400.000122
v 100.000313 199.998657 400.000092
v 199.999786 199.998993 400.000122
v 199.999847 199.998642 300.000122
v 100.000206 199.998199 300.000061
v 199.999863 99.998489 200.000076
v 199.999863 99.998489 200.000076
v 100.000267 199.998062 200.000015
v 199.999939 199.998276 200.000107
v 99.999924 99.998322 200.000061
v 199.999939 199.998276 200.000107
v 199.999939 199.998276 200.000107
v 100.000267 199.998062 200.000015
v 99.999687 -0.001060 500.000122
v -0.000259 0.000000 500.000122
v -0.000252 -100.000351 500.000122
v 99.999664 -100.001068 500.000122
v 99.999687 -0.001060 500.000122
v 99.999664 -100.001068 500.000122
v 99.999977 -0.000603 400.000122
v 99.999687 -0.001060 500.000122
v 0.000256 0.000099 400.000092
v -0.000259 0.000000 500.000122
v 99.999977 -0.000603 400.000122
v -0.000278 -200.000595 500.000122
v 99.999672 -200.001114 500.000122
v 99.999672 -200.001114 500.000122
v -0.000278 -200.000595 500.000122
v 99.999672 -200.001114 500.000122
v -100.000244 -200.000381 500.000122
v -100.000259 -300.000336 500.000122
v -0.000336 -300.000336 500.000122
v -0.000336 -300.000336 500.000122
v -100.000259 -300.000336 500.000122
v -0.000336 -300.000336 500.000122
v -0.000278 -200.000595 500.000122
v -200.000183 -200.000351 500.000122
v -200.000229 -300.000366 500.000122
v -200.000229 -300.000366 500.000122
v -200.000229 -300.000366 500.000122
v -200.000183 -200.000351 500.000122
v -200.000198 -100.000366 400.000061
v -200.000076 -100.000717 300.000000
v -200.000198 -99.999908 500.000122
v -100.000198 -99.999649 500.000122
v -200.000198 -99.999908 500.000122
v -200.000076 -100.000717 300.000000
v -300.000061 -100.000687 300.000000
v -300.000061 -100.000687 300.000000
v -300.000122 -0.000557 300.000000
v -200.000198 -100.000366 400.000061
v -300.000244 -100.000381 400.000061
v -300.000244 -100.000381 400.000061
v -300.000183 -0.000366 400.000061
v -300.000183 -0.000366 500.000122
v -300.000244 -100.000381 500.000122
v -200.000198 -99.999908 500.000122
v -300.000244 -100.000381 500.000122
v -300.000244 -100.000381 500.000122
v -300.000183 -0.000366 500.000122
v -300.000183 99.999634 300.000000
v -300.000183 99.999634 400.000061
v -199.999893 99.998932 300.000000
v -300.000183 99.999634 400.000061
v -300.000183 99.999634 300.000000
v -300.000183 99.999634 500.000122
v -300.000183 99.999634 500.000122
v -300.000183 99.999634 500.000122
v -199.999573 199.998230 300.000000
v -99.999268 199.997528 300.000000
v -199.999893 99.998932 300.000000
v -199.999573 199.998230 300.000000
v -99.999161 199.997772 400.000061
v -199.999573 199.998230 400.000061
v -200.000046 99.999298 400.000061
v -99.999435 99.998962 400.000061
v -199.999573 199.998230 400.000061
v -99.999161 199.997772 400.000061
v -200.000046 99.999298 400.000061
v -199.999573 199.998230 400.000061
v -99.998978 299.996826 300.000000
v -99.999268 199.997528 300.000000
v -99.998978 299.996826 400.000061
v 0.000801 199.997971 400.000061
v 0.000774 299.997253 400.000061
v -99.998978 299.996826 400.000061
v 0.000774 299.997253 400.000061
v 0.000774 299.997253 300.000000
v -99.998978 299.996826 300.000000
v -99.999161 199.997772 400.000061
v -99.998978 299.996826 400.000061
v 100.000206 199.998199 300.000061
v 100.000526 299.997711 300.000000
v 100.000526 299.997711 300.000000
v 100.000542 299.997711 199.999954
v 100.000526 299.997711 400.000061
v 100.000313 199.998657 400.000092
v 100.000526 299.997711 400.000061
v 100.000526 299.997711 400.000061
v -99.999802 0.000145 400.000092
v -100.000198 0.000565 500.000122
v 0.000774 99.999435 400.000061
v 0.000256 0.000099 400.000092
v -99.999802 0.000145 400.000092
v 99.999924 99.998322 200.000061
v 100.000099 99.998505 100.000053
v -200.000198 -300.000336 199.999985
v 100.000557 299.997650 99.999992
vn -0.0000 -0.0000 1.0000
vn 1.0000 -0.0000 -0.0000
vn -0.0000 1.0000 -0.0000
vn -0.0000 -0.0000 -1.0000
vn -0.0000 -1.0000 -0.0000
vn -1.0000 -0.0000 -0.0000
vt 0.500000 0.500000
vt 0.750000 0.500000
vt 0.750000 0.750000
vt 0.500000 0.750000
vt 0.250000 0.500000
vt 0.250000 0.750000
vt -0.000031 0.750000
vt -0.000031 0.500000
vt 0.250000 0.250000
vt 0.000031 0.500000
vt 0.000031 0.250000
vt 1.000000 0.500000
vt 1.000000 0.750000
s 1
usemtl MI_End_MeshFades
f 334/1/2 338/2/2 339/3/2 335/4/2
f 360/1/3 438/2/3 439/3/3 361/4/3
f 8/1/2 6/2/2 7/3/2 5/4/2
f 198/5/4 200/6/4 199/7/4 197/8/4
f 98/5/2 97/6/2 87/7/2 90/8/2
f 23/5/3 22/6/3 37/7/3 38/8/3
f 71/5/5 160/6/5 156/7/5 67/8/5
f 140/8/5 146/5/5 164/6/5 163/7/5
f 28/5/6 25/6/6 26/7/6 27/8/6
f 235/5/6 232/6/6 233/7/6 234/8/6
f 69/5/6 158/6/6 159/7/6 70/8/6
f 25/5/6 43/6/6 44/7/6 26/8/6
f 391/2/6 397/3/6 398/4/6 392/1/6
f 31/5/5 45/6/5 40/7/5 17/8/5
f 65/8/2 64/5/2 73/6/2 72/7/2
f 18/8/5 17/5/5 40/6/5 39/7/5
f 121/5/4 123/6/4 122/7/4 120/8/4
f 288/9/5 295/5/5 296/10/5 297/11/5
f 36/5/2 33/6/2 34/7/2 35/8/2
f 41/5/3 74/6/3 75/7/3 42/8/3
f 88/8/2 87/5/2 94/6/2 93/7/2
f 24/5/3 21/6/3 22/7/3 23/8/3
f 131/5/4 132/6/4 123/7/4 121/8/4
f 322/2/2 357/3/2 367/4/2 323/1/2
f 151/5/2 148/6/2 149/7/2 150/8/2
f 231/5/3 229/6/3 230/7/3 192/8/3
f 45/8/5 85/5/5 86/6/5 84/7/5
f 106/8/6 104/5/6 105/6/6 103/7/6
f 99/5/3 108/6/3 109/7/3 100/8/3
f 185/5/2 187/1/2 309/4/2 308/6/2
f 97/5/2 107/6/2 94/7/2 87/8/2
f 62/5/5 71/6/5 67/7/5 53/8/5
f 155/8/3 153/5/3 154/6/3 152/7/3
f 46/5/2 64/6/2 65/7/2 66/8/2
f 57/5/6 70/6/6 80/7/6 76/8/6
f 113/5/4 111/6/4 112/7/4 110/8/4
f 86/5/5 91/6/5 92/7/5 84/8/5
f 59/5/6 69/6/6 70/7/6 57/8/6
f 53/5/5 67/6/5 68/7/5 54/8/5
f 34/8/2 33/5/2 47/6/2 46/7/2
f 74/5/3 78/6/3 79/7/3 75/8/3
f 49/5/4 51/6/4 61/7/4 60/8/4
f 115/5/3 114/6/3 108/7/3 99/8/3
f 42/5/3 75/6/3 77/7/3 48/8/3
f 376/2/1 369/12/1 368/13/1 375/3/1
f 287/1/5 305/4/5 295/6/5 288/5/5
f 160/5/5 177/6/5 178/7/5 156/8/5
f 208/5/3 205/6/3 206/7/3 207/8/3
f 327/12/1 324/13/1 325/3/1 326/2/1
f 43/5/6 57/6/6 76/7/6 44/8/6
f 188/8/2 186/5/2 187/6/2 185/7/2
f 351/1/3 343/4/3 342/6/3 350/5/3
f 116/8/6 118/5/6 139/6/6 136/7/6
f 256/1/6 409/4/6 410/6/6 257/5/6
f 147/5/5 146/6/5 140/7/5 91/8/5
f 180/5/4 182/6/4 181/7/4 179/8/4
f 102/5/3 99/6/3 100/7/3 101/8/3
f 281/1/2 282/2/2 331/3/2 330/4/2
f 145/5/4 143/6/4 144/7/4 142/8/4
f 20/5/5 17/6/5 18/7/5 19/8/5
f 67/5/5 156/6/5 157/7/5 68/8/5
f 63/5/5 62/6/5 53/7/5 56/8/5
f 90/5/2 87/6/2 88/7/2 89/8/2
f 14/5/4 16/6/4 15/7/4 13/8/4
f 313/6/5 316/7/5 178/8/5 177/5/5
f 278/5/2 344/1/2 334/4/2 282/6/2
f 358/2/2 356/3/2 357/4/2 322/1/2
f 385/1/5 389/4/5 390/6/5 386/5/5
f 91/5/5 140/6/5 141/7/5 92/8/5
f 164/5/5 275/6/5 276/7/5 163/8/5
f 291/5/2 293/1/2 307/4/2 306/6/2
f 306/1/2 307/2/2 374/3/2 373/4/2
f 228/5/5 225/6/5 226/7/5 227/8/5
f 32/5/5 31/6/5 17/7/5 20/8/5
f 370/12/1 363/13/1 368/3/1 369/2/1
f 94/8/2 107/5/2 125/6/2 138/7/2
f 252/1/3 407/4/3 408/6/3 253/5/3
f 83/5/4 96/6/4 95/7/4 82/8/4
f 382/2/1 383/12/1 2/13/1 4/3/1
f 241/9/4 243/5/4 242/10/4 240/11/4
f 441/2/1 325/12/1 333/13/1 440/3/1
f 311/4/5 313/6/5 177/5/5 183/1/5
f 409/2/6 417/3/6 418/4/6 410/1/6
f 78/5/3 192/6/3 193/7/3 79/8/3
f 282/1/2 334/2/2 335/3/2 331/4/2
f 21/5/3 41/6/3 42/7/3 22/8/3
f 392/2/6 398/3/6 406/4/6 402/1/6
f 73/5/2 161/6/2 162/7/2 72/8/2
f 289/1/5 288/4/5 297/6/5 304/5/5
f 214/5/4 212/6/4 213/7/4 211/8/4
f 135/8/6 136/5/6 196/6/6 195/7/6
f 375/2/1 368/12/1 383/13/1 382/3/1
f 218/8/3 216/5/3 217/6/3 215/7/3
f 309/1/2 314/4/2 315/6/2 308/5/2
f 348/1/4 346/4/4 347/6/4 345/5/4
f 126/5/2 124/6/2 125/7/2 107/8/2
f 364/12/1 355/13/1 354/3/1 363/2/1
f 422/2/1 337/12/1 434/13/1 423/3/1
f 137/8/6 116/5/6 136/6/6 135/7/6
f 80/8/6 70/5/6 159/6/6 194/7/6
f 176/8/3 174/5/3 175/6/3 173/7/3
f 277/11/2 278/9/2 282/5/2 281/10/2
f 314/1/2 322/4/2 323/6/2 315/5/2
f 290/9/5 287/5/5 288/10/5 289/11/5
f 268/5/2 267/1/2 431/4/2 430/6/2
f 270/9/2 267/5/2 268/10/2 269/11/2
f 237/9/5 385/5/5 386/10/5 236/11/5
f 184/5/5 183/6/5 177/7/5 160/8/5
f 393/2/1 4/12/1 1/13/1 404/3/1
f 194/5/6 219/6/6 220/7/6 221/8/6
f 388/1/6 392/4/6 402/6/6 403/5/6
f 127/9/3 271/5/3 272/10/3 128/11/3
f 13/5/4 15/6/4 30/7/4 29/8/4
f 275/9/5 279/5/5 280/10/5 276/11/5
f 61/5/4 83/6/4 82/7/4 81/8/4
f 279/2/5 328/3/5 329/4/5 280/1/5
f 264/9/4 266/5/4 265/10/4 263/11/4
f 166/8/2 165/5/2 278/6/2 277/7/2
f 232/5/6 238/6/6 239/7/6 233/8/6
f 301/4/6 300/6/6 318/5/6 445/1/6
f 148/5/2 165/6/2 166/7/2 149/8/2
f 305/2/5 371/3/5 372/4/5 295/1/5
f 244/5/3 246/1/3 399/4/3 401/6/3
f 242/9/4 251/5/4 250/10/4 249/11/4
f 22/5/3 42/6/3 48/7/3 37/8/3
f 238/9/6 387/5/6 388/10/6 239/11/6
f 52/5/4 50/6/4 51/7/4 49/8/4
f 411/2/1 422/12/1 423/13/1 421/3/1
f 170/5/4 168/6/4 169/7/4 167/8/4
f 173/11/3 175/9/3 274/5/3 273/10/3
f 10/1/3 400/2/3 405/3/3 11/4/3
f 206/9/3 260/5/3 433/10/3 446/11/3
f 204/5/2 201/6/2 202/7/2 203/8/2
f 320/2/5 365/3/5 366/4/5 321/1/5
f 303/1/4 302/4/4 286/6/4 284/5/4
f 210/8/6 135/5/6 195/6/6 209/7/6
f 442/2/1 441/12/1 440/13/1 414/3/1
f 362/1/3 360/2/3 361/3/3 359/4/3
f 284/9/4 286/5/4 285/10/4 283/11/4
f 226/8/5 225/5/5 237/6/5 236/7/5
f 134/5/3 133/6/3 127/7/3 130/8/3
f 119/8/6 117/5/6 118/6/6 116/7/6
f 171/9/2 344/5/2 278/10/2 165/11/2
f 43/8/6 58/5/6 59/6/6 57/7/6
f 56/5/5 53/6/5 54/7/5 55/8/5
f 156/5/5 178/6/5 189/7/5 157/8/5
f 300/6/6 381/7/6 319/8/6 318/5/6
f 343/2/3 340/3/3 341/4/3 342/1/3
f 269/5/2 268/6/2 443/7/2 444/8/2
f 312/1/5 320/4/5 321/6/5 310/5/5
f 427/4/3 426/6/3 260/5/3 259/1/3
f 294/11/2 292/9/2 293/5/2 291/10/2
f 401/5/3 399/1/3 400/4/3 10/6/3
f 255/9/3 252/5/3 253/10/3 254/11/3
f 387/1/6 391/4/6 392/6/6 388/5/6
f 158/5/6 190/6/6 191/7/6 159/8/6
f 300/1/6 299/4/6 380/6/6 381/5/6
f 178/5/5 316/6/5 317/7/5 189/8/5
f 420/2/6 428/3/6 429/4/6 419/1/6
f 389/2/5 395/3/5 396/4/5 390/1/5
f 298/2/6 378/3/6 379/4/6 299/1/6
f 190/5/6 318/6/6 319/7/6 191/8/6
f 172/5/2 171/6/2 165/7/2 148/8/2
f 233/9/6 239/5/6 247/10/6 248/11/6
f 313/5/5 311/1/5 312/4/5 310/6/5
f 223/5/4 224/6/4 214/7/4 222/8/4
f 299/2/6 379/3/6 384/4/6 380/1/6
f 430/1/2 431/2/2 436/3/2 435/4/2
f 363/12/1 354/13/1 383/3/1 368/2/1
f 344/5/2 349/1/2 338/4/2 334/6/2
f 295/2/5 372/3/5 377/4/5 296/1/5
f 130/5/3 127/6/3 128/7/3 129/8/3
f 414/12/1 411/13/1 412/3/1 413/2/1
f 220/9/6 256/5/6 257/10/6 258/11/6
f 12/1/3 10/2/3 11/3/3 9/4/3
f 4/2/1 2/12/1 3/13/1 1/3/1
f 427/2/3 424/3/3 425/4/3 426/1/3
f 261/5/6 262/1/6 420/4/6 419/6/6
f 440/2/1 333/12/1 337/13/1 422/3/1
f 209/11/6 195/9/6 262/5/6 261/10/6
f 355/12/1 352/13/1 353/3/1 354/2/1
f 205/9/3 259/5/3 260/10/3 206/11/3
f 394/2/1 382/12/1 4/13/1 393/3/1
f 354/12/1 353/13/1 2/3/1 383/2/1
f 324/12/1 332/13/1 333/3/1 325/2/1
f 260/1/3 426/4/3 432/6/3 433/5/3
f 332/12/1 336/13/1 337/3/1 333/2/1
f 407/2/3 415/3/3 416/4/3 408/1/3
f 239/1/6 388/4/6 403/6/6 247/5/6
f 217/11/3 245/9/3 246/5/3 244/10/3
f 301/9/6 298/5/6 299/10/6 300/11/6
f 414/2/1 440/12/1 422/13/1 411/3/1
f 124/9/2 269/5/2 444/8/2 125/11/2
f 426/2/3 425/3/3 437/4/3 432/1/3
